<?xml version="1.0"?>

<svg
 xmlns="http://www.w3.org/2000/svg"
 width="306.213"
 height="304.05"
 viewBox="0 0 306.213 304.05"
 overflow="visible"
 enable-background="new 0 0 306.213 304.05">
<g style="stroke-width:2.00000008;stroke-miterlimit:4;stroke-dasharray:none">
					<path
 
 fill="none"
 stroke="#000000"
 stroke-width="0.127"
 d="M87.973,289.435   c27.627,12.415,51.339,13.764,51.339,13.764c25.782,2.732,48.519-2.12,63.146-6.889c10.806-3.521,17.386-7.077,17.386-7.077   c16.422-7.628,29.365-17.768,38.735-26.642c11.768-11.143,18.054-20.318,18.054-20.318   c12.162-15.441,19.291-32.739,23.46-47.829c2.404-8.697,3.704-16.764,4.551-23.333c1.303-10.028,1.472-16.575,1.472-16.575   c0.886-38.599-15.432-68.256-15.432-68.256c-6.536-13.732-14.012-25.675-21.64-34.588   c-11.803-13.793-22.562-21.09-22.562-21.09c-31.13-24.014-66.168-28.992-66.168-28.992c-35.487-5.25-66.174,4.536-66.174,4.536   C100.61,9.527,87.983,15.743,78.761,20.79c-7.991,4.37-14.024,7.9-14.024,7.9C45.303,40.786,30.675,61.417,30.675,61.417   c-3.676,4.971-6.853,10.017-9.675,15.02C3.748,107.024,1.278,135.991,1.278,135.991c-5.336,38.068,8.628,70.621,8.628,70.621   c7.045,19.972,19.664,37.41,30.287,49.255c0,0,13.162,14.823,27.302,23.536c0,0,4.179,2.357,7.914,4.136   C79.145,285.322,87.973,289.435,87.973,289.435z"
 id="path3050"
 style="stroke-width:2.00000008;stroke-miterlimit:4;stroke-dasharray:none" />
					<path
 
 fill="none"
 stroke="#000000"
 stroke-width="0.127"
 d="M64.16,44.654l-9.072,8.449   c-5.33,5.235-9.411,10.611-13.023,15.075c-6.435,7.941-10.773,14.517-14.508,22.008c-7.357,14.741-9.999,26.242-9.999,26.242   c-10.229,35.931-0.356,70.351-0.356,70.351c3.498,17.054,11.806,34.065,19.501,45.546   c10.092,15.057,23.322,26.405,23.322,26.405c6.59,5.976,13.271,10.865,19.832,14.936c5.025,3.117,9.952,5.775,14.654,7.964   c0,0,28.968,14.345,64.279,12.833c30.955-1.081,50.874-11.41,50.874-11.41c40.289-16.629,60.3-50.203,60.3-50.203   c25.612-36.82,24.01-82.092,24.01-82.092c-0.797-41.175-20.187-70.523-20.187-70.523   c-17.965-31.842-50.431-49.275-50.431-49.275c-28.369-17.077-59.232-17.83-59.232-17.83   c-31.66-3.202-58.432,7.248-58.432,7.248c-12.27,4.421-21.501,9.348-28.108,13.6C77.583,33.974,71.721,37.05,64.16,44.654z"
 id="path3052"
 style="stroke-width:2.00000008;stroke-miterlimit:4;stroke-dasharray:none" />
					<path
 
 fill="none"
 stroke="#000000"
 stroke-width="0.127"
 d="M240.702,256.683c0,0,24.414-21.168,34.816-47.14   c0,0,13.921-29.879,12.318-62.521c0,0,0.625-34.329-23.033-69.55c0,0-21.834-34.555-60.033-49.405   c0,0-38.602-16.81-78.266-7.695c0,0-43.58,8.718-73.284,40.378c0,0-33.622,36.997-35.042,86.096   c0,0-3.469,40.999,21.698,80.663c0,0,18.144,29.616,51.676,46.692c0,0,32.194,18.409,73.284,14.321   c0,0,38.331-2.049,70.706-27.483L240.702,256.683z"
 id="path3054"
 style="stroke-width:2.00000008;stroke-miterlimit:4;stroke-dasharray:none" />
					<path
 
 fill="none"
 stroke="#000000"
 stroke-width="0.127"
 d="M84.792,45.277c0,0-1.066-1.202-2.177,0.134   c-1.114,1.333-1.559,2.357-2.937,2.624c-1.379,0.267-2,1.912-1.467,2.669c0.534,0.754,4.179,5.203,7.205,10.716   c0,0,1.378,2.135,1.2,3.424c-0.179,1.288-0.533,2.221,0.088,2.221c0.624,0,1.913-0.487,2.714-1.377   c0.8-0.889,3.822-2.711,5.335-3.645c1.511-0.934,10.36-6.27,11.917-7.737c1.557-1.469,0.624-2.848-0.223-4.27   c-0.843-1.423-2.578-2.848-2.802-1.647c-0.221,1.201,0.4,3.025-0.667,4.537c-1.068,1.514-6.537,4.85-7.691,5.693   c-1.158,0.843-2.715,0.757-4.359-1.734C89.286,54.393,85.104,47.678,84.792,45.277z"
 id="path3056"
 style="stroke-width:2.00000008;stroke-miterlimit:4;stroke-dasharray:none" />
					<path
 
 fill="none"
 stroke="#000000"
 stroke-width="0.127"
 d="M77.678,66c0,0,1.957,1.509,2.979,2.489   c1.022,0.978,0.666,1.912,0.179,2.402c-0.491,0.487-1.023,1.554-1.381,2.177c-0.354,0.624-1.601,1.156-2.801,2.267   c-1.201,1.11-5.604,5.738-6.537,7.071c-0.933,1.335-3.154,4.003-3.645,4.179c-0.49,0.183-0.801-1.333-1.068-1.866   c-0.267-0.534-2.4-2.534-3.826-3.69c-1.419-1.156-6.269-5.693-7.29-6.003c-1.024-0.313-2.492-0.446-2.133-0.889   c0.354-0.445,3.644-3.959,4.402-5.336c0.753-1.378,1.152-0.801,1.6-0.223c0.443,0.58,4.223,4.135,7.024,6.67   c2.801,2.534,4.268,3.38,5.693,3.201c1.423-0.176,2.667-2.667,2.893-3.603c0.22-0.934,1.375-1.644,2.043-2.001   c0.668-0.353,1.601-3.288,1.245-5.289C76.701,65.556,77.678,66,77.678,66z"
 id="path3058"
 style="stroke-width:2.00000008;stroke-miterlimit:4;stroke-dasharray:none" />
					<path
 
 fill="none"
 stroke="#000000"
 stroke-width="0.127"
 d="M42.859,87.967c0,0-0.801-0.71-1.158,0.801   c-0.353,1.512-1.821,2.977-2.222,4.224c-0.4,1.244-0.4,2.179,0.443,2.404c0.845,0.217,2.492,0.485,3.913,1.332   c1.423,0.844,5.516,3.156,6.226,3.824c0.711,0.664,2.711,1.022,3.56,1.69c0.843,0.667,1.509,1.691,2.044,0.977   c0.534-0.71,2.535-3.778,2.801-5.423c0.267-1.647-0.176-1.824-1.023-1.781c-0.845,0.045-5.824-3.023-9.292-4.713   C44.684,89.612,42.859,87.967,42.859,87.967z"
 id="path3060"
 style="stroke-width:2.00000008;stroke-miterlimit:4;stroke-dasharray:none" />
					<path
 
 fill="none"
 stroke="#000000"
 stroke-width="0.127"
 d="M31.965,109.668c0,0,0.398,1.599-0.624,3.335   c-1.021,1.733-3.736,5.381-3.914,13.074c0,0-0.889,6.761,5.604,9.204c0,0,9.43,4.003,13.385-5.114   c0,0,4.001-9.429,4.536-13.429c0,0,0.356-2.491-0.621-3.025c-0.98-0.534-6.67-1.736-7.737-2.713   c-1.068-0.978-1.247-0.71-2.001-0.844c-0.757-0.134-1.867-0.268-2.048,0.622c-0.176,0.889-0.443,2.446-1.066,4.003   c-0.621,1.557-0.577,4.98-0.087,5.025c0.487,0.042,6.137,1.377,7.205,1.779c1.066,0.397,0.843,1.599,0.042,3.468   c-0.799,1.866-1.734,3.289-4.092,2.846c-2.355-0.446-7.024-1.957-8.714-3.114c-1.692-1.156-1.244-3.201-0.624-5.159   c0.624-1.957,2.001-5.426,3.158-6.136c1.158-0.714,2.358-0.489,2.402-2.225c0.043-1.732-1.467-1.599-2.358-1.824   C33.521,109.225,32.007,108.909,31.965,109.668z"
 id="path3062"
 style="stroke-width:2.00000008;stroke-miterlimit:4;stroke-dasharray:none" />
					<path
 
 fill="none"
 stroke="#000000"
 stroke-width="0.127"
 d="M25.516,147.42c0,0,0.801,0.759,4.092,0.759   c3.288,0,11.339,0.309,11.65-0.225c0.31-0.534,2.001-1.11,2.224-0.267c0.22,0.844,0.22,1.068,0.176,2.58   c-0.042,1.514,0,3.026,0.49,4.449c0.487,1.42,0.444,3.023-0.889,2.313c-1.335-0.713-2.936-1.026-6.538-1.026   c-3.601,0-7.647-0.4-9.828,0.313c-2.178,0.713-2.088,0.221-2.135-1.244c-0.042-1.469,0.134-4.67-0.22-6.273   C24.182,147.199,25.249,147.29,25.516,147.42z"
 id="path3064"
 style="stroke-width:2.00000008;stroke-miterlimit:4;stroke-dasharray:none" />
					<path
 
 fill="none"
 stroke="#000000"
 stroke-width="0.127"
 d="M30.274,173.613c0,0,0.177,1.468-0.577,2.625   c-0.757,1.157-0.624,4.091-0.223,7.514c0.398,3.427,1.91,7.429,2.935,7.781c1.023,0.358,2.891-1.199,2.492-4.354   c-0.401-3.159-1.782-6.052-1.336-12.097c0,0,0.222-3.869,4.624-5.292c0,0,5.87-1.287,8.185,4.403c0,0,1.333,3.647,1.601,8.36   c0.268,4.712,0,5.468,0.71,6.712c0.71,1.248,0.223,2.492-0.534,2.625c-0.758,0.133-1.644,0.755-4.046,0.488   c-2.4-0.267-0.232-1.576,0.267-4.583c0.443-2.667,0.844-4.709,0.4-9.289c0,0-0.534-4.628-2.535-5.072   c-2.002-0.446-2.534,2.847-1.869,6.713c0.668,3.87,0.978,9.563-1.156,12.764c-2.135,3.202-7.561,3.068-9.872-3.824   c-2.312-6.895-1.377-12.142-1.868-13.073c-0.49-0.935-0.668-2.045-0.133-2.179C27.872,173.704,30.274,172.681,30.274,173.613z"
 id="path3066"
 style="stroke-width:2.00000008;stroke-miterlimit:4;stroke-dasharray:none" />
					<path
 
 fill="none"
 stroke="#000000"
 stroke-width="0.127"
 d="M52.598,228.089c0,0-1.467,1.11-2.044,1.511   c-0.582,0.401,0.487,1.599,1.066,1.824c0.577,0.222,1.155,1.69,2.088,3.824c0.935,2.137,5.026,9.605,8.271,10.361   c3.249,0.755,7.25-0.622,7.294-4.313c0.044-3.694-1.645-7.739-4.269-12.539c-2.625-4.805-0.49-6.537,1.69-4.362   c2.178,2.183,6.047,10.364,6.003,11.521c-0.045,1.153,0.267,2.355,1.377,2.221c1.11-0.133,3.026-1.287,3.246-2.133   c0.223-0.844-0.443-1.11-0.843-1.378c-0.401-0.267-2.669-3.511-4.092-7.028c-1.422-3.511-5.604-8.357-9.56-7.514   c-3.959,0.844-6.894,2.934-6.05,8.14c0,0,0.801,4.358,4.05,9.604c0,0,1.287,3.423,0.132,4.045   c-1.157,0.622-4.225-4.712-6.449-9.071c0,0-0.667-1.201-0.534-2.579C54.109,228.845,53.441,227.513,52.598,228.089z"
 id="path3068"
 style="stroke-width:2.00000008;stroke-miterlimit:4;stroke-dasharray:none" />
					<path
 
 fill="none"
 stroke="#000000"
 stroke-width="0.127"
 d="M87.906,240.716c0,0-2.091-0.488-1.734,0.668   c0.356,1.156,0.577,1.958-0.71,3.736c-1.291,1.778-6.405,9.383-7.605,10.315c-1.2,0.934-2.625,1.824-1.647,2.668   c0.98,0.85,4.936,3.07,6.093,3.868c1.158,0.802,1.378,0.316,1.468-0.485c0.089-0.801,7.338-11.874,9.515-13.389   c2.182-1.508,1.248-2.935,0.49-3.287C93.018,244.452,87.906,240.716,87.906,240.716z"
 id="path3070"
 style="stroke-width:2.00000008;stroke-miterlimit:4;stroke-dasharray:none" />
					<path
 
 fill="none"
 stroke="#000000"
 stroke-width="0.127"
 d="M105.115,251.611c0,0-0.977-0.622-1.423-0.042   c-0.445,0.577,0.224,1.912,0.399,2.935c0.18,1.022-0.22,4.445-2.845,8.85c-2.624,4.403-2.801,5.56-3.957,5.826   c-1.155,0.268-0.579,1.333,0.889,1.779c1.467,0.442,4.003,1.689,5.426,2.175c1.422,0.492,4.003,0.268,5.871-1.377   c1.868-1.643,4.669-3.558,5.913-0.932c1.244,2.625,3.559,8.002,4.803,8.579c1.244,0.583,3.602,1.602,5.96,1.827   c2.354,0.221,1.776-1.069,1.868-1.827c0.086-0.753,0.486-2.978,1.153-3.733c0.668-0.756,2.714-8.139,3.959-9.783   c1.244-1.646,1.734-2.576,0.668-2.667c-1.067-0.092-3.246-0.626-3.912-1.07c-0.667-0.442-1.467,0.979-0.534,1.871   c0.933,0.889,1.419,0.931,0.353,3.243c-0.773,1.682-1.91,5.117-2.001,6.186c-0.086,1.064-1.286,1.642-2.444-1.293   c-1.159-2.935-4.179-7.602-5.694-7.869c-1.511-0.267-4.402,2.358-6.581,3.511c-2.177,1.156-4.268,2.714-4.936,2.668   c-0.666-0.042-1.467-2.046,0.044-4.045c1.514-2,3.424-7.473,4.092-7.961c0.667-0.488,1.2-1.021,1.066-2.136   c-0.134-1.111-1.824-1.821-2.578-1.866C109.917,254.416,105.115,251.611,105.115,251.611z"
 id="path3072"
 style="stroke-width:2.00000008;stroke-miterlimit:4;stroke-dasharray:none" />
					<path
 
 fill="none"
 stroke="#000000"
 stroke-width="0.127"
 d="M149.228,263.795c0,0,0.225,0.268,0.043,1.469   c-0.175,1.202-0.534,3.025,0.625,3.779c0.71,0.468,2.444-1.333,3.2-2.223c0.759-0.889,3.068-1.247,4.228-1.289   c1.153-0.043,7.739-1.068,7.915,0.091c0.176,1.153,1.111,5.289,0.625,6.403c-0.492,1.11-5.029,0.664-6.137,0.177   c-1.117-0.492-2.357-1.202-2.449-0.358c-0.088,0.846,0.355,3.559,1.068,4.494c0.709,0.932,1.114-1.026,2.179-1.561   c1.064-0.531,5.022-0.752,5.468,0.049c0.443,0.802,1.469,4.534-0.13,5.022c-1.603,0.488-9.208,0.622-10.676,0.668   c-1.466,0.046-2.535-0.489-3.114-1.554c-0.577-1.067-1.287-0.049-1.067,1.153c0.223,1.202,0.624,2.846,2.448,2.667   c1.82-0.176,5.335-0.753,9.692-0.844c4.358-0.091,12.364-0.176,13.028-0.935c0.671-0.756,0.267-1.778-0.622-2.4   c-0.886-0.621-2.667-14.096-1.775-15.431c0.417-0.633,0.89-0.578,0.573-1.512c-0.306-0.936-2.837-0.293-3.687-0.092   c-1.29,0.316-15.698,1.737-17.655,1.782C151.053,263.399,149.228,263.795,149.228,263.795z"
 id="path3074"
 style="stroke-width:2.00000008;stroke-miterlimit:4;stroke-dasharray:none" />
					<path
 
 fill="none"
 stroke="#000000"
 stroke-width="0.127"
 d="M207.037,247.211c0,0-1.423,1.824-4.758,3.377   c-3.334,1.557-9.292,4.625-11.917,8.319c-2.313,3.246-1.723,8.119,0.668,11.545c0,0,2.577,2.994,5.873,3.395   c3.29,0.399,6.266-0.665,8.495-1.958c2.221-1.289,11.288-5.777,12.356-6.36c1.069-0.577,1.069-2.135-0.084-3.068   c-1.16-0.932-8.407-12.093-8.452-13.25c-0.042-1.157,0.088-2.225-0.485-2.446C208.148,246.543,207.213,246.677,207.037,247.211   z"
 id="path3076"
 style="stroke-width:2.00000008;stroke-miterlimit:4;stroke-dasharray:none" />
					<path
 
 fill="none"
 stroke="#000000"
 stroke-width="0.127"
 d="M201.436,253.923l-5.113,3.114   c0,0-1.199,1.466-0.446,3.999c0.755,2.537,3.866,7.028,5.201,8.272c1.335,1.249,1.916,0.714,2.534,0.225   c0.625-0.49,4.892-1.827,5.338-2.624c0.446-0.801-1.511-4.092-3.022-6.759C204.413,257.484,203.077,253.48,201.436,253.923z"
 id="path3078"
 style="stroke-width:2.00000008;stroke-miterlimit:4;stroke-dasharray:none" />
					<path
 
 fill="none"
 stroke="#000000"
 stroke-width="0.127"
 d="M226.469,232.936c0,0-0.755,1.866-3.908,4.404   c-3.16,2.534-3.472,3.244-2.716,3.511c0.755,0.267,3.113-0.134,3.823-0.088c0.71,0.042,9.83,4.488,13.92,5.781   c4.091,1.29,4.893,0,5.557-1.068c0.671-1.069,2.091-2.492,2.495-3.16c0.398-0.665,0.574-1.775-0.225-1.775   c-0.801,0-1.866-2.179-3.377-6.849c-1.514-4.667-3.293-8.761-3.293-10.406s-1.736-1.466-2.712-0.134   c-0.977,1.336-2.045,2.756-0.89,3.114c1.157,0.354,2.271,1.911,2.179,3.778c-0.087,1.867-3.954,5.25-4.449,5.96   c-0.489,0.71-4.625-0.176-5.068-2C227.361,232.177,226.469,232.626,226.469,232.936z"
 id="path3080"
 style="stroke-width:2.00000008;stroke-miterlimit:4;stroke-dasharray:none" />
					<path
 
 fill="none"
 stroke="#000000"
 stroke-width="0.127"
 d="M238.298,234.091c0,0-2.176,1.825-2.801,2.359   c-0.622,0.534,0.667,2.087,1.869,2.709c1.198,0.625,3.069,0.893,3.645,0.759c0.58-0.134,0.623-0.935,0.355-1.648   C241.099,237.561,241.011,233.382,238.298,234.091z"
 id="path3082"
 style="stroke-width:2.00000008;stroke-miterlimit:4;stroke-dasharray:none" />
					<path
 
 fill="none"
 stroke="#000000"
 stroke-width="0.127"
 d="M248.792,203.098c0,0-1.022,2.802-2.664,5.645   c-1.647,2.85-1.336,3.426-0.671,3.915c0.671,0.488,2.98-1.156,4.313-1.198c1.335-0.049,9.607-1.336,10.852-1.382   c1.244-0.044,1.778,2.134,1.824,4.358s0.091,3.244,0.58,3.201c0.488-0.042,3.113-3.736,3.556-5.292   c0.446-1.553-2.178-1.153-2.938-3.687c-0.752-2.537-1.373-5.827-1.42-6.54c-0.045-0.713,1.111-0.397,2.71,0.313   c1.602,0.71,3.072,1.909,4.273,2.492c1.198,0.577,2.091-0.533,3.156-2.892c1.067-2.358,2.536-7.071-0.18-6.003   c0,0-1.42,0.443-2.889-0.492s-11.208-4.713-12.139-6.446c-0.936-1.736-0.892-1.11-2.228,1.557   c-1.333,2.667-2.355,5.912-1.954,6.537c0.397,0.619,1.954-0.134,4.404,1.019c2.445,1.16,2.13,3.869,0.755,4.716   c-1.378,0.844-4.761,1.023-6.627,0.134C249.639,202.164,248.837,202.519,248.792,203.098z"
 id="path3084"
 style="stroke-width:2.00000008;stroke-miterlimit:4;stroke-dasharray:none" />
					<path
 
 fill="none"
 stroke="#000000"
 stroke-width="0.127"
 d="M260.355,167.698c0,0-1.066,0.134-0.979,1.068   s-0.354,3.645-0.71,6.137c-0.354,2.492-0.179,2.935,0.664,3.159c0.848,0.222,1.916-0.935,2.626-1.156   c0.71-0.225,7.296-2.538,9.96-3.56c2.67-1.02,7.158-2.71,7.647-3.779c0.495-1.068,0.801-4.003,0.713-5.514   c-0.088-1.515-0.446-2.049-1.02-1.781c-0.58,0.266-2.403,0.133-8.897-4.713c0,0-6.847-3.557-7.244-5.335   c-0.339-1.495-1.56-0.667-1.602,0.668c-0.046,1.332-0.226,2.667-0.226,3.469c0,0.801,0.134,1.957,1.244,0.977   c1.114-0.977,1.781,0,3.736,1.068c1.957,1.065,1.113,1.557,0.624,3.335c-0.49,1.778-0.533,3.647-0.403,4.267   c0.138,0.625-1.106,2.224-2.843,2.491C261.912,168.766,260.355,167.698,260.355,167.698z"
 id="path3086"
 style="stroke-width:2.00000008;stroke-miterlimit:4;stroke-dasharray:none" />
					<path
 
 fill="none"
 stroke="#000000"
 stroke-width="0.127"
 d="M269.649,160.452c0,0-1.335,0.977-1.423,3.426   c-0.087,2.442,1.866,2.622,3.026,2.535c1.155-0.092,3.602-0.89,3.645-1.916C274.943,163.477,272.229,160.585,269.649,160.452z"
 id="path3088"
 style="stroke-width:2.00000008;stroke-miterlimit:4;stroke-dasharray:none" />
					<path
 
 fill="none"
 stroke="#000000"
 stroke-width="0.127"
 d="M270.627,107.356c0,0-1.778-2.358-4.534-1.469   c0,0-1.377,0.534-2.8,1.736c-1.428,1.199-5.427,1.29-6.938,3.69c-1.511,2.404-0.667,3.911,0.176,5.604   c0.848,1.688,2.358,2.134,3.427,1.642c1.067-0.489,10.006-2.489,11.563-5.026C273.072,111,270.627,107.356,270.627,107.356z"
 id="path3090"
 style="stroke-width:2.00000008;stroke-miterlimit:4;stroke-dasharray:none" />
					<path
 
 fill="none"
 stroke="#000000"
 stroke-width="0.127"
 d="M268.539,101.22c0,0-3.957-2.091-8.497-1.427   c-4.534,0.668-8.045,5.163-8.137,9.475c-0.084,4.315,2.186,7.191,3.785,11.162c1.642,4.091,6.58,7.247,12.091,5.735   c0,0,8.139-2.709,7.871-9.826c0,0,0.05-1.557-0.667-3.514c-0.711-1.957-2.355-6.67-2.935-8.494   C271.474,102.509,268.539,101.22,268.539,101.22z"
 id="path3092"
 style="stroke-width:2.00000008;stroke-miterlimit:4;stroke-dasharray:none" />
					<path
 
 fill="none"
 stroke="#000000"
 stroke-width="0.127"
 d="M244.48,78.762c0,0,2,2.176,2.358,3.16   c0.354,0.977,0.312,2.309-0.665,2.577c-0.984,0.267-2.717,3.201-3.96,3.201c-1.244,0-2.492-1.69-3.244-2.576   c-0.759-0.893-1.603-1.736-0.492-2.984c1.11-1.244,2.537-2.488,3.56-3.11C243.056,78.405,243.858,78.405,244.48,78.762z"
 id="path3094"
 style="stroke-width:2.00000008;stroke-miterlimit:4;stroke-dasharray:none" />
					<path
 
 fill="none"
 stroke="#000000"
 stroke-width="0.127"
 d="M249.238,72.671c0,0-1.377,1.423-2.358,2.001   c-0.977,0.577-2.088,2.801-1.241,4.224c0.841,1.42,3.198,2.889,4.133,2.801c0.935-0.087,2.576-1.114,3.469-3.159   c0.892-2.042,0.802-2.488-0.401-3.599C251.639,73.827,250.799,71.646,249.238,72.671z"
 id="path3096"
 style="stroke-width:2.00000008;stroke-miterlimit:4;stroke-dasharray:none" />
					<path
 
 fill="none"
 stroke="#000000"
 stroke-width="0.127"
 d="M248.707,66.533   c1.245,1.645,5.778,7.294,7.511,10.005c1.736,2.713,2.358,4.179,2.137,6.495c-0.222,2.309-3.469,3.912-4.846,3.469   c-1.377-0.446-1.778,1.064-1.958,2.755c-0.179,1.691-3.781,5.114-6.446,4.716c-2.671-0.4-4.449-2.27-6.67-5.25   c-2.228-2.98-8.006-10.051-8.674-10.716c-0.667-0.667-0.667-1.778,0.443-1.736c1.117,0.042,2.003,0.492,3.514-0.534   c1.511-1.023,6.006-4.669,8.625-6.936c2.625-2.269,2.27-2.625,2.537-3.869c0.264-1.244,1.514-0.224,1.514-0.224   S247.998,65.867,248.707,66.533z"
 id="path3098"
 style="stroke-width:2.00000008;stroke-miterlimit:4;stroke-dasharray:none" />
					<path
 
 fill="none"
 stroke="#000000"
 stroke-width="0.127"
 d="M217.31,48.567c0,0-3.645,1.024-4.091,2.711   c-0.442,1.69,0.801,2.935,2.045,3.558s3.248,0.267,3.472-2.091C218.955,50.392,218.867,48.125,217.31,48.567z"
 id="path3100"
 style="stroke-width:2.00000008;stroke-miterlimit:4;stroke-dasharray:none" />
					<path
 
 fill="none"
 stroke="#000000"
 stroke-width="0.127"
 d="M223.805,41.052c0,0-1.694,0.311-2.137,1.734   c-0.442,1.425,1.245,2.135,2.404,0.934C225.224,42.519,225.492,41.096,223.805,41.052z"
 id="path3102"
 style="stroke-width:2.00000008;stroke-miterlimit:4;stroke-dasharray:none" />
					<path
 
 fill="none"
 stroke="#000000"
 stroke-width="0.127"
 d="M224.247,39.584c0,0-1.732-0.71-3.735,1.734   c-2.003,2.445-3.378,5.78-6.403,6.76c-3.026,0.977-5.072,3.335-8.537,4.623c-3.472,1.292-3.602,1.648-4.846,1.557   c-1.25-0.089-0.137,1.377,0.665,1.868s2.892,2.578,4.224,2.712c1.332,0.133,0.622-2.044,0.759-3.202   c0.13-1.153,2.931-2.935,3.642-2.488c0.716,0.444,4.404,2.979,5.517,3.646c1.11,0.666,1.87,1.2,1.778,3.511   c-0.091,2.316-0.31,3.07-1.465,3.469c-1.16,0.401-2.137,1.601-1.293,1.734c0.85,0.134,3.87,2.182,5.559,3.692   c1.694,1.511,4.11,2.609,4.58,1.825c0.667-1.114-0.977-2.09-1.11-4.403c-0.134-2.315,1.423-14.099,1.469-15.521   c0.042-1.422-0.313-4.089,0.358-4.889c0.665-0.801,1.954-2.225,1.465-3.917C226.384,40.609,224.69,39.584,224.247,39.584z"
 id="path3104"
 style="stroke-width:2.00000008;stroke-miterlimit:4;stroke-dasharray:none" />
					<path
 
 fill="none"
 stroke="#000000"
 stroke-width="0.127"
 d="M152.606,100.33c0,0-2.532,2.358-3.244,6.091   c0,0-0.313,0.045-0.713-0.222c-0.4-0.267-0.933-0.625-2.001-0.667c-1.066-0.042-1.467,0.401-0.934,0.977   c0.535,0.58,0.491,1.156,0.357,1.691c-0.134,0.534-0.089,0.934-0.089,0.934s-2.221-0.491-3.822,1.335   c-1.601,1.824-2.135,4.313,0.709,7.068c0,0,1.645,1.511,1.958,2.002c0.311,0.489,0.354,1.111,0,1.645   c-0.356,0.535-0.799,0.088-1.066-0.088c-0.267-0.179-0.758,0.844,0.576,2.046c1.334,1.199,3.335,0.488,3.603-1.557   c0.267-2.046-2.002-4.182-0.891-5.648c1.113-1.469,3.335,1.335,3.335,3.426c0,0,0.223,0.309-0.309,0.977   c-0.535,0.664-1.425,2.042,0.176,3.603c0,0,0.534,0.354-0.134,1.599c-0.667,1.244-1.734,1.29-3.778,0.31   c0,0-1.025-0.619-2.002,0.133c-0.977,0.759-0.891,1.824-0.667,2.85c0.225,1.02,0.49,0.619,1.068,0.042   c0.576-0.576,1.467-0.576,1.69-0.133c0.22,0.443,1.422,1.869,3.688,0.977l0.134,0.268c0,0,0.58,1.915,1.425,2.716   c0.843,0.798,2.358,1.244,3.29-2.892c0,0,0.354-0.179,1.29-0.046c0.932,0.133,1.778,0.446,3.335-1.424   c0,0,0.267-0.533,0.847,0.134c0.577,0.668,0.489,1.026,0.71,1.026s0.893-0.534,0.932-2.003   c0.045-1.465-1.642-2.579-3.642-1.381c-2.003,1.202-3.602,0.267-3.159-1.954c0,0,1.244-0.935,1.199-2.491   c-0.042-1.557-1.107-1.912-1.423-1.958c-0.309-0.042-0.485-1.42,0.667-2.755c1.16-1.332,2.313-1.423,2.449-0.222   c0.131,1.199-0.182,1.691-0.534,2.844c-0.358,1.156-0.091,3.117,0.931,3.602c1.023,0.492,3.114,0.134,3.156-2.045   c0,0-0.218-0.088-0.71,0.133c-0.492,0.225-1.423-0.488-0.355-1.733c1.065-1.244,3.423-2.446,3.423-5.38   s-2.267-5.202-5.11-4.801c0,0-0.316-0.716,0-2.048c0.306-1.336,0.352-1.645-0.583-1.554c-0.935,0.084-2.354,0.665-2.801,0.798   C155.144,106.688,155.319,103.131,152.606,100.33z"
 id="path3106"
 style="stroke-width:2.00000008;stroke-miterlimit:4;stroke-dasharray:none" />
					<path
 
 fill="none"
 stroke="#000000"
 stroke-width="0.127"
 d="M151.805,20.953c0,0,1.293,4.625,2.538,5.159   c1.244,0.535,0.935,1.821,0.225,2.088c-0.716,0.267-0.935,1.334-0.449,4.003c0.492,2.667,3.381,4.226,4.051,4.402   c0.665,0.18,2.534,2.048,2.489,3.424c-0.046,1.378-0.622,2.625,0.221,2.711c0.844,0.091,1.87-1.601,2.267-1.2   c0.4,0.401-0.622,2.358-2,2.982c-1.378,0.62-2.045,0.801-1.511-0.181c0.534-0.977,1.068-2.754-0.313-5.07   c-1.377-2.311-3.647-1.91-4.449,1.158c-0.798,3.068-0.531,4.98-0.531,6.894c0,1.912-1.824,2.802-3.026,3.335   c-1.2,0.534-3.868-0.667-3.778-3.335c0.09-2.668,0.31-4.536-1.912-7.918c-2.225-3.377-4.092-0.443-4.182,1.648   c-0.086,2.088-0.042,2.667-1.019,2.088c-0.982-0.577-3.383,0.223-4.093-1.91c-0.712-2.135-0.358-3.026,0.844-1.735   c1.2,1.29,2.715,0.934,4.182-0.891c1.467-1.821,4.134-2.935,4.268-6.27c0.134-3.335-0.624-3.688-2.534-3.112   c-1.915,0.577-3.691,1.958-4.226,2.891c-0.535,0.935-1.111-0.532,0.443-1.557c1.559-1.024,7.118-3.469,8.273-5.96   c1.156-2.489,0.045-4.089-0.355-4.223c-0.399-0.132-4.535-0.446-8.05,2.845c0,0-1.244,0.624-2.045,2.802   c-0.8,2.177-1.11,1.378-1.158,0.31c-0.042-1.067-3.11-1.153-4.446,0.534c-1.333,1.69-2.578,3.915-2.623,7.651   c-0.044,3.736-0.044,3.645-0.444,4.402c-0.4,0.754-1.245,5.069,2.711,8.582c3.959,3.511,10.854,2.269,11.874,2.311   c1.024,0.047,2.447,1.248,3.382,2.135c0.933,0.891,1.286,1.78,0,2.801c-1.292,1.024-0.847,1.467-0.401,1.692   c0.445,0.223,2.135-0.492,3.068-1.292c0.935-0.801,2.801-1.021,4.137,0.09c1.335,1.11,1.732,1.068,2.266,0.667   c0.535-0.401,0.222-1.292-0.801-2.045c-1.022-0.756-0.977-1.334,0.489-2.49c1.465-1.157,2.667-1.912,5.915-2.358   c3.247-0.444,9.471-2.488,10.185-8.048c0,0,0.443-2.536-0.355-2.578c-0.801-0.047-2.045-0.133-1.336-1.916   c0.714-1.776,1.023-4.178,0.397-5.111c-0.619-0.935-2.843-3.646-3.511-4.804c-0.664-1.156-2-0.309-2.045,0.534   s-0.798,2.001-1.29,2.135c-0.488,0.134-1.081-1.581-1.465-2.845C160.479,22.42,153.408,19.261,151.805,20.953z"
 id="path3108"
 style="stroke-width:2.00000008;stroke-miterlimit:4;stroke-dasharray:none" />
					<path
 
 fill="none"
 stroke="#000000"
 stroke-width="0.127"
 d="M165.283,36.338c0,0,0.71,1.424-0.759,1.557   C163.056,38.029,163.237,35.582,165.283,36.338z"
 id="path3110"
 style="stroke-width:2.00000008;stroke-miterlimit:4;stroke-dasharray:none" />
					<path
 
 fill="none"
 stroke="#000000"
 stroke-width="0.127"
 d="M142.379,46.833c0,0,0.758,0.802,0.091,1.069   C141.803,48.167,141.489,46.699,142.379,46.833z"
 id="path3112"
 style="stroke-width:2.00000008;stroke-miterlimit:4;stroke-dasharray:none" />
					<path
 
 fill="none"
 stroke="#000000"
 stroke-width="0.127"
 d="M152.385,101.529c0,0-2.224,2.713-2.356,4.713   c-0.133,2.003,1.29,8.006,1.822,10.272c0.534,2.267,0.667,2.534,0.978,2.668c0.312,0.133,0.801-3.554,1.335-6.404   C154.698,109.936,155.629,104.776,152.385,101.529z"
 id="path3114"
 style="stroke-width:2.00000008;stroke-miterlimit:4;stroke-dasharray:none" />
					<path
 
 fill="none"
 stroke="#000000"
 stroke-width="0.127"
 d="M158.254,106.554c0,0-2.534-0.042-2.801,1.202   c-0.267,1.244-0.709,3.423-0.358,4.579c0,0,1.381-1.82,2.091-2.313C157.899,109.535,158.43,107.932,158.254,106.554z"
 id="path3116"
 style="stroke-width:2.00000008;stroke-miterlimit:4;stroke-dasharray:none" />
					<path
 
 fill="none"
 stroke="#000000"
 stroke-width="0.127"
 d="M153.809,117.983c0,0,0.31-3.426,1.957-5.736   c1.646-2.312,4.358-2.892,6.224-1.159c1.867,1.736,1.69,4.403,0.355,6.006c0,0-0.889,0.932-1.687,1.648   c-0.801,0.71-1.206,1.775-0.714,2.577c0.492,0.801,0.401,1.377-0.71,1.289c-1.113-0.087-1.514-1.247-0.667-4.09   c0.847-2.847-0.446-3.778-1.866-3.244c-1.423,0.531-2.049,2-2.27,2.709C154.209,118.693,153.809,117.983,153.809,117.983z"
 id="path3118"
 style="stroke-width:2.00000008;stroke-miterlimit:4;stroke-dasharray:none" />
					<path
 
 fill="none"
 stroke="#000000"
 stroke-width="0.127"
 d="M151.851,119.319c0,0-0.488-4.403-2.757-7.205   c-2.268-2.801-5.556-2.534-6.804-0.843c-1.244,1.687-0.71,3.511,1.248,5.869c1.954,2.355,2.31,2.267,2.31,3.511   s-0.624,1.16-0.977,1.335c-0.357,0.176-0.313,0.889,0.534,1.068c0.844,0.176,2.178-0.713,1.777-2.671   c-0.399-1.957-2-3.334-0.667-5.025c0,0,1.157-1.333,2.712,0c1.557,1.335,1.69,3.026,1.868,3.736   C151.274,119.807,151.851,119.319,151.851,119.319z"
 id="path3120"
 style="stroke-width:2.00000008;stroke-miterlimit:4;stroke-dasharray:none" />
					<path
 
 fill="none"
 stroke="#000000"
 stroke-width="0.127"
 d="M146.649,106.375c0,0,1.423-0.222,2.225,0.843   c0.799,1.068,1.201,4.137,1.067,4.495c-0.134,0.354-1.824-1.512-2.581-2.091C146.605,109.046,146.25,106.554,146.649,106.375z"
 id="path3122"
 style="stroke-width:2.00000008;stroke-miterlimit:4;stroke-dasharray:none" />
					<path
 
 fill="none"
 stroke="#000000"
 stroke-width="0.127"
 d="M152.786,119.762c0,0-1.778,0-2.534,1.511   c-0.758,1.514,0.223,2.534,2.309,2.534c2.091,0,3.068-0.309,3.205-1.732C155.896,120.654,154.61,119.673,152.786,119.762z"
 id="path3124"
 style="stroke-width:2.00000008;stroke-miterlimit:4;stroke-dasharray:none" />
					<path
 
 fill="none"
 stroke="#000000"
 stroke-width="0.127"
 d="M150.828,124.833c0,0-0.223,1.557-1.376,2.267   c-1.158,0.71-2.224-0.443-3.602-0.534c-1.381-0.088-1.734,0.225-1.467,1.16c0,0,0.133,0.13,0.533-0.183   c0.4-0.31,1.511-0.176,2.179,0.759c0.666,0.931,2.4,1.465,3.335-0.401C151.363,126.032,151.851,124.7,150.828,124.833z"
 id="path3126"
 style="stroke-width:2.00000008;stroke-miterlimit:4;stroke-dasharray:none" />
					<path
 
 fill="none"
 stroke="#000000"
 stroke-width="0.127"
 d="M152.431,124.921c0,0-1.158,2.045-1.333,3.912   c-0.177,1.87,0.533,2.983,1.692,3.648c0,0,1.42-0.98,1.466-2.847c0.016-0.824-0.372-1.834-0.681-2.828   C153.187,125.546,152.829,124.422,152.431,124.921z"
 id="path3128"
 style="stroke-width:2.00000008;stroke-miterlimit:4;stroke-dasharray:none" />
					<path
 
 fill="none"
 stroke="#000000"
 stroke-width="0.127"
 d="M153.942,124.833c0,0-0.133,0.977,0.668,2.758   c0.798,1.775,2.667,2.042,3.602,0.844c0.935-1.202,2.134-1.469,2.492-0.759c0.352,0.714,0.485,0.626,0.619-0.266   c0.134-0.887-1.11-1.199-2.847-0.535c-1.732,0.668-2.889,1.026-3.908-1.774C154.567,125.1,154.076,124.521,153.942,124.833z"
 id="path3130"
 style="stroke-width:2.00000008;stroke-miterlimit:4;stroke-dasharray:none" />
					<path
 
 fill="none"
 stroke="#000000"
 stroke-width="0.127"
 d="M140.735,137.505l24.057-0.133   c0,0,0.667,0.133,1.025-1.023c0,0,2.267-8.227,9.205-9.341c0,0,3.645-0.71,4.267-3.019c0.625-2.315,1.159-0.759,1.602,0.309   c0.443,1.069,1.603,4.224-1.244,6.762c0,0-0.182,0.176-0.182,0.619c0,0.446,0.137,2.091-1.153,3.292   c-1.29,1.199-2.133,1.156-1.648-0.534c0.492-1.69-0.176-2.847-1.732-2.935c-1.554-0.092-4.488,1.022-6.846,8.536   c0,0-0.802,2.893-0.893,4.045c-0.085,1.159-0.619,1.068-1.244,1.068c-0.622,0-1.361-0.447-1.466,0.489   c-0.045,0.4,0.756,2.312,1.111,3.426c0.355,1.11,7.25,20.232,7.25,20.232s1.866,5.159,2.133,6.491   c0.268,1.335-0.664,3.468-2.98,3.114c-2.309-0.355-3.602-1.778-4.4-0.935c-0.658,0.69,0.384,1.189,1.642,1.518   c0,0,4.407,1.106,5.827,1.508c1.423,0.401,2.315,0.889,4.003,3.511c1.689,2.625,3.022,3.693,5.113,2.491   c0,0,1.244-0.622,0.889,0.267c-0.355,0.89-0.753,3.912-4.58,4.137c0,0-2.668,0.222-4.579-1.293c0,0-0.446-0.485-1.248,0   c-0.802,0.492-3.469,0.625-4.622-1.241c0,0-0.622-0.847,0.443-0.802c1.069,0.043,1.424-0.267,1.424-1.292   c0-1.02-0.664-1.821-2.488-2.978c0,0-5.606-2.758-6.364-5.381c0,0-0.665-2,1.292-2.667c0,0,0.466-0.264,0.176-1.69   c-0.354-1.778-4.934-18.188-4.934-18.188s-0.088-0.801-0.71-0.133c-0.625,0.668-5.338,8.85-5.338,8.85   s-0.531,1.511-1.557-0.443c-1.021-1.958-4.49-8.273-4.49-8.273s-0.847-1.114-1.2,0.089c-0.357,1.198-4.759,17.698-4.759,17.698   s-0.534,1.736,0.223,2.4c0.754,0.668,2.4,2.537-0.801,5.114c0,0-3.115,1.869-5.159,3.159c-2.044,1.291-2.135,1.733-2.135,2.577   c0,0.85,0.624,1.469,1.558,1.469c0,0,0.844-0.355,0.886,0.091c0.047,0.442-0.977,1.641-2.177,1.824   c-1.2,0.175-2.893-1.026-3.469-0.759c-0.577,0.267-2.091,2.404-5.378,1.469c-3.293-0.934-4.183-3.335-4.183-3.827   c0-0.485,0.667-0.218,1.379-0.084c0.712,0.133,2.179,0.352,2.979-0.668c0.801-1.022,2.491-4.357,5.913-5.469   c3.426-1.113,6.804-1.247,7.338-2.182c0.534-0.935-1.42-0.667-2.177-0.355c-0.757,0.313-3.825,1.645-5.027-0.133   c-1.201-1.779-0.22-3.866,1.467-8.404c1.692-4.537,8.629-23.792,8.629-23.792s0.223-1.111-0.845-1.069   c-1.067,0.045-2.668,0.225-2.715-1.82c-0.042-2.049-1.283-8.491-4.179-10.898c-2.358-1.958-4.669-0.31-4.669,1.068   s0.223,2.225-0.443,1.912c-0.668-0.31-2.625-1.335-1.959-3.778c0,0-0.09-0.668-0.8-0.935c-0.709-0.267-2.225-1.912-1.868-4.446   c0.356-2.534,1.424-4.315,1.778-3.469c0.356,0.844,1.066,2.355,2.623,3.022c1.559,0.667,5.781,0.756,8.672,4.625   c0,0,1.826,2.4,2.711,5.602C139.71,135.903,140.159,137.373,140.735,137.505z"
 id="path3132"
 style="stroke-width:2.00000008;stroke-miterlimit:4;stroke-dasharray:none" />
					<path
 
 fill="none"
 stroke="#000000"
 stroke-width="0.127"
 d="M178.402,133.06   c-0.091,1.198-0.358,0.756-0.626-0.046c-0.267-0.801-0.977-2.579-3.244-2.491c-2.267,0.091-4.98,2.892-6.403,6.895   c-1.427,4.003-1.557,6.625-2.046,6.846c-0.488,0.225-3.114-0.176-3.026,0.442c0.088,0.626,5.247,14.5,5.247,14.5l5.785,16.317   c0,0,0.307,1.827-0.938,2.315c-1.599,0.62-5.334-2.048-6.67-0.712c0,0-1.113,1.515,0.801,2.534   c1.912,1.023,5.739,1.29,7.915,2.358c2.179,1.068,4.045,5.38,5.514,6.094c1.47,0.709,2.668,0.485,2.668,0.485   s-0.085,1.202-2.534,1.69c-2.442,0.492-4.534-1.156-5.113-1.69c-0.577-0.534-2,0.98-2.977,0.58   c-0.983-0.401,0.554-0.306,0.085-2.713c-0.574-2.98-5.687-4.98-7.69-6.712c-2.003-1.736-1.157-2.893-0.049-3.381   c1.117-0.488,0.716-1.915-0.619-6.625c-1.335-4.712-4.492-16.011-4.492-16.011s-0.442-1.333-1.201-0.134   c-0.756,1.202-5.113,8.807-5.113,8.807s-0.355,1.958-1.466-0.045c-1.114-2-5.025-8.67-5.025-8.67s-0.891-1.733-1.292,0   c-0.4,1.732-5.247,19.743-5.247,19.743s-0.8,1.87,0.4,3.023c1.202,1.156,1.11,2.667-1.066,4.182c0,0-4.27,2.354-5.646,3.377   c-1.38,1.026-2.358,2.801-0.757,5.025c0,0-1.333,0.755-2.358-0.798c0,0-0.311-0.716-0.935,0c-0.621,0.71-2.534,2-4.845,1.733   c-2.313-0.267-2.625-1.114-2.803-1.423c-0.176-0.31,0.49-0.358,0.801-0.358c0.31,0,1.911-0.042,3.778-3.019   c1.869-2.984,6.138-3.918,7.338-4.319c1.201-0.397,4.669-0.265,5.07-2.218c0,0,0.713-1.736-0.844-1.828   c-1.558-0.087-4.092,1.694-5.87,1.378c-1.777-0.309-1.423-1.954-0.49-4.533c0.935-2.58,9.518-26.502,9.518-26.502   s0.754-2.048,0.801-2.534c0.042-0.492-0.715-0.534-1.467-0.492c-0.757,0.042-2.048,0.576-2.582-1.465   c-0.533-2.046-1.067-7.296-3.735-10.364c-2.669-3.068-6.224-2.088-6.581,0.091c0,0,0.089,0.798-0.401,0.978   c-0.49,0.179-0.624,0.267-0.624-1.11c0-1.378,0.134-2.18-0.487-2.404c-0.624-0.221-2.225-0.709-2.139-3.022   c0.092-2.312,0.938-2.755,1.158-2.003c0.223,0.759,2.225,1.736,4.85,2.537c2.622,0.797,4.135,1.824,6.089,4.449   c0.708,0.941,1.458,2.476,1.823,3.57c0.65,1.944,0.752,3.28,2.003,2.967h24.012c0,0,1.244,0.175,1.736-1.381   s2.225-6.758,7.071-8.54c0,0,2.443-0.801,3.29-1.065c0.847-0.267,2.137-0.977,2.98-2.137c0.843-1.153,0.977,1.381,0.758,2.491   c0,0-0.136,1.378-1.159,2.092c-1.022,0.71-1.335,0.977-1.068,1.469C178.532,131.767,178.402,132.702,178.402,133.06z"
 id="path3134"
 style="stroke-width:2.00000008;stroke-miterlimit:4;stroke-dasharray:none" />
					<path
 
 fill="none"
 stroke="#000000"
 stroke-width="0.127"
 d="M147.271,144.176h10.807   c0,0,1.511-0.267,0.977,0.755c-0.534,1.023-5.738,10.139-5.738,10.139s-0.443,1.29-1.42-0.355   c-0.979-1.644-5.202-9.65-5.202-9.65S146.248,144.264,147.271,144.176z"
 id="path3136"
 style="stroke-width:2.00000008;stroke-miterlimit:4;stroke-dasharray:none" />
					<path
 
 fill="none"
 stroke="#000000"
 stroke-width="0.127"
 d="M148.605,145.242l8.229,0.045   c0,0,0.844,0.045,0.489,0.713c-0.354,0.667-4.048,7.113-4.048,7.113s-0.4,0.893-0.977-0.042   c-0.58-0.935-3.915-6.938-3.915-6.938S147.896,145.333,148.605,145.242z"
 id="path3138"
 style="stroke-width:2.00000008;stroke-miterlimit:4;stroke-dasharray:none" />
					<path
 
 fill="none"
 stroke="#000000"
 stroke-width="0.127"
 d="M152.743,177.928c0,0-2.76,3.603-2.893,6.495   c0,0-1.468-1.603-3.823-1.202c0,0-0.223,0.844,0.178,1.333c0.399,0.488,0.176,2.27,0.176,2.27s-2.354-0.892-4.269,2   c-1.911,2.889,0.533,5.514,1.735,6.716c1.2,1.198,1.824,1.557,1.379,2.709c-0.446,1.157-1.2,0.447-1.423,0.226   c-0.223-0.226-0.534,0.931,0.223,1.823c0.753,0.886,3.245,1.333,3.822-1.423c0,0,0.267-0.847-0.487-2.804   c-0.757-1.958-0.4-2.756,0.445-2.977c0.843-0.225,1.776,0.485,2.225,1.732c0.443,1.245,0.309,2.003-0.047,2.58   c-0.354,0.577-1.688,2.045,0.58,4.136c0,0,0.487,0.755-0.58,1.645c-1.067,0.89-1.245,0.756-3.202-0.088   c0,0-1.645-0.801-2.755,0.31c-1.114,1.11-0.09,2.98,0.22,3.113c0.314,0.134,0.667-0.488,1.068-0.847   c0.399-0.354,0.981,0.092,1.513,0.625c0.508,0.509,1.014,1.658,3.283,1.039c0,0,0.386-0.16,0.653,0.417   c0.461,0.811,1.372,2.29,1.98,2.547c0.84,0.352,1.775-0.801,2.534-2.534c0,0,0.13-0.401,0.488-0.401   c0,0,1.603,0.798,3.469-1.515c0,0,0.889-0.576,1.554-0.267c0.667,0.313,1.247,1.068,1.38-0.042c0,0,0.267-2.137-0.931-2.671   c-1.202-0.534-2.228,0.091-3.56,0.492c-1.335,0.401-2.576-0.534-2.091-2.048c0,0,2.179-2.89-0.534-4.404   c0,0-0.179-0.619,0.935-2.133c1.114-1.512,1.955-1.378,2.4-0.886c0.446,0.486,0.049,1.199-0.355,2.176   c-0.397,0.977-0.622,3.96,0.977,4.538c1.602,0.576,3.068-0.71,3.159-1.557c0.088-0.844-0.713-0.444-0.98-0.31   s-0.935-0.091-0.4-1.469c0.534-1.377,4.003-3.068,3.915-6.403c0,0-0.801-4.804-5.202-4.046c0,0-0.58-1.38,0-2.357   c0.577-0.978,0.667-2.267-3.651-0.267C155.851,184.198,154.118,177.619,152.743,177.928z"
 id="path3140"
 style="stroke-width:2.00000008;stroke-miterlimit:4;stroke-dasharray:none" />
					<path
 
 fill="none"
 stroke="#000000"
 stroke-width="0.127"
 d="M152.874,179.218c0,0-2.091,2.176-2.177,5.16   c-0.09,2.977,1.154,6.755,1.467,8.804c0.313,2.045,0.443,3.247,0.443,3.247h0.492c0,0,1.378-5.071,1.775-9.028   C155.277,183.442,154.786,181.661,152.874,179.218z"
 id="path3142"
 style="stroke-width:2.00000008;stroke-miterlimit:4;stroke-dasharray:none" />
					<path
 
 fill="none"
 stroke="#000000"
 stroke-width="0.127"
 d="M158.521,184.331c0,0,0.137,1.378-0.534,2.31   c-0.665,0.935-2.222,2.049-2.222,2.049s-0.404-2.713,0.313-3.426C156.789,184.553,158.346,184.065,158.521,184.331z"
 id="path3144"
 style="stroke-width:2.00000008;stroke-miterlimit:4;stroke-dasharray:none" />
					<path
 
 fill="none"
 stroke="#000000"
 stroke-width="0.127"
 d="M146.783,184.286c0,0,0.443,0.358,0.49,1.244   c0.042,0.892,0.354,1.335,0.843,1.603c0.49,0.267,2.091,2.045,2.091,2.045s0.176-2.092-0.133-3.248   C149.762,184.778,147.583,183.886,146.783,184.286z"
 id="path3146"
 style="stroke-width:2.00000008;stroke-miterlimit:4;stroke-dasharray:none" />
					<path
 
 fill="none"
 stroke="#000000"
 stroke-width="0.127"
 d="M151.721,196.382c0,0,0.622-2.58-1.335-5.693   c0,0-2.091-3.377-5.161-2.889c-3.068,0.489-3.601,2.846-2.62,5.022c0.977,2.182,3.068,2.537,3.377,4.537   c0.312,2-1.11,2.625-1.11,2.625s2.045,1.111,2.221-1.159c0.181-2.267-2.221-3.912-0.532-6.087c0,0,1.557-1.603,3.247,0   c0,0,1.068,0.886,1.336,3.068C151.143,195.806,151.009,196.649,151.721,196.382z"
 id="path3148"
 style="stroke-width:2.00000008;stroke-miterlimit:4;stroke-dasharray:none" />
					<path
 
 fill="none"
 stroke="#000000"
 stroke-width="0.127"
 d="M153.766,196.203c0,0,0.489-4.846,2.889-7.113   c2.4-2.267,4.935-1.423,6.091-0.446c1.157,0.98,1.332,2.935,0.4,4.538c-0.935,1.599-2.755,2.579-3.244,4.048   c-0.492,1.466,0.665,2.71,0.665,2.71s-2.091,0.759-2.091-1.957c0,0,0.046-1.554,0.667-2.622   c0.622-1.065,0.583-2.759-0.935-2.98c-1.511-0.221-2.488,0.889-3.11,2.358C154.477,196.203,154.564,196.562,153.766,196.203z"
 id="path3150"
 style="stroke-width:2.00000008;stroke-miterlimit:4;stroke-dasharray:none" />
					<path
 
 fill="none"
 stroke="#000000"
 stroke-width="0.127"
 d="M152.786,197.138c0,0-2.268,0.042-2.578,1.779   c-0.314,1.732,1.467,2.091,2.933,2.091c1.469,0,2.446-0.492,2.537-1.87C155.766,197.76,154.164,197.096,152.786,197.138z"
 id="path3152"
 style="stroke-width:2.00000008;stroke-miterlimit:4;stroke-dasharray:none" />
					<path
 
 fill="none"
 stroke="#000000"
 stroke-width="0.127"
 d="M151.185,202.206c0,0-0.267,1.561-1.512,2.27   c-1.247,0.71-2.358-0.667-3.867-0.709c-1.515-0.049-1.469,0.577-1.248,1.198c0,0,0.134-0.045,0.713-0.313   c0.577-0.267,1.244-0.267,1.911,0.801c0.668,1.065,1.469,1.247,2.358,1.199c0.888-0.042,2.046-2.309,2.181-3.733   C151.851,201.496,151.185,202.206,151.185,202.206z"
 id="path3154"
 style="stroke-width:2.00000008;stroke-miterlimit:4;stroke-dasharray:none" />
					<path
 
 fill="none"
 stroke="#000000"
 stroke-width="0.127"
 d="M154.3,202.564c0,0,0.397,2.71,1.599,3.557   c1.202,0.844,2.267-0.313,2.622-0.889c0.358-0.577,1.511-0.893,2.045-0.71c0.534,0.175,0.759-0.358,0.045-0.713   c-0.709-0.355-1.732-0.045-2.445,0.355c-0.71,0.4-2.31,0.71-3.111-1.333C155.056,202.831,154.522,201.763,154.3,202.564z"
 id="path3156"
 style="stroke-width:2.00000008;stroke-miterlimit:4;stroke-dasharray:none" />
					<path
 
 fill="none"
 stroke="#000000"
 stroke-width="0.127"
 d="M152.564,202.206c0,0-0.713,2.713-0.977,4.094   c-0.267,1.378,0.531,2.267,1.153,2.889c0,0,0.447,0.622,1.156-0.668c0.71-1.286,1.159-1.469,0.534-3.335   c-0.622-1.869-0.801-3.022-0.801-3.022L152.564,202.206z"
 id="path3158"
 style="stroke-width:2.00000008;stroke-miterlimit:4;stroke-dasharray:none" />
					<path
 
 fill="none"
 stroke="#000000"
 stroke-width="0.127"
 d="M121.346,160.051c0,0-2.358,0.091-2.845,1.866   c0,0-0.933,2.271,2.845,2.404c0,0,2.893,0.042,2.979-1.778C124.414,160.718,122.724,160.185,121.346,160.051z"
 id="path3160"
 style="stroke-width:2.00000008;stroke-miterlimit:4;stroke-dasharray:none" />
					<path
 
 fill="none"
 stroke="#000000"
 stroke-width="0.127"
 d="M120.857,165.431c0,0-0.357,1.912-0.844,3.335   c-0.49,1.423-0.534,2.759,1.644,4.491c0,0,0.891-0.531,1.559-2.09c0.666-1.557,0.042-1.958-0.401-2.71   c-0.446-0.759-0.981-3.068-0.981-3.068L120.857,165.431z"
 id="path3162"
 style="stroke-width:2.00000008;stroke-miterlimit:4;stroke-dasharray:none" />
					<path
 
 fill="none"
 stroke="#000000"
 stroke-width="0.127"
 d="M120.056,165.877c0,0,0.178,2-1.156,3.377   c-1.335,1.382-2.579,0.801-3.468-0.218c-0.887-1.026-1.823-0.935-2.222-0.717c-0.4,0.225-0.267-0.752,0.621-1.065   c0.889-0.313,2.267,0.714,3.558,0.798c1.29,0.091,1.958-1.198,2.091-1.866C119.613,165.519,120.014,165.61,120.056,165.877z"
 id="path3164"
 style="stroke-width:2.00000008;stroke-miterlimit:4;stroke-dasharray:none" />
					<path
 
 fill="none"
 stroke="#000000"
 stroke-width="0.127"
 d="M122.546,165.431c0,0,0.091,1.645,1.244,3.293   c1.157,1.645,2.981,0.886,3.56-0.134c0.577-1.025,2.267-0.625,2.267-0.625s0.49-0.443-0.624-0.756   c-1.111-0.309-2.088,0.134-2.62,0.446c-0.535,0.31-2.893,0.134-3.16-2.492C123.214,165.164,122.638,164.942,122.546,165.431z"
 id="path3166"
 style="stroke-width:2.00000008;stroke-miterlimit:4;stroke-dasharray:none" />
					<path
 
 fill="none"
 stroke="#000000"
 stroke-width="0.127"
 d="M119.39,158.451c0,0-0.177-2.804-2.179-3.426   c0,0-1.515-0.667-2.314,0.756c-0.801,1.426,0.713,3.071,0.799,4.937c0.091,1.866-1.02,2.71-2.088,2.534   c-1.066-0.176-0.49-1.023-0.045-1.023c0.446,0,0.933-0.534,0.933-1.602c0-1.065-1.776-2.801-2.978-4.355   c-1.2-1.557-1.29-3.334-0.443-4.67c0.844-1.332,3.779-1.824,6.181,0.046C119.656,153.514,119.967,158.139,119.39,158.451z"
 id="path3168"
 style="stroke-width:2.00000008;stroke-miterlimit:4;stroke-dasharray:none" />
					<path
 
 fill="none"
 stroke="#000000"
 stroke-width="0.127"
 d="M118.322,151.781c0,0-1.067-1.201-2.134-1.736   c-1.068-0.534-0.935-2.492-1.068-2.892c-0.134-0.4,1.158-0.309,2.401,0.492C118.767,148.446,118.814,151.912,118.322,151.781z"
 id="path3170"
 style="stroke-width:2.00000008;stroke-miterlimit:4;stroke-dasharray:none" />
					<path
 
 fill="none"
 stroke="#000000"
 stroke-width="0.127"
 d="M123.614,152.136c0,0-0.044-3.469,0.978-4.404   c1.024-0.934,2.534-0.889,2.667-0.667c0.133,0.225-0.577,0.401-0.577,1.469c0,1.065-0.044,1.378-0.891,1.866   C124.948,150.892,123.614,152.136,123.614,152.136z"
 id="path3172"
 style="stroke-width:2.00000008;stroke-miterlimit:4;stroke-dasharray:none" />
					<path
 
 fill="none"
 stroke="#000000"
 stroke-width="0.127"
 d="M122.947,157.96c0,0-0.133-3.068,1.425-5.335   c1.554-2.267,4.446-2.667,6.091-1.87c1.646,0.801,1.958,2.713,1.601,4.495c-0.355,1.778-2.088,3.244-2.979,4.354   c-0.891,1.114-1.111,2.225-0.268,2.583c0.844,0.351,0.624,1.111-0.311,1.111c-0.933,0-1.824-0.978-1.557-2.667   c0.267-1.694,1.333-3.469,0.4-4.938c-0.935-1.469-2.625-0.668-3.245,0.668C123.481,157.693,123.258,158.406,122.947,157.96z"
 id="path3174"
 style="stroke-width:2.00000008;stroke-miterlimit:4;stroke-dasharray:none" />
					<path
 
 fill="none"
 stroke="#000000"
 stroke-width="0.127"
 d="M120.813,159.563c0,0-1.377-6.938-1.734-10.449   c-0.356-3.517,0.49-4.449,1.29-5.65c0.801-1.202,1.155-1.466,1.778-0.443c0.624,1.022,1.333,2.534,1.29,5.113   c-0.046,2.58-0.799,6.491-1.066,8.318c-0.268,1.821-0.534,3.111-0.534,3.111H120.813z"
 id="path3176"
 style="stroke-width:2.00000008;stroke-miterlimit:4;stroke-dasharray:none" />
					<path
 
 fill="none"
 stroke="#000000"
 stroke-width="0.127"
 d="M118.856,158.093c0,0,0.534,1.378-0.042,2.225   c-0.582,0.843-1.782,2.27,0.176,4.091c0,0,0.4,1.022-0.49,2.179c-0.888,1.156-2.044,0.222-3.513-0.088   c-1.467-0.309-2.801,0.177-2.801,2.091c0,1.912,0.49,1.465,1.244,0.935c0.757-0.535,1.291,0.175,2.269,0.843   c0.98,0.668,2.801,0.535,3.291,0.31c0.49-0.222,0.443,3.114,2.711,3.781c0,0,0.847,0,1.425-1.6   c0.577-1.603,1.2-2.27,2.401-2.27c1.2,0,1.823-0.401,2.224-1.381c0.4-0.977,1.467-0.843,1.778-0.309   c0,0,0.356,0.534,0.666,0.625c0.311,0.085,0.624-1.16,0.178-2.358c-0.443-1.202-1.788-1.349-3.023-0.625   c-2.046,1.202-3.867-0.71-3.468-1.821c0,0,2.488-2.091,0.311-4.449c0,0-0.801-0.222-0.49-1.6   c0.313-1.377,1.114-2.354,2.091-2.58c0.977-0.225,1.2,0.092,1.067,1.469c-0.134,1.374-1.376,3.423-0.31,5.244   c1.066,1.824,3.511,1.69,4.356-1.199c0,0,0.179-0.313-0.977-0.133c-1.158,0.179-1.203-0.268-0.225-1.335   c0.98-1.068,3.249-3.335,3.293-5.735c0.042-2.401-1.378-5.205-5.203-4.938c0,0-0.534-1.332,0.134-2.267   c0.666-0.935,0.223-1.287-0.579-1.335c-0.799-0.042-2.448,0.4-3.291,1.426c0,0,0.49-2.671-2.358-6.14   c0,0-0.668-0.042-1.777,1.646c-1.11,1.69-1.558,2.935-1.558,3.651c0,0.71-0.8,0.31-1.554-0.133   c-0.757-0.45-2.759-0.268-2.803,0c-0.045,0.264,0.354,1.908,0.621,2.576c0.267,0.667,0,0.534-0.533,0.492   c-0.534-0.049-3.335,0.31-4.179,2.935c0,0-1.024,2.801,1.91,5.645c0,0,1.734,1.201,1.782,2.537   c0.042,1.332-0.582,1.065-1.114,0.755c-0.534-0.313-0.801,0.31-0.444,1.42c0.356,1.114,1.778,1.824,3.112,0.98   c1.334-0.847,1.557-2.133,0.98-4.225c0,0-1.29-2.713-0.181-3.335C117.079,155.468,118.146,155.96,118.856,158.093z"
 id="path3178"
 style="stroke-width:2.00000008;stroke-miterlimit:4;stroke-dasharray:none" />
					<path
 
 fill="none"
 stroke="#000000"
 stroke-width="0.127"
 d="M181.425,151.735c0,0-0.443-0.889-1.245-1.335   c-0.801-0.443-1.426-2.091-1.335-3.111c0.088-1.022,1.244,0.352,2.136,0.668c0.886,0.309,0.932,1.554,1.02,2.709   C182.089,151.827,181.959,152.312,181.425,151.735z"
 id="path3180"
 style="stroke-width:2.00000008;stroke-miterlimit:4;stroke-dasharray:none" />
					<path
 
 fill="none"
 stroke="#000000"
 stroke-width="0.127"
 d="M187.385,151.38c0,0-0.358-2.58,0.664-3.693   c1.023-1.11,2.801-0.843,2.801-0.577c0,0.267-0.755,0.801-0.755,1.779c0,0.98-1.202,1.248-1.912,1.915   c-0.71,0.665-0.843,0.752-0.843,0.752L187.385,151.38z"
 id="path3182"
 style="stroke-width:2.00000008;stroke-miterlimit:4;stroke-dasharray:none" />
					<path
 
 fill="none"
 stroke="#000000"
 stroke-width="0.127"
 d="M184.848,142.398c0,0-1.866,0.889-2.358,4.179   c-0.485,3.289,1.114,8.982,1.333,10.895c0.227,1.912,0.491,2.446,0.716,2.446c0.221,0,0.577-0.843,0.577-1.336   c0-0.485,1.201-7.338,1.556-9.113C187.026,147.69,186.981,145.642,184.848,142.398z"
 id="path3184"
 style="stroke-width:2.00000008;stroke-miterlimit:4;stroke-dasharray:none" />
					<path
 
 fill="none"
 stroke="#000000"
 stroke-width="0.127"
 d="M181.513,147.156c0,0,0.801-4.094,3.159-5.96   c0,0,2.003,1.515,2.801,5.915c0,0,1.821-1.823,4.179-0.98c0,0-0.358,0.98-0.358,1.469c0,0.488-0.043,0.713-0.307,1.114   c-0.267,0.4,0.355,0.576,1.065,0.576c0.71,0,3.248,0.043,4.179,3.737c0,0,0.667,2.801-1.111,4.537   c-1.775,1.732-2.358,2.176-2.492,3.156c-0.133,0.977,0.134,0.935,0.756,0.577c0.625-0.355,1.244-0.088,0.446,1.202   c0,0-0.667,1.469-2.401,1.202c-1.736-0.267-2.312-2.358-1.511-4.896c0,0,0.535-1.42,0.622-2.042   c0.088-0.625-0.667-1.336-1.866-0.71c-1.202,0.619-2.228,3.553-1.781,4c0,0,1.248,0.889,1.202,2.137   c-0.046,1.244-0.404,1.599-0.935,2.087c-0.534,0.488-0.134,2.133,0.713,2.534c0.844,0.4,1.955-0.222,2.71-0.535   c0.759-0.309,1.912-0.266,2.847,0.358c0.932,0.622,1.023,2.576,0.313,3.068c-0.713,0.489-0.713,0.355-0.713-0.309   c0-0.667-1.469-0.667-2.133-0.091c-0.667,0.576-1.511,1.11-2.446,1.068c-0.935-0.046-1.469,0.535-1.824,1.378   c-0.355,0.847-1.469,2.534-2.046,2.58c-0.576,0.045-2.09-2.358-2.224-3.248c0,0,0.046-0.4-0.664-0.4   c-0.71,0-1.335,0.534-2.98-0.887c0,0-0.71-0.625-1.469-0.534c-0.756,0.084-0.622,0.844-0.932,1.11   c-0.313,0.268-1.114-0.492-1.022-2.045c0.088-1.557,1.511-2.4,3.866-1.557c0,0,1.335,0.89,2.45,0   c1.11-0.892,1.241-1.511,0.53-2.533c-0.709-1.026-1.557-2.313,0.179-4.048c0,0,0.668-2.045-0.935-3.423   c-1.602-1.378-2.934-0.31-2.312,1.332c0.622,1.646,1.468,2.847,0.889,4.404c-0.577,1.557-3.335,2.667-4.712,0.225   c0,0-0.577-1.159-0.268-1.69c0.313-0.534,0.978,0.354,1.511,0.531c0.534,0.179,1.023-0.577-0.313-1.645   c-1.332-1.065-3.335-3.202-3.068-6.449c0.248-3.01,2.831-3.993,4.941-3.765c0,0,0.531-0.104,0.221-0.414   c-0.316-0.309-0.091-1.557-0.4-2.266c-0.313-0.71,0.084-1.244,1.286-0.893C180.356,146.489,181.246,146.844,181.513,147.156z"
 id="path3186"
 style="stroke-width:2.00000008;stroke-miterlimit:4;stroke-dasharray:none" />
					<path
 
 fill="none"
 stroke="#000000"
 stroke-width="0.127"
 d="M185.783,158.54c0,0,0.358-3.603,1.69-5.735   c1.332-2.137,5.022-3.915,7.205-1.469c2.179,2.446,0.309,5.514-0.713,6.312c-1.022,0.801-2.136,2.225-2.136,3.202   c0,0.983,0.625,1.426,0.983,1.56c0.352,0.133,0,0.977-1.381,0.443c-1.38-0.534-1.244-2.354-0.71-4.355   c0,0,1.332-2.225-0.58-3.384c-1.915-1.153-3.159,1.293-3.335,2.225C186.626,158.272,186.271,158.895,185.783,158.54z"
 id="path3188"
 style="stroke-width:2.00000008;stroke-miterlimit:4;stroke-dasharray:none" />
					<path
 
 fill="none"
 stroke="#000000"
 stroke-width="0.127"
 d="M183.069,157.338c0,0-0.225-3.958-2.801-5.694   c-2.579-1.732-4.758-0.885-5.872,0.316c-1.108,1.199-0.841,3.912,0.847,5.821c1.69,1.915,2.533,1.869,2.667,3.25   c0.134,1.377-0.889,1.511-1.469,1.511c-0.577,0-0.222,0.71,0.983,0.756c1.199,0.042,2.619-0.714,1.55-3.648   c0,0-1.866-3.067,0-4.313c1.87-1.244,3.159,0.935,3.427,1.645C182.669,157.696,182.981,157.738,183.069,157.338z"
 id="path3190"
 style="stroke-width:2.00000008;stroke-miterlimit:4;stroke-dasharray:none" />
					<path
 
 fill="none"
 stroke="#000000"
 stroke-width="0.127"
 d="M184.447,160.272c0,0-1.824-0.222-2.266,1.377   c-0.444,1.603,0.358,2.491,2.491,2.449c2.133-0.045,2.489-0.847,2.534-1.87C187.248,161.207,186.675,160.185,184.447,160.272z"
 id="path3192"
 style="stroke-width:2.00000008;stroke-miterlimit:4;stroke-dasharray:none" />
					<path
 
 fill="none"
 stroke="#000000"
 stroke-width="0.127"
 d="M182.669,166.676c0,0-0.665,1.736-1.958,1.56   c-1.286-0.182-2.354-1.114-3.335-1.114c-0.977,0-1.332,1.022-1.332,1.557s0.931-1.202,2.713,0c0,0,1.153,1.111,1.954,1.245   c0.798,0.133,2.179-0.401,2.358-2.58C183.069,167.343,183.027,166.366,182.669,166.676z"
 id="path3194"
 style="stroke-width:2.00000008;stroke-miterlimit:4;stroke-dasharray:none" />
					<path
 
 fill="none"
 stroke="#000000"
 stroke-width="0.127"
 d="M184.447,165.164c0,0-0.042,1.512-0.664,2.935   c-0.625,1.427-1.026,1.645-0.404,3.293c0.625,1.645,1.159,1.912,1.335,1.912c0.176,0,1.16-1.423,1.645-2.313   c0.492-0.889-0.485-2.358-0.798-3.247C185.248,166.855,185.424,164.542,184.447,165.164z"
 id="path3196"
 style="stroke-width:2.00000008;stroke-miterlimit:4;stroke-dasharray:none" />
					<path
 
 fill="none"
 stroke="#000000"
 stroke-width="0.127"
 d="M185.87,165.252c0,0-0.087,1.961,1.332,3.602   c1.427,1.646,2.762,0.225,3.602-0.488c0,0,0.893-0.935,1.87-0.31c0.977,0.622,1.198-0.133,0.045-0.759   c-1.156-0.619-2.137,0.268-3.602,0.446c-1.469,0.179-2.221-0.932-2.58-1.958C186.18,164.763,185.87,165.252,185.87,165.252z"
 id="path3198"
 style="stroke-width:2.00000008;stroke-miterlimit:4;stroke-dasharray:none" />
					<path
 
 fill="none"
 stroke="#000000"
 stroke-width="0.127"
 d="M66.116,103.174c0,0-2.091-4.091,1.377-9.071   c0,0,2.183-3.202,7.338-4.045c5.159-0.847,7.383-3.427,10.538-7.025c3.159-3.602,4.36-6.583,4.937-6.54   c0.581,0.045,4.184,1.96,6.717,3.335c2.536,1.378,8.358,0.847,12.45-2.176c4.092-3.025,7.561-6.451,10.94-9.385   c2.483-2.154,6.794-4.865,10.032-6.573c0,0,5.486-2.808,10.645-1.298c5.161,1.515,6.403,4.582,5.96,7.517   c-0.446,2.937-2.581,4.713-3.915,4.713c-1.334,0-1.779-1.643-3.469-1.643c-1.687,0-1.334-0.801-0.843-1.468   c0.49-0.666,1.734-3.601,0-4.715c-1.734-1.11-6.004-0.801-10.406,1.601c-4.402,2.4-10.94,8.185-14.985,11.471   c-4.049,3.293-10.452,4.628-12.052,4.583c-1.601-0.045-4.003,0.89-4.537,2.622c-0.533,1.736,1.248,2.759,3.827,3.335   c2.578,0.58,8.67-0.667,14.808-5.022c6.136-4.358,6.713-5.602,12.629-9.338c5.915-3.736,9.339-4.449,9.381-3.736   c0.044,0.71-1.242,0.887-1.509,1.778c-0.268,0.89-0.716,1.157-1.334,0.844c-0.624-0.312-4.804,0.933-9.12,4.403   c-4.313,3.469-12.227,12.005-22.099,13.562c0,0-3.157-0.042-5.559-0.576c-2.401-0.534-3.559,1.019-3.425,2.354   c0.133,1.336,1.601,1.203,2.001,2.225c0.399,1.022,1.29,1.645,1.868,2.045c0.58,0.4,0.666,0.756,0.045,0.932   c-0.624,0.183-0.8,1.693-0.446,2.492c0.356,0.801,0.534,1.11,0.624,2.179c0.089,1.068,0.757,2.4,1.957,3.202   c1.201,0.801,0.754,1.201,0,1.201c-0.757,0-0.98,1.199-0.98,3.47c0,2.267-1.421,6.181-2.488,8.185   c-1.066,2-1.423,3.553-1.2,4.8c0.22,1.245,0.176,1.913,0.22,2.489c0.047,0.58,1.248,1.068,1.868,0.134   c0.624-0.935,1.868-5.603,3.249-8.358c1.375-2.758,1.82-4.983,1.553-6.983c-0.268-2.003,0.089-2.179,0.847-2.137   c0.754,0.049,2.402-1.198,2.845-2.045c0,0,4.446-6.758,12.097-13.471c0,0,6.625-5.777,16.096-9.207   c0,0,6.226-1.958,11.253-2.225c0,0,5.78-0.71,11.782-0.134c6.002,0.583,8.406,1.026,14.184,3.159   c5.784,2.134,11.829,5.869,20.946,15.921c0,0,5.781,5.957,9.337,13.92c0,0,2.358,4.354,4.319,6.937   c1.954,2.577,2.042,1.955,2.752,1.287c0.713-0.667,1.333,0.179,1.824,1.156c0.491,0.978,3.159,5.915,4.935,7.205   c1.777,1.29,2.804-0.801,2.449-2.709c-0.355-1.915-1.424-4.403-0.939-4.449c0.492-0.046,1.161,1.515,1.603-0.179   c0.449-1.69,1.957-1.111,2.449-0.843c0.486,0.267,1.375,0.355,0.931-1.065c-0.445-1.427,0.267-1.648,0.89-1.648   c0.622,0,3.468-0.355,3.957-1.022c0.491-0.665-0.31-1.065-1.245-1.114c-0.931-0.042-1.156-0.4-1.465-1.02   c-0.313-0.622-3.824-2.183-4.052-4.27c-0.218-2.091,1.785-1.781,2.228-1.599c0.443,0.176,0.889,0.352,1.599,0.267   c0.713-0.091,1.157,0.267,1.645,0.267c0.489,0,2,0.085,2.091,0.443c0.091,0.355,0.935,0.889,1.378,0.71   c0.446-0.176,0.846-0.042,0.98,0.267c0.133,0.313,1.11,0.534,1.687,0.401c0.58-0.133,0.717-1.87-1.42-3.247   c-2.137-1.378-1.781-2.801-3.38-2.668c-1.603,0.134-5.38,0.134-6.671-3.869c0,0-0.442-1.157-0.267-2.443   c0.179-1.293-0.088-3.25-0.354-4.849c-0.264-1.603,0.801-1.87,1.286-2.355c0.492-0.492,1.825-1.248,3.16-0.625   c1.336,0.625,2.358,2.091,1.023,2.403c-1.333,0.31-2.714,1.424-2.58,2.267s-0.886,1.11-1.198,2   c-0.313,0.893,0.312,2.537,1.244,3.87c0.935,1.335,3.423,1.869,4.137,1.824c0.709-0.045,1.068-3.114,1.11-4.979   c0.042-1.87,1.599-2.805,2.801-1.203c1.202,1.6,2.935,3.515,3.736,3.293c0.801-0.225,3.113-3.869,0.667-8.272   c-2.445-4.403-6.582-6.495-10.497-5.693c-3.912,0.801-9.38,4.404-11.426,10.764c0,0-1.466,5.778-0.358,11.963   c1.114,6.179,2.938,8.579,3.602,9.915c0.671,1.335,0.759,1.778,0.137,1.957c-0.625,0.176-5.159-6.983-6.54-14.096   c0,0-0.84-5.96-0.175-9.608c0.667-3.645-0.313-4.576-1.069-4.576c-0.755,0-2.846,3.954-3.022,8.892   c-0.176,4.934,1.465,10.852,1.824,12.23c0.352,1.374-1.069,0.443-1.824-0.759c-0.759-1.202-2.446-2.844-1.912-3.554   c0.535-0.716,1.065-3.468-0.088-4.318c-1.16-0.844-0.977-1.466-0.404-1.688c0.58-0.222,1.069-2.225,0.534-3.29   c-0.534-1.068-0.89-2.045-0.091-2.27c0.801-0.222,2.051-4.625,2.051-5.869s0.131-1.912,0.798-2.267   c0.668-0.358,1.736-2.358,1.779-3.025c0.042-0.667-2.492-1.244-3.335-0.71c-0.843,0.535-1.068,0.443-1.292,0.043   c-0.219-0.401-2.085-0.268-3.642,0.179c-1.56,0.446-2.713-0.131-3.381,0.179c-0.664,0.309-0.98,0.4-1.114,0.087   c-0.133-0.312-0.71-0.266-1.023,0c-0.313,0.268-0.931,0-1.198-0.445c-0.268-0.443-1.068-0.753-1.648-0.352   c-0.577,0.4-1.02-0.267-1.069-0.534c-0.042-0.268-1.107-1.603-2.133-1.336c-1.02,0.268-0.844-0.446-0.935-0.756   c-0.085-0.309-1.107-1.377-1.954-1.557s-1.068-0.354-1.156,0.397c-0.088,0.759-1.469,0.892-1.469-0.134   c0-1.019-0.306-2.534-1.332-2.618c-1.026-0.092-1.202-1.202-1.293-1.782c-0.085-0.576-1.775-2.003-2.352-1.954   c-0.581,0.042-0.893-0.492-1.114-1.026c-0.221-0.534-1.645-1.599-2.358-1.642c-0.71-0.048-1.466-0.492-1.687-1.117   c-0.225-0.619-0.801-1.866-0.137-1.51c0.671,0.357,5.693,3.734,8.941,6.714c3.244,2.98,7.201,5.918,10.139,7.205   c2.935,1.29,8.67,0.847,9.96-0.088c1.289-0.935-0.489-2.267-4.133-4.091c-3.651-1.824-10.807-5.426-17.035-10.363   c0,0-6.67-5.423-9.78-7.071c-3.114-1.644-7.159-2-7.873,0.448c-0.713,2.444-0.133,3.555-1.064,4.089   c-0.935,0.532-1.603,0.356-1.961,1.2c-0.355,0.847-3.958,0.933-5.381-1.467c-1.42-2.402-1.153-6.982,3.023-9.073   c4.182-2.087,10.852-1.776,16.9,2.669c6.048,4.449,9.872,9.962,15.65,13.341c5.785,3.381,9.83,3.068,14.142,1.915   c4.319-1.159,6.937-3.335,7.471-3.56c0.534-0.225,0.801-0.268,1.557,0.71c0.758,0.98,3.96,5.517,6.761,7.872   c2.801,2.358,7.159,4.091,9.517,4.716c2.359,0.619,5.645,3.02,7.293,7.022c1.644,4.003-0.534,8.628-1.515,9.921   c-0.977,1.286-0.71,3.911-0.221,4.533c0.488,0.622,0.622,0.756,0.622,1.068c0,0.31,0.935,0.222,1.599-1.866   c0.671-2.095,1.87-5.518,3.292-6.537c1.423-1.026,2.759,0.71,2.98,3.599c0.222,2.889-0.58,6.006-3.022,8.849   c-2.45,2.847-2.847,4.137-1.915,5.071c0.935,0.931,3.602-2.179,4.006-3.469c0.397-1.293,0.71-1.159,0.71-2.625   c0-1.469,1.42-3.335,2.443-4.003c1.025-0.667,1.915,1.202,1.96,4.224c0.042,3.025-0.091,6.048-3.602,8.182   c-3.518,2.136-4.625,4.361-4.537,5.426c0.088,1.069,4.088,0.626,5.338,0.225c1.245-0.401,5.068-0.134,6.091,3.553   c0,0,0.847,3.292-2.27,5.426c-3.11,2.137-7.824,2.228-10.048-2.309c0,0-0.667-1.915-1.602-1.915   c-0.931,0-0.71,2.048-0.625,4.048c0.091,2.003-0.084,2.801,1.16,2.354c1.244-0.443,1.87-0.619,1.958,0.134   c0.088,0.759-0.798,1.156-0.89,1.958c-0.09,0.801,1.157,1.958,2.625,0.801c1.465-1.156,2.085-1.156,2.843-0.843   c0.759,0.31,3.335,0.133,3.827,0.31c0.485,0.176,2.442-1.958,2.619-3.244c0.182-1.293,1.736-1.736,1.96-0.313   c0.222,1.423-0.267,3.648-1.114,5.248c-0.846,1.602-0.221,4.758-1.556,6.048c-1.333,1.291-3.824,2.843-4.355,3.779   c-0.538,0.935-1.824,1.781-3.606,1.647c-1.778-0.133-2.267-1.026-2.045-1.915c0.225-0.886-0.267-2.576-1.779-2.71   c-1.51-0.134-2.129,3.424-2.312,4.58c-0.176,1.156,1.514,2.58,2.758,2.446c1.241-0.134,1.866-0.045,1.913,0.443   c0.045,0.492,0.396,1.11-0.71,1.068c-1.114-0.043-3.206,0.756-4.228,1.557c-1.023,0.801-2.886-0.401-3.381-1.065   c-0.489-0.667-2.931-0.85-4.045-0.049c-1.114,0.802,1.156,2.625,2.488,3.469c1.335,0.847,3.694,0.4,4.716-0.218   c1.023-0.625,6.847-3.068,9.116-3.56c2.27-0.491,3.335-0.889,4.804-1.201c1.466-0.31,5.557-4.313,5.693-6.358   c0.13-2.046,1.02-2.271,2.045-1.424c1.022,0.844,2.442,0.756,2.711,3.603c0.267,2.846-4.625,6.448-6.137,7.781   c-1.512,1.335-1.29,2.625-0.489,3.514c0.802,0.889,1.42,1.465,0.352,3.824c-1.065,2.358-1.508,4.446-1.329,6.495   c0.176,2.042,0.176,4.27-1.335,6.357c-1.511,2.091-1.336,2.622-1.291,3.781c0.046,1.153-0.755,4.088-2.982,6.091   c-2.218,2-2.397,2.446-2.084,3.468c0.309,1.023,0.886,3.248-0.358,4.534c-1.245,1.29-3.778,2.4-3.733,4.716   c0.039,2.313-0.938,3.11-2.095,4.354c-1.153,1.248-3.155,1.87-3.469,3.694c-0.309,1.823-1.019,4.357-2.221,4.938   c-1.199,0.576-3.068,1.065-3.114,3.11c-0.045,2.049-2.442,3.957-4.044,3.869c-1.603-0.088-3.336,0.313-3.381,2.313   c-0.045,2.003-4.846,2.179-5.511,4.358c-0.671,2.179-2.09,2.934-4.807,3.647c-2.71,0.71-2.756,4.27-7.159,3.87   c0,0-0.847-0.046-2.932,1.821c-2.091,1.865-2.583,1.69-3.384,1.599c-0.798-0.085-2.088,0.491-3.377,1.736   c-1.29,1.247-4.671,0.267-5.778,1.29c-1.114,1.026-1.206,1.778-4.094,1.603c0,0-1.293,0.133-2.003,0.622   c-0.71,0.489-1.909,1.068-3.869,0.622c-1.955-0.443-2.801,1.514-4.58,1.514c-1.779,0-2,1.775-3.244,1.775   c-1.245,0-2.313,0.534-2.003,1.335c0.313,0.802,1.114,1.779-0.088,2.225c-1.198,0.443-1.957,0.534-3.647-0.313   c-1.687-0.843-1.645-1.287-2.977-1.335c-1.335-0.042-2.136-0.667-2.403-1.332c-0.267-0.668-1.557-1.202-2.935-0.58   c-1.378,0.625-3.377,1.026-3.778-0.397c-0.401-1.427-2.092-0.535-3.249,0.397c-1.153,0.935-4.045-0.397-4.979,0.801   c-0.935,1.202-0.534,2.358-2.135,2.667c-1.601,0.313-3.692-1.244-3.869-2.134c-0.177-0.889-0.844-1.557-1.468-0.843   c-0.624,0.71-0.4,0.843-1.511,0.134c-1.114-0.713-2.492-0.401-3.381-0.446c-0.887-0.045-0.621-0.401-1.288-0.801   c-0.666-0.401-1.333-0.753-2.447-0.444c-1.111,0.31-2.979,0.356-3.555-0.576c-0.582-0.935-1.868-1.247-2.714-0.85   c-0.844,0.401-2.845,0.759-3.379-0.442c-0.534-1.199-2.044-1.023-3.736-0.89c-1.691,0.133-2.091-0.267-2.578-0.886   c-0.49-0.625-1.69-0.984-2.848-0.85c-1.153,0.133-3.335-1.377-4.354-2.222c-1.024-0.847-1.915-1.156-4.092-1.114   c-2.179,0.049-2.402-0.752-2.759-1.687c-0.353-0.932-0.486-2.313-3.735-2.267c-3.246,0.042-3.422-1.648-3.511-2.358   c-0.091-0.71-2.225-1.824-3.736-1.778c-1.511,0.042-2.978-1.824-3.025-2.801c-0.042-0.98-0.399-2.534-3.068-2.45   c-2.667,0.092-3.555-3.777-3.736-4.8c-0.176-1.019-1.066-2.313-2.711-2.222c-1.643,0.086-3.868-2.625-2.757-4.315   c1.114-1.687,0.533-2.446-0.935-2.355c-1.467,0.085-5.512-2.266-5.022-5.65c0,0,0.71-1.955-1.2-2.31   c-1.915-0.358-2.803-0.446-4.316-2.938c-1.511-2.489,0.4-4.091-1.469-5.645c0,0-2.667-1.781-2.711-4.495   c-0.042-2.71,1.559-2.71,1.868-3.599c0.311-0.892-1.643-1.778-3.068-2.491c-1.424-0.71-3.202-5.156-2.225-7.071   c0.98-1.912,1.601-2.98-0.4-4.137c-2-1.152-2.935-5.823-2.845-7.471c0.091-1.645,1.068-1.244,2.179-1.199   c1.114,0.046,2.134-0.313,1.824-1.244c-0.31-0.935-6.18-3.202-7.695-5.872c-1.51-2.667-1.554-3.957-0.933-6.537   c0.624-2.576,2.667-2.889,3.691-2.443c1.024,0.443,0.978,0.886,1.958,1.378c0.977,0.489,1.954,0.088,2.311,0.622   c0.358,0.535,0.579,1.378,1.335,1.603c0.757,0.218,2.578-0.625,1.91-2.225c-0.667-1.603,1.38-3.068,2.935-4.094   c1.558-1.019,2.449-1.687,2.001-3.019c-0.443-1.335-0.176-2.491-0.487-3.334c-0.313-0.851-2.001-1.336-2.533,0.843   c-0.535,2.176-1.069,3.824-2.002,4.445c-0.935,0.622-1.066,1.557-1.868,1.466c-0.801-0.085-2.269,0.492-4.226-0.844   c-1.958-1.335-2.935-4.403-1.643-6.712c1.287-2.315,3.068-2.934,4.622-2.983c1.557-0.043,2.358-0.62,2.402-1.287   c0.046-0.667-4.312-4.583-4.623-7.826c-0.313-3.248,0.667-4.67,0.935-4.312c0.265,0.351,1.375,0.843,2.133,1.377   c0.754,0.53,2.622,2.4,3.246,5.426c0.624,3.019-0.09,5.201-0.268,6.178c-0.176,0.977,0.443,1.958,1.158,2.4   c0.71,0.446,1.91,0.267,1.244-1.199c-0.667-1.469-0.311-1.778-0.225-2.625c0.091-0.843,0.448-1.912,1.068-1.779   c0.624,0.134,1.29-3.11,4.402-4.09c3.115-0.977,4.802-0.58,5.47-0.755c0.666-0.179,1.69-0.446,1.515,0.667   c-0.181,1.11-0.534,2.755-2.715,3.82c-2.179,1.068-4.27,1.427-5.737,1.782c-1.467,0.355-1.734,1.202-1.286,1.954   c0.443,0.759,1.242,0.225,1.954,0.225c0.713,0,1.023,0.226,0.713,0.577c-0.314,0.358-0.757,0.713-0.847,2.358   c-0.088,1.645-0.534,1.912-0.935,2.58c-0.4,0.664-0.354,2.492,0.314,2.58c0.666,0.088,0.844,0.134,0.8,1.111   c-0.045,0.977,0.445,1.293,1.336,1.378c0.886,0.09,1.732-0.935,0.709-1.779c-1.024-0.843-1.558-4.358-0.356-6.045   c1.2-1.69,2.848-2.759,4.981-2.625c2.135,0.134,3.423,1.336,3.869,2.179c0.443,0.847,1.512,0.798,1.645,1.466   c0.134,0.667-0.401,2.091,0.265,2.625c0.668,0.534,2.269-1.778,2.358-2.625c0.088-0.844,1.335-2.221,2.179-2.267   c0.844-0.042,2.311-1.286,2.358-2.98c0.042-1.69,0.666-2.358,0.934-2.576c0.267-0.225,0.044-2.759,0.534-3.293   c0.487-0.534-0.133-1.156-0.448-0.844c-0.309,0.31-3.688,3.156-4.135,5.247c-0.444,2.091-0.267,2.179-0.801,2.625   c-0.533,0.443-0.752,0.977-0.844,1.688c-0.089,0.713-0.133,0.98-1.11,0.98c-0.98,0-1.066-0.045-1.066-0.98   c0-0.935-0.223-4.847-0.4-7.472c-0.181-2.622,0.576-4.446,1.511-5.423c0.934-0.98,2.625-3.824,3.778-5.56   c1.158-1.732,2.982-1.377,3.116-0.354c0.134,1.023,0.487,4,1.155,4.049c0.666,0.042,1.066,0.309,0.713,0.931   c-0.356,0.622-0.356,1.11-0.267,1.645c0.086,0.534,1.601,0.134,2.354-0.755c0.757-0.889,3.869-1.687,5.07-5.022   c1.2-3.335,3.469-7.253,3.115-12.054c-0.356-4.804,0.22-6.048-1.957-10.048c0,0-1.202-3.247-2.224-3.648   c-1.022-0.4-1.111,0.668-0.846,3.381c0.267,2.71,1.158,8.27,0.891,12.364c-0.267,4.087-2.981,10.624-4.802,11.914   c0,0-1.158,0.179-0.313-0.978c0.847-1.156,3.867-6.27,3.38-12.672c-0.49-6.404-3.915-12.273-7.959-15.165   c-4.045-2.893-8.583-3.202-11.517-2.492c-2.935,0.713-4.893,3.202-5.337,6.318C66.427,101.708,67.317,103.043,66.116,103.174z"
 id="path3200"
 style="stroke-width:2.00000008;stroke-miterlimit:4;stroke-dasharray:none" />
					<path
 
 fill="none"
 stroke="#000000"
 stroke-width="0.127"
 d="M77.144,98.418c0,0,1.868-0.4,3.736-0.4   c1.867,0,3.558,0.664,2.978,1.866c-0.578,1.202-0.4,2.045-0.486,4.228c-0.092,2.175-0.535,4.087-2.582,5.422   c-2.046,1.333-2.803,0.313-1.954-0.179c0.843-0.488,3.288-1.599,3.511-4.625c0.223-3.022-1.511-4.755-3.202-4.621   C77.455,100.243,76.211,99.483,77.144,98.418z"
 id="path3202"
 style="stroke-width:2.00000008;stroke-miterlimit:4;stroke-dasharray:none" />
					<path
 
 fill="none"
 stroke="#000000"
 stroke-width="0.127"
 d="M73.809,103.265c0,0-2.358,0.268-3.558,0.932   c-1.201,0.667-1.868,1.026-1.954,2.579c-0.09,1.557-0.624,2.133-0.98,3.202c-0.354,1.069-0.621,3.202-0.71,4.85   c-0.091,1.645-0.667,3.289-1.245,4.221c-0.581,0.935-0.624,1.469-1.068,1.603c-0.446,0.134-0.357-2.755,0-3.912   c0.354-1.159,1.912-5.514,1.244-7.295c-0.666-1.778-1.022-3.068-1.066-4.4c-0.044-1.335-1.2-1.469-2.491,0.488   c-1.287,1.958-1.645,2.58-1.735,4.893c-0.086,2.312,0.267,5.113,1.2,7.692c0.935,2.58,1.202,3.733,0.715,4.358   c-0.489,0.623-1.114-0.091-1.558-1.69c-0.443-1.603-2.401-6.048-3.825-6.27c-1.42-0.221-2.267,1.648-1.734,4.716   c0.534,3.068,2.135,5.469,3.516,8.312c1.378,2.847,1.42,3.335,1.42,4.58c0,1.248-0.309,1.736,0.267,1.915   c0.582,0.175,1.869-1.782,2.314-2.625c0.445-0.843,2.221-3.022,4.757-3.468c2.534-0.443,8.361-1.557,8.939-4.358   c0,0,0.49-2-0.802-1.778c-1.286,0.225-3.869,0.576-6.002,0.801c-2.135,0.225-4.403,1.733-4.847,2.092   c-0.443,0.354-0.223-1.916,1.29-2.893c1.511-0.977,2.221-1.733,2.668-2.267c0.443-0.534,2.935-0.625,5.246-0.576   c2.313,0.042,5.069-1.515,6.271-3.785c1.2-2.267,0.042-3.202-2.135-3.111c-2.178,0.092-6.627,2.359-7.829,3.245   c-1.2,0.892-0.666-0.619,0.801-1.375c1.468-0.758,2.715-2.804,3.469-3.113c0.757-0.313,2.267-1.29,1.646-1.782   c-0.624-0.484-1.114-2.221-1.156-3.511C74.833,104.242,74.167,103.219,73.809,103.265z"
 id="path3204"
 style="stroke-width:2.00000008;stroke-miterlimit:4;stroke-dasharray:none" />
					<path
 
 fill="none"
 stroke="#000000"
 stroke-width="0.127"
 d="M96.799,128.878c0,0-0.044,3.96-1.734,5.025   c-1.69,1.068-3.912,2.847-5.779,4.225c-1.868,1.38-1.692,2.178-2.625,2.133c-0.935-0.042-1.292,0.534-1.691,0.713   c-0.4,0.175-1.11-0.267-0.578-1.068c0.534-0.798,0.668-2.133,2.045-2.358c1.381-0.222,2.225-1.198,2.715-1.641   c0.487-0.449,0.487-0.625,1.111-0.625s1.601-0.534,1.601-1.202C91.864,133.415,95.689,127.721,96.799,128.878z"
 id="path3206"
 style="stroke-width:2.00000008;stroke-miterlimit:4;stroke-dasharray:none" />
					<path
 
 fill="none"
 stroke="#000000"
 stroke-width="0.127"
 d="M94.531,143.329c0,0-0.532,2.137-1.467,3.072   c-0.933,0.931-2.044,1.423-3.024,1.374c-0.977-0.042-4.18,1.159-5.823,2.583c-1.648,1.42-3.115,3.778-3.783,3.778   c-0.666,0-1.42-2-0.268-2.978c1.158-0.98,1.292-2.667,2.402-3.518c1.114-0.843,2.935-1.286,4.093-1.152   c1.158,0.133,2.177-0.446,2.177-0.935c0-0.489,0.849-0.623,1.291-0.623c0.443,0,1.735-0.843,2.358-1.511   C93.108,142.753,94.397,142.219,94.531,143.329z"
 id="path3208"
 style="stroke-width:2.00000008;stroke-miterlimit:4;stroke-dasharray:none" />
					<path
 
 fill="none"
 stroke="#000000"
 stroke-width="0.127"
 d="M95.109,152.27c0,0-0.223,2.358-1.245,3.244   c-1.022,0.893-2.756,0.268-3.558,0.758c-0.8,0.489-1.557,0.756-2.492,0.665c-0.933-0.088-2,1.603-4.179,1.736   c-2.177,0.134-2.801-1.736-1.91-3.114c0.886-1.377,2.979-0.488,3.288-0.713c0.314-0.218,2.358-1.287,3.425-1.199   c1.068,0.088,1.912-0.935,2.402-1.022c0.491-0.088,2.311-0.798,2.668-1.065C93.865,151.292,95.02,151.735,95.109,152.27z"
 id="path3210"
 style="stroke-width:2.00000008;stroke-miterlimit:4;stroke-dasharray:none" />
					<path
 
 fill="none"
 stroke="#000000"
 stroke-width="0.127"
 d="M91.82,158.761c0,0,1.333-1.156,2.445-0.576   c1.113,0.576,0.532,3.778-0.445,5.022c-0.978,1.247-0.756,2.625-0.09,3.559c0.667,0.936,0.535,1.512,0.134,1.912   c-0.4,0.397-0.22,1.377,0.223,2.267c0.444,0.889,0.977,1.781,0.356,2.182c-0.624,0.397-0.223,1.909,0.487,2.843   c0.715,0.935,1.335,1.424,0.715,2.4c-0.624,0.977-0.448,1.824,0.487,2.759c0.934,0.935,1.958,3.022,2.314,5.647   c0.353,2.625,0.086,5.778,0.443,6.045c0.356,0.267,1.024,0.225,1.467,1.335c0.445,1.114-0.089,1.648-0.532,2.049   c-0.444,0.4-0.267,1.42,0.666,1.642c0.935,0.225,2.091,1.469,1.292,2.403c-0.801,0.932-0.98,2.267,0.044,2.492   c1.022,0.218,1.509-0.4,1.91,0.978c0.4,1.377,1.957,2.266,2.358,2.491c0.4,0.219,0.757,1.288,0.267,2.267   c-0.49,0.978,0.666,1.336,1.067,1.378c0.4,0.042,1.824,0.978,1.778,2.179c-0.044,1.199,0.847,1.377,1.515,1.332   c0.666-0.042,1.244,0.492,1.066,1.916c-0.181,1.42,0.268,1.465,0.888,1.335c0.624-0.134,2.448,2.042,3.291,2.267   c0.844,0.218,2.491,2.221,3.292,2.355c0.801,0.134,2.001,0.4,2.979,1.514c0.977,1.11,1.692,0.977,2.001,0.977   c0.311,0,0.801,0.534,1.245,1.245c0.446,0.712,1.114,0.445,1.601,0.488c0.49,0.042,1.824,0.802,2.935,1.511   c1.114,0.713,3.649,0.759,4.136,0.802c0.49,0.045,2.625,0.889,3.116,1.647c0.487,0.753,1.42,1.466,2.177,1.821   c0.757,0.355,0.667,1.423,0.134,1.29c-0.535-0.133-1.468,1.424-2.311,0.226c-0.847-1.202-1.916,0.576-2.803,0.042   c-0.889-0.534-1.601,0.134-2.047,0.358c-0.443,0.219-1.067-0.4-0.71-1.068s-0.267-0.98-0.624-0.893   c-0.354,0.091-0.578,1.293-1.333,1.377c-0.754,0.091-1.689-0.042-2.045-0.752c-0.357-0.713-1.201-0.446-1.778-0.401   c-0.58,0.042-2.357-0.847-2.801-1.514c-0.446-0.668-2.448-0.134-3.381-1.421c-0.935-1.29-2.313-1.246-2.713-0.98   c-0.399,0.268-2.667-1.821-3.024-2.446c-0.353-0.622-0.62-0.31-1.066-0.042c-0.445,0.267-1.868-1.069-1.956-1.691   c-0.09-0.625-0.889-0.534-1.29-0.442c-0.401,0.084-1.912,0.267-2.402-0.847c-0.49-1.111-1.066-1.377-1.467-1.244   c-0.4,0.133-1.824-1.427-1.911-2.003c-0.091-0.577-0.98-0.668-1.292-0.401c-0.309,0.268-2.578,0.625-2.534-2.534   c0,0-0.357-0.533-0.757-0.267c-0.4,0.267-1.154,0.092-1.021-0.843c0.134-0.934-0.58-1.248-1.113-2.449   c-0.535-1.198-1.289,0.134-2.178-1.687c-0.891-1.824,0.31-2.091,0.666-2.045c0.356,0.045,0.801-0.935-0.176-0.889   c-0.98,0.046-2.669-1.248-2.625-2.58c0,0,0.133-0.489-0.491-0.977c-0.62-0.492-0.62-1.203-0.487-1.47   c0.134-0.267-0.047-0.667-0.356-0.843c-0.311-0.179-0.624-0.801-0.311-1.29c0.311-0.492-0.179-0.978-0.49-1.11   c-0.309-0.134-1.378-0.981-0.757-2.717c0.624-1.732,0.181-2.132-0.354-2.087c-0.532,0.042-2.001-1.291-1.69-2.58   c0,0,0.089-0.579-0.443-0.756c-0.534-0.179,0.042-1.332-0.802-1.781c-0.847-0.443-1.423-2.133-1.024-4.801   c0.401-2.667,2.225-2.313,4.003-2.221c1.777,0.084,2.225-0.049,1.601-1.202c-0.624-1.157,0.223-1.466,0.267-3.293   c0.042-1.824-0.49-2.576-0.935-3.022c-0.443-0.446,0.668-1.335-0.31-1.87c-0.98-0.534-1.424-0.176-1.823-0.619   c-0.401-0.446-0.711-0.446-1.202-1.202c-0.49-0.756-1.023-0.667-1.423-0.579c-0.401,0.091-1.778-1.02-2.444-1.336   c-0.668-0.31-1.158-0.665-1.645-0.844c-0.49-0.176-1.557-0.622-1.333-1.957c0.22-1.333,2.133-2.176,3.335-2.576   c1.2-0.401,4.621-0.978,5.468-1.645c0.845-0.668,1.203-1.736,1.646-1.957C91.33,160.139,91.82,158.761,91.82,158.761z"
 id="path3212"
 style="stroke-width:2.00000008;stroke-miterlimit:4;stroke-dasharray:none" />
					<path
 
 fill="none"
 stroke="#000000"
 stroke-width="0.127"
 d="M79.413,163.207c0,0,0.133,1.645-0.978,2.625   c-1.114,0.978-2.447,1.29-2.758,0.446c-0.31-0.843-2.4-2.091-2.845-1.469c-0.446,0.625-2.849-0.534-3.693-0.622   c-0.843-0.088-3.023-1.469-1.776-2.137c1.244-0.667,3.822-0.267,4.937,0.935c1.11,1.202,2.578,2,3.688,1.332   C77.102,163.653,79.103,162.229,79.413,163.207z"
 id="path3214"
 style="stroke-width:2.00000008;stroke-miterlimit:4;stroke-dasharray:none" />
					<path
 
 fill="none"
 stroke="#000000"
 stroke-width="0.127"
 d="M76.077,147.11c0,0,0.577,4.67-0.624,5.113   c-1.2,0.446-4.401,0.932-5.289,3.068c-0.891,2.133-1.868,3.469-4.136,3.782c-2.267,0.309-2.891,1.244-2.935,1.82   c-0.045,0.58-0.133,1.735-2.935,1.068s-6.05-2.179-8.318-4.403c-2.267-2.222,0.847-3.202,1.559-1.821   c0.71,1.378,1.69,2.313,3.068,2.354c1.378,0.046,4.535,0.092,5.336,0.046c0.8-0.046,4.625,0.133,5.335-3.424   c0.711-3.56-0.176-4.36,0.977-4.979c1.158-0.626,3.07-0.847,3.917-0.802C72.875,148.977,75.144,148.313,76.077,147.11z"
 id="path3216"
 style="stroke-width:2.00000008;stroke-miterlimit:4;stroke-dasharray:none" />
					<path
 
 fill="none"
 stroke="#000000"
 stroke-width="0.127"
 d="M151.988,239.652c0,0-4.094,0.488-5.828,2.442   c-1.735,1.958,2.091,4.716,3.291,3.828c1.201-0.894,3.737-1.424,4.629-1.026c0.886,0.401,3.42,1.335,5.42,0.182   c2-1.16,1.736-3.383-1.554-4.896C155.232,238.941,151.988,239.652,151.988,239.652z"
 id="path3218"
 style="stroke-width:2.00000008;stroke-miterlimit:4;stroke-dasharray:none" />
					<path
 
 fill="none"
 stroke="#000000"
 stroke-width="0.127"
 d="M136.022,252.458c0,0-0.178,0.668-0.401,0.756   s-1.558-0.447-2.045-0.046c-0.49,0.4-1.023,0.221-1.468,0.087c-0.446-0.129-1.734,0.268-2.001,0.981   c-0.266,0.713,1.202,2.312,2.355,2.4c1.158,0.088,1.734-1.421,1.734-1.912c0-0.488,1.335,0.091,2.049,0.358   c0.709,0.267,2.31,0.133,2.444-0.759C138.823,253.435,136.732,251.748,136.022,252.458z"
 id="path3220"
 style="stroke-width:2.00000008;stroke-miterlimit:4;stroke-dasharray:none" />
					<path
 
 fill="none"
 stroke="#000000"
 stroke-width="0.127"
 d="M127.883,255.125c0,0-1.734-0.978-3.11-0.042   c-1.381,0.932,0.886,2.889,2.534,2.843C128.951,257.884,128.728,255.526,127.883,255.125z"
 id="path3222"
 style="stroke-width:2.00000008;stroke-miterlimit:4;stroke-dasharray:none" />
					<path
 
 fill="none"
 stroke="#000000"
 stroke-width="0.127"
 d="M171.328,252.813c0,0-1.023,0.71-0.978,2   c0.045,1.294,1.29,2.538,2.671,1.069C174.396,254.416,171.999,252.546,171.328,252.813z"
 id="path3224"
 style="stroke-width:2.00000008;stroke-miterlimit:4;stroke-dasharray:none" />
					<path
 
 fill="none"
 stroke="#000000"
 stroke-width="0.127"
 d="M175.777,254.946c0,0-1.335-0.709-1.733,0.668   c-0.404,1.379,1.29,2.18,2.13,1.691C177.021,256.816,177.418,255.08,175.777,254.946z"
 id="path3226"
 style="stroke-width:2.00000008;stroke-miterlimit:4;stroke-dasharray:none" />
					<path
 
 fill="none"
 stroke="#000000"
 stroke-width="0.127"
 d="M178.135,256.594c0,0-1.068-0.534-1.603,0.89   c-0.534,1.42,1.336,1.954,2.756,1.469C180.711,258.46,180.532,256.683,178.135,256.594z"
 id="path3228"
 style="stroke-width:2.00000008;stroke-miterlimit:4;stroke-dasharray:none" />
					<path
 
 fill="none"
 stroke="#000000"
 stroke-width="0.127"
 d="M167.191,229.734c0,0-1.687,1.29-0.886,2.225   c0.797,0.935,1.912,2.221,2.755,2.4c0.844,0.177,1.645-0.755,2.137-1.29c0.489-0.534,1.022-1.068,1.156-0.176   c0.133,0.886,1.954,1.821,2.98,0.798c1.023-1.023,1.332-1.645,2.042-1.645c0.713,0,1.381-0.268,2.225-1.336   c0.844-1.068,2.045-0.752,2.443-1.511c0.404-0.755,1.25-1.557,2.137-1.599c0.892-0.045,1.022,0.134,1.068,0.443   c0.045,0.312,1.332,0.489,1.954-0.443c0.625-0.934,1.16-0.977,1.381-0.713c0.221,0.267,2.133,0.222,2.221-1.247   c0.092-1.466,0.759-1.065,1.245-0.798c0.491,0.267,2.67-0.401,2.357-1.687c-0.306-1.293,0.358-0.984,0.893-0.759   c0.534,0.225,2.4,0.176,2.622-1.244c0.225-1.424-1.201-2.358-0.889-2.98c0,0,0.535-0.134,0.935,0.446   c0.4,0.576,0.978,0.885,1.378,0.351c0.4-0.53,0.801-0.752,1.465-0.752c0.671,0,0.671-0.846,0.179-1.915   c-0.485-1.065-0.134-1.287,0.58-1.287c0.709,0,3.156-1.068,3.202-2.358c0.045-1.29,1.068-1.069,1.377-1.069   c0.309,0,1.377-1.377,1.377-3.022c0-1.645,0.713-1.022,0.981-0.889c0.267,0.134,1.156,0.309,0.622-1.466   c-0.534-1.781,0.978-2.892,1.332-3.067c0.356-0.183,1.867-1.961,0.623-3.469c-1.244-1.514,0.847-1.87,1.511-2.049   c0.668-0.176,2.496-1.912,1.602-3.469c0,0-0.4-0.576,0.092-0.935c0.488-0.352,0.266-1.287,0-1.732   c-0.268-0.443,0.573-2.801,1.374-3.114c0.801-0.31,1.915-1.291,1.785-2.443c-0.137-1.159-1.785-1.648-1.736-2.935   c0.042-1.293,1.554-1.114,1.645-2.137c0.091-1.022-0.313-1.065-1.068-1.515c-0.756-0.442-1.16-1.244-1.245-1.867   c-0.091-0.622-0.358-1.019-1.068-1.335c-0.713-0.309-0.847-1.244-0.355-1.599c0.492-0.354,1.023-1.111,1.023-1.469   c0-0.352,1.068-1.378,1.068-2.042c0-0.668,1.065-1.603,1.508-1.694c0.446-0.084,0.892-1.511,1.648-1.553   c0.756-0.046,3.023-1.691,3.423-2.183c0.401-0.485,1.511-0.977,1.867-1.153c0.358-0.179,0.404-1.514-1.199-1.958   c-1.602-0.443-2.404,0.668-3.778,0.091c-1.382-0.58-1.824-1.114-2.583-0.935c-0.752,0.176-1.554-0.4-1.687-0.847   c-0.134-0.442-2.4-1.153-2.583-2.267c-0.175-1.111-1.51-0.89-2.084-0.447c-0.58,0.447,0.129,1.026,0.129,1.736   c0,0.71-0.889,2.31-1.156,2.759c-0.267,0.443-0.309,2.133,0.492,2.935c0.802,0.801,0.752,2,0.352,2.534   c-0.397,0.534-1.111,1.469-0.176,2.489c0.932,1.022,0.358,1.915-0.625,2.625c-0.977,0.71-1.287,2.668,0.137,3.427   c1.421,0.752,0.71,1.642,0.176,1.909c-0.53,0.267-1.557,1.293-1.153,2.537c0.398,1.241,0.398,1.241,0.931,1.641   c0.535,0.401,0.71,1.114-0.625,2.049c-1.332,0.935-1.284,1.869-0.352,2.979c0.931,1.108,1.198,2.267-0.134,2.844   c-1.332,0.58-2.889,1.69-1.156,3.736c0,0,1.156,1.156-0.667,2.315c-1.824,1.153-0.759,2.31-2.003,2.71   c-1.245,0.401-1.687,1.069-1.465,2.091c0.221,1.02,0.843,2.489-0.176,3.202c-1.023,0.71-1.557,1.111-1.603,2.003   c-0.045,0.887-0.756,1.466-1.511,1.466c-0.756,0-1.557,1.02-1.512,2.087c0.039,1.068,0.489,1.557-0.758,1.557   c-1.244,0-2.622,0.801-2.446,1.736c0.176,0.935,1.023,1.023,0.847,1.825c-0.179,0.8-0.938,0.709-1.381,0.8   c-0.443,0.085-1.778,1.02-2.133,2c-0.356,0.978-0.71,0.623-1.333,0.623c-0.625,0-1.736,0.179-2.003,1.332   c-0.264,1.157-1.244,1.557-2,1.515c-0.759-0.046-1.202,0.354-1.469,0.934c-0.267,0.576-1.111,0.843-2.045,0.977   c-0.932,0.134-1.511,0.623-1.778,1.424c-0.268,0.8-0.756,0.709-1.687,0.576c-0.935-0.133-1.469-0.309-1.693,0.31   c-0.222,0.625-0.841,0.45-1.6,0.45s-1.244,0.176-1.866,0.797c-0.625,0.623-0.939,0.714-2.092,0.623   c-1.156-0.088-1.647-0.042-2.221,0.713C169.905,229.108,168.217,229.776,167.191,229.734z"
 id="path3230"
 style="stroke-width:2.00000008;stroke-miterlimit:4;stroke-dasharray:none" />
					<path
 
 fill="none"
 stroke="#000000"
 stroke-width="0.127"
 d="M213.62,151.915c0,0-0.802-1.202-1.378-1.11   c-0.58,0.084-1.247-0.534-1.247-0.534s-1.202,0.485-1.469,2c-0.267,1.511,0.893,2.889,1.648,3.156   c0.755,0.268,1.954,1.29,3.244,1.203c1.292-0.088,1.647-0.801,2.269-0.222c0.623,0.576,2.092,1.511,2.802,1.287   c0.709-0.218,0.934,0.133,1.201,0.4c0.268,0.268,1.558,0.225,1.691-0.576c0.133-0.802,0.309-0.802,0.622-0.802   c0.313,0,0.531-2-0.978-1.824c-1.511,0.179-1.961-0.267-2.227-0.844c-0.267-0.576-0.887-0.843-1.42-0.576   c-0.535,0.267-0.802-0.179-1.466-0.892c-0.667-0.71-1.068-0.623-1.648-0.398C214.685,152.403,213.887,152.403,213.62,151.915z"
 id="path3232"
 style="stroke-width:2.00000008;stroke-miterlimit:4;stroke-dasharray:none" />
					<path
 
 fill="none"
 stroke="#000000"
 stroke-width="0.127"
 d="M225.713,144.222c0,0-1.512-0.893-2.443,1.241   c-0.935,2.136-0.58,4.136-0.091,5.071c0.492,0.935,1.469,1.29,2.313,0.313c0.846-0.98,2.579-2,2.8-2.713   c0.222-0.71-0.085-1.202-0.71-1.82C226.958,145.687,225.713,144.222,225.713,144.222z"
 id="path3234"
 style="stroke-width:2.00000008;stroke-miterlimit:4;stroke-dasharray:none" />
					<path
 
 fill="none"
 stroke="#000000"
 stroke-width="0.127"
 d="M234.298,142.264c0,0-2.228-0.577-3.602,0.088   c-1.378,0.667-1.778,1.511-0.668,2.221c1.11,0.716,1.645,1.159,2.358,1.293c0.71,0.134,0.798-0.534,1.469-1.469   C234.52,143.463,235.321,142.398,234.298,142.264z"
 id="path3236"
 style="stroke-width:2.00000008;stroke-miterlimit:4;stroke-dasharray:none" />
					<path
 
 fill="none"
 stroke="#000000"
 stroke-width="0.127"
 d="M237.855,143.955c0,0-1.29-0.446-1.732,1.6   c-0.446,2.045,0.665,2.625,1.909,2.357C239.278,147.645,240.48,144.264,237.855,143.955z"
 id="path3238"
 style="stroke-width:2.00000008;stroke-miterlimit:4;stroke-dasharray:none" />
					<path
 
 fill="none"
 stroke="#000000"
 stroke-width="0.127"
 d="M208.549,135.815c0,0,0.225,0.756-0.268,1.732   c-0.489,0.977-0.756,1.512-0.13,2.091c0.623,0.58,1.29,1.335,0.398,2.091c-0.89,0.755-0.268,1.732,0.313,2.712   c0.579,0.978,1.648,2.088,2.357,2.088c0.71,0,1.333-0.534,1.599-0.801c0.267-0.267,0.577-0.978-0.225-1.733   c-0.798-0.756-0.752-0.977-0.619-1.554c0.134-0.583-0.401-1.469-0.932-1.782c-0.533-0.309-0.583-0.222-0.583-0.977   c0-0.759-0.442-1.958-0.977-2.271c-0.53-0.31-0.934-1.423,0.134-0.932c1.068,0.489,2.709,0.932,3.244,0.71   c0.534-0.222,2.182,0.534,2.182,0.534s0.887,0.268,0.887-0.71c0-0.977-1.375-1.377-1.199-2.091   c0.179-0.714-0.668-2.446-1.821-2.271c-1.157,0.183-1.469-0.084-1.867-0.752c-0.404-0.668-2.227-1.202-2.982-0.313   C207.304,132.48,207.037,134.705,208.549,135.815z"
 id="path3240"
 style="stroke-width:2.00000008;stroke-miterlimit:4;stroke-dasharray:none" />
					<path
 
 fill="none"
 stroke="#000000"
 stroke-width="0.127"
 d="M226.292,124.966c0,0-1.909-0.977-2.846-0.667   c-0.931,0.31-0.531,1.378-0.222,3.736c0.31,2.358-0.133,6.178-1.557,8.896c-1.419,2.709-1.022,3.468-0.534,4.178   c0.488,0.71,1.557,0.534,2.313,0c0.755-0.534,2.003-0.534,2.625-0.534c0.622,0,0.977-0.443,0.488-1.778   c-0.488-1.333,0.4-4.935,1.957-6.228c1.554-1.291,4.088-1.244,4.889-1.244c0.802,0,2.492-0.98,2.893-2.446   c0.401-1.468-0.176-2.488-2.313-2.488c-2.134,0-5.335-0.267-6.266-0.267C226.781,126.123,226.292,124.966,226.292,124.966z"
 id="path3242"
 style="stroke-width:2.00000008;stroke-miterlimit:4;stroke-dasharray:none" />
					<path
 
 fill="none"
 stroke="#000000"
 stroke-width="0.127"
 d="M227.85,161.607c0,0,1.023,0.843,0.31,1.6   c-0.71,0.759-1.645,0.4-1.821-0.489C226.156,161.829,227.14,161.073,227.85,161.607z"
 id="path3244"
 style="stroke-width:2.00000008;stroke-miterlimit:4;stroke-dasharray:none" />
					<path
 
 fill="none"
 stroke="#000000"
 stroke-width="0.127"
 d="M149.672,58.218c0,0-1.334,0.176-1.51,2.311   c0,0-0.091,1.423,0.934,2.091c1.021,0.667,0.667,3.335,0.311,4.846c-0.358,1.515-1.912,3.648-2.402,4.984   c-0.49,1.333,0.044,1.553-1.024,1.601c-1.067,0.042-1.02,1.554-0.133,2.488c0.891,0.931,3.025,2.179,3.958,3.022   c0.935,0.847,1.202,1.335,2.225,0.625c1.02-0.713,3.557-2.492,4.224-3.869c0.665-1.381,0.446-2.582-0.221-2.935   c-0.668-0.357-2.091-4.137-2.403-4.76c-0.313-0.624-2.046-1.243-2.179-2.935c-0.134-1.69-0.267-2.4,0.089-2.891   c0.356-0.487,1.158-1.421,0.757-2.889C151.896,58.441,150.429,57.951,149.672,58.218z"
 id="path3246"
 style="stroke-width:2.00000008;stroke-miterlimit:4;stroke-dasharray:none" />
					<path
 
 fill="none"
 stroke="#000000"
 stroke-width="0.127"
 d="M164.97,69.467c0,0,3.557,1.202,5.292,1.778   c1.736,0.581,2.313,1.557,1.736,1.601c-0.58,0.048-0.893,0-1.114,0.357c-0.222,0.356-0.848,0.891-1.023,0.091   c-0.179-0.801-3.381-2.183-4.091-1.959c-0.71,0.225-0.755-0.443-1.244-1.156C164.039,69.467,164.794,69.335,164.97,69.467z"
 id="path3248"
 style="stroke-width:2.00000008;stroke-miterlimit:4;stroke-dasharray:none" />
					<path
 
 fill="none"
 stroke="#000000"
 stroke-width="0.127"
 d="M130.552,87.566c0,0-8.761,4.358-11.917,7.693   c-3.158,3.335-2.667,5.472,0.443,3.557c3.112-1.912,10.896-6.537,15.787-8.224c4.892-1.69,9.786-2.801,16.588-2.801   c6.802,0,13.251,1.419,19.521,3.777c6.27,2.358,15.031,8.227,17.034,9.514c2,1.293,2.752,2.225,3.156,2.182   c0.397-0.045-0.938-3.514-4.983-6.803c-4.045-3.293-8.846-8.319-19.565-11.074S144.202,81.831,130.552,87.566z"
 id="path3250"
 style="stroke-width:2.00000008;stroke-miterlimit:4;stroke-dasharray:none" />
</g>
</svg>