<?xml version="1.0" encoding="UTF-8" standalone="no"?>
<!-- Generator: Adobe Illustrator 19.2.1, SVG Export Plug-In . SVG Version: 6.00 Build 0)  -->

<svg
   xmlns:dc="http://purl.org/dc/elements/1.1/"
   xmlns:cc="http://creativecommons.org/ns#"
   xmlns:rdf="http://www.w3.org/1999/02/22-rdf-syntax-ns#"
   xmlns:svg="http://www.w3.org/2000/svg"
   xmlns="http://www.w3.org/2000/svg"
   xmlns:sodipodi="http://sodipodi.sourceforge.net/DTD/sodipodi-0.dtd"
   xmlns:inkscape="http://www.inkscape.org/namespaces/inkscape"
   version="1.1"
   id="Layer_1"
   x="0px"
   y="0px"
   viewBox="0 0 177 141.11"
   enable-background="new 0 0 174.5521698 59.7096977"
   xml:space="preserve"
   sodipodi:docname="AUN.svg"
   width="177"
   height="141.11"
   inkscape:version="0.92.4 (5da689c313, 2019-01-14)"><title
   id="title838">Shield of Australian National University</title><metadata
   id="metadata1099"><rdf:RDF><cc:Work
       rdf:about=""><dc:format>image/svg+xml</dc:format><dc:type
         rdf:resource="http://purl.org/dc/dcmitype/StillImage" /><dc:title>Shield of Australian National University</dc:title></cc:Work></rdf:RDF></metadata><defs
   id="defs1097">
	
	
	
	
	
	
	
	
	
	
	
	
	
	
	
	
	
	
	
	
	
	
	
	
	
	
	
	
	
	
	
	
	
	
	
	
	
	
	
	
	
	
	
	
	
	
	
	
	
	
	
	
	
	
	
	
	
	
	
	
	
	
	
	
	
	
</defs><sodipodi:namedview
   pagecolor="#ffffff"
   bordercolor="#666666"
   borderopacity="1"
   objecttolerance="10"
   gridtolerance="10"
   guidetolerance="10"
   inkscape:pageopacity="0"
   inkscape:pageshadow="2"
   inkscape:window-width="1600"
   inkscape:window-height="837"
   id="namedview1095"
   showgrid="false"
   inkscape:zoom="1"
   inkscape:cx="68.952926"
   inkscape:cy="4.0696297"
   inkscape:window-x="-8"
   inkscape:window-y="-8"
   inkscape:window-maximized="1"
   inkscape:current-layer="Layer_1" />

<g
   id="g1434"
   transform="matrix(2.3710384,0,0,2.3710384,-1.0697293e-4,-0.46400882)"><path
     id="path1407"
     d="m 17.744141,0.19797934 c -0.116001,-0.0120239 -0.229407,0.0275268 -0.316407,0.10351563 -0.087,0.0759888 -0.139484,0.18286133 -0.146484,0.29882813 -0.003,0.0690307 -0.373047,7.1105959 -0.373047,16.1406249 0,9.39801 0.624638,14.430298 2.306641,18.572266 1.706997,4.205017 4.342559,6.280731 9.601562,9.345703 5.033001,2.930023 7.147736,3.328125 8.552735,3.328125 h 0.0059 c 1.405998,0 3.518729,-0.398102 8.552734,-3.328125 5.257995,-3.064972 7.894562,-5.140686 9.601563,-9.345703 1.681999,-4.141968 2.306641,-9.174256 2.306641,-18.572266 C 57.835937,7.7109181 57.465891,0.66935389 57.462891,0.6003231 57.456894,0.4843563 57.404406,0.37748377 57.316406,0.30149497 57.2294,0.22550617 57.112999,0.18595545 57,0.19797934 47.522995,1.0439266 41.505715,1.1686825 38.761719,1.1686825 c -0.913002,0 -1.371297,-0.012695 -1.404297,-0.013672 -0.005,9.77e-4 -0.463951,0.013672 -1.376953,0.013672 -2.742996,0 -8.759327,-0.1247559 -18.236328,-0.97070316 z"
     style="fill:#010005;fill-opacity:1"
     inkscape:connector-curvature="0" /><path
     id="path1405"
     d="m 18.109375,1.0846981 c 9.255997,0.8130494 15.158096,0.9375 17.871094,0.9375 0.911003,0 1.380859,-0.017578 1.380859,-0.017578 0.023,9.76e-4 0.489388,0.017578 1.400391,0.017578 2.713997,0 8.617043,-0.1244506 17.873047,-0.9375 0.07899,1.6740112 0.349609,7.9342661 0.349609,15.6562499 0,9.276001 -0.60714,14.222962 -2.244141,18.251954 -1.613999,3.974975 -4.154236,5.968719 -9.240234,8.929687 -4.886002,2.848022 -6.908005,3.212891 -8.125,3.212891 h -0.0059 c -1.214996,0 -3.238999,-0.364869 -8.125,-3.212891 -5.085999,-2.960968 -7.626233,-4.954712 -9.240235,-8.929687 -1.635998,-4.028993 -2.246094,-8.975953 -2.246094,-18.251954 0,-7.7199696 0.271563,-13.9822387 0.351563,-15.6562499 z"
     style="fill:#1271b1;fill-opacity:1"
     inkscape:connector-curvature="0" /><path
     id="path1403"
     d="m 45.90625,4.0761719 -0.654297,1.25 -1.306641,-0.546875 0.564454,1.2988281 -1.240235,0.671875 1.371094,0.3632812 -0.25,1.3925782 1.138672,-0.8535156 0.935547,1.0722656 L 46.5,7.2910156 47.925781,7.2402344 46.830078,6.3222656 47.677734,5.171875 46.292969,5.4511719 Z m -5.082031,3.640625 -0.837891,1.1308593 -1.208984,-0.7441406 0.357422,1.375 -1.330078,0.46875 1.294921,0.5722654 -0.460937,1.335938 1.255859,-0.666016 0.75586,1.205078 0.259765,-1.408203 1.416016,0.171875 -0.9375,-1.076172 1.015625,-1.0058591 -1.410156,0.058594 z m 10.02539,0.7128906 -0.716797,1.2089844 -1.279296,-0.6113281 0.498046,1.3281252 -1.271484,0.605469 1.347656,0.433593 -0.320312,1.378907 1.18164,-0.794922 0.875,1.11914 0.111329,-1.427734 1.427734,0.02539 -1.046875,-0.974609 0.90625,-1.1054686 -1.396484,0.2070312 z m -4.699218,2.6152345 -0.451172,1.257812 -1.351563,0.05274 1.074219,0.830078 -0.384766,1.291015 1.111329,-0.765624 1.11914,0.765624 -0.382812,-1.304687 1.070312,-0.816406 -1.345703,-0.0332 z m -2.298829,3.943359 -0.519531,1.310547 -1.357422,-0.40625 0.699219,1.234375 -1.164062,0.796875 1.40039,0.216797 -0.09961,1.412109 1.041015,-0.96875 1.041016,0.96875 -0.115234,-1.429687 1.414062,-0.199219 -1.183594,-0.796875 0.720704,-1.234375 -1.347657,0.423828 z"
     style="fill:#b3bbba;fill-opacity:1"
     inkscape:connector-curvature="0" /><path
     id="path1393"
     d="m 37.492188,18.934308 c -1.349999,0 -4.985596,1.890686 -10.558594,4.554687 -5.573002,2.666016 -7.476563,3.235413 -7.476563,4.400391 0,1.166992 1.369156,0.612305 1.785157,0.488281 0.415001,-0.123962 14.701027,-4.726562 16.207031,-4.726562 h 0.02539 c 1.506996,0 15.851578,4.6026 16.267579,4.726562 0.415999,0.124024 1.783203,0.678711 1.783203,-0.488281 0,-1.164978 -1.901612,-1.734375 -7.47461,-4.400391 -5.571999,-2.664001 -9.208596,-4.554687 -10.558593,-4.554687 z"
     style="fill:#efc037;fill-opacity:1"
     inkscape:connector-curvature="0" /><path
     id="path1391"
     d="m 37.326172,25.089844 c -0.980995,0 -7.378891,1.95166 -11.837891,3.347656 0.056,0.034 0.110966,0.06952 0.167969,0.105469 1.140999,0.720031 2.434094,1.537109 4.246094,1.537109 1.812001,0 3.104141,-0.817078 4.24414,-1.537109 1.048001,-0.661988 1.955559,-1.234375 3.226563,-1.234375 1.268997,0 2.172699,0.572387 3.220703,1.234375 1.140998,0.720031 2.434098,1.537109 4.246094,1.537109 1.811005,0 3.105094,-0.817078 4.246094,-1.537109 0.056,-0.03595 0.107109,-0.06756 0.162109,-0.101563 -1.010002,-0.315002 -8.178497,-2.459838 -8.1875,-2.464844 -1.852996,-0.523008 -3.28698,-0.886718 -3.708985,-0.886718 z m -14.892578,5.259765 c -1.030003,0 -1.890438,0.236389 -2.648438,0.566407 0.190998,0.841003 0.411065,1.632019 0.664063,2.375 0.604,-0.30304 1.230328,-0.507813 1.986328,-0.507813 1.269001,0 2.171703,0.571411 3.220703,1.232422 1.140998,0.71997 2.434094,1.537109 4.246094,1.537109 1.813,0 3.106093,-0.817139 4.246094,-1.537109 1.048,-0.661011 1.95166,-1.232422 3.222656,-1.232422 1.270004,0 2.175659,0.571411 3.222656,1.232422 1.140999,0.71997 2.43509,1.537109 4.246094,1.537109 1.811997,0 3.105087,-0.817139 4.246094,-1.537109 1.047997,-0.661011 1.951606,-1.232422 3.224609,-1.232422 0.754997,0 1.380371,0.204773 1.984375,0.507813 0.252998,-0.742981 0.471115,-1.532959 0.662109,-2.375 -0.757995,-0.330994 -1.616439,-0.566407 -2.648437,-0.566407 -1.973007,0 -3.327485,0.855347 -4.521485,1.611329 -0.986,0.621031 -1.839263,1.160156 -2.947265,1.160156 -1.108002,0 -1.959313,-0.539124 -2.945313,-1.160156 -1.195,-0.755981 -2.549392,-1.611329 -4.52539,-1.611329 -1.973,0 -3.324533,0.855347 -4.519532,1.611329 -0.986,0.621031 -1.838263,1.160156 -2.947265,1.160156 -1.106998,0 -1.960266,-0.539124 -2.947266,-1.160156 -1.194999,-0.755981 -2.546486,-1.611329 -4.521484,-1.611329 z m 0,5.47461 c -0.304001,0 -0.58828,0.02551 -0.863282,0.06055 0.508003,0.929993 1.101639,1.738281 1.806641,2.486328 0.815998,0.196961 1.509296,0.633178 2.279297,1.11914 1.140998,0.720031 2.434094,1.53711 4.246094,1.53711 1.813,0 3.106093,-0.817079 4.246094,-1.53711 1.048,-0.661988 1.95166,-1.23242 3.222656,-1.232422 1.270004,0 2.175659,0.570434 3.222656,1.232422 1.140999,0.720031 2.43509,1.53711 4.246094,1.53711 1.811997,0 3.105087,-0.817079 4.246094,-1.53711 0.768998,-0.485962 1.463294,-0.922179 2.279296,-1.11914 0.704994,-0.748047 1.299591,-1.555359 1.808594,-2.484375 -0.276001,-0.03601 -0.56124,-0.0625 -0.865234,-0.0625 -1.973007,0 -3.327485,0.853333 -4.521485,1.609375 -0.986,0.622986 -1.839263,1.160156 -2.947265,1.160156 -1.108002,0 -1.959313,-0.53717 -2.945313,-1.160156 -1.195,-0.756042 -2.549392,-1.609375 -4.52539,-1.609375 -1.973,0 -3.324533,0.853333 -4.519532,1.609375 -0.986,0.622986 -1.838263,1.160156 -2.947265,1.160156 -1.106998,0 -1.960266,-0.53717 -2.947266,-1.160156 -1.194999,-0.756042 -2.546486,-1.609375 -4.521484,-1.609375 z m 14.935547,5.474609 c -1.203003,0 -2.087411,0.614044 -2.941407,1.207031 -0.814999,0.565979 -1.655265,1.142184 -2.947265,1.408203 1.251999,0.661989 2.250594,1.107271 3.058593,1.40625 0.482003,-0.273986 0.904389,-0.559418 1.275391,-0.816406 0.711998,-0.494019 1.13459,-0.773437 1.558594,-0.773437 0.630996,0 1.143134,0.325378 1.994141,0.90039 0.297997,0.200989 0.623276,0.418763 0.988281,0.634766 0.791001,-0.302002 1.758126,-0.743927 2.953125,-1.376953 -1.050995,-0.252991 -1.805039,-0.751374 -2.582032,-1.275391 -0.957999,-0.645966 -1.949424,-1.314453 -3.357421,-1.314453 z"
     style="fill:#b3bbba;fill-opacity:1"
     inkscape:connector-curvature="0" /><path
     inkscape:connector-curvature="0"
     id="path1389"
     d="m 63.210938,28.305402 c -0.53125,-0.01913 -1.082722,0.08591 -1.636719,0.316406 -2.048004,0.85199 -3.69574,3.171203 -4.052735,4.449218 -0.591003,2.124024 0.409485,2.801209 0.521485,2.867188 l 2.242187,1.392578 -2.486328,5.910156 c -2.599999,0.889984 -5.355407,2.093323 -8.066406,3.277344 -3.743003,1.63498 -7.280358,3.182007 -10.19336,3.832031 l -0.238281,0.05469 c -0.300003,0.069 -0.641624,0.148896 -1.140625,0.212891 -0.444,0.05402 -0.68412,0.06641 -0.828125,0.06641 H 37.3125 c -0.096,10e-4 -0.314271,-0.0034 -0.822266,-0.06641 -0.499001,-0.06399 -0.840629,-0.144837 -1.140625,-0.214844 L 35.113281,50.35033 C 32.199283,49.700299 28.660969,48.153271 24.917969,46.518292 22.20697,45.334271 19.450561,44.130933 16.851562,43.240948 l -2.486328,-5.908203 2.242188,-1.394531 0.0625,-0.04687 c 0.048,-0.04401 1.159408,-1.099182 0.441406,-2.867187 -0.568001,-1.395997 -2.351047,-3.794923 -4.373047,-4.503907 -0.993,-0.348023 -1.941311,-0.275207 -2.8203122,0.216797 l -0.34375,0.189453 c -1.1170007,0.617 -3.1945801,1.765681 -4.0175782,2.55273 -0.4520035,0.431945 -0.8334961,0.975342 -1.0625,1.484375 -0.007,0.01099 -0.014487,0.02418 -0.021484,0.03516 l 0.00586,0.002 c -0.039002,0.09003 -0.084328,0.182556 -0.1113281,0.267578 -0.5790024,1.784973 0.7566834,4.473878 2.3046875,7.587891 0.2160034,0.432984 0.4362488,0.884978 0.65625,1.333984 -0.8290024,0.22998 -1.6426239,0.575684 -2.640625,1.054688 -2.0920029,1.003998 -4.539505,3.411499 -4.5625,3.4375 -0.1399994,0.138 -0.1644974,0.352477 -0.0625,0.521484 0.0130005,0.02002 1.2517624,2.069397 1.6347656,3.484375 0.3899994,1.45102 0.2939529,3.731537 0.2519532,4.435547 -0.014999,0.08899 -0.01767,0.173858 -0.013672,0.255859 h -0.00195 c 0,0.005 0.00195,0.0096 0.00195,0.01563 0,0.004 -0.00195,0.0087 -0.00195,0.01367 0,0.005 0.00291,0.0077 0.00391,0.01172 0.025002,0.890015 0.804512,1.761842 2.1035156,2.339844 0.8610001,0.382996 1.9210968,0.625 2.9960938,0.625 1.3220024,0 2.6654057,-0.36612 3.6914068,-1.28711 0.0015,-0.0013 0.0059,-0.0042 0.0059,-0.0059 0,0 0.002,0 0.002,0 0.006,-0.005 0.01344,-0.01049 0.02344,-0.02148 0.234001,-0.209991 2.559826,-2.270599 6.048828,-4.058593 0.337998,0.156005 0.681156,0.319091 1.035156,0.496093 l 0.164062,0.08008 c 1.354,0.644013 6.133671,2.863555 10.763672,4.435547 4.362999,1.483001 7.496286,1.665558 8.363282,1.685546 h 0.380859 0.0098 c 0.857002,-0.01999 3.991515,-0.202545 8.353515,-1.685546 4.631004,-1.571991 9.409676,-3.791534 10.763672,-4.435547 l 0.164063,-0.08008 c 0.353005,-0.177002 0.697151,-0.340087 1.035156,-0.496093 3.488998,1.787995 5.816833,3.850586 6.048828,4.058593 0.011,0.01102 0.01745,0.01647 0.02344,0.02148 0,0 0.002,0 0.002,0 8.39e-4,0.0017 0.004,0.0045 0.0059,0.0059 1.025993,0.92099 2.369408,1.28711 3.691406,1.28711 1.075005,0 2.136094,-0.242004 2.996094,-0.625 1.298996,-0.578003 2.079521,-1.449829 2.103516,-2.339844 9.99e-4,-0.004 0.0039,-0.0067 0.0039,-0.01172 v -0.01367 c 0,-0.006 0,-0.01063 0,-0.01563 h -0.002 c 0.004,-0.082 0.0013,-0.16687 -0.01367,-0.255859 -0.042,-0.70401 -0.139045,-2.985534 0.251953,-4.435547 0.382996,-1.415985 1.622772,-3.464356 1.634766,-3.484375 0.103004,-0.169007 0.0775,-0.383483 -0.0625,-0.521484 -0.024,-0.026 -2.47055,-2.433502 -4.560547,-3.4375 -1,-0.479004 -1.814575,-0.824707 -2.642578,-1.054688 0.220001,-0.449005 0.442245,-0.898986 0.65625,-1.333984 1.547996,-3.113037 2.882683,-5.802918 2.304687,-7.587891 -0.028,-0.08704 -0.07138,-0.177552 -0.109375,-0.267578 l 0.0039,-0.002 c -0.006,-0.01099 -0.01448,-0.02418 -0.02148,-0.03516 -0.228996,-0.509033 -0.611504,-1.052429 -1.0625,-1.484375 -0.823998,-0.787048 -2.900582,-1.935731 -4.017578,-2.552735 l -0.34375,-0.189453 c -0.478001,-0.268005 -0.990235,-0.412514 -1.521484,-0.43164 z"
     style="fill:#01000f;fill-opacity:0.94117647" /><path
     id="path1387"
     d="m 63.162108,29.155011 c 0.403375,0.01188 0.788296,0.119233 1.154297,0.324219 l 0.347656,0.193359 c 0.900003,0.49701 2.662598,1.470643 3.558594,2.181641 -0.394996,-0.01703 -0.842743,0.05091 -1.34375,0.253906 -2.414994,0.97699 -4.564453,3.737548 -4.564453,5.228516 0,0.099 0.01253,0.179565 0.01953,0.267578 L 58.5,35.221417 c -0.005,-0.003 -0.572251,-0.431884 -0.15625,-1.921875 0.309997,-1.111999 1.849595,-3.180542 3.558594,-3.892578 0.434502,-0.180481 0.856391,-0.263832 1.259764,-0.251953 z"
     style="fill:#1271b1;fill-opacity:1"
     inkscape:connector-curvature="0" /><path
     id="path1385"
     d="m 11.359374,29.160911 c 0.3525,-0.02575 0.716156,0.02863 1.097656,0.16211 1.838002,0.64502 3.424233,2.9375 3.865235,4.021484 0.446999,1.098999 -0.08898,1.768433 -0.208985,1.898438 l -3.798828,2.363281 c 0.009,-0.08899 0.02149,-0.170533 0.02149,-0.269531 0,-1.490967 -2.151405,-4.251526 -4.5664068,-5.228516 -0.5,-0.203002 -0.9467925,-0.270935 -1.3417968,-0.253906 0.8950043,-0.708984 2.6576424,-1.684632 3.5566406,-2.181641 l 0.347656,-0.193359 c 0.3335,-0.186493 0.674844,-0.292611 1.027344,-0.31836 z"
     style="fill:#1271b1;fill-opacity:1"
     inkscape:connector-curvature="0" /><path
     id="path1381"
     d="m 68.111327,32.698021 c 0.779533,-0.0035 1.175517,0.490066 1.291016,0.664062 0.023,0.05603 0.05427,0.116943 0.07227,0.169922 0.472001,1.45398 -0.793815,3.999329 -2.257812,6.945312 -0.246002,0.497986 -0.499001,1.00647 -0.75,1.523438 -0.587006,-0.10199 -1.207589,-0.154297 -1.933594,-0.154297 -1.696,0 -3.622062,0.407929 -5.664062,1.044922 l 2.148437,-5.103516 2.03125,1.261719 c 0,0 9.53e-4,8.83e-4 0.002,0.0039 l 0.0098,0.0059 c 0.003,0.001 0.0058,9.53e-4 0.0078,0.002 0.079,0.05005 0.141106,0.07696 0.16211,0.08398 0.197998,0.07697 0.42672,0.104431 0.511719,0.107422 1.194,0.06299 2.129349,-0.970275 2.402343,-1.947265 0.164002,-0.588013 0.03939,-1.088501 0.02539,-1.144532 l -0.04297,-0.166015 -1.695312,-1.029297 c 0.728005,-0.835999 1.705582,-1.63733 2.767578,-2.06836 0.349001,-0.141998 0.652265,-0.198065 0.912109,-0.199218 z"
     style="fill:#ffffff"
     inkscape:connector-curvature="0" /><path
     id="path1379"
     d="m 6.5390615,32.700021 c 0.2599686,9.33e-4 0.5628586,0.05603 0.9121094,0.197265 1.0620003,0.43103 2.0415313,1.232361 2.7695311,2.06836 l -1.6972655,1.029297 -0.042969,0.166015 c -0.014999,0.05603 -0.1366535,0.556518 0.027344,1.144532 0.2719994,0.97699 1.2133909,2.009277 2.4003905,1.947265 0.088,-0.004 0.334343,-0.03326 0.527344,-0.113281 0.021,-0.007 0.05461,-0.02581 0.09961,-0.05078 0.012,-0.006 0.02516,-0.01154 0.03516,-0.01758 l 2.0625,-1.283203 2.148438,5.103516 c -2.042,-0.636993 -3.967064,-1.044922 -5.664062,-1.044922 -0.7259977,0 -1.3465963,0.05231 -1.9335942,0.154297 -0.2500036,-0.516965 -0.5029984,-1.027466 -0.75,-1.523438 C 5.9695933,37.53138 4.7057383,34.986032 5.1777384,33.532052 5.1947444,33.479072 5.2240554,33.419136 5.2480504,33.36213 5.362806,33.188867 5.7591601,32.69722 6.539066,32.700021 Z"
     style="fill:#ffffff"
     inkscape:connector-curvature="0" /><path
     id="path1377"
     d="m 10.75,35.641339 c 0.459,0.65802 0.732422,1.280334 0.732422,1.695313 0,0.708007 -0.255078,0.938231 -0.330078,0.992187 l -0.0332,0.02148 c -0.04,0.02002 -0.173188,0.04974 -0.242188,0.05273 -0.814999,0.026 -1.3917807,-0.759216 -1.5507811,-1.326172 C 9.2671739,36.861859 9.269249,36.662945 9.28125,36.531964 Z"
     style="fill:#ffffff"
     inkscape:connector-curvature="0" /><path
     id="path1375"
     d="m 63.900391,35.641339 1.46875,0.890625 c 0.013,0.130981 0.01309,0.329896 -0.04492,0.544922 -0.158997,0.567994 -0.756782,1.354187 -1.550781,1.326172 -0.069,-0.003 -0.196236,-0.03369 -0.240235,-0.05469 -0.035,-0.01904 -0.367187,-0.209716 -0.367187,-1.011718 0,-0.414978 0.274376,-1.037293 0.734375,-1.695313 z"
     style="fill:#ffffff"
     inkscape:connector-curvature="0" /><path
     inkscape:connector-curvature="0"
     id="path1369"
     d="m 10.117188,42.69603 c 3.931998,0 9.284939,2.33859 14.460937,4.59961 3.782002,1.65399 7.354607,3.21481 10.349609,3.88281 l 0.226563,0.0527 c 0.320003,0.076 0.684516,0.16147 1.228515,0.23047 0.513,0.064 0.792702,0.0762 0.970704,0.0762 0.122001,0 0.401061,-0.0121 0.914062,-0.0762 0.543998,-0.069 0.907517,-0.15448 1.228516,-0.23047 l 0.226562,-0.0527 c 2.994003,-0.668 6.566613,-2.22882 10.34961,-3.88281 5.175003,-2.26102 10.528938,-4.59961 14.460937,-4.59961 1.999001,0 3.129501,0.38839 5.0625,1.3164 1.572998,0.75501 3.44085,2.43589 4.089844,3.04688 -0.370994,0.642 -1.227693,2.19427 -1.554688,3.40625 -0.243004,0.901 -0.313308,2.07483 -0.320312,3.04883 -1.355995,-1.54703 -4.162903,-3.21094 -8.003906,-3.21094 -1.613998,0 -4.16591,0.84534 -7.378907,2.44336 l -0.15039,0.0723 c -1.344002,0.638 -6.085876,2.84143 -10.671875,4.39844 -4.346001,1.47799 -7.493752,1.62561 -8.09375,1.64062 H 37.3125 37.3066 37.146443 c -0.589005,-0.013 -3.743564,-0.15961 -8.101562,-1.64062 -4.586002,-1.55701 -9.327877,-3.76044 -10.671875,-4.39844 l -0.150391,-0.0723 c -3.212998,-1.59802 -5.762954,-2.44336 -7.376953,-2.44336 -3.8409989,0 -6.6489027,1.66391 -8.0039061,3.21094 -0.008,-0.974 -0.079262,-2.14881 -0.3222657,-3.04883 C 2.1925277,49.25358 1.335846,47.70131 0.96484375,47.05931 1.6148453,46.44831 3.4806823,44.76744 5.0546875,44.01243 c 1.9329987,-0.92801 3.0634999,-1.3164 5.0625005,-1.3164 z"
     style="fill:#ffffff" /><path
     id="path1367"
     d="m 63.839844,45.283203 c -0.131004,-0.01 -0.208718,-0.01441 -0.261719,0.01563 l 0.02539,0.189453 c 0.175003,0.01898 0.218276,0.03366 0.238281,0.05664 0.007,0.01901 0.01373,0.08426 0.01172,0.28125 l -0.04297,1.685547 c -0.006,0.100006 -0.01288,0.17636 -0.04687,0.27539 -0.007,0.002 -0.04619,0.01 -0.242188,0.04297 l 0.02734,0.199219 c 0.09,-0.003 0.183251,-0.0039 0.28125,-0.0039 h 0.191406 c 0.190995,0.007 0.379655,0.01411 0.597657,-0.002 l -0.02344,-0.199219 c -0.043,-0.003 -0.159424,-0.0089 -0.232422,-0.04687 -0.004,-0.013 -0.0087,-0.0458 -0.01172,-0.132813 -9.97e-4,-0.03598 -0.002,-0.185181 0,-0.451172 0.002,-0.216003 0.0058,-0.420257 0.0098,-0.613281 0.002,-0.121978 0.01139,-0.3645 0.02539,-0.728516 0.007,-0.16098 0.01218,-0.265198 -0.0078,-0.283203 0.04501,-0.009 0.08139,-0.01166 0.150391,-0.01367 0.114998,0.003 0.193374,0.0152 0.234375,0.0332 0.064,0.03 0.117149,0.08225 0.160156,0.15625 0.043,0.074 0.06355,0.168243 0.06055,0.28125 -0.002,0.109985 -0.02527,0.21466 -0.07227,0.304687 -0.044,0.08698 -0.09915,0.147675 -0.160156,0.179688 -0.049,0.026 -0.120941,0.03906 -0.210937,0.03906 l -0.101563,0.01758 -0.0098,0.09766 c 0.029,0.02701 0.0608,0.06711 0.0918,0.121094 0.06699,0.113006 0.14814,0.267853 0.244141,0.464844 l 0.335937,0.6875 c 0.01801,0.04303 0.02946,0.07889 0.06445,0.128906 l 0.164062,-0.002 h 0.09766 c 0.074,10e-4 0.195282,0.0066 0.363282,0.01563 l 0.03125,0.0039 v -0.0332 l -0.02344,-0.201172 c -0.063,-0.003 -0.08677,-0.01169 -0.134766,-0.05469 -0.019,-0.02197 -0.06653,-0.09958 -0.144531,-0.226563 l -0.365234,-0.679687 c -0.007,-0.013 -0.02655,-0.05036 -0.06055,-0.111328 -0.031,-0.05801 -0.06062,-0.111787 -0.09961,-0.132813 -0.002,-9.77e-4 -0.0029,-0.0039 -0.0039,-0.0059 0.177002,-0.073 0.31144,-0.173738 0.398438,-0.302734 0.088,-0.130005 0.13472,-0.277467 0.136719,-0.439454 0.004,-0.136993 -0.02494,-0.255523 -0.08594,-0.353515 -0.062,-0.099 -0.138511,-0.164215 -0.228515,-0.199219 -0.09,-0.03101 -0.221535,-0.04971 -0.394532,-0.05273 h -0.09961 c -0.069,0 -0.150229,8.89e-4 -0.240235,0.0039 -0.046,0.002 -0.0973,0.002 -0.154296,0.002 h -0.138672 c -0.133995,-0.003 -0.237755,-0.0077 -0.34375,-0.01367 z m -0.863282,0.05078 c -0.121,0.01001 -0.200233,0.01844 -0.240234,0.02344 l -0.328125,0.04883 c -0.182,0.026 -0.347091,0.04745 -0.496094,0.06445 l -0.61914,0.109375 0.04883,0.175781 c 0.143997,-0.009 0.207283,-0.0054 0.238281,0.01563 0.01,0.018 0.02678,0.07794 0.05078,0.251954 l 0.154297,1.234374 c 0.012,0.099 0.02692,0.258454 0.04492,0.480469 0.01,0.118988 0.01448,0.206238 0.02148,0.240235 -0.035,0.04102 -0.08034,0.08334 -0.152343,0.152343 l 0.01563,0.134766 0.169922,-0.02539 c 0.246002,-0.03699 0.381347,-0.05459 0.402343,-0.05859 0.098,-0.01001 0.277154,-0.02963 0.535157,-0.05664 l 0.263672,-0.02539 c 0.129997,-0.01501 0.230827,-0.03281 0.298828,-0.04883 l 0.04102,-0.06055 c -0.019,-0.156982 -0.03331,-0.358063 -0.07031,-0.623046 v -0.0039 c -0.001,-0.01202 -0.0029,-0.01831 -0.0039,-0.0293 l -0.160156,0.04687 c -0.002,0.169983 -0.0054,0.287079 -0.02539,0.371094 -0.008,0.006 -0.03806,0.02475 -0.164063,0.05273 -0.097,0.021 -0.205314,0.0368 -0.320312,0.05078 -0.120003,0.01502 -0.224251,0.02182 -0.28125,0.04883 -0.01099,-0.06299 -0.0222,-0.139497 -0.0332,-0.228516 L 62.248047,46.90625 c 0.067,-0.01801 0.152808,-0.03091 0.257812,-0.04492 0.088,-0.01 0.163522,-0.01367 0.228516,-0.01367 l 0.113281,0.02539 c 0.01,0.01501 0.03094,0.07016 0.08594,0.285156 l 0.160156,-0.05078 -0.134766,-0.867188 -0.160156,0.04883 c 0.011,0.110994 0.0131,0.191681 -0.002,0.263672 -0.002,10e-4 -0.01694,0.0086 -0.08594,0.01758 -0.153999,0.02298 -0.242577,0.03803 -0.267579,0.04102 -0.07899,0.01001 -0.155265,0.01492 -0.197265,0.04492 l -0.04687,-0.396484 c -0.028,-0.223022 -0.04431,-0.406433 -0.07031,-0.523438 0.099,-0.021 0.195969,-0.03684 0.292969,-0.04883 0.093,-0.01102 0.180458,-0.0206 0.314453,-0.01758 0.097,0.002 0.115906,0.01127 0.128906,0.03125 0.008,0.022 0.02207,0.08588 0.08008,0.296875 l 0.152344,-0.04687 -0.01758,-0.556641 -0.03516,-0.04687 -0.06445,-0.01367 z m 3.089844,0.03711 -0.01563,0.189453 0.210938,0.107422 c 0.004,0.01703 0.0051,0.05124 -0.0059,0.115234 -0.02499,0.140992 -0.05766,0.299561 -0.09766,0.476563 l -0.191406,0.839843 c -0.04501,0.199982 -0.06921,0.323151 -0.07422,0.369141 -0.009,0.078 -0.0053,0.161011 0.01172,0.25 0.017,0.09 0.05247,0.177827 0.105469,0.257812 0.053,0.082 0.129562,0.153778 0.226562,0.216797 0.131004,0.08398 0.282265,0.146606 0.447266,0.183594 0.103004,0.02402 0.200975,0.0332 0.292968,0.0332 0.03201,0 0.0637,-8.88e-4 0.0957,-0.0039 0.117005,-0.01199 0.225311,-0.04566 0.320312,-0.09766 0.096,-0.05398 0.176277,-0.122193 0.238281,-0.201172 0.063,-0.07501 0.116203,-0.174896 0.158203,-0.296875 0.042,-0.118011 0.07656,-0.236634 0.101563,-0.349609 l 0.09961,-0.441407 c 0.03,-0.130005 0.07286,-0.308228 0.13086,-0.53125 0.072,-0.276978 0.09647,-0.355073 0.105468,-0.371093 l -0.02539,-0.01367 0.08984,-0.02734 c 0.032,0 0.07973,0.0071 0.177734,-0.0039 l 0.0098,-0.191407 -0.400391,-0.07617 c -0.036,-0.007 -0.149955,-0.03936 -0.376953,-0.06836 l -0.01367,0.19336 c 0.144996,0.03699 0.194565,0.06619 0.226562,0.117187 0.004,0.021 -0.002,0.08923 -0.04102,0.28125 -0.015,0.07397 -0.06076,0.274476 -0.134766,0.605469 l -0.08789,0.384765 c -0.059,0.261993 -0.116821,0.437531 -0.173829,0.519532 -0.05399,0.08301 -0.129608,0.145659 -0.224609,0.18164 -0.096,0.03799 -0.216415,0.03883 -0.357422,0.0078 -0.125999,-0.02899 -0.222015,-0.07086 -0.291015,-0.13086 -0.07,-0.05899 -0.114723,-0.127136 -0.136719,-0.203125 -0.024,-0.07599 -0.02772,-0.174072 -0.01172,-0.289062 0.007,-0.05499 0.03784,-0.196808 0.08984,-0.425781 l 0.144531,-0.65625 c 0.058,-0.263001 0.104714,-0.431855 0.136719,-0.50586 l 0.08203,-0.04883 c 0.038,0 0.08936,0.007 0.193359,-0.002 l 0.03516,-0.15625 -0.05273,-0.04102 z M 10,45.388672 c -0.049,0.013 -0.097485,0.02426 -0.1464844,0.03125 -0.091999,0.01501 -0.2738724,0.0383 -0.546875,0.07031 l -0.6582031,0.07617 c -0.2660026,0.03101 -0.444107,0.05063 -0.5371094,0.05664 -0.057999,0.005 -0.1111109,0.0078 -0.1621093,0.0078 l -0.042969,0.05859 c 0.015999,0.06299 0.027111,0.120789 0.037109,0.175781 0.005,0.03299 0.025753,0.180817 0.09375,0.466797 L 8.1992182,46.28318 C 8.1892173,46.17321 8.183502,46.075379 8.1875,45.984375 l 0.048828,-0.0625 c 0.087002,-0.01901 0.1886864,-0.03482 0.3046875,-0.04883 l 0.2011719,-0.05273 c 0.007,0.03601 0.027454,0.21048 0.064453,0.521485 l 0.1347656,1.148437 c 0.040001,0.339997 0.043061,0.456177 0.039063,0.492188 -0.003,0.02899 -0.011342,0.05051 -0.027344,0.0625 -0.008,0.007 -0.047234,0.02493 -0.2402344,0.08594 l 0.023437,0.189453 0.029297,-0.0059 c 0.1989975,-0.03601 0.376297,-0.06107 0.5292969,-0.08008 0.1439972,-0.017 0.3215484,-0.03211 0.5605469,-0.07813 l -0.050781,-0.185547 c -0.1479988,0.013 -0.2147026,0.003 -0.2207031,0 -0.019001,-0.01 -0.03397,-0.02578 -0.042969,-0.05078 -0.012001,-0.03598 -0.034218,-0.152192 -0.074219,-0.492188 l -0.1347651,-1.14449 c -0.035999,-0.306 -0.054984,-0.481138 -0.083984,-0.494141 l 0.2324219,-0.02734 c 0.1229972,-0.01401 0.2315177,-0.02243 0.3535156,-0.02344 0,0 0.00648,0.01334 0.021484,0.06836 0.021999,0.08697 0.04089,0.177734 0.087891,0.302734 L 10.105469,46.0625 c -0.027,-0.264984 -0.04197,-0.404876 -0.04297,-0.421875 -0.004,-0.05899 -0.0059,-0.126099 -0.0059,-0.205078 z m 0.257812,0.0039 0.01172,0.191406 0.22461,0.07813 c 0.005,0.01599 0.01072,0.04828 0.0098,0.113282 -0.008,0.144012 -0.0182,0.306336 -0.0332,0.486328 l -0.07422,0.857422 c -0.017,0.205994 -0.02544,0.330902 -0.02344,0.378906 0,0.077 0.01592,0.155182 0.04492,0.242187 0.029,0.08798 0.07567,0.170166 0.138672,0.242188 0.063,0.07397 0.15086,0.136536 0.255859,0.185547 0.143002,0.06598 0.299797,0.10614 0.466797,0.11914 0.045,0.005 0.08886,0.0078 0.130859,0.0078 0.093,0 0.179814,-0.0113 0.257813,-0.0293 0.115002,-0.02899 0.21669,-0.07559 0.304687,-0.142578 0.086,-0.065 0.156987,-0.142517 0.208985,-0.228516 0.052,-0.086 0.09219,-0.193359 0.117187,-0.318359 0.025,-0.123016 0.04078,-0.243378 0.05078,-0.359375 l 0.03906,-0.453125 c 0.012,-0.134003 0.03159,-0.314941 0.05859,-0.544922 0.035,-0.294006 0.04911,-0.362976 0.07813,-0.417969 0.007,-0.004 0.02784,-0.01367 0.08984,-0.01367 0.025,-0.002 0.05414,6e-4 0.119141,-0.02539 l -0.01563,-0.191407 -0.408203,-0.01953 c -0.037,-0.005 -0.152813,-0.02857 -0.382813,-0.01758 l 0.01367,0.193359 c 0.142998,0.01599 0.197236,0.03699 0.240235,0.08398 0.005,0.022 0.0101,0.0911 -0.002,0.287109 -0.006,0.074 -0.02374,0.279175 -0.05274,0.617188 l -0.0332,0.392578 c -0.023,0.266998 -0.05556,0.450012 -0.101562,0.541016 -0.042,0.08801 -0.110222,0.15802 -0.199219,0.207031 -0.09,0.051 -0.209564,0.06863 -0.351563,0.05664 -0.126999,-0.009 -0.230589,-0.04086 -0.308594,-0.08984 -0.075,-0.04901 -0.130062,-0.108643 -0.164062,-0.181641 -0.032,-0.074 -0.04787,-0.169159 -0.04687,-0.285156 0,-0.05499 0.0093,-0.201569 0.0293,-0.433594 L 11.005859,46.25 c 0.024,-0.265991 0.0438,-0.44046 0.0918,-0.564453 0.01,-0.007 0.04028,-0.01758 0.113282,-0.01758 0.028,-9.77e-4 0.05991,5.44e-4 0.128906,-0.02344 l -0.01563,-0.191406 z m 2.78711,0.28711 -0.02148,0.191406 c 0.166998,0.05502 0.204748,0.08136 0.21875,0.109375 0.002,0.01599 -0.0047,0.0744 -0.05274,0.27539 l -0.425781,1.632813 c -0.028,0.095 -0.05033,0.167846 -0.111328,0.255859 -0.021,0 -0.07223,-0.0067 -0.240235,-0.01367 l -0.01953,0.201172 c 0.142998,0.02802 0.295937,0.06345 0.460938,0.105469 0.185001,0.047 0.366985,0.101751 0.583984,0.134766 l 0.02148,-0.201172 c -0.099,-0.02799 -0.156891,-0.04862 -0.21289,-0.09961 -0.002,-0.01099 -0.0034,-0.04187 0.01563,-0.130859 0.007,-0.03302 0.04152,-0.179505 0.103515,-0.4375 0.051,-0.210999 0.100439,-0.411682 0.148438,-0.597656 0.031,-0.118012 0.09441,-0.351196 0.191406,-0.701172 0.043,-0.157013 0.07164,-0.257263 0.05664,-0.28125 0.048,0.003 0.09844,0.0094 0.148437,0.02344 0.110001,0.02899 0.185703,0.05698 0.220703,0.08398 0.056,0.043 0.0961,0.107452 0.121094,0.189453 0.025,0.082 0.02308,0.180053 -0.0039,0.289062 -0.028,0.106994 -0.07563,0.201355 -0.140625,0.277344 -0.064,0.07501 -0.128312,0.121612 -0.195313,0.140625 -0.069,0.01801 -0.148357,0.0013 -0.318359,-0.01367 l -0.0332,0.08789 c 0.023,0.034 0.0445,0.07962 0.0625,0.140625 0.04,0.123993 0.08381,0.293823 0.132812,0.507812 l 0.169922,0.748047 c 0.008,0.04498 0.01216,0.08169 0.03516,0.138672 0.084,0.01801 0.166954,0.03659 0.251953,0.05859 0.064,0.017 0.168735,0.044 0.302734,0.08398 v 0.0078 l 0.744141,0.246093 0.03906,-0.189453 c -0.154999,-0.065 -0.188358,-0.09448 -0.193359,-0.146484 0.01,-0.026 0.05145,-0.09445 0.189453,-0.273437 l 0.113281,-0.181641 0.771485,0.267578 -0.01563,0.445313 c -0.002,0.091 -0.01106,0.132843 -0.03906,0.173828 -0.013,0 -0.05723,-0.0062 -0.240234,-0.0332 l -0.03711,0.1875 0.541016,0.1875 0.453125,0.185547 0.05078,-0.216797 -0.06445,-0.03516 c -0.061,-0.02899 -0.07417,-0.03903 -0.07617,-0.04102 l -0.02148,0.02344 -0.0059,-0.0918 0.002,-0.189453 -0.0059,-2.457031 -0.251953,-0.07031 -1.123047,1.373047 c -0.159,0.19101 -0.266311,0.320771 -0.320312,0.384766 -0.117001,0.136993 -0.186032,0.214325 -0.207032,0.236328 l 0.02344,0.01953 -0.105469,0.02148 c -0.004,0 -0.02819,-0.0017 -0.117187,-0.0098 l 0.0039,-0.0332 c -0.06,-0.017 -0.08019,-0.02996 -0.117188,-0.08398 -0.013,-0.026 -0.04089,-0.110962 -0.08789,-0.251954 L 14.216775,47.58783 c -0.003,-0.01401 -0.0142,-0.05505 -0.0332,-0.123047 -0.019,-0.06302 -0.03436,-0.122376 -0.06836,-0.150391 v -0.0078 c 0.188004,-0.03101 0.340082,-0.100098 0.455078,-0.205079 0.115003,-0.108001 0.193374,-0.240478 0.234376,-0.396484 0.033,-0.132019 0.03218,-0.254272 -0.0059,-0.363281 -0.036,-0.109009 -0.09673,-0.193085 -0.177734,-0.246094 -0.078,-0.051 -0.199093,-0.09659 -0.371094,-0.142578 -0.086,-0.022 -0.196075,-0.04526 -0.330078,-0.07227 -0.08,-0.01502 -0.176108,-0.0384 -0.28711,-0.06641 -0.129996,-0.034 -0.228595,-0.05899 -0.308593,-0.08398 -0.138001,-0.04199 -0.219295,-0.06677 -0.279297,-0.05078 z m 47.308594,0.08398 c -0.088,0 -0.201707,0.01772 -0.345704,0.05273 -0.08701,0.021 -0.196174,0.04983 -0.326171,0.08984 -0.077,0.02499 -0.173203,0.05307 -0.283203,0.08008 -0.130005,0.03198 -0.230737,0.05341 -0.302735,0.06641 -0.147004,0.03101 -0.2333,0.0488 -0.279297,0.0918 l 0.07227,0.177735 c 0.092,-0.01501 0.158135,-0.02283 0.24414,-0.0078 0.009,0.01498 0.03298,0.06858 0.08398,0.267578 l 0.396484,1.640625 c 0.02,0.09698 0.0324,0.172395 0.02539,0.275391 -0.016,0.01199 -0.0827,0.03549 -0.220703,0.105469 l 0.04687,0.197265 0.03125,-0.01172 c 0.139,-0.04199 0.290085,-0.08404 0.455078,-0.123046 0.185005,-0.04599 0.370125,-0.08817 0.578125,-0.160157 l -0.07617,-0.1875 c -0.09901,0.022 -0.161331,0.03462 -0.236328,0.01563 -0.008,-0.01001 -0.02287,-0.04001 -0.04687,-0.125 -0.01,-0.034 -0.04924,-0.178588 -0.115234,-0.433593 -0.055,-0.209992 -0.106347,-0.408662 -0.152344,-0.597657 -0.029,-0.118011 -0.08406,-0.354004 -0.164063,-0.708984 -0.035,-0.15802 -0.05703,-0.25943 -0.08203,-0.273438 0.04601,-0.01999 0.09553,-0.03583 0.144531,-0.04883 0.088,-0.02298 0.148422,-0.0293 0.232422,-0.0293 0.07,0.01001 0.136262,0.04844 0.197266,0.107421 0.061,0.061 0.105812,0.145844 0.132812,0.25586 0.026,0.111999 0.02882,0.213531 0.0078,0.310547 -0.021,0.09698 -0.05742,0.170776 -0.107422,0.216796 -0.053,0.04898 -0.141105,0.08468 -0.28711,0.138672 l 0.01172,0.0957 c 0.037,0.01801 0.08004,0.04978 0.123047,0.09375 0.094,0.091 0.213417,0.217773 0.357422,0.384765 l 0.501953,0.578125 c 0.035,0.043 0.0507,0.07443 0.0957,0.107422 0.083,-0.02499 0.166001,-0.04837 0.25,-0.06836 0.074,-0.01901 0.192911,-0.0462 0.378906,-0.117188 l -0.07422,-0.1875 c -0.04,0.009 -0.06317,0.0098 -0.07617,0.0098 l -0.02344,0.0293 -0.04492,-0.05859 c -0.023,-0.01599 -0.08827,-0.0767 -0.197265,-0.179688 -0.008,-0.008 -0.05739,-0.06021 -0.150391,-0.158203 L 60.75,47.273438 c -0.009,-0.01199 -0.03889,-0.04269 -0.08789,-0.0957 -0.04501,-0.04599 -0.08886,-0.0906 -0.130859,-0.09961 -10e-4,-9.77e-4 -0.0019,-0.0019 -0.0039,-0.0039 0.151001,-0.115997 0.254638,-0.250489 0.30664,-0.396485 0.05,-0.149994 0.05658,-0.305939 0.01758,-0.460937 -0.032,-0.134003 -0.09079,-0.240358 -0.175781,-0.318359 -0.08501,-0.08002 -0.177261,-0.124757 -0.322265,-0.134766 z m -53.5585941,0.169922 -0.2441407,0.0918 -0.1035156,2.273437 c -0.013,0.180023 -0.02039,0.284516 -0.025391,0.3125 l -0.041016,0.08398 c -0.005,0.004 -0.028206,0.01764 -0.1582032,0.09766 L 6.2773438,48.976562 7.0488281,48.71875 6.96875,48.542969 c -0.093998,0.02298 -0.1592331,0.03308 -0.2402344,-0.0039 -0.008,-0.02597 -0.017673,-0.104065 -0.013672,-0.330078 l -0.017578,-0.21289 0.7773438,-0.25 0.2539062,0.367187 c 0.052998,0.07501 0.070222,0.115052 0.074219,0.164063 -0.005,0.004 -0.03384,0.02323 -0.2148438,0.115234 l 0.083984,0.175781 1.0117188,-0.328125 -0.080078,-0.173828 -0.074219,0.0098 c -0.052002,0.01199 -0.083984,0.01367 -0.083984,0.01367 z m 61.9902341,0.04687 -0.05859,0.1875 c 0.05,0.02701 0.105111,0.06244 0.16211,0.105469 l 0.01953,-0.02539 0.0078,0.08398 c -0.003,0.02499 -0.02887,0.103119 -0.13086,0.328125 -0.082,0.18399 -0.180015,0.391907 -0.291015,0.628906 -0.125,0.264007 -0.215532,0.44864 -0.269532,0.556641 -0.110001,0.218995 -0.182701,0.359863 -0.220703,0.421875 -0.018,0.03198 -0.0305,0.04371 -0.0625,0.05469 -0.007,0 -0.04824,-0.0029 -0.240234,-0.04687 l -0.05273,0.189453 c 0.092,0.03302 0.21228,0.08625 0.363281,0.15625 0.114998,0.05499 0.226006,0.112213 0.375,0.158203 l 0.05664,-0.1875 c -0.122002,-0.06799 -0.154114,-0.09451 -0.162109,-0.103516 l -0.05469,-0.0293 0.03711,-0.05664 c 0.009,-0.02802 0.05749,-0.138947 0.146484,-0.335938 0.08901,-0.199006 0.168327,-0.369721 0.236328,-0.511718 l 0.181641,-0.457032 0.162109,-0.341797 -0.04883,1.048829 c -0.009,0.17099 -0.02582,0.42749 -0.04883,0.771484 -0.013,0.201996 -0.02263,0.359924 -0.01563,0.503906 l 0.134766,0.04297 c 0.063,-0.06299 0.148902,-0.143128 0.253906,-0.244141 0.175994,-0.165985 0.311295,-0.290954 0.404297,-0.376953 l 0.589844,-0.582031 0.417968,-0.375 L 70.109375,48.75 c -0.112999,0.243012 -0.18689,0.385834 -0.212891,0.423828 -0.031,0.04498 -0.05159,0.05175 -0.05859,0.05273 -0.013,0 -0.05719,-0.0097 -0.242188,-0.05664 l -0.05469,0.189453 0.96289,0.455078 0.07227,-0.214844 c -0.039,-0.02301 -0.157548,-0.08908 -0.185547,-0.162109 0.01,-0.03598 0.04447,-0.12735 0.105469,-0.277344 0.011,-0.02499 0.05209,-0.11374 0.121094,-0.261718 L 71.25,47.580078 c 0.044,-0.09302 0.07895,-0.123719 0.126953,-0.136719 0.036,0 0.09206,0.01968 0.164063,0.05469 l 0.04687,0.02344 0.06836,-0.216796 -0.449219,-0.197266 c -0.035,-0.01599 -0.115348,-0.06006 -0.277343,-0.123047 -0.07501,0.07999 -0.140366,0.144316 -0.19336,0.195313 -0.054,0.052 -0.197594,0.185272 -0.433594,0.404296 l -0.425781,0.390625 c -0.084,0.07901 -0.198364,0.192139 -0.318359,0.328125 -0.035,0.03101 -0.06742,0.06077 -0.107422,0.09375 l 0.09961,-2.085937 c -0.104996,-0.04102 -0.209549,-0.08386 -0.310547,-0.130859 -0.077,-0.03702 -0.21508,-0.108216 -0.455078,-0.199219 z M 5.2714844,46.419922 c -0.1489983,0.08301 -0.2721407,0.147308 -0.3691406,0.195312 -0.098999,0.04999 -0.20961,0.09842 -0.3496094,0.191407 l 0.1132812,0.160156 c 0.1349983,-0.065 0.2026101,-0.07214 0.2246094,-0.07813 0.004,0.002 0.020779,0.01061 0.050781,0.05859 0.064999,0.102997 0.2506867,0.467987 0.5546876,1.083984 l 0.1347656,0.201172 0.068359,0.140625 C 5.4862187,48.275064 5.2158127,48.138977 4.8828125,47.958984 4.3948135,47.694976 3.9738464,47.46106 3.5898438,47.248047 l -0.3417969,0.183594 c -0.058998,0.02899 -0.1509209,0.07004 -0.2949219,0.164062 l 0.1113281,0.160156 c 0.1359978,-0.05499 0.178936,-0.06534 0.2109375,-0.06836 l 0.037109,-0.02344 0.021484,0.0625 c 0.018002,0.02402 0.046891,0.07526 0.087891,0.15625 l 0.53125,1.056641 c 0.075001,0.152985 0.1347351,0.277985 0.1777344,0.375 0.074001,0.17099 0.1187668,0.281189 0.1347656,0.326172 l 0.029297,-0.0098 -0.025391,0.08789 c -0.006,0.008 -0.043358,0.03333 -0.1933593,0.152344 l 0.085937,0.175781 0.029297,-0.01563 c 0.1579972,-0.09 0.2848587,-0.15512 0.3808594,-0.203125 l 0.3339844,-0.193359 -0.070312,-0.138672 -0.041016,-0.01172 -0.027344,0.01367 c -0.028,0.01501 -0.076576,0.02972 -0.1425781,0.05273 l 0.00781,0.0293 -0.070312,-0.03711 C 4.549496,49.525921 4.51373,49.474411 4.4277314,49.314405 4.3257316,49.122443 4.2305755,48.936799 4.1425781,48.757812 L 3.8847656,48.304688 3.7128906,47.957031 c 0.968998,0.533997 1.7237663,0.937287 2.2597656,1.195313 0.092003,-0.02801 0.1824341,-0.05514 0.2734376,-0.07813 l 0.029297,-0.07031 C 6.1813888,48.845915 5.944359,48.377195 5.5683596,47.617186 c -0.049,-0.09799 -0.1217499,-0.251984 -0.21875,-0.458985 -0.095001,-0.204987 -0.151062,-0.340028 -0.1640625,-0.416015 0.004,-0.009 0.029267,-0.04209 0.1972656,-0.164063 z m 52.2441406,0.154297 -0.0625,0.0098 c -0.115997,0.039 -0.190522,0.06608 -0.228516,0.08008 l -0.308593,0.128907 c -0.169006,0.07098 -0.323891,0.131531 -0.462891,0.185547 l -0.574219,0.257812 0.0918,0.15625 c 0.135002,-0.04202 0.191376,-0.05093 0.234375,-0.04492 0.011,0.01401 0.04233,0.06244 0.111328,0.232422 l 0.455078,1.16211 c 0.036,0.09198 0.08915,0.24411 0.160157,0.453124 0.03899,0.113983 0.06703,0.195496 0.08203,0.228516 -0.02399,0.04599 -0.05928,0.09559 -0.113281,0.183594 l 0.05078,0.128906 0.0293,-0.01367 c 0.312004,-0.130005 0.478912,-0.199981 0.503906,-0.208984 0.092,-0.035 0.259903,-0.09848 0.503906,-0.1875 l 0.25,-0.08984 c 0.121994,-0.047 0.21434,-0.08709 0.277344,-0.121094 l 0.02344,-0.07031 c -0.056,-0.144989 -0.118699,-0.337891 -0.220703,-0.587891 -0.005,-0.01102 -0.0058,-0.0193 -0.0098,-0.0293 l -0.144532,0.08398 c 0.041,0.165985 0.06345,0.281188 0.06445,0.367187 -0.007,0.01199 -0.03548,0.0358 -0.146485,0.0918 -0.089,0.04401 -0.187873,0.08688 -0.296875,0.128906 -0.112999,0.04398 -0.209762,0.07718 -0.259765,0.117188 -0.026,-0.05801 -0.05494,-0.129883 -0.08594,-0.212891 l -0.306641,-0.71875 c 0.06,-0.03302 0.139283,-0.0694 0.238282,-0.107422 0.109001,-0.04199 0.200989,-0.06931 0.333984,-0.07031 0.014,0.01199 0.0483,0.06092 0.154297,0.253906 L 58,48.273438 l -0.34375,-0.808594 -0.140625,0.08789 c 0.038,0.105987 0.0595,0.181916 0.0625,0.253907 -0.002,0.002 -0.01508,0.014 -0.08008,0.04102 l -0.25,0.105469 c -0.074,0.02798 -0.146683,0.05282 -0.179688,0.08984 l -0.144531,-0.371094 c -0.081,-0.210022 -0.140312,-0.384247 -0.195312,-0.490234 0.091,-0.04602 0.181488,-0.08514 0.271484,-0.119141 0.095,-0.03699 0.195785,-0.06775 0.300781,-0.09375 0.063,-0.01599 0.09281,-0.01989 0.132813,-0.002 0.019,0.02799 0.05539,0.113556 0.15039,0.267578 l 0.138672,-0.08594 -0.15625,-0.533204 z m -50.7441406,0.191406 0.4394531,0.566406 0.1308594,0.181641 c -0.093002,0.03 -0.1964532,0.06165 -0.3144531,0.09766 -0.1080017,0.03101 -0.1986733,0.06153 -0.2636719,0.103516 -0.011002,0.004 -0.024158,0.0057 -0.035156,0.0098 z m 11.1640626,0.490234 -0.05273,0.189453 c 0.051,0.02499 0.105065,0.06057 0.164063,0.101563 l 0.02734,0.05859 c -0.003,0.021 -0.023,0.09207 -0.125,0.330078 -0.079,0.184997 -0.172298,0.396758 -0.279297,0.634765 -0.118999,0.264984 -0.202858,0.451538 -0.25586,0.560547 -0.104997,0.221985 -0.175887,0.364685 -0.21289,0.429688 -0.019,0.03 -0.0315,0.04171 -0.0625,0.05273 -0.008,0 -0.04624,-0.003 -0.240234,-0.04297 l -0.04883,0.191407 c 0.093,0.03201 0.214234,0.08337 0.365235,0.15039 0.116997,0.052 0.229907,0.107392 0.378906,0.150391 l 0.05273,-0.189453 c -0.123001,-0.065 -0.157016,-0.09162 -0.166015,-0.09961 l -0.05273,-0.02734 0.03711,-0.05859 c 0.008,-0.02801 0.05367,-0.140869 0.138672,-0.339844 0.086,-0.200012 0.159607,-0.372619 0.224609,-0.515625 L 18,48.375 l 0.15625,-0.351562 -0.02734,1.052734 c -0.005,0.17099 -0.01425,0.428436 -0.03125,0.773437 -0.008,0.201996 -0.01782,0.358918 -0.0078,0.503907 l 0.136718,0.03906 c 0.062,-0.06399 0.145,-0.14801 0.25,-0.25 0.171003,-0.170013 0.301534,-0.296723 0.394532,-0.386719 l 0.582031,-0.591797 0.408203,-0.382812 -0.544922,1.216797 c -0.110001,0.247009 -0.178078,0.387756 -0.205078,0.427734 -0.029,0.04401 -0.04964,0.05166 -0.05664,0.05469 -0.014,0 -0.05814,-0.0097 -0.244141,-0.05273 l -0.05078,0.191407 0.472656,0.195312 0.5,0.240235 0.06641,-0.216797 c -0.153,-0.08301 -0.171497,-0.10019 -0.1875,-0.158203 0.009,-0.03497 0.04261,-0.129272 0.09961,-0.279297 0.01,-0.02499 0.04923,-0.113709 0.115234,-0.261719 l 0.607422,-1.333984 c 0.041,-0.09201 0.07795,-0.123719 0.126953,-0.136719 0.036,0 0.08916,0.01682 0.160156,0.04883 l 0.05078,0.02148 0.0625,-0.216797 -0.453125,-0.1875 c -0.037,-0.01602 -0.117252,-0.05819 -0.28125,-0.117187 -0.073,0.07999 -0.135502,0.148224 -0.1875,0.199219 -0.053,0.05399 -0.196732,0.191131 -0.427734,0.412109 l -0.416016,0.398437 c -0.083,0.08102 -0.195499,0.195984 -0.3125,0.333985 -0.035,0.03201 -0.06647,0.06065 -0.105468,0.09766 l 0.05859,-2.089844 c -0.107002,-0.038 -0.210499,-0.07999 -0.3125,-0.125 -0.078,-0.035 -0.217937,-0.102508 -0.460937,-0.1875 z m -1.730469,0.142579 0.01172,0.71289 -0.0039,0.230469 c -0.092,-0.03101 -0.195546,-0.06833 -0.310547,-0.111328 -0.109001,-0.04001 -0.207113,-0.07813 -0.28711,-0.07813 -0.006,-0.003 -0.01258,-0.0068 -0.01758,-0.0078 z m 39.001953,0.130859 c -0.092,0.01001 -0.21791,0.05005 -0.378906,0.123047 -0.081,0.03598 -0.180732,0.08643 -0.302734,0.148437 -0.072,0.04001 -0.159675,0.08386 -0.263672,0.13086 -0.121002,0.05701 -0.218153,0.09698 -0.285157,0.125 -0.139,0.056 -0.220809,0.08963 -0.257812,0.140625 l 0.101562,0.160156 c 0.143006,-0.052 0.197229,-0.06372 0.240235,-0.05273 0.01099,0.013 0.04481,0.06104 0.132812,0.248046 l 0.69336,1.53711 c 0.038,0.09201 0.06317,0.162597 0.07617,0.265625 -0.009,0.009 -0.04127,0.03451 -0.197266,0.144531 l 0.08203,0.185547 0.0293,-0.01563 c 0.127998,-0.069 0.270782,-0.137054 0.425781,-0.207031 0.172996,-0.07901 0.345155,-0.154694 0.535157,-0.263672 l -0.109375,-0.169922 c -0.094,0.04001 -0.157516,0.0556 -0.228516,0.05859 -0.009,-0.01 -0.02836,-0.03629 -0.06836,-0.113282 -0.017,-0.03201 -0.08231,-0.167237 -0.195313,-0.40625 -0.09199,-0.195984 -0.176818,-0.380645 -0.257812,-0.55664 -0.05,-0.109986 -0.148972,-0.335969 -0.292969,-0.667969 -0.065,-0.148987 -0.103859,-0.245911 -0.130859,-0.253906 0.041,-0.02899 0.08485,-0.0532 0.130859,-0.07422 0.127998,-0.05899 0.191513,-0.07227 0.228515,-0.07227 0.069,0 0.139985,0.02332 0.208985,0.07031 0.071,0.048 0.128776,0.123565 0.175781,0.226562 0.047,0.10202 0.07036,0.204713 0.06836,0.304688 -0.004,0.099 -0.02736,0.177429 -0.06836,0.232422 -0.041,0.056 -0.120856,0.106506 -0.255859,0.1875 l 0.03125,0.0918 c 0.03799,0.01102 0.08273,0.03335 0.136719,0.06836 0.109,0.073 0.250824,0.179474 0.423828,0.314453 l 0.599609,0.474609 c 0.035,0.03 0.06124,0.05493 0.115234,0.08594 0.076,-0.04102 0.153419,-0.07727 0.232422,-0.113281 0.069,-0.03097 0.180566,-0.07858 0.351563,-0.183594 l -0.109375,-0.169922 c -0.054,0.02301 -0.07693,0.02539 -0.08594,0.02539 l -0.002,0.0293 -0.05664,-0.04883 c -0.026,-0.01199 -0.101563,-0.05765 -0.226563,-0.138671 l -0.625,-0.455079 c -0.012,-0.01001 -0.04651,-0.03515 -0.103516,-0.07617 -0.053,-0.03699 -0.105437,-0.07624 -0.148437,-0.07422 -9.99e-4,-0.002 -0.0019,-0.0019 -0.0039,-0.0039 0.128006,-0.141998 0.202559,-0.292267 0.226562,-0.447266 0.022,-0.154999 5.98e-4,-0.307068 -0.06641,-0.455078 C 55.67647,47.764652 55.598,47.67038 55.5,47.609375 c -0.085,-0.05402 -0.168969,-0.07507 -0.292969,-0.08008 z m -1.8125,0.816406 -0.0625,0.01758 c -0.11,0.04999 -0.1847,0.08255 -0.220703,0.101563 l -0.292969,0.15625 c -0.164002,0.08398 -0.309356,0.159576 -0.443359,0.226562 l -0.548828,0.310547 0.105469,0.146485 c 0.138,-0.05801 0.190513,-0.07144 0.228515,-0.06445 0.015,0.01401 0.05082,0.0647 0.132813,0.220704 l 0.558593,1.113281 c 0.04501,0.08798 0.112121,0.234558 0.203126,0.435547 0.049,0.110016 0.08161,0.187775 0.09961,0.21875 -0.02,0.052 -0.0488,0.108307 -0.0918,0.195312 l 0.06055,0.123047 0.02734,-0.01563 c 0.298996,-0.158997 0.460373,-0.243835 0.484375,-0.255859 0.088,-0.04398 0.248419,-0.119416 0.482422,-0.232422 l 0.242187,-0.111328 c 0.115997,-0.05798 0.205673,-0.106538 0.263672,-0.144532 l 0.01953,-0.07227 c -0.073,-0.149017 -0.156067,-0.338745 -0.289062,-0.59375 l -0.134766,0.0957 c 0.056,0.161011 0.08866,0.27533 0.09766,0.361328 -0.004,0.009 -0.02672,0.03657 -0.136718,0.101563 -0.084,0.05399 -0.179208,0.106231 -0.283204,0.15625 -0.108002,0.05399 -0.203047,0.09561 -0.248046,0.140624 -0.03201,-0.056 -0.06842,-0.124114 -0.107422,-0.203124 l -0.371094,-0.6875 c 0.057,-0.03799 0.133514,-0.07996 0.228516,-0.126954 0.103996,-0.05399 0.195174,-0.08951 0.326171,-0.103515 0.019,0.01401 0.05578,0.06326 0.175782,0.240234 l 0.132812,-0.101562 -0.417969,-0.773438 -0.132812,0.101563 c 0.048,0.100006 0.07789,0.173064 0.08789,0.246093 0,0 -0.01317,0.01487 -0.07617,0.04687 -0.138001,0.07498 -0.216286,0.116914 -0.238282,0.128907 -0.07201,0.035 -0.140877,0.06644 -0.171875,0.107421 L 52.90625,49.494141 c -0.100998,-0.199981 -0.173278,-0.369692 -0.238281,-0.470703 0.087,-0.052 0.171814,-0.101533 0.257812,-0.144532 0.09199,-0.04501 0.188011,-0.08414 0.291016,-0.11914 0.072,-0.02698 0.09986,-0.02868 0.130859,-0.01367 0.015,0.01797 0.04978,0.07202 0.175782,0.25 l 0.128906,-0.0957 -0.205078,-0.517579 z m -31.666015,0.644531 -0.05664,0.183594 0.191406,0.138672 c 0,0.009 -0.0035,0.02928 -0.01953,0.07227 -0.014,0.03601 -0.05419,0.123627 -0.117188,0.265625 l -0.439453,0.945312 c -0.107998,0.22699 -0.209594,0.433289 -0.308593,0.613281 -0.046,0.08499 -0.06284,0.107086 -0.08984,0.121094 -0.025,0 -0.08019,-0.01077 -0.242188,-0.05078 l -0.05664,0.193359 c 0.131,0.052 0.26725,0.110779 0.40625,0.175782 0.128002,0.06299 0.315453,0.155213 0.564453,0.283203 l 0.0293,0.01563 0.07227,-0.222657 -0.191406,-0.109375 -0.01563,0.02734 -0.01563,-0.08203 c 0.002,-0.01898 0.01727,-0.06643 0.07227,-0.189453 0.077,-0.176972 0.152468,-0.346771 0.230469,-0.509766 l 0.478515,-1.003906 c 0.066,-0.136993 0.119999,-0.241943 0.125,-0.294922 0.072,0.01498 0.134453,0.0365 0.189453,0.0625 0.109001,0.052 0.175171,0.12552 0.201172,0.228516 0.025,0.104004 -2.62e-4,0.233703 -0.07227,0.386718 -0.069,0.145996 -0.150188,0.242035 -0.242187,0.289063 -0.092,0.04797 -0.129498,0.07953 -0.3125,-0.02148 -0.016,-0.01199 -0.03198,-0.02582 -0.08398,-0.04883 l -0.06836,0.03125 0.002,0.01953 c 0.002,0.05899 -1.8e-4,0.108887 0.0059,0.171875 0.026,0.02301 0.05398,0.04446 0.08398,0.06445 0.029,0.01801 0.06075,0.03378 0.09375,0.05078 0.129002,0.06 0.269875,0.08157 0.421875,0.06055 0.150002,-0.021 0.282627,-0.07892 0.390625,-0.169922 0.108002,-0.091 0.194814,-0.205872 0.257813,-0.339844 0.065,-0.137024 0.09022,-0.26294 0.07422,-0.376953 -0.015,-0.113007 -0.05709,-0.20636 -0.121093,-0.277344 -0.064,-0.07202 -0.162922,-0.138153 -0.294922,-0.201171 z m 30.070312,0.28125 c -0.170997,0.01099 -0.313646,0.0315 -0.43164,0.0625 -0.117005,0.03 -0.243905,0.08045 -0.378907,0.148438 -0.389,0.197022 -0.636421,0.470489 -0.732422,0.8125 -0.096,0.342987 -0.04828,0.701355 0.136719,1.068359 0.109001,0.213989 0.247162,0.397034 0.410156,0.541016 0.109001,0.09802 0.236909,0.17929 0.378907,0.238281 0.139,0.05801 0.290305,0.08594 0.445312,0.08594 h 0.0098 c 0.201004,-0.004 0.409141,-0.05808 0.61914,-0.164063 0.145996,-0.074 0.26561,-0.153382 0.34961,-0.234375 0.085,-0.078 0.170761,-0.188659 0.259765,-0.347656 l -0.04102,-0.234375 -0.08008,-0.02734 -0.01172,0.02148 c -0.071,0.114012 -0.144798,0.208342 -0.216797,0.277343 -0.074,0.069 -0.158859,0.126771 -0.255859,0.175781 -0.142998,0.073 -0.281059,0.111329 -0.414063,0.111329 -0.09399,0 -0.201309,-0.02712 -0.320312,-0.07813 -0.116997,-0.048 -0.235612,-0.127228 -0.34961,-0.240235 -0.112999,-0.110992 -0.215598,-0.25943 -0.308593,-0.441406 -0.151002,-0.297028 -0.203301,-0.564849 -0.154297,-0.796875 0.049,-0.22998 0.187249,-0.402679 0.40625,-0.513672 0.121003,-0.06201 0.229942,-0.09371 0.335937,-0.0957 0.094,0 0.193299,0.01974 0.279297,0.05273 0.04601,0.07101 0.100029,0.168641 0.207031,0.306641 l 0.128906,-0.09766 c -0.05199,-0.113007 -0.104293,-0.236084 -0.154296,-0.371094 -0.033,-0.08499 -0.05441,-0.156799 -0.06641,-0.216797 z m -28.27539,0.572266 -0.05273,0.181641 c 0.158001,0.08701 0.189267,0.117523 0.197266,0.144531 -0.002,0.022 -0.02256,0.08463 -0.101563,0.265625 l -0.708984,1.529297 c -0.045,0.09 -0.07939,0.155426 -0.150391,0.232422 -0.011,0 -0.05324,-0.0097 -0.240234,-0.05469 l -0.05273,0.19336 c 0.135001,0.052 0.278595,0.115539 0.433594,0.185546 0.173,0.07898 0.34378,0.162384 0.550782,0.234375 l 0.05664,-0.193359 c -0.035,-0.017 -0.140357,-0.06979 -0.193359,-0.134766 0.001,-0.01401 0.009,-0.04501 0.04102,-0.125 0.013,-0.03302 0.07073,-0.172057 0.177735,-0.414062 0.087,-0.196991 0.171952,-0.384552 0.251953,-0.560547 0.051,-0.11203 0.156452,-0.3302 0.314453,-0.658203 0.07,-0.144989 0.11747,-0.238679 0.105469,-0.263672 0.049,0.01199 0.09658,0.02783 0.142578,0.04883 0.127999,0.05801 0.180172,0.09903 0.201172,0.123047 0.047,0.051 0.07594,0.120087 0.08594,0.205078 0.011,0.08499 -0.0077,0.181152 -0.05469,0.285156 -0.047,0.10199 -0.110501,0.185059 -0.1875,0.248047 -0.077,0.06201 -0.149326,0.09655 -0.236328,0.101563 -0.068,0 -0.153969,-0.0253 -0.292969,-0.07031 l -0.04687,0.08398 c 0.017,0.03598 0.02816,0.08645 0.03516,0.148437 0.018,0.131012 0.03202,0.304444 0.04102,0.523438 l 0.03516,0.763672 c 0,0.047 -0.0042,0.08447 0.0078,0.146484 0.08,0.03098 0.159279,0.06458 0.238282,0.101562 0.069,0.03101 0.177124,0.0842 0.328125,0.158204 l 0.0293,0.01367 0.07031,-0.222656 c -0.057,-0.02701 -0.07356,-0.04346 -0.101562,-0.105469 -0.007,-0.02701 -0.02197,-0.113708 -0.04297,-0.261718 -9.99e-4,-0.01001 -0.0066,-0.08277 -0.01758,-0.21875 l -0.04687,-0.550782 c 0,-0.01401 -0.0038,-0.05688 -0.0098,-0.128906 -0.007,-0.06799 -0.01244,-0.132079 -0.02344,-0.164062 0.182998,0 0.340752,-0.04105 0.46875,-0.123047 0.132,-0.08298 0.23283,-0.203614 0.298828,-0.34961 0.058,-0.122986 0.07855,-0.242402 0.06055,-0.357421 -0.018,-0.113983 -0.05986,-0.206421 -0.13086,-0.273438 -0.067,-0.06399 -0.178843,-0.131072 -0.339844,-0.205078 -0.081,-0.03598 -0.186455,-0.08082 -0.314453,-0.132813 -0.076,-0.02899 -0.164531,-0.06726 -0.269531,-0.115234 -0.121002,-0.05502 -0.214299,-0.09979 -0.279297,-0.132813 -0.134003,-0.069 -0.220346,-0.112549 -0.277343,-0.101562 z m 25.958984,0.535156 c -0.07999,0 -0.165909,0.01218 -0.253906,0.0332 -0.112999,0.02799 -0.222175,0.0662 -0.326172,0.117188 -0.103004,0.051 -0.19725,0.114502 -0.28125,0.1875 -0.085,0.07599 -0.151214,0.164643 -0.199219,0.265625 -0.047,0.101013 -0.06755,0.220429 -0.06055,0.357422 0.008,0.13501 0.04437,0.272308 0.109375,0.404297 0.046,0.09302 0.10292,0.178039 0.169922,0.248047 0.068,0.07199 0.145516,0.124236 0.228516,0.15625 0.084,0.03299 0.178246,0.04425 0.28125,0.03125 0.06699,-0.008 0.200393,-0.0341 0.40039,-0.07813 0.108002,-0.021 0.187874,-0.02835 0.296875,-0.02734 0.058,0.006 0.110299,0.02652 0.154297,0.0625 0.046,0.04001 0.08515,0.09412 0.119141,0.162109 0.04,0.082 0.05956,0.164215 0.06055,0.242188 10e-4,0.078 -0.02422,0.152649 -0.07422,0.222656 -0.05,0.07001 -0.12098,0.125916 -0.208984,0.169922 -0.086,0.04102 -0.175309,0.0625 -0.320313,0.0625 -0.111,-0.01001 -0.200714,-0.04196 -0.261719,-0.08398 -0.073,-0.115997 -0.127983,-0.214508 -0.208984,-0.3125 l -0.136719,0.101563 c 0.128998,0.266998 0.212441,0.472626 0.273438,0.640625 0.04601,0.002 0.09081,0.0039 0.132812,0.0039 0.093,0 0.175956,-0.0065 0.251953,-0.01953 0.11,-0.02002 0.227609,-0.06012 0.34961,-0.121094 0.168,-0.082 0.300529,-0.182831 0.394531,-0.298828 0.059,-0.07401 0.106529,-0.165436 0.144531,-0.273438 0.036,-0.108001 0.05278,-0.213256 0.05078,-0.322265 -0.003,-0.143005 -0.04123,-0.288452 -0.115234,-0.439453 -0.043,-0.08499 -0.09249,-0.15967 -0.146484,-0.222656 -0.053,-0.06 -0.106156,-0.106689 -0.160157,-0.138672 -0.054,-0.03302 -0.116546,-0.05347 -0.185546,-0.06445 -0.069,-0.01102 -0.149094,-0.0072 -0.246094,0.0098 -0.034,0.005 -0.107704,0.02176 -0.220703,0.05078 -0.111,0.03097 -0.198769,0.05045 -0.259766,0.06445 -0.081,0.013 -0.148216,0.01681 -0.199219,0.0078 -0.045,-0.008 -0.08696,-0.02944 -0.126953,-0.06445 -0.041,-0.034 -0.07919,-0.08622 -0.117187,-0.158203 -0.048,-0.101014 -0.05739,-0.202545 -0.02539,-0.310547 0.031,-0.106995 0.111328,-0.191894 0.236328,-0.253906 0.084,-0.03998 0.180625,-0.07456 0.265625,-0.06055 0.089,0.004 0.159173,0.01993 0.201172,0.04492 0.035,0.051 0.08537,0.14209 0.193359,0.287109 l 0.136719,-0.101562 c -0.054,-0.118013 -0.096,-0.21402 -0.125,-0.291016 -0.029,-0.07303 -0.05317,-0.150452 -0.07617,-0.230469 L 49.5625,50.398438 Z M 25.646484,50.8125 25.59375,51.007812 c 0.131001,0.06399 0.168358,0.08563 0.193359,0.140626 -0.01,0.04102 -0.04452,0.135162 -0.103515,0.285156 -0.028,0.069 -0.09136,0.218109 -0.19336,0.453125 l -0.322265,0.742187 c -0.052,0.118988 -0.114593,0.247742 -0.183594,0.384766 -0.046,0.09198 -0.07391,0.143952 -0.128906,0.167969 -0.018,-0.003 -0.07675,-0.02683 -0.21875,-0.04883 l -0.05078,0.195313 c 0.128996,0.04602 0.274542,0.105774 0.435546,0.175781 0.184997,0.082 0.357578,0.158295 0.517578,0.238282 l 0.02734,0.01562 0.06641,-0.226562 c -0.118998,-0.05399 -0.15792,-0.07498 -0.169921,-0.08398 l -0.01953,0.02344 -0.0078,-0.08398 c 0.006,-0.03699 0.03294,-0.11734 0.08594,-0.236328 l 0.447266,-1.039063 c 0.01,-0.02301 0.07898,-0.175842 0.208984,-0.464844 0.037,-0.08402 0.06508,-0.139921 0.08008,-0.169922 0.032,-0.065 0.05028,-0.09124 0.113282,-0.115234 0.023,0.002 0.136749,0.04588 0.21875,0.04687 l 0.05078,-0.197265 c -0.167,-0.06302 -0.340436,-0.132874 -0.523437,-0.212891 -0.162999,-0.07098 -0.306706,-0.13855 -0.470704,-0.185547 z M 26.730469,51.306641 26.6875,51.5 c 0.051,0.022 0.108921,0.05582 0.169922,0.0918 l 0.01563,-0.02344 0.01563,0.08008 c -0.004,0.03799 -0.04038,0.148925 -0.109375,0.335937 -0.07,0.190002 -0.152093,0.406433 -0.246094,0.648437 -0.105999,0.27298 -0.179561,0.464203 -0.226562,0.574219 -0.094,0.227997 -0.157407,0.373444 -0.191407,0.439453 -0.015,0.03098 -0.02759,0.04458 -0.05859,0.05859 -0.011,0 -0.05419,-0.0062 -0.242188,-0.0332 l -0.03906,0.195313 c 0.095,0.02701 0.218044,0.07187 0.373047,0.130859 0.118998,0.04599 0.233764,0.09485 0.384765,0.130859 l 0.04492,-0.191406 c -0.127998,-0.06101 -0.162876,-0.0828 -0.171875,-0.0918 l -0.05273,-0.02539 0.03125,-0.06055 c 0.007,-0.02798 0.04905,-0.141754 0.123046,-0.34375 0.076,-0.205993 0.141221,-0.382294 0.199219,-0.529297 l 0.146485,-0.464844 0.136718,-0.357422 0.02734,1.050781 c 0.004,0.173005 0.0058,0.43039 0.0078,0.775391 0.002,0.200013 0.0025,0.361908 0.01953,0.503906 l 0.138672,0.03125 c 0.058,-0.06802 0.137325,-0.1557 0.236328,-0.261719 0.162998,-0.178983 0.287998,-0.314209 0.375,-0.408203 l 0.548828,-0.621093 0.388672,-0.402344 -0.480469,1.24414 c -0.120999,0.311004 -0.166596,0.40851 -0.183594,0.4375 -0.027,0.04401 -0.04569,0.05365 -0.05469,0.05664 -0.019,0 -0.07109,-0.01203 -0.246094,-0.04102 l -0.04102,0.193359 0.482422,0.171875 0.513672,0.214844 0.05469,-0.220704 c -0.145001,-0.069 -0.173268,-0.08743 -0.197266,-0.148437 0.007,-0.03702 0.03594,-0.129212 0.08594,-0.283203 0.01,-0.02701 0.04451,-0.117461 0.103515,-0.271484 l 0.535157,-1.361329 c 0.037,-0.09399 0.071,-0.12558 0.125,-0.142578 0.036,0 0.0902,0.01496 0.158203,0.04297 l 0.04883,0.01758 0.05469,-0.220703 -0.46289,-0.164063 c -0.036,-0.01501 -0.12111,-0.05152 -0.28711,-0.103515 -0.07,0.086 -0.128734,0.155914 -0.177734,0.210937 -0.051,0.05399 -0.184296,0.199616 -0.404297,0.433594 l -0.394531,0.419922 c -0.079,0.08499 -0.187874,0.206604 -0.296875,0.349609 -0.033,0.035 -0.06261,0.06363 -0.09961,0.09961 l -0.04883,-2.085938 c -0.108001,-0.03403 -0.215312,-0.06937 -0.320312,-0.109375 -0.079,-0.03201 -0.222747,-0.09201 -0.46875,-0.166015 z m 20.638672,0.07031 c -0.177002,0.005 -0.361878,0.05082 -0.546875,0.132813 -0.186005,0.08301 -0.346558,0.190215 -0.476563,0.324218 -0.101997,0.10501 -0.179375,0.240326 -0.234375,0.402344 -0.055,0.16098 -0.07558,0.338379 -0.05859,0.525391 0.014,0.187988 0.07098,0.392395 0.167969,0.609375 0.124001,0.282013 0.278084,0.501434 0.455078,0.648437 0.18,0.151001 0.376938,0.238708 0.585938,0.261719 0.042,0.006 0.083,0.0078 0.125,0.0078 0.172005,0 0.350205,-0.04205 0.533203,-0.123046 0.211998,-0.09399 0.385627,-0.219086 0.515625,-0.371094 0.094,-0.115997 0.163986,-0.251313 0.208984,-0.404297 0.045,-0.153016 0.05992,-0.314454 0.04492,-0.480469 -0.018,-0.221985 -0.07972,-0.44696 -0.177734,-0.667968 -0.059,-0.132996 -0.124313,-0.248658 -0.195313,-0.347657 -0.072,-0.100006 -0.151283,-0.186767 -0.238281,-0.259765 -0.084,-0.07199 -0.19236,-0.135529 -0.318359,-0.185547 -0.118996,-0.048 -0.253624,-0.08027 -0.390625,-0.07227 z m -0.210938,0.337891 c 0.023,0 0.04345,0.0039 0.06445,0.0059 0.096,0.017 0.193116,0.05896 0.28711,0.126953 0.095,0.06598 0.189301,0.163208 0.279296,0.283203 0.09,0.122009 0.172142,0.263794 0.244141,0.425782 0.103996,0.236023 0.166596,0.451599 0.183594,0.640625 0.018,0.185974 -0.0053,0.335296 -0.07031,0.445312 -0.065,0.108978 -0.158339,0.188202 -0.277343,0.242188 -0.087,0.039 -0.173814,0.05859 -0.257813,0.05859 -0.04201,0 -0.08496,-0.0037 -0.126953,-0.01367 -0.125,-0.02801 -0.260391,-0.117675 -0.400391,-0.263672 -0.139,-0.149017 -0.271622,-0.359863 -0.390625,-0.63086 -0.083,-0.186981 -0.137154,-0.370942 -0.160156,-0.544922 -0.022,-0.171021 -0.0015,-0.318482 0.0625,-0.4375 0.062,-0.118988 0.165688,-0.212463 0.304688,-0.273437 0.094,-0.04202 0.180809,-0.06445 0.257812,-0.06445 z m -1.423828,0.339844 c -0.157005,0.065 -0.285721,0.117278 -0.386719,0.154296 -0.105003,0.03799 -0.221138,0.07437 -0.36914,0.150391 l 0.09375,0.169922 c 0.127999,-0.043 0.188415,-0.05078 0.232422,-0.05078 0.004,0.002 0.01897,0.01248 0.04297,0.0625 0.052,0.107971 0.19764,0.490631 0.431641,1.140625 l 0.111328,0.214843 0.05273,0.146485 C 45.74236,53.922891 45.488731,53.759034 45.177734,53.541016 44.722732,53.22403 44.332656,52.94043 43.972656,52.689453 l -0.361328,0.144531 c -0.06101,0.02197 -0.157547,0.05188 -0.310547,0.128907 l 0.0918,0.171875 c 0.144997,-0.03998 0.187119,-0.04492 0.203125,-0.04492 l 0.05273,-0.01758 0.01758,0.06641 c 0.015,0.02298 0.03635,0.07904 0.06836,0.164062 l 0.408203,1.107422 c 0.058,0.16098 0.102761,0.291596 0.134766,0.392578 0.055,0.178009 0.08861,0.29184 0.09961,0.339844 l 0.0293,-0.0059 -0.03516,0.08398 c -0.007,0.005 -0.04194,0.0259 -0.210938,0.128906 l 0.06836,0.185547 0.0293,-0.01367 c 0.167001,-0.069 0.300393,-0.122222 0.400391,-0.158203 l 0.205078,-0.07031 0.148438,-0.08398 -0.05273,-0.146484 -0.04102,-0.01563 -0.02734,0.0098 c -0.03,0.01 -0.07943,0.0231 -0.148437,0.03711 l -0.02344,0.0293 h -0.0039 l -0.0332,-0.04492 c -0.017,-0.02402 -0.05437,-0.107117 -0.109375,-0.244141 -0.08,-0.199982 -0.152703,-0.394012 -0.220704,-0.582031 l -0.203124,-0.474609 -0.132813,-0.369141 c 0.921997,0.653015 1.605377,1.122467 2.109375,1.439453 0.095,-0.017 0.188248,-0.03287 0.28125,-0.04687 l 0.03711,-0.06641 c -0.075,-0.165008 -0.257873,-0.654083 -0.546875,-1.455078 -0.03699,-0.104003 -0.093,-0.265411 -0.166015,-0.482422 -0.072,-0.213989 -0.112237,-0.354645 -0.115235,-0.431641 0.006,-0.01099 0.03584,-0.03964 0.214844,-0.140625 z m -15.962891,0.421874 -0.02734,0.191407 0.203125,0.121093 c 0.002,0.02402 -0.0036,0.06128 -0.01563,0.113282 -0.036,0.140991 -0.07986,0.293823 -0.13086,0.466797 l -0.248047,0.826171 c -0.059,0.195986 -0.09161,0.318268 -0.09961,0.363282 -0.014,0.07599 -0.01682,0.159973 -0.0059,0.25 0.011,0.09299 0.04089,0.180694 0.08789,0.263672 0.047,0.08402 0.117936,0.164368 0.210938,0.234375 0.125,0.09201 0.268641,0.163879 0.43164,0.21289 0.128002,0.038 0.247421,0.05664 0.357422,0.05664 h 0.0293 c 0.116997,-0.003 0.22617,-0.02816 0.326172,-0.07617 0.099,-0.04599 0.184906,-0.106629 0.253906,-0.181641 0.069,-0.07398 0.127735,-0.17105 0.177735,-0.289062 0.049,-0.11499 0.091,-0.226898 0.125,-0.337891 l 0.128906,-0.435547 c 0.038,-0.128997 0.09497,-0.301483 0.167969,-0.521484 0.096,-0.283996 0.12286,-0.347382 0.130859,-0.359375 l 0.05469,-0.03906 c 0.023,0 0.06845,0.0048 0.189453,0.0098 l 0.02539,-0.191406 -0.396484,-0.105469 c -0.035,-0.01102 -0.145096,-0.04873 -0.371094,-0.09375 l -0.02734,0.19336 c 0.137001,0.04599 0.186752,0.07587 0.21875,0.130859 9.99e-4,0.01801 -0.0055,0.08029 -0.06055,0.279297 -0.021,0.07098 -0.07878,0.27069 -0.175781,0.595703 L 31.21875,54.53125 c -0.078,0.257996 -0.148937,0.428804 -0.210938,0.507812 -0.06,0.078 -0.138329,0.132111 -0.236328,0.16211 -0.097,0.03299 -0.218422,0.02538 -0.357422,-0.01563 -0.120998,-0.03601 -0.216245,-0.08737 -0.28125,-0.150391 -0.065,-0.065 -0.106048,-0.137877 -0.123046,-0.21289 -0.018,-0.07999 -0.01527,-0.174042 0.0098,-0.289063 0.013,-0.056 0.05119,-0.191986 0.117188,-0.417969 l 0.191406,-0.646484 c 0.077,-0.257996 0.134922,-0.423188 0.169922,-0.492188 l 0.06836,-0.04492 c 0.039,0 0.09794,0.01068 0.210938,0.01367 l 0.04687,-0.154296 -0.05078,-0.04492 z m 12.9375,0.621094 c -0.168999,0 -0.34539,0.0214 -0.52539,0.06641 -0.147995,0.03699 -0.282395,0.08548 -0.400391,0.146485 -0.119004,0.061 -0.228219,0.141266 -0.324219,0.238281 -0.099,0.09799 -0.177238,0.216583 -0.240234,0.34961 -0.062,0.132995 -0.101234,0.282379 -0.115234,0.443359 -0.014,0.158997 0.0037,0.344025 0.05273,0.541015 0.05801,0.235994 0.149437,0.443177 0.273438,0.617188 0.08,0.113983 0.179825,0.213806 0.298828,0.298828 0.119995,0.086 0.256294,0.147522 0.404296,0.185547 0.098,0.02298 0.198731,0.0332 0.302735,0.0332 0.121994,0 0.249862,-0.0149 0.380859,-0.04687 0.148002,-0.03601 0.293594,-0.09207 0.433594,-0.164062 0.139,-0.07101 0.300285,-0.175751 0.488281,-0.34375 -0.034,-0.09698 -0.06098,-0.191163 -0.08398,-0.285157 -0.015,-0.06302 -0.0364,-0.166565 -0.06641,-0.310546 -0.015,-0.07202 -0.01173,-0.08782 -0.0098,-0.08984 0.005,-0.01599 0.02647,-0.04232 0.105469,-0.111328 l -0.06641,-0.144532 -0.978516,0.269532 0.07227,0.175781 c 0.148003,-0.02502 0.244033,-0.03632 0.332031,-0.0293 0.005,0.008 0.02155,0.04224 0.06055,0.199219 l 0.03906,0.175781 c 0.022,0.09598 0.03383,0.16095 0.04883,0.167969 -0.055,0.04797 -0.112831,0.08716 -0.173828,0.11914 -0.06101,0.03302 -0.127365,0.05823 -0.193359,0.07422 -0.234001,0.05902 -0.45887,3.1e-5 -0.671875,-0.167969 -0.214997,-0.173004 -0.369981,-0.443695 -0.458985,-0.804687 -0.081,-0.329987 -0.06503,-0.610932 0.04297,-0.835938 0.108002,-0.223999 0.290916,-0.366698 0.544922,-0.429687 0.111,-0.02701 0.215592,-0.03927 0.308594,-0.0293 0.09399,0.009 0.18077,0.03137 0.259765,0.06836 0.034,0.01501 0.06775,0.03766 0.09375,0.05664 0.016,0.035 0.03283,0.07879 0.04883,0.132812 0.02399,0.07599 0.03894,0.136262 0.08594,0.197266 l 0.150391,-0.06641 c -0.047,-0.281982 -0.07127,-0.480682 -0.07227,-0.595703 l -0.04297,-0.0625 c -0.100997,-0.02402 -0.233292,-0.03708 -0.404297,-0.03906 z m -10.566406,0.113282 -0.0078,0.197265 c 0.055,0.013 0.116596,0.03158 0.183593,0.05859 l 0.04102,0.05078 c 0.002,0.02499 -0.0039,0.107605 -0.04492,0.34961 -0.033,0.200012 -0.07409,0.426574 -0.121094,0.683593 -0.054,0.286987 -0.09119,0.489471 -0.117187,0.605469 -0.049,0.242004 -0.08447,0.39679 -0.105469,0.466797 -0.008,0.026 -0.01708,0.04532 -0.08008,0.07031 -0.036,0 -0.09594,-0.0043 -0.210937,0.01172 l -0.0039,0.197266 c 0.098,0.01001 0.22958,0.02859 0.392578,0.05859 0.126004,0.02402 0.245342,0.05158 0.402344,0.05859 l 0.0078,-0.197265 c -0.140003,-0.03598 -0.176549,-0.05063 -0.185547,-0.05664 l -0.05859,-0.01563 0.02344,-0.06445 c 10e-4,-0.02899 0.01774,-0.151276 0.05273,-0.363281 0.037,-0.21399 0.07061,-0.398682 0.09961,-0.554688 l 0.05859,-0.484375 0.06836,-0.375 0.220703,1.025391 c 0.035,0.165985 0.08634,0.420776 0.152344,0.759765 0.038,0.197998 0.06833,0.354188 0.111328,0.492188 l 0.140625,0.0059 c 0.045,-0.07602 0.107544,-0.176788 0.185547,-0.300781 0.126999,-0.205017 0.224968,-0.361725 0.292969,-0.46875 l 0.423828,-0.712891 0.306641,-0.46875 -0.242188,1.310547 c -0.049,0.264008 -0.08166,0.419831 -0.09766,0.464844 -0.018,0.04999 -0.03536,0.06141 -0.06836,0.06641 -0.038,0 -0.101609,-0.0071 -0.22461,0.0059 l -0.0039,0.195312 1.048828,0.197266 0.01367,-0.228516 c -0.163997,-0.04199 -0.188705,-0.0535 -0.220703,-0.105469 0,-0.03802 0.01025,-0.136872 0.03125,-0.296875 0.004,-0.02799 0.02078,-0.123138 0.05078,-0.285156 l 0.275391,-1.4375 c 0.018,-0.099 0.04545,-0.136384 0.06445,-0.150391 0.017,-0.01199 0.08532,-0.0229 0.195312,-0.002 l 0.05273,0.01172 0.01172,-0.230469 -0.486328,-0.07227 c -0.039,-0.007 -0.126781,-0.02884 -0.300781,-0.04883 -0.051,0.09702 -0.09677,0.176269 -0.134765,0.238281 -0.039,0.06299 -0.14536,0.22995 -0.31836,0.501953 l -0.310547,0.486328 c -0.062,0.09698 -0.144561,0.234498 -0.226562,0.396484 -0.026,0.039 -0.04912,0.07514 -0.07813,0.119141 L 32.966794,53.334 c -0.112999,-0.013 -0.223984,-0.02783 -0.333985,-0.04883 -0.084,-0.01498 -0.235233,-0.04722 -0.490234,-0.07422 z m 7.716797,0.43164 c -0.09362,-0.0062 -0.190514,-0.0046 -0.291016,0.0059 -0.200997,0.02402 -0.38678,0.07993 -0.550781,0.169921 -0.128998,0.07001 -0.244705,0.175448 -0.345703,0.314453 -0.101006,0.136018 -0.170891,0.296479 -0.212891,0.480469 -0.04,0.184021 -0.04848,0.398774 -0.02148,0.634766 0.035,0.306 0.116188,0.558868 0.242188,0.755859 0.125,0.194 0.285514,0.337829 0.478515,0.423828 0.142998,0.065 0.305427,0.09766 0.482422,0.09766 0.058,0 0.119644,-0.0017 0.181641,-0.0098 0.230003,-0.02698 0.430557,-0.09412 0.601562,-0.203125 0.123001,-0.08099 0.232308,-0.189271 0.320313,-0.322266 0.089,-0.132996 0.152504,-0.281371 0.1875,-0.443359 0.048,-0.21701 0.0573,-0.449371 0.0293,-0.693359 -0.017,-0.143005 -0.04303,-0.274628 -0.08203,-0.390625 -0.03899,-0.116974 -0.08844,-0.224365 -0.148437,-0.31836 -0.061,-0.09601 -0.144051,-0.185455 -0.248047,-0.271484 -0.107002,-0.08499 -0.22651,-0.149536 -0.353516,-0.185547 -0.086,-0.0235 -0.175907,-0.03867 -0.269531,-0.04492 z m -2.40625,0.136719 c -0.419999,0 -0.754182,0.128845 -0.992187,0.380859 -0.243998,0.256989 -0.36995,0.596802 -0.376954,1.007813 -0.004,0.239014 0.03334,0.463928 0.111328,0.669922 0.052,0.137024 0.12761,0.266784 0.22461,0.384765 0.097,0.119995 0.21933,0.215058 0.361328,0.289063 0.181,0.091 0.391953,0.139588 0.626953,0.142578 h 0.04297 c 0.146995,0 0.271042,-0.01398 0.373047,-0.04297 0.109993,-0.03 0.237625,-0.0885 0.390625,-0.1875 l 0.07422,-0.222656 -0.05859,-0.06641 -0.01953,0.01367 c -0.115998,0.069 -0.225266,0.116516 -0.322266,0.144531 -0.091,0.02499 -0.190636,0.03906 -0.306641,0.03906 -0.164001,-0.002 -0.30397,-0.03469 -0.417969,-0.0957 -0.082,-0.04498 -0.167045,-0.117798 -0.248046,-0.216797 -0.083,-0.099 -0.14927,-0.225952 -0.197266,-0.376953 -0.049,-0.149994 -0.07136,-0.3302 -0.06836,-0.533203 0.006,-0.334014 0.08433,-0.596283 0.236328,-0.779297 0.147003,-0.175995 0.343659,-0.265625 0.597656,-0.265625 0.137001,0.003 0.249939,0.02536 0.335937,0.06836 0.087,0.04401 0.166512,0.110627 0.228516,0.181641 0.007,0.08398 0.01101,0.198182 0.04102,0.367188 l 0.158203,-0.02539 c 0.007,-0.123992 0.01911,-0.258362 0.03711,-0.402344 0.011,-0.08899 0.02497,-0.163666 0.04297,-0.222656 l -0.02539,-0.06055 c -0.155999,-0.06799 -0.293106,-0.1185 -0.412109,-0.146484 -0.119995,-0.02701 -0.254502,-0.04193 -0.4375,-0.04492 z m 2.205078,0.146484 c 0.09,0 0.165521,0.01487 0.228516,0.04687 0.086,0.04401 0.165328,0.113098 0.236328,0.205078 0.072,0.09201 0.132644,0.213502 0.181641,0.353516 0.049,0.142975 0.08446,0.304474 0.105468,0.480469 0.029,0.256988 0.02436,0.481017 -0.01563,0.666015 -0.039,0.183014 -0.10717,0.319306 -0.201172,0.404297 -0.094,0.08402 -0.207893,0.133454 -0.33789,0.148438 -0.14,0.01602 -0.266908,-0.0082 -0.378907,-0.07422 -0.112,-0.065 -0.21569,-0.187135 -0.304687,-0.369141 -0.089,-0.181977 -0.150589,-0.424743 -0.183594,-0.71875 -0.02399,-0.203002 -0.02126,-0.395355 0.0098,-0.568359 0.029,-0.169006 0.09345,-0.303436 0.189453,-0.398438 0.096,-0.095 0.222046,-0.152923 0.373047,-0.169921 0.034,-0.003 0.06665,-0.0059 0.09766,-0.0059 z"
     style="fill:#1271b1;fill-opacity:1"
     inkscape:connector-curvature="0" /><path
     id="path1253"
     d="m 10.693357,51.162913 c 0.29,0.933013 0.82317,2.828125 0.451172,3.703125 -0.450001,1.058991 -0.892936,1.515076 -0.960937,1.580078 -0.009,0.007 -0.01358,0.01168 -0.01758,0.01367 -1.5079963,1.361911 -4.0482904,1.294346 -5.7792932,0.52335 C 3.4007206,56.545115 2.7881546,55.930584 2.7851562,55.381573 l 0.00977,-0.152343 C 3.0299268,54.098218 5.763367,51.221813 10.693363,51.162823 Z"
     style="fill:#1271b1;fill-opacity:1"
     inkscape:connector-curvature="0" /><path
     id="path1251"
     d="m 63.955076,51.162913 c 4.930999,0.05899 7.66539,2.935395 7.900391,4.066407 l 0.0098,0.152343 c -0.003,0.549012 -0.615562,1.163544 -1.601562,1.601563 -1.731003,0.769989 -4.271294,0.837555 -5.779297,-0.523438 -0.004,-0.002 -0.0057,-0.0048 -0.01172,-0.0098 -0.062,-0.06 -0.510849,-0.513978 -0.964844,-1.583985 -0.372002,-0.876007 0.158264,-2.772125 0.447266,-3.703125 z"
     style="fill:#1271b1;fill-opacity:1"
     inkscape:connector-curvature="0" /><path
     id="path1249"
     d="m 11.60156,51.223463 c 1.084999,0.156006 2.522752,0.613678 4.21875,1.345703 -1.561999,0.842987 -2.859452,1.709169 -3.814453,2.410157 0.292999,-0.987976 -0.0173,-2.442872 -0.404297,-3.75586 z"
     style="fill:#ffffff"
     inkscape:connector-curvature="0" /><path
     id="path1247"
     d="m 63.050779,51.223463 c -0.387001,1.312988 -0.699257,2.76883 -0.40625,3.757813 -0.955002,-0.701996 -2.251458,-1.569123 -3.814453,-2.41211 1.695999,-0.732025 3.136704,-1.189697 4.220703,-1.345703 z"
     style="fill:#ffffff"
     inkscape:connector-curvature="0" /></g>
</svg>