<?xml version="1.0" encoding="UTF-8"?>
<svg width="400" height="268" version="1.1" viewBox="0 0 400 268" xml:space="preserve" xmlns="http://www.w3.org/2000/svg" xmlns:cc="http://creativecommons.org/ns#" xmlns:dc="http://purl.org/dc/elements/1.1/" xmlns:rdf="http://www.w3.org/1999/02/22-rdf-syntax-ns#"><metadata><rdf:RDF><cc:Work rdf:about=""><dc:format>image/svg+xml</dc:format><dc:type rdf:resource="http://purl.org/dc/dcmitype/StillImage"/><dc:title/></cc:Work></rdf:RDF></metadata><g transform="matrix(1.3333 0 0 -1.3333 -489.56 1047.3)"><g transform="matrix(1.7164 0 0 1.7164 -259.29 -566.34)"><g transform="translate(381.34 776.92)"><path d="m0 0c0.077-0.543 0.227-0.95 0.453-1.218 0.411-0.49 1.117-0.733 2.115-0.733 0.6 0 1.084 0.063 1.459 0.192 0.707 0.247 1.06 0.708 1.06 1.38 0 0.393-0.171 0.697-0.518 0.912-0.348 0.209-0.897 0.395-1.652 0.556l-1.286 0.283c-1.266 0.278-2.133 0.582-2.608 0.91-0.803 0.549-1.203 1.406-1.203 2.573 0 1.064 0.392 1.95 1.178 2.653 0.783 0.705 1.933 1.056 3.453 1.056 1.269 0 2.35-0.332 3.245-0.994 0.895-0.665 1.366-1.628 1.409-2.892h-2.386c-0.045 0.715-0.366 1.224-0.961 1.524-0.395 0.199-0.891 0.299-1.481 0.299-0.655 0-1.181-0.129-1.57-0.388-0.391-0.257-0.586-0.617-0.586-1.08 0-0.424 0.193-0.743 0.579-0.952 0.247-0.14 0.772-0.304 1.577-0.492l2.087-0.491c0.914-0.215 1.601-0.504 2.057-0.865 0.709-0.559 1.063-1.368 1.063-2.426 0-1.086-0.42-1.988-1.26-2.707-0.838-0.718-2.027-1.077-3.559-1.077-1.564 0-2.796 0.354-3.693 1.061-0.896 0.708-1.345 1.678-1.345 2.916h2.373" fill="#231f20"/></g><g transform="translate(397.36 782)"><path d="m0 0c0.442-0.187 0.804-0.476 1.088-0.863 0.241-0.328 0.39-0.666 0.442-1.013s0.081-0.915 0.081-1.7v-5.166h-2.347v5.353c0 0.472-0.078 0.856-0.24 1.146-0.209 0.409-0.604 0.613-1.186 0.613-0.603 0-1.06-0.203-1.375-0.608-0.309-0.407-0.467-0.987-0.467-1.74v-4.764h-2.299v11.849h2.299v-4.194c0.332 0.51 0.715 0.866 1.153 1.067 0.437 0.202 0.894 0.303 1.375 0.303 0.544 0 1.035-0.094 1.476-0.283" fill="#231f20"/></g><g transform="translate(406.68 777.53)"><path d="m0 0c-0.145-0.092-0.294-0.166-0.446-0.222-0.148-0.057-0.355-0.11-0.615-0.156l-0.525-0.099c-0.489-0.085-0.841-0.191-1.056-0.313-0.362-0.21-0.543-0.535-0.543-0.977 0-0.393 0.111-0.677 0.332-0.851s0.49-0.262 0.807-0.262c0.503 0 0.964 0.146 1.389 0.436 0.422 0.291 0.641 0.82 0.657 1.59zm-1.405 1.072c0.426 0.054 0.735 0.122 0.916 0.203 0.335 0.14 0.498 0.356 0.498 0.652 0 0.36-0.127 0.609-0.38 0.746-0.254 0.138-0.625 0.205-1.116 0.205-0.551 0-0.94-0.132-1.172-0.402-0.161-0.198-0.271-0.469-0.326-0.808h-2.217c0.049 0.771 0.266 1.402 0.649 1.897 0.61 0.774 1.657 1.161 3.143 1.161 0.968 0 1.826-0.191 2.576-0.572 0.75-0.382 1.127-1.104 1.127-2.163v-4.032c0-0.28 4e-3 -0.618 0.015-1.017 0.014-0.3 0.062-0.505 0.137-0.613 0.075-0.106 0.187-0.195 0.338-0.265v-0.338h-2.498c-0.071 0.176-0.121 0.344-0.149 0.5-0.025 0.154-0.048 0.332-0.063 0.531-0.319-0.343-0.685-0.636-1.103-0.879-0.496-0.285-1.06-0.427-1.687-0.427-0.799 0-1.461 0.227-1.983 0.681-0.521 0.454-0.783 1.098-0.783 1.931 0 1.083 0.42 1.865 1.26 2.348 0.457 0.263 1.139 0.452 2.03 0.565l0.788 0.096" fill="#231f20"/></g><g transform="translate(417.27 779.45)"><path d="m0 0c-0.314 0.521-0.82 0.783-1.519 0.783-0.842 0-1.42-0.398-1.734-1.186-0.164-0.42-0.246-0.952-0.246-1.597 0-1.022 0.274-1.74 0.822-2.154 0.327-0.242 0.713-0.363 1.158-0.363 0.646 0 1.139 0.247 1.478 0.742 0.34 0.495 0.512 1.154 0.512 1.976 0 0.677-0.159 1.277-0.471 1.799zm1.765 1.653c0.717-0.758 1.075-1.872 1.075-3.34 0-1.547-0.351-2.728-1.051-3.54-0.701-0.813-1.602-1.218-2.708-1.218-0.702 0-1.288 0.175-1.754 0.525-0.254 0.192-0.501 0.475-0.744 0.848v-4.582h-2.274v12.25h2.201v-1.298c0.246 0.382 0.513 0.682 0.795 0.904 0.513 0.392 1.124 0.588 1.832 0.588 1.034 0 1.912-0.378 2.628-1.137" fill="#231f20"/></g><g transform="translate(424.68 779.88)"><path d="m0 0c-0.324-0.335-0.531-0.789-0.614-1.36h3.961c-0.043 0.61-0.246 1.072-0.613 1.389-0.366 0.316-0.821 0.474-1.363 0.474-0.591 0-1.047-0.168-1.371-0.503zm3.439 1.986c0.611-0.275 1.119-0.709 1.52-1.301 0.358-0.522 0.592-1.128 0.699-1.816 0.062-0.405 0.088-0.987 0.075-1.746h-6.403c0.039-0.881 0.341-1.5 0.922-1.855 0.349-0.22 0.771-0.33 1.265-0.33 0.525 0 0.949 0.134 1.277 0.402 0.178 0.145 0.335 0.348 0.473 0.605h2.346c-0.062-0.522-0.346-1.052-0.852-1.588-0.787-0.855-1.889-1.283-3.307-1.283-1.17 0-2.202 0.361-3.096 1.083-0.895 0.72-1.343 1.894-1.343 3.519 0 1.522 0.405 2.69 1.211 3.503 0.81 0.812 1.856 1.219 3.145 1.219 0.767 0 1.455-0.137 2.068-0.412" fill="#231f20"/></g><g transform="translate(437.84 771.57)"><path d="m0 0 0.29-0.017c0.226-0.011 0.441-3e-3 0.646 0.024 0.204 0.025 0.374 0.088 0.514 0.185 0.135 0.091 0.258 0.283 0.375 0.574 0.117 0.29 0.166 0.467 0.15 0.531l-3.23 9.178h2.556l1.921-6.483 1.814 6.483h2.443l-3.015-8.646c-0.58-1.666-1.039-2.7-1.381-3.101-0.34-0.4-1.017-0.601-2.034-0.601-0.204 0-0.369 1e-3 -0.493 4e-3 -0.125 3e-3 -0.31 0.013-0.556 0.029v1.84" fill="#231f20"/></g><g transform="translate(452.83 775.6)"><path d="m0 0c0.361 0.478 0.541 1.157 0.541 2.037 0 0.881-0.18 1.559-0.541 2.035-0.36 0.475-0.876 0.712-1.547 0.712-0.67 0-1.189-0.237-1.554-0.712-0.363-0.476-0.543-1.154-0.543-2.035 0-0.88 0.18-1.559 0.543-2.037 0.365-0.479 0.884-0.717 1.554-0.717 0.671 0 1.187 0.238 1.547 0.717zm1.84-1.271c-0.74-0.916-1.867-1.374-3.381-1.374-1.509 0-2.637 0.458-3.377 1.374-0.746 0.916-1.116 2.019-1.116 3.308 0 1.268 0.37 2.368 1.116 3.296 0.74 0.93 1.868 1.394 3.377 1.394 1.514 0 2.641-0.464 3.381-1.394 0.741-0.928 1.113-2.028 1.113-3.296 0-1.289-0.372-2.392-1.113-3.308" fill="#231f20"/></g><g transform="translate(460.38 782.04)"><path d="m0 0v-5.298c0-0.501 0.056-0.878 0.176-1.13 0.208-0.445 0.617-0.669 1.228-0.669 0.78 0 1.317 0.316 1.607 0.952 0.148 0.344 0.222 0.798 0.222 1.363v4.782h2.334v-8.791h-2.237v1.242c-0.021-0.027-0.075-0.108-0.159-0.242-0.088-0.133-0.188-0.253-0.308-0.355-0.358-0.323-0.706-0.544-1.04-0.662-0.336-0.118-0.728-0.177-1.178-0.177-1.296 0-2.171 0.468-2.624 1.405-0.251 0.517-0.376 1.276-0.376 2.282v5.298h2.355" fill="#231f20"/></g><g transform="translate(473.72 782.25)"><path d="m0 0c0.028-3e-3 0.094-6e-3 0.197-0.012v-2.355c-0.144 0.015-0.276 0.027-0.389 0.032-0.11 5e-3 -0.202 9e-3 -0.272 9e-3 -0.926 0-1.547-0.301-1.863-0.904-0.176-0.339-0.268-0.86-0.268-1.564v-4.203h-2.313v8.791h2.193v-1.532c0.355 0.586 0.663 0.986 0.929 1.202 0.429 0.36 0.987 0.539 1.677 0.539 0.041 0 0.078-1e-3 0.109-3e-3" fill="#231f20"/></g><g transform="translate(485.32 782.04)"><path d="m0 0h2.333l1.339-6.332 1.37 6.332h2.396l-2.549-8.791h-2.363l-1.381 6.403-1.392-6.403h-2.387l-2.469 8.791h2.469l1.371-6.307 1.263 6.307" fill="#231f20"/></g><g transform="translate(500.18 775.6)"><path d="m0 0c0.361 0.478 0.539 1.157 0.539 2.037 0 0.881-0.178 1.559-0.539 2.035-0.359 0.475-0.876 0.712-1.55 0.712-0.672 0-1.19-0.237-1.553-0.712-0.361-0.476-0.542-1.154-0.542-2.035 0-0.88 0.181-1.559 0.542-2.037 0.363-0.479 0.881-0.717 1.553-0.717 0.674 0 1.191 0.238 1.55 0.717zm1.839-1.271c-0.743-0.916-1.868-1.374-3.381-1.374-1.508 0-2.634 0.458-3.379 1.374-0.74 0.916-1.111 2.019-1.111 3.308 0 1.268 0.371 2.368 1.111 3.296 0.745 0.93 1.871 1.394 3.379 1.394 1.513 0 2.638-0.464 3.381-1.394 0.744-0.928 1.114-2.028 1.114-3.296 0-1.289-0.37-2.392-1.114-3.308" fill="#231f20"/></g><g transform="translate(510.32 782.25)"><path d="m0 0c0.03-3e-3 0.092-6e-3 0.198-0.012v-2.355c-0.147 0.015-0.276 0.027-0.389 0.032-0.114 5e-3 -0.203 9e-3 -0.273 9e-3 -0.927 0-1.547-0.301-1.862-0.904-0.18-0.339-0.269-0.86-0.269-1.564v-4.203h-2.312v8.791h2.192v-1.532c0.356 0.586 0.664 0.986 0.927 1.202 0.429 0.36 0.99 0.539 1.68 0.539 0.04 0 0.077-1e-3 0.108-3e-3" fill="#231f20"/></g><path d="m512.57 773.25h2.301v11.889h-2.301z" fill="#231f20"/><g transform="translate(523 775.64)"><path d="m0 0c0.34 0.484 0.509 1.111 0.509 1.879 0 1.076-0.273 1.845-0.817 2.307-0.334 0.28-0.72 0.42-1.162 0.42-0.672 0-1.162-0.254-1.48-0.762-0.314-0.509-0.472-1.139-0.472-1.892 0-0.812 0.161-1.461 0.48-1.948 0.323-0.486 0.806-0.73 1.461-0.73 0.646 0 1.143 0.242 1.481 0.726zm-0.565 6.262c0.416-0.233 0.75-0.557 1.007-0.97v4.193h2.332v-11.872h-2.236v1.217c-0.326-0.521-0.698-0.9-1.121-1.136-0.418-0.237-0.938-0.355-1.563-0.355-1.027 0-1.892 0.415-2.592 1.246-0.704 0.83-1.054 1.897-1.054 3.198 0 1.499 0.346 2.679 1.037 3.54 0.69 0.86 1.615 1.29 2.77 1.29 0.535 0 1.005-0.116 1.42-0.351" fill="#231f20"/></g><g transform="translate(411.3 698.44)"><path d="m0 0c0.731 0 1.31 0.15 1.734 0.451 0.426 0.302 0.639 0.841 0.639 1.627 0 0.843-0.297 1.417-0.893 1.724-0.318 0.162-0.744 0.241-1.275 0.241h-3.811v-4.043zm-5.207 5.421h5.379c0.886 0 1.616-0.132 2.193-0.396 1.089-0.504 1.636-1.436 1.636-2.794 0-0.708-0.146-1.288-0.44-1.739-0.293-0.454-0.701-0.816-1.228-1.089 0.464-0.187 0.809-0.435 1.043-0.741 0.235-0.306 0.364-0.803 0.391-1.489l0.057-1.588c0.014-0.452 0.054-0.787 0.111-1.008 0.099-0.375 0.27-0.617 0.516-0.723v-0.268h-1.963c-0.057 0.102-0.099 0.235-0.129 0.395-0.032 0.161-0.062 0.473-0.082 0.934l-0.098 1.975c-0.035 0.773-0.315 1.293-0.838 1.555-0.296 0.145-0.763 0.217-1.4 0.217h-3.547v-5.076h-1.601v11.835" fill="#231f20"/></g><g transform="translate(417.62 700.62)"><path d="m0 0h1.475v-8.587h-1.475zm0 3.248h1.475v-1.645h-1.475z" fill="#231f20"/></g><g transform="translate(421.91 703.07)"><path d="m0 0h1.466v-2.407h1.381v-1.187h-1.381v-5.63c0-0.301 0.103-0.503 0.306-0.605 0.115-0.059 0.302-0.086 0.564-0.086 0.07 0 0.149 0 0.229 3e-3 0.079 4e-3 0.172 0.013 0.282 0.029v-1.154c-0.17-0.047-0.341-0.082-0.521-0.103-0.181-0.022-0.377-0.035-0.585-0.035-0.676 0-1.137 0.174-1.377 0.521-0.244 0.346-0.364 0.795-0.364 1.349v5.711h-1.168v1.187h1.168v2.407" fill="#231f20"/></g><g transform="translate(428.05 694.74)"><path d="m0 0c0.043-0.484 0.168-0.854 0.369-1.111 0.372-0.468 1.019-0.702 1.941-0.702 0.548 0 1.031 0.117 1.448 0.351 0.416 0.234 0.626 0.593 0.626 1.083 0 0.37-0.169 0.654-0.503 0.847-0.209 0.117-0.632 0.254-1.258 0.411l-1.174 0.289c-0.744 0.183-1.298 0.386-1.651 0.61-0.634 0.394-0.952 0.937-0.952 1.629 0 0.815 0.299 1.478 0.896 1.983 0.598 0.504 1.396 0.757 2.404 0.757 1.317 0 2.268-0.382 2.85-1.142 0.363-0.485 0.54-1.006 0.529-1.565h-1.368c-0.028 0.326-0.148 0.621-0.355 0.889-0.341 0.38-0.931 0.568-1.772 0.568-0.562 0-0.987-0.105-1.274-0.311-0.289-0.21-0.433-0.485-0.433-0.83 0-0.374 0.19-0.671 0.567-0.896 0.22-0.133 0.543-0.254 0.97-0.355l0.976-0.232c1.06-0.253 1.773-0.497 2.135-0.735 0.564-0.37 0.845-0.953 0.845-1.747 0-0.769-0.297-1.432-0.885-1.992-0.589-0.558-1.49-0.837-2.696-0.837-1.3 0-2.22 0.291-2.761 0.873-0.541 0.584-0.828 1.305-0.869 2.165h1.395" fill="#231f20"/></g><g transform="translate(437.22 700.66)"><path d="m0 0v-5.727c0-0.442 0.068-0.803 0.204-1.081 0.252-0.515 0.719-0.771 1.404-0.771 0.984 0 1.652 0.447 2.008 1.351 0.194 0.483 0.291 1.146 0.291 1.989v4.239h1.45v-8.63h-1.369l0.016 1.275c-0.184-0.33-0.413-0.606-0.687-0.831-0.543-0.451-1.203-0.677-1.976-0.677-1.208 0-2.029 0.411-2.468 1.234-0.24 0.439-0.354 1.027-0.354 1.762v5.867h1.481" fill="#231f20"/></g><g transform="translate(445.28 700.66)"><path d="m0 0h1.432v-1.225c0.344 0.423 0.658 0.732 0.936 0.924 0.476 0.33 1.019 0.493 1.626 0.493 0.688 0 1.241-0.17 1.661-0.509 0.235-0.191 0.449-0.477 0.642-0.852 0.322 0.462 0.702 0.803 1.138 1.026 0.434 0.222 0.923 0.335 1.468 0.335 1.16 0 1.948-0.418 2.369-1.255 0.223-0.453 0.335-1.06 0.335-1.823v-5.744h-1.505v5.994c0 0.575-0.143 0.971-0.43 1.185-0.288 0.213-0.64 0.321-1.051 0.321-0.573 0-1.061-0.189-1.471-0.572-0.411-0.38-0.617-1.015-0.617-1.907v-5.021h-1.474v5.632c0 0.586-0.071 1.014-0.209 1.28-0.221 0.404-0.633 0.604-1.235 0.604-0.548 0-1.043-0.211-1.494-0.634-0.448-0.424-0.673-1.192-0.673-2.306v-4.576h-1.448v8.63" fill="#231f20"/></g><g transform="translate(465.2 697.03)"><path d="m0 0c-0.058 0.628-0.194 1.132-0.408 1.507-0.396 0.698-1.053 1.046-1.974 1.046-0.659 0-1.214-0.239-1.661-0.719-0.449-0.482-0.684-1.094-0.709-1.834zm-0.521 3.387c0.572-0.286 1.007-0.658 1.305-1.116 0.29-0.433 0.482-0.943 0.577-1.522 0.086-0.398 0.127-1.031 0.127-1.9h-6.275c0.029-0.879 0.231-1.584 0.615-2.114 0.384-0.531 0.98-0.795 1.785-0.795 0.749 0 1.348 0.25 1.797 0.752 0.252 0.292 0.428 0.631 0.534 1.012h1.423c-0.037-0.318-0.162-0.671-0.373-1.059-0.213-0.39-0.451-0.709-0.709-0.956-0.437-0.429-0.978-0.721-1.626-0.87-0.342-0.086-0.735-0.128-1.172-0.128-1.07 0-1.973 0.391-2.715 1.17-0.743 0.784-1.112 1.879-1.112 3.284 0 1.386 0.373 2.511 1.119 3.375 0.749 0.866 1.723 1.298 2.932 1.298 0.61 0 1.196-0.143 1.768-0.431" fill="#231f20"/></g><g transform="translate(468.86 700.62)"><path d="m0 0h1.472v-8.587h-1.472zm0 3.248h1.472v-1.645h-1.472z" fill="#231f20"/></g><g transform="translate(473.15 703.87)"><path d="m0 0h1.395v-6.871l3.721 3.666h1.851l-3.316-3.21 3.502-5.42h-1.854l-2.715 4.391-1.189-1.153v-3.238h-1.395v11.835" fill="#231f20"/></g><g transform="translate(483.33 693.34)"><path d="m0 0c0.306-0.244 0.669-0.362 1.087-0.362 0.509 0 1.004 0.118 1.482 0.353 0.806 0.392 1.208 1.032 1.208 1.923v1.166c-0.177-0.113-0.405-0.207-0.681-0.284-0.282-0.074-0.554-0.128-0.824-0.16l-0.873-0.114c-0.527-0.069-0.922-0.18-1.186-0.33-0.448-0.251-0.672-0.653-0.672-1.203 0-0.418 0.151-0.75 0.459-0.989zm3.052 3.916c0.334 0.043 0.557 0.184 0.671 0.418 0.062 0.129 0.092 0.315 0.092 0.559 0 0.495-0.173 0.855-0.523 1.079-0.352 0.225-0.854 0.336-1.508 0.336-0.758 0-1.293-0.207-1.608-0.617-0.176-0.226-0.294-0.564-0.343-1.009h-1.356c0.026 1.065 0.372 1.806 1.036 2.224 0.66 0.418 1.427 0.628 2.302 0.628 1.014 0 1.838-0.195 2.469-0.581 0.629-0.387 0.945-0.989 0.945-1.807v-4.971c0-0.148 0.029-0.269 0.092-0.359 0.061-0.092 0.19-0.138 0.39-0.138 0.064 0 0.138 4e-3 0.22 0.012 0.078 8e-3 0.166 0.019 0.256 0.036v-1.071c-0.226-0.064-0.398-0.105-0.516-0.121-0.117-0.017-0.279-0.025-0.483-0.025-0.498 0-0.863 0.178-1.087 0.531-0.119 0.189-0.2 0.456-0.25 0.801-0.297-0.388-0.719-0.725-1.272-1.009-0.555-0.285-1.166-0.427-1.832-0.427-0.798 0-1.451 0.242-1.961 0.728-0.506 0.485-0.76 1.094-0.76 1.823 0 0.8 0.25 1.419 0.748 1.858 0.5 0.44 1.157 0.711 1.965 0.813l2.313 0.289" fill="#231f20"/></g><g transform="translate(491.27 700.66)"><path d="m0 0h1.378v-1.225c0.407 0.504 0.84 0.867 1.297 1.087s0.962 0.33 1.522 0.33c1.225 0 2.053-0.426 2.481-1.28 0.238-0.468 0.355-1.136 0.355-2.007v-5.535h-1.475v5.438c0 0.527-0.076 0.951-0.232 1.273-0.257 0.538-0.726 0.805-1.404 0.805-0.341 0-0.624-0.034-0.843-0.104-0.4-0.117-0.749-0.355-1.048-0.707-0.241-0.287-0.401-0.58-0.473-0.883-0.072-0.304-0.107-0.738-0.107-1.303v-4.519h-1.451v8.63" fill="#231f20"/></g><g transform="translate(374.28 680.97)"><path d="m0 0-1.824 5.227-1.893-5.227zm-2.66 6.985h1.811l4.295-11.836h-1.756l-1.239 3.545h-4.642l-1.281-3.545h-1.643l4.455 11.836" fill="#231f20"/></g><g transform="translate(380.17 678.83)"><path d="m0 0c0.042-0.483 0.167-0.851 0.37-1.113 0.373-0.465 1.019-0.698 1.94-0.698 0.548 0 1.031 0.114 1.447 0.349s0.625 0.596 0.625 1.085c0 0.37-0.166 0.65-0.499 0.845-0.213 0.116-0.634 0.256-1.261 0.412l-1.172 0.29c-0.747 0.182-1.297 0.385-1.653 0.611-0.634 0.391-0.948 0.935-0.948 1.626 0 0.817 0.296 1.478 0.892 1.982 0.598 0.506 1.399 0.757 2.405 0.757 1.318 0 2.267-0.38 2.852-1.142 0.362-0.484 0.54-1.005 0.528-1.563h-1.371c-0.024 0.325-0.141 0.623-0.353 0.89-0.342 0.377-0.931 0.567-1.773 0.567-0.56 0-0.983-0.104-1.274-0.314-0.289-0.207-0.432-0.482-0.432-0.826 0-0.374 0.187-0.675 0.567-0.899 0.22-0.133 0.541-0.252 0.97-0.354l0.975-0.233c1.062-0.253 1.773-0.498 2.135-0.732 0.565-0.37 0.847-0.956 0.847-1.75 0-0.768-0.297-1.431-0.886-1.988-0.59-0.56-1.487-0.839-2.696-0.839-1.299 0-2.219 0.291-2.761 0.873-0.54 0.584-0.829 1.305-0.869 2.164h1.395" fill="#231f20"/></g><g transform="translate(387.89 684.71)"><path d="m0 0h1.473v-8.586h-1.473zm0 3.25h1.473v-1.645h-1.473z" fill="#231f20"/></g><g transform="translate(393.46 677.43)"><path d="m0 0c0.305-0.242 0.666-0.361 1.088-0.361 0.509 0 1.004 0.118 1.481 0.353 0.804 0.392 1.208 1.033 1.208 1.922v1.166c-0.177-0.112-0.405-0.206-0.682-0.281-0.28-0.077-0.552-0.131-0.822-0.165l-0.875-0.11c-0.525-0.07-0.92-0.182-1.183-0.331-0.451-0.253-0.674-0.652-0.674-1.206 0-0.415 0.152-0.746 0.459-0.987zm3.053 3.916c0.334 0.043 0.556 0.182 0.668 0.418 0.067 0.13 0.097 0.316 0.097 0.557 0 0.498-0.175 0.858-0.527 1.082-0.351 0.223-0.854 0.335-1.507 0.335-0.757 0-1.296-0.204-1.608-0.615-0.176-0.227-0.292-0.565-0.346-1.012h-1.351c0.024 1.065 0.369 1.808 1.033 2.226 0.661 0.417 1.429 0.626 2.304 0.626 1.014 0 1.836-0.195 2.468-0.579 0.631-0.388 0.941-0.99 0.941-1.806v-4.972c0-0.148 0.033-0.27 0.095-0.361 0.061-0.091 0.194-0.135 0.39-0.135 0.065 0 0.138 2e-3 0.218 0.012 0.082 8e-3 0.166 0.019 0.258 0.033v-1.07c-0.225-0.064-0.398-0.103-0.514-0.123-0.121-0.012-0.281-0.021-0.482-0.021-0.5 0-0.865 0.175-1.09 0.53-0.118 0.189-0.203 0.455-0.25 0.799-0.297-0.386-0.72-0.722-1.273-1.005-0.552-0.288-1.163-0.429-1.83-0.429-0.799 0-1.452 0.243-1.96 0.728-0.508 0.483-0.762 1.093-0.762 1.821 0 0.802 0.248 1.421 0.748 1.859 0.501 0.441 1.157 0.713 1.968 0.814l2.312 0.288" fill="#231f20"/></g><g transform="translate(412.54 686.33)"><path d="m0 0c-0.351 0.168-0.832 0.249-1.446 0.249h-3.17v-4.099h3.17c0.712 0 1.294 0.152 1.739 0.459 0.444 0.306 0.666 0.847 0.666 1.618 0 0.872-0.318 1.461-0.959 1.773zm-6.219 1.63h5.297c1.047 0 1.893-0.3 2.536-0.894 0.644-0.591 0.965-1.426 0.965-2.501 0-0.922-0.288-1.726-0.86-2.412-0.576-0.686-1.455-1.027-2.639-1.027h-3.696v-5.002h-1.603v11.836" fill="#231f20"/></g><g transform="translate(418.22 677.43)"><path d="m0 0c0.308-0.242 0.671-0.361 1.089-0.361 0.509 0 1.003 0.118 1.482 0.353 0.805 0.392 1.209 1.033 1.209 1.922v1.166c-0.179-0.112-0.406-0.206-0.684-0.281-0.279-0.077-0.552-0.131-0.821-0.165l-0.877-0.11c-0.522-0.07-0.92-0.182-1.184-0.331-0.45-0.253-0.672-0.652-0.672-1.206 0-0.415 0.154-0.746 0.458-0.987zm3.054 3.916c0.333 0.043 0.556 0.182 0.669 0.418 0.065 0.13 0.096 0.316 0.096 0.557 0 0.498-0.175 0.858-0.527 1.082-0.349 0.223-0.853 0.335-1.506 0.335-0.756 0-1.291-0.204-1.609-0.615-0.177-0.227-0.292-0.565-0.345-1.012h-1.355c0.029 1.065 0.371 1.808 1.035 2.226 0.665 0.417 1.432 0.626 2.305 0.626 1.016 0 1.838-0.195 2.471-0.579 0.626-0.388 0.941-0.99 0.941-1.806v-4.972c0-0.148 0.033-0.27 0.093-0.361 0.063-0.091 0.191-0.135 0.39-0.135 0.067 0 0.138 2e-3 0.218 0.012 0.081 8e-3 0.165 0.019 0.257 0.033v-1.07c-0.224-0.064-0.399-0.103-0.514-0.123-0.12-0.012-0.28-0.021-0.485-0.021-0.5 0-0.859 0.175-1.086 0.53-0.119 0.189-0.202 0.455-0.251 0.799-0.296-0.386-0.719-0.722-1.274-1.005-0.553-0.288-1.162-0.429-1.826-0.429-0.801 0-1.453 0.243-1.962 0.728-0.51 0.483-0.763 1.093-0.763 1.821 0 0.802 0.252 1.421 0.752 1.859 0.498 0.441 1.151 0.713 1.962 0.814l2.314 0.288" fill="#231f20"/></g><g transform="translate(431.85 684.29)"><path d="m0 0c0.611-0.472 0.976-1.286 1.1-2.44h-1.409c-0.087 0.531-0.282 0.972-0.588 1.325-0.307 0.351-0.797 0.526-1.476 0.526-0.922 0-1.583-0.45-1.979-1.352-0.26-0.585-0.388-1.306-0.388-2.162 0-0.864 0.181-1.591 0.549-2.182 0.365-0.59 0.939-0.886 1.722-0.886 0.6 0 1.08 0.184 1.431 0.553 0.352 0.365 0.593 0.867 0.729 1.504h1.409c-0.159-1.146-0.564-1.981-1.21-2.512-0.642-0.528-1.468-0.792-2.471-0.792-1.126 0-2.027 0.412-2.698 1.236-0.673 0.826-1.007 1.855-1.007 3.09 0 1.513 0.366 2.694 1.104 3.536 0.735 0.844 1.672 1.265 2.809 1.265 0.974 0 1.765-0.236 2.373-0.709" fill="#231f20"/></g><g transform="translate(435.06 684.71)"><path d="m0 0h1.471v-8.586h-1.471zm0 3.25h1.471v-1.645h-1.471z" fill="#231f20"/></g><g transform="translate(440.06 687.38)"><path d="m0 0c0.338 0.494 0.991 0.741 1.957 0.741 0.092 0 0.186-1e-3 0.282-8e-3 0.095-6e-3 0.208-0.011 0.332-0.024v-1.321c-0.153 0.011-0.263 0.017-0.332 0.021-0.067 2e-3 -0.13 5e-3 -0.192 5e-3 -0.443 0-0.71-0.117-0.796-0.343-0.087-0.228-0.131-0.809-0.131-1.746h1.451v-1.144h-1.451v-7.442h-1.434v7.442h-1.2v1.144h1.2v1.353c0.021 0.604 0.127 1.044 0.314 1.322" fill="#231f20"/></g><g transform="translate(444.96 684.71)"><path d="m0 0h1.473v-8.586h-1.473zm0 3.25h1.473v-1.645h-1.473z" fill="#231f20"/></g><g transform="translate(454.66 684.29)"><path d="m0 0c0.606-0.472 0.975-1.286 1.096-2.44h-1.404c-0.089 0.531-0.286 0.972-0.591 1.325-0.308 0.351-0.798 0.526-1.475 0.526-0.925 0-1.583-0.45-1.982-1.352-0.259-0.585-0.386-1.306-0.386-2.162 0-0.864 0.182-1.591 0.548-2.182 0.366-0.59 0.94-0.886 1.723-0.886 0.601 0 1.079 0.184 1.429 0.553 0.353 0.365 0.597 0.867 0.734 1.504h1.404c-0.159-1.146-0.562-1.981-1.207-2.512-0.645-0.528-1.468-0.792-2.471-0.792-1.13 0-2.031 0.412-2.701 1.236-0.67 0.826-1.006 1.855-1.006 3.09 0 1.513 0.369 2.694 1.103 3.536 0.738 0.844 1.673 1.265 2.812 1.265 0.973 0 1.763-0.236 2.374-0.709" fill="#231f20"/></g><g transform="translate(464.38 687.96)"><path d="m0 0v-7.317c0-0.859 0.165-1.572 0.487-2.143 0.483-0.859 1.295-1.29 2.436-1.29 1.369 0 2.3 0.465 2.796 1.397 0.263 0.502 0.393 1.182 0.393 2.036v7.317h1.625v-6.649c0-1.455-0.199-2.574-0.592-3.359-0.724-1.428-2.085-2.142-4.091-2.142-2.005 0-3.366 0.714-4.081 2.142-0.396 0.785-0.591 1.904-0.591 3.359v6.649h1.618" fill="#231f20"/></g><g transform="translate(474.69 684.75)"><path d="m0 0h1.38v-1.225c0.406 0.506 0.838 0.869 1.294 1.089 0.46 0.22 0.968 0.331 1.524 0.331 1.225 0 2.051-0.428 2.482-1.283 0.234-0.465 0.354-1.137 0.354-2.006v-5.533h-1.473v5.438c0 0.525-0.08 0.951-0.234 1.272-0.259 0.536-0.725 0.805-1.403 0.805-0.342 0-0.625-0.033-0.846-0.105-0.398-0.118-0.746-0.354-1.046-0.708-0.241-0.284-0.401-0.578-0.472-0.882-0.072-0.302-0.108-0.737-0.108-1.301v-4.519h-1.452v8.627" fill="#231f20"/></g><g transform="translate(484.2 684.71)"><path d="m0 0h1.475v-8.586h-1.475zm0 3.25h1.475v-1.645h-1.475z" fill="#231f20"/></g><g transform="translate(488.91 684.75)"><path d="M 0,0 2.302,-7.024 4.703,0 H 6.29 L 3.043,-8.627 H 1.498 L -1.683,0 H 0" fill="#231f20"/></g><g transform="translate(502.62 681.12)"><path d="m0 0c-0.059 0.63-0.193 1.131-0.407 1.506-0.394 0.699-1.052 1.049-1.974 1.049-0.66 0-1.215-0.242-1.66-0.721-0.451-0.48-0.684-1.094-0.711-1.834zm-0.518 3.389c0.571-0.288 1.006-0.66 1.303-1.117 0.29-0.434 0.482-0.942 0.578-1.524 0.086-0.395 0.127-1.031 0.127-1.897h-6.274c0.026-0.88 0.229-1.584 0.615-2.115 0.384-0.529 0.98-0.795 1.784-0.795 0.748 0 1.349 0.249 1.795 0.75 0.25 0.292 0.43 0.631 0.535 1.013h1.426c-0.037-0.317-0.164-0.67-0.375-1.058-0.212-0.392-0.449-0.708-0.711-0.955-0.435-0.429-0.976-0.72-1.621-0.869-0.348-0.087-0.74-0.132-1.178-0.132-1.067 0-1.97 0.394-2.713 1.174-0.743 0.782-1.113 1.876-1.113 3.282 0 1.385 0.375 2.51 1.119 3.376 0.749 0.864 1.726 1.298 2.934 1.298 0.609 0 1.195-0.144 1.769-0.431" fill="#231f20"/></g><g transform="translate(505.99 684.75)"><path d="m0 0h1.379v-1.49c0.114 0.288 0.39 0.643 0.829 1.059 0.442 0.415 0.949 0.626 1.525 0.626 0.025 0 0.07-5e-3 0.134-8e-3 0.064-7e-3 0.174-0.017 0.33-0.035v-1.528c-0.084 0.017-0.166 0.026-0.236 0.029-0.072 7e-3 -0.152 0.01-0.238 0.01-0.733 0-1.291-0.237-1.683-0.705-0.393-0.471-0.591-1.01-0.591-1.622v-4.963h-1.449v8.627" fill="#231f20"/></g><g transform="translate(512.64 678.83)"><path d="m0 0c0.045-0.483 0.167-0.851 0.369-1.113 0.373-0.465 1.019-0.698 1.943-0.698 0.547 0 1.029 0.114 1.446 0.349 0.416 0.235 0.625 0.596 0.625 1.085 0 0.37-0.167 0.65-0.499 0.845-0.213 0.116-0.632 0.256-1.262 0.412l-1.17 0.29c-0.749 0.182-1.299 0.385-1.654 0.611-0.631 0.391-0.951 0.935-0.951 1.626 0 0.817 0.299 1.478 0.896 1.982 0.596 0.506 1.396 0.757 2.403 0.757 1.318 0 2.267-0.38 2.848-1.142 0.365-0.484 0.543-1.005 0.533-1.563h-1.37c-0.028 0.325-0.146 0.623-0.357 0.89-0.339 0.377-0.931 0.567-1.77 0.567-0.562 0-0.985-0.104-1.275-0.314-0.289-0.207-0.433-0.482-0.433-0.826 0-0.374 0.189-0.675 0.57-0.899 0.218-0.133 0.541-0.252 0.965-0.354l0.981-0.233c1.06-0.253 1.769-0.498 2.132-0.732 0.564-0.37 0.845-0.956 0.845-1.75 0-0.768-0.294-1.431-0.884-1.988-0.589-0.56-1.488-0.839-2.695-0.839-1.301 0-2.221 0.291-2.763 0.873-0.538 0.584-0.829 1.305-0.866 2.164h1.393" fill="#231f20"/></g><g transform="translate(520.35 684.71)"><path d="m0 0h1.475v-8.586h-1.475zm0 3.25h1.475v-1.645h-1.475z" fill="#231f20"/></g><g transform="translate(524.97 687.16)"><path d="m0 0h1.467v-2.409h1.377v-1.185h-1.377v-5.63c0-0.301 0.101-0.503 0.306-0.603 0.111-0.06 0.301-0.09 0.561-0.09 0.072 0 0.148 2e-3 0.227 6e-3 0.081 3e-3 0.175 0.014 0.283 0.024v-1.149c-0.168-0.048-0.34-0.083-0.522-0.105-0.177-0.021-0.373-0.031-0.584-0.031-0.674 0-1.132 0.173-1.377 0.518-0.238 0.347-0.361 0.797-0.361 1.35v5.71h-1.168v1.185h1.168v2.409" fill="#231f20"/></g><g transform="translate(535.98 684.75)"><path d="m0 0h1.602c-0.203-0.554-0.659-1.816-1.361-3.788-0.526-1.482-0.967-2.692-1.323-3.628-0.836-2.2-1.425-3.539-1.769-4.023-0.344-0.483-0.934-0.726-1.771-0.726-0.203 0-0.362 9e-3 -0.471 0.026-0.11 0.016-0.244 0.045-0.407 0.088v1.32c0.254-0.07 0.435-0.112 0.548-0.128 0.112-0.016 0.208-0.025 0.298-0.025 0.266 0 0.466 0.045 0.588 0.135 0.129 0.086 0.233 0.196 0.318 0.325 0.026 0.042 0.123 0.264 0.29 0.659 0.166 0.397 0.289 0.691 0.365 0.883l-3.193 8.882h1.643l2.313-7.026 2.33 7.026" fill="#231f20"/></g><g transform="translate(458.35 719.95)"><path d="m0 0c16.951 1.135 29.396 13.722 50.587 4.596v-0.169c-17.027 1.668-29.986-11.41-50.587-4.59v0.163" fill="#a10c3e"/></g><g transform="translate(421.78 719.95)"><path d="m0 0c16.951 1.135 29.395 13.722 50.589 4.596v-0.169c-17.03 1.668-29.987-11.41-50.589-4.59v0.163" fill="#a10c3e"/></g><g transform="translate(429.3 729.42)"><path d="m0 0-6.379 18.364-5.417-17.609c-0.362-1.031-0.928-2.631-0.928-3.715 0-1.444 0.928-2.114 1.857-2.888v-0.155h-13.073v0.155c1.958 1.806 2.63 3.301 3.557 5.933l6.622 19.199c0.377 1.205 0.602 1.97 0.887 2.996 0.39 1.41 1.045 4.836 0.013 5.509v0.152h11.412l11.411-31.169c-3.565 1.726-6.861 2.738-9.962 3.228" fill="#a10c3e"/></g><g transform="translate(487.37 728.39)"><path d="m0 0c1.289 0 2.815 0.751 3.588 1.784 1.237 1.701 1.366 3.478 1.366 5.489v13.141c-0.133 2.828 0.264 5.654-0.939 8.4v0.152h9.875v-0.152c-1.205-2.8-0.808-5.572-0.942-8.4v-14.609c0-4.258-0.944-8.414-4.909-10.177-2.27-1.009-5.296-1.537-8.579-1.537-3.287 0-6.31 0.528-8.582 1.537-3.965 1.763-4.907 5.919-4.907 10.177v14.555c-0.038 2.827 0.288 5.677-0.941 8.454v0.152h9.873v-0.152c-1.037-2.551-0.857-5.671-0.939-8.454v-13.087c0-2.011 0.129-3.788 1.368-5.489 0.773-1.033 2.296-1.784 3.585-1.784h1.083" fill="#a10c3e"/></g><g transform="translate(452.32 752.56)"><path d="m0 0c0.475 0 1.678 2e-3 2.106-0.024 4.136-0.249 6.148-1.827 6.148-6.836 0-4.494-3.433-6.345-6.633-7.687 0.619-0.102 1.239-0.102 1.858-0.102 6.449 0 12.407 2.837 12.407 10.164 0 3.506-1.816 6.376-4.901 8.047-2.262 1.226-6.084 1.237-8.974 1.237h-11.504v-0.153c1.731-1.723 1.455-5.361 1.554-8.441v-17.974c0-2.682 0.361-5.622-2.168-7.222v-0.155h12.38v0.155c-2.22 2.065-2.273 4.385-2.273 7.325v21.666" fill="#a10c3e"/></g><g transform="translate(385.16 719.95)"><path d="m0 0c16.952 1.135 29.398 13.722 50.588 4.596v-0.169c-17.028 1.668-29.985-11.41-50.588-4.59v0.163" fill="#a10c3e"/></g></g></g></svg>
