<svg width="2053" height="2401" xmlns="http://www.w3.org/2000/svg" xmlns:xlink="http://www.w3.org/1999/xlink" xml:space="preserve" overflow="hidden"><defs><clipPath id="clip0"><rect x="1174" y="37" width="2053" height="2401"/></clipPath></defs><g clip-path="url(#clip0)" transform="translate(-1174 -37)"><path d="M3216.3 43.796C3221.69 383.601 3221.37 723.459 3216.3 1063.25 3211.42 1390.64 3195.11 1646.12 3048.65 1845.88 2872.23 2086.52 2578.3 2260.18 2200.22 2430.8 1822.14 2260.18 1528.21 2086.52 1351.79 1845.88 1205.33 1646.12 1189.02 1390.64 1184.14 1063.25 1179.08 723.459 1178.76 383.606 1184.14 43.796L3216.3 43.796Z" stroke="#162E52" stroke-width="12.0433" stroke-miterlimit="8" fill="#1353B4" fill-rule="evenodd"/><path d="M2531.28 1794.43 2782.93 1803.46 2872.52 2032.93 2866.73 2037.75 2622.86 2029ZM2188.06 1550.84 2439.7 1559.87 2531.28 1794.43 2279.64 1785.41ZM1844.83 1307.25 2096.48 1316.27 2188.06 1550.84 1936.41 1541.81ZM1501.61 1063.65 1753.25 1072.68 1844.83 1307.25 1593.19 1298.22ZM1182.68 820.934 1410.03 829.089 1501.61 1063.65 1249.96 1054.63 1183.16 883.533Z" stroke="#806600" stroke-width="6.875" stroke-miterlimit="8" fill="#FEE46E" fill-rule="evenodd"/><path d="M1183.92 44 3216.08 44C3218.77 213.881 3220.04 383.776 3220 553.669L3217.91 825 1182.09 825 1180 553.671C1179.96 383.778 1181.23 213.884 1183.92 44Z" stroke="#808080" stroke-width="12.0433" stroke-miterlimit="8" fill="#FFFFFF" fill-rule="evenodd"/><path d="M1366.75 744.932 1366.75 347.018C1385.33 339.652 1377.41 265.951 1381.31 228.555L1408.25 228.555 1435.19 228.555C1439.1 265.951 1431.17 339.652 1449.75 347.018L1449.75 744.932C1437.57 763.046 1419.73 767.555 1408.25 767.555 1396.77 767.555 1378.94 763.046 1366.75 744.932Z" stroke="#000000" stroke-width="5.15643" stroke-miterlimit="8" fill="#212121" fill-rule="evenodd"/><path d="M1390.7 239.054C1389.72 256.184 1389.93 277.846 1389.19 299.008 1388.76 311.309 1387.91 322.815 1385.66 332.635 1384 339.917 1381.7 347.284 1376.25 352.343L1376.25 740.302C1386.11 752.937 1399.02 756.055 1407.26 756.055 1415.5 756.055 1428.39 752.937 1438.25 740.302L1438.25 352.343C1432.81 347.284 1430.51 339.917 1428.85 332.635 1426.59 322.815 1425.75 311.309 1425.32 299.008 1424.58 277.846 1424.79 256.184 1423.81 239.054L1407.26 239.054Z" fill="#2D2D2D" fill-rule="evenodd"/><path d="M1401.09 250.054C1400.67 266.944 1400.77 288.221 1400.47 308.649 1400.3 320.449 1400.01 331.298 1399.15 340.407 1398.71 344.957 1398.09 349.144 1397.2 352.93 1396.72 354.985 1396.14 357.105 1395.26 359.041L1395.26 736.398C1396.95 741.692 1398.41 743.497 1399.85 744.302 1401.45 745.192 1403.48 745.045 1406.3 745.045 1409.13 745.045 1411.19 745.184 1412.75 744.302 1414.16 743.505 1415.56 741.708 1417.26 736.398L1417.26 359.041C1416.38 357.105 1415.8 354.985 1415.32 352.93 1414.42 349.144 1413.81 344.957 1413.37 340.407 1412.51 331.298 1412.22 320.449 1412.05 308.649 1411.75 288.221 1411.84 266.944 1411.43 250.054L1406.3 250.054Z" fill="#4D4D4D" fill-rule="evenodd"/><path d="M1572.7 128.564C1572.7 128.564 1572.7 141.088 1572.7 156.538L1572.7 197.59C1572.7 213.04 1572.7 225.564 1572.7 225.564L1265.7 225.564C1265.7 225.564 1265.7 213.04 1265.7 197.59L1265.7 156.538C1265.7 141.088 1265.7 128.564 1265.7 128.564Z" stroke="#000000" stroke-width="5.15607" stroke-miterlimit="8" fill="#212121" fill-rule="evenodd"/><path d="M1350.54 105.564 1465.86 105.564C1479.07 105.564 1489.7 116.192 1489.7 129.387L1489.7 225.736C1489.7 238.936 1479.07 249.564 1465.86 249.564L1350.54 249.564C1337.33 249.564 1326.7 238.936 1326.7 225.736L1326.7 129.387C1326.7 116.192 1337.33 105.564 1350.54 105.564Z" stroke="#000000" stroke-width="5.15607" stroke-miterlimit="8" fill="#212121" fill-rule="evenodd"/><path d="M1237.42 105.564 1276.98 105.564C1290.12 105.564 1300.7 116.192 1300.7 129.387L1300.7 225.736C1300.7 238.936 1290.12 249.564 1276.98 249.564L1237.42 249.564C1224.28 249.564 1213.7 238.936 1213.7 225.736L1213.7 129.387C1213.7 116.192 1224.28 105.564 1237.42 105.564Z" stroke="#000000" stroke-width="5.15607" stroke-miterlimit="8" fill="#212121" fill-rule="evenodd"/><path d="M1539.54 114.564 1579.28 114.564C1592.49 114.564 1608.03 126.075 1612.56 138.554L1640.89 216.569C1645.42 229.054 1630.26 240.564 1617.05 240.564L1539.54 240.564C1526.33 240.564 1515.71 229.862 1515.71 216.569L1515.71 138.554C1515.71 125.266 1526.33 114.564 1539.54 114.564Z" stroke="#000000" stroke-width="5.15607" stroke-miterlimit="8" fill="#212121" fill-rule="evenodd"/><path d="M1240.88 118.011C1227.66 118.011 1216.95 128.095 1216.95 140.635L1216.95 196.388C1216.95 208.923 1227.66 219.012 1240.88 219.012L1271.16 219.012C1284.38 219.012 1295.09 208.923 1295.09 196.388L1295.09 140.635C1295.09 128.095 1284.38 118.011 1271.16 118.011ZM1354.31 118.011C1341.09 118.011 1330.38 128.095 1330.38 140.635L1330.38 196.388C1330.38 208.923 1341.09 219.012 1354.31 219.012L1460.21 219.012C1473.43 219.012 1484.14 208.923 1484.14 196.388L1484.14 140.635C1484.14 128.095 1473.43 118.011 1460.21 118.011ZM1543.81 127.03C1530.59 127.03 1520.03 137.119 1520.03 149.654L1520.03 187.364C1520.03 199.904 1530.59 209.988 1543.81 209.988L1612.05 209.988C1625.27 209.988 1630.99 199.118 1626.38 187.364L1611.61 149.654C1606.99 137.905 1596.91 127.03 1583.69 127.03Z" fill="#2D2D2D" fill-rule="evenodd"/><path d="M1245.88 136.011C1232.66 136.011 1221.95 146.085 1221.95 158.612L1221.95 178.411C1221.95 190.937 1232.66 201.011 1245.88 201.011L1266.71 201.011C1279.93 201.011 1290.64 190.937 1290.64 178.411L1290.64 158.612C1290.64 146.085 1279.93 136.011 1266.71 136.011ZM1359.32 136.011C1346.1 136.011 1335.39 146.085 1335.39 158.612L1335.39 178.411C1335.39 190.937 1346.1 201.011 1359.32 201.011L1455.78 201.011C1469 201.011 1479.71 190.937 1479.71 178.411L1479.71 158.612C1479.71 146.085 1469 136.011 1455.78 136.011ZM1548.51 140.034C1535.29 140.034 1525.75 150.165 1524.58 162.636L1523.58 173.38C1522.41 185.856 1534.29 195.986 1547.51 195.986L1608.33 195.986C1621.54 195.986 1616.48 185.515 1613.2 173.38L1605.53 149.489C1600.24 143.778 1592.98 140.034 1584.99 140.034Z" fill="#4D4D4D" fill-rule="evenodd"/><path d="M2655.95 177.742C2669.06 175.817 2681.29 193.235 2679.69 202.5L2679.69 733.088 2333.6 733.088C2303.51 733.097 2303.35 736.474 2279.35 717.773 2275.66 750.52 2236.51 762.595 2200.83 762.595 2165.15 762.595 2126 750.52 2122.31 717.773 2098.22 736.44 2085.66 732.091 2068.06 733.088L1721.97 733.088 1721.97 202.5C1720.37 193.235 1732.6 175.817 1745.71 177.742Z" stroke="#9B7B00" stroke-width="5.15643" stroke-miterlimit="8" fill="#FEE46E" fill-rule="evenodd"/><path d="M2654.83 176.594 2654.83 707.417 2327.25 707.417C2297.73 701.934 2278.35 700.144 2255.64 681.505 2288.13 751.805 2114.98 755.42 2146.02 681.505 2123.31 700.144 2103.93 701.934 2074.41 707.417L1746.83 707.417 1746.83 176.594 2200.83 176.594Z" stroke="#800000" stroke-width="5.15643" stroke-miterlimit="8" fill="#DD2626" fill-rule="evenodd"/><path d="M2620.33 673.098 2247.35 660.787 2200.33 641.432 2153.31 660.787 1780.33 673.098 1837.17 527.098 2549.39 541.167Z" fill="#BE0000" fill-rule="evenodd"/><path d="M314.8 16.3077C244.898 15.6413 221.069 45.2047 148.955 52.0911 123.684 54.5044 97.3345 18.134 85.5974 4.45107 82.8196 1.20764 74.5416 0.0912473 74.5416 0.0912473 48.9619 8.47632 37.6705 12.9136 0.330292 34.2647L0.330292 528.636C0.330292 528.636 100.477 536.393 131.735 533.409 203.848 526.526 244.898 496.957 314.8 497.623 346.9 497.936 360.799 504.112 376.611 510.153 392.219 475.963 421.071 462.687 421.33 462.206 421.597 462.687 450.449 475.963 466.058 510.153 481.869 504.112 495.768 497.936 527.868 497.623 597.77 496.957 638.821 526.526 710.934 533.409 742.192 536.393 842.33 528.636 842.33 528.636L842.33 34.2647C804.998 12.9129 793.707 8.47632 768.127 0.0912473 768.127 0.0912473 759.849 1.20764 757.062 4.45107 745.334 18.134 718.977 54.5044 693.705 52.0911 621.6 45.2047 597.762 15.6413 527.868 16.3077 435.91 17.1849 421.33 54.4767 421.33 54.4767 421.33 54.4767 406.758 17.1849 314.8 16.3077Z" stroke="#9B9788" stroke-width="5.15643" stroke-miterlimit="8" fill="#F8F2E4" fill-rule="evenodd" transform="matrix(-1 1.22465e-16 1.22465e-16 1 2621.5 142.5)"/><path d="M1778.83 671.596C1795.48 639.422 1854.65 590.336 1874.35 581.595M2622.83 671.596C2606.18 639.422 2547.01 590.336 2527.3 581.595" stroke="#ACA793" stroke-width="5.15643" stroke-miterlimit="8" fill="none" fill-rule="evenodd"/><path d="M2094.78 558.458C2024.78 557.794 2000.91 587.329 1928.7 594.214 1897.39 597.197 1857.83 589.442 1857.83 589.442L1857.83 142.793C1857.83 142.793 1897.39 149.339 1928.7 146.357 2000.91 139.475 2024.78 109.936 2094.78 110.603 2186.87 111.479 2200.83 148.741 2200.83 148.741 2200.83 148.741 2214.8 111.479 2306.88 110.603 2376.89 109.936 2400.76 139.475 2472.96 146.357 2504.27 149.339 2543.83 142.793 2543.83 142.793L2543.83 589.442C2543.83 589.442 2504.27 597.189 2472.96 594.206 2400.76 587.329 2376.89 557.785 2306.88 558.458 2214.8 559.328 2200.83 596.592 2200.83 596.592 2200.83 596.592 2186.87 559.328 2094.78 558.458Z" stroke="#9B9788" stroke-width="5.15643" stroke-miterlimit="8" fill="#FBF8F0" fill-rule="evenodd"/><path d="M2200.85 592.593 2200.85 150.592" stroke="#9B9788" stroke-width="5.15643" stroke-miterlimit="8" fill="none" fill-rule="evenodd"/><path d="M2912.75 744.932 2912.75 347.018C2931.33 339.652 2923.41 265.951 2927.31 228.555L2954.25 228.555 2981.19 228.555C2985.1 265.951 2977.17 339.652 2995.75 347.018L2995.75 744.932C2983.56 763.046 2965.73 767.555 2954.25 767.555 2942.77 767.555 2924.94 763.046 2912.75 744.932Z" stroke="#000000" stroke-width="5.15643" stroke-miterlimit="8" fill="#212121" fill-rule="evenodd"/><path d="M2937.46 239.054C2936.49 256.184 2936.7 277.846 2935.98 299.008 2935.55 311.309 2934.72 322.815 2932.51 332.635 2930.87 339.917 2928.61 347.284 2923.25 352.343L2923.25 740.302C2932.95 752.937 2945.65 756.055 2953.76 756.055 2961.86 756.055 2974.55 752.937 2984.25 740.302L2984.25 352.343C2978.89 347.284 2976.63 339.917 2974.99 332.635 2972.78 322.815 2971.95 311.309 2971.53 299.008 2970.8 277.846 2971 256.184 2970.04 239.054L2953.76 239.054Z" fill="#2D2D2D" fill-rule="evenodd"/><path d="M2947.81 250.054C2947.42 266.944 2947.51 288.221 2947.22 308.649 2947.06 320.449 2946.79 331.298 2945.96 340.407 2945.55 344.957 2944.95 349.144 2944.1 352.93 2943.64 354.985 2943.09 357.105 2942.25 359.041L2942.25 736.398C2943.86 741.692 2945.26 743.497 2946.63 744.302 2948.16 745.192 2950.09 745.045 2952.79 745.045 2955.49 745.045 2957.45 745.184 2958.95 744.302 2960.29 743.505 2961.63 741.708 2963.25 736.398L2963.25 359.041C2962.4 357.105 2961.85 354.985 2961.39 352.93 2960.54 349.144 2959.95 344.957 2959.54 340.407 2958.71 331.298 2958.44 320.449 2958.27 308.649 2957.99 288.221 2958.08 266.944 2957.68 250.054L2952.79 250.054Z" fill="#4D4D4D" fill-rule="evenodd"/><path d="M3118.7 128.564C3118.7 128.564 3118.7 141.088 3118.7 156.538L3118.7 197.59C3118.7 213.04 3118.7 225.564 3118.7 225.564L2811.7 225.564C2811.7 225.564 2811.7 213.04 2811.7 197.59L2811.7 156.538C2811.7 141.088 2811.7 128.564 2811.7 128.564Z" stroke="#000000" stroke-width="5.15607" stroke-miterlimit="8" fill="#212121" fill-rule="evenodd"/><path d="M2896.54 105.564 3011.86 105.564C3025.07 105.564 3035.7 116.192 3035.7 129.387L3035.7 225.736C3035.7 238.936 3025.07 249.564 3011.86 249.564L2896.54 249.564C2883.33 249.564 2872.7 238.936 2872.7 225.736L2872.7 129.387C2872.7 116.192 2883.33 105.564 2896.54 105.564Z" stroke="#000000" stroke-width="5.15607" stroke-miterlimit="8" fill="#212121" fill-rule="evenodd"/><path d="M2783.42 105.564 2822.98 105.564C2836.12 105.564 2846.7 116.192 2846.7 129.387L2846.7 225.736C2846.7 238.936 2836.12 249.564 2822.98 249.564L2783.42 249.564C2770.28 249.564 2759.7 238.936 2759.7 225.736L2759.7 129.387C2759.7 116.192 2770.28 105.564 2783.42 105.564Z" stroke="#000000" stroke-width="5.15607" stroke-miterlimit="8" fill="#212121" fill-rule="evenodd"/><path d="M3085.54 114.564 3125.28 114.564C3138.49 114.564 3154.03 126.075 3158.56 138.554L3186.89 216.569C3191.42 229.054 3176.26 240.564 3163.05 240.564L3085.54 240.564C3072.33 240.564 3061.71 229.862 3061.71 216.569L3061.71 138.554C3061.71 125.266 3072.33 114.564 3085.54 114.564Z" stroke="#000000" stroke-width="5.15607" stroke-miterlimit="8" fill="#212121" fill-rule="evenodd"/><path d="M2787.82 118.011C2774.64 118.011 2763.95 128.095 2763.95 140.635L2763.95 196.388C2763.95 208.923 2774.64 219.012 2787.82 219.012L2818.03 219.012C2831.21 219.012 2841.9 208.923 2841.9 196.388L2841.9 140.635C2841.9 128.095 2831.21 118.011 2818.03 118.011ZM2900.98 118.011C2887.79 118.011 2877.11 128.095 2877.11 140.635L2877.11 196.388C2877.11 208.923 2887.79 219.012 2900.98 219.012L3006.62 219.012C3019.81 219.012 3030.49 208.923 3030.49 196.388L3030.49 140.635C3030.49 128.095 3019.81 118.011 3006.62 118.011ZM3090.02 127.03C3076.83 127.03 3066.3 137.119 3066.3 149.654L3066.3 187.364C3066.3 199.904 3076.83 209.988 3090.02 209.988L3158.09 209.988C3171.27 209.988 3176.98 199.118 3172.38 187.364L3157.65 149.654C3153.05 137.905 3142.98 127.03 3129.8 127.03Z" fill="#2D2D2D" fill-rule="evenodd"/><path d="M2791.88 136.011C2778.66 136.011 2767.95 146.085 2767.95 158.612L2767.95 178.411C2767.95 190.937 2778.66 201.011 2791.88 201.011L2812.71 201.011C2825.93 201.011 2836.64 190.937 2836.64 178.411L2836.64 158.612C2836.64 146.085 2825.93 136.011 2812.71 136.011ZM2905.32 136.011C2892.1 136.011 2881.39 146.085 2881.39 158.612L2881.39 178.411C2881.39 190.937 2892.1 201.011 2905.32 201.011L3001.78 201.011C3015 201.011 3025.71 190.937 3025.71 178.411L3025.71 158.612C3025.71 146.085 3015 136.011 3001.78 136.011ZM3094.51 140.034C3081.29 140.034 3071.75 150.165 3070.58 162.636L3069.57 173.38C3068.41 185.856 3080.29 195.986 3093.51 195.986L3154.33 195.986C3167.54 195.986 3162.48 185.515 3159.2 173.38L3151.53 149.489C3146.24 143.778 3138.98 140.034 3130.99 140.034Z" fill="#4D4D4D" fill-rule="evenodd"/><path d="M3216.3 43.796C3221.69 383.601 3221.37 723.459 3216.3 1063.25 3211.42 1390.64 3195.11 1646.12 3048.65 1845.88 2872.23 2086.52 2578.3 2260.18 2200.22 2430.8 1822.14 2260.18 1528.21 2086.52 1351.79 1845.88 1205.33 1646.12 1189.02 1390.64 1184.14 1063.25 1179.08 723.459 1178.76 383.606 1184.14 43.796L3216.3 43.796Z" stroke="#806600" stroke-width="12.0433" stroke-miterlimit="8" fill="none" fill-rule="evenodd"/></g></svg>