<?xml version="1.0" encoding="UTF-8"?>
<svg id="UoA-Logo-Primary-RGB" xmlns="http://www.w3.org/2000/svg" version="1.1" viewBox="0 0 822 323.4">
  <defs>
    <style>
      .cls-1 {
        fill: #0c0c48;
        stroke-width: 0px;
      }
    </style>
  </defs>
  <path class="cls-1" d="M152.4,56.1h-.2c-1.8,0-6.5,0-12.6,3.9-3.6,2.3-4.5,2.8-10.1,2.8s-2.9.6-3.9,1.7-1.7,2.4-1.7,3.9v.8c0,1,.2,2.1-.7,3.8s-1.1,2-1.5,3c-.8,1.6-1.7,3.1-2.5,5h0c-.8,1.8-1.1,2.9-.9,3.2,0,0,.2.2.2.2.4,0,.8-.6,1.3-1.6.4-.6.8-1.3,1.2-2,1.8-2.6,3-3.6,4.8-5.2,1.1-.7,4.9-2.9,11.5-.4,2.6,1,4.8,1.8,6.7,4.8,1.1,1.7.9,3.8.6,5.3-.4,1.8-1.1,3.3-1.4,3.9-.5.8-1.7,1.4-3.3,1.5h-.8c-.5,0-1.1,0-1.4,0-.5,0-1.1.4-1.1,1.3v.2h21.4v-.2c-.2-1.2-1.1-1.4-1.8-1.6h-.2c0-.7.2-4.8,2.3-8.4.8-1.4,1.6-2.1,2.3-3,.3-.3.7-.7,1-1.1,2.4-2.4,3.7-5.6,3.7-9,0-7.1-5.8-12.9-12.9-12.9h-.2ZM145.2,90.5c.2-.5.9-2.8,2-5.1.8-1.7,2.3-3.5,2.5-3.8,1.2.2,2.3.9,3.1,2,.8,1,1.3,2.2,1.3,3.5s-.2,1.7-.6,2.5h0s-.5,1-1.6,1h-6.8,0ZM217.2,56.1h-.2c-1.8,0-6.5,0-12.6,3.9-3.6,2.3-4.5,2.8-10.1,2.8s-2.9.6-3.9,1.7c-1.1,1.1-1.7,2.4-1.7,3.9v.8c0,1,.2,2.1-.7,3.8-.5,1.1-1.1,2-1.5,3-.8,1.6-1.7,3.1-2.5,5h0c-.8,1.8-1.1,2.9-.9,3.2,0,0,.2.2.2.2.4,0,.8-.6,1.3-1.6.4-.6.8-1.3,1.2-2,1.8-2.6,3-3.6,4.8-5.2,1.1-.7,4.9-2.9,11.5-.4,2.6,1,4.8,1.8,6.7,4.8,1.1,1.7.9,3.8.6,5.3-.4,1.8-1.1,3.3-1.4,3.9-.5.8-1.7,1.4-3.3,1.5h-.8c-.5,0-1.1,0-1.4,0-.5,0-1.1.4-1.1,1.3v.2h21.4v-.2c-.2-1.2-1.1-1.4-1.8-1.6h-.2c0-.7.2-4.8,2.3-8.4.8-1.4,1.6-2.1,2.3-3,.3-.3.7-.7,1-1.1,2.4-2.4,3.7-5.6,3.7-9,0-7.1-5.8-12.9-12.9-12.9h-.2ZM210,90.5c.2-.5.9-2.8,2-5.1.8-1.7,2.3-3.5,2.5-3.8,1.2.2,2.3.9,3.1,2,.8,1,1.3,2.2,1.3,3.5s-.2,1.7-.6,2.5h0s-.5,1-1.6,1h-6.8,0ZM281.9,56.1h-.2c-1.8,0-6.5,0-12.6,3.9-3.6,2.3-4.5,2.8-10.1,2.8s-2.9.6-3.9,1.7-1.7,2.4-1.7,3.9v.8c0,1,.2,2.1-.7,3.8-.5,1.1-1.1,2-1.5,3-.8,1.6-1.7,3.1-2.5,5h0c-.8,1.8-1.1,2.9-.9,3.2,0,0,.2.2.2.2.4,0,.8-.6,1.3-1.6.4-.6.8-1.3,1.2-2,1.8-2.6,3-3.6,4.8-5.2,1.1-.7,4.9-2.9,11.5-.4,2.6,1,4.8,1.8,6.7,4.8,1.1,1.7.9,3.8.6,5.3-.4,1.8-1.1,3.3-1.4,3.9-.5.8-1.7,1.4-3.3,1.5h-.8c-.5,0-1.1,0-1.4,0-.5,0-1.1.4-1.1,1.3v.2h21.4v-.2c-.2-1.2-1.1-1.4-1.8-1.6h-.2c0-.7.2-4.8,2.3-8.4.8-1.4,1.6-2.1,2.3-3,.3-.3.7-.7,1-1.1,2.4-2.4,3.7-5.6,3.7-9,0-7.1-5.8-12.9-12.9-12.9h-.2ZM274.7,90.5c.2-.5.9-2.8,2-5.1.8-1.7,2.3-3.5,2.5-3.8,1.2.2,2.3.9,3.1,2,.8,1,1.3,2.2,1.3,3.5s-.2,1.7-.6,2.5h0s-.5,1-1.6,1h-6.8,0ZM206.5,39.1h-107v108c0,8.9,3.5,32.4,16.8,57.7,18.5,34.9,48.5,61.2,89.3,78.3l.9.4.9-.4c40.8-17.1,70.8-43.4,89.3-78.3,13.3-25.2,16.8-48.7,16.8-57.7V39.1h-107ZM217.3,263.2l-10.8-7.8-10.8,7.8,4.1-12.7-10.8-7.8h13.3l4.1-12.7,4.1,12.7h13.3l-10.8,7.8,4.1,12.7h0ZM268.3,209.4l-5.6,2.9c-4.9,2.5-8.9,3.6-13.5,3.6s-10.1-1.4-16.1-4.5c-2.4-1.3-5-1.9-7.6-1.9-3.9,0-8,1.5-11.1,4.1l-.2.2c1.4.5,2.5,1.9,2.5,3.6s-1.7,3.8-3.8,3.8h-12.9c-2.1,0-3.8-1.7-3.8-3.8s1.1-3,2.5-3.6l-.2-.2c-3.1-2.6-7.1-4.1-11.1-4.1s-5.2.7-7.6,1.9c-6,3.1-11.1,4.5-16.1,4.5s-8.5-1.1-13.5-3.6l-5.6-2.9v-46l2.4-1.1v45.7l4.3,2.2c4.5,2.3,8.3,3.3,12.4,3.3s9.3-1.4,15-4.3c2.8-1.4,5.8-2.2,8.7-2.2,4.5,0,9,1.7,12.6,4.6l2.2,1.8,2.9,2.4h-5c-.8,0-1.4.6-1.4,1.4s.6,1.4,1.4,1.4h12.9c.8,0,1.4-.6,1.4-1.4s-.6-1.4-1.4-1.4h-5.1l2.9-2.4,2.2-1.8c3.6-3,8.1-4.6,12.6-4.6s5.9.8,8.7,2.2c5.6,3,10.4,4.3,15,4.3s7.8-1,12.4-3.3l4.3-2.2v-45.7l2.4,1.1v46h-.2ZM153.8,205.6c3.8,2,6.7,2.8,10,2.8s7.7-1.2,12.6-3.7c3.6-1.8,7.3-2.8,11.1-2.8,5.7,0,11.4,2.1,15.9,5.8l1.7,1.4v3.1l-3.3-2.7c-4-3.3-9.2-5.3-14.4-5.3s-6.8.8-10,2.5c-5.2,2.7-9.5,4-13.7,4s-7-.9-11.1-3l-2.8-1.4v-45.3l2.4-1.1v45l1.5.8h0ZM187.4,199.1c-4,0-8.2.9-12.4,3.1-9,4.7-13.9,4.1-20.1.9v-44.7c7.7,1.8,13.8,1.1,21.6-2.3,9.4-4,19-2.7,28.5,3.8v45.6c-4.5-3.8-10.8-6.5-17.7-6.5h0ZM170.8,134.2l4.1,12.7-10.8-7.8-10.8,7.8,4.1-12.7-10.8-7.8h13.3l4.1-12.7,4.1,12.7h13.3l-10.8,7.8h0ZM259.6,146.8l-10.8-7.8-10.8,7.8,4.1-12.7-10.8-7.8h13.3l4.1-12.7,4.1,12.7h13.3l-10.8,7.8,4.1,12.7ZM236.4,156.2c7.8,3.3,13.9,4,21.6,2.3v44.7c-6.1,3.1-11,3.8-20.1-.9-4.2-2.2-8.3-3.1-12.4-3.1-6.8,0-13.1,2.7-17.7,6.5v-45.6c9.5-6.5,19.1-7.7,28.5-3.8h0ZM209.7,207.7c4.5-3.7,10.2-5.8,15.9-5.8s7.6.9,11.1,2.8c4.8,2.5,8.9,3.7,12.6,3.7s6.2-.8,10-2.8l1.5-.8v-45l2.4,1.1v45.3l-2.8,1.4c-4.2,2.1-7.5,3-11.1,3s-8.5-1.3-13.7-4c-3.2-1.7-6.6-2.5-10-2.5-5.1,0-10.3,1.9-14.4,5.3l-3.3,2.7v-3.1l1.7-1.4h0ZM308.8,103.2c-17.1,0-17.1,8.9-34.1,8.9s-17.1-9.2-34.1-9.2-17.1,9.2-34.2,9.2h0c-17.1,0-17.1-9.2-34.2-9.2s-17.1,9.2-34.1,9.2-17.1-8.9-34.1-8.9v-59.4h204.6v59.4h.2ZM379.4,218.8c-4.1,0-7.6-.7-10.4-2.1-2.8-1.4-4.9-3.5-6.4-6.2s-2.1-5.8-2.1-9.5v-30.2h8.7v29.7c0,3.6.8,6.4,2.6,8.2,1.7,1.8,4.2,2.7,7.7,2.7s5.9-.9,7.7-2.7c1.7-1.8,2.6-4.5,2.6-8.2v-29.7h8.7v30.2c0,3.7-.7,6.9-2.1,9.5s-3.6,4.7-6.4,6.1-6.3,2.1-10.4,2.1h-.2ZM406.1,218v-34.8h8.3v5.2h.2c1-1.9,2.3-3.3,4.2-4.3,1.8-1.1,3.9-1.5,6.4-1.5s4.8.5,6.7,1.6c1.8,1.1,3.3,2.7,4.2,4.7,1,2,1.4,4.5,1.4,7.5v21.7h-8.3v-20.5c0-2.5-.6-4.4-1.8-5.8s-2.9-2-5.1-2-3,.4-4.2,1.1c-1.2.8-2.1,1.7-2.7,3-.7,1.3-1,2.7-1,4.2v20h-8.3,0ZM448.8,178.8c-.9,0-1.7-.2-2.5-.6s-1.3-1-1.7-1.7-.6-1.6-.6-2.5.2-1.7.6-2.5,1-1.3,1.7-1.7,1.6-.6,2.5-.6,1.8.2,2.5.6,1.3,1,1.7,1.7c.5.8.6,1.6.6,2.5s-.2,1.7-.6,2.5c-.5.8-1,1.3-1.7,1.7-.8.4-1.6.6-2.5.6ZM444.6,218v-34.8h8.3v34.8h-8.3ZM470.8,218l-13.4-34.8h8.5l6.7,19.6c.4,1.2.8,2.5,1.2,3.7.4,1.2.7,2.3.9,3.3h.2c.2-1,.6-2.1.9-3.3.4-1.2.8-2.4,1.1-3.7l6.6-19.6h8.5l-13.2,34.8h-8ZM510.8,218.8c-3.5,0-6.5-.8-9-2.3-2.6-1.5-4.5-3.6-5.9-6.4-1.4-2.7-2-5.9-2-9.5s.7-6.8,2.1-9.6c1.4-2.7,3.4-4.8,6-6.4s5.5-2.3,8.9-2.3,6.1.8,8.6,2.2,4.3,3.5,5.6,6.1,2,5.6,2,9,0,1,0,1.6,0,1.1-.2,1.7h-24.9c.2,2,.8,3.7,1.5,5.1.8,1.4,1.8,2.3,3.1,3s2.8,1,4.5,1,2.4-.2,3.5-.6,1.9-1,2.6-1.7c.7-.8,1.1-1.6,1.4-2.7h8c-.4,2.3-1.4,4.4-2.7,6.1-1.4,1.7-3.3,3.1-5.5,4-2.2,1-4.7,1.4-7.5,1.4h-.2ZM518.7,197.1c-.2-1.7-.5-3.3-1.2-4.5-.7-1.3-1.6-2.3-2.7-3-1.2-.7-2.6-1-4.2-1s-2.9.3-4.1.8c-1.2.6-2.2,1.5-3,2.7-.8,1.3-1.4,2.9-1.7,4.8h16.9ZM533,218v-34.8h8.3v6.7h.2c.9-2.3,2.2-4,3.9-5.2,1.7-1.1,3.7-1.7,6.1-1.7s1.6,0,2,.2v7.7c-.2,0-.6-.2-.9-.2h-1.1c-2,0-3.8.4-5.3,1.2s-2.7,2-3.6,3.6c-.8,1.5-1.3,3.3-1.3,5.3v17.3h-8.3,0ZM571.7,218.8c-4.7,0-8.4-1.1-11.1-3.1-2.7-2.1-4.1-5.1-4.3-8.9h8.1c0,1.8.8,3.2,2,4.2,1.2,1.1,3,1.5,5.2,1.5s3.6-.4,4.7-1.1c1.1-.8,1.6-1.7,1.6-2.8s-.2-1.7-.8-2.3c-.5-.5-1.3-1.1-2.3-1.4-1.1-.4-2.7-.8-4.8-1.2-3.1-.6-5.5-1.3-7.3-2-1.7-.8-3.1-1.8-3.9-3.1-.8-1.3-1.3-2.9-1.3-4.9s.5-4.1,1.6-5.8c1.1-1.7,2.7-3,4.8-3.9,2.1-.9,4.7-1.4,7.7-1.4s5.4.5,7.5,1.3c2.1.8,3.7,2.1,4.9,3.8,1.1,1.7,1.8,3.7,2,6.1h-8c-.2-1.5-.8-2.7-1.8-3.6-1.1-.8-2.6-1.3-4.6-1.3s-2.3.2-3.2.5c-.9.3-1.6.8-2,1.3-.5.6-.7,1.2-.7,2s.2,1.6.7,2c.5.5,1.2.9,2.3,1.3s2.6.7,4.6,1.1c3.2.6,5.7,1.3,7.6,2,1.8.8,3.2,1.8,4.1,3.2.9,1.3,1.4,3,1.4,5.1s-.5,4.4-1.7,6.1-2.8,3-5,4c-2.2,1-4.8,1.4-8,1.4h.2ZM596.6,178.8c-.9,0-1.7-.2-2.5-.6s-1.3-1-1.7-1.7c-.4-.8-.6-1.6-.6-2.5s.2-1.7.6-2.5,1-1.3,1.7-1.7,1.6-.6,2.5-.6,1.8.2,2.5.6,1.3,1,1.7,1.7.6,1.6.6,2.5-.2,1.7-.6,2.5c-.5.8-1,1.3-1.7,1.7-.8.4-1.6.6-2.5.6ZM592.5,218v-34.8h8.3v34.8h-8.3ZM622.3,218.5c-2.7,0-4.8-.5-6.4-1.4s-2.7-2.1-3.4-3.6-1-3.3-1-5.4v-18.2h-5.8v-6.7h5.8v-9.1h8.3v9.1h7.7v6.7h-7.7v17.8c0,1.2.4,2.2,1.1,2.9.8.7,2,1,3.6,1s1.9,0,3-.2v6.4c-1.7.5-3.3.8-5.1.8h0ZM633.3,230.8v-6.7h3c1.7,0,3-.3,3.9-.8,1-.5,1.7-1.5,2.3-2.8l1-2.3-13.4-34.9h8.5l6.7,19.6c.7,2.1,1.4,4.5,2.1,7h.2c.7-2.6,1.3-4.9,2-7l6.6-19.6h8.5l-14.9,39.3c-1.1,2.8-2.7,4.8-4.7,6.2-2.1,1.4-4.9,2-8.6,2h-3.3ZM376.3,284.2c-3.3,0-6.3-.8-8.9-2.2-2.7-1.5-4.7-3.6-6.2-6.4s-2.3-5.9-2.3-9.5.8-6.7,2.2-9.5c1.4-2.7,3.6-4.9,6.2-6.4s5.7-2.3,9.1-2.3,6.4.8,9.1,2.3,4.7,3.6,6.1,6.4,2.2,5.9,2.2,9.5-.8,6.8-2.2,9.5c-1.5,2.7-3.6,4.8-6.2,6.4s-5.7,2.2-9,2.2h0ZM376.3,277.3c1.7,0,3.3-.5,4.7-1.4s2.4-2.2,3.3-3.9c.8-1.7,1.2-3.7,1.2-6.1s-.4-4.4-1.1-6.1c-.8-1.7-1.8-3-3.3-3.9s-3-1.4-4.8-1.4-3.4.5-4.8,1.4c-1.4.9-2.4,2.2-3.3,3.9-.8,1.7-1.1,3.7-1.1,6.1s.4,4.4,1.2,6.1c.8,1.7,1.9,3,3.3,3.9s3,1.4,4.7,1.4h0ZM414.7,234.1c.6,0,1.3,0,2,.2.8,0,1.4.2,2.2.4h0v6.4c-.8-.2-1.7-.2-2.6-.2-1.7,0-3,.4-3.9,1.2s-1.2,1.9-1.2,3.3v3.3h7.7v6.7h-7.7v28.1h-8.3v-28.1h-6.4v-6.7h6.4v-3.4c0-2.2.4-4.1,1.2-5.8s2.1-3,3.8-3.9c1.7-1,3.9-1.4,6.5-1.4h.2ZM437.5,283.4l17.1-47.3h10.8l17.1,47.3h-9.3l-3.7-11h-18.9l-3.8,11h-9.3ZM452.7,265.7h14.5l-5.4-15.8c-.6-1.9-1.2-3.9-1.7-6h-.2c-.5,2.1-1.1,4.1-1.7,6l-5.4,15.8h0ZM498.1,284.2c-2.6,0-4.8-.5-6.7-1.6-1.8-1.1-3.3-2.7-4.2-4.7-1-2-1.4-4.5-1.4-7.5v-21.7h8.3v20.6c0,2.5.6,4.4,1.8,5.8,1.2,1.4,2.9,2,5.1,2s3-.4,4.2-1.1c1.2-.8,2.1-1.7,2.7-3s1-2.7,1-4.2v-20.1h8.3v34.8h-8.3v-5.2h-.2c-1,1.9-2.3,3.3-4.2,4.3-1.8,1.1-3.9,1.5-6.4,1.5h0ZM540.7,284.2c-3.3,0-6.2-.7-8.9-2-2.7-1.4-4.7-3.4-6.2-6.1s-2.3-6-2.3-9.9.8-7.1,2.2-9.9c1.5-2.7,3.6-4.8,6.1-6.3,2.6-1.4,5.6-2.2,8.9-2.2s5.8.6,8.1,1.8c2.3,1.2,4.1,2.9,5.5,5,1.3,2.1,2.1,4.5,2.5,7.1h-8c-.2-1.4-.7-2.6-1.4-3.7-.7-1.1-1.5-2-2.7-2.6s-2.4-1-4-1-3.6.5-4.9,1.4c-1.4.9-2.4,2.3-3.2,4s-1.1,3.8-1.1,6.1.4,4.4,1.1,6.1c.8,1.7,1.8,3,3.2,3.9s3,1.4,4.9,1.4,2.9-.3,3.9-.9,2-1.4,2.7-2.5,1.1-2.2,1.4-3.6h8c-.4,2.7-1.2,5-2.5,7-1.3,2-3.1,3.7-5.5,4.8-2.3,1.2-5,1.8-8,1.8h0ZM562.6,283.4v-47.3h8.1v28.4l13.4-15.9h9.5l-14.2,16.4,15.4,18.3h-9.7l-14.3-17.1v17.1h-8.2ZM607.6,283.4h-8.3v-47.3h8.3v47.3ZM624.7,283.9c-2.3,0-4.2-.5-5.9-1.3s-3-2-3.8-3.6c-.9-1.5-1.3-3.3-1.3-5.4,0-3,1-5.4,3-7,2-1.7,4.7-2.8,8.2-3.3l7.9-1.2c.8,0,1.4-.2,1.8-.5.5-.2.8-.5,1-.8s.3-.8.3-1.3c0-1.1-.2-2-.8-2.7-.5-.8-1.3-1.4-2.3-1.8-1-.5-2.2-.7-3.6-.7s-2.4.2-3.4.7-1.7,1.1-2.3,1.8c-.5.8-.9,1.7-1.1,2.8h-8c.2-2.5,1-4.6,2.2-6.4,1.2-1.7,3-3.2,5.1-4.2s4.6-1.4,7.5-1.4,5.6.5,7.7,1.4c2.2,1,3.9,2.3,5,4.2s1.7,3.9,1.7,6.4v23.6h-8v-5.2h-.2c-1.1,1.9-2.5,3.3-4.3,4.2-1.8,1-4,1.5-6.5,1.5h0ZM627.2,277.6c1.8,0,3.3-.5,4.6-1.3,1.3-.8,2.3-2,3-3.4s1-3,1-4.6v-1.4c-.3.2-.8.4-1.2.5s-1.1.3-1.8.4l-6.7,1.1c-1.3.2-2.3.7-3.1,1.4s-1.2,1.7-1.2,3,.2,1.7.6,2.3c.5.7,1.1,1.2,1.9,1.6s1.7.5,2.9.5h0ZM651,283.4v-34.8h8.3v5.2h.2c1-1.9,2.3-3.3,4.2-4.3,1.8-1.1,3.9-1.5,6.4-1.5s4.8.5,6.7,1.6c1.8,1.1,3.3,2.7,4.2,4.7,1,2,1.4,4.5,1.4,7.5v21.7h-8.3v-20.5c0-2.5-.6-4.4-1.8-5.8-1.2-1.4-2.9-2-5.1-2s-3,.4-4.2,1.1c-1.2.8-2.1,1.7-2.7,3-.7,1.3-1,2.7-1,4.2v20.1h-8.3v-.2ZM702.7,284.2c-2.8,0-5.3-.7-7.5-2.1-2.2-1.4-3.9-3.5-5.2-6.2s-1.9-6-1.9-9.7.6-6.8,1.8-9.5c1.2-2.7,3-4.9,5.2-6.4s4.8-2.3,7.7-2.3,3.2.2,4.6.7c1.4.5,2.7,1.1,3.9,2s2,1.9,2.8,3.2h.2v-17.6h8.3v47.3h-8.3v-5.1h-.2c-.8,1.3-1.7,2.3-3,3.2s-2.5,1.5-3.9,2-3,.7-4.5.7h0v-.2ZM705.4,277c1.8,0,3.3-.5,4.7-1.4,1.4-.9,2.3-2.2,3.1-3.9s1.1-3.6,1.1-5.8-.4-4.2-1.1-5.8c-.8-1.7-1.7-3-3.1-3.9s-3-1.4-4.8-1.4-3.3.5-4.7,1.4c-1.4.9-2.4,2.2-3.2,3.8-.8,1.7-1.1,3.6-1.1,5.9s.4,4.2,1.1,5.8c.8,1.7,1.8,3,3.2,3.8,1.4.9,3,1.4,4.7,1.4h0ZM372.5,86.4l-13.5-47.3h4.2l10.5,37.3c.2.8.4,1.4.5,2.1.2.7.3,1.4.5,1.9h0c.2-.6.3-1.2.5-1.9s.4-1.4.6-2.1l10.8-37.3h3.6l10.8,37.3c.2.8.4,1.4.5,2.1.2.7.3,1.3.5,1.8h0c.2-.5.3-1.1.5-1.8s.3-1.4.5-2.1l10.6-37.3h4.2l-13.4,47.3h-4.2l-10.7-37.2c-.4-1.2-.7-2.5-1-3.8h-.2c-.3,1.3-.6,2.6-1,3.9l-10.8,37.2h-4.2,0ZM430.6,87.1c-2.2,0-4.1-.4-5.8-1.2s-2.9-2-3.8-3.4c-.8-1.4-1.3-3.2-1.3-5.1,0-2.9.9-5.1,2.7-6.7s4.5-2.7,8-3.1l8.3-1.2c1,0,1.8-.3,2.3-.5s.9-.6,1.2-1.1c.2-.5.4-1,.4-1.7,0-1.6-.4-3-1.1-4.2s-1.8-2-3.1-2.7c-1.4-.6-2.9-.9-4.6-.9s-3.3.3-4.6.9-2.3,1.5-3.1,2.7-1.2,2.6-1.3,4.2h-4c.2-2.3.8-4.3,1.9-6.1s2.6-3,4.5-3.9c1.9-.9,4.1-1.4,6.6-1.4s4.8.5,6.8,1.4c2,.9,3.5,2.2,4.5,3.9,1.1,1.7,1.6,3.7,1.6,6.1v23.3h-4.1v-6.9h-.2c-1,2.3-2.5,4.2-4.5,5.6-2,1.4-4.5,2-7.4,2h0ZM431.5,83.6c2.4,0,4.5-.6,6.1-1.7,1.7-1.2,3-2.7,3.8-4.7.8-2,1.2-4.1,1.2-6.4v-2.5c-.4.3-.9.6-1.5.8s-1.4.4-2.3.5l-7.8,1.1c-2.1.3-3.9.9-5.2,2-1.3,1.1-2,2.6-2,4.5s.3,2.4.9,3.4c.6,1,1.5,1.7,2.7,2.2s2.5.8,4,.8h0ZM456.7,46.4c-.6,0-1.1-.2-1.6-.4-.5-.3-.8-.7-1.1-1.1-.3-.5-.4-1-.4-1.6s.2-1.1.4-1.6c.3-.5.7-.8,1.1-1.1.5-.2,1-.4,1.6-.4s1.1.2,1.6.4.8.6,1.1,1.1c.2.5.4,1,.4,1.6s-.2,1.1-.4,1.6c-.2.5-.6.8-1.1,1.1s-1,.4-1.6.4ZM454.7,86.4v-33.9h4.2v33.9h-4.2ZM483.9,87.1c-1.7,0-3.5-.3-5.1-.9s-3-1.5-4.2-2.7-2.3-2.6-3-4.2h-.2v19.9h-4.2v-46.5h4.2v7.1h.2c.8-1.6,1.7-3,2.9-4.2,1.2-1.2,2.7-2.1,4.2-2.7s3.3-1,5.2-1c2.9,0,5.4.8,7.7,2.2s4,3.5,5.2,6.2c1.3,2.7,1.9,5.8,1.9,9.3s-.6,6.7-1.9,9.4-3,4.7-5.3,6.1c-2.3,1.4-4.8,2.1-7.6,2.1h0ZM482.9,83.4c2.2,0,4.2-.6,6-1.7s3.1-2.8,4.1-4.9c1-2.1,1.5-4.5,1.5-7.4s-.5-5.2-1.4-7.4c-1-2.1-2.3-3.7-4.1-4.9-1.7-1.1-3.8-1.7-6-1.7s-4.2.6-6,1.7-3.1,2.8-4,4.9c-1,2.1-1.4,4.5-1.4,7.3s.5,5.2,1.4,7.4,2.3,3.8,4.1,4.9,3.7,1.7,6,1.7h0l-.2.2ZM514.8,87.1c-2.2,0-4.1-.4-5.8-1.2-1.7-.8-2.9-2-3.8-3.4-.8-1.4-1.3-3.2-1.3-5.1,0-2.9.9-5.1,2.7-6.7,1.8-1.6,4.5-2.7,8-3.1l8.3-1.2c1,0,1.8-.3,2.3-.5.5-.2.9-.6,1.2-1.1.2-.5.4-1,.4-1.7,0-1.6-.4-3-1.1-4.2s-1.8-2-3.1-2.7c-1.4-.6-2.9-.9-4.6-.9s-3.3.3-4.6.9-2.3,1.5-3.1,2.7-1.2,2.6-1.3,4.2h-4c.2-2.3.8-4.3,1.9-6.1s2.6-3,4.5-3.9c1.9-.9,4.1-1.4,6.6-1.4s4.8.5,6.8,1.4c2,.9,3.5,2.2,4.5,3.9,1.1,1.7,1.6,3.7,1.6,6.1v23.3h-4.1v-6.9h-.2c-1,2.3-2.5,4.2-4.5,5.6-2,1.4-4.5,2-7.4,2h0ZM515.7,83.6c2.4,0,4.5-.6,6.1-1.7,1.7-1.2,3-2.7,3.8-4.7.8-2,1.2-4.1,1.2-6.4v-2.5c-.4.3-.9.6-1.5.8s-1.4.4-2.3.5l-7.8,1.1c-2.1.3-3.9.9-5.2,2-1.3,1.1-2,2.6-2,4.5s.3,2.4.9,3.4,1.5,1.7,2.7,2.2,2.5.8,4,.8h0ZM555.5,87.1c-1.7,0-3.5-.3-5.1-.9-1.6-.6-3-1.5-4.2-2.7s-2.3-2.6-3-4.2h-.2v19.9h-4.2v-46.5h4.2v7.1h.2c.8-1.6,1.7-3,2.9-4.2s2.7-2.1,4.2-2.7c1.6-.6,3.3-1,5.2-1,2.9,0,5.4.8,7.7,2.2s4,3.5,5.2,6.2c1.3,2.7,1.9,5.8,1.9,9.3s-.6,6.7-1.9,9.4-3,4.7-5.3,6.1c-2.3,1.4-4.8,2.1-7.6,2.1h0ZM554.5,83.4c2.2,0,4.2-.6,6-1.7,1.7-1.1,3.1-2.8,4.1-4.9,1-2.1,1.5-4.5,1.5-7.4s-.5-5.2-1.4-7.4c-1-2.1-2.3-3.7-4.1-4.9s-3.8-1.7-6-1.7-4.3.6-6,1.7c-1.7,1.1-3.1,2.8-4,4.9-1,2.1-1.4,4.5-1.4,7.3s.5,5.2,1.4,7.4c1,2.1,2.3,3.8,4.1,4.9,1.7,1.1,3.7,1.7,6,1.7h0l-.2.2ZM586.3,87.1c-2.2,0-4.1-.4-5.8-1.2-1.7-.8-2.9-2-3.8-3.4-.8-1.4-1.3-3.2-1.3-5.1,0-2.9.9-5.1,2.7-6.7,1.8-1.6,4.5-2.7,8-3.1l8.3-1.2c1,0,1.8-.3,2.3-.5.5-.2.9-.6,1.2-1.1.2-.5.4-1,.4-1.7,0-1.6-.4-3-1.1-4.2s-1.8-2-3.1-2.7c-1.4-.6-2.9-.9-4.6-.9s-3.3.3-4.6.9-2.3,1.5-3.1,2.7-1.2,2.6-1.3,4.2h-4c.2-2.3.8-4.3,1.9-6.1s2.6-3,4.5-3.9,4.1-1.4,6.6-1.4,4.8.5,6.8,1.4c2,.9,3.5,2.2,4.5,3.9,1.1,1.7,1.6,3.7,1.6,6.1v23.3h-4.1v-6.9h-.2c-1,2.3-2.5,4.2-4.5,5.6-2,1.4-4.5,2-7.4,2h0ZM587.2,83.6c2.4,0,4.5-.6,6.1-1.7,1.7-1.2,3-2.7,3.8-4.7.8-2,1.2-4.1,1.2-6.4v-2.5c-.4.3-.9.6-1.5.8s-1.4.4-2.3.5l-7.8,1.1c-2.1.3-3.9.9-5.2,2-1.3,1.1-2,2.6-2,4.5s.3,2.4.9,3.4,1.5,1.7,2.7,2.2,2.5.8,4,.8h0ZM374.1,151.2v-43.6h-15.2v-3.8h34.6v3.8h-15.2v43.6h-4.2,0ZM402.3,151.8c-2.2,0-4.1-.4-5.8-1.2s-2.9-2-3.8-3.4c-.8-1.4-1.3-3.2-1.3-5.1,0-2.9.9-5.1,2.7-6.7,1.8-1.6,4.5-2.7,8-3.1l8.3-1.2c1,0,1.8-.3,2.3-.5.5-.2.9-.6,1.2-1.1.2-.5.4-1,.4-1.7,0-1.6-.4-3-1.1-4.2s-1.8-2-3.1-2.7c-1.4-.6-2.9-.9-4.6-.9s-3.3.3-4.6.9-2.3,1.5-3.1,2.7c-.8,1.1-1.2,2.6-1.3,4.2h-4c.2-2.3.8-4.3,1.9-6.1s2.6-3,4.5-3.9c1.9-.9,4.1-1.4,6.6-1.4s4.8.5,6.8,1.4,3.5,2.2,4.5,3.9c1.1,1.7,1.6,3.7,1.6,6.1v23.3h-4.1v-6.9h-.2c-1,2.3-2.5,4.2-4.5,5.6-2,1.4-4.5,2-7.4,2h0ZM403.2,148.3c2.4,0,4.5-.6,6.1-1.7,1.7-1.2,3-2.7,3.8-4.7.8-2,1.2-4.1,1.2-6.4v-2.5c-.4.3-.9.6-1.5.8-.6.2-1.4.4-2.3.5l-7.8,1.1c-2.1.3-3.9.9-5.2,2-1.3,1.1-2,2.6-2,4.5s.3,2.4.9,3.4c.6,1,1.5,1.7,2.7,2.2s2.5.8,4,.8h0ZM438.6,151.9c-2.5,0-4.7-.5-6.5-1.6-1.8-1.1-3.2-2.6-4.2-4.6-1-2-1.4-4.5-1.4-7.4v-21h4.2v20.5c0,3.3.8,5.9,2.3,7.7,1.5,1.8,3.7,2.7,6.6,2.7s4.1-.5,5.7-1.5,2.8-2.3,3.6-4.1,1.3-3.6,1.3-5.8v-19.6h4.2v33.9h-4.2v-6.4h-.2c-1,2.2-2.4,4-4.5,5.3-2,1.3-4.4,2-7,2h0v-.2ZM463.6,151.2v-33.9h4.2v6.1h0c.5-1.4,1.3-2.7,2.3-3.6,1.1-1,2.2-1.8,3.6-2.3,1.4-.5,2.9-.8,4.5-.8,2.7,0,4.8.6,6.6,1.9,1.7,1.3,3,3,3.6,5.4h0c.9-2.3,2.3-4.2,4.2-5.4s4.1-1.8,6.7-1.8,4.4.5,6.1,1.5,3,2.4,3.9,4.3,1.4,4.2,1.4,6.7v22.1h-4.2v-21.6c0-3-.7-5.3-2.1-6.9s-3.5-2.4-6.1-2.4-3.6.5-4.9,1.4-2.4,2.1-3.1,3.8c-.7,1.6-1.1,3.5-1.1,5.7v20.2h-4.2v-21.6c0-3-.7-5.3-2.1-6.9s-3.4-2.4-6.1-2.4-3.5.5-4.8,1.4c-1.4.9-2.4,2.2-3.2,3.8-.8,1.7-1.1,3.5-1.1,5.6v20.1h-4.2,0ZM528.6,151.8c-2.2,0-4.1-.4-5.8-1.2-1.7-.8-2.9-2-3.8-3.4-.8-1.4-1.3-3.2-1.3-5.1,0-2.9.9-5.1,2.7-6.7,1.8-1.6,4.5-2.7,8-3.1l8.3-1.2c1,0,1.8-.3,2.3-.5.5-.2.9-.6,1.2-1.1.2-.5.4-1,.4-1.7,0-1.6-.4-3-1.1-4.2s-1.8-2-3.1-2.7c-1.4-.6-2.9-.9-4.6-.9s-3.3.3-4.6.9-2.3,1.5-3.1,2.7c-.8,1.1-1.2,2.6-1.3,4.2h-4c.2-2.3.8-4.3,1.9-6.1s2.6-3,4.5-3.9c1.9-.9,4.1-1.4,6.6-1.4s4.8.5,6.8,1.4,3.5,2.2,4.5,3.9c1.1,1.7,1.6,3.7,1.6,6.1v23.3h-4.1v-6.9h-.2c-1,2.3-2.5,4.2-4.5,5.6s-4.5,2-7.4,2h0ZM529.6,148.3c2.4,0,4.5-.6,6.1-1.7,1.7-1.2,3-2.7,3.8-4.7.8-2,1.2-4.1,1.2-6.4v-2.5c-.4.3-.9.6-1.5.8-.6.2-1.4.4-2.3.5l-7.8,1.1c-2.1.3-3.9.9-5.2,2s-2,2.6-2,4.5.3,2.4.9,3.4,1.5,1.7,2.7,2.2,2.5.8,4,.8h0ZM564.5,151.5c-2,0-3.8-.4-5.1-1.1s-2.2-1.7-2.8-2.9-.8-2.7-.8-4.3v-22.3h-6.2v-3.6h6.2v-9.1h4.2v9.1h8.3v3.6h-8.3v22.1c0,1.5.4,2.7,1.2,3.6.8.8,2.3,1.3,4.3,1.3s1.7,0,2.7-.2v3.4c-1.2.3-2.4.5-3.6.5h0ZM583.9,151.8c-2.2,0-4.1-.4-5.8-1.2-1.7-.8-2.9-2-3.8-3.4-.8-1.4-1.3-3.2-1.3-5.1,0-2.9.9-5.1,2.7-6.7,1.8-1.6,4.5-2.7,8-3.1l8.3-1.2c1,0,1.8-.3,2.3-.5.5-.2.9-.6,1.2-1.1.2-.5.4-1,.4-1.7,0-1.6-.4-3-1.1-4.2s-1.8-2-3.1-2.7c-1.4-.6-2.9-.9-4.6-.9s-3.3.3-4.6.9-2.3,1.5-3.1,2.7c-.8,1.1-1.2,2.6-1.3,4.2h-4c.2-2.3.8-4.3,1.9-6.1s2.6-3,4.5-3.9,4.1-1.4,6.6-1.4,4.8.5,6.8,1.4,3.5,2.2,4.5,3.9c1.1,1.7,1.6,3.7,1.6,6.1v23.3h-4.1v-6.9h-.2c-1,2.3-2.5,4.2-4.5,5.6-2,1.4-4.5,2-7.4,2h0ZM584.7,148.3c2.4,0,4.5-.6,6.1-1.7,1.7-1.2,3-2.7,3.8-4.7.8-2,1.2-4.1,1.2-6.4v-2.5c-.4.3-.9.6-1.5.8-.6.2-1.4.4-2.3.5l-7.8,1.1c-2.1.3-3.9.9-5.2,2s-2,2.6-2,4.5.3,2.4.9,3.4,1.5,1.7,2.7,2.2,2.5.8,4,.8h0ZM623,151.2v-47.3h17.6c3,0,5.5.5,7.7,1.6s3.7,2.6,4.8,4.5c1.1,2,1.7,4.2,1.7,6.8s-.5,4.6-1.4,6.6c-1,1.9-2.3,3.4-4.2,4.5s-4.2,1.8-6.8,2l13.1,21.2h-4.8l-12.9-21.1h-10.3v21.1h-4.3,0ZM639.8,126.3c3.3,0,6-.8,7.8-2.4,1.8-1.7,2.7-3.9,2.7-7s-.4-3.6-1.2-5c-.8-1.4-2-2.4-3.6-3.2-1.6-.8-3.4-1.1-5.5-1.1h-12.7v18.7h12.5,0ZM670.8,151.8c-2.2,0-4.1-.4-5.8-1.2-1.7-.8-2.9-2-3.8-3.4s-1.3-3.2-1.3-5.1c0-2.9.9-5.1,2.7-6.7,1.8-1.6,4.5-2.7,8-3.1l8.3-1.2c1,0,1.8-.3,2.3-.5.5-.2.9-.6,1.2-1.1.2-.5.4-1,.4-1.7,0-1.6-.4-3-1.1-4.2s-1.8-2-3.1-2.7c-1.4-.6-2.9-.9-4.6-.9s-3.3.3-4.6.9-2.3,1.5-3.1,2.7c-.8,1.1-1.2,2.6-1.3,4.2h-4c.2-2.3.8-4.3,1.9-6.1s2.6-3,4.5-3.9,4.1-1.4,6.6-1.4,4.8.5,6.8,1.4,3.5,2.2,4.5,3.9,1.6,3.7,1.6,6.1v23.3h-4.1v-6.9h-.2c-1,2.3-2.5,4.2-4.5,5.6-2,1.4-4.5,2-7.4,2h0ZM671.6,148.3c2.4,0,4.5-.6,6.1-1.7,1.7-1.2,3-2.7,3.8-4.7.8-2,1.2-4.1,1.2-6.4v-2.5c-.4.3-.9.6-1.5.8-.6.2-1.4.4-2.3.5l-7.8,1.1c-2.1.3-3.9.9-5.2,2s-2,2.6-2,4.5.3,2.4.9,3.4,1.5,1.7,2.7,2.2,2.5.8,4,.8h0ZM706.7,151.9c-2.5,0-4.7-.5-6.5-1.6-1.8-1.1-3.2-2.6-4.2-4.6-1-2-1.4-4.5-1.4-7.4v-21h4.2v20.5c0,3.3.8,5.9,2.3,7.7,1.5,1.8,3.7,2.7,6.6,2.7s4.1-.5,5.7-1.5,2.8-2.3,3.6-4.1c.8-1.7,1.3-3.6,1.3-5.8v-19.6h4.2v33.9h-4.2v-6.4h-.2c-1,2.2-2.4,4-4.5,5.3-2,1.3-4.4,2-7,2h0v-.2Z"/>
</svg>