<?xml version="1.0"?>
<svg width="125" height="131.5" xmlns="http://www.w3.org/2000/svg" xmlns:xlink="http://www.w3.org/1999/xlink" version="1.1">
 <desc>Logo of Bournemouth University</desc>
 <defs>
  <clipPath id="clipPath192">
   <path id="path194" d="m110.82629,1.4875l0,54.53499c0,10.42504 -6.80505,17.16001 -17.33372,17.16001l0,0c-10.53004,0 -17.33374,-6.73497 -17.33374,-17.16001l0,0l0,-42.69623l1.45123,0l0,42.69623c0,9.54255 6.23254,15.70751 15.88251,15.70751l0,0c9.64751,0 15.88,-6.16496 15.88,-15.70751l0,0l0,-42.69623l-5.89623,0l0,42.69623c0,6.03004 -3.24622,9.81125 -9.98376,9.81125l0,0c-6.73878,0 -9.98627,-3.7812 -9.98627,-9.81125l0,0l0,-48.63625l-13.21747,0l0,46.9825c0,15.01252 8.67377,23.97377 23.20374,23.97377l0,0c14.52752,0 23.20251,-8.96126 23.20251,-23.97377l0,0l0,-46.93748l1.45251,0l0,46.93748c0,15.91999 -9.21626,25.42499 -24.65503,25.42499l0,0c-15.43745,0 -24.6562,-9.50499 -24.6562,-25.42499l0,0l0,-52.87872l-5.8938,0l0,52.87872c0,18.91124 11.52124,31.32373 30.54998,31.32373l0,0c19.03002,0 30.55126,-12.41248 30.55126,-31.32373l0,0l0,-52.88124l-13.21753,0l0.00002,0z"/>
  </clipPath>
 </defs>
 <g>
   <path fill="#000000" fill-rule="nonzero" id="path106" d="m7.08868,94.41826c1.12256,0 2.2063,0.07751 3.13373,0.80751c0.78625,0.63251 1.17755,1.78749 1.17755,2.77127c0,1.81371 -0.96124,2.95496 -2.755,3.22747c1.93127,0.06123 3.04999,1.73627 3.04999,3.5475c0,1.38251 -0.70496,2.60249 -1.92621,3.25253c-0.96503,0.50499 -2.46252,0.48499 -3.52631,0.48499l-6.24243,0l0,-1.78374l1.61621,0l0,-10.54002l-1.61621,0l0,-1.76749l7.08868,0l0,-0.00002l0,-0.00001l0,0.00001zm-2.77496,1.76749l0,4.23373l1.57373,0c0.65125,0 1.57501,0 2.08875,-0.4325c0.47253,-0.41502 0.72876,-1.10123 0.72876,-1.73621c0,-0.80753 -0.25623,-1.53253 -1.02502,-1.88879c-0.59125,-0.23499 -1.61371,-0.17625 -2.24622,-0.17625l-1.12,0l0,0.00002l0,0.00002l0,-0.00002zm1.81122,10.55627c0.72876,0 1.51624,-0.01626 2.10754,-0.51252c0.57123,-0.51003 0.76874,-1.08126 0.76874,-1.83123c0,-0.74626 -0.27625,-1.43748 -0.90753,-1.85249c-0.61121,-0.39127 -1.27997,-0.34877 -1.98871,-0.34877l-1.79126,0l0,4.54501l1.81122,0"/>
   <path fill="#000000" fill-rule="nonzero" id="path110" d="m13.73187,107.01827c-0.86627,-1.08123 -1.20001,-2.46375 -1.20001,-3.82125c0,-1.47626 0.35376,-2.81624 1.37872,-3.91751c0.92499,-0.98624 2.32501,-1.49998 3.65875,-1.49998c3.37,0 5.1825,2.34376 5.1825,5.51626c0,3.03374 -1.8725,5.45123 -5.10248,5.45123c-1.41376,0 -3.03003,-0.62373 -3.91748,-1.72874m1.53882,-3.76251c0,0.86752 0.07739,1.65754 0.49121,2.44378c0.3725,0.74748 1.04382,1.31873 1.92627,1.31873c0.94623,0 1.59625,-0.66875 1.95001,-1.47498c0.29498,-0.68999 0.375,-1.59877 0.375,-2.32623c0,-0.86629 -0.08002,-1.61629 -0.47253,-2.40501c-0.37494,-0.7275 -1.00372,-1.29874 -1.89124,-1.29874c-1.88751,0 -2.37872,2.285 -2.37872,3.74249"/>
   <path fill="#000000" fill-rule="nonzero" id="path114" d="m30.35419,106.7644c-0.53375,1.34 -1.73126,1.98251 -3.13,1.98251c-1.59497,0 -2.66125,-0.90128 -3.01245,-1.98251c-0.14001,-1.14497 -0.14001,-1.55498 -0.14001,-1.85001l0,-5.20376l-1.33624,0l0,-1.67374l3.95624,0l0,6.24249c0,0.59251 -0.01752,1.28378 0.25623,1.83624c0.23749,0.49252 0.78754,0.72749 1.32001,0.72749c0.84875,0 1.375,-0.61374 1.67126,-1.3387c0.255,-0.67128 0.23633,-1.56004 0.23633,-2.2675l0,-3.52627l-1.41498,0l0,-1.67374l4.03613,0l0,8.80621l1.37878,0l0,1.66752l-3.82129,0l0,-1.74625"/>
   <path fill="#000000" fill-rule="nonzero" id="path118" d="m38.78558,100.26291c0.41248,-1.83377 1.65375,-2.57999 3.48376,-2.405l0,2.56125c-0.29626,-0.0775 -0.61127,-0.15625 -0.92249,-0.15625c-0.96753,0 -1.8125,0.59125 -2.1488,1.47751c-0.25494,0.70999 -0.25494,1.6725 -0.25494,2.40251l0,2.7l1.67499,0l0,1.66747l-5.66998,0l0,-1.66747l1.3725,0l0,-7.13126l-1.3725,0l0,-1.67501l3.83746,0l0,2.22628"/>
   <path fill="#000000" fill-rule="nonzero" id="path122" d="m46.92523,99.75265c0.66748,-1.3425 1.66998,-1.9725 3.14746,-1.9725c1.61499,0 2.83624,1.00624 3.07251,1.9725c0.13751,0.54876 0.13751,0.96001 0.13751,1.41376l0,5.67623l1.29749,0l0,1.66752l-5.13751,0l0,-1.66752l1.22125,0l0,-4.70748c0,-0.51503 0.01752,-0.93002 -0.13873,-1.44c-0.17749,-0.63 -0.70874,-1.10376 -1.39996,-1.10376c-1.90753,0 -2.02502,1.7925 -2.02502,3.2525l0,3.99874l1.25751,0l0,1.66752l-5.25623,0l0,-1.66752l1.37872,0l0,-7.13123l-1.37872,0l0,-1.675l3.82373,0l0,1.71622"/>
   <path fill="#000000" fill-rule="nonzero" id="path126" d="m57.4715,103.8079c-0.0188,1.49876 0.61249,3.23003 2.39996,3.23003c1.04626,0 1.77502,-0.70879 1.95123,-1.71127l2.50244,0c-0.17749,2.30251 -2.4624,3.41998 -4.58624,3.41998c-0.67242,0 -1.57751,-0.21748 -2.18878,-0.48998c-0.68744,-0.31125 -1.14124,-0.70627 -1.59369,-1.31624c-0.83002,-1.0625 -1.1438,-2.44377 -1.1438,-3.7625c0,-2.87625 1.63501,-5.39751 4.80627,-5.39751c1.39624,0 2.71625,0.37373 3.68121,1.39874c0.84753,0.905 1.10388,2.38498 1.16254,3.56377c0.01874,0.31499 0.05878,0.61121 0.01874,0.90873c0,0.05875 -0.01874,0.0975 -0.01874,0.15625l-6.99127,0l0.00006,0l0.00006,0l0.00001,-0.00001l0,0.00001zm4.3512,-1.51374c-0.01996,-1.18626 -0.49371,-2.87875 -1.98871,-2.87875c-1.65253,0 -2.18378,1.4975 -2.30377,2.87875l4.29248,0"/>
   <path fill="#000000" fill-rule="nonzero" id="path130" d="m69.01556,99.75265c0.67377,-1.3425 1.77502,-1.9725 3.29128,-1.9725c1.40125,0 2.42126,0.53249 2.91753,1.9725c0.57124,-1.3425 1.69373,-1.9725 3.05122,-1.9725c1.5,0 2.56128,0.68874 3.06622,1.9725c0.25629,0.64751 0.17627,1.11875 0.17627,1.63126l0,5.45875l1.28381,0l0,1.66752l-5.13879,0l0,-1.66752l1.245,0l0,-4.6675c0,-1.06747 -0.13622,-2.46371 -1.5575,-2.46371c-0.76875,0 -1.31873,0.35373 -1.65247,1.06372c-0.33752,0.68875 -0.33752,1.2825 -0.33752,2.03125l0,4.03625l1.22124,0l0,1.66745l-5.04126,0l0,-1.66745l1.20123,0l0,-4.84872c0,-0.58884 0,-1.04248 -0.25751,-1.59375c-0.19745,-0.41251 -0.70995,-0.68874 -1.16119,-0.68874c-1.10376,0 -1.69508,0.66875 -1.99005,1.65498c-0.13873,0.5125 -0.13873,1.00375 -0.13873,1.53625l0,3.93999l1.26122,0l0,1.66745l-5.25372,0l0,-1.66745l1.38,0l0,-7.13129l-1.38,0l0,-1.675l3.81371,0l0,1.71629"/>
   <path fill="#000000" fill-rule="nonzero" id="path134" d="m84.24756,107.01827c-0.86877,-1.08123 -1.20374,-2.46375 -1.20374,-3.82125c0,-1.47626 0.35376,-2.81624 1.38,-3.91751c0.92749,-0.98624 2.32373,-1.49998 3.6662,-1.49998c3.36755,0 5.17877,2.34376 5.17877,5.51626c0,3.03374 -1.87,5.45123 -5.09998,5.45123c-1.42126,0 -3.03503,-0.62373 -3.92126,-1.72874m1.53625,-3.76251c0,0.86752 0.08002,1.65754 0.49249,2.44378c0.37372,0.74748 1.04248,1.31873 1.93127,1.31873c0.94501,0 1.59625,-0.66875 1.94873,-1.47498c0.29504,-0.68999 0.37494,-1.59877 0.37494,-2.32623c0,-0.86629 -0.0799,-1.61629 -0.4762,-2.40501c-0.37,-0.7275 -1.0025,-1.29874 -1.88623,-1.29874c-1.89252,0 -2.38501,2.285 -2.38501,3.74249"/>
   <path fill="#000000" fill-rule="nonzero" id="path138" d="m100.98334,106.7644c-0.53497,1.34 -1.73877,1.98251 -3.13501,1.98251c-1.59624,0 -2.65874,-0.90128 -3.0125,-1.98251c-0.13873,-1.14497 -0.13873,-1.55498 -0.13873,-1.85001l0,-5.20376l-1.33501,0l0,-1.67374l3.95625,0l0,6.24249c0,0.59251 -0.01875,1.28378 0.255,1.83624c0.23627,0.49252 0.78748,0.72749 1.32001,0.72749c0.84747,0 1.38,-0.61374 1.67505,-1.3387c0.25366,-0.67128 0.23621,-1.56004 0.23621,-2.2675l0,-3.52627l-1.41998,0l0,-1.67374l4.03999,0l0,8.80621l1.38,0l0,1.66752l-3.82123,0l0,-1.74625"/>
   <path fill="#000000" fill-rule="nonzero" id="path142" d="m112.12109,105.75851c0,1.24001 -0.39497,2.38251 -1.69373,2.79251c-0.21497,0.07626 -0.86755,0.19624 -1.08252,0.19624c-0.47626,0 -0.75128,-0.08125 -1.2038,-0.19624c-0.90497,-0.27499 -1.39867,-0.90253 -1.59618,-1.78627c-0.09503,-0.43497 -0.07751,-1.35997 -0.07751,-1.83372l0,-5.22004l-1.55121,0l0,-1.675l1.55121,0l0,-1.79119l2.61877,-0.88129l0,2.67249l2.62244,0l0,1.675l-2.62244,0l0,6.55752c0,0.19754 0.12,0.59377 0.31744,0.67128c1.19873,0.49374 1.12379,-1.18126 1.10376,-1.89124l1.61378,0l0,0.70998"/>
   <path fill="#000000" fill-rule="nonzero" id="path146" d="m112.55573,108.51013l0,-1.66751l1.33752,0l0,-10.98373l-1.33752,0l0,-1.67499l3.95752,0l0,5.21251c0.72998,-1.16501 1.60876,-1.61629 2.98877,-1.61629c0.86621,0 1.91376,0.25629 2.50494,0.92503c0.6275,0.71124 0.72754,1.57748 0.72754,2.48376l0,5.65372l1.31995,0l0,1.66751l-5.22125,0l0,-1.66751l1.27876,0l0,-4.70749c0,-0.39499 -0.0387,-0.80998 -0.09497,-1.20374c-0.05872,-0.74875 -0.6712,-1.35876 -1.43872,-1.35876c-0.94,0 -1.47125,0.4925 -1.7887,1.34c-0.29382,0.72751 -0.27631,1.45752 -0.27631,2.22626l0,3.70375l1.27881,0l0,1.6675l-5.23633,0"/>
   <path fill="#000000" fill-rule="nonzero" id="path150" d="m0.00006,113.46867l5.86877,0l0,1.77501l-1.75122,0l0,6.69125c0,1.00372 -0.0188,1.94873 0.51251,2.81497c0.50995,0.8275 1.37494,1.18253 2.33997,1.18253c0.49249,0 0.82751,-0.0975 1.28247,-0.29626c0.72748,-0.29502 1.1413,-1.1225 1.36005,-1.82877c0.17749,-0.65376 0.13495,-1.4225 0.13495,-2.07001l0,-6.49379l-1.72998,0l0,-1.77493l5.60876,0l0,1.77493l-1.41748,0l0,6.25747c0,1.06377 0.05872,2.285 -0.375,3.2925c-0.4325,0.98001 -1.16003,1.81001 -2.0863,2.3425c-0.74622,0.45128 -2.14624,0.66876 -3.03247,0.66876c-0.86627,0 -2.12378,-0.25624 -2.8725,-0.66876c-0.82623,-0.43498 -1.4375,-1.14496 -1.8725,-1.95374c-0.57129,-1.02002 -0.55005,-2.18501 -0.55005,-3.32748l0,-6.61125l-1.41998,0l0,-1.77501"/>
   <path fill="#000000" fill-rule="nonzero" id="path154" d="m17.36957,118.8079c0.67004,-1.33751 1.67499,-1.96999 3.15253,-1.96999c1.61499,0 2.83246,1.00496 3.07123,1.96999c0.13629,0.55125 0.13629,0.96375 0.13629,1.42126l0,5.66125l1.30121,0l0,1.67876l-5.13873,0l0,-1.67876l1.22125,0l0,-4.70499c0,-0.51004 0.01996,-0.9175 -0.13751,-1.43249c-0.17749,-0.63 -0.71002,-1.10127 -1.39996,-1.10127c-1.91132,0 -2.02625,1.78749 -2.02625,3.2425l0,3.99625l1.25745,0l0,1.67876l-5.25623,0l0,-1.67876l1.38,0l0,-7.12125l-1.38,0l0,-1.675l3.81873,0l0,1.71368"/>
   <path fill="#000000" fill-rule="nonzero" id="path158" d="m25.65082,127.56866l0,-1.67751l1.40125,0l0,-7.12251l-1.40125,0l0,-1.67499l4.01752,0l0,8.7975l1.21997,0l0,1.67751l-5.23749,0zm4.1275,-12.07126l-2.61749,0l0,-2.4025l2.61749,0l0,2.4025z"/>
   <path fill="#000000" fill-rule="nonzero" id="path162" d="m30.85455,117.09404l4.92004,0l0,1.67499l-1.29504,0l1.94629,6.67001l0.01996,0l2.2063,-6.67001l-1.32001,0l0,-1.67499l4.60626,0l0,1.67499l-0.80377,0l-3.09375,8.80003l-3.24628,0l-3.11249,-8.80003l-0.82751,0l0,-1.67499z"/>
   <path fill="#000000" fill-rule="nonzero" id="path166" d="m44.75171,122.85817c-0.0188,1.49875 0.60876,3.23001 2.40253,3.23001c1.0412,0 1.76996,-0.7075 1.94623,-1.71127l2.5025,0c-0.17749,2.30751 -2.46252,3.42752 -4.58502,3.42752c-0.6712,0 -1.57751,-0.21751 -2.1875,-0.48999c-0.68872,-0.31755 -1.14374,-0.71126 -1.59375,-1.32376c-0.82874,-1.06258 -1.14374,-2.43877 -1.14374,-3.7625c0,-2.86877 1.63373,-5.39001 4.80621,-5.39001c1.3938,0 2.71252,0.37503 3.68005,1.40126c0.84625,0.90253 1.10248,2.37492 1.16248,3.55627c0.01874,0.31493 0.05878,0.61118 0.01874,0.90626c0,0.05628 -0.01874,0.09501 -0.01874,0.15627l-6.98999,0l0,-0.00002l0,-0.00003l0,-0.00001zm4.34875,-1.51375c-0.01874,-1.17627 -0.49127,-2.87127 -1.98499,-2.87127c-1.65625,0 -2.18628,1.49625 -2.30499,2.87127l4.28998,0"/>
   <path fill="#000000" fill-rule="nonzero" id="path170" d="m56.28186,119.32053c0.41376,-1.83125 1.65625,-2.5825 3.48499,-2.40501l0,2.56126c-0.29498,-0.07751 -0.60876,-0.15625 -0.92371,-0.15625c-0.96631,0 -1.8125,0.59125 -2.14752,1.4725c-0.25623,0.70746 -0.25623,1.67249 -0.25623,2.4025l0,2.69501l1.67371,0l0,1.67747l-5.66998,0l0,-1.67747l1.375,0l0,-7.12126l-1.375,0l0,-1.675l3.83875,0l0,2.22626"/>
   <path fill="#000000" fill-rule="nonzero" id="path174" d="m66.5401,120.45827c-0.12006,-1.12001 -0.53754,-2.04375 -1.79749,-2.04375c-0.84381,0 -1.63251,0.37624 -1.63251,1.33876c0,0.33623 0.09747,0.55373 0.31622,0.80249c0.17377,0.13875 0.39374,0.19749 0.58875,0.295c1.12128,0.31502 3.23254,0.47374 4.01875,1.45752c0.53252,0.64999 0.72997,1.26247 0.72997,2.08747c0.02003,0.61127 -0.25623,1.55625 -0.65125,2.10752c-0.47119,0.65249 -1.61371,1.30127 -3.09119,1.30127c-0.98627,0 -2.05005,-0.45129 -2.5813,-1.30127l0,1.06499l-1.89124,0l0,-3.64499l2.04877,0c0.07996,1.30122 0.64874,2.20616 2.04999,2.20616c0.72749,0 1.47498,-0.51239 1.47498,-1.29869c0,-0.39503 -0.12,-0.86623 -0.51245,-1.06255c-1.18256,-0.57368 -2.62,-0.43376 -3.74255,-1.18376c-0.96246,-0.66869 -1.33875,-1.57742 -1.33875,-2.73373c-0.09875,-0.86502 0.41626,-1.4975 0.68878,-1.88991c0.39502,-0.55001 1.69495,-1.12254 2.91748,-1.12254c0.90625,0 1.92876,0.39502 2.48376,1.12254l0,-0.86629l1.84998,0l0,3.36377l-1.92871,0"/>
   <path fill="#000000" fill-rule="nonzero" id="path178" d="m69.73346,127.56866l0,-1.67751l1.39874,0l0,-7.12251l-1.39874,0l0,-1.67499l4.0213,0l0,8.7975l1.21747,0l0,1.67751l-5.23877,0zm4.0213,-12.07126l-2.62256,0l0,-2.4025l2.62256,0l0,2.4025z"/>
   <path fill="#000000" fill-rule="nonzero" id="path182" d="m82.29199,124.81129c0,1.23747 -0.39252,2.38375 -1.6875,2.79623c-0.21875,0.07753 -0.86627,0.19748 -1.08374,0.19748c-0.47125,0 -0.74878,-0.08001 -1.20374,-0.19748c-0.90253,-0.27627 -1.3938,-0.90626 -1.59125,-1.79501c-0.10004,-0.4325 -0.0813,-1.3575 -0.0813,-1.83125l0,-5.2125l-1.5575,0l0,-1.675l1.5575,0l0,-1.79375l2.62006,-0.88376l0,2.67751l2.61493,0l0,1.675l-2.61493,0l0,6.55251c0,0.19753 0.12,0.59128 0.31494,0.66875c1.20129,0.49625 1.12378,-1.17874 1.10376,-1.88875l1.60876,0l0,0.71001"/>
   <path fill="#000000" fill-rule="nonzero" id="path186" d="m82.47021,117.09404l5.02252,0l0,1.67499l-1.36005,0l2.01128,5.52751l0.10004,0.25626l2.005,-5.78378l-1.29877,0l0,-1.67499l4.63995,0l0,1.67499l-0.8175,0l-3.74249,9.44875c-0.63251,1.63876 -1.24242,2.80127 -3.21252,2.80127c-0.52991,0 -1.06244,0 -1.57495,-0.09877l0,-1.81624c0.3512,0.01999 0.70746,0.05882 1.06499,0.05882c0.94373,0 1.14252,-0.31503 1.4762,-1.1201l0.1375,-0.33749l-3.60619,-8.93628l-0.84503,0l0,-1.67499"/>
   <g clip-path="url(#clipPath192)" id="svg_1">
    <path fill="#f47834" fill-rule="nonzero" id="path196" d="m58.79639,0l29.42249,0l0,1.94374l-29.42249,0l0,-1.94374z"/>
    <path fill="#f47835" fill-rule="nonzero" id="path198" d="m58.7951,0.93376l29.42249,0l0,1.94496l-29.42249,0l0,-1.94496z"/>
    <path fill="#f47835" fill-rule="nonzero" id="path200" d="m58.7951,1.86874l29.42249,0l0,1.94504l-29.42249,0l0,-1.94504z"/>
    <path fill="#f47736" fill-rule="nonzero" id="path202" d="m58.7951,2.80502l29.42371,0l0,1.94504l-29.42371,0l0,-1.94504z"/>
    <path fill="#f47737" fill-rule="nonzero" id="path204" d="m58.7951,3.73878l29.42249,0l0,1.94504l-29.42249,0l0,-1.94504z"/>
    <path fill="#f47737" fill-rule="nonzero" id="path206" d="m58.7951,4.67376l29.42249,0l0,1.94504l-29.42249,0l0,-1.94504z"/>
    <path fill="#f47638" fill-rule="nonzero" id="path208" d="m58.79639,5.60875l29.42249,0l0,1.94496l-29.42249,0l0,-1.94496z"/>
    <path fill="#f47639" fill-rule="nonzero" id="path210" d="m58.7951,6.54381l29.42249,0l0,1.94504l-29.42249,0l0,-1.94504z"/>
    <path fill="#f47639" fill-rule="nonzero" id="path212" d="m58.7951,7.47749l29.42249,0l0,1.94504l-29.42249,0l0,-1.94504z"/>
    <path fill="#f4753a" fill-rule="nonzero" id="path214" d="m58.7951,8.41255l29.42249,0l0,1.94374l-29.42249,0l0,-1.94374z"/>
    <path fill="#f4753b" fill-rule="nonzero" id="path216" d="m58.7951,9.34753l29.42249,0l0,1.94504l-29.42249,0l0,-1.94504z"/>
    <path fill="#f4753b" fill-rule="nonzero" id="path218" d="m58.7951,10.28251l29.42249,0l0,1.94374l-29.42249,0l0,-1.94374z"/>
    <path fill="#f4743c" fill-rule="nonzero" id="path220" d="m58.7951,11.21628l29.42249,0l0,1.94496l-29.42249,0l0,-1.94496z"/>
    <path fill="#f4743d" fill-rule="nonzero" id="path222" d="m58.7951,12.15255l29.42249,0l0,1.94374l-29.42249,0l0,-1.94374z"/>
    <path fill="#f3743d" fill-rule="nonzero" id="path224" d="m58.7951,13.08624l29.42249,0l0,1.94504l-29.42249,0l0,-1.94504z"/>
    <path fill="#f3733e" fill-rule="nonzero" id="path226" d="m58.7951,14.0213l29.42249,0l0,1.94496l-29.42249,0l0,-1.94496z"/>
    <path fill="#f3733e" fill-rule="nonzero" id="path228" d="m58.7951,14.95628l29.42249,0l0,1.94504l-29.42249,0l0,-1.94504z"/>
    <path fill="#f3733f" fill-rule="nonzero" id="path230" d="m58.7951,15.89126l29.42249,0l0,1.94374l-29.42249,0l0,-1.94374z"/>
    <path fill="#f37240" fill-rule="nonzero" id="path232" d="m58.7951,16.82502l29.42249,0l0,1.94496l-29.42249,0l0,-1.94496z"/>
    <path fill="#f37241" fill-rule="nonzero" id="path234" d="m58.7951,17.76001l29.42249,0l0,1.94374l-29.42249,0l0,-1.94374z"/>
    <path fill="#f37241" fill-rule="nonzero" id="path236" d="m58.7951,18.69499l29.42249,0l0,1.94504l-29.42249,0l0,-1.94504z"/>
    <path fill="#f37142" fill-rule="nonzero" id="path238" d="m58.7951,19.63005l29.42249,0l0,1.94496l-29.42249,0l0,-1.94496z"/>
    <path fill="#f37142" fill-rule="nonzero" id="path240" d="m58.7951,20.56503l29.42249,0l0,1.94504l-29.42249,0l0,-1.94504z"/>
    <path fill="#f37143" fill-rule="nonzero" id="path242" d="m58.7951,21.49879l29.42249,0l0,1.94504l-29.42249,0l0,-1.94504z"/>
    <path fill="#f37044" fill-rule="nonzero" id="path244" d="m58.7951,22.43377l29.42249,0l0,1.94496l-29.42249,0l0,-1.94496z"/>
    <path fill="#f37044" fill-rule="nonzero" id="path246" d="m58.7951,23.36876l29.42249,0l0,1.94504l-29.42249,0l0,-1.94504z"/>
    <path fill="#f36f45" fill-rule="nonzero" id="path248" d="m58.7951,24.30374l29.42249,0l0,1.94496l-29.42249,0l0,-1.94496z"/>
    <path fill="#f36f45" fill-rule="nonzero" id="path250" d="m58.7951,25.2375l29.42249,0l0,1.94496l-29.42249,0l0,-1.94496z"/>
    <path fill="#f36f46" fill-rule="nonzero" id="path252" d="m58.7951,26.17248l29.42249,0l0,1.94504l-29.42249,0l0,-1.94504z"/>
    <path fill="#f36e47" fill-rule="nonzero" id="path254" d="m58.7951,27.10754l29.42249,0l0,1.94504l-29.42249,0l0,-1.94504z"/>
    <path fill="#f36e47" fill-rule="nonzero" id="path256" d="m58.7951,28.04252l29.42249,0l0,1.94497l-29.42249,0l0,-1.94497z"/>
    <path fill="#f36e48" fill-rule="nonzero" id="path258" d="m58.7951,28.9775l29.42249,0l0,1.94505l-29.42249,0l0,-1.94505z"/>
    <path fill="#f36d48" fill-rule="nonzero" id="path260" d="m58.7951,29.91127l29.42249,0l0,1.94504l-29.42249,0l0,-1.94504z"/>
    <path fill="#f36d49" fill-rule="nonzero" id="path262" d="m58.7951,30.84625l29.42249,0l0,1.94496l-29.42249,0l0,-1.94496z"/>
    <path fill="#f36d49" fill-rule="nonzero" id="path264" d="m58.7951,31.78131l29.42249,0l0,1.94496l-29.42249,0l0,-1.94496z"/>
    <path fill="#f36c4a" fill-rule="nonzero" id="path266" d="m58.7951,32.71629l29.42249,0l0,1.94504l-29.42249,0l0,-1.94504z"/>
    <path fill="#f36c4a" fill-rule="nonzero" id="path268" d="m58.7951,33.65005l29.42249,0l0,1.94504l-29.42249,0l0,-1.94504z"/>
    <path fill="#f36c4b" fill-rule="nonzero" id="path270" d="m58.7951,34.58503l29.42249,0l0,1.94496l-29.42249,0l0,-1.94496z"/>
    <path fill="#f26b4b" fill-rule="nonzero" id="path272" d="m58.7951,35.52002l29.42249,0l0,1.94505l-29.42249,0l0,-1.94505z"/>
    <path fill="#f26b4c" fill-rule="nonzero" id="path274" d="m58.7951,36.455l29.42249,0l0,1.94374l-29.42249,0l0,-1.94374z"/>
    <path fill="#f26b4d" fill-rule="nonzero" id="path276" d="m58.7951,37.38876l29.42249,0l0,1.94496l-29.42249,0l0,-1.94496z"/>
    <path fill="#f26a4d" fill-rule="nonzero" id="path278" d="m58.7951,38.32504l29.42249,0l0,1.94504l-29.42249,0l0,-1.94504z"/>
    <path fill="#f26a4e" fill-rule="nonzero" id="path280" d="m58.7951,39.2588l29.42249,0l0,1.94496l-29.42249,0l0,-1.94496z"/>
    <path fill="#f2694e" fill-rule="nonzero" id="path282" d="m58.7951,40.19378l29.42249,0l0,1.94496l-29.42249,0l0,-1.94496z"/>
    <path fill="#f2694f" fill-rule="nonzero" id="path284" d="m58.7951,41.12877l29.42249,0l0,1.94505l-29.42249,0l0,-1.94505z"/>
    <path fill="#f2694f" fill-rule="nonzero" id="path286" d="m58.7951,42.06375l29.42249,0l0,1.94496l-29.42249,0l0,-1.94496z"/>
    <path fill="#f26850" fill-rule="nonzero" id="path288" d="m58.7951,42.99751l29.42249,0l0,1.94496l-29.42249,0l0,-1.94496z"/>
    <path fill="#f26850" fill-rule="nonzero" id="path290" d="m58.7951,43.93249l29.42249,0l0,1.94504l-29.42249,0l0,-1.94504z"/>
    <path fill="#f26751" fill-rule="nonzero" id="path292" d="m58.7951,44.86755l29.42249,0l0,1.94496l-29.42249,0l0,-1.94496z"/>
    <path fill="#f26751" fill-rule="nonzero" id="path294" d="m58.7951,45.80253l29.42249,0l0,1.94626l-29.42249,0l0,-1.94626z"/>
    <path fill="#f26752" fill-rule="nonzero" id="path296" d="m58.7951,46.73752l29.42249,0l0,1.94504l-29.42249,0l0,-1.94504z"/>
    <path fill="#f26652" fill-rule="nonzero" id="path298" d="m58.7951,47.6725l29.42249,0l0,1.94496l-29.42249,0l0,-1.94496z"/>
    <path fill="#f26653" fill-rule="nonzero" id="path300" d="m58.7951,48.60756l29.42249,0l0,1.94505l-29.42249,0l0,-1.94505z"/>
    <path fill="#f26553" fill-rule="nonzero" id="path302" d="m58.7951,49.54124l29.42249,0l0,1.94504l-29.42249,0l0,-1.94504z"/>
    <path fill="#f26553" fill-rule="nonzero" id="path304" d="m58.7951,50.4763l29.42249,0l0,1.94496l-29.42249,0l0,-1.94496z"/>
    <path fill="#f16454" fill-rule="nonzero" id="path306" d="m58.7951,51.41128l29.42249,0l0,1.94504l-29.42249,0l0,-1.94504z"/>
    <path fill="#f16454" fill-rule="nonzero" id="path308" d="m58.7951,52.34627l29.42249,0l0,1.94504l-29.42249,0l0,-1.94504z"/>
    <path fill="#f16455" fill-rule="nonzero" id="path310" d="m58.7951,53.28003l29.42249,0l0,1.94627l-29.42249,0l0,-1.94627z"/>
    <path fill="#f16355" fill-rule="nonzero" id="path314" d="m58.82281,56.34887c-0.0575,-1.02501 -0.01624,-1.40121 -0.02875,-2.13371l29.42377,0c0.01129,0.56244 -0.02625,1.48743 0.02625,1.75247l-29.42126,0.38123"/>
    <path fill="#f16356" fill-rule="nonzero" id="path318" d="m58.92169,57.84416c-0.07623,-1.01875 -0.15125,-2.21252 -0.12744,-2.69379l29.42242,0c-0.02246,0.81627 0.05756,0.91254 0.09003,1.18629l-29.38501,1.50749"/>
    <path fill="#f16356" fill-rule="nonzero" id="path322" d="m59.04248,59.34067l-0.22748,-3.11127l29.42249,-0.29121l0.1087,0.765l-29.30371,2.63748z"/>
    <path fill="#f16256" fill-rule="nonzero" id="path326" d="m59.18408,60.83374l-0.27124,-3.10875l29.38873,-1.41875l0.065,0.765l-29.1825,3.7625l0.00001,0z"/>
    <path fill="#f16257" fill-rule="nonzero" id="path330" d="m59.34772,62.32292l-0.31622,-3.10371l29.3125,-2.54501l0.02002,0.77126l-29.0163,4.87746l0,-0.00001l0,0.00001z"/>
    <path fill="#f16157" fill-rule="nonzero" id="path334" d="m59.66632,63.85017c-0.32623,-1.08871 -0.37622,-2.09747 -0.49371,-3.13622l29.19244,-3.67126c0.01758,0.2475 -0.0437,0.55374 0.08258,0.69496l-28.78131,6.11252"/>
    <path fill="#f16158" fill-rule="nonzero" id="path338" d="m60.06909,65.38986c-0.25873,-1.05621 -0.6275,-2.16003 -0.73499,-3.18626l29.03125,-4.78752c-0.01501,0.26756 0.15002,0.3788 0.1825,0.58006l-28.47876,7.39373"/>
    <path fill="#f16158" fill-rule="nonzero" id="path342" d="m60.50006,66.9255l-0.86377,-3.2l28.80255,-6.00876l0.17999,0.54626l-28.11877,8.66249l0,0.00002l0,-0.00001z"/>
    <path fill="#f16058" fill-rule="nonzero" id="path346" d="m60.96021,68.45139l-0.92499,-3.18626l28.50623,-7.28875l0.12128,0.56252l-27.70251,9.91249l0,0l-0.00001,0z"/>
    <path fill="#f16059" fill-rule="nonzero" id="path350" d="m61.52295,69.96262c-0.5,-1.04501 -0.71625,-2.09747 -1.05872,-3.15872l28.15125,-8.56256c0.065,0.16129 0.00745,0.43251 0.11871,0.53253l-27.21124,11.18876"/>
    <path fill="#f15f59" fill-rule="nonzero" id="path354" d="m62.24445,71.46904c-0.49872,-1.04 -1.05872,-2.08748 -1.32373,-3.14003l27.73999,-9.81369c-0.02252,0.23872 0.1375,0.29373 0.2038,0.4187l-26.62006,12.53502"/>
    <path fill="#f15f5a" fill-rule="nonzero" id="path358" d="m63.00122,72.96066l-1.53625,-3.11752l27.25751,-11.08124l0.23755,0.345l-25.9588,13.85376l-0.00001,0z"/>
    <path fill="#f15f5a" fill-rule="nonzero" id="path362" d="m63.78986,74.4329l-1.60504,-3.08624l26.67126,-12.42623l0.16626,0.3775l-25.23248,15.13496l0,0.00001z"/>
    <path fill="#f15e5b" fill-rule="nonzero" id="path366" d="m64.65533,75.86617c-0.67249,-0.96249 -1.16119,-2.005 -1.71625,-3.02502l26.01373,-13.74874l0.14001,0.38377l-24.4375,16.39"/>
    <path fill="#f15e5b" fill-rule="nonzero" id="path370" d="m65.69537,77.22339c-0.74127,-0.9325 -1.46754,-1.87247 -1.97003,-2.90749l25.29248,-15.03376c-0.00494,0.17998 0.12627,0.22125 0.21503,0.28625l-23.53748,17.65499"/>
    <path fill="#f15d5b" fill-rule="nonzero" id="path374" d="m66.76959,78.55888l-2.19624,-2.80499l24.50629,-16.28498l0.25873,0.21248l-22.56879,18.8775l0,-0.00001l0.00002,0l-0.00001,0z"/>
    <path fill="#f15d5c" fill-rule="nonzero" id="path378" d="m67.87543,79.86987l-2.26501,-2.75623l23.61127,-17.55501l0.19128,0.26254l-21.53754,20.0487z"/>
    <path fill="#f15d5c" fill-rule="nonzero" id="path382" d="m69.0401,81.11252c-0.85876,-0.80624 -1.58752,-1.75499 -2.35876,-2.65878l22.6488,-18.7825l0.1637,0.28999l-20.45374,21.15128"/>
    <path fill="#f15c5c" fill-rule="nonzero" id="path386" d="m70.33881,82.21851c-0.9187,-0.75002 -1.81622,-1.51376 -2.55371,-2.45377l21.62244,-19.95495c0.00385,0.14496 0.13879,0.16869 0.24628,0.2137l-19.315,22.19502"/>
    <path fill="#f15c5d" fill-rule="nonzero" id="path390" d="m71.66821,83.2953l-2.73126,-2.27249l20.54254,-21.065l0.30627,0.15625l-18.11755,23.18124z"/>
    <path fill="#f15b5d" fill-rule="nonzero" id="path394" d="m73.02197,84.34253l-2.78754,-2.21249l19.40881,-22.1125l0.25,0.21751l-16.87128,24.10748l0.00002,0l-0.00001,0z"/>
    <path fill="#f15b5d" fill-rule="nonzero" id="path398" d="m74.40747,85.30927c-0.98376,-0.60501 -1.91125,-1.37749 -2.84625,-2.09753l18.21497,-23.10623l0.23499,0.26001l-15.6037,24.94374"/>
    <path fill="#f15b5e" fill-rule="nonzero" id="path402" d="m75.86493,86.09792c-1.02374,-0.52251 -2.02496,-1.07376 -2.95245,-1.83876l16.97247,-24.03501c0.02753,0.13374 0.18872,0.15877 0.33881,0.19379l-14.35883,25.67997"/>
    <path fill="#f15a5e" fill-rule="nonzero" id="path406" d="m77.34332,86.85714l-3.05249,-1.61124l15.70251,-24.88374l0.42371,0.13626l-13.07373,26.35872z"/>
    <path fill="#f15a5e" fill-rule="nonzero" id="path410" d="m78.83624,87.58228l-3.09003,-1.5475l14.46252,-25.62378l0.38623,0.20004l-11.75874,26.97124l0,0.00001l0.00002,-0.00001z"/>
    <path fill="#f1595f" fill-rule="nonzero" id="path414" d="m80.33887,88.26103c-1.04498,-0.43999 -2.08624,-0.95501 -3.11626,-1.465l13.18005,-26.30502l0.36871,0.25879l-10.4325,27.51123"/>
    <path fill="#f0595f" fill-rule="nonzero" id="path418" d="m81.84521,88.72237c-1.04749,-0.27125 -2.08875,-0.65376 -3.13,-1.19624l11.86499,-26.92501c0.0863,0.12254 0.25745,0.17999 0.48749,0.18127l-9.22247,27.93998"/>
    <path fill="#f05860" fill-rule="nonzero" id="path422" d="m83.36371,89.15939l-3.1463,-0.9375l10.53003,-27.47499l0.60498,0.09369l-7.98871,28.3188z"/>
    <path fill="#f05860" fill-rule="nonzero" id="path426" d="m84.88959,89.56714l-3.16632,-0.88123l9.3213,-27.90749l0.58508,0.14748l-6.74004,28.64124l-0.00002,0z"/>
    <path fill="#f05760" fill-rule="nonzero" id="path430" d="m86.42047,89.94801l-3.17877,-0.8225l8.08875,-28.29001l0.57129,0.20621l-5.48126,28.9063l-0.00001,0z"/>
    <path fill="#f05761" fill-rule="nonzero" id="path434" d="m87.91095,90.17265c-1.005,-0.05376 -2.08624,-0.37125 -3.14496,-0.6375l6.84119,-28.61626c0.19629,0.05753 0.34381,0.20126 0.65002,0.15372l-4.34625,29.10004"/>
    <path fill="#f05661" fill-rule="nonzero" id="path438" d="m89.38794,90.32402c-1.03625,-0.13 -2.02625,-0.14127 -3.09125,-0.40501l5.58246,-28.88874c0.18506,0.09499 0.51752,0.01373 0.76379,0.04997l-3.255,29.24376"/>
    <path fill="#f05661" fill-rule="nonzero" id="path442" d="m90.86743,90.45341l-3.07623,-0.29251l4.43494,-29.08752l0.79883,0.03632l-2.15753,29.34372l0,0l-0.00001,0l0,-0.00002l0,0.00001z"/>
    <path fill="#f05661" fill-rule="nonzero" id="path446" d="m92.35059,90.56328l-3.08253,-0.25124l3.34254,-29.23249l0.79498,0.07874l-1.05499,29.40498l0,0.00001z"/>
    <path fill="#f05562" fill-rule="nonzero" id="path450" d="m93.83136,90.64629l-3.08252,-0.20249l2.24506,-29.33754l0.79376,0.11505l0.0437,29.42498z"/>
    <path fill="#f05562" fill-rule="nonzero" id="path454" d="m95.31207,90.55591c-1.02876,0.10503 -2.05371,0.10503 -3.08125,0l1.14381,-29.4025c0.26373,0.07751 0.53119,0.07751 0.79498,0l1.14246,29.4025"/>
    <path fill="#f05462" fill-rule="nonzero" id="path458" d="m96.79395,90.44364l-3.08374,0.20249l0.04626,-29.42498l0.79376,-0.11497l2.24371,29.33745l0.00002,0.00002l-0.00001,-0.00001z"/>
    <path fill="#f05463" fill-rule="nonzero" id="path462" d="m98.27472,90.31177l-3.08368,0.25124l-1.05255,-29.40502l0.7937,-0.07874l3.34253,29.23252z"/>
    <path fill="#f05363" fill-rule="nonzero" id="path466" d="m99.75171,90.16042l-3.07874,0.2925l-2.15376,-29.34376l0.79877,-0.03624l4.43372,29.0875l0.00001,0z"/>
    <path fill="#f05363" fill-rule="nonzero" id="path470" d="m101.24585,89.91863c-1.06378,0.26375 -2.05377,0.27626 -3.08997,0.40501l-3.25378,-29.24248c0.245,-0.03754 0.57751,0.04372 0.76123,-0.05005l5.58252,28.88752"/>
    <path fill="#f05264" fill-rule="nonzero" id="path474" d="m102.77661,89.53542c-1.0575,0.26626 -2.13873,0.58376 -3.1438,0.6375l-4.34619,-29.1c0.30499,0.04745 0.45251,-0.09628 0.64868,-0.15373l6.84131,28.61623"/>
    <path fill="#f05264" fill-rule="nonzero" id="path478" d="m104.30249,89.12529l-3.17877,0.825l-5.48248,-28.90873l0.57129,-0.205l8.08997,28.28873l-0.00001,0z"/>
    <path fill="#f05164" fill-rule="nonzero" id="path482" d="m105.81982,88.68591l-3.16498,0.88123l-6.74127,-28.63873l0.58502,-0.14999l9.32123,27.90749z"/>
    <path fill="#f05165" fill-rule="nonzero" id="path486" d="m107.32495,88.21953l-3.14502,0.94003l-7.98871,-28.31879l0.60248,-0.09377l10.53125,27.47252l0,0.00002l0,-0.00002l0,0.00001z"/>
    <path fill="#f05065" fill-rule="nonzero" id="path490" d="m108.83008,87.52612c-1.04248,0.5425 -2.08374,0.925 -3.13123,1.19624l-9.22375,-27.93998c0.22876,-0.0013 0.40125,-0.05875 0.48627,-0.18127l11.86871,26.92501"/>
    <path fill="#f05065" fill-rule="nonzero" id="path494" d="m110.32172,86.79615c-1.02997,0.50999 -2.07251,1.025 -3.11626,1.465l-10.43501,-27.51126l0.36871,-0.25871l13.18256,26.30497"/>
    <path fill="#f04f66" fill-rule="nonzero" id="path498" d="m111.79761,86.03439l-3.08997,1.54749l-11.76001,-26.97001l0.38623,-0.19875l14.46375,25.62127l0,-0.00002l0,0.00002z"/>
    <path fill="#f04f66" fill-rule="nonzero" id="path502" d="m113.25269,85.24342l-3.05122,1.61372l-13.07623,-26.35872l0.42371,-0.13626l15.70374,24.88126l-0.00002,0l0.00002,0z"/>
    <path fill="#f04e66" fill-rule="nonzero" id="path506" d="m114.63208,84.25716c-0.92749,0.76627 -1.92877,1.31874 -2.95374,1.84126l-14.36127,-25.68123c0.15125,-0.03381 0.31122,-0.06004 0.33997,-0.19249l16.97504,24.03247"/>
    <path fill="#f04e67" fill-rule="nonzero" id="path510" d="m115.98334,83.20976c-0.93628,0.71999 -1.86249,1.49376 -2.84753,2.09999l-15.60626,-24.94378l0.23633,-0.26123l18.21748,23.10501"/>
    <path fill="#f04e67" fill-rule="nonzero" id="path514" d="m117.30908,82.13066l-2.78748,2.21001l-16.87256,-24.10501l0.25134,-0.21873l19.40868,22.11372l0.00002,0.00001z"/>
    <path fill="#ef4d67" fill-rule="nonzero" id="path518" d="m118.60547,81.02242l-2.73004,2.27248l-18.11993,-23.18123l0.30621,-0.15625l20.54376,21.065z"/>
    <path fill="#ef4c68" fill-rule="nonzero" id="path522" d="m119.75781,79.7649c-0.73755,0.93749 -1.63374,1.70124 -2.55377,2.45377l-19.31622,-22.19625c0.10754,-0.04379 0.24371,-0.06882 0.24757,-0.21255l21.62244,19.95502"/>
    <path fill="#ef4c68" fill-rule="nonzero" id="path526" d="m120.86011,78.4539c-0.76874,0.90374 -1.49872,1.85248 -2.35748,2.65877l-20.4538,-21.1525l0.16382,-0.28999l22.64746,18.78373"/>
    <path fill="#ef4b68" fill-rule="nonzero" id="path530" d="m121.93311,77.11353l-2.26624,2.75375l-21.53625,-20.04627l0.18872,-0.26245l23.61377,17.55497z"/>
    <path fill="#ef4b69" fill-rule="nonzero" id="path534" d="m122.96948,75.75363l-2.19629,2.80499l-22.56873,-18.87745l0.26001,-0.21255l24.505,16.28502l0,0l0.00002,-0.00001l-0.00001,0z"/>
    <path fill="#ef4a69" fill-rule="nonzero" id="path538" d="m123.81787,74.31328c-0.50244,1.03748 -1.22748,1.97498 -1.96997,2.91l-23.53754,-17.65625c0.08875,-0.06378 0.22002,-0.10628 0.21503,-0.28503l25.29248,15.03128"/>
    <path fill="#ef4a69" fill-rule="nonzero" id="path542" d="m124.60406,72.84103c-0.55621,1.02 -1.04375,2.06249 -1.71753,3.02251l-24.43616,-16.38874l0.13867,-0.38376l26.01501,13.75"/>
    <path fill="#ef4969" fill-rule="nonzero" id="path546" d="m125.35754,71.34689l-1.60497,3.08624l-25.23126,-15.13496l0.16626,-0.3788l26.66998,12.42752l-0.00002,0l0.00001,0z"/>
    <path fill="#ef496a" fill-rule="nonzero" id="path550" d="m126.07629,69.84297l-1.53497,3.1175l-25.95752,-13.85373l0.23627,-0.3463l27.25623,11.08252l-0.00002,0.00002l0.00001,-0.00001z"/>
    <path fill="#ef486a" fill-rule="nonzero" id="path554" d="m126.62134,68.32954c-0.26373,1.05247 -0.82251,2.09999 -1.32373,3.13998l-26.61877,-12.53628c0.06628,-0.12375 0.22632,-0.1812 0.2038,-0.4187l27.73872,9.81499"/>
    <path fill="#ef486a" fill-rule="nonzero" id="path558" d="m127.07886,66.80367c-0.34131,1.06245 -0.55878,2.11371 -1.05878,3.16124l-27.21252,-11.19126c0.11255,-0.10002 0.05499,-0.36995 0.12,-0.53375l28.15131,8.56377"/>
    <path fill="#ef476b" fill-rule="nonzero" id="path562" d="m127.50757,65.26779l-0.92371,3.18375l-27.70374,-9.91371l0.12244,-0.56252l28.505,7.29248l0.00001,0z"/>
    <path fill="#ef466b" fill-rule="nonzero" id="path566" d="m127.90759,63.72566l-0.86372,3.2l-28.12006,-8.66371l0.18127,-0.54626l28.80249,6.00998l0,-0.00001l0.00002,0z"/>
    <path fill="#ef466b" fill-rule="nonzero" id="path570" d="m128.2088,62.20199c-0.10748,1.02623 -0.47498,2.12996 -0.7337,3.18747l-28.47998,-7.3925c0.03247,-0.20248 0.19873,-0.31372 0.1825,-0.5825l29.0312,4.78752"/>
    <path fill="#ef456b" fill-rule="nonzero" id="path574" d="m128.37134,60.71274c-0.11749,1.03996 -0.16748,2.04749 -0.49377,3.13622l-28.78253,-6.11244c0.12628,-0.1413 0.06635,-0.44624 0.08258,-0.69626l29.19373,3.67249"/>
    <path fill="#ef456c" fill-rule="nonzero" id="path578" d="m128.51263,59.21867l-0.31622,3.10371l-29.01752,-4.87746l0.01997,-0.77248l29.31377,2.54623l0,0.00001l0,-0.00001z"/>
    <path fill="#ef446c" fill-rule="nonzero" id="path582" d="m128.63013,57.72323l-0.27002,3.10997l-29.18372,-3.76244l0.06499,-0.765l29.38875,1.41747z"/>
    <path fill="#ef446c" fill-rule="nonzero" id="path586" d="m128.7276,56.22787l-0.22626,3.11127l-29.30499,-2.63626l0.1087,-0.76378l29.42255,0.28877z"/>
    <path fill="#ef436d" fill-rule="nonzero" id="path590" d="m128.74884,55.14999c0.02502,0.48126 -0.05127,1.67503 -0.1275,2.69379l-29.38501,-1.50879c0.03253,-0.27122 0.1125,-0.36873 0.08875,-1.185l29.42377,0"/>
    <path fill="#ef436d" fill-rule="nonzero" id="path594" d="m128.74884,54.21516c-0.01251,0.7325 0.02875,1.10748 -0.02747,2.13371l-29.42255,-0.38123c0.05249,-0.26498 0.01501,-1.18996 0.02625,-1.75247l29.42377,0"/>
    <path fill="#ef426d" fill-rule="nonzero" id="path596" d="m128.74884,55.22629l-29.42377,0l0,-1.94627l29.42377,0l0,1.94627z"/>
    <path fill="#ef426d" fill-rule="nonzero" id="path598" d="m128.74884,54.2913l-29.42377,0l0,-1.94627l29.42377,0l0,1.94627z"/>
    <path fill="#ef416e" fill-rule="nonzero" id="path600" d="m128.74884,53.35624l-29.42377,0l0,-1.94495l29.42377,0l0,1.94495z"/>
    <path fill="#ef406e" fill-rule="nonzero" id="path602" d="m128.74884,52.42126l-29.42377,0l0,-1.94626l29.42377,0l0,1.94626z"/>
    <path fill="#ef406e" fill-rule="nonzero" id="path604" d="m128.74884,51.48628l-29.42377,0l0,-1.94626l29.42377,0l0,1.94626z"/>
    <path fill="#ef3f6f" fill-rule="nonzero" id="path606" d="m128.74884,50.5513l-29.42377,0l0,-1.94504l29.42377,0l0,1.94504z"/>
    <path fill="#ef3e6f" fill-rule="nonzero" id="path608" d="m128.74884,49.61624l-29.42377,0l0,-1.94626l29.42377,0l0,1.94626z"/>
    <path fill="#ef3e6f" fill-rule="nonzero" id="path610" d="m128.74884,48.68126l-29.42377,0l0,-1.94495l29.42377,0l0,1.94495z"/>
    <path fill="#ee3d6f" fill-rule="nonzero" id="path612" d="m128.74884,47.74627l-29.42377,0l0,-1.94504l29.42377,0l0,1.94504z"/>
    <path fill="#ee3d70" fill-rule="nonzero" id="path614" d="m128.74884,46.81251l-29.42377,0l0,-1.94627l29.42377,0l0,1.94627z"/>
    <path fill="#ee3c70" fill-rule="nonzero" id="path616" d="m128.74884,45.87753l-29.42377,0l0,-1.94496l29.42377,0l0,1.94496z"/>
    <path fill="#ee3b70" fill-rule="nonzero" id="path618" d="m128.74884,44.94255l-29.42377,0l0,-1.94504l29.42377,0l0,1.94504z"/>
    <path fill="#ee3b71" fill-rule="nonzero" id="path620" d="m128.74884,44.00749l-29.42377,0l0,-1.94496l29.42377,0l0,1.94496z"/>
    <path fill="#ee3a71" fill-rule="nonzero" id="path622" d="m128.74884,43.0738l-29.42377,0l0,-1.94495l29.42377,0l0,1.94495z"/>
    <path fill="#ee3a71" fill-rule="nonzero" id="path624" d="m128.74884,42.13875l-29.42377,0l0,-1.94505l29.42377,0l0,1.94505z"/>
    <path fill="#ee3971" fill-rule="nonzero" id="path626" d="m128.74884,41.20376l-29.42377,0l0,-1.94505l29.42377,0l0,1.94505z"/>
    <path fill="#ee3872" fill-rule="nonzero" id="path628" d="m128.74884,40.27l-29.42377,0l0,-1.94505l29.42377,0l0,1.94505z"/>
    <path fill="#ee3772" fill-rule="nonzero" id="path630" d="m128.74884,39.33502l-29.42377,0l0,-1.94496l29.42377,0l0,1.94496z"/>
    <path fill="#ee3772" fill-rule="nonzero" id="path632" d="m128.74884,38.40004l-29.42377,0l0,-1.94504l29.42377,0l0,1.94504z"/>
    <path fill="#ee3672" fill-rule="nonzero" id="path634" d="m128.74884,37.46505l-29.42377,0l0,-1.94495l29.42377,0l0,1.94495z"/>
    <path fill="#ee3573" fill-rule="nonzero" id="path636" d="m128.74884,36.52999l-29.42377,0l0,-1.94504l29.42377,0l0,1.94504z"/>
    <path fill="#ee3573" fill-rule="nonzero" id="path638" d="m128.74884,35.59501l-29.42377,0l0,-1.94504l29.42377,0l0,1.94504z"/>
    <path fill="#ee3473" fill-rule="nonzero" id="path640" d="m128.74884,34.66003l-29.42377,0l0,-1.94496l29.42377,0l0,1.94496z"/>
    <path fill="#ee3374" fill-rule="nonzero" id="path642" d="m128.74884,33.72627l-29.42377,0l0,-1.94496l29.42377,0l0,1.94496z"/>
    <path fill="#ee3274" fill-rule="nonzero" id="path644" d="m128.74884,32.79129l-29.42377,0l0,-1.94504l29.42377,0l0,1.94504z"/>
    <path fill="#ee3174" fill-rule="nonzero" id="path646" d="m128.74884,31.85631l-29.42377,0l0,-1.94496l29.42377,0l0,1.94496z"/>
    <path fill="#ee3174" fill-rule="nonzero" id="path648" d="m128.74884,30.92253l-29.42377,0l0,-1.94495l29.42377,0l0,1.94495z"/>
    <path fill="#ee3074" fill-rule="nonzero" id="path650" d="m128.74884,29.98749l-29.42377,0l0,-1.94504l29.42377,0l0,1.94504z"/>
    <path fill="#ee2f75" fill-rule="nonzero" id="path652" d="m128.74884,29.0525l-29.42377,0l0,-1.94496l29.42377,0l0,1.94496z"/>
    <path fill="#ee2e75" fill-rule="nonzero" id="path654" d="m128.74884,28.11752l-29.42377,0l0,-1.94504l29.42377,0l0,1.94504z"/>
    <path fill="#ee2d75" fill-rule="nonzero" id="path656" d="m128.74884,27.18254l-29.42377,0l0,-1.94504l29.42377,0l0,1.94504z"/>
    <path fill="#ee2c75" fill-rule="nonzero" id="path658" d="m128.74884,26.24756l-29.42377,0l0,-1.94496l29.42377,0l0,1.94496z"/>
    <path fill="#ee2c76" fill-rule="nonzero" id="path660" d="m128.74884,25.3125l-29.42377,0l0,-1.94504l29.42377,0l0,1.94504z"/>
    <path fill="#ee2b76" fill-rule="nonzero" id="path662" d="m128.74884,24.37874l-29.42377,0l0,-1.94504l29.42377,0l0,1.94504z"/>
    <path fill="#ee2a76" fill-rule="nonzero" id="path664" d="m128.74884,23.44375l-29.42377,0l0,-1.94496l29.42377,0l0,1.94496z"/>
    <path fill="#ee2976" fill-rule="nonzero" id="path666" d="m128.74884,22.50877l-29.42377,0l0,-1.94504l29.42377,0l0,1.94504z"/>
    <path fill="#ed2877" fill-rule="nonzero" id="path668" d="m128.74884,21.57501l-29.42377,0l0,-1.94504l29.42377,0l0,1.94504z"/>
    <path fill="#ed2777" fill-rule="nonzero" id="path670" d="m128.74884,20.64003l-29.42377,0l0,-1.94496l29.42377,0l0,1.94496z"/>
    <path fill="#ed2677" fill-rule="nonzero" id="path672" d="m128.74884,19.70505l-29.42377,0l0,-1.94496l29.42377,0l0,1.94496z"/>
    <path fill="#ed2577" fill-rule="nonzero" id="path674" d="m128.74884,18.76999l-29.42377,0l0,-1.94504l29.42377,0l0,1.94504z"/>
    <path fill="#ed2477" fill-rule="nonzero" id="path676" d="m128.74884,17.835l-29.42377,0l0,-1.94496l29.42377,0l0,1.94496z"/>
    <path fill="#ed2378" fill-rule="nonzero" id="path678" d="m128.74884,16.90124l-29.42377,0l0,-1.94496l29.42377,0l0,1.94496z"/>
    <path fill="#ed2278" fill-rule="nonzero" id="path680" d="m128.74884,15.96504l-29.42377,0l0,-1.94496l29.42377,0l0,1.94496z"/>
    <path fill="#ed2078" fill-rule="nonzero" id="path682" d="m128.74884,15.03128l-29.42377,0l0,-1.94496l29.42377,0l0,1.94496z"/>
    <path fill="#ed1f78" fill-rule="nonzero" id="path684" d="m128.74884,14.0963l-29.42377,0l0,-1.94504l29.42377,0l0,1.94504z"/>
    <path fill="#ed1e79" fill-rule="nonzero" id="path686" d="m128.74884,13.16124l-29.42377,0l0,-1.94504l29.42377,0l0,1.94504z"/>
    <path fill="#ed1d79" fill-rule="nonzero" id="path688" d="m128.74884,12.22625l-29.42377,0l0,-1.94496l29.42377,0l0,1.94496z"/>
    <path fill="#ed1c79" fill-rule="nonzero" id="path690" d="m128.74884,11.29249l-29.42377,0l0,-1.94496l29.42377,0l0,1.94496z"/>
    <path fill="#ed1a79" fill-rule="nonzero" id="path692" d="m128.74884,10.35751l-29.42377,0l0,-1.94504l29.42377,0l0,1.94504z"/>
    <path fill="#ed1979" fill-rule="nonzero" id="path694" d="m128.74884,9.42253l-29.42377,0l0,-1.94496l29.42377,0l0,1.94496z"/>
    <path fill="#ed177a" fill-rule="nonzero" id="path696" d="m128.74884,8.48755l-29.42377,0l0,-1.94504l29.42377,0l0,1.94504z"/>
    <path fill="#ed167a" fill-rule="nonzero" id="path698" d="m128.74884,7.55378l-29.42377,0l0,-1.94504l29.42377,0l0,1.94504z"/>
    <path fill="#ed147a" fill-rule="nonzero" id="path700" d="m128.74884,6.6188l-29.42377,0l0,-1.94496l29.42377,0l0,1.94496z"/>
    <path fill="#ed137a" fill-rule="nonzero" id="path702" d="m128.74884,5.68374l-29.42377,0l0,-1.94496l29.42377,0l0,1.94496z"/>
    <path fill="#ed117a" fill-rule="nonzero" id="path704" d="m128.74884,4.74876l-29.42377,0l0,-1.94504l29.42377,0l0,1.94504z"/>
    <path fill="#ed0f7b" fill-rule="nonzero" id="path706" d="m128.74884,3.81378l-29.42377,0l0,-1.94496l29.42377,0l0,1.94496z"/>
    <path fill="#ed0d7b" fill-rule="nonzero" id="path708" d="m128.74884,2.8788l-29.42377,0l0,-1.94504l29.42377,0l0,1.94504z"/>
    <path fill="#ed0b7b" fill-rule="nonzero" id="path710" d="m128.74884,1.94504l-29.42377,0l0,-1.94504l29.42377,0l0,1.94504z"/>
   </g>
   <path fill="#000000" fill-rule="nonzero" id="path722" d="m0.00006,1.49154l25.46381,0c13.96124,0 20.43872,1.34003 26.46747,8.04253c3.685,3.79745 4.91498,8.82126 4.91498,13.62495c0,6.36375 -2.90747,12.84248 -9.6037,16.63879c13.28619,4.68872 13.62,15.74501 13.62,19.20746c0,6.59004 -2.565,13.8475 -7.58881,17.97626c-7.59369,6.37249 -13.065,7.14874 -27.02747,7.14874l-26.24628,0l0,-82.63874l0,0.00001zm20.21503,31.38l7.48376,0c2.90247,0 8.9325,0 8.9325,-6.58875c0,-6.25504 -5.6925,-6.25504 -8.9325,-6.25504l-7.48376,0l0,12.84378l0,0.00001zm0,32.72377l9.9375,0c2.685,0 10.50128,0 10.50128,-7.93129c0,-7.14622 -7.1488,-7.14622 -10.50128,-7.14622l-9.9375,0l0,15.07751"/>
 </g>
</svg>