<?xml version="1.0" encoding="utf-8"?>
<!-- Generator: Adobe Illustrator 24.2.1, SVG Export Plug-In . SVG Version: 6.00 Build 0)  -->
<svg version="1.1" id="Layer_1" xmlns="http://www.w3.org/2000/svg" xmlns:xlink="http://www.w3.org/1999/xlink" x="0px" y="0px"
	 viewBox="0 0 683.6 133.4" style="enable-background:new 0 0 683.6 133.4;" xml:space="preserve">
<style type="text/css">
	.st0{fill:#626273;}
	.st1{fill:#231F20;}
</style>
<path class="st0" d="M98.4,85.4H81.3c-0.2,6.8-0.5,14.8-1.2,22.5h14.6C96.6,101.1,97.8,93.3,98.4,85.4 M78.3,109.6h-7.3v16.1h5
	C76.8,121.8,77.6,116.4,78.3,109.6 M87.3,125.8c2.9-4.1,5.3-9.7,7.1-16.1H80c-0.6,6-1.3,11.7-2.3,16.1H87.3L87.3,125.8z
	 M111.1,107.9c3-6.8,5-14.6,6.1-22.5h-17.1c-0.6,7.9-1.8,15.6-3.6,22.5H111.1L111.1,107.9L111.1,107.9z M131.3,83.7
	c0.8-4,1.2-8.1,1.2-12.3c0,0,0-0.1,0-0.1h-12.7v0.1c0,4.1-0.2,8.2-0.7,12.3H131.3L131.3,83.7L131.3,83.7z M79.6,85.4h-8.7v22.5h7.5
	C79,101.5,79.4,93.9,79.6,85.4 M79.8,71.4v-0.1h-8.9v12.4h8.8C79.8,79.8,79.8,75.7,79.8,71.4 M99,71.4v-0.1H81.5v0.1
	c0,2.3,0,6.8-0.1,12.3h17.1C98.8,79.6,99,75.5,99,71.4 M120.5,107.9c4.9-6.6,8.5-14.3,10.4-22.5h-12.1c-1.1,7.9-3,15.6-6,22.5H120.5
	z M117.4,83.7c0.5-4.1,0.7-8.2,0.7-12.3v-0.1h-17.4v0.1c0,4.1-0.1,8.2-0.4,12.3H117.4z M71.1,132.9c0.7,0,1.4,0,2.1-0.1
	c0.8-0.7,1.6-2.5,2.4-5.4h-4.6v5.4H71.1z M85.9,127.5h-8.7c-0.6,2.2-1.3,4-2,5.3c1.5-0.1,3-0.3,4.4-0.5
	C82,131.4,84.1,129.7,85.9,127.5 M84.2,131.5c4-0.9,7.9-2.1,11.5-3.7c0.1-0.1,0.3-0.2,0.4-0.3H88C86.8,129.1,85.5,130.4,84.2,131.5
	 M96,109.6c-1.8,6.3-4,11.9-6.8,16.1h9.2c4.9-4.1,8.9-9.7,11.9-16.1H96L96,109.6z M102.4,124.3c6.5-3.8,12.1-8.8,16.8-14.7h-7.1
	C109.6,115.2,106.4,120.3,102.4,124.3"/>
<path class="st0" d="M34.5,48.4h17.2c0.2-6.8,0.5-15,1.2-22.8H38.1C36.4,32.6,35.1,40.4,34.5,48.4 M54.8,23.9h7.4V7.6h-5
	C56.3,11.6,55.5,17.1,54.8,23.9 M45.7,7.6c-3,4.2-5.3,9.8-7.1,16.3h14.5c0.6-6.1,1.3-11.8,2.3-16.3H45.7z M21.7,25.6
	c-3,6.9-5.1,14.7-6.2,22.8h17.2c0.7-8,1.9-15.8,3.7-22.8H21.7z M1.2,50.1C0.4,54.1,0,58.3,0,62.5c0,0,0,0.1,0,0.1h12.9v-0.1
	c0-4.1,0.2-8.3,0.7-12.4H1.2L1.2,50.1z M53.5,48.4h8.8V25.6h-7.6C54.1,32.1,53.7,39.8,53.5,48.4 M53.3,62.5v0.1h9V50.1h-8.8
	C53.3,54.1,53.3,58.2,53.3,62.5 M33.9,62.5v0.1h17.6v-0.1c0-2.4,0-6.9,0.1-12.4H34.4C34.1,54.2,33.9,58.4,33.9,62.5 M12.1,25.6
	C7.2,32.3,3.6,40,1.6,48.4h12.2c1.1-8,3.1-15.8,6-22.8H12.1L12.1,25.6z M15.3,50.1c-0.5,4.1-0.8,8.3-0.8,12.4c0,0,0,0.1,0,0.1h17.6
	v-0.1c0-4.1,0.2-8.3,0.4-12.4H15.3L15.3,50.1L15.3,50.1z M62.1,0.4c-0.7,0-1.4,0-2.1,0c-0.8,0.7-1.6,2.5-2.4,5.4h4.6V0.4H62.1
	 M47.1,5.8h8.8c0.6-2.2,1.3-4,2.1-5.3c-1.5,0.1-3,0.2-4.5,0.5C51.1,1.9,49,3.6,47.1,5.8 M48.9,1.8c-4.1,0.9-8,2.1-11.7,3.8
	c-0.1,0.1-0.3,0.2-0.4,0.3H45C46.2,4.3,47.5,2.9,48.9,1.8 M36.9,23.9c1.8-6.4,4.1-12,6.9-16.3h-9.2c-5,4.2-9,9.8-12,16.3H36.9z
	 M30.4,9.1C23.9,13,18.2,18,13.5,23.9h7.1C23.2,18.2,26.5,13.2,30.4,9.1"/>
<path class="st0" d="M88.6,42.8c-2.1-0.6-4.3,1.4-4.9,4.3c-0.6,2.9,0.6,5.7,2.7,6.3c2.1,0.5,4.3-1.4,4.9-4.3
	C92,46.1,90.8,43.3,88.6,42.8"/>
<path class="st0" d="M86.5,26.2c2.1,0.5,4.3-1.4,4.9-4.3c0.6-3-0.6-5.7-2.7-6.3c-2.1-0.6-4.3,1.4-4.9,4.3
	C83.1,22.9,84.3,25.7,86.5,26.2"/>
<path class="st0" d="M107.6,18.9c1-0.3,1.8-0.7,2.6-1.2c0.3-0.2,0.6-0.4,1-0.6c-2-1.2-9.3-5.5-9.9-5.8c-0.4,0.5-3.3,5.8-4.2,7.2
	c1.2,0.4,2.4,0.7,3.6,0.9C103.2,19.7,105.4,19.5,107.6,18.9"/>
<path class="st0" d="M101.4,36.9c0.6-0.2,0.9-0.9,0.7-1.5c-0.2-0.6-0.9-0.9-1.5-0.7c-0.6,0.2-0.9,0.9-0.7,1.5
	C100.1,36.8,100.7,37.1,101.4,36.9"/>
<path class="st0" d="M101.4,9.8c0.6-0.2,0.9-0.9,0.7-1.5c-0.2-0.6-0.9-0.9-1.5-0.7C100,7.8,99.7,8.4,99.9,9
	C100.1,9.7,100.7,10,101.4,9.8"/>
<path class="st0" d="M71.1,62.5h62.2V0.3H71.1V62.5z M96.1,18.1l4.3-7.2c-0.7-0.2-1.4-0.7-1.6-1.4c-0.4-1.2,0.2-2.5,1.4-2.9
	c1.2-0.4,2.5,0.2,2.9,1.4c0.3,1-0.1,2.1-0.9,2.6l10.3,6c0.3-0.1,0.6-0.2,0.9-0.2c1.1-0.1,2.4,0.3,2.9,1.3c0.5,1,0.5,2.7-0.2,3.6
	c-0.5,0.6-1.1,1.1-1.7,1.6c0.2-0.8,0.1-1.5-0.1-2.1c-0.3,0.3-0.5,0.6-0.8,0.8c0,0.1-0.1,0.2-0.1,0.2c0,0.9-0.3,1.7-0.9,2.6
	c-0.8,0.6-1.7,1.2-2.7,1.7c0.6-0.9,0.9-1.8,1-2.8c-0.4,0.2-0.8,0.4-1.2,0.6c-0.2,1.2-1,2.3-2.1,3.3c-1,0.4-2.1,0.7-3.3,1
	c0.9-0.9,1.7-2,1.9-3.3c-0.4,0.1-0.8,0.2-1.2,0.2c-0.4,1.4-1.5,2.6-2.6,3.4c-1,0.2-1.9,0.3-3,0.4c1.1-1,2-2.3,2.1-3.8
	c-0.8-0.1-1.1,0.2-1.4,0.9c-0.2,0.6-0.6,1.2-1.1,1.7c-0.4,0.5-1.1,1.2-1.8,1.2c-0.4,0-0.8,0-1.2,0c-0.8,0-1.7-0.1-2.5-0.2
	C96.3,26.3,98.1,22.6,96.1,18.1C96.1,18.1,96.2,18.1,96.1,18.1L96.1,18.1L96.1,18.1L96.1,18.1z M82.7,19.7c0.4-2.1,1.5-3.8,3-4.7
	c1-0.6,2.1-0.8,3.2-0.5c0.6,0.1,1.1,0.4,1.5,0.8c1.4,0.9,2.8,1.6,4.1,2.2c0.5,0.2,0.7,1.3,0.9,1.7c0.2,0.7,0.4,1.3,0.4,2
	c0.1,1.3-0.1,2.7-0.8,3.9c-0.3,0.6-0.7,1.2-1.1,1.7c-0.4,0.5-0.9,1-1.5,1.3c-0.5,0.3-1.1,0.4-1.7,0.3c-1.2-0.2-2.5-0.5-3.7-0.8
	c-0.3,0-0.5-0.1-0.8-0.1C83.5,26.8,81.9,23.3,82.7,19.7 M92.4,55.2c-0.5,0.3-1.1,0.4-1.7,0.3c-1.2-0.3-2.5-0.5-3.7-0.8
	c-0.3,0-0.5-0.1-0.8-0.1c-2.7-0.7-4.2-4.2-3.5-7.8c0.4-2.1,1.5-3.8,3-4.7c1-0.6,2.1-0.8,3.2-0.5c0.6,0.1,1.1,0.4,1.5,0.8
	c1.4,0.9,2.8,1.6,4.1,2.2c0.5,0.2,0.7,1.3,0.9,1.7c0.2,0.7,0.4,1.3,0.4,2c0.1,1.4-0.1,2.7-0.8,3.9c-0.3,0.6-0.7,1.2-1.1,1.7
	C93.5,54.4,93,54.9,92.4,55.2 M116.1,48.3c-0.5,0.6-1.1,1.1-1.7,1.6c0.2-0.8,0.1-1.5-0.1-2.1c-0.3,0.3-0.5,0.6-0.8,0.8
	c0,0.1-0.1,0.2-0.1,0.2c0,0.9-0.3,1.7-0.9,2.6c-0.8,0.6-1.7,1.2-2.7,1.7c0.6-0.9,0.9-1.8,1-2.8c-0.4,0.2-0.8,0.4-1.2,0.6
	c-0.2,1.2-1,2.3-2.1,3.3c-1,0.4-2.1,0.7-3.3,1c0.9-0.9,1.7-2,1.9-3.3c-0.4,0.1-0.8,0.2-1.2,0.2c-0.4,1.4-1.5,2.6-2.6,3.4
	c-1,0.2-1.9,0.3-3,0.4c1.1-1,2-2.3,2.1-3.8c-0.8-0.1-1.1,0.2-1.4,0.9c-0.2,0.6-0.6,1.2-1.1,1.7c-0.4,0.5-1.1,1.2-1.8,1.2
	c-0.4,0-0.8,0-1.2,0c-0.8,0-1.7-0.1-2.5-0.2c2.8-2.4,4.6-6.2,2.6-10.7c0,0,0,0,0.1,0l0,0l4.3-7.2c-0.7-0.2-1.4-0.7-1.6-1.4
	c-0.4-1.2,0.2-2.5,1.4-2.9c1.2-0.4,2.5,0.2,2.9,1.4c0.3,1-0.1,2.1-0.9,2.6l10.3,6c0.3-0.1,0.6-0.2,0.9-0.2c1.1-0.1,2.4,0.3,2.9,1.3
	C116.9,45.7,116.9,47.4,116.1,48.3 M117.8,45.8c-0.1-0.7-0.3-1.3-0.8-2c-0.7-1.1-1.9-1.6-3.4-1.6c3.7-3.6,5.5-7.9,6.7-7.6
	C121.4,34.8,121.1,40.4,117.8,45.8 M117.8,18.7c-0.1-0.7-0.3-1.3-0.8-2c-0.7-1-1.9-1.6-3.4-1.6c3.7-3.6,5.5-7.9,6.7-7.6
	C121.4,7.7,121.1,13.3,117.8,18.7"/>
<path class="st0" d="M97.2,45.6c1.2,0.4,2.4,0.7,3.6,0.9c2.3,0.3,4.6,0.2,6.8-0.5c1-0.3,1.8-0.7,2.6-1.2c0.3-0.2,0.6-0.4,1-0.6
	c-2-1.2-9.3-5.5-9.9-5.8C101,38.8,98.1,44.1,97.2,45.6"/>
<path class="st0" d="M17.5,93.6c-1,0.5-2,0.9-2.7,0.9H12v1.3h2.8c0.9,0,2-0.5,3.2-1c1.5-0.7,3.2-1.4,4.9-1.4c2.3,0,4.4,1,4.5,1.1V93
	c-0.9-0.4-2.6-1-4.5-1C20.9,92.1,19,92.9,17.5,93.6"/>
<path class="st0" d="M45.4,114.2c-1.5-0.7-3.4-1.6-5.5-1.6c-1.9,0-3.6,0.6-4.5,1v1.4c0.2-0.1,2.2-1.1,4.5-1.1c1.8,0,3.5,0.8,5,1.4
	c1.2,0.6,2.3,1,3.2,1h2.9v-1.3h-2.9C47.4,115.1,46.5,114.7,45.4,114.2"/>
<path class="st0" d="M45.4,103.9c-1.5-0.7-3.4-1.6-5.5-1.6c-1.9,0-3.6,0.6-4.5,1v1.4c0.2-0.1,2.2-1.1,4.5-1.1c1.8,0,3.5,0.8,5,1.5
	c1.2,0.6,2.3,1,3.2,1h2.9v-1.3h-2.9C47.4,104.8,46.5,104.4,45.4,103.9"/>
<path class="st0" d="M45.4,109.3c-1.5-0.7-3.4-1.6-5.5-1.6c-1.9,0-3.6,0.6-4.5,1v1.4c0.2-0.1,2.2-1.1,4.5-1.1c1.8,0,3.5,0.8,5,1.4
	c1.2,0.6,2.3,1,3.2,1h2.9v-1.3h-2.9C47.4,110.2,46.5,109.8,45.4,109.3"/>
<path class="st0" d="M17.5,88.5c-1,0.5-2,0.9-2.7,0.9H12v1.3h2.8c0.9,0,2-0.5,3.2-1c1.5-0.7,3.2-1.4,4.9-1.4c2.3,0,4.4,1,4.5,1.1
	v-1.4c-0.9-0.4-2.6-1-4.5-1C20.9,86.9,19,87.8,17.5,88.5"/>
<path class="st0" d="M17.5,114.2c-1,0.5-2,0.9-2.7,0.9H12v1.3h2.8c0.9,0,2-0.5,3.2-1c1.5-0.7,3.2-1.4,4.9-1.4c2.3,0,4.4,1,4.5,1.1
	v-1.4c-0.9-0.4-2.6-1-4.5-1C20.9,112.6,19,113.5,17.5,114.2"/>
<path class="st0" d="M17.5,98.7c-1,0.5-2,0.9-2.7,0.9H12v1.3h2.8c0.9,0,2-0.5,3.2-1c1.5-0.7,3.2-1.4,4.9-1.4c2.3,0,4.4,1,4.5,1.1
	v-1.4c-0.9-0.4-2.6-1-4.5-1C20.9,97.1,19,98,17.5,98.7"/>
<path class="st0" d="M17.5,103.9c-1,0.5-2,0.9-2.7,0.9H12v1.3h2.8c0.9,0,2-0.5,3.2-1c1.5-0.7,3.2-1.5,4.9-1.5c2.3,0,4.4,1,4.5,1.1
	v-1.4c-0.9-0.4-2.6-1-4.5-1C20.9,102.3,19,103.2,17.5,103.9"/>
<path class="st0" d="M17.5,109.3c-1,0.5-2,0.9-2.7,0.9H12v1.3h2.8c0.9,0,2-0.5,3.2-1c1.5-0.7,3.2-1.4,4.9-1.4c2.3,0,4.4,1,4.5,1.1
	v-1.4c-0.9-0.4-2.6-1-4.5-1C20.9,107.7,19,108.6,17.5,109.3"/>
<path class="st0" d="M45.4,98.7c-1.5-0.7-3.4-1.6-5.5-1.6c-1.9,0-3.6,0.6-4.5,1v1.4c0.2-0.1,2.2-1.1,4.5-1.1c1.8,0,3.5,0.8,5,1.4
	c1.2,0.5,2.3,1,3.2,1h2.9v-1.3h-2.9C47.4,99.6,46.5,99.2,45.4,98.7"/>
<path class="st0" d="M0.1,133.4h62.2V71.3H0.1V133.4z M9.2,114.4H5.8c-0.8,0-1.4-0.7-1.4-1.4c0-0.8,0.6-1.4,1.4-1.4h3.3V114.4z
	 M9.2,107.3H5.8c-0.8,0-1.4-0.6-1.4-1.4c0-0.8,0.6-1.4,1.4-1.4h3.3V107.3z M9.2,100.6H5.8c-0.8,0-1.4-0.6-1.4-1.4
	c0-0.8,0.6-1.4,1.4-1.4h3.3V100.6z M9.2,93.4H5.8c-0.8,0-1.4-0.7-1.4-1.4c0-0.8,0.6-1.4,1.4-1.4h3.3V93.4z M30.7,120.9
	c-1.3-0.8-4.4-2.6-6.6-2.6c-3.9,0-5.4,2.5-9,2.5c-2.4,0-5.3-0.3-5.3-0.3V84.6c0,0,3,0.3,5.3,0.3c2.4,0,4.7-2.2,8.9-2.2
	c2.2,0,5.3,1.6,6.6,2.3L30.7,120.9L30.7,120.9z M47.6,120.8c-3.6,0-3.6-2.5-9.1-2.5c-2.3,0-5.4,1.9-6.6,2.7V85.1
	c1.2-0.7,4.4-2.4,6.6-2.4c3.9,0,6.4,2.2,8.7,2.2c2.4,0,5.6-0.3,5.6-0.3l0,35.9C52.9,120.5,50,120.8,47.6,120.8 M56.6,110.7h-3v-2.9
	h3c0.8,0,1.4,0.7,1.4,1.4C58,110,57.4,110.7,56.6,110.7 M56.6,104L56.6,104l-3,0v-2.9h3c0.8,0,1.4,0.6,1.4,1.4
	C58,103.3,57.4,104,56.6,104 M56.6,97.1h-3v-2.9h3v0c0.8,0,1.4,0.6,1.4,1.4C58,96.4,57.4,97.1,56.6,97.1"/>
<path class="st0" d="M45.4,88.5c-1.5-0.7-3.4-1.6-5.5-1.6c-1.9,0-3.6,0.6-4.5,1v1.4c0.2-0.1,2.2-1.1,4.5-1.1c1.8,0,3.5,0.8,5,1.4
	c1.2,0.6,2.3,1,3.2,1h2.9v-1.3h-2.9C47.4,89.4,46.5,88.9,45.4,88.5"/>
<path class="st0" d="M45.4,93.6c-1.5-0.7-3.4-1.5-5.5-1.5c-1.9,0-3.6,0.6-4.5,1v1.4c0.2-0.1,2.2-1.1,4.5-1.1c1.8,0,3.5,0.8,5,1.4
	c1.2,0.6,2.3,1,3.2,1h2.9v-1.3h-2.9C47.4,94.5,46.5,94.1,45.4,93.6"/>
<path class="st1" d="M199.5,25.9c0,2-0.2,3.9-0.7,5.7c-0.5,1.8-1.2,3.4-2.3,4.8c-1.1,1.4-2.5,2.5-4.2,3.3c-1.7,0.8-3.8,1.2-6.3,1.2
	c-2.5,0-4.6-0.4-6.3-1.2c-1.7-0.8-3.1-1.9-4.2-3.3c-1.1-1.4-1.8-3-2.3-4.8c-0.5-1.8-0.7-3.7-0.7-5.7V3.1h3.4V25
	c0,1.3,0.1,2.7,0.4,4.2c0.2,1.5,0.7,2.9,1.4,4.2c0.7,1.3,1.7,2.3,3,3.2c1.3,0.8,3,1.2,5.2,1.2c2.2,0,3.9-0.4,5.2-1.2
	c1.3-0.8,2.3-1.9,3-3.2c0.7-1.3,1.2-2.7,1.4-4.2c0.2-1.5,0.4-2.9,0.4-4.2V3.1h3.4L199.5,25.9L199.5,25.9z"/>
<polygon class="st1" points="211.9,3.1 216.3,3.1 238.8,35.5 238.9,35.5 238.9,3.1 242.3,3.1 242.3,40.1 237.9,40.1 215.4,7.7 
	215.3,7.7 215.3,40.1 211.9,40.1 211.9,3.1 "/>
<rect x="255" y="3.1" class="st1" width="3.4" height="36.9"/>
<polygon class="st1" points="267.7,3.1 271.4,3.1 283.3,35.5 295.3,3.1 298.9,3.1 284.9,40.1 281.4,40.1 "/>
<polygon class="st1" points="307.9,3.1 330.5,3.1 330.5,6.3 311.4,6.3 311.4,19.4 329.3,19.4 329.3,22.5 311.4,22.5 311.4,36.9 
	331.4,36.9 331.4,40.1 307.9,40.1 "/>
<path class="st1" d="M343.1,3.1h9.7c0.5,0,1.1,0,2,0.1c0.8,0,1.7,0.1,2.7,0.3c1,0.2,2,0.5,3,0.8c1,0.4,1.9,0.9,2.7,1.7
	c0.8,0.7,1.5,1.7,2,2.8c0.5,1.1,0.8,2.5,0.8,4.1c0,1.8-0.3,3.2-0.9,4.4c-0.6,1.1-1.4,2.1-2.3,2.8c-0.9,0.7-1.9,1.2-3.1,1.6
	c-1.1,0.3-2.2,0.6-3.2,0.7l10.7,17.7h-3.9L353,22.5h-6.4v17.5h-3.4V3.1z M346.5,19.4h7.3c1.8,0,3.3-0.2,4.4-0.7c1.1-0.5,2-1,2.6-1.7
	c0.6-0.7,1.1-1.4,1.3-2.1c0.2-0.8,0.3-1.5,0.3-2.1c0-0.6-0.1-1.3-0.3-2.1c-0.2-0.8-0.6-1.5-1.3-2.1c-0.6-0.7-1.5-1.2-2.6-1.7
	c-1.1-0.5-2.6-0.7-4.4-0.7h-7.3V19.4z"/>
<path class="st1" d="M379,33.2c0.9,1.6,2.1,2.7,3.5,3.5c1.4,0.8,3.1,1.1,4.9,1.1c1.1,0,2.2-0.2,3.2-0.5c1-0.3,1.9-0.8,2.6-1.5
	c0.7-0.6,1.3-1.4,1.8-2.3c0.4-0.9,0.6-1.9,0.6-3c0-1.3-0.3-2.4-0.8-3.2c-0.5-0.8-1.3-1.5-2.2-2.1c-0.9-0.5-1.9-1-3-1.4
	c-1.1-0.4-2.3-0.8-3.5-1.1c-1.2-0.4-2.4-0.8-3.5-1.3c-1.1-0.5-2.1-1.1-3-1.9c-0.9-0.8-1.6-1.8-2.2-2.9c-0.5-1.2-0.8-2.6-0.8-4.4
	c0-1.6,0.3-3.1,1-4.4c0.6-1.3,1.5-2.3,2.6-3.2c1.1-0.8,2.4-1.5,3.8-1.9c1.4-0.4,2.9-0.7,4.5-0.7c2,0,3.9,0.4,5.6,1.1
	c1.7,0.7,3.2,1.9,4.5,3.6l-3,2.1c-0.9-1.2-1.9-2.1-3.1-2.7c-1.2-0.6-2.5-0.9-4.1-0.9c-1.1,0-2.2,0.1-3.2,0.4c-1,0.3-1.9,0.7-2.6,1.3
	c-0.7,0.6-1.3,1.3-1.8,2.2c-0.5,0.9-0.7,1.9-0.7,3.1c0,1.8,0.5,3.3,1.4,4.3c0.9,1,2.1,1.8,3.5,2.3c1.4,0.6,2.9,1.1,4.6,1.5
	c1.7,0.4,3.2,1,4.6,1.7c1.4,0.7,2.6,1.7,3.5,3.1c0.9,1.3,1.4,3.1,1.4,5.4c0,1.7-0.3,3.1-0.9,4.4c-0.6,1.3-1.5,2.4-2.5,3.3
	c-1.1,0.9-2.3,1.6-3.7,2c-1.4,0.5-2.8,0.7-4.3,0.7c-2.4,0-4.7-0.4-6.7-1.3c-2-0.9-3.8-2.3-5.3-4.3L379,33.2z"/>
<rect x="410.8" y="3.1" class="st1" width="3.4" height="36.9"/>
<polygon class="st1" points="436.7,6.3 424.1,6.3 424.1,3.1 452.7,3.1 452.7,6.3 440.1,6.3 440.1,40.1 436.7,40.1 436.7,6.3 "/>
<polygon class="st1" points="471,24.1 457.4,3.1 461.5,3.1 472.7,20.7 484.1,3.1 488,3.1 474.4,24.1 474.4,40.1 471,40.1 "/>
<path class="st1" d="M504.3,28c0-1.8,0.3-3.5,0.9-5.1c0.6-1.5,1.5-2.9,2.6-4c1.1-1.1,2.4-2,4-2.6c1.6-0.6,3.3-0.9,5.1-0.9
	c1.8,0,3.5,0.3,5.1,0.9c1.5,0.6,2.9,1.5,4,2.6c1.1,1.1,2,2.5,2.6,4c0.6,1.5,0.9,3.2,0.9,5.1c0,1.8-0.3,3.5-0.9,5.1
	c-0.6,1.6-1.5,2.9-2.6,4c-1.1,1.1-2.5,2-4,2.6c-1.6,0.6-3.2,0.9-5.1,0.9c-1.8,0-3.5-0.3-5.1-0.9c-1.6-0.6-2.9-1.5-4-2.6
	c-1.1-1.1-2-2.5-2.6-4C504.7,31.5,504.3,29.9,504.3,28 M507.5,28c0,1.4,0.2,2.6,0.7,3.8c0.4,1.2,1.1,2.2,1.9,3.1
	c0.8,0.9,1.8,1.6,3,2.1c1.2,0.5,2.5,0.8,4,0.8c1.5,0,2.8-0.3,4-0.8c1.2-0.5,2.2-1.2,3-2.1c0.8-0.9,1.5-1.9,1.9-3.1
	c0.4-1.2,0.7-2.5,0.7-3.8c0-1.4-0.2-2.6-0.7-3.8c-0.4-1.2-1.1-2.2-1.9-3.1c-0.8-0.9-1.8-1.6-3-2.1c-1.2-0.5-2.5-0.8-4-0.8
	c-1.5,0-2.8,0.3-4,0.8c-1.2,0.5-2.2,1.2-3,2.1c-0.8,0.9-1.5,1.9-1.9,3.1C507.7,25.4,507.5,26.7,507.5,28"/>
<path class="st1" d="M540.1,18.8h-5V16h5V8.1c0-1.6,0.2-2.9,0.7-3.9c0.5-1,1.1-1.9,1.7-2.5c0.7-0.6,1.5-1.1,2.3-1.3
	c0.8-0.3,1.7-0.4,2.4-0.4c1.5,0,2.7,0.2,3.6,0.6l-0.6,2.7c-0.7-0.4-1.6-0.5-2.8-0.5c-2.8,0-4.2,2.1-4.2,6.4V16h5.6v2.8h-5.6v21.3
	h-3.1V18.8z"/>
<path class="st1" d="M172.5,64h19.2c2.5,0,5,0.2,7.6,0.6c2.6,0.4,4.9,1.3,6.9,2.5c2,1.3,3.7,3.1,5,5.3c1.3,2.3,1.9,5.3,1.9,9.1
	c0,3.4-1,6.3-3,8.8c-2,2.5-5,4.2-8.9,5v0.2c2.2,0.2,4.2,0.7,6,1.6c1.8,0.8,3.4,2,4.7,3.4c1.3,1.4,2.3,3.1,3.1,5
	c0.7,1.9,1.1,4.1,1.1,6.4c0,3.8-0.7,6.9-2.2,9.3c-1.5,2.4-3.3,4.3-5.5,5.7c-2.2,1.4-4.6,2.3-7.2,2.8c-2.6,0.5-5,0.7-7.3,0.7h-21.2
	L172.5,64L172.5,64z M178.7,92.7h12.9c3.2,0,5.8-0.4,7.8-1.2c2-0.8,3.6-1.7,4.7-2.9c1.1-1.1,1.9-2.3,2.3-3.6
	c0.4-1.3,0.6-2.5,0.6-3.5c0-2.3-0.4-4.2-1.2-5.8c-0.8-1.5-1.8-2.8-3.2-3.7c-1.3-0.9-2.8-1.6-4.6-1.9c-1.7-0.4-3.6-0.6-5.5-0.6h-13.7
	V92.7z M178.7,124.8h14.2c3.6,0,6.6-0.4,8.8-1.3c2.2-0.9,3.9-2,5.1-3.3c1.2-1.3,2-2.7,2.4-4.2c0.4-1.5,0.6-2.8,0.6-4
	c0-2.4-0.5-4.5-1.4-6.3c-0.9-1.8-2.2-3.2-3.7-4.3c-1.5-1.1-3.2-1.9-5.1-2.4c-1.9-0.5-3.8-0.7-5.8-0.7h-15.1V124.8z"/>
<path class="st1" d="M230.9,64h17.5c0.9,0,2.1,0,3.6,0.1c1.5,0.1,3.1,0.2,4.9,0.6c1.8,0.3,3.5,0.8,5.4,1.5c1.8,0.7,3.4,1.7,4.9,3
	c1.4,1.3,2.6,3,3.6,5c0.9,2,1.4,4.4,1.4,7.3c0,3.2-0.6,5.8-1.6,7.9c-1.1,2.1-2.5,3.7-4.1,5c-1.7,1.3-3.5,2.2-5.5,2.9
	c-2,0.6-3.9,1.1-5.7,1.3l19.3,31.9h-7l-18.7-31.5h-11.5v31.5h-6.2L230.9,64L230.9,64z M237.1,93.3h13.1c3.3,0,5.9-0.4,7.9-1.2
	c2-0.8,3.6-1.8,4.7-3c1.1-1.2,1.9-2.5,2.3-3.8c0.4-1.4,0.6-2.6,0.6-3.8c0-1.1-0.2-2.4-0.6-3.8c-0.4-1.4-1.2-2.7-2.3-3.8
	c-1.1-1.2-2.7-2.2-4.7-3c-2-0.8-4.7-1.2-7.9-1.2h-13.1V93.3z"/>
<path class="st1" d="M312.8,64h6.4l28,66.5h-7l-7.2-17.7h-35.2l-7.5,17.7h-6.5L312.8,64z M315.7,70.8l-15.5,36.4h30.5L315.7,70.8z"
	/>
<path class="st1" d="M359.8,64h20.6c5.8,0,10.6,0.7,14.7,2.1c4,1.4,7.3,3.2,10,5.4c2.7,2.2,4.8,4.6,6.3,7.3c1.5,2.7,2.7,5.2,3.4,7.7
	c0.7,2.4,1.2,4.7,1.4,6.6c0.2,2,0.3,3.4,0.3,4.2c0,0.8-0.1,2.2-0.3,4.2c-0.2,2-0.6,4.2-1.4,6.6c-0.7,2.4-1.9,5-3.4,7.7
	c-1.5,2.7-3.6,5.1-6.3,7.3c-2.7,2.2-6,4-10,5.4c-4,1.4-8.9,2.1-14.7,2.1h-20.6V64z M366,124.8h12.8c4.4,0,8.5-0.5,12.3-1.6
	c3.8-1.1,7.1-2.8,10-5c2.8-2.3,5-5.1,6.7-8.6c1.6-3.5,2.4-7.6,2.4-12.3c0-4.8-0.8-8.9-2.4-12.3c-1.6-3.5-3.8-6.3-6.7-8.6
	c-2.8-2.2-6.1-3.9-10-5c-3.8-1.1-7.9-1.6-12.3-1.6H366V124.8z"/>
<polygon class="st1" points="430.9,64 470.7,64 470.7,69.6 437.1,69.6 437.1,93.3 468.3,93.3 468.3,98.9 437.1,98.9 437.1,130.5 
	430.9,130.5 "/>
<path class="st1" d="M484.5,97.2c0-5.1,0.8-9.7,2.5-14c1.7-4.3,4-7.9,7-11c3-3.1,6.6-5.5,10.8-7.3c4.2-1.7,8.9-2.6,13.9-2.6
	c5.1,0,9.7,0.9,13.9,2.6c4.2,1.8,7.8,4.2,10.8,7.3c3,3.1,5.4,6.8,7,11c1.7,4.3,2.5,8.9,2.5,14c0,5.1-0.8,9.7-2.5,14
	c-1.7,4.3-4,8-7,11.1c-3,3.1-6.6,5.5-10.8,7.2c-4.2,1.7-8.9,2.6-13.9,2.6c-5.1,0-9.7-0.9-13.9-2.6c-4.2-1.7-7.8-4.1-10.8-7.2
	c-3-3.1-5.4-6.8-7-11.1C485.3,107,484.5,102.3,484.5,97.2 M490.7,97.2c0,4.1,0.7,8,2,11.5c1.3,3.6,3.2,6.7,5.6,9.3
	c2.4,2.6,5.4,4.7,8.9,6.2c3.5,1.5,7.4,2.3,11.7,2.3c4.3,0,8.2-0.7,11.7-2.3c3.5-1.5,6.4-3.6,8.9-6.2c2.4-2.6,4.3-5.7,5.6-9.3
	c1.3-3.6,2-7.4,2-11.5c0-4.1-0.7-8-2-11.5c-1.3-3.6-3.2-6.7-5.6-9.3c-2.4-2.6-5.4-4.7-8.9-6.2c-3.5-1.5-7.4-2.3-11.7-2.3
	c-4.3,0-8.2,0.8-11.7,2.3c-3.5,1.5-6.4,3.6-8.9,6.2c-2.4,2.6-4.3,5.7-5.6,9.3C491.4,89.3,490.7,93.1,490.7,97.2"/>
<path class="st1" d="M569.5,64H587c0.9,0,2.1,0,3.6,0.1c1.5,0.1,3.1,0.2,4.9,0.6c1.7,0.3,3.5,0.8,5.4,1.5c1.8,0.7,3.4,1.7,4.9,3
	c1.4,1.3,2.6,3,3.6,5c0.9,2,1.4,4.4,1.4,7.3c0,3.2-0.6,5.8-1.6,7.9c-1.1,2.1-2.5,3.7-4.1,5c-1.7,1.3-3.5,2.2-5.5,2.9
	c-2,0.6-3.9,1.1-5.7,1.3l19.3,31.9h-7l-18.7-31.5h-11.5v31.5h-6.2V64z M575.7,93.3h13.1c3.3,0,5.9-0.4,7.9-1.2c2-0.8,3.6-1.8,4.7-3
	c1.1-1.2,1.9-2.5,2.3-3.8c0.4-1.4,0.6-2.6,0.6-3.8c0-1.1-0.2-2.4-0.6-3.8c-0.4-1.4-1.2-2.7-2.3-3.8c-1.1-1.2-2.7-2.2-4.7-3
	c-2-0.8-4.7-1.2-7.9-1.2h-13.1V93.3z"/>
<path class="st1" d="M627.1,64h20.6c5.8,0,10.6,0.7,14.7,2.1c4,1.4,7.3,3.2,10,5.4c2.7,2.2,4.8,4.6,6.3,7.3c1.5,2.7,2.7,5.2,3.4,7.7
	c0.7,2.4,1.2,4.7,1.4,6.6c0.2,2,0.3,3.4,0.3,4.2c0,0.8-0.1,2.2-0.3,4.2c-0.2,2-0.6,4.2-1.4,6.6c-0.7,2.4-1.9,5-3.4,7.7
	c-1.5,2.7-3.6,5.1-6.3,7.3c-2.7,2.2-6,4-10,5.4c-4,1.4-8.9,2.1-14.7,2.1h-20.6V64z M633.3,124.8H646c4.4,0,8.5-0.5,12.3-1.6
	c3.8-1.1,7.1-2.8,10-5c2.8-2.3,5-5.1,6.7-8.6c1.6-3.5,2.4-7.6,2.4-12.3c0-4.8-0.8-8.9-2.4-12.3c-1.6-3.5-3.9-6.3-6.7-8.6
	c-2.8-2.2-6.1-3.9-10-5c-3.8-1.1-7.9-1.6-12.3-1.6h-12.8V124.8z"/>
</svg>
