<?xml version="1.0" encoding="UTF-8"?><svg id="Layer_2" xmlns="http://www.w3.org/2000/svg" width="292.4370727539" height="120.8911530885" viewBox="0 0 292.4370727539 120.8911530885"><g id="Layer_1-2"><line x1="84.8154907227" y1="116.6749320127" x2="84.8154907227" y2="23.5410208799" style="fill:none; stroke:#0a3370; stroke-miterlimit:22.9255847931; stroke-width:.7086600065px;"/><path d="M98.2947998047,49.5482840635h9.7242431641c1.3789672852-.0062255859,2.5866088867-.2031860352,3.6164550781-.584777832,1.0232543945-.3874511719,1.8748168945-.9215087891,2.5548706055-1.6143188477.6799926758-.6862182617,1.1884765625-1.4935913086,1.5252685547-2.4151000977.3370361328-.9277954102.5023193359-1.9321289062.5023193359-3.0123901367-.0065307617-1.1505737305-.2162475586-2.1866455078-.635559082-3.108215332-.4260864258-.9215087891-1.0360107422-1.6971435547-1.8305664062-2.3261108398-.7945556641-.6293334961-1.7479248047-1.0806274414-2.8729858398-1.3538208008,1.1060791016-.375,1.9451904297-1.0040283203,2.5106811523-1.8875732422.5593261719-.8897705078.8452758789-1.9766235352.8452758789-3.2603759766,0-.883605957-.1459350586-1.7098999023-.4320068359-2.4724121094-.2924804688-.7690429688-.7310791016-1.4428710938-1.3157958984-2.0275878906-.591003418-.5848388672-1.3283691406-1.0361328125-2.2243652344-1.3663330078-.8963012695-.3308105469-1.9513549805-.4957885742-3.1589355469-.5023193359h-8.8088989258v25.9313354492h0ZM101.0404052734,34.2182669736v-8.1606445312h5.8725585938c1.0998535156.0062255859,1.9893798828.1842041016,2.6631469727.5336914062.6737670898.3498535156,1.1567993164.8264160156,1.4618530273,1.4366455078.3049926758.6101074219.4577026367,1.3155517578.4512329102,2.1101074219.0064697266.7945556641-.1334838867,1.4998779297-.4194946289,2.1101074219-.2795410156.6101074219-.7307739258,1.0867919922-1.3473510742,1.4364013672-.6165161133.3494262695-1.4300537109.5274658203-2.4279174805.5336914062h-6.2540283203ZM101.0404052734,47.1076712705v-10.5250244141h6.6353759766c1.3220825195.0065917969,2.4026489258.2353515625,3.2541503906.6865234375.8518066406.4512939453,1.4808349609,1.0676269531,1.8941040039,1.8558349609.4067993164.7880859375.6100463867,1.6968383789.6100463867,2.7202148438.0062255859,1.0104980469-.1842651367,1.9130859375-.5720825195,2.7014160156-.3874511719.7879638672-.9915161133,1.4107666016-1.8176269531,1.8682250977-.8262939453.4512939453-1.9002685547.6865844727-3.2161254883.6928100586h-6.7878417969ZM119.3448486328,49.5482840635h16.3215942383v-2.440612793h-13.5759277344v-6.4827880859h11.6310424805v-2.40234375h-11.6310424805v-12.1649169922h13.0418701172v-2.4406738281h-15.7875366211v25.9313354492h0ZM139.2891235352,49.5482840635h14.9870605469v-2.440612793h-12.2414550781v-23.4907226562h-2.7456054688v25.9313354492h0ZM155.076965332,49.5482840635h2.7073974609l1.7160644531-4.3471069336h13.1182250977l1.7543334961,4.3471069336h2.8981323242l-10.9829101562-26.198059082h-.4573974609l-10.7538452148,26.198059082h0ZM160.4536743164,42.8367972471l4.5762329102-11.5166015625c.1270751953-.311340332.2478637695-.6421508789.3685913086-.9979248047.1207885742-.3559570312.2352905273-.6865234375.3305053711-1.0042724609.1018066406-.3177490234.1780395508-.5720214844.2415161133-.7752685547.0572509766-.2034912109.0889282227-.3049926758.0889282227-.3115234375,0,.0065307617.0318603516.1080322266.0828857422.3115234375.0569458008.2032470703.1331787109.4575195312.2287597656.7752685547.0952148438.3177490234.1968994141.6483154297.3177490234,1.0042724609.1145019531.3557739258.2349243164.6865844727.3622436523.9979248047l4.5762329102,11.5166015625h-11.1736450195ZM191.2283935547,41.5781302549c1.1947631836-.4892578125,2.192565918-1.1375732422,2.9998779297-1.9573364258.80078125-.8135375977,1.4046020508-1.760559082,1.8050537109-2.8474121094.4067993164-1.0868530273.6100463867-2.2817993164.6100463867-3.5846557617,0-1.4046020508-.2287597656-2.6948242188-.6800537109-3.8579101562-.4575195312-1.1693725586-1.137512207-2.1799316406-2.0338134766-3.0317382812-.9025268555-.8514404297-2.02734375-1.5062255859-3.3684082031-1.9765625-1.3410644531-.4639892578-2.8984375-.6990356445-4.6715087891-.7055664062h-5.8345336914v25.9313354492h2.7456054688v-6.864074707h3.0889282227c.4575195312,0,.9215087891-.0190429688,1.3852539062-.0572509766.4643554688-.0379638672.921875-.0952758789,1.3603515625-.1715087891l4.9955444336,7.0928344727h3.241394043l-5.643737793-7.9701538086h0ZM182.8006591797,40.2818656064v-14.2242431641h2.9364013672c1.4553222656.0062255859,2.6946411133.1842041016,3.717956543.5402832031,1.0233154297.3560180664,1.8558349609.8515014648,2.4913330078,1.4935302734.6420898438.6420898438,1.1060791016,1.3983764648,1.3983154297,2.2626342773.2987670898.8645629883.4450683594,1.811340332.4385375977,2.8346557617.0065307617,1.0233154297-.1397705078,1.9703369141-.4322509766,2.8283691406-.2922973633.8643188477-.7562866211,1.6143798828-1.3853149414,2.2498779297-.6354980469.6356201172-1.4683227539,1.1312866211-2.4916381836,1.4808349609-1.0295410156.3494873047-2.2753295898.5275268555-3.7369384766.5340576172h-2.9364013672ZM209.4948120117,49.8536429502c1.3217773438,0,2.5486450195-.1907958984,3.6734619141-.5786132812,1.125-.3812255859,2.1100463867-.9597167969,2.9553222656-1.7222900391.8391113281-.7690429688,1.4935913086-1.72265625,1.9641723633-2.866394043.4637451172-1.137878418.7055053711-2.4661254883.711730957-3.985168457v-17.0842285156h-2.7456054688v16.8936767578c-.0065307617,1.5380859375-.2797241211,2.8156738281-.8135375977,3.8386230469-.533996582,1.0233154297-1.2838134766,1.7923583984-2.2626342773,2.3009033203-.9787597656.5085449219-2.1418457031.7628173828-3.4829101562.7628173828-1.3538208008,0-2.5172119141-.2542724609-3.4957275391-.7628173828-.9787597656-.5085449219-1.7350463867-1.2775878906-2.2625732422-2.3009033203-.5275268555-1.0229492188-.7945556641-2.3005371094-.8010253906-3.8386230469v-16.8936767578h-2.7456665039v17.0842285156c.0064697266,1.5190429688.2414550781,2.8472900391.7055053711,3.985168457.4705810547,1.143737793,1.1185913086,2.0973510742,1.9576416016,2.866394043.839050293.7625732422,1.8240966797,1.3410644531,2.9491577148,1.7222900391,1.1312866211.3878173828,2.3578491211.5786132812,3.6926879883.5786132812h0ZM230.0874023438,49.8536429502c1.1692504883,0,2.2435913086-.1590576172,3.2221069336-.4705810547.9791259766-.3112792969,1.8244018555-.7690429688,2.5485839844-1.3601074219.7183837891-.5909423828,1.2775878906-1.3155517578,1.6719360352-2.1608276367.4002685547-.8452758789.5972290039-1.8051147461.603515625-2.8728637695,0-1.2901000977-.2478027344-2.4086914062-.7307739258-3.3623046875-.4892578125-.953125-1.2203369141-1.7984619141-2.1864013672-2.5295410156-.9660644531-.7373046875-2.1673583984-1.4108886719-3.6036987305-2.0400390625l-2.059387207-.9533691406c-.966003418-.4322509766-1.7478027344-.8645019531-2.3578491211-1.2903442383-.6037597656-.4257202148-1.0487670898-.9025268555-1.3345336914-1.4362182617-.2860107422-.5275878906-.4260253906-1.1759033203-.4260253906-1.9259033203.0062255859-.7435302734.1718139648-1.3918457031.5020141602-1.9448852539.3308105469-.552734375.8010864258-.9788208008,1.4110717773-1.2837524414.6165161133-.3115844727,1.34765625-.464050293,2.2053222656-.4703369141.8073120117.0062866211,1.5129394531.1335449219,2.1104736328.3747558594.5972290039.248046875,1.1119995117.5786132812,1.5504760742,1.0043334961.4388427734.4194946289.8200683594.9025268555,1.1441040039,1.4428100586l2.2118530273-1.3728027344c-.4575195312-.7690429688-1.0042724609-1.4428100586-1.6588134766-2.0275878906-.6483154297-.5783081055-1.4173583984-1.0360107422-2.3009033203-1.3601074219-.8832397461-.3304443359-1.9003295898-.4957885742-3.0571899414-.501953125-.9787597656,0-1.8810424805.1524658203-2.7073364258.4447021484-.8262939453.2925415039-1.5508422852.7120361328-2.1610717773,1.2586669922-.6162719727.5465087891-1.0993652344,1.2009277344-1.4364013672,1.9637451172-.3432006836.7628173828-.5147705078,1.6080932617-.5209960938,2.5486450195,0,1.1951293945.2225341797,2.2246704102.6607666016,3.076171875.4385375977.8518676758,1.0805664062,1.6015625,1.9323730469,2.2370605469.8515625.6358032227,1.8938598633,1.2330932617,3.1268920898,1.7799072266l2.0593261719.9533081055c1.0803833008.4765014648,1.9829101562.9594726562,2.7073974609,1.4617919922.724609375.5020751953,1.264831543,1.0678100586,1.6271362305,1.7033691406.3622436523.6289672852.5464477539,1.3790283203.5464477539,2.2498779297-.0126953125.9215087891-.25390625,1.7095947266-.7244262695,2.3643798828-.4702758789.6610107422-1.112121582,1.1694946289-1.9194335938,1.5252685547-.8070068359.3494873047-1.7160644531.5275268555-2.7327880859.5340576172-1.2141113281-.0127563477-2.2436523438-.1970214844-3.0889282227-.5657958984s-1.5509033203-.8515625-2.1228637695-1.4619140625c-.5783081055-.6102294922-1.0616455078-1.2774658203-1.4618530273-2.0147705078l-2.2881469727,1.2202758789c.3432617188.6928100586.7755126953,1.3538818359,1.2965698242,1.983215332.5213012695.6226806641,1.1441040039,1.1884765625,1.8813476562,1.677734375.7307739258.4895019531,1.5825805664.8835449219,2.5486450195,1.1630859375.9725341797.2860107422,2.0718383789.4322509766,3.3114624023.4388427734h0ZM241.6802368164,49.5482840635h2.7836303711v-25.9313354492h-2.7836303711v25.9313354492h0ZM247.3623046875,49.5482840635h2.7073974609l1.716003418-4.3471069336h13.1182250977l1.7543334961,4.3471069336h2.8981933594l-10.9829101562-26.198059082h-.4574584961l-10.7537841797,26.198059082h0ZM252.7390136719,42.8367972471l4.5762329102-11.5166015625c.1270751953-.311340332.2477416992-.6421508789.3685913086-.9979248047.1206665039-.3559570312.235168457-.6865234375.3304443359-1.0042724609.1018066406-.3177490234.1780395508-.5720214844.2415161133-.7752685547.0572509766-.2034912109.089050293-.3049926758.089050293-.3115234375,0,.0065307617.0317382812.1080322266.0827636719.3115234375.0569458008.2032470703.1332397461.4575195312.2287597656.7752685547.0952758789.3177490234.1969604492.6483154297.3177490234,1.0042724609.1145629883.3557739258.2352294922.6865844727.3623046875.9979248047l4.5762329102,11.5166015625h-11.1736450195ZM291.979309082,49.8153128721h.4577636719v-26.1983642578h-2.5551757812v17.5036621094c0,.2860107422.0127563477.5913085938.0317993164.9281005859.0192871094.3305053711.038269043.6482543945.0638427734.9532470703.0252075195.3050537109.0444335938.5592651367.0634155273.75.0190429688.1970825195.0317382812.298828125.0317382812.3050537109-.0062255859-.0062255859-.0634765625-.0889892578-.1780395508-.2542724609-.1141967773-.1590576172-.2669677734-.3685302734-.4447021484-.6165161133-.1845092773-.2542114258-.375-.5147094727-.584777832-.7880249023-.2035522461-.2731933594-.4005126953-.5213012695-.584777832-.7438964844l-15.4825439453-18.3040771484h-.4575195312v26.198059082h2.5931396484v-17.5036621094c0-.2860107422-.0127563477-.591003418-.0383300781-.9276733398-.0189208984-.3306274414-.0444946289-.6483764648-.0762329102-.9536132812-.0316772461-.3050537109-.0572509766-.5593261719-.0762329102-.7498168945-.0255126953-.1969604492-.0379638672-.2987670898-.0379638672-.3052368164.0062255859.0064697266.0635375977.0889892578.177734375.2542114258.1145019531.1591186523.2669677734.3687744141.4450073242.6165771484.1842041016.2542114258.3750610352.514831543.584777832.7880249023.2033081055.2733154297.4002685547.5213012695.5845336914.7437744141l15.4825439453,18.3044433594h0Z" style="fill:#0a3470; stroke-width:0px;"/><path d="M104.8920898438,83.5244193174c1.1693115234,0,2.2434082031-.1588134766,3.2221679688-.4703369141.9788208008-.3112182617,1.8240356445-.7690429688,2.5486450195-1.3600463867.7183227539-.591003418,1.2775878906-1.3155517578,1.6716308594-2.1608276367.4005126953-.8453369141.5975341797-1.8050537109.6037597656-2.8729248047,0-1.2900390625-.2477416992-2.4088745117-.7308349609-3.3621826172-.4895019531-.9532470703-1.2202758789-1.7989501953-2.186340332-2.5296630859-.9660644531-.7372436523-2.1673583984-1.4107666016-3.6036376953-2.0401000977l-2.059387207-.9532470703c-.9661254883-.4323120117-1.7478637695-.8645629883-2.3578491211-1.2903442383-.6037597656-.42578125-1.048828125-.9025268555-1.3348388672-1.4362792969-.2860107422-.5275878906-.4258422852-1.1758422852-.4258422852-1.9259033203.0062866211-.7435302734.1715087891-1.391784668.5020751953-1.9448242188.3305053711-.5529785156.80078125-.9788208008,1.4110107422-1.2838134766.6166381836-.3115234375,1.3474121094-.464050293,2.2054443359-.4702758789.8073120117.0062255859,1.512512207.1334838867,2.1100463867.3748168945.5975952148.2479248047,1.1123657227.5784912109,1.5509033203,1.0042114258.4384765625.4196166992.8197631836.9025268555,1.1440429688,1.4428710938l2.2116088867-1.3728027344c-.4575195312-.7690429688-1.0040893555-1.4428710938-1.6585693359-2.0276489258-.6482543945-.5782470703-1.4172973633-1.0360107422-2.3008422852-1.3601074219-.883605957-.3304443359-1.900390625-.4957275391-3.0571899414-.501953125-.9788208008,0-1.8813476562.1524658203-2.7073364258.4447021484-.8263549805.2925415039-1.5511474609.7120361328-2.1611938477,1.2586669922-.6165771484.5465087891-1.0995483398,1.2009277344-1.4362792969,1.9638061523-.3433227539.7627563477-.514831543,1.6080932617-.5213012695,2.5486450195,0,1.1948242188.2225341797,2.224609375.6610717773,3.0761108398.4384765625.8518676758,1.0805053711,1.6015014648,1.9320678711,2.237121582.8518066406.6358032227,1.8941040039,1.2330932617,3.1271972656,1.7796020508l2.0590820312.9535522461c1.0805053711.4764404297,1.9830322266.9595336914,2.7076416016,1.4618530273.7245483398.5020141602,1.264831543,1.067565918,1.6270751953,1.7033081055.3623046875.6290283203.5465087891,1.3790893555.5465087891,2.2498779297-.0127563477.9215087891-.2543334961,1.7095947266-.7245483398,2.3643798828-.4702148438.6610107422-1.1123046875,1.1695556641-1.9193115234,1.5253295898-.8073120117.3495483398-1.7160644531.5275268555-2.7331542969.5337524414-1.2138061523-.0126953125-2.243347168-.1970214844-3.0886230469-.5655517578-.8456420898-.3687744141-1.5511474609-.8518066406-2.1229248047-1.4617919922-.5782470703-.6102905273-1.0615234375-1.2775878906-1.4617919922-2.0148925781l-2.2880859375,1.2203369141c.3432617188.6928100586.7752685547,1.3538208008,1.2965698242,1.9830932617.5211791992.6228027344,1.1440429688,1.1885986328,1.8813476562,1.6778564453.7307128906.4892578125,1.5825195312.8834838867,2.5485839844,1.1630249023.9722900391.2860107422,2.0718383789.4323120117,3.3114013672.4385986328h0ZM121.48046875,83.2193656064h2.7456665039v-23.4907226562h7.9701538086v-2.440612793h-18.6859741211v2.440612793h7.9701538086v23.4907226562h0ZM129.6411743164,83.2193656064h2.7076416016l1.7160644531-4.3471679688h13.1181640625l1.7540283203,4.3471679688h2.8984985352l-10.9829101562-26.1983642578h-.4574584961l-10.7540283203,26.1983642578h0ZM135.0181274414,76.5078177549l4.5762329102-11.5166015625c.1270751953-.3115844727.2478027344-.6420898438.3685913086-.9979248047.1206665039-.3559570312.2352905273-.6864013672.3305053711-1.0042114258.1017456055-.3178100586.1780395508-.5720825195.2415161133-.7752075195.0572509766-.2036132812.0889282227-.3051757812.0889282227-.3116455078,0,.0064697266.0317993164.1080322266.0825805664.3116455078.0572509766.203125.1334838867.4573974609.2290039062.7752075195.0952758789.3178100586.1969604492.6482543945.3178100586,1.0042114258.1141967773.3558349609.2349243164.686340332.3622436523.9979248047l4.5759887695,11.5166015625h-11.1734008789ZM157.2506103516,83.2193656064h2.7456054688v-23.4907226562h7.9702148438v-2.440612793h-18.6859741211v2.440612793h7.9701538086v23.4907226562h0ZM170.5977172852,83.2193656064h16.3213500977v-2.440612793h-13.5756225586v-6.4828491211h11.6307983398v-2.40234375h-11.6307983398v-12.1649169922h13.0419311523v-2.440612793h-15.7876586914v25.9313354492h0Z" style="fill:#0a3470; stroke-width:0px;"/><path d="M107.3706665039,117.1951956846c1.3221435547,0,2.5486450195-.1908569336,3.6737060547-.5782470703,1.1248779297-.3815917969,2.1099243164-.9598388672,2.9552001953-1.7224121094.8393554688-.7690429688,1.4938354492-1.7225952148,1.9641113281-2.866394043.4639892578-1.137878418.7055664062-2.4661254883.7117919922-3.985168457v-17.0841674805h-2.7456665039v16.8936157227c-.0064697266,1.5380859375-.2797241211,2.8154296875-.8135375977,3.838684082-.533996582,1.0233764648-1.2838745117,1.7924194336-2.2625732422,2.3009643555-.9788208008.5084838867-2.1418457031.7624511719-3.4830322266.7624511719-1.3537597656,0-2.5168457031-.2539672852-3.4956054688-.7624511719-.9788208008-.5085449219-1.7350463867-1.2775878906-2.2625732422-2.3009643555-.5276489258-1.0232543945-.7945556641-2.3005981445-.8008422852-3.838684082v-16.8936157227h-2.7456665039v17.0841674805c.0062866211,1.5190429688.2415161133,2.8472900391.7053222656,3.985168457.4705200195,1.1437988281,1.1188354492,2.0973510742,1.9578857422,2.866394043.8387451172.7625732422,1.8237915039,1.3408203125,2.9488525391,1.7224121094,1.1313476562.3873901367,2.3580932617.5782470703,3.6926269531.5782470703h0ZM141.0052490234,117.1572318174h.4575195312v-26.198425293h-2.5548706055v17.5036621094c0,.2860107422.0127563477.591003418.0316772461.9280395508.0193481445.3302612305.0383300781.6482543945.0635375977.9533081055.0255126953.3049926758.0447387695.5592651367.0637207031.7500610352.0190429688.1970214844.0317993164.2987670898.0317993164.3050537109-.0064697266-.0062866211-.0634765625-.0891113281-.1779785156-.2543334961-.1145629883-.1591186523-.2670288086-.3687744141-.4447631836-.6165771484-.1845092773-.2542114258-.375-.5147094727-.584777832-.7880249023-.2035522461-.2731933594-.4005737305-.5212402344-.5848388672-.7437744141l-15.4824829102-18.3044433594h-.4575195312v26.1983642578h2.5928344727v-17.5036621094c0-.2860107422-.0124511719-.5909423828-.0379638672-.9279785156-.0190429688-.3303222656-.0445556641-.6483764648-.0762939453-.9533691406-.0317382812-.3049316406-.0572509766-.5592651367-.0762329102-.75-.0255737305-.1970825195-.0379638672-.298828125-.0379638672-.3050537109.0062255859.0062255859.0634765625.0889892578.177734375.2542724609.114440918.1590576172.2669677734.3687744141.4450073242.6165161133.1842651367.2543334961.3750610352.5147094727.584777832.7880249023.2032470703.2733154297.4002075195.5213012695.5845336914.7435302734l15.4825439453,18.3048095703h0ZM146.4964599609,116.8901419736h2.783996582v-25.9313354492h-2.783996582v25.9313354492h0ZM163.1234130859,117.1572318174h.4575195312l10.7920532227-26.198425293h-2.7838745117l-7.0931396484,17.5798950195c-.1335449219.3305664062-.266784668.6990356445-.4002685547,1.0930175781-.1270141602.4006347656-.2481079102.7817993164-.3494873047,1.1441040039-.1083374023.3687744141-.1970214844.6675415039-.2604980469.9028930664-.0637817383.2411499023-.0955810547.3619384766-.0955810547.3684082031,0-.0064697266-.0317993164-.1272583008-.0952148438-.3684082031-.0638427734-.2353515625-.1527709961-.5341186523-.2543334961-.9028930664-.1079711914-.3623046875-.2286987305-.7434692383-.3560180664-1.1441040039-.1332397461-.3939819336-.2667236328-.7624511719-.4002075195-1.0930175781l-7.1311035156-17.5798950195h-2.9746704102l10.9448242188,26.198425293h0ZM177.1566162109,116.8901419736h16.3215942383v-2.4406738281h-13.5759887695v-6.4827880859h11.6311035156v-2.40234375h-11.6311035156v-12.1649169922h13.0422363281v-2.440612793h-15.7878417969v25.9313354492h0ZM208.2745361328,108.9199271299c1.1947021484-.4892578125,2.192565918-1.1374511719,2.9998779297-1.9575805664.8007202148-.8131713867,1.4046020508-1.7603149414,1.8051147461-2.8474121094.4067993164-1.0864868164.6099853516-2.2815551758.6099853516-3.5844116211,0-1.4045410156-.2287597656-2.6949462891-.6800537109-3.8579101562-.4577636719-1.1696166992-1.137512207-2.1801757812-2.0338134766-3.0316772461-.9025268555-.8518066406-2.0276489258-1.5062866211-3.3684082031-1.9766235352-1.3410644531-.4639892578-2.8984375-.6992797852-4.6715698242-.7055053711h-5.8345336914v25.9313354492h2.7456665039v-6.8641357422h3.0888671875c.4575805664,0,.9215698242-.0192260742,1.3853149414-.0572509766.464050293-.038269043.921875-.0952148438,1.3604125977-.1717529297l4.9954833984,7.0931396484h3.241394043l-5.643737793-7.9702148438h0ZM199.8468017578,107.6233573057v-14.2239379883h2.9364013672c1.4553222656.0062255859,2.6946411133.1843261719,3.7178955078.5402832031,1.0233154297.3558349609,1.8558959961.8515014648,2.4914550781,1.4935302734.6420288086.6418457031,1.1060180664,1.3980712891,1.3982543945,2.2626342773.298828125.8643188477.4450683594,1.811340332.4385375977,2.8346557617.0065307617,1.0233154297-.1397094727,1.9703979492-.4322509766,2.828125-.2922973633.8645629883-.7562866211,1.6143798828-1.3853149414,2.2501831055-.635559082.635559082-1.4683227539,1.1312866211-2.4916992188,1.4807739258-1.0294799805.3494873047-2.2752685547.5275268555-3.7368774414.5337524414h-2.9364013672ZM224.2528076172,117.1951956846c1.1693115234,0,2.2432861328-.1588134766,3.2221679688-.4703369141.9787597656-.3112182617,1.8244018555-.7690429688,2.5485839844-1.3600463867.7183837891-.591003418,1.2775878906-1.3155517578,1.6715698242-2.1610717773.4005737305-.8453369141.5975341797-1.8048095703.6038208008-2.8726806641,0-1.2902832031-.2477416992-2.4088745117-.7307128906-3.3621826172-.4892578125-.9536132812-1.2203369141-1.7988891602-2.1864013672-2.5296630859-.9660644531-.7373046875-2.1673583984-1.4107666016-3.6036987305-2.0400390625l-2.059387207-.9533081055c-.966003418-.4323120117-1.7478027344-.8645629883-2.3578491211-1.2903442383-.6038208008-.42578125-1.048828125-.9025268555-1.3348388672-1.4366455078-.2860107422-.5272216797-.4257202148-1.1754760742-.4257202148-1.9255371094.0062255859-.7435302734.1714477539-1.3917236328.5020141602-1.9448242188.3305053711-.5529785156.80078125-.9788208008,1.4110717773-1.2838134766.6165161133-.3115234375,1.3475952148-.464050293,2.2053222656-.4702148438.8073120117.0061645508,1.512878418.1331787109,2.1101074219.3747558594.5975952148.2479248047,1.1123657227.5784912109,1.5508422852,1.0042114258.4385375977.4196166992.8197631836.9025878906,1.1441040039,1.4428710938l2.2115478516-1.3728637695c-.4574584961-.7690429688-1.0040283203-1.4428100586-1.6585083008-2.0275878906-.6483154297-.5782470703-1.4173583984-1.0360107422-2.3009033203-1.3601074219-.8833007812-.3304443359-1.9003295898-.4957275391-3.0571899414-.501953125-.9787597656,0-1.8812866211.1524658203-2.7073364258.4447021484-.8262939453.2925415039-1.5509033203.7117919922-2.1611328125,1.2585449219-.6165771484.5466308594-1.0995483398,1.2011108398-1.4362792969,1.9639282227-.3433227539.7627563477-.514831543,1.6080932617-.5210571289,2.5485839844,0,1.1948852539.2222290039,2.2246704102.6607055664,3.076171875.4385986328.8517456055,1.0805664062,1.6015625,1.9321289062,2.237121582.8518066406.6358032227,1.8941040039,1.2330322266,3.1271972656,1.7796020508l2.0591430664.9535522461c1.0805664062.4765014648,1.9830932617.9595336914,2.7075805664,1.4618530273.724609375.5020141602,1.264831543,1.067565918,1.6270751953,1.7033081055.3623046875.6290283203.5465087891,1.3790283203.5465087891,2.2498779297-.0127563477.9215087891-.25390625,1.7095947266-.7244873047,2.3643798828-.4702758789.6610107422-1.1123046875,1.1692504883-1.9193725586,1.5253295898-.8073120117.3495483398-1.7160644531.5275268555-2.7328491211.5337524414-1.2141113281-.0126953125-2.2435913086-.1970214844-3.0888671875-.5655517578-.8456420898-.3687744141-1.5509033203-.8518066406-2.1229248047-1.4617919922-.5782470703-.6102294922-1.0615234375-1.2775878906-1.4617919922-2.0148925781l-2.2881469727,1.2203369141c.3432617188.6928100586.7753295898,1.3538208008,1.2965698242,1.9831542969.5213012695.6227416992,1.1441040039,1.1882324219,1.8812866211,1.6777954102.7307739258.4892578125,1.5826416016.8835449219,2.5487060547,1.1630249023.9725952148.2860107422,2.0717773438.4323120117,3.3114013672.4385986328h0ZM235.8453979492,116.8901419736h2.7838745117v-25.9313354492h-2.7838745117v25.9313354492h0ZM249.3450927734,116.8901419736h2.7456665039v-23.4907226562h7.9701538086v-2.440612793h-18.6859741211v2.440612793h7.9701538086v23.4907226562h0ZM270.7387695312,116.8901419736h2.8218383789v-8.2369384766l9.6097412109-17.6943969727h-2.8598632812l-7.0169067383,12.8894042969c-.1334838867.2604980469-.2667236328.5465087891-.4004516602.8452758789-.1270141602.2987670898-.2478027344.584777832-.349609375.8580322266-.1079711914.266784668-.1969604492.4893188477-.2604980469.6610717773-.0634765625.1715087891-.0952148438.2604980469-.0952148438.2667236328,0-.0062255859-.0317382812-.0952148438-.0955200195-.2732543945-.0570068359-.1715087891-.1397094727-.4002685547-.2415161133-.6735229492-.1079711914-.2670288086-.2225341797-.5530395508-.3557739258-.8580322266-.1334838867-.2987670898-.2669677734-.5719604492-.413269043-.8262939453l-7.0545654297-12.8894042969h-3.0892333984l9.8008422852,17.8086547852v8.1226806641h0Z" style="fill:#0a3470; stroke-width:0px;"/><path d="M47.4012451172,120.6548514463c-16.9808959961.3064575195-30.4332275391,2.0493774414-38.7061767578-11.6088256836-3.6255493164-7.0397949219-2.7326049805-14.6255493164-8.6950683594-12.2506713867,2.0183105469-2.1685180664,3.7347412109-2.794128418,5.6676635742-1.5397949219-3.1694946289-7.3179321289-5.5576171875-18.5468139648,2.7998046875-27.5465087891-3.6723022461,10.6174316406.9107055664,7.9639282227,3.5355834961,18.9875488281.0430908203-9.3784179688-9.0663452148-12.4794921875,4.5930175781-30.8516235352-5.3909912109,8.7757568359.9116210938,8.8485107422-1.2407836914,22.3754882812,4.3529052734-11.6279296875-5.49609375-20.6398925781,10.2934570312-32.7619628906-2.966796875,5.6352539062-1.6298828125,15.0655517578-3.7451171875,21.9125976562,5.4765625-13.4670410156-2.0004882812-19.17578125,15.2688598633-32.1644287109-5.866027832,8.0010986328-1.1228027344,10.8643798828-6.4664306641,19.9783325195,9.1973266602-10.9884643555.0513305664-19.3368530273,17.0538330078-28.6666870117-7.9571533203,8.8369140625-2.3218994141,11.9555664062-7.1977539062,18.873840332,7.985168457-6.8419799805-1.6168823242-16.9290771484,19.3926391602-28.211730957-6.9273071289,6.3698730469-4.7106933594,10.0665893555-8.3004150391,16.1989746094,5.9882202148-10.4903564453,14.4615478516-15.431640625,9.7350463867-22.0840454102,2.6733398438,1.7795410156,5.2015991211,6.7115478516,2.2305297852,10.9102172852,5.5902709961-2.0153808594,15.1568603516-20.5933837891,5.6364746094-21.1560058594.1439208984-.0020751953,1.6627807617.3883056641,1.9592895508,1.2735595703.3081054688.9209594727.299621582,1.8150024414.2401123047,1.9232788086-.3592529297.6516723633-.8991699219,1.2217407227-1.5458374023,1.3609008789-2.600402832.5595703125-3.5355834961-1.6851806641-2.6443481445-3.5858154297.3089599609-.6590576172.9424438477-1.2825927734,1.6168823242-1.6593017578.446472168-.2492675781.9073486328-.3569946289,1.3115844727-.3618164062,3.5821533203-.0424804688,5.1499633789,3.5645751953,5.1151123047,7.7258300781-.0567626953,6.7274169922-5.5040283203,16.6303710938-14.1500244141,21.8441162109,7.1076660156-3.3159790039,10.6262817383-7.7266845703,12.9736328125-12.7984619141-1.5119628906,17.9243164062-21.2810668945,16.7652587891-29.2665405273,29.095703125,7.7091064453-9.3291625977,25.8255615234-11.8420410156,26.754699707-20.3746337891.7025146484,10.4609985352-10.7435302734,17.8630981445-18.9771118164,20.3746337891-8.1098022461,2.7943725586-14.7834472656,6.1712646484-20.5327148438,12.5506591797l-2.6444091797,2.9342041016c7.1137695312-6.0041503906,12.0041503906-10.4151611328,21.5257568359-12.6967163086,6.6976928711-1.6047973633,10.9064941406-2.9319458008,14.251159668-8.8905639648-.4920654297,2.6809692383-.5939331055,5.2307128906-2.0225219727,7.5692749023-8.91015625,14.5866088867-32.5099487305,8.6388549805-43.2427978516,30.4804077148,3.5161132812-4.2636108398,5.8314208984-7.7048339844,10.3782348633-10.8824462891,7.6427612305-5.3367919922,18.9099121094-5.4703369141,25.9899902344-10.7841796875-3.4418945312,9.7840576172-13.4731445312,15.1257324219-23.0275268555,18.1162109375-8.2644042969,2.8414916992-12.5087280273,3.0118408203-15.0559082031,13.6876831055,5.4045410156-15.2988891602,16.4840087891-6.7744750977,24.6421508789-16.1055297852-7.2479248047,19.2185058594-23.5733032227,6.7152099609-23.6639404297,28.4353027344,2.6560668945-17.4026489258,13.2443237305-11.6982421875,16.8270263672-17.8890991211,1.0374755859,8.2992553711-4.5410766602,11.9424438477-9.9552612305,14.9315185547-8.7009277344,7.0614013672-3.1399536133,15.6177368164,2.3283691406,17.514465332-1.2124633789-3.3928222656-1.9916381836-6.8997802734.3353271484-10.0063476562,2.6860961914-3.5798950195,7.6297607422-4.0240478516,11.7016601562-3.8602294922,4.5902099609.1848144531,8.1610107422.8741455078,12.6723022461-1.3158569336,3.7069091797-1.7994384766,5.5017700195-4.2698364258,6.2974243164-8.6873168945,1.2364501953-6.8666381836-6.1650390625-11.2467651367-9.2528076172-7.2861328125,1.8397216797.3446655273,2.9137573242,4.6569824219-.4665527344,4.8897094727-2.0296020508.1397705078-3.1408081055-1.6505737305-2.6444702148-3.5858154297.8991699219-3.5044555664,4.9274902344-4.5274658203,7.1555175781-4.2380981445,2.6685180664.3470458984,5.6295776367,1.6038818359,6.9995727539,4.2380981445,2.1166381836,4.069152832,1.8056640625,8.3298950195-.4665527344,12.2246704102-3.467956543,5.9431152344-11.8859863281,6.3572998047-18.55078125,5.2157592773-20.7658081055-3.556640625-14.0712280273,18.1845703125,5.1791381836,18.2276611328h0Z" style="fill:#0a3470; fill-rule:evenodd; stroke-width:0px;"/></g></svg>