<?xml version="1.0" encoding="UTF-8" standalone="no"?>
<svg
   viewBox="0 0 871.9848 113.99564"
   width="871.9848"
   height="113.99564"
   version="1.1"
   id="svg2"
   sodipodi:docname="buet.svg"
   inkscape:version="1.4.2 (f4327f4, 2025-05-13)"
   xmlns:inkscape="http://www.inkscape.org/namespaces/inkscape"
   xmlns:sodipodi="http://sodipodi.sourceforge.net/DTD/sodipodi-0.dtd"
   xmlns="http://www.w3.org/2000/svg"
   xmlns:svg="http://www.w3.org/2000/svg">
  <defs
     id="defs2" />
  <sodipodi:namedview
     id="namedview2"
     pagecolor="#ffffff"
     bordercolor="#000000"
     borderopacity="0.25"
     inkscape:showpageshadow="2"
     inkscape:pageopacity="0.0"
     inkscape:pagecheckerboard="0"
     inkscape:deskcolor="#d1d1d1"
     showgrid="false"
     inkscape:zoom="1.52"
     inkscape:cx="470.39474"
     inkscape:cy="58.881579"
     inkscape:window-width="1366"
     inkscape:window-height="705"
     inkscape:window-x="-8"
     inkscape:window-y="-8"
     inkscape:window-maximized="1"
     inkscape:current-layer="svg2" />
  <!-- Background for contrast (Optional, remove if transparent is needed) -->
  <!-- Left-aligned Text Group -->
  <text
     x="133.59976"
     y="46.305641"
     font-family="'Helvetica Neue', Helvetica, Arial, SolaimanLipi, sans-serif"
     text-anchor="start"
     id="text2"
     transform="scale(1.0058931,0.99414143)"
     style="font-size:12.5407px;stroke-width:1"><!-- Bengali Text --><tspan
       x="133.59976"
       dy="0"
       font-size="43.8926px"
       font-weight="bold"
       fill="#004b87"
       id="tspan1"
       style="stroke-width:1">বাংলাদেশ প্রকৌশল বিশ্ববিদ্যালয়</tspan><!-- English Text --><tspan
       x="133.59976"
       dy="57.47839"
       font-size="29.2617px"
       font-weight="normal"
       fill="#005a9c"
       letter-spacing="0.5px"
       id="tspan2"
       style="stroke-width:1">Bangladesh University of Engineering and Technology</tspan></text>
  <path
     class="st0"
     d="M 55.770861,113.46794"
     id="path1"
     style="fill:#ec1e24;stroke:#231f20;stroke-width:3.00216;stroke-miterlimit:10" />
  <path
     class="st0"
     d="M 57.62433,113.46794"
     id="path2"
     style="fill:#ec1e24;stroke:#231f20;stroke-width:3.00216;stroke-miterlimit:10" />
  <path
     class="st0"
     d="M 59.514865,113.46794"
     id="path3"
     style="fill:#ec1e24;stroke:#231f20;stroke-width:3.00216;stroke-miterlimit:10" />
  <g
     id="g46"
     transform="matrix(0.37069399,0,0,0.36701613,-0.87117996,-1.3347176)"
     style="stroke-width:2.71308">
	<line
   class="st1"
   x1="40.400002"
   x2="275.29999"
   y1="159.7"
   y2="159.7"
   id="line3"
   style="fill:none;stroke:#ac1f24;stroke-width:8.13925;stroke-linecap:round;stroke-linejoin:round" />

	<line
   class="st1"
   x1="40.799999"
   x2="274.89999"
   y1="148.10001"
   y2="148.10001"
   id="line4"
   style="fill:none;stroke:#ac1f24;stroke-width:8.13925;stroke-linecap:round;stroke-linejoin:round" />

	<line
   class="st1"
   x1="42.400002"
   x2="273.29999"
   y1="136.5"
   y2="136.5"
   id="line5"
   style="fill:none;stroke:#ac1f24;stroke-width:8.13925;stroke-linecap:round;stroke-linejoin:round" />

	<line
   class="st1"
   x1="45.200001"
   x2="270.5"
   y1="124.9"
   y2="124.9"
   id="line6"
   style="fill:none;stroke:#ac1f24;stroke-width:8.13925;stroke-linecap:round;stroke-linejoin:round" />

	<line
   class="st1"
   x1="49.299999"
   x2="266.39999"
   y1="113.3"
   y2="113.3"
   id="line7"
   style="fill:none;stroke:#ac1f24;stroke-width:8.13925;stroke-linecap:round;stroke-linejoin:round" />

	<line
   class="st1"
   x1="54.799999"
   x2="260.79999"
   y1="101.7"
   y2="101.7"
   id="line8"
   style="fill:none;stroke:#ac1f24;stroke-width:8.13925;stroke-linecap:round;stroke-linejoin:round" />

	<line
   class="st1"
   x1="74"
   x2="253.5"
   y1="90.199997"
   y2="90.199997"
   id="line9"
   style="fill:none;stroke:#ac1f24;stroke-width:8.13925;stroke-linecap:round;stroke-linejoin:round" />

	<line
   class="st1"
   x1="74"
   x2="244.10001"
   y1="78.699997"
   y2="78.699997"
   id="line10"
   style="fill:none;stroke:#ac1f24;stroke-width:8.13925;stroke-linecap:round;stroke-linejoin:round" />

	<line
   class="st1"
   x1="83.900002"
   x2="231.8"
   y1="67.099998"
   y2="67.099998"
   id="line11"
   style="fill:none;stroke:#ac1f24;stroke-width:8.13925;stroke-linecap:round;stroke-linejoin:round" />

	<line
   class="st1"
   x1="101.1"
   x2="214.60001"
   y1="55.5"
   y2="55.5"
   id="line12"
   style="fill:none;stroke:#ac1f24;stroke-width:8.13925;stroke-linecap:round;stroke-linejoin:round" />

	<line
   class="st1"
   x1="259.39999"
   x2="259.39999"
   y1="99.300003"
   y2="159.7"
   id="line13"
   style="fill:none;stroke:#ac1f24;stroke-width:8.13925;stroke-linecap:round;stroke-linejoin:round" />

	<line
   class="st1"
   x1="247.8"
   x2="247.8"
   y1="82.800003"
   y2="159.7"
   id="line14"
   style="fill:none;stroke:#ac1f24;stroke-width:8.13925;stroke-linecap:round;stroke-linejoin:round" />

	<line
   class="st1"
   x1="236.2"
   x2="236.2"
   y1="70.800003"
   y2="159.7"
   id="line15"
   style="fill:none;stroke:#ac1f24;stroke-width:8.13925;stroke-linecap:round;stroke-linejoin:round" />

	<line
   class="st1"
   x1="224.7"
   x2="224.7"
   y1="61.700001"
   y2="159.10001"
   id="line16"
   style="fill:none;stroke:#ac1f24;stroke-width:8.13925;stroke-linecap:round;stroke-linejoin:round" />

	<line
   class="st1"
   x1="213.10001"
   x2="213.10001"
   y1="54.5"
   y2="159.39999"
   id="line17"
   style="fill:none;stroke:#ac1f24;stroke-width:8.13925;stroke-linecap:round;stroke-linejoin:round" />

	<line
   class="st1"
   x1="201.5"
   x2="201.5"
   y1="49.200001"
   y2="159.7"
   id="line18"
   style="fill:none;stroke:#ac1f24;stroke-width:8.13925;stroke-linecap:round;stroke-linejoin:round" />

	<line
   class="st1"
   x1="189.89999"
   x2="189.89999"
   y1="45.200001"
   y2="159.7"
   id="line19"
   style="fill:none;stroke:#ac1f24;stroke-width:8.13925;stroke-linecap:round;stroke-linejoin:round" />

	<line
   class="st1"
   x1="178.3"
   x2="178.3"
   y1="42.599998"
   y2="159.7"
   id="line20"
   style="fill:none;stroke:#ac1f24;stroke-width:8.13925;stroke-linecap:round;stroke-linejoin:round" />

	<line
   class="st1"
   x1="166.7"
   x2="166.7"
   y1="40.900002"
   y2="159.7"
   id="line21"
   style="fill:none;stroke:#ac1f24;stroke-width:8.13925;stroke-linecap:round;stroke-linejoin:round" />

	<line
   class="st1"
   x1="155.10001"
   x2="155.10001"
   y1="40.900002"
   y2="159.7"
   id="line22"
   style="fill:none;stroke:#ac1f24;stroke-width:8.13925;stroke-linecap:round;stroke-linejoin:round" />

	<line
   class="st1"
   x1="143.5"
   x2="143.5"
   y1="41.700001"
   y2="159.7"
   id="line23"
   style="fill:none;stroke:#ac1f24;stroke-width:8.13925;stroke-linecap:round;stroke-linejoin:round" />

	<line
   class="st1"
   x1="131.89999"
   x2="131.89999"
   y1="43.900002"
   y2="159.7"
   id="line24"
   style="fill:none;stroke:#ac1f24;stroke-width:8.13925;stroke-linecap:round;stroke-linejoin:round" />

	<line
   class="st1"
   x1="120.3"
   x2="120.3"
   y1="47"
   y2="159.7"
   id="line25"
   style="fill:none;stroke:#ac1f24;stroke-width:8.13925;stroke-linecap:round;stroke-linejoin:round" />

	<line
   class="st1"
   x1="108.7"
   x2="108.7"
   y1="51.5"
   y2="159.7"
   id="line26"
   style="fill:none;stroke:#ac1f24;stroke-width:8.13925;stroke-linecap:round;stroke-linejoin:round" />

	<line
   class="st1"
   x1="74"
   x2="74"
   y1="76.099998"
   y2="159.7"
   id="line27"
   style="fill:none;stroke:#ac1f24;stroke-width:8.13925;stroke-linecap:round;stroke-linejoin:round" />

	<line
   class="st1"
   x1="62.400002"
   x2="62.400002"
   y1="88.400002"
   y2="159.7"
   id="line28"
   style="fill:none;stroke:#ac1f24;stroke-width:8.13925;stroke-linecap:round;stroke-linejoin:round" />

	<line
   class="st1"
   x1="50.799999"
   x2="50.799999"
   y1="113.3"
   y2="159.7"
   id="line29"
   style="fill:none;stroke:#ac1f24;stroke-width:8.13925;stroke-linecap:round;stroke-linejoin:round" />

	<line
   class="st1"
   x1="97.099998"
   x2="97.099998"
   y1="57.799999"
   y2="159.7"
   id="line30"
   style="fill:none;stroke:#ac1f24;stroke-width:8.13925;stroke-linecap:round;stroke-linejoin:round" />

	<line
   class="st1"
   x1="85.5"
   x2="85.5"
   y1="65.699997"
   y2="159.7"
   id="line31"
   style="fill:none;stroke:#ac1f24;stroke-width:8.13925;stroke-linecap:round;stroke-linejoin:round" />

	<line
   class="st1"
   x1="157.8"
   x2="208.10001"
   y1="264.60001"
   y2="264.60001"
   id="line32"
   style="fill:none;stroke:#ac1f24;stroke-width:8.13925;stroke-linecap:round;stroke-linejoin:round" />

	<line
   class="st1"
   x1="157.8"
   x2="227.5"
   y1="253"
   y2="253"
   id="line33"
   style="fill:none;stroke:#ac1f24;stroke-width:8.13925;stroke-linecap:round;stroke-linejoin:round" />

	<line
   class="st1"
   x1="157.89999"
   x2="241"
   y1="241.39999"
   y2="241.39999"
   id="line34"
   style="fill:none;stroke:#ac1f24;stroke-width:8.13925;stroke-linecap:round;stroke-linejoin:round" />

	<line
   class="st1"
   x1="157.89999"
   x2="251.2"
   y1="229.8"
   y2="229.8"
   id="line35"
   style="fill:none;stroke:#ac1f24;stroke-width:8.13925;stroke-linecap:round;stroke-linejoin:round" />

	<line
   class="st1"
   x1="76.599998"
   x2="259"
   y1="218.2"
   y2="218.2"
   id="line36"
   style="fill:none;stroke:#ac1f24;stroke-width:8.13925;stroke-linecap:round;stroke-linejoin:round" />

	<line
   class="st1"
   x1="51"
   x2="265"
   y1="206.60001"
   y2="206.60001"
   id="line37"
   style="fill:none;stroke:#ac1f24;stroke-width:8.13925;stroke-linecap:round;stroke-linejoin:round" />

	<line
   class="st1"
   x1="250.60001"
   x2="250.60001"
   y1="206.60001"
   y2="230.39999"
   id="line38"
   style="fill:none;stroke:#ac1f24;stroke-width:8.13925;stroke-linecap:round;stroke-linejoin:round" />

	<line
   class="st1"
   x1="239"
   x2="239"
   y1="206.60001"
   y2="243.2"
   id="line39"
   style="fill:none;stroke:#ac1f24;stroke-width:8.13925;stroke-linecap:round;stroke-linejoin:round" />

	<line
   class="st1"
   x1="227.5"
   x2="227.5"
   y1="206.60001"
   y2="253"
   id="line40"
   style="fill:none;stroke:#ac1f24;stroke-width:8.13925;stroke-linecap:round;stroke-linejoin:round" />

	<line
   class="st1"
   x1="215.89999"
   x2="215.89999"
   y1="206.60001"
   y2="260.5"
   id="line41"
   style="fill:none;stroke:#ac1f24;stroke-width:8.13925;stroke-linecap:round;stroke-linejoin:round" />

	<line
   class="st1"
   x1="204.3"
   x2="204.3"
   y1="206.60001"
   y2="266.20001"
   id="line42"
   style="fill:none;stroke:#ac1f24;stroke-width:8.13925;stroke-linecap:round;stroke-linejoin:round" />

	<line
   class="st1"
   x1="192.7"
   x2="192.7"
   y1="206.60001"
   y2="270.5"
   id="line43"
   style="fill:none;stroke:#ac1f24;stroke-width:8.13925;stroke-linecap:round;stroke-linejoin:round" />

	<line
   class="st1"
   x1="181.10001"
   x2="181.10001"
   y1="206.60001"
   y2="273.5"
   id="line44"
   style="fill:none;stroke:#ac1f24;stroke-width:8.13925;stroke-linecap:round;stroke-linejoin:round" />

	<line
   class="st1"
   x1="169.5"
   x2="169.5"
   y1="206.60001"
   y2="275.10001"
   id="line45"
   style="fill:none;stroke:#ac1f24;stroke-width:8.13925;stroke-linecap:round;stroke-linejoin:round" />

	<line
   class="st1"
   x1="50.799999"
   x2="74"
   y1="159.7"
   y2="159.7"
   id="line46"
   style="fill:none;stroke:#ac1f24;stroke-width:8.13925;stroke-linecap:round;stroke-linejoin:round" />

</g>
  <path
     class="st2"
     d="m 59.589008,113.87165 1.445701,-5.65205 c 1.149152,-0.0734 2.33538,-0.18351 3.447455,-0.33032 l 2.520721,5.24834 c 0.630186,-0.11011 1.223294,-0.22022 1.85347,-0.33032 0.630184,-0.11011 1.223294,-0.25691 1.853468,-0.36702 l 0.29656,-5.79886 c 1.112076,-0.2936 2.224161,-0.66062 3.336247,-0.99093 l 3.521588,4.6611 c 0.593108,-0.22021 1.149151,-0.44042 1.74226,-0.69733 0.593109,-0.25691 1.149152,-0.47713 1.742261,-0.73403 l -0.852592,-5.76216 c 1.037942,-0.47712 2.075886,-1.06434 3.076763,-1.65156 l 4.37419,3.92706 c 0.518967,-0.33031 1.037944,-0.66063 1.55691,-0.99094 0.518976,-0.33032 1.037943,-0.69733 1.519843,-1.06435 l -1.964677,-5.505235 c 0.926734,-0.73405 1.853468,-1.43137 2.668995,-2.20211 l 5.078511,2.97283 c 0.444832,-0.40371 0.889665,-0.84414 1.334498,-1.28455 0.444833,-0.44042 0.889666,-0.88085 1.29743,-1.32126 l -3.002624,-5.02813 c 0.778459,-0.88083 1.482778,-1.76167 2.224166,-2.64251 l 5.560408,1.94519 c 0.33362,-0.47712 0.74139,-1.02765 1.07502,-1.50477 0.33362,-0.51382 0.70432,-1.02764 1.00087,-1.54146 l -3.96643,-4.3308 c 0.59311,-0.99094 1.14916,-2.01859 1.66813,-3.04623 l 5.81989,0.84414 c 0.25949,-0.58723 0.4819,-1.13776 0.74139,-1.72497 0.25948,-0.58723 0.44483,-1.13776 0.70432,-1.72499 l -4.70782,-3.48664 c 0.37069,-1.10105 0.74139,-2.20211 1.00088,-3.30316 l 5.85696,-0.29361 c 0.14828,-0.62392 0.25949,-1.21115 0.3707,-1.83508 0.1112,-0.62392 0.22242,-1.21115 0.33362,-1.83508 l -5.30092,-2.4957 c 0.14827,-1.13776 0.25949,-2.27551 0.33362,-3.41325 l 5.70869,-1.43137 c 0.037,-0.62392 0.037,-1.21115 0.037,-1.87178 0,-0.62393 0,-1.24785 -0.037,-1.87179 l -5.70869,-1.43136 c -0.0742,-1.13775 -0.18535,-2.312198 -0.33362,-3.413247 l 5.30092,-2.49571 c -0.1112,-0.623927 -0.22242,-1.211153 -0.33362,-1.83508 -0.11121,-0.623927 -0.25949,-1.211153 -0.3707,-1.83508 l -5.85696,-0.293613 c -0.29656,-1.101048 -0.66726,-2.202097 -1.00088,-3.303146 l 4.70782,-3.486652 c -0.22242,-0.587226 -0.44484,-1.137751 -0.70432,-1.724977 -0.22242,-0.587225 -0.4819,-1.137748 -0.74139,-1.724974 l -5.78283,0.770733 c -0.4819,-1.027644 -1.075,-2.05529 -1.66812,-3.046234 l 3.96643,-4.33079 c -0.33362,-0.513823 -0.66725,-1.027645 -1.00087,-1.541468 -0.33363,-0.513822 -0.70432,-1.027646 -1.07502,-1.504766 l -5.56041,1.945186 C 97.955833,25.237246 97.251514,24.319706 96.473053,23.51227 l 3.002625,-5.02812 C 99.067915,18.043731 98.623083,17.60331 98.17825,17.162892 97.733417,16.722473 97.288584,16.282053 96.843752,15.878336 l -5.078505,2.97283 C 90.875579,18.080432 89.98591,17.383102 89.096252,16.64907 L 91.06093,11.143828 C 90.579019,10.813513 90.022986,10.409796 89.541075,10.079481 89.022109,9.7491674 88.503132,9.3821504 87.984166,9.0885384 l -4.37419,3.9270716 c -1.000877,-0.587226 -2.03882,-1.137751 -3.076763,-1.651574 l 0.852602,-5.7621516 c -0.593109,-0.256911 -1.149152,-0.47712 -1.742261,-0.734032 -0.593119,-0.256911 -1.149152,-0.440419 -1.74226,-0.697331 l -3.521598,4.661106 C 73.26761,8.4646104 72.155535,8.0975934 71.043449,7.8406824 L 70.74689,2.0418284 c -0.630176,-0.146806 -1.223284,-0.256911 -1.85347,-0.367015 -0.630175,-0.110105 -1.223284,-0.220211 -1.853468,-0.330316 l -2.520711,5.248331 C 63.370089,6.4460214 62.220938,6.3359164 61.071786,6.2625134 L 59.626074,0.61046536 c -0.667252,-0.110105 -1.260361,-0.110105 -1.927612,-0.110105 -0.630175,0 -1.26036,0 -1.890535,0.03671 L 54.362216,6.1524174 c -1.149142,0.0734 -2.33537,0.183507 -3.447445,0.330315 l -2.557797,-5.248331 c -0.630175,0.110105 -1.223284,0.220209 -1.85347,0.330315 -0.630175,0.110105 -1.223283,0.256911 -1.853469,0.367016 v 0 l -0.296549,5.835555 c -1.112086,0.293614 -2.224161,0.66063 -3.336247,0.990944 l -3.521598,-4.661104 c -0.593108,0.220209 -1.149152,0.440419 -1.74226,0.69733 -0.593109,0.220209 -1.149152,0.477121 -1.742261,0.734032 l 0.852591,5.7621526 c -1.037932,0.477121 -2.07587,1.064347 -3.076748,1.651572 L 27.449839,9.0151434 c -0.518967,0.330314 -1.037943,0.660629 -1.556909,0.9909426 -0.518977,0.330314 -1.037943,0.697329 -1.519844,1.064347 l 1.964678,5.468539 c -0.926735,0.734033 -1.853469,1.431363 -2.668996,2.202097 L 18.59025,15.768238 c -0.44482,0.403719 -0.88966,0.844137 -1.33449,1.284557 -0.44484,0.44042 -0.88967,0.880839 -1.29742,1.321258 l 3.03968,5.028121 c -0.77847,0.880839 -1.48278,1.761677 -2.22416,2.642516 l -5.56041,-1.945185 c -0.33362,0.477121 -0.7414,1.027645 -1.07502,1.504766 -0.33362,0.513823 -0.70432,1.027644 -1.00088,1.541467 l 3.96644,4.33079 c -0.59311,0.990944 -1.14916,2.018589 -1.66813,3.046235 L 5.61597,33.678625 C 5.35649,34.265852 5.13406,34.816375 4.87458,35.4036 4.65216,35.990826 4.13319,37.091875 4.13319,37.091875 L 8.841,40.578528 c -0.37069,1.101049 -0.74138,2.202097 -1.00087,3.303145 l -5.85696,0.293613 c -0.14829,0.623927 -0.25949,1.211153 -0.3707,1.835081 -0.11121,0.623927 -0.3707,1.835081 -0.3707,1.835081 l 5.338,2.495709 c -0.14827,1.13775 -0.25949,2.275498 -0.33363,3.413248 l -5.70867996,1.54147 c -0.0371,0.62392 -0.0371,1.21115 -0.0371,1.87177 0,0.62393 0,1.87178 0,1.87178 L 6.20904,60.470795 c 0.0741,1.13775 0.18536,2.3122 0.33363,3.41325 l -5.30093,2.49571 c 0.11122,0.62392 0.22242,1.21115 0.33363,1.83507 0.1112,0.62394 0.25948,1.21116 0.3707,1.83509 l 5.85696,0.29361 c 0.29656,1.10105 0.66725,2.2021 1.00088,3.30315 l -4.70782,3.48665 c 0.22242,0.58723 0.44483,1.13775 0.70431,1.72498 0.22243,0.58723 0.70433,1.72497 0.70433,1.72497 l 5.85696,-0.84414 c 0.4819,1.02765 1.07501,2.05529 1.66812,3.04624 l -3.96642,4.33079 c 0.33363,0.51382 0.66725,1.02765 1.00087,1.54146 0.33362,0.51383 1.03795,1.50477 1.03795,1.50477 l 5.56041,-1.94518 c 0.74138,0.91754 1.4457,1.83508 2.22416,2.64252 l -3.00262,5.02811 c 0.40776,0.44043 0.85259,0.88084 1.29742,1.32126 0.44483,0.44043 0.88967,0.88084 1.3345,1.28456 l 5.078514,-3.00953 c 0.889668,0.77073 1.779327,1.46806 2.668995,2.20209 l -1.964677,5.505255 c 0.4819,0.33031 1.037942,0.73403 1.519843,1.06434 0.518977,0.33032 1.037943,0.69732 1.55692,0.99095 l 4.37419,-3.81697 c 1.000867,0.58723 2.038805,1.13775 3.076749,1.65157 l -0.77846,5.76215 c 0.593119,0.25691 1.149152,0.47713 1.742271,0.73404 0.593108,0.2202 1.149141,0.44042 1.74226,0.69732 l 3.484522,-4.62439 c 1.112086,0.36701 2.22416,0.73403 3.336247,0.99093 l 0.296549,5.79886 c 0.630186,0.14681 1.223294,0.25691 1.853469,0.36702 0.630185,0.1101 1.223295,0.22021 1.853469,0.33032 l 2.520721,-5.24834 c 1.149152,0.14681 2.298303,0.25692 3.447455,0.33032 l 1.445712,5.65205 M 26.597247,57.681475 V 26.998924 c 7.895773,-7.964251 18.905391,-12.955669 31.101215,-12.955669 24.058045,0 43.556548,19.305048 43.556548,43.12439 0,23.81935 -19.498503,43.124405 -43.556548,43.124405 v 0.0367 -25.360815 l -0.03711,0.0367 H 44.7612 v -0.0367 8.47806 0 h -4.300048 v -8.51477 h -8.600101 v -0.0367 8.51477 0 h -4.300047 v 0 -8.51477 0 H 17.9971 v -0.0367 c -2.44658,-5.39514 -3.85521,-11.4509 -3.85521,-17.72687 0,-9.358916 3.03968,-18.057198 8.118189,-25.103907 v 8.624878 H 17.9971 v 17.029549"
     id="path46"
     style="fill:#ac1f25;stroke:#ac1f24;stroke-width:1.00072;stroke-miterlimit:10" />
  <polygon
     class="st3"
     points="108.7,136.5 97.1,136.5 97.1,124.9 85.5,124.9 85.5,159.7 108.7,159.7 "
     id="polygon46"
     transform="matrix(0.37069399,0,0,0.36701613,-0.87117996,-1.3347176)"
     style="fill:#ac1f25;stroke:#ac1f24;stroke-width:2.71308;stroke-linecap:round;stroke-linejoin:round" />
  <polygon
     class="st3"
     points="131.9,101.7 143.5,101.7 143.5,78.7 155.1,78.7 155.1,159.7 120.3,159.7 120.3,67.1 131.9,67.1 "
     id="polygon47"
     transform="matrix(0.37069399,0,0,0.36701613,-0.87117996,-1.3347176)"
     style="fill:#ac1f25;stroke:#ac1f24;stroke-width:2.71308;stroke-linecap:round;stroke-linejoin:round" />
  <rect
     class="st1"
     height="11.707813"
     width="78.883682"
     x="18.034203"
     y="60.323982"
     id="rect47"
     style="fill:none;stroke:#ac1f24;stroke-width:3.00216;stroke-linecap:round;stroke-linejoin:round" />
  <g
     id="g48"
     transform="matrix(0.37069399,0,0,0.36701613,-0.87117996,-1.3347176)"
     style="stroke-width:2.71308">
	<rect
   class="st4"
   height="31.9"
   width="35.700001"
   x="180.2"
   y="168"
   id="rect48"
   style="fill:none;stroke:#ac1f24;stroke-width:8.13925;stroke-linecap:round;stroke-linejoin:bevel" />

	<line
   class="st4"
   x1="198.10001"
   x2="198.10001"
   y1="168"
   y2="199.89999"
   id="line48"
   style="fill:none;stroke:#ac1f24;stroke-width:8.13925;stroke-linecap:round;stroke-linejoin:bevel" />

</g>
  <polyline
     class="st1"
     points="263.8,178.3 256,178.3 254.1,182 252.2,178.3 250.2,174.7 248.3,178.3 246.4,182 244.4,178.3   242.5,174.7 240.5,178.3 238.6,182 236.7,178.3 234.7,174.7 232.7,178.3 230.9,178.3 226.9,178.3 211.5,178.3 147.5,178.3   145.6,182 143.6,178.3 141.6,174.7 139.8,178.3 137.8,182 135.8,178.3 134,174.7 132,178.3 130.1,182 128.1,178.3 126.2,174.7   124.3,178.3 87.4,178.3 85.4,182 83.6,178.3 81.6,174.7 79.6,178.3 77.8,182 75.8,178.3 73.9,174.7 71.9,178.3 70,182 68.1,178.3   66.1,174.7 64.1,178.3 50.6,178.3 "
     id="polyline48"
     transform="matrix(0.37069399,0,0,0.36701613,-0.87117996,-1.3347176)"
     style="fill:none;stroke:#ac1f24;stroke-width:8.13925;stroke-linecap:round;stroke-linejoin:round" />
  <polyline
     class="st1"
     points="263.8,188.9 246.4,188.9 244.4,192.5 242.5,188.9 240.5,185.3 238.6,188.9 236.7,192.5 234.7,188.9   232.7,185.3 230.9,188.9 228.9,192.5 226.9,188.9 225.1,185.3 223.1,188.9 217.3,188.9 203.7,188.9 172.7,188.9 170.7,192.5   168.9,188.9 166.9,185.3 164.9,188.9 163,192.5 161.1,188.9 159.1,185.3 157.2,188.9 155.3,192.5 153.3,188.9 151.4,185.3   149.4,188.9 112.7,188.9 110.7,192.5 108.7,188.9 106.8,185.3 104.9,188.9 102.9,192.5 101,188.9 99.1,185.3 97.1,188.9 95.2,192.5   93.2,188.9 91.3,185.3 89.4,188.9 50.6,188.9 "
     id="polyline49"
     transform="matrix(0.37069399,0,0,0.36701613,-0.87117996,-1.3347176)"
     style="fill:none;stroke:#ac1f24;stroke-width:8.13925;stroke-linecap:round;stroke-linejoin:round" />
  <rect
     class="st5"
     height="0.99094349"
     width="13.233775"
     x="65.853737"
     y="72.031792"
     id="rect49"
     style="fill:#ac1f25;stroke:#ac1f24;stroke-width:3.00216;stroke-linecap:round;stroke-linejoin:round" />
  <rect
     class="st5"
     height="0.99094349"
     width="13.233775"
     x="65.927872"
     y="59.333038"
     id="rect50"
     style="fill:#ac1f25;stroke:#ac1f24;stroke-width:3.00216;stroke-linecap:round;stroke-linejoin:round" />
</svg>
