<?xml version="1.0" encoding="UTF-8" standalone="no"?>
<svg
   width="600"
   height="150"
   viewBox="0 0 600 150"
   version="1.1"
   id="svg2"
   sodipodi:docname="cu123.svg"
   inkscape:version="1.4.2 (f4327f4, 2025-05-13)"
   xmlns:inkscape="http://www.inkscape.org/namespaces/inkscape"
   xmlns:sodipodi="http://sodipodi.sourceforge.net/DTD/sodipodi-0.dtd"
   xmlns="http://www.w3.org/2000/svg"
   xmlns:svg="http://www.w3.org/2000/svg">
  <defs
     id="defs2" />
  <sodipodi:namedview
     id="namedview2"
     pagecolor="#ffffff"
     bordercolor="#000000"
     borderopacity="0.25"
     inkscape:showpageshadow="2"
     inkscape:pageopacity="0.0"
     inkscape:pagecheckerboard="0"
     inkscape:deskcolor="#d1d1d1"
     inkscape:zoom="1.8095238"
     inkscape:cx="312.78948"
     inkscape:cy="71.56579"
     inkscape:window-width="1366"
     inkscape:window-height="705"
     inkscape:window-x="-8"
     inkscape:window-y="-8"
     inkscape:window-maximized="1"
     inkscape:current-layer="svg2"
     showgrid="false" />
  <!-- Clean white background -->
  <!-- "UNIVERSITY OF" - Top Line -->
  <!-- "CALCUTTA" - Bottom Line -->
  <text
     x="166.47369"
     y="61.394787"
     font-family="'Times New Roman', serif"
     font-size="52px"
     font-weight="400"
     fill="#231f20"
     letter-spacing="2"
     id="text1">UNIVERSITY OF</text>
  <text
     x="166.47369"
     y="126.39479"
     font-family="'Times New Roman', serif"
     font-size="78px"
     font-weight="400"
     fill="#231f20"
     letter-spacing="3"
     id="text2">CALCUTTA</text>
  <g
     transform="matrix(0.00808204,0,0,-0.00802298,1.9845148,146.41364)"
     fill="#000000"
     stroke="none"
     id="g58"
     style="stroke-width:12.4186">
    <path
       d="m 8474,17991 c 9,-15 -15,-19 -140,-25 -123,-7 -354,-29 -484,-47 -41,-6 -106,-15 -145,-19 -196,-24 -575,-95 -721,-136 -28,-8 -60,-14 -71,-14 -11,0 -39,-6 -64,-14 -24,-7 -73,-21 -109,-30 -99,-26 -249,-68 -325,-91 -22,-7 -65,-20 -95,-29 -140,-42 -404,-132 -510,-176 -30,-12 -71,-28 -90,-35 -45,-17 -139,-54 -165,-65 -11,-4 -38,-15 -60,-24 -22,-9 -53,-23 -68,-31 -16,-8 -32,-15 -37,-15 -21,0 -526,-247 -679,-332 -58,-32 -106,-58 -107,-58 -2,0 -92,-53 -202,-119 -189,-113 -483,-303 -602,-390 -30,-22 -73,-52 -95,-68 -96,-67 -356,-268 -435,-335 -14,-12 -67,-57 -119,-100 -51,-43 -99,-84 -106,-91 -7,-7 -54,-50 -106,-96 -121,-109 -501,-489 -610,-610 -46,-52 -90,-99 -96,-106 -89,-92 -332,-395 -499,-622 -195,-265 -287,-404 -456,-688 -65,-110 -123,-207 -128,-215 -5,-8 -20,-35 -33,-60 -14,-25 -41,-74 -61,-110 -41,-74 -184,-361 -246,-495 -48,-103 -71,-156 -122,-275 -17,-39 -122,-305 -143,-360 -43,-115 -51,-138 -99,-285 -59,-179 -126,-408 -170,-582 -55,-216 -77,-314 -122,-538 C 97,10416 39,9985 18,9695 2,9471 -4,8640 9,8425 33,8026 88,7589 155,7270 c 8,-36 21,-101 31,-145 35,-171 57,-261 119,-495 63,-237 127,-442 210,-675 20,-55 40,-111 45,-125 5,-14 18,-50 30,-80 12,-30 25,-66 30,-80 9,-29 125,-298 165,-386 58,-126 247,-503 289,-579 25,-44 49,-87 52,-95 4,-8 26,-46 49,-85 22,-38 44,-77 47,-86 3,-8 23,-42 44,-75 22,-32 43,-67 49,-76 5,-9 30,-49 55,-88 25,-39 50,-79 55,-88 17,-27 139,-211 192,-287 52,-74 322,-437 333,-445 3,-3 24,-27 45,-55 60,-75 216,-258 313,-365 113,-125 512,-524 631,-631 52,-46 101,-91 110,-100 9,-9 59,-51 111,-95 52,-43 97,-82 100,-86 6,-8 110,-88 350,-271 152,-115 534,-376 655,-447 22,-13 70,-43 107,-67 37,-24 69,-43 72,-43 2,0 37,-19 78,-43 40,-24 80,-46 88,-50 8,-4 56,-30 105,-57 133,-74 594,-300 610,-300 3,0 36,-14 73,-31 97,-45 225,-98 322,-134 19,-7 59,-23 89,-35 70,-28 238,-89 276,-100 17,-5 62,-19 100,-33 39,-13 97,-32 130,-41 33,-10 80,-24 105,-32 68,-20 138,-40 210,-58 36,-10 88,-23 115,-31 136,-37 251,-64 385,-90 47,-10 114,-23 150,-30 C 7574,95 8026,36 8360,13 8511,3 9469,3 9630,13 c 389,24 804,82 1235,172 131,28 207,45 260,60 28,7 79,21 115,30 109,27 229,61 325,90 22,7 65,20 95,29 143,42 391,127 490,168 41,16 91,36 110,43 43,16 184,73 225,90 17,8 55,23 85,36 167,67 676,320 860,429 36,21 88,50 115,65 28,16 68,40 90,54 22,14 48,30 57,36 9,5 38,23 65,39 42,26 242,158 388,256 143,97 481,358 664,514 351,298 779,722 1017,1007 95,114 125,150 205,249 83,104 215,279 298,395 23,33 67,95 97,137 88,124 395,619 427,688 4,8 17,31 29,50 22,37 237,465 281,560 39,84 188,432 197,460 5,14 18,50 30,80 38,97 81,214 90,245 5,17 27,84 50,150 22,66 48,145 56,175 9,30 22,73 29,95 26,86 66,232 88,320 9,33 23,89 32,125 34,134 44,177 60,260 9,47 22,114 30,150 24,111 68,378 89,545 27,203 45,393 52,543 5,108 10,145 20,149 21,8 21,971 -1,987 -10,8 -16,46 -20,151 -11,263 -79,777 -140,1065 -8,36 -21,101 -31,145 -36,179 -46,222 -59,270 -7,28 -21,79 -30,115 -9,36 -22,85 -30,110 -7,25 -20,74 -30,110 -9,36 -23,83 -29,105 -7,22 -21,67 -31,100 -9,33 -21,71 -26,84 -6,13 -28,78 -50,145 -49,148 -81,238 -121,336 -17,41 -44,109 -60,150 -36,89 -55,135 -74,173 -8,16 -14,33 -14,37 0,19 -224,480 -334,686 -63,118 -334,571 -398,664 -24,36 -73,108 -108,160 -59,87 -355,488 -370,500 -3,3 -24,28 -45,55 -243,307 -653,738 -959,1010 -43,39 -93,83 -110,99 -17,16 -53,46 -80,68 -27,22 -70,57 -95,79 -128,109 -465,369 -591,455 -102,69 -225,151 -300,199 -41,26 -94,61 -118,76 -24,16 -45,29 -47,29 -2,0 -72,41 -156,91 -213,127 -263,154 -524,283 -250,124 -350,171 -447,211 -35,15 -76,32 -93,40 -16,7 -61,25 -100,40 -38,14 -87,33 -107,41 -21,8 -57,21 -80,30 -24,9 -52,20 -63,25 -33,14 -188,70 -220,79 -16,5 -61,19 -100,33 -38,13 -97,32 -130,41 -33,10 -78,24 -100,31 -83,25 -215,62 -325,91 -36,9 -85,22 -110,29 -25,7 -81,20 -125,30 -44,9 -107,23 -140,30 -351,77 -955,163 -1161,166 -122,2 -199,12 -197,27 2,9 -108,12 -518,12 -303,0 -518,-4 -515,-9 z m 941,-281 c 61,-5 164,-12 230,-15 115,-6 224,-17 490,-51 199,-25 459,-70 680,-119 33,-7 96,-21 140,-30 108,-23 217,-52 455,-119 304,-87 614,-197 990,-353 217,-90 764,-362 898,-447 23,-14 44,-26 46,-26 3,0 24,-12 48,-27 69,-45 82,-52 103,-63 11,-6 32,-18 47,-28 27,-17 157,-99 187,-117 41,-25 212,-142 271,-185 36,-27 86,-63 111,-82 26,-18 66,-48 90,-66 24,-18 57,-43 74,-55 26,-20 78,-61 330,-265 260,-210 763,-704 981,-963 208,-248 402,-493 480,-609 17,-25 53,-76 79,-115 49,-70 179,-264 202,-301 31,-50 97,-160 107,-178 6,-12 24,-40 39,-64 15,-23 37,-59 48,-80 11,-20 25,-46 32,-57 106,-174 290,-540 412,-820 7,-16 27,-60 44,-98 17,-37 31,-72 31,-78 0,-6 7,-23 14,-37 28,-51 111,-273 190,-507 95,-282 182,-596 231,-830 9,-44 21,-98 27,-120 6,-22 14,-62 18,-90 4,-27 12,-70 18,-95 18,-76 63,-356 86,-535 98,-774 89,-1652 -26,-2370 -6,-38 -12,-86 -15,-105 -6,-57 -47,-268 -108,-555 -26,-124 -68,-293 -90,-360 -7,-22 -20,-69 -30,-105 -10,-36 -23,-83 -31,-105 -7,-22 -27,-87 -44,-145 -18,-58 -36,-116 -42,-130 -5,-14 -20,-56 -33,-95 -13,-38 -33,-95 -45,-125 -12,-30 -25,-66 -30,-80 -4,-14 -13,-38 -20,-55 -24,-58 -29,-70 -48,-120 -45,-116 -103,-252 -162,-380 -90,-198 -268,-542 -367,-710 -39,-66 -79,-134 -89,-152 -42,-72 -102,-165 -193,-301 -53,-79 -100,-152 -106,-161 -22,-37 -112,-159 -275,-373 -210,-276 -481,-581 -735,-831 -240,-236 -356,-344 -480,-448 -135,-111 -219,-183 -225,-190 -9,-10 -330,-250 -418,-311 -171,-121 -510,-344 -538,-355 -11,-4 -35,-18 -54,-31 -19,-13 -44,-28 -55,-33 -11,-6 -29,-15 -40,-22 -25,-15 -144,-83 -210,-119 -57,-32 -462,-233 -545,-271 -143,-65 -480,-203 -575,-236 -33,-11 -105,-37 -160,-57 -55,-19 -113,-39 -130,-44 -16,-4 -64,-19 -105,-32 -41,-14 -104,-33 -140,-42 -36,-10 -83,-24 -105,-31 -22,-7 -69,-20 -105,-30 -36,-10 -85,-23 -110,-30 -128,-36 -447,-103 -710,-149 -542,-95 -1203,-139 -1739,-117 -157,7 -346,19 -420,27 -74,8 -154,14 -178,14 -24,0 -90,7 -146,15 -56,8 -151,22 -212,31 -201,27 -364,55 -525,88 -262,55 -339,72 -405,91 -27,8 -72,21 -100,28 -27,8 -79,22 -115,32 -36,10 -83,23 -105,30 -22,7 -67,21 -100,30 -33,10 -76,23 -95,30 -19,7 -64,22 -100,34 -54,17 -132,44 -275,96 -27,9 -163,64 -203,81 -18,8 -37,14 -42,14 -6,0 -40,14 -77,31 -38,16 -81,36 -98,43 -175,76 -673,321 -745,366 -8,5 -110,66 -227,135 -458,270 -811,525 -1247,899 -198,169 -223,193 -481,451 -331,330 -543,572 -772,880 -62,82 -116,155 -121,160 -52,63 -356,523 -423,640 -19,33 -39,69 -46,80 -7,11 -16,27 -20,35 -4,8 -23,42 -42,75 -70,120 -351,672 -351,690 0,3 -13,33 -29,67 -54,121 -168,400 -200,493 -11,33 -30,85 -41,115 -12,30 -30,84 -41,120 -12,36 -27,81 -34,100 -7,19 -27,82 -45,140 -29,99 -38,130 -77,267 -9,32 -22,78 -29,102 -8,25 -14,52 -14,62 0,9 -6,39 -14,65 -8,27 -22,85 -31,129 -9,44 -23,107 -30,140 -8,33 -21,98 -30,145 -9,47 -23,115 -31,151 -8,37 -14,77 -14,89 0,13 -6,57 -14,99 -31,168 -69,538 -88,866 -31,533 1,1161 88,1725 39,254 48,305 90,505 28,139 71,324 89,393 72,264 82,298 154,522 72,224 158,461 205,565 8,17 24,55 36,85 31,76 55,130 150,335 81,175 214,433 277,540 16,28 32,57 36,65 8,16 13,25 121,203 39,65 79,131 88,145 10,15 21,34 25,42 5,8 44,68 88,134 44,65 87,129 95,142 24,37 130,184 177,244 51,65 45,58 108,140 305,401 788,913 1146,1216 48,40 69,58 229,191 182,151 556,430 668,498 9,6 55,36 102,66 157,103 187,122 252,158 24,13 62,36 86,52 24,16 45,29 47,29 2,0 31,16 63,35 117,68 190,107 437,229 267,133 309,153 450,211 50,20 104,43 120,50 64,28 210,86 265,105 14,5 70,25 125,45 55,20 114,40 130,44 17,5 41,13 55,19 14,5 72,25 130,42 111,34 128,39 310,89 63,18 138,39 166,47 28,8 59,14 69,14 10,0 41,6 69,14 28,8 87,22 131,31 44,9 98,21 120,27 22,6 65,14 95,18 30,4 82,13 115,19 252,48 618,94 850,107 66,4 158,10 205,14 126,10 748,10 875,0 z"
       id="path1-0"
       style="stroke-width:12.4186" />
    <path
       d="m 8550,17369 c -288,-15 -640,-50 -825,-84 -44,-8 -93,-15 -108,-15 -15,0 -56,-6 -90,-14 -34,-8 -98,-21 -142,-30 -222,-45 -356,-76 -515,-121 -25,-7 -74,-20 -110,-30 -73,-19 -156,-42 -215,-60 -22,-7 -67,-21 -100,-30 -66,-19 -91,-28 -211,-74 -44,-17 -86,-31 -92,-31 -6,0 -23,-6 -39,-14 -15,-8 -46,-21 -68,-29 -342,-126 -884,-380 -1128,-528 -26,-16 -50,-29 -53,-29 -3,0 -87,-50 -187,-111 -100,-60 -191,-115 -202,-122 -11,-7 -45,-30 -75,-52 -30,-22 -63,-44 -72,-50 -81,-50 -563,-404 -578,-425 -3,-4 -43,-38 -90,-75 -47,-37 -87,-71 -90,-74 -3,-4 -21,-19 -40,-35 -204,-167 -553,-508 -780,-762 -188,-209 -455,-546 -591,-744 -142,-206 -197,-287 -225,-333 -16,-27 -36,-59 -44,-72 -29,-45 -146,-240 -153,-255 -4,-8 -16,-28 -26,-45 -11,-16 -31,-50 -44,-75 -14,-25 -41,-74 -61,-110 -48,-86 -223,-443 -279,-570 -40,-90 -140,-335 -173,-422 -8,-21 -20,-55 -28,-75 -63,-170 -136,-390 -180,-545 -9,-32 -23,-82 -31,-110 -49,-169 -139,-569 -179,-788 -26,-145 -69,-459 -87,-630 -15,-147 -38,-636 -39,-810 -1,-442 51,-1029 126,-1435 37,-198 73,-371 90,-431 8,-28 14,-59 14,-69 0,-10 6,-41 14,-69 8,-28 22,-80 32,-116 50,-192 53,-205 104,-370 18,-58 36,-116 42,-130 5,-14 20,-56 33,-95 13,-38 33,-95 45,-125 12,-30 25,-68 30,-85 4,-16 12,-41 18,-55 5,-14 18,-45 27,-70 10,-25 23,-58 31,-75 7,-16 29,-70 49,-120 104,-253 384,-822 431,-876 8,-8 14,-19 14,-23 0,-28 343,-562 484,-753 34,-45 88,-119 121,-164 33,-45 65,-87 70,-93 6,-6 26,-31 45,-56 263,-342 741,-837 1110,-1149 47,-40 96,-82 110,-95 14,-12 45,-37 70,-56 25,-18 50,-39 55,-45 13,-14 353,-269 420,-315 143,-96 346,-230 388,-256 27,-16 56,-34 65,-39 9,-6 35,-22 57,-36 22,-14 47,-29 55,-33 8,-4 24,-12 35,-19 152,-91 217,-126 470,-251 247,-123 361,-176 376,-176 6,0 23,-6 37,-14 40,-21 149,-68 207,-89 65,-24 128,-49 150,-58 11,-5 34,-13 50,-18 17,-5 55,-19 85,-31 48,-18 150,-52 310,-104 90,-29 287,-86 425,-122 28,-7 70,-18 95,-25 25,-7 63,-16 85,-20 22,-4 58,-12 80,-17 22,-6 78,-18 125,-27 47,-9 114,-23 150,-30 62,-13 149,-27 368,-60 261,-39 526,-64 827,-76 268,-12 826,-5 985,12 52,6 146,14 207,19 62,5 145,13 185,19 40,6 127,17 193,26 245,34 527,86 651,121 28,8 59,14 69,14 10,0 43,7 74,16 31,9 80,22 109,30 132,36 166,45 220,60 31,9 75,22 97,29 22,6 67,20 100,30 33,9 71,22 85,27 14,6 39,14 55,18 17,5 55,18 85,30 101,39 135,51 155,57 43,11 394,152 515,206 56,25 379,180 440,211 343,174 859,498 1135,711 43,33 87,67 99,75 92,65 416,334 541,450 33,30 93,87 135,125 185,172 496,502 656,695 238,287 528,678 640,863 16,27 36,59 44,72 36,57 160,264 185,310 15,28 31,55 35,60 25,34 237,452 295,580 14,33 37,83 50,110 33,73 135,320 171,418 8,20 21,54 28,75 8,20 36,102 62,182 26,80 52,161 59,180 13,37 32,98 59,190 40,140 65,235 91,345 9,39 22,95 30,125 7,30 19,78 25,105 7,28 16,73 20,100 5,28 13,70 18,95 15,63 66,377 76,460 2,19 9,71 15,115 49,360 70,874 52,1333 -7,180 -17,363 -22,407 -6,44 -15,123 -19,175 -5,52 -14,129 -20,170 -40,269 -61,395 -87,520 -51,247 -96,447 -117,520 -8,25 -21,74 -31,110 -53,201 -197,636 -264,800 -13,30 -30,73 -39,95 -8,22 -25,63 -37,90 -13,28 -47,106 -76,175 -48,113 -254,529 -324,655 -64,116 -303,506 -369,604 -161,237 -289,412 -431,585 -44,54 -93,115 -110,136 -68,85 -112,138 -161,190 -302,325 -349,373 -649,651 -77,72 -276,241 -372,316 -316,249 -446,344 -718,523 -46,30 -462,279 -525,314 -77,42 -523,264 -595,295 -27,12 -63,28 -80,35 -16,8 -64,27 -105,44 -41,16 -100,40 -130,53 -65,26 -145,57 -180,69 -14,5 -50,18 -80,30 -80,30 -424,144 -500,165 -36,9 -85,23 -110,30 -25,7 -74,20 -110,29 -36,10 -87,23 -115,31 -237,63 -649,140 -960,179 -462,59 -998,79 -1485,55 z m 925,-234 c 459,-36 735,-73 1123,-150 253,-51 316,-66 502,-120 25,-7 74,-20 110,-30 77,-21 152,-43 200,-60 19,-7 85,-29 145,-48 211,-69 371,-128 610,-229 190,-80 499,-228 675,-324 36,-20 90,-49 120,-66 53,-29 213,-125 268,-160 15,-10 34,-21 42,-25 8,-4 26,-14 40,-24 46,-32 235,-154 244,-158 11,-4 154,-108 291,-211 48,-36 101,-75 118,-88 18,-13 41,-31 52,-40 11,-9 65,-53 120,-97 54,-44 111,-91 125,-104 14,-13 45,-40 70,-59 25,-20 52,-43 61,-52 9,-8 74,-69 145,-135 427,-396 769,-786 1111,-1270 39,-55 87,-122 107,-150 20,-27 41,-59 46,-70 6,-11 33,-54 60,-95 82,-126 232,-377 266,-445 8,-16 37,-70 64,-120 47,-85 160,-312 200,-400 10,-22 29,-65 43,-95 13,-30 39,-85 56,-123 17,-37 31,-71 31,-76 0,-5 6,-22 14,-38 46,-95 122,-298 177,-473 12,-36 27,-81 34,-100 32,-91 42,-123 80,-255 9,-33 23,-82 31,-110 8,-27 19,-70 25,-94 5,-25 13,-59 18,-75 30,-96 108,-479 145,-706 32,-197 46,-297 46,-334 0,-21 7,-93 15,-160 38,-316 49,-827 27,-1206 -26,-436 -71,-787 -147,-1150 -8,-41 -15,-84 -15,-94 0,-11 -6,-42 -14,-70 -8,-28 -22,-87 -31,-131 -17,-79 -33,-141 -60,-240 -35,-123 -74,-259 -87,-300 -6,-16 -14,-43 -18,-60 -5,-16 -25,-75 -45,-130 -20,-55 -40,-113 -45,-130 -20,-72 -109,-305 -136,-358 -8,-16 -14,-33 -14,-38 0,-8 -16,-46 -80,-184 -10,-22 -32,-71 -50,-110 -94,-205 -237,-480 -327,-630 -7,-11 -15,-27 -19,-35 -4,-8 -19,-33 -33,-55 -39,-61 -49,-78 -60,-100 -26,-53 -216,-338 -343,-513 -43,-58 -78,-109 -78,-112 0,-3 -11,-17 -25,-32 -13,-15 -37,-44 -52,-66 -48,-67 -126,-165 -174,-217 -25,-27 -55,-63 -68,-80 -107,-142 -508,-557 -740,-765 -52,-47 -99,-90 -106,-97 -7,-7 -57,-49 -111,-94 -55,-45 -101,-85 -104,-89 -7,-9 -244,-191 -344,-264 -288,-210 -658,-446 -921,-586 -154,-82 -414,-213 -475,-239 -30,-13 -77,-33 -105,-46 -27,-12 -102,-43 -165,-69 -63,-26 -128,-53 -145,-61 -109,-47 -145,-60 -400,-145 -88,-29 -176,-58 -195,-65 -33,-12 -76,-25 -200,-60 -30,-8 -77,-22 -105,-30 -51,-15 -259,-65 -375,-90 C 9924,851 9058,798 8270,875 c -327,32 -445,48 -680,90 -41,7 -118,21 -170,30 -88,15 -121,22 -255,55 -27,7 -70,16 -94,21 -25,5 -59,13 -75,18 -17,6 -60,17 -96,27 -151,39 -233,63 -455,135 -104,34 -204,68 -222,75 -17,8 -36,14 -42,14 -6,0 -25,6 -43,14 -18,8 -67,28 -108,44 -123,49 -321,132 -390,164 -36,17 -90,41 -120,55 -59,27 -93,44 -290,146 -129,66 -217,114 -235,127 -5,4 -41,24 -80,45 -38,21 -88,50 -110,64 -57,36 -78,49 -95,57 -8,4 -26,15 -40,25 -14,9 -86,56 -160,105 -74,48 -185,125 -247,171 -61,46 -132,98 -156,116 -52,37 -210,158 -217,166 -3,3 -27,24 -55,46 -27,21 -84,68 -125,103 -41,36 -102,87 -135,116 -178,152 -594,573 -755,766 -30,36 -69,81 -86,100 -98,109 -409,522 -494,655 -8,13 -32,48 -52,79 -21,31 -53,80 -72,109 -45,69 -206,337 -206,342 0,3 -13,26 -29,52 -98,163 -296,562 -385,778 -21,50 -43,104 -50,120 -19,44 -76,191 -123,320 -8,22 -21,55 -29,73 -8,18 -14,39 -14,47 0,8 -7,29 -15,47 -13,30 -52,157 -91,293 -8,28 -21,70 -28,95 -8,25 -21,74 -30,110 -10,36 -23,88 -31,115 -8,28 -21,84 -30,125 -9,41 -23,98 -31,126 -8,28 -14,59 -14,70 0,10 -6,48 -15,84 -31,138 -62,319 -75,445 -4,44 -13,109 -19,145 -34,210 -77,925 -67,1115 27,517 41,700 71,900 8,55 15,113 15,129 0,15 7,67 16,115 9,47 22,121 30,164 28,156 46,243 59,297 7,30 30,123 50,205 34,145 43,180 80,310 28,98 43,148 54,180 6,17 33,98 60,180 27,83 54,161 59,175 5,14 17,43 25,65 34,91 151,377 190,465 31,71 253,518 293,590 20,36 71,126 115,200 92,156 85,145 141,233 66,105 69,110 133,202 33,47 65,94 70,103 18,30 157,225 201,282 145,185 180,229 213,269 20,24 43,51 52,60 8,9 39,44 67,78 186,227 610,645 923,909 58,49 122,102 142,117 20,16 65,51 99,78 69,54 172,132 203,153 11,8 65,48 121,89 55,41 104,76 110,78 9,4 198,126 244,158 14,10 32,20 40,24 8,4 27,15 42,25 49,32 162,99 213,127 28,15 55,31 60,35 33,24 465,244 580,295 33,15 74,33 90,40 146,67 232,101 520,212 22,8 50,19 63,24 29,11 220,73 292,95 30,9 73,22 95,29 109,35 270,79 430,118 33,8 83,21 110,27 28,7 70,16 95,20 25,4 70,13 100,19 288,63 652,112 1075,145 239,19 766,19 1000,1 z"
       id="path2-9"
       style="stroke-width:12.4186" />
    <path
       d="m 9180,16610 c -126,-16 -238,-83 -302,-182 -97,-149 -111,-378 -34,-538 36,-75 113,-156 176,-187 113,-54 126,-57 264,-57 130,-1 173,7 236,45 8,5 24,13 36,18 56,25 137,137 169,236 28,84 27,316 -2,390 -78,204 -283,308 -543,275 z m 198,-244 c 64,-40 92,-109 92,-225 0,-145 -37,-224 -121,-260 -60,-26 -92,-26 -149,0 -93,42 -120,95 -120,237 0,143 32,215 113,260 57,30 126,26 185,-12 z"
       id="path3-4"
       style="stroke-width:12.4186" />
    <path
       d="m 8075,16560 c -22,-5 -71,-14 -110,-20 -73,-13 -115,-32 -115,-52 0,-10 -48,-137 -100,-265 -20,-48 -41,-30 -217,185 -37,46 -54,53 -94,42 -19,-6 -63,-15 -99,-21 -84,-13 -140,-30 -140,-41 0,-5 12,-22 28,-37 15,-15 74,-79 132,-142 58,-62 144,-155 193,-206 76,-81 87,-98 87,-129 0,-19 6,-65 14,-102 7,-37 19,-96 26,-132 17,-92 25,-104 63,-95 18,3 57,10 87,15 30,4 74,13 98,19 38,11 42,15 42,44 0,17 -7,67 -15,109 -8,43 -22,113 -30,156 l -15,78 100,232 c 54,127 111,256 125,285 41,89 36,96 -60,77 z"
       id="path4-8"
       style="stroke-width:12.4186" />
    <path
       d="m 10020,16521 c -5,-11 -10,-32 -10,-48 0,-15 -5,-44 -10,-63 -6,-19 -15,-64 -20,-100 -5,-36 -14,-92 -20,-125 -33,-171 -40,-208 -55,-300 -9,-55 -23,-133 -31,-174 -17,-89 -13,-96 64,-111 31,-6 84,-17 117,-25 74,-16 81,-11 96,70 6,33 17,92 25,130 8,39 14,84 14,101 0,16 6,38 13,48 12,17 19,17 73,6 264,-52 259,-51 278,-37 17,12 41,138 32,163 -2,6 -44,19 -93,28 -48,10 -124,26 -168,35 l -80,18 4,59 c 5,88 12,97 74,89 55,-6 155,-26 276,-52 88,-20 95,-16 104,75 4,32 9,65 12,73 12,34 -34,51 -225,79 -30,4 -75,12 -100,18 -25,6 -90,18 -145,27 -55,9 -119,21 -142,26 -60,13 -71,11 -83,-10 z"
       id="path5-8"
       style="stroke-width:12.4186" />
    <path
       d="m 6925,16324 c -55,-19 -113,-39 -130,-44 -16,-4 -45,-13 -62,-19 -18,-6 -48,-16 -65,-22 -18,-6 -46,-14 -63,-19 -16,-5 -46,-14 -65,-21 -19,-6 -51,-17 -70,-24 -19,-7 -51,-18 -70,-24 -19,-7 -48,-16 -65,-21 -16,-4 -47,-15 -69,-24 -43,-19 -43,-18 -7,-118 41,-118 35,-116 201,-58 69,24 99,28 113,16 8,-6 37,-81 65,-166 50,-152 63,-190 87,-260 7,-19 21,-62 30,-95 29,-95 53,-138 73,-130 9,4 31,12 47,18 17,5 45,16 63,23 18,8 39,14 48,14 8,0 29,7 46,16 32,17 33,24 9,104 -11,37 -83,255 -102,305 -6,17 -14,44 -19,60 -5,17 -20,62 -35,100 -14,39 -25,83 -23,100 3,29 8,31 118,68 63,21 120,45 126,53 9,11 9,25 -1,58 -17,57 -58,139 -70,142 -5,2 -55,-13 -110,-32 z"
       id="path6-2"
       style="stroke-width:12.4186" />
    <path
       d="m 11520,16101 c -85,-19 -160,-74 -224,-165 -92,-131 -120,-216 -119,-361 1,-102 3,-115 32,-176 41,-88 122,-164 224,-214 91,-43 219,-77 262,-70 70,13 122,30 156,51 42,26 129,120 129,140 0,7 -36,40 -79,74 -44,33 -83,65 -86,70 -12,19 -37,10 -68,-26 -36,-40 -95,-74 -130,-74 -37,0 -121,47 -147,82 -22,29 -25,43 -23,113 1,82 14,121 77,233 50,89 142,124 227,87 60,-26 83,-51 105,-117 l 21,-63 79,-17 c 103,-21 150,-22 158,-3 3,9 3,44 -1,78 -16,156 -121,269 -313,338 -60,22 -220,34 -280,20 z"
       id="path7-4"
       style="stroke-width:12.4186" />
    <path
       d="m 5965,15974 c -16,-9 -57,-27 -90,-41 -102,-42 -102,-43 -56,-150 22,-51 53,-120 69,-155 17,-35 49,-108 72,-162 23,-54 45,-106 50,-115 4,-9 15,-32 23,-51 9,-19 25,-55 36,-80 11,-25 33,-76 50,-115 17,-40 36,-71 46,-73 9,-2 37,6 63,18 26,12 67,31 92,42 70,32 73,33 83,49 6,10 0,35 -21,79 -17,36 -43,92 -57,125 -15,33 -36,80 -47,105 -12,25 -26,59 -33,75 -7,17 -22,50 -33,75 -11,25 -32,72 -47,105 -26,61 -33,76 -79,177 -14,31 -30,68 -36,83 -11,29 -40,33 -85,9 z"
       id="path8-5"
       style="stroke-width:12.4186" />
    <path
       d="m 5335,15661 c -112,-34 -251,-121 -302,-189 -54,-71 -67,-109 -67,-186 0,-94 32,-157 101,-203 91,-60 190,-61 388,-4 138,40 205,19 205,-64 0,-37 -6,-49 -35,-78 -68,-66 -151,-68 -220,-5 -17,15 -35,28 -39,28 -4,0 -28,-13 -53,-30 -24,-16 -46,-30 -49,-30 -15,0 -104,-77 -104,-90 0,-28 58,-86 118,-118 52,-28 70,-32 133,-32 83,0 134,16 249,75 65,34 168,117 199,161 61,84 76,172 49,276 -10,42 -25,65 -73,114 -54,54 -66,62 -121,73 -83,18 -174,4 -363,-55 -70,-22 -118,-18 -136,10 -45,68 70,166 159,136 19,-6 40,-18 46,-26 14,-16 56,-19 65,-3 4,6 14,14 24,17 42,18 151,96 151,108 0,22 -70,85 -119,106 -65,28 -134,31 -206,9 z"
       id="path9-5"
       style="stroke-width:12.4186" />
    <path
       d="m 12540,15564 c -52,-46 -115,-101 -140,-122 -123,-102 -467,-398 -477,-412 -17,-21 -16,-37 5,-44 9,-3 24,-10 32,-15 46,-31 173,-101 183,-101 7,1 32,21 57,45 25,25 54,45 66,45 25,0 254,-132 265,-153 4,-7 3,-46 -3,-85 -10,-66 -9,-75 8,-93 11,-12 28,-25 39,-30 11,-5 32,-17 47,-27 14,-9 50,-31 80,-49 64,-39 69,-36 85,68 7,41 17,108 24,149 6,41 13,91 16,110 2,19 10,80 19,135 8,55 22,143 30,195 8,52 21,134 29,181 19,111 19,132 -3,152 -10,10 -21,17 -24,17 -4,0 -52,27 -107,60 -56,33 -109,60 -119,59 -9,0 -60,-38 -112,-85 z m 110,-260 c 0,-14 -6,-49 -14,-77 -8,-29 -19,-77 -25,-108 -20,-96 -25,-98 -109,-47 -40,23 -72,48 -72,54 0,16 192,204 208,204 6,0 12,-12 12,-26 z"
       id="path10-1"
       style="stroke-width:12.4186" />
    <path
       d="m 13298,15064 c -46,-58 -139,-178 -208,-268 -69,-89 -155,-200 -192,-247 -37,-46 -68,-92 -68,-102 0,-9 27,-38 62,-65 69,-53 248,-195 311,-247 121,-98 172,-135 188,-135 10,0 43,35 79,83 l 61,82 -43,38 c -24,21 -73,62 -109,90 -206,162 -210,167 -172,198 17,14 330,424 372,487 17,26 21,40 14,51 -18,30 -168,140 -190,141 -17,0 -44,-27 -105,-106 z"
       id="path11-7"
       style="stroke-width:12.4186" />
    <path
       d="m 4530,15117 c -42,-12 -156,-88 -260,-171 -41,-33 -77,-63 -80,-66 -3,-3 -44,-37 -93,-74 -48,-37 -91,-75 -96,-85 -7,-12 1,-29 32,-68 52,-63 193,-242 278,-351 191,-249 246,-316 261,-326 13,-8 26,-2 60,27 24,21 69,59 100,85 32,26 58,54 58,62 0,8 -15,31 -33,51 -40,44 -147,182 -167,214 -13,22 -12,26 5,44 40,46 121,25 344,-86 70,-35 88,-40 105,-31 23,12 145,108 186,145 14,13 28,23 32,23 5,0 8,6 8,13 0,7 -51,37 -112,67 -174,83 -223,100 -278,100 -49,0 -63,12 -41,36 21,23 43,115 36,157 -29,173 -188,282 -345,234 z m 55,-272 c 19,-20 25,-36 25,-69 0,-39 -5,-48 -47,-89 -64,-61 -98,-87 -115,-87 -15,1 -108,123 -108,143 0,13 60,64 130,110 37,25 85,22 115,-8 z"
       id="path12-1"
       style="stroke-width:12.4186" />
    <path
       d="m 8740,15079 c -253,-6 -540,-34 -729,-71 -30,-5 -77,-14 -105,-18 -28,-5 -94,-18 -146,-30 -52,-12 -113,-25 -135,-29 -22,-4 -56,-12 -75,-19 -19,-6 -64,-18 -100,-28 -36,-9 -83,-22 -105,-29 -22,-7 -67,-21 -100,-30 -33,-10 -71,-22 -85,-28 -14,-5 -38,-13 -55,-17 -16,-5 -55,-18 -85,-30 -30,-12 -64,-24 -75,-27 -11,-3 -33,-11 -50,-18 -16,-7 -66,-28 -110,-46 -168,-68 -430,-191 -567,-267 -29,-17 -71,-40 -93,-52 -22,-12 -53,-30 -70,-41 -16,-10 -39,-23 -50,-29 -11,-6 -33,-19 -50,-30 -16,-11 -37,-23 -45,-27 -8,-4 -43,-26 -78,-50 -35,-24 -65,-43 -67,-43 -2,0 -43,-27 -90,-60 -774,-542 -1385,-1213 -1855,-2040 -45,-80 -260,-515 -260,-528 0,-5 -13,-37 -30,-70 -16,-34 -30,-65 -30,-71 0,-6 -7,-25 -15,-43 -47,-107 -169,-461 -210,-608 -84,-306 -139,-573 -180,-870 -42,-311 -47,-410 -48,-825 0,-417 6,-526 49,-830 30,-217 86,-516 119,-635 7,-25 20,-74 30,-110 26,-97 75,-260 90,-300 7,-19 22,-64 34,-100 11,-36 30,-90 41,-120 12,-30 25,-66 30,-80 55,-162 244,-569 345,-745 19,-33 38,-67 42,-75 4,-8 36,-64 72,-123 36,-60 71,-116 76,-125 17,-30 142,-214 194,-287 28,-38 69,-97 92,-129 169,-239 545,-642 864,-926 102,-90 117,-102 225,-187 58,-45 119,-93 135,-106 17,-13 59,-44 95,-69 158,-110 222,-154 238,-163 9,-6 35,-22 57,-36 22,-14 56,-34 75,-45 19,-10 42,-24 50,-30 8,-6 42,-26 75,-45 33,-18 78,-43 100,-55 22,-13 51,-29 65,-37 48,-26 206,-105 285,-142 44,-20 108,-50 142,-66 35,-16 67,-29 73,-29 6,0 18,-4 28,-10 32,-18 166,-72 237,-95 39,-13 81,-28 95,-33 44,-18 285,-90 390,-118 36,-9 88,-23 115,-30 60,-16 154,-37 255,-58 41,-8 109,-22 150,-31 41,-8 89,-15 105,-15 17,0 66,-6 110,-14 223,-40 391,-51 815,-50 424,0 488,4 800,50 215,31 461,80 605,119 28,8 79,21 115,30 36,10 83,23 105,30 22,7 67,20 100,30 33,10 75,24 93,31 18,8 39,14 47,14 8,0 29,6 47,14 18,8 51,21 73,29 516,200 841,363 1239,625 124,82 400,283 421,307 6,6 30,27 55,45 205,154 589,529 810,790 128,152 145,173 236,295 100,133 139,190 231,333 58,91 181,298 196,332 4,8 17,31 28,50 75,122 206,403 301,640 16,41 34,83 39,92 9,19 58,156 89,253 25,76 62,202 95,320 7,28 21,75 29,106 9,31 16,64 16,74 0,10 6,41 14,69 16,54 35,148 60,286 130,729 121,1573 -26,2255 -6,28 -14,70 -18,95 -4,25 -13,68 -20,95 -6,28 -19,77 -27,110 -65,265 -183,627 -268,820 -7,17 -23,55 -35,85 -64,156 -229,490 -325,655 -12,22 -35,63 -50,90 -29,52 -92,151 -154,243 -20,29 -40,61 -46,70 -5,9 -32,48 -60,87 -27,38 -61,86 -75,106 -58,84 -268,343 -384,473 -279,314 -597,604 -913,835 -135,99 -412,284 -488,325 -16,9 -37,21 -45,26 -76,50 -415,224 -575,296 -16,7 -60,27 -98,43 -37,17 -70,31 -73,31 -3,0 -20,6 -37,14 -82,35 -192,74 -327,117 -36,12 -81,27 -100,34 -19,7 -62,20 -95,29 -58,16 -97,27 -216,60 -31,9 -64,16 -73,16 -9,0 -38,6 -64,14 -59,17 -171,41 -287,60 -411,69 -747,89 -1265,75 z m 825,-224 c 356,-39 667,-98 960,-182 128,-36 162,-46 185,-56 14,-5 39,-13 55,-18 30,-8 57,-17 165,-59 30,-12 69,-25 85,-29 17,-4 39,-13 50,-18 11,-6 56,-26 100,-44 229,-92 486,-222 719,-362 144,-88 137,-83 211,-132 33,-22 68,-44 77,-50 43,-26 178,-122 223,-160 28,-22 78,-62 112,-88 34,-26 68,-53 75,-60 7,-6 33,-28 58,-48 182,-147 476,-440 700,-699 110,-127 291,-368 419,-555 40,-59 223,-362 275,-455 34,-62 157,-310 196,-395 10,-22 30,-67 45,-100 50,-108 110,-256 118,-290 3,-11 15,-45 27,-75 46,-121 113,-337 164,-530 10,-36 24,-88 32,-116 8,-28 14,-61 14,-73 0,-13 6,-46 14,-74 24,-91 58,-315 91,-592 8,-71 20,-249 26,-395 10,-226 9,-305 -5,-535 -9,-148 -21,-304 -26,-345 -6,-41 -18,-127 -26,-190 -8,-63 -21,-146 -29,-185 -49,-253 -47,-245 -91,-417 -25,-99 -44,-170 -58,-213 -7,-22 -21,-67 -31,-100 -9,-33 -23,-76 -30,-95 -29,-83 -37,-107 -45,-135 -7,-26 -18,-57 -49,-130 -5,-11 -24,-56 -41,-100 -127,-309 -318,-670 -533,-1006 -173,-269 -444,-602 -709,-869 -136,-137 -202,-200 -323,-305 -44,-39 -82,-72 -85,-75 -60,-60 -477,-366 -592,-435 -9,-5 -78,-47 -152,-93 -74,-45 -137,-82 -141,-82 -3,0 -23,-11 -44,-24 -70,-44 -407,-210 -521,-256 -30,-12 -68,-28 -85,-35 -16,-7 -48,-20 -70,-28 -74,-27 -130,-49 -163,-63 -18,-8 -39,-14 -47,-14 -8,0 -29,-6 -47,-14 -49,-21 -257,-84 -393,-119 -233,-60 -308,-77 -340,-77 -14,0 -54,-6 -88,-14 -65,-15 -188,-33 -417,-63 -109,-14 -216,-17 -550,-17 -427,-1 -460,2 -805,50 -104,14 -144,21 -347,60 -145,27 -321,73 -518,134 -270,84 -276,86 -515,185 -177,73 -466,213 -583,282 -41,24 -76,43 -78,43 -2,0 -23,12 -47,27 -23,15 -55,35 -72,44 -158,88 -553,377 -770,563 -128,110 -422,396 -520,506 -220,246 -485,592 -590,772 -5,9 -29,48 -53,85 -58,91 -57,90 -94,153 -108,187 -325,628 -358,730 -5,14 -18,50 -30,80 -40,100 -82,215 -90,245 -5,17 -19,62 -33,100 -26,78 -47,147 -72,245 -10,36 -24,85 -31,109 -8,25 -14,53 -14,64 0,11 -6,43 -14,71 -8,28 -22,88 -30,134 -9,45 -23,117 -31,160 -18,99 -40,257 -61,452 -24,217 -24,846 0,1080 36,363 70,562 148,875 22,88 44,176 48,195 5,19 16,58 24,85 9,28 22,73 30,100 19,65 43,134 82,238 9,23 22,58 29,77 42,116 75,198 107,268 15,34 28,65 28,68 0,9 186,380 225,449 19,33 37,67 41,75 10,19 78,133 108,180 208,321 298,446 481,665 150,179 165,196 369,401 158,157 256,246 452,410 61,50 272,209 339,254 28,18 77,52 110,74 33,23 68,45 77,51 10,5 66,40 125,77 59,36 142,84 183,107 88,47 398,201 405,201 3,0 33,13 67,29 82,37 208,88 233,94 11,3 45,15 75,27 109,42 135,51 165,59 17,5 41,13 55,18 14,6 52,18 85,27 33,10 80,24 105,31 52,16 261,66 370,88 41,9 109,23 150,32 41,8 85,15 98,15 13,0 60,6 105,14 107,19 279,37 442,47 203,11 769,2 930,-16 z"
       id="path13-1"
       style="stroke-width:12.4186" />
    <path
       d="m 8660,14515 c -214,-12 -343,-26 -470,-51 -42,-8 -88,-14 -104,-14 -15,0 -55,-6 -89,-14 -34,-8 -98,-22 -142,-32 -95,-20 -151,-34 -345,-90 -72,-20 -242,-74 -280,-88 -19,-8 -53,-20 -75,-29 -56,-21 -126,-48 -150,-58 -156,-64 -229,-97 -390,-179 -278,-140 -545,-304 -769,-473 -67,-50 -123,-93 -126,-96 -3,-4 -39,-33 -80,-66 -163,-130 -448,-400 -591,-561 -102,-114 -164,-187 -202,-238 -20,-27 -41,-52 -45,-55 -13,-9 -173,-229 -265,-364 -51,-74 -177,-282 -227,-372 -18,-33 -46,-85 -63,-115 -77,-140 -210,-432 -282,-620 -8,-19 -25,-65 -39,-101 -57,-148 -117,-344 -172,-561 -44,-177 -51,-211 -88,-433 -84,-509 -95,-1077 -30,-1580 31,-242 69,-447 119,-647 36,-140 48,-186 60,-223 7,-22 20,-67 30,-100 10,-33 23,-76 30,-95 41,-111 78,-209 91,-238 7,-18 14,-40 14,-50 0,-9 7,-26 15,-36 8,-11 15,-26 15,-33 0,-16 48,-120 161,-348 126,-254 229,-437 291,-516 15,-20 28,-40 28,-43 0,-3 20,-35 45,-72 25,-36 45,-68 45,-70 0,-3 55,-78 123,-168 109,-143 146,-189 182,-230 6,-6 35,-40 65,-76 73,-88 293,-315 426,-440 146,-138 351,-304 554,-448 71,-51 263,-178 280,-186 8,-3 29,-15 45,-26 17,-11 37,-23 45,-27 8,-3 33,-18 55,-32 89,-57 354,-191 510,-258 44,-19 98,-42 120,-53 72,-32 303,-118 380,-140 17,-5 54,-16 82,-25 142,-43 303,-87 348,-95 22,-4 63,-13 90,-20 126,-31 164,-39 220,-45 33,-4 78,-10 100,-15 22,-5 103,-15 180,-24 716,-80 1411,-28 2040,151 119,34 162,46 195,58 19,7 73,25 120,40 81,26 208,73 315,117 173,71 600,285 678,340 16,11 48,31 71,43 53,28 192,120 304,200 46,33 103,74 126,90 334,238 787,691 1075,1075 55,74 104,140 109,145 24,31 180,265 189,285 4,8 18,33 32,55 37,59 48,77 65,110 8,17 35,66 60,110 25,44 52,94 59,110 8,17 35,73 60,125 84,178 117,250 117,259 0,5 14,42 31,82 17,41 37,88 43,104 15,35 130,396 151,470 33,121 61,240 89,375 8,41 22,109 31,150 8,41 15,86 15,100 0,14 6,68 14,120 36,227 46,395 46,727 0,330 -8,458 -45,748 -9,66 -23,152 -31,190 -8,39 -14,78 -14,89 0,30 -51,252 -105,451 -29,107 -138,436 -182,545 -47,120 -58,144 -143,325 -116,247 -148,307 -245,470 -91,152 -279,442 -295,455 -3,3 -35,45 -70,95 -36,49 -72,97 -80,105 -8,9 -46,54 -84,100 -270,334 -667,709 -1004,948 -26,18 -54,38 -62,45 -14,11 -180,121 -302,200 -31,20 -60,37 -64,37 -4,0 -15,6 -23,14 -30,25 -362,198 -496,258 -33,14 -90,40 -128,57 -37,17 -71,31 -77,31 -5,0 -24,6 -42,14 -80,34 -237,89 -343,121 -33,10 -78,24 -100,31 -22,6 -69,20 -105,29 -36,10 -85,23 -110,30 -42,13 -93,24 -270,59 -210,42 -461,71 -735,86 -225,12 -330,11 -605,-5 z m 182,-395 c 20,-15 27,-31 31,-72 2,-29 10,-84 16,-123 6,-38 18,-126 26,-195 47,-374 70,-564 90,-730 15,-124 40,-290 52,-332 9,-34 33,-48 82,-48 85,0 88,8 166,405 82,417 88,435 150,435 30,0 37,-5 46,-27 12,-32 6,-143 -17,-307 -9,-60 -16,-178 -17,-261 l -2,-152 38,-46 c 55,-67 91,-62 126,18 8,17 17,44 21,60 5,17 18,55 29,85 12,30 26,71 31,90 7,29 52,158 85,245 25,67 57,124 84,150 l 31,29 23,-22 c 20,-21 22,-31 21,-145 -1,-132 -29,-334 -80,-575 -24,-110 -25,-108 108,-173 25,-13 54,-11 65,4 13,17 46,80 77,150 31,69 69,150 173,377 70,151 82,177 122,263 23,48 41,90 41,92 0,3 13,33 29,68 77,164 115,247 137,300 56,133 110,191 154,167 46,-25 46,-38 -10,-235 -7,-22 -18,-65 -27,-95 -8,-30 -21,-75 -28,-100 -7,-25 -20,-74 -30,-110 -9,-36 -23,-83 -30,-105 -7,-22 -20,-69 -30,-105 -10,-36 -23,-83 -30,-105 -21,-66 -64,-218 -90,-315 -10,-36 -23,-83 -30,-105 -13,-43 -37,-126 -53,-188 -16,-60 -1,-90 56,-110 26,-9 63,-17 83,-17 35,0 39,4 92,88 83,131 167,272 167,279 0,4 6,14 14,22 7,9 29,45 48,79 47,85 106,159 139,173 24,9 31,8 50,-10 22,-20 22,-24 10,-69 -6,-26 -32,-85 -55,-132 -24,-47 -75,-148 -115,-225 -39,-76 -71,-152 -71,-167 0,-15 9,-37 20,-48 25,-25 95,-27 131,-2 44,28 150,140 240,252 114,142 203,235 239,250 26,11 33,10 50,-5 38,-34 25,-70 -85,-235 -39,-58 -72,-109 -75,-115 -3,-5 -30,-46 -60,-90 -30,-44 -59,-88 -65,-97 -5,-10 -33,-55 -61,-100 -58,-94 -68,-122 -52,-151 21,-40 103,-107 131,-107 18,0 46,26 166,155 163,174 522,544 628,648 202,196 239,220 277,179 18,-21 13,-36 -34,-102 -14,-19 -29,-42 -35,-52 -66,-113 -165,-264 -221,-338 -23,-30 -85,-120 -139,-200 -54,-80 -123,-181 -153,-225 -135,-197 -202,-296 -202,-301 0,-3 -13,-25 -30,-49 -16,-24 -30,-50 -30,-59 0,-21 110,-116 136,-116 21,0 70,31 194,121 61,44 178,126 215,149 13,8 79,52 146,97 68,46 139,86 158,89 67,13 88,-29 48,-94 -14,-21 -107,-117 -207,-213 -380,-363 -383,-365 -371,-386 39,-63 80,-108 102,-111 23,-3 252,107 357,171 43,26 208,107 267,130 94,38 155,33 155,-12 0,-49 -77,-116 -405,-354 -151,-109 -175,-128 -175,-141 0,-7 17,-47 39,-87 43,-83 55,-90 124,-66 23,8 69,23 102,32 33,10 76,23 95,30 19,7 82,27 140,45 58,17 123,38 145,45 22,7 87,27 145,45 58,17 116,37 130,42 14,6 39,14 55,18 28,8 70,22 120,40 30,12 132,44 195,63 30,9 79,23 107,32 58,18 88,14 104,-16 8,-15 6,-27 -10,-52 -26,-41 -32,-45 -334,-201 -89,-46 -182,-95 -207,-109 -25,-13 -102,-54 -171,-90 -158,-82 -165,-85 -186,-95 -15,-7 -126,-67 -198,-107 -72,-40 -125,-79 -125,-93 0,-31 20,-90 38,-112 16,-19 22,-20 72,-12 30,5 78,15 105,22 244,60 304,70 391,70 67,0 83,-3 88,-16 8,-22 -16,-48 -79,-88 -62,-39 -120,-62 -309,-122 -70,-23 -106,-60 -106,-109 0,-50 18,-82 57,-100 32,-15 41,-15 101,-1 216,49 356,60 386,30 9,-8 16,-19 16,-24 0,-32 -157,-107 -325,-155 -140,-40 -160,-65 -129,-161 l 19,-59 105,-7 c 188,-13 382,-28 550,-43 305,-27 545,-45 587,-45 53,0 88,-16 102,-46 26,-57 -40,-104 -147,-104 -31,0 -88,-7 -127,-15 -38,-8 -81,-15 -95,-15 -14,0 -56,-6 -95,-14 -38,-8 -108,-22 -155,-31 -47,-9 -114,-23 -150,-31 -62,-13 -101,-21 -300,-59 -47,-9 -113,-23 -147,-31 -34,-8 -73,-14 -85,-14 -13,0 -39,-8 -58,-18 -39,-22 -58,-64 -59,-134 -1,-53 -7,-49 114,-72 77,-14 142,-25 360,-61 134,-22 195,-43 222,-74 31,-36 28,-58 -11,-97 -28,-28 -41,-34 -78,-34 -23,0 -54,7 -68,15 -60,34 -100,48 -170,61 -190,35 -313,4 -351,-88 -15,-38 1,-70 49,-99 35,-20 235,-89 260,-89 7,0 37,-7 65,-15 29,-9 77,-23 107,-31 85,-25 137,-52 161,-85 19,-26 20,-33 8,-60 -7,-18 -26,-38 -44,-46 -37,-17 -81,-10 -175,27 -72,29 -182,47 -355,60 -147,10 -208,6 -226,-16 -16,-19 -41,-135 -35,-161 4,-13 24,-30 53,-43 27,-13 98,-46 158,-75 150,-72 229,-108 302,-139 66,-27 92,-40 363,-175 288,-144 310,-155 339,-181 33,-28 45,-61 36,-90 -11,-35 -93,-28 -260,25 -22,7 -69,20 -105,30 -36,9 -90,23 -120,32 -30,8 -80,22 -110,30 -30,8 -76,21 -101,29 -26,8 -55,14 -65,14 -11,0 -39,6 -64,14 -49,16 -128,37 -230,60 -159,37 -208,48 -261,62 -88,22 -105,19 -132,-23 -69,-114 -66,-127 53,-218 36,-27 72,-55 80,-62 8,-6 78,-58 155,-116 142,-105 217,-176 230,-216 7,-25 -14,-56 -46,-66 -21,-7 -134,39 -299,120 -274,136 -334,161 -363,149 -25,-9 -71,-128 -63,-161 5,-18 41,-59 99,-113 183,-168 301,-293 316,-334 13,-38 12,-41 -9,-58 -14,-12 -31,-16 -44,-12 -29,8 -115,50 -148,71 -15,10 -57,37 -95,61 -37,24 -95,61 -128,82 -65,42 -98,48 -142,26 -15,-8 -36,-17 -46,-20 -23,-7 -39,-50 -31,-84 8,-29 130,-166 377,-422 186,-192 282,-298 371,-410 44,-56 75,-93 118,-146 18,-22 42,-57 53,-77 l 20,-37 -22,-22 c -36,-36 -49,-27 -287,186 -61,54 -128,114 -149,133 -69,63 -223,197 -313,273 -49,41 -100,84 -114,96 -14,12 -43,37 -65,56 -61,53 -283,218 -292,218 -14,-1 -49,-35 -81,-79 -42,-57 -42,-98 -2,-154 17,-23 63,-87 103,-142 91,-125 98,-136 152,-240 61,-114 60,-154 -3,-140 -35,7 -114,78 -310,277 -90,91 -163,158 -174,158 -26,0 -115,-48 -122,-67 -4,-9 13,-46 39,-89 25,-41 45,-77 45,-80 0,-3 19,-35 43,-72 23,-37 48,-76 54,-87 15,-24 75,-148 92,-192 19,-48 11,-77 -22,-81 -38,-5 -98,46 -194,162 -70,84 -109,130 -219,254 l -41,46 -74,-50 c -40,-27 -78,-52 -83,-56 -6,-4 -3,-20 7,-42 9,-20 23,-51 31,-68 57,-131 109,-247 224,-488 79,-166 122,-260 122,-264 0,-2 31,-68 69,-147 152,-320 161,-342 146,-389 -11,-35 -79,-22 -120,22 -28,31 -125,164 -125,173 0,2 -21,34 -47,72 -55,80 -99,147 -201,303 -41,63 -84,129 -96,145 -11,17 -81,120 -153,230 -181,273 -204,305 -222,307 -31,3 -67,-3 -115,-19 l -48,-15 6,-46 c 3,-25 12,-68 20,-96 8,-28 22,-96 31,-151 34,-212 67,-363 91,-428 34,-91 9,-151 -62,-145 -36,3 -40,7 -70,68 -18,36 -39,83 -47,105 -52,140 -80,214 -91,240 -17,36 -73,177 -91,225 -28,76 -51,126 -67,149 -14,20 -23,23 -61,19 -24,-3 -56,-13 -71,-23 -32,-21 -32,-13 -6,-315 15,-186 10,-406 -10,-438 -33,-50 -74,-34 -108,42 -35,78 -52,147 -103,416 -33,174 -45,208 -82,230 -18,11 -45,20 -61,20 -32,0 -105,-19 -122,-32 -7,-5 -13,-133 -18,-395 -3,-214 -12,-555 -19,-759 -11,-320 -15,-375 -30,-397 -36,-55 -99,-43 -116,21 -21,82 -68,427 -116,862 -9,80 -23,188 -30,240 -8,52 -17,127 -20,165 -9,98 -14,115 -35,115 -11,0 -22,-4 -25,-10 -11,-18 -51,-10 -75,15 -13,14 -29,25 -37,25 -12,0 -52,-76 -98,-185 -17,-42 -45,-124 -71,-215 -39,-130 -61,-176 -96,-202 -34,-24 -58,-18 -81,21 -23,40 -21,93 8,175 13,38 27,90 30,115 15,117 37,260 45,304 17,85 13,111 -19,130 -38,22 -119,22 -146,-1 -18,-15 -59,-102 -102,-217 -8,-22 -21,-55 -29,-73 -8,-18 -14,-37 -14,-42 0,-14 -59,-138 -87,-182 -12,-21 -34,-45 -48,-54 -24,-16 -27,-16 -45,1 -16,14 -20,31 -20,78 0,33 4,76 9,96 5,20 17,72 26,116 10,44 23,100 30,125 23,79 48,227 42,242 -8,23 -118,79 -147,76 -22,-3 -51,-57 -260,-473 -332,-664 -382,-743 -435,-685 -15,16 -15,24 -4,57 19,59 35,113 54,178 10,33 23,76 30,95 30,86 37,108 50,155 7,28 28,93 45,145 18,52 36,109 40,125 5,17 18,62 30,100 12,39 25,86 30,105 5,19 18,67 29,105 11,39 30,107 42,153 22,83 22,84 2,110 -25,34 -90,72 -125,72 -25,0 -65,-39 -103,-101 -27,-44 -226,-323 -278,-389 -34,-44 -71,-81 -90,-88 -30,-13 -33,-12 -54,13 -13,14 -23,37 -23,50 0,14 25,77 56,141 30,64 60,126 65,138 5,11 13,28 18,36 22,36 131,272 131,285 0,20 -91,95 -116,95 -24,0 -84,-61 -167,-169 -104,-134 -221,-275 -284,-341 -62,-65 -62,-65 -90,-50 -17,10 -29,25 -31,40 -3,24 48,116 173,315 75,119 157,291 153,321 -4,34 -44,64 -94,70 -44,6 -56,-1 -165,-98 -35,-31 -90,-78 -121,-105 -120,-102 -326,-284 -388,-343 -104,-99 -248,-204 -295,-216 -53,-13 -37,66 33,160 21,27 44,60 52,72 8,12 67,89 130,170 63,81 134,171 156,200 23,30 57,73 75,95 19,23 43,54 54,69 11,15 56,74 100,130 143,183 137,172 117,209 -23,43 -100,131 -115,131 -6,0 -34,-15 -62,-34 -82,-55 -170,-112 -185,-120 -17,-8 -39,-21 -95,-57 -22,-14 -66,-41 -99,-58 -32,-18 -81,-46 -107,-62 -75,-44 -94,-46 -123,-14 l -25,27 19,38 c 16,31 144,156 251,245 13,11 49,43 79,70 31,28 84,74 118,104 35,30 67,62 72,72 10,18 -4,58 -40,114 -11,17 -23,36 -26,43 -3,6 -14,12 -24,12 -17,0 -209,-96 -290,-144 -19,-12 -64,-36 -100,-53 -336,-165 -358,-174 -386,-155 -17,10 -27,50 -20,77 6,24 141,130 311,244 44,30 92,64 107,75 15,12 70,53 123,91 59,43 98,79 101,94 4,14 -2,45 -16,80 -37,92 -34,91 -152,42 -240,-100 -416,-176 -497,-213 -92,-42 -130,-59 -186,-83 -83,-36 -104,-44 -180,-75 -44,-17 -93,-38 -108,-46 -16,-8 -35,-14 -42,-14 -7,0 -26,-6 -42,-14 -45,-22 -95,-38 -135,-43 -30,-4 -38,-1 -48,18 -10,19 -10,28 5,55 9,17 27,37 38,43 25,13 45,26 102,62 22,14 47,29 55,32 8,4 30,17 49,28 19,11 111,66 205,121 94,56 189,113 211,128 22,15 147,98 277,185 131,86 243,163 249,171 15,19 -3,142 -26,178 -14,21 -25,26 -61,26 -25,0 -72,-7 -107,-16 -34,-8 -87,-22 -117,-29 -194,-49 -378,-71 -420,-52 -37,18 -37,52 0,87 33,31 136,87 185,100 17,5 73,20 125,34 116,31 188,56 216,76 29,21 42,164 18,199 l -16,23 -265,-4 -265,-3 -19,23 c -15,19 -16,27 -7,42 13,20 86,60 110,60 8,0 34,6 59,14 24,7 73,21 109,30 212,55 280,76 313,99 25,17 27,24 27,81 0,99 1,98 -196,107 -93,4 -223,12 -289,18 -66,6 -199,18 -295,26 -96,9 -233,22 -305,30 -71,9 -146,15 -165,15 -44,0 -148,30 -177,51 -13,9 -24,26 -25,39 -3,20 4,26 42,37 25,7 90,18 145,23 55,5 150,14 210,19 61,6 200,18 310,26 110,9 272,22 360,30 88,8 201,17 250,20 111,6 125,18 125,106 0,56 -1,59 -32,75 -18,10 -49,21 -68,25 -19,4 -48,12 -65,17 -16,6 -77,25 -135,42 -58,18 -116,36 -130,42 -14,5 -56,20 -95,33 -179,59 -221,100 -144,140 33,18 80,19 186,5 43,-6 132,-17 198,-26 66,-8 147,-20 181,-25 33,-5 70,-9 82,-9 30,0 52,27 52,65 0,19 5,46 10,60 20,51 7,60 -215,155 -77,33 -86,36 -145,60 -80,32 -226,108 -240,125 -6,7 -10,26 -8,42 l 3,28 110,-2 c 61,0 146,-9 190,-18 44,-9 114,-23 155,-31 41,-9 101,-22 132,-30 78,-19 122,-18 140,4 19,21 68,126 68,144 0,19 -6,23 -485,263 -406,204 -561,284 -720,372 -33,18 -67,36 -75,40 -8,4 -39,24 -67,46 -46,34 -53,44 -53,73 0,27 5,36 23,43 27,10 111,-7 197,-40 30,-11 69,-24 86,-29 18,-4 37,-11 44,-15 7,-4 26,-11 44,-16 17,-4 49,-14 71,-23 103,-39 243,-88 270,-96 17,-5 55,-18 85,-30 30,-12 69,-25 85,-30 17,-4 41,-12 55,-17 30,-12 62,-23 200,-69 58,-19 119,-39 135,-45 36,-12 124,-37 179,-50 45,-11 63,0 96,63 42,80 51,71 -416,383 -202,134 -317,228 -327,265 -3,11 4,31 16,46 17,22 26,25 58,21 35,-5 109,-38 189,-85 19,-11 55,-31 80,-43 25,-13 65,-35 90,-50 90,-54 177,-101 288,-155 88,-43 116,-52 131,-45 23,13 51,55 51,77 0,20 -40,74 -91,123 -112,108 -162,154 -234,215 -126,108 -295,282 -295,305 0,79 53,68 225,-44 45,-29 87,-60 94,-69 7,-9 18,-16 23,-16 5,0 37,-20 71,-45 86,-63 219,-157 243,-172 65,-42 126,-53 167,-32 32,17 37,29 24,58 -15,32 -191,273 -447,611 -215,285 -279,372 -306,421 -6,11 -20,30 -31,42 -38,42 -83,116 -83,136 0,27 32,44 62,32 13,-5 55,-37 93,-72 39,-35 88,-79 110,-98 37,-34 183,-175 585,-567 224,-218 248,-240 287,-261 29,-15 37,-16 70,-4 54,20 93,51 93,76 0,16 -94,149 -247,350 -97,127 -273,373 -295,412 -21,36 -24,93 -6,111 7,7 24,12 38,12 35,0 120,-90 291,-305 34,-44 108,-126 163,-182 92,-96 102,-103 138,-103 28,0 46,7 63,25 32,31 31,60 -1,121 -62,117 -140,262 -160,299 -38,67 -85,168 -101,214 -25,73 3,119 53,86 31,-20 93,-87 118,-129 52,-84 324,-436 354,-456 38,-27 78,-24 135,10 42,25 48,54 23,112 -8,18 -21,51 -29,73 -8,22 -29,76 -47,120 -18,44 -38,96 -45,115 -7,19 -27,69 -43,110 -33,79 -60,157 -117,330 -19,58 -40,119 -46,135 -6,17 -14,44 -19,60 -5,17 -18,55 -30,85 -51,130 -55,169 -18,188 40,19 59,5 114,-90 27,-45 54,-92 61,-103 7,-11 15,-27 19,-35 4,-8 17,-31 29,-50 12,-19 46,-82 77,-140 31,-58 67,-126 82,-152 14,-27 38,-69 52,-95 14,-27 78,-135 142,-241 65,-106 122,-202 127,-212 21,-35 38,-50 59,-50 24,0 76,24 124,59 28,20 32,28 32,70 0,26 -6,67 -14,92 -34,110 -71,258 -91,359 -9,47 -23,108 -31,136 -19,67 -18,113 3,136 43,47 97,2 133,-112 5,-14 18,-50 30,-80 12,-30 39,-107 60,-170 22,-63 49,-140 60,-170 12,-30 24,-64 27,-75 9,-33 61,-75 92,-75 16,0 41,10 56,22 l 28,22 -7,100 c -37,600 -36,646 18,646 36,0 44,-15 101,-205 7,-22 20,-66 29,-97 9,-32 23,-84 32,-115 9,-32 22,-76 29,-98 6,-22 20,-67 29,-100 23,-78 28,-88 57,-103 29,-15 124,-11 142,7 8,8 14,87 19,259 4,136 13,337 19,447 6,110 15,299 19,420 10,245 21,317 53,340 28,20 39,19 69,-5 z"
       id="path14-5"
       style="stroke-width:12.4186" />
    <path
       d="m 8705,12004 c -240,-30 -384,-59 -580,-120 -164,-51 -421,-168 -613,-279 -65,-37 -263,-176 -342,-240 -146,-117 -320,-290 -451,-450 -58,-71 -189,-250 -189,-259 0,-2 -18,-30 -39,-62 -76,-114 -213,-401 -270,-564 -25,-71 -78,-257 -94,-325 -57,-254 -69,-362 -75,-635 -5,-289 15,-496 70,-715 5,-22 13,-58 18,-80 35,-160 140,-439 231,-612 64,-122 101,-187 114,-203 6,-8 15,-22 19,-30 15,-35 128,-199 175,-254 20,-24 64,-77 99,-119 244,-294 603,-568 984,-750 54,-26 104,-47 111,-47 7,0 17,-4 23,-9 24,-24 339,-123 489,-155 454,-95 809,-95 1250,0 97,21 253,65 320,91 22,8 56,21 75,28 478,175 941,509 1263,910 75,93 247,337 247,349 0,3 19,37 43,78 43,74 57,102 121,239 37,81 44,97 99,254 68,194 107,365 142,610 21,151 21,559 0,715 -16,117 -39,243 -57,315 -5,22 -13,56 -17,75 -19,81 -34,137 -46,170 -163,445 -260,625 -524,971 -77,100 -336,362 -441,445 -82,65 -259,194 -265,194 -2,0 -23,13 -47,29 -67,45 -124,76 -253,139 -228,112 -339,156 -525,206 -36,10 -86,24 -112,32 -26,8 -55,14 -65,14 -10,0 -49,6 -88,14 -213,45 -572,58 -800,30 z m 448,-229 c 147,-73 275,-244 386,-518 63,-156 101,-367 106,-586 2,-79 6,-145 9,-148 2,-3 44,35 93,84 107,107 234,211 298,243 11,6 43,24 70,40 204,124 484,209 645,197 147,-11 239,-62 281,-156 10,-24 27,-80 36,-125 16,-78 15,-85 -5,-201 -33,-185 -49,-237 -103,-350 -16,-33 -29,-63 -29,-67 0,-12 -70,-128 -143,-238 -47,-70 -104,-139 -173,-206 -57,-56 -104,-105 -104,-109 0,-3 44,-3 98,0 238,17 529,-47 772,-170 141,-71 172,-92 238,-155 107,-103 144,-157 167,-246 12,-47 12,-61 -1,-105 -23,-78 -52,-126 -117,-196 -118,-126 -360,-255 -607,-326 -133,-38 -221,-49 -386,-48 -137,0 -164,-2 -164,-14 0,-8 4,-15 8,-15 4,0 53,-44 108,-98 90,-87 193,-222 253,-332 77,-141 125,-251 140,-320 5,-19 13,-53 19,-75 49,-182 46,-302 -12,-436 -21,-49 -92,-110 -154,-131 -71,-26 -271,-24 -368,1 -174,47 -274,90 -470,207 -89,53 -293,220 -346,282 -48,57 -51,50 -52,-113 -3,-303 -80,-583 -229,-830 -60,-99 -182,-224 -258,-265 -60,-32 -196,-34 -249,-5 -173,97 -299,278 -415,595 -47,128 -75,308 -76,488 -1,89 -5,165 -10,168 -4,2 -54,-42 -111,-98 -190,-190 -474,-354 -734,-424 -82,-22 -121,-26 -224,-26 -108,-1 -132,2 -175,22 -81,36 -113,66 -147,138 -31,63 -33,75 -36,192 -3,93 0,141 13,190 21,82 44,156 62,197 7,17 13,34 13,38 0,19 103,213 157,295 78,119 114,163 225,273 48,48 88,89 88,92 0,3 -78,5 -173,5 -202,0 -336,22 -465,76 -18,8 -38,14 -44,14 -12,0 -36,11 -176,77 -247,118 -422,305 -422,452 0,131 130,295 325,410 100,59 258,126 365,155 176,48 184,49 385,52 110,2 202,3 205,3 2,1 -34,40 -81,89 -199,202 -352,453 -432,707 -37,118 -49,204 -45,323 3,103 7,124 32,177 43,89 86,122 197,149 107,26 219,17 389,-31 246,-70 553,-260 729,-450 45,-48 81,-83 81,-78 1,6 2,83 4,172 4,155 16,248 53,388 23,88 74,237 95,278 6,12 14,29 18,37 40,90 111,192 199,283 130,135 244,166 374,102 z m 865,-227 c 61,-14 95,-39 134,-95 31,-47 57,-136 58,-204 0,-40 -13,-54 -75,-84 -70,-34 -178,-106 -237,-156 -31,-27 -61,-49 -67,-49 -13,0 -18,21 -26,95 -8,84 -47,234 -83,319 l -16,39 49,44 c 52,46 89,66 165,88 25,7 46,14 48,14 2,1 24,-4 50,-11 z m -1862,-26 c 61,-28 118,-67 147,-102 31,-37 32,-39 13,-82 -29,-68 -76,-279 -76,-341 0,-25 -4,-48 -8,-51 -4,-2 -28,11 -52,31 -76,60 -154,111 -252,162 -91,48 -93,50 -96,87 -4,46 15,135 39,184 17,35 63,83 109,113 34,22 127,22 176,-1 z M 6862,10203 c 8,-10 34,-56 57,-103 24,-47 71,-123 105,-170 35,-47 66,-91 71,-99 11,-20 -13,-31 -70,-31 -57,0 -164,-22 -282,-58 -45,-13 -89,-22 -97,-19 -26,10 -94,105 -115,162 -35,92 -22,177 34,236 37,39 77,60 155,80 86,23 123,23 142,2 z m 4532,-37 c 61,-28 106,-78 131,-143 17,-43 17,-49 1,-107 -17,-60 -54,-127 -100,-181 -26,-30 -44,-31 -124,-1 -87,33 -232,66 -286,66 -72,0 -81,17 -37,68 40,48 131,186 156,237 11,22 29,53 39,69 19,28 20,29 93,22 46,-3 94,-15 127,-30 z M 6710,8286 c 95,-30 159,-45 273,-63 64,-10 117,-22 117,-26 0,-4 -29,-46 -65,-93 -35,-47 -87,-132 -115,-189 -28,-57 -57,-109 -65,-115 -20,-16 -173,15 -230,47 -88,49 -130,147 -106,246 16,61 71,158 108,187 31,24 27,24 83,6 z m 4732,-28 c 21,-24 38,-48 38,-53 0,-6 5,-16 12,-23 14,-14 48,-118 48,-150 0,-35 -36,-106 -72,-143 -18,-18 -53,-41 -78,-52 -54,-24 -183,-35 -204,-18 -7,6 -28,42 -46,79 -35,73 -122,209 -164,257 -14,17 -26,35 -26,40 0,6 35,16 78,23 141,23 235,45 287,68 57,24 86,18 127,-28 z M 8240,7032 c 0,-21 7,-64 15,-95 8,-32 15,-66 15,-76 0,-18 16,-77 45,-172 25,-80 21,-93 -42,-141 -82,-62 -123,-78 -196,-78 -129,0 -216,101 -230,268 -7,84 0,94 88,138 87,44 160,93 244,166 24,21 47,35 52,32 5,-3 9,-22 9,-42 z m 1662,6 c 81,-65 105,-80 213,-133 55,-28 104,-54 108,-60 15,-18 -2,-170 -23,-219 -44,-97 -123,-143 -230,-133 -67,7 -125,36 -188,92 l -47,43 17,53 c 33,109 48,176 59,279 6,57 13,108 15,112 9,14 22,8 76,-34 z"
       id="path15-2"
       style="stroke-width:12.4186" />
    <path
       d="m 9015,11120 c -11,-18 -43,-433 -58,-739 -1,-25 -7,-46 -13,-48 -14,-5 -33,37 -39,90 -6,44 -26,153 -51,272 -9,39 -17,80 -20,93 -5,27 -20,29 -28,4 -7,-21 11,-431 19,-454 7,-17 -19,-43 -33,-34 -6,3 -17,36 -27,73 -57,231 -79,303 -91,306 -17,4 -16,-117 2,-249 9,-73 15,-138 12,-146 -3,-8 -25,-20 -49,-28 -24,-8 -82,-32 -129,-54 -47,-22 -97,-45 -112,-52 -27,-13 -29,-11 -82,54 -99,123 -203,228 -216,216 -8,-8 0,-28 33,-75 72,-106 158,-252 154,-263 -2,-6 -13,-11 -25,-11 -13,0 -38,22 -72,65 -45,56 -133,155 -233,263 -28,29 -47,35 -47,14 0,-14 189,-303 242,-370 18,-23 28,-44 24,-54 -7,-18 -2,-21 -86,52 -25,21 -79,70 -121,109 -124,116 -158,146 -277,249 -126,108 -147,122 -157,107 -11,-18 43,-85 376,-462 124,-140 157,-188 130,-188 -4,0 -82,53 -172,118 -90,64 -176,125 -191,135 -30,19 -58,22 -58,7 0,-12 138,-149 200,-199 82,-65 150,-135 150,-152 0,-34 -22,-31 -88,14 -60,39 -181,117 -239,153 -14,9 -24,10 -28,4 -9,-14 151,-171 248,-243 43,-33 45,-44 13,-106 -33,-66 -47,-97 -71,-171 -21,-61 -24,-65 -56,-68 -19,-2 -88,4 -154,13 -126,17 -216,17 -222,0 -4,-12 66,-36 177,-60 66,-15 159,-39 198,-51 14,-4 15,-14 3,-32 -6,-11 -27,-11 -107,-3 -136,14 -368,21 -384,11 -19,-12 -3,-30 26,-30 14,0 53,-6 87,-14 106,-25 200,-45 242,-50 69,-10 115,-26 115,-41 0,-12 -15,-15 -64,-15 -36,0 -120,-4 -188,-10 -68,-5 -202,-14 -298,-20 -181,-10 -254,-23 -247,-43 2,-7 23,-13 48,-14 24,-2 109,-9 189,-17 80,-8 215,-18 300,-21 200,-9 255,-16 255,-34 0,-11 -29,-20 -105,-33 -265,-47 -373,-73 -367,-91 6,-20 52,-20 275,-1 144,12 216,14 222,8 19,-19 -1,-43 -38,-50 -45,-7 -140,-30 -206,-50 -26,-8 -58,-14 -70,-14 -28,0 -50,-15 -42,-29 9,-14 90,-14 252,0 74,6 130,7 135,2 5,-5 18,-36 30,-69 11,-32 38,-96 60,-140 21,-45 39,-84 39,-87 0,-3 -37,-36 -82,-73 -199,-163 -279,-268 -133,-175 22,14 48,30 57,36 10,5 58,36 109,69 81,52 92,57 106,44 13,-14 10,-20 -28,-54 -167,-152 -319,-302 -319,-315 0,-29 48,1 257,159 132,99 159,116 174,107 12,-8 -12,-48 -61,-102 -79,-84 -237,-262 -276,-309 -23,-27 -71,-84 -108,-127 -36,-44 -66,-85 -66,-93 0,-21 26,-17 57,9 81,68 260,225 282,248 9,9 52,48 96,87 44,38 105,93 135,120 30,28 58,48 62,46 17,-11 5,-37 -50,-111 -32,-43 -93,-131 -136,-196 -61,-92 -76,-121 -67,-130 10,-9 29,5 84,63 75,78 210,237 238,279 18,28 49,23 49,-6 0,-17 -126,-240 -155,-273 -23,-27 -28,-60 -10,-60 19,0 58,41 162,172 56,70 84,97 100,98 13,0 49,-13 80,-30 32,-16 94,-43 138,-58 l 80,-29 3,-39 c 2,-21 -4,-95 -13,-164 -17,-126 -17,-215 -1,-215 12,0 85,254 104,358 3,22 9,27 26,25 17,-2 21,-9 19,-38 -20,-393 -20,-464 -1,-458 14,5 78,288 78,345 0,40 31,123 45,123 12,0 15,-14 15,-57 0,-80 28,-528 40,-643 15,-139 41,-152 51,-27 22,274 30,393 37,547 7,166 8,175 27,175 16,0 21,-7 22,-35 3,-41 28,-178 49,-267 8,-34 14,-72 14,-85 0,-13 10,-38 21,-57 31,-51 38,-25 28,104 -19,257 -22,362 -11,369 20,12 42,-6 47,-42 3,-21 13,-66 21,-102 26,-111 43,-184 49,-214 5,-21 9,-26 17,-18 16,16 12,230 -6,323 -8,41 -11,77 -8,80 4,4 36,16 72,28 36,12 102,40 147,62 45,21 88,39 96,39 8,0 33,-24 55,-52 118,-155 222,-257 222,-219 0,8 -53,99 -122,209 -54,87 -70,133 -50,146 5,3 19,-5 33,-18 25,-24 32,-33 128,-146 50,-58 76,-88 148,-166 12,-13 27,-24 33,-24 25,0 3,45 -87,178 -147,214 -157,232 -145,244 11,11 53,-23 272,-226 167,-155 335,-296 351,-296 20,0 7,36 -28,78 -21,24 -51,61 -68,82 -41,51 -200,232 -312,357 -88,96 -110,133 -80,133 7,0 73,-45 147,-101 206,-154 270,-192 270,-158 0,12 -35,46 -194,191 -132,121 -167,158 -160,169 11,18 42,8 108,-36 38,-25 70,-45 72,-45 1,0 35,-22 76,-50 73,-50 98,-60 98,-38 0,14 -80,93 -180,177 -120,101 -116,91 -76,169 19,37 42,87 51,112 40,106 55,132 73,125 27,-11 308,-28 336,-21 34,8 33,24 -1,31 -70,15 -240,56 -303,73 -16,5 -26,16 -28,31 l -4,24 79,-7 c 327,-28 428,-31 428,-12 0,10 -93,46 -120,46 -11,0 -51,6 -90,14 -38,8 -108,22 -155,31 -47,9 -96,19 -109,21 -21,5 -22,7 -10,19 10,10 62,17 179,25 91,6 230,16 310,22 80,6 181,14 224,17 89,7 109,23 49,41 -21,6 -182,19 -358,30 -176,11 -338,21 -359,22 -22,2 -41,8 -43,14 -4,12 61,31 207,59 47,9 114,23 150,31 36,7 76,15 89,16 34,4 38,24 6,30 -21,4 -293,-5 -440,-15 -23,-2 -31,3 -33,18 -3,21 28,34 133,56 172,35 250,62 239,81 -7,12 -183,4 -264,-12 -25,-5 -66,-9 -92,-10 h -47 l -21,68 c -11,37 -39,104 -60,149 -22,45 -40,88 -40,96 0,8 39,46 88,85 116,94 199,179 186,192 -6,6 -48,-15 -123,-65 -62,-41 -115,-75 -117,-75 -2,0 -20,-11 -40,-25 -28,-19 -40,-22 -50,-14 -8,6 -14,17 -14,23 0,7 46,53 103,103 181,161 252,232 239,245 -13,13 -51,-9 -182,-107 -136,-102 -228,-164 -234,-157 -11,10 -6,41 7,49 6,4 41,42 77,83 35,41 85,98 110,125 25,28 80,89 123,137 43,47 96,110 120,140 23,29 44,55 48,58 16,13 28,49 19,55 -21,13 -307,-234 -596,-512 -7,-7 -17,-13 -23,-13 -23,0 -9,47 27,95 41,55 151,215 167,244 6,11 16,25 22,32 6,8 14,24 17,37 19,59 -45,5 -184,-157 -30,-36 -71,-83 -90,-105 -38,-45 -61,-65 -73,-66 -11,0 -20,28 -13,43 17,34 72,127 107,179 21,33 39,63 39,67 0,5 7,14 15,21 17,14 20,50 5,50 -18,0 -199,-202 -225,-251 -17,-32 -41,-31 -112,4 -94,47 -141,67 -158,67 -8,0 -31,8 -50,17 -35,17 -36,19 -31,58 4,22 9,111 12,199 5,131 4,158 -7,154 -8,-3 -17,-20 -20,-39 -4,-19 -12,-56 -19,-84 -25,-102 -39,-161 -47,-200 -6,-31 -13,-41 -30,-43 -28,-4 -28,-13 -11,275 7,117 9,215 5,219 -13,13 -36,-18 -42,-55 -3,-20 -12,-70 -20,-111 -20,-111 -44,-252 -47,-279 -4,-31 -24,-38 -37,-13 -6,11 -15,131 -21,268 -6,137 -15,278 -20,314 -5,36 -10,88 -10,117 0,72 -16,104 -35,73 z m 174,-981 c 293,-47 553,-204 729,-439 68,-90 73,-98 110,-175 89,-183 124,-329 124,-514 0,-178 -35,-316 -129,-506 -154,-312 -478,-548 -826,-601 -403,-61 -800,107 -1058,449 -187,249 -266,574 -209,857 37,182 105,339 203,470 151,202 367,356 602,427 126,38 329,53 454,32 z"
       id="path16-7"
       style="stroke-width:12.4186" />
    <path
       d="m 8980,9923 c -88,-33 -128,-148 -77,-223 74,-110 208,-103 266,14 22,45 23,52 12,95 -7,25 -24,58 -39,74 -36,38 -115,57 -162,40 z"
       id="path17-6"
       style="stroke-width:12.4186" />
    <path
       d="m 8425,9691 c -43,-26 -61,-50 -75,-97 -17,-57 3,-117 52,-157 30,-24 44,-28 93,-28 65,0 95,16 133,71 44,65 24,147 -50,200 -49,36 -107,40 -153,11 z"
       id="path18-1"
       style="stroke-width:12.4186" />
    <path
       d="m 9504,9693 c -34,-17 -80,-80 -89,-124 -9,-39 25,-108 67,-139 44,-33 132,-33 178,0 69,49 81,168 23,229 -47,49 -121,63 -179,34 z"
       id="path19-4"
       style="stroke-width:12.4186" />
    <path
       d="m 8955,9236 c -50,-18 -92,-54 -119,-100 -22,-37 -26,-57 -26,-119 0,-68 3,-77 34,-121 60,-85 138,-118 231,-97 182,41 247,257 117,388 -55,55 -163,77 -237,49 z"
       id="path20-2"
       style="stroke-width:12.4186" />
    <path
       d="m 8238,9173 c -36,-6 -95,-73 -103,-117 -8,-39 9,-101 34,-130 22,-26 85,-56 116,-56 31,0 93,30 117,56 9,11 22,39 28,64 28,112 -69,204 -192,183 z"
       id="path21"
       style="stroke-width:12.4186" />
    <path
       d="m 9732,9172 c -39,-12 -89,-69 -101,-117 -10,-39 -9,-50 9,-83 28,-53 40,-66 82,-85 47,-22 90,-22 137,2 45,24 55,35 71,84 16,51 -2,125 -39,161 -41,39 -102,54 -159,38 z"
       id="path22"
       style="stroke-width:12.4186" />
    <path
       d="m 8445,8632 c -44,-15 -75,-46 -91,-89 -15,-39 -16,-52 -5,-91 14,-55 34,-79 80,-98 108,-45 222,26 221,139 -1,40 -27,89 -62,117 -29,22 -108,34 -143,22 z"
       id="path23"
       style="stroke-width:12.4186" />
    <path
       d="m 9490,8618 c -20,-13 -45,-44 -59,-71 -21,-43 -22,-53 -12,-86 15,-51 45,-87 92,-111 48,-25 65,-25 121,0 71,31 83,50 83,136 0,72 -1,75 -37,111 -33,32 -44,37 -95,41 -48,3 -64,0 -93,-20 z"
       id="path24"
       style="stroke-width:12.4186" />
    <path
       d="m 8970,8398 c -83,-42 -112,-127 -72,-207 28,-56 64,-76 135,-76 76,1 119,28 143,92 30,78 -6,158 -88,193 -59,25 -64,25 -118,-2 z"
       id="path25"
       style="stroke-width:12.4186" />
    <path
       d="m 3567,14298 c -232,-240 -306,-320 -307,-329 0,-4 37,-42 83,-86 45,-43 138,-133 207,-198 68,-66 182,-176 253,-245 70,-69 132,-126 137,-128 5,-2 35,25 67,59 76,83 244,259 366,385 53,55 97,107 97,115 0,17 -122,139 -139,139 -10,0 -166,-156 -281,-282 -29,-32 -58,-58 -64,-58 -17,1 -126,107 -126,123 0,8 63,79 140,158 77,79 140,151 140,160 0,19 -105,119 -125,119 -12,0 -113,-99 -231,-227 -32,-35 -65,-63 -75,-63 -24,0 -101,80 -97,101 2,10 72,88 156,174 83,86 152,162 152,168 0,18 -113,127 -132,127 -9,0 -108,-96 -221,-212 z"
       id="path26"
       style="stroke-width:12.4186" />
    <path
       d="m 13990,14433 c -95,-42 -129,-64 -201,-131 -80,-75 -129,-147 -162,-237 -14,-39 -17,-73 -15,-155 3,-93 7,-112 33,-164 52,-103 169,-216 280,-270 56,-27 200,-28 270,-2 52,20 85,43 85,58 0,17 -105,201 -117,205 -7,3 -31,-4 -53,-16 -70,-36 -160,-20 -208,39 -26,32 -52,90 -52,118 0,82 135,249 238,295 82,36 170,10 224,-66 20,-27 23,-45 23,-115 v -83 l 35,-21 c 19,-12 61,-39 93,-60 32,-21 60,-38 63,-38 12,0 44,86 54,143 22,125 -23,245 -133,357 -106,106 -225,160 -352,159 -40,0 -85,-7 -105,-16 z"
       id="path27"
       style="stroke-width:12.4186" />
    <path
       d="m 3037,13694 -78,-105 57,-86 c 32,-47 65,-93 74,-102 10,-9 26,-29 36,-46 10,-16 65,-92 121,-167 98,-130 114,-158 94,-158 -16,0 -260,84 -381,130 -30,12 -68,25 -85,30 -16,5 -55,18 -85,29 -30,12 -62,21 -71,21 -8,0 -37,-34 -65,-77 -27,-42 -60,-90 -73,-105 -30,-37 -22,-54 31,-69 24,-6 61,-17 83,-24 22,-7 67,-20 100,-30 33,-10 78,-23 100,-30 22,-7 66,-20 98,-29 31,-9 83,-23 115,-32 31,-9 75,-22 97,-29 22,-7 67,-20 100,-30 33,-9 88,-26 123,-37 58,-19 64,-19 87,-4 14,9 33,29 42,44 10,15 41,60 70,99 29,40 53,79 53,88 0,8 -26,52 -57,98 -32,46 -62,91 -68,100 -5,8 -46,69 -90,134 -44,65 -82,122 -85,128 -23,47 -244,365 -253,365 -7,-1 -47,-48 -90,-106 z"
       id="path28"
       style="stroke-width:12.4186" />
    <path
       d="m 14759,13672 c -64,-48 -153,-114 -198,-146 -174,-126 -245,-207 -274,-312 -22,-79 -21,-115 6,-195 32,-93 81,-171 162,-254 95,-98 141,-118 265,-119 82,0 101,3 140,24 131,70 532,362 538,391 3,15 -130,211 -148,217 -5,2 -71,-43 -147,-99 -76,-57 -163,-121 -193,-143 -30,-22 -71,-52 -90,-66 -106,-81 -189,-80 -252,2 -31,41 -42,86 -33,138 7,44 65,106 150,163 78,52 328,242 348,265 18,20 17,21 -19,74 -21,29 -51,69 -66,88 -16,19 -33,41 -39,48 -5,6 -15,12 -22,12 -7,-1 -64,-40 -128,-88 z"
       id="path29"
       style="stroke-width:12.4186" />
    <path
       d="m 15504,12851 c -5,-5 -46,-28 -91,-51 -46,-23 -83,-44 -83,-47 0,-8 55,-118 88,-176 20,-35 31,-65 27,-76 -3,-10 -36,-34 -73,-53 -37,-19 -139,-72 -227,-117 -88,-46 -191,-99 -228,-118 -38,-19 -71,-42 -74,-51 -7,-18 95,-222 114,-229 12,-5 146,59 343,164 181,96 256,133 270,133 24,0 40,-23 91,-124 24,-48 49,-90 56,-93 16,-6 183,76 190,94 5,13 -104,239 -228,473 -28,52 -69,129 -90,171 -43,82 -70,114 -85,100 z"
       id="path30"
       style="stroke-width:12.4186" />
    <path
       d="m 2407,12753 c -13,-27 -34,-64 -45,-83 -53,-89 -54,-92 -35,-112 9,-10 27,-24 39,-31 13,-7 56,-30 96,-51 40,-21 89,-49 108,-61 33,-21 122,-70 220,-123 25,-13 74,-41 110,-62 36,-21 91,-52 122,-69 31,-16 66,-36 78,-43 34,-22 41,-14 139,165 12,21 21,44 21,51 0,16 -64,57 -200,129 -52,28 -112,61 -132,74 -21,12 -40,23 -43,23 -2,0 -50,27 -106,60 -55,33 -102,60 -104,60 -2,0 -38,20 -79,45 -42,25 -80,45 -85,45 -5,0 -14,7 -21,15 -25,30 -56,18 -83,-32 z"
       id="path31"
       style="stroke-width:12.4186" />
    <path
       d="m 2164,12291 c -5,-3 -18,-26 -28,-51 -11,-25 -32,-73 -48,-108 -29,-65 -29,-82 1,-82 9,0 21,-4 27,-9 8,-8 60,-30 159,-68 22,-9 54,-21 70,-29 17,-7 56,-23 87,-35 80,-31 88,-68 15,-69 -15,0 -56,-7 -90,-14 -65,-16 -161,-36 -287,-62 -154,-32 -146,-26 -196,-142 -24,-56 -41,-109 -38,-117 6,-14 42,-33 144,-75 30,-12 87,-37 127,-56 40,-18 100,-45 135,-60 35,-14 92,-40 127,-56 123,-57 315,-138 328,-138 8,0 16,8 19,18 8,23 63,161 77,190 13,27 -2,40 -83,72 -71,28 -74,29 -212,89 -64,28 -123,51 -131,51 -21,0 -28,12 -16,26 10,13 36,19 204,50 44,8 109,21 145,29 36,9 79,15 95,16 77,0 165,41 165,77 0,7 6,26 14,40 29,55 57,134 52,147 -3,8 -31,26 -63,40 -32,15 -86,40 -120,56 -35,16 -68,29 -74,29 -6,0 -23,6 -37,14 -15,8 -126,56 -247,106 -121,50 -229,96 -239,102 -31,17 -73,26 -82,19 z"
       id="path32"
       style="stroke-width:12.4186" />
    <path
       d="m 15935,11915 c -33,-14 -99,-40 -129,-49 -15,-5 -17,-12 -11,-42 3,-20 13,-51 21,-70 8,-19 20,-49 28,-68 8,-19 18,-49 21,-68 6,-33 5,-34 -47,-56 -29,-12 -59,-22 -66,-22 -7,0 -23,-5 -35,-12 -25,-14 -64,-29 -162,-63 -38,-13 -95,-33 -125,-45 -30,-12 -73,-28 -95,-36 -22,-9 -53,-19 -70,-23 -28,-6 -30,-10 -29,-51 1,-64 57,-214 81,-218 10,-1 50,9 88,23 39,15 79,29 90,32 11,3 58,20 105,38 47,18 105,40 130,48 25,9 83,30 129,47 100,36 114,37 129,8 15,-29 41,-103 52,-146 13,-51 39,-85 58,-77 59,25 120,48 139,52 38,9 49,30 34,66 -7,18 -23,64 -36,102 -13,39 -34,95 -45,125 -12,30 -25,69 -30,85 -5,17 -25,75 -45,130 -20,55 -40,111 -45,125 -8,23 -33,87 -59,153 -12,30 -30,33 -76,12 z"
       id="path33"
       style="stroke-width:12.4186" />
    <path
       d="m 1732,11168 c -5,-7 -15,-33 -22,-58 -6,-25 -18,-66 -26,-92 -9,-25 -14,-59 -12,-75 2,-23 9,-29 38,-34 19,-3 71,-16 115,-29 44,-12 109,-29 145,-37 36,-8 81,-18 100,-23 229,-52 290,-92 290,-189 0,-44 -47,-128 -86,-152 -42,-25 -98,-23 -209,10 -38,12 -88,25 -110,30 -62,13 -244,60 -304,77 -29,9 -56,12 -60,7 -4,-4 -15,-37 -25,-73 -9,-36 -24,-89 -33,-118 -10,-32 -13,-56 -7,-61 11,-10 107,-41 127,-41 8,0 39,-7 68,-16 73,-21 142,-40 214,-58 33,-8 90,-22 126,-31 79,-20 224,-16 282,7 121,48 205,184 237,386 24,148 -8,260 -99,345 -69,65 -131,92 -296,131 -38,9 -95,23 -125,31 -30,8 -89,22 -130,31 -41,9 -97,23 -124,30 -61,17 -61,17 -74,2 z"
       id="path34"
       style="stroke-width:12.4186" />
    <path
       d="m 15393,10838 c 3,-18 13,-64 22,-103 10,-38 20,-85 22,-103 6,-41 31,-52 114,-52 66,0 68,-2 91,-100 6,-25 16,-65 23,-90 7,-25 16,-64 20,-87 l 7,-42 -55,-31 c -80,-45 -83,-51 -68,-118 7,-31 17,-77 22,-102 12,-61 29,-100 43,-100 11,0 65,33 241,149 54,36 104,68 110,71 5,3 51,32 100,64 50,33 113,73 140,91 172,110 227,148 232,162 3,8 -1,38 -10,66 -33,110 -47,165 -47,185 0,29 -25,40 -117,52 -43,6 -121,17 -173,25 -98,14 -238,33 -445,60 -66,9 -148,20 -181,25 -96,15 -97,15 -91,-22 z m 650,-294 109,-6 -23,-24 c -12,-13 -26,-24 -30,-24 -4,0 -49,-25 -100,-55 -104,-61 -126,-66 -133,-32 -2,12 -10,47 -16,78 -16,71 -10,81 43,75 23,-3 91,-8 150,-12 z"
       id="path35"
       style="stroke-width:12.4186" />
    <path
       d="m 1816,9321 c -76,-38 -151,-112 -183,-181 -22,-47 -26,-69 -26,-155 -1,-89 2,-106 26,-151 39,-77 99,-137 172,-172 58,-29 73,-32 159,-32 99,0 130,9 212,62 85,55 154,187 154,294 0,55 -19,128 -46,177 -30,53 -104,124 -161,153 -50,25 -71,29 -153,31 -88,3 -100,1 -154,-26 z"
       id="path36"
       style="stroke-width:12.4186" />
    <path
       d="m 15910,9335 c -14,-8 -32,-14 -41,-15 -24,0 -147,-117 -168,-159 -93,-185 -19,-410 163,-499 60,-29 74,-32 160,-32 105,0 139,11 221,72 80,59 115,115 135,219 15,76 3,162 -32,233 -32,63 -102,130 -173,164 -58,29 -74,32 -152,32 -57,-1 -97,-6 -113,-15 z"
       id="path37"
       style="stroke-width:12.4186" />
    <path
       d="m 1446,8001 c -3,-5 -2,-29 3,-53 6,-24 17,-78 26,-120 9,-43 21,-80 26,-84 5,-3 35,-8 67,-11 66,-6 102,-25 102,-54 0,-18 6,-46 40,-196 13,-56 7,-67 -53,-98 -82,-43 -83,-44 -64,-114 9,-34 17,-68 17,-77 0,-30 31,-124 42,-124 5,0 29,13 52,28 22,15 48,31 56,35 8,4 27,15 42,25 15,9 55,35 90,56 35,22 101,65 148,95 47,31 93,61 102,66 68,39 285,178 306,196 15,13 8,94 -14,169 -8,25 -14,55 -14,68 0,34 -33,60 -87,67 -26,3 -84,12 -128,20 -101,18 -241,40 -375,60 -58,9 -143,22 -190,30 -136,23 -187,27 -194,16 z m 633,-314 c 41,-7 76,-17 78,-23 2,-6 -22,-25 -54,-42 -117,-60 -156,-82 -169,-93 -9,-8 -17,-4 -28,13 -15,24 -38,137 -29,151 6,11 117,7 202,-6 z"
       id="path38"
       style="stroke-width:12.4186" />
    <path
       d="m 15828,7978 c -97,-33 -165,-108 -217,-241 -6,-16 -18,-69 -26,-119 -35,-220 43,-382 230,-473 175,-85 324,-91 489,-20 56,24 147,121 169,181 10,27 25,65 32,84 8,19 20,79 26,133 10,79 10,113 -1,180 -13,84 -40,171 -57,188 -10,10 -100,35 -173,49 -25,4 -78,15 -119,24 -85,19 -97,14 -106,-43 -9,-54 -35,-169 -51,-227 -30,-109 -19,-128 83,-144 68,-11 78,-5 86,54 10,72 26,96 62,96 50,0 76,-35 78,-106 4,-113 -45,-205 -125,-238 -74,-31 -219,-12 -314,41 -82,46 -120,127 -99,213 14,61 40,96 86,116 21,10 41,25 45,33 9,24 4,202 -7,223 -12,22 -19,22 -91,-4 z"
       id="path39"
       style="stroke-width:12.4186" />
    <path
       d="m 2475,7184 c -22,-8 -51,-19 -65,-24 -14,-5 -50,-18 -80,-30 -30,-11 -86,-32 -125,-45 -38,-13 -95,-33 -125,-45 -30,-11 -86,-32 -125,-45 -38,-13 -95,-33 -125,-45 -30,-12 -70,-26 -87,-31 -49,-15 -57,-38 -34,-101 10,-29 35,-102 55,-163 45,-139 57,-172 80,-215 53,-99 139,-167 248,-193 84,-21 112,-21 202,-1 156,35 292,111 353,196 102,144 99,257 -17,558 -11,30 -30,82 -41,115 -32,92 -40,97 -114,69 z m -13,-331 c 8,-16 21,-51 27,-79 28,-119 -41,-200 -214,-255 -78,-24 -146,-24 -194,0 -44,23 -63,49 -92,127 -21,55 -21,58 -3,71 10,7 32,17 49,22 16,5 55,19 85,31 30,12 87,32 125,45 39,13 93,33 120,44 68,26 78,25 97,-6 z"
       id="path40"
       style="stroke-width:12.4186" />
    <path
       d="m 15474,7063 c -4,-16 -12,-39 -19,-53 -37,-76 -53,-154 -35,-165 7,-4 26,-11 44,-15 17,-5 56,-18 86,-30 30,-12 66,-25 80,-30 14,-5 50,-18 80,-30 30,-12 69,-25 85,-29 47,-11 41,-43 -10,-54 -37,-7 -75,-17 -210,-52 -27,-7 -77,-20 -110,-28 -33,-9 -80,-21 -105,-27 -63,-16 -87,-34 -99,-72 -5,-18 -19,-58 -31,-88 -12,-30 -24,-64 -27,-76 -5,-23 -3,-24 197,-99 19,-8 73,-28 120,-46 47,-17 102,-38 123,-45 20,-8 54,-20 75,-28 42,-16 179,-66 232,-85 70,-25 103,-32 109,-24 7,8 16,30 62,145 23,59 21,85 -8,94 -19,6 -57,20 -130,48 -24,9 -60,22 -80,30 -89,33 -131,49 -173,68 -51,23 -50,25 55,51 33,9 80,21 105,28 53,14 149,37 205,48 34,7 106,24 153,37 18,5 80,150 89,210 6,37 -3,44 -87,72 -36,12 -90,31 -120,42 -30,12 -66,25 -80,30 -14,5 -50,18 -80,30 -30,11 -86,32 -125,45 -118,41 -159,56 -170,64 -5,5 -21,11 -35,14 -14,3 -50,14 -80,26 -71,27 -78,27 -86,-6 z"
       id="path41"
       style="stroke-width:12.4186" />
    <path
       d="m 2482,6087 c -185,-185 -332,-340 -332,-350 0,-22 105,-230 124,-246 11,-9 43,-8 137,3 277,34 696,76 764,76 82,0 84,5 30,111 -67,135 -64,133 -132,131 -54,-2 -180,-17 -348,-43 -152,-23 -219,-29 -230,-18 -7,7 -4,15 9,24 20,15 197,180 349,326 l 90,85 -43,95 c -46,99 -68,139 -79,139 -3,0 -156,-150 -339,-333 z"
       id="path42"
       style="stroke-width:12.4186" />
    <path
       d="m 15067,6030 c -30,-61 -53,-118 -50,-128 3,-11 65,-47 171,-99 92,-44 270,-132 395,-194 234,-116 247,-119 268,-78 27,51 89,190 89,198 0,6 -24,22 -52,36 -29,14 -60,30 -68,35 -8,4 -62,31 -120,58 -100,47 -557,270 -572,278 -4,3 -31,-45 -61,-106 z"
       id="path43"
       style="stroke-width:12.4186" />
    <path
       d="m 14917,5723 c -27,-31 -107,-173 -107,-191 0,-12 46,-45 141,-102 77,-47 152,-93 167,-102 15,-9 38,-23 51,-30 33,-18 37,-34 9,-41 -13,-3 -140,-9 -283,-13 l -260,-7 -26,-28 c -34,-37 -109,-161 -109,-181 0,-13 30,-41 65,-58 11,-6 96,-60 200,-129 38,-25 77,-50 86,-56 10,-5 64,-41 121,-79 197,-132 266,-176 275,-176 4,0 18,15 29,33 86,131 104,160 104,172 0,8 -69,59 -152,113 -190,124 -233,155 -233,167 0,6 102,11 258,13 143,1 275,6 294,10 31,6 41,18 98,114 l 63,106 -22,20 c -11,10 -49,37 -84,58 -35,21 -75,47 -90,56 -15,10 -34,21 -42,25 -8,4 -31,18 -50,31 -19,13 -44,28 -55,33 -11,5 -33,18 -50,29 -16,11 -37,23 -45,27 -8,4 -34,20 -56,35 -23,15 -44,28 -47,28 -3,0 -34,19 -69,43 -35,24 -70,46 -78,50 -8,4 -28,16 -45,26 -38,25 -39,25 -58,4 z"
       id="path44"
       style="stroke-width:12.4186" />
    <path
       d="m 3315,5405 c -22,-7 -69,-20 -105,-29 -36,-10 -85,-23 -110,-30 -107,-31 -159,-45 -220,-62 -36,-9 -87,-23 -115,-30 -51,-14 -109,-29 -225,-59 -36,-10 -71,-19 -77,-21 -25,-7 -12,-44 40,-116 28,-41 59,-85 68,-98 l 17,-25 48,17 c 107,36 107,36 158,-31 25,-33 46,-63 46,-66 0,-4 13,-24 29,-44 15,-20 35,-49 44,-66 15,-29 14,-30 -29,-86 -24,-32 -44,-64 -44,-73 0,-20 135,-212 154,-219 13,-5 29,12 61,65 13,22 208,310 277,408 148,213 218,323 212,333 -32,55 -143,216 -159,229 -23,20 -19,20 -70,3 z m -62,-261 c 11,-12 -167,-234 -188,-234 -17,0 -105,116 -105,138 0,6 60,30 133,55 142,48 150,50 160,41 z"
       id="path45"
       style="stroke-width:12.4186" />
    <path
       d="m 3739,4827 c -32,-25 -347,-303 -359,-318 -3,-3 -43,-39 -90,-80 -47,-40 -90,-78 -96,-84 -6,-5 -30,-27 -53,-48 -22,-21 -41,-45 -41,-54 0,-27 131,-173 155,-173 19,0 99,66 307,256 41,37 63,44 55,17 -5,-17 -12,-46 -42,-173 -33,-137 -74,-318 -79,-350 -5,-32 0,-41 66,-115 39,-44 79,-84 90,-89 15,-8 34,5 106,75 134,129 351,331 407,379 97,82 155,142 155,158 0,9 -29,49 -65,87 -35,39 -64,73 -65,78 0,4 -11,7 -24,7 -16,0 -50,-24 -101,-72 -43,-40 -93,-86 -113,-103 -19,-16 -57,-51 -85,-77 -68,-63 -81,-54 -53,40 19,64 42,152 62,242 9,41 22,95 29,120 27,92 27,115 3,146 -44,56 -131,144 -142,144 -6,0 -18,-6 -27,-13 z"
       id="path46"
       style="stroke-width:12.4186" />
    <path
       d="m 14400,4824 c -76,-25 -171,-107 -281,-244 -24,-30 -48,-60 -54,-66 -5,-6 -28,-33 -50,-60 -22,-27 -55,-65 -72,-85 -18,-20 -33,-41 -33,-46 0,-11 98,-102 240,-223 47,-40 123,-107 170,-150 47,-42 107,-96 134,-119 27,-23 65,-58 85,-77 20,-18 43,-34 52,-34 9,0 43,30 75,67 33,37 69,78 82,91 12,14 22,28 22,32 0,15 -131,136 -215,199 -43,32 -54,65 -30,91 15,16 31,20 88,20 39,0 94,-7 124,-15 29,-8 77,-22 106,-30 30,-8 74,-15 98,-15 42,1 46,3 87,58 23,31 60,79 82,105 42,52 48,65 28,71 -7,2 -62,18 -123,36 -90,27 -129,33 -215,35 -98,1 -105,3 -102,21 22,140 10,187 -68,266 -37,37 -70,60 -96,67 -40,11 -107,13 -134,5 z m 40,-271 c 35,-24 40,-33 40,-80 0,-35 -8,-53 -48,-105 -60,-80 -78,-83 -140,-27 -62,56 -67,65 -49,92 31,48 93,110 122,123 39,17 46,17 75,-3 z"
       id="path47"
       style="stroke-width:12.4186" />
    <path
       d="m 13559,3992 c -109,-97 -149,-138 -149,-151 0,-7 12,-43 26,-79 14,-37 31,-83 39,-102 7,-19 27,-71 45,-115 18,-44 38,-97 46,-117 24,-66 44,-117 58,-155 8,-21 29,-76 46,-123 75,-202 79,-210 98,-210 7,0 39,24 70,53 141,131 136,120 97,193 -32,60 -32,85 3,111 15,11 64,54 109,97 50,47 89,76 103,76 12,0 42,-13 67,-30 69,-47 68,-47 215,90 55,50 60,73 21,89 -30,12 -255,128 -363,188 -219,121 -441,233 -461,233 -9,0 -40,-22 -70,-48 z m 176,-263 c 4,-5 17,-15 28,-20 12,-5 36,-18 52,-29 17,-11 37,-23 45,-28 46,-24 80,-49 85,-60 6,-17 -104,-123 -124,-119 -15,2 -17,5 -49,77 -11,25 -34,75 -51,111 -17,36 -31,69 -31,72 0,11 38,8 45,-4 z"
       id="path48"
       style="stroke-width:12.4186" />
    <path
       d="m 4375,3991 c -101,-28 -142,-54 -243,-153 -47,-47 -73,-85 -109,-157 l -47,-96 1,-110 c 0,-100 3,-114 28,-160 50,-92 147,-188 244,-244 45,-25 134,-51 175,-51 44,0 139,29 159,49 6,6 16,11 21,11 13,1 56,35 56,45 0,4 -28,49 -62,101 -59,89 -86,111 -103,84 -10,-17 -75,-40 -111,-40 -121,0 -204,143 -148,253 28,54 102,144 151,184 44,36 50,38 117,38 58,0 77,-4 99,-22 59,-46 70,-69 69,-148 l -1,-73 47,-21 c 26,-12 65,-33 87,-46 82,-50 106,-23 108,123 2,109 -12,154 -68,227 -40,53 -53,65 -116,113 -125,92 -245,124 -354,93 z"
       id="path49"
       style="stroke-width:12.4186" />
    <path
       d="m 13017,3537 c -141,-105 -238,-173 -351,-250 -56,-37 -104,-76 -108,-87 -5,-15 38,-87 185,-305 106,-157 210,-314 232,-349 73,-117 84,-122 155,-66 19,15 80,58 135,95 55,37 134,91 175,121 41,30 110,80 153,110 42,30 77,62 77,70 0,32 -85,144 -109,144 -9,0 -61,-31 -116,-69 -283,-197 -272,-190 -288,-178 -21,16 -87,116 -87,132 0,7 33,35 73,62 212,145 257,179 257,196 0,25 -69,125 -92,133 -13,4 -40,-10 -91,-47 -40,-29 -92,-66 -117,-83 -25,-16 -61,-42 -81,-58 -52,-40 -70,-36 -107,21 -18,27 -32,53 -32,59 0,10 15,21 138,104 26,18 52,37 59,43 6,5 46,34 87,63 42,30 76,60 76,68 0,28 -84,143 -105,143 -11,0 -64,-32 -118,-72 z"
       id="path50"
       style="stroke-width:12.4186" />
    <path
       d="m 4987,3338 c -73,-112 -173,-264 -222,-338 -48,-74 -96,-148 -107,-163 -23,-33 -20,-66 7,-81 11,-6 36,-23 55,-37 47,-35 260,-179 265,-179 2,0 32,-19 67,-43 35,-23 94,-62 131,-86 l 69,-44 23,29 c 14,16 24,32 25,36 0,4 14,28 32,54 l 32,47 -25,20 c -20,16 -237,161 -288,192 -77,48 -91,68 -66,95 8,9 15,21 15,26 0,6 15,27 34,48 l 35,37 80,-55 c 45,-31 83,-56 85,-56 3,0 33,-19 68,-42 100,-67 104,-69 120,-55 25,20 91,138 82,146 -24,19 -255,172 -295,195 -37,21 -43,45 -21,75 10,15 21,34 25,44 12,31 37,31 83,-2 25,-17 47,-31 50,-31 3,0 64,-39 135,-86 72,-47 137,-83 144,-80 18,7 95,123 95,144 0,14 -94,87 -145,112 -5,3 -77,49 -160,104 -82,54 -176,116 -209,137 -32,22 -64,39 -72,39 -7,0 -73,-91 -147,-202 z"
       id="path51"
       style="stroke-width:12.4186" />
    <path
       d="m 5777,3008 c -20,-40 -51,-107 -70,-148 -38,-81 -103,-221 -172,-365 -82,-173 -95,-204 -95,-224 0,-14 21,-29 87,-61 47,-22 92,-39 100,-36 8,3 30,41 50,83 19,43 51,112 70,153 19,41 49,104 65,140 17,36 39,84 50,108 11,23 24,42 29,42 13,0 11,-62 -5,-133 -8,-34 -22,-107 -31,-162 -9,-55 -23,-136 -31,-180 -17,-99 -18,-140 -1,-152 6,-5 32,-18 57,-28 25,-10 53,-25 62,-33 28,-23 49,-10 116,73 35,44 76,93 90,109 14,16 54,66 90,110 99,124 135,166 143,166 8,0 0,-40 -11,-55 -4,-5 -25,-50 -46,-100 -20,-49 -41,-94 -45,-100 -4,-5 -33,-71 -64,-145 -32,-74 -59,-138 -62,-142 -2,-5 39,-29 92,-55 69,-34 101,-44 112,-37 8,5 24,32 35,59 21,52 45,108 58,136 5,8 40,91 80,184 40,93 76,176 80,184 5,9 18,36 29,61 10,25 33,76 50,114 33,74 33,101 -2,112 -24,7 -121,51 -210,94 -32,16 -65,26 -72,24 -13,-5 -101,-108 -175,-204 -19,-25 -46,-59 -60,-75 -116,-136 -132,-140 -107,-28 8,37 23,115 32,173 9,58 22,136 30,173 7,37 11,76 8,86 -5,19 -269,151 -302,151 -14,0 -29,-21 -54,-72 z"
       id="path52"
       style="stroke-width:12.4186" />
    <path
       d="m 11975,2886 c -101,-54 -122,-78 -96,-110 10,-12 66,-120 286,-551 81,-157 107,-201 124,-203 12,-2 54,13 94,34 465,239 522,273 512,304 -12,39 -73,145 -89,155 -12,7 -25,5 -49,-9 -17,-10 -77,-42 -132,-71 -55,-29 -117,-62 -138,-74 -72,-40 -49,-70 -264,349 -110,216 -119,230 -137,230 -6,-1 -56,-25 -111,-54 z"
       id="path53"
       style="stroke-width:12.4186" />
    <path
       d="m 11376,2618 c -11,-6 -33,-14 -50,-19 -17,-4 -47,-13 -66,-20 -129,-45 -167,-58 -285,-96 -173,-55 -185,-61 -185,-94 0,-16 6,-43 14,-61 7,-18 20,-58 29,-88 25,-88 79,-263 90,-290 5,-14 13,-41 18,-60 4,-19 15,-57 23,-85 36,-118 58,-192 64,-220 12,-48 39,-46 217,15 31,11 51,24 54,36 3,16 -13,77 -44,164 -55,156 -55,177 1,194 16,5 45,14 64,21 19,7 69,23 110,36 97,29 114,42 96,78 -7,14 -16,42 -20,61 -4,19 -13,43 -21,54 -13,18 -16,18 -77,-3 -247,-83 -249,-84 -265,-69 -15,16 -34,75 -36,118 -2,23 7,28 138,73 77,26 154,52 170,57 17,6 40,16 50,24 19,14 20,16 3,64 -10,27 -18,57 -18,66 0,16 -34,56 -47,56 -5,0 -17,-6 -27,-12 z"
       id="path54"
       style="stroke-width:12.4186" />
    <path
       d="m 6835,2598 c -18,-67 -69,-227 -81,-256 -8,-18 -14,-43 -14,-55 -1,-12 -7,-33 -15,-47 -8,-14 -14,-35 -15,-47 0,-12 -6,-37 -14,-55 -13,-31 -20,-54 -60,-188 -9,-30 -25,-81 -35,-114 -22,-69 -18,-94 18,-102 14,-3 37,-10 51,-16 14,-6 39,-14 55,-18 17,-5 46,-14 65,-21 19,-6 51,-17 70,-24 19,-7 60,-19 90,-28 82,-23 261,-78 292,-89 14,-5 34,-8 43,-6 19,3 55,100 58,155 2,40 6,38 -213,104 -162,49 -211,66 -221,76 -10,10 10,104 31,142 13,25 21,26 80,6 300,-100 350,-110 350,-67 0,11 7,36 15,55 32,77 19,98 -79,122 -28,7 -76,20 -106,29 -30,9 -68,21 -85,25 -16,5 -47,16 -69,26 -35,15 -38,19 -33,48 3,18 12,49 21,69 l 16,37 47,-15 c 27,-8 68,-21 93,-28 25,-7 72,-21 105,-31 33,-10 77,-24 98,-31 20,-8 51,-14 67,-14 28,0 30,4 54,82 14,45 22,85 18,89 -8,7 -62,25 -212,69 -58,17 -123,37 -145,44 -22,7 -67,21 -100,31 -33,10 -92,29 -131,42 -88,29 -101,29 -109,1 z"
       id="path55"
       style="stroke-width:12.4186" />
    <path
       d="m 7653,2367 c -5,-6 -17,-57 -27,-112 -45,-254 -58,-335 -91,-540 -8,-55 -20,-127 -26,-159 -13,-74 -5,-84 77,-95 33,-5 78,-14 101,-21 53,-16 73,-3 73,47 0,33 16,132 46,281 7,40 14,86 14,102 0,71 32,21 135,-205 7,-16 42,-88 77,-160 l 63,-130 50,-13 c 28,-7 85,-16 127,-19 87,-7 82,-12 91,92 3,28 10,84 16,125 7,41 18,116 26,165 8,50 21,137 30,195 9,58 23,144 32,191 8,48 13,94 11,104 -4,21 -70,41 -169,51 -81,8 -83,6 -99,-121 -6,-49 -13,-92 -15,-95 -3,-4 -9,-49 -15,-100 -10,-90 -22,-130 -39,-130 -5,0 -21,28 -36,63 -36,81 -77,171 -127,277 -22,47 -49,104 -60,127 -22,48 -41,57 -163,74 -44,6 -83,13 -86,15 -4,2 -11,-2 -16,-9 z"
       id="path56"
       style="stroke-width:12.4186" />
    <path
       d="m 10170,2306 c -107,-38 -131,-51 -185,-101 -103,-96 -143,-211 -130,-370 27,-337 246,-507 566,-440 144,31 269,115 316,215 28,58 53,157 53,206 -1,70 -36,218 -68,286 -31,64 -121,168 -146,168 -7,0 -17,5 -23,11 -52,52 -266,66 -383,25 z m 209,-204 c 62,-28 96,-79 117,-177 17,-76 17,-166 2,-217 -23,-76 -123,-126 -213,-105 -101,23 -158,130 -159,298 -1,94 0,99 30,136 35,44 105,83 150,83 18,0 50,-8 73,-18 z"
       id="path57"
       style="stroke-width:12.4186" />
    <path
       d="m 8551,2212 c -16,-29 -14,-189 2,-199 6,-4 66,-10 132,-13 l 120,-5 v -340 l 1,-340 44,-7 c 81,-12 207,-9 218,5 8,9 12,118 12,329 1,225 5,321 13,332 10,13 38,16 142,18 l 130,3 9,82 c 5,45 6,92 3,106 l -7,24 -272,7 c -150,3 -332,9 -404,13 -126,6 -132,5 -143,-15 z"
       id="path58"
       style="stroke-width:12.4186" />
  </g>
</svg>
