<svg width="2053" height="2401" xmlns="http://www.w3.org/2000/svg" xmlns:xlink="http://www.w3.org/1999/xlink" xml:space="preserve" overflow="hidden"><defs><clipPath id="clip0"><rect x="1174" y="37" width="2053" height="2401"/></clipPath></defs><g clip-path="url(#clip0)" transform="translate(-1174 -37)"><path d="M3216.3 43.796C3221.69 383.601 3221.37 723.459 3216.3 1063.25 3211.42 1390.64 3195.11 1646.12 3048.65 1845.88 2872.23 2086.52 2578.3 2260.18 2200.22 2430.8 1822.14 2260.18 1528.21 2086.52 1351.79 1845.88 1205.33 1646.12 1189.02 1390.64 1184.14 1063.25 1179.08 723.459 1178.76 383.606 1184.14 43.796L3216.3 43.796Z" stroke="#162E52" stroke-width="12.0433" stroke-miterlimit="8" fill="#1353B4" fill-rule="evenodd"/><path d="M2200 44 3216.08 44C3221.46 383.663 3221.15 723.378 3216.08 1063.03 3211.2 1390.28 3194.9 1645.65 3048.47 1845.33 2872.08 2085.87 2578.22 2259.45 2200.22 2430L2200 2429.9Z" stroke="#9F0505" stroke-width="12.0433" stroke-miterlimit="8" fill="#CD0707" fill-rule="evenodd"/><path d="M3216.3 43.796C3221.69 383.601 3221.37 723.459 3216.3 1063.25 3211.42 1390.64 3195.11 1646.12 3048.65 1845.88 2872.23 2086.52 2578.3 2260.18 2200.22 2430.8 1822.14 2260.18 1528.21 2086.52 1351.79 1845.88 1205.33 1646.12 1189.02 1390.64 1184.14 1063.25 1179.08 723.459 1178.76 383.606 1184.14 43.796L3216.3 43.796Z" stroke="#806600" stroke-width="12.0433" stroke-miterlimit="8" fill="none" fill-rule="evenodd"/><path d="M2155.22 156.5 2245.78 156.5 2245.78 223.726 2246.51 223.726 2246.51 290.953 2313.1 290.953 2313.1 381.39 2246.51 381.39 2246.51 468.05 2333.3 468.05 2333.3 401.555 2423.86 401.555 2423.86 468.05 2491.18 468.05 2491.18 468.782 2558.5 468.782 2558.5 559.219 2491.18 559.219 2491.18 559.95 2423.86 559.95 2423.86 626.445 2333.3 626.445 2333.3 559.95 2246.51 559.95 2246.51 646.61 2313.1 646.61 2313.1 737.047 2246.51 737.047 2246.51 804.274 2245.78 804.274 2245.78 871.5 2155.22 871.5 2155.22 804.274 2154.49 804.274 2154.49 737.047 2087.9 737.047 2087.9 646.61 2154.49 646.61 2154.49 559.95 2067.7 559.95 2067.7 626.445 1977.14 626.445 1977.14 559.95 1909.82 559.95 1909.82 559.219 1842.5 559.219 1842.5 468.782 1909.82 468.782 1909.82 468.05 1977.14 468.05 1977.14 401.555 2067.7 401.555 2067.7 468.05 2154.49 468.05 2154.49 381.39 2087.9 381.39 2087.9 290.953 2154.49 290.953 2154.49 223.726 2155.22 223.726Z" stroke="#808080" stroke-width="6.875" stroke-miterlimit="8" fill="#FFFFFF" fill-rule="evenodd"/><path d="M2155.22 1604.5 2245.78 1604.5 2245.78 1671.73 2246.51 1671.73 2246.51 1738.95 2313.1 1738.95 2313.1 1829.39 2246.51 1829.39 2246.51 1916.05 2333.3 1916.05 2333.3 1849.56 2423.86 1849.56 2423.86 1916.05 2491.18 1916.05 2491.18 1916.78 2558.5 1916.78 2558.5 2007.22 2491.18 2007.22 2491.18 2007.95 2423.86 2007.95 2423.86 2074.45 2333.3 2074.45 2333.3 2007.95 2246.51 2007.95 2246.51 2094.61 2313.1 2094.61 2313.1 2185.05 2246.51 2185.05 2246.51 2252.27 2245.78 2252.27 2245.78 2319.5 2155.22 2319.5 2155.22 2252.27 2154.49 2252.27 2154.49 2185.05 2087.9 2185.05 2087.9 2094.61 2154.49 2094.61 2154.49 2007.95 2067.7 2007.95 2067.7 2074.45 1977.14 2074.45 1977.14 2007.95 1909.82 2007.95 1909.82 2007.22 1842.5 2007.22 1842.5 1916.78 1909.82 1916.78 1909.82 1916.05 1977.14 1916.05 1977.14 1849.56 2067.7 1849.56 2067.7 1916.05 2154.49 1916.05 2154.49 1829.39 2087.9 1829.39 2087.9 1738.95 2154.49 1738.95 2154.49 1671.73 2155.22 1671.73Z" stroke="#808080" stroke-width="6.875" stroke-miterlimit="8" fill="#FFFFFF" fill-rule="evenodd"/><path d="M2665.22 829.5 2755.78 829.5 2755.78 896.727 2756.51 896.727 2756.51 963.953 2823.1 963.953 2823.1 1054.39 2756.51 1054.39 2756.51 1141.05 2843.3 1141.05 2843.3 1074.56 2933.86 1074.56 2933.86 1141.05 3001.18 1141.05 3001.18 1141.78 3068.5 1141.78 3068.5 1232.22 3001.18 1232.22 3001.18 1232.95 2933.86 1232.95 2933.86 1299.45 2843.3 1299.45 2843.3 1232.95 2756.51 1232.95 2756.51 1319.61 2823.1 1319.61 2823.1 1410.05 2756.51 1410.05 2756.51 1477.27 2755.78 1477.27 2755.78 1544.5 2665.22 1544.5 2665.22 1477.27 2664.49 1477.27 2664.49 1410.05 2597.9 1410.05 2597.9 1319.61 2664.49 1319.61 2664.49 1232.95 2577.7 1232.95 2577.7 1299.45 2487.14 1299.45 2487.14 1232.95 2419.82 1232.95 2419.82 1232.22 2352.5 1232.22 2352.5 1141.78 2419.82 1141.78 2419.82 1141.05 2487.14 1141.05 2487.14 1074.55 2577.7 1074.55 2577.7 1141.05 2664.49 1141.05 2664.49 1054.39 2597.9 1054.39 2597.9 963.953 2664.49 963.953 2664.49 896.727 2665.22 896.727Z" stroke="#808080" stroke-width="6.875" stroke-miterlimit="8" fill="#FFFFFF" fill-rule="evenodd"/><path d="M1645.22 829.5 1735.78 829.5 1735.78 896.727 1736.51 896.727 1736.51 963.953 1803.1 963.953 1803.1 1054.39 1736.51 1054.39 1736.51 1141.05 1823.3 1141.05 1823.3 1074.56 1913.86 1074.56 1913.86 1141.05 1981.18 1141.05 1981.18 1141.78 2048.5 1141.78 2048.5 1232.22 1981.18 1232.22 1981.18 1232.95 1913.86 1232.95 1913.86 1299.45 1823.3 1299.45 1823.3 1232.95 1736.51 1232.95 1736.51 1319.61 1803.1 1319.61 1803.1 1410.05 1736.51 1410.05 1736.51 1477.27 1735.78 1477.27 1735.78 1544.5 1645.22 1544.5 1645.22 1477.27 1644.49 1477.27 1644.49 1410.05 1577.9 1410.05 1577.9 1319.61 1644.49 1319.61 1644.49 1232.95 1557.7 1232.95 1557.7 1299.45 1467.14 1299.45 1467.14 1232.95 1399.82 1232.95 1399.82 1232.22 1332.5 1232.22 1332.5 1141.78 1399.82 1141.78 1399.82 1141.05 1467.14 1141.05 1467.14 1074.55 1557.7 1074.55 1557.7 1141.05 1644.49 1141.05 1644.49 1054.39 1577.9 1054.39 1577.9 963.953 1644.49 963.953 1644.49 896.727 1645.22 896.727Z" stroke="#808080" stroke-width="6.875" stroke-miterlimit="8" fill="#FFFFFF" fill-rule="evenodd"/><rect x="1180.5" y="44.4998" width="748" height="748" stroke="#808080" stroke-width="6.875" stroke-miterlimit="8" fill="#FFFFFF"/><path d="M1515.86 494.009 1518.39 508.396C1518.39 508.396 1498.15 567.187 1482.11 592.23 1477.02 600.172 1471.85 610.672 1463.54 612.569 1456.04 614.282 1446.19 603.066 1439.6 598.407 1436.71 596.361 1432.75 598.679 1432.75 598.679 1421.32 594.112 1411.9 606.191 1413.34 615.545 1416.99 611.467 1423.97 604.935 1431.06 608.6 1431.06 608.6 1427.25 613.852 1427.26 617.033 1427.27 619.475 1430.22 623.482 1430.22 623.482 1428.76 626.219 1408.02 619.332 1404.72 621.152 1400.33 620.663 1396.35 620.621 1393.77 621.655 1379.37 627.419 1381.7 644.316 1381.7 644.316 1386.61 638.571 1393.67 631.528 1401.11 633.717 1401.11 633.717 1401.29 641.078 1402.93 644.042 1404.3 646.521 1407.16 647.901 1409.68 648.011 1420.44 648.48 1438.79 634.065 1442.03 637.868L1442.03 644.316C1429.92 653.386 1424.75 661.318 1432.75 675.569 1434.07 665.69 1437.21 660.81 1444.56 655.726 1444.56 655.726 1444.39 660.748 1445.83 662.175 1447.54 663.889 1450.45 663.569 1452.58 662.671 1464.37 657.677 1469.81 641.545 1480.46 633.782 1484.93 630.531 1489.57 626.699 1494.76 627.608 1498.44 628.25 1500.23 632.12 1503.62 633.899 1515.26 640.007 1541.17 642.332 1541.17 642.332 1550.18 639.304 1546.44 633.774 1548.76 629.435 1564.08 621.314 1564.43 637.724 1568.79 648.572 1568.79 648.572 1577.59 618.259 1555.94 614.553 1549.81 613.504 1544.55 618.521 1544.55 618.521 1544.55 618.521 1542.62 615.454 1541.17 615.049 1537.35 613.986 1533.69 618.129 1529.78 618.521 1526.41 618.86 1522.94 618.517 1519.65 617.529 1514.29 615.913 1508.11 614.497 1504.47 609.592 1502.15 606.479 1501.71 601.815 1501.51 597.687 1501.38 594.837 1502.01 591.962 1502.78 589.253 1510.36 562.525 1535.26 513.852 1535.26 513.852L1541.59 507.899 1542.86 494.505 1527.67 486.569Z" stroke="#000000" stroke-width="3.4375" stroke-miterlimit="8" fill="#252525" fill-rule="evenodd"/><path d="M1526.9 492.068 1520.18 496.296 1522 506.651C1522.19 507.714 1522.1 508.816 1521.75 509.821 1521.75 509.821 1516.66 524.622 1509.53 542.569 1502.41 560.515 1493.38 581.535 1484.87 594.807 1480.05 602.31 1474.58 614.669 1463.46 617.207 1457.45 618.577 1452.29 615.176 1447.73 611.759 1443.17 608.341 1438.96 604.328 1436.2 602.381 1436.27 602.426 1433.84 602.866 1433.84 602.866 1433.49 603.073 1433.11 603.225 1432.71 603.319 1435.01 605.164 1435.43 608.935 1433.63 611.419 1433.63 611.419 1432.86 612.504 1432.09 613.885 1431.32 615.265 1430.96 617.263 1430.95 616.262 1430.95 614.892 1431.1 616.398 1431.65 617.377 1432.21 618.356 1432.77 619.123 1432.77 619.123 1434.11 620.948 1455.25 620.813 1454.16 622.857 1445.33 625.779 1429.5 628.675 1428.27 628.807 1427.05 628.94 1425.92 628.858 1424.67 628.727 1422.18 628.463 1419.29 627.898 1416.39 627.32 1413.48 626.741 1410.57 626.151 1408.33 625.832 1407.21 625.673 1406.26 625.588 1405.67 625.582 1405.08 625.576 1404.76 625.896 1405.72 625.372 1404.96 625.788 1404.12 625.959 1403.29 625.865 1399.13 625.403 1395.44 625.636 1394.28 626.099 1392.26 626.908 1391.23 628.056 1390.06 629.155 1393.45 627.498 1397.2 626.42 1401.25 627.611 1403.28 628.208 1404.73 630.322 1404.79 632.784 1404.79 632.784 1404.83 634.364 1405.05 636.261 1405.26 638.158 1405.96 640.437 1405.86 640.254 1406.05 640.59 1407.67 641.682 1408.85 641.733 1412.37 641.886 1419.58 638.886 1425.91 635.824 1429.07 634.294 1432.06 632.816 1434.82 631.863 1436.2 631.386 1437.52 631.011 1439.03 630.958 1440.54 630.904 1442.65 631.189 1444.36 633.197 1445.23 634.229 1466.69 624.88 1466.69 626.338L1445.73 643.528C1445.72 645.406 1444.91 647.153 1443.56 648.16 1442.64 648.846 1442.16 649.432 1441.35 650.092 1444.54 648.086 1448.38 650.895 1448.25 655.137 1448.25 655.137 1448.23 656.04 1448.32 656.996 1448.32 657.031 1448.34 657.035 1448.34 657.069 1448.55 656.954 1449.09 657.075 1450.01 656.689 1454.61 654.743 1458.36 650.351 1462.43 644.862 1466.5 639.373 1470.76 632.893 1477.02 628.339 1481.32 625.21 1486.99 620.094 1494.48 621.402 1497.56 621.94 1499.78 623.867 1501.27 625.291 1502.77 626.715 1503.73 627.672 1504.56 628.104 1509.4 630.641 1518.69 632.869 1526.46 634.183 1533.66 635.404 1538.73 635.853 1539.55 635.929 1540.61 635.47 1541.55 634.981 1541.73 634.789 1541.96 634.542 1541.88 634.686 1541.97 634.28 1542.14 633.469 1541.6 629.91 1543.85 625.728 1544.34 624.815 1545.04 624.092 1545.88 623.65 1550.26 621.334 1554.16 620.427 1557.76 621.33 1559.4 621.74 1560.8 622.634 1562.06 623.674 1560.59 621.639 1558.5 619.953 1554.3 619.236 1550.66 618.613 1546.54 622.033 1546.54 622.033 1544.46 624.011 1541.4 623.555 1539.82 621.031 1539.82 621.031 1539.49 620.515 1539.05 619.98 1538.96 619.867 1538.88 619.841 1538.78 619.762 1538.43 619.747 1537.87 619.792 1536.39 620.538 1534.7 621.391 1532.43 622.914 1529.21 623.238 1525.29 623.631 1521.32 623.239 1517.52 622.098 1512.35 620.543 1505.05 619.273 1499.97 612.454 1496.33 607.561 1496.07 601.611 1495.87 597.248 1495.68 593.26 1496.52 589.751 1497.36 586.787 1505.38 558.559 1530.28 510.37 1530.28 510.37 1530.57 509.813 1530.94 509.32 1531.38 508.915L1536.19 504.396 1536.86 497.274ZM1440.92 650.472C1438.3 652.676 1436.37 654.692 1435.08 656.535 1436.88 654.422 1438.49 652.188 1440.92 650.472Z" fill="#2C2C2C" fill-rule="evenodd"/><path d="M1521.16 511.069C1521.07 511.326 1520.49 512.928 1520.31 513.453 1520.79 513.709 1521.3 514.039 1521.73 514.167 1523.32 514.651 1525.56 514.608 1527.99 514.346 1526.93 513.531 1525.9 512.82 1524.91 512.31 1523.87 511.768 1522.55 511.39 1521.16 511.069ZM1518.22 519.301C1517.62 520.941 1517.07 522.378 1516.31 524.452 1516.68 524.629 1517.05 524.853 1517.43 524.995 1518.83 525.513 1520.64 525.588 1522.64 525.392 1523.56 523.501 1524.1 522.435 1524.87 520.883 1523.32 520.827 1521.82 520.631 1520.41 520.201 1519.67 519.976 1518.94 519.657 1518.22 519.301ZM1514.15 530.112C1513.67 531.38 1513.18 532.642 1512.66 534.005 1513.14 534.486 1513.65 534.878 1514.2 535.092 1515.2 535.478 1516.45 535.6 1517.87 535.522 1518.46 534.258 1519.07 532.938 1519.64 531.742 1518.34 531.615 1517.06 531.393 1515.84 530.94 1515.25 530.722 1514.71 530.387 1514.15 530.112ZM1510.44 539.829C1510.07 540.773 1509.88 541.329 1509.5 542.302 1509.17 543.137 1508.79 544.035 1508.45 544.881 1508.87 545.082 1509.29 545.361 1509.7 545.506 1510.63 545.836 1511.8 545.909 1513.07 545.83 1513.75 544.324 1514.32 543.145 1514.99 541.686 1514.16 541.54 1513.34 541.321 1512.55 541.012 1511.78 540.717 1511.09 540.304 1510.44 539.829ZM1506.12 550.591C1505.38 552.386 1504.7 554.123 1503.94 555.936 1504.01 555.986 1504.08 556.065 1504.15 556.106 1505.15 556.656 1506.56 556.929 1508.19 557.023 1508.91 555.32 1509.63 553.67 1510.37 551.986 1509.63 551.86 1508.89 551.726 1508.18 551.475 1507.48 551.229 1506.8 550.93 1506.12 550.591ZM1501.53 561.459C1500.91 562.889 1500.29 564.307 1499.66 565.725 1500.23 566.134 1500.79 566.546 1501.37 566.828 1502.05 567.159 1502.95 567.35 1503.95 567.461 1504.52 566.009 1505.11 564.554 1505.7 563.089 1504.38 562.797 1503.09 562.4 1501.9 561.743 1501.76 561.667 1501.66 561.542 1501.53 561.459ZM1497.2 571.265C1496.24 573.345 1495.27 575.397 1494.29 577.396 1494.73 577.987 1495.18 578.474 1495.66 578.759 1496.74 579.414 1498 579.901 1499.33 580.316 1500.07 578.076 1500.85 575.812 1501.71 573.454 1500.9 573.236 1500.11 572.957 1499.35 572.586 1498.6 572.222 1497.9 571.739 1497.2 571.265ZM1491.5 582.919C1490.1 585.631 1488.69 588.166 1487.28 590.567 1488.72 591.492 1490.15 592.307 1491.48 592.854 1492.75 593.381 1494.26 593.276 1496.01 592.806 1496.29 590.57 1496.78 588.502 1497.3 586.666 1497.34 586.536 1497.4 586.383 1497.44 586.253 1495.97 585.735 1494.55 585.103 1493.24 584.306 1492.59 583.919 1492.03 583.436 1491.5 582.919ZM1484.19 595.693C1483.2 597.298 1482.19 599.006 1481.08 600.843 1482.22 601.562 1483.33 602.187 1484.34 602.579 1488.25 604.101 1492.59 605.039 1496.89 605.255 1496.45 603.411 1496.15 601.38 1495.97 599.156 1493.97 599.556 1491.87 599.62 1489.72 598.734 1487.91 597.984 1486.04 596.923 1484.19 595.693ZM1477.79 605.904C1474.19 611.044 1469.7 615.731 1463.34 617.186 1454.89 620.546 1445.32 612.888 1437.65 608.313 1436.22 607.464 1434.5 610.606 1434.4 612.49 1434.35 613.485 1435.17 614.387 1435.88 614.923 1443.66 620.746 1463.1 620.835 1463.1 620.835 1463.1 620.835 1449.44 626.609 1442.39 628.484 1436.17 630.134 1429.83 631.592 1423.46 631.614 1418.29 631.631 1411.57 627.12 1407.78 631.265 1406.63 632.532 1406.95 635.535 1408.08 636.837 1411.32 640.576 1417.46 635.917 1421.98 635.442 1436.27 633.94 1463.98 624.315 1463.98 624.315L1469.9 626.05C1469.9 626.05 1451.65 641.207 1448.3 645.88 1446.78 648.013 1447.8 658.832 1454.22 649.011 1462.57 635.17 1468.17 633.489 1477.22 624.525 1481.53 621.387 1487.21 616.253 1494.71 617.567 1506.72 624.692 1520.22 634.61 1534.41 632.012 1537.51 631.093 1536.11 625.126 1537.02 623.155 1537.56 621.971 1533.13 625.548 1526.08 625.231 1512.23 622.782 1503.63 619.523 1499.26 611.638 1493.54 611.71 1487.77 610.478 1482.67 608.491 1481.06 607.863 1479.42 606.961 1477.79 605.904Z" fill="#333333" fill-rule="evenodd"/><path d="M1572.86 573.013 1575.39 587.399C1575.39 587.399 1555.16 646.19 1539.11 671.233 1534.02 679.175 1528.85 689.675 1520.55 691.572 1513.05 693.286 1503.19 682.069 1496.6 677.41 1493.71 675.364 1489.75 677.682 1489.75 677.682 1478.32 673.115 1468.9 685.194 1470.34 694.548 1473.99 690.47 1480.98 683.938 1488.06 687.603 1488.06 687.603 1484.26 692.855 1484.27 696.036 1484.27 698.478 1487.22 702.485 1487.22 702.485 1485.76 705.222 1465.02 698.335 1461.72 700.155 1457.33 699.667 1453.35 699.624 1450.77 700.658 1436.37 706.422 1438.7 723.32 1438.7 723.32 1443.61 717.574 1450.67 710.531 1458.11 712.72 1458.11 712.72 1458.29 720.081 1459.93 723.045 1461.3 725.525 1464.17 726.904 1466.68 727.014 1477.45 727.483 1495.8 713.068 1499.03 716.871L1499.03 723.32C1486.93 732.389 1481.75 740.321 1489.75 754.572 1491.07 744.693 1494.22 739.813 1501.56 734.729 1501.56 734.729 1501.4 739.751 1502.83 741.178 1504.55 742.892 1507.46 742.572 1509.58 741.674 1521.37 736.68 1526.81 720.548 1537.47 712.785 1541.93 709.534 1546.57 705.702 1551.77 706.611 1555.44 707.253 1557.24 711.123 1560.63 712.902 1572.26 719.01 1598.17 721.335 1598.17 721.335 1607.19 718.307 1603.44 712.777 1605.77 708.438 1621.08 700.317 1621.44 716.727 1625.79 727.575 1625.79 727.575 1634.59 697.262 1612.94 693.556 1606.81 692.507 1601.55 697.524 1601.55 697.524 1601.55 697.524 1599.63 694.457 1598.17 694.052 1594.36 692.989 1590.69 697.132 1586.78 697.524 1583.41 697.863 1579.94 697.52 1576.66 696.532 1571.29 694.917 1565.11 693.501 1561.47 688.595 1559.16 685.482 1558.71 680.818 1558.52 676.69 1558.38 673.84 1559.01 670.965 1559.78 668.256 1567.36 641.528 1592.27 592.855 1592.27 592.855L1598.59 586.902 1599.86 573.509 1584.67 565.572Z" stroke="#000000" stroke-width="3.4375" stroke-miterlimit="8" fill="#252525" fill-rule="evenodd"/><path d="M1583.9 571.071 1577.19 575.299 1579 585.655C1579.19 586.717 1579.1 587.819 1578.76 588.824 1578.76 588.824 1573.66 603.625 1566.54 621.572 1559.42 639.518 1550.39 660.538 1541.87 673.81 1537.06 681.313 1531.58 693.672 1520.46 696.21 1514.46 697.58 1509.29 694.179 1504.73 690.762 1500.17 687.344 1495.97 683.331 1493.21 681.384 1493.27 681.429 1490.85 681.869 1490.85 681.869 1490.49 682.076 1490.11 682.229 1489.72 682.322 1492.01 684.168 1492.44 687.938 1490.63 690.422 1490.63 690.422 1489.86 691.507 1489.09 692.888 1488.32 694.268 1487.96 696.266 1487.95 695.264 1487.95 693.895 1488.1 695.401 1488.66 696.38 1489.21 697.359 1489.77 698.126 1489.77 698.126 1491.11 699.951 1512.25 699.816 1511.16 701.86 1502.33 704.782 1486.5 707.678 1485.28 707.81 1484.05 707.943 1482.92 707.861 1481.68 707.73 1479.18 707.466 1476.29 706.901 1473.39 706.323 1470.48 705.744 1467.57 705.154 1465.33 704.835 1464.22 704.677 1463.26 704.591 1462.67 704.585 1462.08 704.579 1461.76 704.899 1462.72 704.375 1461.96 704.791 1461.12 704.962 1460.29 704.868 1456.13 704.406 1452.44 704.639 1451.28 705.102 1449.26 705.911 1448.23 707.059 1447.06 708.158 1450.45 706.501 1454.2 705.423 1458.25 706.614 1460.29 707.211 1461.73 709.325 1461.79 711.788 1461.79 711.788 1461.83 713.367 1462.05 715.264 1462.27 717.161 1462.96 719.44 1462.86 719.257 1463.05 719.593 1464.67 720.685 1465.86 720.736 1469.37 720.889 1476.58 717.889 1482.91 714.827 1486.07 713.297 1489.06 711.819 1491.82 710.866 1493.2 710.39 1494.52 710.014 1496.03 709.961 1497.54 709.907 1499.65 710.192 1501.36 712.2 1502.24 713.232 1523.69 703.883 1523.69 705.341L1502.73 722.531C1502.73 724.409 1501.91 726.156 1500.56 727.163 1499.64 727.849 1499.16 728.435 1498.36 729.095 1501.54 727.089 1505.38 729.898 1505.25 734.14 1505.25 734.14 1505.23 735.043 1505.32 735.999 1505.33 736.034 1505.34 736.038 1505.34 736.072 1505.55 735.957 1506.1 736.078 1507.01 735.692 1511.61 733.746 1515.37 729.354 1519.44 723.865 1523.51 718.376 1527.76 711.896 1534.02 707.342 1538.32 704.213 1543.99 699.097 1551.48 700.406 1554.56 700.944 1556.78 702.87 1558.28 704.294 1559.77 705.718 1560.74 706.675 1561.56 707.107 1566.4 709.644 1575.69 711.872 1583.46 713.186 1590.67 714.407 1595.73 714.856 1596.55 714.932 1597.61 714.473 1598.55 713.984 1598.73 713.792 1598.97 713.545 1598.88 713.689 1598.97 713.283 1599.14 712.472 1598.6 708.914 1600.85 704.731 1601.34 703.818 1602.05 703.095 1602.89 702.653 1607.26 700.337 1611.17 699.43 1614.77 700.333 1616.4 700.743 1617.8 701.637 1619.06 702.677 1617.6 700.642 1615.5 698.956 1611.3 698.239 1607.66 697.616 1603.54 701.036 1603.54 701.036 1601.47 703.014 1598.41 702.558 1596.82 700.034 1596.82 700.034 1596.49 699.518 1596.06 698.983 1595.96 698.87 1595.89 698.844 1595.78 698.765 1595.44 698.75 1594.87 698.795 1593.39 699.541 1591.7 700.394 1589.43 701.917 1586.21 702.241 1582.3 702.634 1578.32 702.242 1574.52 701.101 1569.35 699.546 1562.05 698.276 1556.97 691.457 1553.33 686.564 1553.07 680.614 1552.87 676.251 1552.69 672.263 1553.52 668.755 1554.37 665.79 1562.38 637.563 1587.29 589.373 1587.29 589.373 1587.57 588.816 1587.94 588.323 1588.38 587.918L1593.19 583.399 1593.87 576.277ZM1497.92 729.475C1495.31 731.679 1493.37 733.695 1492.08 735.538 1493.88 733.425 1495.49 731.191 1497.92 729.475Z" fill="#2C2C2C" fill-rule="evenodd"/><path d="M1578.16 590.072C1578.07 590.328 1577.49 591.931 1577.31 592.456 1577.79 592.712 1578.3 593.041 1578.73 593.17 1580.32 593.654 1582.56 593.611 1584.99 593.349 1583.93 592.534 1582.9 591.823 1581.91 591.313 1580.87 590.771 1579.55 590.393 1578.16 590.072ZM1575.22 598.304C1574.63 599.944 1574.07 601.381 1573.31 603.454 1573.68 603.632 1574.05 603.855 1574.43 603.997 1575.83 604.516 1577.64 604.591 1579.65 604.395 1580.57 602.504 1581.1 601.437 1581.87 599.886 1580.33 599.83 1578.83 599.633 1577.41 599.204 1576.67 598.979 1575.94 598.66 1575.22 598.304ZM1571.15 609.115C1570.67 610.383 1570.18 611.645 1569.66 613.008 1570.14 613.489 1570.65 613.88 1571.2 614.095 1572.2 614.48 1573.45 614.603 1574.87 614.525 1575.47 613.261 1576.08 611.941 1576.65 610.745 1575.34 610.618 1574.06 610.396 1572.84 609.942 1572.25 609.725 1571.71 609.39 1571.15 609.115ZM1567.44 618.831C1567.07 619.776 1566.89 620.332 1566.5 621.305 1566.17 622.139 1565.79 623.037 1565.45 623.884 1565.87 624.085 1566.29 624.364 1566.7 624.509 1567.64 624.838 1568.8 624.911 1570.07 624.833 1570.75 623.327 1571.32 622.148 1571.99 620.688 1571.16 620.543 1570.35 620.323 1569.55 620.015 1568.78 619.719 1568.09 619.307 1567.44 618.831ZM1563.12 629.594C1562.39 631.389 1561.7 633.126 1560.94 634.939 1561.01 634.988 1561.08 635.068 1561.16 635.109 1562.15 635.659 1563.56 635.932 1565.2 636.025 1565.92 634.323 1566.64 632.672 1567.37 630.989 1566.63 630.863 1565.9 630.728 1565.18 630.478 1564.49 630.232 1563.8 629.932 1563.12 629.593ZM1558.53 640.462C1557.91 641.892 1557.3 643.31 1556.67 644.728 1557.23 645.137 1557.8 645.549 1558.38 645.831 1559.06 646.162 1559.95 646.353 1560.95 646.464 1561.52 645.011 1562.11 643.557 1562.71 642.092 1561.38 641.8 1560.09 641.403 1558.9 640.746 1558.76 640.67 1558.67 640.545 1558.53 640.462ZM1554.2 650.267C1553.24 652.349 1552.27 654.4 1551.29 656.399 1551.73 656.99 1552.19 657.476 1552.66 657.761 1553.74 658.417 1555.01 658.903 1556.33 659.319 1557.07 657.078 1557.85 654.814 1558.71 652.457 1557.9 652.239 1557.11 651.96 1556.35 651.589 1555.6 651.225 1554.9 650.742 1554.2 650.267ZM1548.51 661.922C1547.1 664.633 1545.69 667.169 1544.29 669.57 1545.72 670.494 1547.15 671.31 1548.48 671.857 1549.76 672.384 1551.26 672.278 1553.02 671.809 1553.29 669.573 1553.79 667.505 1554.31 665.669 1554.34 665.539 1554.4 665.386 1554.44 665.255 1552.97 664.738 1551.56 664.106 1550.24 663.309 1549.6 662.922 1549.03 662.439 1548.51 661.922ZM1541.2 674.696C1540.2 676.3 1539.19 678.009 1538.09 679.846 1539.23 680.565 1540.33 681.19 1541.34 681.581 1545.25 683.104 1549.59 684.042 1553.89 684.258 1553.46 682.413 1553.15 680.383 1552.97 678.159 1550.97 678.558 1548.87 678.622 1546.73 677.737 1544.91 676.987 1543.04 675.926 1541.2 674.696ZM1534.8 684.907C1531.19 690.047 1526.7 694.734 1520.34 696.188 1511.89 699.548 1502.32 691.891 1494.66 687.316 1493.22 686.467 1491.5 689.609 1491.4 691.492 1491.35 692.488 1492.17 693.39 1492.88 693.926 1500.67 699.749 1520.1 699.838 1520.1 699.838 1520.1 699.838 1506.44 705.612 1499.39 707.486 1493.17 709.137 1486.84 710.595 1480.46 710.617 1475.29 710.634 1468.57 706.123 1464.79 710.268 1463.63 711.535 1463.96 714.538 1465.08 715.84 1468.32 719.579 1474.46 714.92 1478.98 714.445 1493.27 712.943 1520.98 703.318 1520.98 703.318L1526.9 705.053C1526.9 705.053 1508.65 720.209 1505.31 724.883 1503.78 727.016 1504.8 737.835 1511.22 728.014 1519.58 714.173 1525.17 712.491 1534.22 703.528 1538.53 700.389 1544.21 695.256 1551.71 696.57 1563.72 703.694 1577.22 713.613 1591.41 711.014 1594.51 710.096 1593.12 704.129 1594.02 702.158 1594.56 700.974 1590.13 704.551 1583.09 704.234 1569.23 701.784 1560.63 698.526 1556.27 690.641 1550.54 690.713 1544.77 689.481 1539.67 687.494 1538.06 686.866 1536.43 685.963 1534.8 684.907Z" fill="#333333" fill-rule="evenodd"/><path d="M1715.69 488.736C1751.89 519.354 1825.57 578.464 1825.57 578.464 1789.75 581.187 1720.93 529.072 1680.22 490.506 1667.59 489.384 1648.13 424.887 1715.69 488.736Z" stroke="#000000" stroke-width="3.4375" stroke-miterlimit="8" fill="#252525" fill-rule="evenodd"/><path d="M1674.07 476.596C1716.3 516.39 1758.35 549.77 1809.07 572.066L1684.66 472.892C1676.61 465.679 1674.55 469.663 1674.07 476.596Z" fill="#2C2C2C" fill-rule="evenodd"/><path d="M1753.39 488.737C1789.36 519.354 1862.57 578.464 1862.57 578.464 1826.98 581.187 1758.59 529.072 1718.14 490.506 1705.59 489.384 1686.26 424.887 1753.39 488.737Z" stroke="#000000" stroke-width="3.4375" stroke-miterlimit="8" fill="#252525" fill-rule="evenodd"/><path d="M1711.07 476.67C1753.61 516.851 1795.98 550.555 1847.07 573.067L1721.74 472.93C1713.63 465.647 1711.55 469.669 1711.07 476.67Z" fill="#2C2C2C" fill-rule="evenodd"/><path d="M1781.39 481.736C1817.36 512.354 1890.57 571.464 1890.57 571.464 1854.98 574.187 1786.59 522.072 1746.14 483.505 1733.59 482.384 1714.26 417.887 1781.39 481.736Z" stroke="#000000" stroke-width="3.4375" stroke-miterlimit="8" fill="#252525" fill-rule="evenodd"/><path d="M1739.07 469.596C1781.3 509.391 1823.36 542.77 1874.07 565.066L1749.67 465.892C1741.61 458.679 1739.55 462.663 1739.07 469.596Z" fill="#2C2C2C" fill-rule="evenodd"/><path d="M1808.61 357.479C1823.6 356.746 1847.25 347.342 1858.71 323.112L1845.34 321.054C1856.84 314.022 1866.28 304.223 1865.52 293.842 1823.35 306.435 1770.6 301.555 1717.53 294.093 1629.82 281.763 1535.45 260.592 1461.57 291.833 1441.56 300.296 1412.94 318.561 1406.57 343.124 1394.38 390.094 1421.13 418.203 1454.26 431.42 1474.17 439.366 1493.8 427.326 1493.8 427.326 1514.25 451.944 1594.49 469.873 1619.44 435.491 1649.49 434.946 1696.95 442.321 1720.42 410.54 1743.87 407.16 1791.06 405.615 1804.79 376.911 1795.15 379.241 1790.27 378.414 1788.11 375.783 1799.28 372.935 1807.36 364.946 1808.61 357.479Z" stroke="#000000" stroke-width="3.4375" stroke-miterlimit="8" fill="#252525" fill-rule="evenodd"/><path d="M1457.13 301.629C1449.15 305.615 1440.5 310.892 1433.02 317.088 1423.05 325.349 1415.47 335.218 1413.03 344.578 1410.72 363.913 1428.88 372.266 1437.97 360.757 1440.27 387.685 1462.32 382 1464.79 371.111 1470.23 391.234 1487.85 389.01 1492.79 375.207 1499.76 390.397 1517.68 389.61 1521.27 372.607 1533.88 387.169 1550.86 378.913 1549.53 362.884 1565.4 373.735 1579.3 355.98 1576.87 345.611 1598.67 354.884 1608.05 326.32 1602.6 320.358 1637.63 320.074 1634.34 288.317 1626.02 286.683 1567.74 279.798 1511.5 278.425 1464.8 298.084 1462.36 299.112 1459.78 300.3 1457.13 301.629ZM1408.51 356.382C1404.29 396.667 1431.17 412.531 1448 422.204 1430.61 404.81 1431.32 390.72 1430.12 371.86 1417.85 376.429 1411.47 367.973 1408.51 356.382ZM1433.18 373.585C1433.77 392.881 1443.83 435.559 1491.32 423.505 1478.95 416.484 1464.49 401.28 1460.39 383.187 1449.34 389.76 1440.59 384.976 1433.18 373.585ZM1636.86 291.515C1636.32 299.13 1637.91 305.396 1629.14 313.067 1669.59 311.549 1715.77 323.743 1760.2 327.582 1788.79 330.053 1836 332.905 1858.07 302.03 1795.85 316.528 1703.92 293.633 1636.86 291.515ZM1463.58 385.744C1463.58 385.744 1481.51 419.096 1524.15 435.901 1556.64 448.704 1588.62 452.169 1614.71 429.817 1599.37 430.231 1567.21 424.536 1539.51 415.173 1515.82 407.165 1495.39 396.471 1491.53 384.613 1484.66 398.941 1472.14 389.448 1463.58 385.744ZM1626.59 317.548C1621.12 322.954 1615.41 324.181 1609.75 326.164 1607.35 333.369 1608.42 334.167 1604.38 338.634 1604.38 338.634 1617.07 338.06 1634.27 340.419 1677.94 346.408 1762.86 358.227 1811.11 349.164 1835.5 344.583 1848.81 327.218 1848.81 327.218 1835.98 332.128 1814.89 332.23 1795.27 332.949 1742.06 334.899 1672.25 319.07 1626.59 317.548ZM1580.67 353.443C1579.03 358.505 1577.22 360.467 1575.38 361.98 1595.67 358.653 1680.21 377.429 1744.58 375.336 1762.18 374.763 1776.49 372.468 1789.35 367.894 1798.78 364.541 1802.87 355.511 1802.87 355.511 1744.23 362.047 1688.25 352.837 1635.23 346.165 1623.28 344.66 1611.16 344.907 1598.97 345.142 1592.5 353.501 1586.67 352.201 1580.67 353.443ZM1522.46 382.063C1519.19 388.694 1512.05 390.575 1504 392.264 1532.62 416.137 1589.82 420.961 1608.53 424.551 1618.49 426.46 1631.58 425.964 1641.86 426.711 1673.11 428.982 1704.58 422.064 1714.28 406.651 1675.39 411.947 1602.01 394.312 1542.87 385.906 1535.76 388.561 1529.94 386.235 1522.46 382.063ZM1554.62 371.853C1553.78 376.077 1552.18 379.692 1547.84 381.112 1600.15 384.635 1748.9 423.878 1791.49 382.477 1770.39 385.828 1720.08 381.71 1668.52 376.062 1633.61 372.238 1597.35 366.155 1572.17 367.199 1567.26 371.48 1561.07 372.048 1554.62 371.853Z" fill="#2C2C2C" fill-rule="evenodd"/><path d="M1464.34 303.25C1465.1 314.541 1459.32 320.474 1450.3 317.132 1460.01 338.402 1481.39 315.981 1464.34 303.25ZM1499.71 290.743C1500.39 300.783 1495.24 306.046 1487.23 303.074 1495.85 321.987 1514.86 302.063 1499.71 290.743ZM1426.55 327.805C1429.92 356.588 1462.01 341.891 1447.33 319.109 1444.16 332.216 1435.53 336.033 1426.55 327.805ZM1482.4 304.94C1485.28 318.138 1479.47 326.569 1468.19 324.805 1483.43 347.651 1504.84 315.877 1482.4 304.94ZM1420.39 335.715C1405.59 358.714 1436.89 374.98 1440.17 346.819 1430.13 353.4 1421.79 348.93 1420.39 335.715ZM1523.5 288.215C1524.18 298.255 1519.03 303.529 1511.02 300.556 1519.64 319.47 1538.66 299.535 1523.5 288.215ZM1506.8 306.162C1509.68 319.36 1503.86 327.795 1492.58 326.031 1507.82 348.877 1529.23 317.099 1506.8 306.162ZM1558.4 285.06C1561.28 298.258 1555.47 306.686 1544.2 304.922 1559.43 327.768 1580.84 295.997 1558.4 285.06ZM1532.67 297.802C1535.55 311 1529.73 319.434 1518.46 317.67 1533.69 340.516 1555.11 308.739 1532.67 297.802ZM1449.69 339.318C1453.06 368.101 1485.15 353.386 1470.47 330.604 1467.3 343.711 1458.67 347.546 1449.69 339.318ZM1443.57 352.782C1433.57 377.422 1465.22 385.436 1463.7 358.611 1455.46 366.969 1447 364.709 1443.57 352.782ZM1411.07 368.524C1412.09 380.425 1416.43 389.238 1422.21 396.358 1425.52 400.44 1429.46 403.663 1433.4 406.681 1431.8 403.45 1430.2 400.224 1429.34 396.991 1427.34 389.518 1427 382.091 1426.57 374.296 1421.47 375.144 1416.81 374.49 1413.37 371.554 1412.43 370.743 1411.85 369.518 1411.07 368.524ZM1584.69 287.792C1587.57 300.99 1581.75 309.429 1570.48 307.665 1585.71 330.511 1607.12 298.729 1584.69 287.792ZM1489.68 334.652C1491.48 348.114 1485.01 355.847 1473.93 352.824 1487.25 377.278 1511.13 348.059 1489.68 334.652ZM1515.23 333.292C1517.03 346.753 1510.56 354.497 1499.48 351.475 1512.8 375.928 1536.68 346.699 1515.23 333.292ZM1565.01 309.846C1566.81 323.308 1560.34 331.052 1549.26 328.03 1562.57 352.483 1586.46 323.253 1565.01 309.846ZM1540.87 324.241C1542.67 337.702 1536.2 345.443 1525.12 342.42 1538.44 366.874 1562.32 337.648 1540.87 324.241ZM1615.89 290.629C1617.96 295.018 1616.63 296.526 1613.79 300.076 1609.91 304.917 1603.63 307.351 1595.96 306.302 1602.57 318.201 1614.54 315.658 1621.47 308.803 1628.18 302.166 1628.28 289.973 1615.89 290.629ZM1469.24 361.795C1463.25 388.181 1495.61 389.205 1489.93 363.166 1483.14 373.166 1474.48 372.775 1469.24 361.795ZM1438.13 383.716C1439.62 391.196 1442 399.11 1446.89 405.752 1453.3 414.467 1463.48 420.393 1479.72 418.968 1470.42 411.259 1461.97 399.975 1457.83 386.588 1452.92 388.571 1448.07 389.185 1443.72 387.446 1441.7 386.638 1439.92 385.164 1438.13 383.716ZM1591.33 315.318C1592.2 328.574 1584.63 336.465 1572.96 333.872 1585.34 357.593 1613.33 327.814 1591.33 315.318ZM1495.84 362.568C1492.09 389.522 1524.37 386.772 1516.54 361.521 1510.61 372.264 1501.96 372.885 1495.84 362.568ZM1640.08 294.987C1640.03 297.161 1640.15 299.097 1639.57 301.719 1639.21 303.348 1638.37 305.002 1637.56 306.651 1676.48 306.952 1719.07 317.353 1759.89 320.884 1774.13 322.115 1792.82 323.387 1810.4 320.634 1822.94 318.67 1834.67 314.525 1844.07 307.288 1782.56 316.222 1701.36 297.58 1640.08 294.987ZM1566.68 336.11C1565.73 349.263 1557.81 355.194 1547.54 349.915 1555.69 375.995 1585.03 353.489 1566.68 336.11ZM1522.03 360.54C1524.47 387.702 1555 374.984 1541.78 353.072 1538.47 365.281 1530.26 368.58 1522.03 360.54ZM1626.86 320.762C1621.85 324.987 1616.87 326.894 1612.43 328.349 1612.04 329.767 1611.62 331.215 1611.28 332.417 1615.76 332.365 1621.04 331.977 1634.18 333.78 1677.84 339.773 1762.89 351.373 1809.82 342.551 1819.03 340.82 1826.01 337.153 1831.68 333.438 1820.05 334.926 1807.45 335.611 1794.78 336.076 1741.12 338.044 1671.84 322.433 1626.86 320.762ZM1477.29 395.291C1486.33 405.904 1501.24 419.87 1525.01 429.242 1551.99 439.885 1577.69 443.543 1599.82 431.722 1582.38 430.074 1559.87 425.934 1537.75 418.45 1525.73 414.384 1514.49 409.644 1505.53 404.24 1499.21 400.43 1494.54 396.071 1490.99 391.132 1489.63 392.574 1488.14 393.719 1486.56 394.459 1483.44 395.926 1480.24 395.845 1477.29 395.291ZM1599.8 348.357C1596.56 351.878 1593.19 354.099 1590.08 355.001 1588.4 355.489 1587.26 355.53 1585.82 355.716 1590.7 355.854 1594.38 355.538 1601.13 356.262 1613 357.531 1627.48 359.503 1643.31 361.511 1674.98 365.524 1712.07 369.667 1743.85 368.633 1761.2 368.068 1775.11 365.807 1787.51 361.392 1788.86 360.914 1789.35 359.988 1790.43 359.301 1735.7 363.475 1683.44 355.53 1634.21 349.329 1623.03 347.921 1611.52 348.135 1599.8 348.357ZM1523.27 386.863C1521.19 389.303 1518.84 391.31 1516.26 392.529 1516.22 392.55 1516.17 392.547 1516.12 392.568 1528.75 399.897 1544.8 405.15 1560.34 408.716 1580.26 413.292 1598.94 415.351 1608.73 417.229 1617.89 418.988 1630.92 418.554 1641.57 419.329 1656.79 420.436 1672.11 419.277 1684.52 416.049 1689.79 414.678 1694.13 412.713 1698.08 410.661 1656.21 411.268 1594.58 397.368 1542.57 389.916 1535.71 392.007 1529.48 389.949 1523.27 386.863ZM1542.57 389.916C1542.97 389.794 1543.36 389.711 1543.77 389.56L1541.74 389.789C1542.01 389.827 1542.3 389.877 1542.57 389.916ZM1556.71 374.684C1556.58 375.064 1556.44 375.428 1556.29 375.804 1584.21 378.693 1628.22 387.493 1673.08 392.136 1697.47 394.661 1721.5 395.766 1741.85 393.716 1753.57 392.535 1763.81 390.108 1772.39 386.616 1746.47 386.932 1707.77 383.476 1667.56 379.069 1632.65 375.242 1596.57 369.286 1572.09 370.244 1567.25 373.617 1561.95 374.64 1556.71 374.684Z" fill="#333333" fill-rule="evenodd"/><path d="M1686.49 489.57C1681.65 500.445 1681.95 509.971 1667.73 523.305 1668.46 514.56 1669.24 505.69 1667.73 502.22 1662.54 511.357 1660.93 520.494 1651.66 529.631 1652.64 520.505 1652.96 512.57 1651.66 507.492 1647.39 516.629 1644.19 525.765 1635.58 534.902 1637.61 525.477 1636.55 519.699 1636.47 512.763 1632.01 521.72 1627.13 530.928 1620.4 541.227L1619.5 520.142C1611.7 524.75 1606.47 546.278 1606.11 557.041 1605.95 561.484 1607.86 571.002 1606.72 576.628 1605.26 583.836 1597.7 586.559 1597.7 586.559 1589.54 574.844 1582.34 576.029 1575.21 584.335 1575.21 584.335 1558.83 568.895 1553.41 552.824 1548.94 539.573 1548.05 524.359 1548.05 524.359 1528.1 513.468 1508.16 512.466 1488.21 489.57 1483.77 495.55 1482.45 502.266 1483.74 509.6 1471.2 502.993 1444.15 489.165 1428.37 455.834 1423.13 463.917 1424.58 471.999 1424.8 480.082 1409.75 464.326 1388.76 439.454 1379.25 407.339 1376.04 413.132 1375.46 420.996 1375.67 429.478 1358.38 399.48 1345.63 370.151 1337.51 341.507 1336.05 349.778 1333.38 358.049 1326.13 366.319 1329.31 347.883 1327.77 316.006 1322.62 290.849 1318.54 300.148 1315.05 305.275 1312.11 310.492 1311.18 283.617 1311.11 254.044 1306.86 237.607 1304.35 250.361 1301.34 259.483 1297.66 263.969 1298.35 235.52 1294.01 224.874 1291.53 207.626 1288.85 214.783 1286.16 218.779 1282.33 223.65 1282.8 215.622 1284.1 203.458 1277.21 193.363 1257.62 151.368 1258.32 119.097 1275.49 104.305 1298.67 84.3339 1345.5 77.4167 1374.88 86.4911 1406.39 96.222 1407.2 112.922 1425.48 119.056 1423.31 122.058 1419.59 122.878 1415.17 122.697 1424.76 138.313 1434.65 138.062 1438.16 138.981 1435.67 143.83 1431.4 143.781 1427.65 145.185 1433.1 150.497 1440.53 154.643 1448.67 158.367 1445.58 161.902 1442.16 164.468 1438.16 165.346 1445.83 173.739 1453.49 180.54 1461.16 180.855 1459.17 185.489 1455.99 188.231 1451.3 188.609L1551.62 248.149C1551.62 248.149 1719.69 399.513 1805.28 472.702 1841.28 503.487 1914.56 562.937 1914.56 562.937 1878.85 565.524 1810.39 513.094 1769.91 474.335 1741.71 491.901 1703.07 490.821 1686.49 489.57Z" stroke="#000000" stroke-width="3.4375" stroke-miterlimit="8" fill="#252525" fill-rule="evenodd"/><path d="M1284.9 179.55C1283.54 180.198 1282.29 180.699 1281.06 181.175 1281.9 183.157 1282.76 185.152 1283.7 187.194 1285.73 190.378 1287.19 193.673 1288.22 196.959 1288.02 186.456 1288.85 182.135 1290.16 181.581 1292.86 180.432 1297.58 195.475 1299.22 205.237 1300.26 212.52 1301.8 219.304 1303.1 227.138 1303.65 216.916 1304.64 210.675 1305.87 208.275 1308.18 203.806 1311.35 212.655 1314.29 233.961 1317.55 246.581 1318.48 263.188 1319.03 280.387 1320.09 265.79 1321.74 257.622 1323.69 258.137 1325.64 258.65 1327.9 267.814 1330.2 287.869 1332.99 301.485 1334.79 316.455 1335.43 330.728 1336.89 322.678 1336.55 304.143 1338.29 305.245 1339.37 305.934 1341.26 314.307 1344.89 337.731 1350.73 358.363 1359.97 379.693 1370.91 401.345 1370.92 401.32 1370.92 401.29 1370.94 401.264 1371.51 393.402 1369.81 380.108 1372.42 379.542 1374.26 379.144 1378.23 385.034 1386.61 403.522 1392.96 424.989 1405.14 442.135 1417.06 456.577 1422.77 448.16 1416.42 437.215 1418.14 428.99 1421.36 427.337 1430.93 441.389 1435.14 450.436 1445.96 473.318 1462.66 486.067 1475.64 493.831 1482.61 482.613 1476.65 473.956 1475.25 462.751 1476.49 461.361 1481.56 466.115 1493.46 481.833 1511.41 502.449 1529.1 502.772 1550.9 514.684 1553.82 516.277 1555.77 519.621 1555.99 523.409 1555.99 523.409 1556.98 537.61 1560.74 548.778 1563.5 556.966 1570.49 565.357 1575.18 570.647 1578.26 568.627 1581.65 567.244 1585.5 567.381 1589.86 567.536 1593.72 569.892 1597.32 573.059 1597.37 572.163 1597.46 570.116 1597.21 567.259 1596.92 563.918 1596.35 560.692 1596.49 556.423 1596.74 549.334 1598.29 540.793 1600.96 532.401 1603.64 524.009 1606.65 515.387 1614.76 510.598 1619.36 499.157 1623.87 490.045 1625.76 491.516 1627.07 492.538 1627.11 498.671 1625.02 512.686 1625.92 510.934 1627.22 508.988 1628.09 507.243 1632.14 498.438 1635.14 490.865 1637.3 488.966 1641.31 485.431 1642.4 494.806 1641.83 505.074 1642.28 504.069 1642.66 503.284 1643.16 502.223 1645.94 489.626 1650.05 483.322 1653.19 484.985 1655.37 486.138 1657.08 491.121 1657.56 500.492 1658.3 498.971 1658.68 497.862 1659.65 496.163 1663.54 486.005 1666.17 481.865 1668.04 481.15 1671.42 479.861 1672.35 489.734 1673.9 495.578 1675 492.233 1675.85 489.128 1677.93 484.457 1679.17 481.655 1681.43 479.675 1684.06 479.079 1677.82 477.004 1671.88 474.89 1667.14 473.295 1648.92 481.933 1629.41 479.364 1611.78 473.23 1594.19 467.11 1578.11 458.043 1565.28 451.849 1543.38 461.573 1517.49 451.681 1494.92 437.357 1473.38 423.683 1454.94 406.171 1445.53 386.983 1437.64 387.12 1422.16 386.194 1406.78 370.525 1392.46 355.942 1380.42 338.04 1375.64 316.927 1370.86 295.813 1374.53 271.666 1389.42 250.095 1398.64 236.729 1412.38 230.174 1426.12 226.431 1439.86 222.688 1454 221.911 1465.44 222.491 1475.6 223.006 1485.75 224.424 1495.87 226.585L1424.27 185.058C1419.86 182.436 1440.31 188.211 1442.63 183.06 1438.61 179.855 1414.22 163.18 1410.67 159.291 1407.57 155.888 1427.56 163.326 1429.81 159.096 1426.79 157.083 1406.53 144.465 1403.88 141.882 1401 139.066 1417.19 144.998 1418.49 140.858 1414.66 137.829 1398.01 124.986 1394.35 119.039 1392.62 116.215 1404.97 121.548 1406 118.283 1396.39 104.148 1382.09 95.8319 1371.3 92.4036 1343.94 85.4231 1309.24 89.3374 1284.88 104.459 1285.46 105.098 1286.43 109.106 1286.97 109.818 1289.68 113.327 1291.8 118.047 1292.48 123.385 1294.85 115.196 1301.5 108.658 1308.91 108.429 1318.2 108.144 1326.83 117.973 1326.97 128.957 1327.11 139.94 1318.86 150.14 1309.57 150.427 1307.32 150.496 1305.11 149.963 1303.05 148.973 1304.06 150.751 1307.61 154.72 1310.98 160.037 1299.82 169.517 1291.67 176.321 1284.9 179.55ZM1283.7 187.194C1283.48 186.853 1283.29 186.509 1283.06 186.171L1283.91 187.682C1283.84 187.517 1283.78 187.359 1283.7 187.194Z" fill="#2C2C2C" fill-rule="evenodd"/><path d="M1298.05 130.415C1298.15 138.145 1303.37 144.247 1309.72 144.046 1316.08 143.845 1321.15 137.417 1321.05 129.687 1320.96 121.958 1315.73 115.855 1309.38 116.056 1303.03 116.257 1297.96 122.685 1298.05 130.415Z" fill="#483737" fill-rule="evenodd"/><path d="M1308.85 123.052C1311.99 122.979 1314.98 125.545 1315.05 129.41 1315.13 133.276 1312.24 135.976 1309.09 136.048 1305.94 136.121 1303.13 133.677 1303.06 129.686 1302.98 125.694 1305.7 123.124 1308.85 123.052Z" fill-rule="evenodd"/><path d="M1304.95 123.052C1306.52 123.015 1308.02 124.397 1308.05 126.478 1308.09 128.56 1306.65 130.012 1305.07 130.05 1303.5 130.087 1302.09 128.771 1302.06 126.621 1302.02 124.472 1303.37 123.089 1304.95 123.052Z" fill="#FFFFFF" fill-rule="evenodd"/><path d="M1270.39 111.584C1239.62 110.992 1208 118.707 1194.55 136.768 1219.15 159.991 1251.52 158.318 1271.69 178.552 1273.26 178.456 1292.23 174.932 1302.55 158.334 1292.5 138.239 1279.79 124.584 1270.39 111.584Z" stroke="#000000" stroke-width="3.4375" stroke-miterlimit="8" fill="#252525" fill-rule="evenodd"/><path d="M1266.98 116.053C1243.1 115.956 1219.83 121.829 1206.05 132.002 1241.32 138.812 1270.83 139.876 1294.05 155.39 1285.49 139.718 1275.55 127.652 1266.98 116.053ZM1227.23 147.632C1229.91 148.765 1232.62 149.827 1235.36 150.835 1248.12 155.539 1261.03 160.216 1271.82 170.053 1272.44 169.938 1272.39 169.973 1273.36 169.7 1275.29 169.159 1277.88 168.27 1280.68 166.924 1283.32 165.659 1286.04 163.812 1288.65 161.558 1268.34 153.767 1249.69 151.28 1227.23 147.632Z" fill="#2C2C2C" fill-rule="evenodd"/><path d="M1195.7 134.052 1195.05 138.107C1236.25 147.274 1262.22 146.731 1294.05 160.052 1269.66 142.596 1236.61 143.154 1195.7 134.052Z" fill-rule="evenodd"/><path d="M1236.55 113.164C1244.32 125.492 1255.85 132.739 1267 134.291 1275.09 135.417 1279.94 132.527 1288.07 132.437 1291.08 118.503 1279.37 108.353 1272.66 107.769 1258.5 106.51 1241.04 111.021 1236.55 113.164Z" stroke="#000000" stroke-width="3.4375" stroke-miterlimit="8" fill="#2C2C2C" fill-rule="evenodd"/><path d="M1241.05 114.535C1251.53 112.464 1262 107.989 1272.48 111.147L1263.84 113.857 1277.07 113.631 1267.33 115.889 1279.64 115.889 1270.27 118.825 1281.85 118.373 1272.84 121.083 1283.13 122.212 1272.84 123.792 1284.05 125.599 1275.05 126.954 1284.05 128.308C1276.99 130.52 1271.25 130.303 1265.86 129.437L1273.03 125.599 1259.43 126.954 1271.01 122.212 1254.1 123.567 1268.06 119.502 1249.87 119.728 1263.29 115.664Z" fill="#333333" fill-rule="evenodd"/><path d="M1238.63 122.052C1250.21 138.377 1270.23 138.954 1277.08 138.177L1287.05 149.052C1265.56 138.76 1238.1 133.093 1212.05 130.677 1220.33 127.343 1229.09 124.387 1238.63 122.052Z" fill="#333333" fill-rule="evenodd"/><path d="M1766.46 446.297C1780.6 452.273 1805.54 454.092 1823.9 436.818L1812.15 428.986C1825.07 427.602 1836.96 422.752 1839.57 412.836 1796.42 405.74 1749.04 377.828 1702.18 347.389 1624.75 297.092 1543.95 235.676 1465.44 231.715 1444.17 230.642 1411.79 234.796 1398.04 254.633 1371.75 292.566 1387.6 330.376 1414.12 357.271 1430.06 373.442 1452.11 371.041 1452.11 371.041 1463.22 402.831 1531.95 454.986 1566.07 434.331 1594.12 447.164 1635.8 475.031 1667.71 456.12 1690.55 463.412 1734.82 482.925 1756.72 462.534 1747.03 460.404 1742.76 457.476 1741.6 454.091 1752.88 456.42 1762.92 452.633 1766.46 446.297Z" stroke="#000000" stroke-width="3.4375" stroke-miterlimit="8" fill="#252525" fill-rule="evenodd"/><path d="M1459.04 239.081C1450.38 239.237 1440.69 240.29 1431.78 242.714 1419.9 245.945 1409.73 251.733 1404.48 259.333 1396.16 276.243 1410.3 292.06 1422.4 285.422 1415.91 311.42 1438.15 315.943 1443.91 306.939 1442.52 328.024 1459.54 333.786 1468.53 323.178 1470.12 340.365 1486.96 347.595 1495.72 333.417 1502.74 352.529 1521.09 352.409 1524.99 336.952 1536.21 354.068 1554.76 343.771 1555.83 333.076 1573.04 351.358 1590.86 329.032 1587.72 321.078 1620.24 336.377 1627.34 305.456 1620.16 300.242 1568.41 267.969 1516.79 241.709 1467.28 239.203 1464.69 239.072 1461.92 239.03 1459.04 239.081ZM1396.53 268.275C1379.74 303.769 1399.55 330.43 1412.03 346.875 1401.5 323.015 1406.66 310.26 1411.58 292.232 1398.76 291.018 1395.56 280.344 1396.53 268.275ZM1413.86 295.192C1408.24 313.355 1403.91 357.414 1451.73 367.33 1442.52 355.321 1434 334.794 1435.99 316.189 1423.65 317.378 1417.08 309.052 1413.86 295.192ZM1628.65 309.541C1625.72 316.368 1625.19 322.885 1614.61 326.105 1652.54 342.664 1691.4 374.492 1731.3 397.788 1756.98 412.783 1799.77 436.402 1830.07 417.562 1767.83 403.371 1690.05 341.294 1628.65 309.541ZM1438.12 319.975C1438.12 319.975 1444.05 358.879 1478.15 393.41 1504.13 419.72 1532.63 437.141 1563.93 427.996 1549.59 421.563 1521.64 401.996 1499 381.006 1479.63 363.054 1464.14 344.059 1464.35 331.341 1453.41 341.584 1444.85 327.212 1438.12 319.975ZM1610.82 329.129C1604.03 331.712 1598.35 330.315 1592.48 329.639 1587.96 335.259 1588.69 336.474 1583.52 338.824 1583.52 338.824 1595.45 343.929 1610.62 353.758 1649.13 378.711 1723.96 427.396 1771.53 440.424 1795.57 447.008 1813.44 436.817 1813.44 436.817 1800 435.671 1780.44 426.397 1762.05 418.348 1712.17 396.522 1652.61 350.826 1610.82 329.129ZM1556.84 342.027C1553.7 345.995 1551.39 347.008 1549.21 347.597 1569.05 353.523 1641.31 408.493 1701.57 435.147 1718.05 442.436 1732.03 446.664 1745.4 448.134 1755.2 449.212 1761.87 442.654 1761.87 442.654 1705.5 422.667 1656.62 389.256 1609.67 359.514 1599.09 352.807 1587.79 347.655 1576.43 342.457 1567.77 347.338 1562.79 343.541 1556.84 342.027ZM1493.8 342.716C1488.65 347.414 1481.44 345.988 1473.45 343.981 1492.31 378.837 1543.72 408.722 1559.9 420.367 1568.5 426.56 1580.78 431.915 1590.05 437.173 1618.26 453.163 1649.6 460.727 1663.51 450.736 1625.81 438.373 1563.52 389.416 1511.46 355.347 1504.04 354.654 1499.39 349.909 1493.8 342.716ZM1526.83 347.532C1524.71 351.078 1522.07 353.722 1517.6 353.11 1564.9 379.615 1690.05 482.097 1742.72 462.614 1722.11 456.35 1676.86 430.179 1630.93 402.037 1599.84 382.98 1568.22 361.23 1544.57 351.009 1538.65 352.8 1532.74 350.579 1526.83 347.531Z" fill="#2C2C2C" fill-rule="evenodd"/><path d="M1464.86 243.06C1461.95 253.908 1454.7 256.851 1447.42 249.718 1449.61 273.843 1476.56 262.512 1464.86 243.06ZM1501.59 247.194C1499.01 256.84 1492.57 259.446 1486.09 253.103 1488.04 274.555 1512 264.49 1501.59 247.194ZM1422.03 249.058C1415.95 277.351 1450.35 277.985 1444.04 250.23 1436.92 261.018 1427.71 260.721 1422.03 249.058ZM1481.03 252.688C1479.48 266.257 1471.4 271.51 1461.53 264.839 1468.33 292.898 1498.3 272.874 1481.03 252.688ZM1413.8 253.673C1392.74 268.474 1416.53 297.577 1428.56 272.83 1417.16 274.476 1410.87 266.595 1413.8 253.673ZM1524.42 255.455C1521.84 265.1 1515.39 267.715 1508.92 261.372 1510.86 282.824 1534.83 272.751 1524.42 255.455ZM1503.22 264.708C1501.67 278.277 1493.59 283.53 1483.72 276.859 1490.52 304.918 1520.5 284.895 1503.22 264.708ZM1557.73 268.086C1556.18 281.655 1548.11 286.908 1538.24 280.237 1545.04 308.296 1575.01 288.272 1557.73 268.086ZM1529.85 268.468C1528.3 282.037 1520.21 287.29 1510.34 280.619 1517.14 308.679 1547.12 288.654 1529.85 268.468ZM1439.77 270.096C1433.69 298.389 1468.1 299.006 1461.78 271.251 1454.67 282.039 1445.45 281.759 1439.77 270.096ZM1429.8 279.894C1412.67 298.367 1439.41 319.943 1446.57 294.299 1436.27 298.402 1429.16 292.526 1429.8 279.894ZM1394.68 280.049C1391.83 291.585 1393.03 301.719 1396.11 310.926 1397.87 316.205 1400.48 320.959 1403.17 325.526 1402.72 321.804 1402.26 318.088 1402.5 314.694 1403.04 306.85 1405.1 299.785 1407.19 292.338 1402.2 290.852 1398.09 288.162 1395.85 283.899 1395.23 282.721 1395.1 281.326 1394.68 280.049ZM1581.19 282.352C1579.64 295.921 1571.56 301.182 1561.69 294.511 1568.49 322.571 1598.46 302.539 1581.19 282.352ZM1478.28 283.59C1475.64 296.922 1467.18 301.234 1457.89 293.477 1462.4 322.178 1493.85 305.635 1478.28 283.59ZM1502.37 293.722C1499.73 307.054 1491.26 311.374 1481.97 303.618 1486.49 332.318 1517.93 315.767 1502.37 293.722ZM1555.93 294.104C1553.3 307.436 1544.83 311.757 1535.54 304 1540.06 332.701 1571.5 316.149 1555.93 294.104ZM1528.99 296.733C1526.35 310.065 1517.89 314.386 1508.6 306.629 1513.12 335.329 1544.56 318.778 1528.99 296.733ZM1609.17 298.914C1609.69 303.922 1607.97 304.733 1604.21 306.768 1599.07 309.543 1592.48 309.008 1585.72 304.611 1588.03 318.634 1599.92 321.604 1608.53 318.316 1616.86 315.133 1620.85 303.829 1609.17 298.914ZM1450.68 299.736C1436.71 321.623 1466.34 337.01 1469.4 310.242 1459.91 316.518 1452.02 312.29 1450.68 299.736ZM1414.88 306.263C1413.88 313.89 1413.55 322.315 1415.95 330.678 1419.1 341.651 1426.63 351.706 1442.12 357.624 1435.97 346.299 1431.76 332.029 1432.2 317.722 1427.02 317.376 1422.34 315.788 1418.87 312.228 1417.26 310.575 1416.08 308.409 1414.88 306.263ZM1578.55 310.934C1575.12 323.66 1565.59 327.63 1555.61 320.009 1559.49 347.609 1594.92 332.377 1578.55 310.934ZM1475.06 312.318C1462.98 335.734 1493.74 347.573 1494.56 320.578 1485.64 327.934 1477.43 324.655 1475.06 312.318ZM1630.17 313.758C1629.43 315.759 1628.92 317.614 1627.55 319.797 1626.7 321.153 1625.39 322.317 1624.11 323.492 1660.04 341.13 1696.14 369.808 1732.8 391.301 1745.59 398.8 1762.48 408.319 1779.64 413.6 1791.87 417.366 1804.05 418.739 1815.07 416.196 1755.27 397.074 1686.07 343.508 1630.17 313.758ZM1549.09 319.292C1544.01 331.111 1534.78 333.1 1526.96 323.606 1526.17 351.512 1560.53 343.655 1549.09 319.292ZM1499.95 322.117C1493.53 348.485 1525.85 350.262 1520.62 323.972 1513.66 333.86 1505 333.269 1499.95 322.117ZM1609.7 331.85C1603.71 333.549 1598.49 333.104 1593.92 332.477 1593.1 333.622 1592.26 334.784 1591.55 335.748 1595.71 337.697 1600.73 339.695 1612.31 347.232 1650.82 372.285 1725.84 421.019 1772.1 433.743 1781.18 436.24 1788.81 435.941 1795.25 435.012 1784.01 431.207 1772.12 426.225 1760.25 421.006 1709.94 398.902 1650.8 353.471 1609.7 331.85ZM1447.44 334.503C1452.41 348.415 1461.75 368.063 1480.76 387.386 1502.34 409.329 1524.95 424.195 1549.22 423.065 1533.6 413.752 1514.09 399.859 1496 383.024 1486.17 373.878 1477.28 364.453 1470.71 355.427 1466.09 349.065 1463.15 342.922 1461.44 336.741 1459.72 337.477 1457.98 337.879 1456.28 337.865 1452.92 337.835 1449.99 336.334 1447.44 334.503ZM1575.83 345.465C1571.71 347.295 1567.88 347.859 1564.71 347.313 1563 347.017 1561.93 346.546 1560.54 346.076 1565.01 348.382 1568.52 349.729 1574.54 353.417 1585.12 359.89 1597.89 368.185 1611.91 377.116 1639.94 394.977 1672.95 415.378 1702.7 428.591 1718.94 435.806 1732.54 439.904 1745.43 441.327 1746.83 441.482 1747.58 440.841 1748.8 440.685 1696.8 420.153 1650.96 389.447 1607.38 361.718 1597.48 355.423 1586.75 350.485 1575.83 345.465ZM1492.69 347.167C1489.98 348.511 1487.17 349.331 1484.39 349.315 1484.34 349.314 1484.3 349.29 1484.25 349.29 1493.6 361.745 1506.78 373.793 1520.02 384.041 1537 397.187 1553.64 407.437 1562.1 413.551 1570.02 419.275 1582.21 424.68 1591.82 430.153 1605.56 437.974 1620.11 443.726 1632.63 446.259 1637.95 447.335 1642.59 447.441 1646.9 447.292 1607.95 429.182 1555.34 388.754 1509.58 358.616 1502.56 357.505 1497.46 352.812 1492.69 347.166ZM1509.58 358.617C1509.99 358.681 1510.38 358.781 1510.8 358.82L1508.85 358.129C1509.09 358.285 1509.34 358.46 1509.58 358.617ZM1527.53 350.748C1527.29 351.044 1527.05 351.319 1526.78 351.602 1551.71 366.744 1589.64 394.567 1629.68 418.898 1651.45 432.128 1673.34 443.874 1692.84 451.045 1704.06 455.174 1714.31 457.481 1723.37 458.06 1699.28 446.793 1664.56 426.313 1628.74 404.273 1597.66 385.142 1566.16 363.504 1543.19 353.474 1537.64 354.458 1532.4 353.046 1527.53 350.748Z" fill="#333333" fill-rule="evenodd"/><path d="M1328.86 95.0959C1310.72 95.8203 1292.06 107.007 1292.06 107.007L1293.44 112.765C1314.8 98.6147 1333.87 111.116 1340.63 129.656 1347.41 148.221 1341.84 172.842 1313.89 182.816 1310.39 201.311 1319.33 217.969 1322.44 235.491 1325.08 229.892 1326.83 221.68 1325.78 205.23 1329.66 233.766 1334.85 245.302 1339.57 262.95 1343.09 259.628 1341.99 244.349 1340.99 229.329 1345.35 252.237 1347.45 278.702 1354.31 297.696 1356.9 291.478 1357.03 280.753 1355.96 258.358 1359.4 278.931 1362.44 300.457 1367.64 316.879 1361.69 222.843 1422.49 213.793 1459.88 214.753L1413.75 201.303C1421.08 202.096 1428.55 199.819 1431.35 195.27 1416.77 191.718 1406.96 188.594 1396.15 182.816 1403.45 181.587 1410.74 181.965 1418.03 176.565 1409.36 175.983 1395.79 168.541 1381.89 158.718 1389.66 160.458 1398.92 158.358 1406.69 153.852 1391.45 150.244 1379.9 143.815 1367.62 137.422 1378.02 137.759 1392.21 140.317 1400.81 134.272 1386.45 131.443 1372.6 119.751 1360.02 117.243 1370.91 116.886 1378.05 119.606 1388.94 109.275 1363.91 108.62 1367.03 96.5678 1332.48 95.0959 1331.28 95.0451 1330.07 95.0479 1328.86 95.0959ZM1348.63 304.619C1348.4 324.152 1351.8 345.429 1363.89 364.962L1365.37 344.653C1371.06 361.285 1374.44 377.918 1387.52 394.55L1388.02 376.566C1391.18 390.684 1395.94 404.798 1408.2 418.915L1408.69 399.773C1417.14 415.824 1425.01 431.877 1443.65 447.929L1442.17 425.296C1446.86 439.801 1454.6 454.308 1469.75 468.812L1469.75 445.022C1478.85 456.625 1485.46 468.229 1503.22 479.833L1500.27 464.747C1511.06 474.61 1515.71 487.954 1537.19 497.818 1534.13 491.822 1530.47 482.346 1533.75 476.351 1541.58 489.037 1550.85 497.514 1561.31 502.465 1555.76 495.697 1557.64 488.926 1558.36 482.157L1576.09 495.502C1573.47 504.599 1569.77 512.733 1572.15 526.248L1585.44 506.522C1581.56 517.879 1574.22 528.558 1577.56 541.334L1589.87 527.406C1585.12 538.623 1578.75 549.842 1581.5 561.059L1590.85 551.779 1597.75 511.745 1610.06 486.797C1572.19 477.707 1572.52 468.622 1561.31 459.533 1514.4 474.796 1461.41 431.606 1439.71 398.032 1400 389.589 1379.21 355.195 1370.78 331.308 1355.19 335.656 1355.05 320.664 1348.63 304.619Z" fill="#333333" fill-rule="evenodd"/><path d="M1763.07 459.78C1805.27 500.276 1847.32 534.271 1898.07 557.067L1773.7 456.067Z" fill="#2C2C2C" fill-rule="evenodd"/></g></svg>