<svg width="2053" height="2401" xmlns="http://www.w3.org/2000/svg" xmlns:xlink="http://www.w3.org/1999/xlink" xml:space="preserve" overflow="hidden"><defs><clipPath id="clip0"><rect x="1174" y="37" width="2053" height="2401"/></clipPath><clipPath id="clip1"><rect x="1554" y="816" width="1293" height="1532"/></clipPath><clipPath id="clip2"><rect x="1554" y="816" width="1293" height="1532"/></clipPath><clipPath id="clip3"><rect x="1554" y="816" width="1293" height="1532"/></clipPath></defs><g clip-path="url(#clip0)" transform="translate(-1174 -37)"><path d="M3216.3 43.796C3221.69 383.601 3221.37 723.459 3216.3 1063.25 3211.42 1390.64 3195.11 1646.12 3048.65 1845.88 2872.23 2086.52 2578.3 2260.18 2200.22 2430.8 1822.14 2260.18 1528.21 2086.52 1351.79 1845.88 1205.33 1646.12 1189.02 1390.64 1184.14 1063.25 1179.08 723.459 1178.76 383.606 1184.14 43.796L3216.3 43.796Z" stroke="#162E52" stroke-width="12.0433" stroke-miterlimit="8" fill="#1353B4" fill-rule="evenodd"/><path d="M1429.9 44.4998 2971.1 44.4998 2972.5 44.7195 2559.9 109.555C2578.17 114.388 2603.47 124.525 2625.14 146.433 2651.75 173.335 2668.33 221.915 2710.96 253.581 2755.28 286.503 2771.38 242.016 2830.37 272.8 2863.51 290.093 2905.32 360.923 2905.32 360.923 2905.32 360.923 2870.78 330.318 2807.85 315.312 2771.43 306.622 2737.3 334.89 2683.2 314.337 2629 293.751 2611.71 258.085 2576.21 246.401 2543.67 235.693 2511.25 237.562 2491.36 240.382L2746.3 590.363 2409.42 345.009C2418.9 361.352 2429.4 386.309 2429.23 417.025 2429.01 454.859 2406.33 500.949 2414.08 553.48 2422.13 608.085 2465.01 588.041 2484.95 651.51 2496.15 687.164 2475.83 766.808 2475.83 766.808 2475.83 766.808 2473.01 720.582 2439.13 665.486 2419.52 633.596 2375.47 629.552 2351.76 576.773 2328 523.913 2340.83 486.488 2323.99 453.126 2308.38 422.212 2283.73 400.471 2267.68 388.49L2200.5 816.5 2136.04 406.155C2131.05 424.311 2120.91 448.685 2099.53 469.823 2072.62 496.427 2023.84 512.993 1992.16 555.616 1959.23 599.923 2003.73 616.023 1972.94 674.995 1955.64 708.128 1884.98 750.118 1884.98 750.118 1884.98 750.118 1915.6 715.383 1930.61 652.479 1939.3 616.067 1911.02 582.14 1931.58 528.056 1952.17 473.879 1987.66 456.593 1999.34 421.1 2010.29 387.862 2008.29 354.662 2005.36 334.915L1654.7 590.363 1898.57 255.526C1882.21 264.632 1858.14 274.322 1828.87 274.16 1791.02 273.943 1744.92 251.271 1692.37 259.017 1637.75 267.067 1657.8 309.74 1594.32 329.673 1558.65 340.872 1478.98 320.747 1478.98 320.747 1478.98 320.747 1525.22 317.728 1580.34 283.863 1612.23 264.259 1616.08 220.226 1668.88 196.516 1721.76 172.763 1759.19 185.789 1792.56 168.95 1823.89 153.142 1845.92 128.103 1857.8 112.077L1428.5 44.7195Z" stroke="#AA8800" stroke-width="9.302" stroke-miterlimit="8" fill="#FEDA36" fill-rule="evenodd"/><path d="M2165.81 353.413 2234 353.413 2200.19 730ZM2026.51 348.167 2028.26 348.944 2062.84 364.873 2097.81 380.603 2117.62 389.733C2115.72 403.163 2110.2 430.074 2083.82 456.152 2061.89 477.83 2010.31 496.002 1974.83 543.745 1955.54 569.699 1958.1 594.819 1961.23 611.724 1964.36 628.622 1967.6 639.561 1954.04 665.52 1952.25 668.951 1947.29 674.209 1942.97 678.92 1945.28 671.804 1947.87 665.688 1949.77 657.752 1955.37 634.272 1949.32 613.582 1946.08 594.825 1942.83 576.069 1941.02 558.717 1949.96 535.199 1959.33 510.57 1971.66 494.74 1984.35 479.458 1997.04 464.181 2010.96 449.055 2018.15 427.215 2027.7 398.21 2028.24 369.553 2026.51 348.167ZM2385.73 347.005C2393.89 357.844 2409.06 380.802 2408.85 417.893 2408.68 448.725 2385.01 498.109 2393.69 556.952 2398.41 588.94 2417.99 604.707 2432.16 614.44 2446.33 624.173 2456.41 629.617 2465.19 657.559 2466.35 661.251 2466.47 668.647 2466.74 675.036 2463.35 668.367 2460.72 662.177 2456.45 655.229 2443.8 634.663 2425 624.241 2409.44 613.278 2393.87 602.308 2380.31 591.364 2370 568.412 2359.19 544.373 2356.67 524.485 2354.84 504.709 2353 484.933 2352.18 464.442 2341.83 443.921 2328.06 416.656 2308.25 396.047 2291.89 382.157L2293.65 381.38 2329.39 367.981 2365.14 354.581ZM2442.85 238.629 2685.11 528.985 2394.47 286.994ZM1957.15 238.629 2005.53 286.994 1714.88 528.985ZM1862.73 136.667 1863.51 138.612 1876.72 174.149 1890.12 210.084 1897.9 230.475C1887.05 238.629 1864.09 253.794 1826.98 253.589 1796.14 253.415 1746.74 229.76 1687.88 238.436 1655.88 243.154 1639.92 262.724 1630.18 276.894 1620.44 291.058 1615 301.325 1587.05 310.101 1583.35 311.263 1576.15 311.182 1569.76 311.462 1576.43 308.062 1582.62 305.638 1589.57 301.363 1610.14 288.722 1620.37 269.921 1631.34 254.365 1642.31 238.803 1653.46 225.056 1676.42 214.745 1700.46 203.943 1720.36 201.619 1740.14 199.786 1759.92 197.952 1780.42 197.132 1800.95 186.778 1828.22 173.018 1848.83 153.018 1862.73 136.667ZM2544.85 127.345C2558.28 129.246 2585.39 134.572 2611.49 160.942 2633.17 182.869 2651.34 234.62 2699.1 270.095 2725.06 289.374 2750 286.82 2766.91 283.688 2783.81 280.555 2794.95 277.131 2820.92 290.679 2824.35 292.475 2829.61 297.621 2834.32 301.947 2827.2 299.635 2821.08 297.043 2813.14 295.148 2789.66 289.548 2768.96 295.589 2750.2 298.839 2731.44 302.084 2713.88 303.892 2690.36 294.955 2665.72 285.595 2649.89 273.265 2634.6 260.58 2619.32 247.889 2604.38 233.974 2582.53 226.784 2553.52 217.237 2524.85 216.697 2503.47 218.431L2504.24 216.684 2519.98 181.918 2535.91 147.158ZM2509.29 44 2885.7 44 2886 44.0271 2509.29 78.402ZM1514.3 44 1890.71 44 1890.71 78.402 1514 44.0271Z" fill="#FEE46E" fill-rule="evenodd"/><path d="M1854.01 44 2545.99 44 2546 44.2019C2546 235.18 2391.09 390 2200 390 2008.91 390 1854 235.18 1854 44.2019Z" fill="#FEDA36" fill-rule="evenodd"/><path d="M1897.01 44 2502.99 44 2503 44.2033C2503 211.015 2368.36 346 2200 346 2031.63 346 1897 211.015 1897 44.2033Z" fill="#FEE05B" fill-rule="evenodd"/><path d="M1961.02 44 2438.98 44 2439 44.2027C2439 175.151 2334.47 281 2200 281 2065.53 281 1961 175.151 1961 44.2027Z" fill="#FEE676" fill-rule="evenodd"/><path d="M2028.02 44 2371.98 44 2372 44.2033C2372 137.701 2299.06 213 2200 213 2100.95 213 2028 137.701 2028 44.2033Z" fill="#FEEA8A" fill-rule="evenodd"/><g clip-path="url(#clip1)"><g clip-path="url(#clip2)"><g clip-path="url(#clip3)"><path d="M2273.42 2504.82C2254.28 2512.84 2231.98 2527.23 2217.27 2549.81 2226.19 2557.12 2241.85 2561.35 2252.41 2563.71 2233.12 2573.09 2202.88 2590 2191.13 2617.57 2205.03 2631.43 2220.15 2635.51 2235.7 2636.14 2227.07 2647.93 2215.89 2657.18 2213.42 2675.13 2236.08 2694.1 2265.02 2689.86 2302.7 2688.32 2294.7 2698.85 2289.39 2709.37 2289.7 2719.89 2337.89 2739.24 2399.95 2720.47 2460.08 2686.7 2517.28 2654.57 2572.73 2608.86 2612.82 2569.47 2647.36 2535.54 2669.36 2490.33 2690.81 2446.91 2720.31 2387.22 2651.72 2398.18 2669.34 2333.97 2579.02 2335.8 2487.28 2417.76 2273.42 2504.82Z" stroke="#808080" stroke-width="7.69359" fill="#CCCCCC" transform="matrix(-0.869138 -0.49457 -0.47898 0.897428 5726.52 817.986)"/><path d="M2755.1 632.261C2755.1 632.261 2744.06 642.156 2739.94 662.575 2738.34 670.499 2736.91 686.827 2736.91 686.827 2659.54 730.99 2513.75 811.169 2438.28 832.939 2430.13 835.291 2422.57 839.399 2415.58 838.399L2373.14 832.337 2391.32 811.116C2396.75 804.786 2406.46 804.057 2414.08 800.554 2536.74 744.167 2645.58 700.854 2735.39 621.651L2752.07 618.62Z" fill="#ECECEC" transform="matrix(-0.869138 -0.49457 -0.47898 0.897428 5020.94 2425.33)"/><path d="M2339.78 899.031C2348.89 883.874 2374.32 868.717 2403.45 853.56 2512.42 824.546 2631.77 766.362 2738.42 697.44L2746 739.88C2634.77 795.445 2553.65 855.312 2391.32 903.578 2378.8 904.86 2371.4 909.212 2339.78 899.031Z" fill="#ECECEC" transform="matrix(-0.869138 -0.49457 -0.47898 0.897428 5020.94 2425.33)"/><path d="M2362.52 955.113C2368.39 941.471 2370.68 927.83 2395.87 914.188 2595.02 852.08 2634.76 803.833 2750.55 748.974L2761.16 776.257C2724.38 803.995 2584.63 912.799 2441.34 958.144 2418.6 958.648 2410.82 965.563 2362.52 955.112Z" fill="#ECECEC" transform="matrix(-0.869138 -0.49457 -0.47898 0.897428 5020.94 2425.33)"/><path d="M2441.34 996.034C2441.34 996.034 2449.54 969.293 2461.05 965.72 2572.59 931.093 2766.08 788.652 2764.19 785.348L2770.25 800.506C2756.98 834.966 2585.97 990.869 2483.78 994.518Z" fill="#ECECEC" transform="matrix(-0.869138 -0.49457 -0.47898 0.897428 5020.94 2425.33)"/><path d="M2734.48 639.486C2644.44 715.401 2537.61 758.25 2419.5 812.544 2408.57 817.57 2402.04 818.904 2401.37 819.686L2398.81 822.616 2417.49 825.363C2418.13 825.455 2424.67 823.127 2434.7 820.235 2504.89 799.988 2646.37 723.18 2724.59 678.676 2725.08 673.555 2725.71 667.143 2727.16 659.997 2728.83 651.717 2731.51 645.126 2734.48 639.486Z" fill="#FFFFFF" transform="matrix(-0.869138 -0.49457 -0.47898 0.897428 5020.94 2425.33)"/><path d="M2728.99 718.417C2626.31 782.956 2513.44 837.47 2408.7 865.652 2391.51 874.647 2377.69 883.368 2366.94 891.473 2374.74 892.178 2380.91 891.693 2388.92 890.741 2544.31 844.347 2624.25 787.448 2731.55 732.884L2728.99 718.417Z" fill="#FFFFFF" transform="matrix(-0.869138 -0.49457 -0.47898 0.897428 5020.94 2425.33)"/><path d="M2744.37 765.479C2639.47 817.15 2592.47 864.882 2401.01 924.801 2387.28 932.344 2382.46 938.94 2379.21 946.044 2410.23 951.246 2419.12 947.451 2438.73 946.593 2573.12 903.796 2703.8 804.901 2746.94 772.255L2744.37 765.479Z" fill="#FFFFFF" transform="matrix(-0.869138 -0.49457 -0.47898 0.897428 5020.94 2425.33)"/><path d="M2739.98 820.418C2720.19 834.875 2692.8 853.927 2661.78 874.075 2599.31 914.65 2523.13 959.232 2464.74 977.359 2465.71 977.056 2462.75 980.757 2460.89 983.036L2483.41 982.304C2528.53 980.693 2596.52 942.435 2652.81 899.346 2680.95 877.802 2706.47 855.249 2725.51 836.166 2731.44 830.225 2735.42 825.521 2739.98 820.417Z" fill="#FFFFFF" transform="matrix(-0.869138 -0.49457 -0.47898 0.897428 5020.94 2425.33)"/><path d="M1129.59 1170.65C1150.28 1161.6 1160.19 1122.77 1169.84 1091.94 1240.12 867.165 1270.25 656.923 1209.92 491.826L1135.73 322.12 1052.98 211.892 1001.26 191.204 995.607 173.262 956.171 200.253 949.22 177.787C947.58 178.572 945.837 179.185 944.21 180.05 922.269 191.708 936.491 213.425 931.926 234.032 929.892 243.216 929.174 252.346 929.179 261.347L929.018 260.862C929.003 264.536 929.282 268.059 929.503 271.691 929.529 272.121 929.472 272.554 929.503 272.984 929.624 274.775 929.822 276.537 929.987 278.318 930.159 280.15 930.262 281.991 930.472 283.813 930.558 284.565 930.703 285.325 930.795 286.076 931.139 288.863 931.523 291.719 931.927 294.48 932.53 298.606 933.166 302.669 933.866 306.763 935.216 314.66 936.719 322.176 938.23 329.714 939.073 333.916 939.824 338.31 940.654 342.321L940.493 340.705C944.824 361.655 948.711 379.757 948.736 389.192 948.746 392.469 948.325 395.618 947.443 398.566 947.427 398.615 947.458 398.679 947.443 398.728 944.772 407.512 938.336 415.057 929.987 422.487 919.664 431.654 906.37 440.827 892.814 452.226 889.291 455.134 885.806 458.14 882.308 461.438 882.252 461.492 882.203 461.546 882.147 461.6 881.495 462.216 880.857 462.742 880.207 463.378 870.582 472.793 857.908 482.582 844.165 491.662 843.349 492.204 842.565 492.741 841.741 493.278 837.929 495.749 834.042 498.052 830.104 500.39 830.107 500.443 830.101 500.498 830.104 500.551 819.786 506.692 809.123 512.257 798.749 516.875 795.536 518.299 792.353 519.681 789.213 520.916 788.903 521.038 788.551 521.12 788.243 521.239 787.24 521.627 786.165 522.006 785.172 522.371 782.801 523.247 780.36 524.051 778.061 524.795 771.457 526.93 765.229 528.488 759.474 529.321 755.862 529.843 752.294 529.873 748.645 529.805 748.28 524.873 747.945 519.98 747.513 515.259 733.399 521.514 719.749 526.039 708.239 527.704 697.192 529.302 686.32 527.85 672.843 525.118 674.54 572.081 674.469 622.548 671.55 674.621 669.622 709.012 689.814 718.906 689.814 718.906 689.814 718.906 699.218 698.195 713.642 682.663 727.004 710.125 741.049 720.522 741.049 720.522 741.049 720.522 760.664 705.933 775.151 690.137 776.95 715.141 787.112 727.634 787.112 727.634 787.112 727.634 812.723 708.504 829.942 690.137 830.581 718.588 842.226 732.806 842.226 732.806 842.226 732.806 868.654 713.116 885.864 694.501 885.713 697.56 885.549 700.683 885.38 703.714 883.451 738.104 897.34 755.272 897.34 755.272 897.34 755.272 920.498 737.991 937.584 720.522 937.39 724.39 937.315 728.307 937.1 732.159 935.172 766.55 949.06 783.718 949.06 783.718 949.06 783.718 972.747 772.672 989.951 754.14 989.607 762.627 989.133 771.04 988.658 779.515 986.73 813.906 1000.78 831.235 1000.78 831.235 1007.61 832.754 1022.97 822.954 1036.01 810.062 1029.16 854.12 1019.88 896.292 1007.73 935.16 998.087 965.997 1001.9 1018.6 1030.68 1056.38 1035.29 1047.61 1039.96 1041.18 1046.74 1030.07 1044.82 1056.42 1046.17 1082.88 1072.22 1120.54 1084.98 1113.87 1088.67 1093.66 1103.09 1074.32 1105.72 1104.43 1102.47 1131.85 1129.59 1170.65Z" stroke="#78797A" stroke-width="7.75798" fill="#CCCCCC" transform="matrix(-0.999417 0.0341483 0.0341463 0.999474 2824.67 778.848)"/><path d="M4683.33 2471.94C4667.68 2473.39 4651.58 2477.96 4636.13 2486.16 4614.19 2497.82 4600.83 2519.65 4596.26 2540.26 4591.7 2560.87 4593.41 2581.08 4596.26 2600.61 4601.97 2639.66 4613.03 2679.44 4613.07 2695.44 4613.15 2724.37 4604.1 2738.3 4572.12 2769.58 4542.89 2798.17 4487.14 2830.36 4451.43 2835.53 4419.46 2840.15 4363.5 2818.28 4363.5 2818.28L4337.85 2874.75C4337.85 2874.75 4398.43 2905.9 4460.27 2896.95 4518.36 2888.54 4576.69 2851.87 4615.44 2813.97 4651.44 2778.76 4675.27 2742.19 4675.14 2695.22 4675.05 2659.96 4666.71 2627.9 4662.07 2596.15 4659.74 2580.27 4659.32 2566.34 4661.42 2558.22 4666.21 2539.71 4695.78 2531.6 4708.55 2535.73 4721.72 2539.99 4736.47 2551.02 4750.79 2567.2 4779.44 2599.56 4809.08 2650.99 4827.97 2687.03 4844.02 2717.65 4859.07 2776.57 4871.9 2825.59 4891.55 2900.65 4906.49 2959.67 4981.07 2966.86 4981.07 2966.86 4947.2 2899.75 4928.74 2845.49 4916.23 2808.69 4903.23 2721.24 4877.95 2659.87 4862.63 2622.68 4834.92 2568.48 4797.35 2526.03 4778.56 2504.81 4756.1 2486.22 4728.16 2476.9 4714.19 2472.23 4698.99 2470.49 4683.33 2471.94Z" stroke="#808080" stroke-width="7.75799" fill="#CCCCCC" transform="matrix(-0.999417 0.0341483 0.0341463 0.999474 6434.77 -1679.99)"/><path d="M4682.57 2479.84C4668.66 2481.13 4654.18 2485.2 4640.33 2492.56 4622.54 2502.01 4611.16 2520.67 4607.36 2537.82 4603.35 2555.92 4604.8 2574.24 4607.57 2593.21 4610.34 2612.15 4614.42 2631.5 4617.92 2648.38 4621.41 2665.26 4624.57 2678.9 4624.6 2689.98 4624.64 2705.85 4621.67 2719.8 4614.25 2732.87 4606.83 2745.94 4595.8 2757.92 4579.55 2773.82 4547.82 2804.86 4492.91 2837.41 4451.32 2843.43 4431.25 2846.33 4408.63 2841.19 4389.89 2836.1 4378.04 2832.88 4374.67 2831.32 4368.77 2829.21L4354.12 2861.75C4368.92 2868.29 4409.48 2884.9 4456.27 2878.13 4510.14 2870.34 4566.89 2835.03 4603.91 2798.82 4638.7 2764.79 4659.63 2732.16 4659.51 2689.76 4659.43 2656.63 4651.37 2625.33 4646.58 2592.56 4644.13 2575.8 4643 2561.41 4646.15 2549.24 4650.12 2533.92 4663 2525.13 4675.03 2520.36 4687.06 2515.59 4698.87 2513.77 4710.59 2517.56 4727.44 2523.01 4743.52 2535.56 4758.87 2552.9 4789.16 2587.12 4818.62 2638.83 4837.75 2675.32 4855.48 2709.14 4869.98 2767.52 4882.79 2816.49 4892.62 2854.04 4901.45 2886.55 4915.34 2908.95 4925.17 2924.8 4937.08 2935.96 4954.99 2942.36 4943.67 2918.83 4927.17 2882.87 4914.05 2844.29 4907.2 2824.17 4900.87 2793.5 4892.92 2759.59 4884.98 2725.68 4875.49 2688.95 4863.4 2659.59 4848.5 2623.42 4821.15 2570.05 4785.16 2529.41 4767.32 2509.26 4746.69 2492.46 4721.8 2484.15 4709.66 2480.1 4696.45 2478.56 4682.57 2479.84Z" fill="#ECECEC" transform="matrix(-0.999417 0.0341483 0.0341463 0.999474 6434.77 -1679.99)"/><path d="M4682.42 2486.68C4669.66 2487.86 4656.43 2491.52 4643.63 2498.32 4628.57 2506.33 4618.26 2522.67 4614.96 2537.55 4611.32 2554 4612.46 2571.31 4615.18 2589.92 4617.89 2608.48 4622.02 2627.74 4625.52 2644.66 4629.03 2661.58 4632.39 2674.89 4632.42 2687.98 4632.46 2704.78 4629.19 2720.76 4621 2735.18 4612.81 2749.6 4601 2762.01 4584.58 2778.07 4551.19 2810.72 4497.05 2843.48 4451.6 2850.06 4428.85 2853.35 4405.73 2847.95 4386.51 2842.73 4378.66 2840.59 4378.21 2840.11 4372.5 2838.2 4342.62 2834.61 4366.74 2849.02 4364.96 2854.8 4384.53 2862.39 4416.53 2872.93 4453.97 2867.51 4505.05 2860.12 4560.97 2825.67 4596.86 2790.57 4630.86 2757.32 4649.77 2727.16 4649.66 2687.77 4649.58 2656.02 4641.84 2625.3 4636.95 2591.86 4634.41 2574.52 4632.9 2559.91 4636.73 2545.09 4641.73 2525.78 4656.95 2515.57 4670.57 2510.18 4684.19 2504.78 4697.15 2502.02 4712.38 2506.94 4731.64 2513.17 4748.51 2526.77 4764.54 2544.87 4795.91 2580.31 4825.42 2632.43 4844.71 2669.23 4863.54 2705.15 4877.59 2763.4 4890.4 2812.34 4900.24 2849.9 4909.07 2881.78 4921.87 2902.43 4925.71 2908.63 4929.86 2913.64 4934.37 2918.16 4924.31 2895.77 4913.09 2869.99 4904.63 2845.1 4897.4 2823.84 4891.2 2793.3 4883.29 2759.53 4875.38 2725.77 4865.93 2689.31 4854.19 2660.83 4839.58 2625.33 4812.4 2572.91 4777.47 2533.45 4760.24 2513.99 4740.88 2498.2 4717.98 2490.56 4707.04 2486.91 4695.13 2485.51 4682.42 2486.68Z" fill="#FFFFFF" transform="matrix(-0.999417 0.0341483 0.0341463 0.999474 6434.77 -1679.99)"/><path d="M1463.91 690.542C1476.58 855.721 1453.86 1058.48 1403.75 1207.88 1394.39 1235.78 1393.86 1286.45 1420.08 1330.2 1423.92 1325.68 1427.78 1319.61 1431.28 1311.45 1437.15 1297.79 1442.13 1280.75 1447.02 1265.12 1500.25 1094.87 1529.8 933.613 1514.91 795.278 1484.53 774.554 1469.66 721.305 1463.91 690.542Z" fill="#ECECEC" transform="matrix(-0.999417 0.0341483 0.0341463 0.999474 3105.8 592.847)"/><path d="M4816.63 2697.79C4807.36 2682.24 4789.93 2647.31 4777.2 2628.88L4777.2 2628.88C4827.92 2836.75 4825.04 3142.51 4755.72 3337.52 4746.24 3364.19 4741.83 3392.16 4765.54 3431.06 4768.37 3427.11 4771.23 3422.69 4773.87 3417.05 4780.29 3403.37 4785.8 3386.37 4791.51 3370.71 4859.46 3184.47 4880.09 2964.04 4849.85 2785.2 4841.68 2761.12 4824.71 2711.37 4816.63 2697.79Z" fill="#ECECEC" transform="matrix(-0.999417 0.0341483 0.0341463 0.999474 6434.77 -1679.99)"/><path d="M4704.08 2552.09C4702.68 2552.01 4699.83 2552.92 4697.77 2553.17 4767.07 2756.67 4784.87 3055.45 4711.35 3272.39 4703.88 3294.45 4706.24 3332.45 4723.03 3364.42 4731.91 3342.85 4743.21 3318.13 4751.22 3294.5 4823.02 3082.64 4815.49 2777.38 4748.22 2581.62 4748.02 2581.4 4747.71 2581.16 4747.52 2580.97 4732.91 2565.74 4717.88 2556.02 4706.88 2552.74 4705.77 2552.41 4705.1 2552.15 4704.08 2552.09Z" fill="#ECECEC" transform="matrix(-0.999417 0.0341483 0.0341463 0.999474 6434.77 -1679.99)"/><path d="M1484.52 781.489C1484.96 932.761 1460.11 1086.7 1418.8 1218.82 1411.59 1241.87 1408.24 1275.13 1420.29 1304.56 1425.4 1292.25 1429.98 1276.44 1434.73 1261.24 1487.16 1093.59 1515.98 935.297 1502.41 800.67 1495.95 794.608 1489.46 788.619 1484.52 781.488Z" fill="#FFFFFF" transform="matrix(-0.999417 0.0341483 0.0341463 0.999474 3105.8 592.847)"/><path d="M1396.13 533.955C1439.26 750.709 1416.21 1014.25 1364.68 1186.65 1361.66 1199.12 1346.71 1218.05 1363.41 1249.38 1367.45 1238.05 1375.44 1220.72 1379.35 1208.23 1436.75 1024.65 1461.3 795.067 1431.74 620.323 1424.31 598.333 1412.15 562.594 1396.13 533.955Z" fill="#FFFFFF" transform="matrix(-0.999417 0.0341483 0.0341463 0.999474 3105.8 592.847)"/><path d="M1285.59 397.793C1283.88 398.044 1282.69 399.633 1282.94 401.344 1282.97 401.502 1283 401.659 1283.05 401.812 1340.89 606.585 1355.18 888.391 1290.03 1096.74 1286.32 1108.61 1285.55 1126.57 1288.76 1145.8 1288.97 1147.52 1290.53 1148.74 1292.24 1148.53 1293.51 1148.38 1294.56 1147.46 1294.89 1146.22 1298.45 1134.58 1302.19 1122.69 1305.68 1111.54 1369.52 907.384 1364.31 604.783 1305.25 415.35 1305.14 414.884 1304.93 414.45 1304.62 414.081 1298.84 407.717 1293.18 402.369 1287.91 398.431 1287.25 397.918 1286.42 397.689 1285.59 397.797Z" fill="#FFFFFF" transform="matrix(-1.15807 0.0395692 0.0341443 0.999417 3285.59 608.698)"/><path d="M1028.05 880.843C1028.31 881.211 1028.23 880.951 1028.48 881.274 1033.34 877.479 1051.4 859.23 1061.23 849.261 1061.12 846.128 1060.82 843.159 1061.02 839.563 1062.97 804.763 1063.24 781.591 1062.96 748.827L1062.96 748.827C1026.75 755.872 1017.52 752.688 993.917 749.048 998.756 776.552 1012.11 858.812 1028.05 880.843Z" fill="#ECECEC" transform="matrix(-0.999417 0.0341483 0.0341463 0.999474 3105.8 592.847)"/><path d="M1114.07 734.97C1104.14 738.782 1086.78 744.741 1076.53 747.215 1076.89 781.382 1076.64 816.55 1074.59 853.037 1073.79 867.374 1076.19 877.582 1078.69 884.719 1086.67 878.289 1103.37 867.385 1112.56 858.034 1112.56 856.69 1112.47 855.698 1112.56 854.155 1114.88 812.82 1114.8 773.305 1114.07 734.97Z" fill="#ECECEC" transform="matrix(-0.999417 0.0341483 0.0341463 0.999474 3105.8 592.847)"/><path d="M1172.5 703.708C1162.82 709.825 1141.68 721.834 1131.28 726.962 1132.31 768.741 1132.11 812.665 1129.56 858.215 1128.74 872.801 1131.1 883.171 1133.65 890.328 1141.66 883.898 1162.24 869.305 1171.64 859.746 1171.64 858.867 1171.58 858.4 1171.64 857.376 1174.66 803.444 1174.42 751.969 1172.5 703.708Z" fill="#ECECEC" transform="matrix(-0.999417 0.0341483 0.0341463 0.999474 3105.8 592.847)"/><path d="M1222.29 661.816C1214.42 669.03 1195.06 687.159 1186.02 693.983 1188.61 747.058 1188.98 820.295 1185.59 880.666 1184.82 894.397 1186.9 904.228 1189.26 911.271 1197.31 904.769 1217.65 885.661 1226.6 876.518 1229.65 804.092 1227.13 721.442 1222.29 661.816Z" fill="#ECECEC" transform="matrix(-0.999417 0.0341483 0.0341463 0.999474 3105.8 592.847)"/><path d="M1268.56 607.563C1261.83 618.198 1243.32 638.259 1234.52 648.077 1241.31 719.137 1241.52 818.544 1236.45 909.114 1235.65 923.247 1237.87 933.419 1240.33 940.58 1247.25 935.142 1265.11 919.053 1276.1 908.256 1281.74 798.805 1278.55 683.767 1268.56 607.563Z" fill="#ECECEC" transform="matrix(-0.999417 0.0341483 0.0341463 0.999474 3105.8 592.847)"/><path d="M4689.95 2554.32C4666.81 2560.21 4670.77 2575.86 4673.4 2594.46 4677.91 2625.35 4686.66 2658.25 4686.76 2695.33 4686.79 2708.56 4684.41 2720.92 4681.15 2732.83 4694.49 2814.31 4699.59 2981.33 4692.13 3114.42 4691.3 3129.21 4693.85 3139.74 4696.44 3146.97 4702.18 3142.47 4723.69 3124.45 4733.31 3115.54 4760.6 2939.67 4733.37 2691.51 4689.95 2554.32Z" fill="#ECECEC" transform="matrix(-0.999417 0.0341483 0.0341463 0.999474 6434.77 -1679.99)"/><path d="M1039.6 759.546C1039.67 790.201 1039.47 821.183 1037.66 853.519 1037.31 859.615 1037.87 863.88 1038.73 867.313 1042.89 863.839 1050.92 861.614 1055.65 857.076 1055.63 854.854 1055.51 853.047 1055.65 850.61 1057.41 819.072 1058.2 788.704 1058.09 758.792 1054.18 759.004 1043.41 759.573 1039.6 759.546Z" fill="#FFFFFF" transform="matrix(-1.06801 0.0364918 0.0341443 0.999417 3187.69 590.048)"/><path d="M1109.01 746.938C1104.98 748.265 1094.46 752.068 1090.37 753.187 1090.59 785.483 1090.36 818.413 1088.43 852.764 1088.12 858.324 1088.38 862.743 1088.87 866.99 1094.17 862.538 1102.36 858.121 1107.72 852.981 1107.72 852.891 1107.71 852.856 1107.72 852.766 1109.77 816.107 1109.41 781.326 1109.01 746.938Z" fill="#FFFFFF" transform="matrix(-1.06801 0.0364918 0.0341443 0.999417 3187.69 590.048)"/><path d="M1160.44 720.108C1156.45 722.383 1144.5 730.489 1140.39 732.606 1141.26 772.979 1141.34 815.084 1138.89 858.91 1138.59 864.269 1138.87 868.356 1139.32 872.489 1144.45 868.168 1153.99 860.84 1159.15 855.895 1161.77 808.454 1161.75 763.303 1160.44 720.108Z" fill="#FFFFFF" transform="matrix(-1.06801 0.0364918 0.0341443 0.999417 3187.69 590.048)"/><path d="M4615.57 2838.33C4612.04 2841.1 4602.66 2852.88 4598.95 2855.57 4601.52 2907.79 4602.03 2979.89 4598.49 3039.02 4598.14 3044.73 4598.63 3049.14 4599.18 3053.46 4603.96 3049.58 4614.57 3036.68 4619.03 3032.56 4621.77 2968.11 4619.72 2892.86 4615.57 2838.33Z" fill="#FFFFFF" transform="matrix(-0.999417 0.0341483 0.0341463 0.999474 6434.77 -1679.99)"/><path d="M4662.51 2792.42C4658.33 2797.63 4654.29 2802.96 4649.61 2807.94 4656.71 2878.75 4656.83 2977.45 4651.45 3067.25 4651.01 3074.49 4651.48 3080.67 4652.37 3085.79 4658.62 3080.97 4661.4 3079.18 4668.26 3073.07 4673.59 2973.05 4671.72 2865.43 4662.51 2792.42Z" fill="#FFFFFF" transform="matrix(-0.999417 0.0341483 0.0341463 0.999474 6434.77 -1679.99)"/><path d="M4684.83 2589.07C4685.06 2591.14 4684.72 2591.45 4685.06 2593.6 4689.81 2624.03 4699.23 2657.3 4699.34 2695.33 4699.38 2708.7 4696.78 2721.17 4693.35 2733.26 4707.59 2815.19 4713.05 2971.53 4705.08 3104.51 4704.55 3113.34 4705.42 3120.06 4706.7 3125.84 4711.56 3122.12 4713.43 3120.98 4719.13 3116.15 4732.98 2946.58 4722.54 2723.07 4684.83 2589.07Z" fill="#FFFFFF" transform="matrix(-0.999417 0.0341483 0.0341463 0.999474 6434.77 -1679.99)"/><path d="M1129.59 1170.65C1150.28 1161.6 1160.19 1122.77 1169.84 1091.94 1240.12 867.165 1270.25 656.922 1209.92 491.826L1135.73 322.12 1052.98 211.892 1001.26 191.204 995.607 173.262 956.171 200.253 949.22 177.787C947.579 178.572 945.837 179.185 944.209 180.05 922.269 191.708 936.491 213.425 931.926 234.032 929.891 243.216 929.174 252.346 929.178 261.347L929.018 260.862C929.002 264.536 929.282 268.059 929.503 271.691 929.528 272.121 929.472 272.554 929.503 272.984 929.624 274.775 929.822 276.537 929.987 278.318 930.158 280.15 930.262 281.991 930.472 283.813 930.558 284.565 930.703 285.325 930.795 286.075 931.139 288.863 931.523 291.719 931.926 294.48 932.53 298.606 933.166 302.669 933.866 306.763 935.216 314.659 936.718 322.176 938.23 329.714 939.073 333.916 939.824 338.31 940.654 342.321L940.493 340.705C944.824 361.655 948.711 379.757 948.736 389.192 948.746 392.469 948.324 395.618 947.443 398.566 947.427 398.615 947.458 398.679 947.443 398.728 944.771 407.512 938.336 415.057 929.987 422.487 919.664 431.654 906.369 440.827 892.814 452.226 889.291 455.134 885.806 458.14 882.308 461.438 882.252 461.492 882.203 461.546 882.147 461.6 881.495 462.216 880.857 462.742 880.207 463.378 870.581 472.792 857.908 482.582 844.165 491.662 843.349 492.204 842.565 492.741 841.74 493.278 837.929 495.749 834.042 498.052 830.104 500.39 830.106 500.443 830.101 500.498 830.104 500.551 819.785 506.692 809.123 512.257 798.748 516.875 795.536 518.299 792.353 519.681 789.213 520.916 788.903 521.038 788.551 521.12 788.243 521.239 787.24 521.627 786.165 522.005 785.172 522.371 782.801 523.247 780.36 524.051 778.06 524.795 771.457 526.93 765.229 528.488 759.474 529.32 755.861 529.843 752.293 529.873 748.645 529.805 748.28 524.873 747.945 519.98 747.513 515.259 733.399 521.514 719.749 526.039 708.239 527.704 697.192 529.302 686.32 527.85 672.843 525.118 674.54 572.081 674.469 622.548 671.55 674.621 669.622 709.011 689.813 718.906 689.813 718.906 689.813 718.906 699.218 698.194 713.642 682.663 727.004 710.125 741.048 720.522 741.048 720.522 741.048 720.522 760.664 705.933 775.151 690.137 776.95 715.141 787.111 727.634 787.111 727.634 787.111 727.634 812.723 708.504 829.942 690.137 830.581 718.588 842.225 732.806 842.225 732.806 842.225 732.806 868.654 713.116 885.864 694.501 885.712 697.56 885.549 700.683 885.379 703.713 883.451 738.104 897.34 755.272 897.34 755.272 897.34 755.272 920.497 737.991 937.584 720.522 937.39 724.39 937.315 728.307 937.099 732.159 935.171 766.55 949.06 783.718 949.06 783.718 949.06 783.718 972.747 772.672 989.951 754.14 989.606 762.627 989.133 771.04 988.658 779.515 986.73 813.906 1000.78 831.235 1000.78 831.235 1007.61 832.753 1022.97 822.954 1036.01 810.062 1029.16 854.12 1019.88 896.292 1007.73 935.16 998.087 965.997 1001.9 1018.6 1030.68 1056.38 1035.29 1047.61 1039.96 1041.18 1046.74 1030.07 1044.82 1056.42 1046.17 1082.88 1072.22 1120.54 1084.98 1113.87 1088.67 1093.66 1103.09 1074.32 1105.72 1104.43 1102.47 1131.85 1129.59 1170.65Z" stroke="#78797A" stroke-width="7.75798" fill="#CCCCCC" transform="matrix(1 0 0 1.00006 1553.99 815.988)"/><path d="M4683.33 2471.94C4667.68 2473.39 4651.58 2477.95 4636.13 2486.16 4614.19 2497.82 4600.83 2519.65 4596.26 2540.26 4591.7 2560.87 4593.41 2581.08 4596.26 2600.61 4601.97 2639.66 4613.03 2679.44 4613.07 2695.44 4613.15 2724.37 4604.1 2738.3 4572.12 2769.58 4542.89 2798.16 4487.14 2830.36 4451.43 2835.53 4419.46 2840.15 4363.5 2818.28 4363.5 2818.28L4337.85 2874.75C4337.85 2874.75 4398.43 2905.9 4460.27 2896.95 4518.36 2888.54 4576.69 2851.87 4615.44 2813.97 4651.44 2778.76 4675.27 2742.19 4675.14 2695.22 4675.05 2659.96 4666.71 2627.9 4662.07 2596.15 4659.74 2580.27 4659.32 2566.34 4661.42 2558.22 4666.21 2539.71 4695.78 2531.6 4708.55 2535.73 4721.72 2539.99 4736.47 2551.02 4750.79 2567.2 4779.44 2599.56 4809.08 2650.99 4827.97 2687.03 4844.02 2717.65 4859.07 2776.57 4871.9 2825.59 4891.55 2900.65 4906.49 2959.67 4981.07 2966.85 4981.07 2966.85 4947.2 2899.75 4928.74 2845.49 4916.23 2808.69 4903.23 2721.24 4877.95 2659.87 4862.63 2622.68 4834.92 2568.48 4797.34 2526.03 4778.55 2504.81 4756.1 2486.22 4728.16 2476.89 4714.19 2472.23 4698.99 2470.49 4683.33 2471.94Z" stroke="#808080" stroke-width="7.75799" fill="#CCCCCC" transform="matrix(1 0 0 1.00006 -2137.96 -1518.14)"/><path d="M4682.57 2479.84C4668.66 2481.13 4654.18 2485.2 4640.33 2492.56 4622.54 2502.01 4611.15 2520.67 4607.36 2537.82 4603.35 2555.91 4604.8 2574.23 4607.57 2593.21 4610.34 2612.15 4614.42 2631.5 4617.92 2648.38 4621.41 2665.26 4624.57 2678.9 4624.6 2689.98 4624.64 2705.85 4621.67 2719.8 4614.25 2732.87 4606.83 2745.94 4595.8 2757.92 4579.55 2773.81 4547.81 2804.86 4492.91 2837.41 4451.32 2843.43 4431.25 2846.33 4408.63 2841.19 4389.89 2836.1 4378.03 2832.88 4374.67 2831.32 4368.77 2829.2L4354.12 2861.75C4368.92 2868.29 4409.48 2884.9 4456.27 2878.13 4510.14 2870.33 4566.88 2835.03 4603.91 2798.82 4638.7 2764.79 4659.62 2732.16 4659.51 2689.76 4659.42 2656.63 4651.37 2625.33 4646.58 2592.56 4644.13 2575.8 4643 2561.41 4646.15 2549.24 4650.12 2533.92 4663 2525.13 4675.03 2520.36 4687.06 2515.59 4698.87 2513.77 4710.59 2517.56 4727.44 2523.01 4743.51 2535.56 4758.87 2552.9 4789.16 2587.12 4818.62 2638.83 4837.75 2675.32 4855.48 2709.14 4869.98 2767.52 4882.79 2816.49 4892.62 2854.04 4901.45 2886.55 4915.34 2908.95 4925.16 2924.8 4937.08 2935.96 4954.99 2942.35 4943.67 2918.83 4927.16 2882.87 4914.04 2844.29 4907.2 2824.17 4900.87 2793.5 4892.92 2759.59 4884.98 2725.68 4875.49 2688.95 4863.4 2659.59 4848.5 2623.42 4821.14 2570.05 4785.16 2529.41 4767.32 2509.26 4746.69 2492.46 4721.8 2484.15 4709.66 2480.1 4696.45 2478.56 4682.57 2479.84Z" fill="#ECECEC" transform="matrix(1 0 0 1.00006 -2137.96 -1518.14)"/><path d="M4682.42 2486.68C4669.66 2487.86 4656.43 2491.52 4643.63 2498.32 4628.57 2506.33 4618.26 2522.67 4614.96 2537.55 4611.32 2554 4612.46 2571.31 4615.18 2589.92 4617.89 2608.48 4622.02 2627.74 4625.52 2644.66 4629.03 2661.58 4632.39 2674.89 4632.42 2687.98 4632.46 2704.78 4629.19 2720.76 4621 2735.18 4612.81 2749.6 4601 2762.01 4584.57 2778.07 4551.19 2810.72 4497.05 2843.48 4451.6 2850.05 4428.85 2853.35 4405.73 2847.95 4386.51 2842.73 4378.66 2840.59 4378.21 2840.11 4372.5 2838.2 4342.62 2834.61 4366.74 2849.02 4364.96 2854.8 4384.53 2862.39 4416.52 2872.93 4453.97 2867.51 4505.05 2860.12 4560.97 2825.67 4596.86 2790.57 4630.86 2757.32 4649.77 2727.16 4649.66 2687.77 4649.58 2656.02 4641.84 2625.3 4636.95 2591.86 4634.41 2574.52 4632.9 2559.91 4636.73 2545.09 4641.73 2525.78 4656.95 2515.57 4670.57 2510.17 4684.19 2504.78 4697.15 2502.02 4712.38 2506.94 4731.64 2513.17 4748.51 2526.77 4764.54 2544.87 4795.91 2580.31 4825.42 2632.43 4844.71 2669.23 4863.54 2705.15 4877.59 2763.4 4890.4 2812.34 4900.23 2849.9 4909.07 2881.78 4921.87 2902.43 4925.71 2908.63 4929.86 2913.64 4934.37 2918.16 4924.31 2895.77 4913.09 2869.99 4904.63 2845.1 4897.4 2823.84 4891.2 2793.3 4883.29 2759.53 4875.38 2725.77 4865.93 2689.31 4854.19 2660.82 4839.57 2625.33 4812.4 2572.91 4777.47 2533.45 4760.24 2513.99 4740.88 2498.2 4717.98 2490.56 4707.04 2486.91 4695.13 2485.51 4682.42 2486.68Z" fill="#FFFFFF" transform="matrix(1 0 0 1.00006 -2137.96 -1518.14)"/><path d="M1463.91 690.542C1476.58 855.721 1453.85 1058.48 1403.75 1207.88 1394.39 1235.78 1393.86 1286.45 1420.08 1330.2 1423.91 1325.68 1427.78 1319.61 1431.28 1311.45 1437.15 1297.79 1442.13 1280.74 1447.02 1265.12 1500.25 1094.87 1529.8 933.613 1514.91 795.277 1484.53 774.554 1469.66 721.304 1463.91 690.542Z" fill="#ECECEC" transform="matrix(1 0 0 1.00006 1266.68 639.696)"/><path d="M4816.63 2697.79C4807.36 2682.24 4789.93 2647.31 4777.2 2628.88L4777.2 2628.88C4827.92 2836.75 4825.04 3142.51 4755.72 3337.52 4746.24 3364.19 4741.83 3392.16 4765.54 3431.06 4768.37 3427.1 4771.23 3422.69 4773.87 3417.05 4780.29 3403.37 4785.8 3386.37 4791.51 3370.71 4859.46 3184.47 4880.09 2964.04 4849.85 2785.2 4841.68 2761.12 4824.71 2711.36 4816.63 2697.79Z" fill="#ECECEC" transform="matrix(1 0 0 1.00006 -2137.96 -1518.14)"/><path d="M4704.08 2552.09C4702.68 2552.01 4699.83 2552.92 4697.77 2553.17 4767.07 2756.67 4784.87 3055.45 4711.35 3272.39 4703.87 3294.45 4706.24 3332.45 4723.03 3364.42 4731.91 3342.85 4743.21 3318.13 4751.22 3294.5 4823.02 3082.64 4815.49 2777.38 4748.22 2581.62 4748.02 2581.4 4747.71 2581.16 4747.52 2580.97 4732.91 2565.74 4717.88 2556.02 4706.88 2552.74 4705.77 2552.4 4705.1 2552.15 4704.08 2552.09Z" fill="#ECECEC" transform="matrix(1 0 0 1.00006 -2137.96 -1518.14)"/><path d="M1484.52 781.489C1484.96 932.761 1460.11 1086.7 1418.8 1218.82 1411.59 1241.87 1408.24 1275.13 1420.29 1304.56 1425.4 1292.25 1429.98 1276.44 1434.73 1261.24 1487.16 1093.59 1515.98 935.297 1502.41 800.67 1495.95 794.608 1489.46 788.618 1484.52 781.488Z" fill="#FFFFFF" transform="matrix(1 0 0 1.00006 1266.68 639.696)"/><path d="M1396.13 533.955C1439.25 750.709 1416.21 1014.24 1364.68 1186.65 1361.66 1199.12 1346.71 1218.05 1363.41 1249.38 1367.45 1238.05 1375.44 1220.72 1379.35 1208.23 1436.75 1024.65 1461.3 795.067 1431.74 620.323 1424.31 598.333 1412.15 562.594 1396.13 533.955Z" fill="#FFFFFF" transform="matrix(1 0 0 1.00006 1266.68 639.696)"/><path d="M1285.59 397.793C1283.88 398.044 1282.69 399.633 1282.94 401.344 1282.97 401.502 1283 401.659 1283.05 401.812 1340.89 606.585 1355.18 888.391 1290.03 1096.74 1286.32 1108.61 1285.55 1126.57 1288.76 1145.8 1288.97 1147.52 1290.53 1148.74 1292.24 1148.53 1293.51 1148.38 1294.56 1147.46 1294.89 1146.22 1298.45 1134.58 1302.19 1122.69 1305.68 1111.54 1369.52 907.384 1364.31 604.783 1305.25 415.35 1305.14 414.884 1304.93 414.45 1304.62 414.081 1298.84 407.717 1293.18 402.369 1287.91 398.431 1287.25 397.918 1286.42 397.689 1285.59 397.797Z" fill="#FFFFFF" transform="matrix(1.15875 0 0 1 1087.54 661.677)"/><path d="M1028.05 880.843C1028.31 881.211 1028.23 880.951 1028.48 881.274 1033.34 877.478 1051.4 859.23 1061.23 849.261 1061.12 846.128 1060.82 843.159 1061.02 839.562 1062.97 804.763 1063.24 781.591 1062.96 748.826L1062.96 748.827C1026.75 755.872 1017.52 752.687 993.917 749.048 998.755 776.552 1012.11 858.812 1028.05 880.843Z" fill="#ECECEC" transform="matrix(1 0 0 1.00006 1266.68 639.696)"/><path d="M1114.07 734.97C1104.14 738.781 1086.78 744.74 1076.53 747.215 1076.89 781.382 1076.64 816.55 1074.59 853.037 1073.79 867.374 1076.19 877.581 1078.69 884.719 1086.67 878.289 1103.37 867.384 1112.56 858.034 1112.56 856.689 1112.47 855.698 1112.56 854.155 1114.88 812.819 1114.8 773.304 1114.07 734.97Z" fill="#ECECEC" transform="matrix(1 0 0 1.00006 1266.68 639.696)"/><path d="M1172.5 703.707C1162.82 709.825 1141.68 721.834 1131.28 726.961 1132.31 768.741 1132.11 812.665 1129.56 858.215 1128.74 872.801 1131.1 883.171 1133.65 890.328 1141.66 883.898 1162.24 869.305 1171.64 859.746 1171.64 858.867 1171.58 858.4 1171.64 857.375 1174.66 803.444 1174.42 751.969 1172.5 703.707Z" fill="#ECECEC" transform="matrix(1 0 0 1.00006 1266.68 639.696)"/><path d="M1222.29 661.816C1214.42 669.03 1195.06 687.159 1186.02 693.983 1188.61 747.058 1188.98 820.295 1185.59 880.666 1184.82 894.397 1186.9 904.228 1189.26 911.27 1197.31 904.769 1217.65 885.661 1226.6 876.517 1229.65 804.092 1227.13 721.442 1222.29 661.816Z" fill="#ECECEC" transform="matrix(1 0 0 1.00006 1266.68 639.696)"/><path d="M1268.56 607.563C1261.83 618.198 1243.32 638.259 1234.52 648.077 1241.31 719.136 1241.52 818.544 1236.45 909.114 1235.65 923.247 1237.87 933.419 1240.32 940.58 1247.25 935.142 1265.11 919.053 1276.1 908.256 1281.74 798.804 1278.55 683.767 1268.56 607.563Z" fill="#ECECEC" transform="matrix(1 0 0 1.00006 1266.68 639.696)"/><path d="M4689.95 2554.32C4666.81 2560.21 4670.77 2575.86 4673.4 2594.46 4677.91 2625.34 4686.66 2658.25 4686.76 2695.33 4686.79 2708.56 4684.41 2720.92 4681.15 2732.83 4694.49 2814.31 4699.59 2981.33 4692.13 3114.42 4691.3 3129.21 4693.85 3139.74 4696.44 3146.97 4702.17 3142.47 4723.69 3124.45 4733.31 3115.54 4760.6 2939.67 4733.37 2691.51 4689.95 2554.32Z" fill="#ECECEC" transform="matrix(1 0 0 1.00006 -2137.96 -1518.14)"/><path d="M1039.6 759.546C1039.67 790.201 1039.47 821.183 1037.66 853.519 1037.31 859.615 1037.87 863.88 1038.73 867.313 1042.89 863.839 1050.92 861.614 1055.65 857.076 1055.63 854.854 1055.51 853.047 1055.65 850.61 1057.41 819.072 1058.2 788.704 1058.09 758.792 1054.18 759.003 1043.41 759.573 1039.6 759.546Z" fill="#FFFFFF" transform="matrix(1.06863 0 0 1 1184.74 639.696)"/><path d="M1109.01 746.938C1104.98 748.265 1094.46 752.068 1090.37 753.187 1090.59 785.483 1090.36 818.413 1088.43 852.764 1088.12 858.324 1088.38 862.743 1088.86 866.99 1094.17 862.538 1102.36 858.121 1107.72 852.981 1107.72 852.891 1107.71 852.856 1107.72 852.766 1109.77 816.107 1109.41 781.326 1109.01 746.938Z" fill="#FFFFFF" transform="matrix(1.06863 0 0 1 1184.74 639.696)"/><path d="M1160.44 720.108C1156.45 722.382 1144.5 730.489 1140.39 732.606 1141.26 772.979 1141.34 815.084 1138.89 858.91 1138.59 864.269 1138.87 868.356 1139.32 872.489 1144.45 868.168 1153.99 860.84 1159.15 855.895 1161.77 808.454 1161.75 763.303 1160.44 720.108Z" fill="#FFFFFF" transform="matrix(1.06863 0 0 1 1184.74 639.696)"/><path d="M4615.57 2838.33C4612.04 2841.09 4602.66 2852.88 4598.94 2855.57 4601.52 2907.79 4602.03 2979.89 4598.48 3039.02 4598.14 3044.73 4598.63 3049.14 4599.18 3053.46 4603.96 3049.58 4614.57 3036.68 4619.03 3032.56 4621.77 2968.11 4619.72 2892.85 4615.57 2838.33Z" fill="#FFFFFF" transform="matrix(1 0 0 1.00006 -2137.96 -1518.14)"/><path d="M4662.51 2792.42C4658.33 2797.63 4654.29 2802.96 4649.61 2807.94 4656.71 2878.75 4656.83 2977.45 4651.45 3067.25 4651.01 3074.49 4651.48 3080.67 4652.37 3085.79 4658.62 3080.97 4661.4 3079.18 4668.26 3073.07 4673.59 2973.05 4671.72 2865.43 4662.51 2792.42Z" fill="#FFFFFF" transform="matrix(1 0 0 1.00006 -2137.96 -1518.14)"/><path d="M4684.83 2589.07C4685.06 2591.14 4684.72 2591.45 4685.06 2593.6 4689.81 2624.02 4699.23 2657.3 4699.34 2695.33 4699.37 2708.7 4696.78 2721.17 4693.35 2733.26 4707.58 2815.19 4713.05 2971.53 4705.08 3104.51 4704.55 3113.34 4705.41 3120.06 4706.7 3125.84 4711.56 3122.12 4713.43 3120.98 4719.13 3116.14 4732.98 2946.58 4722.54 2723.07 4684.83 2589.07Z" fill="#FFFFFF" transform="matrix(1 0 0 1.00006 -2137.96 -1518.14)"/><path d="M4558.46 3624.01C4546.47 3627.85 4533.11 3620.67 4513.27 3617.21 4504.81 3615.74 4489.07 3619.71 4481.72 3617.71 4471.99 3615.06 4464.16 3611.54 4458.91 3611.2 4445.41 3611.04 4441.8 3622.23 4429.43 3623.69 4418.21 3625.02 4413.28 3617.64 4402.22 3619.95 4391.65 3622.15 4378.36 3623.03 4372.43 3632.05 4367.72 3639.21 4365.04 3648.72 4366.72 3657.13 4368.57 3666.38 4372.49 3670.4 4379.71 3676.47 4383.67 3679.81 4392.75 3682.62 4397.93 3682.63 4410.94 3682.64 4420.47 3672.8 4432.39 3670.15 4443.23 3667.74 4451.49 3671.32 4461.74 3667.05 4467.65 3664.59 4472.78 3658.7 4478.96 3657.05 4487.38 3654.8 4497.67 3658.56 4506.3 3657.42 4516.12 3656.11 4532.88 3646.71 4532.88 3646.71Z" stroke="#808080" stroke-width="7.75805" fill="#CCCCCC" transform="matrix(0.973278 0.229631 -0.229618 0.973334 -1567.65 -2484.79)"/><path d="M4372.25 3658.49C4372.25 3658.49 4377.24 3642.86 4383.96 3637.14 4390.19 3631.84 4399.23 3629.15 4407.41 3629.33 4414.59 3629.49 4419.89 3634.67 4427.06 3634.3 4436.76 3633.8 4444.35 3623.65 4454.06 3623.32 4458.26 3623.18 4466.04 3627.27 4466.04 3627.27 4466.04 3627.27 4457.81 3627.74 4453.85 3628.76 4444.32 3631.23 4435.99 3637.37 4426.45 3639.82 4418.92 3641.75 4411.83 3640.88 4404.88 3644.36 4394.85 3649.39 4380.1 3666.97 4380.1 3666.97Z" fill="#ECECEC" transform="matrix(0.973278 0.229631 -0.229618 0.973334 -1567.65 -2484.79)"/><path d="M1108.82 1597.63C1105.13 1604.85 1113.8 1612.25 1122.73 1614.8 1131.26 1617.24 1149.12 1613.64 1147.16 1605.47 1144 1586.12 1154.57 1568.99 1166.88 1555.11 1139.08 1555.08 1118.17 1572.42 1108.82 1597.63Z" stroke="#806600" stroke-width="7.34904" fill="#F0D95C" transform="matrix(0.02166 0.999765 1.11234 -0.110119 37.49 1134.6)"/><path d="M1116.88 1601.75C1116.88 1601.75 1118.7 1604.03 1120.01 1604.43 1121.3 1604.83 1124.04 1603.99 1124.04 1603.99 1125.84 1591.51 1137.44 1576.88 1145.4 1566.08 1136.81 1569.07 1124.42 1581.88 1116.88 1601.75Z" fill="#F8ECA8" transform="matrix(0.02166 0.999765 1.11234 -0.110119 37.49 1134.6)"/><path d="M4516.04 3623.34C4506.56 3631.65 4491.46 3630.38 4471.87 3635.12 4463.53 3637.14 4450.68 3647.05 4443.13 3648.15 4433.16 3649.59 4423.44 3647.83 4418.5 3649.61 4406.05 3654.85 4405.32 3663.8 4394.56 3670.07 4384.8 3675.76 4381.59 3671.28 4372.36 3677.8 4363.55 3684.03 4350.46 3694.21 4348.61 3704.84 4347.14 3713.29 4348.48 3723.08 4353.37 3730.12 4358.75 3737.87 4363.95 3739.99 4372.99 3742.69 4377.96 3744.17 4387.4 3743.13 4392.16 3741.08 4404.1 3735.91 4408.91 3723.08 4418.79 3715.9 4427.77 3709.36 4436.77 3709.36 4444.48 3701.36 4448.92 3696.75 4451.27 3689.3 4456.28 3685.33 4463.11 3679.91 4474.04 3679.26 4481.51 3674.77 4490 3669.66 4501.62 3654.36 4501.62 3654.36Z" stroke="#808080" stroke-width="7.75806" fill="#CCCCCC" transform="matrix(0.969432 0.245361 -0.245347 0.969488 -1460.85 -2539.57)"/><path d="M4361.87 3712.86C4361.87 3712.86 4370.76 3691.42 4379.88 3685.31 4386.09 3681.14 4395.32 3684.6 4401.93 3681.09 4409.64 3677.01 4412.72 3666.68 4420.42 3662.59 4425.11 3660.11 4436.06 3659.6 4436.06 3659.6 4436.06 3659.6 4427.92 3668.26 4424.98 3673.36 4421.12 3680.03 4422.54 3689.98 4416.63 3694.91 4412.76 3698.13 4405.91 3694.85 4401.79 3697.74 4391.53 3704.95 4382.62 3730.09 4382.62 3730.09Z" fill="#ECECEC" transform="matrix(0.969432 0.245361 -0.245347 0.969488 -1460.85 -2539.57)"/><path d="M1108.81 1597.61C1105.12 1604.83 1113.79 1612.24 1122.71 1614.79 1131.25 1617.23 1149.11 1613.62 1147.15 1605.45 1143.99 1586.1 1154.55 1568.98 1166.87 1555.09 1139.07 1555.06 1118.16 1572.41 1108.81 1597.61Z" stroke="#806600" stroke-width="7.34897" fill="#F0D95C" transform="matrix(0.434721 0.900565 0.966263 -0.561981 -176.815 2023.64)"/><path d="M1116.87 1601.73C1116.87 1601.73 1118.69 1604.01 1120 1604.42 1121.29 1604.81 1124.03 1603.97 1124.03 1603.97 1125.83 1591.49 1137.43 1576.86 1145.39 1566.06 1136.8 1569.05 1124.41 1581.87 1116.87 1601.73Z" fill="#F8ECA8" transform="matrix(0.434721 0.900565 0.966263 -0.561981 -176.815 2023.64)"/><path d="M2654.97 2353.07C2654.97 2353.07 2625.8 2449.36 2621.43 2488.93 2618.47 2515.75 2620.67 2543.94 2628.32 2569.82 2631.52 2580.68 2639.03 2593.47 2645.35 2603.78 2650.01 2611.37 2654.15 2615.73 2660.18 2619.6 2666.19 2623.45 2672.56 2621.7 2678.66 2625.18 2690.4 2631.87 2693.1 2648.8 2703.04 2656.32 2712.05 2663.13 2715.78 2659.07 2724.15 2666.64 2732.16 2673.88 2743.94 2685.56 2744.5 2696.33 2744.95 2704.9 2742.45 2714.45 2736.76 2720.86 2730.48 2727.91 2725.07 2729.4 2715.77 2730.99 2710.66 2731.87 2701.41 2729.71 2696.93 2727.1 2685.7 2720.54 2682.45 2707.23 2673.5 2698.92 2665.36 2691.36 2656.43 2690.27 2649.74 2681.41 2645.88 2676.31 2644.44 2668.63 2639.94 2664.08 2633.81 2657.89 2623.03 2655.94 2616.15 2650.58 2608.34 2644.49 2598.63 2627.92 2598.63 2627.92 2598.63 2627.92 2580.11 2619.52 2566.65 2621.62 2558.53 2622.88 2540.39 2652.47 2532.44 2654.55 2528.55 2655.56 2524.22 2653.34 2520.39 2654.55 2510.37 2657.7 2506.41 2667.19 2496.29 2670.04 2491.87 2671.28 2485.37 2666.09 2480.8 2666.59 2473.67 2667.39 2467.03 2677.23 2460.15 2675.2 2443.76 2670.37 2434.29 2656.81 2431.75 2639.92 2430.16 2629.37 2432.25 2617.61 2439.49 2609.79 2445.69 2603.11 2454.57 2598.16 2463.59 2596.88 2475.79 2595.16 2483.36 2606.23 2495.43 2603.77 2504.71 2601.88 2508.49 2593.44 2517.93 2592.67 2521.4 2592.39 2531.92 2595.7 2535.63 2594.04 2543.11 2590.68 2549.01 2578.75 2556.03 2579.29 2563.81 2579.89 2573.86 2578.75 2578.4 2572.41 2581.76 2567.71 2578.23 2565.21 2577.87 2555.09 2577.33 2539.64 2576.36 2517.37 2574.96 2503.56 2571.14 2466.02 2550.04 2369.87 2550.04 2369.87L2592.7 2272.63Z" stroke="#808080" stroke-width="7.75804" fill="#CCCCCC" transform="matrix(-0.992349 -0.123463 -0.123456 0.992406 4936.67 -161.031)"/><path d="M2749.9 787.035 2729.4 744.337C2723.03 760.802 2723.24 776.406 2707.15 797.377 2710.1 814.047 2713.01 824.807 2716.37 857.866 2717.86 872.527 2718.63 894.64 2719.18 910.135 2719.3 913.761 2719.86 915.237 2720.58 918.729 2721.3 922.221 2720.91 930.346 2717.42 935.216 2712.84 941.62 2706.11 944.757 2700.23 946.266 2694.36 947.776 2688.73 947.875 2683.75 947.494 2673.9 946.739 2663.18 964.365 2658.92 961.482 2654.66 958.6 2652.96 958.136 2652.78 958.15 2652.62 958.161 2649.45 959.381 2645.07 962.359 2640.68 965.337 2635.23 969.907 2626.65 971.655 2616.48 973.727 2608.2 969.904 2603.15 967.621 2598.09 965.339 2596.07 964.526 2594.03 964.815 2588.42 965.607 2581.81 969.321 2577.54 973.935 2573.79 977.982 2571.84 985.999 2572.98 993.58 2574.87 1006.15 2580.73 1013.89 2591.04 1017.61 2591.36 1017.43 2591.27 1017.53 2591.92 1017.08 2594.83 1015.1 2599.21 1010.52 2608.06 1009.54 2615.61 1008.7 2619.17 1011.38 2621.74 1012.35 2622.32 1012.57 2622.41 1012.46 2622.79 1012.52 2624.4 1011.85 2625.86 1011.06 2628.75 1008.49 2632.19 1005.42 2637.24 1000.49 2645.24 997.965 2650.59 996.278 2654.66 997.148 2656.82 997.439 2658.97 997.729 2659.41 997.435 2658.05 997.79 2658.49 997.675 2661.29 993.769 2664.77 991.048 2668.26 988.326 2677.3 964.004 2685.33 962.754 2696.43 961.025 2706.83 963.932 2715.84 966.437 2724.86 968.942 2731.98 971.699 2731.98 971.699 2734.59 972.691 2736.85 974.574 2738.3 976.961 2738.3 976.961 2740.45 980.734 2743.56 985.205 2746.67 989.675 2751.14 994.881 2752.68 996.079 2754.2 997.267 2757.81 998.959 2762.32 1000.99 2766.84 1003.02 2772.41 1005.41 2777.58 1010.64 2786.15 1019.28 2787.36 1027.95 2788.46 1029.4 2790.31 1031.86 2792.25 1033.06 2796 1035.19 2799.75 1037.32 2805.36 1040.04 2810.91 1045.19 2817.28 1051.11 2820.67 1057.64 2823.71 1062.38 2826.76 1067.12 2829.08 1070 2831.96 1071.68 2832.28 1071.86 2835.04 1073.04 2837.57 1073.6 2840.1 1074.17 2843.01 1074.04 2842.48 1074.13 2851.25 1072.63 2851.46 1073.08 2855.99 1067.99 2858.73 1064.91 2860.84 1058.21 2860.55 1052.56 2860.49 1051.51 2859.03 1047.57 2855.81 1043.44 2852.59 1039.3 2848.2 1034.94 2844.41 1031.51 2841.73 1029.08 2842.3 1029.77 2839.5 1029.05 2836.7 1028.34 2830.36 1026.49 2824.24 1021.86 2816.05 1015.67 2812.57 1007.81 2809.33 1002.04 2806.09 996.274 2803.31 992.962 2801.09 991.694 2800.44 991.322 2799.39 990.973 2796.18 990.466 2792.96 989.959 2787.56 989.2 2782.14 985.731 2774.77 980.999 2768.69 974.583 2763.38 965.911 2756.96 955.449 2748.92 942.314 2744.96 928.902 2736.79 901.236 2734.45 871.414 2737.59 842.958 2741.22 810.093 2742.26 809.724 2749.9 787.035Z" fill="#ECECEC" transform="matrix(-0.992349 -0.123463 -0.123456 0.992406 4861.4 1486.87)"/><path d="M1108.8 1597.59C1105.11 1604.81 1113.77 1612.21 1122.7 1614.76 1131.23 1617.2 1149.09 1613.6 1147.13 1605.43 1143.97 1586.08 1154.54 1568.95 1166.85 1555.07 1139.05 1555.04 1118.14 1572.39 1108.8 1597.59Z" stroke="#806600" stroke-width="7.34886" fill="#F0D95C" transform="matrix(0.669804 0.742538 0.769928 -0.810414 -90.5947 2658.28)"/><path d="M1116.86 1601.71C1116.86 1601.71 1118.67 1603.99 1119.99 1604.39 1121.28 1604.79 1124.01 1603.95 1124.01 1603.95 1125.81 1591.47 1137.41 1576.84 1145.37 1566.04 1136.78 1569.03 1124.4 1581.84 1116.86 1601.71Z" fill="#F8ECA8" transform="matrix(0.669804 0.742538 0.769928 -0.810414 -90.5947 2658.28)"/><path d="M1126.79 1593.62C1123.1 1600.84 1131.77 1608.24 1140.7 1610.79 1149.23 1613.23 1167.09 1609.62 1165.13 1601.46 1161.97 1582.11 1172.54 1564.98 1184.85 1551.1 1157.05 1551.07 1136.14 1568.41 1126.79 1593.62Z" stroke="#806600" stroke-width="7.34905" fill="#F0D95C" transform="matrix(-0.187122 0.982337 -1.07868 -0.293043 4120.69 1500.78)"/><path d="M1134.85 1597.74C1134.85 1597.74 1136.67 1600.02 1137.98 1600.42 1139.27 1600.82 1142.01 1599.97 1142.01 1599.97 1143.81 1587.49 1155.41 1572.86 1163.37 1562.07 1154.78 1565.06 1142.39 1577.87 1134.85 1597.74Z" fill="#FFFFFF" transform="matrix(-0.187122 0.982337 -1.07868 -0.293043 4120.69 1500.78)"/><path d="M4237.27 2869C4234.32 2927.7 4237.2 2992.38 4253.84 3049.41 4281.02 3142.6 4303.81 3200.3 4301.54 3261.82 4299.13 3326.86 4287.52 3388.71 4301.95 3470.2L4301.95 3470.2C4278.02 3460.2 4256.7 3452.8 4239.26 3362.44 4227.62 3397.43 4216.81 3425.37 4195.18 3458.23 4162.11 3423.57 4161.8 3383.85 4166.94 3348.86 4138.8 3388.68 4104.54 3427.45 4074.2 3430.62 4104.95 3374.61 4148.46 3174.46 4122.61 3044.21 4117.91 2986.14 4094.21 2975.54 4077.76 2950.3Z" stroke="#808080" stroke-width="7.75804" fill="#CCCCCC" transform="matrix(0.992049 0.125853 -0.125846 0.992106 -1674.98 -2001.02)"/><path d="M4277.17 3212.1C4279.77 3227.01 4281.46 3236.32 4280.88 3252.02 4279.06 3301.01 4278.46 3371.23 4282.16 3430.75 4267.43 3414.55 4248.87 3337.04 4247.32 3288.41 4231.56 3338.87 4222.96 3398.13 4192.83 3431.31 4171.13 3369.21 4185.11 3320.43 4188.79 3274.05 4160.12 3333.73 4113.12 3392.96 4098.02 3406.78 4138.21 3308.63 4145.02 3194.12 4142.48 3093.97 4164.89 3101.02 4226.95 3136.76 4277.17 3212.1Z" fill="#ECECEC" transform="matrix(0.992049 0.125853 -0.125846 0.992106 -1674.98 -2001.02)"/><path d="M4273.65 3247.63C4272.58 3276.55 4270.48 3314.66 4269.3 3353.8 4253 3326.26 4272.43 3268.37 4253.42 3248.25 4221.79 3291.3 4219.54 3354.65 4198.43 3398.85 4179.39 3359.87 4219.31 3265.04 4196.78 3239.1 4174.48 3265.03 4150.03 3316.8 4133.34 3343.51 4152.28 3282.06 4158.01 3197.4 4156.3 3126.58 4191.34 3121.87 4252.17 3206.77 4267.72 3229.09Z" fill="#FFFFFF" transform="matrix(0.992049 0.125853 -0.125846 0.992106 -1674.98 -2001.02)"/><path d="M4558.49 3624.03C4546.5 3627.88 4533.14 3620.7 4513.3 3617.24 4504.84 3615.76 4489.1 3619.74 4481.75 3617.73 4472.02 3615.08 4464.18 3611.56 4458.94 3611.22 4445.44 3611.06 4441.83 3622.26 4429.46 3623.72 4418.24 3625.04 4413.31 3617.67 4402.25 3619.97 4391.68 3622.17 4378.39 3623.05 4372.46 3632.07 4367.74 3639.23 4365.07 3648.74 4366.75 3657.15 4368.6 3666.41 4372.52 3670.42 4379.74 3676.5 4383.7 3679.83 4392.78 3682.65 4397.96 3682.65 4410.97 3682.67 4420.5 3672.83 4432.42 3670.17 4443.26 3667.76 4451.52 3671.34 4461.77 3667.07 4467.68 3664.62 4472.81 3658.72 4478.99 3657.07 4487.41 3654.83 4497.7 3658.59 4506.33 3657.44 4516.15 3656.14 4532.91 3646.73 4532.91 3646.73Z" stroke="#808080" stroke-width="7.7581" fill="#CCCCCC" transform="matrix(0.919021 0.394208 -0.394186 0.919074 -419.496 -2966.73)"/><path d="M4372.28 3658.52C4372.28 3658.52 4377.27 3642.89 4383.99 3637.16 4390.22 3631.86 4399.26 3629.17 4407.44 3629.35 4414.62 3629.51 4419.92 3634.69 4427.09 3634.32 4436.79 3633.82 4444.38 3623.68 4454.09 3623.34 4458.29 3623.2 4466.06 3627.29 4466.06 3627.29 4466.06 3627.29 4457.84 3627.76 4453.88 3628.79 4444.35 3631.25 4436.02 3637.4 4426.48 3639.84 4418.95 3641.78 4411.86 3640.9 4404.91 3644.38 4394.88 3649.41 4380.13 3666.99 4380.13 3666.99Z" fill="#ECECEC" transform="matrix(0.919021 0.394208 -0.394186 0.919074 -419.496 -2966.73)"/><path d="M1108.82 1597.63C1105.13 1604.84 1113.8 1612.25 1122.72 1614.8 1131.26 1617.24 1149.12 1613.63 1147.16 1605.47 1144 1586.12 1154.56 1568.99 1166.88 1555.11 1139.08 1555.08 1118.17 1572.42 1108.82 1597.63Z" stroke="#806600" stroke-width="7.34904" fill="#F0D95C" transform="matrix(-0.151245 0.988496 1.11465 0.0835688 536.764 875.424)"/><path d="M1116.88 1601.75C1116.88 1601.75 1118.7 1604.03 1120.01 1604.43 1121.3 1604.83 1124.04 1603.98 1124.04 1603.98 1125.84 1591.51 1137.44 1576.88 1145.4 1566.08 1136.81 1569.07 1124.42 1581.88 1116.88 1601.75Z" fill="#F8ECA8" transform="matrix(-0.151245 0.988496 1.11465 0.0835688 536.764 875.424)"/><path d="M4516.05 3623.35C4506.58 3631.66 4491.47 3630.39 4471.89 3635.13 4463.54 3637.15 4450.69 3647.06 4443.15 3648.16 4433.17 3649.6 4423.46 3647.84 4418.51 3649.62 4406.06 3654.86 4405.33 3663.81 4394.57 3670.08 4384.81 3675.77 4381.6 3671.29 4372.37 3677.81 4363.56 3684.04 4350.47 3694.22 4348.62 3704.85 4347.16 3713.3 4348.49 3723.09 4353.38 3730.13 4358.76 3737.88 4363.96 3740 4373 3742.7 4377.97 3744.18 4387.42 3743.14 4392.17 3741.09 4404.11 3735.92 4408.92 3723.09 4418.81 3715.91 4427.79 3709.37 4436.79 3709.37 4444.49 3701.37 4448.93 3696.76 4451.28 3689.31 4456.29 3685.34 4463.12 3679.92 4474.06 3679.27 4481.52 3674.78 4490.01 3669.67 4501.63 3654.37 4501.63 3654.37Z" stroke="#808080" stroke-width="7.75808" fill="#CCCCCC" transform="matrix(0.957132 0.289651 -0.289634 0.957188 -952.16 -2634.21)"/><path d="M4361.88 3712.87C4361.88 3712.87 4370.77 3691.42 4379.89 3685.32 4386.11 3681.15 4395.33 3684.61 4401.94 3681.1 4409.65 3677.02 4412.73 3666.69 4420.44 3662.6 4425.13 3660.12 4436.07 3659.61 4436.07 3659.61 4436.07 3659.61 4427.93 3668.27 4424.99 3673.37 4421.13 3680.04 4422.55 3689.99 4416.64 3694.92 4412.77 3698.14 4405.92 3694.86 4401.8 3697.75 4391.54 3704.96 4382.63 3730.1 4382.63 3730.1Z" fill="#ECECEC" transform="matrix(0.957132 0.289651 -0.289634 0.957188 -952.16 -2634.21)"/><path d="M1108.82 1597.62C1105.13 1604.84 1113.79 1612.24 1122.72 1614.79 1131.26 1617.23 1149.11 1613.63 1147.15 1605.46 1143.99 1586.11 1154.56 1568.98 1166.87 1555.1 1139.07 1555.07 1118.16 1572.41 1108.82 1597.62Z" stroke="#806600" stroke-width="7.349" fill="#F0D95C" transform="matrix(0.392881 0.919589 0.991063 -0.516983 120.843 1983.19)"/><path d="M1116.88 1601.74C1116.88 1601.74 1118.69 1604.02 1120.01 1604.42 1121.3 1604.82 1124.03 1603.98 1124.03 1603.98 1125.83 1591.5 1137.43 1576.87 1145.39 1566.07 1136.8 1569.06 1124.42 1581.87 1116.88 1601.74Z" fill="#F8ECA8" transform="matrix(0.392881 0.919589 0.991063 -0.516983 120.843 1983.19)"/><path d="M2683.47 2290.86C2683.47 2290.86 2625.8 2449.36 2621.43 2488.93 2618.47 2515.75 2620.67 2543.94 2628.32 2569.83 2631.52 2580.68 2639.03 2593.47 2645.35 2603.78 2650.01 2611.38 2654.15 2615.73 2660.18 2619.6 2666.19 2623.45 2672.56 2621.7 2678.66 2625.18 2690.4 2631.87 2693.1 2648.81 2703.04 2656.32 2712.05 2663.13 2715.77 2659.07 2724.15 2666.64 2732.16 2673.88 2743.94 2685.56 2744.5 2696.34 2744.95 2704.9 2742.45 2714.46 2736.75 2720.86 2730.48 2727.91 2725.07 2729.4 2715.77 2730.99 2710.66 2731.87 2701.41 2729.71 2696.93 2727.1 2685.7 2720.54 2682.45 2707.23 2673.5 2698.92 2665.36 2691.36 2656.43 2690.28 2649.74 2681.41 2645.88 2676.31 2644.44 2668.63 2639.94 2664.08 2633.81 2657.89 2623.03 2655.94 2616.15 2650.58 2608.34 2644.5 2598.63 2627.92 2598.63 2627.92 2598.63 2627.92 2580.11 2619.52 2566.65 2621.62 2558.53 2622.88 2540.39 2652.47 2532.44 2654.55 2528.55 2655.56 2524.22 2653.34 2520.39 2654.55 2510.37 2657.71 2506.4 2667.19 2496.29 2670.04 2491.86 2671.28 2485.37 2666.09 2480.8 2666.6 2473.67 2667.39 2467.03 2677.23 2460.15 2675.2 2443.76 2670.38 2434.29 2656.81 2431.75 2639.92 2430.16 2629.37 2432.25 2617.62 2439.49 2609.8 2445.68 2603.11 2454.57 2598.16 2463.59 2596.89 2475.79 2595.16 2483.36 2606.23 2495.43 2603.77 2504.71 2601.88 2508.49 2593.44 2517.93 2592.67 2521.4 2592.39 2531.92 2595.7 2535.62 2594.04 2543.11 2590.68 2549.01 2578.75 2556.03 2579.29 2563.81 2579.89 2573.86 2578.75 2578.4 2572.41 2581.76 2567.71 2578.23 2565.21 2577.87 2555.09 2577.33 2539.64 2576.36 2517.37 2574.96 2503.56 2571.14 2466.02 2557.76 2329.61 2557.76 2329.61L2610.77 2232.38Z" stroke="#808080" stroke-width="7.75804" fill="#CCCCCC" transform="matrix(-1 -0.000275528 -0.000275512 1.00006 4925.3 -444.367)"/><path d="M2753.51 770.775 2733.01 728.076C2726.64 744.541 2722.23 755.774 2706.14 776.745 2709.09 793.415 2713.01 824.808 2716.37 857.867 2717.86 872.528 2718.63 894.64 2719.18 910.135 2719.31 913.762 2719.86 915.237 2720.58 918.73 2721.31 922.222 2720.91 930.346 2717.42 935.217 2712.84 941.621 2706.11 944.758 2700.24 946.267 2694.36 947.776 2688.73 947.876 2683.75 947.495 2673.9 946.74 2663.18 964.365 2658.92 961.483 2654.66 958.601 2652.96 958.136 2652.78 958.15 2652.62 958.162 2649.45 959.382 2645.07 962.36 2640.68 965.338 2635.23 969.908 2626.65 971.656 2616.49 973.728 2608.2 969.904 2603.15 967.622 2598.09 965.339 2596.07 964.526 2594.03 964.815 2588.42 965.607 2581.81 969.321 2577.54 973.936 2573.79 977.983 2571.84 986 2572.98 993.581 2574.87 1006.15 2580.73 1013.89 2591.04 1017.61 2591.36 1017.43 2591.27 1017.53 2591.92 1017.08 2594.84 1015.1 2599.22 1010.52 2608.06 1009.54 2615.61 1008.7 2619.17 1011.38 2621.74 1012.35 2622.32 1012.57 2622.41 1012.46 2622.79 1012.52 2624.41 1011.85 2625.86 1011.06 2628.76 1008.49 2632.2 1005.43 2637.24 1000.49 2645.24 997.965 2650.59 996.279 2654.67 997.149 2656.82 997.44 2658.97 997.73 2659.41 997.435 2658.05 997.79 2658.49 997.675 2661.29 993.77 2664.77 991.048 2668.26 988.327 2677.3 964.005 2685.33 962.755 2696.43 961.025 2706.83 963.932 2715.85 966.438 2724.86 968.943 2731.98 971.7 2731.98 971.7 2734.59 972.691 2736.85 974.575 2738.3 976.962 2738.3 976.962 2740.45 980.735 2743.56 985.205 2746.67 989.676 2751.14 994.882 2752.68 996.08 2754.2 997.268 2757.81 998.96 2762.33 1000.99 2766.84 1003.02 2772.41 1005.41 2777.59 1010.64 2786.15 1019.29 2787.36 1027.95 2788.46 1029.41 2790.31 1031.86 2792.25 1033.06 2796 1035.19 2799.75 1037.32 2805.36 1040.04 2810.91 1045.19 2817.29 1051.11 2820.67 1057.64 2823.72 1062.38 2826.76 1067.12 2829.08 1070 2831.96 1071.68 2832.28 1071.86 2835.04 1073.04 2837.57 1073.61 2840.11 1074.17 2843.01 1074.04 2842.48 1074.13 2851.25 1072.63 2851.46 1073.08 2855.99 1067.99 2858.73 1064.91 2860.84 1058.21 2860.55 1052.56 2860.49 1051.52 2859.03 1047.57 2855.81 1043.44 2852.59 1039.3 2848.21 1034.94 2844.41 1031.51 2841.73 1029.08 2842.3 1029.77 2839.5 1029.05 2836.7 1028.34 2830.36 1026.49 2824.24 1021.86 2816.05 1015.67 2812.57 1007.81 2809.33 1002.04 2806.09 996.274 2803.31 992.962 2801.09 991.695 2800.44 991.323 2799.4 990.974 2796.18 990.467 2792.96 989.96 2787.56 989.201 2782.15 985.731 2774.77 981 2768.69 974.583 2763.38 965.911 2756.97 955.449 2748.92 942.315 2744.96 928.903 2736.79 901.237 2734.45 871.415 2737.6 842.958 2741.22 810.094 2745.87 793.464 2753.51 770.775Z" fill="#ECECEC" transform="matrix(-1 -0.000275528 -0.000275512 1.00006 5053.58 1200.26)"/><path d="M1108.79 1597.58C1105.1 1604.8 1113.76 1612.2 1122.69 1614.75 1131.23 1617.19 1149.08 1613.59 1147.12 1605.42 1143.97 1586.07 1154.53 1568.94 1166.85 1555.06 1139.04 1555.03 1118.14 1572.38 1108.79 1597.58Z" stroke="#806600" stroke-width="7.34882" fill="#F0D95C" transform="matrix(0.756173 0.654372 0.664244 -0.899095 283.57 2972.78)"/><path d="M1116.85 1601.7C1116.85 1601.7 1118.67 1603.98 1119.98 1604.38 1121.27 1604.78 1124.01 1603.94 1124.01 1603.94 1125.81 1591.46 1137.4 1576.83 1145.36 1566.03 1136.77 1569.02 1124.39 1581.84 1116.85 1601.7Z" fill="#F8ECA8" transform="matrix(0.756173 0.654372 0.664244 -0.899095 283.57 2972.78)"/><path d="M1126.79 1593.62C1123.1 1600.84 1131.77 1608.24 1140.7 1610.79 1149.23 1613.23 1167.09 1609.63 1165.13 1601.46 1161.97 1582.11 1172.54 1564.98 1184.85 1551.1 1157.05 1551.07 1136.14 1568.41 1126.79 1593.62Z" stroke="#806600" stroke-width="7.34905" fill="#F0D95C" transform="matrix(-0.0646966 0.997905 -1.10656 -0.157928 4320.22 1305.31)"/><path d="M1134.85 1597.74C1134.85 1597.74 1136.67 1600.02 1137.98 1600.42 1139.27 1600.82 1142.01 1599.97 1142.01 1599.97 1143.81 1587.49 1155.41 1572.87 1163.37 1562.07 1154.78 1565.06 1142.39 1577.87 1134.85 1597.74Z" fill="#F8ECA8" transform="matrix(-0.0646966 0.997905 -1.10656 -0.157928 4320.22 1305.31)"/><path d="M1159.25 1285.94C1133.76 1281.15 1111.36 1278.36 1075.47 1193.62 1071.38 1230.28 1066.64 1259.85 1052.33 1296.5 1012.76 1269.5 1004.18 1230.71 1001.9 1195.42 982.684 1240.24 957.265 1285.3 928.249 1294.72 946.645 1233.54 954.398 1181.25 942.906 1095.06 913.451 977.14 685.548 854.617 680.813 696.323 679.197 642.281 696.126 580.736 751.12 532.016L958.741 529.17C958.741 529.17 948.854 744.056 1024.44 884.44 1070.46 969.915 1104.78 1021.59 1115.39 1082.23 1126.6 1146.34 1128.15 1209.25 1159.25 1285.94Z" stroke="#808080" stroke-width="7.75799" fill="#CCCCCC" transform="matrix(1 0 0 1.00006 1265.97 659.512)"/><path d="M960.162 1095.26C956.475 1037.43 911.905 957.009 892.351 867.664 882.814 824.09 866.615 830.219 866.615 830.219 851.985 850.085 874.857 916.681 876.126 961.98L810.857 895.443C748.823 832.205 693.664 762.99 691.573 693.096 690.578 659.838 697.673 623.411 717.099 590.123 732.142 592.716 757.861 595.652 775.447 592.471 769.143 616.537 758.684 652.806 783.602 693.469 795.413 676.586 849.002 657.413 880.838 645.489 890.699 682.744 921.162 731.883 961.192 735.794 971.096 789.072 986.626 844.941 1012.92 893.772 1059.31 979.935 1088.17 1016.67 1097.86 1072.09 1106.3 1120.38 1115.63 1194.05 1131.66 1251.48 1113.87 1238.71 1079.56 1166.78 1067.9 1119.54 1063.01 1172.17 1066.96 1231.93 1044.41 1270.66 1010.24 1214.45 1013.74 1163.83 1007.67 1117.7 992.07 1182.04 962.844 1248.25 950.953 1264.91 963.13 1203.32 963.781 1152.04 960.162 1095.26Z" fill="#ECECEC" transform="matrix(1 0 0 1.00006 1265.97 659.512)"/><path d="M4274.7 2995.45C4281.69 3068.31 4296.24 3114.18 4310.26 3151.49 4324.29 3188.8 4337.6 3217.19 4342.81 3256.45L4353.15 3255.15C4347.73 3214.27 4333.84 3184.73 4319.96 3147.82 4308.53 3117.42 4298.51 3081.51 4289.33 3029.94 4286.4 3013.54 4285.03 2998.04 4274.7 2995.45Z" fill="#808080" transform="matrix(1 0 0 1.00006 -2138.67 -1498.32)"/><path d="M720.273 601.774C720.939 602.648 737.763 607.909 758.859 607.128 753.714 631.509 748.032 672.044 780.527 707.81 809.177 688.22 843.545 673.503 873.517 662.301 879.508 678.949 887.658 696.213 899.595 711.224 912.747 727.763 929.991 741.274 950.459 746.355 960.563 797.993 975.66 851.746 1001.54 899.807 1048.26 986.589 1076.05 1022.07 1085.16 1074.17 1090.15 1102.68 1096.04 1140.38 1103.05 1178.91 1081.36 1155.37 1088.29 1094.7 1065.51 1078.99 1043.55 1127.69 1054.56 1190.11 1043.13 1237.75 1016.38 1203.59 1035.65 1102.53 1008.21 1081.85 991.805 1111.86 984.917 1152.1 974.166 1181.71 975.619 1152.54 974.977 1124.04 973.088 1094.42 965.561 1062.66 937.73 983.747 917.035 916.806 900.059 861.898 900.98 823.602 870.5 811.49 844.769 813.872 850.327 856.44 853.009 874.772 855.034 888.509 855.614 912.585 858.146 927.95L820.323 890.306C756.915 831.201 703.725 758.138 701.82 694.414 700.961 665.713 704.854 630.842 720.274 601.774Z" fill="#FFFFFF" transform="matrix(1 0 0 1.00006 1265.97 659.512)"/><path d="M4356.34 2566.54 4313.39 2540.77C4283.3 2506.91 4262.77 2489.41 4230.33 2475.85 4280.04 2468.88 4315.24 2489.87 4337.25 2506.4Z" stroke="#B60000" stroke-width="7.75799" fill="#E50000" transform="matrix(1 0 0 1.00006 -2138.67 -1498.33)"/><path d="M881.271 183.625C875.054 183.875 868.641 187.2 863.813 190.953 857.022 196.233 854.977 208.841 854.977 208.841 854.977 208.841 813.71 208.766 802.707 218.03 789.015 229.556 776.539 252.952 775.766 270.833 775.164 284.769 788.482 307.256 788.482 307.256 788.482 307.256 789.305 291.008 797.319 284.41 804.19 278.753 831.683 277.225 839.89 280.669 848.925 284.461 857.994 300.654 857.994 300.654 857.994 300.654 871.091 292.663 880.839 294.619 895.208 297.503 910.144 313.579 918.125 325.87 930.537 344.986 941.401 384.061 941.401 384.061 941.401 384.061 908.451 357.946 889.676 348.931 879.779 344.179 865.242 340.659 854.33 339.448 835.943 337.407 810.148 348.716 810.148 348.716 810.148 348.716 834.153 352.92 850.02 356.906 861.674 359.833 878.348 367.62 886.874 376.087 890.763 379.949 893.907 385.491 896.357 391.389 915.049 406.465 940.335 419.391 964.462 425.873L966.833 411.864C966.778 388.88 962.13 365.069 954.979 340.957 954.83 340.454 954.699 339.95 954.548 339.448L941.838 302.163C941.331 300.797 940.841 299.433 940.329 298.068 927.348 263.483 912.364 229.159 902.397 196.341 902.362 196.291 902.431 196.176 902.397 196.126 898.703 190.832 893.262 186.47 887.31 184.487 885.376 183.843 883.348 183.542 881.276 183.625Z" fill="#F9DB54" transform="matrix(1 0 0 1.00006 1265.97 659.509)"/><path d="M881.271 183.625C875.054 183.875 868.641 187.2 863.813 190.953 857.022 196.233 854.977 208.841 854.977 208.841 854.977 208.841 805.185 206.296 794.747 216.193 768.43 241.145 772.35 277.74 788.482 307.256 788.482 307.256 788.555 284.046 793.008 273.634 805.754 243.835 841.191 244.055 862.304 272.421 876.1 247.266 899.136 258.043 911.659 274.576 921.745 281.422 939.716 297.503 940.108 297.852 927.15 263.355 912.334 229.077 902.392 196.341 902.357 196.29 902.426 196.175 902.392 196.125 898.698 190.832 893.256 186.469 887.305 184.487 885.371 183.843 883.343 183.542 881.27 183.625Z" fill="#F8ECA8" transform="matrix(1 0 0 1.00006 1265.97 659.509)"/><path d="M881.271 183.625C875.054 183.875 868.641 187.2 863.813 190.953 857.022 196.233 854.977 208.841 854.977 208.841 777.705 188.973 754.168 253.264 788.482 307.256 793.586 270.7 842.02 263.148 857.994 300.654 857.994 300.654 871.091 292.663 880.84 294.619 895.208 297.503 910.144 313.579 918.125 325.87 930.537 344.986 941.402 384.061 941.402 384.061 941.402 384.061 908.451 357.946 889.676 348.931 879.779 344.179 865.242 340.659 854.33 339.448 835.943 337.407 817.207 348.211 817.207 348.211 817.207 348.211 834.153 352.92 850.02 356.905 861.674 359.832 878.348 367.62 886.874 376.087 890.763 379.948 893.907 385.491 896.357 391.389 915.552 406.871 941.691 420.216 966.403 426.519 973.018 353.579 924.953 270.624 902.392 196.341 902.358 196.291 902.427 196.175 902.392 196.125 898.699 190.832 893.257 186.469 887.306 184.487 885.372 183.843 883.343 183.542 881.271 183.625Z" stroke="#806600" stroke-width="7.75799" fill="none" transform="matrix(1 0 0 1.00006 1265.97 659.509)"/><path d="M4287.57 2398.13C4287.57 2398.13 4294.59 2373.34 4290.31 2366.59 4288.35 2363.51 4284.22 2360.15 4280.75 2361.26 4277.12 2362.42 4275.35 2367.82 4275.85 2371.59 4276.93 2379.81 4287.57 2398.13 4287.57 2398.13Z" fill="#806600" transform="matrix(1 0 0 1.00006 -2138.67 -1498.33)"/><path d="M1143.62 343.129C1143.62 343.129 1124.48 330.355 1109.68 299.014 1085.38 247.562 1055.6 202.744 1006.74 176.847 982.557 164.028 910.543 152.78 902.377 196.077 924.912 270.41 972.94 353.411 966.319 426.415 938.963 419.437 909.944 404.129 890.429 386.482 890.429 386.482 889.807 413.305 868.163 422.749 855.717 428.179 805.941 429.281 777.493 452.988 782.848 465.027 796.378 470.935 814.386 473.484 756.265 497.496 732.706 531.876 705.072 565.035 720.127 578.387 763.292 580.025 803.698 564.857 793.056 593.096 781.895 639.165 790.268 667.404 833.738 640.346 846.742 647.673 896.371 612.86 895.646 670.52 921.895 685.753 955.605 716.109 962.618 677.247 969.358 648.993 970.158 591.493 980.743 604.246 992.057 613.883 1002.95 618.325 1018.34 576.422 1021.06 534.518 1022.08 492.615 1032.49 503.546 1034.22 511.745 1054.88 525.409 1063.3 476.065 1061.84 430.125 1054.88 394.232 1064.06 406.53 1072.11 409.263 1084.94 421.561 1093.47 387.301 1092.66 349.66 1089.04 327.278 1104.34 342.685 1121.09 353.013 1143.62 343.13Z" stroke="#808080" stroke-width="7.75799" fill="#CCCCCC" transform="matrix(1 0 0 1.00006 1265.97 659.509)"/><path d="M951.748 174.358C934.201 174.522 916.997 180.171 912.954 197.204 939.057 270.297 982.496 356.605 977.395 442.468 933.724 431.724 905.327 416.29 896.79 403.243 892.018 416.718 887.482 427.088 875.884 432.554 849.543 444.97 808.112 441.106 796.141 454.753 818.1 471.493 840.702 468.137 872.221 465.96 847.438 480.419 825.094 505.244 823.944 550.661 851.272 550.744 881.622 528.597 912.524 490.315 891.93 523.053 892.596 559.606 901.963 596.999 942.852 565.264 954.867 548.066 956.922 496.565 966.623 520.616 981.552 535.118 1003.47 548.722 1007.94 530.172 1014.07 498.108 1012.88 444.583 1020.16 477.352 1031.78 485.506 1047.23 505.402 1055.41 466.243 1051.38 402.392 1032.14 365.527L1043.56 375.872C1044.25 364.198 1044.84 356.044 1045.5 346.992 1049.18 367.735 1058.56 386.021 1078.91 400.226 1081.87 363.836 1085.51 327.111 1070.07 301.301 1087.79 316.55 1103.9 328.852 1124.6 337.724 1115.82 330.169 1111.86 320.666 1104.99 310.353 1064.16 249.133 1060.47 206.588 980.844 178.884 972.983 176.149 962.279 174.26 951.748 174.358ZM1001.96 338.155 1002.61 338.802C1002.67 339.753 1002.77 340.655 1002.83 341.604 1002.5 340.466 1002.31 339.273 1001.96 338.155ZM854.979 471.995 837.09 473.72C759.333 508.34 748.673 534.256 722.216 562.3 746.275 562.635 756.947 572.126 813.383 550.446 822.803 491.479 846.602 479.83 854.979 471.996ZM959.076 511.436C958.976 541.122 961.998 578.199 997.87 605.189 1002.37 585.145 1005.9 567.616 1006.92 557.989 989.874 553.55 974.409 533.029 959.076 511.436ZM890.971 521.35C868.021 546.322 843.491 559.415 817.047 559.929 807.53 589.891 794.556 619.485 796.572 651.095 830.557 624.675 854.729 634.439 893.557 598.723 885.669 572.955 888.705 547.119 890.971 521.35ZM955.843 543.549C948.071 565.72 941.039 583.425 906.058 603.895 907.935 651.476 929.043 675.088 950.024 697.648 956.203 645.019 963.145 596.179 955.843 543.549Z" fill="#ECECEC" transform="matrix(1 0 0 1.00006 1265.97 659.509)"/><path d="M954.334 183.194C947.332 183.003 940.354 184.03 934.937 185.996 928.555 188.313 924.871 191.847 922.868 197.419 948.8 269.052 991.677 354.864 986.447 442.9 986.204 448.228 980.424 452.563 975.24 451.305 952.869 445.801 934.266 439.136 919.851 431.908 911.632 427.786 905.093 423.471 899.592 418.976 895.273 427.85 886.15 435.181 876.1 439.882 856.274 449.156 824.014 447.777 806.486 454.322 833.198 466.631 869.673 454.3 885.152 461.434 860.211 487.401 837.203 504.429 831.918 542.256 870.946 538.182 906.938 478.957 924.808 469.409 914.568 500.409 902.74 549.66 907.997 579.973 943.279 558.139 948.933 511.378 952.611 481.263 964.085 487.363 973.322 519.87 998.732 533.851 1010.76 479.438 1012.88 363.453 1007.57 339.018 1015.84 347.142 1032.55 359.72 1037.53 363.372 1040.98 343.165 1047.74 305.355 1048.09 276.732 1067.86 294.834 1085.9 307.046 1103.26 318.759 1087.43 293.152 1064.84 253.894 1050.24 237.507 1021.97 205.769 997.384 188.942 961.231 183.842 958.92 183.516 956.669 183.259 954.334 183.195ZM1054.12 292.034C1051.74 313.442 1049.26 332.351 1051.1 348.069 1052.94 363.758 1058.87 376.988 1073.52 389.665 1075.66 367.849 1078.05 348.592 1076.32 332.983 1074.59 317.361 1068.82 304.511 1054.12 292.034ZM1015.76 354.32C1013.19 399.582 1009.34 453.79 1044.21 489.237 1045.19 445.338 1046.11 388.936 1015.76 354.32ZM831.271 485.142C773.569 512.374 756.871 533.415 737.303 556.265 752.864 558.118 767.706 559.608 807.349 544.842 812.329 517.598 820.306 499.274 828.685 487.729 829.54 486.551 830.414 486.207 831.272 485.142ZM965.973 530.833C967.6 551.963 974.704 573.681 993.991 592.257 996.569 580.083 998.891 568.322 999.81 561.437 987.011 555.994 976.155 544.263 965.973 530.833ZM880.626 542.902C862.946 557.454 843.902 566.023 823.728 567.903 816.12 591.093 808.022 613.323 806.056 635.362 818.21 628.575 829.757 623.776 840.324 620.059 854.057 615.23 867.367 609.268 883.859 595.059 879.461 577.181 879.444 559.882 880.626 542.902ZM950.456 573.076C943.334 584.571 932.469 595.981 914.464 607.344 916.689 641.583 928.848 661.748 944.206 679.544 948.504 643.281 952.151 608.355 950.456 573.076Z" fill="#FFFFFF" transform="matrix(1 0 0 1.00006 1265.97 659.509)"/><path d="M4345.3 2375.29C4331.51 2388.43 4335.88 2409.81 4346.04 2419.59 4370.48 2436.36 4396.38 2432.16 4405.51 2420.87 4420.32 2386.59 4363.66 2355.85 4345.3 2375.29Z" stroke="#808080" stroke-width="7.75799" fill="#FFFFFF" transform="matrix(1 0 0 1.00006 -2138.67 -1498.33)"/><path d="M5559.32 3185.01C5559.32 3195 5550.73 3203.11 5540.13 3203.11 5529.53 3203.11 5520.94 3195 5520.94 3185.01 5520.94 3175.02 5529.53 3166.91 5540.13 3166.91 5550.73 3166.91 5559.32 3175.02 5559.32 3185.01Z" fill="#61521A" transform="matrix(-1 0 0 1.06067 7766.56 -2477.94)"/><path d="M6769.23 3880.73C6761.91 3880.73 6756.89 3885.86 6756.89 3891.75 6756.89 3897.63 6761.91 3902.77 6769.23 3902.77 6776.55 3902.77 6782.01 3897.36 6782.01 3891.75 6782.01 3886.13 6776.55 3880.73 6769.23 3880.73Z" transform="matrix(-1 0 0 1.14007 8995 -3536.95)"/><path d="M10488.7 5987.64C10488.7 5991.09 10486.3 5993.9 10483.3 5993.9 10480.2 5993.9 10477.8 5991.09 10477.8 5987.64 10477.8 5984.18 10480.2 5981.38 10483.3 5981.38 10486.3 5981.38 10488.7 5984.18 10488.7 5987.64Z" fill="#FFFFFF" transform="matrix(-1.14279 0 0 1 14201.1 -5095.1)"/></g></g></g><path d="M2124.01 1645.5C2124.01 1645.5 2178.36 1719.5 2184.65 1763.17 2189.13 1794.32 2175.14 1825.53 2166.81 1855.88 2158.45 1886.33 2138.12 1913.62 2134.72 1945.02 2131.75 1972.43 2145.41 2027.03 2145.41 2027.03 2145.41 2027.03 2181.39 1939.54 2209.61 1902.23 2239.04 1863.33 2294.63 1845.94 2316.61 1802.39 2330.62 1774.62 2310.93 1736.13 2327.31 1709.68 2365.74 1647.63 2467.02 1657.93 2466.4 1659.76 2466.4 1659.76 2392.58 1709.43 2380.8 1748.91 2369.74 1785.99 2412.6 1825.73 2402.2 1863.01 2390.23 1905.99 2328.94 1921.16 2313.04 1962.85 2301.6 1992.83 2308.23 2027.39 2313.04 2059.12 2318.46 2094.8 2345.14 2162.53 2345.14 2162.53 2345.14 2162.53 2368.24 2073.26 2391.51 2034.16 2406.14 2009.56 2448.57 1969.98 2448.57 1969.98 2448.57 1969.98 2454.46 2039.14 2473.54 2066.25 2491.75 2092.14 2552 2119.74 2552 2119.74 2552 2119.74 2608.4 2067.24 2626.9 2034.16 2644.53 2002.66 2630.45 1952.85 2659 1930.76 2678.77 1915.46 2710.27 1935.33 2733.9 1927.19 2766.95 1915.8 2819.5 1866.57 2819.5 1866.57 2819.5 1866.57 2816.24 1948.35 2794.54 1980.68 2771.19 2015.44 2709.29 2014.27 2691.1 2051.99 2676.1 2083.11 2698.24 2155.4 2698.24 2155.4L2780.27 2073.39C2780.27 2073.39 2786.06 2079.88 2793.77 2089.51L2797.96 2094.9 2700.31 2164.46C2557.59 2259.23 2389.67 2345.24 2200.72 2430.5 1917.3 2302.61 1681.19 2173.02 1506.46 2014.76L1471.5 1980.03 1472.1 1965.5C1478.38 1922.3 1513.01 1882.46 1514.13 1838.05 1515.53 1781.85 1474.89 1674.03 1474.89 1674.03 1474.89 1674.03 1563.68 1777.62 1578.32 1841.61 1586.05 1875.39 1560.34 1911.14 1567.62 1945.02 1580.05 2002.82 1656.79 2098.34 1656.79 2098.34L1681.76 2009.2 1753.09 2123.3C1753.09 2123.3 1810.69 2087.08 1827.99 2059.12 1838.3 2042.45 1841.72 2021.66 1842.26 2002.07 1843.12 1970.61 1824.42 1909.36 1824.42 1909.36 1824.42 1909.36 1895.97 1935.73 1920.72 1962.85 1950.5 1995.48 1974.21 2084.08 1974.21 2084.08 1974.21 2084.08 1972.19 1989.59 1992.05 1948.58 2017.32 1896.38 2084.26 1873.98 2113.32 1823.78 2126.32 1801.32 2132.45 1774.76 2134.72 1748.91 2137.75 1714.39 2124.01 1645.5 2124.01 1645.5Z" stroke="#806600" stroke-width="5.15643" stroke-miterlimit="8" fill="#F5C701" fill-rule="evenodd"/><path d="M2397.14 1696C2381.39 1711.14 2366.17 1727.66 2359.67 1749.45 2351.24 1777.75 2363 1802.22 2371.08 1821.48 2379.16 1840.74 2383.67 1854.9 2381.18 1863.85 2377.67 1876.45 2364.6 1888.37 2346 1902.63 2327.38 1916.89 2303.62 1932.95 2292.57 1961.95 2278.04 2000.05 2286.55 2038.7 2291.27 2069.83 2297.68 2112.14 2324.49 2178.03 2324.49 2178.03 2327.94 2186.79 2337.38 2192.8 2346.78 2192.23 2356.17 2191.66 2364.8 2184.54 2367.17 2175.42 2367.17 2175.42 2372.64 2153.76 2381.18 2127.19 2389.71 2100.61 2401.66 2068.82 2411.15 2052.88 2414.87 2046.62 2424.84 2036.01 2433.62 2026.15 2437.51 2046.35 2442.77 2068.41 2455.45 2086.45 2469.09 2105.85 2489.82 2118.65 2508.22 2129.47 2526.62 2140.29 2542.76 2147.72 2542.76 2147.72 2550.86 2151.37 2561.08 2149.62 2567.51 2143.48 2567.51 2143.48 2582.18 2130.02 2599.11 2112.2 2616.04 2094.37 2635.15 2073.18 2646.67 2052.55 2659.19 2030.17 2659.17 2006.73 2661.33 1988.67 2663.48 1970.62 2666.67 1960.7 2673.06 1955.76 2674.64 1954.53 2679.53 1953.53 2691.95 1955.43 2704.36 1957.33 2721.42 1962.34 2741.46 1955.43 2758.73 1949.48 2775.05 1938.64 2790 1927.4 2786.16 1946.66 2781.33 1968.18 2776.32 1975.64 2769.85 1985.28 2753.41 1993.11 2732.34 2002.04 2711.28 2010.97 2684.58 2021.65 2671.1 2049.62 2658.77 2075.21 2663.25 2102.94 2667.19 2126.54 2671.13 2150.13 2676.97 2169.23 2676.97 2169.23L2681.42 2175.92 2588.51 2233.81C2510.98 2279.29 2427.41 2323.09 2338.31 2366.19L2218.71 2422 2182.5 2422 2062.9 2366.19C1840.17 2258.43 1651.93 2146.37 1506.32 2014.38L1497.04 2005.16 1494.13 1989.98C1492.86 1971.69 1500.9 1951.34 1511.72 1927.73 1522.55 1904.11 1536.01 1877.78 1536.81 1845.92 1537.17 1831.61 1534.75 1815.57 1531.92 1799.64 1543.64 1820.04 1553.44 1839.56 1556.68 1853.74 1558.95 1863.68 1556.02 1877.48 1551.47 1894.81 1546.91 1912.13 1540.8 1933.2 1545.93 1957.06 1553.61 1992.8 1577.01 2030.93 1598.38 2062.98 1619.74 2095.03 1639.42 2119.69 1639.42 2119.69 1644.55 2126.05 1653.33 2129.24 1661.34 2127.64 1669.35 2126.03 1676.23 2119.72 1678.51 2111.87L1689.91 2071.78 1734.22 2142.83C1740.56 2152.88 1755.54 2156.16 1765.49 2149.68 1765.49 2149.68 1780.64 2140.39 1798.07 2127.19 1815.49 2113.99 1835.34 2098.11 1847.58 2078.3 1861.15 2056.34 1864.57 2031.69 1865.17 2009.86 1865.65 1992.66 1862.25 1973.86 1858.33 1956.41 1876.8 1965.7 1897.39 1977.87 1904.26 1985.41 1914.36 1996.48 1928.49 2025.74 1937.82 2050.92 1947.14 2076.11 1952.8 2097.2 1952.8 2097.2 1955.4 2108 1966.95 2115.82 1977.94 2114.2 1988.91 2112.58 1997.73 2101.77 1997.11 2090.68 1997.11 2090.68 1996.56 2068.15 1998.41 2040.49 2000.25 2012.84 2005.58 1979.65 2012.42 1965.53 2022.2 1945.31 2042.12 1928.7 2065.51 1910.45 2088.9 1892.21 2115.7 1872.71 2133.27 1842.34 2148.65 1815.75 2154.93 1785.84 2157.38 1757.92 2159.29 1763.29 2162.37 1769.82 2162.92 1773.57 2166.16 1796.1 2154.33 1824.17 2145.33 1857 2138.53 1881.75 2116.71 1910.25 2112.42 1949.89 2110.37 1968.88 2113.78 1989.65 2116.99 2007.58 2120.19 2025.5 2123.82 2039.84 2123.82 2039.84 2126.11 2048.99 2134.7 2056.19 2144.1 2056.84 2153.5 2057.48 2162.99 2051.53 2166.5 2042.77 2166.5 2042.77 2175.09 2021.5 2187.35 1995.52 2199.6 1969.53 2215.95 1938.76 2227.74 1923.16 2239.31 1907.85 2258.35 1894.55 2279.21 1879.49 2300.07 1864.44 2323.31 1847.06 2337.2 1819.52 2347.98 1798.14 2345.13 1777.28 2344.04 1761.18 2342.94 1745.08 2343.45 1734.28 2346.97 1728.59 2357.85 1711.01 2377.04 1702.06 2397.14 1696Z" fill="#FEDA36" fill-rule="evenodd"/><path d="M2689.67 1983.53C2693.22 1984.16 2698.77 1984.96 2704 1985.81 2698.94 1988.14 2694.38 1990.15 2689.01 1993.31 2689.05 1993.05 2688.98 1992.58 2689.01 1992.33 2690.24 1982.12 2689.52 1984.62 2689.67 1983.53ZM1523.3 1975.71C1528.9 1994.97 1536.82 2013.28 1545.81 2030.49L1566.92 2065.59 1538.31 2041.79 1533.01 2029.22C1526.19 2011.59 1521.57 1996.34 1521.02 1988.42 1520.8 1985.23 1522.27 1980.31 1523.3 1975.71ZM2350.41 1847C2351.11 1849.56 2353.98 1858.33 2354.32 1857.1 2353.85 1858.78 2347.26 1867.16 2328.91 1881.21 2310.54 1895.27 2281.21 1913.59 2266.34 1952.58 2248 2000.61 2259.12 2044.09 2263.73 2074.44 2271.37 2124.85 2298.59 2188.49 2298.59 2188.49 2306.22 2208.06 2327.23 2221.54 2348.19 2220.32 2369.15 2219.1 2388.46 2203.27 2393.75 2182.95 2393.75 2182.95 2399.15 2161.82 2407.44 2136.03 2413.12 2118.37 2419.64 2103.8 2426.02 2089.11 2428.47 2093.63 2429.29 2097.86 2432.54 2102.47 2451.75 2129.77 2474.76 2142.04 2494.46 2153.62 2514.15 2165.2 2531.28 2173.18 2531.28 2173.18 2549.25 2181.35 2571.99 2177.58 2586.36 2164.05 2586.36 2164.05 2601.39 2149.94 2618.95 2131.47 2624.87 2125.24 2631.04 2118.18 2637.19 2111.26 2638.21 2117.96 2638.77 2125.3 2639.8 2131.47 2644.09 2157.09 2650.55 2177.74 2650.55 2177.74 2651.8 2181.86 2653.62 2185.79 2655.9 2189.43L2657.38 2191.24 2588.47 2234.16C2510.9 2279.63 2427.29 2323.41 2338.17 2366.51L2238.47 2413 2162.33 2413 2062.64 2366.51C1928.95 2301.87 1807.68 2235.68 1700.59 2164.56L1680.03 2149.92 1697 2135.38 1710.69 2157.53C1724.58 2179.82 1757.52 2187.43 1779.78 2173.5 1779.78 2173.5 1795.85 2163.38 1814.32 2149.39 1832.8 2135.4 1854.05 2120.29 1870.7 2093.34 1886.18 2068.29 1890.22 2042.92 1891.56 2020.35 1897.99 2031.57 1905.42 2043.64 1911.76 2060.76 1920.62 2084.66 1926.1 2104.75 1926.1 2104.75 1932.46 2128.1 1957.71 2144.64 1981.66 2141.15 2005.61 2137.66 2025.08 2114.61 2024.52 2090.41 2024.52 2090.41 2024.07 2068.8 2025.82 2042.51 2027.58 2016.22 2033.88 1984.25 2036.91 1977.99 2043.19 1965.01 2059.04 1950.43 2082.2 1932.37 2084.29 1930.75 2086.85 1928.52 2089.05 1926.83 2087.54 1933.44 2085.62 1939.55 2084.81 1947.04 2082.05 1972.5 2086.31 1993.92 2089.7 2012.86 2093.09 2031.79 2096.87 2046.75 2096.87 2046.75 2102 2066.97 2121 2082.87 2141.82 2084.37 2162.64 2085.87 2183.71 2072.87 2191.7 2053.59 2191.7 2053.59 2200.29 2032.94 2212.23 2007.64 2224.17 1982.35 2240.78 1952.01 2249.71 1940.19 2257.43 1929.98 2273.87 1917.88 2295.34 1902.39 2313.06 1889.61 2333.56 1871.53 2350.41 1847Z" fill="#FEE05B" fill-rule="evenodd"/><path d="M2059.81 2025C2062.78 2039.98 2066.33 2054.61 2066.33 2054.61 2074.74 2087.4 2105.61 2113.14 2139.45 2115.57 2173.28 2117.99 2207.52 2096.93 2220.55 2065.68 2220.55 2065.68 2226.18 2053.56 2228.38 2048.43 2230.02 2058.88 2231.42 2071.16 2232.61 2079.02 2241.66 2138.57 2269.13 2199.75 2269.13 2199.75 2281.54 2231.56 2315.76 2253.47 2349.9 2251.46 2384.03 2249.45 2415.43 2223.68 2424.01 2190.64 2424.01 2190.64 2429.24 2171.48 2435.75 2150.62 2450.79 2163.39 2465.46 2172.93 2478.46 2180.55 2499.63 2192.98 2517.91 2201.38 2517.91 2201.38 2547.06 2214.8 2584.07 2208.89 2607.58 2187.06 2607.58 2187.06 2615.68 2179.18 2618.33 2176.65 2618.82 2178.33 2620.62 2186.74 2620.62 2186.74 2622.56 2193.05 2625.32 2199.08 2628.76 2204.7L2631 2207.55 2588.49 2233.98C2510.88 2279.39 2427.24 2323.11 2338.07 2366.15L2256.76 2404 2143.7 2404 2062.4 2366.15C1973.23 2323.11 1889.58 2279.39 1811.98 2233.98L1772 2209.12 1796.04 2200.08C1796.04 2200.08 1813.2 2189.24 1832.88 2174.37 1851.98 2159.93 1874.05 2144.77 1895.16 2111.89 1895.16 2111.91 1895.48 2112.87 1895.48 2112.87 1905.91 2150.66 1946.86 2177.4 1985.73 2171.79 2024.62 2166.18 2056.29 2128.96 2055.57 2089.76 2055.57 2089.76 2055.23 2069.56 2056.88 2044.85 2057.49 2035.61 2058.25 2033.9 2059.81 2025Z" fill="#FEE676" fill-rule="evenodd"/><path d="M2086.38 2143C2122.23 2162.39 2167.82 2162.51 2203.77 2143.32 2215.86 2185.47 2229.85 2214.95 2229.85 2214.95 2247.83 2260.26 2294.79 2292.51 2343.59 2293.06 2392.39 2293.62 2440.06 2262.45 2459.07 2217.56 2480.9 2230.16 2500.48 2239.37 2500.48 2239.37 2512.02 2244.69 2524.39 2248.22 2537 2249.79 2529.71 2255.1 2522.95 2260.89 2516.68 2267L2504.81 2280.05 2467.79 2300.57C2384.27 2344.57 2294.96 2387.38 2200.4 2430 2105.83 2387.38 2016.53 2344.57 1933.01 2300.57L1817 2236.26 1818.69 2235.47C1818.69 2235.47 1837.19 2223.88 1858.47 2207.79 1868.43 2200.26 1879.23 2192.52 1890.75 2182.4 1919.37 2208.37 1960.64 2219.75 1998.55 2212.12 2036.46 2204.48 2070.09 2178.02 2086.38 2143Z" fill="#FEEA8A" fill-rule="evenodd"/></g></svg>