<svg xmlns="http://www.w3.org/2000/svg" viewBox="0 0 170.74 170.74">
  <defs>
    <style>
      .cls-1 {
        fill: #fff;
        stroke-miterlimit: 3.86;
        stroke-width: 0.66px;
      }

      .cls-1, .cls-6 {
        stroke: #878787;
      }

      .cls-2 {
        fill: #005d22;
      }

      .cls-2, .cls-3, .cls-4 {
        fill-rule: evenodd;
      }

      .cls-3 {
        fill: #1d1d1b;
      }

      .cls-4, .cls-5 {
        fill: #878787;
      }

      .cls-6 {
        fill: none;
        stroke-miterlimit: 3.86;
        stroke-width: 1.52px;
      }
    </style>
  </defs>
  <g id="Layer_2" data-name="Layer 2">
    <g id="Layer_1-2" data-name="Layer 1">
      <g>
        <circle class="cls-1" cx="85.37" cy="85.37" r="85.04"/>
        <path class="cls-2" d="M67.17,83.77c0,.53-.07,1.06-.07,1.6a18.27,18.27,0,1,0,36.54,0c0-.54,0-1.07-.07-1.6h16.07c0,.53,0,1.06,0,1.6a34.32,34.32,0,0,1-24.84,33,10.05,10.05,0,0,0-18.92,0,34.32,34.32,0,0,1-24.85-33c0-.54,0-1.07,0-1.6Zm18.2-36.94a38.55,38.55,0,0,0-10,75.77,10,10,0,0,0,20,0,38.56,38.56,0,0,0,28.54-37.23c0-.54,0-1.07,0-1.6h16c0,.53,0,1.07,0,1.6a54.55,54.55,0,1,1-2-14.56H121.06A38.54,38.54,0,0,0,85.37,46.83ZM67.16,56.3h16.1V83.77H67.16Zm20.33,0h16.1V83.77H87.49Z"/>
        <path class="cls-3" d="M42.74,140.91c-1.4,1.56-2.88,2.68-5,2.74-1,0-2.48-.22-4.51-2A6.8,6.8,0,0,1,31,138a2.79,2.79,0,0,1,.76-2.13c.19-.21.27-.33.16-.43s-.2,0-.42.2-1,1.05-1.46,1.52-.73.67-.84.79-.11.18,0,.35a15.84,15.84,0,0,1,1.35,1.62,16.66,16.66,0,0,0,2,2.17c2.34,2.12,4.37,2.65,6.11,2.56A8.23,8.23,0,0,0,44.22,142a7.82,7.82,0,0,0,2.21-6.16,8.62,8.62,0,0,0-2.65-5.29l1.57.06c.23,0,.35,0,.39,0s0-.15-.11-.35c-.66-1.06-.49-1.65-.09-2.1s1.37-.33,2,.09c.18.14.33.24.46.11s0-.21-.09-.3a4.47,4.47,0,0,0-1.44-.8,2.05,2.05,0,0,0-2.2.28c-.57.62-.32,1.51.55,2.45-.21,0-1.12,0-1.57,0a3.17,3.17,0,0,0-.32-.31,11.78,11.78,0,0,0-3.06-2.12.7.7,0,0,0-.79.08A19.76,19.76,0,0,0,37,129.3c-.11.12-.18.26-.1.33s.18,0,.36-.1a3.94,3.94,0,0,1,1.71-.77c1.17-.07,2.2.6,3.34,1.63A7.39,7.39,0,0,1,42.74,140.91Z"/>
        <path class="cls-3" d="M30.53,126.42c2.54-1.58,3.34-3,3.63-4.37a6.3,6.3,0,0,0-1-4.35,6,6,0,0,0-3.52-2.78c-2.1-.62-4.32.48-6.2,1.65l-1.86,1.16c-2.71,1.7-3.19,2-3.77,2.32s-1,.38-1.4,0a4.56,4.56,0,0,1-.32-.4c0-.07-.12-.12-.19-.07s-.09.17,0,.36c.33.52.89,1.31,1,1.43s.61,1.09,1.1,1.87c.12.19.21.26.31.19s.06-.13,0-.2a3.66,3.66,0,0,1-.32-.62c-.24-.65,0-1,.53-1.37s1-.69,3.73-2.38l2.17-1.36c1.79-1.12,3.4-1.83,4.89-1.65a4.35,4.35,0,0,1,3,1.94A4.06,4.06,0,0,1,33,121c-.25,1.19-1,2.42-3.48,4l-2.43,1.52c-2.71,1.7-3.2,2-3.78,2.31s-1,.41-1.39,0a3.51,3.51,0,0,1-.33-.4.15.15,0,0,0-.19-.08c-.1.07-.08.18,0,.37.32.52,1,1.53,1.13,1.69s.7,1.25,1.19,2c.12.19.21.26.32.19s.06-.13,0-.2a4.58,4.58,0,0,1-.31-.63c-.24-.65,0-1,.52-1.36s1-.69,3.73-2.38Z"/>
        <path class="cls-3" d="M21.25,107.39c1.9-.51,3.47-.93,4.33-1,.59-.08,1.05-.1,1.24.28a3.14,3.14,0,0,1,.24.57c0,.12.1.14.16.13s.13-.14.07-.36c-.16-.59-.52-1.73-.57-1.89s-.29-1.32-.55-2.29c-.06-.22-.14-.3-.24-.27s-.11.07-.08.19a5.64,5.64,0,0,1,.13.79c.08.62-.32.85-.88,1.06-.81.33-2.37.75-4.27,1.25l-1.94.52,0-.09c.92-1.27,4.33-6.68,4.82-7.77a4.2,4.2,0,0,0,.56-2.71,12.05,12.05,0,0,0-.32-1.38l-.27-1c-.09-.34-.18-.42-.28-.39s-.08.15-.05.29a3.66,3.66,0,0,1,.07,1.29c-.14,1.06-.36,1.48-1.46,3.56-.54,1-3.69,6.27-4.13,6.94-.6-.29-4.89-2.83-5.5-3.2A7.43,7.43,0,0,1,10,100.17a3,3,0,0,1-.58-1c0-.16-.09-.19-.19-.17s-.12.12-.06.34c.13.49.54,1.78.57,1.88.13.48.23,1.11.34,1.5,0,.14.1.23.2.2s.1-.11.11-.22a.42.42,0,0,1,.35-.37c.33-.08,1,.29,1.71.69,1,.51,5.57,3.12,6,3.35l0,.08-1.18.32c-3.09.83-3.65,1-4.29,1.1s-1.08.08-1.33-.43a3.82,3.82,0,0,1-.19-.47c0-.08-.08-.15-.16-.13s-.13.14-.07.36c.16.59.52,1.72.57,1.9s.29,1.31.52,2.2c.06.21.13.3.25.27s.1-.11.07-.19a5.88,5.88,0,0,1-.12-.69c0-.69.24-.93.9-1.15s1.18-.36,4.27-1.19Z"/>
        <path class="cls-3" d="M17,90.74c3,.05,4.44-.7,5.42-1.69A6.27,6.27,0,0,0,24,84.86a6,6,0,0,0-1.44-4.25c-1.43-1.67-3.88-2-6.09-2l-2.2,0c-3.19-.06-3.77-.07-4.42-.12s-1-.22-1.16-.78a4.26,4.26,0,0,1-.05-.51c0-.08,0-.17-.12-.17s-.17.1-.17.33c0,.61,0,1.58,0,1.72s-.08,1.25-.1,2.17c0,.23,0,.33.16.33a.15.15,0,0,0,.13-.16,4.05,4.05,0,0,1,.07-.7c.16-.67.49-.83,1.18-.86s1.23,0,4.43,0l2.56,0c2.11,0,3.85.32,5,1.28a4.29,4.29,0,0,1,1.42,3.24A4,4,0,0,1,22,87.51c-.86.87-2.14,1.5-5.09,1.45l-2.87,0c-3.19-.06-3.77-.07-4.42-.12S8.54,88.56,8.47,88a4.46,4.46,0,0,1-.05-.51c0-.09,0-.17-.12-.17s-.17.1-.17.33c0,.61,0,1.84,0,2S8.07,91.12,8.05,92c0,.23,0,.33.16.33a.15.15,0,0,0,.13-.16,4.05,4.05,0,0,1,.07-.7c.16-.67.49-.83,1.18-.86s1.23,0,4.43,0Z"/>
        <path class="cls-3" d="M11.72,65.79a.24.24,0,0,1-.19-.23,6.1,6.1,0,0,1,.28-1.35c.64-2.09,2.51-2.94,5-2.19a3.74,3.74,0,0,1,2.65,2.12,2.64,2.64,0,0,1-.07,1.58,5.66,5.66,0,0,1-1,2,.26.26,0,0,1-.27.06Zm7.67,4.06c1.88.58,3.43,1.05,4.22,1.4.55.25.95.48.91.9a4.09,4.09,0,0,1-.1.61c0,.12,0,.18.07.19s.18,0,.25-.26c.18-.59.5-1.84.5-1.86s.47-1.32.8-2.4c.07-.21,0-.33-.06-.36s-.13,0-.17.12a6.5,6.5,0,0,1-.35.86c-.25.57-.72.55-1.31.44-.85-.16-2.4-.63-4.28-1.21l-.47-.14c-.1,0-.15-.09-.12-.18l.78-2.4a.32.32,0,0,1,.2-.22c.63-.24,2.22-.76,3.55-1.25,1.81-.67,3-1.06,3.69-1.77a4.07,4.07,0,0,0,1-2L28.94,59c.11-.35.1-.48,0-.52s-.15,0-.17.14a6.46,6.46,0,0,1-.3.75,4.28,4.28,0,0,1-2.14,2c-1.56.76-3.71,1.56-6.26,2.54-1.09-2.26-2.36-3.31-3.81-3.76a3.58,3.58,0,0,0-3.07.54,6.22,6.22,0,0,0-2,3.32c-.19.61-.59,2.12-.65,2.34s-.47,1.31-.74,2.19c-.06.22-.06.33.06.36s.14,0,.17-.12a3.67,3.67,0,0,1,.26-.65c.34-.6.7-.66,1.38-.5s1.18.32,4.24,1.26Z"/>
        <path class="cls-3" d="M23.54,51.84c-3.76-2.45-4.26-5.82-2.39-8.69,1.76-2.72,5.61-3.79,9.73-1.11,5,3.25,3.82,7,2.82,8.57C31.69,53.71,27.55,54.44,23.54,51.84ZM23,53.78c3.1,2,8,2.43,11.09-2.28a8,8,0,0,0-2.58-11.42c-4-2.6-8.32-1.3-10.83,2.57A7.93,7.93,0,0,0,23,53.78Z"/>
        <path class="cls-3" d="M35.06,30.09a8.31,8.31,0,0,1-1.52-.95.43.43,0,0,1-.06-.49,2.61,2.61,0,0,1,.53-.58c.11-.09.14-.16.07-.24s-.23,0-.52.25c-.59.5-1.26,1.14-1.42,1.27s-1.12.86-1.87,1.49c-.25.21-.4.36-.32.46s.12.08.22,0a3.18,3.18,0,0,1,.65-.44c.68-.3,1.06-.33,2.14.26l11.92,6.4c.94.5,1.2.66,1.39.5s0-.44-.35-1.75c-.28-1.07-1-3.36-2-6.45-.82-2.61-1.62-5.15-1.81-5.73-.48-1.43-.46-1.89-.38-2.2a1.94,1.94,0,0,1,.6-.83c.12-.1.16-.18.09-.26s-.18,0-.36.11c-.45.38-1.09,1-1.18,1.08s-1,.71-1.58,1.24c-.25.21-.32.32-.24.42s.16,0,.25-.06a2.72,2.72,0,0,1,.65-.43.49.49,0,0,1,.51.19,2.88,2.88,0,0,1,.36.71c.6,1.42,3.1,8.67,4,11.53Z"/>
        <path class="cls-3" d="M54.39,24.21c-.06,0-.11,0-.12-.11l-.7-5.77c0-.33,0-.37.27-.13L58,22.39c0,.06.08.12,0,.16Zm-.69,5.31c.1,1.09.06,2-.75,2.48a5.54,5.54,0,0,1-.52.29c-.09,0-.15.11-.11.19s.18.09.42,0c.87-.41,1.87-.94,2.07-1s1-.42,1.48-.62c.16-.08.26-.17.21-.28s-.11-.09-.24,0l-.19.09a.69.69,0,0,1-1-.21A4.19,4.19,0,0,1,54.8,29l-.42-3.8a.22.22,0,0,1,.11-.24l4-1.86c.09-.05.14,0,.22,0l3.85,3.77c.25.24.22.46.13.55s-.11.12-.07.19.25,0,.62-.13c1.29-.56,2.65-1.19,2.93-1.32s.35-.21.3-.32-.13-.08-.24,0a2.55,2.55,0,0,1-.79.24c-.44.07-1.12,0-2.56-1.32-2.45-2.3-8.94-8.61-9.55-9.18s-.61-.53-.72-.48-.14.2-.07.91Z"/>
        <path class="cls-3" d="M80.22,6.72a.88.88,0,0,0,.86-1A.81.81,0,0,0,80.17,5a.86.86,0,0,0-.85.91A.85.85,0,0,0,80.22,6.72Zm4.11-.14a.88.88,0,0,0,.87-1,.81.81,0,0,0-.91-.78.86.86,0,0,0-.85.91A.85.85,0,0,0,84.33,6.58Zm-8.11,10.8c.1,3,.93,4.4,2,5.33A6.25,6.25,0,0,0,82.46,24a6,6,0,0,0,4.17-1.66c1.58-1.51,1.74-4,1.67-6.19L88.22,14c-.11-3.2-.13-3.77-.11-4.43s.17-1,.71-1.19a2.67,2.67,0,0,1,.51-.08c.09,0,.17,0,.16-.13S89.39,8,89.16,8c-.61,0-1.57.11-1.72.12s-1.25,0-2.17,0c-.23,0-.33.06-.32.18s.08.12.16.12a4,4,0,0,1,.7,0c.68.12.86.45.92,1.14s.09,1.23.2,4.42L87,16.57c.07,2.11-.11,3.86-1,5.06a4.3,4.3,0,0,1-3.17,1.59,4,4,0,0,1-3.13-1c-.91-.81-1.61-2.05-1.71-5l-.1-2.87c-.11-3.2-.13-3.77-.12-4.43s.17-1.09.72-1.19A2.67,2.67,0,0,1,79,8.63a.15.15,0,0,0,.16-.13c0-.12-.11-.16-.33-.15-.62,0-1.84.12-2,.13s-1.43,0-2.36,0c-.22,0-.32.05-.32.18s.09.12.17.11a5.37,5.37,0,0,1,.7,0c.68.12.85.44.92,1.14s.08,1.23.2,4.42Z"/>
        <path class="cls-3" d="M99.41,12.13c.44.88,2,4,3.63,7.07,1.49,2.81,3.56,6.49,3.72,6.74.77,1.33,1,1.62,1.11,1.66s.21-.05.56-1.36l3.15-11.59c.32-1.19.51-1.6,1.2-1.56a1.89,1.89,0,0,1,.49.06c.14,0,.24,0,.26-.08s-.1-.17-.32-.23c-.81-.22-1.48-.33-1.7-.39s-1.16-.38-2.05-.61c-.23-.07-.4-.09-.43,0s0,.14.12.18a4.73,4.73,0,0,1,.94.36c.57.32.6.79.27,2.08l-2.48,10.12c-.45-.82-2-3.82-3.36-6.44-2.16-4.08-4.25-8.06-4.46-8.47-.15-.25-.37-.78-.53-.82s-.28.16-.49.93L96,21.15c-.49,1.8-.74,2.35-1.27,2.35a3,3,0,0,1-.85-.1c-.09,0-.16,0-.19.08s.08.19.28.24c.89.24,1.74.41,1.92.45s1,.32,2.08.63c.24.06.37.05.4-.07s0-.13-.13-.16a4.7,4.7,0,0,1-1-.38c-.49-.3-.55-.87-.16-2.51Z"/>
        <path class="cls-3" d="M121.14,23.67c1.55-2.8,1.83-3.3,2.19-3.85s.69-.84,1.22-.66a3.17,3.17,0,0,1,.48.2.15.15,0,0,0,.21,0c.06-.11,0-.19-.21-.3-.54-.3-1.7-.87-1.79-.92s-1.19-.73-1.78-1.06c-.2-.11-.31-.12-.37,0s0,.15.09.19a2.77,2.77,0,0,1,.51.38c.35.31.36.71.06,1.34s-.56,1.1-2.11,3.89L117.89,26c-1,1.72-1.74,3.14-2.25,3.84-.36.48-.67.82-1.06.7a3.69,3.69,0,0,1-.58-.23c-.11-.06-.17,0-.2,0s0,.19.2.3c.54.3,1.7.87,1.79.92s1.19.73,2.17,1.28c.2.11.32.1.37,0s0-.12-.08-.18-.54-.35-.77-.52c-.5-.37-.39-.83-.15-1.38.33-.8,1.11-2.22,2.06-3.94Z"/>
        <path class="cls-3" d="M132.4,27.24a7.78,7.78,0,0,1,.72-1.63.43.43,0,0,1,.48-.13,2.08,2.08,0,0,1,.64.45c.11.09.18.1.25,0s0-.23-.31-.48c-.58-.52-1.31-1.09-1.46-1.23s-1-1-1.74-1.65c-.24-.22-.41-.34-.49-.25s-.07.13,0,.22a3.22,3.22,0,0,1,.53.58c.39.63.47,1,0,2.16L126.4,38c-.37,1-.48,1.28-.3,1.44s.43,0,1.68-.58c1-.43,3.19-1.46,6.12-2.85,2.47-1.17,4.87-2.31,5.42-2.59,1.35-.66,1.81-.72,2.13-.67a1.85,1.85,0,0,1,.9.47c.12.11.21.14.28.06s0-.19-.17-.34c-.44-.4-1.13-.94-1.23-1s-.84-.85-1.45-1.39c-.24-.22-.36-.28-.44-.18s0,.16.08.24a2.48,2.48,0,0,1,.53.58.52.52,0,0,1-.12.53,2.85,2.85,0,0,1-.66.45c-1.32.8-8.15,4.28-10.87,5.52Z"/>
        <path class="cls-3" d="M139.5,44.62c-1.61,1.13-2.94,2.06-3.7,2.47-.53.27-1,.45-1.26.16a3,3,0,0,1-.42-.46c-.07-.1-.15-.1-.2-.06s-.08.18.05.36.48.62.72.95.46.63.49.66c.17.25.44.67.86,1.35s1.06,1.61,1.94,2.87c.46.65.55.79,1.07.6a20,20,0,0,0,1.78-.92c.12-.09.25-.18.18-.28s-.15-.07-.35,0a1.67,1.67,0,0,1-1.74.09A5.78,5.78,0,0,1,137.61,51c-1.16-1.64-1.12-2.05,0-2.91.34-.26,2.3-1.61,2.87-2L142,45a.13.13,0,0,1,.2,0c.2.29,1.33,2,1.59,2.46.39.7.22,1.06,0,1.29a2.06,2.06,0,0,1-.51.45c-.08.06-.13.14-.07.23s.27,0,.4-.11.76-.48,1.12-.69c.59-.33.94-.45,1-.52s.11-.13.07-.18-.17-.07-.39-.1-.47-.24-.79-.62-1.75-2.43-1.9-2.65,0-.13.1-.21l4.63-3.25c.12-.08.19-.08.24,0s1.39,2,1.56,2.34c.53,1,.45,1.28.26,1.59a2,2,0,0,1-.53.52c-.14.1-.2.19-.13.29s.18,0,.27,0,1-.59,1.17-.69c.5-.28.76-.34.88-.42s.14-.12.11-.17-.18-.11-.25-.18a5.67,5.67,0,0,1-.59-.66c-.29-.38-2.63-3.72-2.71-3.84l-.45-.71c-.24-.38-.56-.83-.83-1.22-.13-.18-.22-.24-.32-.17a.13.13,0,0,0,0,.2,3.42,3.42,0,0,1,.35.61c.27.63.1,1-.45,1.39s-1,.74-3.6,2.57Z"/>
        <path class="cls-3" d="M155.72,55.9A.24.24,0,0,1,156,56a6.35,6.35,0,0,1,.61,1.24c.78,2-.17,3.86-2.56,4.78a3.7,3.7,0,0,1-3.39,0,2.63,2.63,0,0,1-.92-1.29,5.51,5.51,0,0,1-.46-2.13.27.27,0,0,1,.17-.22Zm-8.55,1.52c-1.83.71-3.34,1.29-4.18,1.5-.59.14-1.05.2-1.27-.15a4.1,4.1,0,0,1-.3-.54c0-.12-.11-.14-.17-.11s-.12.15,0,.36c.22.58.74,1.76.75,1.78s.44,1.32.85,2.37c.08.21.17.29.27.25s.1-.08,0-.2a8.71,8.71,0,0,1-.25-.89c-.14-.6.23-.88.77-1.15.76-.4,2.27-1,4.11-1.69l.46-.17c.1,0,.17,0,.21.07l.86,2.37a.33.33,0,0,1,0,.29c-.35.58-1.29,2-2,3.18-1,1.64-1.7,2.67-1.82,3.66a4.15,4.15,0,0,0,.42,2.19l.52,1.35c.13.35.22.45.33.41a.17.17,0,0,0,.05-.22,5.18,5.18,0,0,1-.23-.77,4.23,4.23,0,0,1,.48-2.86c.76-1.57,2-3.52,3.37-5.86,2.25,1.11,3.9,1.16,5.31.62a3.6,3.6,0,0,0,2.1-2.32,6.33,6.33,0,0,0-.5-3.83c-.23-.59-.85-2-.93-2.23s-.44-1.33-.77-2.19c-.08-.21-.16-.29-.27-.25a.15.15,0,0,0-.06.2,3.57,3.57,0,0,1,.19.67c.11.69-.13,1-.77,1.25s-1.13.47-4.12,1.62Z"/>
        <path class="cls-3" d="M146.21,76.72a5.38,5.38,0,0,0,1.28,2.94,4.23,4.23,0,0,0,3.61,1.25c1.63-.23,2.81-1,4.36-3.63l.36-.63c1.25-2.17,1.91-2.8,3.06-3a2.33,2.33,0,0,1,2.71,2.17c.26,1.86-.51,2.53-.72,2.69a3.61,3.61,0,0,1-1,.4c-.16,0-.26.08-.24.2s.16.12.49.08A21.22,21.22,0,0,1,162.3,79c.1,0,.14-.06.12-.23a2.71,2.71,0,0,1,0-.72,7.62,7.62,0,0,0-.07-1.92c-.36-2.57-2.07-4-4.24-3.68-1.38.19-2.57.85-4,3.25l-.63,1c-1.19,2-1.92,2.65-3.32,2.85A2.75,2.75,0,0,1,147,77.06a2.8,2.8,0,0,1,1.65-3.3,4.15,4.15,0,0,1,.74-.17c.17,0,.22,0,.21-.17s-.13-.13-.35-.12-1.15.06-2.17.21c-.55.07-.62.1-.73.41A6.27,6.27,0,0,0,146.21,76.72Z"/>
        <path class="cls-3" d="M156.52,89.65c3.2.11,3.77.13,4.43.19s1.06.24,1.14.8a2.72,2.72,0,0,1,0,.51c0,.09,0,.17.12.17s.17-.09.17-.32c0-.61,0-1.91,0-2s.11-1.39.14-2.06c0-.23,0-.34-.16-.34s-.12.08-.12.16a3,3,0,0,1-.11.63c-.12.45-.47.64-1.17.66s-1.23,0-4.43-.11L153,87.8c-2-.07-3.58-.13-4.44-.26-.59-.1-1-.22-1.11-.63a4.34,4.34,0,0,1-.06-.62c0-.12-.05-.16-.11-.17s-.17.1-.18.33c0,.61,0,1.9,0,2s-.11,1.39-.15,2.52c0,.23.05.33.15.33s.13,0,.13-.15.07-.64.12-.92c.1-.61.56-.72,1.15-.76.87-.08,2.48,0,4.45,0Z"/>
        <path class="cls-3" d="M159.09,105.13l-.66,2.49c-.51,1.9-1.09,2.26-1.7,2.17l-.22,0c-.29,0-.36,0-.38.08s0,.17.22.21,1.58.46,2.17.61c.12,0,.24.06.27-.05s0-.28,0-.58a8,8,0,0,1,.25-1.44l1.86-7.45c.06-.24.28-1,.49-1.54a4,4,0,0,1,.45-.82c0-.08-.21-.22-.32-.29s-1.76-.91-2-1-.19,0-.21.06,0,.15.15.25a3.1,3.1,0,0,1,.53.49c.4.44.42,1,.14,2.19l-.7,2.95-8.41-2.1c-1.91-.48-3.48-.87-4.29-1.17-.56-.23-1-.44-.95-.85a2.56,2.56,0,0,1,.07-.62c0-.12,0-.17-.08-.19s-.19.06-.24.28c-.15.6-.4,1.86-.43,2s-.39,1.34-.67,2.43c0,.22,0,.33.08.36s.13,0,.16-.13.2-.61.31-.87c.22-.58.69-.59,1.28-.51.86.11,2.43.51,4.34,1Z"/>
        <path class="cls-3" d="M146.48,114.52c-1.73-.93-3.16-1.68-3.87-2.18-.49-.35-.84-.65-.72-1a2.68,2.68,0,0,1,.22-.58c0-.11,0-.18,0-.21s-.19,0-.29.22-.33.7-.53,1.06-.34.7-.36.74c-.15.27-.4.69-.81,1.38s-1,1.67-1.68,3c-.37.71-.45.85-.05,1.23s1.49,1.09,1.63,1.17.27.14.33,0,0-.16-.18-.31c-.68-.52-.92-.93-.87-1.5a5.94,5.94,0,0,1,.72-1.85c.94-1.77,1.32-1.92,2.6-1.31.39.19,2.48,1.32,3.1,1.65l1.59.85a.12.12,0,0,1,.06.19c-.17.31-1.15,2.08-1.47,2.54-.45.67-.84.67-1.13.6a1.9,1.9,0,0,1-.64-.24c-.09,0-.18,0-.23,0s.13.23.28.31.78.46,1.12.69c.57.37.83.62.93.68s.17,0,.2,0,0-.2-.09-.4,0-.53.2-1,1.36-2.66,1.49-2.89.11-.08.24,0l5,2.65c.13.07.16.13.13.21s-1.18,2.16-1.38,2.45c-.63.92-.94,1-1.3,1a2.2,2.2,0,0,1-.7-.23c-.15-.08-.26-.09-.32,0s0,.16.13.23,1,.61,1.15.72c.48.33.65.53.77.6s.18.07.21,0,0-.21,0-.31a5.84,5.84,0,0,1,.32-.82c.21-.43,2.12-4,2.19-4.16l.43-.72c.23-.39.49-.88.71-1.29.11-.2.12-.31,0-.37s-.15,0-.19.09a2.9,2.9,0,0,1-.38.58c-.44.53-.81.53-1.44.24s-1.11-.55-3.93-2.05Z"/>
        <path class="cls-3" d="M133.13,124A5.46,5.46,0,0,0,131.8,127a4.22,4.22,0,0,0,1.49,3.52c1.25,1.05,2.6,1.43,5.61.8l.72-.15c2.44-.52,3.35-.45,4.24.3a2.33,2.33,0,0,1,.2,3.46c-1.21,1.44-2.23,1.31-2.48,1.26a3.6,3.6,0,0,1-1-.45c-.14-.09-.23-.14-.31-.05s0,.21.27.42c1.06.89,1.53,1.39,1.61,1.46s.13.06.24-.07A2.9,2.9,0,0,1,143,137a8.3,8.3,0,0,0,1.38-1.33c1.67-2,1.58-4.21-.1-5.62-1.07-.9-2.36-1.34-5.12-.82l-1.17.22c-2.25.41-3.26.34-4.34-.57a2.73,2.73,0,0,1-.21-4,2.78,2.78,0,0,1,3.55-1,3.12,3.12,0,0,1,.62.44c.13.1.19.13.27,0s0-.17-.15-.34-.81-.81-1.6-1.47c-.42-.36-.5-.39-.79-.27A6.48,6.48,0,0,0,133.13,124Z"/>
        <path class="cls-3" d="M130.54,140.46c2.05,2.45,2.42,2.89,2.81,3.41s.53.95.17,1.39a2.61,2.61,0,0,1-.35.37c-.06.06-.1.14,0,.2s.19.06.36-.08c.47-.4,1.42-1.28,1.5-1.34s1.11-.85,1.62-1.28c.18-.15.23-.25.15-.34a.14.14,0,0,0-.2,0,3,3,0,0,1-.54.35c-.42.21-.8.07-1.28-.43s-.82-.92-2.87-3.37l-2.32-2.76c-1.27-1.51-2.31-2.75-2.78-3.48-.32-.5-.53-.92-.27-1.24a3.06,3.06,0,0,1,.42-.46c.09-.08.08-.15,0-.2s-.18-.06-.35.09c-.47.39-1.42,1.27-1.5,1.33s-1.11.85-2,1.58c-.18.14-.21.26-.15.33s.11.07.21,0,.51-.37.76-.53c.52-.33.9-.06,1.33.35.63.6,1.68,1.84,2.94,3.34Z"/>
        <path class="cls-4" d="M68.74,151.68c.83-3,1.44-5,1.48-5.12s0-.43-.11-.47a1,1,0,0,0-.54.11l-4.51,1.52a.39.39,0,0,0-.19.16.21.21,0,0,0,.09.22.47.47,0,0,0,.26,0,11.77,11.77,0,0,1,2.51-.35c.32.08.3.31.19.71-.29,1.09-.52,1.94-.8,3l-.93,3.46c-.53,2-1,3.68-1.28,4.54-.2.6-.42.86-1.11.81a16.08,16.08,0,0,1-1.62-.29.18.18,0,0,0-.2.12c0,.1.08.17.3.22,1.27.34,3,.73,3,.76s1.35.43,2.84.82c.24.07.35,0,.37-.05a.18.18,0,0,0-.13-.2,12.34,12.34,0,0,1-1.28-.47c-.59-.31-.59-.63-.51-1.26.14-.9.57-2.61,1.12-4.58Z"/>
        <path class="cls-4" d="M80.8,147.81a4.64,4.64,0,0,0-5.22,4.42,3.94,3.94,0,0,0,3.85,4.24A3.61,3.61,0,0,0,82,155.7c.06-.06.09-.1.09-.16s0-.15-.09-.15a.6.6,0,0,0-.27.1,2.85,2.85,0,0,1-1.67.26c-.55,0-3-.89-2.78-4.28a2.87,2.87,0,0,1,3-2.94c1.8.13,3.25,2.06,3,5.64A11.18,11.18,0,0,1,77,163.3a.32.32,0,0,0-.22.28c0,.12.06.21.15.21a.63.63,0,0,0,.33-.06c2.58-1.07,7.41-4.29,7.81-10C85.31,150.59,83.68,148,80.8,147.81Z"/>
        <path class="cls-4" d="M90.91,148a8,8,0,0,1-2,0c-.13,0-.2.11-.17.31s0,2.62.09,3.27c0,.22.06.32.16.31s.15-.12.15-.31a2.51,2.51,0,0,1,.58-1.66,3.12,3.12,0,0,1,1.83-.74l5-.61a73,73,0,0,0-4.41,14.17,2.72,2.72,0,0,0,0,.7c0,.15.09.2.21.18.41-.05,1.89-1.07,1.84-1.48a4.64,4.64,0,0,1-.09-.71c0-2.69,2.36-11.07,3.71-13.71a.8.8,0,0,0,.08-.41c0-.12-.13-.19-.4-.16Z"/>
        <path class="cls-4" d="M110.35,155.18a3.41,3.41,0,0,1-2.41,4.59,2.72,2.72,0,0,1-3.78-1.68c-.09-.21-.13-.26-.23-.23s-.1.15-.06.35a23.42,23.42,0,0,0,.66,2.48.57.57,0,0,0,.49.44,6.75,6.75,0,0,0,2.53-.3c3.47-1.13,5.09-4.18,4.2-6.91a4.25,4.25,0,0,0-4.43-2.69l0-.1c.52-.47,2.11-2.41,1.48-4.36-.32-1-1.64-2.7-4.81-1.67a7.7,7.7,0,0,0-2.94,1.69c-.19.23-.18.32-.13.49.15.45.49,1.31.77,1.91.08.17.15.19.21.17s.12-.09.06-.28a2.33,2.33,0,0,1,1.71-3.1,2.73,2.73,0,0,1,3.66,1.72c.74,2.28-1.1,3.91-2,4.4-.24.12-.41.24-.37.38s.2.13.59.09C106.86,152.41,109.5,152.57,110.35,155.18Z"/>
        <path class="cls-5" d="M118.87,147.47a1.36,1.36,0,1,1,1.36,1.35A1.36,1.36,0,0,1,118.87,147.47Z"/>
        <path class="cls-6" d="M118.87,147.47a1.36,1.36,0,1,1,1.36,1.35A1.36,1.36,0,0,1,118.87,147.47Z"/>
        <path class="cls-5" d="M53,147.47a1.35,1.35,0,1,1,1.35,1.35A1.35,1.35,0,0,1,53,147.47Z"/>
        <path class="cls-6" d="M53,147.47a1.35,1.35,0,1,1,1.35,1.35A1.35,1.35,0,0,1,53,147.47Z"/>
        <path class="cls-3" d="M124.61,16.27a.85.85,0,0,0,.86-.89.79.79,0,0,0-.85-.8.83.83,0,0,0-.84.85A.8.8,0,0,0,124.61,16.27Z"/>
        <path class="cls-3" d="M165,89.44a.84.84,0,0,0,.86-.89.78.78,0,0,0-.84-.8.82.82,0,0,0-.84.84A.8.8,0,0,0,165,89.44Z"/>
        <path class="cls-3" d="M136.61,147a.85.85,0,0,0,.86-.89.79.79,0,0,0-.85-.8.82.82,0,0,0-.84.85A.8.8,0,0,0,136.61,147Z"/>
      </g>
    </g>
  </g>
</svg>
