<svg width="2053" height="2401" xmlns="http://www.w3.org/2000/svg" xmlns:xlink="http://www.w3.org/1999/xlink" xml:space="preserve" overflow="hidden"><defs><clipPath id="clip0"><rect x="1174" y="37" width="2053" height="2401"/></clipPath></defs><g clip-path="url(#clip0)" transform="translate(-1174 -37)"><path d="M3216.3 43.796C3221.69 383.601 3221.37 723.459 3216.3 1063.25 3211.42 1390.64 3195.11 1646.12 3048.65 1845.88 2872.23 2086.52 2578.3 2260.18 2200.22 2430.8 1822.14 2260.18 1528.21 2086.52 1351.79 1845.88 1205.33 1646.12 1189.02 1390.64 1184.14 1063.25 1179.08 723.459 1178.76 383.606 1184.14 43.796L3216.3 43.796Z" stroke="#162E52" stroke-width="12.0433" stroke-miterlimit="8" fill="#1353B4" fill-rule="evenodd"/><path d="M1183.92 44 3216.08 44C3218.77 213.881 3220.04 383.776 3220 553.669L3217.91 825 1182.09 825 1180 553.671C1179.96 383.778 1181.23 213.884 1183.92 44Z" stroke="#920000" stroke-width="12.0433" stroke-miterlimit="8" fill="#CD0707" fill-rule="evenodd"/><path d="M2746.99 683.854C2746.99 731.901 2502.08 770.854 2199.99 770.854 1897.89 770.854 1652.99 731.901 1652.99 683.854 1652.99 635.807 1897.89 596.853 2199.99 596.853 2502.08 596.853 2746.99 635.807 2746.99 683.854Z" stroke="#806600" stroke-width="7.75666" stroke-miterlimit="8" fill="#EBD25E" fill-rule="evenodd"/><path d="M2199.99 626.854C2049.7 626.854 1913.8 636.474 1816.32 651.939 1767.58 659.671 1728.02 669.291 1702.65 678.784 1697.43 680.742 1695.93 682.164 1691.99 684.066 1695.93 685.967 1697.43 687.404 1702.65 689.348 1728.02 698.827 1767.23 708.08 1815.97 715.756 1913.45 731.123 2049.69 740.855 2199.99 740.855 2350.28 740.855 2486.52 731.123 2584 715.756 2632.75 708.08 2671.95 698.827 2697.33 689.348 2702.54 687.404 2704.04 685.967 2707.99 684.066 2704.04 682.164 2702.54 680.742 2697.33 678.784 2671.95 669.291 2632.39 659.671 2583.65 651.939 2486.17 636.474 2350.27 626.854 2199.99 626.854Z" stroke="#806600" stroke-width="7.75666" stroke-miterlimit="8" fill="#CCB134" fill-rule="evenodd"/><path d="M2834.19 306.158C2800.21 382.059 2772.99 456.192 2746.32 532.447L2198.51 532.447 1650.7 532.447C1624.91 458.719 1598.61 379.432 1566.19 306.158 1566.19 306.158 1634.38 401.465 1685.44 424.559 1713.81 437.344 1749.29 441.184 1778.61 430.723 1817.26 417.029 1868.67 346.989 1868.67 346.989 1868.67 346.989 1914.91 401.01 1946.32 415.21 1975.8 428.551 2010.26 429.107 2042.59 427.641 2071.19 426.378 2102.88 425.266 2126.44 409.045 2162.13 384.434 2197.87 300.447 2197.87 300.447 2197.87 300.447 2232.45 366.495 2259.98 390.398 2282.7 410.106 2311.22 424.861 2340.73 430.723 2370.24 436.636 2402.48 434.716 2430.79 424.559 2469.17 410.712 2530.17 353.154 2530.17 353.154 2530.17 353.154 2572.16 405.204 2601.6 418.343 2630.1 431.027 2664.39 434.767 2694.77 427.641 2726.92 420.061 2753.93 396.815 2778.62 374.884 2800.66 355.327 2834.19 306.158 2834.19 306.158Z" fill="#DEC35D" fill-rule="evenodd"/><path d="M1953.19 421.138 1953.19 525.644 2617.79 527.467 2623.19 437.34 2536.74 370.707 2461.09 422.96 2353.03 440.934 2298.99 428.327 2199.94 327.467 2158.51 397.694 2077.46 435.568 1991.01 439.163 1953.19 421.138Z" fill="#F6E078" fill-rule="evenodd"/><path d="M1753.62 525.865 1748.21 444.677 1807.62 426.623 1868.81 372.464 1937.21 424.798 1960.61 433.824 1964.21 529.465 1753.62 525.865Z" fill="#F6E078" fill-rule="evenodd"/><path d="M1782.53 532.448 1650.69 532.448C1624.91 458.814 1598.61 379.628 1566.19 306.448 1566.19 306.448 1634.38 401.633 1685.44 424.647 1713.81 437.466 1749.29 441.251 1778.61 430.854L1782.53 532.448ZM2601.6 418.489C2630.1 431.157 2664.39 434.892 2694.77 427.776 2726.92 420.205 2753.93 396.99 2778.62 375.086 2800.66 355.555 2834.19 306.448 2834.19 306.448 2800.21 382.253 2772.99 456.291 2746.32 532.448L2599.65 532.448 2599.65 530.48 2601.6 418.489Z" fill="#D1B948" fill-rule="evenodd"/><path d="M2198.19 336.466 2207.18 534.644 2448.19 536.466 2448.19 428.365 2392.43 446.39 2315.09 437.378 2234.16 381.529 2198.19 336.466Z" fill="#E7CD54" fill-rule="evenodd"/><path d="M2442.98 513.369 2444.79 431.964 2536.81 376.469 2607.18 430.202 2607.18 529.469 2441.18 529.469 2442.98 513.369Z" fill="#D0B500" fill-rule="evenodd"/><path d="M1725.22 434.037 1733.97 533.468 1802.22 533.468 1795.26 430.468 1771.91 439.416 1725.22 434.037Z" fill="#E7CD54" fill-rule="evenodd"/><path d="M1836.21 532.88 1838.03 405.208 1867.08 367.467 1903.4 407.026 1905.21 536.467 1836.21 532.88Z" fill="#F8ECA8" fill-rule="evenodd"/><path d="M2198.2 301.449C2198.2 301.449 2162.32 385.552 2126.63 410.196 2103.06 426.49 2071.36 427.553 2042.75 428.868 2010.41 430.286 1975.93 429.78 1946.44 416.42 1915.03 402.201 1868.78 348.055 1868.78 348.055 1868.78 348.055 1817.34 418.191 1778.69 431.955 1749.35 442.38 1713.86 438.585 1685.49 425.731 1634.4 402.656 1566.19 307.167 1566.19 307.167 1578.89 335.91 1590.64 365.513 1601.79 395.42 1601.79 395.42 1628.07 423.252 1645.76 435.549 1664.04 448.301 1685.58 457.005 1707.45 461.205 1728.58 465.253 1750.98 464.898 1771.98 460.243 1793.97 455.385 1814.76 444.961 1833.67 432.714 1846.84 424.213 1867.34 401.391 1867.34 401.391 1867.34 401.391 1894.2 423.403 1908.65 431.753 1924.1 440.71 1942.05 450.021 1959.44 454.12 1979.81 458.877 2001.17 458.269 2022.08 457.915 2045.27 457.51 2068.78 456.6 2091.36 451.235 2110.17 446.833 2122.09 441.064 2138.21 430.387 2155.12 419.153 2188.95 386.868 2201.67 371.029 2212.87 381.554 2239.62 416.623 2258.19 428.919 2274.3 439.597 2293.47 445.365 2312.28 449.819 2334.86 455.132 2358.37 456.043 2381.56 456.448 2402.47 456.802 2423.83 457.409 2444.2 452.653 2461.59 448.554 2478.09 440.71 2493.55 431.753 2508 423.403 2527.61 408.627 2527.61 408.627 2527.61 408.627 2549.55 425.63 2562.72 434.182 2581.63 446.378 2602.42 456.853 2624.41 461.71 2645.42 466.316 2667.81 466.721 2688.94 462.621 2710.81 458.472 2732.36 449.717 2750.63 437.016 2768.32 424.719 2794.6 395.42 2794.6 395.42 2805.75 365.513 2817.51 335.91 2830.19 307.167 2830.19 307.167 2761.99 402.656 2710.91 425.731 2682.53 438.585 2647.05 442.38 2617.71 431.955 2579.05 418.191 2527.62 348.055 2527.62 348.055 2527.62 348.055 2481.37 402.201 2449.95 416.42 2420.46 429.78 2385.98 430.286 2353.64 428.868 2325.03 427.553 2293.34 426.49 2269.77 410.196 2234.07 385.552 2198.2 301.449 2198.2 301.449Z" fill="#D1B948" fill-rule="evenodd"/><path d="M2834.19 306.158C2800.21 382.059 2772.99 456.192 2746.32 532.447L2603.26 532.447 2198.5 532.447 1780.73 532.447 1650.7 532.447C1624.91 458.719 1598.62 379.432 1566.19 306.158 1566.19 306.158 1634.38 401.465 1685.44 424.559 1713.81 437.344 1749.29 441.184 1778.62 430.723 1817.26 417.029 1868.68 346.989 1868.68 346.989 1868.68 346.989 1914.91 401.01 1946.32 415.21 1975.8 428.551 2010.27 429.107 2042.59 427.641 2071.19 426.378 2102.87 425.266 2126.44 409.045 2162.12 384.434 2197.87 300.447 2197.87 300.447 2197.87 300.447 2232.45 366.495 2259.98 390.398 2282.7 410.106 2311.22 424.861 2340.73 430.723 2370.24 436.636 2402.48 434.716 2430.79 424.559 2469.17 410.712 2530.17 353.154 2530.17 353.154 2530.17 353.154 2572.16 405.204 2601.6 418.343 2630.1 431.027 2664.39 434.767 2694.77 427.641 2726.92 420.061 2753.93 396.815 2778.62 374.884 2800.65 355.327 2834.19 306.158 2834.19 306.158Z" stroke="#806600" stroke-width="7.70974" stroke-miterlimit="8" fill="none" fill-rule="evenodd"/><path d="M2200.19 349.399C2200.19 349.399 2175.22 387.926 2159.86 401.107 2138.53 419.407 2124.5 430.407 2097.1 439.076 2069.75 447.744 2031.6 452.561 2002.96 450.989 1975.27 449.468 1946.77 441.458 1921.81 429.292 1900.12 418.799 1865.55 388.078 1865.55 388.078 1848.74 409.978 1827.34 425.288 1806.98 436.643 1780.93 451.141 1755.2 452.459 1728.17 450.989 1673.21 448.049 1621.95 413.628 1580.83 343.874 1554.16 280.659 1523.49 216.634 1485.19 149.465 1529.34 133.851 1580.78 125.487 1637.84 122.749 1614.63 188.347 1590.56 252.169 1599.07 304.941 1647.01 268.949 1662.52 219.929 1679.03 171.364L1734.76 368.105C1700.93 362.174 1718.92 355.128 1630.1 338.247 1647.89 371.907 1688.64 413.476 1733.57 417.531 1763.77 420.319 1785.7 410.941 1804.9 394.263 1818.69 382.248 1831.27 366.382 1831.11 348.538 1831.01 338.298 1830.91 328.058 1830.82 317.818 1830.76 311.227 1822.67 301.95 1816.11 301.849 1809.86 301.748 1808.13 311.937 1806.46 317.97 1803.13 330.034 1809.83 343.519 1806.46 355.584 1802.75 368.866 1795.64 379.41 1783.95 386.71 1774.22 392.844 1750.73 394.263 1750.73 394.263L1758.23 365.266C1763.52 344.787 1743.7 328.868 1738.94 308.287 1735.87 295.056 1734.18 280.203 1738.94 267.479 1744.09 253.69 1754.51 240.257 1767.88 234.173 1772.76 231.943 1778.61 231.639 1783.95 231.994 1791.51 232.551 1806.46 237.367 1806.46 237.367 1806.46 237.367 1802.17 216.634 1803.25 204.062 1804.55 188.803 1817.43 160.566 1824.68 147.133 1836.72 124.777 1855.87 104.601 1858.06 102.472 1860.16 104.551 1880.92 123.966 1894.48 145.409 1902.65 158.336 1911.03 176.991 1913.38 192.098 1915.33 204.568 1914.63 230.929 1914.63 230.929 1914.63 230.929 1936.71 221.855 1944.22 220.79 1949.52 220.03 1955.38 219.929 1960.4 221.804 1974.16 226.975 1985.49 239.649 1991.58 253.031 1997.22 265.401 1996.56 280.304 1994.42 293.738 1991.09 314.623 1978.85 330.795 1985.55 350.819L1995.05 379.258C1995.05 379.258 1971.52 379.511 1961.38 374.087 1949.22 367.548 1941.39 357.561 1936.77 344.533 1932.57 332.772 1935.01 318.273 1927.73 308.135 1924.5 303.624 1920 298.655 1913.77 299.163 1907.24 299.72 1902.64 310.416 1902.37 316.956L1901.21 344.634C1900.86 353.1 1904.72 361.921 1909.25 368.815 1920.36 385.645 1936.9 395.835 1955.56 403.439 1975.77 411.651 1994 414.794 2015.8 415.048 2033.99 415.25 2065.61 412.259 2082.85 406.429 2104.08 399.231 2116.57 390.106 2132.99 374.796 2142.25 366.23 2148.44 353.709 2152.52 341.694 2157.21 327.905 2155.52 304.08 2155.52 304.08 2134.39 312.089 2116.02 322.887 2099.46 335.509 2080.75 349.754 2064.35 366.331 2048.91 383.871L2047.4 146.018C2069.42 170.35 2085.42 192.149 2107.43 210.5 2125.96 225.91 2135.49 231.791 2154.02 237.823 2148.73 218.712 2146.94 207.103 2133.27 187.941 2114.32 161.428 2095.87 132.939 2072.93 106.426 2115.17 99.3797 2157.39 97.4532 2200.19 97.4532 2243 97.4532 2285.21 99.3797 2327.46 106.426 2304.51 132.939 2286.06 161.428 2267.11 187.941 2253.45 207.103 2251.66 218.712 2246.37 237.823 2264.9 231.791 2274.43 225.91 2292.96 210.5 2314.97 192.149 2330.97 170.35 2352.98 146.018L2351.48 383.871C2336.03 366.331 2319.63 349.754 2300.92 335.509 2284.36 322.887 2266 312.089 2244.86 304.08 2244.86 304.08 2243.18 327.905 2247.87 341.694 2251.94 353.709 2258.13 366.23 2267.39 374.796 2283.82 390.106 2296.31 399.231 2317.54 406.429 2334.77 412.259 2366.39 415.25 2384.58 415.048 2406.39 414.794 2424.62 411.651 2444.82 403.439 2463.48 395.835 2480.02 385.645 2491.13 368.815 2495.67 361.921 2499.53 353.1 2499.17 344.634L2498.02 316.956C2497.74 310.416 2493.15 299.72 2486.62 299.163 2480.39 298.655 2475.88 303.624 2472.66 308.135 2465.38 318.273 2467.81 332.772 2463.62 344.533 2458.99 357.561 2451.17 367.548 2439 374.087 2428.87 379.511 2405.34 379.258 2405.34 379.258L2414.83 350.819C2421.53 330.795 2409.3 314.623 2405.97 293.738 2403.83 280.304 2403.17 265.401 2408.8 253.031 2414.9 239.649 2426.23 226.975 2439.99 221.804 2445.01 219.929 2450.87 220.03 2456.17 220.79 2463.68 221.855 2485.75 230.929 2485.75 230.929 2485.75 230.929 2485.06 204.568 2487 192.098 2489.36 176.991 2497.74 158.336 2505.91 145.409 2519.47 123.966 2540.23 104.551 2542.33 102.472 2544.51 104.601 2563.66 124.777 2575.7 147.133 2582.95 160.566 2595.84 188.803 2597.14 204.062 2598.22 216.634 2593.92 237.367 2593.92 237.367 2593.92 237.367 2608.87 232.551 2616.43 231.994 2621.78 231.639 2627.63 231.943 2632.51 234.173 2645.88 240.257 2656.3 253.69 2661.45 267.479 2666.21 280.203 2664.52 295.056 2661.45 308.287 2656.68 328.868 2636.86 344.787 2642.15 365.266L2649.66 394.263C2649.66 394.263 2626.16 392.844 2616.43 386.71 2604.75 379.41 2597.63 368.866 2593.92 355.584 2590.56 343.519 2597.26 330.034 2593.92 317.97 2592.25 311.937 2590.52 301.748 2584.28 301.849 2577.72 301.95 2569.62 311.227 2569.56 317.818 2569.47 328.058 2569.38 338.298 2569.28 348.538 2569.11 366.382 2581.7 382.248 2595.49 394.263 2614.69 410.941 2636.62 420.319 2666.82 417.531 2711.75 413.476 2752.49 371.907 2770.29 338.247 2681.47 355.128 2699.45 362.174 2665.63 368.105L2721.35 171.364C2737.86 219.929 2753.37 268.949 2801.32 304.941 2809.83 252.169 2785.75 188.347 2762.55 122.749 2819.61 125.487 2871.05 133.851 2915.19 149.465 2876.89 216.634 2846.22 280.659 2819.56 343.874 2778.44 413.628 2727.17 448.049 2672.22 450.989 2645.19 452.459 2619.45 451.141 2593.41 436.643 2573.04 425.288 2551.64 409.978 2534.84 388.078 2534.84 388.078 2500.27 418.799 2478.57 429.292 2453.61 441.458 2425.12 449.468 2397.42 450.989 2368.79 452.561 2330.64 447.744 2303.29 439.076 2275.89 430.407 2261.86 419.407 2240.53 401.107 2225.17 387.926 2200.19 349.399 2200.19 349.399Z" fill="#F6E078" fill-rule="evenodd"/><path d="M1728.16 450.536C1673.21 447.556 1621.94 413.307 1580.82 343.748 1554.16 280.757 1523.49 216.957 1485.19 150.076 1529.33 134.467 1580.78 126.183 1637.84 123.455 1614.63 188.77 1590.56 252.418 1599.07 305.003 1647.01 269.138 1662.52 220.291 1679.03 171.847L1734.76 367.894C1700.93 361.984 1718.92 355.013 1630.09 338.192 1647.89 371.733 1688.64 413.104 1733.56 417.196L1728.16 450.536ZM2666.82 417.196C2711.74 413.104 2752.49 371.733 2770.29 338.192 2681.46 355.013 2699.45 361.984 2665.63 367.894L2721.35 171.847C2737.86 220.291 2753.37 269.138 2801.31 305.003 2809.83 252.418 2785.75 188.77 2762.55 123.455 2819.61 126.183 2871.05 134.467 2915.19 150.076 2876.89 216.957 2846.22 280.757 2819.56 343.748 2778.44 413.307 2727.17 447.556 2672.22 450.536L2671.17 452.455 2666.82 417.196Z" fill="#F6E078" fill-rule="evenodd"/><path d="M2002.4 450.975C1974.76 449.455 1946.32 441.395 1921.41 429.281 1899.76 418.738 1865.26 388.073 1865.26 388.073 1848.49 409.919 1827.14 425.277 1806.81 436.631 1780.82 451.128 1755.14 452.445 1728.16 450.975L1727.21 460.454 1733.55 417.522C1763.69 420.259 1785.58 410.933 1804.74 394.206 1818.5 382.244 1831.06 366.379 1830.89 348.487 1830.79 338.248 1830.7 328.06 1830.61 317.821 1830.55 311.232 1822.47 301.905 1815.92 301.855 1809.69 301.754 1807.96 311.891 1806.3 317.973 1802.97 330.037 1809.65 343.469 1806.3 355.533 1802.59 368.863 1795.49 379.355 1783.84 386.704 1774.12 392.838 1750.68 394.206 1750.68 394.206L1758.17 365.213C1763.44 344.736 1743.67 328.871 1738.91 308.292 1735.85 295.012 1734.16 280.212 1738.91 267.439 1744.05 253.652 1754.45 240.271 1767.79 234.137 1772.66 231.908 1778.5 231.603 1783.84 232.009 1791.38 232.516 1806.3 237.381 1806.3 237.381 1806.3 237.381 1802.01 216.651 1803.09 204.08 1804.39 188.824 1817.24 160.591 1824.48 147.109 1836.5 124.755 1855.61 104.633 1857.79 102.453 1859.88 104.583 1880.6 123.944 1894.13 145.385 1902.29 158.31 1910.65 177.013 1913 192.118 1914.94 204.587 1914.25 230.944 1914.25 230.944 1914.25 230.944 1936.28 221.872 1943.77 220.807 1949.06 220.046 1954.91 219.945 1959.92 221.821 1973.65 226.991 1984.96 239.612 1991.04 253.043 1996.66 265.411 1996 280.313 1993.87 293.745 1990.55 314.628 1978.34 330.797 1985.02 350.818L1994.5 379.253C1994.5 379.253 1971.01 379.456 1960.9 374.033 1948.77 367.545 1940.95 357.56 1936.34 344.533 1932.15 332.724 1934.58 318.277 1927.31 308.089 1924.1 303.578 1919.6 298.611 1913.38 299.169 1906.86 299.676 1902.28 310.37 1902.01 316.96L1900.85 344.584C1900.5 353.099 1904.35 361.919 1908.88 368.762 1919.96 385.589 1936.47 395.828 1955.09 403.38 1975.26 411.592 1993.45 414.734 2015.21 415.039L2002.4 450.975Z" fill="#F6E078" fill-rule="evenodd"/><path d="M2199.69 267.448 2234.06 308.309 2250.6 375.31 2299.26 409.471 2370.31 425.105 2441.35 416.323 2495.85 381.147 2503.64 343.079 2559.11 345.058 2569.82 386.021 2626.26 424.14 2676.86 427.034 2739.15 393.838 2773.21 348.967 2810.19 360.641 2773.21 403.634 2732.34 435.865 2701.2 446.575 2677.84 450.484 2647.67 450.484 2623.34 447.54 2599.98 441.703 2571.76 424.14 2534.78 389.929 2500.72 414.344 2467.63 433.886 2424.81 448.555 2381.99 451.448 2331.38 446.575 2287.59 433.886 2245.74 406.527 2212.65 368.458 2199.69 348.967 2186.74 368.458 2153.65 406.527 2111.8 433.886 2068.01 446.575 2017.4 451.448 1974.58 448.555 1931.76 433.886 1898.67 414.344 1864.61 389.929 1827.63 424.14 1799.4 441.703 1776.05 447.54 1751.72 450.484 1721.55 450.484 1698.19 446.575 1667.05 435.865 1626.18 403.634 1589.19 360.641 1626.18 348.967 1660.24 393.838 1722.52 427.034 1773.13 424.14 1829.57 386.021 1840.28 345.058 1895.75 343.079 1903.54 381.147 1958.04 416.323 2029.08 425.105 2100.12 409.471 2148.78 375.31 2165.33 304.147 2199.69 267.448Z" fill="#F6E078" fill-rule="evenodd"/><path d="M2200.19 112.075C2160.27 112.075 2135.14 116.274 2104.23 119.461 2175.81 216.24 2167.71 225.346 2175.02 258.331 2150.82 255.599 2123.85 242.85 2110.08 233.39 2089.79 219.528 2077.05 200.759 2060.73 184.267L2063.51 347.217C2081.37 333.001 2096.8 317.975 2118.55 305.076 2133.46 296.222 2151.35 288.33 2175.02 282.411 2175.91 332.191 2167.81 377.267 2123.66 404.636 2108.12 414.248 2092.34 422.393 2074.62 426.845 2055.95 431.55 2039.26 433.017 2020.02 433.321 2001.75 433.573 1982.08 431.752 1964.49 426.845 1949.22 422.545 1934.66 415.007 1921.92 405.547 1909.31 396.188 1893.92 378.279 1890.46 362.95L1883.98 334.266C1883.98 334.266 1886.52 311.247 1890.46 302.798 1894.33 294.451 1897.43 286.964 1906.19 284.283 1913.77 281.905 1922.88 283.322 1929.33 287.976 1937.33 293.693 1941.47 303.811 1945.06 312.967 1948.73 322.326 1945.79 329.612 1949.69 338.869 1952.6 345.851 1954.67 352.984 1960.79 357.385 1965.23 360.573 1975.6 364.822 1975.6 364.822 1975.6 364.822 1971.14 351.871 1970.05 346.306 1968.49 338.414 1971.78 333.861 1972.82 325.919 1974.07 316.408 1978.98 307.656 1980.23 298.145 1981.15 291.113 1982.89 280.185 1982.08 273.153 1980.99 263.693 1979.58 256.61 1973.75 249.072 1967.13 240.574 1959.48 235.211 1948.76 234.25 1934.28 232.985 1901.56 252.766 1901.56 252.766 1903.15 231.67 1903.1 205.161 1896.06 184.57 1889.28 164.689 1877.71 145.111 1859.9 125.937 1851.84 134.588 1846.06 144.25 1840.68 151.789 1830.95 165.447 1825.16 177.387 1821.65 188.263 1813.2 214.469 1817.12 229.646 1821.43 256.61 1821.43 256.61 1794.71 243.963 1778.96 246.948 1770.59 248.567 1762.62 253.93 1757.33 260.607 1752.23 267.032 1749.91 275.683 1749.32 283.828 1748.58 293.895 1750.8 304.317 1754.92 313.524 1759.22 323.035 1765.27 331.129 1769.35 340.741 1771.56 346.002 1772.53 351.972 1771.75 357.588 1770.67 365.429 1766.94 376.812 1766.94 376.812 1791.39 368.515 1796.5 348.886 1791.78 324.704 1790.45 317.925 1789.52 310.438 1791.78 303.862 1795.32 293.642 1798 291.872 1806.21 287.875 1811.49 285.244 1818.31 285.851 1823.84 287.875 1833.65 291.416 1842.64 302.697 1844.68 311.905 1844.68 311.905 1848.9 334.418 1848.22 346.053 1847.61 356.323 1842.09 375.193 1842.09 375.193 1834.81 396.137 1804.92 417.232 1785.7 425.428 1756.33 437.975 1725.89 435.04 1695.64 421.988 1673.92 412.63 1655.03 396.542 1639.15 379.038 1625.3 363.709 1609.28 330.067 1609.28 330.067 1646.52 318.28 1680.7 328.751 1713.63 343.726 1698.34 303.507 1686.99 263.339 1679.73 223.171 1644 291.315 1615.36 309.831 1587.54 322.579 1579.46 280.893 1578.27 225.852 1614.81 141.013 1574.57 142.783 1534.31 147.235 1494.07 165.093 1491.16 159.883 1488.2 154.622 1485.19 149.36 1529.34 133.728 1580.79 125.431 1637.85 122.699 1614.64 188.112 1590.56 251.855 1599.08 304.519 1647.03 268.6 1662.53 219.68 1679.04 171.215L1734.78 367.554C1700.95 361.584 1718.94 354.603 1630.1 337.756 1647.91 371.348 1688.66 412.781 1733.58 416.879 1763.79 419.611 1785.72 410.302 1804.92 393.658 1818.71 381.668 1831.29 365.834 1831.13 348.026 1831.03 337.807 1830.94 327.588 1830.85 317.369 1830.78 310.792 1822.69 301.534 1816.13 301.433 1809.88 301.332 1808.15 311.501 1806.48 317.521 1803.14 329.561 1809.85 343.018 1806.48 355.058 1802.77 368.313 1795.66 378.835 1783.97 386.121 1774.24 392.241 1750.75 393.658 1750.75 393.658 1750.75 393.658 1755.75 374.333 1758.25 364.67 1763.54 344.283 1743.72 328.397 1738.95 307.858 1735.88 294.654 1734.19 279.831 1738.95 267.133 1744.11 253.372 1754.52 239.966 1767.89 233.895 1772.77 231.67 1778.63 231.366 1783.97 231.721 1791.53 232.277 1806.48 237.082 1806.48 237.082 1806.48 237.082 1802.19 216.392 1803.27 203.846 1804.57 188.618 1817.45 160.439 1824.71 147.033 1836.75 124.723 1855.9 104.588 1858.08 102.463 1860.18 104.538 1880.94 123.863 1894.5 145.313 1902.68 158.214 1911.05 176.83 1913.41 191.906 1915.35 204.351 1914.66 230.658 1914.66 230.658 1914.66 230.658 1936.74 221.602 1944.24 220.54 1949.55 219.781 1955.41 219.68 1960.43 221.552 1974.19 226.712 1985.52 239.359 1991.61 252.715 1997.25 265.059 1996.59 279.932 1994.45 293.338 1991.12 314.181 1978.89 330.32 1985.59 350.303 1988.75 359.763 1995.08 378.683 1995.08 378.683 1995.08 378.683 1971.55 378.937 1961.41 373.523 1949.25 366.998 1941.42 357.031 1936.8 344.03 1932.6 332.242 1935.04 317.824 1927.75 307.707 1924.53 303.204 1920.03 298.195 1913.8 298.752 1907.26 299.308 1902.67 309.983 1902.4 316.509 1902.01 325.716 1901.24 344.131 1901.24 344.131 1900.89 352.58 1904.74 361.382 1909.28 368.262 1920.39 385.058 1936.93 395.226 1955.59 402.815 1975.8 411.01 1994.03 414.147 2015.84 414.4 2034.03 414.602 2065.65 411.617 2082.89 405.799 2104.12 398.616 2116.61 389.51 2133.04 374.231 2142.3 365.631 2148.49 353.187 2152.56 341.197 2157.25 327.436 2155.56 303.659 2155.56 303.659 2134.43 311.652 2116.06 322.428 2099.5 335.024 2080.79 349.24 2064.39 365.783 2048.94 383.287L2047.44 145.92C2069.45 170.203 2085.45 191.957 2107.47 210.22 2126 225.649 2135.53 231.518 2154.06 237.538 2148.77 218.466 2146.98 206.881 2133.31 187.758 2114.37 161.299 2095.91 132.868 2072.97 106.409 2115.21 99.3774 2157.43 97.4549 2200.19 97.4549 2242.96 97.4549 2285.17 99.3774 2327.42 106.409 2304.48 132.868 2286.02 161.299 2267.07 187.758 2253.41 206.881 2251.62 218.466 2246.32 237.538 2264.86 231.518 2274.39 225.649 2292.92 210.22 2314.93 191.957 2330.93 170.203 2352.95 145.92L2351.45 383.287C2336 365.783 2319.6 349.24 2300.89 335.024 2284.32 322.428 2265.96 311.652 2244.82 303.659 2244.82 303.659 2243.13 327.436 2247.83 341.197 2251.9 353.187 2258.09 365.631 2267.35 374.231 2283.78 389.51 2296.27 398.616 2317.5 405.799 2334.74 411.617 2366.36 414.602 2384.55 414.4 2406.36 414.147 2424.59 411.01 2444.79 402.815 2463.46 395.226 2480 385.058 2491.11 368.262 2495.64 361.382 2499.5 352.58 2499.15 344.131 2499.15 344.131 2498.37 325.716 2497.99 316.509 2497.72 309.983 2493.13 299.308 2486.59 298.752 2480.36 298.195 2475.86 303.204 2472.63 307.707 2465.35 317.824 2467.78 332.242 2463.59 344.03 2458.96 357.031 2451.14 366.998 2438.97 373.523 2428.84 378.937 2405.3 378.683 2405.3 378.683 2405.3 378.683 2411.64 359.763 2414.8 350.303 2421.5 330.32 2409.26 314.181 2405.94 293.338 2403.8 279.932 2403.14 265.059 2408.77 252.715 2414.87 239.359 2426.19 226.712 2439.95 221.552 2444.98 219.68 2450.84 219.781 2456.14 220.54 2463.65 221.602 2485.73 230.658 2485.73 230.658 2485.73 230.658 2485.03 204.351 2486.98 191.906 2489.33 176.83 2497.71 158.214 2505.88 145.313 2519.45 123.863 2540.21 104.538 2542.31 102.463 2544.49 104.588 2563.64 124.723 2575.68 147.033 2582.93 160.439 2595.82 188.618 2597.12 203.846 2598.2 216.392 2593.9 237.082 2593.9 237.082 2593.9 237.082 2608.85 232.277 2616.41 231.721 2621.76 231.366 2627.61 231.67 2632.49 233.895 2645.86 239.966 2656.28 253.372 2661.44 267.133 2666.19 279.831 2664.5 294.654 2661.44 307.858 2656.67 328.397 2636.85 344.283 2642.14 364.67 2644.64 374.333 2649.64 393.658 2649.64 393.658 2649.64 393.658 2626.15 392.241 2616.41 386.121 2604.73 378.835 2597.61 368.313 2593.9 355.058 2590.54 343.018 2597.24 329.561 2593.9 317.521 2592.23 311.501 2590.51 301.332 2584.26 301.433 2577.7 301.534 2569.6 310.792 2569.54 317.369 2569.45 327.588 2569.36 337.807 2569.26 348.026 2569.09 365.834 2581.67 381.668 2595.47 393.658 2614.67 410.302 2636.6 419.611 2666.81 416.879 2711.73 412.781 2752.48 371.348 2770.28 337.756 2681.45 354.603 2699.44 361.584 2665.61 367.554L2721.34 171.215C2737.85 219.68 2753.36 268.6 2801.31 304.519 2809.82 251.855 2785.75 188.112 2762.54 122.699 2819.6 125.431 2871.05 133.728 2915.19 149.36 2912.19 154.622 2909.23 159.883 2906.31 165.093 2866.07 147.235 2825.81 142.783 2785.58 141.013 2822.11 225.852 2820.93 280.893 2812.84 322.579 2785.02 309.831 2756.39 291.315 2720.65 223.171 2713.39 263.339 2702.05 303.507 2686.76 343.726 2719.69 328.751 2753.86 318.28 2791.11 330.067 2791.11 330.067 2775.08 363.709 2761.24 379.038 2745.36 396.542 2726.46 412.63 2704.75 421.988 2674.5 435.04 2644.05 437.975 2614.69 425.428 2595.47 417.232 2565.58 396.137 2558.3 375.193 2558.3 375.193 2552.77 356.323 2552.17 346.053 2551.49 334.418 2555.71 311.905 2555.71 311.905 2557.74 302.697 2566.74 291.416 2576.55 287.875 2582.07 285.851 2588.9 285.244 2594.18 287.875 2602.38 291.872 2605.07 293.642 2608.6 303.862 2610.86 310.438 2609.93 317.925 2608.6 324.704 2603.89 348.886 2608.99 368.515 2633.44 376.812 2633.44 376.812 2629.72 365.429 2628.64 357.588 2627.86 351.972 2628.83 346.002 2631.04 340.741 2635.12 331.129 2641.17 323.035 2645.46 313.524 2649.59 304.317 2651.8 293.895 2651.07 283.828 2650.48 275.683 2648.15 267.032 2643.06 260.607 2637.76 253.93 2629.79 248.567 2621.42 246.948 2605.68 243.963 2578.95 256.61 2578.95 256.61 2583.27 229.646 2587.19 214.469 2578.74 188.263 2575.23 177.387 2569.44 165.447 2559.71 151.789 2554.33 144.25 2548.55 134.588 2540.48 125.937 2522.67 145.111 2511.11 164.689 2504.33 184.57 2497.29 205.161 2497.24 231.67 2498.82 252.766 2498.82 252.766 2466.11 232.985 2451.63 234.25 2440.91 235.211 2433.25 240.574 2426.64 249.072 2420.8 256.61 2419.4 263.693 2418.31 273.153 2417.5 280.185 2419.24 291.113 2420.16 298.145 2421.41 307.656 2426.32 316.408 2427.56 325.919 2428.61 333.861 2431.9 338.414 2430.34 346.306 2429.24 351.871 2424.79 364.822 2424.79 364.822 2424.79 364.822 2435.16 360.573 2439.6 357.385 2445.71 352.984 2447.78 345.851 2450.7 338.869 2454.6 329.612 2451.66 322.326 2455.33 312.967 2458.92 303.811 2463.06 293.693 2471.06 287.976 2477.5 283.322 2486.62 281.905 2494.2 284.283 2502.96 286.964 2506.06 294.451 2509.93 302.798 2513.86 311.247 2516.4 334.266 2516.4 334.266L2509.93 362.95C2506.47 378.279 2491.08 396.188 2478.46 405.547 2465.72 415.007 2451.17 422.545 2435.89 426.845 2418.31 431.752 2398.63 433.573 2380.37 433.321 2361.13 433.017 2344.44 431.55 2325.77 426.845 2308.05 422.393 2292.26 414.248 2276.73 404.636 2232.57 377.267 2224.48 332.191 2225.37 282.411 2249.04 288.33 2266.92 296.222 2281.84 305.076 2303.59 317.975 2319.02 333.001 2336.88 347.217L2339.65 184.267C2323.33 200.759 2310.59 219.528 2290.31 233.39 2276.54 242.85 2249.57 255.599 2225.37 258.331 2232.68 225.346 2224.57 216.24 2296.16 119.461 2265.24 116.274 2240.12 112.075 2200.19 112.075Z" fill="#F8ECA8" fill-rule="evenodd"/><path d="M2198.44 126.46C2179.34 127.116 2153.05 129.337 2137.19 131.153 2137.19 131.153 2165.41 179.952 2177.18 205.436 2185.6 223.704 2199.7 262.46 2200.2 262.46L2198.44 126.46Z" fill="#FFEFA7" fill-rule="evenodd"/><path d="M2076.56 269.06C2077.09 253.596 2073.07 232.275 2074.51 219.462 2074.51 219.462 2097.63 243.586 2117.98 253.145 2132.53 259.951 2176.2 270.061 2176.2 270.462L2076.56 269.06Z" fill="#FFEFA7" fill-rule="evenodd"/><path d="M2322.83 269.06C2322.3 253.596 2326.31 232.275 2324.88 219.462 2324.88 219.462 2301.75 243.586 2281.41 253.145 2266.86 259.951 2223.19 270.061 2223.19 270.462L2322.83 269.06Z" fill="#FFEFA7" fill-rule="evenodd"/><path d="M2075.56 272.861C2076.09 288.326 2072.07 309.646 2073.51 322.459 2073.51 322.459 2096.63 298.336 2116.98 288.776 2131.53 281.969 2175.2 271.859 2175.2 271.459L2075.56 272.861Z" fill="#E7CD54" fill-rule="evenodd"/><path d="M2321.83 272.861C2321.3 288.326 2325.31 309.646 2323.88 322.459 2323.88 322.459 2300.76 298.336 2280.41 288.776 2265.86 281.969 2222.19 271.859 2222.19 271.459L2321.83 272.861Z" fill="#E7CD54" fill-rule="evenodd"/><path d="M1860.06 140.458 1865.21 323.458 1842.9 291.645C1834.88 280.233 1816.76 271.497 1803.42 272.759 1792.82 273.769 1782.92 276.9 1776.81 285.636 1769.79 295.634 1770.81 322.549 1770.81 322.549 1770.81 322.549 1763.41 313.864 1761.36 307.097 1758.88 298.866 1758.49 289.676 1760.5 281.344 1761.89 275.587 1764.83 269.932 1769.09 265.892 1773.25 261.902 1778.81 258.771 1784.54 258.165 1803.93 256.095 1836.03 273.618 1836.03 273.618 1836.03 273.618 1828.43 230.797 1830.02 212.617 1832.46 184.895 1860.06 140.458 1860.06 140.458Z" fill="#FFEFA7" fill-rule="evenodd"/><path d="M2541.37 140.458 2536.17 323.458 2558.7 291.645C2566.8 280.233 2585.09 271.497 2598.55 272.76 2609.25 273.769 2619.24 276.9 2625.41 285.636 2632.5 295.635 2631.47 322.549 2631.47 322.549 2631.47 322.549 2638.94 313.864 2641.01 307.097 2643.51 298.866 2643.91 289.676 2641.87 281.344 2640.48 275.587 2637.5 269.931 2633.21 265.892 2629.01 261.903 2623.39 258.772 2617.61 258.166 2598.04 256.096 2565.63 273.618 2565.63 273.618 2565.63 273.618 2573.31 230.796 2571.7 212.618 2569.24 184.895 2541.37 140.458 2541.37 140.458Z" fill="#E7CD54" fill-rule="evenodd"/><path d="M1520.23 177.47C1538 170.493 1562.98 162.089 1578.23 157.453 1578.23 157.453 1566.7 210.22 1565.93 238.59 1565.38 258.861 1570.46 299.25 1570 299.454L1520.23 177.47Z" fill="#F8ECA8" fill-rule="evenodd"/><path d="M2880.16 179.333C2862.39 172.404 2837.41 164.059 2822.16 159.457 2822.16 159.457 2833.69 211.852 2834.46 240.022 2835 260.15 2829.93 300.256 2830.39 300.458L2880.16 179.333Z" fill="#E7CD54" fill-rule="evenodd"/><path d="M2200.19 349.399C2200.19 349.399 2175.22 387.926 2159.86 401.107 2138.53 419.407 2124.5 430.407 2097.1 439.076 2069.75 447.744 2031.6 452.561 2002.96 450.989 1975.27 449.468 1946.77 441.458 1921.81 429.292 1900.12 418.799 1865.55 388.078 1865.55 388.078 1848.74 409.978 1827.34 425.288 1806.98 436.643 1780.93 451.141 1755.2 452.459 1728.17 450.989 1673.21 448.049 1621.95 413.628 1580.83 343.874 1554.16 280.659 1523.49 216.634 1485.19 149.465 1529.34 133.851 1580.78 125.487 1637.84 122.749 1614.63 188.347 1590.56 252.169 1599.07 304.941 1647.01 268.949 1662.52 219.929 1679.03 171.364L1734.76 368.105C1700.93 362.174 1718.92 355.128 1630.1 338.247 1647.89 371.907 1688.64 413.476 1733.57 417.531 1763.77 420.319 1785.7 410.941 1804.9 394.263 1818.69 382.248 1831.27 366.382 1831.11 348.538 1831.01 338.298 1830.91 328.058 1830.82 317.818 1830.76 311.227 1822.67 301.95 1816.11 301.849 1809.86 301.748 1808.13 311.937 1806.46 317.97 1803.13 330.034 1809.83 343.519 1806.46 355.584 1802.75 368.866 1795.64 379.41 1783.95 386.71 1774.22 392.844 1750.73 394.263 1750.73 394.263L1758.23 365.266C1763.52 344.787 1743.7 328.868 1738.94 308.287 1735.87 295.056 1734.18 280.203 1738.94 267.479 1744.09 253.69 1754.51 240.257 1767.88 234.173 1772.76 231.943 1778.61 231.639 1783.95 231.994 1791.51 232.551 1806.46 237.367 1806.46 237.367 1806.46 237.367 1802.17 216.634 1803.25 204.062 1804.55 188.803 1817.43 160.566 1824.68 147.133 1836.72 124.777 1855.87 104.601 1858.06 102.472 1860.16 104.551 1880.92 123.966 1894.48 145.409 1902.65 158.336 1911.03 176.991 1913.38 192.098 1915.33 204.568 1914.63 230.929 1914.63 230.929 1914.63 230.929 1936.71 221.855 1944.22 220.79 1949.52 220.03 1955.38 219.929 1960.4 221.804 1974.16 226.975 1985.49 239.649 1991.58 253.031 1997.22 265.401 1996.56 280.304 1994.42 293.738 1991.09 314.623 1978.85 330.795 1985.55 350.819L1995.05 379.258C1995.05 379.258 1971.52 379.511 1961.38 374.087 1949.22 367.548 1941.39 357.561 1936.77 344.533 1932.57 332.772 1935.01 318.273 1927.73 308.135 1924.5 303.624 1920 298.655 1913.77 299.163 1907.24 299.72 1902.64 310.416 1902.37 316.956L1901.21 344.634C1900.86 353.1 1904.72 361.921 1909.25 368.815 1920.36 385.645 1936.9 395.835 1955.56 403.439 1975.77 411.651 1994 414.794 2015.8 415.048 2033.99 415.25 2065.61 412.259 2082.85 406.429 2104.08 399.231 2116.57 390.106 2132.99 374.796 2142.25 366.23 2148.44 353.709 2152.52 341.694 2157.21 327.905 2155.52 304.08 2155.52 304.08 2134.39 312.089 2116.02 322.887 2099.46 335.509 2080.75 349.754 2064.35 366.331 2048.91 383.871L2047.4 146.018C2069.42 170.35 2085.42 192.149 2107.43 210.5 2125.96 225.91 2135.49 231.791 2154.02 237.823 2148.73 218.712 2146.94 207.103 2133.27 187.941 2114.32 161.428 2095.87 132.939 2072.93 106.426 2115.17 99.3797 2157.39 97.4532 2200.19 97.4532 2243 97.4532 2285.21 99.3797 2327.46 106.426 2304.51 132.939 2286.06 161.428 2267.11 187.941 2253.45 207.103 2251.66 218.712 2246.37 237.823 2264.9 231.791 2274.43 225.91 2292.96 210.5 2314.97 192.149 2330.97 170.35 2352.98 146.018L2351.48 383.871C2336.03 366.331 2319.63 349.754 2300.92 335.509 2284.36 322.887 2266 312.089 2244.86 304.08 2244.86 304.08 2243.18 327.905 2247.87 341.694 2251.94 353.709 2258.13 366.23 2267.39 374.796 2283.82 390.106 2296.31 399.231 2317.54 406.429 2334.77 412.259 2366.39 415.25 2384.58 415.048 2406.39 414.794 2424.62 411.651 2444.82 403.439 2463.48 395.835 2480.02 385.645 2491.13 368.815 2495.67 361.921 2499.53 353.1 2499.17 344.634L2498.02 316.956C2497.74 310.416 2493.15 299.72 2486.62 299.163 2480.39 298.655 2475.88 303.624 2472.66 308.135 2465.38 318.273 2467.81 332.772 2463.62 344.533 2458.99 357.561 2451.17 367.548 2439 374.087 2428.87 379.511 2405.34 379.258 2405.34 379.258L2414.83 350.819C2421.53 330.795 2409.3 314.623 2405.97 293.738 2403.83 280.304 2403.17 265.401 2408.8 253.031 2414.9 239.649 2426.23 226.975 2439.99 221.804 2445.01 219.929 2450.87 220.03 2456.17 220.79 2463.68 221.855 2485.75 230.929 2485.75 230.929 2485.75 230.929 2485.06 204.568 2487 192.098 2489.36 176.991 2497.74 158.336 2505.91 145.409 2519.47 123.966 2540.23 104.551 2542.33 102.472 2544.51 104.601 2563.66 124.777 2575.7 147.133 2582.95 160.566 2595.84 188.803 2597.14 204.062 2598.22 216.634 2593.92 237.367 2593.92 237.367 2593.92 237.367 2608.87 232.551 2616.43 231.994 2621.78 231.639 2627.63 231.943 2632.51 234.173 2645.88 240.257 2656.3 253.69 2661.45 267.479 2666.21 280.203 2664.52 295.056 2661.45 308.287 2656.68 328.868 2636.86 344.787 2642.15 365.266L2649.66 394.263C2649.66 394.263 2626.16 392.844 2616.43 386.71 2604.75 379.41 2597.63 368.866 2593.92 355.584 2590.56 343.519 2597.26 330.034 2593.92 317.97 2592.25 311.937 2590.52 301.748 2584.28 301.849 2577.72 301.95 2569.62 311.227 2569.56 317.818 2569.47 328.058 2569.38 338.298 2569.28 348.538 2569.11 366.382 2581.7 382.248 2595.49 394.263 2614.69 410.941 2636.62 420.319 2666.82 417.531 2711.75 413.476 2752.49 371.907 2770.29 338.247 2681.47 355.128 2699.45 362.174 2665.63 368.105L2721.35 171.364C2737.86 219.929 2753.37 268.949 2801.32 304.941 2809.83 252.169 2785.75 188.347 2762.55 122.749 2819.61 125.487 2871.05 133.851 2915.19 149.465 2876.89 216.634 2846.22 280.659 2819.56 343.874 2778.44 413.628 2727.17 448.049 2672.22 450.989 2645.19 452.459 2619.45 451.141 2593.41 436.643 2573.04 425.288 2551.64 409.978 2534.84 388.078 2534.84 388.078 2500.27 418.799 2478.57 429.292 2453.61 441.458 2425.12 449.468 2397.42 450.989 2368.79 452.561 2330.64 447.744 2303.29 439.076 2275.89 430.407 2261.86 419.407 2240.53 401.107 2225.17 387.926 2200.19 349.399 2200.19 349.399Z" stroke="#806600" stroke-width="7.70974" stroke-miterlimit="8" fill="none" fill-rule="evenodd"/><path d="M1826.03 327.928 1911.43 323.294 1923.58 341.941 1913.52 361.743 1828.12 366.377 1813.4 347.92 1826.03 327.928Z" fill="#F6E078" fill-rule="evenodd"/><path d="M1826.03 327.929 1911.43 323.295 1923.58 341.942 1813.4 347.921 1826.03 327.929Z" fill="#F8ECA8" fill-rule="evenodd"/><path d="M1826.03 327.928 1911.43 323.294 1923.58 341.941 1913.52 361.743 1828.12 366.377 1813.4 347.92 1826.03 327.928Z" stroke="#806600" stroke-width="7.70974" stroke-miterlimit="8" fill="none" fill-rule="evenodd"/><path d="M13.9399-0.549305 99.4608-0.549305 110.587 18.7287 99.4608 37.9559 13.9399 37.9559 0.242597 18.7287 13.9399-0.549305Z" fill="#F6E078" fill-rule="evenodd" transform="matrix(-0.998531 -0.0541845 -0.0541845 0.998531 2587.83 329.23)"/><path d="M13.9399-0.548786 99.4608-0.548786 110.587 18.729 0.24311 18.729 13.9399-0.548786Z" fill="#FFE9A7" fill-rule="evenodd" transform="matrix(-0.998531 -0.0541845 -0.0541845 0.998531 2587.83 329.23)"/><path d="M13.9399-0.549305 99.4608-0.549305 110.587 18.7287 99.4608 37.9559 13.9399 37.9559 0.242597 18.7287 13.9399-0.549305Z" stroke="#806600" stroke-width="7.70974" stroke-miterlimit="8" fill="none" fill-rule="evenodd" transform="matrix(-0.998531 -0.0541845 -0.0541845 0.998531 2587.83 329.23)"/><path d="M1660.94 660.223C1660.94 660.223 1721.94 655.741 1829.41 649.661 1936.89 643.576 2052.03 640.386 2110.77 640.386 2120.17 640.386 2280.45 640.386 2289.82 640.386 2346.71 640.386 2464.56 643.576 2571.18 649.661 2677.78 655.741 2738.42 660.837 2738.42 660.837L2775.8 493.475C2775.8 493.475 2392.79 458.836 2200.3 458.836 2007.8 458.836 1624.8 493.475 1624.8 493.475L1660.95 660.223Z" fill="#E7CD54" fill-rule="evenodd"/><path d="M2423.65 469.836 2773.78 496.082 2738.75 665.836 2417.78 643.619Z" fill="#D5C05A" fill-rule="evenodd"/><path d="M1703.81 484.601 2137.81 457.836 2137.54 631.169 1714.15 650.837 1703.81 484.601Z" fill="#E7CD54" fill-rule="evenodd"/><path d="M1738.82 480.252 2031.08 460.838 2038.82 635.36 1749.13 648.838 1738.82 480.252Z" fill="#F6E078" fill-rule="evenodd"/><path d="M1778.82 476.523 1945.09 465.837 1952.82 640.904 1870.97 643.871 1789.12 646.837 1778.82 476.523Z" fill="#F8ECA8" fill-rule="evenodd"/><path d="M2108.39 618.833C2049.06 618.833 1933.91 621.997 1826.09 628.077 1758.56 631.958 1721.13 638.438 1653.8 645.034 1653.8 645.034 1660.54 659.221 1660.54 659.221 1728.29 653.06 1760.01 652.049 1827.93 647.966 1935.1 641.926 2050.22 638.721 2108.39 638.721 2117.79 638.721 2278.11 638.721 2287.47 638.721 2343.79 638.721 2461.73 641.926 2568.02 647.966 2673.97 653.99 2738.55 659.833 2738.55 659.833 2738.55 659.833 2741.8 646.398 2741.8 646.398 2741.8 646.398 2677.16 634.177 2569.86 628.077 2462.88 621.997 2344.98 618.833 2287.48 618.833 2278.11 618.833 2117.79 618.833 2108.39 618.833Z" fill="#D1B948" fill-rule="evenodd"/><path d="M1826.58 474.523C1718.38 480.673 1624.8 493.098 1624.8 493.098 1624.8 493.098 1631.57 522.84 1631.57 522.84 1631.57 522.84 1721.57 511.031 1828.42 504.963 1935.62 498.87 2050.75 496.445 2108.94 496.445 2118.34 496.445 2278.69 496.445 2288.06 496.445 2344.38 496.445 2464.13 500.164 2570.44 506.252 2676.41 512.325 2768.66 522.84 2768.66 522.84 2768.66 522.84 2773.8 493.098 2773.8 493.098 2773.8 493.098 2677.83 480.673 2570.5 474.523 2463.5 468.394 2345.57 460.839 2288.06 460.839 2278.69 460.839 2099.54 460.839 2108.94 460.839 2014.63 462.475 1920.59 469.067 1826.58 474.523L1826.58 474.523Z" fill="#D0B500" fill-rule="evenodd"/><path d="M2197.44 460.837C2389.85 460.741 2582.24 471.16 2773.8 492.365L2738.73 660.837C2548.2 643.753 2392.24 639.181 2199.6 637.674M2202.16 460.837C2009.74 460.741 1817.35 471.16 1625.8 492.365L1660.86 660.837C1851.4 643.753 2007.35 639.181 2199.99 637.674" stroke="#806600" stroke-width="7.70974" stroke-miterlimit="8" fill="none" fill-rule="evenodd"/><path d="M1828.01 464.604 1827.85 464.727 1827.7 464.727C1759.34 469.694 1680.24 475.111 1611.21 484.607 1601.45 496.39 1600.64 507.135 1618.4 515.726 1684.67 506.609 1762.81 501.061 1831.21 496.094 1923.97 490.665 2017.51 487.271 2110.8 486.338L2289.74 486.338C2345.54 486.338 2463.4 489.776 2569.32 496.217 2674.77 502.626 2782.45 515.726 2782.45 515.726 2800.83 506.25 2798.83 495.651 2788.84 484.607 2788.84 484.607 2680.16 471.148 2572.52 464.604 2465.36 458.088 2347.65 454.725 2289.74 454.725L2110.8 454.725C2016.4 455.01 1922.14 459.507 1828.01 464.604Z" fill="#F6E078" fill-rule="evenodd"/><path d="M2796.28 496.728C2796.83 491.541 2793.83 489.938 2788.84 484.448 2788.84 484.448 2680.16 471.059 2572.52 464.552 2465.36 458.076 2347.65 454.728 2289.73 454.728L2110.8 454.728C2016.4 455.011 1922.15 459.483 1828.02 464.552L1827.86 464.674 1827.69 464.674C1759.34 469.614 1680.24 475.001 1611.22 484.448 1606.33 490.307 1603.69 490.873 1604.49 496.076 1684.31 488.621 1751.76 480.157 1829 475.516 1951.6 468.152 2082.11 466.733 2198.93 466.367 2315.4 466.002 2429.22 469.091 2540.84 475.578 2627.24 480.597 2712.32 487.658 2796.28 496.728Z" fill="#F8ECA8" fill-rule="evenodd"/><path d="M1608.35 508.96C1610.62 511.338 1613.9 513.599 1618.34 515.727 1684.63 506.683 1762.79 501.185 1831.21 496.256 1924.01 490.872 2017.57 487.506 2110.9 486.581L2289.89 486.581C2345.72 486.581 2463.61 489.994 2569.58 496.377 2675.06 502.737 2782.78 515.727 2782.78 515.727 2788.54 512.78 2790.21 511.06 2792.35 507.914 2588.35 480.041 2403 477.251 2207.34 475.86 2016.74 474.508 1802 483.298 1608.35 508.96L1608.35 508.96Z" fill="#D1B948" fill-rule="evenodd"/><path d="M1828.01 464.604 1827.85 464.727 1827.7 464.727C1759.34 469.694 1680.24 475.111 1611.21 484.607 1601.45 496.39 1600.64 507.135 1618.4 515.726 1684.67 506.609 1762.81 501.061 1831.21 496.094 1923.97 490.665 2017.51 487.271 2110.8 486.338L2289.74 486.338C2345.54 486.338 2463.4 489.776 2569.32 496.217 2674.77 502.626 2782.45 515.726 2782.45 515.726 2800.83 506.25 2798.83 495.651 2788.84 484.607 2788.84 484.607 2680.16 471.148 2572.52 464.604 2465.36 458.088 2347.65 454.725 2289.74 454.725L2110.8 454.725C2016.4 455.01 1922.14 459.507 1828.01 464.604Z" stroke="#806600" stroke-width="7.77904" stroke-miterlimit="8" fill="none" fill-rule="evenodd"/><path d="M1853.63 638.612 1853.48 638.735 1853.33 638.735C1789.68 643.702 1716.02 649.119 1651.74 658.615 1642.65 670.399 1641.9 681.143 1658.44 689.734 1720.15 680.618 1792.91 675.07 1856.6 670.102 1942.99 664.673 2030.09 661.279 2116.96 660.346L2283.59 660.346C2335.55 660.346 2445.3 663.784 2543.94 670.225 2642.13 676.634 2742.41 689.734 2742.41 689.734 2759.52 680.258 2757.66 669.66 2748.36 658.615 2748.36 658.615 2647.16 645.156 2546.92 638.612 2447.13 632.096 2337.52 628.733 2283.59 628.733L2116.96 628.733C2029.05 629.018 1941.28 633.515 1853.63 638.612Z" fill="#F6E078" fill-rule="evenodd"/><path d="M2755.29 670.736C2755.8 665.549 2753.01 663.946 2748.36 658.456 2748.36 658.456 2647.16 645.068 2546.92 638.56 2447.13 632.084 2337.52 628.736 2283.58 628.736L2116.96 628.736C2029.05 629.019 1941.28 633.491 1853.63 638.56L1853.48 638.682 1853.33 638.682C1789.68 643.622 1716.02 649.009 1651.74 658.456 1647.2 664.315 1644.74 664.881 1645.48 670.084 1719.81 662.63 1782.62 654.165 1854.55 649.524 1968.72 642.16 2090.24 640.741 2199.02 640.376 2307.49 640.01 2413.48 643.099 2517.42 649.587 2597.88 654.605 2677.1 661.666 2755.29 670.736Z" fill="#F8ECA8" fill-rule="evenodd"/><path d="M1649.35 682.968C1651.46 685.346 1654.51 687.607 1658.64 689.735 1720.34 680.691 1793.1 675.193 1856.78 670.264 1943.15 664.88 2030.23 661.514 2117.09 660.589L2283.69 660.589C2335.65 660.589 2445.38 664.002 2544.01 670.385 2642.18 676.745 2742.44 689.735 2742.44 689.735 2747.81 686.788 2749.36 685.068 2751.35 681.922 2561.47 654.049 2388.97 651.259 2206.85 649.868 2029.46 648.516 1829.59 657.306 1649.35 682.968L1649.35 682.968Z" fill="#D1B948" fill-rule="evenodd"/><path d="M1853.63 638.788 1853.48 638.91 1853.33 638.91C1789.68 643.86 1716.02 649.259 1651.74 658.722 1642.65 670.466 1641.9 681.173 1658.44 689.735 1720.15 680.65 1792.91 675.121 1856.6 670.17 1942.99 664.76 2030.09 663.168 2116.96 662.239L2283.59 662.239C2335.55 662.239 2445.3 663.873 2543.94 670.292 2642.13 676.68 2742.41 689.735 2742.41 689.735 2759.52 680.291 2757.66 669.729 2748.36 658.722 2748.36 658.722 2647.16 645.309 2546.92 638.788 2447.13 632.294 2337.52 630.734 2283.59 630.734L2116.96 630.734C2029.05 631.018 1941.28 633.708 1853.63 638.788Z" stroke="#806600" stroke-width="7.74619" stroke-miterlimit="8" fill="none" fill-rule="evenodd"/><path d="M2288.57 513.582C2288.57 513.582 2288.57 518.15 2288.57 523.785L2288.57 589.379C2288.57 595.014 2288.57 599.582 2288.57 599.582L2108.57 599.582C2108.57 599.582 2108.57 595.014 2108.57 589.379L2108.57 523.785C2108.57 518.15 2108.57 513.582 2108.57 513.582Z" stroke="#A0892C" stroke-width="7.77904" stroke-miterlimit="8" fill="#F6E078" fill-rule="evenodd"/><path d="M1962.59 524C1962.59 524 1965.14 538.551 1968.29 556.5L1968.29 556.5C1971.45 574.45 1974 589.001 1974 589.001L1842.41 602C1842.41 602 1839.86 587.449 1836.71 569.5L1836.71 569.5C1833.56 551.55 1831 536.999 1831 536.999Z" fill="#F6E078" fill-rule="evenodd"/><path d="M1928.23 554.418C1929.03 559.042 1925.72 567.138 1920.04 571.464 1910.31 578.869 1893.7 581.593 1879.51 582.989 1857.05 585.196 1840.72 575.094 1838.55 562.548 1837.26 555.043 1840.88 544.965 1850.21 539.835 1856.49 536.392 1866.3 534.246 1875.33 533.36 1890.44 531.874 1910.88 532.897 1921.54 539.73 1926.72 543.057 1927.52 550.309 1928.23 554.418Z" fill="#FFEFA7" fill-rule="evenodd"/><path d="M1962.59 524C1962.59 524 1965.14 538.551 1968.29 556.5L1968.29 556.5C1971.45 574.45 1974 589.001 1974 589.001L1842.41 602C1842.41 602 1839.86 587.449 1836.71 569.5L1836.71 569.5C1833.56 551.55 1831 536.999 1831 536.999Z" stroke="#A0892C" stroke-width="7.72851" stroke-miterlimit="8" fill="none" fill-rule="evenodd"/><path d="M1895.98 554.613C1897.09 561.028 1889.5 567.07 1879.03 568.113 1868.55 569.155 1859.14 564.803 1858.02 558.388 1856.91 551.972 1864.5 545.93 1874.98 544.887 1885.45 543.845 1894.86 548.198 1895.98 554.613Z" fill="#FFFBE6" fill-rule="evenodd"/><path d="M71.917 81.8675-0.289783 39.731 71.917-0.129761 95.689 38.9119 71.917 81.8675Z" fill="#FFEFA7" fill-rule="evenodd" transform="matrix(-0.985103 0.171966 0.171966 0.985103 1701.33 532.129)"/><path d="M71.917 42.8243-0.28927 0.687786 94.9329-0.1313 71.917 42.8243Z" fill="#F6E078" fill-rule="evenodd" transform="matrix(-0.985103 0.171966 0.171966 0.985103 1708.04 570.59)"/><path d="M71.9169 81.8675-0.289783 39.731 71.9169-0.129761 96.4454 38.0929 71.9169 81.8675Z" stroke="#A48D2F" stroke-width="7.7166" stroke-miterlimit="8" fill="none" fill-rule="evenodd" transform="matrix(-0.985103 0.171966 0.171966 0.985103 1701.33 532.13)"/><path d="M2437.41 524C2437.41 524 2434.86 538.551 2431.71 556.5L2431.71 556.5C2428.55 574.45 2426 589.001 2426 589.001L2557.59 602C2557.59 602 2560.14 587.449 2563.29 569.5L2563.29 569.5C2566.45 551.55 2569 536.999 2569 536.999Z" fill="#F6E078" fill-rule="evenodd"/><path d="M89.7902 22.1831C90.5128 26.8197 87.08 34.8613 81.33 39.0952 71.4769 46.3434 54.8295 48.8017 40.623 49.9696 18.1281 51.8165 1.95616 41.4545-0.00923202 28.8753-1.18119 21.3507 2.59933 11.3324 12.0165 6.35268 18.344 3.01017 28.1879 1.02168 37.2302 0.280039 52.362-0.963212 72.7904 0.386721 83.3349 7.39027 88.4638 10.7995 89.147 18.0636 89.7902 22.1831Z" fill="#FFEFA7" fill-rule="evenodd" transform="matrix(-0.999872 -0.0160182 -0.0160182 0.999872 2561.88 533.676)"/><path d="M2437.41 524C2437.41 524 2434.86 538.551 2431.71 556.5L2431.71 556.5C2428.55 574.45 2426 589.001 2426 589.001L2557.59 602C2557.59 602 2560.14 587.449 2563.29 569.5L2563.29 569.5C2566.45 551.55 2569 536.999 2569 536.999Z" stroke="#A0892C" stroke-width="7.72851" stroke-miterlimit="8" fill="none" fill-rule="evenodd"/><path d="M2504.03 554.613C2502.91 561.028 2510.5 567.07 2520.97 568.113 2531.45 569.155 2540.86 564.803 2541.98 558.388 2543.09 551.972 2535.51 545.93 2525.02 544.887 2514.55 543.845 2505.14 548.198 2504.03 554.613Z" fill="#FFFBE6" fill-rule="evenodd"/><path d="M2755.49 625.153 2691.6 571.227 2769.59 544.378 2786.29 586.926 2755.49 625.153Z" fill="#FFEFA7" fill-rule="evenodd"/><path d="M2755.49 625.152 2691.6 571.226 2785.55 586.794 2755.49 625.152Z" fill="#F6E078" fill-rule="evenodd"/><path d="M2755.49 625.154 2691.6 571.228 2769.59 544.378 2787.18 586.249 2755.49 625.154Z" stroke="#A48D2F" stroke-width="7.7166" stroke-miterlimit="8" fill="none" fill-rule="evenodd"/><path d="M2133 537.203 2133 576.203 2266 576.203 2266 537.203 2133 537.203Z" fill="#FFEFA7" fill-rule="evenodd"/><path d="M2200.78 1495.35 2937.96 1972.37 2895.37 2014.69C2720.61 2172.98 2484.46 2302.59 2201 2430.5 1917.53 2302.59 1681.39 2172.98 1506.63 2014.69L1463.86 1972.2ZM1196.65 825.5 3204.91 825.5 3218.5 834.296 3218.48 836.811 2200.78 1495.35 1183.52 837.1 1183.5 834.01Z" stroke="#7F7F7F" stroke-width="6.875" stroke-miterlimit="8" fill="#FFFFFF" fill-rule="evenodd"/><path d="M3216.3 43.796C3221.69 383.601 3221.37 723.459 3216.3 1063.25 3211.42 1390.64 3195.11 1646.12 3048.65 1845.88 2872.23 2086.52 2578.3 2260.18 2200.22 2430.8 1822.14 2260.18 1528.21 2086.52 1351.79 1845.88 1205.33 1646.12 1189.02 1390.64 1184.14 1063.25 1179.08 723.459 1178.76 383.606 1184.14 43.796L3216.3 43.796Z" stroke="#806600" stroke-width="12.0433" stroke-miterlimit="8" fill="none" fill-rule="evenodd"/></g></svg>