<?xml version="1.0" encoding="UTF-8" standalone="no"?>
<!-- Created with Inkscape (http://www.inkscape.org/) -->

<svg
   version="1.0"
   width="265.00235"
   height="317.01511"
   id="svg7107"
   sodipodi:version="0.32"
   inkscape:version="1.1.1 (3bf5ae0d25, 2021-09-20)"
   sodipodi:docname="Grey College, Durham arms.svg"
   inkscape:output_extension="org.inkscape.output.svg.inkscape"
   xmlns:inkscape="http://www.inkscape.org/namespaces/inkscape"
   xmlns:sodipodi="http://sodipodi.sourceforge.net/DTD/sodipodi-0.dtd"
   xmlns:xlink="http://www.w3.org/1999/xlink"
   xmlns="http://www.w3.org/2000/svg"
   xmlns:svg="http://www.w3.org/2000/svg"
   xmlns:rdf="http://www.w3.org/1999/02/22-rdf-syntax-ns#"
   xmlns:cc="http://creativecommons.org/ns#"
   xmlns:dc="http://purl.org/dc/elements/1.1/">
  <metadata
     id="metadata296">
    <rdf:RDF>
      <cc:Work
         rdf:about="">
        <dc:format>image/svg+xml</dc:format>
        <dc:type
           rdf:resource="http://purl.org/dc/dcmitype/StillImage" />
      </cc:Work>
    </rdf:RDF>
  </metadata>
  <sodipodi:namedview
     inkscape:window-height="1009"
     inkscape:window-width="1920"
     inkscape:pageshadow="2"
     inkscape:pageopacity="0.0"
     guidetolerance="10.0"
     gridtolerance="10.0"
     objecttolerance="10.0"
     borderopacity="1.0"
     bordercolor="#666666"
     pagecolor="#ffffff"
     id="base"
     showgrid="false"
     inkscape:zoom="1.9798981"
     inkscape:cx="102.27799"
     inkscape:cy="54.800799"
     inkscape:window-x="-8"
     inkscape:window-y="-8"
     inkscape:current-layer="svg7107"
     inkscape:window-maximized="1"
     inkscape:pagecheckerboard="0"
     inkscape:snap-grids="false"
     fit-margin-top="0"
     fit-margin-left="0"
     fit-margin-right="0"
     fit-margin-bottom="0">
    <inkscape:grid
       type="xygrid"
       id="grid20532"
       originx="10"
       originy="330" />
  </sodipodi:namedview>
  <defs
     id="defs3">
    <linearGradient
       inkscape:collect="always"
       id="linearGradient8386">
      <stop
         style="stop-color:#ffffff;stop-opacity:1;"
         offset="0"
         id="stop8382" />
      <stop
         style="stop-color:#ffffff;stop-opacity:0;"
         offset="1"
         id="stop8384" />
    </linearGradient>
    <linearGradient
       inkscape:collect="always"
       id="linearGradient39281">
      <stop
         style="stop-color:#b3b3b3;stop-opacity:1;"
         offset="0"
         id="stop39277" />
      <stop
         style="stop-color:#b3b3b3;stop-opacity:0;"
         offset="1"
         id="stop39279" />
    </linearGradient>
    <style
       type="text/css"
       id="style25943" />
    <style
       type="text/css"
       id="style28653" />
    <style
       type="text/css"
       id="style12449" />
    <linearGradient
       inkscape:collect="always"
       xlink:href="#linearGradient39281"
       id="linearGradient39283"
       x1="-12.09598"
       y1="96.772858"
       x2="-12.017016"
       y2="94.304314"
       gradientUnits="userSpaceOnUse"
       gradientTransform="matrix(0.95,0,0,0.95,6.2205847,14.275726)" />
    <linearGradient
       inkscape:collect="always"
       xlink:href="#linearGradient39281"
       id="linearGradient39558"
       gradientUnits="userSpaceOnUse"
       x1="-12.09598"
       y1="96.772858"
       x2="-12.017016"
       y2="94.304314"
       gradientTransform="matrix(0.95,0,0,0.95,6.6749887,42.979187)" />
    <linearGradient
       inkscape:collect="always"
       xlink:href="#linearGradient39281"
       id="linearGradient39581"
       gradientUnits="userSpaceOnUse"
       x1="-12.09598"
       y1="96.772858"
       x2="-12.017016"
       y2="94.304314"
       gradientTransform="matrix(0.95,0,0,0.95,5.0147877,72.81521)" />
    <linearGradient
       inkscape:collect="always"
       xlink:href="#linearGradient39281"
       id="linearGradient39604"
       gradientUnits="userSpaceOnUse"
       x1="-12.09598"
       y1="96.772858"
       x2="-12.017016"
       y2="94.304314"
       gradientTransform="matrix(0.95,0,0,0.95,5.2669747,102.38121)" />
    <linearGradient
       inkscape:collect="always"
       xlink:href="#linearGradient39281"
       id="linearGradient39627"
       gradientUnits="userSpaceOnUse"
       x1="-12.09598"
       y1="96.772858"
       x2="-12.017016"
       y2="94.304314"
       gradientTransform="matrix(0.95,0,0,0.95,7.0711767,130.82543)" />
    <linearGradient
       inkscape:collect="always"
       xlink:href="#linearGradient39281"
       id="linearGradient39650"
       gradientUnits="userSpaceOnUse"
       x1="-12.09598"
       y1="96.772858"
       x2="-12.017016"
       y2="94.304314"
       gradientTransform="matrix(0.95,0,0,0.95,8.2041087,158.65828)" />
    <linearGradient
       inkscape:collect="always"
       xlink:href="#linearGradient39281"
       id="linearGradient39673"
       gradientUnits="userSpaceOnUse"
       x1="-12.09598"
       y1="96.772858"
       x2="-12.017016"
       y2="94.304314"
       gradientTransform="matrix(0.95,0,0,0.95,6.5024307,187.6729)" />
    <linearGradient
       inkscape:collect="always"
       xlink:href="#linearGradient39281"
       id="linearGradient39696"
       gradientUnits="userSpaceOnUse"
       x1="-12.09598"
       y1="96.772858"
       x2="-12.017016"
       y2="94.304314"
       gradientTransform="matrix(0.95,0,0,0.95,55.849601,18.318166)" />
    <linearGradient
       inkscape:collect="always"
       xlink:href="#linearGradient39281"
       id="linearGradient39719"
       gradientUnits="userSpaceOnUse"
       x1="-12.09598"
       y1="96.772858"
       x2="-12.017016"
       y2="94.304314"
       gradientTransform="matrix(0.95,0,0,0.95,56.225877,45.278548)" />
    <linearGradient
       inkscape:collect="always"
       xlink:href="#linearGradient39281"
       id="linearGradient39742"
       gradientUnits="userSpaceOnUse"
       x1="-12.09598"
       y1="96.772858"
       x2="-12.017016"
       y2="94.304314"
       gradientTransform="matrix(0.95,0,0,0.95,55.398294,74.200766)" />
    <linearGradient
       inkscape:collect="always"
       xlink:href="#linearGradient39281"
       id="linearGradient39765"
       gradientUnits="userSpaceOnUse"
       x1="-12.09598"
       y1="96.772858"
       x2="-12.017016"
       y2="94.304314"
       gradientTransform="matrix(0.95,0,0,0.95,56.8382,104.87353)" />
    <linearGradient
       inkscape:collect="always"
       xlink:href="#linearGradient39281"
       id="linearGradient39788"
       gradientUnits="userSpaceOnUse"
       x1="-12.09598"
       y1="96.772858"
       x2="-12.017016"
       y2="94.304314"
       gradientTransform="matrix(0.95,0,0,0.95,57.376517,130.46787)" />
    <linearGradient
       inkscape:collect="always"
       xlink:href="#linearGradient39281"
       id="linearGradient39811"
       gradientUnits="userSpaceOnUse"
       x1="-12.09598"
       y1="96.772858"
       x2="-12.017016"
       y2="94.304314"
       gradientTransform="matrix(0.95,0,0,0.95,56.844204,160.12828)" />
    <linearGradient
       inkscape:collect="always"
       xlink:href="#linearGradient39281"
       id="linearGradient39834"
       gradientUnits="userSpaceOnUse"
       x1="-12.09598"
       y1="96.772858"
       x2="-12.017016"
       y2="94.304314"
       gradientTransform="matrix(0.95,0,0,0.95,56.807781,187.31548)" />
    <radialGradient
       inkscape:collect="always"
       xlink:href="#linearGradient8386"
       id="radialGradient8388"
       cx="39.08025"
       cy="26.928028"
       fx="39.08025"
       fy="26.928028"
       r="13.775978"
       gradientTransform="matrix(0.92117213,0.03666357,-0.0199669,0.50154608,3.6183266,17.449562)"
       gradientUnits="userSpaceOnUse" />
    <radialGradient
       inkscape:collect="always"
       xlink:href="#linearGradient8386"
       id="radialGradient8388-8"
       cx="39.08025"
       cy="26.928028"
       fx="39.08025"
       fy="26.928028"
       r="13.775978"
       gradientTransform="matrix(0.92117213,0.03666357,-0.0199669,0.50154608,3.6183266,17.449562)"
       gradientUnits="userSpaceOnUse" />
    <radialGradient
       inkscape:collect="always"
       xlink:href="#linearGradient8386"
       id="radialGradient8388-1"
       cx="39.08025"
       cy="26.928028"
       fx="39.08025"
       fy="26.928028"
       r="13.775978"
       gradientTransform="matrix(0.92117213,0.03666357,-0.0199669,0.50154608,3.6183266,17.449562)"
       gradientUnits="userSpaceOnUse" />
  </defs>
  <g
     id="g2766"
     transform="translate(-808.83331,-240.65668)" />
  <g
     id="g15463"
     transform="translate(-2043.4522,-411.3897)" />
  <g
     id="g39523"
     transform="translate(-2886.0085,190.94944)" />
  <g
     style="display:inline"
     id="g39620"
     transform="translate(-2209.5126,133.85136)" />
  <g
     style="display:inline"
     id="g6022"
     transform="translate(-749.33797,-291.47091)" />
  <g
     id="g7686"
     transform="translate(-792.94042,-297.05115)" />
  <g
     id="g13667"
     transform="translate(-1449.2175,77.94562)" />
  <g
     transform="rotate(-159.99559,-149.59711,1228.7588)"
     id="g2119">
    <g
       transform="translate(-1361.835,-74.82611)"
       id="g11024" />
  </g>
  <path
     d="m 132.50117,317.01512 c 0,0 132.50118,-33.54442 132.50118,-171.42223 V 0 H 0 V 145.59289 C 0,283.4707 132.50117,317.01512 132.50117,317.01512 Z"
     id="path2855"
     style="fill:#aa0000;fill-opacity:1;fill-rule:evenodd;stroke:none"
     inkscape:connector-curvature="0"
     sodipodi:nodetypes="csccsc" />
  <g
     id="g1400">
    <g
       id="g1240"
       transform="translate(-1.5152295,2.020306)">
      <g
         id="g8704-4"
         transform="matrix(0.95,0,0,0.95,56.700397,-22.119166)">
        <path
           style="fill:#cccccc;stroke:#000000;stroke-width:0.3;stroke-linecap:butt;stroke-linejoin:miter;stroke-miterlimit:4;stroke-dasharray:none;stroke-opacity:1"
           d="M 52.05621,44.214552 C 48.025932,34.512068 35.498218,28.816949 25.380094,38.512083 c 8.081224,-11.4484 21.465751,-8.249582 27.274131,0.505077 z"
           id="path7803-1-2"
           sodipodi:nodetypes="cccc" />
        <g
           id="g8569-38">
          <path
             style="fill:url(#radialGradient8388-1);fill-opacity:1;stroke:#000000;stroke-width:0.3;stroke-linecap:butt;stroke-linejoin:miter;stroke-miterlimit:4;stroke-dasharray:none;stroke-opacity:1"
             d="M 52.05621,44.214552 C 48.025932,34.512068 35.498218,28.816949 25.380094,38.512083 c 8.081224,-11.4484 21.465751,-8.249582 27.274131,0.505077 z"
             id="path7803-1-4-6"
             sodipodi:nodetypes="cccc" />
        </g>
      </g>
      <g
         id="g8704"
         transform="matrix(0.95,0,0,0.95,17.782213,9.2960083)">
        <path
           style="fill:#cccccc;stroke:#000000;stroke-width:0.3;stroke-linecap:butt;stroke-linejoin:miter;stroke-miterlimit:4;stroke-dasharray:none;stroke-opacity:1"
           d="M 52.05621,44.214552 C 48.025932,34.512068 35.498218,28.816949 25.380094,38.512083 c 8.081224,-11.4484 21.465751,-8.249582 27.274131,0.505077 z"
           id="path7803-1"
           sodipodi:nodetypes="cccc" />
        <g
           id="g8569">
          <path
             style="fill:url(#radialGradient8388);fill-opacity:1;stroke:#000000;stroke-width:0.3;stroke-linecap:butt;stroke-linejoin:miter;stroke-miterlimit:4;stroke-dasharray:none;stroke-opacity:1"
             d="M 52.05621,44.214552 C 48.025932,34.512068 35.498218,28.816949 25.380094,38.512083 c 8.081224,-11.4484 21.465751,-8.249582 27.274131,0.505077 z"
             id="path7803-1-4"
             sodipodi:nodetypes="cccc" />
        </g>
      </g>
      <g
         id="g8704-0"
         transform="matrix(0.95,0,0,0.95,-17.772851,37.76479)">
        <path
           style="fill:#cccccc;stroke:#000000;stroke-width:0.3;stroke-linecap:butt;stroke-linejoin:miter;stroke-miterlimit:4;stroke-dasharray:none;stroke-opacity:1"
           d="M 52.05621,44.214552 C 48.025932,34.512068 35.498218,28.816949 25.380094,38.512083 c 8.081224,-11.4484 21.465751,-8.249582 27.274131,0.505077 z"
           id="path7803-1-3"
           sodipodi:nodetypes="cccc" />
        <g
           id="g8569-3">
          <path
             style="fill:url(#radialGradient8388-8);fill-opacity:1;stroke:#000000;stroke-width:0.3;stroke-linecap:butt;stroke-linejoin:miter;stroke-miterlimit:4;stroke-dasharray:none;stroke-opacity:1"
             d="M 52.05621,44.214552 C 48.025932,34.512068 35.498218,28.816949 25.380094,38.512083 c 8.081224,-11.4484 21.465751,-8.249582 27.274131,0.505077 z"
             id="path7803-1-4-1"
             sodipodi:nodetypes="cccc" />
        </g>
      </g>
    </g>
    <rect
       ry="14.685263"
       rx="4.8839622"
       y="76.608986"
       x="58.818127"
       height="227.33281"
       width="15.270649"
       id="rect9189"
       style="display:inline;overflow:visible;visibility:visible;fill:#ffffff;fill-opacity:1;fill-rule:nonzero;stroke:#000000;stroke-width:0.475002;stroke-linecap:butt;stroke-linejoin:miter;stroke-miterlimit:4;stroke-dasharray:none;stroke-dashoffset:0;stroke-opacity:1;marker:none"
       transform="matrix(0.74047691,-0.6720818,0.67473572,0.73805942,0,0)" />
    <rect
       ry="10.72981"
       rx="3.5684752"
       y="103.12714"
       x="19.836308"
       height="8.0384989"
       width="47.711105"
       id="rect9191"
       style="display:inline;overflow:visible;visibility:visible;fill:#ffffff;fill-opacity:1;fill-rule:nonzero;stroke:#000000;stroke-width:0.475002;stroke-linecap:butt;stroke-linejoin:miter;stroke-miterlimit:4;stroke-dasharray:none;stroke-dashoffset:0;stroke-opacity:1;marker:none"
       transform="matrix(0.74047691,-0.6720818,0.67473572,0.73805942,0,0)" />
    <rect
       ry="10.72981"
       rx="3.5684752"
       y="130.08754"
       x="20.212591"
       height="8.0384989"
       width="47.711105"
       id="rect9193"
       style="display:inline;overflow:visible;visibility:visible;fill:#ffffff;fill-opacity:1;fill-rule:nonzero;stroke:#000000;stroke-width:0.475002;stroke-linecap:butt;stroke-linejoin:miter;stroke-miterlimit:4;stroke-dasharray:none;stroke-dashoffset:0;stroke-opacity:1;marker:none"
       transform="matrix(0.74047691,-0.6720818,0.67473572,0.73805942,0,0)" />
    <rect
       ry="10.72981"
       rx="3.5684752"
       y="159.00974"
       x="19.38501"
       height="8.0384989"
       width="47.711105"
       id="rect9195"
       style="display:inline;overflow:visible;visibility:visible;fill:#ffffff;fill-opacity:1;fill-rule:nonzero;stroke:#000000;stroke-width:0.475002;stroke-linecap:butt;stroke-linejoin:miter;stroke-miterlimit:4;stroke-dasharray:none;stroke-dashoffset:0;stroke-opacity:1;marker:none"
       transform="matrix(0.74047691,-0.6720818,0.67473572,0.73805942,0,0)" />
    <rect
       ry="10.72981"
       rx="3.5684752"
       y="159.00974"
       x="19.38501"
       height="8.0384989"
       width="47.711105"
       id="rect9122-9-4"
       style="display:inline;overflow:visible;visibility:visible;fill:url(#linearGradient39742);fill-opacity:1;fill-rule:nonzero;stroke:#000000;stroke-width:0.475002;stroke-linecap:butt;stroke-linejoin:miter;stroke-miterlimit:4;stroke-dasharray:none;stroke-dashoffset:0;stroke-opacity:1;marker:none"
       transform="matrix(0.74047691,-0.6720818,0.67473572,0.73805942,0,0)" />
    <rect
       ry="10.72981"
       rx="3.5684752"
       y="189.6825"
       x="20.824911"
       height="8.0384989"
       width="47.711105"
       id="rect9199"
       style="display:inline;overflow:visible;visibility:visible;fill:#ffffff;fill-opacity:1;fill-rule:nonzero;stroke:#000000;stroke-width:0.475002;stroke-linecap:butt;stroke-linejoin:miter;stroke-miterlimit:4;stroke-dasharray:none;stroke-dashoffset:0;stroke-opacity:1;marker:none"
       transform="matrix(0.74047691,-0.6720818,0.67473572,0.73805942,0,0)" />
    <rect
       ry="10.72981"
       rx="3.5684752"
       y="189.6825"
       x="20.824911"
       height="8.0384989"
       width="47.711105"
       id="rect9122-9-28"
       style="display:inline;overflow:visible;visibility:visible;fill:url(#linearGradient39765);fill-opacity:1;fill-rule:nonzero;stroke:#000000;stroke-width:0.475002;stroke-linecap:butt;stroke-linejoin:miter;stroke-miterlimit:4;stroke-dasharray:none;stroke-dashoffset:0;stroke-opacity:1;marker:none"
       transform="matrix(0.74047691,-0.6720818,0.67473572,0.73805942,0,0)" />
    <rect
       ry="10.72981"
       rx="3.5684752"
       y="215.27682"
       x="21.363228"
       height="8.0384989"
       width="47.711105"
       id="rect9201"
       style="display:inline;overflow:visible;visibility:visible;fill:#ffffff;fill-opacity:1;fill-rule:nonzero;stroke:#000000;stroke-width:0.475002;stroke-linecap:butt;stroke-linejoin:miter;stroke-miterlimit:4;stroke-dasharray:none;stroke-dashoffset:0;stroke-opacity:1;marker:none"
       transform="matrix(0.74047691,-0.6720818,0.67473572,0.73805942,0,0)" />
    <rect
       ry="10.72981"
       rx="3.5684752"
       y="215.27682"
       x="21.363228"
       height="8.0384989"
       width="47.711105"
       id="rect9122-9-71"
       style="display:inline;overflow:visible;visibility:visible;fill:url(#linearGradient39788);fill-opacity:1;fill-rule:nonzero;stroke:#000000;stroke-width:0.475002;stroke-linecap:butt;stroke-linejoin:miter;stroke-miterlimit:4;stroke-dasharray:none;stroke-dashoffset:0;stroke-opacity:1;marker:none"
       transform="matrix(0.74047691,-0.6720818,0.67473572,0.73805942,0,0)" />
    <rect
       ry="10.72981"
       rx="3.5684752"
       y="244.93726"
       x="20.830912"
       height="8.0384989"
       width="47.711105"
       id="rect9205"
       style="display:inline;overflow:visible;visibility:visible;fill:#ffffff;fill-opacity:1;fill-rule:nonzero;stroke:#000000;stroke-width:0.475002;stroke-linecap:butt;stroke-linejoin:miter;stroke-miterlimit:4;stroke-dasharray:none;stroke-dashoffset:0;stroke-opacity:1;marker:none"
       transform="matrix(0.74047691,-0.6720818,0.67473572,0.73805942,0,0)" />
    <rect
       ry="10.72981"
       rx="3.5684752"
       y="244.93726"
       x="20.830912"
       height="8.0384989"
       width="47.711105"
       id="rect9122-9-02"
       style="display:inline;overflow:visible;visibility:visible;fill:url(#linearGradient39811);fill-opacity:1;fill-rule:nonzero;stroke:#000000;stroke-width:0.475002;stroke-linecap:butt;stroke-linejoin:miter;stroke-miterlimit:4;stroke-dasharray:none;stroke-dashoffset:0;stroke-opacity:1;marker:none"
       transform="matrix(0.74047691,-0.6720818,0.67473572,0.73805942,0,0)" />
    <rect
       ry="10.72981"
       rx="3.5684752"
       y="272.12445"
       x="20.794498"
       height="8.0384989"
       width="47.711105"
       id="rect9207"
       style="display:inline;overflow:visible;visibility:visible;fill:#ffffff;fill-opacity:1;fill-rule:nonzero;stroke:#000000;stroke-width:0.475002;stroke-linecap:butt;stroke-linejoin:miter;stroke-miterlimit:4;stroke-dasharray:none;stroke-dashoffset:0;stroke-opacity:1;marker:none"
       transform="matrix(0.74047691,-0.6720818,0.67473572,0.73805942,0,0)" />
    <rect
       ry="10.72981"
       rx="3.5684752"
       y="272.12445"
       x="20.794498"
       height="8.0384989"
       width="47.711105"
       id="rect9122-9-20"
       style="display:inline;overflow:visible;visibility:visible;fill:url(#linearGradient39834);fill-opacity:1;fill-rule:nonzero;stroke:#000000;stroke-width:0.475002;stroke-linecap:butt;stroke-linejoin:miter;stroke-miterlimit:4;stroke-dasharray:none;stroke-dashoffset:0;stroke-opacity:1;marker:none"
       transform="matrix(0.74047691,-0.6720818,0.67473572,0.73805942,0,0)" />
    <rect
       ry="10.72981"
       rx="3.5684752"
       y="103.12714"
       x="19.836308"
       height="8.0384989"
       width="47.711105"
       id="rect9122-9-1"
       style="display:inline;overflow:visible;visibility:visible;fill:url(#linearGradient39696);fill-opacity:1;fill-rule:nonzero;stroke:#000000;stroke-width:0.475002;stroke-linecap:butt;stroke-linejoin:miter;stroke-miterlimit:4;stroke-dasharray:none;stroke-dashoffset:0;stroke-opacity:1;marker:none"
       transform="matrix(0.74047691,-0.6720818,0.67473572,0.73805942,0,0)" />
    <rect
       ry="10.72981"
       rx="3.5684752"
       y="130.08754"
       x="20.212591"
       height="8.0384989"
       width="47.711105"
       id="rect9122-9-81"
       style="display:inline;overflow:visible;visibility:visible;fill:url(#linearGradient39719);fill-opacity:1;fill-rule:nonzero;stroke:#000000;stroke-width:0.475002;stroke-linecap:butt;stroke-linejoin:miter;stroke-miterlimit:4;stroke-dasharray:none;stroke-dashoffset:0;stroke-opacity:1;marker:none"
       transform="matrix(0.74047691,-0.6720818,0.67473572,0.73805942,0,0)" />
    <rect
       ry="14.685263"
       rx="4.8839622"
       y="73.48027"
       x="8.3564949"
       height="227.33281"
       width="15.270649"
       id="rect4662"
       style="display:inline;overflow:visible;visibility:visible;fill:#ffffff;fill-opacity:1;fill-rule:nonzero;stroke:#000000;stroke-width:0.475002;stroke-linecap:butt;stroke-linejoin:miter;stroke-miterlimit:4;stroke-dasharray:none;stroke-dashoffset:0;stroke-opacity:1;marker:none"
       transform="matrix(0.74047691,-0.6720818,0.67473572,0.73805942,0,0)" />
    <rect
       ry="10.72981"
       rx="3.5684752"
       y="99.084709"
       x="-29.792696"
       height="8.0384989"
       width="47.711105"
       id="rect9122"
       style="display:inline;overflow:visible;visibility:visible;fill:#ffffff;fill-opacity:1;fill-rule:nonzero;stroke:#000000;stroke-width:0.475002;stroke-linecap:butt;stroke-linejoin:miter;stroke-miterlimit:4;stroke-dasharray:none;stroke-dashoffset:0;stroke-opacity:1;marker:none"
       transform="matrix(0.74047691,-0.6720818,0.67473572,0.73805942,0,0)" />
    <rect
       ry="10.72981"
       rx="3.5684752"
       y="99.084709"
       x="-29.792696"
       height="8.0384989"
       width="47.711105"
       id="rect9122-9"
       style="display:inline;overflow:visible;visibility:visible;fill:url(#linearGradient39283);fill-opacity:1;fill-rule:nonzero;stroke:#000000;stroke-width:0.475002;stroke-linecap:butt;stroke-linejoin:miter;stroke-miterlimit:4;stroke-dasharray:none;stroke-dashoffset:0;stroke-opacity:1;marker:none"
       transform="matrix(0.74047691,-0.6720818,0.67473572,0.73805942,0,0)" />
    <rect
       ry="10.72981"
       rx="3.5684752"
       y="127.78818"
       x="-29.338295"
       height="8.0384989"
       width="47.711105"
       id="rect9169"
       style="display:inline;overflow:visible;visibility:visible;fill:#ffffff;fill-opacity:1;fill-rule:nonzero;stroke:#000000;stroke-width:0.475002;stroke-linecap:butt;stroke-linejoin:miter;stroke-miterlimit:4;stroke-dasharray:none;stroke-dashoffset:0;stroke-opacity:1;marker:none"
       transform="matrix(0.74047691,-0.6720818,0.67473572,0.73805942,0,0)" />
    <rect
       ry="10.72981"
       rx="3.5684752"
       y="127.78818"
       x="-29.338295"
       height="8.0384989"
       width="47.711105"
       id="rect9122-9-7"
       style="display:inline;overflow:visible;visibility:visible;fill:url(#linearGradient39558);fill-opacity:1;fill-rule:nonzero;stroke:#000000;stroke-width:0.475002;stroke-linecap:butt;stroke-linejoin:miter;stroke-miterlimit:4;stroke-dasharray:none;stroke-dashoffset:0;stroke-opacity:1;marker:none"
       transform="matrix(0.74047691,-0.6720818,0.67473572,0.73805942,0,0)" />
    <rect
       ry="10.72981"
       rx="3.5684752"
       y="157.62418"
       x="-30.998491"
       height="8.0384989"
       width="47.711105"
       id="rect9171"
       style="display:inline;overflow:visible;visibility:visible;fill:#ffffff;fill-opacity:1;fill-rule:nonzero;stroke:#000000;stroke-width:0.475002;stroke-linecap:butt;stroke-linejoin:miter;stroke-miterlimit:4;stroke-dasharray:none;stroke-dashoffset:0;stroke-opacity:1;marker:none"
       transform="matrix(0.74047691,-0.6720818,0.67473572,0.73805942,0,0)" />
    <rect
       ry="10.72981"
       rx="3.5684752"
       y="157.62418"
       x="-30.998491"
       height="8.0384989"
       width="47.711105"
       id="rect9122-9-9"
       style="display:inline;overflow:visible;visibility:visible;fill:url(#linearGradient39581);fill-opacity:1;fill-rule:nonzero;stroke:#000000;stroke-width:0.475002;stroke-linecap:butt;stroke-linejoin:miter;stroke-miterlimit:4;stroke-dasharray:none;stroke-dashoffset:0;stroke-opacity:1;marker:none"
       transform="matrix(0.74047691,-0.6720818,0.67473572,0.73805942,0,0)" />
    <rect
       ry="10.72981"
       rx="3.5684752"
       y="187.1902"
       x="-30.746305"
       height="8.0384989"
       width="47.711105"
       id="rect9173"
       style="display:inline;overflow:visible;visibility:visible;fill:#ffffff;fill-opacity:1;fill-rule:nonzero;stroke:#000000;stroke-width:0.475002;stroke-linecap:butt;stroke-linejoin:miter;stroke-miterlimit:4;stroke-dasharray:none;stroke-dashoffset:0;stroke-opacity:1;marker:none"
       transform="matrix(0.74047691,-0.6720818,0.67473572,0.73805942,0,0)" />
    <rect
       ry="10.72981"
       rx="3.5684752"
       y="187.1902"
       x="-30.746305"
       height="8.0384989"
       width="47.711105"
       id="rect9122-9-2"
       style="display:inline;overflow:visible;visibility:visible;fill:url(#linearGradient39604);fill-opacity:1;fill-rule:nonzero;stroke:#000000;stroke-width:0.475002;stroke-linecap:butt;stroke-linejoin:miter;stroke-miterlimit:4;stroke-dasharray:none;stroke-dashoffset:0;stroke-opacity:1;marker:none"
       transform="matrix(0.74047691,-0.6720818,0.67473572,0.73805942,0,0)" />
    <rect
       ry="10.72981"
       rx="3.5684752"
       y="215.63441"
       x="-28.94211"
       height="8.0384989"
       width="47.711105"
       id="rect9177"
       style="display:inline;overflow:visible;visibility:visible;fill:#ffffff;fill-opacity:1;fill-rule:nonzero;stroke:#000000;stroke-width:0.475002;stroke-linecap:butt;stroke-linejoin:miter;stroke-miterlimit:4;stroke-dasharray:none;stroke-dashoffset:0;stroke-opacity:1;marker:none"
       transform="matrix(0.74047691,-0.6720818,0.67473572,0.73805942,0,0)" />
    <rect
       ry="10.72981"
       rx="3.5684752"
       y="243.46725"
       x="-27.809172"
       height="8.0384989"
       width="47.711105"
       id="rect9181"
       style="display:inline;overflow:visible;visibility:visible;fill:#ffffff;fill-opacity:1;fill-rule:nonzero;stroke:#000000;stroke-width:0.475002;stroke-linecap:butt;stroke-linejoin:miter;stroke-miterlimit:4;stroke-dasharray:none;stroke-dashoffset:0;stroke-opacity:1;marker:none"
       transform="matrix(0.74047691,-0.6720818,0.67473572,0.73805942,0,0)" />
    <rect
       ry="10.72981"
       rx="3.5684752"
       y="272.48187"
       x="-29.510855"
       height="8.0384989"
       width="47.711105"
       id="rect9183"
       style="display:inline;overflow:visible;visibility:visible;fill:#ffffff;fill-opacity:1;fill-rule:nonzero;stroke:#000000;stroke-width:0.475002;stroke-linecap:butt;stroke-linejoin:miter;stroke-miterlimit:4;stroke-dasharray:none;stroke-dashoffset:0;stroke-opacity:1;marker:none"
       transform="matrix(0.74047691,-0.6720818,0.67473572,0.73805942,0,0)" />
    <rect
       ry="10.72981"
       rx="3.5684752"
       y="215.63441"
       x="-28.94211"
       height="8.0384989"
       width="47.711105"
       id="rect9122-9-23"
       style="display:inline;overflow:visible;visibility:visible;fill:url(#linearGradient39627);fill-opacity:1;fill-rule:nonzero;stroke:#000000;stroke-width:0.475002;stroke-linecap:butt;stroke-linejoin:miter;stroke-miterlimit:4;stroke-dasharray:none;stroke-dashoffset:0;stroke-opacity:1;marker:none"
       transform="matrix(0.74047691,-0.6720818,0.67473572,0.73805942,0,0)" />
    <rect
       ry="10.72981"
       rx="3.5684752"
       y="243.46725"
       x="-27.809187"
       height="8.0384989"
       width="47.711105"
       id="rect9122-9-8"
       style="display:inline;overflow:visible;visibility:visible;fill:url(#linearGradient39650);fill-opacity:1;fill-rule:nonzero;stroke:#000000;stroke-width:0.475002;stroke-linecap:butt;stroke-linejoin:miter;stroke-miterlimit:4;stroke-dasharray:none;stroke-dashoffset:0;stroke-opacity:1;marker:none"
       transform="matrix(0.74047691,-0.6720818,0.67473572,0.73805942,0,0)" />
    <rect
       ry="10.72981"
       rx="3.5684752"
       y="272.48187"
       x="-29.510855"
       height="8.0384989"
       width="47.711105"
       id="rect9122-9-0"
       style="display:inline;overflow:visible;visibility:visible;fill:url(#linearGradient39673);fill-opacity:1;fill-rule:nonzero;stroke:#000000;stroke-width:0.475002;stroke-linecap:butt;stroke-linejoin:miter;stroke-miterlimit:4;stroke-dasharray:none;stroke-dashoffset:0;stroke-opacity:1;marker:none"
       transform="matrix(0.74047691,-0.6720818,0.67473572,0.73805942,0,0)" />
    <rect
       ry="14.685263"
       rx="4.8839622"
       y="70.570625"
       x="-37.339569"
       height="227.33281"
       width="15.270649"
       id="rect9124"
       style="display:inline;overflow:visible;visibility:visible;fill:#ffffff;fill-opacity:1;fill-rule:nonzero;stroke:#000000;stroke-width:0.475002;stroke-linecap:butt;stroke-linejoin:miter;stroke-miterlimit:4;stroke-dasharray:none;stroke-dashoffset:0;stroke-opacity:1;marker:none"
       transform="matrix(0.74047691,-0.6720818,0.67473572,0.73805942,0,0)" />
  </g>
  <g
     id="g26867"
     transform="translate(-157.5267,-6.64559)" />
  <g
     id="g30463"
     transform="translate(-168.49405,-338.90598)">
    <path
       id="path9007-2-5-9-4-2"
       d="m 216.20536,525.64871 c -1.59188,0.42893 -4.99879,0.43542 -6.89907,0.0131 -5.02244,-1.25238 -8.59581,-3.66321 -12.34055,-5.9972 -3.47345,6.99999 -3.46429,14.99999 0,21.99999 3.74474,-2.33398 7.31811,-4.74483 12.34055,-5.9972 1.90028,-0.42232 5.30719,-0.41583 6.89907,0.0131 1.62133,0.43687 3.03686,1.10328 4.0819,2.14832 1.04504,1.04504 1.71143,2.46057 2.1483,4.0819 0.42893,1.59188 0.43542,4.99879 0.0131,6.89907 -1.25238,5.02244 -3.66321,8.59581 -5.9972,12.34055 6.99999,3.47345 14.99999,3.46429 21.99999,0 -2.33398,-3.74474 -4.74483,-7.31811 -5.9972,-12.34055 -0.42232,-1.90028 -0.41583,-5.30719 0.0131,-6.89907 0.43687,-1.62133 1.10328,-3.03686 2.14832,-4.0819 1.04504,-1.04504 2.46057,-1.71143 4.0819,-2.1483 1.59188,-0.42893 4.99879,-0.43542 6.89907,-0.0131 5.02244,1.25238 8.59581,3.66321 12.34055,5.9972 3.47345,-6.99999 3.46429,-14.99999 0,-21.99999 -3.74474,2.33398 -7.31811,4.74483 -12.34055,5.9972 -1.90028,0.42232 -5.30719,0.41583 -6.89907,-0.0131 -1.62133,-0.43687 -3.03686,-1.10328 -4.0819,-2.14832 -1.04504,-1.04504 -1.71144,-2.46057 -2.14831,-4.0819 -0.42893,-1.59188 -0.43542,-4.99879 -0.0131,-6.89907 1.25238,-5.02244 3.66322,-8.59581 5.99721,-12.34055 -7,-3.47345 -15,-3.46429 -22,0 2.33398,3.74474 4.74483,7.31811 5.99721,12.34055 0.42232,1.90028 0.41583,5.30719 -0.0131,6.89907 -0.43687,1.62133 -1.10328,3.03686 -2.14832,4.0819 -1.04504,1.04504 -2.46057,1.71143 -4.0819,2.1483 z"
       style="fill:#ffff00;fill-opacity:1;fill-rule:nonzero;stroke:none;stroke-width:0.3;stroke-miterlimit:3.9;stroke-dasharray:none;stroke-opacity:0.989418"
       inkscape:connector-curvature="0"
       sodipodi:nodetypes="sccccsssccccsssccccsssccccsss" />
    <g
       id="g28968-6-8-6"
       transform="rotate(-90,227.45146,530.66461)">
      <g
         id="g28220-9-9-3"
         transform="translate(-0.848958,-1.5204604)">
        <circle
           transform="scale(-1,1)"
           id="path9013-0-6-1"
           style="fill:#ffcc00;fill-opacity:1;fill-rule:nonzero;stroke:#000000;stroke-width:0.229253;stroke-miterlimit:3.9;stroke-dasharray:none;stroke-opacity:0.989418"
           cx="-234.6028"
           cy="525.88269"
           r="2.7564983" />
        <circle
           transform="scale(-1,1)"
           id="path9015-4-0-8"
           style="fill:#ffff00;fill-opacity:1;fill-rule:nonzero;stroke:#000000;stroke-width:0.174773;stroke-miterlimit:3.9;stroke-dasharray:none;stroke-opacity:0.989418"
           cx="-234.6028"
           cy="525.88269"
           r="2.1014373" />
        <g
           id="g28094-4-7-0"
           transform="translate(29.602798,8.8826904)" />
      </g>
    </g>
    <g
       id="g28968">
      <g
         id="g28220"
         transform="translate(-0.848958,-1.5204604)">
        <circle
           transform="scale(-1,1)"
           id="path9013"
           style="fill:#ffcc00;fill-opacity:1;fill-rule:nonzero;stroke:#000000;stroke-width:0.229253;stroke-miterlimit:3.9;stroke-dasharray:none;stroke-opacity:0.989418"
           cx="-234.6028"
           cy="525.88269"
           r="2.7564983" />
        <circle
           transform="scale(-1,1)"
           id="path9015"
           style="fill:#ffff00;fill-opacity:1;fill-rule:nonzero;stroke:#000000;stroke-width:0.174773;stroke-miterlimit:3.9;stroke-dasharray:none;stroke-opacity:0.989418"
           cx="-234.6028"
           cy="525.88269"
           r="2.1014373" />
        <g
           id="g28094"
           transform="translate(29.602798,8.8826904)" />
      </g>
    </g>
    <g
       id="g28968-6"
       transform="rotate(90,227.45146,530.66461)">
      <g
         id="g28220-9"
         transform="translate(-0.848958,-1.5204604)">
        <circle
           transform="scale(-1,1)"
           id="path9013-0"
           style="fill:#ffcc00;fill-opacity:1;fill-rule:nonzero;stroke:#000000;stroke-width:0.229253;stroke-miterlimit:3.9;stroke-dasharray:none;stroke-opacity:0.989418"
           cx="-234.6028"
           cy="525.88269"
           r="2.7564983" />
        <circle
           transform="scale(-1,1)"
           id="path9015-4"
           style="fill:#ffff00;fill-opacity:1;fill-rule:nonzero;stroke:#000000;stroke-width:0.174773;stroke-miterlimit:3.9;stroke-dasharray:none;stroke-opacity:0.989418"
           cx="-234.6028"
           cy="525.88269"
           r="2.1014373" />
        <g
           id="g28094-4"
           transform="translate(29.602798,8.8826904)" />
      </g>
    </g>
    <g
       id="g28968-6-8"
       transform="rotate(180,227.45146,530.66461)">
      <g
         id="g28220-9-9"
         transform="translate(-0.848958,-1.5204604)">
        <circle
           transform="scale(-1,1)"
           id="path9013-0-6"
           style="fill:#ffcc00;fill-opacity:1;fill-rule:nonzero;stroke:#000000;stroke-width:0.229253;stroke-miterlimit:3.9;stroke-dasharray:none;stroke-opacity:0.989418"
           cx="-234.6028"
           cy="525.88269"
           r="2.7564983" />
        <circle
           transform="scale(-1,1)"
           id="path9015-4-0"
           style="fill:#ffff00;fill-opacity:1;fill-rule:nonzero;stroke:#000000;stroke-width:0.174773;stroke-miterlimit:3.9;stroke-dasharray:none;stroke-opacity:0.989418"
           cx="-234.6028"
           cy="525.88269"
           r="2.1014373" />
        <g
           id="g28094-4-7"
           transform="translate(29.602798,8.8826904)" />
      </g>
    </g>
    <circle
       id="path9025"
       style="fill:#ffcc00;fill-opacity:1;fill-rule:nonzero;stroke:#000000;stroke-width:0.400001;stroke-miterlimit:3.9;stroke-dasharray:none;stroke-opacity:0.989418"
       cx="227.45146"
       cy="530.66461"
       r="8.376545" />
    <circle
       id="path9027"
       style="fill:#ffff00;fill-opacity:1;fill-rule:nonzero;stroke:#000000;stroke-width:0.300001;stroke-miterlimit:3.9;stroke-dasharray:none;stroke-opacity:0.989418"
       cx="227.45146"
       cy="530.66461"
       r="6.3859215" />
    <g
       id="g26867-5"
       transform="translate(0.45146179,-22.839053)">
      <rect
         style="fill:#008000;fill-opacity:1;stroke:none;stroke-width:0.3;stroke-miterlimit:3.9;stroke-dasharray:none"
         id="rect26781-4"
         width="2"
         height="2"
         x="225"
         y="527" />
      <rect
         style="fill:#008000;fill-opacity:1;stroke:none;stroke-width:0.3;stroke-miterlimit:3.9;stroke-dasharray:none"
         id="rect26783-9"
         width="2"
         height="2"
         x="227"
         y="529" />
    </g>
    <path
       id="path9029-3"
       d="m 224.95173,521.05889 c -0.71873,-0.0421 -0.71639,-0.15053 -0.69524,-0.42952 0.53228,-7.01926 -1.23923,-13.49257 -4.30503,-18.35122 5,-3 10,-3 15,0 -3.06581,4.85865 -4.83733,11.33196 -4.30504,18.35122 0.0212,0.27899 0.0235,0.38742 -0.69523,0.42952 -0.44381,0.026 -4.55566,0.026 -4.99946,0 z"
       style="fill:#ffcc00;fill-opacity:1;fill-rule:nonzero;stroke:#000000;stroke-width:0.3;stroke-miterlimit:3.9;stroke-dasharray:none;stroke-opacity:0.989418"
       inkscape:connector-curvature="0"
       sodipodi:nodetypes="ssccsss" />
    <path
       id="path9029-3-4"
       d="m 237.05718,528.16488 c 0.0421,-0.71873 0.15053,-0.71639 0.42952,-0.69524 7.01926,0.53228 13.49257,-1.23923 18.35122,-4.30503 3,5 3,10 0,15 -4.85865,-3.06581 -11.33196,-4.83733 -18.35122,-4.30504 -0.27899,0.0212 -0.38742,0.0235 -0.42952,-0.69523 -0.026,-0.44381 -0.026,-4.55566 0,-4.99946 z"
       style="fill:#ffcc00;fill-opacity:1;fill-rule:nonzero;stroke:#000000;stroke-width:0.3;stroke-miterlimit:3.9;stroke-dasharray:none;stroke-opacity:0.989418"
       inkscape:connector-curvature="0"
       sodipodi:nodetypes="ssccsss" />
    <path
       id="path9029-3-4-3"
       d="m 229.95119,540.27033 c 0.71873,0.0421 0.71639,0.15053 0.69524,0.42952 -0.53228,7.01926 1.23923,13.49257 4.30503,18.35122 -5,3 -10,3 -15,0 3.06581,-4.85865 4.83733,-11.33196 4.30504,-18.35122 -0.0212,-0.27899 -0.0235,-0.38742 0.69523,-0.42952 0.44381,-0.026 4.55566,-0.026 4.99946,0 z"
       style="fill:#ffcc00;fill-opacity:1;fill-rule:nonzero;stroke:#000000;stroke-width:0.3;stroke-miterlimit:3.9;stroke-dasharray:none;stroke-opacity:0.989418"
       inkscape:connector-curvature="0"
       sodipodi:nodetypes="ssccsss" />
    <path
       id="path9029-3-4-3-0"
       d="m 217.84574,533.16434 c -0.0421,0.71873 -0.15053,0.71639 -0.42952,0.69524 -7.01926,-0.53228 -13.49257,1.23923 -18.35122,4.30503 -3,-5 -3,-10 0,-15 4.85865,3.06581 11.33196,4.83733 18.35122,4.30504 0.27899,-0.0212 0.38742,-0.0235 0.42952,0.69523 0.026,0.44381 0.026,4.55566 0,4.99946 z"
       style="fill:#ffcc00;fill-opacity:1;fill-rule:nonzero;stroke:#000000;stroke-width:0.3;stroke-miterlimit:3.9;stroke-dasharray:none;stroke-opacity:0.989418"
       inkscape:connector-curvature="0"
       sodipodi:nodetypes="ssccsss" />
  </g>
  <g
     id="g30463-8"
     transform="translate(-17.5235,-481.9649)">
    <path
       id="path9007-2-5-9-4-2-1"
       d="m 216.20536,525.64871 c -1.59188,0.42893 -4.99879,0.43542 -6.89907,0.0131 -5.02244,-1.25238 -8.59581,-3.66321 -12.34055,-5.9972 -3.47345,6.99999 -3.46429,14.99999 0,21.99999 3.74474,-2.33398 7.31811,-4.74483 12.34055,-5.9972 1.90028,-0.42232 5.30719,-0.41583 6.89907,0.0131 1.62133,0.43687 3.03686,1.10328 4.0819,2.14832 1.04504,1.04504 1.71143,2.46057 2.1483,4.0819 0.42893,1.59188 0.43542,4.99879 0.0131,6.89907 -1.25238,5.02244 -3.66321,8.59581 -5.9972,12.34055 6.99999,3.47345 14.99999,3.46429 21.99999,0 -2.33398,-3.74474 -4.74483,-7.31811 -5.9972,-12.34055 -0.42232,-1.90028 -0.41583,-5.30719 0.0131,-6.89907 0.43687,-1.62133 1.10328,-3.03686 2.14832,-4.0819 1.04504,-1.04504 2.46057,-1.71143 4.0819,-2.1483 1.59188,-0.42893 4.99879,-0.43542 6.89907,-0.0131 5.02244,1.25238 8.59581,3.66321 12.34055,5.9972 3.47345,-6.99999 3.46429,-14.99999 0,-21.99999 -3.74474,2.33398 -7.31811,4.74483 -12.34055,5.9972 -1.90028,0.42232 -5.30719,0.41583 -6.89907,-0.0131 -1.62133,-0.43687 -3.03686,-1.10328 -4.0819,-2.14832 -1.04504,-1.04504 -1.71144,-2.46057 -2.14831,-4.0819 -0.42893,-1.59188 -0.43542,-4.99879 -0.0131,-6.89907 1.25238,-5.02244 3.66322,-8.59581 5.99721,-12.34055 -7,-3.47345 -15,-3.46429 -22,0 2.33398,3.74474 4.74483,7.31811 5.99721,12.34055 0.42232,1.90028 0.41583,5.30719 -0.0131,6.89907 -0.43687,1.62133 -1.10328,3.03686 -2.14832,4.0819 -1.04504,1.04504 -2.46057,1.71143 -4.0819,2.1483 z"
       style="fill:#ffff00;fill-opacity:1;fill-rule:nonzero;stroke:none;stroke-width:0.3;stroke-miterlimit:3.9;stroke-dasharray:none;stroke-opacity:0.989418"
       inkscape:connector-curvature="0"
       sodipodi:nodetypes="sccccsssccccsssccccsssccccsss" />
    <g
       id="g28968-6-8-6-3"
       transform="rotate(-90,227.45146,530.66461)">
      <g
         id="g28220-9-9-3-6"
         transform="translate(-0.848958,-1.5204604)">
        <circle
           transform="scale(-1,1)"
           id="path9013-0-6-1-7"
           style="fill:#ffcc00;fill-opacity:1;fill-rule:nonzero;stroke:#000000;stroke-width:0.229253;stroke-miterlimit:3.9;stroke-dasharray:none;stroke-opacity:0.989418"
           cx="-234.6028"
           cy="525.88269"
           r="2.7564983" />
        <circle
           transform="scale(-1,1)"
           id="path9015-4-0-8-7"
           style="fill:#ffff00;fill-opacity:1;fill-rule:nonzero;stroke:#000000;stroke-width:0.174773;stroke-miterlimit:3.9;stroke-dasharray:none;stroke-opacity:0.989418"
           cx="-234.6028"
           cy="525.88269"
           r="2.1014373" />
        <g
           id="g28094-4-7-0-0"
           transform="translate(29.602798,8.8826904)" />
      </g>
    </g>
    <g
       id="g28968-5">
      <g
         id="g28220-7"
         transform="translate(-0.848958,-1.5204604)">
        <circle
           transform="scale(-1,1)"
           id="path9013-3"
           style="fill:#ffcc00;fill-opacity:1;fill-rule:nonzero;stroke:#000000;stroke-width:0.229253;stroke-miterlimit:3.9;stroke-dasharray:none;stroke-opacity:0.989418"
           cx="-234.6028"
           cy="525.88269"
           r="2.7564983" />
        <circle
           transform="scale(-1,1)"
           id="path9015-1"
           style="fill:#ffff00;fill-opacity:1;fill-rule:nonzero;stroke:#000000;stroke-width:0.174773;stroke-miterlimit:3.9;stroke-dasharray:none;stroke-opacity:0.989418"
           cx="-234.6028"
           cy="525.88269"
           r="2.1014373" />
        <g
           id="g28094-0"
           transform="translate(29.602798,8.8826904)" />
      </g>
    </g>
    <g
       id="g28968-6-7"
       transform="rotate(90,227.45146,530.66461)">
      <g
         id="g28220-9-94"
         transform="translate(-0.848958,-1.5204604)">
        <circle
           transform="scale(-1,1)"
           id="path9013-0-8"
           style="fill:#ffcc00;fill-opacity:1;fill-rule:nonzero;stroke:#000000;stroke-width:0.229253;stroke-miterlimit:3.9;stroke-dasharray:none;stroke-opacity:0.989418"
           cx="-234.6028"
           cy="525.88269"
           r="2.7564983" />
        <circle
           transform="scale(-1,1)"
           id="path9015-4-5"
           style="fill:#ffff00;fill-opacity:1;fill-rule:nonzero;stroke:#000000;stroke-width:0.174773;stroke-miterlimit:3.9;stroke-dasharray:none;stroke-opacity:0.989418"
           cx="-234.6028"
           cy="525.88269"
           r="2.1014373" />
        <g
           id="g28094-4-8"
           transform="translate(29.602798,8.8826904)" />
      </g>
    </g>
    <g
       id="g28968-6-8-7"
       transform="rotate(180,227.45146,530.66461)">
      <g
         id="g28220-9-9-9"
         transform="translate(-0.848958,-1.5204604)">
        <circle
           transform="scale(-1,1)"
           id="path9013-0-6-6"
           style="fill:#ffcc00;fill-opacity:1;fill-rule:nonzero;stroke:#000000;stroke-width:0.229253;stroke-miterlimit:3.9;stroke-dasharray:none;stroke-opacity:0.989418"
           cx="-234.6028"
           cy="525.88269"
           r="2.7564983" />
        <circle
           transform="scale(-1,1)"
           id="path9015-4-0-0"
           style="fill:#ffff00;fill-opacity:1;fill-rule:nonzero;stroke:#000000;stroke-width:0.174773;stroke-miterlimit:3.9;stroke-dasharray:none;stroke-opacity:0.989418"
           cx="-234.6028"
           cy="525.88269"
           r="2.1014373" />
        <g
           id="g28094-4-7-06"
           transform="translate(29.602798,8.8826904)" />
      </g>
    </g>
    <circle
       id="path9025-1"
       style="fill:#ffcc00;fill-opacity:1;fill-rule:nonzero;stroke:#000000;stroke-width:0.400001;stroke-miterlimit:3.9;stroke-dasharray:none;stroke-opacity:0.989418"
       cx="227.45146"
       cy="530.66461"
       r="8.376545" />
    <circle
       id="path9027-2"
       style="fill:#ffff00;fill-opacity:1;fill-rule:nonzero;stroke:#000000;stroke-width:0.300001;stroke-miterlimit:3.9;stroke-dasharray:none;stroke-opacity:0.989418"
       cx="227.45146"
       cy="530.66461"
       r="6.3859215" />
    <g
       id="g26867-5-7"
       transform="translate(0.45146179,-22.839053)">
      <rect
         style="fill:#008000;fill-opacity:1;stroke:none;stroke-width:0.3;stroke-miterlimit:3.9;stroke-dasharray:none"
         id="rect26781-4-7"
         width="2"
         height="2"
         x="225"
         y="527" />
      <rect
         style="fill:#008000;fill-opacity:1;stroke:none;stroke-width:0.3;stroke-miterlimit:3.9;stroke-dasharray:none"
         id="rect26783-9-4"
         width="2"
         height="2"
         x="227"
         y="529" />
    </g>
    <path
       id="path9029-3-49"
       d="m 224.95173,521.05889 c -0.71873,-0.0421 -0.71639,-0.15053 -0.69524,-0.42952 0.53228,-7.01926 -1.23923,-13.49257 -4.30503,-18.35122 5,-3 10,-3 15,0 -3.06581,4.85865 -4.83733,11.33196 -4.30504,18.35122 0.0212,0.27899 0.0235,0.38742 -0.69523,0.42952 -0.44381,0.026 -4.55566,0.026 -4.99946,0 z"
       style="fill:#ffcc00;fill-opacity:1;fill-rule:nonzero;stroke:#000000;stroke-width:0.3;stroke-miterlimit:3.9;stroke-dasharray:none;stroke-opacity:0.989418"
       inkscape:connector-curvature="0"
       sodipodi:nodetypes="ssccsss" />
    <path
       id="path9029-3-4-7"
       d="m 237.05718,528.16488 c 0.0421,-0.71873 0.15053,-0.71639 0.42952,-0.69524 7.01926,0.53228 13.49257,-1.23923 18.35122,-4.30503 3,5 3,10 0,15 -4.85865,-3.06581 -11.33196,-4.83733 -18.35122,-4.30504 -0.27899,0.0212 -0.38742,0.0235 -0.42952,-0.69523 -0.026,-0.44381 -0.026,-4.55566 0,-4.99946 z"
       style="fill:#ffcc00;fill-opacity:1;fill-rule:nonzero;stroke:#000000;stroke-width:0.3;stroke-miterlimit:3.9;stroke-dasharray:none;stroke-opacity:0.989418"
       inkscape:connector-curvature="0"
       sodipodi:nodetypes="ssccsss" />
    <path
       id="path9029-3-4-3-6"
       d="m 229.95119,540.27033 c 0.71873,0.0421 0.71639,0.15053 0.69524,0.42952 -0.53228,7.01926 1.23923,13.49257 4.30503,18.35122 -5,3 -10,3 -15,0 3.06581,-4.85865 4.83733,-11.33196 4.30504,-18.35122 -0.0212,-0.27899 -0.0235,-0.38742 0.69523,-0.42952 0.44381,-0.026 4.55566,-0.026 4.99946,0 z"
       style="fill:#ffcc00;fill-opacity:1;fill-rule:nonzero;stroke:#000000;stroke-width:0.3;stroke-miterlimit:3.9;stroke-dasharray:none;stroke-opacity:0.989418"
       inkscape:connector-curvature="0"
       sodipodi:nodetypes="ssccsss" />
    <path
       id="path9029-3-4-3-0-4"
       d="m 217.84574,533.16434 c -0.0421,0.71873 -0.15053,0.71639 -0.42952,0.69524 -7.01926,-0.53228 -13.49257,1.23923 -18.35122,4.30503 -3,-5 -3,-10 0,-15 4.85865,3.06581 11.33196,4.83733 18.35122,4.30504 0.27899,-0.0212 0.38742,-0.0235 0.42952,0.69523 0.026,0.44381 0.026,4.55566 0,4.99946 z"
       style="fill:#ffcc00;fill-opacity:1;fill-rule:nonzero;stroke:#000000;stroke-width:0.3;stroke-miterlimit:3.9;stroke-dasharray:none;stroke-opacity:0.989418"
       inkscape:connector-curvature="0"
       sodipodi:nodetypes="ssccsss" />
  </g>
</svg>
