<?xml version="1.0" encoding="UTF-8"?>
<svg width="240" height="50" version="1.1" viewBox="0 0 63.499999 13.229167" xmlns="http://www.w3.org/2000/svg">
<g transform="translate(0 -283.77)">
<path d="m0.23463 288.86v-4.9786h2.0088v0.71936h-1.2395v1.3058h0.89312v0.71927h-0.89312v1.4868h1.2395v0.74751zm2.534 0 0.82119-4.9786h1.005l0.8177 4.9786h-0.79059l-0.15432-1.0778h-0.77766l-0.16613 1.0778zm1.018-1.7842h0.58678l-0.26155-2.079h-0.0483zm2.1205 0.5207 0.73522-0.1105c0.0141 0.25273 0.0624 0.43959 0.14486 0.55943 0.0825 0.12103 0.20502 0.18101 0.36647 0.18101 0.14022 0 0.25329-0.0446 0.34165-0.13281 0.0872-0.0882 0.13076-0.20451 0.13076-0.34905 0-0.2597-0.20728-0.59474-0.62086-1.0061l-0.0731-0.0716c-0.40412-0.40433-0.66456-0.71458-0.78001-0.93198-0.11428-0.21629-0.17203-0.44664-0.17203-0.68991 0-0.35141 0.11549-0.64756 0.3464-0.88734 0.23213-0.23979 0.51374-0.35965 0.84831-0.35965 0.32405 0 0.58916 0.11045 0.79647 0.33257 0.20735 0.22094 0.32639 0.5207 0.35583 0.90028l-0.75285 0.10582c-0.0142-0.22212-0.0531-0.382-0.11902-0.47837-0.066-0.0963-0.16614-0.14462-0.30161-0.14462-0.12489 0-0.22387 0.0423-0.2993 0.12582-0.0742 0.0834-0.11187 0.19624-0.11187 0.33611 0 0.28915 0.24147 0.66641 0.72459 1.133l0.0447 0.0447c0.35463 0.34438 0.58675 0.62527 0.69745 0.84388 0.11079 0.21738 0.16616 0.4631 0.16616 0.73341 0 0.36312-0.11309 0.66047-0.33815 0.89439-0.22617 0.23267-0.51128 0.34901-0.85657 0.34901-0.38168 0-0.68447-0.1222-0.90953-0.36548-0.22387-0.24332-0.34521-0.58064-0.36407-1.0119zm2.8558-2.9958v-0.71936h2.3682v0.71936h-0.80111v4.2593h-0.76941v-4.2593zm4.0659 2.9817v-2.5516c0-0.39255 0.10724-0.69925 0.32047-0.92257 0.21445-0.22215 0.51016-0.33383 0.88837-0.33383 0.35584 0 0.63863 0.11405 0.8471 0.34206 0.2086 0.22918 0.31222 0.54063 0.31222 0.93552v0.47837h-0.79056v-0.54774c0-0.17158-0.033-0.30084-0.10003-0.38666-0.0671-0.0858-0.16615-0.12927-0.29691-0.12927-0.1308 0-0.22975 0.0435-0.29692 0.12927-0.0671 0.0859-0.10014 0.21508-0.10014 0.38666v2.7785c0 0.17278 0.033 0.30201 0.10014 0.39015 0.0671 0.087 0.16612 0.13045 0.29692 0.13045 0.13076 0 0.22974-0.0435 0.29691-0.13045 0.0671-0.0882 0.10003-0.21737 0.10003-0.39015v-0.67821h0.79056v0.5207c0 0.43603-0.10246 0.77218-0.30864 1.0084-0.20619 0.23621-0.49951 0.35496-0.8789 0.35496-0.38885 0-0.68336-0.11755-0.8825-0.35139-0.19914-0.23392-0.29812-0.5783-0.29812-1.0331zm3.3141-3.7011h0.76228v2.0322h0.7705v-2.0322h0.7694v4.9786h-0.7694v-2.2272h-0.7705v2.2272h-0.76228zm3.3836 4.9786v-4.9786h0.7835v4.9786zm1.8436 0v-4.9786h0.69041l0.97671 2.9747c0.0189 0.0576 0.0412 0.13284 0.0671 0.22681 0.0271 0.0941 0.0541 0.19515 0.0813 0.30329-0.0247-0.14458-0.0459-0.27859-0.0612-0.40083-0.0165-0.12341-0.0247-0.21272-0.0247-0.27032v-2.8337h0.72102v4.9786h-0.72102l-0.93903-2.7514c-5e-3 -0.0107-0.0107-0.0281-0.0178-0.0517-0.0648-0.18805-0.11308-0.35021-0.14494-0.48889 0.0271 0.17516 0.0483 0.31969 0.0636 0.43604 0.0153 0.11637 0.0223 0.19985 0.0223 0.25267v2.6033zm3.1691 0 0.82119-4.9786h1.0051l0.81771 4.9786h-0.79056l-0.15435-1.0778h-0.77772l-0.16615 1.0778zm1.018-1.7842h0.58683l-0.26163-2.079h-0.0483zm3.4451-3.1945h0.78701v3.8562c0 0.14453 0.0377 0.25972 0.11198 0.34555 0.0754 0.0858 0.17321 0.12925 0.29572 0.12925 0.12133 0 0.21673-0.0423 0.28629-0.12696 0.0696-0.0858 0.10362-0.20094 0.10362-0.34784v-3.8562h0.78351v3.7222c0 0.43843-0.1013 0.77456-0.30514 1.0108-0.20381 0.23503-0.49605 0.35258-0.87536 0.35258-0.38415 0-0.67868-0.11875-0.88249-0.35496s-0.30516-0.57939-0.30516-1.0295zm3.4012 4.9786v-4.9786h0.69044l0.97669 2.9747c0.0189 0.0576 0.0412 0.13284 0.0671 0.22681 0.0272 0.0941 0.0541 0.19515 0.0813 0.30329-0.0247-0.14458-0.046-0.27859-0.0612-0.40083-0.0165-0.12341-0.0247-0.21272-0.0247-0.27032v-2.8337h0.72104v4.9786h-0.72104l-0.93903-2.7514c-5e-3 -0.0107-0.0107-0.0281-0.0177-0.0517-0.0648-0.18805-0.11308-0.35021-0.14497-0.48889 0.0272 0.17516 0.0483 0.31969 0.0636 0.43604 0.0153 0.11637 0.0224 0.19985 0.0224 0.25267v2.6033zm3.525 0v-4.9786h0.7835v4.9786zm1.5161-4.9786h0.75165l0.45948 2.9477c0.0295 0.18803 0.0507 0.36554 0.0637 0.53127 0.0129 0.16685 0.0188 0.33495 0.0188 0.50417v0.0905c7e-3 -0.21857 0.0177-0.42306 0.033-0.61467 0.0153-0.19158 0.033-0.36199 0.0531-0.51126l0.44536-2.9477h0.7564l-0.88369 4.9786h-0.80469zm3.3281 4.9786v-4.9786h2.0088v0.71936h-1.2395v1.3058h0.89312v0.71927h-0.89312v1.4868h1.2395v0.74751zm3.6522-4.2593v1.4468h0.30397c0.17797 0 0.30048-0.053 0.36995-0.15986 0.0696-0.10696 0.10372-0.30561 0.10372-0.59465 0-0.26217-0.0366-0.44318-0.10841-0.543-0.0731-0.1-0.20381-0.14928-0.3924-0.14928zm0 2.1661v2.0932h-0.76931v-4.9786h1.1286c0.42421 0 0.72938 0.1141 0.91906 0.3409 0.18851 0.22681 0.28273 0.59355 0.28273 1.0989 0 0.31144-0.0376 0.56413-0.11428 0.75691-0.0754 0.1927-0.20026 0.34902-0.37226 0.46893l0.56551 2.313h-0.79642l-0.47718-2.0932zm2.2384 0.82977 0.73523-0.1105c0.0141 0.25273 0.0624 0.43959 0.14486 0.55943 0.0825 0.12103 0.20501 0.18101 0.36647 0.18101 0.14021 0 0.25329-0.0446 0.34165-0.13281 0.0872-0.0882 0.13075-0.20451 0.13075-0.34905 0-0.2597-0.20728-0.59474-0.62085-1.0061l-0.0731-0.0716c-0.40412-0.40433-0.66457-0.71458-0.78002-0.93198-0.11428-0.21629-0.17203-0.44664-0.17203-0.68991 0-0.35141 0.11546-0.64756 0.34641-0.88734 0.23212-0.23979 0.51373-0.35965 0.8483-0.35965 0.32405 0 0.58915 0.11045 0.79646 0.33257 0.20737 0.22094 0.32641 0.5207 0.35583 0.90028l-0.75284 0.10582c-0.0142-0.22212-0.0531-0.382-0.11904-0.47837-0.066-0.0963-0.16612-0.14462-0.30159-0.14462-0.12488 0-0.22386 0.0423-0.29929 0.12582-0.0742 0.0834-0.11188 0.19624-0.11188 0.33611 0 0.28915 0.24147 0.66641 0.72459 1.133l0.0447 0.0447c0.35463 0.34438 0.58675 0.62527 0.69746 0.84388 0.11078 0.21738 0.16614 0.4631 0.16614 0.73341 0 0.36312-0.11307 0.66047-0.33815 0.89439-0.22616 0.23267-0.51127 0.34901-0.85655 0.34901-0.38169 0-0.68447-0.1222-0.90954-0.36548-0.22387-0.24332-0.34521-0.58064-0.36407-1.0119zm3.294 1.2634v-4.9786h0.78351v4.9786zm1.4053-4.2593v-0.71936h2.3682v0.71936h-0.80111v4.2593h-0.76941v-4.2593zm2.5269-0.71936h0.78121l0.50073 1.9898h0.0483l0.47599-1.9898h0.78233l-0.89661 2.9125v2.0662h-0.76938v-1.9734zm5.8274 3.8809v-2.7796c0-0.17158-0.033-0.30084-0.10014-0.38666-0.0671-0.0858-0.16612-0.12927-0.29691-0.12927-0.13076 0-0.22974 0.0435-0.29691 0.12927-0.0671 0.0859-0.10013 0.21508-0.10013 0.38666v2.7796c0 0.17161 0.033 0.30084 0.10013 0.38898 0.0671 0.087 0.16615 0.13045 0.29691 0.13045 0.13079 0 0.22974-0.0435 0.29691-0.13045 0.0671-0.0882 0.10014-0.21737 0.10014-0.38898zm-1.5776-2.7314c0-0.39255 0.1072-0.69925 0.32047-0.92257 0.21444-0.22215 0.51014-0.33383 0.88834-0.33383 0.35583 0 0.63864 0.11405 0.84713 0.34324 0.20855 0.228 0.31221 0.53945 0.31221 0.93434v2.5516c0 0.43603-0.10246 0.77218-0.30864 1.0084s-0.49955 0.35496-0.87894 0.35496c-0.38413 0-0.67747-0.11755-0.87898-0.35258-0.20144-0.23505-0.30159-0.5794-0.30159-1.0319zm3.3554 3.8292v-4.9786h2.0052v0.71936h-1.2359v1.3058h0.89072v0.71927h-0.89072v2.2343zm-61.495 6.7661 0.73523-0.11051c0.0142 0.25276 0.0624 0.43961 0.14488 0.55947 0.0825 0.12103 0.20502 0.18098 0.36647 0.18098 0.14022 0 0.25331-0.0446 0.34165-0.13281 0.0872-0.0882 0.13077-0.20452 0.13077-0.34904 0-0.25971-0.20731-0.59471-0.62089-1.0061l-0.0731-0.0716c-0.40415-0.40433-0.66459-0.71457-0.78004-0.93198-0.11429-0.21628-0.17201-0.44663-0.17201-0.68991 0-0.35138 0.11546-0.64756 0.34641-0.88735 0.23212-0.23978 0.51371-0.35961 0.84831-0.35961 0.32402 0 0.58913 0.11042 0.79643 0.33257 0.20739 0.22094 0.32643 0.52067 0.35584 0.90025l-0.75283 0.10585c-0.0142-0.22215-0.0531-0.38203-0.11904-0.47836-0.066-0.0964-0.16612-0.14463-0.30158-0.14463-0.12492 0-0.22387 0.0423-0.29929 0.12578-0.0742 0.0834-0.11192 0.19628-0.11192 0.33612 0 0.28916 0.2415 0.66641 0.72459 1.133l0.0447 0.0447c0.35467 0.34435 0.58678 0.62527 0.69749 0.84384 0.11078 0.21738 0.16613 0.4631 0.16613 0.73341 0 0.36311-0.11309 0.66047-0.33813 0.89439-0.22619 0.23267-0.51127 0.34904-0.85656 0.34904-0.38171 0-0.68447-0.12223-0.90954-0.36548-0.22387-0.24335-0.34521-0.58067-0.36409-1.012zm3.2009-0.0142v-2.5516c0-0.39256 0.10721-0.69924 0.32047-0.92258 0.21445-0.22212 0.51016-0.33384 0.88834-0.33384 0.35586 0 0.63865 0.11409 0.84713 0.34207 0.20857 0.22919 0.31222 0.54063 0.31222 0.93555v0.47837h-0.79056v-0.54774c0-0.17161-0.033-0.30088-0.10013-0.3867-0.0671-0.0858-0.16612-0.12926-0.29691-0.12926-0.13077 0-0.22975 0.0435-0.29692 0.12926-0.0671 0.0859-0.10014 0.21509-0.10014 0.3867v2.7784c0 0.17277 0.033 0.30205 0.10014 0.39018 0.0671 0.087 0.16615 0.13044 0.29692 0.13044 0.13079 0 0.22973-0.0435 0.29691-0.13044 0.067-0.0882 0.10013-0.21741 0.10013-0.39018v-0.67819h0.79056v0.52068c0 0.43606-0.10246 0.77217-0.30863 1.0084-0.20619 0.23622-0.49955 0.35497-0.87894 0.35497-0.38882 0-0.68335-0.11757-0.88249-0.35143-0.19911-0.23391-0.2981-0.57826-0.2981-1.0331zm3.3141 1.2775v-4.9786h0.7835v4.9786zm1.8436 0v-4.9786h2.0089v0.71932h-1.2395v1.3058h0.89313v0.71924h-0.89313v1.4868h1.2395v0.74748zm2.89 0v-4.9786h0.6904l0.97672 2.9747c0.0188 0.0576 0.0412 0.13281 0.0671 0.2268 0.0271 0.0941 0.0541 0.19517 0.0813 0.3033-0.0247-0.14461-0.0459-0.27863-0.0612-0.40084-0.0165-0.12342-0.0247-0.21273-0.0247-0.2703v-2.8337h0.72104v4.9786h-0.72104l-0.93904-2.7514c-4e-3 -0.0107-0.0106-0.0281-0.0177-0.0518-0.0648-0.18805-0.11307-0.35022-0.14494-0.48889 0.0271 0.17514 0.0483 0.31969 0.0636 0.43606s0.0223 0.19982 0.0223 0.25267v2.6033zm3.4318-1.2775v-2.5516c0-0.39256 0.10724-0.69924 0.32047-0.92258 0.21445-0.22212 0.51016-0.33384 0.88837-0.33384 0.35584 0 0.63863 0.11409 0.8471 0.34207 0.20857 0.22919 0.31222 0.54063 0.31222 0.93555v0.47837h-0.79056v-0.54774c0-0.17161-0.033-0.30088-0.10013-0.3867-0.0671-0.0858-0.16613-0.12926-0.29691-0.12926-0.13077 0-0.22975 0.0435-0.2969 0.12926-0.0671 0.0859-0.10023 0.21509-0.10023 0.3867v2.7784c0 0.17277 0.033 0.30205 0.10023 0.39018 0.0671 0.087 0.16613 0.13044 0.2969 0.13044 0.13078 0 0.22973-0.0435 0.29691-0.13044 0.0671-0.0882 0.10013-0.21741 0.10013-0.39018v-0.67819h0.79056v0.52068c0 0.43606-0.10246 0.77217-0.30864 1.0084-0.20619 0.23622-0.49954 0.35497-0.87893 0.35497-0.38882 0-0.68335-0.11757-0.88247-0.35143-0.19914-0.23391-0.29812-0.57826-0.29812-1.0331zm3.3141 1.2775v-4.9786h2.0088v0.71932h-1.2395v1.3058h0.89312v0.71924h-0.89312v1.4868h1.2395v0.74748zm3.683 0 0.82116-4.9786h1.005l0.8177 4.9786h-0.79059l-0.15432-1.0778h-0.77767l-0.16612 1.0778zm1.0179-1.7841h0.58678l-0.26156-2.079h-0.0483zm2.355 1.7841v-4.9786h0.69041l0.97677 2.9747c0.0189 0.0576 0.0412 0.13281 0.0671 0.2268 0.0272 0.0941 0.0541 0.19517 0.0813 0.3033-0.0247-0.14461-0.0459-0.27863-0.0612-0.40084-0.0165-0.12342-0.0247-0.21273-0.0247-0.2703v-2.8337h0.72104v4.9786h-0.72104l-0.93911-2.7514c-4e-3 -0.0107-0.0106-0.0281-0.0177-0.0518-0.0648-0.18805-0.11308-0.35022-0.14497-0.48889 0.0272 0.17514 0.0484 0.31969 0.0636 0.43606 0.0153 0.11637 0.0223 0.19982 0.0223 0.25267v2.6033zm4.2873-0.7334h0.39001c0.13547 0 0.2368-0.0423 0.30159-0.12691 0.066-0.0859 0.099-0.21745 0.099-0.39609v-2.3964c0-0.20447-0.0495-0.35375-0.14847-0.44892-0.099-0.0953-0.25447-0.14342-0.46654-0.14342h-0.17558zm-0.76226 0.7334v-4.9786h1.0934c0.42413 0 0.73752 0.11168 0.94141 0.33383 0.20381 0.22332 0.30508 0.56767 0.30508 1.0331v2.2236c0 0.48424-0.0966 0.83683-0.28977 1.0578-0.19327 0.21976-0.50081 0.33027-0.92135 0.33027zm4.0388-4.2593v-0.71932h2.3682v0.71932h-0.80114v4.2593h-0.7694v-4.2593zm3.01 4.2593v-4.9786h2.0088v0.71932h-1.2395v1.3058h0.89311v0.71924h-0.89311v1.4868h1.2395v0.74748zm2.7968-1.2775v-2.5516c0-0.39256 0.10721-0.69924 0.32047-0.92258 0.21441-0.22212 0.51014-0.33384 0.88834-0.33384 0.35583 0 0.63864 0.11409 0.84713 0.34207 0.20856 0.22919 0.31221 0.54063 0.31221 0.93555v0.47837h-0.79059v-0.54774c0-0.17161-0.033-0.30088-0.10003-0.3867-0.0671-0.0858-0.16615-0.12926-0.29691-0.12926s-0.22974 0.0435-0.29691 0.12926c-0.0671 0.0859-0.10014 0.21509-0.10014 0.3867v2.7784c0 0.17277 0.033 0.30205 0.10014 0.39018 0.0671 0.087 0.16615 0.13044 0.29691 0.13044s0.22975-0.0435 0.29691-0.13044c0.067-0.0882 0.10003-0.21741 0.10003-0.39018v-0.67819h0.79059v0.52068c0 0.43606-0.10246 0.77217-0.30864 1.0084-0.20621 0.23622-0.49955 0.35497-0.87893 0.35497-0.38881 0-0.68336-0.11757-0.88249-0.35143-0.19914-0.23391-0.29809-0.57826-0.29809-1.0331zm3.3141-3.7011h0.76225v2.0321h0.77053v-2.0321h0.76947v4.9786h-0.76947v-2.2272h-0.77053v2.2272h-0.76225zm3.3836 4.9786v-4.9786h0.69042l0.97669 2.9747c0.0189 0.0576 0.0412 0.13281 0.0671 0.2268 0.0272 0.0941 0.0541 0.19517 0.0813 0.3033-0.0247-0.14461-0.0459-0.27863-0.0612-0.40084-0.0165-0.12342-0.0247-0.21273-0.0247-0.2703v-2.8337h0.72104v4.9786h-0.72104l-0.93903-2.7514c-5e-3 -0.0107-0.0107-0.0281-0.0177-0.0518-0.0648-0.18805-0.11308-0.35022-0.14498-0.48889 0.0272 0.17514 0.0483 0.31969 0.0637 0.43606 0.0153 0.11637 0.0224 0.19982 0.0224 0.25267v2.6033zm5.0094-1.0977v-2.7796c0-0.17161-0.033-0.30088-0.10003-0.3867-0.0671-0.0858-0.16616-0.12926-0.29692-0.12926s-0.22974 0.0435-0.29691 0.12926c-0.0671 0.0859-0.10014 0.21509-0.10014 0.3867v2.7796c0 0.17156 0.033 0.30084 0.10014 0.38897 0.0671 0.087 0.16615 0.13044 0.29691 0.13044s0.22975-0.0435 0.29692-0.13044c0.0671-0.0882 0.10003-0.21741 0.10003-0.38897zm-1.5776-2.7315c0-0.39256 0.10721-0.69924 0.32047-0.92258 0.21441-0.22212 0.51015-0.33384 0.88834-0.33384 0.35583 0 0.63865 0.11409 0.84713 0.34327 0.20856 0.22799 0.31221 0.53943 0.31221 0.93435v2.5516c0 0.43606-0.10246 0.77217-0.30866 1.0084-0.20619 0.23622-0.49953 0.35497-0.87891 0.35497-0.38415 0-0.67748-0.11757-0.87899-0.35259-0.20143-0.23503-0.30159-0.5794-0.30159-1.0319zm3.3553 3.8292v-4.9786h0.76225v4.2594h1.1947v0.71923zm4.1599-1.0977v-2.7796c0-0.17161-0.033-0.30088-0.10013-0.3867-0.0671-0.0858-0.16612-0.12926-0.29689-0.12926-0.13079 0-0.22975 0.0435-0.29691 0.12926-0.0671 0.0859-0.10024 0.21509-0.10024 0.3867v2.7796c0 0.17156 0.033 0.30084 0.10024 0.38897 0.0671 0.087 0.16612 0.13044 0.29691 0.13044 0.13077 0 0.22975-0.0435 0.29689-0.13044 0.0671-0.0882 0.10013-0.21741 0.10013-0.38897zm-1.5776-2.7315c0-0.39256 0.10723-0.69924 0.32047-0.92258 0.21444-0.22212 0.51016-0.33384 0.88837-0.33384 0.35583 0 0.63862 0.11409 0.8471 0.34327 0.20857 0.22799 0.31221 0.53943 0.31221 0.93435v2.5516c0 0.43606-0.10246 0.77217-0.30862 1.0084-0.20619 0.23622-0.49955 0.35497-0.87892 0.35497-0.38415 0-0.6775-0.11757-0.87902-0.35259-0.20143-0.23503-0.30159-0.5794-0.30159-1.0319zm3.2622 2.5516v-2.5516c0-0.39256 0.10724-0.69924 0.32047-0.92258 0.21444-0.22212 0.51016-0.33384 0.88837-0.33384 0.36288 0 0.63974 0.10815 0.82833 0.32323 0.18848 0.21628 0.2827 0.5336 0.2827 0.95439v0.45716h-0.74227v-0.52653c0-0.17161-0.033-0.30088-0.10013-0.3867-0.0671-0.0858-0.16613-0.12926-0.29689-0.12926-0.13079 0-0.22975 0.0435-0.29692 0.12926-0.0671 0.0859-0.10013 0.21509-0.10013 0.3867v2.7784c0 0.17277 0.033 0.30205 0.10013 0.39018 0.0671 0.087 0.16613 0.13044 0.29692 0.13044 0.13076 0 0.22971-0.0435 0.29689-0.13044 0.0671-0.0882 0.10013-0.21741 0.10013-0.39018v-0.77803h-0.46654v-0.63351h1.2088v2.5104h-0.36997l-0.14843-0.34435c-0.0849 0.15394-0.1873 0.26795-0.30634 0.34081-0.12016 0.074-0.26506 0.11052-0.43477 0.11052-0.34398 0-0.60555-0.11875-0.78818-0.35497-0.18144-0.23624-0.27218-0.57939-0.27218-1.0295zm2.838-3.7011h0.7813l0.50072 1.9898h0.0483l0.47597-1.9898h0.78234l-0.8966 2.9124v2.0661h-0.76941v-1.9734z" fill="#006aa7" fill-rule="evenodd" stroke-width=".27942"/>
</g>
</svg>
