<?xml version="1.0" encoding="UTF-8"?>
<!-- Created with Inkscape (http://www.inkscape.org/) -->
<svg id="svg1819" width="268.2147" height="56.95866" version="1.1" viewBox="0 0 70.96513 15.07031" xmlns="http://www.w3.org/2000/svg">
 <g id="layer1">
  <path id="path1631" d="m10.16141 5.416197c4.453113 4.995333 10.76043 8.305447 17.84244 8.845197-4.452761-4.99498-10.75937-8.30333-17.84244-8.845197" fill="#000000"/>
  <path id="path1633" d="m9.545813 4.916311c4.026253-2.388306 12.7441-2.922411 18.97521 0.256822 0.402167-0.07832 0.865364-0.151342 0.865364-0.151342-5.632803-2.874786-15.09995-5.849055-22.39892-1.412875-5.878689 3.572934-2.993672 8.48995 2.639836 11.36474 0 0 0.142522-0.236008 0.297744-0.44203-5.937955-3.065286-4.243211-7.323667-0.379236-9.615311" fill="#f39700"/>
  <path id="path1635" d="M 4.829527,2.465211 8.299097,2.257778 0,0 4.422775,4.234744 4.829527,2.465211" fill="#000000"/>
  <g id="g2081" fill="#000000">
   <path id="path2062" d="m46.95424 1.479496v0.7932332h-2.988965v0.0346232h-0.006201v4.304647h0.006201v0.3689697h2.988965v0.9084717h-3.762044v0.4935099h3.762044v1.631942h0.977201v-1.631942h3.838526v-0.4935099h-3.838526v-0.9084717h3.2644v-0.1157552h0.013953v-1.810742h-0.013953v-0.2490804h-6.258532v-0.4991943h6.060095v-0.1875854h0.013953v-1.811259h-0.013953v-0.0346232h-3.065963v-0.7932332h-0.977201zm-2.016931 1.288293h5.095296v1.043864h-5.095296v-1.043864zm0 2.531628h5.29425v1.186491h-5.29425v-1.186491z"/>
   <g id="g2071">
    <path id="path2056" d="m37.24028 2.587272h-0.928511v5.571067h-0.4191v-6.678789h-0.928863v6.678789h-0.370417v-5.571067h-0.928158l-0.0078 6.066367h3.584222z"/>
    <path id="path2054" d="m39.81944 7.875411c-0.928159-0.709789-1.62807-1.63195-1.800578-2.730147h3.078692c-0.08678 1.036108-0.649112 2.013655-1.15817 2.596444-0.0388 0.0441-0.07867 0.08925-0.119944 0.133703zm0.609952 0.342547c1.08585-1.011767 1.659114-2.167114 1.659114-3.343275h-0.0032v-0.223308h-1.790322v-1.456972h1.92017v-0.494242h-1.92017v-1.220611h-0.978605v1.220611h-1.919464v0.494242h1.919464v1.456972h-1.662995v0.223308h-0.0011c0 1.411464 0.673453 2.62255 1.623483 3.548239-0.624769 0.582083-1.401233 1.149703-2.149828 1.396294l0.0882 0.2794c0.875242-0.286808 1.747308-0.740127 2.493786-1.286227 0.714022 0.584905 1.535642 1.024113 2.333978 1.286227l0.304094-0.929569c-0.670278-0.213431-1.349022-0.519289-1.967089-0.905933 0.01658-0.01517 0.03457-0.02999 0.05045-0.04516z"/>
   </g>
   <path id="path2050" d="m57.48584 4.281664h3.694289v-0.4953h-3.715456v-2.306814h-0.978605v2.306814h-3.715103v0.4953h3.717219c-0.09419 1.927225-1.389944 4.628091-3.738386 5.500863l0.06597 0.261056c1.737077-0.448381 2.832452-1.572331 3.444875-2.436283 0.483658-0.681567 0.837494-1.443567 1.03505-2.204861 0.127 0.734836 0.367947 1.474963 0.755297 2.204861 0.506941 0.955322 1.368778 1.987902 3.10515 2.436283l0.244828-0.947208c-2.33292-0.601486-3.806473-2.916061-3.915128-4.814711z"/>
   <g id="g2067">
    <path id="path2052" d="m63.51693 3.530953h6.249458v1.756127h0.977547l7.06e-4 -2.250722h-1.832681c0.500944-0.458258 0.839258-0.962025 1.130653-1.556808h-1.158875c-0.159456 0.503061-0.449439 1.021644-0.841728 1.440391l0.118181 0.116417h-1.022703c-0.07126-0.2032-0.317147-0.946855-0.317147-1.556808h-0.992011c0 0.670983 0.361244 1.248833 0.600075 1.556808h-1.413581c-0.07161-0.2032-0.317853-0.946855-0.317853-1.556808h-0.9906c0 0.670983 0.360539 1.248833 0.598664 1.556808h-1.754364v0.03563h-0.01235v2.215091h0.978606z"/>
    <path id="path1637" d="m67.18794 6.7056v-0.434622c0.820914-0.346781 1.582914-0.85972 2.070453-1.224139v-0.493889h-5.192536v0.493889h3.661128c-0.442384 0.413102-1.054453 0.935214-1.516592 1.160286v0.498475h-3.911953v0.494594h3.911953v1.920875c0 0.05856-0.03316 0.248708-0.460022 0.248708h-0.664281v0.661106h0.664281c0.987777 0 1.437569-0.635706 1.437569-1.226256v-1.604433h3.777192v-0.494594z"/>
   </g>
  </g>
  <path id="path1639" d="m27.9908 5.416197c-4.452761 4.995333-10.76008 8.305447-17.84244 8.845197 4.453114-4.99498 10.76008-8.30333 17.84244-8.845197" fill="#f39700"/>
  <g id="g2100" fill="#000000">
   <g id="g2033">
    <path id="path1641" d="m36.87127 15.01916h0.524228v-2.947494h-0.524228z"/>
    <path id="path1643" d="m38.85882 12.32676v1.007886h1.035755v0.229658h-1.035755v1.454856h-0.523875v-2.947459h1.940983v0.255059h-1.417108"/>
    <path id="path1659" d="m35.94488 12.26538c-0.257527-0.172861-0.484363-0.242711-0.825852-0.242711-0.867481 0-1.495072 0.602545-1.495072 1.496131 0 0.912989 0.517172 1.545166 1.343377 1.545166 0.390525 0 0.846667-0.106891 1.104547-0.320675v-1.242836h-1.113719v0.295275h0.588786v0.759178c-0.08749 0.110067-0.258939 0.252589-0.479072 0.252589-0.57785 0-0.899231-0.542925-0.899231-1.2827 0-0.739069 0.444853-1.323975 0.910873-1.323975 0.278341 0 0.5715 0.209197 0.762705 0.434269l0.102658-0.369711"/>
    <path id="path1661" d="m42.17141 15.07031c0.905581 0 1.103489-0.521052 1.103489-0.989188v-2.009423h-0.523875v1.950156c0 0.426155-0.109008 0.793044-0.579614 0.793044-0.4699 0-0.579967-0.366889-0.579967-0.793044v-1.950156h-0.522816v2.009423c0 0.468136 0.197555 0.989188 1.102783 0.989188"/>
   </g>
   <g id="g2046">
    <path id="path1645" d="m50.87761 15.05656-1.493309-2.103614v2.0701h-0.504825v-2.951339h0.190148l1.45415 2.017536v-2.017536h0.504472v2.984853h-0.150636"/>
    <path id="path1647" d="m51.96981 15.01916h0.523487v-2.947494h-0.523487z"/>
    <path id="path1649" d="m54.53556 15.05656h-0.288572l-1.101372-2.984853h0.573617l0.682625 2.229909 0.722136-2.229909h0.56268l-1.151114 2.984853"/>
    <path id="path1651" d="m56.84732 12.32676v1.007886h0.951442v0.229658h-0.951442v1.200503h1.335617v0.254353h-1.860903v-2.947459h1.860903v0.255059h-1.335617"/>
    <path id="path1653" d="m64.2874 15.01916h0.523522v-2.947494h-0.523522z"/>
    <path id="path1655" d="m66.95334 12.32676v2.6924h-0.524228v-2.6924h-0.935567v-0.255059h2.438048v0.255059h-0.978253"/>
    <path id="path1657" d="m69.82918 13.80984v1.209323h-0.523875v-1.209323l-0.992716-1.738136h0.554213l0.697442 1.500011 0.700264-1.500011h0.554567l-0.989895 1.738136"/>
    <path id="path1663" d="m46.85136 15.07031c0.905581 0 1.103489-0.521052 1.103489-0.989188v-2.009423h-0.523522v1.950156c0 0.426155-0.109361 0.793044-0.579967 0.793044-0.470958 0-0.580672-0.366889-0.580672-0.793044v-1.950156h-0.522817v2.009423c0 0.468136 0.19685 0.989188 1.103489 0.989188"/>
    <path id="path1665" d="m59.53866 13.52868h0.311855c0.43815 0 0.54222-0.382764 0.54222-0.623006 0-0.239536-0.150989-0.59055-0.483306-0.59055h-0.370769zm-0.542573-1.456973h1.052337c0.407105 0 0.888647 0.203906 0.888647 0.820209 0 0.614891-0.544689 0.874536-0.858309 0.874536h-0.540102v1.252714h-0.542573v-2.947459"/>
    <path id="path1667" d="m59.84169 13.73717 0.817739 1.281995h0.604308l-0.883003-1.352198-0.539044 0.0702"/>
    <path id="path1669" d="m63.29539 12.56877c-0.126647-0.178505-0.391936-0.317147-0.614539-0.317147-0.225072 0-0.453672 0.214489-0.453672 0.544336 0 0.196145 0.189442 0.349956 0.539045 0.528108 0.348897 0.177095 0.716138 0.366537 0.716138 0.940506 0 0.574322-0.562327 0.799394-1.018469 0.799394-0.455789 0-0.676628-0.134408-0.792339-0.208844l0.117828-0.375003c0.109714 0.1397 0.338314 0.327378 0.706967 0.327378 0.2667 0 0.468136-0.222603 0.468136-0.527756 0-0.194027-0.115359-0.371475-0.582789-0.60713-0.467431-0.236714-0.674864-0.445206-0.674864-0.859014 0-0.413103 0.331964-0.790928 0.89288-0.790928 0.391584 0 0.658284 0.111831 0.809625 0.191206l-0.113947 0.354894"/>
   </g>
  </g>
 </g>
</svg>