<?xml version="1.0" encoding="utf-8"?>
<!-- Generator: Adobe Illustrator 16.0.4, SVG Export Plug-In . SVG Version: 6.00 Build 0)  -->
<!DOCTYPE svg PUBLIC "-//W3C//DTD SVG 1.1//EN" "http://www.w3.org/Graphics/SVG/1.1/DTD/svg11.dtd">
<svg version="1.1" id="Layer_1" xmlns="http://www.w3.org/2000/svg" xmlns:xlink="http://www.w3.org/1999/xlink" x="0px" y="0px"
	 width="301.941px" height="210.944px" viewBox="0 0 301.941 210.944" enable-background="new 0 0 301.941 210.944"
	 xml:space="preserve">
<g>
	<g>
		<polygon fill="#F5AA00" points="198.953,0 206.441,87.537 185.075,95.158 191.669,49.337 149.004,43.436 135.275,5.399 		"/>
		<polygon fill="#FFFFFF" points="191.669,49.337 185.08,95.154 169.642,100.664 148.995,43.438 		"/>
		<polygon fill="#0D86C8" points="185.08,95.154 181.716,118.497 112,108.86 121.953,39.692 148.995,43.438 169.642,100.664 		"/>
		<path fill="#706F6F" d="M235.184,92.848c-6.06,0-10.089,1.377-13.706,4.671c-3.767,3.452-5.779,8.074-5.779,13.385
			c0,10.83,8.072,18.265,19.698,18.265c2.921,0,5.104-0.321,8.822-1.167c0.791-0.217,1.958-0.479,3.554-0.859v-14.328h-6.688v9.662
			c-2.08,0.583-2.98,0.741-4.576,0.741c-7.806,0-13.806-5.467-13.806-12.639c0-6.953,5.472-11.793,13.33-11.793
			c2.229,0,4.726,0.427,7.222,1.282c0.643,0.208,1.597,0.527,2.867,1.006l1.605-5.571c-2.451-1.062-3.509-1.44-5.214-1.861
			C240.284,93.108,237.733,92.848,235.184,92.848"/>
		<path fill="#706F6F" d="M264.029,93.429h-6.643v30.055c0,3.776-0.476,6.317-1.7,8.872c-0.792,1.592-1.167,2.334-2.98,5.155
			l4.997,3.337c1.741-2.175,2.383-3.074,3.45-4.824c1.438-2.343,1.908-3.46,2.876-6.539V93.429z"/>
		<path fill="#706F6F" d="M301.941,93.429h-6.688v21.712c0,5.056-2.708,7.813-7.813,7.813c-5.575,0-8.284-2.6-8.284-7.813V93.429
			h-6.634v21.348c0,6.428,1.167,9.345,4.775,11.841c2.654,1.805,5.521,2.551,9.93,2.551c4.364,0,7.33-0.796,9.89-2.551
			c3.658-2.546,4.825-5.413,4.825-11.841V93.429z"/>
		<path fill="#4A4A49" d="M299.007,196.301h-1.601l-1.927,5.743l-0.208,0.913l-0.308-0.913l-2.266-5.743h-1.74l3.481,8.356
			c-0.538,1.438-0.787,1.99-1.303,2.903c-0.538,0.977-0.85,1.393-1.781,2.433l1.243,0.95c0.77-0.973,1.031-1.366,1.402-1.972
			c0.524-0.828,0.882-1.592,1.312-2.754L299.007,196.301z M290.442,204.78l-0.651-1.035c-0.66,0.497-0.973,0.669-1.366,0.669
			c-0.334,0-0.52-0.153-0.542-0.461c-0.019-0.1-0.019-0.289-0.046-0.579l-0.013-0.416v-5.354h2.491v-1.303h-2.491v-2.74h-1.556v2.74
			l-1.574,0.389v0.914h1.574v6.268c0,1.238,0.728,2.094,1.8,2.094C288.818,205.965,289.334,205.698,290.442,204.78 M282.841,193.018
			c0-0.561-0.452-1.008-1.013-1.008c-0.557,0-1.018,0.447-1.018,1.008c0,0.562,0.461,1.022,1.018,1.022
			C282.389,194.041,282.841,193.58,282.841,193.018 M282.587,196.301h-1.551v9.396h1.551V196.301z M278.011,203.27
			c0-1.479-0.561-2.112-2.555-2.944c-1.7-0.71-1.953-0.85-2.324-1.229c-0.141-0.145-0.226-0.344-0.226-0.579
			c0-0.71,0.683-1.185,1.74-1.185c0.353,0,0.701,0.063,1.081,0.167c0.471,0.127,0.741,0.249,1.352,0.62l0.76-1.262
			c-0.786-0.435-1.112-0.579-1.826-0.706c-0.394-0.081-0.801-0.104-1.198-0.104c-2.198,0-3.568,1.021-3.568,2.659
			c0,1.14,0.62,1.781,2.456,2.55c1.668,0.683,2.111,0.95,2.482,1.492c0.104,0.145,0.186,0.412,0.186,0.643
			c0,0.732-0.711,1.248-1.664,1.248c-0.661,0-1.493-0.208-2.157-0.516c-0.158-0.086-0.39-0.213-0.701-0.38l-0.642,1.312
			c0.931,0.475,1.324,0.624,2.215,0.787c0.484,0.081,0.914,0.122,1.312,0.122C276.786,205.965,278.011,204.948,278.011,203.27
			 M269.98,196.69c-0.416-0.411-0.846-0.642-1.208-0.642c-0.705,0-1.284,0.452-2.441,1.949v-1.696h-1.561v9.396h1.561v-5.606
			c0.886-1.619,1.637-2.465,2.211-2.465c0.186,0,0.357,0.1,0.665,0.371L269.98,196.69z M260.521,199.702h-4.613
			c0.357-1.456,1.267-2.242,2.578-2.242C259.77,197.459,260.497,198.246,260.521,199.702 M262.221,200.86v-0.909
			c0-2.347-1.43-3.902-3.632-3.902c-2.682,0-4.44,1.976-4.44,4.956c0,2.966,1.759,4.961,4.382,4.961
			c1.221,0,2.008-0.268,3.396-1.136l-0.62-1.229c-1.021,0.71-1.623,0.94-2.446,0.94c-1.912,0-3.075-1.402-3.075-3.681H262.221z
			 M252.941,196.301h-1.7l-2.551,7.633l-0.022,0.354l-0.041-0.376l-2.591-7.61h-1.7l3.522,9.664h1.429L252.941,196.301z
			 M242.45,193.018c0-0.561-0.466-1.008-1.021-1.008c-0.562,0-1.014,0.447-1.014,1.008c0,0.562,0.452,1.022,1.014,1.022
			C241.984,194.041,242.45,193.58,242.45,193.018 M242.197,196.301h-1.556v9.396h1.556V196.301z M237.15,205.698v-7.036
			c0-1.764-0.805-2.613-2.464-2.613c-0.873,0-1.813,0.335-2.515,0.936c-0.457,0.366-0.643,0.557-1.284,1.28v-1.963h-1.556v9.396
			h1.556v-5.747c1.642-1.805,2.663-2.519,3.608-2.519c0.438,0,0.81,0.194,0.959,0.502c0.1,0.271,0.14,0.479,0.14,1.099v6.665H237.15
			z M225.638,201.009v-8.999h-1.696v8.479c0,1.7-0.131,2.18-0.786,2.907c-0.688,0.765-1.691,1.186-2.867,1.186
			c-1.185,0-2.185-0.421-2.867-1.186c-0.664-0.728-0.786-1.207-0.786-2.907v-8.479h-1.705v8.999c0,1.786,0.457,2.889,1.596,3.82
			c1.022,0.823,2.307,1.262,3.776,1.262c1.474,0,2.745-0.438,3.758-1.262C225.199,203.898,225.638,202.84,225.638,201.009
			 M206.13,205.698v-7.036c0-1.764-0.801-2.613-2.465-2.613c-0.872,0-1.804,0.335-2.514,0.936c-0.457,0.366-0.643,0.557-1.284,1.28
			v-1.963h-1.556v9.396h1.556v-5.747c1.637-1.805,2.654-2.519,3.608-2.519c0.438,0,0.81,0.194,0.954,0.502
			c0.113,0.271,0.145,0.479,0.145,1.099v6.665H206.13z M193.12,203.356c-1.343,0.977-1.822,1.202-2.527,1.202
			c-0.77,0-1.267-0.479-1.267-1.229c0-0.371,0.041-0.579,0.263-1.013l3.531-0.914V203.356z M195.463,204.658
			c-0.471-0.076-0.72-0.244-0.76-0.497v-5.766c0-1.451-1.186-2.347-3.075-2.347c-2.013,0-3.383,0.85-3.383,2.098
			c0,0.227,0.022,0.33,0.172,0.579l1.569-0.33c-0.059-0.167-0.077-0.249-0.077-0.357c0-0.538,0.448-0.81,1.43-0.81
			c1.202,0,1.781,0.398,1.781,1.167v1.696l-3.251,0.772c-1.37,0.33-2.099,1.244-2.099,2.618c0,1.492,0.99,2.46,2.51,2.46
			c0.669,0,1.411-0.208,1.989-0.533c0.321-0.167,0.525-0.335,1.004-0.751c0.077,0.896,0.534,1.226,1.818,1.308L195.463,204.658z
			 M185.107,193.018c0-0.561-0.448-1.008-1.004-1.008c-0.565,0-1.026,0.447-1.026,1.008c0,0.562,0.461,1.022,1.026,1.022
			C184.659,194.041,185.107,193.58,185.107,193.018 M184.863,196.301h-1.552v9.396h1.552V196.301z M179.825,205.698v-7.036
			c0-1.764-0.81-2.613-2.469-2.613c-0.868,0-1.809,0.335-2.51,0.936c-0.466,0.366-0.651,0.557-1.293,1.28v-1.963h-1.551v9.396h1.551
			v-5.747c1.642-1.805,2.654-2.519,3.608-2.519c0.443,0,0.813,0.194,0.959,0.502c0.099,0.271,0.148,0.479,0.148,1.099v6.665H179.825
			z M166.812,203.356c-1.348,0.977-1.827,1.202-2.528,1.202c-0.773,0-1.266-0.479-1.266-1.229c0-0.371,0.036-0.579,0.267-1.013
			l3.527-0.914V203.356z M169.158,204.658c-0.479-0.076-0.729-0.244-0.769-0.497v-5.766c0-1.451-1.181-2.347-3.066-2.347
			c-2.021,0-3.382,0.85-3.382,2.098c0,0.227,0.018,0.33,0.158,0.579l1.582-0.33c-0.067-0.167-0.081-0.249-0.081-0.357
			c0-0.538,0.452-0.81,1.425-0.81c1.207,0,1.786,0.398,1.786,1.167v1.696l-3.256,0.772c-1.37,0.33-2.094,1.244-2.094,2.618
			c0,1.492,0.994,2.46,2.505,2.46c0.669,0,1.415-0.208,1.999-0.533c0.303-0.167,0.516-0.335,0.994-0.751
			c0.077,0.896,0.543,1.226,1.827,1.308L169.158,204.658z M157.084,202.84c-0.434,0.533-0.664,0.76-1.017,1.013
			c-0.584,0.412-1.271,0.643-1.827,0.643c-1.452,0-2.51-1.37-2.51-3.256c0-2.266,1.284-3.699,3.278-3.699
			c0.949,0,1.619,0.267,1.886,0.787c0.167,0.316,0.189,0.524,0.189,1.248V202.84z M158.653,205.698v-15.13h-1.569v6.122
			c-0.605-0.452-1.243-0.642-2.242-0.642c-2.786,0-4.793,2.18-4.793,5.209c0,2.781,1.615,4.708,3.92,4.708
			c1.185,0,2.283-0.516,3.115-1.452v1.185H158.653z M149.153,196.69c-0.416-0.411-0.846-0.642-1.203-0.642
			c-0.701,0-1.293,0.452-2.446,1.949v-1.696h-1.556v9.396h1.556v-5.606c0.891-1.619,1.637-2.465,2.22-2.465
			c0.185,0,0.353,0.1,0.66,0.371L149.153,196.69z M139.566,201.004c0,1.994-1.284,3.577-2.926,3.577
			c-1.655,0-2.948-1.583-2.948-3.577c0-1.99,1.293-3.572,2.948-3.572C138.282,197.432,139.566,199.014,139.566,201.004
			 M141.267,201.004c0-2.723-2.089-4.956-4.626-4.956c-2.55,0-4.644,2.233-4.644,4.956c0,2.699,2.094,4.961,4.644,4.961
			C139.177,205.965,141.267,203.704,141.267,201.004 M128.845,206.096V192.01h-1.705v12.503c0,1.23-0.226,2.324-0.619,3.111
			c-0.29,0.533-0.561,0.913-1.515,1.972l1.099,0.932c0.873-0.828,1.185-1.203,1.678-1.99
			C128.325,207.688,128.51,207.253,128.845,206.096 M117.992,205.698v-7.036c0-1.764-0.814-2.613-2.474-2.613
			c-0.873,0-1.809,0.335-2.51,0.936c-0.457,0.366-0.642,0.557-1.28,1.28v-1.963h-1.56v9.396h1.56v-5.747
			c1.637-1.805,2.65-2.519,3.604-2.519c0.434,0,0.805,0.194,0.954,0.502c0.113,0.271,0.149,0.479,0.149,1.099v6.665H117.992z
			 M104.978,203.356c-1.347,0.977-1.822,1.202-2.532,1.202c-0.76,0-1.262-0.479-1.262-1.229c0-0.371,0.041-0.579,0.271-1.013
			l3.522-0.914V203.356z M107.32,204.658c-0.471-0.076-0.724-0.244-0.76-0.497v-5.766c0-1.451-1.185-2.347-3.075-2.347
			c-2.012,0-3.382,0.85-3.382,2.098c0,0.227,0.018,0.33,0.167,0.579l1.573-0.33c-0.059-0.167-0.077-0.249-0.077-0.357
			c0-0.538,0.457-0.81,1.434-0.81c1.198,0,1.777,0.398,1.777,1.167v1.696l-3.251,0.772c-1.37,0.33-2.098,1.244-2.098,2.618
			c0,1.492,0.99,2.46,2.509,2.46c0.66,0,1.416-0.208,1.99-0.533c0.312-0.167,0.52-0.335,1-0.751
			c0.082,0.896,0.538,1.226,1.822,1.308L107.32,204.658z M96.807,205.698v-7.036c0-1.764-0.81-2.613-2.469-2.613
			c-0.877,0-1.809,0.335-2.51,0.936c-0.457,0.366-0.651,0.557-1.311,1.298c-0.1-1.51-0.887-2.233-2.442-2.233
			c-0.877,0-1.809,0.335-2.519,0.936c-0.457,0.366-0.642,0.557-1.284,1.28v-1.963h-1.556v9.396h1.556v-5.747
			c1.637-1.805,2.654-2.519,3.608-2.519c0.439,0,0.814,0.194,0.959,0.502c0.149,0.294,0.149,0.416,0.149,1.099v6.665h1.556v-5.747
			l0.434-0.461c1.384-1.452,2.297-2.058,3.166-2.058c0.443,0,0.814,0.194,0.963,0.502c0.145,0.294,0.145,0.416,0.145,1.099v6.665
			H96.807z M80.93,196.69c-0.411-0.411-0.85-0.642-1.198-0.642c-0.71,0-1.289,0.452-2.451,1.949v-1.696h-1.556v9.396h1.556v-5.606
			c0.886-1.619,1.632-2.465,2.216-2.465c0.185,0,0.353,0.1,0.669,0.371L80.93,196.69z M71.475,199.702h-4.608
			c0.348-1.456,1.261-2.242,2.573-2.242C70.724,197.459,71.447,198.246,71.475,199.702 M73.166,200.86v-0.909
			c0-2.347-1.429-3.902-3.626-3.902c-2.672,0-4.436,1.976-4.436,4.956c0,2.966,1.764,4.961,4.368,4.961
			c1.234,0,2.021-0.268,3.41-1.136l-0.62-1.229c-1.022,0.71-1.624,0.94-2.451,0.94c-1.913,0-3.071-1.402-3.071-3.681H73.166z
			 M62.304,205.182v-5.606h-1.705v4.566c-1.099,0.231-1.583,0.29-2.261,0.29c-3.423,0-5.955-2.429-5.955-5.725
			c0-1.357,0.497-2.659,1.352-3.654c1.044-1.229,2.297-1.745,4.232-1.745c1.099,0,2.175,0.208,2.966,0.538
			c0.163,0.086,0.389,0.194,0.728,0.375l0.642-1.411c-0.75-0.416-1.062-0.561-1.664-0.723c-0.719-0.186-1.868-0.312-2.84-0.312
			c-4.178,0-7.244,2.989-7.244,7.05c0,4.052,3.179,7.141,7.303,7.141c1.139,0,2.509-0.168,3.446-0.452
			C61.526,205.45,61.861,205.345,62.304,205.182"/>
		<g>
			<path fill="#706F6F" d="M7.041,176.857c-0.683,0.117-1.243,0.172-1.867,0.172c-3.012,0-5.173-1.479-5.173-5.463
				c0-4.142,2.451-5.733,5.354-5.733c1.56,0,2.627,0.208,4.314,0.71v9.749h3.134l0.176,2.573H7.041V176.857z M7.041,168.636
				c-0.475-0.118-0.8-0.118-1.243-0.118H5.354c-1.452,0-2.573,0.742-2.573,3.048c0,2.18,1.004,2.776,2.392,2.776
				c0.597,0,1.212-0.086,1.867-0.239V168.636z"/>
			<path fill="#706F6F" d="M21.104,178.865c-1.452,0-2.984-0.271-4.495-1.095c-0.972,0.742-2.333,1.095-3.902,1.095l-0.172-2.573
				c2.333,0,3.102-1.153,3.102-3.423v-7.1h2.659v7.569c0,0.855-0.145,1.655-0.29,2.243c1.031,0.561,2.067,0.71,2.985,0.71h0.674
				l0.267,2.573H21.104z"/>
			<path fill="#706F6F" d="M21.402,176.292c2.329,0,3.193-1.153,3.193-3.423v-7.1h2.659v7.569c0,3.636-1.772,5.526-5.589,5.526
				L21.402,176.292z"/>
			<path fill="#706F6F" d="M32.526,166.334c3.753,0,5.82,0.619,6.616,4.96l1.456,7.57H28.592l1.307-2.573h7.534l-0.859-4.287
				c-0.565-3.007-1.479-3.097-4.165-3.192L32.526,166.334z"/>
			<path fill="#706F6F" d="M41.042,181.88c0.33,0,1.538,0.086,1.832,0.086c2.758,0,3.961-1.329,3.961-4.196v-8.926h2.637v9.134
				c0,4.342-2.04,6.503-6.503,6.503h-0.773L41.042,181.88z"/>
			<path fill="#706F6F" d="M51.211,156.4h0.945c-0.149-0.354-0.293-0.95-0.293-1.42c0-1.891,1.243-2.568,2.369-2.568
				c0.819,0,1.56,0.384,2.239,1.148l-0.823,0.949c-0.57-0.471-1.067-0.859-1.416-0.859c-0.597,0-1.04,0.471-1.04,1.33
				c0,0.949,0.357,1.42,1.04,1.42h2.415l-0.683,1.271h-5.35L51.211,156.4z M57.687,176.292c-1.51-4.997-3.021-10.342-4.531-15.338
				l2.609-0.385l4.427,15.013c0.448-0.533,0.678-1.447,0.678-2.713v-12.852h2.605v13.321c0,3.636-1.592,5.526-5.001,5.526h-5.318
				l-1.293-2.573H57.687z"/>
			<path fill="#706F6F" d="M67.029,178.865v-18.848h2.627v18.848H67.029z"/>
			<path fill="#706F6F" d="M84.253,176.857c-0.683,0.117-1.239,0.172-1.863,0.172c-3.012,0-5.169-1.479-5.169-5.463
				c0-4.142,2.446-5.733,5.35-5.733c1.56,0,2.627,0.208,4.314,0.71v9.749h3.134l0.172,2.573h-5.938V176.857z M84.253,168.636
				c-0.47-0.118-0.796-0.118-1.239-0.118h-0.443c-1.452,0-2.568,0.742-2.568,3.048c0,2.18,1.004,2.776,2.388,2.776
				c0.597,0,1.212-0.086,1.863-0.239V168.636z"/>
			<path fill="#706F6F" d="M98.331,178.865c-1.456,0-2.994-0.271-4.5-1.095c-0.977,0.742-2.333,1.095-3.902,1.095l-0.177-2.573
				c2.338,0,3.103-1.153,3.103-3.423v-7.1h2.659v7.569c0,0.855-0.145,1.655-0.298,2.243c1.04,0.561,2.076,0.71,2.989,0.71h0.683
				l0.262,2.573H98.331z"/>
			<path fill="#706F6F" d="M98.615,176.292c2.342,0,3.197-1.153,3.197-3.423v-7.1h2.659v7.569c0,3.636-1.772,5.526-5.584,5.526
				L98.615,176.292z"/>
			<path fill="#706F6F" d="M111.53,178.865c-1.443,0-3.455-0.507-3.455-4.043v-14.805h2.664v14.619c0,1.506,0.534,1.655,1.09,1.655
				h2.989l0.262,2.573H111.53z"/>
			<path fill="#706F6F" d="M131.368,178.865c-1.126,0-2.252-0.208-3.401-0.593c-0.85,1.75-2.451,2.483-4.816,2.483
				c-1.388,0-2.984-0.529-3.957-1.597c-0.276-0.267-0.597-0.71-0.832-1.062c-0.832,0.588-1.917,0.769-3.545,0.769l-0.267-2.573
				c2.04,0,2.98-0.741,3.134-2.365c0.384-3.16,2.6-4.693,5.467-4.693c3.79,0,5.494,2.446,5.494,5.702v0.827
				c0.923,0.443,1.809,0.529,2.632,0.529h0.389c2.365,0,3.192-1.153,3.192-3.423v-12.852h2.654v13.321
				c0,3.636-1.741,5.526-5.553,5.526H131.368z M125.959,175.021c0-2.243-1.117-3.278-2.808-3.278c-1.388,0-2.541,0.827-2.754,2.36
				c0,0.213-0.054,0.33-0.054,0.443c-0.032,0.212-0.032,0.33-0.032,0.475c0,2.216,1.126,3.161,2.686,3.161h0.154
				C125.191,178.182,125.959,177.268,125.959,175.021z"/>
			<path fill="#706F6F" d="M138.87,156.4h0.949c-0.149-0.354-0.294-0.95-0.294-1.42c0-1.891,1.239-2.568,2.365-2.568
				c0.823,0,1.564,0.384,2.252,1.148l-0.836,0.949c-0.556-0.471-1.063-0.859-1.416-0.859c-0.588,0-1.04,0.471-1.04,1.33
				c0,0.949,0.366,1.42,1.04,1.42h2.424l-0.683,1.271h-5.349L138.87,156.4z M145.345,176.292c-1.51-4.997-3.011-10.342-4.522-15.338
				l2.609-0.385l4.432,15.013c0.443-0.533,0.683-1.447,0.683-2.713v-12.852h2.596v13.321c0,3.636-1.596,5.526-4.997,5.526h-5.323
				l-1.298-2.573H145.345z"/>
			<path fill="#706F6F" d="M154.688,178.865v-18.848h2.632v18.848H154.688z"/>
			<path fill="#706F6F" d="M172.653,176.857c-0.683,0.117-1.243,0.172-1.862,0.172c-3.017,0-5.178-1.479-5.178-5.463
				c0-4.142,2.45-5.733,5.349-5.733c1.574,0,2.632,0.208,4.319,0.71v9.749h3.134l0.176,2.573h-5.938V176.857z M172.653,168.636
				c-0.479-0.118-0.8-0.118-1.243-0.118h-0.448c-1.442,0-2.568,0.742-2.568,3.048c0,2.18,1.009,2.776,2.397,2.776
				c0.592,0,1.212-0.086,1.862-0.239V168.636z"/>
			<path fill="#706F6F" d="M178.062,176.292h5.676c-1.389-2.392-2.84-5.078-4.147-7.447c2.018-1.98,4.432-2.804,6.688-2.804
				c2.482,0,4.879,1.085,6.204,2.921l-3.667,7.33h5.264l0.267,2.573h-16.017L178.062,176.292z M183.425,170.39
				c0.299,0.588,2.854,5.544,2.854,5.544s2.438-5.019,2.677-5.634c0.24-0.615,0.158-0.932-0.253-1.135
				c-0.543-0.276-1.542-0.439-2.424-0.439c-0.832,0-1.772,0.113-2.487,0.452C183.294,169.422,183.127,169.793,183.425,170.39z"/>
			<path fill="#706F6F" d="M193.816,176.292h3.722c-0.471-0.827-0.769-1.831-0.769-3.224c0-3.926,2.388-5.671,5.525-5.671
				c3.78,0,5.499,2.333,5.499,5.671c0,4.024-1.863,5.797-5.499,5.797h-8.216L193.816,176.292z M205.104,173.13
				c0-2.215-1.153-3.256-2.809-3.256c-1.687,0-2.84,1.041-2.84,3.256c0,2.221,1.126,3.161,2.69,3.161h0.149
				C204.335,176.292,205.104,175.378,205.104,173.13z"/>
			<path fill="#706F6F" d="M214.5,178.865c-1.442,0-3.455-0.507-3.455-4.043v-14.805h2.659v14.619c0,1.506,0.538,1.655,1.095,1.655
				h2.984l0.271,2.573H214.5z"/>
			<path fill="#706F6F" d="M217.783,178.865l-0.263-2.573h11.409c-0.095-4.463-2.723-8.216-6.358-8.216
				c-1.271,0-2.604,0.442-4.052,1.42l1.447-3.111c1.307-0.471,2.46-0.696,3.433-0.696c4.232,0,7.244,3.481,7.859,8.446l0.298,2.157
				h3.048c2.216,0,3.012-1.153,3.012-3.423v-12.852h2.659v13.321c0,3.636-1.772,5.526-5.589,5.526H217.783z"/>
			<path fill="#706F6F" d="M243.612,178.865v-18.848h2.632v18.848H243.612z"/>
			<path fill="#706F6F" d="M226.298,183.744c0-0.872-0.705-1.587-1.587-1.587c-0.873,0-1.592,0.715-1.592,1.587
				c0,0.878,0.719,1.592,1.592,1.592C225.593,185.335,226.298,184.622,226.298,183.744"/>
			<path fill="#706F6F" d="M174.281,161.36c0-0.872-0.714-1.578-1.582-1.578c-0.882,0-1.597,0.706-1.597,1.578
				c0,0.878,0.715,1.597,1.597,1.597C173.567,162.957,174.281,162.238,174.281,161.36"/>
			<path fill="#706F6F" d="M170.501,161.36c0-0.872-0.71-1.578-1.587-1.578s-1.583,0.706-1.583,1.578
				c0,0.878,0.706,1.597,1.583,1.597S170.501,162.238,170.501,161.36"/>
			<path fill="#706F6F" d="M104.725,161.36c0-0.872-0.715-1.578-1.587-1.578c-0.882,0-1.592,0.706-1.592,1.578
				c0,0.878,0.71,1.597,1.592,1.597C104.01,162.957,104.725,162.238,104.725,161.36"/>
			<path fill="#706F6F" d="M85.823,161.36c0-0.872-0.71-1.578-1.583-1.578c-0.882,0-1.591,0.706-1.591,1.578
				c0,0.878,0.709,1.597,1.591,1.597C85.113,162.957,85.823,162.238,85.823,161.36"/>
			<path fill="#706F6F" d="M82.047,161.36c0-0.872-0.715-1.578-1.596-1.578c-0.873,0-1.574,0.706-1.574,1.578
				c0,0.878,0.701,1.597,1.574,1.597C81.332,162.957,82.047,162.238,82.047,161.36"/>
			<path fill="#706F6F" d="M95.608,183.604c0-0.882-0.715-1.592-1.592-1.592c-0.873,0-1.587,0.71-1.587,1.592
				c0,0.872,0.714,1.587,1.587,1.587C94.894,185.191,95.608,184.476,95.608,183.604"/>
			<path fill="#706F6F" d="M91.828,183.604c0-0.882-0.714-1.592-1.592-1.592c-0.873,0-1.583,0.71-1.583,1.592
				c0,0.872,0.71,1.587,1.583,1.587C91.113,185.191,91.828,184.476,91.828,183.604"/>
			<path fill="#706F6F" d="M8.655,161.36c0-0.872-0.715-1.578-1.587-1.578c-0.882,0-1.592,0.706-1.592,1.578
				c0,0.878,0.71,1.597,1.592,1.597C7.94,162.957,8.655,162.238,8.655,161.36"/>
			<path fill="#706F6F" d="M4.875,161.36c0-0.872-0.714-1.578-1.587-1.578c-0.877,0-1.592,0.706-1.592,1.578
				c0,0.878,0.714,1.597,1.592,1.597C4.16,162.957,4.875,162.238,4.875,161.36"/>
			<path fill="#706F6F" d="M18.436,183.604c0-0.882-0.714-1.592-1.587-1.592c-0.877,0-1.583,0.71-1.583,1.592
				c0,0.872,0.706,1.587,1.583,1.587C17.722,185.191,18.436,184.476,18.436,183.604"/>
			<path fill="#706F6F" d="M14.656,183.604c0-0.882-0.714-1.592-1.583-1.592c-0.873,0-1.592,0.71-1.592,1.592
				c0,0.872,0.719,1.587,1.592,1.587C13.941,185.191,14.656,184.476,14.656,183.604"/>
			<path fill="#706F6F" d="M27.439,161.36c0-0.872-0.714-1.578-1.583-1.578c-0.877,0-1.587,0.706-1.587,1.578
				c0,0.878,0.71,1.597,1.587,1.597C26.725,162.957,27.439,162.238,27.439,161.36"/>
		</g>
	</g>
</g>
</svg>
