<?xml version="1.0" encoding="UTF-8" standalone="no"?>
<svg
   width="540.39459"
   height="184.93376"
   viewBox="0 0 540.3946 184.93376"
   version="1.1"
   xmlns="http://www.w3.org/2000/svg"
   xmlns:svg="http://www.w3.org/2000/svg">
  <defs
     id="defs1">
    <style
       id="style1">
      .cls-1, .cls-2, .cls-3, .cls-4, .cls-5 {
        fill-rule: evenodd;
      }

      .cls-2 {
        fill: #333;
      }

      .cls-3 {
        fill: #323232;
      }

      .cls-4 {
        fill: #11a73b;
      }

      .cls-5 {
        fill: #005eae;
      }
    </style>
  </defs>
  <path
     class="cls-1"
     d="m 221.10202,70.840036 h 8.00219 v 8.033121 h -8.00219 z m -8.35637,8.033121 H 200.0873 v 7.599828 h 12.31103 c -0.59491,4.814372 -0.94567,6.805459 -1.20358,8.119094 h -8.77936 v 7.506981 h 6.63351 a 34.223302,34.223302 0 0 1 -9.38802,13.52838 l 4.2229,7.77521 a 43.425628,43.425628 0 0 0 3.43883,-3.57982 v 22.20112 h 8.17756 v -3.59701 h 21.78502 v -29.41582 h -22.30085 a 39.299025,39.299025 0 0 0 2.75107,-6.89831 h 19.54634 V 86.483302 h 3.78272 v -7.599829 h -3.78272 V 63.343372 h -34.8698 v 7.496664 h 10.31651 v 8.033121 z m 6.79858,15.718922 c 0.43331,-2.273071 0.68778,-4.539264 1.12451,-8.119094 h 8.43203 v 8.119094 z m 9.62874,35.973671 h -13.69 v -14.05109 h 13.69 v 14.05797 z m 13.68658,-47.847974 h 13.95136 v 11.520103 h -12.91283 v 8.208511 h 12.91283 v 11.43757 H 241.0576 v 8.55582 h 15.75331 v 19.58417 h 8.69338 V 122.4501 h 16.01123 v -8.55927 h -16.01123 v -11.43758 h 13.94104 V 94.248195 H 265.50429 V 82.728093 h 15.15152 v -8.469855 h -6.87767 c 1.46151,-3.411325 4.04749,-11.348159 4.56676,-13.009118 l -8.78278,-1.657519 c -1.11762,4.274475 -3.09495,10.478135 -4.56335,14.670076 h -7.15621 a 84.32715,84.32715 0 0 0 -4.12661,-14.150812 l -8.87219,1.141695 a 93.092745,93.092745 0 0 1 3.96497,13.009117 h -5.9423 v 8.466416 z m 81.98186,7.427887 h -23.16057 v -6.189905 h 23.16057 z m -31.682,-27.166808 v 47.607255 h 62.93071 a 74.495517,74.495517 0 0 1 -2.40718,19.4707 3.0949529,3.0949529 0 0 1 -3.18092,2.35216 l -12.48642,-0.43328 2.23868,9.51524 h 14.21959 c 2.40718,0 6.62319,-1.5681 8.08814,-8.55581 a 159.09777,159.09777 0 0 0 2.84736,-29.94884 h -32.37322 v -6.110814 h 26.51344 V 90.15598 h -26.51344 v -6.189905 h 26.51344 v -6.822653 h -26.51344 v -6.189905 h 30.12766 V 62.999488 H 293.1766 Z m 31.682,39.986795 h -23.16057 v -6.090184 h 23.16057 v 6.110814 z m 0,-25.84286 h -23.16057 v -6.189906 h 23.16057 z m -32.11529,37.10849 a 50.492438,50.492438 0 0 1 -6.36872,20.94938 l 7.40381,6.64041 c 5.42648,-7.68581 7.06681,-20.43701 7.56544,-26.28648 z m 12.83029,2.8783 a 89.973721,89.973721 0 0 1 1.63346,21.21763 l 9.21607,-0.60868 a 91.693139,91.693139 0 0 0 -2.32808,-20.60895 h -8.50425 z m 14.89361,-0.44017 a 103.1651,103.1651 0 0 1 4.39139,18.60068 l 8.86532,-1.83634 a 86.187562,86.187562 0 0 0 -5.07572,-17.53808 z m 15.84272,-0.95943 a 56.053035,56.053035 0 0 1 4.98975,13.00912 l 8.35638,-2.35905 a 71.328348,71.328348 0 0 0 -4.91066,-11.96027 z m 35.25495,16.34135 a 57.31165,57.31165 0 0 0 35.81205,-42.256428 h -34.09606 v -9.253909 h 34.95577 V 59.674134 h 9.55652 v 20.863421 h 35.73639 v 9.257347 h -34.09263 c 3.8687,20.247868 14.96581,36.410398 36.15593,42.256428 l -6.10737,9.60467 c -22.37994,-10.13082 -31.08021,-23.31531 -35.81548,-39.02736 h -0.17539 c -5.93543,15.54011 -17.8166,31.86769 -35.89457,38.51498 m 94.80872,-67.318675 a 77.329118,77.329118 0 0 0 -5.15826,-10.732608 l 8.34607,-3.139658 a 52.717365,52.717365 0 0 1 6.4547,13.088213 l -1.98078,0.61555 v 0.171942 h 17.21826 a 69.326945,69.326945 0 0 0 -5.84602,-11.25875 l 8.52143,-3.318478 a 71.142651,71.142651 0 0 1 6.53379,13.617794 l -2.84048,0.787492 v 0.171942 h 13.94792 a 100.62379,100.62379 0 0 0 5.67753,-14.312437 l 9.90385,2.964277 a 87.982635,87.982635 0 0 1 -5.68441,11.34816 h 10.9355 v 19.983079 h -8.69681 V 82.119418 h -59.83577 v 11.692045 h -8.69336 V 73.818067 m 64.99401,14.845459 v 7.245627 a 92.236476,92.236476 0 0 1 -21.95011,13.971987 v 0.68777 h 36.15594 v 8.55583 h -36.15594 v 15.62608 a 7.3075278,7.3075278 0 0 1 -7.05304,7.27313 h -16.87437 l -1.64377,-9.28487 h 13.86195 c 2.40718,0 2.40718,-1.2242 2.40718,-2.79232 v -10.8117 h -36.06651 v -8.55583 h 36.06996 v -6.81234 h 3.78272 a 38.263934,38.263934 0 0 0 12.72369,-6.898301 h -38.30863 v -8.205063 h 53.03029 z"
     style="stroke-width:3.43884" />
  <path
     class="cls-2"
     d="m 224.14196,166.18865 h -8.82405 v 3.43884 h 4.76622 v 5.91136 c -0.37139,0.031 -0.71183,0.031 -0.99038,0.031 -5.32331,0 -9.3777,-2.10457 -9.3777,-8.45266 a 7.658289,7.658289 0 0 1 8.35637,-8.23602 19.780188,19.780188 0 0 1 4.55302,0.4333 v -3.71394 a 23.040205,23.040205 0 0 0 -4.95537,-0.40235 11.578563,11.578563 0 0 0 -12.3523,12.3523 c 0,8.23602 5.5434,11.60951 12.81654,11.60951 a 44.904328,44.904328 0 0 0 6.00765,-0.49519 z m 20.33041,2.97117 c 0,4.39484 -1.79508,6.44093 -5.19952,6.44093 -3.99249,0 -5.50215,-2.47596 -5.50215,-6.44093 v -13.62124 h -4.12659 v 14.58066 a 8.459538,8.459538 0 0 0 9.35019,9.13356 8.8893926,8.8893926 0 0 0 9.65969,-9.13356 v -14.58066 h -4.15068 v 13.62124 z m 14.44311,9.65968 v -17.21138 l 11.7849,17.21138 h 3.56263 v -23.28092 h -3.99592 v 15.5401 l -10.58819,-15.5401 h -4.73528 v 23.28092 h 3.99249 z m 24.57392,0 1.20704,-18.56972 5.9148,17.61718 h 3.68299 l 6.1005,-17.58622 1.19672,18.53876 h 4.05094 l -1.51652,-23.28092 h -5.94232 l -5.60874,16.25195 -5.38521,-16.25195 h -6.03173 l -1.51652,23.28092 h 3.86869 z m 29.03067,0 1.91887,-5.5434 h 9.13355 l 1.97045,5.5434 h 4.51518 l -8.7312,-23.28092 h -4.30542 l -8.72089,23.28092 h 4.24009 z m 6.44093,-18.56972 3.37351,9.50496 h -6.68855 z m 37.72748,8.91691 c 0,4.39483 -1.79507,6.44095 -5.19953,6.44095 -3.99593,0 -5.50212,-2.47596 -5.50212,-6.44095 v -13.62811 h -4.14725 v 14.58066 a 8.459538,8.459538 0 0 0 9.35019,9.13356 8.8859538,8.8859538 0 0 0 9.65626,-9.13356 v -14.58066 h -4.13692 v 13.62124 z m 14.44312,9.6597 v -17.21827 l 11.79176,17.21138 h 3.5592 v -23.28092 h -3.99248 v 15.5401 l -10.58819,-15.5401 h -4.73528 v 23.28092 h 3.99249 z m 26.70943,0 v -23.28781 h -4.16442 v 23.28092 h 4.20913 z m 17.73753,0 7.86117,-23.28094 h -4.27103 l -6.00765,18.39089 -5.81851,-18.39089 h -4.42922 l 7.73738,23.27405 h 4.95537 z m 26.77134,0 v -3.72083 h -10.12394 v -6.68853 h 8.51456 v -3.49729 h -8.51456 v -5.82197 h 9.87634 v -3.55919 h -13.99263 v 23.28092 h 14.24023 z m 10.148,0 v -9.01664 h 2.84736 l 5.84603,9.00975 h 5.04476 l -7.05992,-10.49533 a 6.564739,6.564739 0 0 0 4.55302,-6.59569 c 0,-4.05438 -2.72356,-6.1899 -7.22157,-6.1899 h -8.0503 v 23.28092 h 4.05782 z m 2.90926,-19.72174 a 3.345988,3.345988 0 0 1 3.9306,3.43884 3.8962018,3.8962018 0 0 1 -4.58054,3.86869 h -2.25932 v -7.31441 h 2.90926 z m 13.11917,19.19559 a 17.338614,17.338614 0 0 0 5.6672,0.92849 c 5.57091,0 8.59709,-2.81641 8.59709,-7.27657 0,-3.03306 -1.71942,-4.73528 -5.45056,-6.50286 l -1.67128,-0.77373 a 3.4388366,3.4388366 0 0 1 -2.84734,-3.2497 c 0,-1.60938 1.39272,-2.50691 3.86868,-2.50691 a 14.463747,14.463747 0 0 1 5.15826,0.99039 v -3.96842 a 19.659828,19.659828 0 0 0 -5.15826,-0.74279 c -5.19953,0 -8.08127,2.90925 -8.08127,6.75043 a 6.4443798,6.4443798 0 0 0 4.73871,6.3481 l 1.57843,0.74279 c 2.94021,1.39273 3.43884,2.19742 3.43884,3.80679 0,1.51652 -1.14512,2.66166 -3.93058,2.66166 a 16.217553,16.217553 0 0 1 -5.9148,-1.14514 v 3.93059 z m 24.29537,0.51926 v -23.28092 h -4.21258 v 23.28092 z m 16.52704,0 v -19.72173 h 7.43821 v -3.55919 h -19.01676 v 3.55919 h 7.36942 v 19.72173 z m 20.33385,0 v -9.07165 l 7.58607,-14.20927 h -4.31917 l -5.19953,10.46439 -5.22015,-10.46439 h -4.58053 l 7.56544,14.24023 v 9.04069 h 4.17819 z"
     style="stroke-width:3.43884" />
  <path
     class="cls-3"
     d="m 221.27054,18.542208 v 4.288229 h -3.54544 a 19.257485,19.257485 0 0 1 -3.54889,-0.20633 v 4.081899 a 20.141265,20.141265 0 0 1 3.54889,-0.20633 h 3.54544 v 5.240787 h -4.9485 a 20.481711,20.481711 0 0 1 -3.91683,-0.247596 v 4.271035 a 24.353841,24.353841 0 0 1 3.91683,-0.206331 h 14.93143 a 26.437775,26.437775 0 0 1 3.87557,0.206331 v -4.271035 a 21.183233,21.183233 0 0 1 -4.04064,0.247596 l 2.22494,-1.237981 a 20.337279,20.337279 0 0 0 -2.59632,-3.999368 16.733379,16.733379 0 0 1 2.63759,0.206331 v -4.085338 a 18.978939,18.978939 0 0 1 -3.54546,0.20633 h -4.25039 v -4.288229 h 5.24079 a 23.889597,23.889597 0 0 1 3.8343,0.206331 v -4.16787 a 23.012694,23.012694 0 0 1 -3.8343,0.206329 h -14.02358 a 22.531257,22.531257 0 0 1 -3.75521,-0.206329 v 4.16443 a 23.095227,23.095227 0 0 1 3.75521,-0.206329 h 4.49457 z m 4.28822,7.960906 h 4.04408 l -2.18711,1.114183 a 18.112352,18.112352 0 0 1 2.59976,4.126605 h -4.47048 v -5.244226 z m -19.42254,12.744329 a 39.030795,39.030795 0 0 1 -0.2476,5.361146 h 4.70089 v -2.352164 h 26.35523 v 2.352164 h 4.7009 a 33.260427,33.260427 0 0 1 -0.2476,-5.31988 V 12.809667 a 42.479948,42.479948 0 0 1 0.2476,-4.9484847 42.366467,42.366467 0 0 1 -4.86595,0.2063301 h -26.02511 a 38.535603,38.535603 0 0 1 -4.86596,-0.2063301 49.285406,49.285406 0 0 1 0.2476,4.9897517 z m 4.47049,-27.16681 h 26.35523 V 38.270814 H 210.60671 V 12.066878 Z m 69.56766,0.687768 h -9.40179 a 34.006655,34.006655 0 0 1 -5.19952,-0.288861 v 4.948485 a 44.646415,44.646415 0 0 1 5.18233,-0.233841 h 23.96181 a 46.475876,46.475876 0 0 1 5.31989,0.247596 v -4.96224 a 36.186877,36.186877 0 0 1 -5.31989,0.288861 h -9.94167 V 9.9726274 a 15.402549,15.402549 0 0 1 0.28886,-3.1740456 h -5.19608 a 16.661163,16.661163 0 0 1 0.28887,3.2153112 v 2.75107 z M 269.45206,38.13326 a 47.187716,47.187716 0 0 1 -5.36113,-0.247596 v 4.948486 a 37.947562,37.947562 0 0 1 5.36113,-0.288863 h 26.89171 a 36.874644,36.874644 0 0 1 5.23735,0.288863 v -4.948486 a 45.90503,45.90503 0 0 1 -5.23735,0.247596 h -7.42445 a 125.32496,125.32496 0 0 0 5.27862,-14.271171 22.008554,22.008554 0 0 1 1.40305,-3.958101 l -5.31989,-1.526845 a 86.851257,86.851257 0 0 1 -6.1899,19.756117 z m 0.94914,-17.816613 a 83.109803,83.109803 0 0 1 4.53582,16.128144 l 4.61836,-1.650641 a 126.81398,126.81398 0 0 0 -4.70089,-16.042173 z m 84.45783,0.660258 a 36.716458,36.716458 0 0 1 5.15825,0.288861 v -5.240787 a 34.340222,34.340222 0 0 1 -5.19609,0.288864 h -10.93205 c 0.0413,-1.526845 0.0827,-2.475963 0.0827,-4.164432 a 30.708811,30.708811 0 0 1 0.28886,-4.8143708 h -5.44367 a 27.541642,27.541642 0 0 1 0.2888,4.1266028 c 0,2.145834 -0.0413,2.806091 -0.12379,4.865955 H 328.8787 a 32.538272,32.538272 0 0 1 -5.19609,-0.288864 v 5.237349 a 31.293413,31.293413 0 0 1 5.15825,-0.288862 h 9.73192 a 20.976903,20.976903 0 0 1 -9.28486,15.55042 29.67716,29.67716 0 0 1 -6.68166,3.504174 16.162533,16.162533 0 0 1 2.88519,4.329495 30.571257,30.571257 0 0 0 9.85914,-6.47533 24.952198,24.952198 0 0 0 6.72293,-11.052421 30.884191,30.884191 0 0 0 6.22773,9.972626 33.453002,33.453002 0 0 0 10.18583,7.548246 16.980975,16.980975 0 0 1 3.01242,-4.742154 28.349769,28.349769 0 0 1 -17.34206,-18.645372 h 10.68448 z m 43.87267,12.331668 v 6.100495 c 0,0.82532 -0.28887,0.949118 -2.10458,0.949118 a 37.552096,37.552096 0 0 1 -5.11355,-0.412659 15.646707,15.646707 0 0 1 1.37553,4.37076 c 2.14585,0.123798 3.50419,0.165066 4.04064,0.165066 3.71394,0 5.117,-0.343884 5.81508,-1.375535 a 3.9787338,3.9787338 0 0 0 0.53645,-2.599762 v -7.221555 h 10.68447 a 40.822429,40.822429 0 0 1 5.11355,0.247596 v -4.556459 a 34.02385,34.02385 0 0 1 -5.07228,0.288863 h -10.767 v -0.03438 a 57.744944,57.744944 0 0 0 8.25321,-6.021403 c 0.78405,-0.660256 0.78405,-0.660256 1.48557,-1.237981 l -2.26963,-2.517228 a 18.628178,18.628178 0 0 1 -3.13277,0.165064 H 393.9242 a 30.093259,30.093259 0 0 1 -4.16787,-0.20633 v 4.126601 a 40.990932,40.990932 0 0 1 4.12661,-0.165065 h 11.34816 a 21.915706,21.915706 0 0 1 -4.86596,3.33911 h -1.77443 a 19.284996,19.284996 0 0 1 0.12379,2.269633 v 0.281985 h -11.22779 a 34.986723,34.986723 0 0 1 -4.98976,-0.288864 v 4.577093 a 40.182805,40.182805 0 0 1 5.03103,-0.247597 h 11.1762 z M 387.72743,12.933466 a 39.677296,39.677296 0 0 1 -4.86597,-0.165065 27.087716,27.087716 0 0 1 0.16507,3.438837 v 3.782721 a 18.074525,18.074525 0 0 1 -0.20634,3.177484 h 4.49456 v -6.399676 h 26.89171 v 6.392798 h 4.49456 a 24.986586,24.986586 0 0 1 -0.20633,-3.136218 v -3.834303 a 25.866929,25.866929 0 0 1 0.16506,-3.438836 49.763404,49.763404 0 0 1 -5.07228,0.165063 h -1.85697 a 42.744739,42.744739 0 0 0 3.09495,-4.9484848 L 410.37216,6.729805 a 27.304362,27.304362 0 0 1 -3.38038,6.189904 h -3.50761 a 32.792745,32.792745 0 0 0 -2.84392,-6.3927953 l -4.29167,1.196715 a 24.113121,24.113121 0 0 1 2.51723,5.1960803 h -4.39828 a 30.409632,30.409632 0 0 0 -3.75521,-5.8976029 l -4.16441,1.2379812 a 23.707339,23.707339 0 0 1 3.09495,4.6596217 h -1.93606 z m 63.72163,30.437142 c 1.32052,-0.247596 2.18709,-0.371394 6.68166,-0.825321 a 136.14697,136.14697 0 0 0 14.93144,-2.145833 c 0.65681,1.279247 0.94566,1.898237 1.89479,3.78272 l 4.04407,-2.434697 a 89.61952,89.61952 0 0 0 -8.33231,-12.703062 l -3.66234,1.905115 a 52.958083,52.958083 0 0 1 4.04061,5.846023 99.014421,99.014421 0 0 1 -10.96987,1.375534 l 0.37139,-0.784055 a 83.182018,83.182018 0 0 0 3.62796,-8.002172 c 0.57773,-1.526843 0.57773,-1.526843 0.82533,-2.269632 h 9.69064 a 32.548588,32.548588 0 0 1 4.29166,0.247596 v -4.614919 a 32.834012,32.834012 0 0 1 -4.33293,0.247596 h -7.90932 v -6.189906 h 6.64041 a 28.308503,28.308503 0 0 1 4.16441,0.20633 V 12.47954 a 29.945389,29.945389 0 0 1 -4.20568,0.247596 h -6.59914 V 10.91143 a 23.800188,23.800188 0 0 1 0.2476,-4.329495 h -4.9932 a 22.225201,22.225201 0 0 1 0.2476,4.329495 v 1.812266 h -4.90722 a 29.659966,29.659966 0 0 1 -4.37076,-0.247597 v 4.535826 c 1.32051,-0.123798 2.72012,-0.20633 4.32949,-0.20633 h 4.94849 v 6.189906 h -6.43406 a 32.486689,32.486689 0 0 1 -4.49455,-0.247596 v 4.618358 a 35.70888,35.70888 0 0 1 4.47048,-0.247597 h 4.47049 a 62.449272,62.449272 0 0 1 -5.11699,11.382549 c -1.39961,0.08254 -2.38999,0.123798 -3.05025,0.123798 -0.41266,0 -0.7428,0 -1.40304,-0.04127 z m -8.94097,-33.356715 a 41.91254,41.91254 0 0 1 7.09431,5.691274 l 2.8061,-3.586706 a 43.353413,43.353413 0 0 0 -7.09433,-5.2786132 z m -1.77101,10.185835 a 42.620941,42.620941 0 0 1 7.34192,5.502138 l 2.59633,-3.751771 a 50.918853,50.918853 0 0 0 -7.38319,-5.031017 z m 6.22773,8.208501 a 49.725577,49.725577 0 0 1 -6.06267,12.379812 l 3.95811,3.462909 a 8.291035,8.291035 0 0 0 0.49519,-1.031651 c 0.53646,-1.279247 0.53646,-1.279247 1.27925,-2.80609 1.65064,-3.438837 2.55505,-5.608743 3.99937,-9.405218 z M 516.08542,7.1665373 a 26.960479,26.960479 0 0 1 0.16508,3.4629077 31.781727,31.781727 0 0 1 -7.54824,22.765099 27.479742,27.479742 0 0 1 -8.98913,6.877672 12.32823,12.32823 0 0 1 3.21532,4.246964 34.653156,34.653156 0 0 0 6.3928,-4.742157 28.697091,28.697091 0 0 0 6.35152,-7.909323 29.501779,29.501779 0 0 0 3.21876,-8.332302 32.531394,32.531394 0 0 0 5.48494,11.258752 40.127784,40.127784 0 0 0 10.47469,9.731906 15.347528,15.347528 0 0 1 3.21876,-4.577091 27.390333,27.390333 0 0 1 -6.39281,-4.470487 27.57603,27.57603 0 0 1 -6.51659,-7.837109 29.594627,29.594627 0 0 1 -4.04407,-16.248502 27.266535,27.266535 0 0 1 0.28886,-4.2469628 h -5.31989 z"
     style="stroke-width:3.43884" />
  <g
     transform="matrix(3.4388366,0,0,3.4388366,-0.04954552,1.4985669e-6)">
    <path
       class="cls-4"
       d="m 70.442,62.577 c 0,0 -14.864,-4.95 -9.258,-19.931 5.606,-14.981 24.122,-15.5 24.122,-15.5 0,0 -12.386,6.382 -10.691,18.236 1.695,11.854 18.385,13.027 23.6,10.16 0,0 8.474,-3.648 4.824,-11.462 0,0 -2.586,-4.639 -7.693,-2.736 -4.481,1.67 -5.086,7.294 -3.259,10.421 0,0 -6.651,1.172 -7.954,-6.122 0,0 -1.043,-5.08 4.564,-9.378 5.607,-4.298 11.6,-3.257 13.821,-1.694 2.221,1.563 8.605,6.644 6,18.628 C 105.913,65.183 93.988,69.252 90.261,70 a 52.122,52.122 0 0 1 -14.082,0.522 c -5.607,-0.652 -10.822,3.256 -10.822,3.256 0,0 -0.522,-5.341 5.085,-11.2"
       transform="translate(-59.906,-20)" />
    <path
       class="cls-5"
       d="M 96.058,24.586 A 4.591,4.591 0 1 1 91.466,20 a 4.59,4.59 0 0 1 4.592,4.589"
       transform="translate(-59.906,-20)" />
  </g>
</svg>
