<?xml version="1.0" encoding="UTF-8" standalone="no"?>
<!DOCTYPE svg PUBLIC "-//W3C//DTD SVG 1.1//EN" "http://www.w3.org/Graphics/SVG/1.1/DTD/svg11.dtd">
<svg width="100%" height="100%" viewBox="0 0 521 445" version="1.1" xmlns="http://www.w3.org/2000/svg" xmlns:xlink="http://www.w3.org/1999/xlink" xml:space="preserve" xmlns:serif="http://www.serif.com/" style="fill-rule:evenodd;clip-rule:evenodd;stroke-linejoin:round;stroke-miterlimit:2;">
    <g id="アートボード1" transform="matrix(0.867947,0,0,0.799827,-537.037,-800.861)">
        <rect x="618.745" y="1001.29" width="600.156" height="555.973" style="fill:none;"/>
        <g transform="matrix(4.8006,0,0,5.20946,-243.889,-1868.68)">
            <path d="M182.712,589L182.712,552.36L186.571,552.36C191.255,552.36 191.793,553.151 191.793,556.989L191.793,595.156L187.95,595.156C182.425,595.156 182.712,592.737 182.712,589" style="fill:rgb(0,95,164);fill-rule:nonzero;"/>
        </g>
        <g transform="matrix(4.8006,0,0,5.20946,-243.889,-1869.28)">
            <path d="M282.291,594.704C297.75,593.924 299.332,582.569 299.332,576.736L299.332,552.869L296.38,552.869C292.581,552.869 291.51,552.857 291.51,556.44L291.51,575.834C291.51,579.87 291.082,586.541 282.018,587.683C281.21,587.784 280.594,587.763 279.827,587.683C270.954,586.789 270.34,580.387 270.34,575.834L270.34,556.44C270.34,552.857 269.202,552.869 265.395,552.869L262.511,552.869L262.511,576.714C262.511,585.798 266.112,593.863 279.554,594.692C280.934,594.774 281.229,594.76 282.291,594.704" style="fill:rgb(0,95,164);fill-rule:nonzero;"/>
        </g>
        <g transform="matrix(4.8006,0,0,5.20946,-243.889,-1879.2)">
            <path d="M206.99,574.412C206.784,581.909 209.36,587.969 214.42,591.859C218.692,595.145 223.737,596.412 228.82,596.391C231.374,596.371 236.878,595.802 241.622,592.43C244.592,590.313 247.109,587.785 249.441,583.842C249.441,583.842 247.613,582.627 246.432,581.874C244.184,580.436 242.931,581.516 241.713,582.873C237.965,587.056 234.45,589.46 228.686,589.387C224.44,589.338 220.781,587.557 218.491,584.96C216.377,582.548 215.043,578.943 215.129,574.761C215.173,572.311 215.896,567.882 219.28,564.585C221.789,562.14 225.216,560.859 229.343,560.948C232.125,561.017 235.346,561.736 239.107,564.31C240.506,565.273 241.782,565.564 243.39,564.874C245.096,564.138 247.261,563.139 247.261,563.139C245.548,560.896 241.122,554.928 230.627,554.082C218.709,553.122 207.356,560.823 206.99,574.412" style="fill:rgb(0,95,164);fill-rule:nonzero;"/>
        </g>
        <g transform="matrix(4.8006,0,0,5.20946,-243.889,-1334.49)">
            <rect x="188.081" y="522.463" width="0.073" height="0.047" style="fill:rgb(35,31,32);"/>
        </g>
        <g transform="matrix(4.8006,0,0,5.20946,-243.889,-1339.77)">
            <rect x="188.081" y="522.969" width="0.073" height="0.049" style="fill:rgb(35,31,32);"/>
        </g>
        <g transform="matrix(4.8006,0,0,5.20946,-243.889,-1258.18)">
            <path d="M183.467,513.108L182.921,513.108L182.921,516.989C182.921,517.099 182.98,517.218 183.154,517.218L183.692,517.218L183.692,513.333C183.692,513.14 183.528,513.108 183.467,513.108" style="fill:rgb(35,31,32);fill-rule:nonzero;"/>
        </g>
        <g transform="matrix(4.8006,0,0,5.20946,-243.889,-1258.18)">
            <path d="M211.77,513.108L211.225,513.108L211.225,516.989C211.225,517.099 211.283,517.218 211.458,517.218L211.996,517.218L211.996,513.333C211.996,513.14 211.83,513.108 211.77,513.108" style="fill:rgb(35,31,32);fill-rule:nonzero;"/>
        </g>
        <g transform="matrix(4.8006,0,0,5.20946,-243.889,-1258.18)">
            <path d="M244.052,513.108L243.506,513.108L243.506,516.989C243.506,517.099 243.566,517.218 243.74,517.218L244.277,517.218L244.277,513.333C244.277,513.14 244.111,513.108 244.052,513.108" style="fill:rgb(35,31,32);fill-rule:nonzero;"/>
        </g>
        <g transform="matrix(4.8006,0,0,5.20946,-243.889,-1258.18)">
            <path d="M253.195,513.108L252.647,513.108L252.647,516.989C252.647,517.099 252.708,517.218 252.881,517.218L253.417,517.218L253.417,513.333C253.417,513.14 253.253,513.108 253.195,513.108" style="fill:rgb(35,31,32);fill-rule:nonzero;"/>
        </g>
        <g transform="matrix(4.8006,0,0,5.20946,-243.889,-1258.18)">
            <path d="M290.513,513.108L289.965,513.108L289.965,516.989C289.965,517.099 290.026,517.218 290.201,517.218L290.737,517.218L290.737,513.333C290.737,513.14 290.572,513.108 290.513,513.108" style="fill:rgb(35,31,32);fill-rule:nonzero;"/>
        </g>
        <g transform="matrix(4.8006,0,0,5.20946,-243.889,-1258.18)">
            <path d="M273.843,513.108L273.296,513.108L273.296,516.989C273.296,517.099 273.356,517.218 273.531,517.218L274.068,517.218L274.068,513.333C274.068,513.14 273.902,513.108 273.843,513.108" style="fill:rgb(35,31,32);fill-rule:nonzero;"/>
        </g>
        <g transform="matrix(4.8006,0,0,5.20946,-243.889,-1258.18)">
            <path d="M196.549,513.762L197.594,513.762C197.856,513.762 198.255,513.742 198.255,514.281C198.255,514.811 197.802,514.794 197.613,514.794L196.549,514.794L196.549,513.762ZM199.018,514.305C199.018,513.172 198.229,513.107 197.787,513.107L195.814,513.107L195.814,516.988C195.814,517.098 195.872,517.218 196.048,517.218L196.549,517.218L196.549,515.457L197.494,515.457C197.733,515.898 198.3,516.954 198.364,517.072C198.447,517.218 198.53,517.214 198.6,517.214L199.241,517.214L198.248,515.357C198.635,515.231 199.018,514.949 199.018,514.305" style="fill:rgb(35,31,32);fill-rule:nonzero;"/>
        </g>
        <g transform="matrix(4.8006,0,0,5.20946,-243.889,-1258.24)">
            <path d="M187.034,515.909C187.034,515.909 185.585,513.412 185.508,513.279C185.448,513.177 185.342,513.119 185.252,513.119L184.529,513.119L184.529,517.224L185.262,517.224L185.262,514.325C185.262,514.325 186.792,516.928 186.863,517.046C186.917,517.139 186.991,517.217 187.137,517.217L187.756,517.217L187.756,513.113L187.034,513.113L187.034,515.909Z" style="fill:rgb(35,31,32);fill-rule:nonzero;"/>
        </g>
        <g transform="matrix(4.8006,0,0,5.20946,-243.889,-1258.24)">
            <path d="M202.193,515.909C202.193,515.909 200.746,513.412 200.668,513.279C200.608,513.177 200.503,513.119 200.412,513.119L199.69,513.119L199.69,517.224L200.423,517.224L200.423,514.325C200.423,514.325 201.951,516.928 202.022,517.046C202.077,517.139 202.149,517.217 202.297,517.217L202.916,517.217L202.916,513.113L202.193,513.113L202.193,515.909Z" style="fill:rgb(35,31,32);fill-rule:nonzero;"/>
        </g>
        <g transform="matrix(4.8006,0,0,5.20946,-243.889,-1258.24)">
            <path d="M219.996,515.909C219.996,515.909 218.548,513.412 218.472,513.279C218.413,513.177 218.308,513.119 218.215,513.119L217.492,513.119L217.492,517.224L218.227,517.224L218.227,514.325C218.227,514.325 219.757,516.928 219.826,517.046C219.882,517.139 219.954,517.217 220.102,517.217L220.719,517.217L220.719,513.113L219.996,513.113L219.996,515.909Z" style="fill:rgb(35,31,32);fill-rule:nonzero;"/>
        </g>
        <g transform="matrix(4.8006,0,0,5.20946,-243.889,-1258.24)">
            <path d="M261.012,515.909C261.012,515.909 259.565,513.412 259.488,513.279C259.428,513.177 259.322,513.119 259.231,513.119L258.509,513.119L258.509,517.224L259.24,517.224L259.24,514.325C259.24,514.325 260.772,516.928 260.842,517.046C260.897,517.139 260.969,517.217 261.118,517.217L261.734,517.217L261.734,513.113L261.012,513.113L261.012,515.909Z" style="fill:rgb(35,31,32);fill-rule:nonzero;"/>
        </g>
        <g transform="matrix(4.8006,0,0,5.20946,-243.889,-1258.24)">
            <path d="M271.754,515.909C271.754,515.909 270.305,513.412 270.227,513.279C270.168,513.177 270.063,513.119 269.973,513.119L269.25,513.119L269.25,517.224L269.984,517.224L269.984,514.325C269.984,514.325 271.513,516.928 271.583,517.046C271.638,517.139 271.711,517.217 271.859,517.217L272.477,517.217L272.477,513.113L271.754,513.113L271.754,515.909Z" style="fill:rgb(35,31,32);fill-rule:nonzero;"/>
        </g>
        <g transform="matrix(4.8006,0,0,5.20946,-243.889,-1258.18)">
            <path d="M188.3,513.778L189.684,513.778L189.684,516.989C189.684,517.098 189.744,517.217 189.919,517.217L190.418,517.217L190.418,513.778L191.805,513.778L191.805,513.107L188.3,513.107L188.3,513.778Z" style="fill:rgb(35,31,32);fill-rule:nonzero;"/>
        </g>
        <g transform="matrix(4.8006,0,0,5.20946,-243.889,-1258.18)">
            <path d="M207.083,513.778L208.469,513.778L208.469,516.989C208.469,517.098 208.526,517.217 208.702,517.217L209.202,517.217L209.202,513.778L210.59,513.778L210.59,513.107L207.083,513.107L207.083,513.778Z" style="fill:rgb(35,31,32);fill-rule:nonzero;"/>
        </g>
        <g transform="matrix(4.8006,0,0,5.20946,-243.889,-1258.18)">
            <path d="M248.564,513.778L249.946,513.778L249.946,516.989C249.946,517.098 250.006,517.217 250.182,517.217L250.682,517.217L250.682,513.778L252.069,513.778L252.069,513.107L248.564,513.107L248.564,513.778Z" style="fill:rgb(35,31,32);fill-rule:nonzero;"/>
        </g>
        <g transform="matrix(4.8006,0,0,5.20946,-243.889,-1258.18)">
            <path d="M291.261,513.778L292.643,513.778L292.643,516.989C292.643,517.098 292.703,517.217 292.877,517.217L293.377,517.217L293.377,513.778L294.765,513.778L294.765,513.107L291.261,513.107L291.261,513.778Z" style="fill:rgb(35,31,32);fill-rule:nonzero;"/>
        </g>
        <g transform="matrix(4.8006,0,0,5.20946,-243.889,-1258.17)">
            <path d="M192.332,513.342L192.332,516.977C192.332,517.149 192.478,517.216 192.576,517.216L195.134,517.216L195.134,516.554L193.06,516.554L193.06,515.43L195.005,515.43L195.005,514.769L193.06,514.769L193.06,513.766L195.134,513.766L195.134,513.106L192.576,513.106C192.478,513.106 192.332,513.172 192.332,513.342" style="fill:rgb(35,31,32);fill-rule:nonzero;"/>
        </g>
        <g transform="matrix(4.8006,0,0,5.20946,-243.889,-1258.18)">
            <path d="M226.414,513.108L225.685,513.108L225.685,516.981C225.685,517.152 225.832,517.218 225.93,517.218L228.591,517.218L228.591,516.558L226.414,516.558L226.414,513.108Z" style="fill:rgb(35,31,32);fill-rule:nonzero;"/>
        </g>
        <g transform="matrix(4.8006,0,0,5.20946,-243.889,-1258.17)">
            <path d="M278.825,513.342L278.825,516.977C278.825,517.149 278.97,517.216 279.069,517.216L281.627,517.216L281.627,516.554L279.552,516.554L279.552,515.43L281.499,515.43L281.499,514.769L279.552,514.769L279.552,513.766L281.627,513.766L281.627,513.106L279.069,513.106C278.97,513.106 278.825,513.172 278.825,513.342" style="fill:rgb(35,31,32);fill-rule:nonzero;"/>
        </g>
        <g transform="matrix(4.8006,0,0,5.20946,-243.889,-1258.18)">
            <path d="M240.285,513.762L241.33,513.762C241.592,513.762 241.99,513.742 241.99,514.281C241.99,514.811 241.537,514.794 241.349,514.794L240.285,514.794L240.285,513.762ZM242.755,514.305C242.755,513.172 241.965,513.107 241.523,513.107L239.552,513.107L239.552,516.988C239.552,517.098 239.61,517.218 239.785,517.218L240.285,517.218L240.285,515.457L241.232,515.457C241.469,515.898 242.037,516.954 242.099,517.072C242.184,517.218 242.266,517.214 242.336,517.214L242.977,517.214L241.984,515.357C242.373,515.231 242.755,514.949 242.755,514.305" style="fill:rgb(35,31,32);fill-rule:nonzero;"/>
        </g>
        <g transform="matrix(4.8006,0,0,5.20946,-243.889,-1258.18)">
            <path d="M283.04,513.762L284.086,513.762C284.347,513.762 284.747,513.742 284.747,514.281C284.747,514.811 284.295,514.794 284.104,514.794L283.04,514.794L283.04,513.762ZM285.511,514.305C285.511,513.172 284.721,513.107 284.279,513.107L282.306,513.107L282.306,516.988C282.306,517.098 282.366,517.218 282.541,517.218L283.04,517.218L283.04,515.457L283.989,515.457C284.224,515.898 284.79,516.954 284.855,517.072C284.94,517.218 285.022,517.214 285.091,517.214L285.733,517.214L284.739,515.357C285.129,515.231 285.511,514.949 285.511,514.305" style="fill:rgb(35,31,32);fill-rule:nonzero;"/>
        </g>
        <g transform="matrix(4.8006,0,0,5.20946,-243.889,-1258.18)">
            <path d="M277.603,513.26C277.503,513.505 276.45,516.289 276.45,516.289C276.45,516.289 275.4,513.496 275.309,513.26C275.251,513.111 275.162,513.118 275.093,513.118L274.458,513.118C274.523,513.287 275.848,516.795 275.917,516.967C275.984,517.138 276.092,517.214 276.282,517.214L276.851,517.214L278.443,513.118L277.819,513.118C277.75,513.118 277.663,513.112 277.603,513.26" style="fill:rgb(35,31,32);fill-rule:nonzero;"/>
        </g>
        <g transform="matrix(4.8006,0,0,5.20946,-243.889,-1258.12)">
            <path d="M298.783,513.107L298.169,513.107C298.028,513.107 297.972,513.169 297.917,513.255C297.837,513.385 297.159,514.487 296.899,514.907C296.64,514.487 295.962,513.385 295.883,513.255C295.83,513.169 295.773,513.107 295.629,513.107L295.014,513.107L296.514,515.604L296.514,516.993C296.514,517.152 296.661,517.206 296.734,517.206L297.255,517.206L297.255,515.652L298.783,513.107Z" style="fill:rgb(35,31,32);fill-rule:nonzero;"/>
        </g>
        <g transform="matrix(4.8006,0,0,5.20946,-243.889,-1258.12)">
            <path d="M222.601,515.616C222.857,514.992 223.115,514.361 223.2,514.156C223.284,514.361 223.542,514.992 223.799,515.616L222.601,515.616ZM223.391,513.108L222.835,513.108L221.147,517.202L221.789,517.202C221.859,517.202 221.941,517.205 222.006,517.06C222.026,517.013 222.154,516.703 222.319,516.301L224.08,516.301C224.246,516.703 224.373,517.013 224.393,517.06C224.458,517.205 224.54,517.202 224.609,517.202L225.253,517.202C225.197,517.07 223.704,513.468 223.637,513.297C223.567,513.125 223.476,513.108 223.391,513.108" style="fill:rgb(35,31,32);fill-rule:nonzero;"/>
        </g>
        <g transform="matrix(4.8006,0,0,5.20946,-243.889,-1258.12)">
            <path d="M255.377,515.616C255.633,514.992 255.891,514.361 255.976,514.156C256.062,514.361 256.319,514.992 256.575,515.616L255.377,515.616ZM256.169,513.108L255.611,513.108L253.924,517.202L254.566,517.202C254.637,517.202 254.718,517.205 254.784,517.06C254.803,517.013 254.931,516.703 255.096,516.301L256.858,516.301C257.023,516.703 257.15,517.013 257.171,517.06C257.235,517.205 257.318,517.202 257.388,517.202L258.029,517.202C257.975,517.07 256.481,513.468 256.413,513.297C256.345,513.125 256.254,513.108 256.169,513.108" style="fill:rgb(35,31,32);fill-rule:nonzero;"/>
        </g>
        <g transform="matrix(4.8006,0,0,5.20946,-243.889,-1258.12)">
            <path d="M204.833,515.616C205.091,514.992 205.349,514.361 205.433,514.156C205.514,514.361 205.776,514.992 206.03,515.616L204.833,515.616ZM205.624,513.108L205.067,513.108L203.379,517.202L204.022,517.202C204.092,517.202 204.173,517.205 204.236,517.06C204.259,517.013 204.387,516.703 204.553,516.301L206.312,516.301C206.479,516.703 206.604,517.013 206.627,517.06C206.689,517.205 206.774,517.202 206.843,517.202L207.486,517.202C207.432,517.07 205.937,513.468 205.869,513.297C205.801,513.125 205.71,513.108 205.624,513.108" style="fill:rgb(35,31,32);fill-rule:nonzero;"/>
        </g>
        <g transform="matrix(4.8006,0,0,5.20946,-243.889,-1258.04)">
            <path d="M214.753,516.522C213.995,516.522 213.383,515.908 213.383,515.152C213.383,514.397 213.995,513.782 214.753,513.782C215.509,513.782 216.123,514.397 216.123,515.152C216.123,515.908 215.509,516.522 214.753,516.522M214.753,513.012C213.572,513.012 212.616,513.968 212.616,515.148C212.616,516.328 213.572,517.286 214.753,517.286C215.933,517.286 216.89,516.328 216.89,515.148C216.89,513.968 215.933,513.012 214.753,513.012" style="fill:rgb(35,31,32);fill-rule:nonzero;"/>
        </g>
        <g transform="matrix(4.8006,0,0,5.20946,-243.889,-1257.92)">
            <path d="M234.052,515.9C233.959,516.024 233.842,516.173 233.667,516.296C233.466,516.441 233.194,516.555 232.788,516.555C232.401,516.555 232.046,516.407 231.789,516.156C231.531,515.905 231.371,515.553 231.371,515.129C231.371,514.743 231.513,514.388 231.76,514.133C232.006,513.875 232.357,513.714 232.788,513.714C233.094,513.714 233.342,513.78 233.551,513.894C233.68,513.963 233.848,514.077 234.035,514.292C234.108,514.378 234.204,514.4 234.302,514.313C234.338,514.279 234.624,513.994 234.624,513.994C234.304,513.452 233.67,512.98 232.786,512.98C232.199,512.98 231.657,513.208 231.265,513.592C230.871,513.977 230.627,514.52 230.627,515.14C230.627,515.768 230.875,516.31 231.269,516.689C231.663,517.073 232.199,517.295 232.772,517.295L232.774,517.295C233.149,517.295 233.525,517.226 233.866,517.041C234.207,516.858 234.513,516.553 234.755,516.096L234.812,515.987C234.812,515.987 234.357,515.852 234.303,515.835C234.23,515.811 234.118,515.817 234.052,515.9" style="fill:rgb(35,31,32);fill-rule:nonzero;"/>
        </g>
        <g transform="matrix(4.8006,0,0,5.20946,-243.889,-1258.17)">
            <path d="M237.984,513.339L237.984,514.765L236.086,514.765L236.086,513.339C236.086,513.16 235.959,513.106 235.874,513.106L235.346,513.106L235.346,517.217L235.866,517.217C235.941,517.217 236.086,517.162 236.086,517.004L236.086,515.437L237.984,515.437L237.984,517.004C237.984,517.162 238.13,517.217 238.205,517.217L238.724,517.217L238.724,513.106L238.197,513.106C238.113,513.106 237.984,513.16 237.984,513.339" style="fill:rgb(35,31,32);fill-rule:nonzero;"/>
        </g>
        <g transform="matrix(4.8006,0,0,5.20946,-243.889,-1257.51)">
            <path d="M267.669,513.212L267.669,515.457C267.669,515.826 267.651,516.522 266.721,516.522C265.798,516.522 265.771,515.819 265.771,515.457L265.771,513.212C265.771,513.033 265.643,512.979 265.556,512.979L265.031,512.979L265.031,515.42C265.031,515.753 264.946,517.217 266.713,517.217C268.379,517.217 268.407,516.075 268.407,515.457L268.407,512.979L267.882,512.979C267.798,512.979 267.669,513.033 267.669,513.212" style="fill:rgb(35,31,32);fill-rule:nonzero;"/>
        </g>
        <g transform="matrix(4.8006,0,0,5.20946,-243.889,-1258.16)">
            <path d="M246.615,513.625C246.954,513.636 247.326,513.723 247.674,514.035C247.808,514.152 247.93,514.124 248.007,514.065C248.113,513.986 248.314,513.821 248.314,513.821C247.842,513.105 247.076,512.963 246.465,512.985C245.694,513.013 244.94,513.485 244.938,514.277C244.937,515.067 245.618,515.332 246.533,515.474C247.24,515.583 247.523,515.733 247.54,516.061C247.554,516.359 247.344,516.667 246.668,516.675C245.911,516.687 245.653,516.303 245.517,516.077C245.415,515.912 245.292,515.942 245.183,516.016C245.123,516.057 244.853,516.23 244.853,516.23C245.241,517.261 246.181,517.344 246.663,517.346C247.398,517.358 248.339,516.987 248.301,515.984C248.264,514.912 247.041,514.787 246.683,514.718C246.167,514.617 245.783,514.596 245.71,514.267C245.657,514.023 245.883,513.604 246.615,513.625" style="fill:rgb(35,31,32);fill-rule:nonzero;"/>
        </g>
        <g transform="matrix(4.8006,0,0,5.20946,-243.889,-1258.16)">
            <path d="M287.67,513.625C288.009,513.636 288.383,513.723 288.731,514.035C288.862,514.152 288.985,514.124 289.063,514.065C289.167,513.986 289.371,513.821 289.371,513.821C288.898,513.105 288.132,512.963 287.522,512.985C286.75,513.013 285.995,513.485 285.993,514.277C285.992,515.067 286.673,515.332 287.589,515.474C288.296,515.583 288.578,515.733 288.597,516.061C288.611,516.359 288.4,516.667 287.725,516.675C286.967,516.687 286.71,516.303 286.572,516.077C286.471,515.912 286.345,515.942 286.238,516.016C286.178,516.057 285.91,516.23 285.91,516.23C286.298,517.261 287.236,517.344 287.718,517.346C288.453,517.358 289.392,516.987 289.355,515.984C289.319,514.912 288.095,514.787 287.738,514.718C287.224,514.617 286.839,514.596 286.766,514.267C286.712,514.023 286.938,513.604 287.67,513.625" style="fill:rgb(35,31,32);fill-rule:nonzero;"/>
        </g>
        <g transform="matrix(4.8006,0,0,5.20946,-243.889,-1449.34)">
            <rect x="183.595" y="533.472" width="0.112" height="0.075" style="fill:rgb(35,31,32);"/>
        </g>
        <g transform="matrix(4.8006,0,0,5.20946,-243.889,-1457.37)">
            <rect x="183.595" y="534.243" width="0.112" height="0.075" style="fill:rgb(35,31,32);"/>
        </g>
        <g transform="matrix(-4.7846,-0.425031,-0.391673,5.1921,2229.66,-1312.96)">
            <path d="M236.408,529.787C236.72,530.502 237.188,531.323 237.36,531.588L236.408,532.116C235.963,531.546 235.479,530.477 235.377,530.194L236.408,529.787Z" style="fill:rgb(35,31,32);fill-rule:nonzero;"/>
        </g>
        <g transform="matrix(3.73531,-3.27233,-3.0155,-4.05344,1614.02,4283.97)">
            <path d="M240.423,529.981L241.55,529.981C241.574,530.413 241.548,531.499 241.494,532.025L240.375,531.967C240.386,531.706 240.438,530.677 240.423,529.981" style="fill:rgb(35,31,32);fill-rule:nonzero;"/>
        </g>
        <g transform="matrix(4.8006,0,0,5.20946,-243.889,-1435.24)">
            <path d="M298.727,530.494L286.377,530.494L286.377,533.743L287.478,533.743L287.478,531.625L298.023,531.625L297.567,533.82L298.699,533.82C298.699,533.82 299.216,531.494 299.248,531.333C299.27,531.221 299.28,531.177 299.28,531.064C299.28,530.856 299.123,530.494 298.727,530.494" style="fill:rgb(35,31,32);fill-rule:nonzero;"/>
        </g>
        <g transform="matrix(4.8006,0,0,5.20946,-243.889,-1405.42)">
            <path d="M204.112,522.654L200.64,522.654L200.64,535.934L201.772,535.934L201.772,523.786L203.383,523.786C203.225,524.417 202.778,526.231 202.415,526.984L202.415,527.629C202.74,528.073 203.029,528.64 203.251,529.22C203.474,529.8 203.488,530.399 203.487,530.898C203.487,531.203 203.481,531.468 203.456,531.677C203.435,531.833 203.404,531.955 203.369,532.039C203.342,532.104 203.312,532.147 203.281,532.184C203.206,532.274 203.041,532.407 202.598,532.407L202.532,532.407L202.532,533.538C203.052,533.538 203.437,533.403 203.549,533.354C203.795,533.253 203.984,533.083 204.142,532.892C204.262,532.747 204.348,532.586 204.41,532.424C204.504,532.179 204.547,531.93 204.569,531.677C204.592,531.425 204.596,531.165 204.596,530.898C204.594,530.207 204.566,529.494 204.31,528.816C204.094,528.253 203.834,527.714 203.524,527.241C204.016,526.035 204.66,523.776 204.678,523.276C204.698,522.776 204.273,522.654 204.112,522.654" style="fill:rgb(35,31,32);fill-rule:nonzero;"/>
        </g>
        <g transform="matrix(4.8006,0,0,5.20946,-243.889,-1405.37)">
            <path d="M194.583,534.707L184.1,534.709L184.1,523.873L194.583,523.871L194.583,534.707ZM195.138,522.739L182.967,522.739L182.967,535.841L195.715,535.84L195.715,523.327C195.715,523.04 195.556,522.739 195.138,522.739" style="fill:rgb(35,31,32);fill-rule:nonzero;"/>
        </g>
        <g transform="matrix(4.8006,0,0,5.20946,-243.889,-1371.26)">
            <path d="M238.05,528.243L238.05,527.508L246.2,527.508L246.2,528.241L238.05,528.243ZM246.2,526.375L238.05,526.375L238.05,525.64L246.2,525.64L246.2,526.375ZM246.2,523.786L246.2,524.509L238.05,524.509L238.05,523.788L246.2,523.786ZM246.757,522.657C246.493,522.657 236.918,522.658 236.918,522.658L236.918,529.375L247.332,529.373L247.332,523.243C247.332,522.955 247.172,522.657 246.757,522.657" style="fill:rgb(35,31,32);fill-rule:nonzero;"/>
        </g>
        <g transform="matrix(4.8006,0,0,5.20946,-243.889,-1405.03)">
            <path d="M193.642,532.275L189.775,532.275L189.775,529.313L193.006,529.313L193.006,528.181L189.775,528.181L189.775,526.238L193.393,526.238L193.393,525.107L185.284,525.107L185.284,526.238L188.642,526.238L188.642,528.181L185.67,528.181L185.67,529.313L188.642,529.313L188.642,532.275L184.961,532.275L184.961,533.408L193.642,533.408L193.642,532.275Z" style="fill:rgb(35,31,32);fill-rule:nonzero;"/>
        </g>
        <g transform="matrix(3.56776,3.48555,3.21199,-3.87162,-1701.69,2733.08)">
            <rect x="191.332" y="527.103" width="1.921" height="1.131" style="fill:rgb(35,31,32);"/>
        </g>
        <g transform="matrix(4.8006,0,0,5.20946,-243.889,-1404.42)">
            <rect x="206.875" y="528.633" width="4.673" height="1.131" style="fill:rgb(35,31,32);"/>
        </g>
        <g transform="matrix(4.8006,0,0,5.20946,-243.889,-1361.71)">
            <path d="M213.169,523.588L213.169,522.456L205.451,522.456L205.451,523.588L208.658,523.588L208.658,526.328C208.658,526.442 208.623,526.578 208.448,526.596C208.24,526.621 207.506,526.545 207.506,526.545L207.506,527.623C207.723,527.647 208.169,527.694 208.377,527.702C209.476,527.741 209.79,527.342 209.79,526.434L209.79,523.588L213.169,523.588Z" style="fill:rgb(35,31,32);fill-rule:nonzero;"/>
        </g>
        <g transform="matrix(4.8006,0,0,5.20946,-243.889,-1443.75)">
            <path d="M238.333,534.802C238.333,535.01 238.252,535.057 238.112,535.065C238.012,535.069 237.585,535.03 237.585,535.03L237.585,536.104C237.585,536.104 238.178,536.162 238.433,536.161C239.256,536.16 239.465,535.783 239.465,535.215L239.465,533.303L242.12,533.303L242.12,532.171L239.465,532.171L239.465,531.502L241.415,531.502L241.415,530.371L239.465,530.371L239.465,529.786L238.333,529.786L238.333,532.171L235.561,532.171L235.561,533.303L238.333,533.303L238.333,534.802Z" style="fill:rgb(35,31,32);fill-rule:nonzero;"/>
        </g>
        <g transform="matrix(4.8006,0,0,5.20946,-243.889,-1435.41)">
            <path d="M206.79,529.706L206.799,529.706C206.793,529.707 206.789,529.709 206.79,529.706M205.532,532.435L204.803,533.207C204.903,533.298 205.246,533.679 205.508,533.969C205.333,534.118 205.145,534.269 204.935,534.427L204.935,535.773C205.602,535.32 207.217,533.909 208.155,532.482C208.835,531.444 209.394,529.951 209.456,529.276C209.48,529.006 209.333,528.573 208.795,528.573L206.216,528.573C205.935,529.264 205.611,529.809 205.105,530.464L205.683,531.378C206.176,530.881 206.554,530.36 206.911,529.706L208.306,529.706C208.084,530.447 207.933,530.918 207.508,531.594C207.178,531.297 206.872,531.04 206.806,530.98L206.09,531.817C206.09,531.817 206.167,531.888 206.288,531.998C206.437,532.136 206.653,532.332 206.861,532.522C206.696,532.742 206.517,532.964 206.309,533.193C205.98,532.862 205.61,532.507 205.532,532.435" style="fill:rgb(35,31,32);fill-rule:nonzero;"/>
        </g>
        <g transform="matrix(4.8006,0,0,5.20946,-243.889,-1363.43)">
            <path d="M225.172,525.082L228.069,525.082L228.069,523.95L225.172,523.95L225.172,522.686L224.039,522.686L224.039,523.95L221.256,523.95L221.256,525.082L224.039,525.082L224.039,526.709L218.738,526.709L218.738,527.842L230.65,527.842L230.65,526.709L225.172,526.709L225.172,525.082Z" style="fill:rgb(35,31,32);fill-rule:nonzero;"/>
        </g>
        <g transform="matrix(4.8006,0,0,5.20946,-243.889,-1405.28)">
            <path d="M256.404,524.778L257.416,524.778C257.161,525.213 256.869,525.683 256.539,526.174L256.404,526.174L256.404,524.778ZM258.882,532.321L258.882,531.176C258.478,531.27 257.308,531.5 256.348,531.642L256.348,531.037C256.348,531.037 256.866,530.515 257.467,529.792C257.723,529.481 258.027,529.155 258.043,528.804C258.064,528.33 257.75,528.141 257.392,528.141L256.423,528.141C256.64,527.873 256.853,527.6 257.07,527.304L259.121,527.304L259.121,526.174L257.85,526.174C257.913,526.078 257.975,525.982 258.04,525.882C258.637,524.946 259.288,523.803 259.598,523.047L258.599,522.594C258.461,522.846 258.276,523.212 258.043,523.652L258.043,523.645L256.404,523.645L256.404,522.456L255.273,522.456L255.273,523.645L253.272,523.645L253.272,524.778L255.273,524.778L255.273,526.174L252.443,526.174L252.443,527.304L255.727,527.304C255.513,527.584 255.289,527.862 255.051,528.141L253.008,528.141L253.008,529.249L254.003,529.249C253.631,529.597 253.145,530.016 252.518,530.486L252.518,531.673C252.746,531.517 253.135,531.263 253.733,530.793C254.151,530.462 254.859,529.861 255.456,529.249L256.478,529.249C256.383,529.376 255.719,530.033 255.216,530.469L255.216,531.787C254.791,531.839 254.319,531.892 253.893,531.94C253.509,531.983 253.161,532.019 252.906,532.046C252.654,532.074 252.498,532.09 252.497,532.09L252.497,533.196C252.649,533.191 253.774,533.112 255.216,532.941L255.216,534.693C255.216,534.807 255.18,534.943 255.005,534.962C254.798,534.986 254.065,534.91 254.065,534.91L254.065,535.987C254.28,536.011 254.729,536.06 254.935,536.068C256.033,536.106 256.348,535.707 256.348,534.799L256.348,532.796C257.143,532.685 258.215,532.512 258.882,532.321" style="fill:rgb(35,31,32);fill-rule:nonzero;"/>
        </g>
        <g transform="matrix(-4.03194,-2.82754,-2.60562,4.37533,3778.22,-183.977)">
            <path d="M296.707,534.385L297.912,534.385C297.916,535.222 297.966,536.001 298.069,536.808L296.868,536.942C296.759,536.179 296.705,535.289 296.707,534.385" style="fill:rgb(35,31,32);fill-rule:nonzero;"/>
        </g>
        <g transform="matrix(3.14856,-3.93249,-3.62386,-3.41672,2180.75,4297.99)">
            <path d="M292.246,534.541C292.246,534.541 293.092,536.177 293.268,536.605L292.246,537.096C292.246,537.096 291.434,535.479 291.235,535.113C291.472,534.974 292.246,534.541 292.246,534.541" style="fill:rgb(35,31,32);fill-rule:nonzero;"/>
        </g>
        <g transform="matrix(3.0782,-3.99756,-3.68381,-3.34037,2226.28,4260.75)">
            <path d="M288.351,534.403C288.351,534.403 289.176,536.055 289.36,536.48L288.351,536.988C288.351,536.988 287.558,535.358 287.352,534.994C287.586,534.851 288.351,534.403 288.351,534.403" style="fill:rgb(35,31,32);fill-rule:nonzero;"/>
        </g>
        <g transform="matrix(4.8006,0,0,5.20946,-243.889,-1378.16)">
            <path d="M294.532,524.613C295.226,523.711 295.895,522.871 295.871,522.376C295.852,521.957 295.543,521.707 295.123,521.707L289.576,521.707L289.576,522.838L294.401,522.839C293.962,523.607 293.179,524.474 292.344,525.315L292.344,525.579L286.969,525.579L286.969,526.711L292.344,526.711L292.344,530.034C292.344,530.268 292.202,530.399 291.973,530.41C291.732,530.426 290.949,530.368 290.549,530.321L290.549,531.497C290.993,531.59 291.828,531.649 292.167,531.644C293.376,531.627 293.628,531.176 293.628,530.386L293.628,526.711L298.596,526.711L298.596,525.579L293.685,525.579C293.957,525.28 294.354,524.845 294.532,524.613" style="fill:rgb(35,31,32);fill-rule:nonzero;"/>
        </g>
        <g transform="matrix(4.8006,0,0,5.20946,-243.889,-1354.13)">
            <path d="M211.845,522.889L211.003,523.66C211.215,523.899 211.774,524.673 211.94,524.911C212.141,525.2 212.324,525.495 212.548,525.854L213.611,525.373C213.291,524.808 213.085,524.464 212.776,524.041C212.494,523.66 212.247,523.316 211.845,522.889" style="fill:rgb(35,31,32);fill-rule:nonzero;"/>
        </g>
        <g transform="matrix(4.8006,0,0,5.20946,-243.889,-1354.55)">
            <path d="M205.42,524.242C205.118,524.643 205.003,524.789 204.701,525.108L205.477,525.92C205.648,525.742 205.981,525.376 206.376,524.833C206.894,524.116 207.019,523.903 207.273,523.432L206.284,522.904C206.057,523.318 205.914,523.581 205.42,524.242" style="fill:rgb(35,31,32);fill-rule:nonzero;"/>
        </g>
        <g transform="matrix(4.8006,0,0,5.20946,-243.889,-1437.16)">
            <path d="M211.5,531.446C211.403,531.251 211.345,531.109 211.289,530.969L210.083,530.969C210.229,531.389 210.413,531.833 210.665,532.299C210.331,532.582 209.878,532.913 209.408,533.22L209.408,534.459C209.408,534.459 210.436,533.859 211.234,533.228C211.293,533.312 211.356,533.398 211.419,533.483C212.175,534.504 212.969,535.282 213.597,535.773L213.597,534.266C213.073,533.742 212.637,533.306 212.199,532.627C212.153,532.559 212.111,532.494 212.073,532.433C213.109,531.229 213.533,529.858 213.574,529.611C213.644,529.211 213.373,528.908 212.953,528.908L210.009,528.908L210.009,530.037L212.311,530.037C212.117,530.59 211.815,531.058 211.5,531.446" style="fill:rgb(35,31,32);fill-rule:nonzero;"/>
        </g>
        <g transform="matrix(4.8006,0,0,5.20946,-243.889,-1404.09)">
            <path d="M261.42,526.112C261.468,525.988 261.514,525.862 261.557,525.735L264.146,525.735C264.137,525.811 264.127,525.891 264.115,525.977C264.047,526.448 263.942,527.081 263.799,527.743C263.658,528.405 263.476,529.095 263.263,529.667C263.144,529.99 263.01,530.31 262.858,530.625C262.041,528.967 261.608,527.065 261.42,526.112M263.537,531.779C263.86,531.215 264.117,530.643 264.327,530.074C264.647,529.208 264.878,528.195 265.043,527.321C265.125,526.885 265.189,526.483 265.236,526.156C265.257,525.996 265.277,525.856 265.292,525.735L266.11,525.735L266.11,524.605L261.881,524.605C262.033,523.989 262.166,523.284 262.33,522.379L261.212,522.185C260.857,524.109 260.467,526.042 259.455,527.49L259.455,529.182C259.942,528.684 260.305,528.224 260.632,527.637C260.72,528.025 260.833,528.453 260.966,528.903C261.251,529.844 261.639,530.871 262.172,531.806C262.013,532.036 261.838,532.263 261.647,532.485C260.969,533.263 260.078,533.992 258.845,534.633L258.845,535.901C260.461,535.149 261.639,534.236 262.504,533.233C262.624,533.099 262.736,532.96 262.844,532.82C264.258,534.747 265.915,535.804 266.359,536.148L266.359,534.677C265.566,534.053 264.378,533.037 263.537,531.779" style="fill:rgb(35,31,32);fill-rule:nonzero;"/>
        </g>
        <g transform="matrix(4.8006,0,0,5.20946,-243.889,-1440.3)">
            <path d="M247.574,529.508L243.271,529.508L243.271,530.64L246.942,530.64C246.727,531.274 246.32,532.004 245.521,532.724C245.135,532.308 244.894,531.95 244.678,531.575L243.389,531.575C243.593,532.006 243.957,532.681 244.613,533.428C244.176,533.699 243.677,533.903 242.711,534.277L242.711,535.445C242.983,535.353 244.288,534.968 245.433,534.235C246.475,535.09 247.771,535.647 248.205,535.776L248.205,534.641C247.595,534.367 246.956,533.982 246.365,533.507C247.346,532.579 247.777,531.651 248.053,530.891C248.105,530.742 248.22,530.335 248.232,530.157C248.252,529.81 247.986,529.508 247.574,529.508" style="fill:rgb(35,31,32);fill-rule:nonzero;"/>
        </g>
        <g transform="matrix(4.8006,0,0,5.20946,-243.889,-1419.28)">
            <path d="M221.888,530.954L227.567,530.954L227.567,531.753L221.888,531.753L221.888,530.954ZM227.567,527.879L221.888,527.879L221.888,527.15L227.567,527.15L227.567,527.879ZM221.888,529.011L227.567,529.011L227.567,529.822L221.888,529.822L221.888,529.011ZM228.594,532.884L231.548,532.884L231.548,531.752L228.7,531.752L228.7,527.15L230.991,527.15L230.991,526.017L228.7,526.017L228.7,525.088L227.567,525.088L227.567,526.017L221.888,526.017L221.888,525.088L220.757,525.088L220.757,526.017L218.395,526.017L218.395,527.15L220.757,527.15L220.757,531.752L217.84,531.752L217.84,532.884L220.834,532.884C220.637,533.087 220.4,533.314 220.111,533.555C219.512,534.052 218.818,534.531 217.833,534.943L217.833,536.161C219.199,535.65 220.25,535.006 221.122,534.285C221.556,533.926 221.999,533.435 222.419,532.884L227.007,532.884C227.429,533.435 227.874,533.926 228.305,534.285C229.178,535.006 230.228,535.65 231.592,536.161L231.592,534.943C230.609,534.531 229.915,534.052 229.318,533.555C229.027,533.314 228.792,533.087 228.594,532.884" style="fill:rgb(35,31,32);fill-rule:nonzero;"/>
        </g>
        <g transform="matrix(4.8006,0,0,5.20946,-243.889,-1402.88)">
            <path d="M279.186,531.484C278.292,530.329 277.374,528.85 276.873,527.012C276.929,526.664 276.975,526.25 277.008,525.809L282.71,525.809L282.71,524.661L277.078,524.661C277.145,523.247 277.138,521.921 277.138,521.921L275.841,521.921C275.841,522.475 275.845,523.374 275.758,524.661L270.244,524.661L270.244,525.809L275.666,525.809C275.663,525.837 275.66,525.864 275.657,525.894C275.406,528.44 274.518,530.108 273.515,531.512C272.186,533.374 270.021,534.641 270.021,534.641L270.021,536.085C272.225,535.023 273.965,533.314 274.965,531.767C275.588,530.804 275.998,529.96 276.281,529.223C276.603,530.001 277.066,530.893 277.76,531.878C278.364,532.731 280.191,534.975 283.035,536.181L283.033,534.783C281.681,534.039 280.346,532.984 279.186,531.484" style="fill:rgb(35,31,32);fill-rule:nonzero;"/>
        </g>
        <g transform="matrix(4.8006,0,0,5.20946,-243.889,-1099.57)">
            <path d="M298.884,507.928L186.895,507.928C184.33,507.928 182.25,505.848 182.25,503.282L182.25,491.951L294.239,491.951C296.805,491.951 298.884,494.03 298.884,496.596L298.884,507.928Z" style="fill:rgb(0,95,164);fill-rule:nonzero;"/>
        </g>
        <g transform="matrix(1.15214,0,0,1.25027,-175.849,-350.37)">
            <path d="M928.797,1502.17L931.055,1497.21C933.443,1498.56 935.83,1499.34 938.913,1499.34C943.43,1499.34 945.559,1497.17 945.559,1493.01L945.559,1491.87C943.605,1494.22 941.476,1495.65 937.955,1495.65C932.534,1495.65 927.622,1491.7 927.622,1484.79L927.622,1484.7C927.622,1477.76 932.618,1473.85 937.955,1473.85C941.563,1473.85 943.693,1475.37 945.472,1477.32L945.472,1474.28L952.072,1474.28L952.072,1492.31C952.072,1496.48 951.076,1499.52 949.122,1501.47C946.947,1503.65 943.605,1504.6 939.088,1504.6C935.309,1504.6 931.751,1503.73 928.797,1502.17ZM778.338,1474.28L784.938,1474.28L784.938,1477.63C786.546,1475.46 788.763,1473.85 792.192,1473.85C797.621,1473.85 802.788,1478.1 802.788,1485.88L802.788,1485.97C802.788,1493.74 797.709,1498 792.192,1498C788.675,1498 786.505,1496.39 784.938,1494.53L784.938,1504.51L778.338,1504.51L778.338,1474.28ZM1044.72,1486.05L1044.72,1485.96C1044.72,1479.32 1049.45,1473.85 1056.22,1473.85C1064,1473.85 1067.56,1479.89 1067.56,1486.49C1067.56,1487.01 1067.52,1487.62 1067.47,1488.22L1051.28,1488.22C1051.92,1491.23 1054.01,1492.78 1056.96,1492.78C1059.18,1492.78 1060.78,1492.09 1062.61,1490.4L1066.39,1493.74C1064.22,1496.43 1061.09,1498.08 1056.88,1498.08C1049.88,1498.08 1044.72,1493.17 1044.72,1486.05ZM998.265,1486.05L998.265,1485.97C998.265,1479.28 1003.66,1473.85 1010.91,1473.85C1018.12,1473.85 1023.46,1479.19 1023.46,1485.88L1023.46,1485.97C1023.46,1492.65 1018.07,1498.08 1010.82,1498.08C1003.61,1498.08 998.265,1492.74 998.265,1486.05ZM858.758,1485.97L858.758,1485.88C858.758,1478.1 863.841,1473.85 869.354,1473.85C872.875,1473.85 875.045,1475.46 876.608,1477.32L876.608,1465.86L883.208,1465.86L883.208,1497.56L876.608,1497.56L876.608,1494.22C875.004,1496.39 872.787,1498 869.354,1498C863.925,1498 858.758,1493.74 858.758,1485.97ZM1128.43,1490.87L1128.43,1490.79C1128.43,1485.7 1132.3,1483.36 1137.82,1483.36C1140.16,1483.36 1141.86,1483.75 1143.51,1484.32L1143.51,1483.93C1143.51,1481.19 1141.82,1479.67 1138.52,1479.67C1135.99,1479.67 1134.21,1480.14 1132.09,1480.93L1130.43,1475.89C1133,1474.76 1135.52,1474.02 1139.47,1474.02C1143.07,1474.02 1145.68,1474.97 1147.33,1476.63C1149.07,1478.37 1149.85,1480.93 1149.85,1484.06L1149.85,1497.56L1143.46,1497.56L1143.46,1495.05C1141.86,1496.82 1139.64,1498 1136.43,1498C1132.04,1498 1128.43,1495.48 1128.43,1490.87ZM806.056,1490.87L806.056,1490.79C806.056,1485.7 809.923,1483.36 815.439,1483.36C817.785,1483.36 819.477,1483.75 821.127,1484.32L821.127,1483.93C821.127,1481.19 819.435,1479.67 816.135,1479.67C813.614,1479.67 811.835,1480.14 809.706,1480.93L808.056,1475.89C810.618,1474.76 813.139,1474.02 817.089,1474.02C820.693,1474.02 823.302,1474.97 824.952,1476.63C826.685,1478.37 827.468,1480.93 827.468,1484.06L827.468,1497.56L821.085,1497.56L821.085,1495.05C819.477,1496.82 817.264,1498 814.048,1498C809.66,1498 806.056,1495.48 806.056,1490.87ZM1100.19,1490.96L1100.19,1479.93L1097.41,1479.93L1097.41,1474.28L1100.19,1474.28L1100.19,1468.33L1106.79,1468.33L1106.79,1474.28L1112.27,1474.28L1112.27,1479.93L1106.79,1479.93L1106.79,1489.88C1106.79,1491.39 1107.45,1492.13 1108.92,1492.13C1110.14,1492.13 1111.23,1491.83 1112.18,1491.31L1112.18,1496.61C1110.79,1497.43 1109.18,1497.96 1106.97,1497.96C1102.93,1497.96 1100.19,1496.34 1100.19,1490.96ZM1029.11,1490.96L1029.11,1479.93L1026.34,1479.93L1026.34,1474.28L1029.11,1474.28L1029.11,1468.33L1035.71,1468.33L1035.71,1474.28L1041.19,1474.28L1041.19,1479.93L1035.71,1479.93L1035.71,1489.88C1035.71,1491.39 1036.37,1492.13 1037.84,1492.13C1039.06,1492.13 1040.15,1491.83 1041.1,1491.31L1041.1,1496.61C1039.71,1497.43 1038.1,1497.96 1035.89,1497.96C1031.85,1497.96 1029.11,1496.34 1029.11,1490.96ZM889.212,1474.28L895.812,1474.28L895.812,1497.56L889.212,1497.56L889.212,1474.28ZM1117.22,1474.28L1123.83,1474.28L1123.83,1497.56L1117.22,1497.56L1117.22,1474.28ZM971.29,1467.15L983.706,1467.15C990.96,1467.15 995.348,1471.46 995.348,1477.67L995.348,1477.76C995.348,1484.79 989.873,1488.44 983.056,1488.44L977.977,1488.44L977.977,1497.56L971.29,1497.56L971.29,1467.15ZM1072.26,1474.28L1078.86,1474.28L1078.86,1477.58C1080.38,1475.63 1082.33,1473.85 1085.68,1473.85C1090.67,1473.85 1093.58,1477.15 1093.58,1482.49L1093.58,1497.56L1086.98,1497.56L1086.98,1484.57C1086.98,1481.45 1085.51,1479.84 1082.99,1479.84C1080.47,1479.84 1078.86,1481.45 1078.86,1484.57L1078.86,1497.56L1072.26,1497.56L1072.26,1474.28ZM832.951,1474.28L839.551,1474.28L839.551,1477.58C841.072,1475.63 843.026,1473.85 846.372,1473.85C851.364,1473.85 854.276,1477.15 854.276,1482.49L854.276,1497.56L847.676,1497.56L847.676,1484.57C847.676,1481.45 846.197,1479.84 843.68,1479.84C841.164,1479.84 839.551,1481.45 839.551,1484.57L839.551,1497.56L832.951,1497.56L832.951,1474.28ZM901.815,1474.28L908.415,1474.28L908.415,1477.58C909.936,1475.63 911.89,1473.85 915.236,1473.85C920.228,1473.85 923.14,1477.15 923.14,1482.49L923.14,1497.56L916.54,1497.56L916.54,1484.57C916.54,1481.45 915.065,1479.84 912.54,1479.84C910.024,1479.84 908.415,1481.45 908.415,1484.57L908.415,1497.56L901.815,1497.56L901.815,1474.28ZM762.952,1481.1L767.34,1474.28L774.244,1474.28L766.385,1485.66L774.594,1497.56L767.515,1497.56L762.823,1490.31L758.135,1497.56L751.231,1497.56L759.394,1485.75L751.531,1474.28L758.61,1474.28L762.952,1481.1ZM724.984,1467.16L747.918,1467.16L747.918,1473.11L731.63,1473.11L731.63,1479.28L745.963,1479.28L745.963,1485.23L731.63,1485.23L731.63,1491.61L748.134,1491.61L748.134,1497.56L724.984,1497.56L724.984,1467.16ZM1162.23,1465.85L1155.63,1465.85L1155.63,1497.56L1162.23,1497.56L1162.23,1465.85ZM1143.59,1489.35L1143.59,1488.18C1142.46,1487.66 1140.99,1487.31 1139.38,1487.31C1136.56,1487.31 1134.82,1488.44 1134.82,1490.52L1134.82,1490.62C1134.82,1492.39 1136.29,1493.44 1138.43,1493.44C1141.51,1493.44 1143.59,1491.75 1143.59,1489.35ZM821.214,1489.35L821.214,1488.18C820.085,1487.66 818.61,1487.31 817.002,1487.31C814.181,1487.31 812.443,1488.44 812.443,1490.52L812.443,1490.62C812.443,1492.39 813.923,1493.44 816.048,1493.44C819.131,1493.44 821.214,1491.75 821.214,1489.35ZM796.188,1485.97L796.188,1485.88C796.188,1482.01 793.584,1479.45 790.496,1479.45C787.417,1479.45 784.855,1482.01 784.855,1485.88L784.855,1485.97C784.855,1489.83 787.417,1492.39 790.496,1492.39C793.584,1492.39 796.188,1489.87 796.188,1485.97ZM876.695,1485.97L876.695,1485.88C876.695,1482.01 874.133,1479.45 871.05,1479.45C867.966,1479.45 865.358,1481.97 865.358,1485.88L865.358,1485.97C865.358,1489.83 867.966,1492.39 871.05,1492.39C874.133,1492.39 876.695,1489.83 876.695,1485.97ZM1016.94,1486.05L1016.94,1485.97C1016.94,1482.53 1014.47,1479.54 1010.82,1479.54C1007.04,1479.54 1004.78,1482.44 1004.78,1485.88L1004.78,1485.97C1004.78,1489.39 1007.26,1492.39 1010.91,1492.39C1014.69,1492.39 1016.94,1489.49 1016.94,1486.05ZM945.559,1484.79L945.559,1484.7C945.559,1481.54 943.084,1479.32 939.872,1479.32C936.655,1479.32 934.222,1481.54 934.222,1484.7L934.222,1484.79C934.222,1488.01 936.655,1490.18 939.872,1490.18C943.084,1490.18 945.559,1487.97 945.559,1484.79ZM1061.13,1484.1C1060.74,1481.14 1059,1479.15 1056.22,1479.15C1053.49,1479.15 1051.7,1481.1 1051.19,1484.1L1061.13,1484.1ZM983.273,1482.49C986.619,1482.49 988.573,1480.5 988.573,1477.89L988.573,1477.8C988.573,1474.8 986.485,1473.2 983.144,1473.2L977.977,1473.2L977.977,1482.49L983.273,1482.49ZM1117.05,1465.85L1124,1465.85L1124,1471.72L1117.05,1471.72L1117.05,1465.85ZM889.045,1465.85L895.991,1465.85L895.991,1471.72L889.045,1471.72L889.045,1465.85Z" style="fill:white;fill-rule:nonzero;"/>
        </g>
    </g>
</svg>
