<svg height="171.163299" overflow="hidden" viewBox="0 0 1280 375" width="584.237395" xmlns="http://www.w3.org/2000/svg" xmlns:xlink="http://www.w3.org/1999/xlink"><clipPath id="a"><path d="m0 0h1280v375h-1280z"/></clipPath><g clip-path="url(#a)"><path d="m0 0h1280v375.501h-1280z" fill="none"/><g fill-rule="evenodd"><path d="m.485202 82.2288v-82.086655h10.999998v93.999955z" transform="matrix(1 0 0 -1.00134 1269 95.1268)"/><path d="m11.4419 94.1441v-94.000041h-10.999994v82.084941z" transform="matrix(1 0 0 -1.00134 1050 95.1268)"/><path d="m12.4263 94.1441v-94.000041h-12.000011v82.084941z" transform="matrix(1 0 0 -1.00134 797 95.1268)"/><path d="m21.4221 16.4018h53.9082v93.7302l-11.433-11.8792v-73.6536h-18.0997l.0567 27.5463-9.4919-6.7791-.0412-20.7672h-14.8163s-1.4953 11.3881-8.7624 16.6459l-6.36017-6.2607s18.39367-17.4642-6.052247-34.852685c0 0 15.138017 3.310765 21.092017 16.270085" transform="matrix(1 0 0 -1.00134 424 111.148)"/><path d="m18.3606 94.1441v-85.78075h-17.921738v-8.219291h29.000238v82.084941z" transform="matrix(1 0 0 -1.00134 1013 95.1268)"/><path d="m12.4739 76.142v-75.999955h-11.999996v66.901855z" transform="matrix(1 0 0 -1.00134 1012 76.1015)"/><path d="m11.4234 75.1424v-74.999969h-11.000259v66.040469z" transform="matrix(1 0 0 -1.00134 922 76.1015)"/><path d="m19.5062 8.35125v85.77945l11.251-11.9132v-73.86625h11.0973v10.20655h8.42v-10.20655h7.1469v12.99965l8.4754 5.6146v-18.61425h7.1314v23.63325l8.4079 5.5843v-37.438383h-81.000226v8.220833z" transform="matrix(1 0 0 -1.00134 921 95.1268)"/><path d="m11.9823 8.35125v85.77945l-11.489144-11.9132v-82.087083h69.000244v82.087083l-11.4874 11.9132v-85.77945h-7.7277s-5.0268 1.10149-6.0408 8.80255c-1.0279 7.7071-5.6875 17.414-24.0181 15.1074v-8.1084s12.824 4.311 15.0618-7.4852c0 0 .9168-5.6132 3.4093-8.31635z" transform="matrix(1 0 0 -1.00134 1189 95.1268)"/><path d="m11.4865 5.62558c0-3.01005-2.47587-5.481703-5.50733-5.481703-3.02996 0-5.492959 2.471653-5.492959 5.481703 0 3.07113 2.462999 5.51852 5.492959 5.51852 3.03146 0 5.50733-2.44739 5.50733-5.51852" transform="matrix(1 0 0 -1.00134 1087 53.0708)"/><path d="m10.4685 5.64963c0-3.01374-2.23908-5.492948-4.99878-5.492948-2.75947 0-5.00126 2.479208-5.00126 5.492948 0 3.07117 2.24179 5.50727 5.00126 5.50727 2.7597 0 4.99878-2.4361 4.99878-5.50727" transform="matrix(1 0 0 -1.00134 1216 112.15)"/><path d="m10.4396 5.62558c0-3.01005-2.24178-5.481703-5.00148-5.481703-2.75947 0-4.998509 2.471653-4.998509 5.481703 0 3.07113 2.239039 5.51852 4.998509 5.51852 2.7597 0 5.00148-2.44739 5.00148-5.51852" transform="matrix(1 0 0 -1.00134 1072 53.0708)"/><path d="m11.4328 5.64074c0-3.02814-2.46772-5.496844-5.50736-5.496844-3.05376 0-5.492683 2.468704-5.492683 5.496844 0 3.07787 2.438923 5.50336 5.492683 5.50336 3.03964 0 5.50736-2.42549 5.50736-5.50336" transform="matrix(1 0 0 -1.00134 838 53.0708)"/><path d="m10.391 5.64074c0-3.02814-2.26083-5.496844-5.02484-5.496844-2.74059 0-4.975205 2.468704-4.975205 5.496844 0 3.07787 2.234615 5.50336 4.975205 5.50336 2.76401 0 5.02484-2.42549 5.02484-5.50336" transform="matrix(1 0 0 -1.00134 823 53.0708)"/><path d="m10.3991 5.64656c0-3.02328-2.24441-5.489536-4.99267-5.489536-2.76133 0-5.007338 2.466256-5.007338 5.489536 0 3.03463 2.246008 5.51044 5.007338 5.51044 2.74826 0 4.99267-2.47581 4.99267-5.51044" transform="matrix(1 0 0 -1.00134 867 113.151)"/><path d="m11.4346 5.64656c0-3.02328-2.47553-5.489536-5.49115-5.489536-3.06039 0-5.508803 2.466256-5.508803 5.489536 0 3.03463 2.448413 5.51044 5.508803 5.51044 3.01562 0 5.49115-2.47581 5.49115-5.51044" transform="matrix(1 0 0 -1.00134 851 113.151)"/><path d="m11.3881 5.64656c0-3.02328-2.48351-5.489536-5.52096-5.489536-3.01023 0-5.479326 2.466256-5.479326 5.489536 0 3.03463 2.469096 5.51044 5.479326 5.51044 3.03745 0 5.52096-2.47581 5.52096-5.51044" transform="matrix(1 0 0 -1.00134 634 113.151)"/><path d="m10.3492 5.64656c0-3.02328-2.24205-5.489536-4.98847-5.489536-2.7581 0-5.01156 2.466256-5.01156 5.489536 0 3.03463 2.25346 5.51044 5.01156 5.51044 2.74642 0 4.98847-2.47581 4.98847-5.51044" transform="matrix(1 0 0 -1.00134 619 113.151)"/><path d="m10.3096 5.6643c0-3.0497-2.25511-5.51767-4.99855-5.51767-2.78581 0-5.001491 2.46797-5.001491 5.51767 0 3.02723 2.215681 5.4823 5.001491 5.4823 2.74344 0 4.99855-2.45507 4.99855-5.4823" transform="matrix(1 0 0 -1.00134 421 65.0868)"/><path d="m11.3501 5.64656c0-3.02328-2.48422-5.489536-5.50669-5.489536-3.03987 0-5.493567 2.466256-5.493567 5.489536 0 3.03463 2.453697 5.51044 5.493567 5.51044 3.02247 0 5.50669-2.47581 5.50669-5.51044" transform="matrix(1 0 0 -1.00134 461 113.151)"/><path d="m10.3141 5.64656c0-3.02328-2.25177-5.489536-4.99424-5.489536-2.78019 0-5.005717 2.466256-5.005717 5.489536 0 3.03463 2.225527 5.51044 5.005717 5.51044 2.74247 0 4.99424-2.47581 4.99424-5.51044" transform="matrix(1 0 0 -1.00134 446 113.151)"/><path d="m10.3029 5.64656c0-3.02328-2.22872-5.489536-5.02459-5.489536-2.73338 0-4.975391 2.466256-4.975391 5.489536 0 3.03463 2.242011 5.51044 4.975391 5.51044 2.79587 0 5.02459-2.47581 5.02459-5.51044" transform="matrix(1 0 0 -1.00134 388 113.151)"/><path d="m11.3295 5.64656c0-3.02328-2.463-5.489536-5.49119-5.489536-3.04605 0-5.509055 2.466256-5.509055 5.489536 0 3.03463 2.463005 5.51044 5.509055 5.51044 3.02819 0 5.49119-2.47581 5.49119-5.51044" transform="matrix(1 0 0 -1.00134 372 113.151)"/><path d="m11.3816 5.13321c0-2.76257-2.43754-5.002184-5.4858-5.002184-3.04978 0-5.514232 2.239614-5.514232 5.002184 0 2.76578 2.464452 4.99809 5.514232 4.99809 3.04826 0 5.4858-2.23231 5.4858-4.99809" transform="matrix(1 0 0 -1.00134 607 53.0708)"/><path d="m10.3444 5.13321c0-2.76257-2.24369-5.002184-4.98107-5.002184-2.77683 0-5.019151 2.239614-5.019151 5.002184 0 2.76578 2.242321 4.99809 5.019151 4.99809 2.73738 0 4.98107-2.23231 4.98107-4.99809" transform="matrix(1 0 0 -1.00134 592 53.0708)"/><path d="m11.8725 8.35125h11.8354c-1.6314.89952-2.3911.51354-3.6129 4.60865-.7857 2.7928-.8565 9.6324-.3528 12.5088.59 3.6029 1.5346 5.4476 3.1493 6.882 2.1645 2.018 6.269 3.527 9.207 3.527h24.0039v-9.2922h-17.624c-4.2166-.4999-4.0211-.4999-6.0441-1.5408-3.0765-1.4693-2.6546-4.317-2.6546-7.8909 0-4.1027.2096-5.1087 2.4297-6.6845 2.2217-1.62127 2.7271-1.60451 6.4524-2.11805h.0418 29.2034v85.77945l11.4844-11.9132v-82.087083h-79.000283v82.087083l11.481383 11.9132z" transform="matrix(1 0 0 -1.00134 710 95.1268)"/><path d="m73.6966 8.35125c.069 2.52695 3.1165 6.59765 5.7579 7.60825 2.5005.9694 5.8991 3.0649 5.8991 3.0649l.0536-10.67315zm-63.76364 0c.04151 2.52695 3.08904 6.59765 5.73044 7.60825 2.4898.9694 5.885 3.0649 5.885 3.0649l.0278-10.67315zm93.99504 85.77945v-85.77945h-9.7292l-.0275 27.81955s-7.6733-7.707-14.9404-9.1065c-9.3662-1.8098-14.9282-13.1137-15.0691-18.71305h-6.6497l.1102 26.32275-10.2181-7.3058v-19.01695h-16.9659l-.0444 27.81955s-7.7131-7.4168-14.9542-9.1065c-9.86734-2.3022-15.038434-13.1137-15.065941-18.71305v-8.220833h115.000241v82.087083z" transform="matrix(1 0 0 -1.00134 586 95.1268)"/><path d="m40.1671 8.35125c.0566 2.52695 3.1254 6.59765 5.7184 7.60825 2.5121.9694 5.8867 3.0649 5.8867 3.0649l.0411-10.67315zm20.1276 27.97155s-7.6709-7.6994-14.8954-9.1005c-9.3602-1.7871-15.1749-13.1121-15.0374-18.85142h-18.2283l-.3624-.01963v85.77945l-11.421582-11.9132v-82.087083h59.999982z" transform="matrix(1 0 0 -1.00134 508 95.1268)"/><path d="m11.8268 8.36546v85.76544l-11.50852-11.9167v-82.083561h42.94472l.0553 35.906861-9.6539-6.6106-.0156-21.06144z" transform="matrix(1 0 0 -1.00134 370 95.1268)"/><path d="m73.9384 8.35246c.0275 2.52414 3.08 6.59054 5.6954 7.59974 2.5203.9686 5.9196 3.0615 5.9196 3.0615l.0275-10.66124zm-63.8919 0c.0705 2.52414 3.1215 6.59054 5.737 7.59974 2.5065.9686 5.9195 3.0615 5.9195 3.0615l.0445-10.66124zm84.3654 27.78884s-7.7111-7.6987-14.9728-9.0966c-9.3602-1.8078-14.9745-13.0989-15.0986-18.69224h-6.6189l.0843 26.29364-10.2038-7.2978v-18.99584h-17.013l-.0551 27.78884s-7.7388-7.4088-14.9607-9.0966c-9.89093-2.2995-15.055623-13.0989-15.081712-18.69224l-.069088-8.211432h94z" transform="matrix(1 0 0 -1.00134 819 95.1268)"/><path d="m92.0261 8.34964c.0702 2.55366 3.1075 6.58836 5.7249 7.59716 2.509.9682 5.865 3.0741 5.865 3.0741l.058-10.67126zm-81.9642 0c.0534 2.55366 3.1061 6.58836 5.6973 7.59716 2.5075.9682 5.9068 3.0741 5.9068 3.0741l.0137-10.67126zm102.3721 27.79136s-7.648-7.7081-14.8907-9.1055c-9.3458-1.8071-14.8767-13.0944-15.0174-18.68586h-24.2651c-3.6773.51278-4.1537.49606-6.3678 2.11516-2.199 1.5735-2.4205 2.5781-2.4205 6.6746 0 3.569-.3939 6.4125 2.6037 7.8796 2.0478 1.0395 1.866 1.0395 5.9891 1.5174h17.5111v9.2997h-25.4502c-2.9123 0-5.3371-1.5068-7.5101-3.5217-1.5593-1.4325-2.5213-3.2745-3.1184-6.8858-.4735-2.8586-.3925-9.688.3756-12.4768 1.1835-4.08938 1.9501-3.70395 3.6208-4.60216h-12.9542-.0414l-.0717 27.79136s-7.675-7.4182-14.8492-9.1055c-9.87571-2.2987-15.017271-13.0944-15.043243-18.68586l-.057957-8.208659h112.0006z" transform="matrix(1 0 0 -1.00134 1068 95.1268)"/><path d="m32.1355 42.4394c1.0624 3.4173 3.4374-.0291 5.3432-2.1071 0 0-6.4347-1.286-5.3432 2.1071m27.228 14.1964c-.8143.2224-9.8435 15.5449-9.8435 15.5449-3.978-9.2906-2.322-12.3073-2.322-12.3073 11.0606-13.9253-.1514-17.9079-.1514-17.9079s-1.45 4.4565-7.9665 8.5898c-6.5587 4.1699-8.8383-.0624-10.7017-9.4507-1.8633-9.3683 2.7368-8.9981 2.7368-8.9981l12.5226-.1341c4.3776-2.5229-.4297-7.0386-.4297-7.0386s-4.8317-7.0055-22.5888-15.71255c-17.78429-8.685725-17.03961 12.68365-17.03961 12.68365l-2.720106 5.0095c-2.332514-14.975 6.283356-35.98785 29.631816-22.3003 23.3926 13.6161 18.9044 29.9851 18.9044 29.9851 11.8039 7.8402 7.5382 20.4811 7.5382 20.4811s3.2319 1.3057 2.4295 1.5555" transform="matrix(1 0 0 -1.00134 1212 287.383)"/><path d="m10.5276 4.17177-5.63625 4.01055-4.363973-3.88727 5.780483-4.112968z" transform="matrix(1 0 0 -1.00134 1270 278.371)"/><path d="m9.47267 4.21231-5.05806 3.97001-3.94194-3.9022 5.17623-4.098038z" transform="matrix(1 0 0 -1.00134 1261 278.371)"/><path d="m10.5123 4.18328-5.64455 4.00023-4.355715-3.88233 5.763495-4.117903z" transform="matrix(1 0 0 -1.00134 1191 281.375)"/><path d="m12.4782 5.17783-6.78545 4.98327-5.214808-4.88303 6.893918-5.116949z" transform="matrix(1 0 0 -1.00134 1213 205.274)"/><path d="m13.5047 5.69095-7.35026 5.50315-5.649782-5.38467 7.496652-5.615329z" transform="matrix(1 0 0 -1.00134 1152 282.376)"/><path d="m12.3961 5.71937-6.78327 5.46003-5.217007-5.36401 6.881187-5.636211z" transform="matrix(1 0 0 -1.00134 810 214.286)"/><path d="m12.3715 5.18837-6.79232 4.98703-5.20764-4.88637 6.91433-5.113845z" transform="matrix(1 0 0 -1.00134 689 275.367)"/><path d="m10.5078 4.22044-5.66493 3.963-4.335322-3.88591 5.780352-4.114084z" transform="matrix(1 0 0 -1.00134 1181 281.375)"/><path d="m10.4901 4.7108-5.62828 4.49599-4.371953-4.38565 5.790323-4.614615z" transform="matrix(1 0 0 -1.00134 1097 284.379)"/><path d="m10.4872 4.18455-5.65129 3.99916-4.348689-3.88152 5.766749-4.118476z" transform="matrix(1 0 0 -1.00134 1087 283.378)"/><path d="m10.4832 4.17419-5.65157 4.01001-4.348694-3.94186 5.721884-4.058377z" transform="matrix(1 0 0 -1.00134 1068 283.378)"/><path d="m9.43345 4.18961-5.09372 3.99348-3.90628-3.90324 5.15551-4.096993z" transform="matrix(1 0 0 -1.00134 1059 283.378)"/><path d="m10.4823 4.18346-5.65318 3.98367-4.346815-3.8724 5.770475-4.127836z" transform="matrix(1 0 0 -1.00134 1059 206.275)"/><path d="m10.4796 4.18839-5.6597 3.97912-4.34056-3.90534 5.77353-4.0949z" transform="matrix(1 0 0 -1.00134 1049 206.275)"/><path d="m9.3773 4.20088-5.08337 3.96902-3.916857-3.87823 5.186737-4.122005z" transform="matrix(1 0 0 -1.00134 783 214.286)"/><path d="m9.37634 4.19219-5.09797 3.97688-3.902255-3.87136 5.188715-4.128875z" transform="matrix(1 0 0 -1.00134 773 214.286)"/><path d="m12.407 4.67676-6.77295 4.48683-5.227007-4.40824 6.922847-4.591759z" transform="matrix(1 0 0 -1.00134 670 217.29)"/><path d="m12.4052 5.2018-6.74903 4.9782-5.251233-4.87316 6.914993-5.127099z" transform="matrix(1 0 0 -1.00134 663 207.276)"/><path d="m11.3703 4.66999-6.24154 4.49336-4.75847-4.40185 6.35167-4.598146z" transform="matrix(1 0 0 -1.00134 659 217.29)"/><path d="m10.3609 4.21852-5.64907 3.96451-4.350952-3.88308 5.752882-4.116918z" transform="matrix(1 0 0 -1.00134 513 281.375)"/><path d="m10.3599 4.18639-5.6685 3.99702-4.331748-3.89259 5.755198-4.107407z" transform="matrix(1 0 0 -1.00134 503 281.375)"/><path d="m9.301 4.21302-5.07686 3.96923-3.92337-3.89562 5.18172-4.104618z" transform="matrix(1 0 0 -1.00134 395 279.372)"/><path d="m9.29939 4.20614-5.08415 3.97649-3.915852-3.89978 5.189162-4.100222z" transform="matrix(1 0 0 -1.00134 385 279.372)"/><path d="m117.07 66.1843s10.96-14.641 4.24-25.4948c-6.694-10.8749-18.13-7.3585-20.695.416 0 0-12.7463-12.1668-25.1991-12.2643 0 0-13.8468-.5561-16.6076 10.1391-2.7182 10.7422-2.2885 14.3682-2.2885 14.3682s-5.0601-6.0941-7.8789-6.967c0 0 5.3276-13.0505-3.7912-21.8061 0 0-23.2453-21.84145-32.1286-23.806678 0 0-8.2289-1.514411-12.230955.332058 0 0 28.837255 15.43492 41.389355 29.41632 0 0 10.3186 7.8734-1.521 14.3469 0 0-2.1753-.2284-1.7167 6.3746.4203 6.6135 1.605 3.6197 2.4153 2.9311.7796-.6581 6.7903-7.5598 17.1366 8.4845 0 0-.182-24.3275 17.5157-23.6056 0 0 18.4758-.6382 27.3866 10.4318 0 0 .697-15.921 11.589-8.0474 10.892 7.8401 2.915 12.2355.92 14.5299-1.995 2.3067-1.171 3.8775 1.465 10.2214" transform="matrix(1 0 0 -1.00134 1111 282.376)"/><path d="m5.46133 17.1788s-9.63374-10.03989-2.10305-16.718482c0 0 1.79958-1.647368 4.78868 3.025592 0 0 1.84067 2.81256-3.11503 6.401 0 0-2.18668 1.40779.4294 7.29189" transform="matrix(1 0 0 -1.00134 1184 221.295)"/><path d="m5.44484 19.1631s-9.62183-11.22455-2.13019-18.68755c0 0 1.76427-1.83691 4.82872 3.39555 0 0 1.79098 3.13133-3.14621 7.1318 0 0-2.18525 1.5975.44768 8.1602" transform="matrix(1 0 0 -1.00134 1126 194.259)"/><path d="m4.14942 15.1912s-7.21297-8.88312-1.57829-14.744757c0 0 1.33372-1.476353 3.60578 2.668517 0 0 1.36191 2.48945-2.36909 5.64324 0 0-1.57829 1.2533.3416 6.433" transform="matrix(1 0 0 -1.00134 923 281.375)"/><path d="m3.61529 15.1723s-6.05493-8.8539-1.36406-14.755324c0 0 1.12182-1.445446 3.01348 2.684014 0 0 1.13489 2.50013-1.9366 5.61249 0 0-1.34891 1.25884.28718 6.45882" transform="matrix(1 0 0 -1.00134 937 193.258)"/><path d="m4.1461 14.1797s-7.22684-8.25907-1.60981-13.757956c0 0 1.33629-1.388212 3.61271 2.482526 0 0 1.37819 2.31183-2.34516 5.29739 0 0-1.63522 1.1617.34226 5.97804" transform="matrix(1 0 0 -1.00134 816 284.379)"/><path d="m4.73465 13.1826s-8.4425-7.66787-1.85552-12.777645c0 0 1.60096-1.285673 4.19398 2.323395 0 0 1.61343 2.13395-2.73436 4.88433 0 0-1.91298 1.07656.3959 5.56992" transform="matrix(1 0 0 -1.00134 591 278.371)"/><path d="m10.0701 10.7738s-3.69369 4.0421-.41225 7.3551c3.29215 3.3251 8.59115-1.7621 4.10455-9.58727 0 0-5.57455-10.17428-13.273584-8.099342 0 0 8.484504 3.612572 9.581284 10.331512" transform="matrix(1 0 0 -1.00134 1236 196.262)"/><path d="m9.95325 8.57214s-5.34456-1.756-6.25198-1.40938c-.86743.35878-4.661947 4.56264 1.99677 8.56044 0 0 6.16766 2.08 9.01356-2.7944 0 0 2.9039-5.08924-2.8047-10.01206-5.66576-4.92902-11.456801-1.73502-11.456801-1.73502s8.763911.03027 9.503151 7.39042" transform="matrix(1 0 0 -1.00134 1012 190.254)"/><path d="m10.0142 8.55748s-5.37108-1.75509-6.2802-1.40235c-.90935.33174-4.698167 4.55237 1.97325 8.56587 0 0 6.16695 2.0854 9.05105-2.7957 0 0 2.8795-5.1341-2.8012-10.04546-5.64885-4.90372-11.469101-1.67043-11.469101-1.67043s8.755011.00621 9.526201 7.34807" transform="matrix(1 0 0 -1.00134 1187 188.251)"/><path d="m9.96085 8.56544s-5.31233-1.74343-6.23101-1.3904c-.90785.33323-4.698102 4.54686 1.95169 8.53966 0 0 6.16077 2.107 9.03087-2.7961 0 0 2.8732-5.10597-2.815-10.03928-5.64425-4.89849-11.4596-1.67211-11.4596-1.67211s8.75576.02886 9.52305 7.35823" transform="matrix(1 0 0 -1.00134 957 193.258)"/><path d="m9.90627 9.08793s-5.33227-1.87758-6.22428-1.48217c-.90718.36023-4.71712 4.83204 1.95388 9.09194 0 0 6.15393 2.231 9.05783-2.9547 0 0 2.8597-5.44767-2.8044-10.66855-5.66743-5.23075-11.473898-1.78771-11.473898-1.78771s8.751868.03063 9.490868 7.80119" transform="matrix(1 0 0 -1.00134 848 193.258)"/><path d="m9.93384 8.57113s-5.35837-1.75476-6.26532-1.42312c-.90719.3798-4.687 4.58569 1.99602 8.56879 0 0 6.11256 2.0999 9.01436-2.7948 0 0 2.8741-5.09736-2.8069-9.99947-5.66281-4.95075-11.466341-1.72591-11.466341-1.72591s8.734441.03481 9.528181 7.37451" transform="matrix(1 0 0 -1.00134 802 192.256)"/><path d="m9.88634 8.54187s-5.33503-1.70861-6.25667-1.36379c-.8944.34458-4.69479 4.53622 1.98291 8.55112 0 0 6.14482 2.0701 9.03582-2.8142 0 0 2.8665-5.09586-2.7929-10.015-5.67189-4.91128-11.481248-1.71004-11.481248-1.71004s8.757078.06953 9.512088 7.35191" transform="matrix(1 0 0 -1.00134 650 194.259)"/><path d="m11.1146 9.63124s-6.03829-1.98377-7.07406-1.58576c-1.01075.38571-5.31544 5.11742 2.24445 9.62862 0 0 6.97421 2.3314 10.24331-3.1489 0 0 3.2378-5.7541-3.1678-11.28184-6.4231-5.54004-13.014182-1.90735-13.014182-1.90735s9.930382.03664 10.768282 8.29523" transform="matrix(1 0 0 -1.00134 489 195.26)"/><path d="m25.0283 18.4742-24.553753-18.309442 1.446463 4.667992 24.55379 18.33205z" transform="matrix(1 0 0 -1.00134 1147 197.263)"/><path d="m25.9218 18.4729-25.509365-18.307819 1.462695 4.677449 25.53757 18.32277z" transform="matrix(1 0 0 -1.00134 769 199.266)"/><path d="m33.4301 24.8141-33.065158-24.645684 1.938398 6.300244 33.06186 24.70004z" transform="matrix(1 0 0 -1.00134 603 213.284)"/><path d="m31.2004 19.669-30.876975-19.49583 2.107475 5.5277 30.8925 19.47233z" transform="matrix(1 0 0 -1.00134 381 210.28)"/><path d="m28.4995 14.1596-28.164305-13.969408 2.851075 6.016828 28.14913 13.98338z" transform="matrix(1 0 0 -1.00134 456 285.38)"/><path d="m25.3252 12.772-24.855994-12.58947 2.118234 4.42274 24.88176 12.57723z" transform="matrix(1 0 0 -1.00134 1110 270.36)"/><path d="m10.7162 8.1208-10.230672-7.935133.755792 3.086693 10.24418 7.91354z" transform="matrix(1 0 0 -1.00134 1219 265.354)"/><path d="m14.3701 10.9698-13.975949-10.79643 1.048729 4.18136 13.95152 10.81867z" transform="matrix(1 0 0 -1.00134 736 194.259)"/><path d="m19.4547 14.0771s-1.7815 3.6535-3.6447.6596c-1.1151-1.7658-1.4132-2.7873-1.9036-4.3327-.3547-1.08677-.5993-2.86613-1.0198-5.24222 0 0-3.84565 11.76202-9.01533 14.24692-5.15465 2.4565-2.991895-1.7925-2.82921-2.7932.15047-.996 1.82143-5.7649 3.97104-5.5205 2.72052.2916 4.54195-3.33955 4.52716-6.60919-.02535-5.036806 1.51154-4.725669 3.84874-3.7252 1.197.4959 1.4416 4.64384 2.2569 8.20375.4352 1.79254.8021 2.91204 1.3594 3.76084 1.5921 2.1885 1.9454 1.2298 2.4494 1.3519" transform="matrix(1 0 0 -1.00134 1083 194.259)"/><path d="m20.4519 14.0736s-1.8774 3.6659-3.8383.6655c-1.1459-1.751-1.4739-2.7652-1.9904-4.3197-.3878-1.08549-.6452-2.90518-1.0314-5.27126 0 0-4.10997 11.79776-9.55101 14.26516-5.42843 2.4643-3.122372-1.8077-2.99357-2.8011.1555-1.0184 1.93251-5.7447 4.20865-5.5123 2.8932.3112 4.78493-3.33548 4.75503-6.60249-.04081-5.038863 1.5903-4.726279 4.0833-3.742096 1.2306.507916 1.5006 4.659456 2.3768 8.224036.4284 1.76455.7723 2.90685 1.4017 3.75105 1.6625 2.2188 2.0487 1.221 2.5792 1.3432" transform="matrix(1 0 0 -1.00134 958 223.298)"/><path d="m17.3945 13.4323s-1.6061 3.4825-3.2677.591c-.9822-1.6659-1.2822-2.5892-1.6898-4.10208-.2986-1.02442-.5583-2.7267-.8988-4.97468 0 0-3.48557 11.17466-8.11629 13.52516-4.57524 2.3414-2.64072-1.6945-2.516829-2.6604.121069-.9453 1.618329-5.4285 3.578239-5.2197 2.41245.2751 4.06041-3.16482 4.03055-6.28061-.02374-4.816598 1.34963-4.490977 3.46023-3.553699 1.0765.453829 1.2779 4.420019 2.0288 7.777549.3688 1.72466.6524 2.79966 1.1839 3.57736 1.4314 2.0993 1.745 1.1621 2.2077 1.3201" transform="matrix(1 0 0 -1.00134 788 282.376)"/><path d="m17.3158 13.3924s-1.5937 3.4832-3.2546.628c-.9654-1.683-1.2384-2.6415-1.7129-4.12071-.273-1.0171-.5179-2.76332-.8715-4.97787 0 0-3.48567 11.19608-8.0995 13.54188-4.62887 2.3363-2.668095-1.7179-2.545665-2.6527.137236-.9397 1.605465-5.4637 3.567645-5.2405 2.43522.2514 4.08133-3.17307 4.0677-6.29884-.04018-4.783322 1.33405-4.451265 3.41722-3.548009 1.0758.482519 1.3207 4.435319 2.0414 7.806209.3819 1.69414.682 2.79044 1.1996 3.57014 1.4147 2.1212 1.7265 1.1833 2.1906 1.2924" transform="matrix(1 0 0 -1.00134 405 224.299)"/><path d="m19.3915 14.0888s-1.7791 3.678-3.644.6525c-1.1111-1.7751-1.4109-2.7702-1.8931-4.3087-.3276-1.10229-.5837-2.9071-1.0096-5.28792 0 0-3.85956 11.79842-9.04082 14.26332-5.167 2.4775-2.963457-1.7891-2.847946-2.7687.157536-.9887 1.835146-5.7536 3.999856-5.4919 2.71843.2709 4.54276-3.3806 4.52875-6.65525-.02949-5.027952 1.47956-4.715053 3.84236-3.741782 1.1968.490432 1.4529 4.658902 2.2627 8.196912.4294 1.80312.7835 2.95532 1.3672 3.77122 1.5811 2.2143 1.9367 1.2209 2.4346 1.3703" transform="matrix(1 0 0 -1.00134 689 198.264)"/><path d="m15.3271 15.9716s-2.0089 4.1596-4.1007.7281c-1.2096-1.9834-1.56707-3.1202-2.11762-4.8877-.40116-1.2112-.81276-4.28259-1.25168-6.96335 0 0-1.12818 12.73845-4.18233 18.07585-2.34067 4.1383-3.399495 1.497-3.262214.3755.152482-1.1308-.867152-9.7949 1.570184-9.5396 3.05249.3191 3.07957-4.65642 3.05249-8.38139-.04061-5.711204.92154-5.842119 3.49592-4.530335 1.08757.572725 1.62435 5.281115 2.54275 9.316025.4556 2.0379.8401 3.3404 1.5023 4.2766 1.7735 2.5075 2.1868 1.4059 2.7509 1.5303" transform="matrix(1 0 0 -1.00134 446 207.276)"/><path d="m12.4437 9.21039s-1.1127 2.39071-2.2964.43909c-.70006-1.15215-.87625-1.79386-1.17908-2.79599-.21982-.70966-.41095-1.90345-.67441-3.44842 0 0-2.40194 7.68103-5.69955 9.26933-3.257053 1.6283-1.870286-1.1582-1.785865-1.8063.109793-.6263 1.138245-3.74551 2.513165-3.58307 1.74674.1902 2.88664-2.16647 2.87147-4.29445-.04198-3.295482.96229-3.0633962 2.44558-2.426316.72729.321707.90633 3.017126 1.41379 5.330436.2741 1.12755.494 1.88981.8373 2.45432 1.0043 1.41029 1.2379.79952 1.554.86137" transform="matrix(1 0 0 -1.00134 1014 234.312)"/><path d="m7.43632 3.21939s-2.91863 3.15742-3.76207 6.96721c0 0-2.64784-1.41922-3.193659-3.66267-.190023-.86761.258544-1.82184.778929-2.90318 1.60895-3.377496 2.54941-4.61548 4.09102-2.1056 1.69114 2.72825 2.08578 1.70424 2.08578 1.70424" transform="matrix(1 0 0 -1.00134 997 276.368)"/><path d="m45.5717 21.1921s2.7321-5.9028-1.4914-8.9124c0 0-3.4288-2.32265-5.7987.5326 0 0-3.8046-5.48515-9.2277-.6713 0 0-2.2307.0174-5.27-4.81385 0 0-6.3137-10.3196-23.343066-6.13776 0 0 17.489466 1.0055 25.185766 11.51571 0 0 3.345 4.3096 9.4476 1.4435 1.4226-.0286 1.771 1.0541 2.6084 2.6661.9474 1.1787 1.4347 1.3378 4.8377.6554.4309.0394 2.2843-.5326 3.0514 3.722" transform="matrix(1 0 0 -1.00134 940 283.378)"/><path d="m38.6255 17.1831s2.3219-4.7692-1.2507-7.21302c0 0-2.9022-1.90065-4.9041.40522 0 0-3.2539-4.42127-7.8106-.54012 0 0-1.9181.02386-4.5032-3.88706 0 0-5.3506-8.33498-19.789831-4.961058 0 0 14.841631.812948 21.360331 9.311638 0 0 2.8353 3.5105 8.0042 1.1522 1.1974 0 1.487.903 2.2379 2.1886.7649.9363 1.2097 1.0788 4.0707.5387.3901.0224 1.9471-.4304 2.5853 3.0049" transform="matrix(1 0 0 -1.00134 601 283.378)"/><path d="m13.4331 58.3838s-.8515 6.4839-9.47414 23.7912c0 0-4.286693-4.7352-3.40721-6.977 0 0 1.69099-5.4779 2.84074-8.0319 0 0 3.97975-38.7146 3.92322-44.6734 0 0 .14997-18.08955-1.87927-22.317724 0 0 8.03796 4.707564 5.31616 33.198824-2.7055 28.4606-2.48756 28.7238-2.48756 28.7238s3.13716-3.012 5.16806-3.7138" transform="matrix(1 0 0 -1.00134 993 258.344)"/><path d="m4.69625 23.1667s6.70875-9.3715 2.12447-23.000266c0 0-1.74985 11.506066-5.36227 13.565566-3.56973 2.0607 3.2378 9.4347 3.2378 9.4347" transform="matrix(1 0 0 -1.00134 899 199.266)"/><path d="m3.05007 14.1628s4.1922-5.69132 1.29364-14.000265c0 0-1.07002 6.992735-3.31933 8.255315-2.26339 1.26866 2.02569 5.74495 2.02569 5.74495" transform="matrix(1 0 0 -1.00134 600 191.255)"/><path d="m9.09073 11.11 1.40067 2.2321s4.4893-5.6556-.2368-11.314c-5.2319-6.30388-9.353686 5.4734-9.353686 5.4734s-3.284064 12.8363 7.278006 24.6709c0 0-5.56842-8.3345-4.32153-18.5369.35349-2.7105 1.38975-3.71672 2.97343-4.88544 0 0 5.45628-3.47018 2.25991 2.35994" transform="matrix(1 0 0 -1.00134 852 247.33)"/><path d="m6.9583 6.99317 1.04105 1.41431s3.36145-3.50279-.18671-7.06088c-3.88973-3.92817-7.002969 3.4115-7.002969 3.4115s-2.481441 8.0044 5.406369 15.4321c0 0-4.16659-5.2006-3.20846-11.57164.28032-1.6884 1.08357-2.33577 2.23188-3.06823 0 0 4.12218-2.16884 1.71884 1.44284" transform="matrix(1 0 0 -1.00134 758 285.38)"/><path d="m10.2437 8.32106 1.097-1.91355s.2769-4.56729-2.23636-5.662866c-4.61997-2.008984-6.89701 1.634316-8.366727 4.310606-1.457259 2.68077 1.303697 15.24965 6.354157 21.10955 0 0-4.3689-10.5376-3.4394-17.11531.24795-1.57931 1.45726-6.60918 4.67459-5.28819 0 0 2.18004.88497 1.91674 4.55976" transform="matrix(1 0 0 -1.00134 544 213.284)"/><path d="m4.09568 11.1857s-.39809-5.28848-1.29203-5.49228c-.93323-.21467-2.403129 1.85523-2.403129 1.85523s-.58721-6.852487 2.365389-7.343158c2.9398-.496707 3.36151 8.419638 1.32977 10.980208" transform="matrix(1 0 0 -1.00134 710 276.368)"/><path d="m3.72722 16.1835s-5.71288-2.8864-.40121-4.9707c0 0-5.19511-8.56735-1.85745-10.494347 4.01076-2.297663 6.88155 3.549597 6.88155 3.549597s-4.94722-3.893091-5.53088-1.07005c-.63768 2.94103.79144 8.1178 2.84366 9.2453 0 0-5.893754-.769-1.93567 3.7402" transform="matrix(1 0 0 -1.00134 667 278.371)"/><path d="m1.14739 17.2604s-.304316 4.5729 1.55146 3.8315c2.38025-.9616 3.2732-3.4305 2.16536-4.2873-1.09531-.8388-2.67468-.6517-2.95372-1.1517-.3041-.518-.39485-4.4088.27904-7.32295.68795-2.89859.65016-5.61511-.5972-8.156968 0 0 .16611 6.277848-.863511 11.911118-1.08411 5.6259.418571 5.1763.418571 5.1763" transform="matrix(1 0 0 -1.00134 631 228.304)"/><path d="m2.66177 18.2664s-1.32776 7.1165 1.77027 5.7448c3.97007-1.79 6.22426-5.8512 4.07891-7.4265-1.75846-1.287-4.46701-.358-5.00376-.8705-.53675-.5076-1.15432-2.1201-.14704-5.5053 1.15432-3.82679.56315-7.48075-1.91893-10.022277 0 0 1.07351 5.666237-.629143 12.197777-1.730671 6.7355 1.849693 5.882 1.849693 5.882" transform="matrix(1 0 0 -1.00134 558 282.376)"/><path d="m129.051 66.6247s8.815-8.3275 1.542-21.0947c-7.301-12.7275-12.812-2.1342-12.812-2.1342s-6.468-7.7479-9.84-4.7416c0 0-1.777 1.392-5.954 5.5757 0 0-4.011-2.0511-5.8155-4.0656 0 0-10.3013-9.5448-20.8213-.733 0 0-1.9843 2.3211-4.7473 6.7073 0 0-8.9105-14.3511-15.2554-6.0511 0 0-4.3563 5.2783-8.3141 11.9932 0 0-2.5104 6.195-8.6044-1.0778 0 0-9.8415-7.4461-5.0654-10.7131 0 0 8.3398-5.5649 16.1561-7.6959 0 0 14.56-5.6446-6.5943-23.52324 0 0-38.6422-29.39016-42.456705 18.72634 0 0 .49745 12.3458 6.340325 17.9843l-.63906-5.47s-4.49622-10.4446-.15048-19.8714c4.32872-9.4405 8.25612-18.64803 32.33952-7.1901 0 0 7.4284 4.708 9.0504 8.602 1.6371 3.8879-6.7589 4.1745-6.7589 4.1745s-14.9753 2.4392-13.0885 12.7336c1.8592 10.2715 2.4968 12.7812 12.7554 22.7613 0 0 8.495 8.3736 12.9485-8.8319 0 0 2.7221-9.3992 9.7442-6.0494 0 0 8.0217 2.2167 3.693 12.8101 0 0-4.9012 13.537-4.4843 15.369.417 1.7984 3.4419 6.3652 3.4419 6.3652s5.8034-27.5 15.1595-34.4876c0 0 11.9642-5.5864 23.4278 6.6779 0 0 .931-7.3785 5.123-7.6284 0 0 6.634-.2943 11.506 12.2507 0 0-2.29-12.5865 2.526-10.7821 0 0 10.228 2.4331 4.859 6.356 0 0-3.652 2.2859-2.111 6.2151 0 0 2.123 3.9155 2.9 6.8389" transform="matrix(1 0 0 -1.00134 1009 289.386)"/><path d="m98.5119 50.6484s8.1051-10.4082 1.0252-22.6967c0 0-6.457-10.3161-11.7353 2.1042 0 0-6.3461-8.0294-10.3789-5.2204 0 0-3.4359 1.0582-5.6536 5.5552 0 0-18.0678-11.8752-24.9258-9.5699 0 0-5.5443-.0905-12.6226 13.3681 0 0-1.0951-24.93899-17.1548-32.52003 0 0-7.95479-3.34669-16.628116-.01378 0 0 27.505216 9.55441 30.596216 26.73121 3.1307 17.1493-2.6612 48.6648-3.3659 50.7521-.7231 2.0518-.5848 2.76.9387 7.2016 1.5524 4.483 3.8124 6.8375 3.8124 6.8375s1.9534-36.9878 3.8369-45.4364c0 0 5.655-27.0401 26.091-16.7361l12.9005 7.7837c-.3739-2.9135-1.9536-10.3378 4.0328-8.2936 5.3893 1.8431 11.278 10.3594 11.278 10.3594s-.969-9.6098 2.0507-9.1046c2.9803.4622 8.7017 3.494 3.7974 8.8879 0 0-1.7878 1.7463-.5559 4.3081 1.1922 2.5572 2.6611 5.7025 2.6611 5.7025" transform="matrix(1 0 0 -1.00134 893 278.371)"/><path d="m2.3301 77.1777s10.3858-17.2782 11.9556-19.0983c1.5148-1.7349-5.49255 1.0647-5.49255 1.0647s4.11635-13.2224 16.62655-25.1757c12.5407-11.9291 18.2676-24.9534 17.9902-33.790662 0 0-12.4706 21.472962-21.8109 28.615162 0 0-10.5655 8.0359-16.79384 32.6784l-3.36351 4.347s-2.8101 1.3634.88845 11.3594" transform="matrix(1 0 0 -1.00134 877 253.338)"/><path d="m49.1622 38.6794s-.8874 4.5713.6519 5.3806c.8995.4819 6.2654-2.6374 6.542-4.5925.3602-2.4969-2.4117-1.5207-7.1939-.7881m9.5919 6.811c-1.7324 2.2673-2.857 2.5258-5.1697 3.768-9.2606 4.8147-8.0117-10.7105-8.0117-10.7105s.2341-.9194-1.0683-1.3615c-6.5997-2.2659-21.8887-22.2366-21.8887-22.2366-10.7286-12.75763-17.12013-5.65446-17.12013-5.65446-9.78644 14.32106 9.63303 27.81306 9.63303 27.81306-23.13647-11.2599-12.05822-33.96626-12.05822-33.96626 9.92312-10.04197 26.03262 8.40226 28.77702 12.12886 2.7308 3.7726 8.3322 12.9504 16.359 17.0733 1.0805.5997.9268.7467 3.5755 1.1919.2645.1421 5.6547-.3122 7.8308 1.4532 3.7977 3.0063.6655 8.4847-.8586 10.501" transform="matrix(1 0 0 -1.00134 845 286.382)"/><path d="m8.86971 65.3962s1.53059 5.8545-5.36784 17.7818c0 0-3.599766-4.7564-3.035733-6.8464.552123-2.0915 1.131403-3.0941 1.131403-3.0941s-1.32648-23.0768.9106-36.0237c2.17943-12.295 4.00206-29.63721 1.71068-37.035798 0 0 9.02188 9.210088 3.26987 40.240498 0 0-2.49695 22.7954-1.72426 28.1132 0 0 1.49131-1.2349 3.10528-3.1355" transform="matrix(1 0 0 -1.00134 828 260.347)"/><path d="m8.85831 65.4061s1.50449 5.8205-5.40571 17.7719c0 0-3.627623-4.7963-2.993968-6.8707.551978-2.0514 1.131098-3.0957 1.131098-3.0957s-1.351841-23.0755.92536-35.9863c2.17744-12.3328 3.95719-29.67408 1.67999-37.04755 0 0 8.99552 9.17422 3.29924 40.25215 0 0-2.53866 22.7449-1.75237 28.0903 0 0 1.47567-1.2288 3.11636-3.1141" transform="matrix(1 0 0 -1.00134 723 259.346)"/><path d="m69.1436 28.6294s7.8384-10.3755 2.2661-21.7583c-5.5458-11.36134-15.4388-3.73391-15.4388-3.73391s-2.9389 3.86868-3.5328 7.97321c0 0-7.5283-11.765468-24.2445-10.892928-16.7332.839028-22.15096 9.622288-21.87036 24.019528.26844 14.3927-2.89706 37.898-5.447199 44.7966 0 0-2.122561 2.4021 2.690559 11.1378 0 0 6.42988-11.9202 6.17674-45.8359 0 0-.35177-24.71924 14.09996-25.69135 3.056-.22206 6.1367-.25123 8.6837-.07523 10.0766.64157 16.1686 3.49238 23.8095 11.08288 0 0-5.1216-12.80819 6.2647-12.41013 11.3973.40408 5.1061 10.78123 3.2906 11.96143-1.8298 1.2219.0277 4.2868 3.2518 9.4263" transform="matrix(1 0 0 -1.00134 754 257.343)"/><path d="m38.3336 66.1846s8.6428-10.941 9.1843-16.7555l-1.475.2199s7.8496-12.316-5.1617-27.4612c0 0-12.8988-13.81722-22.7085-20.33064 0 0-7.723-2.98249-17.782827-.982543 0 0 37.722527 15.559283 44.345827 35.033083 0 0 3.0065 3.0217-6.0802 12.4555 0 0-3.5754 3.748-2.503 8.8379 1.0966 5.0777.9426 4.5712 2.1811 8.9835" transform="matrix(1 0 0 -1.00134 707 287.383)"/><path d="m88.8365 24.6956c3.5045 1.1784 6.6392 1.1647 7.7142 1.3234 1.0474.174 4.2123-.0428 2.231-2.2502-1.9787-2.2056-3.9467-3.2011-3.9467-3.2011-3.1102 4.1279-5.9985 4.1279-5.9985 4.1279m29.9615 15.3049c-5.925-9.3378-2.022-11.4689-2.022-11.4689 12.553-14.2775-3.485-20.27826-9.19-21.22928-5.76-1.01063-10.5186 9.65818-10.5186 9.65818s5.7736 4.3736 6.3896 4.5676c.586.1541 10.935 10.6398-5.6648 10.6398-16.5842-.0428-19.9328-5.2712-22.8488-9.5256-2.8716-4.2406 2.0949-3.7872 2.0949-3.7872 9.4985 1.2883 11.4649-2.6607 11.4649-2.6607v-.519c-13.2646-18.18251-22.4696.7144-22.4696.7144-8.4251-14.09905-13.0154-1.4121-13.0154-1.4121-14.3792-16.12007-16.0689 1.7052-16.0689 1.7052-6.6805-5.9184-15.1315-6.3992-15.1315-6.3992s-11.7739 1.0104-14.07518 10.73c-2.35789 9.7954-1.2141 22.7589-1.2141 22.7589 1.54737 23.745.26608 35.3983.26608 35.3983-3.94813-5.7731-7.142312-10.3618-6.276884-13.7692.893124-3.4423.474132-19.1701.474132-19.1701-1.590231-27.3277 7.377572-38.85908 7.377572-38.85908 12.87648-15.6636 24.88548 1.12963 24.88548 1.12963 1.1853-2.56913 3.4589-4.48486 3.4589-4.48486 5.7876-4.149028 13.5858 3.61318 13.5858 3.61318s1.7706-3.93988 5.8302-4.30168c4.0719-.38464 7.8809 5.37481 7.8809 5.37481 4.3242-7.3867 11.396-6.93644 11.396-6.93644 6.6378-.2351 16.8351 11.65664 16.8351 11.65664 7.3516-21.95768 24.1742-10.00655 24.1742-10.00655 18.659 16.41945 2.382 36.58325 2.382 36.58325" transform="matrix(1 0 0 -1.00134 584 259.346)"/><path d="m193.804 12.4136c-2.741-.0779-8.423 2.9233-8.423 2.9233s-1.783.3651 3.065 5.6588c0 0 3.619-.4673 7.156-6.8013 0 0 .89-1.7257-1.798-1.7808m-.082 16.4202c-2.508 1.3563-6.837-2.9141-6.837-2.9141-4.038-4.0184-4.456-5.8144-6.461-8.8736-1.949-3.0592-7.395-6.0956-11.766-5.2037-4.359.9058-6.6 3.1554-6.573 7.2517.055 4.1024-1.476 21.7259-2.799 29.4313-1.295 7.7114-1.56 31.6461-1.56 31.6461-6.21-5.5855-4.873-9.6818-4.873-9.6818-.684-11.6059 3.078-30.7982 3.078-30.7982 5.525-23.1541-2.757-25.3152-2.757-25.3152-6.321-1.9627-10.012 9.3363-10.012 9.3363-3.803 14.2378-9.694 29.3399-9.694 29.3399-7.615-12.072-3.159-16.9135-3.159-16.9135 6.684-12.6905 4.649-26.0164-3.647-27.16029-8.286-1.08741-3.345 16.80959-3.345 16.80959-.751-1.0171-2.952-13.1455-15.761-15.7436-12.8113-2.633-3.216 15.0594-3.216 15.0594-5.3197-6.9446-11.9903-14.6087-23.8541-13.7856-11.8761.8019-1.8243 17.1091-1.8243 17.1091-16.5714-19.85971-32.9459-19.01668-32.9459-19.01668-20.1787-.29945-12.241 15.36028-12.241 15.36028-7.4216-8.1362-16.8492-15.79249-23.4054-13.1181-6.61584 2.6193-4.30327 30.4622-4.30327 30.4622 3.48038 21.1854-.12669 41.0528-.12669 41.0528-6.377582-7.2808-5.206876-11.2487-5.206876-11.2487 2.911136-11.9757 1.433456-26.16 1.433456-26.16-3.88497-38.4593 1.82409-41.23902 1.82409-41.23902 7.42179-12.03815 21.72339 7.67022 21.72339 7.67022 1.4623-5.81747 6.393-9.48159 6.393-9.48159 12.74-9.8571 36.9821 12.14229 36.9821 12.14229 1.2531-10.45142 7.1162-12.37897 7.1162-12.37897 9.1635-1.44939 18.1027 7.52355 18.1027 7.52355 1.4609-3.79088 4.9136-6.89723 4.9136-6.89723 6.42-5.88486 15.821 4.8155 15.821 4.8155 1.308-7.3571 6.864-7.427332 6.864-7.427332 10.247-1.461656 16.975 14.010182 16.975 14.010182 3.744-4.2659 2.534-4.61249 8.2-9.80248 5.681-5.176046 12.032 2.63324 12.813 2.79343.751.14527 2.826-3.59509 7.196-5.37905 4.346-1.742825 11.936 5.6999 12.673 6.86981.752 1.21269 1.879.57124 1.879.57124.988-.22465 11.183-7.39824 16.223-1.96411 5.055 5.41896-2.06 20.23536-3.843 21.24796" transform="matrix(1 0 0 -1.00134 370 257.343)"/><path d="m.324844 7.10243h3.760796v27.10397h-3.760796v6.9459h13.999956v-6.9459h-3.775v-27.10397h3.775v-6.950376h-13.999956z" transform="matrix(1 0 0 -1.00134 370 164.219)"/><path d="m.323018 7.10243h3.269942v27.10397h-3.269942v6.9459h10.180982l8.9559-25.5966h.0856v18.6507h-3.1702v6.9459h10.9477v-6.9459h-3.4258v-34.054346h-5.4599l-10.421 30.144346h-.08714v-23.19397h3.05644v-6.950376h-10.662582z" transform="matrix(1 0 0 -1.00134 385 164.219)"/><path d="m22.3298 24.6796h-4.2197v9.5296h-3.64v-27.10394h3.64v-6.950378h-13.59117v6.950378h3.64291v27.10394h-3.64291v-9.5296h-4.189085v16.4755h21.999955z" transform="matrix(1 0 0 -1.00134 413 164.219)"/><path d="m.32701 7.10243h2.81022v27.10397h-2.81022v6.9459h20.99999v-12.9802h-4.5361v6.0343h-7.44697v-9.4054h6.00057v-6.9459h-6.00057v-10.75267h7.44697v6.09107h4.5361v-13.041446h-20.99999z" transform="matrix(1 0 0 -1.00134 437 164.219)"/><path d="m12.3816 24.727c2.7852 0 3.6088 2.663 3.6088 4.8408 0 1.6796-.5874 4.6417-2.9385 4.6417h-3.17499v-9.4825zm12.9541-24.572129h-7.3023l-5.4141 17.998029h-2.74239v-11.04676h3.00789v-6.951269h-12.549306v6.951269h3.274516v27.10336h-3.274516v6.9454h14.941906c4.661 0 7.2193-5.2508 7.2193-11.4718 0-4.7046-1.3437-8.0141-4.1411-10.1995l3.9034-12.37746h3.0767z" transform="matrix(1 0 0 -1.00134 460 164.219)"/><path d="m.344258 7.10243h3.281982v27.10397h-3.281982v6.9459h10.198242l8.9341-25.5966h.0701v18.6507h-3.153v6.9459h10.9506v-6.9459h-3.4644v-34.054346h-5.4403l-10.4101 30.144346h-.10126v-23.19397h3.08286v-6.950376h-10.666842z" transform="matrix(1 0 0 -1.00134 486 164.219)"/><path d="m12.0104 32.5248h-.0535l-2.11403-12.3708h4.04843zm12.3251-32.368739h-11.3111v6.950379h2.9129l-1.0825 6.98926h-6.01399l-1.28588-6.98926h3.11327v-6.950379h-10.332701v6.950379h2.912651l4.54899 27.10396h-3.11488v6.9459h15.15634v-6.9459h-3.116l4.862-27.10396h2.7509z" transform="matrix(1 0 0 -1.00134 513 164.219)"/><path d="m22.3562 24.6796h-4.2047v9.5296h-3.6417v-27.10394h3.6417v-6.950378h-13.59061v6.950378h3.64169v27.10394h-3.64169v-9.5296h-4.204711v16.4755h22.000021z" transform="matrix(1 0 0 -1.00134 537 164.219)"/><path d="m.339978 7.10243h3.499832v27.10397h-3.499832v6.9459h13.000022v-6.9459h-3.50286v-27.10397h3.50286v-6.950376h-13.000022z" transform="matrix(1 0 0 -1.00134 561 164.219)"/><path d="m7.1412 21.4483c0-8.0814 2.71649-13.65651 6.6926-13.65651 3.3417 0 6.7362 4.30371 6.7362 13.89891 0 8.6088-2.9415 13.8241-6.7362 13.8241-3.1819 0-6.6926-3.9789-6.6926-14.0665m20.2221.1738c0-10.6869-4.3439-21.465088-13.5295-21.465088-9.09857 0-13.47051 10.651588-13.47051 21.465088 0 11.1318 4.52708 21.5352 13.47051 21.5352 9.0586 0 13.5295-10.4659 13.5295-21.5352" transform="matrix(1 0 0 -1.00134 577 165.22)"/><path d="m.356045 7.10243h3.159075v27.10397h-3.159075v6.9459h9.821655l8.6148-25.5966h.054v18.6507h-3.0346v6.9459h10.5444v-6.9459h-3.3255v-34.054346h-5.2519l-10.02407 30.144346h-.06729v-23.19397h2.93996v-6.950376h-10.271455z" transform="matrix(1 0 0 -1.00134 606 164.219)"/><path d="m12.0282 32.5248h-.0683l-2.08598-12.3708h4.05138zm12.3321-32.368739h-11.3011v6.950379h2.9133l-1.098 6.98926h-6.01666l-1.27623-6.98926h3.10509v-6.950379h-10.32664v6.950379h2.91323l4.5521 27.10396h-3.13034v6.9459h15.17865v-6.9459h-3.1154l4.864-27.10396h2.738z" transform="matrix(1 0 0 -1.00134 633 164.219)"/><path d="m.384268 7.10243h3.511602v27.10397h-3.511602v6.9459h13.517132v-6.9459h-3.5979v-27.10397h7.2652v12.67917h4.8158v-19.629546h-22.000232z" transform="matrix(1 0 0 -1.00134 658 164.219)"/><path d="m.366328 7.10243h3.506772v27.10397h-3.506772v6.9459h12.999972v-6.9459h-3.47893v-27.10397h3.47893v-6.950376h-12.999972z" transform="matrix(1 0 0 -1.00134 690 164.219)"/><path d="m.63011 15.0004h4.01787c-.06839-4.5042 1.59285-7.59573 3.65655-7.59573 1.441 0 2.63307 1.97217 2.63307 4.52713 0 7.6725-10.556426 6.5944-10.556426 19.7938 0 8.1558 3.478876 11.4314 6.386706 11.4314 1.88291 0 3.39522-1.2745 4.36412-3.883h.082v3.4475h3.989v-12.7364h-3.989c-.3326 3.8247-1.60812 6.1956-3.4334 6.1956-1.38624 0-2.34301-1.4338-2.34301-3.4197 0-6.7925 10.94381-5.2541 10.94381-20.0977 0-10.02819-4.3627-12.506319-6.8848-12.506319-2.10626 0-3.72781 1.366459-4.76516 4.085369h-.08346v-3.524101h-4.01787z" transform="matrix(1 0 0 -1.00134 705 165.22)"/><path d="m.398627 7.10243h3.498263v27.10397h-3.498263v6.9459h13.508473v-6.9459h-3.5846v-27.10397h7.2433v12.67917h4.8331v-19.629546h-22.000273z" transform="matrix(1 0 0 -1.00134 723 164.219)"/><path d="m12.5463 32.5248h-.0712l-2.1738-12.3708h4.2223zm12.8531-32.368739h-11.7646v6.950379h3.0224l-1.1163 6.98926h-6.29885l-1.32991-6.98926h3.24986v-6.950379h-10.762833v6.950379h3.022643l4.75807 27.10396h-3.26088v6.9459h15.8043v-6.9459h-3.247l5.0989-27.10396h2.8242z" transform="matrix(1 0 0 -1.00134 745 164.219)"/><path d="m.399521 7.10243h3.150969v27.10397h-3.150969v6.9459h12.055479l5.2781-24.0278 5.4712 24.0278h12.1553v-6.9459h-3.0956v-27.10397h3.1355v-6.950376h-12.373v6.950376h3.1599v27.10397h-.5738l-7.5157-34.054346h-2.6045l-7.51721 34.054346h-.56025v-27.10397h3.16306v-6.950376h-10.178479z" transform="matrix(1 0 0 -1.00134 771 164.219)"/><path d="m.419798 7.10243h3.756982v27.10397h-3.756982v6.9459h14.000002v-6.9459h-3.7854v-27.10397h3.7854v-6.950376h-14.000002z" transform="matrix(1 0 0 -1.00134 807 164.219)"/><path d="m24.4328 42.4713v-14.6794h-4.1163c-.4222 1.8935-1.1539 4.2213-1.8271 5.1528-1.6869 2.2791-2.5867 2.7809-4.1472 2.7809-4.3412 0-7.16514-5.6683-7.16514-14.2192 0-8.1363 2.75603-13.71148 6.78624-13.71148 3.346 0 5.8032 3.99128 6.6889 10.87438l4.7636-3.9209c-1.7548-11.2646-7.1668-14.588027-11.9147-14.588027-10.32949 0-13.085513 12.346827-13.085513 21.465027 0 12.7387 5.159293 21.535 12.675813 21.535 2.967 0 5.2578-1.2242 7.2251-3.9316v3.2425z" transform="matrix(1 0 0 -1.00134 823 165.22)"/><path d="m.420683 42.1597h11.269817v-7.0331h-2.0871v-21.0842c0-4.09422.7019-6.85888 3.1149-6.85888 2.0314 0 3.3563 1.78407 3.3563 6.48298v21.4601h-2.0036v7.0331h9.3497v-7.0331h-3.03v-23.2428c0-9.65074-4.9206-11.724347-8.3479-11.724347-4.73977 0-8.77155 3.117937-8.77155 13.273547v21.6936h-2.850567z" transform="matrix(1 0 0 -1.00134 858 165.22)"/><path d="m.429323 7.10243h3.266537v27.10397h-3.266537v6.9459h10.205177l8.934-25.5966h.0594v18.6507h-3.1407v6.9459h10.9421v-6.9459h-3.452v-34.054346h-5.457l-10.39064 30.144346h-.09666v-23.19397h3.0548v-6.950376h-10.658477z" transform="matrix(1 0 0 -1.00134 882 164.219)"/><path d="m.443599 7.10243h3.750951v27.10397h-3.750951v6.9459h14.000001v-6.9459h-3.7687v-27.10397h3.7687v-6.950376h-14.000001z" transform="matrix(1 0 0 -1.00134 910 164.219)"/><path d="m3.16687 35.0957h-2.747156v7.0635h11.531086v-7.0635h-2.66498l3.87558-20.8921h.0953l3.9023 20.8921h-2.5847v7.0635h9.8454v-7.0635h-2.7605l-6.7718-34.936758h-4.7178z" transform="matrix(1 0 0 -1.00134 925 165.22)"/><path d="m.434949 7.10243h2.813941v27.10397h-2.813941v6.9459h21.000251v-12.9802h-4.5294v6.0343h-7.42882v-9.4054h5.99422v-6.9459h-5.99422v-10.75267h7.42882v6.09107h4.5294v-13.041446h-21.000251z" transform="matrix(1 0 0 -1.00134 950 164.219)"/><path d="m12.4829 24.727c2.8066 0 3.6165 2.663 3.6165 4.8408 0 1.6796-.6139 4.6417-2.9336 4.6417h-3.19869v-9.4825zm12.9601-24.572129h-7.3178l-5.3776 17.998029h-2.78049v-11.04676h3.01779v-6.951269h-12.541933v6.951269h3.279683v27.10336h-3.279683v6.9454h14.944633c4.6641 0 7.2073-5.2508 7.2073-11.4718 0-4.7046-1.3689-8.0141-4.1343-10.1995l3.8693-12.37746h3.1131z" transform="matrix(1 0 0 -1.00134 974 164.219)"/><path d="m.693302 15.0004h4.045498c-.08514-4.5042 1.56406-7.59573 3.64157-7.59573 1.4275 0 2.63333 1.97217 2.63333 4.52713 0 7.6725-10.571029 6.5944-10.571029 19.7938 0 8.1558 3.503339 11.4314 6.414539 11.4314 1.86945 0 3.36539-1.2745 4.35089-3.883h.0684v3.4475h4.0029v-12.7364h-4.0029c-.319 3.8247-1.62193 6.1956-3.42298 6.1956-1.38493 0-2.34034-1.4338-2.34034-3.4197 0-6.7925 10.92952-5.2541 10.92952-20.0977 0-10.02819-4.3478-12.506319-6.87015-12.506319-2.10789 0-3.72815 1.366459-4.76535 4.085369h-.0684v-3.524101h-4.045498z" transform="matrix(1 0 0 -1.00134 1000 165.22)"/><path d="m.433132 7.10243h3.507998v27.10397h-3.507998v6.9459h13.000268v-6.9459h-3.4962v-27.10397h3.4962v-6.950376h-13.000268z" transform="matrix(1 0 0 -1.00134 1018 164.219)"/><path d="m22.4617 24.6796h-4.2186v9.5296h-3.6278v-27.10394h3.6278v-6.950378h-13.57672v6.950378h3.64169v27.10394h-3.64169v-9.5296h-4.204712v16.4755h22.000032z" transform="matrix(1 0 0 -1.00134 1033 164.219)"/><path d="m6.69417 7.10243h3.38843v11.04757l-6.60979 16.0564h-3.012202v6.9459h11.832892v-6.9459h-2.2109l3.6711-10.0087 3.4868 10.0087h-2.0866v6.9459h10.3069v-6.9459h-3.0109l-6.2735-16.0564v-11.04757h3.4162v-6.950376h-12.89843z" transform="matrix(1 0 0 -1.00134 1056 164.219)"/><path d="m.466953 7.10243h3.121727v27.10397h-3.121727v6.9459h12.011047l5.2933-24.0278 5.4729 24.0278h12.1814v-6.9459h-3.1094v-27.10397h3.1507v-6.950376h-12.4054v6.950376h3.1648v27.10397h-.5603l-7.5186-34.054346h-2.6168l-7.48822 34.054346h-.54792v-27.10397h3.12024v-6.950376h-10.147747z" transform="matrix(1 0 0 -1.00134 1090 164.219)"/><path d="m12.6636 32.5248h-.0865l-2.2006-12.3708h4.22zm12.8167-32.368739h-11.7736v6.950379h3.0224l-1.1312 6.98926h-6.28154l-1.31235-6.98926h3.23299v-6.950379h-10.756901v6.950379h3.034611l4.74324 27.10396h-3.26078v6.9459h15.80963v-6.9459h-3.2466l5.082-27.10396h2.8381z" transform="matrix(1 0 0 -1.00134 1126 164.219)"/><path d="m.468567 7.10243h3.365223v27.10397h-3.365223v6.9459h12.913933v-6.9459h-3.4179v-27.10397h6.9076v12.67917h4.5966v-19.629546h-21.000233z" transform="matrix(1 0 0 -1.00134 1152 164.219)"/><path d="m12.6606 32.5248h-.0712l-2.1898-12.3708h4.209zm12.8295-32.368739h-11.7726v6.950379h3.0514l-1.1589 6.98926h-6.28112l-1.31372-6.98926h3.24644v-6.950379h-10.771543v6.950379h3.050003l4.71489 27.10396h-3.21864v6.9459h15.78049v-6.9459h-3.2447l5.0646-27.10396h2.8534z" transform="matrix(1 0 0 -1.00134 1173 164.219)"/><path d="m6.69979 7.10243h3.40431v11.04757l-6.59792 16.0564h-3.015562v6.9459h11.827082v-6.9459h-2.2136l3.6731-10.0087 3.5026 10.0087h-2.1171v6.9459h10.3279v-6.9459h-3.0109l-6.2661-16.0564v-11.04757h3.3765v-6.950376h-12.89031z" transform="matrix(1 0 0 -1.00134 1197 164.219)"/><path d="m.740328 15.0004h4.020222c-.06989-4.5042 1.58071-7.59573 3.66-7.59573 1.42872 0 2.61875 1.97217 2.61875 4.52713 0 7.6725-10.549577 6.5944-10.549577 19.7938 0 8.1558 3.480477 11.4314 6.406367 11.4314 1.87105 0 3.36801-1.2745 4.35151-3.883h.0713v3.4475h3.9793v-12.7364h-3.9793c-.319 3.8247-1.60798 6.1956-3.42589 6.1956-1.37247 0-2.35575-1.4338-2.35575-3.4197 0-6.7925 10.95244-5.2541 10.95244-20.0977 0-10.02819-4.3682-12.506319-6.90349-12.506319-2.09436 0-3.70403 1.366459-4.74212 4.085369h-.08354v-3.524101h-4.020222z" transform="matrix(1 0 0 -1.00134 1223 165.22)"/><path d="m.514084 7.10243h3.755486v27.10397h-3.755486v6.9459h14.000216v-6.9459h-3.7714v-27.10397h3.7714v-6.950376h-14.000216z" transform="matrix(1 0 0 -1.00134 1241 164.219)"/><path d="m12.6747 32.5248h-.0697l-2.1703-12.3708h4.2002zm12.8324-32.368739h-11.7749v6.950379h3.0314l-1.1408 6.98926h-6.26098l-1.32485-6.98926h3.24343v-6.950379h-10.773296v6.950379h3.031426l4.75212 27.10396h-3.25735v6.9459h15.793v-6.9459h-3.2435l5.063-27.10396h2.8613z" transform="matrix(1 0 0 -1.00134 1255 164.219)"/><path d="m212.193 264.183 28.146 28.183s4.796 3.651 11.728 1.738c6.871-1.921 33.896-8.239 33.896-8.239s6.317-27.053 8.238-33.939c1.922-6.887-1.736-11.689-1.736-11.689l-28.163-28.159.2-.541h39.876s5.967-.822 9.469-7.053c3.535-6.22 18.17-29.798 18.17-29.798s-14.635-23.578-18.17-29.818c-3.502-6.234-9.469-7.034-9.469-7.034h-39.876l-.2-.538 28.163-28.176s3.658-4.794 1.736-11.7031c-1.921-6.88-8.238-33.9003-8.238-33.9003s-27.025-6.3271-33.896-8.2559c-6.932-1.9197-11.728 1.721-11.728 1.721l-28.146 28.1673-.537-.223v-39.8027s-.831-5.9791-7.073-9.5128c-6.21-3.5293-29.789-18.1706-29.789-18.1706s-23.597 14.6413-29.807 18.1706c-6.274 3.5337-7.071 9.5128-7.071 9.5128v39.8027l-.522.223-28.177-28.1673s-4.782-3.6407-11.6831-1.721c-6.9018 1.9288-33.9254 8.2559-33.9254 8.2559s-6.3198 27.0126-8.2564 33.9003c-1.9044 6.9011 1.7534 11.7031 1.7534 11.7031l28.1611 28.176-.2152.538h-39.8738s-5.9486.8-9.4828 7.034c-3.5218 6.24-18.1577 29.818-18.1577 29.818s14.6359 23.578 18.1577 29.798c3.5342 6.231 9.4828 7.053 9.4828 7.053h39.8738l.2152.541-28.1611 28.159s-3.6578 4.802-1.7534 11.689c1.9366 6.886 8.2564 33.939 8.2564 33.939s27.0236 6.318 33.8948 8.239c6.9317 1.913 11.7137-1.738 11.7137-1.738l28.177-28.183.522.223v39.858s.797 5.964 7.071 9.475c6.21 3.521 29.807 18.178 29.807 18.178s23.579-14.657 29.789-18.178c6.242-3.511 7.073-9.475 7.073-9.475v-39.858zm114.122-50.209s-5.273 9.892-15.573 9.892h-17.2l12.158 12.176c7.272 7.266 4.014 18.011 4.014 18.011l-11.531 44.017-44.025 11.541s-10.743 3.268-18.017-4.011l-12.174-12.174v17.217c0 10.283-9.884 15.587-9.884 15.587l-39.289 22.948-39.306-22.948s-9.901-5.304-9.901-15.587v-17.217l-12.159 12.174c-7.285 7.279-18.0018 4.011-18.0018 4.011l-44.0387-11.541-11.5431-44.017s-3.2455-10.745 4.0243-18.011l12.1617-12.176h-17.2171c-10.2844 0-15.5733-9.892-15.5733-9.892l-22.962686-39.288 22.962686-39.288s5.2889-9.907 15.5733-9.907h17.2171l-12.1617-12.158c-7.2698-7.284-4.0243-17.9993-4.0243-17.9993l11.5431-44.0391 44.0387-11.5486s10.7168-3.2605 18.0018 4.0271l12.159 12.1641v-17.2083c0-10.3055 9.901-15.5696 9.901-15.5696l39.306-22.981089 39.289 22.981089s9.884 5.2641 9.884 15.5696v17.2083l12.174-12.1641c7.274-7.2876 18.017-4.0271 18.017-4.0271l44.025 11.5486 11.531 44.0391s3.258 10.7153-4.014 17.9993l-12.158 12.158h17.2c10.3 0 15.573 9.907 15.573 9.907l22.963 39.288z" transform="matrix(1 0 0 -1.00134 0 351.469)"/><path d="m297.094 187.523c-3.509 6.242-9.486 7.066-9.486 7.066h-39.938l-.202.54 28.209 28.207s3.664 4.812 1.74 11.708c-1.926 6.898-8.254 33.995-8.254 33.995s-27.068 6.329-33.952 8.255c-6.942 1.916-11.747-1.741-11.747-1.741l-28.191-28.231-.538.226v39.923s-.833 5.973-7.085 9.492c-6.22 3.524-29.84 18.206-29.84 18.206s-23.634-14.682-29.854-18.206c-6.284-3.519-7.084-9.492-7.084-9.492v-39.923l-.523-.226-28.2235 28.231s-4.7881 3.657-11.7334 1.741c-6.8809-1.926-33.9505-8.255-33.9505-8.255s-6.3288-27.097-8.27-33.995c-1.9061-6.896 1.7576-11.708 1.7576-11.708l28.2077-28.207-.217-.54h-39.9382s-5.9587-.824-9.5001-7.066c-3.5263-6.23-18.187687-29.846-18.187687-29.846s14.661387-23.617 18.187687-29.869c3.5414-6.245 9.5001-7.046 9.5001-7.046h39.9382l.217-.537-28.2077-28.222s-3.6637-4.8125-1.7576-11.7254c1.9412-6.899 8.27-33.9568 8.27-33.9568s27.0696-6.336 33.9826-8.2665c6.9132-1.9261 11.7013 1.7241 11.7013 1.7241l28.2235 28.2141.523-.225v-39.8689s.8-5.9891 7.084-9.5303c6.22-3.5353 29.854-18.199187 29.854-18.199187s23.62 14.663887 29.84 18.199187c6.252 3.5412 7.085 9.5303 7.085 9.5303v39.8689l.538.225 28.191-28.2141s4.805-3.6502 11.747-1.7241c6.884 1.9305 33.952 8.2665 33.952 8.2665s6.328 27.0655 8.254 33.9568c1.924 6.922-1.74 11.7254-1.74 11.7254l-28.209 28.222.202.537h39.938s5.977.801 9.486 7.046c3.542 6.252 18.2 29.869 18.2 29.869s-14.658 23.616-18.2 29.846" fill="#d8a620" transform="matrix(1 0 0 -1.00134 17 334.446)"/><path d="m228.83 107.557c-2.208-3.777-5.996-4.262-5.996-4.262h-30.551v44.772h30.551s3.788-.5 5.996-4.316c2.255-3.789 11.497-18.076 11.497-18.076s-9.242-14.346-11.497-18.118m-18.58-34.6971s2.3-2.9812 1.211-7.2739c-1.103-4.235-4.676-20.9156-4.676-20.9156s-16.663-3.5784-20.909-4.6677c-4.264-1.0829-7.298 1.2431-7.298 1.2431l-17.461 17.4318h31.166v32.1289zm-135.7019 104.0861h102.5119v-102.5442h-102.5119zm73.6149-148.3196s-.475-3.7582-4.263-6.0111c-3.785-2.2318-18.087-11.4785-18.087-11.4785s-14.334 9.2467-18.12 11.4785c-3.757 2.2529-4.264 6.0111-4.264 6.0111v30.0512h44.734zm-75.132 12.6194s-3.0203-2.326-7.282-1.2369c-4.2784 1.0831-20.9276 4.6615-20.9276 4.6615s-3.5854 16.6806-4.6744 20.9156c-1.089 4.2927 1.2413 7.2739 1.2413 7.2739l16.2973 16.3304v-30.5127h32.8063zm-44.2434 62.0492s-3.7713.485-6.0255 4.262c-2.2223 3.772-11.4798 18.118-11.4798 18.118s9.2575 14.287 11.4798 18.076c2.2542 3.816 6.0255 4.316 6.0255 4.316h28.898v-44.772zm12.6007 75.159s-2.3303 3.013-1.2413 7.277c1.089 4.263 4.6744 20.928 4.6744 20.928s16.6492 3.588 20.9276 4.668c4.2617 1.121 7.282-1.226 7.282-1.226l15.1458-15.156h-30.4912v-32.795zm62.0407 44.243s.507 3.781 4.264 6.017c3.786 2.238 18.12 11.509 18.12 11.509s14.302-9.271 18.087-11.509c3.788-2.236 4.263-6.017 4.263-6.017v-27.752h-44.734zm75.149-12.596s3.034 2.347 7.282 1.226c4.262-1.08 20.925-4.668 20.925-4.668s3.573-16.665 4.676-20.928c1.089-4.264-1.242-7.277-1.242-7.277l-17.936-17.945v34.436h-28.851zm58.147-60.593s-3.327 6.008-9.872 6.008h-28.974l20.48 20.509c4.632 4.592 2.76 11.222 2.76 11.222l-6.591 27.157-27.166 6.584s-6.607 1.887-11.222-2.745l-20.48-20.477v28.979c0 6.509-6.026 9.845-6.026 9.845l-23.821 14.571-23.857-14.571s-6.0082-3.336-6.0082-9.845v-28.979l-20.4966 20.477c-4.5998 4.632-11.2207 2.745-11.2207 2.745l-27.1497-6.584-6.5918-27.164s-1.8705-6.623 2.743-11.215l20.4981-20.509h-28.9743c-6.5463 0-9.888-6.008-9.888-6.008l-14.580686-23.833 14.580686-23.861s3.3417-6.0169 9.888-6.0169h28.9743l-20.4981-20.4753c-4.6135-4.6097-2.743-11.2151-2.743-11.2151l6.5918-27.1858 27.1497-6.5687s6.6209-1.8798 11.2207 2.7347l20.4966 20.4859v-28.9863c0-6.5262 6.0082-9.8531 6.0082-9.8531l23.857-14.572428 23.821 14.572428s6.026 3.3269 6.026 9.8531v28.9863l20.48-20.4859c4.615-4.6145 11.222-2.7347 11.222-2.7347l27.166 6.5687 6.591 27.1858s1.872 6.6054-2.76 11.2151l-20.48 20.4753h28.974c6.545 0 9.872 6.0169 9.872 6.0169l14.562 23.861z" transform="matrix(1 0 0 -1.00134 49 302.403)"/><path d="m46.2713 17.7721c-.9201 0-1.6891.7696-1.6891 1.709 0 .9331.769 1.7027 1.6891 1.7121.9387-.0094 1.6894-.779 1.6894-1.7121 0-.9394-.7507-1.709-1.6894-1.709m46.0002 15.754c-13.7918 10.1023-20.8874 7.3132-22.0257 7.206-1.1201-.0901-23.6816-9.0068-23.9745-9.1154-.2898.1086-22.8375 9.0253-23.9742 9.1154-1.1369.1072-8.2159 2.8963-22.025791-7.206l41.132291-15.8398-34.75833-17.522462h9.99953l29.6265 15.154262 29.6282-15.154262h10.0132l-34.7566 17.522462z" transform="matrix(1 0 0 -1.00134 129 196.262)"/><path d="m61.5111 14.5302-23.7425-9.19589-23.7424 9.19589s-7.34418 2.2303-13.749345-1.7018l33.038345-12.668354s1.2217 2.325964 4.4534 2.349774c3.2332-.02381 4.4704-2.349774 4.4704-2.349774l33.0381 12.668354c-6.4187 3.9321-13.766 1.7018-13.766 1.7018" fill="#fff" transform="matrix(1 0 0 -1.00134 137 174.232)"/><path d="m357.28 64.035-4.438.1702c1.088-3.546 1.662-7.2314 1.662-11.0044 0-23.1844-21.698-42.8716-47.667-50.0065h-306.505358l-.003128-2.987881 1071.871486-.001449 1.25.101158h103.95c42.49 0 76.93 23.682372 76.93 52.894672v10.8342z" fill="#159795" transform="matrix(1 0 0 -1.00134 21 375.501)"/><path d="m447.276 19.6457c-.358.4937-.985.8277-1.88 1.0019-.895.1743-1.839.2614-2.831.2614-2.314 0-4.297.3324-5.95.9971-1.653.6648-2.479 2.0376-2.479 4.1185 0 1.3295.452 2.3339 1.355 3.0132.904.6792 2.026 1.0189 3.367 1.0189 2.053 0 3.723-.5785 5.01-1.7353 1.286-1.1569 2.149-2.7619 2.587-4.8151.273-1.2581.547-2.5161.821-3.7741 0-.0288 0-.0577 0-.0865zm-400.923 0c-.3581.4937-.9848.8277-1.8801 1.0019-.8953.1743-1.8388.2614-2.8305.2614-2.314 0-4.2973.3324-5.9502.9971-1.6528.6648-2.4792 2.0376-2.4792 4.1185 0 1.3295.4517 2.3339 1.3552 3.0132.9034.6792 2.0258 1.0189 3.3669 1.0189 2.0532 0 3.723-.5785 5.0095-1.7353 1.2866-1.1569 2.1489-2.7619 2.5871-4.8151.2738-1.2581.5475-2.5161.8213-3.7741 0-.0288 0-.0577 0-.0865zm570.428-8.712c-2.038 0-3.78.7768-5.227 2.3304-1.446 1.5537-2.417 3.4486-2.913 5.6847h13.967c0-.5808 0-1.1616 0-1.7425 0-1.8585-.524-3.3686-1.571-4.5302-1.046-1.1616-2.465-1.7424-4.256-1.7424zm-125.699 0c-2.783 0-4.993 1.2966-6.632 3.8898-1.64 2.5932-2.459 5.4398-2.459 8.5398 0 2.0283.482 3.6509 1.446 4.8679s2.397 1.8255 4.298 1.8255c2.809 0 5.061-1.3256 6.756-3.9766 1.694-2.6511 2.541-5.5414 2.541-8.6709 0-1.9993-.524-3.5783-1.57-4.7372-1.047-1.1589-2.507-1.7383-4.38-1.7383zm-83.138 0c-2.038 0-3.781.7768-5.227 2.3304-1.446 1.5537-2.417 3.4486-2.913 5.6847h13.966c0-.5808 0-1.1616 0-1.7425 0-1.8585-.523-3.3686-1.57-4.5302s-2.465-1.7424-4.256-1.7424zm-24.445 0c-2.479 0-4.504 1.147-6.074 3.4412s-2.355 4.8062-2.355 7.536c0 2.0618.482 3.7534 1.446 5.0748.964 1.3213 2.396 1.9819 4.297 1.9819 2.507 0 4.552-1.1688 6.136-3.5066 1.584-2.3377 2.376-4.886 2.376-7.6448 0-2.1199-.468-3.797-1.405-5.0312-.936-1.2342-2.41-1.8513-4.421-1.8513zm-25.314 0c-2.782 0-4.993 1.2966-6.632 3.8898s-2.459 5.4398-2.459 8.5398c0 2.0283.483 3.6509 1.447 4.8679s2.396 1.8255 4.297 1.8255c2.81 0 5.062-1.3256 6.756-3.9766 1.694-2.6511 2.541-5.5414 2.541-8.6709 0-1.9993-.523-3.5783-1.57-4.7372s-2.507-1.7383-4.38-1.7383zm-23.948 0c-2.039 0-3.781.7768-5.227 2.3304-1.446 1.5537-2.417 3.4486-2.913 5.6847h13.966c0-.5808 0-1.1616 0-1.7425 0-1.8585-.523-3.3686-1.57-4.5302s-2.466-1.7424-4.256-1.7424zm-65.642 0c-2.672 0-4.814 1.2313-6.425 3.6941-1.612 2.4627-2.418 5.1718-2.418 8.127 0 2.2312.544 4.0059 1.632 5.3243 1.089 1.3184 2.679 1.9776 4.773 1.9776 2.645 0 4.759-1.2821 6.343-3.8463 1.584-2.5641 2.376-5.3096 2.376-8.2363 0-2.144-.537-3.8534-1.612-5.1282-1.074-1.2748-2.631-1.9122-4.669-1.9122zm-102.744 0c-2.672 0-4.813 1.2313-6.425 3.6941-1.611 2.4627-2.417 5.1718-2.417 8.127 0 2.2312.544 4.0059 1.632 5.3243s2.679 1.9776 4.773 1.9776c2.644 0 4.758-1.2821 6.342-3.8463 1.584-2.5641 2.376-5.3096 2.376-8.2363 0-2.144-.537-3.8534-1.611-5.1282-1.075-1.2748-2.631-1.9122-4.67-1.9122zm-59.437 0c-2.038 0-3.781.7768-5.227 2.3304-1.4459 1.5537-2.417 3.4486-2.9128 5.6847h13.9668c0-.5808 0-1.1616 0-1.7425 0-1.8585-.524-3.3686-1.571-4.5302-1.046-1.1616-2.465-1.7424-4.256-1.7424zm-25.1897 0c-2.7822 0-4.9929 1.2966-6.632 3.8898-1.639 2.5932-2.4585 5.4398-2.4585 8.5398 0 2.0283.482 3.6509 1.4462 4.8679.9641 1.217 2.3966 1.8255 4.2974 1.8255 2.8098 0 5.0617-1.3256 6.7559-3.9766 1.6942-2.6511 2.5412-5.5414 2.5412-8.6709 0-1.9993-.5234-3.5783-1.5702-4.7372-1.0467-1.1589-2.5068-1.7383-4.38-1.7383zm466.4847-1.6567c.874.00136 1.747.00272 2.621.00408-1.533 7.49152-3.065 14.98292-4.598 22.47442-.873-.0011-1.747-.0023-2.62-.0034 1.532-7.4917 3.065-14.9834 4.597-22.4751zm-262.584-.00068c.564 6.37708 1.129 12.75408 1.693 19.13118 2.956-6.3764 5.911-12.7528 8.867-19.12914h3.057c.483 6.33754.965 12.67514 1.448 19.01274 3.047-6.3355 6.095-12.6711 9.142-19.00662.919-.00204 1.838-.00408 2.757-.00612-3.733 7.49234-7.465 14.98474-11.198 22.47714-.933-.0002-1.866-.0004-2.799-.0007-.509-6.3076-1.017-12.6152-1.525-18.9229-2.954 6.307-5.908 12.6139-8.862 18.9209-.949.0009-1.898.0018-2.846.0027-.827-7.4924-1.653-14.9848-2.48-22.47714.915-.00068 1.831-.00136 2.746-.00204zm300.502-.00204c.873.00136 1.746.00272 2.62.00408-.992 4.83524-1.983 9.67044-2.975 14.50564-.193.8076-.29 1.5575-.29 2.2494 0 1.3845.42 2.4011 1.259 3.05.839.6488 1.905.9733 3.198.9733 1.926 0 3.653-.8313 5.18-2.4939 1.527-1.6625 2.579-3.9107 3.157-6.7443.785-3.8479 1.57-7.6957 2.355-11.54354.873.00113 1.746.00227 2.619.0034-1.529 7.49234-3.058 14.98474-4.587 22.47714-.799 0-1.597 0-2.396 0 .248-1.3649.496-2.7298.744-4.0947-.882 1.3813-2.004 2.5107-3.368 3.3882-1.363.8776-2.803 1.3164-4.318 1.3164-1.983 0-3.553-.4841-4.71-1.4522-1.157-.968-1.736-2.4923-1.736-4.5728 0-.6643.111-1.5455.332-2.6436.972-4.8075 1.944-9.615 2.916-14.42252zm-18.767-.3444h1.401c-.193.90024-.385 1.80052-.577 2.70072-.495 0-.99 0-1.485 0-2.172 0-3.925.7928-5.258 2.3785-1.334 1.5856-2.248 3.5823-2.743 5.9899-.8 3.92-1.6 7.8399-2.4 11.7599-.874-.0011-1.747-.0023-2.62-.0034 1.529-7.4924 3.058-14.9848 4.587-22.47714.789.00091 1.578.00182 2.367.00272-.353 1.72902-.706 3.45802-1.059 5.18712.961-1.8169 2.046-3.1941 3.255-4.1318 1.208-.93768 2.719-1.40652 4.532-1.40652zm-499.1995 0h1.401c-.1924.90024-.3848 1.80052-.5772 2.70072-.495 0-.99 0-1.4849 0-2.172 0-3.9247.7928-5.2581 2.3785-1.3335 1.5856-2.2477 3.5823-2.7427 5.9899-.8001 3.92-1.6003 7.8399-2.4005 11.7599-.8731-.0011-1.7462-.0023-2.6193-.0034 1.5291-7.4924 3.0582-14.9848 4.5872-22.47714.7888.00091 1.5776.00182 2.3663.00272-.3529 1.72902-.7059 3.45802-1.0588 5.18712.9615-1.8169 2.0465-3.1941 3.2549-4.1318 1.2085-.93768 2.7191-1.40652 4.5321-1.40652zm549.4515-.30492c2.534 0 4.518.7986 5.95 2.39584 1.433 1.5972 2.149 3.7171 2.149 6.3598 0 .6098-.014 1.2415-.041 1.8949-.028.6534-.083 1.314-.166 1.982-5.564 0-11.129 0-16.693 0-.042.5778-.083 1.1557-.124 1.7335 0 2.1095.523 3.8145 1.57 5.115 1.047 1.3004 2.589 1.9507 4.628 1.9507 1.653 0 3.106-.5115 4.359-1.5345 1.254-1.023 2.128-2.3556 2.624-3.9977h2.603c-.716 2.5415-1.88 4.4836-3.491 5.8265-1.612 1.3429-3.685 2.0144-6.219 2.0144-2.782 0-4.924-.8479-6.425-2.5436-1.502-1.6956-2.252-4.0218-2.252-6.9785 0-3.7974 1.046-7.1165 3.14-9.9573 2.094-2.8407 4.89-4.26104 8.388-4.26104zm-148.285 0c1.984 0 3.554.48642 4.711 1.45924 1.157.9729 1.736 2.5047 1.736 4.5956 0 .668-.111 1.5537-.332 2.6572-.972 4.8076-1.943 9.6151-2.915 14.4226-.874-.0014-1.747-.0027-2.62-.0041.991-4.8352 1.983-9.6704 2.974-14.5056.193-.8131.289-1.5682.289-2.2651 0-1.394-.419-2.4176-1.258-3.071s-1.905-.9801-3.199-.9801c-1.926 0-3.652.8352-5.179 2.5057s-2.579 3.9292-3.157 6.776c-.785 3.8478-1.571 7.6957-2.356 11.5435-.873-.0011-1.746-.0023-2.619-.0034 1.529-7.4924 3.058-14.9848 4.587-22.47714h2.397c-.248 1.36494-.496 2.72974-.744 4.09464.881-1.3939 2.004-2.5337 3.367-3.41945 1.364-.88573 2.803-1.32859 4.318-1.32859zm-25.353 0c1.846 0 3.54.39204 5.083 1.17612 1.543.78412 2.314 2.06182 2.314 3.83332 0 1.1035-.172 2.4176-.517 3.9422-.344 1.5246-.619 2.8097-.826 3.8551-.207 1.0455-.489 2.3886-.847 4.0293-.358 1.6408-.537 2.7516-.537 3.3324 0 .3485.131.5881.392.7188.262.1306.586.196.971.196.345-.0291.689-.0581 1.033-.0871-.122.726-.243 1.452-.365 2.178-.623.1452-1.327.2178-2.112.2178-.704 0-1.252-.2106-1.644-.6316-.393-.4211-.589-1.0237-.589-1.8078 0-.4066 0-.8131 0-1.2197 0-.029 0-.0581 0-.0871-.721 1.2641-1.76 2.2626-3.117 2.9954-1.358.7329-2.799 1.0993-4.323 1.0993-2.106 0-3.775-.5072-5.008-1.5216s-1.849-2.5792-1.849-4.6946c0-2.174.668-3.7753 2.004-4.8039 1.336-1.0287 2.686-1.6662 4.049-1.9126 1.364-.2464 2.913-.4203 4.649-.5217 1.735-.1014 2.968-.2464 3.698-.4349.73-.1886 1.302-.6016 1.715-1.2391s.62-1.6664.62-3.0867c0-1.217-.434-2.0573-1.302-2.521-.868-.4638-1.935-.6956-3.202-.6956-1.818 0-3.327.392-4.525 1.1761s-1.921 2.0764-2.169 3.8769c-.868 0-1.736 0-2.603 0 .33-2.4394 1.308-4.2762 2.933-5.5104 1.626-1.23424 3.65-1.85134 6.074-1.85134zm-35.199 0c2.534 0 4.517.7986 5.95 2.39584 1.432 1.5972 2.149 3.7171 2.149 6.3598 0 .6098-.014 1.2415-.042 1.8949-.027.6534-.082 1.314-.165 1.982-5.565 0-11.129 0-16.694 0-.041.5778-.082 1.1557-.124 1.7335 0 2.1095.524 3.8145 1.571 5.115 1.046 1.3004 2.589 1.9507 4.628 1.9507 1.652 0 3.105-.5115 4.359-1.5345 1.253-1.023 2.128-2.3556 2.624-3.9977h2.603c-.716 2.5415-1.88 4.4836-3.492 5.8265-1.611 1.3429-3.684 2.0144-6.218 2.0144-2.783 0-4.924-.8479-6.426-2.5436-1.501-1.6956-2.252-4.0218-2.252-6.9785 0-3.7974 1.047-7.1165 3.141-9.9573 2.093-2.8407 4.889-4.26104 8.388-4.26104zm-24.895 0c1.709 0 3.232.4576 4.568 1.37283 1.337.91521 2.143 2.21521 2.419 3.90001.324-1.5407.648-3.0814.972-4.62216.803.0009 1.605.00181 2.408.00272-1.35 6.70834-2.7 13.41664-4.05 20.12494-.827 4.0656-2.011 6.9696-3.554 8.712s-3.925 2.6137-7.148 2.6137c-2.397 0-4.366-.5809-5.909-1.7425-1.542-1.1616-2.314-3.0056-2.314-5.5321h2.603c0 1.7714.558 3.0419 1.674 3.8115s2.555 1.1543 4.318 1.1543c2.837 0 4.711-.9147 5.62-2.7443.909-1.8295 1.818-4.6464 2.727-8.4507-.028-.029-.055-.058-.083-.0871-.716 1.2778-1.735 2.2869-3.058 3.0275-1.322.7405-2.727 1.1107-4.214 1.1107-2.507 0-4.449-.8494-5.827-2.5482-1.377-1.6989-2.066-3.8987-2.066-6.5994 0-3.5429 1.006-6.6793 3.018-9.4091 2.012-2.72975 4.644-4.09464 7.896-4.09464zm-48.813 0c2.535 0 4.518.7986 5.951 2.39584 1.432 1.5972 2.148 3.7171 2.148 6.3598 0 .6098-.013 1.2415-.041 1.8949s-.083 1.314-.165 1.982c-5.565 0-11.129 0-16.694 0-.041.5778-.083 1.1557-.124 1.7335 0 2.1095.524 3.8145 1.57 5.115 1.047 1.3004 2.59 1.9507 4.628 1.9507 1.653 0 3.106-.5115 4.36-1.5345 1.253-1.023 2.128-2.3556 2.623-3.9977h2.604c-.717 2.5415-1.88 4.4836-3.492 5.8265-1.611 1.3429-3.684 2.0144-6.219 2.0144-2.782 0-4.924-.8479-6.425-2.5436-1.501-1.6956-2.252-4.0218-2.252-6.9785 0-3.7974 1.047-7.1165 3.14-9.9573 2.094-2.8407 4.89-4.26104 8.388-4.26104zm-65.517 0c2.534 0 4.572.7826 6.115 2.34784 1.543 1.5652 2.314 3.7102 2.314 6.435 0 4.0874-1.033 7.6022-3.099 10.5443-2.066 2.9422-4.972 4.4133-8.719 4.4133-2.699 0-4.793-.8406-6.281-2.5218-1.487-1.6811-2.231-3.9567-2.231-6.8267 0-3.9132 1.074-7.2901 3.223-10.1309 2.149-2.8407 5.041-4.26104 8.678-4.26104zm-22.461 0c1.983 0 3.553.48642 4.71 1.45924 1.157.9729 1.736 2.5047 1.736 4.5956 0 .668-.11 1.5537-.331 2.6572-.972 4.8076-1.944 9.6151-2.916 14.4226-.873-.0014-1.747-.0027-2.62-.0041.992-4.8352 1.983-9.6704 2.974-14.5056.193-.8131.29-1.5682.29-2.2651 0-1.394-.42-2.4176-1.259-3.071s-1.905-.9801-3.198-.9801c-1.926 0-3.653.8352-5.18 2.5057s-2.579 3.9292-3.157 6.776c-.785 3.8478-1.57 7.6957-2.356 11.5435-.873-.0011-1.746-.0023-2.619-.0034 1.529-7.4924 3.058-14.9848 4.587-22.47714h2.397c-.248 1.36494-.496 2.72974-.744 4.09464.882-1.3939 2.004-2.5337 3.368-3.41945 1.363-.88573 2.803-1.32859 4.318-1.32859zm-80.283 0c2.534 0 4.573.7826 6.116 2.34784 1.542 1.5652 2.313 3.7102 2.313 6.435 0 4.0874-1.033 7.6022-3.099 10.5443-2.066 2.9422-4.972 4.4133-8.718 4.4133-2.7 0-4.793-.8406-6.281-2.5218-1.488-1.6811-2.231-3.9567-2.231-6.8267 0-3.9132 1.074-7.2901 3.223-10.1309 2.148-2.8407 5.041-4.26104 8.677-4.26104zm-35.862 0c1.983 0 3.554.48642 4.711 1.45924 1.157.9729 1.735 2.5047 1.735 4.5956 0 .668-.11 1.5537-.331 2.6572-.972 4.8076-1.944 9.6151-2.916 14.4226-.873-.0014-1.746-.0027-2.62-.0041.992-4.8352 1.983-9.6704 2.975-14.5056.192-.8131.289-1.5682.289-2.2651 0-1.394-.42-2.4176-1.259-3.071s-1.905-.9801-3.198-.9801c-1.926 0-3.653.8352-5.18 2.5057s-2.579 3.9292-3.156 6.776c-.786 3.8478-1.571 7.6957-2.356 11.5435-.873-.0011-1.747-.0023-2.62-.0034 1.529-7.4924 3.058-14.9848 4.588-22.47714h2.396c-.248 1.36494-.496 2.72974-.744 4.09464.882-1.3939 2.004-2.5337 3.368-3.41945 1.364-.88573 2.803-1.32859 4.318-1.32859zm-23.699 0c2.534 0 4.518.7986 5.95 2.39584 1.433 1.5972 2.149 3.7171 2.149 6.3598 0 .6098-.014 1.2415-.042 1.8949-.027.6534-.082 1.314-.165 1.982-5.564 0-11.129 0-16.6934 0-.0413.5778-.0826 1.1557-.124 1.7335 0 2.1095.5234 3.8145 1.5702 5.115 1.0472 1.3004 2.5892 1.9507 4.6282 1.9507 1.653 0 3.106-.5115 4.359-1.5345s2.128-2.3556 2.624-3.9977h2.603c-.716 2.5415-1.88 4.4836-3.491 5.8265-1.612 1.3429-3.685 2.0144-6.219 2.0144-2.782 0-4.9243-.8479-6.4256-2.5436-1.5013-1.6956-2.252-4.0218-2.252-6.9785 0-3.7974 1.0468-7.1165 3.1404-9.9573 2.0932-2.8407 4.8892-4.26104 8.3882-4.26104zm-64.1935 0c1.8456 0 3.5398.39204 5.0824 1.17612 1.5427.78412 2.314 2.06182 2.314 3.83332 0 1.1035-.1722 2.4176-.5165 3.9422-.3444 1.5246-.6198 2.8097-.8265 3.8551-.2066 1.0455-.4889 2.3886-.847 4.0293-.3581 1.6408-.5372 2.7516-.5372 3.3324 0 .3485.1309.5881.3926.7188.2617.1306.5853.196.971.196.3443-.0291.6887-.0581 1.033-.0871-.1218.726-.2436 1.452-.3654 2.178-.6228.1452-1.3268.2178-2.1119.2178-.7038 0-1.2519-.2106-1.6444-.6316-.3926-.4211-.5889-1.0237-.5889-1.8078 0-.4066 0-.8131 0-1.2197 0-.029 0-.0581 0-.0871-.7205 1.2641-1.7595 2.2626-3.1171 2.9954-1.3576.7329-2.7984 1.0993-4.3225 1.0993-2.1057 0-3.775-.5072-5.0079-1.5216-1.233-1.0144-1.8494-2.5792-1.8494-4.6946 0-2.174.668-3.7753 2.004-4.8039 1.3361-1.0287 2.6859-1.6662 4.0495-1.9126 1.3635-.2464 2.9131-.4203 4.6485-.5217 1.7355-.1014 2.9682-.2464 3.6982-.4349.7301-.1886 1.3017-.6016 1.7149-1.2391s.6198-1.6664.6198-3.0867c0-1.217-.4339-2.0573-1.3016-2.521-.8678-.4638-1.9352-.6956-3.2024-.6956-1.8181 0-3.3263.392-4.5246 1.1761s-1.9214 2.0764-2.1694 3.8769c-.8677 0-1.7354 0-2.6032 0 .3306-2.4394 1.3085-4.2762 2.9338-5.5104 1.6253-1.23424 3.65-1.85134 6.0742-1.85134zm532.5835-6.14202c.872.00114 1.745.00227 2.617.00341-.453 2.26559-.905 4.53118-1.358 6.79677 1.412-.00158 2.824-.00317 4.236-.00476-.137.76954-.275 1.53914-.413 2.30874-1.441.0011-2.883.0022-4.324.0034-.988 4.8039-1.976 9.6077-2.963 14.4116-.079.4071-.144.7994-.196 1.1772-.052.3777-.079.6975-.079.9593 0 .4651.104.843.311 1.1336.207.2907.559.436 1.056.436.994 0 2.016-.0871 3.065-.2614-.152.7986-.303 1.5972-.455 2.3958-.8.0872-1.311.138-1.531.1525-.221.0145-.593.0218-1.118.0218-1.186 0-2.138-.2251-2.855-.6752s-1.076-1.2996-1.076-2.5483c0-.6098.042-1.089.124-1.4375.083-.3485.139-.6389.166-.8712.978-4.9659 1.955-9.9318 2.933-14.8976-1.281 0-2.562 0-3.843 0 .166-.7696.331-1.5392.496-2.30874 1.283.00045 2.566.00091 3.849.00136.453-2.26559.905-4.53118 1.358-6.79678zm-54.594-1.829532c.962.000454 1.924.000908 2.886.001361 1.251 9.532031 2.502 19.064031 3.752 28.596031 5.075-9.5318 10.149-19.0636 15.224-28.595353 1.018-.000679 2.036-.001359 3.054-.002039-5.675 10.367392-11.349 20.734692-17.024 31.102092-1.088 0-2.176 0-3.264 0-1.543-10.3674-3.085-20.7347-4.628-31.102092zm-329.261 0c.606 0 1.095.014518 1.467.043558.372.029041.778.116161 1.219.261364-.151.75505-.303 1.51009-.454 2.26514-.551-.08712-1.088-.17424-1.612-.26137-1.184 0-2.045.23947-2.582.71841-.538.47894-.93 1.29876-1.178 2.45946-.216 1.04318-.432 2.08636-.648 3.12954 1.417.00295 2.835.0059 4.252.00885-.165.76954-.331 1.53914-.496 2.30874-1.384.0015-2.768.0031-4.153.0047-1.419 6.7194-2.838 13.4389-4.258 20.1583-.86.0018-1.72.0036-2.58.0054 1.406-6.7226 2.812-13.4452 4.218-20.1678-1.241-.0002-2.482-.0004-3.722-.0006.165-.7696.33-1.5392.495-2.30874 1.221-.00113 2.442-.00227 3.663-.0034.221-1.08788.442-2.17575.663-3.26363.358-1.77146.972-3.1073 1.841-4.00755s2.157-1.350372 3.865-1.350372zm309.331-.003404c.873.001135 1.746.00227 2.619.003404-2.108 10.367392-4.215 20.734692-6.323 31.102092-.84 0-1.68 0-2.52 0 .317-1.3504.634-2.7007.951-4.0511-.992 1.5537-2.108 2.7189-3.347 3.4957-1.24.7768-2.741 1.1653-4.504 1.1653-2.645 0-4.656-.8262-6.033-2.4786-1.378-1.6523-2.066-3.8842-2.066-6.6957 0-3.6813 1.086-7.0293 3.26-10.044 2.173-3.0148 4.965-4.52214 8.377-4.52214 1.788 0 3.273.38432 4.456 1.15298s2.008 2.00876 2.476 3.72036c.884-4.28278 1.769-8.56554 2.654-12.848296zm-132.897 0c.873.001135 1.746.00227 2.619.003404-2.107 10.367392-4.215 20.734692-6.322 31.102092-.84 0-1.68 0-2.52 0 .316-1.3504.633-2.7007.95-4.0511-.992 1.5537-2.107 2.7189-3.347 3.4957s-2.741 1.1653-4.504 1.1653c-2.644 0-4.655-.8262-6.033-2.4786-1.377-1.6523-2.066-3.8842-2.066-6.6957 0-3.6813 1.087-7.0293 3.26-10.044 2.173-3.0148 4.966-4.52214 8.377-4.52214 1.788 0 3.274.38432 4.456 1.15298 1.183.76866 2.009 2.00876 2.476 3.72036.885-4.28278 1.769-8.56554 2.654-12.848296zm-276.9607 0c.8731.001135 1.7462.00227 2.6193.003404-2.1075 10.367392-4.2151 20.734692-6.3227 31.102092-.84 0-1.6799 0-2.5199 0 .3168-1.3504.6336-2.7007.9504-4.0511-.9917 1.5537-2.1074 2.7189-3.347 3.4957s-2.741 1.1653-4.504 1.1653c-2.6445 0-4.6554-.8262-6.0328-2.4786-1.3774-1.6523-2.066-3.8842-2.066-6.6957 0-3.6813 1.0866-7.0293 3.2598-10.044 2.1732-3.0148 4.9656-4.52214 8.3771-4.52214 1.788 0 3.2734.38432 4.4562 1.15298s2.0082 2.00876 2.476 3.72036c.8845-4.28278 1.7691-8.56554 2.6536-12.848296zm458.7207-.000681c.874.001362 1.747.002724 2.62.004085-.313 1.464032-.627 2.928072-.941 4.392112-.873-.00114-1.746-.00227-2.619-.00341.313-1.46426.627-2.92852.94-4.392787zm-230.056 0c.874.001362 1.747.002724 2.62.004085-2.12 10.367392-4.241 20.734692-6.362 31.102092-.873-.0011-1.747-.0023-2.62-.0034 2.12-10.3676 4.241-20.7352 6.362-31.102777zm-108.868 0c.943.001362 1.886.002724 2.829.004085-1.13 5.527852-2.26 11.055692-3.391 16.583592.038.0256.075.0513.112.0769 6.341-5.5535 12.682-11.107 19.023-16.660492 1.311.003403 2.622.006806 3.933.010209-5.044 4.323143-10.088 8.646283-15.132 12.969383 3.512 6.0411 7.024 12.0821 10.537 18.1232-1.069-.0039-2.137-.0077-3.206-.0116-3.139-5.428-6.279-10.856-9.418-16.2841-2.188 1.8405-4.375 3.6809-6.563 5.5213-.724 3.5912-1.449 7.1825-2.174 10.7737-.943-.0013-1.886-.0027-2.829-.0041 2.093-10.3673 4.186-20.7347 6.279-31.102077zm-194.4762-.64932278c3.6913 0 6.5631.88924578 8.6154 2.66772978 2.0522 1.77849 3.0784 4.28695 3.0784 7.52537-.9366 0-1.8732 0-2.8098 0 0-2.51241-.8265-4.41829-2.4793-5.71761-1.6528-1.29933-3.8704-1.94899-6.6526-1.94899-3.7464 0-6.85239 1.68161-9.31786 5.04484-2.46548 3.36326-3.69821 7.23396-3.69821 11.61226 0 3.2475.81953 5.8353 2.45859 7.7633 1.63905 1.928 4.00122 2.892 7.08648 2.892 3.1404 0 5.7574-1.0673 7.851-3.2017 2.0935-2.1345 3.402-4.8715 3.9254-8.2112-3.3883 0-6.7766 0-10.1649 0 .1929-.8421.3857-1.6843.5785-2.5265h12.6029c-1.0331 5.2854-2.0661 10.5707-3.0991 15.856-.6336 0-1.2672 0-1.9008 0 .1653-1.7424.3306-3.4848.4959-5.2272-1.2672 2.0178-2.796 3.4951-4.5866 4.4319s-3.8566 1.4052-6.1981 1.4052c-3.77399 0-6.69399-1.1601-8.76003-3.4801-2.06603-2.3201-3.09904827-5.4956-3.09904827-9.5268 0-5.3361 1.42555827-9.8966 4.27669827-13.68136 2.85112-3.78476 6.78348-5.67713978 11.79708-5.67713978z" fill="#fff" transform="matrix(1 0 0 1.00134 494.957 325.517)"/></g><text fill-opacity="0" font-family="Arial,Arial_MSFontService,sans-serif" font-size="40.729" x=".000022" y="35.6378">Garden of Knowledge and Virtue</text></g></svg>