<?xml version="1.0" encoding="UTF-8" standalone="no"?>
<svg
   width="568.99988"
   height="176"
   version="1.1"
   id="svg2"
   sodipodi:docname="jad1.svg"
   inkscape:version="1.4.2 (f4327f4, 2025-05-13)"
   xmlns:inkscape="http://www.inkscape.org/namespaces/inkscape"
   xmlns:sodipodi="http://sodipodi.sourceforge.net/DTD/sodipodi-0.dtd"
   xmlns="http://www.w3.org/2000/svg"
   xmlns:svg="http://www.w3.org/2000/svg">
  <defs
     id="defs2" />
  <sodipodi:namedview
     id="namedview2"
     pagecolor="#ffffff"
     bordercolor="#000000"
     borderopacity="0.25"
     inkscape:showpageshadow="2"
     inkscape:pageopacity="0.0"
     inkscape:pagecheckerboard="0"
     inkscape:deskcolor="#d1d1d1"
     showgrid="false"
     inkscape:zoom="1.5"
     inkscape:cx="283.33333"
     inkscape:cy="71.666667"
     inkscape:window-width="1366"
     inkscape:window-height="705"
     inkscape:window-x="-8"
     inkscape:window-y="-8"
     inkscape:window-maximized="1"
     inkscape:current-layer="svg2"
     borderlayer="false" />
  <text
     x="358.68469"
     y="73.484138"
     font-family="Arial, sans-serif"
     font-size="39.2145px"
     font-weight="bold"
     fill="#800000"
     text-anchor="middle"
     id="text1"
     transform="scale(0.98659221,1.01359)"
     style="stroke-width:0.999994">যাদবপুর বিশ্ববিদ্যালয়</text>
  <text
     x="358.68469"
     y="132.30585"
     font-family="Verdana, sans-serif"
     font-size="31.3715px"
     font-weight="bold"
     fill="#2f4f4f"
     text-anchor="middle"
     id="text2"
     transform="scale(0.98659221,1.01359)"
     style="stroke-width:0.999994">JADAVPUR UNIVERSITY</text>
  <line
     x1="208.79303"
     y1="94.853333"
     x2="498.95795"
     y2="94.853333"
     stroke="#800000"
     stroke-width="2"
     id="line2" />
  <path
     d="m 75.007798,152.26788 v 0 c 33.839172,0 61.271262,-27.95594 61.271262,-62.441336 v 0 c 0,-34.485388 -27.43209,-62.441328 -61.271262,-62.441328 v 0 c -33.839191,0 -61.271258,27.95594 -61.271258,62.441328 v 0 c 0,34.485396 27.432067,62.441336 61.271258,62.441336 z"
     fill="#FF0002"
     id="path1-4"
     style="fill:#ffffff;stroke-width:8.33331" />
  <path
     fill="#af0606"
     d="m 54.836236,157.94082 c -0.0856,-0.29455 -0.285097,-1.64942 -0.285097,-2.12068 0,-1.64944 -2.566324,-3.53449 -7.128675,-5.24283 -2.509278,-0.94252 -4.277185,-2.97486 -4.277185,-5.00718 0,-0.53018 -0.05707,-1.23708 -0.142501,-1.61998 -0.171043,-0.58907 -0.199585,-0.61852 -0.883948,-0.14728 -0.513263,0.35344 -1.425726,0.47125 -3.222157,0.50072 -2.338206,0 -2.566306,-0.0293 -3.99205,-1.00143 -3.592842,-2.35632 -4.049068,-2.50359 -6.273202,-2.65087 l -2.138602,-0.17674 v -1.61999 c -0.05707,-2.09122 -0.627337,-3.23993 -2.994029,-5.59625 -1.083562,-1.0898 -2.138612,-2.35633 -2.395224,-2.85704 -0.484759,-1.00146 -0.57029,-4.71266 -0.142491,-5.92027 0.342192,-0.88362 0,-1.23706 -1.739393,-1.94397 -2.423751,-0.94253 -4.020576,-2.23849 -4.647884,-3.68175 -0.285174,-0.73636 -0.855445,-1.76723 -1.14059,-2.20904 a 21.500019,22.208344 0 0 1 -1.425783,-2.59191 c -0.769885,-1.76725 -1.824925,-2.65088 -3.421751,-3.03379 -0.7698752,-0.17672 -1.0265165,-0.82469 -0.4847398,-1.17815 0.5702901,-0.38289 1.4257157,-2.53304 1.4257157,-3.74065 0,-0.67746 -0.1995755,-2.17962 -0.4277225,-3.32833 -0.8554159,-4.123555 -0.2851063,-7.805306 1.3116716,-8.68892 0.285125,-0.147264 0.65584,-0.589086 0.855435,-0.883623 0.256651,-0.53018 0.171023,-0.647992 -0.655831,-1.001435 C 9.2415048,91.610346 8.129438,90.255457 7.6446884,88.606031 A 16.310359,16.847708 0 0 1 7.3595627,82.833035 c 0.1710232,-2.709777 0.1424904,-4.359203 -0.02834,-4.359203 -0.1710232,0 -0.4277124,-0.530169 -0.6272975,-1.178161 -0.1710426,-0.647981 -0.4562651,-1.178162 -0.5702999,-1.178162 -0.1424903,0 -0.1710232,-0.32399 -0.085599,-0.736359 0.085599,-0.500698 0.4847398,-0.942529 1.197607,-1.325416 0.5702903,-0.294558 1.3687081,-0.942528 1.682357,-1.413803 0.855445,-1.237058 2.5663247,-5.095543 2.5663247,-5.714081 0,-0.294548 0.712868,-1.237058 1.568313,-2.120681 1.397203,-1.413803 1.653844,-1.590521 3.193633,-1.767248 1.511275,-0.206189 2.081566,-0.500717 2.11008,-1.089803 0,-0.08833 -0.370725,-0.294557 -0.855446,-0.353443 -1.311661,-0.294518 -2.138583,-1.767247 -2.138583,-3.887938 0,-1.619973 0.142491,-2.00288 1.682337,-4.594825 1.967523,-3.416672 2.537825,-5.154467 2.281184,-7.068969 l -0.171026,-1.384341 1.140573,0.147264 c 1.254664,0.176727 3.079598,-0.589086 3.963537,-1.767247 0.285146,-0.353444 1.53979,-1.354879 2.794434,-2.238502 2.851461,-2.002889 4.277176,-2.238512 6.273211,-1.089803 0.769904,0.441801 1.425726,0.706897 1.539799,0.589085 0.0856,-0.0589 0.11415,-0.913085 0.0856,-1.855615 -0.114169,-3.239937 1.05503,-4.800994 5.588858,-7.451856 1.767907,-1.030896 2.281171,-1.767246 2.566306,-3.534493 0.285135,-1.531615 0.769894,-1.767238 2.252647,-0.677435 1.39724,0.971972 2.93703,0.971972 6.073626,0 2.93702,-0.883623 5.0471,-0.942529 6.330258,-0.147254 1.283158,0.824719 1.568293,0.765813 2.110069,-0.353443 0.9695,-1.973407 2.224134,-2.709767 6.10213,-3.534475 a 11.120699,11.487074 0 0 0 4.847476,-2.356323 c 1.368708,-1.295972 1.996026,-1.384341 2.566316,-0.353443 0.684354,1.295973 1.996035,1.885058 5.417795,2.356323 1.824925,0.235642 3.820931,0.647981 4.476791,0.883614 1.311671,0.500727 2.651856,1.914521 2.651856,2.798134 0,0.73635 0.427733,0.73635 0.940976,0 0.769908,-1.178151 1.910489,-1.472689 4.904526,-1.472689 a 11.976137,12.370695 0 0 1 4.419752,0.589076 c 1.767916,0.589066 4.277197,0.73634 5.104117,0.235642 0.76989,-0.500717 1.36872,-0.147254 1.88197,1.089803 0.51327,1.266519 0.65584,1.413794 3.70691,3.357757 a 24.522566,25.33047 0 0 1 3.50729,2.650871 c 1.39721,1.384321 2.62334,3.740655 2.62334,5.007184 0,1.030878 0.62732,1.4727 1.28316,0.883614 0.65584,-0.589086 3.36472,-0.147254 4.84747,0.706887 1.14059,0.736359 1.93901,1.531615 3.64988,3.829042 1.14059,1.561058 2.65187,2.474125 4.76196,2.945399 1.56829,0.294538 1.82491,0.471244 1.71084,0.942519 -0.57027,3.298853 -0.31363,4.300287 1.82497,7.18678 1.71086,2.326871 1.93899,3.06323 1.91048,5.743543 -0.0285,1.914512 -0.14251,2.444683 -0.59883,2.94541 -1.02654,1.119246 -0.74137,1.619963 0.85544,1.619963 2.53781,0 3.53582,1.472709 5.90253,8.836216 a 33.647243,34.755764 0 0 0 1.59682,4.359203 c 0.14251,0.206179 0.71287,0.353434 1.22613,0.353434 0.85545,0 0.9695,0.08834 0.9695,0.883633 0,0.441782 -0.19959,1.001434 -0.45625,1.178161 -1.14057,1.030888 -1.3687,2.032332 -1.76791,8.600584 -0.19959,3.239938 -0.22812,3.505022 -1.02654,4.359193 -0.48474,0.500718 -1.14056,0.883614 -1.48275,0.883614 -0.998,0 -1.16908,1.089803 -0.31364,2.032332 1.56831,1.767247 1.71089,2.444673 1.51127,7.245686 a 34.502681,35.639386 0 0 1 -0.59879,5.86137 c -0.42776,1.47269 -0.28514,2.41522 0.57027,2.94539 0.25661,0.11782 0.42773,0.53018 0.42773,0.94254 0,0.64799 -0.11412,0.70688 -1.25463,0.70688 -1.25466,0 -1.28317,0 -2.1386,1.64944 -0.45624,0.88361 -1.08355,2.2385 -1.34019,2.94539 -0.99802,2.70979 -4.76195,6.00862 -6.8435,6.00862 -1.19761,0 -1.42573,0.73637 -0.85545,2.50361 0.25661,0.7658 0.45626,2.26796 0.45626,3.35777 0,1.76722 -0.11415,2.15013 -0.79841,3.06321 -0.42773,0.58908 -1.14059,1.32543 -1.62533,1.64943 -0.96951,0.70688 -4.2772,3.97627 -4.84748,4.83046 -0.28514,0.41234 -0.28514,0.79525 -0.11415,1.29597 0.1425,0.41236 0.2566,0.85416 0.2566,1.00144 0,0.38289 -1.14059,0.35345 -2.22415,-0.0293 -1.05504,-0.38289 -2.19563,0.0883 -3.82095,1.59053 -3.47879,3.23992 -6.41579,4.06464 -9.01064,2.50359 -1.31165,-0.76581 -1.42572,-0.7069 -1.65385,0.58908 -0.14249,0.88361 -0.57028,1.61997 -1.51127,2.65087 -1.08354,1.17813 -1.73939,1.5905 -3.735409,2.3563 a 25.720182,26.567542 0 0 1 -3.621355,1.0898 c -1.568291,0.23566 -2.509267,1.0309 -3.421738,2.88651 -0.912492,1.9145 -1.454259,2.53304 -2.138603,2.53304 -0.342191,0 -0.513263,-0.17675 -0.456245,-0.50072 0.05707,-0.35344 -0.370716,-0.7658 -1.454259,-1.32544 a 8.5543837,8.8362118 0 0 0 -6.444306,-0.32388 c -2.081557,0.67741 -3.706906,0.35343 -5.873993,-1.17818 a 6.558361,6.7744286 0 0 1 -1.910504,-1.76724 c -0.199576,-0.73636 -0.513254,-0.61854 -1.140589,0.53017 -1.055022,1.82616 -1.767899,2.00288 -7.727451,1.91451 -7.413811,-0.0883 -7.07161,-0.14724 -7.584892,0.88362 -0.5703,1.08979 -1.226122,1.76724 -1.710861,1.76724 -0.285126,0 -0.427742,0 -0.456266,-0.0589 z m 27.259972,-9.36637 c 17.393929,-2.35633 32.905872,-12.48852 42.458272,-27.6868 A 56.715568,58.584076 0 0 0 128.03327,63.894083 59.709605,61.676749 0 0 0 97.921824,34.233875 54.348856,56.139393 0 0 0 75.680419,29.373965 57.314375,59.20261 0 0 0 47.336904,35.618216 c -5.845508,2.857051 -11.14923,6.774441 -15.683047,11.575436 a 56.801107,58.672444 0 0 0 -5.246695,77.876468 71.714253,74.076906 0 0 0 11.947638,12.01724 58.968221,60.910946 0 0 0 20.473487,10.01438 c 2.994048,0.79527 7.64191,1.59052 10.607434,1.8556 2.281161,0.17676 10.350793,-0.0589 12.689009,-0.41235 z m -15.397883,-2.5036 A 58.397932,60.321869 0 0 1 37.755987,133.37617 c -3.136625,-2.76868 -6.045103,-5.74355 -8.725482,-8.95403 A 59.025253,60.969857 0 0 1 19.250002,105.04138 C 16.797738,96.617519 16.398529,86.868237 18.109418,78.032021 A 56.344877,58.201174 0 0 1 59.9974,33.526979 c 9.238707,-2.356324 19.104779,-2.297408 28.314996,0.08835 22.355464,5.596269 39.122054,24.741381 42.287164,48.304612 3.36474,26.596989 -11.91909,51.839099 -37.068993,61.146579 a 59.509997,61.47057 0 0 1 -26.80372,3.00431 z m 15.226801,-2.65086 A 54.462917,56.257208 0 0 0 112.83498,127.51481 51.525906,53.223441 0 0 0 123.07171,66.103141 53.179757,54.931776 0 0 0 98.492114,40.772674 55.318352,57.140832 0 0 0 31.169108,56.059321 51.754025,53.459071 0 0 0 27.975484,118.20733 c 8.668446,13.7845 21.95625,22.6207 37.924422,25.18322 3.535815,0.58906 12.261288,0.58906 16.02522,0 z m -7.898551,-3.09267 c -0.712857,-0.4418 -0.912471,-0.76582 -0.912471,-1.47271 0,-0.79525 -0.05707,-0.82472 -0.741372,-0.58908 -2.366711,0.94253 -4.391259,-0.14727 -4.391259,-2.35632 0,-2.06179 2.110098,-3.53449 4.4768,-3.09266 0.855445,0.17674 0.969489,0.1178 0.855445,-0.32401 -0.05706,-0.47123 -0.427742,-0.58908 -2.851471,-0.61855 l -2.708882,-0.0884 -0.171053,1.85559 c -0.0856,1.00144 -0.228079,2.79814 -0.285126,4.00575 -0.05707,1.17815 -0.171033,2.20905 -0.285164,2.29742 -0.05707,0.0883 -0.513254,-0.11781 -0.940986,-0.4713 l -0.798378,-0.64798 0.114121,-3.5345 c 0.05706,-2.41522 0,-3.53447 -0.228118,-3.53447 -0.171043,0 -0.313688,-0.35344 -0.313688,-0.88361 0,-0.58909 0.142481,-0.88363 0.427732,-0.88363 0.228119,0 0.427733,-0.23568 0.427733,-0.58909 0,-1.61997 1.425754,-2.65086 3.849492,-2.65086 1.938989,0 3.136605,0.58908 3.336201,1.64943 0.199585,1.00143 0.05706,1.06035 -1.140591,0.58907 a 5.7029227,5.8908069 0 0 0 -2.138602,-0.38289 c -0.997993,0.0884 -1.226112,0.2062 -1.283158,0.76579 -0.0856,0.648 -0.0856,0.648 3.763933,0.648 h 3.877996 v 0.88361 c 0,0.50074 -0.1425,0.88363 -0.285135,0.88363 -0.171033,0 -0.285126,1.56108 -0.285126,4.06467 -0.02843,2.23849 -0.142471,4.27083 -0.228118,4.56536 -0.199576,0.47129 -0.285165,0.47129 -1.14059,-0.0883 z m -1.539789,-4.18249 c 0.427733,-0.20618 0.798408,-0.58906 0.855445,-0.88361 0.0856,-0.4418 -0.113957,-0.53017 -1.226141,-0.53017 -0.712857,0 -1.568312,0.14725 -1.881951,0.29455 -0.570299,0.29456 -0.741391,1.17816 -0.342153,1.61998 0.285136,0.2651 1.568303,0 2.566306,-0.50072 z m 10.322279,2.70978 c -1.05503,-0.82472 -2.224133,-1.00143 -2.85146,-0.44178 -0.627308,0.58908 -0.912452,0.58908 -1.824925,-0.1473 a 1.767906,1.8261502 0 0 1 -0.741391,-1.61996 c 0,-0.97198 0,-1.00145 1.340205,-1.08979 1.853438,-0.11784 1.996025,-0.82472 0.171033,-0.82472 -1.71088,0 -2.081576,-0.35345 -2.081576,-1.82616 0,-0.58908 -0.14249,-1.11924 -0.285116,-1.11924 -0.171043,0 -0.285146,-0.38289 -0.285146,-0.88363 0,-0.82472 0,-0.88363 1.910495,-1.00143 1.083544,-0.11781 3.535796,-0.38291 5.474803,-0.64799 3.935008,-0.50072 4.163126,-0.41235 3.877968,1.26651 -0.142501,0.76581 0.399232,3.82903 1.140594,6.65662 0.142509,0.41234 0,0.50071 -0.855436,0.50071 -0.855458,0 -1.02652,-0.11781 -1.169097,-0.73633 -0.199585,-0.88362 -0.14251,-0.88362 -1.368699,-0.23568 -1.311671,0.648 -2.309684,0.35345 -2.937011,-0.91307 l -0.513253,-1.03089 -0.313688,0.7069 c -0.285136,0.64797 -0.199576,0.76579 1.197617,1.67888 1.568304,1.00143 1.796412,1.41378 1.140591,1.97341 -0.228128,0.20619 -0.570301,0.14728 -1.026527,-0.29455 z m 2.509298,-4.27084 c 1.197618,-0.88362 0.513254,-1.88505 -0.855425,-1.17816 -0.855455,0.41235 -1.083572,1.61997 -0.313629,1.61997 0.285125,0 0.826902,-0.2062 1.14056,-0.44179 z m -1.055039,-2.85704 c 1.026517,-0.41233 1.14059,-0.50072 0.513263,-0.50072 a 15.968184,16.494261 0 0 0 -2.053042,0.17676 c -1.14059,0.14726 -1.283158,0.23567 -1.05504,0.7069 0.171043,0.29456 0.285135,0.88362 0.285135,1.35488 v 0.82471 l 0.541767,-1.03089 c 0.370714,-0.70689 0.855455,-1.17817 1.767917,-1.53161 z m -4.362736,1.0309 c -0.05707,-0.47126 -0.285136,-0.82472 -0.513273,-0.82472 -0.285136,0 -0.456246,0.35344 -0.513254,0.82472 -0.0856,0.64798 0,0.79526 0.513254,0.79526 0.484769,0 0.57029,-0.14727 0.513273,-0.79526 z m -24.80771,2.06178 c -1.197617,-2.44469 -1.425736,-3.23995 -0.998013,-4.32973 0.228118,-0.58909 1.083553,-0.58909 1.568303,-0.0884 0.285136,0.29455 0.427742,0.29455 0.627317,-0.0883 0.541777,-0.88361 0.285165,-1.41378 -0.741372,-1.7967 -0.798427,-0.29454 -0.969517,-0.50072 -0.855444,-0.97198 0.0856,-0.32399 0.171042,-0.7658 0.171042,-1.00142 0,-0.29457 0.199586,-0.29457 0.627318,-0.17676 0.65584,0.20619 4.277186,1.88505 4.448286,2.06178 0.22808,0.20619 -0.65585,1.61996 -0.940986,1.47271 -0.228079,-0.0589 -0.570289,0.53016 -0.855453,1.47269 -0.39921,1.1487 -0.684335,1.59052 -1.055022,1.59052 -0.712867,0 -0.655849,0.97198 0.0857,2.59197 0.513253,1.08978 0.5703,1.35487 0.228118,1.56106 -0.741381,0.50071 -0.969499,0.29454 -2.28118,-2.29744 z m 38.266608,1.0898 c -0.940995,-0.11782 -1.083553,-0.29457 -2.423748,-3.09266 -1.05502,-2.15016 -1.568293,-2.94542 -1.910475,-2.85706 -0.285135,0.0589 -0.655841,-0.23565 -0.912462,-0.7658 -0.427752,-0.88362 -0.427752,-0.88362 0.285135,-1.06035 0.570291,-0.14727 0.684345,-0.29455 0.399219,-0.61853 -0.513253,-0.61853 -0.171053,-2.70977 0.57029,-3.53449 1.112096,-1.20762 3.535834,-1.76725 3.992051,-0.97197 0.484759,0.73635 0.285135,1.06034 -0.769885,1.2665 -1.653863,0.29457 -2.081576,0.67746 -2.081576,1.64944 0,0.47124 0.113967,0.88362 0.228118,0.88362 0.1425,0 1.482763,-0.64799 2.994028,-1.4727 2.566323,-1.26652 2.794431,-1.35489 3.19364,-0.88362 a 1.7108768,1.7672422 0 0 1 0.427732,0.97197 c 0,0.29457 0.855426,1.94398 1.853448,3.71121 1.026539,1.76726 1.853449,3.23995 1.853449,3.35777 0,0.11782 -0.5703,0.17675 -1.254645,0.17675 -0.855445,0 -1.311662,-0.11781 -1.425736,-0.41234 -0.114121,-0.38289 -0.285135,-0.35345 -1.14056,0.14726 a 3.7068999,3.8290247 0 0 1 -2.224163,0.53017 c -1.026504,-0.0884 -1.311669,-0.29456 -1.853455,-1.11925 -0.969489,-1.47271 -0.427722,-3.06323 1.397228,-4.12356 1.881971,-1.0898 0.998013,-1.00145 -1.140577,0.11781 l -2.024539,1.03088 0.627317,1.41381 1.596826,3.23994 c 0.484738,1.06035 0.855423,2.0618 0.8269,2.23851 -0.05706,0.2062 -0.456233,0.29455 -1.08354,0.17675 z m 3.336217,-5.449 c 0.655821,-0.67745 0.684344,-0.82471 0.285136,-1.20762 -0.370716,-0.41234 -0.513255,-0.41234 -1.283158,0 -1.026526,0.58909 -1.311662,0.94253 -1.083544,1.53161 0.228099,0.67745 1.254634,0.50073 2.081566,-0.32399 z m -51.155238,4.91882 c -1.055031,-0.94253 -1.710852,-2.26795 -1.796412,-3.68175 0,-0.88361 0.114141,-1.11926 0.5703,-1.11926 0.399218,0 0.57029,0.29457 0.741381,1.06035 0.199585,1.17818 1.112058,2.47414 1.710881,2.47414 0.427722,0 0.427722,-0.0293 0,-0.53017 -0.998033,-1.17817 -0.171053,-2.00288 1.197596,-1.26654 0.370716,0.23568 0.48476,0.14727 0.513283,-0.35344 0,-0.35344 0.114123,-0.88359 0.228118,-1.17816 0.171033,-0.35344 0.114122,-0.50072 -0.228118,-0.50072 -0.285135,0 -0.798427,-0.29454 -1.169113,-0.7069 -0.940976,-0.94251 -0.940976,-2.53303 -0.02843,-4.18245 0.484749,-0.88363 0.5703,-1.32544 0.370714,-1.53162 -0.199565,-0.23565 -0.199565,-0.53016 0,-1.06035 0.370715,-0.7658 1.05504,-1.00142 1.368708,-0.4713 0.0856,0.14729 1.083564,0.82472 2.224144,1.47271 3.079588,1.76725 3.222155,1.91451 2.85147,2.8865 -0.142481,0.4418 -0.427752,0.7658 -0.5703,0.73635 -0.199575,-0.0293 -1.14059,1.32543 -2.138592,3.03376 a 10.179717,10.51509 0 0 1 -2.11009,2.94542 c -0.199585,-0.0589 -0.285116,0.17675 -0.171052,0.58908 0.285135,1.64942 -2.110079,2.56249 -3.564328,1.38433 z m 5.332244,-8.09986 0.57029,-0.94251 -0.798408,-0.50073 -0.741371,-0.53018 -0.769905,1.23707 c -0.427731,0.67743 -0.712857,1.35489 -0.627297,1.47271 0.05707,0.11781 0.48473,0.20619 0.969489,0.20619 0.627307,0 0.96947,-0.20619 1.397202,-0.94253 z m 53.379371,1.17817 c -0.48476,-0.50071 -0.42773,-1.0309 0.1425,-1.35488 0.85543,-0.50073 0.17105,-0.70691 -1.25465,-0.35346 -1.59681,0.38291 -2.73739,0.0884 -3.222158,-0.8836 -0.370715,-0.67745 -0.113967,-1.26653 0.969498,-2.35634 0.39923,-0.35345 0.74138,-0.8247 0.74138,-0.97196 0,-0.17676 -0.57029,0.23565 -1.22611,0.88359 -1.425745,1.44327 -1.625349,1.47272 -2.338206,0.67746 -0.513263,-0.58909 -0.513263,-0.61855 1.425734,-2.41524 1.112072,-1.00144 3.250662,-3.09267 4.761942,-4.62429 l 2.79443,-2.76866 0.71287,0.7069 c 0.39921,0.38288 0.65582,0.85416 0.5703,1.06033 -0.0856,0.29455 1.34017,1.8556 3.935,4.12357 0.5703,0.55963 1.02652,1.11925 0.94099,1.23707 -0.0855,0.14726 -0.71288,0.29455 -1.3687,0.44179 -1.19762,0.14729 -1.25463,0.11786 -3.22216,-1.8556 -1.85344,-1.91451 -2.02453,-2.00287 -2.56631,-1.61996 -0.51329,0.41233 -0.42773,0.58907 2.3667,3.41665 1.05505,1.00144 1.99602,2.06179 2.90851,3.23996 0,0.11781 -0.51326,0.23565 -1.14059,0.23565 -1.05504,0 -1.08355,0.0589 -1.28315,1.17817 -0.28517,1.59052 -1.22614,2.35632 -2.96554,2.35632 -0.74138,0 -1.48276,-0.14725 -1.71087,-0.35344 z m 1.34016,-6.59771 c -1.25463,-1.29599 -1.56827,-1.4727 -2.02453,-1.23706 -0.51324,0.29455 -0.51324,0.29455 -0.11396,0.8247 0.71286,0.79527 0.5703,1.29597 -0.68433,2.35633 -0.62734,0.50072 -1.08356,1.06034 -0.96951,1.23707 0.0856,0.17676 0.5703,-0.17675 1.11207,-0.76582 0.68434,-0.76579 1.08355,-1.00143 1.42573,-0.8836 0.71286,0.29455 0.998,0.70689 0.998,1.47269 0,0.53019 0.17105,0.70691 0.5703,0.70691 0.39922,0 0.68436,0.2651 0.79841,0.67743 0.14251,0.44179 0.22813,0.0589 0.28513,-1.08978 l 0.0857,-1.76725 z m -65.412515,5.30172 c -0.142472,-0.79526 -0.05706,-1.17815 0.285106,-1.61997 0.285135,-0.29454 0.456246,-0.58907 0.399238,-0.61853 l -1.254634,-0.67744 c -2.85146,-1.47271 -2.053072,-4.85992 1.083553,-4.85992 1.112067,0 2.76591,1.00144 2.965514,1.76723 0.0856,0.29457 0.285136,0.58909 0.399219,0.58909 0.5703,0 0.171052,-0.67744 -1.169094,-1.94396 -0.798408,-0.7658 -1.425725,-1.53161 -1.425725,-1.67889 0,-0.17674 0.285164,-0.58909 0.570299,-0.97198 l 0.655831,-0.67744 1.710871,1.73779 c 0.969499,0.94253 2.110089,2.03232 2.566335,2.35631 0.855426,0.73636 0.940957,1.08982 0.285106,2.03235 -0.285106,0.47124 -0.570289,0.58907 -0.769904,0.35344 -0.285136,-0.20619 -1.083553,0.47124 -3.022552,2.50359 -1.482752,1.53163 -2.794433,2.76869 -2.879983,2.76869 -0.114151,0 -0.285136,-0.47124 -0.399209,-1.06034 z m 2.566325,-4.59483 c -0.228128,-0.58908 -2.28118,-1.47269 -2.85148,-1.20759 -0.883949,0.35344 -0.285125,1.03087 1.425754,1.67886 1.226112,0.44179 1.682347,0.29456 1.425726,-0.47125 z m 25.94829,3.2105 c -4.562341,-0.7069 -8.269237,-1.88507 -11.919095,-3.77012 a 38.523245,39.792404 0 0 1 -16.367412,-16.90662 35.301088,36.464097 0 0 1 0,-31.810348 37.354145,38.584789 0 0 1 27.716207,-20.617831 c 20.159832,-3.122136 38.77988,10.014377 42.65788,30.043113 a 51.041156,52.722726 0 0 1 0,12.959776 c -2.85146,14.96265 -14.257318,26.50864 -29.256013,29.74857 -4.277185,0.67745 -8.554371,0.79526 -12.831567,0.35345 z m 12.831567,-3.53448 a 33.647243,34.755764 0 0 0 16.99473,-9.60202 c 4.191643,-4.12356 7.185693,-9.42529 8.668443,-15.198282 a 34.217536,35.344843 0 0 0 0.45624,-14.491382 C 105.93444,74.468083 101.20101,67.045671 94.186405,61.891223 A 38.380672,39.645132 0 0 0 79.301784,55.764764 C 75.594878,55.322981 71.859469,55.381877 68.181087,55.912057 56.204944,57.914927 45.99671,66.427153 41.833569,77.825862 39.89457,83.127583 39.352793,89.813656 40.407833,95.380462 A 33.93239,35.050305 0 0 0 67.55375,122.47818 51.896598,53.606346 0 0 0 81.525907,122.18362 Z M 59.683722,103.56868 c -1.425715,-0.7069 -2.053052,-1.67887 -2.19562,-3.41666 -0.114121,-1.472715 -0.05707,-1.708346 0.826922,-2.886508 a 12.261285,12.665236 0 0 1 1.254644,-1.4727 c 0.1425,-0.117822 3.136615,-0.2062 6.67242,-0.2062 h 6.358762 l 0.855436,0.706897 c 0.684334,0.589086 1.14059,0.73635 2.452251,0.73635 1.283157,0 1.881972,-0.147264 2.68037,-0.73635 1.026535,-0.706897 1.140589,-0.736359 6.415798,-0.736359 4.84749,0 5.41778,0.05891 6.273215,0.589086 1.140571,0.736359 1.796421,2.150153 1.796421,3.946854 0,1.17816 -0.113957,1.44325 -1.169103,2.35631 a 4.6193673,4.7715539 0 0 1 -2.366702,1.17816 c -0.627327,0.11784 -7.442328,0.23567 -15.112752,0.26511 -11.120697,0.0589 -14.114725,0 -14.742062,-0.29455 z m -1.853438,-9.189662 c -1.71089,-0.677454 -3.193642,-1.7967 -4.334232,-3.239947 -0.88394,-1.354878 -0.855426,-3.298841 0.0856,-4.270834 0.370714,-0.412339 0.855454,-0.73635 1.14059,-0.73635 0.712857,0 0.484759,-0.677433 -0.570301,-1.502162 -2.28116,-1.914511 -2.423728,-4.182466 -0.570289,-8.836206 1.22614,-2.945399 1.824934,-3.829023 2.680369,-3.829023 0.370714,0 0.940995,1.384341 2.053062,4.889363 1.311671,4.123561 1.140581,5.773006 -0.855425,7.599139 -1.055069,0.971993 -0.940995,1.384351 0.342191,1.384351 0.513253,0 1.425726,0.294558 2.053053,0.589076 a 15.397891,15.905179 0 0 0 8.46883,0 c 0.855455,-0.294557 2.423739,-0.618529 3.478798,-0.736349 2.423738,-0.294558 2.908478,-0.795265 1.71086,-1.826143 -1.425724,-1.295973 -1.824933,-2.120701 -1.824933,-4.12358 0,-2.827588 2.36672,-8.924565 3.42176,-8.924565 0.57029,0 1.083543,1.001434 1.254644,2.356322 0.113977,0.824719 0.57029,2.297409 1.05504,3.239937 1.568292,3.181052 1.397231,5.831913 -0.456237,7.334054 -1.31168,1.060361 -0.627317,2.061795 1.368699,2.061795 0.513273,0 1.71088,0.294558 2.623343,0.589086 1.910475,0.706887 5.788481,0.854162 6.786487,0.265095 0.342192,-0.176756 1.340186,-0.412349 2.195611,-0.500717 1.996035,-0.206189 2.19564,-0.824707 0.769894,-2.356323 -0.570271,-0.589086 -1.14056,-1.413803 -1.311661,-1.885058 -0.513272,-1.354899 -0.370715,-3.387211 0.256593,-4.241392 0.285135,-0.412339 0.5703,-0.883603 0.5703,-1.089793 0,-0.20619 0.285136,-1.237077 0.57029,-2.356323 0.541777,-1.649426 0.712867,-1.943965 1.22613,-1.885058 0.370715,0.0589 0.655841,0.412339 0.798399,0.942528 0.113968,0.471246 0.456255,1.1487 0.769894,1.472709 1.140587,1.354879 2.338205,4.241373 2.338205,5.714083 0,1.354877 -0.228118,1.914501 -2.081563,5.007173 -0.142471,0.2062 0.0856,0.500717 0.627334,0.795275 1.539769,0.824699 1.910455,3.446107 0.712857,5.301712 -1.482759,2.356333 -1.710877,2.474144 -9.124691,2.65087 l -6.558347,0.235663 -1.425726,-0.765802 c -1.710889,-0.94253 -2.081575,-0.971983 -3.564338,-0.176747 -1.254654,0.647972 -2.28117,0.765803 -10.550397,0.971972 -2.024549,0.117831 -4.106114,0.08836 -6.130663,-0.117792 z M 31.083557,120.44583 c -0.342192,-0.97197 -0.14249,-1.47268 0.684364,-1.79669 0.855435,-0.35345 0.855435,-0.3829 0.855435,-2.59196 0,-2.53304 0.399219,-3.23993 2.110079,-3.53447 1.425725,-0.29456 1.910495,-0.0294 2.851471,1.47269 0.427722,0.7069 0.912462,1.29598 1.05503,1.29598 0.427742,0 0.285135,-0.29456 -0.769895,-1.97342 -0.997994,-1.53161 -0.997994,-1.61997 -0.513263,-2.15015 0.285145,-0.29455 0.627307,-0.58908 0.798408,-0.58908 0.285136,0 1.568312,1.76725 3.849473,5.06609 0.342221,0.50074 0.285135,0.64799 -0.285097,1.29599 -0.484739,0.53016 -0.741381,0.58906 -0.998021,0.38289 -0.285117,-0.23565 -0.598815,-0.14727 -1.254635,0.29454 -1.083563,0.82472 -1.539799,0.67745 -2.281181,-0.7658 -0.712877,-1.5316 -1.539808,-2.23851 -2.281179,-2.00287 -0.399229,0.14725 -0.570301,0.41234 -0.570301,0.82472 0.114151,0.5007 0.342192,0.64798 1.140581,0.64798 0.912472,0 0.998022,0.0883 1.083563,0.94252 0.114151,1.17817 -0.627308,1.97343 -1.710861,1.76726 -0.74141,-0.17677 -0.798428,-0.11786 -0.798428,0.64799 0,0.70688 -0.142499,0.8836 -0.883957,1.03089 -1.425717,0.29455 -1.881963,0.23565 -2.081548,-0.29457 z m 80.953003,-2.65085 c -1.22612,-0.67746 -1.7679,-1.23708 -1.99602,-2.0618 -0.19958,-0.88361 0.51326,-2.70975 1.14057,-2.94539 a 0.85543837,0.88362118 0 0 0 0.42775,-0.7658 c 0,-0.29457 0.28513,-0.88363 0.68436,-1.29598 0.39923,-0.38289 0.5703,-0.79525 0.42773,-0.88362 -0.42773,-0.29457 -0.71285,0.0589 -2.28116,2.65087 l -1.45425,2.50359 -0.85541,-0.4418 c -0.42773,-0.23566 -0.79843,-0.50072 -0.79843,-0.58907 0,-0.14726 0.51327,-1.03091 2.96553,-4.91884 1.71087,-2.73921 1.93899,-2.85704 3.05107,-1.47268 0.2566,0.29454 1.71087,1.23705 3.19364,2.06177 1.53977,0.88362 2.7659,1.67888 2.7659,1.76723 0,0.0883 -0.31364,0.4418 -0.71286,0.648 -0.57029,0.29456 -0.85545,0.29456 -1.939,-0.0883 -1.73938,-0.70689 -2.48075,-0.64799 -2.48075,0.17675 0,0.3829 0.19957,0.97198 0.45623,1.32542 0.2281,0.35345 0.34219,0.79527 0.25661,0.94254 -0.22808,0.3829 -1.76789,0.3829 -1.996,0 -0.28515,-0.41235 -0.71288,-0.35344 -0.71288,0.11781 0,0.58908 0.94099,1.35489 1.68236,1.35489 a 4.5623382,4.7126461 0 0 0 1.51128,-0.44179 c 0.91247,-0.50072 1.19762,-0.38289 1.48277,0.64798 0.17102,0.53018 -0.0285,0.73636 -1.31168,1.38435 -1.71088,0.88361 -2.33818,0.94252 -3.50731,0.29456 z m -83.063082,-6.4799 c 0.0856,-1.08979 0.113948,-1.11925 2.651855,-2.2385 l 3.022552,-1.35489 c 0.342211,-0.17675 0.427751,-0.3829 0.256631,-0.88362 -0.228098,-0.58908 -0.285154,-0.58908 -3.877986,0.53017 -1.996025,0.648 -3.706916,1.08981 -3.849483,1.00144 -0.285164,-0.2062 -0.228098,-1.35488 0.114151,-1.82615 0.14249,-0.20619 0.541776,-0.38289 0.855426,-0.38289 0.570299,0 0.570299,-0.0294 -0.171023,-0.79525 a 5.6173786,5.8024454 0 0 1 -1.05504,-1.76725 c -0.598804,-1.76724 0.57029,-4.211926 1.996015,-4.211926 0.199585,0 0.741372,0.353443 1.140581,0.765806 0.684335,0.64799 0.855425,0.70689 1.397202,0.44178 0.399228,-0.20618 0.570319,-0.618521 0.570319,-1.178159 0,-0.942516 0.114151,-1.030884 1.140561,-1.295978 0.769894,-0.176748 0.798418,-0.08834 2.537811,5.390097 0.969499,3.06322 1.767898,5.71408 1.767898,5.89081 0,0.14729 -0.285164,0.44179 -0.598784,0.58907 -0.484779,0.29456 -0.65585,0.29456 -0.855464,-0.0294 -0.171043,-0.29455 -0.855427,-0.0883 -3.136597,0.88362 -4.220168,1.82615 -4.020564,1.76724 -3.9065,0.47124 z m 3.706905,-6.89223 c 0.712868,-0.29453 0.798399,-0.41234 0.627317,-1.11926 -0.285145,-1.0898 -0.199614,-1.0898 -1.511285,-0.29455 l -1.14058,0.648 -0.570301,-0.64799 c -0.34219,-0.35345 -0.741371,-0.67745 -0.883939,-0.67745 -0.570289,0 -0.285115,1.0309 0.48476,1.85562 0.855426,0.88362 1.283158,0.88362 3.022551,0.23565 z m 83.947027,3.35775 c -0.11395,-0.11781 -0.19958,-0.58907 -0.19958,-1.00143 0,-0.44179 -0.17102,-1.0309 -0.3707,-1.32543 -0.34219,-0.47125 -0.39923,-0.47125 -0.74139,-0.0294 -0.22812,0.23567 -0.62732,0.4418 -0.91247,0.4418 -0.28514,0 -0.57029,0.14726 -0.57029,0.29454 0,0.3829 -1.14057,0.3829 -1.62533,0.0589 -0.31369,-0.20618 -0.2281,-0.88363 0.45624,-3.47557 l 1.02653,-4.005761 c 0.19959,-0.824709 0.57031,-0.971973 1.79642,-0.618531 0.37072,0.08835 0.65586,0.382884 0.65586,0.647989 0,0.353443 0.85542,0.736352 3.42176,1.472713 1.88196,0.58906 3.42174,1.17815 3.42174,1.35487 0,0.58909 -0.7699,1.32544 -1.34021,1.32544 -0.51325,0 -0.57027,0.20619 -0.57027,1.64942 0,2.15015 -0.79841,3.09267 -2.85147,3.29885 a 4.5623382,4.7126461 0 0 1 -1.59683,-0.0883 z m 2.5378,-2.65085 c 0.0855,-0.35345 0,-1.17817 -0.17105,-1.76725 -0.28513,-0.88363 -0.51325,-1.06034 -1.996,-1.56106 l -1.62535,-0.58909 -0.28513,1.0309 c -0.28513,0.88362 -0.28513,0.97198 0.28513,0.97198 1.34018,0 2.48077,0.64799 2.65186,1.44324 0.34214,1.47271 0.85545,1.67888 1.14059,0.50072 z M 29.743372,83.009761 c -0.712867,-1.943963 -1.996016,-2.44469 -2.509279,-0.971981 -0.142481,0.500717 -0.456254,0.883624 -0.684363,0.883624 -0.228099,0 -0.798409,0.08835 -1.283158,0.176746 l -0.855425,0.206189 0.826921,-4.123561 c 0.456237,-2.297417 1.22614,-5.301731 1.710871,-6.715524 0.798417,-2.267966 0.969499,-2.53305 1.511275,-2.356334 0.285126,0.08836 0.684345,0.147294 0.798418,0.147294 0.14248,0 0.228099,0.265095 0.228099,0.559623 0,0.441792 0.57029,0.706897 2.994028,1.354889 l 2.994028,0.824717 -0.171033,1.060341 a 5.9880692,6.185347 0 0 1 -0.285115,1.178162 c 0,0 -0.798419,-0.176747 -1.710881,-0.471246 a 20.131318,20.79455 0 0 0 -4.761925,-1.237066 c -0.0856,0.05892 -0.199615,0.471294 -0.285155,0.883634 -0.171024,0.706886 -0.0856,0.795244 0.855454,1.089792 5.474794,1.590521 5.503317,1.619983 5.503317,2.297418 0,0.353443 -0.285125,0.85417 -0.684354,1.119256 -0.513254,0.353443 -0.684345,0.795255 -0.798409,1.943964 -0.171032,1.767247 -1.055029,2.945398 -2.28117,2.945398 -0.627317,0 -0.883949,-0.176746 -1.140589,-0.795255 z m 1.710871,-3.122134 c 0,-0.353444 0.171042,-0.824709 0.342201,-1.001436 0.256612,-0.294547 0.14249,-0.382885 -0.48474,-0.530179 a 58.740113,60.675315 0 0 1 -2.28118,-0.589067 c -0.741371,-0.235661 -1.482752,-0.294567 -1.596807,-0.206199 -0.285136,0.353444 -0.627317,2.53304 -0.342211,2.356313 l 1.340185,-0.677434 1.083572,-0.589085 0.712869,0.971991 c 0.855425,1.119246 1.254634,1.178151 1.254634,0.294558 z m 83.462297,1.826152 c -0.0857,-0.53018 -0.0571,-1.030898 0.0856,-1.119245 0.62732,-0.41235 0.57029,-2.179597 -0.11397,-3.887939 -0.14249,-0.382896 0.0855,-0.706896 0.91246,-1.237076 l 1.08357,-0.73634 1.02652,1.148708 0.99802,1.178152 0.51325,-1.472699 c 0.28517,-0.824709 0.62732,-1.4727 0.7699,-1.4727 0.14251,0 0.2566,-0.353444 0.2566,-0.765803 0,-0.589085 0.14251,-0.736349 0.85545,-0.736349 0.45623,0 0.85541,0.05891 0.85541,0.11781 0,0.206201 1.71089,8.600595 1.88197,9.07185 0.19959,0.677444 -1.31166,1.06034 -1.73938,0.441782 -0.28516,-0.353444 -0.74139,-0.382887 -2.85146,-0.176747 -1.14059,0.117821 -2.30969,0.235661 -3.45028,0.412339 -0.85544,0.147284 -0.91245,0.08836 -1.08355,-0.765803 z m 6.55836,-2.061776 c 0,-0.0589 -0.0857,-0.883623 -0.28514,-1.796709 l -0.31368,-1.708322 -0.7984,1.325436 c -0.88397,1.443246 -1.19761,1.59051 -2.08158,0.883604 -0.85544,-0.618519 -0.96949,-0.530161 -0.91247,0.648001 v 1.06034 l 2.16712,-0.176747 c 1.14059,-0.08836 2.13861,-0.206199 2.19562,-0.235672 z m -8.95358,0.589086 c -0.19959,-0.206198 -0.34219,-0.706906 -0.34219,-1.178171 0,-1.384341 1.19761,-1.914521 2.08156,-0.883624 0.91247,1.001435 0.42773,2.356334 -0.79842,2.356334 -0.34219,0 -0.74137,-0.117821 -0.94096,-0.324002 z m 0,-7.098441 c -0.34219,-1.237057 -0.28517,-1.325426 1.34018,-2.061776 2.42375,-1.060359 2.96553,-2.150142 0.91246,-1.796689 -1.34018,0.206199 -1.62533,-0.147264 -0.96949,-1.325446 0.48474,-0.883623 0.48474,-0.883623 -0.0284,-1.472699 -0.68437,-0.795246 -1.48278,-0.323991 -1.02653,0.559633 0.39921,0.765803 0.34219,1.619983 -0.1425,2.061775 -0.65585,0.559643 -2.13861,-0.176746 -2.13861,-1.060341 0,-1.030887 0.5703,-2.12069 1.34019,-2.650871 1.59682,-1.089783 4.56235,-0.235651 4.27718,1.178172 -0.0571,0.441792 0,0.73635 0.11397,0.73635 0.48477,0 1.11209,0.971992 1.11209,1.708342 0,0.736339 0,0.765801 0.48475,0.294547 0.51325,-0.589075 0.6273,-0.294547 -2.13862,-5.831902 -0.0855,-0.235651 1.39723,-0.942529 1.56833,-0.765802 1.42571,2.65086 2.62334,5.360638 3.62134,8.188225 -0.11415,0.176756 -0.5988,0.206189 -1.14057,0.117821 -0.74138,-0.147234 -1.42575,0.117822 -3.84949,1.4727 -1.5968,0.883623 -2.96551,1.59052 -2.99404,1.59052 -0.0571,0 -0.19957,-0.412349 -0.34213,-0.942539 z M 32.680383,69.608163 c -1.169094,-0.53016 -1.938988,-0.73635 -2.11008,-0.589065 -0.285115,0.294547 -1.938997,-0.176767 -1.938997,-0.589077 0,-0.294567 2.822937,-6.126449 3.193633,-6.597714 0.34219,-0.471244 1.653843,0.08835 1.653843,0.677435 0,0.235672 -0.399229,1.178172 -0.855426,2.150153 a 17.964208,18.556042 0 0 0 -0.855435,1.914511 c 0,0.147224 1.568293,1.030888 1.824934,1.030888 0.0856,0 0.171023,-0.824718 0.171023,-1.855595 0,-1.943965 0.427733,-3.004315 1.14059,-2.709778 a 4.8474841,5.0071862 0 0 1 1.254635,1.4727 c 0.855445,1.472699 2.19562,2.356323 3.051065,2.120701 0.285116,-0.05891 0.655831,0 0.855445,0.265095 0.228108,0.294548 0.142461,0.471245 -0.285165,0.706907 -0.684344,0.382885 -2.081565,0.412329 -2.480765,0.0589 -0.285135,-0.206199 -0.5703,-0.382896 -0.883968,-0.471245 l -0.655821,-0.206199 0.484731,1.295982 c 0.256631,0.73635 0.370714,1.531606 0.285135,1.767247 -0.285135,0.73635 -1.710871,0.559623 -3.877997,-0.441791 z m 75.506727,-4.800994 c -0.39923,-0.441802 -0.5703,-0.824718 -0.39923,-0.971991 l 2.56629,-2.091239 c 1.34021,-1.030887 2.39523,-1.943964 2.39523,-2.061785 0,-0.117781 -0.28512,-0.471245 -0.57029,-0.765803 -0.57029,-0.500707 -0.57029,-0.500707 -1.14056,0 a 1.9960231,2.0617826 0 0 0 -0.57033,1.325435 c 0,0.942531 -1.14057,2.150144 -2.62334,2.798135 -1.42571,0.589086 -1.65382,0.589086 -1.65382,-0.294557 0,-0.500718 0.19956,-0.824718 0.68436,-1.001445 0.39917,-0.147253 0.91246,-0.765802 1.19759,-1.354878 0.28513,-0.589086 0.94098,-1.531615 1.48276,-2.061785 0.85545,-0.883624 0.94097,-1.060331 0.57028,-1.531605 -0.8269,-1.178162 -1.82492,-2.179607 -2.93698,-3.004324 -0.1425,0 -0.71287,0.382895 -1.19763,0.824717 l -0.94097,0.854171 1.71087,0.382897 c 0.94099,0.206189 1.79642,0.471245 1.88196,0.589086 0.0857,0.11778 0.0857,0.677433 0,1.148698 -0.17104,0.706897 -0.39923,0.883633 -1.31166,1.060341 -1.25466,0.206189 -2.56631,1.531614 -2.56631,2.562512 0,0.589066 0,0.589066 -0.57031,0.05891 -0.76989,-0.706896 -0.71287,-1.295972 0.17106,-2.65087 l 0.71286,-1.089789 -0.65585,0.20619 c -1.79641,0.589075 -1.91046,0.559623 -2.11006,-0.323991 -0.37072,-1.413803 -0.22813,-1.708342 1.65384,-3.593401 1.42573,-1.472709 1.71087,-1.855605 1.3687,-2.061795 -0.34218,-0.294548 -0.34218,-0.412328 0,-1.06034 0.19957,-0.412339 0.54179,-0.765792 0.74138,-0.765792 0.5703,0 7.47082,7.039516 8.83954,9.012923 0.68433,1.001435 1.25463,1.973427 1.25463,2.150154 0,0.412338 -1.28316,0.765802 -1.71089,0.500717 -0.17103,-0.117842 -1.42571,0.736339 -2.79441,1.885059 -1.3402,1.148708 -2.56632,2.061774 -2.65186,2.061774 -0.0857,0 -0.45627,-0.294547 -0.85544,-0.736349 z M 38.212203,62.686478 c -0.741371,-0.589086 -1.340156,-1.178171 -1.340156,-1.38434 0,-0.176757 0.199567,-1.060352 0.427713,-1.973428 a 18.819646,19.439664 0 0 0 0.427752,-1.855595 c 0,-0.117811 -0.655851,0.53017 -1.425745,1.472699 -0.855435,0.942529 -1.568293,1.767238 -1.71088,1.767238 -0.0856,0.08834 -0.456246,-0.20619 -0.855426,-0.589067 l -0.57029,-0.677454 2.651856,-2.857049 c 2.566306,-2.827579 2.623352,-2.857031 3.250651,-2.41522 0.370734,0.294548 0.655859,0.73634 0.655859,1.030878 0,0.294568 0.998004,1.443267 2.423728,2.709777 2.937021,2.621418 3.108103,3.239946 0.798419,3.505041 -1.710871,0.176747 -1.568304,0.08831 -2.195621,1.384332 -0.285125,0.53017 -0.627337,0.942529 -0.855454,0.942529 a 6.8435071,7.0689685 0 0 1 -1.71091,-1.060341 z m 3.136625,-2.562493 c 0.05707,-0.05891 -0.228108,-0.412358 -0.627327,-0.765822 -0.570289,-0.589076 -0.769885,-0.618539 -1.14058,-0.294548 -0.228118,0.176747 -0.427752,0.73634 -0.427752,1.178152 v 0.883624 l 1.05506,-0.471285 z m 5.332227,-1.502172 c -0.513263,-0.883623 -0.39921,-1.79669 0.370714,-2.798125 0.484759,-0.589086 0.65585,-0.618548 3.279193,-0.441801 1.996006,0.147293 2.794433,0.294567 2.908477,0.647991 0.285165,0.677444 -0.0856,0.942529 -1.254634,0.942529 -0.855435,0 -1.14059,0.147264 -1.283158,0.589075 -0.513253,1.708353 -3.165119,2.356334 -3.99205,1.060341 z m 2.167125,-1.178161 c 0.285135,-0.382886 0.256651,-0.471245 -0.285135,-0.471245 -0.313678,0 -0.57029,0.2062 -0.57029,0.441802 0,0.265105 0.114121,0.441782 0.256602,0.441782 0.14248,0 0.399229,-0.176747 0.57029,-0.441782 z m -4.220178,-1.649427 c -0.399229,-0.176746 -0.655831,-0.500716 -0.627308,-0.795254 0.114122,-0.971983 0,-1.26652 -0.513272,-1.26652 -0.285107,0 -0.627318,0.294547 -0.769895,0.677434 -0.342143,0.765812 -1.14059,1.001435 -1.710881,0.500717 -0.998002,-0.883614 -0.0856,-4.418108 1.311682,-5.154448 a 6.558361,6.7744286 0 0 1 2.395234,-0.441802 h 1.568302 L 45.8256,48.578003 c -0.484731,-0.73635 -0.456237,-0.795255 0.399238,-1.678879 0.855425,-0.883614 0.912471,-0.913066 1.482752,-0.382886 0.285116,0.294537 0.5703,0.883623 0.5703,1.266529 0,0.382887 0.712858,1.826133 1.568312,3.151579 0.855416,1.325425 1.568294,2.503586 1.568294,2.621408 a 5.4177766,5.5962673 0 0 1 -1.796421,1.06034 c -0.05706,0 -0.598804,-0.706897 -1.226131,-1.59052 a 8.269238,8.5416704 0 0 0 -1.283158,-1.619973 c -0.171042,0 -0.712867,1.767246 -0.969489,3.210493 -0.199566,1.060341 -0.7414,1.472709 -1.511295,1.178161 z m 0.513263,-3.946832 0.171042,-0.589086 c 0.142501,-0.323991 0,-0.471246 -0.513263,-0.471246 -0.684363,0 -1.368698,0.500718 -1.368698,0.94254 0,0.147244 0.370715,0.235652 0.855445,0.235652 0.456245,0 0.855426,-0.02935 0.855426,-0.117811 z m 53.179758,3.829022 c -0.313678,-0.2062 -0.57029,-0.53018 -0.57029,-0.647992 -0.113928,-0.971981 -0.855416,-1.855606 -1.996006,-2.415228 l -1.254664,-0.618549 0.399229,-1.413783 c 0.228118,-0.765803 0.427732,-1.531616 0.427732,-1.67889 0,-0.147243 1.026526,-0.176716 2.366711,-0.08833 1.311661,0.117791 2.509295,0.08833 2.708895,-0.02925 0.28513,-0.20619 -1.996037,-1.855606 -3.649881,-2.591956 -0.769904,-0.324 -0.769904,-0.294548 -2.167116,2.621408 -0.484739,1.06035 -0.998009,2.061795 -1.596814,3.06323 -0.285135,0.147235 -1.653833,-0.530181 -1.653833,-0.824718 0,-0.147284 0.627317,-1.561058 1.425715,-3.151577 1.026537,-2.150155 1.311669,-3.004316 1.083564,-3.239947 -0.285155,-0.235653 -0.228099,-0.530171 0,-1.089804 0.285141,-0.589086 0.51326,-0.736359 0.99801,-0.589086 0.456235,0.08836 0.741371,-0.02924 0.998012,-0.441782 0.48474,-0.824718 3.336201,-0.795265 4.904503,0 1.39722,0.73635 2.56632,2.297408 1.96752,2.650871 -0.5703,0.412349 -0.68436,0.382897 -1.85346,-0.441792 -0.57029,-0.382885 -1.340191,-0.736339 -1.710886,-0.765802 -0.370696,0 -0.855425,-0.0589 -1.026516,-0.08834 -0.171033,0 -0.370696,0.117782 -0.427722,0.294528 a 11.405846,11.781616 0 0 0 3.136624,2.356333 165.09962,170.53886 0 0 1 3.27917,2.061776 c 0.28512,0.294557 -0.34216,1.295991 -0.85543,1.295991 -0.48478,0 -1.36872,1.266511 -4.077612,5.743524 -0.285126,0.441783 -0.342192,0.441783 -0.855426,0.05891 z m 1.283158,-4.359202 c 0,-0.117793 -0.513253,-0.235653 -1.14059,-0.235653 h -1.197588 l 0.684334,0.883613 0.655841,0.824719 0.48475,-0.618529 c 0.285135,-0.353443 0.513253,-0.736359 0.513253,-0.883623 z m -44.767945,2.415238 c -0.513253,-1.001435 0.114171,-1.796711 1.368708,-1.708342 0.855446,0.08835 1.083564,0.235672 1.14059,0.765813 0.05707,0.382886 -0.05706,0.883624 -0.228117,1.119245 -0.513264,0.647993 -1.910475,0.53018 -2.281181,-0.176746 z m -2.594818,-2.886493 -1.254654,-1.178172 1.14058,-1.384341 c 2.167135,-2.650851 2.480774,-3.122126 2.338207,-3.239936 -0.0856,-0.117822 -1.14059,0.294547 -2.395225,0.85416 l -2.224152,1.001445 -0.627309,-0.589085 c -0.342152,-0.323991 -0.570299,-0.73635 -0.456245,-0.883624 0.0856,-0.147254 1.767897,-1.089803 3.706896,-2.061775 3.33621,-1.590522 3.649878,-1.678879 3.99206,-1.207614 0.199575,0.265084 0.285126,0.795245 0.199575,1.178151 -0.114131,0.382906 0.285136,1.943964 0.997994,3.946853 0.798418,2.267945 1.083563,3.446116 0.855445,3.681748 -0.1425,0.20619 -0.769895,0.294548 -1.62532,0.20619 a 3.9920457,4.123565 0 0 0 -2.28117,0.294558 c -0.48477,0.294558 -0.940976,0.500717 -0.998023,0.500717 -0.0856,0 -0.684334,-0.500717 -1.368708,-1.119255 z m 3.963526,-1.649436 c 0.114142,-0.117782 -0.570279,-1.943964 -0.769894,-1.914502 -0.199576,0 -1.454229,1.826134 -1.454229,2.179596 0,0.176717 1.996005,-0.02925 2.224123,-0.294548 z m 30.282523,2.061785 a 5.1326305,5.3017266 0 0 0 -1.996035,-1.178162 c -0.940976,-0.294558 -1.311671,-0.589086 -1.511247,-1.178172 -0.142509,-0.441782 -0.199585,-0.883604 -0.11417,-0.942528 0.0856,-0.08834 1.083563,-0.382887 2.224153,-0.706887 2.224124,-0.589086 2.423738,-0.765794 2.680354,-2.385776 0.228109,-1.47271 -0.02843,-2.356324 -0.741365,-2.356324 -0.655841,0 -0.684355,0.294548 -0.0856,1.178162 0.969483,1.443257 -0.342153,2.827588 -1.596825,1.678879 -0.370696,-0.382886 -0.627309,-0.382886 -1.3687,-0.08833 -0.769884,0.294537 -0.96947,0.265085 -1.482752,-0.2062 -0.798408,-0.765803 -0.712858,-1.561067 0.342153,-2.562503 0.741381,-0.706887 0.826932,-0.942519 0.484759,-1.178162 a 1.7108768,1.7672422 0 0 0 -0.627326,-0.235641 c -0.171043,0 0,-1.472709 0.228088,-1.708342 0.14249,-0.206189 1.568313,0.53018 2.053043,1.089813 0.456255,0.500718 0.684354,0.559623 1.482772,0.294547 1.140575,-0.294547 1.568306,-0.147264 1.996038,0.8247 l 0.399171,0.795264 0.285164,-0.795264 c 0.370705,-0.942531 0.541777,-0.971973 1.653844,-0.294539 0.969499,0.589086 1.055049,1.295973 0.228118,1.708342 -0.484759,0.20619 -0.940976,1.26651 -1.996035,4.535909 -0.712858,2.356323 -1.425725,4.300287 -1.568287,4.359203 -0.171043,0 -0.598804,-0.294558 -0.96949,-0.677444 z m 0.285145,-2.356334 c 0,-0.294537 -0.285145,-0.441782 -0.798427,-0.441782 -0.741372,0 -0.741372,0 -0.228119,0.441782 0.712887,0.530181 1.026546,0.530181 1.026546,0 z m -9.181727,-1.678878 c -0.655841,-0.589067 -0.741382,-0.618529 -2.423738,-0.589067 l -1.169104,0.08834 -0.48476,-1.678889 c -0.285145,-0.913067 -0.370705,-1.767228 -0.285145,-1.855595 0.0856,-0.117792 1.083563,-0.589086 2.19563,-1.089804 1.140581,-0.471235 2.081575,-1.030887 2.138603,-1.178151 0.114141,-0.353453 -4.362737,-0.795265 -4.847486,-0.530171 -0.114122,0.08834 -0.199575,1.708322 -0.199575,3.652286 v 3.534484 h -1.996035 l -0.05706,-3.475578 c -0.0856,-3.298843 -0.114151,-3.47557 -0.684354,-3.534485 a 0.96949688,1.0014373 0 0 1 -0.769895,-0.824708 c -0.14249,-0.883614 0,-1.030888 0.798418,-1.030888 0.427731,0 0.741381,-0.294558 1.026516,-0.942528 0.769895,-1.855607 4.277196,-2.768683 5.988086,-1.561068 0.940976,0.589085 1.140561,1.855615 0.285135,1.472709 -1.1406,-0.53018 -2.908507,-0.500717 -3.507301,0.05889 l -0.5703,0.530171 0.798428,0.206199 c 0.456246,0.08833 2.281141,0.206189 3.992022,0.206189 h 3.250669 v 0.883623 c 0,0.589086 -0.171043,0.883625 -0.570291,1.001436 -0.484729,0.147264 -0.570299,0.412339 -0.570299,2.032332 0,1.030888 -0.0856,2.562502 -0.171033,3.387221 -0.171043,1.295972 -0.285126,1.531594 -0.855425,1.649426 -0.427733,0.08834 -0.940976,-0.08836 -1.311662,-0.412349 z m 0.199584,-4.300277 c -0.199584,-0.235643 -2.224153,0.971971 -2.36673,1.384341 -0.05707,0.176736 0.1425,0.294547 0.427732,0.294547 0.285126,0 0.855425,0.2062 1.226112,0.441782 0.712867,0.41235 0.712867,0.382897 0.798417,-0.765802 0.05706,-0.647982 0,-1.26651 -0.0856,-1.354878 z"
     id="path9-5"
     style="stroke-width:0.457136" />
</svg>
