<?xml version="1.0" encoding="UTF-8"?>
<svg width="570" height="105" version="1.2" viewBox="0 0 427.5 78.75" xmlns="http://www.w3.org/2000/svg" xmlns:cc="http://creativecommons.org/ns#" xmlns:dc="http://purl.org/dc/elements/1.1/" xmlns:rdf="http://www.w3.org/1999/02/22-rdf-syntax-ns#">
 <g transform="matrix(1.0702 0 0 1.0702 -211.55 -71.866)">
  <g fill="#0d4299">
   <path d="m262.84 119.91c0 0.74421-0.0667 1.4107-0.19992 1.9994-0.13323 0.57759-0.37211 1.0774-0.71088 1.4884-0.32769 0.41654-0.75532 0.73309-1.2885 0.95525-0.53315 0.20549-1.194 0.31101-1.9771 0.31101-0.25546 0-0.50538-0.0222-0.75532-0.0667-0.23879-0.0332-0.46094-0.0777-0.66645-0.13322-0.19437-0.0555-0.3721-0.11658-0.53317-0.17772-0.14993-0.0722-0.24435-0.13322-0.28878-0.17772-0.0444-0.0556-0.0889-0.11658-0.13322-0.17772-0.0332-0.0556-0.0611-0.13321-0.0889-0.22215-0.0166-0.0999-0.0332-0.22215-0.0444-0.35545v-0.55537-0.71089c0.0114-0.18882 0.0332-0.33877 0.0667-0.4443 0.0278-0.11658 0.0723-0.19993 0.13322-0.24436 0.0556-0.0556 0.12214-0.0889 0.19996-0.0889 0.0722 0 0.16104 0.0332 0.26657 0.0889 0.0999 0.0611 0.21105 0.12213 0.33322 0.17772 0.13323 0.0611 0.2777 0.12213 0.4443 0.17772 0.16107 0.0444 0.35545 0.0667 0.57759 0.0667 0.23327 0 0.4332-0.0278 0.59983-0.0889 0.17771-0.0556 0.31656-0.16106 0.42207-0.31101 0.11659-0.16105 0.2055-0.36655 0.26659-0.62202 0.0556-0.26659 0.0889-0.60536 0.0889-1.0219v-11.108c0-0.0722 0.0222-0.13877 0.0667-0.19993 0.0556-0.0722 0.14438-0.12213 0.26657-0.15552 0.11658-0.0444 0.28879-0.0722 0.51095-0.0888 0.22215-0.0277 0.48873-0.0444 0.79974-0.0444s0.56648 0.0166 0.77753 0.0444c0.20549 0.0166 0.37765 0.0444 0.51094 0.0888 0.13322 0.0333 0.22215 0.0833 0.26659 0.15552 0.0556 0.0611 0.0889 0.12767 0.0889 0.19993z"/>
   <path d="m277.07 124.05c0 0.10549-0.0444 0.19438-0.13322 0.26658-0.0778 0.0611-0.19994 0.10549-0.37766 0.13322-0.17773 0.0278-0.44431 0.0444-0.79974 0.0444-0.3721 0-0.64424-0.0166-0.82196-0.0444-0.16661-0.0278-0.28325-0.0723-0.35545-0.13322-0.0777-0.0722-0.11103-0.16106-0.11103-0.26658v-0.8886c-0.46095 0.48873-0.98857 0.8775-1.5773 1.1552-0.57759 0.26658-1.2218 0.39987-1.9327 0.39987-0.59424 0-1.1441-0.0833-1.6439-0.24435-0.48874-0.1444-0.92192-0.36656-1.2885-0.66646-0.35544-0.31101-0.63866-0.68867-0.84417-1.133-0.19437-0.4554-0.28879-0.983-0.28879-1.5773 0-0.64979 0.12213-1.2107 0.37765-1.6884 0.24993-0.48873 0.62758-0.8886 1.133-1.1996 0.49983-0.31101 1.133-0.53872 1.8883-0.68867 0.75531-0.1444 1.6273-0.22216 2.6214-0.22216h1.0663v-0.68866c0-0.33878-0.0388-0.64425-0.11104-0.91082-0.0611-0.26659-0.17217-0.47762-0.33324-0.64424-0.1666-0.17772-0.38875-0.31101-0.66645-0.39987-0.26658-0.0889-0.5998-0.13322-0.99967-0.13322-0.52206 0-0.98857 0.0611-1.3996 0.17772-0.41652 0.12213-0.77752 0.25548-1.0885 0.39988-0.31101 0.13322-0.5776 0.26101-0.79974 0.37765-0.21105 0.12212-0.37767 0.17772-0.51095 0.17772-0.0889 0-0.17217-0.0278-0.24437-0.0889-0.0777-0.0556-0.13322-0.13877-0.17772-0.24437-0.0444-0.0999-0.0833-0.23325-0.11104-0.39987-0.0166-0.16106-0.0222-0.33878-0.0222-0.53315 0-0.24992 0.0114-0.44987 0.0444-0.59983 0.0444-0.14439 0.12213-0.27768 0.24436-0.39987 0.11659-0.13322 0.31657-0.26658 0.59981-0.39987 0.29435-0.14439 0.63313-0.27768 1.0219-0.39987 0.39987-0.13322 0.82751-0.23325 1.2885-0.31101 0.47206-0.0889 0.95524-0.13322 1.444-0.13322 0.87195 0 1.6217 0.0889 2.2437 0.26659 0.62203 0.16661 1.133 0.42209 1.5328 0.77753s0.68868 0.81641 0.8664 1.3773c0.17772 0.54983 0.26658 1.2107 0.26658 1.9771zm-3.0879-4.7762h-1.1996c-0.50539 0-0.93303 0.0388-1.2885 0.11104-0.35544 0.0777-0.65533 0.18884-0.8886 0.33323-0.22216 0.14996-0.38876 0.33323-0.48873 0.55538-0.10549 0.21105-0.1555 0.4443-0.1555 0.71088 0 0.47763 0.14439 0.84417 0.4443 1.1108 0.29435 0.26658 0.71088 0.39987 1.244 0.39987 0.4443 0 0.84973-0.11105 1.2218-0.33322 0.36656-0.23326 0.73866-0.56649 1.1108-0.99969z"/>
   <path d="m298.64 112.83c0 0.0889-0.0166 0.19993-0.0444 0.33322-0.0332 0.13322-0.0777 0.32768-0.13322 0.57759l-2.9768 10.086c-0.0444 0.14995-0.10548 0.26658-0.17772 0.35544-0.0611 0.0778-0.15551 0.14441-0.2888 0.19995-0.13321 0.0444-0.33322 0.0723-0.5998 0.0889-0.25548 0.0114-0.57759 0.0222-0.97746 0.0222-0.41654 0-0.75532-0.0114-1.0219-0.0222-0.25549-0.0166-0.45543-0.0444-0.59982-0.0889-0.13322-0.0556-0.23882-0.13322-0.31101-0.22216-0.0611-0.0889-0.11104-0.19994-0.15551-0.33323l-1.8661-6.7756-0.0222-0.11104-0.0222 0.11104-1.7328 6.7756c-0.0332 0.14995-0.0833 0.26658-0.15551 0.35544-0.0611 0.0778-0.16662 0.14441-0.31101 0.19995-0.14995 0.0444-0.35544 0.0723-0.62202 0.0889-0.25548 0.0114-0.57759 0.0222-0.97746 0.0222-0.41654 0-0.75532-0.0114-1.0219-0.0222-0.25548-0.0166-0.45541-0.0444-0.5998-0.0889-0.13322-0.0556-0.23881-0.13322-0.31101-0.22216-0.0611-0.0889-0.11104-0.19994-0.15552-0.33323l-2.9324-10.086c-0.0777-0.23324-0.12768-0.42207-0.15551-0.55536-0.0166-0.1444-0.0222-0.26658-0.0222-0.35545 0-0.0889 0.0222-0.16105 0.0667-0.22214 0.0444-0.0556 0.12213-0.0999 0.24436-0.13322 0.11659-0.0444 0.27769-0.0722 0.48873-0.0889 0.20549-0.0114 0.46652-0.0222 0.77754-0.0222 0.32211 0 0.58869 0.0114 0.79974 0.0222 0.20549 0.0166 0.36655 0.0444 0.48874 0.0889 0.11658 0.0332 0.19992 0.0833 0.24435 0.15549 0.0444 0.0777 0.0777 0.16662 0.11104 0.26658l2.1993 8.1752 0.0444 0.15552 0.0222-0.15552 2.066-8.1752c0.0278-0.0999 0.0667-0.18882 0.11104-0.26658 0.0556-0.0722 0.13877-0.12213 0.24436-0.15549 0.11658-0.0444 0.27214-0.0722 0.46652-0.0889 0.18882-0.0114 0.44431-0.0222 0.75532-0.0222s0.56093 0.0114 0.75531 0.0222c0.18882 0.0166 0.33877 0.0444 0.4443 0.0889 0.11658 0.0332 0.19993 0.0833 0.24436 0.15549 0.0444 0.0611 0.0777 0.13322 0.11104 0.22216l2.2215 8.2418 0.0222 0.13322 0.0444-0.15552 2.1104-8.1751c0.0114-0.0999 0.0444-0.18883 0.0889-0.26659 0.0556-0.0723 0.1444-0.12212 0.26658-0.1555 0.11659-0.0444 0.27212-0.0722 0.46651-0.0889 0.20549-0.0114 0.46653-0.0222 0.77753-0.0222 0.29436 0 0.53871 0.0114 0.7331 0.0222 0.20548 0.0166 0.361 0.0444 0.46653 0.0889 0.11658 0.0332 0.19992 0.0777 0.24435 0.13322 0.0444 0.0611 0.0667 0.13322 0.0667 0.22216z"/>
   <path d="m311.53 124.05c0 0.10549-0.0444 0.19438-0.13322 0.26658-0.0777 0.0611-0.19993 0.10549-0.37765 0.13322-0.17771 0.0278-0.4443 0.0444-0.79974 0.0444-0.37211 0-0.64425-0.0166-0.82196-0.0444-0.16663-0.0278-0.28325-0.0723-0.35545-0.13322-0.0777-0.0722-0.11104-0.16106-0.11104-0.26658v-0.8886c-0.46097 0.48873-0.98858 0.8775-1.5773 1.1552-0.57759 0.26658-1.2218 0.39987-1.9327 0.39987-0.59425 0-1.1441-0.0833-1.6439-0.24435-0.48875-0.1444-0.92194-0.36656-1.2885-0.66646-0.35544-0.31101-0.63868-0.68867-0.84417-1.133-0.19438-0.4554-0.28881-0.983-0.28881-1.5773 0-0.64979 0.12214-1.2107 0.37767-1.6884 0.24992-0.48873 0.62757-0.8886 1.133-1.1996 0.49984-0.31101 1.133-0.53872 1.8883-0.68867 0.7553-0.1444 1.6272-0.22216 2.6214-0.22216h1.0663v-0.68866c0-0.33878-0.0389-0.64425-0.11104-0.91082-0.0611-0.26659-0.17217-0.47762-0.33321-0.64424-0.16663-0.17772-0.38878-0.31101-0.66646-0.39987-0.26658-0.0889-0.59982-0.13322-0.99969-0.13322-0.52206 0-0.98856 0.0611-1.3995 0.17772-0.41653 0.12213-0.77753 0.25548-1.0886 0.39988-0.31101 0.13322-0.5776 0.26101-0.79974 0.37765-0.21105 0.12212-0.37765 0.17772-0.51094 0.17772-0.0889 0-0.17218-0.0278-0.24438-0.0889-0.0777-0.0556-0.13322-0.13877-0.17772-0.24437-0.0444-0.0999-0.0833-0.23325-0.11103-0.39987-0.0166-0.16106-0.0222-0.33878-0.0222-0.53315 0-0.24992 0.0114-0.44987 0.0444-0.59983 0.0444-0.14439 0.12212-0.27768 0.24437-0.39987 0.11658-0.13322 0.31656-0.26658 0.59979-0.39987 0.29436-0.14439 0.63313-0.27768 1.0219-0.39987 0.39987-0.13322 0.82751-0.23325 1.2885-0.31101 0.47207-0.0889 0.95526-0.13322 1.444-0.13322 0.87195 0 1.6217 0.0889 2.2437 0.26659 0.62202 0.16661 1.133 0.42209 1.5328 0.77753 0.39988 0.35544 0.68867 0.81641 0.86638 1.3773 0.17772 0.54983 0.26658 1.2107 0.26658 1.9771zm-3.0879-4.7762h-1.1996c-0.5054 0-0.93304 0.0388-1.2885 0.11104-0.35544 0.0777-0.65535 0.18884-0.88861 0.33323-0.22214 0.14996-0.38876 0.33323-0.48873 0.55538-0.10548 0.21105-0.15551 0.4443-0.15551 0.71088 0 0.47763 0.14439 0.84417 0.4443 1.1108 0.29435 0.26658 0.71088 0.39987 1.244 0.39987 0.4443 0 0.84973-0.11105 1.2218-0.33322 0.36654-0.23326 0.73865-0.56649 1.1108-0.99969z"/>
   <path d="m326.68 124c0 0.0778-0.0332 0.14995-0.0889 0.22215-0.0444 0.0611-0.12767 0.11104-0.24437 0.15552-0.10549 0.0444-0.26103 0.0723-0.46651 0.0889-0.21105 0.0114-0.46097 0.0222-0.75532 0.0222-0.311 0-0.57203-0.0114-0.77753-0.0222-0.21104-0.0166-0.37209-0.0444-0.48873-0.0889-0.10549-0.0444-0.18883-0.0944-0.24437-0.15552-0.0444-0.0722-0.0667-0.1444-0.0667-0.22215v-6.3535c0-0.54426-0.0444-0.97746-0.13322-1.2885-0.0777-0.31102-0.18882-0.56648-0.33321-0.77752-0.14995-0.22216-0.34434-0.38877-0.57759-0.51096-0.23882-0.13322-0.51096-0.19993-0.82196-0.19993-0.39989 0-0.81085 0.14996-1.2218 0.44431-0.41654 0.2999-0.83861 0.72198-1.2663 1.2662v7.4198c0 0.0778-0.0332 0.14995-0.0889 0.22215-0.0444 0.0611-0.12768 0.11104-0.24436 0.15552-0.12213 0.0444-0.28324 0.0723-0.48873 0.0889-0.19439 0.0114-0.4443 0.0222-0.75532 0.0222-0.31101 0-0.57203-0.0114-0.77753-0.0222-0.19437-0.0166-0.34988-0.0444-0.46652-0.0889-0.12212-0.0444-0.21104-0.0944-0.26657-0.15552-0.0444-0.0722-0.0667-0.1444-0.0667-0.22215v-16.439c0-0.0722 0.0222-0.13876 0.0667-0.19993 0.0556-0.0722 0.1444-0.13322 0.26657-0.17772 0.1166-0.0556 0.27215-0.0944 0.46652-0.11104 0.2055-0.0277 0.46652-0.0444 0.77753-0.0444 0.31102 0 0.56093 0.0166 0.75532 0.0444 0.20549 0.0166 0.36654 0.0556 0.48873 0.11104 0.11658 0.0444 0.19993 0.1055 0.24436 0.17772 0.0556 0.0611 0.0889 0.12768 0.0889 0.19993v6.1536c0.53316-0.53316 1.0774-0.92193 1.6439-1.1774 0.56094-0.26658 1.1441-0.39987 1.755-0.39987 0.75531 0 1.3884 0.12781 1.9105 0.37766 0.53315 0.25548 0.95524 0.59426 1.2662 1.0219 0.32213 0.4332 0.55539 0.93304 0.68867 1.5106 0.1444 0.5776 0.22215 1.2829 0.22215 2.1104z"/>
   <path d="m340.71 124.05c0 0.10549-0.0444 0.19438-0.13322 0.26658-0.0778 0.0611-0.19995 0.10549-0.37767 0.13322-0.17772 0.0278-0.44429 0.0444-0.79974 0.0444-0.37209 0-0.64423-0.0166-0.82196-0.0444-0.16661-0.0278-0.28323-0.0723-0.35543-0.13322-0.0778-0.0722-0.11104-0.16106-0.11104-0.26658v-0.8886c-0.46096 0.48873-0.98857 0.8775-1.5773 1.1552-0.5776 0.26658-1.2218 0.39987-1.9327 0.39987-0.59425 0-1.1441-0.0833-1.6439-0.24435-0.48873-0.1444-0.92192-0.36656-1.2885-0.66646-0.35545-0.31101-0.63867-0.68867-0.84418-1.133-0.19436-0.4554-0.28879-0.983-0.28879-1.5773 0-0.64979 0.12214-1.2107 0.37765-1.6884 0.24994-0.48873 0.62759-0.8886 1.133-1.1996 0.49984-0.31101 1.133-0.53872 1.8883-0.68867 0.75531-0.1444 1.6273-0.22216 2.6214-0.22216h1.0663v-0.68866c0-0.33878-0.0388-0.64425-0.11104-0.91082-0.0611-0.26659-0.17217-0.47762-0.33324-0.64424-0.1666-0.17772-0.38875-0.31101-0.66646-0.39987-0.26657-0.0889-0.59979-0.13322-0.99967-0.13322-0.52205 0-0.98857 0.0611-1.3996 0.17772-0.41652 0.12213-0.77752 0.25548-1.0885 0.39988-0.31101 0.13322-0.57759 0.26101-0.79974 0.37765-0.21105 0.12212-0.37766 0.17772-0.51095 0.17772-0.0889 0-0.17217-0.0278-0.24436-0.0889-0.0777-0.0556-0.13322-0.13877-0.17773-0.24437-0.0444-0.0999-0.0833-0.23325-0.11103-0.39987-0.0166-0.16106-0.0222-0.33878-0.0222-0.53315 0-0.24992 0.0114-0.44987 0.0444-0.59983 0.0444-0.14439 0.12213-0.27768 0.24436-0.39987 0.11658-0.13322 0.31657-0.26658 0.59981-0.39987 0.29435-0.14439 0.63313-0.27768 1.0219-0.39987 0.39987-0.13322 0.82751-0.23325 1.2885-0.31101 0.47207-0.0889 0.95524-0.13322 1.444-0.13322 0.87197 0 1.6217 0.0889 2.2437 0.26659 0.62203 0.16661 1.133 0.42209 1.5328 0.77753s0.68868 0.81641 0.86639 1.3773c0.17773 0.54983 0.26659 1.2107 0.26659 1.9771zm-3.0879-4.7762h-1.1996c-0.50538 0-0.93304 0.0388-1.2885 0.11104-0.35544 0.0777-0.65533 0.18884-0.8886 0.33323-0.22215 0.14996-0.38875 0.33323-0.48873 0.55538-0.10549 0.21105-0.15551 0.4443-0.15551 0.71088 0 0.47763 0.1444 0.84417 0.44431 1.1108 0.29434 0.26658 0.71088 0.39987 1.244 0.39987 0.44431 0 0.84974-0.11105 1.2218-0.33322 0.36656-0.23326 0.73867-0.56649 1.1108-0.99969z"/>
   <path d="m352.54 113.89c0 0.29991-0.0114 0.54426-0.0222 0.73309-0.0166 0.19438-0.0444 0.3499-0.0889 0.46653-0.0332 0.10548-0.0777 0.17771-0.13322 0.22215-0.0444 0.0332-0.10549 0.0444-0.17772 0.0444-0.0778 0-0.15552-0.0114-0.24438-0.0444-0.0778-0.0278-0.1666-0.0556-0.26657-0.0889-0.10549-0.0278-0.22216-0.0556-0.35545-0.0889-0.12212-0.0278-0.25546-0.0444-0.39987-0.0444-0.17772 0-0.35544 0.0388-0.53317 0.11104-0.17772 0.0611-0.36654 0.17217-0.55536 0.33322-0.17772 0.14995-0.37211 0.34988-0.57759 0.5998-0.21105 0.23882-0.4221 0.54429-0.64425 0.91083v6.9533c0 0.0778-0.0332 0.14995-0.0889 0.22215-0.0444 0.0611-0.12768 0.11104-0.24436 0.15552-0.12213 0.0444-0.28324 0.0723-0.48874 0.0889-0.19437 0.0114-0.44429 0.0222-0.7553 0.0222-0.31102 0-0.57204-0.0114-0.77755-0.0222-0.19436-0.0166-0.34987-0.0444-0.4665-0.0889-0.12213-0.0444-0.21105-0.0944-0.26658-0.15552-0.0444-0.0722-0.0667-0.1444-0.0667-0.22215v-11.152c0-0.0889 0.0222-0.16106 0.0667-0.22215 0.0444-0.0556 0.11658-0.11104 0.22215-0.1555 0.0999-0.0444 0.23325-0.0722 0.39987-0.0889 0.17772-0.0114 0.39988-0.0222 0.66645-0.0222 0.26658 0 0.47763 0.0114 0.64424 0.0222 0.17772 0.0166 0.311 0.0444 0.39987 0.0889 0.0999 0.0444 0.17772 0.0999 0.22214 0.1555 0.0444 0.0611 0.0667 0.13322 0.0667 0.22215v1.3996c0.29434-0.42764 0.56649-0.77753 0.82195-1.0441 0.24994-0.26658 0.49429-0.47761 0.7331-0.64423 0.23326-0.16106 0.46651-0.27214 0.68866-0.33323 0.23327-0.0556 0.47209-0.0889 0.71089-0.0889 0.0999 0 0.21104 0.0114 0.33323 0.0222 0.13322 0.0166 0.26658 0.0388 0.39987 0.0667 0.13322 0.0332 0.24992 0.0667 0.35544 0.11104 0.0999 0.0332 0.17773 0.0667 0.22215 0.11104 0.0444 0.0332 0.0723 0.0778 0.0889 0.13321 0.0278 0.0444 0.0501 0.11104 0.0667 0.19996 0.0114 0.0889 0.0222 0.22214 0.0222 0.39987 0.0114 0.17772 0.0222 0.41653 0.0222 0.71088z"/>
   <path d="m358.94 124c0 0.0778-0.0332 0.14995-0.0889 0.22215-0.0444 0.0611-0.12768 0.11104-0.24435 0.15552-0.12214 0.0444-0.28325 0.0723-0.48873 0.0889-0.19439 0.0114-0.44431 0.0222-0.75532 0.0222s-0.57203-0.0114-0.77753-0.0222c-0.19438-0.0166-0.34989-0.0444-0.46651-0.0889-0.12214-0.0444-0.21105-0.0944-0.26659-0.15552-0.0444-0.0722-0.0667-0.1444-0.0667-0.22215v-16.439c0-0.0722 0.0222-0.13876 0.0667-0.19993 0.0556-0.0722 0.1444-0.13322 0.26659-0.17772 0.11658-0.0556 0.27213-0.0944 0.46651-0.11104 0.2055-0.0277 0.46652-0.0444 0.77753-0.0444s0.56093 0.0166 0.75532 0.0444c0.20548 0.0166 0.36654 0.0556 0.48873 0.11104 0.11658 0.0444 0.19993 0.1055 0.24435 0.17772 0.0556 0.0611 0.0889 0.12768 0.0889 0.19993z"/>
   <path d="m372.95 124.05c0 0.10549-0.0444 0.19438-0.13322 0.26658-0.0777 0.0611-0.19994 0.10549-0.37766 0.13322-0.17772 0.0278-0.44431 0.0444-0.79974 0.0444-0.3721 0-0.64424-0.0166-0.82196-0.0444-0.16661-0.0278-0.28325-0.0723-0.35544-0.13322-0.0777-0.0722-0.11103-0.16106-0.11103-0.26658v-0.8886c-0.46096 0.48873-0.98858 0.8775-1.5773 1.1552-0.57759 0.26658-1.2218 0.39987-1.9327 0.39987-0.59424 0-1.1441-0.0833-1.6439-0.24435-0.48873-0.1444-0.92192-0.36656-1.2885-0.66646-0.35545-0.31101-0.63868-0.68867-0.84418-1.133-0.19437-0.4554-0.28879-0.983-0.28879-1.5773 0-0.64979 0.12214-1.2107 0.37765-1.6884 0.24993-0.48873 0.62758-0.8886 1.133-1.1996 0.49983-0.31101 1.133-0.53872 1.8883-0.68867 0.75532-0.1444 1.6273-0.22216 2.6214-0.22216h1.0663v-0.68866c0-0.33878-0.0388-0.64425-0.11103-0.91082-0.0611-0.26659-0.17216-0.47762-0.33323-0.64424-0.16661-0.17772-0.38875-0.31101-0.66646-0.39987-0.26658-0.0889-0.5998-0.13322-0.99967-0.13322-0.52206 0-0.98857 0.0611-1.3996 0.17772-0.41652 0.12213-0.77752 0.25548-1.0885 0.39988-0.31101 0.13322-0.57759 0.26101-0.79974 0.37765-0.21105 0.12212-0.37767 0.17772-0.51096 0.17772-0.0889 0-0.17216-0.0278-0.24436-0.0889-0.0777-0.0556-0.13322-0.13877-0.17772-0.24437-0.0444-0.0999-0.0833-0.23325-0.11104-0.39987-0.0166-0.16106-0.0222-0.33878-0.0222-0.53315 0-0.24992 0.0114-0.44987 0.0444-0.59983 0.0444-0.14439 0.12214-0.27768 0.24436-0.39987 0.11659-0.13322 0.31657-0.26658 0.59982-0.39987 0.29434-0.14439 0.63312-0.27768 1.0219-0.39987 0.39987-0.13322 0.8275-0.23325 1.2885-0.31101 0.47206-0.0889 0.95524-0.13322 1.444-0.13322 0.87195 0 1.6217 0.0889 2.2437 0.26659 0.62203 0.16661 1.133 0.42209 1.5328 0.77753s0.68867 0.81641 0.86639 1.3773c0.17772 0.54983 0.26659 1.2107 0.26659 1.9771zm-3.0879-4.7762h-1.1996c-0.50538 0-0.93303 0.0388-1.2885 0.11104-0.35545 0.0777-0.65534 0.18884-0.88861 0.33323-0.22215 0.14996-0.38876 0.33323-0.48873 0.55538-0.10549 0.21105-0.1555 0.4443-0.1555 0.71088 0 0.47763 0.14439 0.84417 0.44431 1.1108 0.29434 0.26658 0.71087 0.39987 1.244 0.39987 0.4443 0 0.84973-0.11105 1.2218-0.33322 0.36656-0.23326 0.73866-0.56649 1.1108-0.99969z"/>
   <path d="m380.78 124c0 0.0778-0.0332 0.14995-0.0889 0.22215-0.0444 0.0611-0.12768 0.11104-0.24436 0.15552-0.12213 0.0444-0.28324 0.0723-0.48873 0.0889-0.19438 0.0114-0.4443 0.0222-0.75531 0.0222-0.31102 0-0.57204-0.0114-0.77753-0.0222-0.19438-0.0166-0.34989-0.0444-0.46652-0.0889-0.12213-0.0444-0.21105-0.0944-0.26658-0.15552-0.0444-0.0722-0.0667-0.1444-0.0667-0.22215v-16.439c0-0.0722 0.0222-0.13876 0.0667-0.19993 0.0556-0.0722 0.1444-0.13322 0.26658-0.17772 0.11659-0.0556 0.27214-0.0944 0.46652-0.11104 0.20549-0.0277 0.46651-0.0444 0.77753-0.0444 0.31101 0 0.56093 0.0166 0.75531 0.0444 0.20549 0.0166 0.36655 0.0556 0.48873 0.11104 0.11659 0.0444 0.19994 0.1055 0.24436 0.17772 0.0556 0.0611 0.0889 0.12768 0.0889 0.19993z"/>
   <path d="m406 123.27c0 0.19438-0.0388 0.36655-0.11104 0.51093-0.0611 0.14996-0.14995 0.27771-0.26658 0.37767-0.12213 0.10549-0.25548 0.17772-0.39987 0.22216-0.14994 0.0444-0.30544 0.0667-0.4665 0.0667h-1.3996c-0.29989 0-0.55537-0.0278-0.77752-0.0889-0.21105-0.0556-0.39987-0.16106-0.57759-0.31101-0.17772-0.16106-0.34988-0.36656-0.51095-0.62203-0.1666-0.26658-0.34989-0.60537-0.55537-1.0219l-4.021-7.5531c-0.23879-0.4554-0.48316-0.94413-0.73308-1.4662-0.23882-0.51651-0.4554-1.0219-0.64425-1.5106h-0.0222c0.0278 0.59425 0.0501 1.1941 0.0667 1.7994 0.0278 0.59426 0.0444 1.1996 0.0444 1.8216v8.464c0 0.0889-0.0332 0.17217-0.0889 0.24436-0.0444 0.0611-0.12768 0.11104-0.24435 0.15551-0.10549 0.0444-0.25549 0.0722-0.44431 0.0889-0.19438 0.0278-0.43874 0.0444-0.73311 0.0444-0.29988 0-0.54426-0.0166-0.73308-0.0444-0.17773-0.0166-0.32768-0.0444-0.44431-0.0889-0.10549-0.0444-0.17772-0.0944-0.22215-0.15551-0.0444-0.0722-0.0667-0.1555-0.0667-0.24436v-14.529c0-0.38321 0.11104-0.672 0.33323-0.86638 0.23326-0.20549 0.52206-0.31101 0.86638-0.31101h1.755c0.31101 0 0.57758 0.0333 0.79974 0.0889 0.22215 0.0444 0.41098 0.13322 0.57759 0.26658 0.17773 0.12213 0.33878 0.28879 0.48873 0.51094 0.1444 0.22215 0.29992 0.49985 0.46652 0.82196l3.1323 5.9092c0.18883 0.35544 0.37765 0.71088 0.55537 1.0663 0.17772 0.34433 0.34434 0.68866 0.51095 1.0441 0.17772 0.34435 0.33878 0.68312 0.48873 1.0219 0.16106 0.32767 0.31658 0.65535 0.46651 0.97746h0.0222c-0.0332-0.57759-0.0556-1.1829-0.0667-1.8216-0.0166-0.63312-0.0222-1.244-0.0222-1.8216v-7.5753c0-0.0889 0.0222-0.16106 0.0667-0.22215 0.0556-0.0722 0.14441-0.13322 0.26659-0.17772 0.11658-0.0444 0.27214-0.0722 0.46652-0.0889 0.18882-0.0277 0.4332-0.0444 0.73309-0.0444 0.2777 0 0.51652 0.0166 0.71089 0.0444 0.18883 0.0166 0.33878 0.0444 0.44429 0.0889 0.0999 0.0444 0.17773 0.10549 0.22216 0.17772 0.0444 0.0611 0.0667 0.13322 0.0667 0.22215z"/>
   <path d="m421.01 118.09c0 0.38876-0.0889 0.67756-0.26657 0.86639-0.16662 0.17772-0.39431 0.26658-0.68866 0.26658h-6.7756c0 0.47763 0.0501 0.90526 0.15552 1.2885 0.11658 0.38876 0.29434 0.72199 0.53316 0.99967 0.24991 0.26658 0.56648 0.47762 0.95524 0.62202 0.38321 0.13322 0.84973 0.19995 1.3996 0.19995 0.54427 0 1.0274-0.0332 1.444-0.11104 0.41097-0.0889 0.76641-0.17772 1.0663-0.26659 0.31101-0.0999 0.56093-0.18883 0.75531-0.26658 0.20549-0.0723 0.37767-0.11104 0.51096-0.11104 0.0722 0 0.13322 0.0166 0.17772 0.0444 0.0556 0.0332 0.0999 0.0833 0.13322 0.1555 0.0278 0.0777 0.0498 0.17772 0.0667 0.31101 0.0114 0.13322 0.0222 0.30547 0.0222 0.51095 0 0.19439-0.0114 0.35545-0.0222 0.48874 0 0.12213-0.0166 0.23325-0.0444 0.33322-0.0166 0.0889-0.0388 0.16661-0.0667 0.22215-0.0332 0.0611-0.0778 0.12213-0.13322 0.17772-0.0444 0.0611-0.19439 0.14441-0.44431 0.24438-0.23881 0.0889-0.54982 0.18882-0.93302 0.28879-0.37211 0.0889-0.79976 0.16661-1.2885 0.24436-0.47762 0.0723-0.98858 0.11104-1.5328 0.11104-0.99412 0-1.8661-0.12767-2.6214-0.37765-0.7442-0.24992-1.3662-0.62758-1.8661-1.133-0.48873-0.49982-0.86084-1.1385-1.1108-1.9105-0.23881-0.78308-0.35543-1.6939-0.35543-2.7324 0-0.98856 0.12212-1.8883 0.37766-2.688 0.26657-0.79974 0.64422-1.4717 1.133-2.0216 0.48873-0.56093 1.0774-0.98303 1.7772-1.2663 0.71088-0.29435 1.5106-0.4443 2.3992-0.4443 0.93304 0 1.7217 0.14441 2.377 0.42209 0.66645 0.26659 1.2052 0.64424 1.6217 1.133 0.42765 0.48873 0.73865 1.0663 0.93304 1.7328 0.20548 0.66645 0.31101 1.394 0.31101 2.1771zm-3.0434-0.88861c0.0278-0.8886-0.14995-1.5828-0.53317-2.0882-0.3721-0.49983-0.95526-0.75531-1.755-0.75531-0.39987 0-0.74975 0.0778-1.0441 0.22215-0.2999 0.14996-0.54428 0.35544-0.7331 0.62203-0.19439 0.25547-0.34434 0.54982-0.44431 0.8886-0.10548 0.34433-0.16661 0.71088-0.17772 1.1108z"/>
   <path d="m435.86 124c0 0.0778-0.0332 0.14995-0.0889 0.22215-0.0444 0.0611-0.12768 0.11104-0.24436 0.15552-0.10548 0.0444-0.26103 0.0723-0.46653 0.0889-0.21104 0.0114-0.46096 0.0222-0.75531 0.0222-0.31101 0-0.57203-0.0114-0.77752-0.0222-0.21104-0.0166-0.3721-0.0444-0.48874-0.0889-0.10548-0.0444-0.18883-0.0944-0.24436-0.15552-0.0444-0.0722-0.0667-0.1444-0.0667-0.22215v-6.3535c0-0.54426-0.0444-0.97746-0.13322-1.2885-0.0777-0.31102-0.18885-0.56648-0.33323-0.77752-0.14996-0.22216-0.34435-0.38877-0.57761-0.51096-0.23881-0.13322-0.51093-0.19993-0.82194-0.19993-0.39987 0-0.81086 0.14996-1.2218 0.44431-0.41654 0.2999-0.83861 0.72198-1.2663 1.2662v7.4198c0 0.0778-0.0332 0.14995-0.0889 0.22215-0.0444 0.0611-0.12781 0.11104-0.24436 0.15552-0.12214 0.0444-0.28325 0.0723-0.48874 0.0889-0.19438 0.0114-0.4443 0.0222-0.75531 0.0222s-0.57204-0.0114-0.77752-0.0222c-0.19439-0.0166-0.3499-0.0444-0.46653-0.0889-0.12212-0.0444-0.21105-0.0944-0.26658-0.15552-0.0444-0.0722-0.0667-0.1444-0.0667-0.22215v-16.439c0-0.0722 0.0222-0.13876 0.0667-0.19993 0.0556-0.0722 0.14439-0.13322 0.26658-0.17772 0.11659-0.0556 0.27214-0.0944 0.46653-0.11104 0.20548-0.0277 0.46651-0.0444 0.77752-0.0444s0.56093 0.0166 0.75531 0.0444c0.20549 0.0166 0.36655 0.0556 0.48874 0.11104 0.11658 0.0444 0.19994 0.1055 0.24436 0.17772 0.0556 0.0611 0.0889 0.12768 0.0889 0.19993v6.1536c0.53317-0.53316 1.0774-0.92193 1.6439-1.1774 0.56093-0.26658 1.1441-0.39987 1.755-0.39987 0.75531 0 1.3884 0.12781 1.9105 0.37766 0.53316 0.25548 0.95525 0.59426 1.2663 1.0219 0.32212 0.4332 0.55537 0.93304 0.68866 1.5106 0.1444 0.5776 0.22216 1.2829 0.22216 2.1104z"/>
   <path d="m447.56 113.89c0 0.29991-0.0114 0.54426-0.0222 0.73309-0.0166 0.19438-0.0444 0.3499-0.0889 0.46653-0.0332 0.10548-0.0777 0.17771-0.13322 0.22215-0.0444 0.0332-0.10548 0.0444-0.17772 0.0444-0.0777 0-0.15551-0.0114-0.24437-0.0444-0.0777-0.0278-0.1666-0.0556-0.26659-0.0889-0.10548-0.0278-0.22214-0.0556-0.35543-0.0889-0.12214-0.0278-0.25546-0.0444-0.39988-0.0444-0.17771 0-0.35544 0.0388-0.53316 0.11104-0.17772 0.0611-0.36654 0.17217-0.55537 0.33322-0.17772 0.14995-0.3721 0.34988-0.57759 0.5998-0.21104 0.23882-0.42209 0.54429-0.64425 0.91083v6.9533c0 0.0778-0.0332 0.14995-0.0889 0.22215-0.0444 0.0611-0.12768 0.11104-0.24437 0.15552-0.12212 0.0444-0.28324 0.0723-0.48873 0.0889-0.19438 0.0114-0.4443 0.0222-0.75531 0.0222s-0.57204-0.0114-0.77754-0.0222c-0.19437-0.0166-0.34988-0.0444-0.46651-0.0889-0.12213-0.0444-0.21105-0.0944-0.26658-0.15552-0.0444-0.0722-0.0667-0.1444-0.0667-0.22215v-11.152c0-0.0889 0.0222-0.16106 0.0667-0.22215 0.0444-0.0556 0.11659-0.11104 0.22215-0.1555 0.0999-0.0444 0.23326-0.0722 0.39987-0.0889 0.17773-0.0114 0.39988-0.0222 0.66646-0.0222s0.47762 0.0114 0.64422 0.0222c0.17773 0.0166 0.31102 0.0444 0.39988 0.0889 0.0999 0.0444 0.17772 0.0999 0.22215 0.1555 0.0444 0.0611 0.0667 0.13322 0.0667 0.22215v1.3996c0.29435-0.42764 0.56649-0.77753 0.82195-1.0441 0.24993-0.26658 0.4943-0.47761 0.73311-0.64423 0.23325-0.16106 0.46651-0.27214 0.68866-0.33323 0.23327-0.0556 0.47208-0.0889 0.71088-0.0889 0.0999 0 0.21105 0.0114 0.33324 0.0222 0.13322 0.0166 0.26658 0.0388 0.39987 0.0667 0.13322 0.0332 0.24992 0.0667 0.35544 0.11104 0.0999 0.0332 0.17772 0.0667 0.22215 0.11104 0.0444 0.0332 0.0722 0.0778 0.0889 0.13321 0.0278 0.0444 0.0501 0.11104 0.0667 0.19996 0.0114 0.0889 0.0222 0.22214 0.0222 0.39987 0.0114 0.17772 0.0222 0.41653 0.0222 0.71088z"/>
   <path d="m461.39 124c0 0.0778-0.0222 0.14995-0.0667 0.22215-0.0444 0.0611-0.12213 0.11104-0.22215 0.15552-0.10549 0.0444-0.24437 0.0723-0.42208 0.0889-0.16662 0.0114-0.37211 0.0222-0.62203 0.0222-0.28323 0-0.51095-0.0114-0.68867-0.0222-0.16661-0.0166-0.29991-0.0444-0.39987-0.0889-0.10549-0.0444-0.17772-0.0944-0.22215-0.15552-0.0332-0.0722-0.0444-0.1444-0.0444-0.22215v-1.2885c-0.62202 0.66645-1.2551 1.1718-1.8883 1.5106-0.63868 0.32213-1.2996 0.48873-1.9772 0.48873-0.77197 0-1.4162-0.12768-1.9327-0.37765-0.52206-0.24992-0.94415-0.58869-1.2663-1.0219-0.311-0.42764-0.54426-0.92193-0.68866-1.4884-0.13322-0.57759-0.19994-1.294-0.19994-2.1549v-6.82c0-0.0889 0.0222-0.16106 0.0667-0.22215 0.0444-0.0556 0.12213-0.11104 0.24436-0.1555 0.13322-0.0444 0.29435-0.0722 0.48874-0.0889 0.20548-0.0114 0.4554-0.0222 0.7553-0.0222 0.31102 0 0.56093 0.0114 0.75532 0.0222 0.20549 0.0166 0.36654 0.0444 0.48873 0.0889 0.13322 0.0444 0.22216 0.0999 0.26658 0.1555 0.0444 0.0611 0.0667 0.13322 0.0667 0.22215v6.3091c0 0.5776 0.0332 1.0219 0.11104 1.3329 0.0722 0.31102 0.18328 0.57759 0.33323 0.79975 0.16105 0.21104 0.36098 0.37767 0.59979 0.51095 0.23326 0.12213 0.51651 0.17772 0.84418 0.17772 0.39987 0 0.79974-0.14439 1.1996-0.4443 0.39987-0.29435 0.8275-0.71644 1.2885-1.2663v-7.4198c0-0.0889 0.0222-0.16106 0.0667-0.22215 0.0444-0.0556 0.12213-0.11104 0.24436-0.1555 0.13322-0.0444 0.29435-0.0722 0.48873-0.0889 0.20549-0.0114 0.45541-0.0222 0.75532-0.0222 0.311 0 0.56092 0.0114 0.75531 0.0222 0.20548 0.0166 0.36654 0.0444 0.48873 0.0889 0.11658 0.0444 0.19994 0.0999 0.24438 0.1555 0.0556 0.0611 0.0889 0.13322 0.0889 0.22215z"/>
   <path d="m486.54 118.4c0 0.99412-0.14993 1.8827-0.4443 2.6658-0.28323 0.78865-0.71088 1.4551-1.2885 1.9994-0.56648 0.53317-1.2607 0.94415-2.0882 1.2218-0.83305 0.27769-1.7883 0.42208-2.8657 0.42208-1.0219 0-1.9438-0.12768-2.7547-0.37765-0.79974-0.24992-1.4828-0.63313-2.0438-1.1552-0.54983-0.5165-0.97191-1.1608-1.2663-1.9327-0.2999-0.76642-0.44431-1.6717-0.44431-2.7102v-9.8413c0-0.0722 0.0222-0.13891 0.0667-0.19995 0.0556-0.0722 0.14439-0.13322 0.26658-0.17772 0.13322-0.0444 0.2999-0.0722 0.51094-0.0889 0.2055-0.0277 0.47208-0.0444 0.79974-0.0444 0.31101 0 0.56649 0.0166 0.77753 0.0444 0.22216 0.0166 0.38877 0.0444 0.51095 0.0889 0.11658 0.0444 0.2055 0.1055 0.26657 0.17772 0.0556 0.0611 0.0889 0.12782 0.0889 0.19995v9.5525c0 0.63869 0.0723 1.194 0.22216 1.6661 0.16107 0.47763 0.38876 0.86639 0.68868 1.1774 0.29434 0.31101 0.64979 0.54427 1.0663 0.68866 0.41098 0.14995 0.87194 0.22215 1.3773 0.22215 0.51651 0 0.97747-0.0723 1.3773-0.22215 0.41097-0.16106 0.76088-0.38876 1.0441-0.68866 0.27771-0.31102 0.4943-0.68867 0.64425-1.133 0.16106-0.4443 0.24435-0.94413 0.24435-1.5106v-9.7524c0-0.0722 0.0222-0.13891 0.0667-0.19995 0.0556-0.0722 0.1444-0.13322 0.26659-0.17772 0.13322-0.0444 0.29991-0.0722 0.51094-0.0889 0.2055-0.0277 0.47209-0.0444 0.79975-0.0444 0.311 0 0.56648 0.0166 0.77753 0.0444 0.20548 0.0166 0.36654 0.0444 0.48873 0.0889 0.13322 0.0444 0.22215 0.1055 0.26658 0.17772 0.0444 0.0611 0.0667 0.12782 0.0667 0.19995z"/>
   <path d="m501.9 124c0 0.0778-0.0332 0.14995-0.0889 0.22215-0.0444 0.0611-0.12767 0.11104-0.24436 0.15552-0.10549 0.0444-0.26104 0.0723-0.46652 0.0889-0.21105 0.0114-0.46097 0.0222-0.75532 0.0222-0.31101 0-0.57202-0.0114-0.77752-0.0222-0.21105-0.0166-0.37211-0.0444-0.48873-0.0889-0.10549-0.0444-0.18883-0.0944-0.24438-0.15552-0.0444-0.0722-0.0667-0.1444-0.0667-0.22215v-6.3535c0-0.54426-0.0444-0.97746-0.13322-1.2885-0.0777-0.31102-0.18884-0.56648-0.33324-0.77752-0.14995-0.22216-0.34433-0.38877-0.57759-0.51096-0.23881-0.13322-0.51094-0.19993-0.82195-0.19993-0.39987 0-0.81086 0.14996-1.2218 0.44431-0.41653 0.2999-0.83861 0.72198-1.2662 1.2662v7.4198c0 0.0778-0.0332 0.14995-0.0889 0.22215-0.0444 0.0611-0.12782 0.11104-0.24438 0.15552-0.12212 0.0444-0.28324 0.0723-0.48873 0.0889-0.19439 0.0114-0.4443 0.0222-0.75531 0.0222s-0.57203-0.0114-0.77753-0.0222c-0.19437-0.0166-0.34989-0.0444-0.46651-0.0889-0.12214-0.0444-0.21105-0.0944-0.26658-0.15552-0.0444-0.0722-0.0667-0.1444-0.0667-0.22215v-11.152c0-0.0889 0.0222-0.16106 0.0667-0.22215 0.0444-0.0556 0.11658-0.11104 0.22214-0.1555 0.0999-0.0444 0.23326-0.0722 0.39987-0.0889 0.17773-0.0114 0.39987-0.0222 0.66646-0.0222 0.26658 0 0.47763 0.0114 0.64425 0.0222 0.17772 0.0166 0.311 0.0444 0.39987 0.0889 0.0999 0.0444 0.17772 0.0999 0.22214 0.1555 0.0444 0.0611 0.0667 0.13322 0.0667 0.22215v1.2885c0.60537-0.66645 1.2274-1.1607 1.8661-1.4884 0.64979-0.33878 1.3162-0.51095 1.9994-0.51095 0.75532 0 1.3884 0.12781 1.9105 0.37766 0.53317 0.25548 0.95526 0.59426 1.2663 1.0219 0.32211 0.4332 0.55537 0.93304 0.68866 1.5106 0.14439 0.56649 0.22215 1.2552 0.22215 2.066z"/>
   <path d="m509.6 124c0 0.0778-0.0332 0.14995-0.0889 0.22215-0.0444 0.0611-0.12768 0.11104-0.24436 0.15552-0.12213 0.0444-0.28325 0.0723-0.48874 0.0889-0.19438 0.0114-0.4443 0.0222-0.75531 0.0222s-0.57203-0.0114-0.77753-0.0222c-0.19438-0.0166-0.34988-0.0444-0.46652-0.0889-0.12212-0.0444-0.21104-0.0944-0.26657-0.15552-0.0444-0.0722-0.0667-0.1444-0.0667-0.22215v-11.13c0-0.0723 0.0222-0.13892 0.0667-0.19995 0.0556-0.0722 0.14439-0.13321 0.26657-0.17771 0.1166-0.0444 0.27214-0.0723 0.46652-0.0889 0.2055-0.0278 0.46652-0.0444 0.77753-0.0444s0.56093 0.0166 0.75531 0.0444c0.20549 0.0166 0.36655 0.0444 0.48874 0.0889 0.11658 0.0444 0.19992 0.10548 0.24436 0.17771 0.0556 0.0611 0.0889 0.12782 0.0889 0.19995zm0.22215-14.929c0 0.63868-0.13322 1.083-0.39987 1.3329-0.25546 0.23882-0.72753 0.35544-1.4218 0.35544-0.71088 0-1.194-0.11658-1.444-0.35544-0.23882-0.23325-0.35545-0.65533-0.35545-1.2662 0-0.63313 0.12214-1.0719 0.37765-1.3107 0.26658-0.24992 0.74422-0.37765 1.444-0.37765 0.71089 0 1.183 0.12213 1.4218 0.35544 0.24992 0.23882 0.37765 0.6609 0.37765 1.2663z"/>
   <path d="m524.38 112.85c0 0.0332-0.0114 0.0778-0.0222 0.13322 0 0.0611-0.0114 0.12782-0.0222 0.19994-0.0166 0.0777-0.0332 0.15551-0.0444 0.24437-0.0166 0.0889-0.0444 0.19438-0.0889 0.31101l-3.3323 10.086c-0.0444 0.14996-0.10548 0.26659-0.17771 0.35545-0.0778 0.0777-0.19437 0.14441-0.35544 0.19994-0.1666 0.0444-0.38876 0.0723-0.66646 0.0889-0.26658 0.0114-0.63312 0.0222-1.0885 0.0222-0.4443 0-0.81085-0.0114-1.0886-0.0222-0.26657-0.0166-0.48317-0.0444-0.64423-0.0889-0.16661-0.0556-0.28324-0.13322-0.35544-0.22215-0.0611-0.0889-0.11104-0.19994-0.15552-0.33324l-3.3545-10.086c-0.0444-0.16106-0.0833-0.31101-0.11104-0.44431-0.0332-0.13322-0.0556-0.22769-0.0667-0.28879v-0.15551c0-0.0889 0.0222-0.16105 0.0667-0.22215 0.0556-0.0722 0.1389-0.12213 0.24437-0.1555 0.11659-0.0444 0.27769-0.0722 0.48874-0.0889 0.20548-0.0114 0.4665-0.0222 0.77752-0.0222 0.33878 0 0.61091 0.0114 0.82196 0.0222 0.20548 0.0166 0.36654 0.0444 0.48873 0.0889 0.11658 0.0332 0.19993 0.0833 0.24436 0.1555 0.0556 0.0777 0.0999 0.16662 0.13322 0.26658l2.5325 8.1752 0.0889 0.31101 0.0667-0.31101 2.5103-8.1752c0.0114-0.0999 0.0501-0.18882 0.11104-0.26658 0.0556-0.0722 0.13891-0.12213 0.24436-0.1555 0.11658-0.0444 0.27214-0.0722 0.46652-0.0889 0.20549-0.0114 0.46652-0.0222 0.77752-0.0222 0.31101 0 0.56095 0.0114 0.75532 0.0222 0.18883 0.0166 0.33879 0.0444 0.4443 0.0889 0.11659 0.0332 0.19995 0.0833 0.24437 0.1555 0.0444 0.0611 0.0667 0.13322 0.0667 0.22215z"/>
   <path d="m537.89 118.09c0 0.38876-0.0889 0.67756-0.26659 0.86639-0.16661 0.17772-0.39431 0.26658-0.68867 0.26658h-6.7756c0 0.47763 0.0501 0.90526 0.15549 1.2885 0.11659 0.38876 0.29437 0.72199 0.53317 0.99967 0.24993 0.26658 0.56648 0.47762 0.95525 0.62202 0.38321 0.13322 0.84973 0.19995 1.3995 0.19995 0.54429 0 1.0275-0.0332 1.444-0.11104 0.41098-0.0889 0.76642-0.17772 1.0663-0.26659 0.31102-0.0999 0.56093-0.18883 0.75532-0.26658 0.20549-0.0723 0.37765-0.11104 0.51094-0.11104 0.0723 0 0.13322 0.0166 0.17772 0.0444 0.0556 0.0332 0.0999 0.0833 0.13322 0.1555 0.0278 0.0777 0.0501 0.17772 0.0667 0.31101 0.0114 0.13322 0.0222 0.30547 0.0222 0.51095 0 0.19439-0.0114 0.35545-0.0222 0.48874 0 0.12213-0.0166 0.23325-0.0444 0.33322-0.0166 0.0889-0.0388 0.16661-0.0667 0.22215-0.0332 0.0611-0.0777 0.12213-0.13322 0.17772-0.0444 0.0611-0.19436 0.14441-0.4443 0.24438-0.2388 0.0889-0.54981 0.18882-0.93303 0.28879-0.3721 0.0889-0.79974 0.16661-1.2885 0.24436-0.47762 0.0723-0.98857 0.11104-1.5328 0.11104-0.99413 0-1.8661-0.12767-2.6214-0.37765-0.74422-0.24992-1.3662-0.62758-1.8661-1.133-0.48873-0.49982-0.86083-1.1385-1.1108-1.9105-0.23882-0.78308-0.35544-1.6939-0.35544-2.7324 0-0.98856 0.12213-1.8883 0.37765-2.688 0.26658-0.79974 0.64425-1.4717 1.133-2.0216 0.48873-0.56093 1.0774-0.98303 1.7772-1.2663 0.71088-0.29435 1.5106-0.4443 2.3992-0.4443 0.93303 0 1.7217 0.14441 2.377 0.42209 0.66644 0.26659 1.2052 0.64424 1.6217 1.133 0.42764 0.48873 0.73865 1.0663 0.93303 1.7328 0.20549 0.66645 0.31101 1.394 0.31101 2.1771zm-3.0435-0.88861c0.0278-0.8886-0.14994-1.5828-0.53316-2.0882-0.37209-0.49983-0.95524-0.75531-1.755-0.75531-0.39987 0-0.74976 0.0778-1.0441 0.22215-0.2999 0.14996-0.54427 0.35544-0.7331 0.62203-0.19437 0.25547-0.34433 0.54982-0.44429 0.8886-0.10549 0.34433-0.16663 0.71088-0.17772 1.1108z"/>
   <path d="m549.26 113.89c0 0.29991-0.0114 0.54426-0.0222 0.73309-0.0166 0.19438-0.0444 0.3499-0.0889 0.46653-0.0332 0.10548-0.0777 0.17771-0.13322 0.22215-0.0444 0.0332-0.10548 0.0444-0.17771 0.0444-0.0777 0-0.15552-0.0114-0.24438-0.0444-0.0777-0.0278-0.1666-0.0556-0.26658-0.0889-0.10548-0.0278-0.22215-0.0556-0.35544-0.0889-0.12213-0.0278-0.25547-0.0444-0.39988-0.0444-0.17771 0-0.35543 0.0388-0.53316 0.11104-0.17772 0.0611-0.36654 0.17217-0.55537 0.33322-0.17772 0.14995-0.3721 0.34988-0.57759 0.5998-0.21105 0.23882-0.42209 0.54429-0.64425 0.91083v6.9533c0 0.0778-0.0332 0.14995-0.0889 0.22215-0.0444 0.0611-0.12767 0.11104-0.24435 0.15552-0.12213 0.0444-0.28325 0.0723-0.48874 0.0889-0.19438 0.0114-0.4443 0.0222-0.75531 0.0222s-0.57204-0.0114-0.77753-0.0222c-0.19438-0.0166-0.34988-0.0444-0.46652-0.0889-0.12212-0.0444-0.21105-0.0944-0.26658-0.15552-0.0444-0.0722-0.0667-0.1444-0.0667-0.22215v-11.152c0-0.0889 0.0222-0.16106 0.0667-0.22215 0.0444-0.0556 0.11659-0.11104 0.22216-0.1555 0.0999-0.0444 0.23325-0.0722 0.39987-0.0889 0.17772-0.0114 0.39987-0.0222 0.66645-0.0222 0.26659 0 0.47763 0.0114 0.64423 0.0222 0.17772 0.0166 0.31102 0.0444 0.39988 0.0889 0.0999 0.0444 0.17771 0.0999 0.22214 0.1555 0.0444 0.0611 0.0667 0.13322 0.0667 0.22215v1.3996c0.29434-0.42764 0.56648-0.77753 0.82194-1.0441 0.24994-0.26658 0.4943-0.47761 0.73311-0.64423 0.23326-0.16106 0.46651-0.27214 0.68866-0.33323 0.23327-0.0556 0.47208-0.0889 0.71088-0.0889 0.0999 0 0.21105 0.0114 0.33324 0.0222 0.13322 0.0166 0.26658 0.0388 0.39987 0.0667 0.13322 0.0332 0.24992 0.0667 0.35544 0.11104 0.0999 0.0332 0.17772 0.0667 0.22215 0.11104 0.0444 0.0332 0.0723 0.0778 0.0889 0.13321 0.0278 0.0444 0.0501 0.11104 0.0667 0.19996 0.0114 0.0889 0.0222 0.22214 0.0222 0.39987 0.0114 0.17772 0.0222 0.41653 0.0222 0.71088z"/>
   <path d="m560.36 120.85c0 0.63869-0.12213 1.1996-0.35544 1.6884-0.23882 0.47762-0.57204 0.87749-0.9997 1.1996-0.43317 0.32767-0.94413 0.57205-1.5328 0.73311-0.59426 0.16106-1.2385 0.24435-1.9327 0.24435-0.41652 0-0.8164-0.0332-1.1996-0.0889-0.37209-0.0611-0.71088-0.13322-1.0219-0.22215-0.2999-0.0999-0.54982-0.20548-0.75532-0.31101-0.19437-0.0999-0.33322-0.19993-0.42208-0.28879-0.0889-0.0889-0.16662-0.22215-0.22215-0.39987-0.0444-0.18883-0.0667-0.47207-0.0667-0.84417 0-0.23326 5e-3 -0.42765 0.0222-0.5776 0.0114-0.14439 0.0332-0.26658 0.0667-0.35544 0.0444-0.0889 0.0889-0.1444 0.13322-0.17772 0.0556-0.0278 0.12213-0.0444 0.19994-0.0444 0.0889 0 0.22215 0.0556 0.39987 0.1555 0.17772 0.10548 0.39987 0.22215 0.66646 0.35544 0.26658 0.12213 0.57759 0.23882 0.93303 0.35544 0.35545 0.10549 0.75532 0.15552 1.1996 0.15552 0.2777 0 0.53317-0.0278 0.75532-0.0889 0.22215-0.0556 0.41098-0.13891 0.57759-0.24438 0.16106-0.11659 0.27768-0.25546 0.35545-0.42208 0.0889-0.16106 0.13322-0.35544 0.13322-0.57759 0-0.24992-0.0777-0.46653-0.22216-0.64425-0.14995-0.17772-0.35544-0.33321-0.62202-0.46651-0.25548-0.13322-0.54426-0.24991-0.8664-0.35544-0.311-0.11658-0.63866-0.24992-0.97746-0.39987-0.34432-0.14439-0.67756-0.31101-0.99968-0.48874-0.31101-0.17771-0.59424-0.39987-0.84416-0.66644-0.25548-0.26658-0.46097-0.58316-0.62203-0.95526-0.14995-0.38321-0.22215-0.83305-0.22215-1.3551 0-0.53317 0.0999-1.0219 0.31101-1.4662 0.20549-0.4554 0.49984-0.84416 0.8886-1.1552 0.39988-0.31101 0.8775-0.55538 1.444-0.7331 0.56095-0.17772 1.1885-0.26658 1.8883-0.26658 0.35544 0 0.69422 0.0333 1.0219 0.0889 0.32211 0.0444 0.62202 0.10548 0.8886 0.17771 0.26658 0.0777 0.48873 0.15552 0.66645 0.24438 0.18882 0.0889 0.32211 0.16661 0.39987 0.22215 0.0889 0.0611 0.1444 0.12767 0.17773 0.19992 0.0278 0.0611 0.0501 0.13322 0.0667 0.22216 0.0114 0.0778 0.0278 0.17772 0.0444 0.31101 0.0114 0.13322 0.0222 0.29991 0.0222 0.48873 0 0.22215-0.0114 0.41099-0.0222 0.55539-0.0166 0.13322-0.0388 0.24435-0.0667 0.33321-0.0332 0.0777-0.0667 0.12783-0.11104 0.15552-0.0444 0.0332-0.10549 0.0444-0.17773 0.0444-0.0777 0-0.19437-0.0444-0.35544-0.13322-0.14994-0.0889-0.34433-0.17772-0.57759-0.26658-0.2388-0.0999-0.52204-0.19995-0.84417-0.28881-0.31102-0.0889-0.66645-0.13322-1.0663-0.13322-0.28324 0-0.52762 0.0332-0.7331 0.0889-0.21105 0.0611-0.37766 0.14996-0.51095 0.26659-0.13322 0.10549-0.2388 0.23327-0.31102 0.37766-0.0611 0.13322-0.0889 0.28879-0.0889 0.46651 0 0.25548 0.0777 0.46653 0.24438 0.64425 0.16105 0.17771 0.36654 0.33322 0.62201 0.4665 0.24992 0.13322 0.53873 0.26104 0.86639 0.37767 0.33879 0.10549 0.67202 0.23325 0.99969 0.37765 0.33878 0.13322 0.67201 0.29991 0.99967 0.48873 0.33879 0.17772 0.63314 0.39987 0.8886 0.66645 0.26658 0.26659 0.47209 0.58872 0.62203 0.95526 0.16107 0.37211 0.24437 0.81085 0.24437 1.3107z"/>
   <path d="m567.26 124c0 0.0778-0.0332 0.14995-0.0889 0.22215-0.0444 0.0611-0.12767 0.11104-0.24436 0.15552-0.12213 0.0444-0.28324 0.0723-0.48873 0.0889-0.19439 0.0114-0.4443 0.0222-0.75532 0.0222-0.31101 0-0.57202-0.0114-0.77753-0.0222-0.19436-0.0166-0.34988-0.0444-0.4665-0.0889-0.12214-0.0444-0.21105-0.0944-0.26659-0.15552-0.0444-0.0722-0.0667-0.1444-0.0667-0.22215v-11.13c0-0.0723 0.0222-0.13892 0.0667-0.19995 0.0556-0.0722 0.1444-0.13321 0.26659-0.17771 0.11658-0.0444 0.27214-0.0723 0.4665-0.0889 0.20551-0.0278 0.46652-0.0444 0.77753-0.0444 0.31102 0 0.56093 0.0166 0.75532 0.0444 0.20549 0.0166 0.36655 0.0444 0.48873 0.0889 0.11658 0.0444 0.19993 0.10548 0.24436 0.17771 0.0556 0.0611 0.0889 0.12782 0.0889 0.19995zm0.22215-14.929c0 0.63868-0.13322 1.083-0.39987 1.3329-0.25546 0.23882-0.72753 0.35544-1.4218 0.35544-0.71088 0-1.194-0.11658-1.444-0.35544-0.23881-0.23325-0.35544-0.65533-0.35544-1.2662 0-0.63313 0.12213-1.0719 0.37766-1.3107 0.26657-0.24992 0.7442-0.37765 1.444-0.37765 0.71089 0 1.183 0.12213 1.4218 0.35544 0.24992 0.23882 0.37765 0.6609 0.37765 1.2663z"/>
   <path d="m578.38 122.89c0 0.37211-0.0222 0.66091-0.0667 0.8664-0.0444 0.19438-0.10548 0.32767-0.17773 0.39987-0.0777 0.0777-0.18883 0.14996-0.33322 0.22216-0.14995 0.0556-0.32768 0.11104-0.53317 0.15549-0.19438 0.0444-0.39987 0.0723-0.62202 0.0889-0.22215 0.0278-0.4554 0.0444-0.68866 0.0444-0.62203 0-1.1663-0.0833-1.6217-0.24435-0.46097-0.1444-0.84418-0.38321-1.1552-0.71088-0.29992-0.33879-0.52206-0.75532-0.66646-1.244-0.13322-0.49984-0.19993-1.0941-0.19993-1.7772v-5.7093h-1.3329c-0.16662 0-0.28881-0.0944-0.37767-0.28879-0.0778-0.20548-0.11104-0.53872-0.11104-0.99968 0-0.23326 5e-3 -0.43318 0.0222-0.5998 0.0278-0.16106 0.0556-0.2888 0.0889-0.37766 0.0444-0.0999 0.0944-0.17773 0.15552-0.22216 0.0723-0.0444 0.14439-0.0667 0.22215-0.0667h1.3329v-2.4881c0-0.0889 0.0222-0.16106 0.0667-0.22215 0.0444-0.0722 0.12214-0.13322 0.24438-0.17772 0.13322-0.0444 0.29435-0.0722 0.48873-0.0889 0.20549-0.0277 0.45541-0.0444 0.75532-0.0444 0.31101 0 0.56647 0.0166 0.77752 0.0444 0.20548 0.0166 0.36654 0.0444 0.48873 0.0889 0.11658 0.0444 0.19994 0.1055 0.24437 0.17772 0.0444 0.0611 0.0667 0.13322 0.0667 0.22215v2.4881h2.4214c0.0889 0 0.16106 0.0222 0.22215 0.0667 0.0556 0.0444 0.11104 0.12213 0.1555 0.22216 0.0444 0.0889 0.0723 0.2166 0.0889 0.37766 0.0278 0.16662 0.0444 0.36654 0.0444 0.5998 0 0.46096-0.0444 0.7942-0.13322 0.99968-0.0777 0.19439-0.19438 0.28879-0.35544 0.28879h-2.4437v5.2206c0 0.61092 0.0945 1.0663 0.2888 1.3774 0.18883 0.31101 0.53317 0.4665 1.0219 0.4665 0.17772 0 0.33322-0.0114 0.4665-0.0444 0.13322-0.0278 0.24992-0.0556 0.35545-0.0889 0.0999-0.0444 0.18328-0.0777 0.24438-0.11104 0.0723-0.0278 0.1389-0.0444 0.19992-0.0444 0.0556 0 0.11104 0.0166 0.15551 0.0444 0.0444 0.0332 0.0723 0.0889 0.0889 0.17772 0.0278 0.0778 0.0501 0.19439 0.0667 0.35545 0.0278 0.14995 0.0444 0.33321 0.0444 0.55536z"/>
   <path d="m588.66 124.42-1.3551 3.9543c-0.0778 0.20549-0.28323 0.35544-0.62203 0.4443-0.32766 0.0889-0.81084 0.13322-1.444 0.13322-0.34435 0-0.61648-0.0166-0.82197-0.0444-0.19438-0.0332-0.34433-0.0833-0.44431-0.15552-0.0889-0.0611-0.14439-0.1444-0.15549-0.24436-0.0166-0.0889 5e-3 -0.21104 0.0667-0.35544l1.4884-3.7321c-0.10548-0.0444-0.19994-0.11658-0.2888-0.22215-0.0889-0.0999-0.15549-0.21105-0.19993-0.33323l-3.821-10.263c-0.12213-0.2777-0.17772-0.49428-0.17772-0.64424 0-0.16106 0.0501-0.2888 0.15549-0.37766 0.0999-0.0889 0.27214-0.1444 0.51096-0.17773 0.23326-0.0278 0.54427-0.0444 0.93303-0.0444 0.36655 0 0.65536 0.0114 0.86638 0.0222 0.20551 0 0.361 0.0332 0.46653 0.0889 0.11658 0.0444 0.20548 0.12213 0.26658 0.22215 0.0556 0.10548 0.11659 0.25548 0.17772 0.4443l2.6214 7.4643h0.0444l2.3992-7.6198c0.0444-0.20548 0.0999-0.34431 0.17773-0.42207 0.0889-0.0722 0.22214-0.12213 0.39987-0.15551 0.18882-0.0278 0.51649-0.0444 0.97746-0.0444 0.35544 0 0.64979 0.0166 0.8886 0.0444 0.23326 0.0332 0.40544 0.0889 0.51094 0.17771 0.11659 0.0889 0.17772 0.21661 0.17772 0.37767 0 0.14996-0.0332 0.32767-0.0889 0.53316z"/>
  </g>
  <g>
   <path d="m286.2 84.046h-4.2431v16.15h-2.4436v-9.1526h-4.1542c0.6498 0.92193 0.97747 2.0438 0.97747 3.3767 0 1.5106-0.52205 2.6991-1.5551 3.5544-1.0219 0.84417-2.377 1.2663-4.0654 1.2663-3.1879 0-5.526-2.3326-7.02-6.9977l2.0882-0.66645c0.4554 1.4551 1.0441 2.6603 1.755 3.6211 0.98859 1.3662 2.1104 2.0438 3.3545 2.0438 0.98857 0 1.7828-0.26658 2.377-0.79974 0.60537-0.54427 0.91083-1.2551 0.91083-2.1326 0-0.67756-0.17773-1.3218-0.53316-1.9327-0.34434-0.60536-0.79975-1.0497-1.3773-1.3329h-2.6436v-2.2215h9.8857v-4.7763h-16.595v-2.2215h23.281zm-12.107 14.951zm0-16.15zm6.6423 0zm0 16.15z"/>
   <path d="m303.35 84.046h-4.2431v16.15h-2.4437v-4.1542c-0.38876 0.29991-0.77753 0.54428-1.1774 0.73311-0.38875 0.19438-0.77753 0.34988-1.1774 0.46651-0.39987 0.12213-0.79974 0.19994-1.1996 0.24437-0.39987 0.04436-0.81084 0.06668-1.2218 0.06668-0.75531 0-1.4662-0.13876-2.1326-0.42208-0.65535-0.29435-1.2218-0.68868-1.7106-1.1774-0.47763-0.49984-0.85528-1.0774-1.133-1.7328-0.26659-0.66645-0.39987-1.3829-0.39987-2.1549 0-0.76642 0.14441-1.4773 0.4443-2.1326 0.31101-0.64979 0.7331-1.2052 1.2663-1.6661 0.54426-0.45541 1.183-0.81085 1.9105-1.0663 0.73865-0.26658 1.5384-0.39987 2.3992-0.39987 0.47207 0 0.91636 0.03896 1.3329 0.11104 0.41098 0.07778 0.78864 0.17216 1.133 0.28879 0.35545 0.1055 0.67201 0.2166 0.95526 0.33323 0.27768 0.12213 0.5165 0.23326 0.71088 0.33322v-3.821h-11.396v-2.2215h18.083zm-6.6867 5.9981c-0.25548-0.13322-0.54427-0.26658-0.8664-0.39987-0.32766-0.14439-0.66645-0.27768-1.0219-0.39987-0.35545-0.11658-0.72199-0.21103-1.0885-0.28879-0.37211-0.07222-0.72756-0.11104-1.0663-0.11104-0.90526 0-1.6161 0.12782-2.1326 0.37766-0.52206 0.25548-0.91082 0.55537-1.1774 0.91081-0.25546 0.34434-0.41652 0.70534-0.48873 1.0885-0.0777 0.38877-0.11104 0.71088-0.11104 0.97746 0 0.4443 0.0889 0.86638 0.26658 1.2663 0.17772 0.39987 0.41098 0.74977 0.71088 1.0441 0.31101 0.28324 0.67201 0.51094 1.0885 0.68866 0.42766 0.16662 0.8775 0.24437 1.3551 0.24437 0.62202 0 1.1829-0.07778 1.6883-0.24437 0.5165-0.17772 0.96636-0.37765 1.3551-0.5998 0.39987-0.23326 0.722-0.46652 0.97747-0.68868 0.24993-0.23326 0.4221-0.40542 0.51096-0.51094z"/>
   <path d="m300.61 82.846zm10.13 1.1996h-4.2431v16.15h-2.4437v-16.15h-1.7328v-2.2215h8.4195zm-10.13 14.951zm4.4874-16.15z"/>
   <path d="m326.45 84.046h-5.1095v4.6207h-6.3091c-0.25546 0-0.48873 0.0556-0.71087 0.15551-0.21104 0.08886-0.39432 0.21659-0.55538 0.37765-0.16661 0.16662-0.2999 0.35544-0.39987 0.57759-0.0889 0.21105-0.13322 0.4332-0.13322 0.66645 0 0.35544 0.0777 0.68312 0.24437 0.97746 0.16107 0.28324 0.37766 0.51096 0.64423 0.68868 0.45542-0.26658 0.96637-0.47207 1.5328-0.62202 0.57759-0.16106 1.2218-0.24437 1.9327-0.24437 0.88861 0 1.6661 0.12782 2.3326 0.37766 0.67756 0.25548 1.2329 0.5887 1.6661 0.99967 0.4443 0.41654 0.76641 0.89972 0.97746 1.444 0.22215 0.54983 0.33322 1.1108 0.33322 1.6883 0 0.4443-0.0777 0.86084-0.22215 1.244-0.13322 0.38877-0.30545 0.74421-0.51094 1.0663-0.19438 0.32768-0.39987 0.61092-0.62202 0.84417-0.22215 0.23881-0.41097 0.42208-0.55538 0.55537l-1.7106-1.5773c0.0889-0.09995 0.19993-0.21105 0.33322-0.33323 0.1444-0.13322 0.2888-0.27769 0.4221-0.4443 0.13322-0.16106 0.24435-0.33878 0.33321-0.53316 0.0999-0.20549 0.15552-0.42208 0.15552-0.64423s-0.0388-0.46652-0.11104-0.7331c-0.0777-0.27769-0.22215-0.53871-0.44431-0.77752-0.22215-0.23326-0.53316-0.4332-0.93303-0.59982-0.38876-0.16106-0.88861-0.24436-1.5106-0.24436-0.53316 0-1.0385 0.08332-1.5106 0.24436-0.46094 0.14995-0.87748 0.3721-1.244 0.66645-0.35544 0.28324-0.64423 0.63314-0.86639 1.0441-0.22214 0.41654-0.33322 0.88304-0.33322 1.3995 0 0.84417 0.17772 1.5717 0.53315 2.1771 0.36657 0.61092 0.82753 1.133 1.3774 1.5773 0.54427 0.4554 1.1441 0.84417 1.7994 1.1552 0.66645 0.32212 1.2996 0.62203 1.9105 0.88861l-1.1108 1.9549c-0.52206-0.14996-1.0552-0.34434-1.5995-0.5776-0.53316-0.23881-1.0552-0.52206-1.5551-0.84417-0.50539-0.32768-0.98857-0.70532-1.444-1.133-0.44431-0.41652-0.83862-0.8886-1.1774-1.4218-0.34433-0.53317-0.61092-1.1108-0.79974-1.7328-0.19438-0.63313-0.2888-1.3218-0.2888-2.066 0-0.22215 0.0222-0.46652 0.0667-0.73311 0.0444-0.26658 0.1166-0.54427 0.22216-0.84417 0.0999-0.29435 0.23326-0.5887 0.39987-0.8886 0.16106-0.29435 0.35544-0.58314 0.57759-0.86638-0.48873-0.39987-0.88304-0.8664-1.1774-1.3996-0.2999-0.54427-0.44431-1.1219-0.44431-1.7328 0-0.53316 0.0889-1.033 0.26659-1.5106 0.18883-0.47207 0.44986-0.8886 0.77753-1.244 0.33878-0.36654 0.73865-0.65533 1.1996-0.86638 0.45541-0.20549 0.96081-0.31101 1.5106-0.31101h4.2875v-2.4659h-9.0415v-2.2215h16.595z"/>
   <path d="m339.71 84.046h-5.7093v4.0876c0 1.5884-0.12766 2.7547-0.37766 3.51-0.43318 1.2885-1.2774 1.9327-2.5325 1.9327l5.6204 6.5757-1.8883 1.5995-8.9305-10.397 1.9105-1.5995 1.5106 1.7772c0.0722 0.08886 0.22215 0.13322 0.44429 0.13322 1.1996 0 1.7994-0.94414 1.7994-2.8435v-4.7763h-6.198v-2.2215h14.351zm-7.642 14.951zm0.71089-16.15zm-0.71089 0z"/>
   <path d="m360.48 84.046h-4.2431v16.15h-2.4436v-7.8419l-5.5094 3.0213-1.1996-1.9327 1.9772-1.1552c-0.62203-1.3329-1.6662-1.9994-3.1323-1.9994-1.8661 0-2.7991 0.91081-2.7991 2.7324 0 1.6439 1.3162 3.8988 3.9543 6.7534l-2.1104 0.93304c-1.3773-1.4662-2.3492-2.6214-2.9102-3.4656-1.0552-1.5106-1.5773-2.8768-1.5773-4.1098 0-1.655 0.53316-2.9768 1.5995-3.9543 1.0052-0.89971 2.2882-1.3551 3.8432-1.3551 1.0663 0 2.0716 0.30547 3.0212 0.91082 0.96081 0.65535 1.605 1.4773 1.9327 2.4659l2.9102-1.5773v-5.576h-15.128v-2.2215h21.815zm-11.374 14.951zm0-16.15zm5.9092 0zm0 16.15z"/>
   <path d="m357.6 82.846zm10.13 1.1996h-4.2431v16.15h-2.4437v-16.15h-1.7328v-2.2215h8.4195zm-10.13 14.951zm4.4875-16.15z"/>
   <path d="m388.63 84.046h-4.2431v16.15h-2.4437v-7.8419l-5.5093 3.0213-1.1996-1.9327 1.9771-1.1552c-0.62203-1.3329-1.6661-1.9994-3.1323-1.9994-1.8661 0-2.7991 0.91081-2.7991 2.7324 0 1.6439 1.3162 3.8988 3.9543 6.7534l-2.1104 0.93304c-1.3773-1.4662-2.3492-2.6214-2.9102-3.4656-1.0552-1.5106-1.5773-2.8768-1.5773-4.1098 0-1.655 0.53316-2.9768 1.5995-3.9543 1.0052-0.89971 2.2882-1.3551 3.8432-1.3551 1.0663 0 2.0716 0.30547 3.0212 0.91082 0.96081 0.65535 1.605 1.4773 1.9327 2.4659l2.9102-1.5773v-5.576h-15.128v-2.2215h21.815zm-11.374 14.951zm0-16.15zm5.9092 0zm0 16.15z"/>
   <path d="m414.25 84.046h-4.2431v16.15h-2.4437v-8.886h-6.5757c0.22214 0.26658 0.41098 0.57203 0.57759 0.91081 0.17772 0.34434 0.26658 0.76643 0.26658 1.2663 0 2.8435-1.1996 4.2653-3.5988 4.2653-0.57759 0-1.1108-0.09995-1.5995-0.31101-0.47762-0.20549-0.88305-0.49429-1.2218-0.8664-0.32766-0.38321-0.58869-0.83306-0.77752-1.3551-0.17772-0.5165-0.26659-1.0719-0.26659-1.6661 0-2.9879 1.6328-4.4874 4.9095-4.4874h8.2862v-5.0206h-13.596v-2.2215h20.282zm-17.639 9.5969c0 1.2885 0.53872 1.9327 1.6217 1.9327 0.9608 0 1.444-0.69422 1.444-2.0882 0-0.23326-0.0332-0.45541-0.0889-0.66645-0.0611-0.20549-0.14994-0.39987-0.26658-0.57759-0.10549-0.17772-0.22216-0.33323-0.35544-0.46652-0.13322-0.14439-0.27769-0.26658-0.42208-0.35544-0.72754 0.12213-1.233 0.35544-1.5106 0.71088-0.28325 0.35544-0.42209 0.86084-0.42209 1.5106z"/>
   <path d="m410.42 82.291-1.4884 1.4662-7.6198-7.9752 1.6661-1.6883zm-1.6439 0.55537z"/>
   <path d="m429.85 84.046h-5.1095v4.6207h-6.3091c-0.25548 0-0.48875 0.0556-0.71089 0.15551-0.21103 0.08886-0.39432 0.21659-0.55538 0.37765-0.16661 0.16662-0.2999 0.35544-0.39987 0.57759-0.0889 0.21105-0.13322 0.4332-0.13322 0.66645 0 0.35544 0.0777 0.68312 0.24437 0.97746 0.16107 0.28324 0.37766 0.51096 0.64424 0.68868 0.45541-0.26658 0.96636-0.47207 1.5328-0.62202 0.57759-0.16106 1.2218-0.24437 1.9327-0.24437 0.8886 0 1.6661 0.12782 2.3326 0.37766 0.67756 0.25548 1.2329 0.5887 1.6661 0.99967 0.44431 0.41654 0.76642 0.89972 0.97747 1.444 0.22214 0.54983 0.33322 1.1108 0.33322 1.6883 0 0.4443-0.0778 0.86084-0.22216 1.244-0.13322 0.38877-0.30545 0.74421-0.51093 1.0663-0.19439 0.32768-0.39987 0.61092-0.62202 0.84417-0.22216 0.23881-0.41098 0.42208-0.55539 0.55537l-1.7106-1.5773c0.0889-0.09995 0.19993-0.21105 0.33322-0.33323 0.14442-0.13322 0.2888-0.27769 0.4221-0.4443 0.13322-0.16106 0.24435-0.33878 0.33321-0.53316 0.0999-0.20549 0.15552-0.42208 0.15552-0.64423s-0.0388-0.46652-0.11104-0.7331c-0.0777-0.27769-0.22215-0.53871-0.44431-0.77752-0.22215-0.23326-0.53315-0.4332-0.93302-0.59982-0.38876-0.16106-0.88861-0.24436-1.5106-0.24436-0.53316 0-1.0385 0.08332-1.5106 0.24436-0.46095 0.14995-0.87749 0.3721-1.244 0.66645-0.35545 0.28324-0.64424 0.63314-0.86638 1.0441-0.22216 0.41654-0.33324 0.88304-0.33324 1.3995 0 0.84417 0.17772 1.5717 0.53317 2.1771 0.36655 0.61092 0.82752 1.133 1.3773 1.5773 0.54428 0.4554 1.1441 0.84417 1.7994 1.1552 0.66644 0.32212 1.2996 0.62203 1.9105 0.88861l-1.1108 1.9549c-0.52206-0.14996-1.0552-0.34434-1.5995-0.5776-0.53316-0.23881-1.0552-0.52206-1.555-0.84417-0.5054-0.32768-0.98858-0.70532-1.444-1.133-0.4443-0.41652-0.83861-0.8886-1.1774-1.4218-0.34434-0.53317-0.61092-1.1108-0.79974-1.7328-0.19439-0.63313-0.28881-1.3218-0.28881-2.066 0-0.22215 0.0222-0.46652 0.0667-0.73311 0.0444-0.26658 0.11659-0.54427 0.22215-0.84417 0.0999-0.29435 0.23326-0.5887 0.39987-0.8886 0.16106-0.29435 0.35545-0.58314 0.57759-0.86638-0.48873-0.39987-0.88304-0.8664-1.1774-1.3996-0.2999-0.54427-0.44431-1.1219-0.44431-1.7328 0-0.53316 0.0889-1.033 0.26659-1.5106 0.18883-0.47207 0.44986-0.8886 0.77753-1.244 0.33878-0.36654 0.73865-0.65533 1.1996-0.86638 0.45542-0.20549 0.96081-0.31101 1.5106-0.31101h4.2875v-2.4659h-9.0415v-2.2215h16.595z"/>
   <path d="m446.84 96.086-1.9771 0.84417-2.9324-6.5534c-0.21104-0.47207-0.56649-0.71088-1.0663-0.71088-0.84416 0-1.2663 0.39431-1.2663 1.1774 0 0.61092 0.29435 0.91083 0.8886 0.91083v2.0882c-0.90526 0-1.6328-0.26658-2.1771-0.79974-0.54981-0.53316-0.82195-1.2552-0.82195-2.1771 0-0.98857 0.27769-1.7883 0.84417-2.3992 0.56093-0.60536 1.3329-0.91083 2.3104-0.91083 0.93304 0 1.6772 0.23327 2.2437 0.68868 0.48873 0.39987 0.93859 1.0663 1.3551 1.9994zm1.5106-12.041h-10.952v3.51c0 3.7488-0.90527 5.7315-2.7102 5.9536l5.3983 5.8648-1.8216 1.6661-8.9305-9.6636 1.8216-1.6661 1.7106 1.8661c1.3884 0.01664 2.0882-1.4551 2.0882-4.4208v-3.1101h-6.198v-2.2215h19.594zm-12.174-1.1996zm1.9994 16.15zm-0.11103-16.15z"/>
   <path d="m463.79 78.27zm13.174 3.9987-0.82196 1.5995c-5.6871-4.6763-10.613-7.0644-14.773-7.1533-1.1996 0-2.1938 0.21105-2.9768 0.62202-0.96636 0.52206-1.444 1.3329-1.444 2.4437 0 0.93304 0.38322 1.6162 1.1552 2.0438h5.4649v2.2215h-4.2209v16.15h-2.4437v-16.15h-3.2434v-2.2215h1.4218c-0.31102-0.67756-0.46651-1.4051-0.46651-2.1771 0-1.7605 0.63312-3.099 1.9105-4.0209 1.1385-0.79974 2.6269-1.1996 4.4652-1.1996 2.7824 0 5.7148 0.86638 8.7972 2.5992 1.8938 1.0997 4.2875 2.8435 7.1755 5.2428zm-13.174 16.728z"/>
   <path d="m480.61 84.046h-4.2431v16.15h-2.4437v-4.1542c-0.38877 0.29991-0.77753 0.54428-1.1774 0.73311-0.38876 0.19438-0.77753 0.34988-1.1774 0.46651-0.39988 0.12213-0.79975 0.19994-1.1996 0.24437-0.39987 0.04436-0.81084 0.06668-1.2218 0.06668-0.7553 0-1.4662-0.13876-2.1326-0.42208-0.65534-0.29435-1.2218-0.68868-1.7106-1.1774-0.47764-0.49984-0.85529-1.0774-1.133-1.7328-0.26659-0.66645-0.39987-1.3829-0.39987-2.1549 0-0.76642 0.14441-1.4773 0.44429-2.1326 0.31101-0.64979 0.73311-1.2052 1.2663-1.6661 0.54427-0.45541 1.183-0.81085 1.9105-1.0663 0.73865-0.26658 1.5384-0.39987 2.3992-0.39987 0.47207 0 0.91637 0.03896 1.3329 0.11104 0.41098 0.07778 0.78864 0.17216 1.133 0.28879 0.35544 0.1055 0.67201 0.2166 0.95526 0.33323 0.27768 0.12213 0.51649 0.23326 0.71088 0.33322v-3.821h-11.396v-2.2215h18.083zm-6.6867 5.9981c-0.25547-0.13322-0.54426-0.26658-0.86639-0.39987-0.32766-0.14439-0.66646-0.27768-1.0219-0.39987-0.35544-0.11658-0.72199-0.21103-1.0885-0.28879-0.37211-0.07222-0.72755-0.11104-1.0663-0.11104-0.90526 0-1.6161 0.12782-2.1326 0.37766-0.52205 0.25548-0.91083 0.55537-1.1774 0.91081-0.25546 0.34434-0.41652 0.70534-0.48873 1.0885-0.0778 0.38877-0.11104 0.71088-0.11104 0.97746 0 0.4443 0.0889 0.86638 0.26657 1.2663 0.17772 0.39987 0.41098 0.74977 0.71089 1.0441 0.31101 0.28324 0.67201 0.51094 1.0885 0.68866 0.42766 0.16662 0.8775 0.24437 1.3551 0.24437 0.62203 0 1.183-0.07778 1.6884-0.24437 0.51649-0.17772 0.96635-0.37765 1.3551-0.5998 0.39987-0.23326 0.722-0.46652 0.97747-0.68868 0.24993-0.23326 0.42209-0.40542 0.51095-0.51094z"/>
   <path d="m497.68 84.046h-5.4205v-2.2215h5.4205zm-0.64423 11.641c-1.3218 1.5273-3.0379 2.2882-5.1539 2.2882-1.1441 0-2.1938-0.44986-3.1545-1.3551-0.96636-0.89971-1.444-1.9216-1.444-3.0657 0-1.3884 0.73866-2.577 2.2215-3.5544l-2.3104-0.99967-6.0869 4.7762-1.4884-1.9771 4.9318-3.8654c-1.0663-0.82751-1.5995-1.9327-1.5995-3.3101 0-1.0497 0.38322-1.9438 1.1552-2.688 0.76643-0.75531 1.6939-1.133 2.7769-1.133 1.1219 0 2.0716 0.33323 2.8435 0.99969 0.79976 0.69978 1.1996 1.6106 1.1996 2.7324 0 1.1885-0.3721 2.1549-1.1108 2.9102l3.821 1.7106c-0.26659 0.48873-0.67757 1.2163-1.2218 2.1771l-0.31101-0.13322c-0.59426 0.1055-1.1219 0.36656-1.5773 0.77754-0.50539 0.46097-0.75532 0.9719-0.75532 1.5328 0 0.59426 0.24438 1.1052 0.73311 1.5328 0.49983 0.41654 1.0497 0.62202 1.6439 0.62202 1.0774 0 2.0438-0.27214 2.888-0.82196 0.22215-0.13322 0.8886-0.68866 1.9994-1.6661zm-8.5084-10.93c0-0.42764-0.1555-0.79974-0.46651-1.1108s-0.68312-0.46651-1.1108-0.46651c-0.4443 0-0.82197 0.1555-1.133 0.46651-0.29989 0.31101-0.4443 0.68312-0.4443 1.1108 0 0.4443 0.14441 0.82197 0.4443 1.133 0.31101 0.31101 0.68868 0.46651 1.133 0.46651 0.42763 0 0.79974-0.1555 1.1108-0.46651s0.46651-0.68868 0.46651-1.133zm2.4659 14.24zm0-16.15zm12.329 1.1996h-4.2431v16.15h-2.4437v-16.15h-0.24437v-2.2215h6.9311zm-5.4649 14.951zm0-16.15z"/>
   <path d="m512.42 78.27zm13.174 3.9987-0.82195 1.5995c-5.6871-4.6763-10.613-7.0644-14.773-7.1533-1.1996 0-2.1937 0.21105-2.9768 0.62202-0.96637 0.52206-1.444 1.3329-1.444 2.4437 0 0.93304 0.38321 1.6162 1.1552 2.0438h5.4649v2.2215h-4.2209v16.15h-2.4437v-16.15h-3.2434v-2.2215h1.4218c-0.31101-0.67756-0.46653-1.4051-0.46653-2.1771 0-1.7605 0.63313-3.099 1.9105-4.0209 1.1385-0.79974 2.6269-1.1996 4.4652-1.1996 2.7824 0 5.7148 0.86638 8.7972 2.5992 1.8938 1.0997 4.2875 2.8435 7.1755 5.2428zm-13.174 16.728z"/>
   <path d="m529.24 84.046h-4.2431v16.15h-2.4436v-4.1542c-0.38877 0.29991-0.77752 0.54428-1.1774 0.73311-0.38878 0.19438-0.77754 0.34988-1.1774 0.46651-0.39988 0.12213-0.79975 0.19994-1.1996 0.24437-0.39987 0.04436-0.81085 0.06668-1.2218 0.06668-0.75531 0-1.4662-0.13876-2.1326-0.42208-0.65535-0.29435-1.2218-0.68868-1.7106-1.1774-0.47763-0.49984-0.85528-1.0774-1.133-1.7328-0.26658-0.66645-0.39987-1.3829-0.39987-2.1549 0-0.76642 0.14439-1.4773 0.44429-2.1326 0.31102-0.64979 0.7331-1.2052 1.2663-1.6661 0.54426-0.45541 1.1829-0.81085 1.9105-1.0663 0.73865-0.26658 1.5384-0.39987 2.3992-0.39987 0.47207 0 0.91637 0.03896 1.3329 0.11104 0.41097 0.07778 0.78864 0.17216 1.133 0.28879 0.35543 0.1055 0.67199 0.2166 0.95524 0.33323 0.27768 0.12213 0.51649 0.23326 0.71088 0.33322v-3.821h-11.396v-2.2215h18.083zm-6.6867 5.9981c-0.25548-0.13322-0.54427-0.26658-0.86638-0.39987-0.32768-0.14439-0.66646-0.27768-1.0219-0.39987-0.35545-0.11658-0.72201-0.21103-1.0886-0.28879-0.37209-0.07222-0.72754-0.11104-1.0663-0.11104-0.90527 0-1.6162 0.12782-2.1326 0.37766-0.52206 0.25548-0.91081 0.55537-1.1774 0.91081-0.25548 0.34434-0.41653 0.70534-0.48873 1.0885-0.0777 0.38877-0.11104 0.71088-0.11104 0.97746 0 0.4443 0.0889 0.86638 0.26658 1.2663 0.17771 0.39987 0.41097 0.74977 0.71088 1.0441 0.31101 0.28324 0.67201 0.51094 1.0885 0.68866 0.42765 0.16662 0.87749 0.24437 1.3551 0.24437 0.62203 0 1.183-0.07778 1.6884-0.24437 0.51649-0.17772 0.96635-0.37765 1.3551-0.5998 0.39987-0.23326 0.72198-0.46652 0.97746-0.68868 0.24992-0.23326 0.42208-0.40542 0.51094-0.51094z"/>
   <path d="m548.04 84.046h-4.2431v16.15h-2.4437v-3.7766c-1.4107 1.1441-2.9491 1.7106-4.6207 1.7106-1.233 0-2.2382-0.34432-3.0213-1.0441-0.78863-0.71088-1.1552-1.544-1.1108-2.5103 0-0.09995 5e-3 -0.31101 0.0222-0.62202-1.0219-0.13322-1.8883-0.6109-2.5992-1.444-0.69978-0.84417-1.0441-1.7828-1.0441-2.8213 0-2.0716 1.0108-3.1101 3.0435-3.1101h1.5328v-2.5325h-5.3316v-2.2215h19.816zm-6.6867 9.5747v-9.5747h-5.3316v4.5763h-3.2878c-0.99413 0-1.4884 0.41099-1.4884 1.2218 0 0.57759 0.21104 1.083 0.64425 1.5106 0.4443 0.4332 0.94414 0.64423 1.5106 0.64423 0.8886 0 1.5384-0.39987 1.9549-1.1996l1.5995 0.91083c-0.38877 0.97746-1.2107 1.6883-2.4659 2.1326-0.0332 0.25548-0.0444 0.38877-0.0444 0.39987 0 0.46096 0.22772 0.84417 0.68868 1.1552 0.45541 0.31101 0.99968 0.46651 1.6217 0.46651 0.722 0 1.5384-0.2277 2.4437-0.68866 0.85529-0.41098 1.5773-0.93303 2.1549-1.5551zm-3.7099-10.774zm4.9318 0zm0 16.15zm-4.9318 0z"/>
   <path d="m545.29 82.846zm10.13 1.1996h-4.2431v16.15h-2.4437v-16.15h-1.7328v-2.2215h8.4195zm-10.13 14.951zm4.4874-16.15z"/>
   <path d="m576.33 84.046h-4.2431v16.15h-2.4437v-7.8419l-5.5093 3.0213-1.1996-1.9327 1.9771-1.1552c-0.62203-1.3329-1.6661-1.9994-3.1323-1.9994-1.8661 0-2.7991 0.91081-2.7991 2.7324 0 1.6439 1.3162 3.8988 3.9543 6.7534l-2.1104 0.93304c-1.3773-1.4662-2.3492-2.6214-2.9102-3.4656-1.0552-1.5106-1.5773-2.8768-1.5773-4.1098 0-1.655 0.53316-2.9768 1.5995-3.9543 1.0052-0.89971 2.2882-1.3551 3.8432-1.3551 1.0663 0 2.0716 0.30547 3.0213 0.91082 0.9608 0.65535 1.605 1.4773 1.9327 2.4659l2.9102-1.5773v-5.576h-15.128v-2.2215h21.815zm-11.374 14.951zm0-16.15zm5.9092 0zm0 16.15z"/>
   <path d="m595.63 84.046h-4.2431v16.15h-2.4437v-4.954c-1.4662 0.93303-3.0824 1.3996-4.8429 1.3996-2.888 0-5.4205-1.7994-7.5976-5.3983 0.26658-0.39987 0.60536-0.89415 1.0219-1.4884 0.51649 0.19438 1.0108 0.28879 1.4884 0.28879 0.94416 0 1.6995-0.26658 2.2659-0.79974 0.57759-0.53316 0.8664-1.2552 0.8664-2.1771 0-0.57759-0.23326-1.2107-0.68868-1.9105-0.48873-0.73865-1.0108-1.1108-1.5551-1.1108h-4.5763v-2.2215h20.305zm-10.619 14.951zm0-16.15zm3.9321 9.5747v-8.3751h-5.5316c0.81086 0.84418 1.2218 1.8605 1.2218 3.0435 0 1.3496-0.48318 2.5103-1.444 3.4878-0.94969 0.96636-2.1049 1.444-3.4656 1.444 0.36655 0.59426 0.98857 1.1052 1.8661 1.5328 0.8886 0.4332 1.7328 0.64425 2.5325 0.64425 1.7161 0 3.3212-0.5887 4.8207-1.7772zm1.2218-9.5747zm0 16.15z"/>
  </g>
  <g fill="#082a61">
   <path d="m199.19 68.905v52.812c0 9.9255 11.016 17.269 22.128 17.269 11.113 0 22.132-7.5864 22.132-17.269v-52.812h-2.4867c-7.7914 0-14.804 3.3993-19.643 8.7891-4.8382-5.3898-11.852-8.7891-19.643-8.7891zm4.9735 5.2241c5.6871 0.66145 10.677 3.5196 14.112 7.6992-2.3574 3.9502-3.7184 8.5606-3.7184 13.483 0 4.9222 1.361 9.5326 3.7184 13.483-3.4352 4.1796-8.4251 7.0377-14.112 7.6992v-21.182zm34.313 0v42.364c-5.688-0.66115-10.678-3.519-14.114-7.6992 2.357-3.9502 3.7165-8.5606 3.7165-13.483 0-4.9222-1.3595-9.5326-3.7165-13.483 3.4358-4.1802 8.4262-7.038 14.114-7.6992zm-17.157 12.667c1.137 2.6043 1.7854 5.4751 1.7854 8.5151 0 3.0401-0.64835 5.9108-1.7854 8.5151-1.1375-2.6046-1.7893-5.4746-1.7893-8.5151 0-3.0405 0.65181-5.9105 1.7893-8.5151zm0 26.132c4.2677 4.7536 10.226 7.9592 16.92 8.6492-1.2963 6.9403-8.2171 12.436-16.921 12.436-8.7044 0-15.622-5.4953-16.918-12.436 6.6932-0.69001 12.652-3.8956 16.92-8.6492z" color="#000000"/>
   <path d="m211.93 127.24 0.8711-0.1462c0.0244 0.68226 0.12799 1.1513 0.31677 1.4011 0.18884 0.24976 0.44468 0.37768 0.77363 0.37768 0.23148 0 0.43859-0.067 0.61525-0.19494 0.17666-0.12785 0.2924-0.2863 0.35332-0.48123 0.0853-0.26194 0.12798-0.66399 0.12798-1.2v-6.1525h0.96857v6.0855c0 1.0965-0.17666 1.8701-0.53606 2.3209-0.35942 0.45079-0.87112 0.67617-1.5229 0.67617-0.63962 0-1.1148-0.20102-1.4254-0.60915-0.3594-0.46297-0.54214-1.1574-0.54214-2.0772z"/>
   <path d="m218.47 129.78h-0.93202v-8.9303h0.99293s3.8499 7.0115 3.8499 7.0115v-7.0115h0.92593v8.9303h-0.99293s-3.8438-7.0176-3.8438-7.0176v7.0176z"/>
   <path d="m229.73 126v-5.1535h0.97465v5.1596c0 0.86501-0.0853 1.5716-0.24976 2.126-0.17055 0.55434-0.47514 0.99295-0.91982 1.3158-0.4447 0.32285-1.0112 0.48123-1.6996 0.48123-0.96858 0-1.6874-0.2863-2.1686-0.865-0.48125-0.57871-0.72491-1.596-0.72491-3.058v-5.1596h0.96857v5.1535c0 0.81018 0.0609 1.395 0.18884 1.7544 0.12799 0.3594 0.33504 0.63352 0.62134 0.82237 0.28632 0.18883 0.63353 0.2863 1.0417 0.2863 0.68836 0 1.194-0.19492 1.5046-0.58479s0.46297-1.1513 0.46297-2.2783z"/>
  </g>
 </g>
</svg>
