<?xml version="1.0"?>
<svg
   width="252px"
   height="302.4px"
   viewBox="0 0 252 302.4"
   style="enable-background:new 0 0 252 302.4;"
   xml:space="preserve"
   sodipodi:docname="জাহাঙ্গীরনগর_বিশ্ববিদ্যালয়ের_প্রতীক.svg"
   inkscape:version="1.1.2 (b8e25be833, 2022-02-05)"
   xmlns:inkscape="http://www.inkscape.org/namespaces/inkscape"
   xmlns:sodipodi="http://sodipodi.sourceforge.net/DTD/sodipodi-0.dtd"
   xmlns="http://www.w3.org/2000/svg"
   xmlns:svg="http://www.w3.org/2000/svg">
<g
   id="g75193"><g
     id="g75096"><g
       id="g75003"><path
         style="fill:#1265bf;stroke:#1265bf;stroke-opacity:0"
         d="m 128.036,31.776 c 0,3.672 2.105,4.168 4.168,4.168 2.797,0 4.16,-1.363 4.16,-4.168 0,-2.762 -1.398,-4.164 -4.16,-4.164 -2.766,0 -4.168,1.403 -4.168,4.164 z"
         id="path4" /><path
         style="fill:#1265bf;stroke:#1265bf;stroke-opacity:0"
         d="m 136.954,25.409 h -6.469 c -3.207,0 -6.957,2.078 -6.957,7.934 0,3.848 4.016,8.23 7.547,8.23 3.594,0 7.543,-3.484 7.543,-6.66 0,-3.285 -2.961,-7.301 -6.414,-7.301 v 1.176 c 2.773,0 5.238,3.426 5.238,6.125 0,2.516 -3.453,5.488 -6.367,5.488 -2.918,0 -6.371,-3.824 -6.371,-7.059 0,-4.984 2.984,-6.758 5.781,-6.758 0,0 6.016,0 6.313,0 0.516,0.285 4.617,2.816 9.328,12.504 5.488,11.289 8.957,13.559 12.777,13.559 h 4.602 c 2.887,0 4.996,-4.813 4.996,-6.855 v -5.98 c 0,-2.914 -2.024,-4.215 -6.563,-4.215 -5.25,0 -5.684,2.363 -5.684,5 v 3.086 c 0,2.086 1.328,4.41 3.23,4.41 h 2.207 c 1.703,0 2.941,-1.484 2.941,-3.531 v -1.758 c 0,-1.336 -0.961,-3.309 -3.016,-3.309 h -2.133 c -0.738,0 -1.48,0.266 -2.051,0.762 0.016,-1.898 0.25,-3.484 4.504,-3.484 4.969,0 5.391,1.57 5.391,3.039 v 5.98 c 0,1.59 -1.82,5.68 -3.824,5.68 h -4.602 c -3.273,0 -6.516,-2.191 -11.723,-12.898 -5.219,-10.738 -9.785,-13.016 -9.973,-13.106 l -0.121,-0.059 z"
         id="path6" /><path
         style="fill:#1265bf;stroke:#1265bf;stroke-opacity:0"
         d="m 153.102,27.663 c -0.793,-0.57 -3.121,-2.254 -3.121,-2.254 l -8.269,-0.098 v 0.004 c 0,0 -0.004,-0.004 -0.008,-0.004 l -0.008,1.176 h 0.008 c 1.75,0 7.996,6.281 10.414,11.633 l 0.582,1.281 0.5,-1.316 c 0.031,-0.063 2.648,-6.75 7.684,-6.75 h 8.738 l -0.605,-0.91 c -0.035,-0.055 -3.512,-5.063 -9.371,-3.871 -0.059,-0.48 -0.191,-1.074 -0.672,-1.586 -0.453,-0.488 -1.074,-0.734 -1.836,-0.734 -1.95,-0.001 -3.414,2.269 -4.036,3.429 z m 0.75,1.121 c 0.422,-0.938 1.836,-3.375 3.285,-3.375 0.43,0 0.746,0.117 0.973,0.355 0.395,0.422 0.441,1.168 0.422,1.418 l -0.047,0.828 0.797,-0.223 c 4.004,-1.141 6.754,1.047 7.996,2.371 -1.746,0 -6.395,0 -6.395,0 -4.531,0 -7.223,4.297 -8.266,6.387 -1.984,-3.738 -5.598,-7.992 -8.352,-10.027 2.313,0.027 5.09,0.059 5.328,0.063 0.277,0.199 3.961,2.859 3.961,2.859 z"
         id="path8" /><path
         style="fill:#1265bf;stroke:#1265bf;stroke-opacity:0"
         d="m 141.149,36.741 c 0,0 -9.887,9.512 -10.215,9.832 -0.359,0 -2.223,0 -2.223,0 v 4.703 h 2.855 c 0,0 3.121,-2.379 3.828,-2.918 0.5,0.59 1.973,2.328 1.973,2.328 h 2.914 c 0,0 1.141,-1.484 1.68,-2.184 1.68,1.895 4.762,2.898 4.906,2.941 l 0.086,0.027 h 2.836 v -3.254 l -0.266,-0.176 c -4.859,-3.176 -7.383,-10.973 -7.406,-11.055 l -0.285,-0.902 z m -9.976,11.008 h 0.234 c 0,0 8.754,-8.422 9.902,-9.527 0.789,2.121 3.18,7.715 7.305,10.59 0,0.309 0,0.926 0,1.484 -0.582,0 -1.348,0 -1.473,0 -0.41,-0.137 -3.531,-1.23 -4.695,-3.059 l -0.449,-0.707 c 0,0 -2.004,2.602 -2.297,2.981 -0.383,0 -1.422,0 -1.789,0 -0.297,-0.352 -2.34,-2.766 -2.34,-2.766 0,0 -4.113,3.133 -4.402,3.355 -0.223,0 -0.762,0 -1.281,0 0,-0.652 0,-1.699 0,-2.351 0.554,0 1.285,0 1.285,0 z"
         id="path10" /><path
         style="fill:#1265bf;stroke:#1265bf;stroke-opacity:0"
         d="m 111.38,31.776 c 0,2.805 1.363,4.168 4.164,4.168 2.059,0 4.164,-0.496 4.164,-4.168 0,-2.762 -1.398,-4.164 -4.164,-4.164 -2.762,0 -4.164,1.403 -4.164,4.164 z"
         id="path12" /><path
         style="fill:#1265bf;stroke:#1265bf;stroke-opacity:0"
         d="m 110.794,25.409 h -0.133 l -0.121,0.059 c -0.195,0.09 -4.758,2.367 -9.977,13.106 -5.207,10.707 -8.449,12.898 -11.719,12.898 h -4.605 c -2.004,0 -3.82,-4.09 -3.82,-5.68 v -5.98 c 0,-1.469 0.414,-3.039 5.387,-3.039 4.254,0 4.492,1.586 4.504,3.484 -0.574,-0.496 -1.309,-0.762 -2.055,-0.762 h -2.133 c -2.051,0 -3.012,1.973 -3.012,3.309 v 1.758 c 0,2.047 1.238,3.531 2.941,3.531 h 2.203 c 1.906,0 3.234,-2.324 3.234,-4.41 v -3.086 c 0,-2.637 -0.434,-5 -5.684,-5 -4.539,0 -6.563,1.301 -6.563,4.215 v 5.98 c 0,2.043 2.109,6.855 4.996,6.855 h 4.605 c 3.816,0 7.285,-2.27 12.773,-13.559 4.711,-9.688 8.816,-12.219 9.328,-12.504 0.301,0 6.313,0 6.313,0 2.668,0 5.781,1.773 5.781,6.758 0,3.234 -3.453,7.059 -6.367,7.059 -2.918,0 -6.371,-2.973 -6.371,-5.488 0,-2.699 2.469,-6.125 5.242,-6.125 v -1.176 c -3.457,0 -6.418,4.016 -6.418,7.301 0,3.176 3.949,6.66 7.547,6.66 3.523,0 7.547,-4.383 7.547,-8.23 0,-5.477 -3.496,-7.934 -6.961,-7.934 z"
         id="path14" /><path
         style="fill:#1265bf;stroke:#1265bf;stroke-opacity:0"
         d="m 88.77,24.968 c -0.477,0.512 -0.613,1.106 -0.672,1.586 -5.855,-1.191 -9.336,3.816 -9.371,3.871 l -0.605,0.91 h 8.738 c 5.039,0 7.656,6.688 7.68,6.75 l 0.504,1.316 0.582,-1.281 c 2.418,-5.352 8.668,-11.633 10.414,-11.633 h 0.008 l -0.008,-1.176 c -0.004,0 -0.004,0.004 -0.008,0.004 v -0.004 l -8.27,0.098 c 0,0 -2.328,1.684 -3.121,2.254 -0.621,-1.16 -2.082,-3.43 -4.035,-3.43 -0.765,0 -1.379,0.246 -1.836,0.735 z m 0.438,2.215 c -0.012,-0.25 0.031,-0.996 0.426,-1.418 0.227,-0.238 0.543,-0.355 0.973,-0.355 1.453,0 2.863,2.437 3.285,3.375 l 0.297,0.656 c 0,0 3.684,-2.66 3.961,-2.859 0.238,-0.004 3.02,-0.035 5.328,-0.063 -2.758,2.035 -6.367,6.289 -8.351,10.027 -1.043,-2.09 -3.731,-6.387 -8.266,-6.387 0,0 -4.648,0 -6.395,0 1.246,-1.324 3.992,-3.512 7.996,-2.371 l 0.801,0.227 z"
         id="path16" /><path
         style="fill:#1265bf;stroke:#1265bf;stroke-opacity:0"
         d="m 105.626,36.987 c -0.024,0.082 -2.547,7.879 -7.402,11.055 l -0.266,0.176 v 3.254 h 2.832 l 0.086,-0.027 c 0.144,-0.043 3.226,-1.047 4.91,-2.941 0.535,0.699 1.68,2.184 1.68,2.184 h 2.91 c 0,0 1.476,-1.738 1.976,-2.328 0.703,0.539 3.828,2.918 3.828,2.918 h 2.891 v -4.703 c 0,0 -1.898,0 -2.262,0 -0.332,-0.32 -10.895,-10.488 -10.895,-10.488 z m 0.809,1.235 c 1.148,1.106 9.902,9.527 9.902,9.527 0,0 0.992,0 1.559,0 0,0.652 0,1.699 0,2.351 -0.531,0 -1.094,0 -1.32,0 -0.293,-0.223 -4.402,-3.355 -4.402,-3.355 0,0 -2.043,2.414 -2.34,2.766 -0.367,0 -1.402,0 -1.789,0 -0.293,-0.379 -2.293,-2.981 -2.293,-2.981 l -0.453,0.707 c -1.16,1.828 -4.285,2.922 -4.695,3.059 -0.125,0 -0.887,0 -1.469,0 0,-0.559 0,-1.176 0,-1.484 4.12,-2.875 6.51,-8.469 7.3,-10.59 z"
         id="path18" /><path
         style="fill:#1265bf;stroke:#1265bf;stroke-opacity:0"
         d="m 123.337,35.425 -5.418,5.976 c 0,0 4.605,4.598 4.926,4.922 0,0.379 0,1.844 0,1.844 0,0.309 0,0.953 -1.668,0.953 -2.129,0 -2.129,-0.801 -2.129,-1.102 l -0.012,-0.41 c -0.016,-0.363 -0.027,-0.773 0.102,-0.91 0.09,-0.098 0.324,-0.148 0.645,-0.148 0.484,0 0.598,0.09 0.602,0.09 -0.016,0 -0.043,0.344 -0.043,0.344 l -0.043,0.445 h 1.176 l 0.031,-0.27 c 0.051,-0.344 0.129,-0.867 -0.23,-1.289 -0.383,-0.445 -1.035,-0.5 -1.492,-0.5 -0.676,0 -1.164,0.168 -1.492,0.512 -0.48,0.5 -0.453,1.176 -0.43,1.773 l 0.008,0.363 c 0,0.852 0.43,2.277 3.309,2.277 1.777,0 2.449,-0.691 2.695,-1.371 0.246,0.68 0.918,1.371 2.695,1.371 2.879,0 3.305,-1.426 3.305,-2.277 l 0.012,-0.363 c 0.023,-0.598 0.051,-1.273 -0.426,-1.773 -0.332,-0.344 -0.82,-0.512 -1.496,-0.512 -0.457,0 -1.105,0.055 -1.492,0.5 -0.359,0.422 -0.281,0.945 -0.227,1.289 l 0.027,0.27 h 1.18 l -0.047,-0.445 c 0,0 -0.023,-0.355 -0.027,-0.363 0.016,0 0.156,-0.07 0.586,-0.07 0.32,0 0.555,0.051 0.649,0.148 0.133,0.137 0.113,0.547 0.098,0.91 l -0.012,0.41 c 0,0.301 0,1.102 -2.129,1.102 -1.664,0 -1.664,-0.645 -1.664,-0.953 0,0 0,-1.465 0,-1.844 0.316,-0.324 4.918,-4.918 4.918,-4.918 l -5.438,-6.168 -0.871,-0.008 z m 0.601,1.086 c 0.441,0.496 3.684,4.176 4.273,4.844 -0.66,0.656 -4.332,4.324 -4.34,4.332 -0.004,-0.008 -3.668,-3.664 -4.332,-4.328 0.61,-0.669 3.958,-4.36 4.399,-4.848 z"
         id="path20" /><path
         style="fill:#1265bf;stroke:#1265bf;stroke-width:0.588;stroke-opacity:1"
         d="m 123.278,10.671 c 0,0 -9.199,10.719 -9.539,11.113 -0.531,0 -29.859,0 -29.859,0 -7.813,0 -8.375,3.777 -8.375,9.992 v 23.371 h 96.476 V 31.776 c 0,-6.215 -0.563,-9.992 -8.379,-9.992 0,0 -29.332,0 -29.859,0 -0.34,-0.395 -10.02,-11.633 -10.02,-11.633 z M 76.677,31.776 c 0,-5.793 0.324,-8.816 7.203,-8.816 h 30.398 c 0,0 8.637,-10.059 9.449,-11.004 0.809,0.941 9.477,11.004 9.477,11.004 h 30.398 c 6.883,0 7.203,3.023 7.203,8.816 0,0 0,21.078 0,22.195 -1.152,0 -92.977,0 -94.129,0 0.001,-1.117 0.001,-22.195 0.001,-22.195 z"
         id="path22" /><path
         style="fill:#1265bf;stroke:#1265bf;stroke-width:0.588;stroke-opacity:1"
         d="m 123.278,6.409 c 0,0 -9.199,10.715 -9.539,11.113 -0.531,0 -32.504,0 -32.504,0 -6.633,0 -9.996,3.902 -9.996,11.613 V 59.408 H 176.243 V 29.136 c 0,-7.711 -3.363,-11.613 -9.992,-11.613 0,0 -31.981,0 -32.508,0 C 133.403,17.128 123.723,5.89 123.723,5.89 Z M 72.415,29.136 c 0,-7.023 2.887,-10.438 8.82,-10.438 h 33.043 c 0,0 8.637,-10.059 9.449,-11.004 0.809,0.945 9.477,11.004 9.477,11.004 h 33.047 c 5.93,0 8.816,3.414 8.816,10.438 0,0 0,27.969 0,29.098 -1.156,0 -101.496,0 -102.652,0 0,-1.13 0,-29.098 0,-29.098 z"
         id="path24" /><path
         style="fill:#1265bf;stroke:#1265bf;stroke-opacity:0"
         d="m 121.739,22.151 c 0,1.824 1.199,2.203 2.203,2.203 1.422,0 2.211,-0.781 2.211,-2.203 0,-0.66 0,-2.207 -2.211,-2.207 -1.972,0 -2.203,1.262 -2.203,2.207 z m 1.176,0 c 0,-0.746 0.09,-1.027 1.027,-1.027 0.98,0 1.031,0.262 1.031,1.027 0,0.77 -0.258,1.027 -1.031,1.027 -0.871,10e-4 -1.027,-0.331 -1.027,-1.027 z"
         id="path26" /></g><g
       id="g74989"><path
         style="fill:#1265bf;stroke:#1265bf;stroke-opacity:0"
         d="m 132.204,206.116 c 2.762,0 4.16,-1.402 4.16,-4.164 0,-2.801 -1.363,-4.164 -4.16,-4.164 -2.063,0 -4.168,0.496 -4.168,4.164 0,2.762 1.402,4.164 4.168,4.164 z"
         id="path30" /><path
         style="fill:#1265bf;stroke:#1265bf;stroke-opacity:0"
         d="m 137.087,208.319 0.121,-0.055 c 0.188,-0.094 4.754,-2.371 9.973,-13.109 5.207,-10.703 8.449,-12.898 11.723,-12.898 h 4.602 c 2.004,0 3.824,4.09 3.824,5.688 v 5.973 c 0,1.469 -0.422,3.039 -5.391,3.039 -4.254,0 -4.488,-1.582 -4.504,-3.484 0.57,0.5 1.313,0.766 2.051,0.766 h 2.133 c 2.055,0 3.016,-1.973 3.016,-3.309 v -1.762 c 0,-2.043 -1.238,-3.527 -2.941,-3.527 h -2.207 c -1.902,0 -3.23,2.324 -3.23,4.406 v 3.09 c 0,2.633 0.434,4.996 5.684,4.996 4.539,0 6.563,-1.301 6.563,-4.215 v -5.973 c 0,-2.047 -2.109,-6.859 -4.996,-6.859 h -4.602 c -3.82,0 -7.289,2.266 -12.777,13.555 -4.711,9.688 -8.813,12.219 -9.328,12.504 -0.297,0 -6.313,0 -6.313,0 -2.797,0 -5.781,-1.773 -5.781,-6.762 0,-3.227 3.453,-7.055 6.371,-7.055 2.914,0 6.367,2.977 6.367,5.488 0,2.703 -2.465,6.125 -5.238,6.125 v 1.176 c 3.453,0 6.414,-4.012 6.414,-7.301 0,-3.172 -3.949,-6.664 -7.543,-6.664 -3.531,0 -7.547,4.387 -7.547,8.23 0,5.859 3.75,7.938 6.957,7.938 h 6.469 0.13 z"
         id="path32" /><path
         style="fill:#1265bf;stroke:#1265bf;stroke-opacity:0"
         d="m 157.138,209.495 c 0.762,0 1.383,-0.246 1.836,-0.731 0.48,-0.516 0.613,-1.113 0.672,-1.594 5.859,1.195 9.336,-3.808 9.371,-3.867 l 0.605,-0.91 h -8.738 c -5.035,0 -7.652,-6.684 -7.684,-6.75 l -0.5,-1.316 -0.582,1.285 c -2.418,5.352 -8.664,11.629 -10.414,11.629 h -0.008 l 0.008,1.18 c 0.004,0 0.008,-0.004 0.008,-0.004 v 0.004 l 8.269,-0.101 c 0,0 2.328,-1.68 3.121,-2.254 0.622,1.163 2.086,3.429 4.036,3.429 z m -3.582,-5.207 c 0,0 -3.684,2.66 -3.961,2.863 -0.238,0 -3.016,0.031 -5.328,0.059 2.754,-2.035 6.367,-6.285 8.352,-10.023 1.043,2.09 3.734,6.383 8.266,6.383 0,0 4.648,0 6.395,0 -1.242,1.328 -3.992,3.512 -7.996,2.375 l -0.797,-0.227 0.047,0.828 c 0.02,0.254 -0.027,1 -0.422,1.422 -0.227,0.238 -0.543,0.352 -0.973,0.352 -1.449,0 -2.863,-2.438 -3.285,-3.375 z"
         id="path34" /><path
         style="fill:#1265bf;stroke:#1265bf;stroke-opacity:0"
         d="m 141.833,197.64 0.285,-0.898 c 0.023,-0.078 2.547,-7.875 7.406,-11.051 l 0.266,-0.172 v -3.262 h -2.836 l -0.086,0.027 c -0.145,0.051 -3.227,1.051 -4.906,2.941 -0.539,-0.699 -1.68,-2.188 -1.68,-2.188 h -2.914 c 0,0 -1.473,1.742 -1.973,2.336 -0.707,-0.543 -3.828,-2.922 -3.828,-2.922 h -2.855 v 4.703 c 0,0 1.863,0 2.223,0 0.328,0.32 10.215,9.832 10.215,9.832 z m -11.945,-11.661 c 0,-0.648 0,-1.695 0,-2.352 0.52,0 1.059,0 1.281,0 0.289,0.223 4.402,3.355 4.402,3.355 0,0 2.043,-2.418 2.34,-2.766 0.367,0 1.406,0 1.789,0 0.293,0.379 2.297,2.984 2.297,2.984 l 0.449,-0.711 c 1.164,-1.824 4.285,-2.918 4.695,-3.059 0.125,0 0.891,0 1.473,0 0,0.559 0,1.176 0,1.488 -4.125,2.871 -6.516,8.465 -7.305,10.59 -1.148,-1.105 -9.902,-9.531 -9.902,-9.531 h -0.234 c 0,0.002 -0.731,0.002 -1.285,0.002 z"
         id="path36" /><path
         style="fill:#1265bf;stroke:#1265bf;stroke-opacity:0"
         d="m 115.544,206.116 c 2.766,0 4.164,-1.402 4.164,-4.164 0,-3.668 -2.106,-4.164 -4.164,-4.164 -2.801,0 -4.164,1.363 -4.164,4.164 0,2.762 1.402,4.164 4.164,4.164 z"
         id="path38" /><path
         style="fill:#1265bf;stroke:#1265bf;stroke-opacity:0"
         d="m 117.259,208.319 c 3.465,0 6.961,-2.453 6.961,-7.938 0,-3.844 -4.023,-8.23 -7.547,-8.23 -3.598,0 -7.547,3.492 -7.547,6.664 0,3.289 2.961,7.301 6.418,7.301 v -1.176 c -2.773,0 -5.242,-3.422 -5.242,-6.125 0,-2.512 3.453,-5.488 6.371,-5.488 2.914,0 6.367,3.828 6.367,7.055 0,4.992 -3.113,6.762 -5.781,6.762 0,0 -6.012,0 -6.313,0 -0.512,-0.285 -4.617,-2.816 -9.328,-12.504 C 96.13,183.351 92.661,181.085 88.845,181.085 H 84.24 c -2.887,0 -4.996,4.813 -4.996,6.859 v 5.973 c 0,2.914 2.023,4.215 6.563,4.215 5.25,0 5.684,-2.363 5.684,-4.996 v -3.09 c 0,-2.082 -1.328,-4.406 -3.234,-4.406 h -2.203 c -1.703,0 -2.941,1.484 -2.941,3.527 v 1.762 c 0,1.336 0.961,3.309 3.012,3.309 h 2.133 c 0.746,0 1.48,-0.266 2.055,-0.766 -0.012,1.902 -0.25,3.484 -4.504,3.484 -4.973,0 -5.387,-1.57 -5.387,-3.039 v -5.973 c 0,-1.598 1.817,-5.688 3.82,-5.688 h 4.605 c 3.27,0 6.512,2.195 11.719,12.898 5.219,10.738 9.781,13.016 9.977,13.109 l 0.121,0.055 h 0.133 6.462 z"
         id="path40" /><path
         style="fill:#1265bf;stroke:#1265bf;stroke-opacity:0"
         d="m 90.606,209.495 c 1.953,0 3.414,-2.266 4.035,-3.43 0.793,0.574 3.121,2.254 3.121,2.254 l 8.27,0.101 v -0.004 c 0.004,0 0.004,0.004 0.008,0.004 l 0.008,-1.18 h -0.008 c -1.746,0 -7.996,-6.277 -10.414,-11.629 l -0.582,-1.285 -0.504,1.316 c -0.023,0.066 -2.641,6.75 -7.68,6.75 h -8.738 l 0.605,0.91 c 0.035,0.059 3.516,5.063 9.371,3.867 0.059,0.481 0.195,1.078 0.672,1.594 0.457,0.486 1.071,0.732 1.836,0.732 z m -1.343,-3.777 -0.801,0.227 c -4.004,1.137 -6.75,-1.047 -7.996,-2.375 1.746,0 6.395,0 6.395,0 4.535,0 7.223,-4.293 8.266,-6.383 1.984,3.738 5.594,7.988 8.351,10.023 -2.309,-0.027 -5.09,-0.059 -5.328,-0.059 -0.277,-0.203 -3.961,-2.863 -3.961,-2.863 l -0.297,0.656 c -0.422,0.938 -1.832,3.375 -3.285,3.375 -0.43,0 -0.746,-0.113 -0.973,-0.352 -0.395,-0.422 -0.438,-1.168 -0.426,-1.422 z"
         id="path42" /><path
         style="fill:#1265bf;stroke:#1265bf;stroke-opacity:0"
         d="m 105.915,197.64 c 0,0 10.562,-10.164 10.895,-10.484 0.363,0 2.262,0 2.262,0 v -4.703 h -2.891 c 0,0 -3.125,2.379 -3.828,2.922 -0.5,-0.594 -1.976,-2.336 -1.976,-2.336 h -2.91 c 0,0 -1.144,1.488 -1.68,2.188 -1.684,-1.891 -4.766,-2.891 -4.91,-2.941 l -0.086,-0.027 h -2.832 v 3.262 l 0.266,0.172 c 4.855,3.176 7.379,10.973 7.402,11.051 z m -6.781,-12.719 c 0,-0.313 0,-0.93 0,-1.488 0.582,0 1.344,0 1.469,0 0.41,0.141 3.535,1.234 4.695,3.059 l 0.453,0.711 c 0,0 2,-2.606 2.293,-2.984 0.387,0 1.422,0 1.789,0 0.297,0.348 2.34,2.766 2.34,2.766 0,0 4.109,-3.133 4.402,-3.355 0.227,0 0.789,0 1.32,0 0,0.656 0,1.703 0,2.352 -0.566,0 -1.559,0 -1.559,0 0,0 -8.754,8.426 -9.902,9.531 -0.789,-2.127 -3.179,-7.721 -7.3,-10.592 z"
         id="path44" /><path
         style="fill:#1265bf;stroke:#1265bf;stroke-opacity:0"
         d="m 123.513,198.499 0.871,-0.004 5.438,-6.168 c 0,0 -4.602,-4.598 -4.918,-4.914 0,-0.383 0,-1.848 0,-1.848 0,-0.313 0,-0.957 1.664,-0.957 2.129,0 2.129,0.805 2.129,1.102 l 0.012,0.41 c 0.016,0.367 0.035,0.777 -0.098,0.914 -0.094,0.094 -0.328,0.148 -0.649,0.148 -0.43,0 -0.57,-0.07 -0.586,-0.07 0.004,-0.012 0.027,-0.367 0.027,-0.367 l 0.047,-0.445 h -1.18 l -0.027,0.273 c -0.055,0.344 -0.133,0.867 0.227,1.285 0.387,0.445 1.035,0.5 1.492,0.5 0.676,0 1.164,-0.168 1.496,-0.512 0.477,-0.496 0.449,-1.172 0.426,-1.769 l -0.012,-0.367 c 0,-0.848 -0.426,-2.277 -3.305,-2.277 -1.777,0 -2.449,0.691 -2.695,1.375 -0.246,-0.684 -0.918,-1.375 -2.695,-1.375 -2.879,0 -3.309,1.43 -3.309,2.277 l -0.008,0.367 c -0.023,0.598 -0.051,1.273 0.43,1.769 0.328,0.344 0.816,0.512 1.492,0.512 0.457,0 1.109,-0.055 1.492,-0.5 0.359,-0.418 0.281,-0.941 0.23,-1.285 l -0.031,-0.273 h -1.176 l 0.043,0.445 c 0,0 0.027,0.344 0.043,0.344 -0.004,0.004 -0.117,0.094 -0.602,0.094 -0.32,0 -0.555,-0.055 -0.645,-0.148 -0.129,-0.137 -0.117,-0.547 -0.102,-0.914 l 0.012,-0.41 c 0,-0.297 0,-1.102 2.129,-1.102 1.668,0 1.668,0.645 1.668,0.957 0,0 0,1.465 0,1.848 -0.32,0.316 -4.926,4.918 -4.926,4.918 l 5.418,5.973 z m -3.973,-6.129 c 0.664,-0.664 4.328,-4.316 4.332,-4.324 0.008,0.008 3.68,3.676 4.34,4.332 -0.59,0.664 -3.832,4.348 -4.273,4.84 -0.442,-0.489 -3.79,-4.176 -4.399,-4.848 z"
         id="path46" /><path
         style="fill:#1265bf;stroke:#1265bf;stroke-width:0.588;stroke-opacity:1"
         d="m 123.724,223.581 c 0,0 9.68,-11.242 10.02,-11.633 0.527,0 29.859,0 29.859,0 7.816,0 8.379,-3.777 8.379,-9.996 V 178.585 H 75.505 v 23.367 c 0,6.219 0.563,9.996 8.375,9.996 0,0 29.328,0 29.859,0 0.34,0.391 9.539,11.109 9.539,11.109 z m -47.047,-43.82 c 1.152,0 92.976,0 94.129,0 0,1.117 0,22.191 0,22.191 0,5.793 -0.32,8.82 -7.203,8.82 h -30.398 c 0,0 -8.668,10.059 -9.477,11.004 -0.812,-0.949 -9.449,-11.004 -9.449,-11.004 H 83.88 c -6.879,0 -7.203,-3.027 -7.203,-8.82 0,0 0,-21.074 0,-22.191 z"
         id="path48" /><path
         style="fill:#1265bf;stroke:#1265bf;stroke-width:0.588;stroke-opacity:1"
         d="m 123.724,227.839 c 0,0 9.68,-11.234 10.02,-11.629 0.527,0 32.508,0 32.508,0 6.629,0 9.992,-3.91 9.992,-11.613 V 174.32 H 71.239 v 30.277 c 0,7.703 3.363,11.613 9.996,11.613 0,0 31.973,0 32.504,0 0.34,0.395 9.539,11.109 9.539,11.109 z M 72.415,175.495 c 1.156,0 101.496,0 102.652,0 0,1.133 0,29.101 0,29.101 0,7.024 -2.887,10.438 -8.816,10.438 h -33.047 c 0,0 -8.668,10.059 -9.477,11.004 -0.812,-0.945 -9.449,-11.004 -9.449,-11.004 H 81.235 c -5.934,0 -8.82,-3.414 -8.82,-10.438 0,0.001 0,-27.968 0,-29.101 z"
         id="path50" /><path
         style="fill:#1265bf;stroke:#1265bf;stroke-opacity:0"
         d="m 123.942,213.784 c 2.211,0 2.211,-1.547 2.211,-2.203 0,-1.422 -0.789,-2.207 -2.211,-2.207 -1.004,0 -2.203,0.383 -2.203,2.207 0,0.945 0.231,2.203 2.203,2.203 z m 0,-3.234 c 0.773,0 1.031,0.258 1.031,1.031 0,0.762 -0.051,1.023 -1.031,1.023 -0.938,0 -1.027,-0.277 -1.027,-1.023 0,-0.699 0.156,-1.031 1.027,-1.031 z"
         id="path52" /></g><g
       id="g74872"><path
         style="fill:#1265bf"
         d="m 208.829,121.159 c -3.672,0 -4.164,2.105 -4.164,4.164 0,2.801 1.363,4.164 4.164,4.164 2.766,0 4.164,-1.398 4.164,-4.164 0,-2.761 -1.398,-4.164 -4.164,-4.164 z"
         id="path56" /><path
         style="fill:#1265bf"
         d="m 215.2,130.077 v -6.469 c 0,-3.207 -2.078,-6.957 -7.941,-6.957 -3.844,0 -8.227,4.02 -8.227,7.543 0,3.598 3.484,7.547 6.66,7.547 3.289,0 7.301,-2.961 7.301,-6.418 h -1.176 c 0,2.773 -3.426,5.242 -6.125,5.242 -2.512,0 -5.484,-3.453 -5.484,-6.371 0,-2.914 3.824,-6.367 7.051,-6.367 4.984,0 6.766,2.988 6.766,5.781 0,0 0,6.016 0,6.313 -0.289,0.516 -2.82,4.617 -12.508,9.328 -11.289,5.488 -13.559,8.957 -13.559,12.773 v 4.605 c 0,2.887 4.813,4.996 6.859,4.996 h 5.98 c 2.91,0 4.211,-2.023 4.211,-6.563 0,-5.25 -2.367,-5.684 -5,-5.684 h -3.086 c -2.086,0 -4.406,1.328 -4.406,3.234 v 2.203 c 0,1.703 1.484,2.941 3.527,2.941 h 1.762 c 1.332,0 3.309,-0.957 3.309,-3.016 v -2.129 c 0,-0.742 -0.266,-1.484 -0.766,-2.055 1.902,0.016 3.484,0.254 3.484,4.504 0,4.973 -1.57,5.387 -3.035,5.387 h -5.98 c -1.59,0 -5.684,-1.816 -5.684,-3.82 v -4.605 c 0,-3.27 2.195,-6.512 12.898,-11.719 10.742,-5.219 13.016,-9.785 13.109,-9.977 l 0.059,-0.117 v -0.13 z"
         id="path58" /><path
         style="fill:#1265bf"
         d="m 212.942,146.225 c 0.574,-0.793 2.254,-3.121 2.254,-3.121 l 0.098,-8.27 v 0 c 0,-0.004 0,-0.004 0,-0.004 l -1.176,-0.012 v 0.012 c 0,1.742 -6.277,7.992 -11.633,10.41 l -1.281,0.582 1.316,0.504 c 0.066,0.027 6.75,2.641 6.75,7.68 v 8.738 l 0.914,-0.606 c 0.051,-0.035 5.063,-3.512 3.867,-9.371 0.48,-0.059 1.074,-0.191 1.59,-0.672 0.488,-0.457 0.734,-1.07 0.734,-1.836 0.001,-1.948 -2.269,-3.409 -3.433,-4.034 z m -1.121,0.75 c 0.941,0.422 3.379,1.836 3.379,3.285 0,0.426 -0.121,0.746 -0.355,0.973 -0.422,0.395 -1.168,0.438 -1.422,0.426 l -0.828,-0.051 0.223,0.797 c 1.141,4.004 -1.043,6.75 -2.371,7.996 0,-1.75 0,-6.395 0,-6.395 0,-4.535 -4.297,-7.223 -6.383,-8.266 3.734,-1.984 7.988,-5.598 10.027,-8.352 -0.027,2.313 -0.063,5.086 -0.066,5.332 -0.199,0.274 -2.859,3.957 -2.859,3.957 z"
         id="path60" /><path
         style="fill:#1265bf"
         d="m 203.864,134.272 c 0,0 -9.516,-9.887 -9.828,-10.211 0,-0.363 0,-2.227 0,-2.227 h -4.707 v 2.855 c 0,0 2.379,3.121 2.918,3.828 -0.59,0.496 -2.328,1.969 -2.328,1.969 v 2.918 c 0,0 1.484,1.141 2.184,1.68 -1.891,1.68 -2.895,4.762 -2.941,4.906 l -0.027,0.086 v 2.836 h 3.258 l 0.176,-0.27 c 3.176,-4.855 10.973,-7.375 11.051,-7.402 l 0.902,-0.285 z m -11.008,-9.976 v 0.234 c 0,0 8.422,8.754 9.531,9.902 -2.121,0.789 -7.715,3.184 -10.59,7.301 -0.313,0 -0.93,0 -1.484,0 0,-0.582 0,-1.344 0,-1.469 0.133,-0.41 1.227,-3.531 3.059,-4.699 l 0.707,-0.449 c 0,0 -2.605,-2 -2.984,-2.293 0,-0.387 0,-1.422 0,-1.789 0.352,-0.297 2.766,-2.34 2.766,-2.34 0,0 -3.129,-4.113 -3.352,-4.402 0,-0.223 0,-0.762 0,-1.285 0.652,0 1.695,0 2.348,0 -0.001,0.555 -0.001,1.289 -0.001,1.289 z"
         id="path62" /><path
         style="fill:#1265bf"
         d="m 208.829,104.503 c -2.801,0 -4.164,1.359 -4.164,4.164 0,2.059 0.492,4.164 4.164,4.164 2.766,0 4.164,-1.402 4.164,-4.164 0,-2.766 -1.398,-4.164 -4.164,-4.164 z"
         id="path64" /><path
         style="fill:#1265bf"
         d="m 215.2,103.917 v -0.137 l -0.059,-0.121 c -0.094,-0.188 -2.367,-4.754 -13.109,-9.977 -10.703,-5.199 -12.898,-8.445 -12.898,-11.715 v -4.605 c 0,-2.004 4.094,-3.82 5.684,-3.82 h 5.98 c 1.465,0 3.035,0.414 3.035,5.391 0,4.25 -1.582,4.484 -3.484,4.5 0.5,-0.57 0.766,-1.312 0.766,-2.055 v -2.129 c 0,-2.059 -1.977,-3.016 -3.309,-3.016 h -1.762 c -2.043,0 -3.527,1.238 -3.527,2.942 v 2.203 c 0,1.906 2.32,3.234 4.406,3.234 h 3.086 c 2.633,0 5,-0.434 5,-5.68 0,-4.543 -1.301,-6.566 -4.211,-6.566 h -5.98 c -2.047,0 -6.859,2.109 -6.859,4.996 v 4.605 c 0,3.816 2.27,7.285 13.559,12.773 9.688,4.711 12.219,8.813 12.508,9.328 0,0.297 0,6.313 0,6.313 0,2.668 -1.773,5.781 -6.766,5.781 -3.227,0 -7.051,-3.453 -7.051,-6.367 0,-2.918 2.973,-6.371 5.484,-6.371 2.699,0 6.125,2.469 6.125,5.242 h 1.176 c 0,-3.457 -4.012,-6.418 -7.301,-6.418 -3.176,0 -6.66,3.949 -6.66,7.547 0,3.523 4.383,7.543 8.227,7.543 5.484,0 7.941,-3.496 7.941,-6.957 v -6.464 z"
         id="path66" /><path
         style="fill:#1265bf"
         d="m 215.642,81.894 c -0.516,-0.48 -1.109,-0.613 -1.59,-0.672 1.195,-5.859 -3.816,-9.336 -3.867,-9.371 l -0.914,-0.605 v 8.738 c 0,5.039 -6.684,7.652 -6.75,7.68 l -1.316,0.504 1.281,0.582 c 5.355,2.418 11.633,8.664 11.633,10.414 v 0.008 l 1.176,-0.008 c 0,0 0,-0.004 0,-0.008 v 0 l -0.098,-8.27 c 0,0 -1.68,-2.328 -2.254,-3.117 1.164,-0.625 3.434,-2.086 3.434,-4.035 -0.001,-0.77 -0.247,-1.387 -0.735,-1.84 z m -2.219,0.437 c 0.254,-0.012 1,0.031 1.422,0.426 0.234,0.226 0.355,0.547 0.355,0.976 0,1.445 -2.438,2.859 -3.379,3.281 l -0.656,0.293 c 0,0 2.66,3.688 2.859,3.965 0.004,0.242 0.039,3.02 0.066,5.328 -2.039,-2.754 -6.293,-6.367 -10.027,-8.352 2.086,-1.043 6.383,-3.73 6.383,-8.266 0,0 0,-4.645 0,-6.395 1.328,1.246 3.512,3.992 2.371,7.996 l -0.227,0.801 z"
         id="path68" /><path
         style="fill:#1265bf"
         d="m 203.618,98.749 c -0.078,-0.027 -7.875,-2.547 -11.051,-7.402 l -0.176,-0.266 h -3.258 v 2.832 l 0.027,0.086 c 0.047,0.145 1.051,3.227 2.941,4.91 -0.699,0.539 -2.184,1.68 -2.184,1.68 v 2.914 c 0,0 1.738,1.469 2.328,1.973 -0.539,0.703 -2.918,3.828 -2.918,3.828 v 2.891 h 4.707 c 0,0 0,-1.898 0,-2.262 0.313,-0.328 10.484,-10.895 10.484,-10.895 z m -1.23,0.809 c -1.109,1.148 -9.531,9.902 -9.531,9.902 0,0 0,0.992 0,1.559 -0.652,0 -1.695,0 -2.348,0 0,-0.531 0,-1.094 0,-1.32 0.223,-0.289 3.352,-4.402 3.352,-4.402 0,0 -2.414,-2.043 -2.766,-2.34 0,-0.367 0,-1.402 0,-1.789 0.379,-0.293 2.984,-2.293 2.984,-2.293 l -0.707,-0.449 c -1.832,-1.164 -2.926,-4.289 -3.059,-4.699 0,-0.125 0,-0.887 0,-1.473 0.555,0 1.172,0 1.484,0 2.876,4.124 8.47,6.518 10.591,7.304 z"
         id="path70" /><path
         style="fill:#1265bf"
         d="m 205.181,116.464 -5.973,-5.426 c 0,0 -4.602,4.605 -4.922,4.93 -0.379,0 -1.844,0 -1.844,0 -0.309,0 -0.953,0 -0.953,-1.664 0,-2.133 0.797,-2.133 1.098,-2.133 l 0.414,-0.012 c 0.363,-0.016 0.773,-0.031 0.91,0.102 0.094,0.09 0.148,0.324 0.148,0.645 0,0.48 -0.09,0.598 -0.094,0.602 0,-0.019 -0.344,-0.043 -0.344,-0.043 l -0.445,-0.043 v 1.176 l 0.27,0.031 c 0.348,0.051 0.867,0.129 1.289,-0.234 0.449,-0.379 0.5,-1.031 0.5,-1.488 0,-0.676 -0.168,-1.16 -0.508,-1.492 -0.504,-0.477 -1.18,-0.453 -1.773,-0.43 l -0.367,0.012 c -0.851,0 -2.273,0.43 -2.273,3.309 0,1.773 0.688,2.445 1.371,2.691 -0.684,0.25 -1.371,0.922 -1.371,2.691 0,2.879 1.422,3.309 2.273,3.309 l 0.367,0.012 c 0.594,0.023 1.27,0.051 1.773,-0.43 0.34,-0.328 0.508,-0.816 0.508,-1.492 0,-0.453 -0.051,-1.109 -0.5,-1.488 -0.422,-0.363 -0.942,-0.285 -1.289,-0.23 l -0.27,0.031 v 1.172 l 0.445,-0.043 c 0,0 0.355,-0.027 0.367,-0.027 0,0.02 0.07,0.16 0.07,0.586 0,0.32 -0.055,0.555 -0.148,0.645 -0.137,0.133 -0.547,0.117 -0.91,0.102 l -0.414,-0.012 c -0.301,0 -1.098,0 -1.098,-2.133 0,-1.664 0.645,-1.664 0.953,-1.664 0,0 1.465,0 1.844,0 0.32,0.324 4.914,4.922 4.914,4.922 l 6.172,-5.438 0.004,-0.871 z m -1.086,0.601 c -0.492,0.434 -4.172,3.676 -4.844,4.27 -0.656,-0.66 -4.324,-4.332 -4.328,-4.34 0.004,-0.008 3.664,-3.664 4.324,-4.332 0.668,0.609 4.359,3.957 4.848,4.402 z"
         id="path72" /><path
         style="fill:#1265bf;stroke:#1265bf;stroke-width:0.588;stroke-opacity:1"
         d="m 229.935,116.401 c 0,0 -10.719,-9.199 -11.109,-9.539 0,-0.531 0,-29.859 0,-29.859 0,-7.813 -3.777,-8.379 -9.996,-8.379 h -23.367 v 96.48 h 23.367 c 6.219,0 9.996,-0.566 9.996,-8.375 0,0 0,-29.332 0,-29.863 0.391,-0.34 11.629,-10.02 11.629,-10.02 z M 208.829,69.8 c 5.797,0 8.82,0.32 8.82,7.203 v 30.398 c 0,0 10.059,8.637 11.004,9.449 -0.945,0.809 -11.004,9.477 -11.004,9.477 v 30.402 c 0,6.879 -3.023,7.199 -8.82,7.199 0,0 -21.078,0 -22.191,0 0,-1.152 0,-92.973 0,-94.129 1.113,10e-4 22.191,10e-4 22.191,10e-4 z"
         id="path74" /><path
         style="fill:#1265bf;stroke:#1265bf;stroke-width:0.588;stroke-opacity:1"
         d="m 234.2,116.401 c 0,0 -10.719,-9.199 -11.113,-9.539 0,-0.531 0,-32.504 0,-32.504 0,-6.633 -3.906,-9.996 -11.613,-9.996 H 181.2 v 105.004 h 30.273 c 7.707,0 11.613,-3.363 11.613,-9.996 0,0 0,-31.973 0,-32.504 0.391,-0.34 11.629,-10.02 11.629,-10.02 z M 211.474,65.542 c 7.023,0 10.438,2.883 10.438,8.816 v 33.043 c 0,0 10.059,8.637 11.004,9.449 -0.945,0.809 -11.004,9.477 -11.004,9.477 v 33.043 c 0,5.937 -3.414,8.82 -10.438,8.82 0,0 -27.969,0 -29.102,0 0,-1.156 0,-101.492 0,-102.648 1.133,0 29.102,0 29.102,0 z"
         id="path76" /><path
         style="fill:#1265bf"
         d="m 218.454,114.866 c -1.82,0 -2.203,1.195 -2.203,2.199 0,1.426 0.781,2.207 2.203,2.207 0.664,0 2.207,0 2.207,-2.207 0,-1.972 -1.258,-2.199 -2.207,-2.199 z m 0,1.172 c 0.75,0 1.031,0.09 1.031,1.027 0,0.984 -0.266,1.031 -1.031,1.031 -0.766,0 -1.027,-0.262 -1.027,-1.031 0,-0.871 0.332,-1.027 1.027,-1.027 z"
         id="path78" /></g><g
       id="g74886"><path
         style="fill:#1265bf"
         d="m 34.489,125.323 c 0,2.766 1.402,4.164 4.164,4.164 2.801,0 4.164,-1.363 4.164,-4.164 0,-2.059 -0.492,-4.164 -4.164,-4.164 -2.761,0 -4.164,1.403 -4.164,4.164 z"
         id="path82" /><path
         style="fill:#1265bf"
         d="m 32.286,130.21 0.059,0.117 c 0.094,0.191 2.367,4.758 13.105,9.977 10.707,5.207 12.898,8.449 12.898,11.719 v 4.605 c 0,2.004 -4.09,3.82 -5.684,3.82 h -5.977 c -1.469,0 -3.035,-0.414 -3.035,-5.387 0,-4.25 1.582,-4.488 3.48,-4.504 -0.496,0.57 -0.766,1.313 -0.766,2.055 v 2.129 c 0,2.059 1.977,3.016 3.309,3.016 h 1.762 c 2.047,0 3.531,-1.238 3.531,-2.941 v -2.203 c 0,-1.906 -2.324,-3.234 -4.41,-3.234 h -3.086 c -2.633,0 -4.996,0.434 -4.996,5.684 0,4.539 1.301,6.563 4.211,6.563 h 5.977 c 2.047,0 6.859,-2.109 6.859,-4.996 v -4.605 c 0,-3.816 -2.27,-7.285 -13.559,-12.773 -9.684,-4.711 -12.215,-8.813 -12.504,-9.328 0,-0.297 0,-6.313 0,-6.313 0,-2.793 1.777,-5.781 6.762,-5.781 3.23,0 7.055,3.453 7.055,6.367 0,2.918 -2.976,6.371 -5.488,6.371 -2.699,0 -6.125,-2.469 -6.125,-5.242 h -1.176 c 0,3.457 4.016,6.418 7.301,6.418 3.176,0 6.664,-3.949 6.664,-7.547 0,-3.523 -4.387,-7.543 -8.23,-7.543 -5.859,0 -7.938,3.75 -7.938,6.957 v 6.469 0.13 z"
         id="path84" /><path
         style="fill:#1265bf"
         d="m 31.11,150.261 c 0,0.766 0.246,1.379 0.73,1.836 0.52,0.481 1.109,0.613 1.594,0.672 -1.195,5.859 3.813,9.336 3.867,9.371 l 0.914,0.606 v -8.738 c 0,-5.039 6.68,-7.652 6.75,-7.68 l 1.316,-0.504 -1.285,-0.582 c -5.355,-2.418 -11.633,-8.668 -11.633,-10.41 v -0.012 l -1.176,0.012 c 0,0 0,0 0,0.004 v 0 l 0.098,8.27 c 0,0 1.684,2.328 2.258,3.121 -1.163,0.623 -3.433,2.084 -3.433,4.034 z m 5.207,-3.582 c 0,0 -2.66,-3.684 -2.859,-3.957 -0.004,-0.246 -0.035,-3.019 -0.063,-5.332 2.035,2.754 6.289,6.367 10.027,8.352 -2.09,1.043 -6.387,3.73 -6.387,8.266 0,0 0,4.645 0,6.395 -1.324,-1.246 -3.508,-3.992 -2.371,-7.996 l 0.223,-0.797 -0.828,0.051 c -0.254,0.012 -1,-0.031 -1.418,-0.426 -0.238,-0.227 -0.355,-0.547 -0.355,-0.973 0,-1.449 2.438,-2.863 3.375,-3.285 z"
         id="path86" /><path
         style="fill:#1265bf"
         d="m 42.966,134.956 0.899,0.285 c 0.078,0.027 7.879,2.547 11.055,7.402 l 0.172,0.27 h 3.258 v -2.836 l -0.027,-0.086 c -0.047,-0.145 -1.047,-3.227 -2.938,-4.906 0.695,-0.539 2.184,-1.68 2.184,-1.68 v -2.918 c 0,0 -1.738,-1.473 -2.332,-1.969 0.539,-0.707 2.918,-3.828 2.918,-3.828 v -2.855 h -4.699 c 0,0 0,1.863 0,2.227 -0.324,0.324 -9.836,10.211 -9.836,10.211 z m 11.66,-11.949 c 0.652,0 1.695,0 2.351,0 0,0.523 0,1.063 0,1.285 -0.223,0.289 -3.355,4.402 -3.355,4.402 0,0 2.418,2.043 2.77,2.34 0,0.367 0,1.402 0,1.789 -0.383,0.293 -2.984,2.293 -2.984,2.293 l 0.707,0.449 c 1.828,1.168 2.922,4.289 3.059,4.699 0,0.125 0,0.887 0,1.469 -0.555,0 -1.172,0 -1.484,0 -2.875,-4.117 -8.469,-6.512 -10.59,-7.301 1.105,-1.148 9.527,-9.902 9.527,-9.902 v -0.234 c -0.001,0 -0.001,-0.734 -0.001,-1.289 z"
         id="path88" /><path
         style="fill:#1265bf"
         d="m 34.489,108.667 c 0,2.762 1.402,4.164 4.164,4.164 3.672,0 4.164,-2.105 4.164,-4.164 0,-2.805 -1.363,-4.164 -4.164,-4.164 -2.761,0 -4.164,1.398 -4.164,4.164 z"
         id="path90" /><path
         style="fill:#1265bf"
         d="m 32.286,110.382 c 0,3.461 2.453,6.957 7.938,6.957 3.844,0 8.23,-4.02 8.23,-7.543 0,-3.598 -3.488,-7.547 -6.664,-7.547 -3.285,0 -7.301,2.961 -7.301,6.418 h 1.176 c 0,-2.773 3.426,-5.242 6.125,-5.242 2.512,0 5.488,3.453 5.488,6.371 0,2.914 -3.824,6.367 -7.055,6.367 -4.992,0 -6.762,-3.113 -6.762,-5.781 0,0 0,-6.016 0,-6.313 0.289,-0.516 2.82,-4.617 12.504,-9.328 11.289,-5.488 13.559,-8.957 13.559,-12.773 v -4.605 c 0,-2.887 -4.813,-4.996 -6.859,-4.996 h -5.977 c -2.91,0 -4.211,2.023 -4.211,6.566 0,5.246 2.363,5.68 4.996,5.68 h 3.086 c 2.086,0 4.41,-1.328 4.41,-3.234 v -2.203 c 0,-1.703 -1.484,-2.942 -3.531,-2.942 h -1.762 c -1.332,0 -3.309,0.957 -3.309,3.016 v 2.129 c 0,0.742 0.27,1.484 0.766,2.055 -1.898,-0.016 -3.48,-0.25 -3.48,-4.5 0,-4.977 1.566,-5.391 3.035,-5.391 h 5.977 c 1.594,0 5.684,1.816 5.684,3.82 v 4.605 c 0,3.27 -2.191,6.516 -12.898,11.715 -10.738,5.223 -13.012,9.789 -13.105,9.977 l -0.059,0.121 v 0.137 6.464 z"
         id="path92" /><path
         style="fill:#1265bf"
         d="m 31.11,83.733 c 0,1.949 2.269,3.41 3.434,4.035 -0.574,0.789 -2.258,3.117 -2.258,3.117 l -0.098,8.27 v 0 c 0,0.004 0,0.008 0,0.008 l 1.176,0.008 v -0.008 c 0,-1.75 6.277,-7.996 11.633,-10.414 l 1.285,-0.582 -1.316,-0.504 c -0.07,-0.027 -6.75,-2.641 -6.75,-7.68 v -8.738 l -0.914,0.605 c -0.055,0.035 -5.063,3.512 -3.867,9.371 -0.484,0.059 -1.074,0.191 -1.594,0.672 -0.485,0.454 -0.731,1.071 -0.731,1.84 z m 3.782,-1.347 -0.227,-0.801 c -1.137,-4.004 1.047,-6.75 2.371,-7.996 0,1.75 0,6.395 0,6.395 0,4.535 4.297,7.223 6.387,8.266 -3.738,1.984 -7.992,5.598 -10.027,8.352 0.027,-2.309 0.059,-5.086 0.063,-5.328 0.199,-0.277 2.859,-3.965 2.859,-3.965 l -0.656,-0.293 c -0.938,-0.422 -3.375,-1.836 -3.375,-3.281 0,-0.43 0.117,-0.75 0.355,-0.976 0.418,-0.395 1.164,-0.438 1.418,-0.426 z"
         id="path94" /><path
         style="fill:#1265bf"
         d="m 42.966,99.038 c 0,0 10.164,10.566 10.488,10.895 0,0.363 0,2.262 0,2.262 h 4.699 v -2.891 c 0,0 -2.379,-3.125 -2.918,-3.828 0.594,-0.504 2.332,-1.973 2.332,-1.973 v -2.914 c 0,0 -1.488,-1.141 -2.184,-1.68 1.891,-1.684 2.891,-4.766 2.938,-4.91 l 0.027,-0.086 V 91.081 H 55.09 l -0.172,0.266 c -3.176,4.856 -10.977,7.375 -11.055,7.402 z m 12.722,-6.785 c 0.313,0 0.93,0 1.484,0 0,0.586 0,1.348 0,1.473 -0.137,0.41 -1.23,3.535 -3.059,4.699 l -0.707,0.449 c 0,0 2.602,2 2.984,2.293 0,0.387 0,1.422 0,1.789 -0.352,0.297 -2.77,2.34 -2.77,2.34 0,0 3.133,4.113 3.355,4.402 0,0.227 0,0.789 0,1.32 -0.656,0 -1.699,0 -2.351,0 0,-0.566 0,-1.559 0,-1.559 0,0 -8.422,-8.754 -9.527,-9.902 2.123,-0.785 7.716,-3.179 10.591,-7.304 z"
         id="path96" /><path
         style="fill:#1265bf"
         d="m 42.11,116.636 v 0.871 l 6.172,5.438 c 0,0 4.594,-4.598 4.914,-4.922 0.383,0 1.844,0 1.844,0 0.312,0 0.957,0 0.957,1.664 0,2.133 -0.801,2.133 -1.102,2.133 l -0.41,0.012 c -0.367,0.016 -0.773,0.031 -0.91,-0.102 -0.094,-0.09 -0.148,-0.324 -0.148,-0.645 0,-0.426 0.07,-0.566 0.07,-0.586 0.008,0 0.363,0.027 0.363,0.027 l 0.445,0.043 v -1.172 l -0.27,-0.031 c -0.348,-0.055 -0.871,-0.133 -1.289,0.23 -0.445,0.379 -0.5,1.035 -0.5,1.488 0,0.676 0.172,1.164 0.512,1.492 0.5,0.48 1.176,0.453 1.77,0.43 l 0.367,-0.012 c 0.852,0 2.277,-0.43 2.277,-3.309 0,-1.77 -0.688,-2.441 -1.375,-2.691 0.688,-0.246 1.375,-0.918 1.375,-2.691 0,-2.879 -1.426,-3.309 -2.277,-3.309 l -0.367,-0.012 c -0.594,-0.023 -1.27,-0.047 -1.77,0.43 -0.34,0.332 -0.512,0.816 -0.512,1.492 0,0.457 0.055,1.109 0.5,1.488 0.418,0.363 0.941,0.285 1.289,0.234 l 0.27,-0.031 v -1.176 l -0.445,0.043 c 0,0 -0.344,0.024 -0.344,0.043 0,-0.004 -0.09,-0.121 -0.09,-0.602 0,-0.32 0.055,-0.555 0.148,-0.645 0.137,-0.133 0.543,-0.117 0.91,-0.102 l 0.41,0.012 c 0.301,0 1.102,0 1.102,2.133 0,1.664 -0.645,1.664 -0.957,1.664 0,0 -1.461,0 -1.844,0 -0.32,-0.324 -4.922,-4.93 -4.922,-4.93 l -5.973,5.426 z m 6.129,-3.973 c 0.66,0.668 4.316,4.324 4.324,4.332 -0.008,0.008 -3.676,3.68 -4.332,4.34 -0.668,-0.594 -4.348,-3.836 -4.844,-4.27 0.489,-0.445 4.18,-3.793 4.852,-4.402 z"
         id="path98" /><path
         style="fill:#1265bf;stroke:#1265bf;stroke-width:0.588;stroke-opacity:1"
         d="m 17.028,116.847 c 0,0 11.238,9.68 11.633,10.02 0,0.531 0,29.863 0,29.863 0,7.809 3.777,8.375 9.992,8.375 H 62.024 V 68.625 H 38.653 c -6.215,0 -9.992,0.566 -9.992,8.379 0,0 0,29.328 0,29.859 -0.394,0.34 -11.113,9.539 -11.113,9.539 z M 60.845,69.8 c 0,1.156 0,92.977 0,94.129 -1.117,0 -22.191,0 -22.191,0 -5.793,0 -8.816,-0.32 -8.816,-7.199 v -30.402 c 0,0 -10.063,-8.668 -11.004,-9.477 0.945,-0.813 11.004,-9.449 11.004,-9.449 V 77.003 c 0,-6.883 3.023,-7.203 8.816,-7.203 -0.001,0 21.073,0 22.191,0 z"
         id="path100" /><path
         style="fill:#1265bf;stroke:#1265bf;stroke-width:0.588;stroke-opacity:1"
         d="m 12.767,116.847 c 0,0 11.238,9.68 11.633,10.02 0,0.531 0,32.504 0,32.504 0,6.633 3.906,9.996 11.609,9.996 H 66.286 V 64.362 H 36.009 c -7.703,0 -11.609,3.363 -11.609,9.996 0,0 0,31.973 0,32.504 -0.398,0.34 -11.113,9.539 -11.113,9.539 z M 65.11,65.542 c 0,1.156 0,101.492 0,102.648 -1.129,0 -29.102,0 -29.102,0 -7.023,0 -10.434,-2.883 -10.434,-8.82 v -33.043 c 0,0 -10.063,-8.668 -11.004,-9.477 0.941,-0.813 11.004,-9.449 11.004,-9.449 V 74.358 c 0,-5.933 3.41,-8.816 10.434,-8.816 10e-4,0 27.973,0 29.102,0 z"
         id="path102" /><path
         style="fill:#1265bf"
         d="m 26.825,117.065 c 0,2.207 1.543,2.207 2.203,2.207 1.422,0 2.203,-0.781 2.203,-2.207 0,-1.004 -0.383,-2.199 -2.203,-2.199 -0.945,0 -2.203,0.227 -2.203,2.199 z m 3.235,0 c 0,0.77 -0.262,1.031 -1.031,1.031 -0.766,0 -1.027,-0.047 -1.027,-1.031 0,-0.938 0.281,-1.027 1.027,-1.027 0.695,0 1.031,0.156 1.031,1.027 z"
         id="path104" /></g><g
       id="g75023"><path
         style="fill:#1265bf;stroke:#1265bf;stroke-width:0.588;stroke-opacity:1"
         d="M 176.845,62.667 H 69.86 V 170.253 H 177.434 V 62.667 Z m -0.586,1.176 c 0,1.156 0,104.074 0,105.234 -1.16,0 -104.066,0 -105.223,0 0,-1.16 0,-104.078 0,-105.234 1.156,0 104.063,0 105.223,0 z"
         id="path108" /><path
         style="fill:#1265bf;stroke:#1265bf;stroke-width:0.588;stroke-opacity:1"
         d="M 172.142,67.37 H 74.56 v 98.18 h 98.176 V 67.37 Z m -0.59,1.18 c 0,1.156 0,94.66 0,95.82 -1.16,0 -94.652,0 -95.809,0 0,-1.16 0,-94.664 0,-95.82 1.156,0 94.649,0 95.809,0 z"
         id="path110" /><rect
         x="128.446"
         y="150.065"
         style="fill:#1265bf"
         width="11.394"
         height="1.1799999"
         id="rect112" /><rect
         x="107.653"
         y="150.065"
         style="fill:#1265bf"
         width="11.402"
         height="1.1799999"
         id="rect114" /><path
         style="fill:#000000;fill-opacity:0"
         d="m 139.653,110.03 c 2.922,6.277 9.77,20.973 9.77,25.926 0,4.092 -2.116,11.293 -6.865,14.109 h 11.178 c 6.891,0 9.992,-8.25 9.992,-14.109 0,-3.961 -4.336,-15.367 -6.922,-22.187 l -1.672,-4.461 c 0,0 -11.957,-33.684 -12.957,-36.492 -1.34,3.781 -4.952,13.943 -8.186,22.743 2.264,6.155 4.311,11.565 5.209,13.499 z"
         id="path116" /><path
         style="fill:#000000;fill-opacity:0"
         d="m 98.653,135.956 c 0,-4.18 5.422,-15.113 9.012,-22.348 l 2.219,-4.551 c 0.791,-1.706 2.477,-6.112 4.417,-11.35 -3.413,-9.226 -7.529,-20.799 -8.979,-24.893 -2.5,7.039 -12.957,36.492 -12.957,36.492 l -1.668,4.461 c -2.59,6.82 -6.922,18.227 -6.922,22.187 0,5.859 3.098,14.109 9.992,14.109 h 12.699 c -4.929,-2.78 -7.813,-9.848 -7.813,-14.107 z"
         id="path118" /><path
         style="fill:#1265bf"
         d="m 93.767,150.065 c -6.895,0 -9.992,-8.25 -9.992,-14.109 0,-3.961 4.332,-15.367 6.922,-22.187 l 1.668,-4.461 c 0,0 10.457,-29.453 12.957,-36.492 1.451,4.094 5.566,15.667 8.979,24.893 0.207,-0.56 0.417,-1.13 0.63,-1.707 -4.087,-11.094 -8.964,-24.892 -9.039,-25.104 l -0.555,-1.574 -0.59,1.57 -13.496,38.02 -1.656,4.438 c -2.789,7.34 -7.004,18.43 -7.004,22.605 0,6.348 3.469,15.289 11.176,15.289 h 17.043 c -1.583,0 -3.035,-0.441 -4.344,-1.18 H 93.767 Z"
         id="path120" /><rect
         x="122.794"
         y="150.065"
         style="fill:#1265bf"
         width="1.957"
         height="1.1799999"
         id="rect122" /><path
         style="fill:#1265bf"
         d="m 157.907,113.351 -1.66,-4.438 -14.055,-39.59 -0.586,1.574 c -0.072,0.198 -4.349,12.296 -8.247,22.941 0.212,0.579 0.423,1.151 0.632,1.72 3.233,-8.8 6.846,-18.962 8.186,-22.743 1,2.809 12.957,36.492 12.957,36.492 l 1.672,4.461 c 2.586,6.82 6.922,18.227 6.922,22.187 0,5.859 -3.101,14.109 -9.992,14.109 h -11.178 c -1.244,0.738 -2.667,1.18 -4.283,1.18 h 15.461 c 7.703,0 11.168,-8.941 11.168,-15.289 -0.001,-4.175 -4.208,-15.265 -6.997,-22.604 z"
         id="path124" /><path
         style="fill:#1265bf"
         d="m 121.618,164.569 h 1.176 v -13.324 h -1.176 c 0,1.082 0,13.324 0,13.324 z"
         id="path126" /><path
         style="fill:#1265bf"
         d="m 124.751,164.569 h 1.18 c 0,0 0,-12.242 0,-13.324 h -1.18 z"
         id="path128" /><path
         style="fill:#1265bf"
         d="m 124.544,72.819 c 1.34,3.785 4.952,13.944 8.185,22.74 0.209,-0.568 0.419,-1.142 0.631,-1.721 -3.899,-10.653 -8.174,-22.744 -8.245,-22.941 l -0.559,-1.578 -0.586,1.578 c -0.076,0.211 -4.95,14 -9.039,25.104 0.213,0.579 0.423,1.147 0.631,1.709 3.412,-9.223 7.527,-20.793 8.982,-24.891 z"
         id="path130" /><path
         style="fill:#1265bf"
         d="m 99.837,135.956 c 0,-3.902 5.563,-15.121 8.883,-21.824 l 2.23,-4.578 c 0.746,-1.604 2.238,-5.468 3.98,-10.146 -0.207,-0.557 -0.417,-1.122 -0.63,-1.699 -1.94,5.238 -3.626,9.644 -4.417,11.35 l -2.219,4.551 c -3.59,7.234 -9.012,18.168 -9.012,22.348 0,4.259 2.884,11.327 7.812,14.109 h 4.344 c -6.807,-0.002 -10.971,-9.134 -10.971,-14.111 z"
         id="path132" /><path
         style="fill:#1265bf"
         d="m 138.13,109.554 0.449,0.973 c 2.895,6.207 9.664,20.742 9.664,25.43 0,5.063 -3.332,14.109 -9.969,14.109 h 4.283 c 4.749,-2.816 6.865,-10.018 6.865,-14.109 0,-4.953 -6.848,-19.648 -9.77,-25.926 l -0.453,-0.973 c -0.898,-1.934 -2.945,-7.344 -5.209,-13.499 -0.213,0.578 -0.424,1.15 -0.632,1.714 2.077,5.619 3.915,10.437 4.772,12.281 z"
         id="path134" /><path
         style="fill:#1265bf"
         d="m 133.359,97.273 c 0.208,-0.564 0.419,-1.137 0.632,-1.714 -0.209,-0.568 -0.42,-1.141 -0.632,-1.72 -0.212,0.579 -0.422,1.153 -0.631,1.721 0.212,0.577 0.423,1.149 0.631,1.713 z"
         id="path136" /><path
         style="fill:#1265bf"
         d="m 110.81,150.065 h -4.344 c 1.31,0.739 2.761,1.18 4.344,1.18 h 10.809 1.176 v -1.18 z"
         id="path138" /><path
         style="fill:#1265bf"
         d="m 114.931,99.407 c 0.208,-0.556 0.417,-1.121 0.631,-1.698 -0.208,-0.561 -0.418,-1.13 -0.631,-1.709 -0.213,0.577 -0.423,1.147 -0.63,1.707 0.213,0.578 0.423,1.144 0.63,1.7 z"
         id="path140" /><path
         style="fill:#1265bf"
         d="m 138.274,150.065 h -13.523 v 1.18 h 1.18 12.344 c 1.616,0 3.039,-0.441 4.283,-1.18 z"
         id="path142" /></g></g><g
     id="g188"
     style="fill:#1265bf">
		<g
   id="g186"
   style="fill:#1265bf">
			<path
   style="fill:#1265bf"
   d="m 46.966,211.804 c -0.191,-0.055 -0.465,-0.09 -0.82,-0.109 -0.812,0.066 -1.437,0.617 -1.871,1.66 -0.352,0.848 -0.492,1.723 -0.418,2.629 0.109,1.395 0.477,2.465 1.098,3.211 l -2.586,2.769 c -2.492,-2.18 -5.406,-3.137 -8.754,-2.867 -1.371,0.109 -2.719,0.481 -4.047,1.125 l -0.203,-1.176 c 2.5,-0.922 4.586,-1.461 6.258,-1.617 2.391,-0.215 4.402,0.074 6.031,0.871 0.004,-2.574 0.324,-4.309 0.953,-5.203 1.09,-1 2.09,-2.078 3.004,-3.223 -0.121,-0.625 -0.793,-1.25 -2.016,-1.875 -1.129,-0.594 -2.039,-0.871 -2.742,-0.836 -0.328,0.004 -0.621,0.156 -0.879,0.457 -0.168,0.269 -0.258,0.594 -0.273,0.973 0.051,0.629 0.324,1.344 0.813,2.152 0.133,0.223 0.609,0.851 1.426,1.891 -1.102,2.059 -2.664,3.164 -4.684,3.328 -1.441,0.117 -2.699,-0.332 -3.777,-1.348 -1.074,-1.012 -1.684,-2.25 -1.824,-3.715 -0.238,-2.648 1.008,-4.766 3.738,-6.344 1.988,-1.141 4.527,-1.859 7.617,-2.156 l 0.82,1.063 c -2.984,0.727 -5.105,1.438 -6.359,2.125 -2.422,1.316 -3.547,3.047 -3.375,5.191 0.078,0.93 0.375,1.734 0.898,2.422 0.605,0.793 1.348,1.164 2.234,1.121 0.094,-0.008 0.664,-0.305 1.719,-0.879 l -0.828,-1.938 c -0.289,-0.66 -0.457,-1.254 -0.5,-1.789 -0.117,-1.188 0.223,-2.188 1.023,-3.004 0.738,-0.762 1.707,-1.203 2.918,-1.324 2.098,-0.191 3.785,0.551 5.07,2.231 l -0.563,-6.973 1.746,-0.07 1.785,22.207 -1.734,0.211 z"
   id="path144" />
			<path
   style="fill:#1265bf"
   d="m 49.337,228.21 -0.5,-2.676 -16.887,3.145 1.406,-2.961 15.172,-1.859 -0.715,-3.82 1.719,-0.316 1.523,8.172 z"
   id="path146" />
			<path
   style="fill:#1265bf"
   d="m 49.31,234.077 c 0.359,1.234 0.25,2.414 -0.332,3.531 -0.582,1.125 -1.488,1.875 -2.711,2.258 -0.891,0.285 -1.863,0.238 -2.918,-0.129 -0.68,-0.242 -2.063,-1.192 -4.148,-2.848 -0.832,2.723 -2.109,5.746 -3.836,9.07 l -0.996,-0.543 c 2.43,-4.141 3.473,-8.578 3.133,-13.309 l 3.039,-2.313 c -0.336,1.434 -0.313,2.828 0.055,4.176 0.375,1.352 1.117,2.512 2.227,3.477 1.254,1.117 2.508,1.504 3.773,1.16 0.656,-0.172 1.086,-0.613 1.289,-1.328 0.191,-0.586 0.199,-1.234 0.02,-1.934 -0.098,-0.406 -0.285,-0.766 -0.57,-1.07 -0.848,0.176 -1.691,0.031 -2.527,-0.438 -0.844,-0.469 -1.383,-1.109 -1.617,-1.914 -0.152,-0.512 -0.105,-0.988 0.145,-1.422 0.25,-0.438 0.629,-0.73 1.144,-0.883 1.473,-0.43 2.981,0.488 4.52,2.762 l 0.137,-0.039 c 0.332,-0.098 0.695,-0.398 1.082,-0.898 l -1.703,-5.809 1.676,-0.488 4.367,14.898 -1.676,0.492 -2.191,-7.484 -0.359,0.031 c -0.246,0.072 -0.59,0.404 -1.023,0.994 z"
   id="path148" />
			<path
   style="fill:#1265bf"
   d="m 55.552,245.729 -1.094,-2.492 -15.738,6.894 0.695,-3.199 14.355,-5.258 -1.555,-3.555 1.598,-0.703 3.336,7.613 z"
   id="path150" />
			<path
   style="fill:#1265bf"
   d="m 60.884,254.558 c -0.086,0.941 -2.16,1.016 -2.984,0.094 -1.164,-1.301 -0.031,-4.074 -0.145,-4.719 -0.047,-0.246 -0.836,-1.238 -0.836,-1.238 -0.223,-0.328 -1.25,0.645 -1.082,0.891 0.223,0.449 0.027,-0.02 0.414,1.445 0.141,0.508 -0.156,1.309 -0.156,1.309 -0.191,0.73 -0.461,1.637 -1.715,2.449 1.262,0.145 1.398,0.051 2.602,0.402 1.477,0.406 2.16,0.707 3.031,1.281 l 0.039,3.258 c -1.238,-0.285 -2.555,-0.516 -3.727,-0.406 -1.078,0.129 -2.457,0.34 -3.395,0.734 -3.473,1.508 -4.328,3.09 -5.484,5.234 l -0.203,-1.547 1.469,-1.918 c 0.703,-0.918 1.941,-1.992 2.902,-2.648 1.652,-1.117 3.391,-1.566 5.168,-1.848 -0.855,0.098 -2.758,-0.344 -4.27,-0.441 -1.762,-0.051 -4.176,-0.184 -5.754,-1.562 -0.519,-0.773 -0.664,-1.758 -0.211,-2.863 0.063,-0.207 1.094,-1.824 1.539,-1.762 l 0.863,0.215 c -0.91,1.02 -1.352,1.797 -0.305,2.57 0.52,0.41 1.297,0.609 3.02,0.848 0.906,0.148 1.156,-0.02 1.82,-0.391 1.133,-0.644 1.336,-1.586 1.176,-2 -0.168,-0.484 -0.207,-0.781 -0.91,-0.988 -0.574,0.391 -0.922,0.586 -1.543,0.563 -1.344,-0.09 -1.863,-1.625 -1.691,-2.504 0.121,-0.766 1.02,-1.453 1.84,-1.727 0.422,-0.086 0.828,-0.078 1.715,0.281 0.887,0.367 0.809,1.141 1.008,0.723 l 0.668,-1.332 -1.938,-2.863 0.48,-2.25 9.586,14.172 -0.441,2.309 c 0.001,-0.002 -1.898,-2.811 -2.55,-3.771 z m -2.571,-3.797 c -0.141,1.336 -0.937,2.762 0.207,3.031 0.57,0.133 1.148,0.102 1.543,-0.445 0,0 -1.043,-1.539 -1.75,-2.586 z"
   id="path152" />
			<path
   style="fill:#1265bf"
   d="m 65.009,258.878 -11.977,12.125 0.008,-2.324 10.812,-10.945 -1.492,-1.473 -0.109,-2.441 2.906,2.871 0.582,-1.199 c 0.398,-0.594 0.738,-1.887 0.852,-2.66 0.27,-2.07 -0.371,-3.219 -1.324,-4.949 -0.898,-1.641 -2.199,-2.832 -3.121,-3.598 -0.59,-0.492 -1.441,-1.051 -2.875,-1.301 0,0 -1.48,-0.199 0.106,1.883 0.758,0.93 2.012,1.98 2.91,3.246 0.832,1.191 1.254,1.707 1.121,2.879 -0.133,1.18 -0.203,1.344 -1.723,2.551 l -1.25,-1.238 c 0.68,0.066 1.527,0.063 1.613,-0.832 0.113,-0.773 -0.594,-1.476 -1.398,-2.316 -1.371,-1.449 -2.387,-2.172 -2.945,-4.445 -0.48,-1.832 1.137,-2.895 1.984,-2.809 0.656,0.043 1.238,-0.5 4.383,1.899 1.32,0.976 2.293,2.5 3.219,4.254 0.43,0.797 0.648,1.898 0.773,3.051 0.195,1.879 -0.633,4.375 -1.098,5.176 l -0.789,1.414 1.18,1.168 0.02,2.352 z"
   id="path154" />
			<path
   style="fill:#1265bf"
   d="m 61.329,276.542 c -0.484,-0.316 -0.801,-0.746 -0.945,-1.289 -0.144,-0.543 -0.063,-1.055 0.262,-1.543 0.32,-0.484 0.754,-0.793 1.313,-0.914 0.555,-0.121 1.078,-0.031 1.582,0.27 0.457,0.273 0.758,0.703 0.891,1.277 0.137,0.578 0.066,1.094 -0.207,1.555 -0.289,0.48 -0.727,0.785 -1.313,0.914 -0.591,0.128 -1.114,0.038 -1.583,-0.27 z m 16.027,-8.844 -9.641,14.641 c -0.297,-0.613 -0.398,-1.84 -0.305,-3.68 0.094,-2.004 0.035,-3.383 -0.168,-4.133 -0.492,-1.719 -1.668,-3.387 -3.535,-5.008 l -0.215,-3.621 c 4.012,-0.145 8.012,0.336 12,1.453 l 0.406,-0.613 -10.82,-7.125 0.961,-1.457 14.781,9.734 -0.965,1.457 z m -3.211,1.707 c -2.59,-0.703 -5.25,-1.043 -7.977,-1.023 1.871,2.602 2.844,5.5 2.918,8.703 z"
   id="path156" />
			<path
   style="fill:#1265bf"
   d="m 90.622,272.694 -5.875,16.254 -1.215,-0.477 0.383,-0.715 c 0.629,-1.734 0.742,-3.773 0.352,-6.121 -0.445,-2.688 -1.465,-4.336 -3.063,-4.938 -0.559,-0.102 -0.816,-0.145 -0.773,-0.129 0.543,1.016 0.695,1.887 0.453,2.621 -0.215,0.668 -0.656,1.148 -1.316,1.445 -0.664,0.289 -1.324,0.32 -1.98,0.082 -0.898,-0.324 -1.508,-0.867 -1.824,-1.625 -0.32,-0.758 -0.32,-1.59 0.004,-2.484 0.406,-1.117 1.203,-1.879 2.391,-2.293 1.082,-0.375 2.207,-0.363 3.379,0.035 1.063,0.359 2.031,1.289 2.902,2.789 0.84,1.387 1.289,2.688 1.348,3.895 l 3.227,-8.922 -11.785,-4.262 0.594,-1.641 15.422,5.574 -0.527,1.664 z"
   id="path158" />
			<path
   style="fill:#1265bf"
   d="m 97.688,279.561 c 0.105,-0.473 -0.215,-0.793 -0.969,-0.953 -0.363,-0.063 -1.27,0.176 -2.715,0.711 -0.633,0.238 -1.195,0.324 -1.676,0.262 -0.535,-0.07 -0.902,-0.398 -1.105,-0.98 -0.176,-0.461 -0.215,-0.973 -0.113,-1.547 0.258,-1.566 1.016,-2.855 2.273,-3.859 1.258,-1.008 2.652,-1.375 4.188,-1.098 1.215,0.215 2.406,0.891 3.57,2.027 1.094,1.047 1.883,2.195 2.367,3.445 l 0.727,-4.066 3.988,0.715 -0.309,1.719 -2.441,-0.438 -3.031,16.91 -0.93,-0.168 -1.254,-1.895 c 0.168,-0.941 0.402,-1.918 0.703,-2.934 0.723,-2.453 1.156,-4.082 1.301,-4.883 0.355,-1.976 0.156,-3.648 -0.598,-5.016 -0.82,-1.496 -2.199,-2.418 -4.129,-2.766 -1.105,-0.199 -2.074,0.449 -2.914,1.938 0.371,-0.082 0.875,-0.07 1.52,0.047 2.492,0.449 3.523,1.949 3.086,4.504 -0.281,1.727 -1.414,3.34 -3.379,4.836 l -2.66,-1.965 c 0.492,0.137 1.344,-0.453 2.547,-1.773 1.172,-1.257 1.821,-2.179 1.953,-2.773 z"
   id="path160" />
			<path
   style="fill:#1265bf"
   d="m 119.845,276.39 -1.012,17.5 c -0.559,-0.383 -1.262,-1.391 -2.102,-3.031 -0.926,-1.781 -1.668,-2.945 -2.219,-3.492 -1.281,-1.242 -3.141,-2.094 -5.566,-2.563 l -2,-3.027 c 3.398,-2.137 7.105,-3.723 11.117,-4.754 l 0.043,-0.734 -12.938,-0.746 0.102,-1.742 17.668,1.02 -0.102,1.742 z m -9.438,15.683 c -0.582,-0.031 -1.07,-0.246 -1.469,-0.645 -0.395,-0.395 -0.578,-0.883 -0.543,-1.465 0.035,-0.582 0.262,-1.066 0.68,-1.445 0.418,-0.387 0.918,-0.57 1.496,-0.563 0.539,0.008 1.012,0.227 1.414,0.656 0.406,0.434 0.609,0.918 0.602,1.453 -0.008,0.559 -0.234,1.043 -0.68,1.449 -0.445,0.404 -0.941,0.591 -1.5,0.56 z m 7.516,-12.601 c -2.594,0.695 -5.063,1.73 -7.414,3.113 2.918,1.313 5.211,3.336 6.883,6.07 z"
   id="path162" />
			<path
   style="fill:#1265bf"
   d="m 147.349,269.725 c -1.332,-0.895 -3.574,-1.422 -5.012,-1.477 -1,-0.023 -2.727,0.109 -4.043,1.145 -0.695,0.523 -0.824,0.566 -1.449,1.547 -0.355,0.527 -1.051,1.914 -0.965,2.172 l 0.742,1.379 1.754,-0.141 1.785,1.531 -2.848,0.219 1.301,16.797 -1.816,-1.492 -1.145,-15.176 -2.449,0.188 -1.781,-1.523 4.273,-0.332 -1.582,-1.445 c -0.539,-0.492 -0.184,-1.918 -0.066,-2.16 0.699,-1.285 0.688,-2.289 3.57,-3.809 2.941,-1.594 7.699,0.402 9.117,1.125 1.324,0.695 3.148,2.32 3.148,2.32 l 0.445,1.035 z"
   id="path164" />
			<path
   style="fill:#1265bf"
   d="m 151.685,273.901 2.613,16.98 c -0.051,0.004 -0.129,0.02 -0.246,0.035 -0.09,0.016 -0.207,0.051 -0.352,0.109 -0.148,0.055 -0.23,0.086 -0.254,0.09 -0.047,0.008 -0.133,-0.016 -0.258,-0.066 -1.094,-2.027 -2.52,-3.637 -4.285,-4.828 -1.926,-1.305 -3.965,-1.914 -6.125,-1.816 l -2.586,-2.539 c 2.875,-2.805 6.168,-5.129 9.875,-6.973 l -0.113,-0.727 -12.805,1.969 -0.262,-1.723 17.488,-2.695 0.269,1.727 z m -1.247,3.383 c -2.41,1.031 -4.391,2.539 -5.937,4.523 2.836,0.98 5.285,2.523 7.348,4.637 z"
   id="path166" />
			<path
   style="fill:#1265bf"
   d="m 166.505,269.405 5.367,16.32 -0.797,0.262 -1.895,-1.621 -2.617,-9.758 c -0.148,-0.516 -0.977,-1.176 -2.492,-1.977 -1.516,-0.801 -2.527,-1.129 -3.047,-0.984 -0.481,0.133 -0.75,0.676 -0.809,1.621 -0.016,0.324 0.004,0.609 0.059,0.855 0.902,0 1.738,0.25 2.5,0.758 0.766,0.504 1.297,1.172 1.594,2 0.23,0.633 0.199,1.238 -0.098,1.828 -0.297,0.586 -0.762,0.996 -1.394,1.227 -0.969,0.344 -1.828,0.117 -2.578,-0.676 -0.32,0.734 -0.594,1.254 -0.813,1.559 -0.336,0.461 -0.817,0.793 -1.434,0.996 -0.598,0.195 -1.164,0.156 -1.695,-0.121 -0.531,-0.273 -0.894,-0.711 -1.09,-1.305 -0.609,-1.852 -0.074,-3.664 1.602,-5.434 -1.766,-0.957 -3.441,-1.199 -5.027,-0.727 l -0.543,-1.66 1.859,-0.613 c 1.172,-0.332 2.691,0.297 4.566,1.895 -0.078,-0.84 0.105,-1.691 0.559,-2.563 0.449,-0.875 1.047,-1.445 1.797,-1.719 0.695,-0.254 1.691,-0.039 2.969,0.645 0.543,0.289 1.426,0.895 2.664,1.816 l -1.246,-3.793 4.246,-1.398 0.547,1.66 z"
   id="path168" />
			<path
   style="fill:#1265bf"
   d="m 166.2,287.741 -2.777,-1.449 2.219,-3.535 c 0.664,-1.031 1.563,-2.09 2.688,-3.172 l 1.203,0.043 4.043,9.168 c -0.32,-0.035 -1.48,-0.414 -3.477,-1.137 -1.332,-0.48 -2.633,-0.453 -3.899,0.082 z m 2.442,-5.629 -1.348,1.738 c -0.621,0.813 -0.988,1.418 -1.086,1.816 0.199,-0.008 0.52,0.004 0.965,0.035 0.785,-0.016 1.969,0.305 3.551,0.953 l -1.949,-4.414 z"
   id="path170" />
			<path
   style="fill:#1265bf"
   d="m 175.888,258.972 c -1.566,-0.375 -3.848,-0.09 -5.215,0.359 -0.945,0.328 -2.516,1.055 -3.391,2.48 -0.465,0.73 -0.574,0.816 -0.816,1.953 -0.152,0.621 -0.32,2.16 -0.148,2.375 l 1.176,1.031 1.598,-0.738 2.203,0.813 -2.594,1.199 7.066,15.289 -2.219,-0.766 -6.355,-13.828 -2.23,1.031 -2.207,-0.809 3.891,-1.801 -1.98,-0.805 c -0.676,-0.273 -0.84,-1.734 -0.816,-2 0.207,-1.453 -0.152,-2.383 2.02,-4.816 2.203,-2.52 7.355,-2.301 8.941,-2.117 1.48,0.191 3.758,1.078 3.758,1.078 l 0.777,0.813 z"
   id="path172" />
			<path
   style="fill:#1265bf"
   d="m 180.864,260.55 9.734,14.16 c -0.039,0.027 -0.105,0.074 -0.203,0.141 -0.078,0.055 -0.168,0.137 -0.273,0.25 -0.105,0.113 -0.168,0.18 -0.188,0.191 -0.039,0.027 -0.125,0.043 -0.262,0.051 -1.863,-1.351 -3.848,-2.18 -5.953,-2.484 -2.305,-0.34 -4.406,-0.004 -6.309,1.02 l -3.434,-1.164 c 1.371,-3.77 3.328,-7.293 5.863,-10.566 l -0.414,-0.605 -10.676,7.336 -0.988,-1.438 14.586,-10.023 0.984,1.438 z m 0.348,3.593 c -1.719,1.973 -2.844,4.191 -3.379,6.652 2.98,-0.352 5.855,-0.023 8.629,0.984 z"
   id="path174" />
			<path
   style="fill:#1265bf"
   d="m 184.352,256.761 5.652,4.699 c -0.141,-3.879 0.063,-7 0.605,-9.375 l 2.996,-0.922 c 0.496,1.953 1.16,3.605 1.992,4.957 0.832,1.355 2.004,2.672 3.512,3.957 1.133,0.973 2.582,1.742 4.351,2.316 l -0.793,1.008 c -2.652,-1.148 -4.445,-2.109 -5.379,-2.883 -2.074,-1.695 -3.672,-3.5 -4.785,-5.406 -0.672,3.109 -0.297,6.074 1.117,8.891 l -3.219,0.371 -7.324,-6.078 -2.117,2.551 -1.391,-1.063 10.035,-12.082 1.34,1.117 z"
   id="path176" />
			<path
   style="fill:#1265bf"
   d="m 191.606,246.472 c 0.555,0.961 1.07,1.59 1.543,1.887 0.656,0.402 1.649,0.766 2.965,1.09 2.711,0.66 4.395,1.176 5.043,1.547 1.496,0.855 2.484,1.66 2.969,2.422 0.582,0.949 0.715,2.207 0.387,3.766 l -1.316,-0.027 c 0.504,-1.723 0.41,-2.789 -0.281,-3.176 -0.703,-0.41 -1.68,-0.723 -2.922,-0.949 -2.699,-0.496 -4.375,-0.926 -5.023,-1.297 -1.238,-0.703 -2.563,-2.094 -3.984,-4.168 l -2.063,3.613 -1.516,-0.867 4.277,-7.488 1.512,0.867 z"
   id="path178" />
			<path
   style="fill:#1265bf"
   d="m 195.395,238.448 -1.117,2.484 15.672,7.039 -2.84,1.633 -13.531,-7.113 -1.586,3.543 -1.598,-0.719 3.406,-7.578 z"
   id="path180" />
			<path
   style="fill:#1265bf"
   d="m 199.442,224.308 16.586,4.477 -0.293,1.082 -1.922,0.82 -8.086,-2.871 c -0.48,-0.18 -1.047,-0.078 -1.691,0.305 -0.645,0.383 -1.039,0.836 -1.18,1.351 -0.152,0.563 0.051,1.055 0.602,1.469 0.105,0.074 0.625,0.34 1.574,0.789 l -0.301,1.113 c -0.723,-0.047 -1.449,0.238 -2.176,0.863 -0.73,0.625 -1.195,1.313 -1.395,2.055 -0.195,0.723 -0.086,1.43 0.332,2.121 0.422,0.695 0.992,1.137 1.711,1.332 1.289,0.348 2.309,-0.02 3.059,-1.098 -0.094,0 -0.32,-0.012 -0.676,-0.027 -0.601,-0.164 -1.055,-0.512 -1.34,-1.035 -0.293,-0.523 -0.371,-1.094 -0.227,-1.707 0.16,-0.68 0.523,-1.164 1.098,-1.457 0.574,-0.293 1.195,-0.348 1.871,-0.164 0.832,0.227 1.441,0.719 1.824,1.484 0.383,0.77 0.473,1.582 0.266,2.441 -0.387,1.512 -1.32,2.563 -2.813,3.149 -1.328,0.535 -2.773,0.605 -4.336,0.207 -1.176,-0.297 -2.168,-0.934 -2.965,-1.926 -0.875,-1.055 -1.172,-2.148 -0.895,-3.277 0.332,-1.309 1.371,-2.465 3.121,-3.461 -0.43,-0.262 -0.785,-0.672 -1.063,-1.227 -0.281,-0.559 -0.356,-1.074 -0.227,-1.547 0.293,-1.098 1.375,-1.906 3.234,-2.414 l -4.152,-1.156 -4.067,15.066 -1.707,-0.387 5.297,-19.617 1.684,0.453 z"
   id="path182" />
			<path
   style="fill:#1265bf"
   d="m 201.337,207.147 -0.328,2.871 17.109,1.934 -0.273,1.484 c -2.273,0.09 -4.141,0.859 -5.598,2.293 -1.457,1.43 -2.328,3.281 -2.605,5.551 l -2.48,1.309 c -1.207,-1.851 -2.371,-3.941 -3.5,-6.277 -1.293,1.641 -2.273,3.535 -2.938,5.691 l -1.051,-0.121 -0.238,2.121 -1.668,-0.188 1.906,-16.855 z m 3.625,6.782 c 0.516,0.691 1.434,2.309 2.75,4.852 1.461,-2.457 3.352,-4.383 5.684,-5.785 l -12.559,-1.414 -0.719,6.34 2.258,-2.105 c 0.609,-0.588 1.473,-1.217 2.586,-1.888 z m 11.469,4.894 c -0.145,1.273 -0.82,1.863 -2.027,1.773 -0.512,-0.035 -0.922,-0.25 -1.23,-0.648 -0.305,-0.398 -0.442,-0.852 -0.406,-1.363 0.035,-0.512 0.254,-0.93 0.652,-1.262 0.402,-0.328 0.855,-0.477 1.367,-0.441 0.512,0.035 0.926,0.238 1.246,0.613 0.323,0.375 0.452,0.82 0.398,1.328 z"
   id="path184" />
		</g>
	</g></g>
</svg>
