<?xml version="1.0" encoding="UTF-8" standalone="no"?>
<svg
   id="Layer_2"
   version="1.1"
   viewBox="0 0 300 48.934391"
   sodipodi:docname="King Fahd University of Petroleum and Minerals.svg"
   width="300"
   height="48.934391"
   inkscape:version="1.4 (e7c3feb1, 2024-10-09)"
   xmlns:inkscape="http://www.inkscape.org/namespaces/inkscape"
   xmlns:sodipodi="http://sodipodi.sourceforge.net/DTD/sodipodi-0.dtd"
   xmlns="http://www.w3.org/2000/svg"
   xmlns:svg="http://www.w3.org/2000/svg">
  <sodipodi:namedview
     id="namedview3"
     pagecolor="#ffffff"
     bordercolor="#000000"
     borderopacity="0.25"
     inkscape:showpageshadow="2"
     inkscape:pageopacity="0.0"
     inkscape:pagecheckerboard="0"
     inkscape:deskcolor="#d1d1d1"
     inkscape:zoom="0.13556239"
     inkscape:cx="1051.1765"
     inkscape:cy="-254.49536"
     inkscape:window-width="1440"
     inkscape:window-height="900"
     inkscape:window-x="0"
     inkscape:window-y="0"
     inkscape:window-maximized="0"
     inkscape:current-layer="Layer_2" />
  <!-- Generator: Adobe Illustrator 29.4.0, SVG Export Plug-In . SVG Version: 2.1.0 Build 152)  -->
  <defs
     id="defs2">
    <style
       id="style1">
      .st0 {
        fill: #395d64;
      }

      .st1 {
        fill: none;
      }

      .st2 {
        clip-path: url(#clippath-1);
      }

      .st3 {
        clip-path: url(#clippath);
      }
    </style>
    <clipPath
       id="clippath">
      <rect
         class="st1"
         x="141"
         y="439.5"
         width="109.3"
         height="121"
         id="rect1" />
    </clipPath>
    <clipPath
       id="clippath-1">
      <rect
         class="st1"
         x="277.60001"
         y="439.5"
         width="581.40002"
         height="121"
         id="rect2" />
    </clipPath>
  </defs>
  <g
     id="g4"
     transform="matrix(0.4178855,0,0,0.4178855,-58.921856,-183.91141)">
    <g
       class="st3"
       clip-path="url(#clippath)"
       id="g2">
      <path
         class="st0"
         d="m 245.6,469.4 -22.7,-24.3 c -3,-3.2 -7,-5 -11.2,-5 h -32.1 c -4.2,0 -8.3,1.8 -11.2,5 l -22.7,24.3 c -3,3.2 -4.7,7.5 -4.7,12 v 34.4 c 0,4.5 1.7,8.8 4.7,12 l 22.7,24.3 c 3,3.2 7,5 11.2,5 h 32.1 c 4.2,0 8.3,-1.8 11.2,-5 l 22.7,-24.3 c 3,-3.2 4.7,-7.5 4.7,-12 v -34.4 c 0,-4.5 -1.7,-8.8 -4.7,-12 m -75.9,4.8 7.3,-4.8 3,23.5 -5.7,3.3 z m 5.3,25.5 5.5,-2.9 1.6,18.7 -4.6,1.7 -2.4,-17.5 v 0 z m 2.7,20.8 4.5,-1.3 0.8,16.2 -3.8,0.6 -1.4,-15.4 z m 1.7,31.5 v -13 c 0,0 3.7,-0.3 3.7,-0.3 l 0.2,13.3 z m 1.7,-84.4 12,-2.1 0.3,24.6 -9.5,1.5 -2.7,-24 v 0 z m 3.1,27.9 9.2,-0.9 0.2,19.4 -8.2,0.7 -1.3,-19.2 z m 9.5,22.4 0.2,16.7 -7.6,0.5 -0.6,-16.5 8,-0.6 v 0 z m -7.5,34.1 v -13.5 c 0,0 7.7,-0.3 7.7,-0.3 V 552 Z m 11.1,0 v -13.8 c 0,0 7.7,0.3 7.7,0.3 V 552 Z m 7.7,-16.9 -7.6,-0.5 0.2,-16.7 8,0.6 -0.5,16.5 v 0 z m 0.8,-20.3 -8.2,-0.7 0.2,-19.4 9.2,0.9 -1.3,19.2 z m -7.9,-24.7 0.3,-24.6 12,2.1 -2.7,24 z m 14,61.9 H 208 l 0.2,-13.3 3.8,0.3 v 13 c 0,0 0,0 0,0 z m 0.2,-16.1 -3.8,-0.6 0.8,-16.2 4.5,1.3 -1.4,15.4 z m 1.8,-18.7 -4.6,-1.7 1.6,-18.7 5.4,2.9 z m 3.1,-21 -5.7,-3.3 3,-23.5 7.3,4.8 z"
         id="path2" />
    </g>
    <g
       class="st2"
       clip-path="url(#clippath-1)"
       id="g3">
      <path
         class="st0"
         d="m 398.1,440.1 -48.2,46.8 38.4,67.7 h -37.2 l -25.2,-46 -13.9,13.2 -2.8,32.8 h -31.6 l 9.8,-114.5 H 319 l -3.9,45.4 44.9,-45.4 h 38.2 z m 9.5,0 -9.8,114.5 h 31.6 l 3.5,-40.8 h 50.7 l 2.3,-27 h -50.7 l 1.5,-18.1 h 53.9 l 2.4,-28.6 h -85.5 z m 101.7,105 c 8.6,8 20.3,12.1 35.2,12.1 14.9,0 27.8,-4 37.8,-11.9 9.8,-7.9 15.4,-19.5 16.7,-34.6 l 6,-70.6 h -31.6 l -6.1,70.9 c -0.5,6 -2.6,10.6 -6.1,13.8 -3.6,3.2 -8.4,4.8 -14.4,4.8 -6,0 -10.5,-1.6 -13.6,-4.8 -3,-3.2 -4.3,-7.8 -3.8,-13.8 l 6.1,-70.9 h -31.6 l -6,70.6 c -1.3,14.9 2.5,26.4 11.3,34.4 m 287.1,-61.5 c -3.7,11.2 -6.3,19.3 -7.8,24.6 -0.6,-5.3 -1.8,-13.5 -3.6,-24.6 l -7,-43.4 h -48.3 l -9.8,114.5 h 30 l 2.8,-32.5 c 1.8,-21 3,-38.9 3.6,-53.5 1.5,9.4 3,17.9 4.4,25.4 l 11.1,60.6 h 25.5 l 21.4,-60.6 c 2.8,-7.5 5.7,-16 8.8,-25.4 -1.9,14.7 -3.7,32.5 -5.5,53.5 l -2.8,32.5 h 30 l 9.8,-114.5 h -48.3 l -14.4,43.4 z M 704.5,450 c 7,6.6 10,15.6 9,27 -1.1,11.4 -5.7,20.4 -13.9,27 -8.2,6.6 -19.1,9.9 -32.5,9.9 h -20.6 l -3.5,40.8 h -31.6 l 9.8,-114.5 h 52.7 c 13.5,0 23.7,3.3 30.7,9.9 M 682,477 c 0.4,-3.9 -0.6,-6.8 -2.9,-8.8 -2.3,-2 -5.6,-3.1 -10,-3.1 h -18.6 l -2,23.8 h 18.4 c 4.4,0 7.9,-1 10.6,-3.1 2.7,-2 4.2,-5 4.5,-8.8"
         id="path3" />
    </g>
  </g>
</svg>
