<svg width="2048" height="2396" xmlns="http://www.w3.org/2000/svg" xmlns:xlink="http://www.w3.org/1999/xlink" xml:space="preserve" overflow="hidden"><g transform="translate(-1177 -40)"><path d="M3216.8 44.2959C3222.19 384.101 3221.87 723.959 3216.8 1063.75 3211.92 1391.14 3195.62 1646.62 3049.16 1846.38 2872.73 2087.02 2578.8 2260.68 2200.72 2431.3 1822.64 2260.68 1528.71 2087.02 1352.29 1846.38 1205.83 1646.62 1189.52 1391.14 1184.64 1063.75 1179.58 723.959 1179.26 384.106 1184.64 44.2959L3216.8 44.2959Z" stroke="#162E52" stroke-width="6.875" stroke-miterlimit="8" fill="#1353B4" fill-rule="evenodd"/><path d="M1185.42 44.4998 3216.58 44.4998C3221.96 384.363 3221.65 724.279 3216.58 1064.13 3215.97 1105.06 3215.18 1144.87 3213.99 1183.58L3213.7 1189.88 3193.45 1187.96C3132.3 1176.62 3080.25 1131.3 3016.07 1131.3 2942.71 1131.3 2885.21 1190.5 2811.85 1190.5 2738.5 1190.5 2680.83 1131.3 2607.48 1131.3 2534.12 1131.3 2476.62 1190.5 2403.26 1190.5 2329.91 1190.5 2272.41 1131.3 2199.05 1131.3 2125.7 1131.3 2068.2 1190.5 1994.84 1190.5 1921.48 1190.5 1863.98 1131.3 1790.63 1131.3 1717.27 1131.3 1659.77 1190.5 1586.42 1190.5 1513.06 1190.5 1455.4 1131.3 1382.04 1131.3 1327.02 1131.3 1280.92 1164.61 1230.37 1181.24L1188.24 1188.67 1188.01 1183.58C1186.82 1144.87 1186.03 1105.06 1185.42 1064.13 1180.35 724.279 1180.04 384.368 1185.42 44.4998Z" stroke="#8B7109" stroke-width="6.875" stroke-miterlimit="8" fill="#FEE46E" fill-rule="evenodd"/><path d="M2940.96 1142.79 2945.56 1147.21 2943.3 1148.14ZM2518.78 1142.79C2521.34 1146.1 2523.91 1148.5 2526.49 1150.18L2528.18 1150.83 2523.2 1152.88ZM2096.96 1142.79C2102.08 1149.41 2107.22 1152.41 2112.36 1153.17L2115.74 1152.5 2104.32 1157.18 2101.87 1154.01C2100.12 1151.01 2098.47 1147.32 2096.96 1142.79ZM2300.37 1142.38C2298.86 1146.91 2297.2 1150.61 2295.45 1153.62L2292.74 1157.16 2278.49 1151.31 2284.97 1152.59C2290.1 1151.85 2295.25 1148.9 2300.37 1142.38ZM1878.55 1142.38 1874.04 1152.92 1868.36 1150.59 1870.84 1149.65C1873.42 1148.01 1875.99 1145.64 1878.55 1142.38ZM1456.73 1142.38 1454.16 1148.26 1451.62 1147.21ZM2253.12 1140.9 2254.58 1141.41 2255.23 1141.76ZM2157.32 1136.69 2158.06 1136.93 2152.75 1138.31ZM1735.5 1136.69 1742.16 1138.89 1737.64 1140.07C1720.79 1145.61 1704.43 1153.01 1688.08 1160.41L1685.93 1161.29 1685.51 1161.09C1681.77 1157.55 1678.16 1151.85 1675.14 1142.79 1695.63 1169.25 1716.48 1137.91 1735.5 1136.69ZM1313.68 1136.69C1317.34 1136.48 1321 1137.5 1324.57 1140.3L1326.02 1141.84 1304.12 1149.55 1270.47 1164.5 1263.34 1161.09C1259.58 1157.55 1255.97 1151.85 1252.95 1142.79 1273.44 1169.25 1294.66 1137.91 1313.68 1136.69ZM3081.08 1136.28C3081.81 1136.28 3082.91 1136.28 3083.27 1136.28 3102.3 1137.5 3123.52 1168.43 3144 1142.38 3141.08 1151.44 3137.51 1157.16 3133.78 1160.74L3126.6 1164.25 3105.32 1154.89 3070.99 1141.66 3071.48 1140.96C3074.59 1138.11 3077.79 1136.69 3081.08 1136.28ZM2658.89 1136.28C2659.99 1136.28 2660.72 1136.28 2661.82 1136.28 2680.85 1137.5 2701.7 1168.43 2722.19 1142.38 2719.17 1151.44 2715.55 1157.16 2711.81 1160.74L2710.95 1161.16 2709.13 1160.41C2692.75 1153.01 2676.37 1145.61 2659.51 1140.07L2654.04 1138.64ZM2237.08 1136.28C2238.17 1136.28 2238.91 1136.28 2240 1136.28L2249.8 1139.73 2236.9 1136.37ZM3037.91 1044.29C3067.18 1065.05 3047.42 1084.59 3051.81 1087.44 3068.82 1104.12 3067.63 1119.29 3060.13 1128.7L3049.81 1135.3 3039.04 1132.79 3027.84 1131.85 3020.82 1122.63C3008.22 1094.6 3060.32 1078.48 3037.91 1044.29ZM2616.09 1044.29C2644.99 1065.05 2625.24 1084.59 2629.99 1087.44 2647 1104.12 2645.82 1119.29 2638.32 1128.7L2631.38 1133.14 2606.95 1130.82 2605.35 1130.97 2599 1122.63C2586.4 1094.6 2638.5 1078.48 2616.09 1044.29ZM2193.91 1044.29C2223.17 1065.05 2203.42 1084.59 2207.81 1087.44 2224.82 1104.12 2223.63 1119.29 2216.13 1128.7L2210.98 1132 2198.56 1130.82 2184.1 1132.19 2176.82 1122.63C2164.22 1094.6 2216.31 1078.48 2193.91 1044.29ZM1772.09 1044.29C1801.35 1065.05 1781.6 1084.59 1785.99 1087.44 1803 1104.12 1801.81 1119.29 1794.31 1128.7L1790.89 1130.89 1790.18 1130.82C1781.01 1130.82 1772.09 1131.74 1763.35 1133.36L1763.2 1133.4 1755 1122.63C1742.4 1094.6 1794.5 1078.48 1772.09 1044.29ZM1350.27 1044.29C1379.54 1065.05 1359.78 1084.59 1364.17 1087.44 1381.18 1104.12 1379.99 1119.29 1372.49 1128.7L1365.78 1133 1344.15 1135.96 1342.95 1135.46C1304.17 1098.83 1375.88 1083.37 1350.27 1044.29ZM1184.05 937.501 1208.32 998.705 1184.33 973.274ZM3216.99 933.825 3216.73 968.504 3206.88 980.593C3198.7 990.259 3192.84 996.263 3190.1 997.484 3194.67 986.698 3199.34 976.115 3204.05 965.177ZM1183.65 885.093 1193 907.532C1203.29 927.375 1214.54 945.181 1226.25 961.259 1218.57 958.206 1210.79 953.017 1203.15 947.217L1184.01 931.997ZM3217.42 878.976 3217.01 931.685 3195.18 948.183C3187.54 953.526 3180.04 958.003 3172.91 960.445 3184.06 945.181 3195.31 926.967 3205.83 906.464ZM2833.04 760.886C2835.23 774.725 2838.34 788.666 2841.77 801.995L2852.23 838.745 2852.43 838.745C2868.16 887.181 2890.11 928.697 2913.52 960.852 2898.52 954.747 2882.79 940.094 2868.52 929.104L2895.96 998.298C2876.21 981.203 2862.3 960.852 2847.67 940.908 2842.91 986.087 2838.52 1006.03 2832.31 1035.74 2824.62 1006.03 2819.5 985.273 2815.84 941.722 2791.7 973.47 2773.77 995.042 2768.28 997.484 2777.79 975.912 2786.94 955.154 2796.45 930.732 2781.09 942.536 2765.36 955.561 2751.09 960.445 2762.25 945.181 2773.5 926.967 2784.01 906.464L2812.26 839.441 2812.18 839.441C2819.5 816.649 2827.91 788.564 2833.04 760.886ZM2411.22 760.886C2413.41 774.725 2416.16 788.666 2419.22 801.995L2428.97 838.768 2429.51 838.745C2445.24 887.181 2468.66 928.697 2492.07 960.852 2476.7 954.747 2460.97 940.094 2446.7 929.104L2474.14 998.298C2454.39 981.203 2440.49 960.852 2425.85 940.908 2421.1 986.087 2416.71 1006.03 2410.49 1035.74 2402.8 1006.03 2397.68 985.273 2394.02 941.722 2369.88 973.47 2351.95 995.042 2346.46 997.484 2355.98 975.912 2365.12 955.154 2374.63 930.732 2359.27 942.536 2343.54 955.561 2329.27 960.445 2340.24 945.181 2351.22 927.375 2361.51 907.278L2389.51 840.663 2389.27 840.663C2396.58 817.462 2406.1 788.564 2411.22 760.886ZM1989.4 760.886C1993.79 788.564 2000.74 816.649 2007.69 839.441L2007.05 839.441 2035.18 905.294C2046.2 926.051 2058.18 944.774 2069.89 960.852 2054.89 954.747 2039.15 940.094 2024.89 929.104L2052.32 998.298C2032.57 981.203 2018.67 960.852 2004.03 940.908 1999.28 986.087 1994.89 1006.03 1988.67 1035.74 1980.98 1006.03 1975.86 985.273 1972.2 941.722 1948.06 973.47 1930.13 995.042 1924.64 997.484 1933.79 975.912 1943.3 955.154 1952.81 930.732 1937.45 942.536 1921.72 955.561 1907.45 960.445 1918.43 944.978 1929.77 926.56 1940.42 905.904L1968.64 839.441 1968.55 839.441C1975.86 816.649 1984.28 788.564 1989.4 760.886ZM1567.58 760.886C1571.6 788.564 1580.02 817.056 1586.97 840.256L1586.89 840.257 1614.45 906.515C1624.93 926.865 1636.36 945.181 1648.07 961.259 1633.07 955.154 1617.34 940.501 1603.07 929.511L1630.51 998.705C1610.75 981.61 1596.85 961.259 1582.21 941.315 1577.46 986.495 1573.07 1006.44 1566.85 1036.15 1559.17 1006.44 1554.04 985.681 1550.39 942.129 1526.24 973.877 1508.31 995.449 1502.83 997.891 1512.34 976.319 1521.48 955.561 1531 931.14 1515.63 942.943 1499.9 955.968 1485.63 960.852 1507.58 929.918 1529.9 888.809 1546.36 839.966L1546.57 839.964 1546.73 839.441C1554.04 816.649 1562.82 788.157 1567.58 760.886ZM3212.05 735.65 3218.5 737.786 3218.13 785.349 3213.04 787.105C3204.54 787.985 3194.9 782.662 3186.81 766.178 3185.34 760.479 3163.76 777.982 3151.69 741.756 3172.17 767.806 3193.03 736.872 3212.05 735.65ZM2790.23 735.65C2797.92 735.244 2804.87 739.721 2811.82 753.967 2819.13 774.725 2786.57 810.136 2764.99 766.178 2763.16 760.479 2741.58 777.982 2729.5 741.756 2749.99 767.806 2771.21 736.872 2790.23 735.65ZM2368.41 735.65C2375.73 735.244 2383.05 739.721 2390 753.967 2397.32 774.725 2365.12 810.136 2343.54 766.178 2341.71 760.479 2320.12 777.982 2308.05 741.756 2328.54 767.806 2349.39 736.872 2368.41 735.65ZM1946.6 735.65C1953.91 735.244 1961.23 739.721 1968.18 753.967 1975.5 774.725 1942.94 810.136 1921.35 766.178 1919.89 760.479 1898.3 777.982 1886.23 741.756 1906.72 767.806 1927.57 736.872 1946.6 735.65ZM1524.41 735.65C1532.09 735.244 1539.41 739.721 1546 753.967 1553.31 774.725 1520.75 810.136 1499.17 766.178 1497.34 760.479 1475.75 777.982 1463.68 741.756 1484.17 767.806 1505.39 736.872 1524.41 735.65ZM2872.55 735.244C2891.57 736.465 2912.79 767.398 2933.28 741.349 2921.57 777.574 2899.62 760.479 2898.16 765.771 2876.21 810.136 2844.01 774.318 2851.33 753.56 2857.18 741.349 2863.4 736.465 2869.99 735.65 2871.08 735.244 2871.82 735.244 2872.55 735.244ZM2451.09 735.244C2470.12 736.465 2490.97 767.398 2511.46 741.349 2499.39 777.574 2477.8 760.479 2476.34 765.771 2454.39 810.136 2422.19 774.318 2429.51 753.56 2435.36 741.349 2441.58 736.465 2448.17 735.65 2448.9 735.244 2450 735.244 2451.09 735.244ZM2028.91 735.244C2047.93 736.465 2068.79 767.398 2089.27 741.349 2077.2 777.574 2055.62 760.479 2054.15 765.771 2032.2 810.136 2000.01 774.318 2007.33 753.56 2013.18 741.349 2019.4 736.465 2025.98 735.65 2027.08 735.244 2028.18 735.244 2028.91 735.244ZM1606.73 735.244C1625.75 736.465 1646.97 767.398 1667.46 741.349 1655.75 777.574 1633.8 760.479 1632.33 765.771 1610.38 810.136 1578.19 774.318 1585.51 753.56 1591.36 741.349 1597.58 736.465 1604.17 735.65 1605.26 735.244 1605.99 735.244 1606.73 735.244ZM1185.27 735.244C1204.3 736.465 1225.15 767.398 1245.64 741.349 1233.56 777.574 1211.98 760.479 1210.52 765.771 1202.28 782.408 1192.61 787.769 1184.12 786.877L1182.89 786.446 1182.5 735.629ZM2826.82 643.256C2856.08 664.015 2836.33 683.552 2840.72 686.401 2874.74 719.777 2835.96 747.047 2819.5 734.43 2780.72 697.798 2852.43 682.331 2826.82 643.256ZM2405 643.256C2434.27 664.015 2414.51 683.552 2418.9 686.401 2452.92 719.777 2414.14 747.047 2397.68 734.43 2358.9 697.798 2430.61 682.331 2405 643.256ZM1983.18 643.256C2012.45 664.015 1992.33 683.552 1997.08 686.401 2031.11 719.777 1992.33 747.047 1975.86 734.43 1937.08 697.798 2008.79 682.331 1983.18 643.256ZM1561.36 643.256C1590.26 664.015 1570.51 683.552 1575.26 686.401 1609.29 719.777 1570.51 747.047 1554.04 734.43 1515.26 697.798 1586.97 682.331 1561.36 643.256ZM3044.13 354.271C3058.76 447.072 3088.76 510.974 3124.61 560.63 3109.61 554.526 3093.88 539.873 3079.62 528.883L3107.05 598.077C3087.3 580.982 3073.4 560.63 3058.76 540.687 3054.01 585.46 3049.62 605.404 3043.4 635.116 3035.71 605.404 3030.59 584.645 3026.93 541.094 3002.79 572.842 2984.86 594.414 2979.37 596.856 2988.89 575.284 2998.03 554.526 3007.54 530.105 2992.18 541.908 2976.45 554.933 2962.18 559.817 2996.2 512.603 3027.3 447.072 3044.13 354.271ZM2622.31 354.271C2636.58 447.072 2666.94 510.974 2702.8 560.63 2687.8 554.526 2672.06 539.873 2657.8 528.883L2685.23 598.077C2665.48 580.982 2651.58 560.63 2636.94 540.687 2632.19 585.46 2627.8 605.404 2621.58 635.116 2613.9 605.404 2608.77 584.645 2605.12 541.094 2580.97 572.842 2563.04 594.414 2557.56 596.856 2567.07 575.284 2576.21 554.526 2585.73 530.105 2570.36 541.908 2554.63 554.933 2540.36 559.817 2574.38 512.603 2605.48 447.072 2622.31 354.271ZM2200.12 354.271C2214.76 447.072 2245.12 510.974 2280.98 560.63 2265.61 554.526 2249.88 539.873 2235.61 528.883L2263.05 598.077C2243.29 580.982 2229.39 560.63 2214.76 540.687 2210 585.46 2205.61 605.404 2199.39 635.116 2191.71 605.404 2186.59 584.645 2182.93 541.094 2158.79 572.842 2140.86 594.414 2135.37 596.856 2144.52 575.284 2154.03 554.526 2163.54 530.105 2148.18 541.908 2132.44 554.933 2118.18 559.817 2152.2 512.603 2183.3 447.072 2200.12 354.271ZM1778.31 354.271C1792.94 447.072 1823.31 510.974 1858.79 560.63 1843.79 554.526 1828.06 539.873 1813.79 528.883L1841.23 598.077C1821.48 580.982 1807.57 560.63 1792.94 540.687 1788.18 585.46 1783.79 605.404 1777.58 635.116 1769.89 605.404 1764.77 584.645 1761.11 541.094 1736.97 572.842 1719.04 594.414 1713.55 596.856 1723.06 575.284 1732.21 554.526 1741.72 530.105 1726.36 541.908 1710.63 554.933 1696.36 559.817 1730.38 512.603 1761.48 447.072 1778.31 354.271ZM1356.49 354.271C1371.12 447.072 1401.12 510.974 1436.97 560.63 1421.97 554.526 1406.24 539.873 1391.97 528.883L1419.41 598.077C1399.66 580.982 1385.76 560.63 1371.12 540.687 1366.37 585.46 1361.98 605.404 1355.76 635.116 1348.07 605.404 1342.95 584.645 1339.29 541.094 1315.15 572.842 1297.22 594.414 1291.73 596.856 1301.25 575.284 1310.39 554.526 1319.9 530.105 1304.54 541.908 1288.81 554.933 1274.54 559.817 1308.56 512.603 1339.66 447.072 1356.49 354.271ZM3001.33 329.035C3008.64 328.628 3015.96 333.106 3022.91 346.944 3030.23 367.702 2997.67 403.52 2976.08 359.562 2974.62 353.863 2953.03 371.365 2940.96 335.14 2961.45 361.597 2982.3 330.256 3001.33 329.035ZM2579.51 329.035C2586.82 328.628 2593.77 333.106 2600.73 346.944 2608.04 367.702 2575.85 403.52 2554.26 359.562 2552.43 353.863 2530.85 371.365 2518.78 335.14 2539.26 361.597 2560.48 330.256 2579.51 329.035ZM2157.32 329.035C2165 328.628 2171.96 333.106 2178.91 346.944 2186.22 367.702 2154.03 403.52 2132.44 359.562 2130.61 353.863 2109.03 371.365 2096.96 335.14 2117.44 361.597 2138.3 330.256 2157.32 329.035ZM1735.5 329.035C1742.82 328.628 1750.14 333.106 1757.09 346.944 1764.4 367.702 1731.84 403.52 1710.26 359.562 1708.8 353.863 1687.21 371.365 1675.14 335.14 1695.63 361.597 1716.48 330.256 1735.5 329.035ZM1313.68 329.035C1321 328.628 1328.32 333.106 1334.9 346.944 1342.22 367.702 1310.03 403.52 1288.44 359.562 1286.61 353.863 1265.03 371.365 1252.95 335.14 1273.44 361.597 1294.66 330.256 1313.68 329.035ZM3081.08 328.628C3081.81 328.628 3082.91 328.628 3083.27 328.628 3102.3 329.849 3123.52 360.783 3144 334.733 3132.3 370.958 3110.35 353.863 3108.88 359.154 3087.3 403.113 3055.1 367.295 3062.42 346.537 3068.27 334.327 3074.49 329.442 3081.08 328.628ZM2658.89 328.628C2659.99 328.628 2660.72 328.628 2661.82 328.628 2680.85 329.849 2701.7 360.783 2722.19 334.733 2710.11 370.958 2688.53 353.863 2687.06 359.154 2665.11 403.113 2632.92 367.295 2640.24 346.537 2646.09 334.327 2652.31 329.442 2658.89 328.628ZM2237.08 328.628C2238.17 328.628 2238.91 328.628 2240 328.628 2259.03 329.849 2279.88 360.783 2300.37 334.733 2288.29 370.958 2266.71 353.863 2265.25 359.154 2243.29 403.113 2211.1 367.295 2218.42 346.537 2224.27 334.327 2230.49 329.442 2237.08 328.628ZM1815.26 328.628C1815.99 328.628 1817.09 328.628 1817.82 328.628 1836.84 329.849 1858.06 360.783 1878.55 334.733 1866.84 370.958 1844.89 353.863 1843.43 359.154 1821.48 403.113 1789.28 367.295 1796.6 346.537 1802.45 334.327 1808.67 329.442 1815.26 328.628ZM1393.44 328.628C1394.17 328.628 1395.27 328.628 1396.37 328.628 1415.39 329.849 1436.24 360.783 1456.73 334.733 1444.66 370.958 1423.07 353.863 1421.61 359.154 1399.66 403.113 1367.46 367.295 1374.78 346.537 1380.63 334.327 1386.85 329.442 1393.44 328.628ZM3037.91 236.641C3067.18 257.399 3047.42 276.936 3051.81 279.785 3085.83 313.161 3047.06 340.432 3030.59 327.814 2991.81 291.182 3063.52 275.715 3037.91 236.641ZM2616.09 236.641C2644.99 257.399 2625.24 276.936 2629.99 279.785 2664.02 313.161 2625.24 340.432 2608.77 327.814 2569.99 291.182 2641.7 275.715 2616.09 236.641ZM2193.91 236.641C2223.17 257.399 2203.42 276.936 2207.81 279.785 2241.83 313.161 2203.05 340.432 2186.59 327.814 2147.81 291.182 2219.52 275.715 2193.91 236.641ZM1772.09 236.641C1801.35 257.399 1781.6 276.936 1785.99 279.785 1820.01 313.161 1781.23 340.432 1764.77 327.814 1725.99 291.182 1797.7 275.715 1772.09 236.641ZM1350.27 236.641C1379.54 257.399 1359.78 276.936 1364.17 279.785 1398.19 313.161 1359.41 340.432 1342.95 327.814 1304.17 291.182 1375.88 275.715 1350.27 236.641ZM1184.36 130.627 1208.32 191.055 1184.09 165.375ZM3216.64 127.925 3216.89 161.101 3207.25 172.942C3199.06 182.608 3193.21 188.612 3190.47 189.833 3195.04 179.047 3199.7 168.465 3204.41 157.526ZM1184.75 79.368 1193.37 100.136C1203.47 119.826 1214.54 137.531 1226.25 153.609 1218.57 150.556 1210.79 145.366 1203.15 139.566L1184.41 124.66ZM3216.23 74.5415 3216.61 124.612 3195.54 140.533C3187.91 145.875 3180.41 150.352 3173.27 152.794 3184.43 137.531 3195.22 120.232 3205.28 100.645ZM2806.64 44.4998 2857.73 44.4998 2880.64 99.7286C2890.75 119.418 2901.82 137.124 2913.52 153.201 2898.52 147.096 2882.79 132.443 2868.52 121.454L2895.96 190.648C2876.21 173.552 2862.3 153.201 2847.67 133.257 2842.91 178.437 2838.52 198.381 2832.31 228.093 2824.62 198.381 2819.5 177.622 2815.84 134.071 2791.7 165.819 2773.77 187.391 2768.28 189.833 2777.79 168.261 2786.94 147.503 2796.45 123.081 2781.09 134.885 2765.36 147.91 2751.09 152.794 2762.25 137.531 2773.04 120.232 2783.1 100.645ZM2384.82 44.4998 2436.28 44.4998 2459.19 99.7286C2469.3 119.418 2480.36 137.124 2492.07 153.201 2476.7 147.096 2460.97 132.443 2446.7 121.454L2474.14 190.648C2454.39 173.552 2440.49 153.201 2425.85 133.257 2421.1 178.437 2416.71 198.381 2410.49 228.093 2402.8 198.381 2397.68 177.622 2394.02 134.071 2369.88 165.819 2351.95 187.391 2346.46 189.833 2355.98 168.261 2365.12 147.503 2374.63 123.081 2359.27 134.885 2343.54 147.91 2329.27 152.794 2340.43 137.531 2351.22 120.232 2361.28 100.645ZM1963 44.4998 2014.1 44.4998 2037 99.7286C2047.11 119.418 2058.18 137.124 2069.89 153.201 2054.89 147.096 2039.15 132.443 2024.89 121.454L2052.32 190.648C2032.57 173.552 2018.67 153.201 2004.03 133.257 1999.28 178.437 1994.89 198.381 1988.67 228.093 1980.98 198.381 1975.86 177.622 1972.2 134.071 1948.06 165.819 1930.13 187.391 1924.64 189.833 1933.79 168.261 1943.3 147.503 1952.81 123.081 1937.45 134.885 1921.72 147.91 1907.45 152.794 1918.61 137.531 1929.4 120.232 1939.46 100.645ZM1541.18 44.4998 1592.28 44.4998 1615.19 99.7286C1625.29 119.418 1636.36 137.124 1648.07 153.201 1633.07 147.096 1617.34 132.443 1603.07 121.454L1630.51 190.648C1610.75 173.552 1596.85 153.201 1582.21 133.257 1577.46 178.437 1573.07 198.381 1566.85 228.093 1559.17 198.381 1554.04 177.622 1550.39 134.071 1526.24 165.819 1508.31 187.391 1502.83 189.833 1512.34 168.261 1521.48 147.503 1531 123.081 1515.63 134.885 1499.9 147.91 1485.63 152.794 1496.79 137.531 1507.58 120.232 1517.64 100.645Z" stroke="#000000" stroke-width="4.58333" stroke-miterlimit="8" fill="#2D2D2D" fill-rule="evenodd"/><path d="M2792.87 227.815C2809.92 225.308 2825.82 247.996 2823.75 260.064L2823.75 951.189 2373.61 951.189C2334.48 951.201 2334.27 955.599 2303.05 931.24 2298.26 973.895 2247.33 989.624 2200.93 989.624 2154.52 989.624 2103.6 973.895 2098.81 931.24 2067.47 955.555 2051.14 949.89 2028.25 951.189L1578.11 951.189 1578.11 260.064C1576.04 247.996 1591.93 225.308 1608.98 227.815Z" stroke="#000000" stroke-width="5.15643" stroke-miterlimit="8" fill="#212121" fill-rule="evenodd"/><path d="M2791.93 226.622 2791.93 917.926 2365.5 917.926C2327.06 910.786 2301.84 908.455 2272.28 884.181 2314.57 975.735 2089.17 980.443 2129.58 884.181 2100.02 908.455 2074.79 910.786 2036.36 917.926L1609.93 917.926 1609.93 226.622 2200.93 226.622Z" stroke="#000000" stroke-width="5.15643" stroke-miterlimit="8" fill="#666666" fill-rule="evenodd"/><path d="M410.512 21.255C319.357 20.3864 288.282 58.9186 194.243 67.8941 161.289 71.0394 126.928 23.6354 111.622 5.8014 108 1.57401 97.2051 0.118929 97.2051 0.118929 63.8483 11.0478 49.1238 16.8312 0.430713 44.6597L0.430713 689.009C0.430713 689.009 131.026 699.119 171.787 695.23 265.826 686.259 319.357 647.719 410.512 648.587 452.371 648.995 470.496 657.045 491.115 664.919 511.469 620.357 549.092 603.052 549.43 602.425 549.779 603.052 587.403 620.357 607.758 664.919 628.375 657.045 646.501 648.995 688.361 648.587 779.515 647.719 833.047 686.259 927.086 695.23 967.846 699.119 1098.43 689.009 1098.43 689.009L1098.43 44.6597C1049.75 16.8303 1035.02 11.0478 1001.67 0.118929 1001.67 0.118929 990.873 1.57401 987.239 5.8014 971.945 23.6354 937.574 71.0394 904.618 67.8941 810.59 58.9186 779.505 20.3864 688.361 21.255 568.443 22.3983 549.43 71.0034 549.43 71.0034 549.43 71.0034 530.429 22.3983 410.512 21.255Z" stroke="#9B9788" stroke-width="5.15643" stroke-miterlimit="8" fill="#F8F2E4" fill-rule="evenodd" transform="matrix(-1 1.22465e-16 1.22465e-16 1 2749.5 181.5)"/><path d="M1650.93 871.625C1672.63 829.798 1749.75 765.987 1775.42 754.624M2750.93 871.625C2729.23 829.798 2652.11 765.987 2626.43 754.624" stroke="#ACA793" stroke-width="5.15643" stroke-miterlimit="8" fill="none" fill-rule="evenodd"/><path d="M2063.03 723.952C1972.02 723.086 1940.98 761.555 1847.08 770.523 1806.37 774.408 1754.93 764.308 1754.93 764.308L1754.93 182.561C1754.93 182.561 1806.37 191.087 1847.08 187.203 1940.98 178.24 1972.02 139.766 2063.03 140.634 2182.77 141.776 2200.94 190.307 2200.94 190.307 2200.94 190.307 2219.1 141.776 2338.83 140.634 2429.85 139.766 2460.89 178.24 2554.78 187.203 2595.49 191.087 2646.93 182.561 2646.93 182.561L2646.93 764.308C2646.93 764.308 2595.49 774.397 2554.78 770.512 2460.89 761.555 2429.85 723.075 2338.83 723.952 2219.1 725.084 2200.94 773.62 2200.94 773.62 2200.94 773.62 2182.77 725.084 2063.03 723.952Z" stroke="#9B9788" stroke-width="5.15643" stroke-miterlimit="8" fill="#FBF8F0" fill-rule="evenodd"/><path d="M2200.95 768.621 2200.95 193.62" stroke="#9B9788" stroke-width="5.15643" stroke-miterlimit="8" fill="none" fill-rule="evenodd"/><path d="M1750.81 2086.22C1883.67 2139.37 2045.98 2172.28 2208.31 2172.48 2370.63 2172.67 2532.95 2140.16 2665.81 2087 2533.37 2011.73 2371.26 1979.8 2208.94 1979.48 2046.6 1979.13 1884.07 2010.47 1750.81 2086.22Z" stroke="#816601" stroke-width="3.38156" stroke-miterlimit="8" fill="#D1B948" fill-rule="evenodd"/><path d="M1864.81 2089.81C1965 2114.87 2087.4 2130.39 2209.81 2130.48 2332.21 2130.57 2454.62 2115.24 2554.81 2090.18 2454.94 2054.69 2332.69 2039.63 2210.29 2039.48 2087.87 2039.31 1965.31 2054.09 1864.81 2089.81Z" stroke="#816601" stroke-width="3.38156" stroke-miterlimit="8" fill="#B2992C" fill-rule="evenodd"/><path d="M2288.28 1270.65C2288.28 1315.11 2252.02 1351.15 2207.29 1351.15 2162.55 1351.15 2126.28 1315.11 2126.28 1270.65 2126.28 1226.19 2162.55 1190.14 2207.29 1190.14 2252.02 1190.14 2288.28 1226.19 2288.28 1270.65Z" stroke="#816701" stroke-width="3.1856" stroke-miterlimit="8" fill="#D1B948" fill-rule="evenodd"/><path d="M2270.79 1270.16C2270.79 1305.78 2241.92 1334.66 2206.28 1334.66 2170.67 1334.66 2141.79 1305.78 2141.79 1270.16 2141.79 1234.53 2170.67 1205.65 2206.28 1205.65 2241.92 1205.65 2270.79 1234.53 2270.79 1270.16Z" fill="#F6E078" fill-rule="evenodd"/><path d="M2249.1 1237.65C2251.73 1241.91 2253.83 1246.61 2255.19 1251.7 2262.75 1279.86 2246.01 1308.81 2217.79 1316.36 2206.42 1319.4 2194.94 1318.48 2184.79 1314.49 2196.38 1321.98 2210.92 1324.78 2225.31 1320.93 2252.28 1313.71 2268.28 1286.04 2261.05 1259.12 2258.83 1250.8 2254.63 1243.52 2249.1 1237.65Z" fill="#D1B948" fill-rule="evenodd"/><path d="M2203.87 1265.73C2189.72 1279.88 2170.85 1283.93 2161.71 1274.78 2152.55 1265.64 2156.6 1246.76 2170.75 1232.62 2184.9 1218.47 2203.78 1214.42 2212.92 1223.56 2222.06 1232.71 2218.02 1251.59 2203.87 1265.73Z" fill="#F8EC9C" fill-rule="evenodd"/><path d="M1749.81 2055.59C1749.81 2055.59 1742.2 2009.9 1749.4 1854.95 1868.27 1782.88 2066.38 1767.58 2206.25 1767.58 2346.27 1767.58 2545.4 1782.88 2665.38 1854.95 2672.58 2009.9 2664.24 2055.59 2664.24 2055.59 2342.38 1962.18 2362.26 1966.85 2207.02 1966.85 2051.78 1966.85 2071.67 1962.18 1749.81 2055.59Z" stroke="#816701" stroke-width="3.18235" stroke-miterlimit="8" fill="#F6E078" fill-rule="evenodd"/><path d="M2203.5 1807.06C2531.74 1807.06 2667.95 1899.79 2667.95 1899.79 2671.44 2054.18 2663.12 2055.06 2663.12 2055.06 2341.28 1961.48 2361.17 1966.16 2205.94 1966.16 2050.72 1966.16 2070.6 1961.48 1748.77 2055.06 1748.77 2055.06 1741.17 2054.18 1741.85 1899.79 1741.85 1899.79 1875.25 1807.06 2203.5 1807.06Z" fill="#D1B948" fill-rule="evenodd"/><path d="M2202.21 1807.08C2051.31 1807.08 1936.41 1833.15 1852.98 1851.08L1841.8 2014.63C2045.34 1963.77 2059.14 1966.07 2205.01 1966.07 2353.3 1966.07 2364.66 1963.53 2578.22 2017.08L2587.8 1859.32C2501.87 1838.03 2375.56 1807.08 2202.21 1807.08Z" fill="#EBD25D" fill-rule="evenodd"/><path d="M2204.6 1807.09C2082.28 1807.09 2005.82 1815 1943.19 1831.61L1934.8 1997.81C2087.59 1950.69 2088.62 1966.2 2206.87 1966.2 2327.07 1966.2 2327.29 1950.47 2487.6 2000.09L2494.8 1839.24C2430.3 1819.51 2345.13 1807.09 2204.6 1807.09Z" fill="#F6E078" fill-rule="evenodd"/><path d="M2205.19 1807.82C2149.37 1807.82 2099.23 1810.56 2054.39 1814.99L2054.39 1973.82C2101.9 1965.84 2137.1 1966.47 2207.63 1966.47 2257.23 1966.47 2289.24 1966.2 2320.39 1968.74L2317.25 1811.66C2282.68 1809.22 2245.46 1807.82 2205.19 1807.82Z" fill="#F8EC9C" fill-rule="evenodd"/><path d="M1736.31 1901.63C1736.31 1901.63 1876.18 1807.63 2204.3 1807.63 2532.43 1807.63 2672.31 1901.63 2672.31 1901.63" stroke="#816701" stroke-width="3.18235" stroke-miterlimit="8" fill="none" fill-rule="evenodd"/><path d="M2124.24 1326.36C2107.39 1326.36 2090.69 1333.32 2078.77 1345.23 2066.85 1357.15 2059.89 1373.83 2059.89 1390.68 2059.89 1407.53 2066.85 1424.38 2078.77 1436.29 2090.69 1448.21 2107.38 1455.17 2124.24 1455.17 2132.68 1455.15 2141.11 1453.35 2148.9 1450.1L2148.9 1463.73C2148.9 1481.82 2171.81 1500.61 2171.81 1500.61 2171.81 1500.61 2170.7 1660.81 2092.76 1768.72L2208.89 1958.36 2325.71 1768.72C2248.45 1660.81 2246.49 1500.61 2246.49 1500.61 2246.49 1500.61 2269.05 1481.82 2269.05 1463.73L2269.05 1450.28C2276.76 1453.45 2285.18 1455.16 2293.53 1455.17 2310.39 1455.17 2327.08 1448.21 2339 1436.29 2350.92 1424.38 2357.89 1407.53 2357.89 1390.68 2357.89 1373.83 2350.92 1357.15 2339 1345.23 2327.08 1333.32 2310.39 1326.36 2293.53 1326.36 2276.67 1326.36 2259.81 1333.32 2247.89 1345.23 2235.97 1357.15 2229.17 1373.83 2229.17 1390.68L2188.6 1390.68C2188.6 1373.83 2181.63 1357.15 2169.71 1345.23 2157.79 1333.32 2141.1 1326.36 2124.24 1326.36Z" stroke="#816701" stroke-width="3.18235" stroke-miterlimit="8" fill="#D1B948" fill-rule="evenodd"/><path d="M2120.36 1340.38C2096.82 1339.21 2076.68 1358.59 2073.07 1381.16 2068.2 1401.47 2077.62 1424.17 2096.54 1433.84 2117.21 1446.03 2142.95 1439.1 2161.97 1426.84 2154.66 1449.84 2159.73 1478.47 2181.46 1491.9 2186.87 1497.1 2181.71 1507.49 2182.81 1514.71 2177.47 1603.54 2156.44 1693.41 2107.21 1768.62 2140.27 1822.53 2173.34 1876.43 2206.4 1930.33 2239.73 1876.38 2273.08 1822.43 2306.41 1768.47 2253.26 1687.18 2233.31 1589.29 2229.49 1493.55 2250.85 1481.36 2258.25 1454.44 2251.78 1431.66 2249.32 1423.5 2259.33 1434.34 2263.65 1435.15 2292.63 1449.57 2335.53 1433.46 2340.77 1399.61 2345.16 1379.21 2335.2 1357.48 2316.75 1348 2296.6 1335.94 2267.98 1338.43 2253.02 1357.33 2239.67 1369.17 2245.78 1390.73 2234.42 1403.79 2224.45 1404.4 2212.69 1403.76 2202.07 1405.19 2190.44 1406.48 2172.68 1405.54 2170.34 1391.11 2169.73 1383.31 2171.45 1375.23 2166.56 1368.35 2158.23 1351.27 2139.45 1339.49 2120.36 1340.38Z" fill="#F6E078" fill-rule="evenodd"/><path d="M2152.94 1356.55C2155.23 1360.26 2157.06 1364.35 2158.24 1368.78 2164.83 1393.3 2150.24 1418.5 2125.65 1425.07 2115.74 1427.72 2105.73 1426.92 2096.86 1423.44 2106.96 1429.96 2119.66 1432.4 2132.19 1429.05 2155.7 1422.77 2169.66 1398.68 2163.35 1375.24 2161.41 1367.99 2157.75 1361.66 2152.94 1356.55Z" fill="#D1B948" fill-rule="evenodd"/><path d="M2318.96 1353.55C2321.25 1357.26 2323.08 1361.36 2324.27 1365.78 2330.85 1390.3 2316.26 1415.5 2291.67 1422.07 2281.76 1424.72 2271.75 1423.92 2262.88 1420.44 2272.98 1426.97 2285.68 1429.4 2298.21 1426.05 2321.72 1419.77 2335.68 1395.68 2329.37 1372.24 2327.43 1364.99 2323.77 1358.66 2318.96 1353.55Z" fill="#D1B948" fill-rule="evenodd"/><path d="M2228.4 1759.83C2228.4 1759.83 2245.33 1774.72 2230.52 1804.49 2215.7 1834.26 2173.39 1819.38 2173.39 1819.38 2173.39 1819.38 2183.96 1857.65 2228.4 1834.26 2272.84 1810.86 2251.68 1766.21 2228.4 1759.83Z" fill="#D1B948" fill-rule="evenodd"/><path d="M2251.3 1797.68C2251.3 1821.98 2231.6 1841.68 2207.3 1841.68 2183 1841.68 2163.3 1821.98 2163.3 1797.68 2163.3 1773.38 2183 1753.68 2207.3 1753.68 2231.6 1753.68 2251.3 1773.38 2251.3 1797.68Z" stroke="#816701" stroke-width="3.18271" stroke-linecap="round" stroke-linejoin="round" stroke-miterlimit="10" fill="none" fill-rule="evenodd"/><path d="M3013.64 1383.56C3013.64 1422.5 2981.85 1454.06 2942.63 1454.06 2903.43 1454.06 2871.64 1422.5 2871.64 1383.56 2871.64 1344.62 2903.43 1313.06 2942.63 1313.06 2981.85 1313.06 3013.64 1344.62 3013.64 1383.56Z" stroke="#816701" stroke-width="3.18235" stroke-linecap="round" stroke-linejoin="round" stroke-miterlimit="10" fill="#D1B948" fill-rule="evenodd"/><path d="M2997.8 1382.67C2997.8 1412.5 2973.62 1436.67 2943.8 1436.67 2913.97 1436.67 2889.8 1412.5 2889.8 1382.67 2889.8 1352.85 2913.97 1328.67 2943.8 1328.67 2973.62 1328.67 2997.8 1352.85 2997.8 1382.67Z" fill="#F6E078" fill-rule="evenodd"/><path d="M2979.65 1354.67C2980.89 1358.86 2981.58 1363.31 2981.58 1367.91 2981.58 1393.43 2961.13 1414.11 2935.92 1414.11 2925.76 1414.11 2916.39 1410.74 2908.81 1405.06 2916.79 1414.02 2928.3 1419.67 2941.16 1419.67 2965.27 1419.67 2984.81 1399.9 2984.81 1375.51 2984.81 1367.97 2982.94 1360.88 2979.65 1354.67Z" fill="#D1B948" fill-rule="evenodd"/><path d="M2635.45 1836.53 2666.51 2041.86C2671.17 2023.19 2674.51 2012.79 2708.43 1971.83 2728.65 1947.43 2742.97 1919.66 2761.8 1893.51 2866.12 1748.57 2903.48 1621.96 2904.45 1492.42 2904.84 1440.67 2879.78 1411.48 2834.75 1411.87 2788.16 1412.27 2760.82 1439.96 2759.65 1483.08 2758.86 1512.35 2783.92 1544.36 2811.87 1544.36 2825.33 1544.36 2835.07 1542.19 2835.07 1542.19 2788.68 1675.23 2749.49 1760.15 2635.45 1836.53Z" stroke="#816701" stroke-width="3.18235" stroke-linecap="round" stroke-miterlimit="8" fill="#D1B948" fill-rule="evenodd"/><path d="M2755.69 1874.53C2795.01 1816.2 2831.9 1756.03 2854.11 1688.96 2878.92 1618.07 2892.98 1542.03 2886.29 1466.71 2881.82 1444.69 2861.5 1425.75 2838.25 1427.49 2834.46 1427.38 2830.66 1427.45 2826.86 1427.49 2797.67 1428.04 2771.39 1455.39 2774.73 1485.14 2775.71 1508.08 2796.01 1533.47 2820.7 1528.02 2831.26 1525.26 2847.48 1527.32 2849.07 1540.55 2850.6 1554.33 2840.48 1565.75 2838.09 1578.84 2807.84 1664.29 2766.38 1749.63 2696.12 1808.97 2682.07 1821.19 2667.3 1832.74 2651.95 1843.25 2659.32 1891.97 2666.55 1940.7 2674.16 1989.38 2682.22 1978.44 2690.68 1967.79 2698.99 1957.05L2689.06 1932.35C2729.77 1936.89 2735.22 1904.88 2755.69 1874.53Z" fill="#F6E078" fill-rule="evenodd"/><path d="M2769.49 1882.03C2750.37 1911.83 2727.86 1944.99 2710.94 1966.69 2701.04 1957.55 2694.49 1952.85 2691.16 1941.85 2682.08 1911.9 2697.15 1881.92 2720.61 1874.78 2742.34 1868.16 2761.69 1872.93 2769.49 1882.03Z" stroke="#816701" stroke-width="3.18235" stroke-linecap="round" stroke-linejoin="round" stroke-miterlimit="10" fill="none" fill-rule="evenodd"/><path d="M2867.29 1447.05C2867.29 1447.05 2841.9 1430.1 2808.05 1444.94 2774.19 1459.77 2780.55 1512.73 2820.74 1514.85 2860.95 1516.97 2795.36 1466.12 2867.29 1447.05ZM2854.6 1572.05C2854.6 1572.05 2810.16 1692.81 2765.73 1754.26 2721.3 1815.7 2666.29 1851.71 2666.29 1851.71L2676.87 1896.2C2676.87 1896.2 2698.03 1847.47 2748.81 1860.19 2748.81 1860.19 2837.67 1735.19 2854.6 1572.05ZM2746.34 1882.08C2746.34 1882.08 2720.95 1884.2 2708.25 1899.03 2695.56 1913.86 2696.36 1923.5 2705.89 1925.62 2715.4 1927.74 2723.07 1914.92 2718.83 1907.5 2714.6 1900.09 2746.34 1882.08 2746.34 1882.08Z" fill="#F8EC9C" fill-rule="evenodd"/><path d="M2931.47 1367.86C2918.53 1375.19 2904.84 1375.69 2900.89 1368.97 2896.93 1362.26 2904.22 1350.87 2917.16 1343.54 2930.1 1336.21 2943.79 1335.71 2947.74 1342.43 2951.69 1349.15 2944.4 1360.53 2931.47 1367.86Z" fill="#F8EC9C" fill-rule="evenodd"/><path d="M138.983 70.0595C138.983 108.996 107.193 140.559 67.9745 140.559 28.7734 140.559-3.01691 108.996-3.01691 70.0595-3.01691 31.1219 28.7734-0.442016 67.9745-0.442016 107.193-0.442016 138.983 31.1219 138.983 70.0595Z" stroke="#816701" stroke-width="3.18235" stroke-linecap="round" stroke-linejoin="round" stroke-miterlimit="10" fill="#D1B948" fill-rule="evenodd" transform="matrix(-1 1.22465e-16 1.22465e-16 1 1543.5 1313.5)"/><path d="M106.643 53.6725C106.643 83.496 82.4666 107.673 52.6427 107.673 22.8189 107.673-1.3588 83.496-1.3588 53.6725-1.3588 23.8476 22.8189-0.328975 52.6427-0.328975 82.4666-0.328975 106.643 23.8476 106.643 53.6725Z" fill="#F6E078" fill-rule="evenodd" transform="matrix(-1 1.22465e-16 1.22465e-16 1 1526 1329)"/><path d="M70.4063-0.332361C71.6626 3.86254 72.3638 8.31214 72.3638 12.9124 72.3638 38.425 51.6515 59.1075 26.1025 59.1075 15.8117 59.1075 6.32001 55.7389-1.36506 50.0639 6.72891 59.0159 18.3895 64.6692 31.4182 64.6692 55.8384 64.6692 75.6365 44.8999 75.6365 20.5132 75.6365 12.973 73.7444 5.87534 70.4063-0.332361Z" fill="#D1B948" fill-rule="evenodd" transform="matrix(-1 1.22465e-16 1.22465e-16 1 1508 1355)"/><path d="M-1.16468 424.026 29.8913 629.365C34.55 610.69 37.8876 600.288 71.8166 559.33 92.0281 534.932 106.353 507.163 125.18 481.006 229.502 336.068 266.86 209.455 267.832 79.9176 268.221 28.1699 243.159-1.02182 198.128-0.632036 151.546-0.229831 124.198 27.4555 123.035 70.5799 122.246 99.8462 147.298 131.859 175.248 131.859 188.713 131.859 198.449 129.695 198.449 129.695 152.065 262.733 112.868 347.654-1.16468 424.026Z" stroke="#816701" stroke-width="3.18235" stroke-linecap="round" stroke-miterlimit="8" fill="#D1B948" fill-rule="evenodd" transform="matrix(-1 1.22465e-16 1.22465e-16 1 1781.5 1412.5)"/><path d="M103.01 446.528C142.495 388.196 179.543 328.03 201.845 260.963 226.756 190.069 240.878 114.03 234.165 38.7134 229.67 16.6927 209.268-2.24688 185.921-0.508611 182.11-0.618707 178.291-0.550479 174.477-0.508611 145.164 0.0372155 118.77 27.389 122.13 57.1381 123.109 80.0753 143.503 105.47 168.294 100.02 178.899 97.2564 195.188 99.3234 196.781 112.55 198.318 126.333 188.158 137.747 185.76 150.837 155.379 236.295 113.743 321.63 43.1802 380.972 29.0707 393.192 14.2416 404.74-1.1688 415.252 6.22323 463.967 13.4925 512.703 21.1332 561.381 29.2277 550.442 37.717 539.789 46.0696 529.046L36.0944 504.346C76.9806 508.894 82.4515 476.88 103.01 446.528Z" fill="#F6E078" fill-rule="evenodd" transform="matrix(-1 1.22465e-16 1.22465e-16 1 1765 1428)"/><path d="M78.8899 9.53393C60.0102 39.3348 37.7748 72.4921 21.064 94.1915 11.2893 85.0541 4.82267 80.3463 1.53162 69.3504-7.43643 39.3971 7.44874 9.41884 30.6139 2.27694 52.0781-4.34081 71.1872 0.427705 78.8899 9.53393Z" stroke="#816701" stroke-width="3.18235" stroke-linecap="round" stroke-linejoin="round" stroke-miterlimit="10" fill="none" fill-rule="evenodd" transform="matrix(-1 1.22465e-16 1.22465e-16 1 1728.5 1872.5)"/><path d="M200.175 8.05265C200.175 8.05265 174.783-8.89654 140.93 5.93517 107.077 20.7653 113.428 73.7335 153.626 75.8463 193.829 77.9669 128.24 27.1209 200.175 8.05265ZM187.479 133.051C187.479 133.051 143.047 253.813 98.6154 315.257 54.1834 376.695-0.826944 412.713-0.826944 412.713L9.75144 457.205C9.75144 457.205 30.9097 408.475 81.6925 421.187 81.6925 421.187 170.555 296.186 187.479 133.051ZM79.2225 443.077C79.2225 443.077 53.8319 445.196 41.1366 460.03 28.446 474.857 29.245 484.498 38.7688 486.618 48.2849 488.738 55.9488 475.919 51.715 468.503 47.4873 461.086 79.2225 443.077 79.2225 443.077Z" fill="#F8EC9C" fill-rule="evenodd" transform="matrix(-1 1.22465e-16 1.22465e-16 1 1750 1439)"/><path d="M30.3164 29.8633C17.3781 37.1915 3.68602 37.6887-0.264175 30.9723-4.21748 24.2574 3.06754 12.87 16.0059 5.54188 28.9427-1.78933 42.6347-2.28662 46.5865 4.42984 50.5367 11.1478 43.2532 22.5336 30.3164 29.8633Z" fill="#F8EC9C" fill-rule="evenodd" transform="matrix(-1 1.22465e-16 1.22465e-16 1 1516 1338)"/><path d="M1786.63 2086.05C1764.74 2093.45 1743.26 2092.58 1734.72 2076.03 1727.91 2062.82 1727.91 2039.59 1767.07 2026.83 1767.07 2026.83 1936.3 1943.49 2206.31 1943.49 2476.31 1943.49 2645.54 2026.83 2645.54 2026.83 2684.7 2039.59 2684.7 2062.82 2677.89 2076.03 2669.35 2092.58 2647.89 2093.45 2625.98 2086.05 2625.98 2086.05 2476.31 2003.96 2206.31 2003.9 1936.3 2003.96 1786.63 2086.05 1786.63 2086.05Z" stroke="#816701" stroke-width="3.18235" stroke-linecap="round" stroke-linejoin="round" stroke-miterlimit="10" fill="#F6E078" fill-rule="evenodd"/><path d="M2132.13 1348.98C2132.13 1348.98 2093.13 1342.98 2081.13 1375.99 2069.13 1408.99 2123.13 1433 2120.13 1399.99 2117.13 1366.99 2132.13 1348.98 2132.13 1348.98ZM2293.39 1345.87C2293.39 1345.87 2255.21 1352.23 2253.08 1377.69 2250.97 1403.15 2280.66 1415.88 2280.66 1390.42 2280.66 1364.96 2293.39 1345.87 2293.39 1345.87ZM2197.93 1411.64C2197.93 1411.64 2176.72 1409.52 2174.61 1439.22 2172.48 1468.92 2197.93 1477.41 2197.93 1477.41 2197.93 1477.41 2189.45 1430.73 2217.03 1430.73 2244.6 1430.73 2231.87 1411.64 2231.87 1411.64ZM2193.69 1507.11C2193.69 1507.11 2183.09 1604.71 2176.72 1645.02 2170.36 1685.33 2121.57 1770.2 2121.57 1770.2L2151.27 1816.87C2151.27 1816.87 2142.78 1759.59 2185.21 1744.74 2185.21 1744.74 2212.78 1591.98 2193.69 1507.12ZM2205.62 1763.04C2205.62 1763.04 2183.12 1764.55 2180.12 1785.55 2177.13 1806.55 2196.62 1826.06 2204.12 1800.55 2211.62 1775.05 2205.62 1763.04 2205.62 1763.04Z" fill="#F8EC9C" fill-rule="evenodd"/><path d="M25.3495 92.9873 58.2771 64.6151 50.6953 56.1759 61.5814 46.7959 69.164 55.2352 83.5964 42.7993 89.1884 49.0231 74.7553 61.459 82.3696 69.9329 71.4827 79.3129 63.8691 70.839 30.9415 99.2104 41.1538 110.576 58.3501 95.7601 63.9414 101.984 46.7458 116.8 56.3315 127.469 89.2591 99.0976 80.3127 89.1396 91.1988 79.7596 100.146 89.7176 131.506 62.6961 75.1748 0 43.8138 27.0215 51.5748 35.6591 40.6886 45.0391 32.9276 36.4015 0 64.7737 9.47583 75.3199 26.6721 60.5028 32.2634 66.7266 15.0678 81.543Z" stroke="#000000" stroke-width="2.40643" stroke-linecap="round" stroke-linejoin="round" stroke-miterlimit="10" fill="#212121" fill-rule="evenodd" transform="matrix(-0.178429 0.983953 0.983953 0.178429 2379.53 233.024)"/><path d="M172.129 207.475 0 15.9002 18.4533 0 190.582 191.575Z" stroke="#000000" stroke-width="2.40643" stroke-linecap="round" stroke-linejoin="round" stroke-miterlimit="10" fill="#212121" fill-rule="evenodd" transform="matrix(-0.178429 0.983953 0.983953 0.178429 2357.72 296.01)"/><path d="M64.5016 21.5792 19.3888 60.4506 0 38.8714 45.1128 0Z" stroke="#000000" stroke-width="2.40643" stroke-linecap="round" stroke-linejoin="round" stroke-miterlimit="10" fill="#212121" fill-rule="evenodd" transform="matrix(-0.178429 0.983953 0.983953 0.178429 2493.44 467.455)"/><path d="M145.482 63.6494C150.237 68.9414 148.608 77.593 141.599 83.6333L133.805 90.3481 124.114 98.6982 130.788 106.126 136.073 112.008C140.943 117.429 139.351 126.038 132.485 131.954 125.639 137.852 116.601 138.337 111.764 132.954L106.478 127.071 99.8048 119.644 90.1144 127.993 82.3821 134.656C75.3724 140.696 66.2866 141.21 61.5653 135.956 56.8439 130.701 58.5425 122.087 65.6142 115.993L73.3465 109.331 83.0368 100.981 76.3633 93.5536 70.9954 87.5797C66.1583 82.1956 67.8208 73.6237 74.7281 67.6719 81.6346 61.7208 90.4344 61.2136 95.3046 66.6338L100.673 72.6077 107.346 80.0355 117.036 71.6854 124.83 64.9706C131.902 58.8765 140.728 58.3575 145.482 63.6494ZM164.863 46.9501C155.606 36.6471 139.068 35.3399 124.007 42.2324L116.248 33.5971 104.949 43.3324C92.2318 38.0124 74.8445 41.2158 61.3809 52.8171 47.9173 64.4177 42.3792 80.9312 46.1457 93.9997L34.8474 103.735 42.6335 112.401C33.7548 126.133 32.9159 142.339 42.1838 152.655 51.4561 162.975 68.0184 164.308 83.0951 157.435L90.8819 166.1 102.221 156.329C114.968 161.639 132.37 158.412 145.833 146.811 159.298 135.21 164.701 118.751 160.942 105.733L172.283 95.9615 164.524 87.3261C173.426 73.5389 174.13 57.2634 164.863 46.9501Z" stroke="#000000" stroke-width="2.40643" stroke-linecap="round" stroke-linejoin="round" stroke-miterlimit="10" fill="#212121" fill-rule="evenodd" transform="matrix(-0.178429 0.983953 0.983953 0.178429 2479.7 437.99)"/><path d="M138.806 39.5429C130.458 30.2514 113.991 31.2629 101.784 41.7797L94.0115 48.4776 88.651 42.5111C80.2479 33.1584 63.8139 34.0033 51.6899 44.4493 39.5666 54.8954 36.5159 70.839 44.9197 80.1925L50.2803 86.1583 42.5893 92.7847C30.3834 103.302 27.1808 119.239 35.5287 128.531 43.8773 137.822 60.4897 136.809 72.6955 126.292L80.3857 119.665 85.6843 125.563C94.0875 134.915 110.687 134.051 122.811 123.605 134.934 113.158 137.82 97.2339 129.416 87.8812L124.118 81.9847 131.891 75.2876C144.097 64.77 147.155 48.8345 138.806 39.5429Z" stroke="#000000" stroke-width="2.40643" stroke-linecap="round" stroke-linejoin="round" stroke-miterlimit="10" fill="none" fill-rule="evenodd" transform="matrix(-0.178429 0.983953 0.983953 0.178429 2492.31 456.899)"/><path d="M10.7107 19.5002C9.86512 21.8572 9.36305 25.4513 10.7727 32.8422 12.172 40.0997 15.5471 44.7517 15.5471 44.7517L47.4029 17.304C47.4029 17.304 42.9565 13.1289 35.7823 11.2924 28.6074 9.45374 24.6219 9.37412 21.6382 10.0848 18.6553 10.7948 11.5136 17.2597 10.7107 19.5002Z" stroke="#000000" stroke-width="2.40643" stroke-linecap="round" stroke-linejoin="round" stroke-miterlimit="10" fill="#212121" fill-rule="evenodd" transform="matrix(-0.178429 0.983953 0.983953 0.178429 2340.06 271.4)"/><path d="M26.4819 3.22102 23.5875 0 0 20.3236 2.89443 23.5454Z" stroke="#000000" stroke-width="1.71893" stroke-linecap="round" stroke-linejoin="round" stroke-miterlimit="10" fill="#212121" fill-rule="evenodd" transform="matrix(-0.178429 0.983953 0.983953 0.178429 2406.06 357.692)"/><path d="M26.4798 3.21881 23.5875 0 0 20.3236 2.89223 23.5432Z" stroke="#000000" stroke-width="1.71893" stroke-linecap="round" stroke-linejoin="round" stroke-miterlimit="10" fill="#212121" fill-rule="evenodd" transform="matrix(-0.178429 0.983953 0.983953 0.178429 2373.4 315.564)"/><path d="M26.4819 3.22102 23.5875 0 0 20.3236 2.89443 23.5446Z" stroke="#000000" stroke-width="1.71893" stroke-linecap="round" stroke-linejoin="round" stroke-miterlimit="10" fill="#212121" fill-rule="evenodd" transform="matrix(-0.178429 0.983953 0.983953 0.178429 2389.73 336.627)"/><path d="M26.4819 3.22102 23.5875 0 0 20.3236 2.89443 23.5454Z" stroke="#000000" stroke-width="2.40643" stroke-linecap="round" stroke-linejoin="round" stroke-miterlimit="10" fill="#212121" fill-rule="evenodd" transform="matrix(-0.178429 0.983953 0.983953 0.178429 2357.07 294.497)"/><path d="M2250.73 435.516 2285.95 410.039 2279.11 400.987 2290.75 392.564 2297.59 401.616 2313.03 390.449 2318.07 397.125 2302.64 408.292 2309.5 417.381 2297.86 425.804 2290.99 416.715 2255.78 442.191 2264.99 454.383 2283.38 441.078 2288.42 447.754 2270.03 461.058 2278.68 472.501 2313.89 447.025 2305.82 436.344 2317.47 427.921 2325.54 438.602 2359.08 414.338 2308.27 347.09 2274.73 371.354 2281.73 380.619 2270.08 389.042 2263.08 379.777 2227.87 405.255 2236.42 416.566 2254.81 403.261 2259.85 409.937 2241.46 423.241Z" stroke="#000000" stroke-width="2.40643" stroke-linecap="round" stroke-linejoin="round" stroke-miterlimit="10" fill="#212121" fill-rule="evenodd"/><path d="M2453.77 557.444 2298.51 351.961 2318.24 337.683 2473.5 543.166Z" stroke="#000000" stroke-width="2.40643" stroke-linecap="round" stroke-linejoin="round" stroke-miterlimit="10" fill="#212121" fill-rule="evenodd"/><path d="M2492.33 538.883 2444.09 573.788 2426.6 550.642 2474.84 515.737Z" stroke="#000000" stroke-width="2.40643" stroke-linecap="round" stroke-linejoin="round" stroke-miterlimit="10" fill="#212121" fill-rule="evenodd"/><path d="M2544.6 566.712C2548.89 572.388 2546.53 580.87 2539.04 586.294L2530.7 592.324 2520.34 599.822 2526.36 607.789 2531.12 614.098C2535.52 619.913 2533.2 628.356 2525.86 633.668 2518.54 638.964 2509.49 638.681 2505.13 632.907L2500.36 626.597 2494.34 618.631 2483.98 626.128 2475.71 632.111C2468.21 637.535 2459.11 637.277 2454.85 631.641 2450.6 626.004 2453.02 617.565 2460.58 612.094L2468.85 606.111 2479.21 598.614 2473.19 590.646 2468.35 584.239C2463.99 578.464 2466.37 570.064 2473.76 564.719 2481.15 559.375 2489.96 559.616 2494.35 565.43L2499.19 571.838 2505.21 579.805 2515.58 572.307 2523.91 566.277C2531.47 560.805 2540.31 561.036 2544.6 566.712ZM2565.33 551.717C2556.98 540.666 2540.61 537.961 2525.02 543.551L2518.02 534.289 2505.94 543.031C2493.72 536.651 2476.12 538.368 2461.72 548.786 2447.32 559.203 2440.4 575.187 2443.05 588.528L2430.97 597.27 2437.99 606.566C2427.98 619.494 2425.77 635.572 2434.13 646.636 2442.49 657.705 2458.88 660.438 2474.48 654.868L2481.51 664.163 2493.64 655.389C2505.89 661.761 2523.5 660.021 2537.9 649.604 2552.3 639.187 2559.08 623.245 2556.44 609.955L2568.56 601.181 2561.57 591.918C2571.61 578.936 2573.69 562.779 2565.33 551.717Z" stroke="#000000" stroke-width="2.40643" stroke-linecap="round" stroke-linejoin="round" stroke-miterlimit="10" fill="#212121" fill-rule="evenodd"/><path d="M2554.95 559.241C2547.42 549.275 2530.93 548.886 2517.87 558.33L2509.56 564.344 2504.72 557.945C2497.14 547.913 2480.7 547.361 2467.73 556.741 2454.77 566.121 2450.37 581.749 2457.95 591.781L2462.79 598.18 2454.56 604.13C2441.51 613.575 2436.97 629.183 2444.5 639.149 2452.03 649.115 2468.67 649.515 2481.72 640.071L2489.94 634.12 2494.72 640.445C2502.3 650.477 2518.92 651.024 2531.88 641.644 2544.85 632.263 2549.07 616.64 2541.49 606.608L2536.71 600.284 2545.03 594.27C2558.08 584.826 2562.48 569.207 2554.95 559.241Z" stroke="#000000" stroke-width="2.40643" stroke-linecap="round" stroke-linejoin="round" stroke-miterlimit="10" fill="none" fill-rule="evenodd"/><path d="M2289.73 332.987C2288.69 335.264 2287.88 338.803 2288.66 346.286 2289.44 353.636 2292.41 358.558 2292.41 358.558L2326.48 333.911C2326.48 333.911 2322.4 329.374 2315.41 326.935 2308.42 324.495 2304.45 324.077 2301.42 324.532 2298.39 324.987 2290.72 330.823 2289.73 332.987Z" stroke="#000000" stroke-width="2.40643" stroke-linecap="round" stroke-linejoin="round" stroke-miterlimit="10" fill="#212121" fill-rule="evenodd"/><path d="M2372.88 404.351 2370.27 400.896 2345.04 419.146 2347.65 422.601Z" stroke="#000000" stroke-width="1.71893" stroke-linecap="round" stroke-linejoin="round" stroke-miterlimit="10" fill="#212121" fill-rule="evenodd"/><path d="M2340.75 361.821 2338.14 358.368 2312.91 376.618 2315.52 380.072Z" stroke="#000000" stroke-width="1.71893" stroke-linecap="round" stroke-linejoin="round" stroke-miterlimit="10" fill="#212121" fill-rule="evenodd"/><path d="M2356.81 383.086 2354.2 379.631 2328.98 397.881 2331.59 401.336Z" stroke="#000000" stroke-width="1.71893" stroke-linecap="round" stroke-linejoin="round" stroke-miterlimit="10" fill="#212121" fill-rule="evenodd"/><path d="M2324.68 340.556 2322.07 337.101 2296.84 355.351 2299.45 358.807Z" stroke="#000000" stroke-width="2.40643" stroke-linecap="round" stroke-linejoin="round" stroke-miterlimit="10" fill="#212121" fill-rule="evenodd"/><path d="M25.3495 92.9873 58.2771 64.6151 50.6953 56.1759 61.5814 46.7959 69.164 55.2352 83.5964 42.7993 89.1884 49.0231 74.7553 61.459 82.3696 69.9329 71.4827 79.3129 63.8691 70.839 30.9415 99.2104 41.1538 110.576 58.3501 95.7601 63.9414 101.984 46.7458 116.8 56.3315 127.469 89.2591 99.0976 80.3127 89.1396 91.1988 79.7596 100.146 89.7176 131.506 62.6961 75.1748 0 43.8138 27.0215 51.5748 35.6591 40.6886 45.0391 32.9276 36.4015 0 64.7737 9.47583 75.3199 26.6721 60.5028 32.2634 66.7266 15.0678 81.543Z" stroke="#000000" stroke-width="2.40643" stroke-linecap="round" stroke-linejoin="round" stroke-miterlimit="10" fill="#212121" fill-rule="evenodd" transform="matrix(-0.178429 0.983953 0.983953 0.178429 1928.89 236.93)"/><path d="M172.129 207.475 0 15.9002 18.4533 0 190.582 191.575Z" stroke="#000000" stroke-width="2.40643" stroke-linecap="round" stroke-linejoin="round" stroke-miterlimit="10" fill="#212121" fill-rule="evenodd" transform="matrix(-0.178429 0.983953 0.983953 0.178429 1907.08 299.916)"/><path d="M64.5016 21.5792 19.3888 60.4506 0 38.8714 45.1128 0Z" stroke="#000000" stroke-width="2.40643" stroke-linecap="round" stroke-linejoin="round" stroke-miterlimit="10" fill="#212121" fill-rule="evenodd" transform="matrix(-0.178429 0.983953 0.983953 0.178429 2042.8 471.361)"/><path d="M145.482 63.6494C150.237 68.9414 148.608 77.593 141.599 83.6333L133.805 90.3481 124.114 98.6982 130.788 106.126 136.073 112.008C140.943 117.429 139.351 126.038 132.485 131.954 125.639 137.852 116.601 138.337 111.764 132.954L106.478 127.071 99.8048 119.644 90.1144 127.993 82.3821 134.656C75.3724 140.696 66.2866 141.21 61.5653 135.956 56.8439 130.701 58.5425 122.087 65.6142 115.993L73.3465 109.331 83.0368 100.981 76.3633 93.5536 70.9954 87.5797C66.1583 82.1956 67.8208 73.6237 74.7281 67.6719 81.6346 61.7208 90.4344 61.2136 95.3046 66.6338L100.673 72.6077 107.346 80.0355 117.036 71.6854 124.83 64.9706C131.902 58.8765 140.728 58.3575 145.482 63.6494ZM164.863 46.9501C155.606 36.6471 139.068 35.3399 124.007 42.2324L116.248 33.5971 104.949 43.3324C92.2318 38.0124 74.8445 41.2158 61.3809 52.8171 47.9173 64.4177 42.3792 80.9312 46.1457 93.9997L34.8474 103.735 42.6335 112.401C33.7548 126.133 32.9159 142.339 42.1838 152.655 51.4561 162.975 68.0184 164.308 83.0951 157.435L90.8819 166.1 102.221 156.329C114.968 161.639 132.37 158.412 145.833 146.811 159.298 135.21 164.701 118.751 160.942 105.733L172.283 95.9615 164.524 87.3261C173.426 73.5389 174.13 57.2634 164.863 46.9501Z" stroke="#000000" stroke-width="2.40643" stroke-linecap="round" stroke-linejoin="round" stroke-miterlimit="10" fill="#212121" fill-rule="evenodd" transform="matrix(-0.178429 0.983953 0.983953 0.178429 2029.06 441.896)"/><path d="M138.806 39.5429C130.458 30.2514 113.991 31.2629 101.784 41.7797L94.0115 48.4776 88.651 42.5111C80.2479 33.1584 63.8139 34.0033 51.6899 44.4493 39.5666 54.8954 36.5159 70.839 44.9197 80.1925L50.2803 86.1583 42.5893 92.7847C30.3834 103.302 27.1808 119.239 35.5287 128.531 43.8773 137.822 60.4897 136.809 72.6955 126.292L80.3857 119.665 85.6843 125.563C94.0875 134.915 110.687 134.051 122.811 123.605 134.934 113.158 137.82 97.2339 129.416 87.8812L124.118 81.9847 131.891 75.2876C144.097 64.77 147.155 48.8345 138.806 39.5429Z" stroke="#000000" stroke-width="2.40643" stroke-linecap="round" stroke-linejoin="round" stroke-miterlimit="10" fill="none" fill-rule="evenodd" transform="matrix(-0.178429 0.983953 0.983953 0.178429 2041.67 460.805)"/><path d="M10.7107 19.5002C9.86512 21.8572 9.36305 25.4513 10.7727 32.8422 12.172 40.0997 15.5471 44.7517 15.5471 44.7517L47.4029 17.304C47.4029 17.304 42.9565 13.1289 35.7823 11.2924 28.6074 9.45374 24.6219 9.37412 21.6382 10.0848 18.6553 10.7948 11.5136 17.2597 10.7107 19.5002Z" stroke="#000000" stroke-width="2.40643" stroke-linecap="round" stroke-linejoin="round" stroke-miterlimit="10" fill="#212121" fill-rule="evenodd" transform="matrix(-0.178429 0.983953 0.983953 0.178429 1889.43 275.306)"/><path d="M26.4819 3.22102 23.5875 0 0 20.3236 2.89443 23.5454Z" stroke="#000000" stroke-width="1.71893" stroke-linecap="round" stroke-linejoin="round" stroke-miterlimit="10" fill="#212121" fill-rule="evenodd" transform="matrix(-0.178429 0.983953 0.983953 0.178429 1955.42 361.598)"/><path d="M26.4798 3.21881 23.5875 0 0 20.3236 2.89223 23.5432Z" stroke="#000000" stroke-width="1.71893" stroke-linecap="round" stroke-linejoin="round" stroke-miterlimit="10" fill="#212121" fill-rule="evenodd" transform="matrix(-0.178429 0.983953 0.983953 0.178429 1922.77 319.47)"/><path d="M26.4819 3.22102 23.5875 0 0 20.3236 2.89443 23.5446Z" stroke="#000000" stroke-width="1.71893" stroke-linecap="round" stroke-linejoin="round" stroke-miterlimit="10" fill="#212121" fill-rule="evenodd" transform="matrix(-0.178429 0.983953 0.983953 0.178429 1939.09 340.533)"/><path d="M26.4819 3.22102 23.5875 0 0 20.3236 2.89443 23.5454Z" stroke="#000000" stroke-width="2.40643" stroke-linecap="round" stroke-linejoin="round" stroke-miterlimit="10" fill="#212121" fill-rule="evenodd" transform="matrix(-0.178429 0.983953 0.983953 0.178429 1906.44 298.403)"/><path d="M1800.09 439.422 1835.31 413.945 1828.47 404.893 1840.11 396.47 1846.95 405.522 1862.39 394.355 1867.43 401.031 1852 412.198 1858.86 421.287 1847.22 429.71 1840.35 420.621 1805.14 446.097 1814.35 458.289 1832.74 444.984 1837.78 451.659 1819.39 464.964 1828.04 476.407 1863.26 450.931 1855.19 440.25 1866.83 431.827 1874.9 442.508 1908.44 418.243 1857.63 350.996 1824.09 375.26 1831.09 384.525 1819.45 392.948 1812.44 383.683 1777.23 409.16 1785.78 420.472 1804.17 407.167 1809.21 413.843 1790.82 427.147Z" stroke="#000000" stroke-width="2.40643" stroke-linecap="round" stroke-linejoin="round" stroke-miterlimit="10" fill="#212121" fill-rule="evenodd"/><path d="M2003.13 561.35 1847.87 355.867 1867.61 341.589 2022.87 547.072Z" stroke="#000000" stroke-width="2.40643" stroke-linecap="round" stroke-linejoin="round" stroke-miterlimit="10" fill="#212121" fill-rule="evenodd"/><path d="M2041.69 542.789 1993.45 577.694 1975.96 554.548 2024.21 519.643Z" stroke="#000000" stroke-width="2.40643" stroke-linecap="round" stroke-linejoin="round" stroke-miterlimit="10" fill="#212121" fill-rule="evenodd"/><path d="M2093.96 570.618C2098.25 576.294 2095.89 584.776 2088.4 590.2L2080.06 596.23 2069.7 603.728 2075.72 611.695 2080.49 618.004C2084.88 623.818 2082.56 632.262 2075.22 637.574 2067.9 642.87 2058.85 642.587 2054.49 636.813L2049.72 630.503 2043.7 622.537 2033.34 630.034 2025.07 636.017C2017.57 641.441 2008.47 641.182 2004.22 635.547 1999.96 629.91 2002.38 621.471 2009.94 616L2018.21 610.017 2028.58 602.519 2022.56 594.552 2017.71 588.145C2013.35 582.37 2015.73 573.97 2023.12 568.625 2030.51 563.281 2039.32 563.522 2043.71 569.336L2048.55 575.744 2054.57 583.711 2064.94 576.213 2073.27 570.183C2080.84 564.711 2089.67 564.942 2093.96 570.618ZM2114.69 555.622C2106.34 544.572 2089.97 541.867 2074.38 547.457L2067.38 538.195 2055.3 546.937C2043.08 540.557 2025.48 542.274 2011.08 552.692 1996.68 563.109 1989.77 579.093 1992.41 592.434L1980.33 601.176 1987.35 610.472C1977.34 623.4 1975.13 639.478 1983.49 650.542 1991.85 661.611 2008.24 664.344 2023.85 658.774L2030.87 668.069 2043 659.295C2055.25 665.667 2072.86 663.927 2087.26 653.51 2101.66 643.093 2108.44 627.151 2105.8 613.861L2117.93 605.087 2110.93 595.824C2120.97 582.842 2123.05 566.685 2114.69 555.622Z" stroke="#000000" stroke-width="2.40643" stroke-linecap="round" stroke-linejoin="round" stroke-miterlimit="10" fill="#212121" fill-rule="evenodd"/><path d="M2104.31 563.147C2096.78 553.181 2080.29 552.792 2067.23 562.236L2058.92 568.25 2054.09 561.85C2046.51 551.819 2030.06 551.267 2017.09 560.647 2004.13 570.027 1999.74 585.655 2007.32 595.687L2012.15 602.086 2003.93 608.036C1990.87 617.481 1986.33 633.089 1993.86 643.055 2001.39 653.021 2018.03 653.421 2031.08 643.977L2039.31 638.026 2044.09 644.351C2051.67 654.383 2068.28 654.93 2081.24 645.55 2094.21 636.169 2098.44 620.546 2090.86 610.514L2086.08 604.19 2094.39 598.176C2107.44 588.732 2111.84 573.113 2104.31 563.147Z" stroke="#000000" stroke-width="2.40643" stroke-linecap="round" stroke-linejoin="round" stroke-miterlimit="10" fill="none" fill-rule="evenodd"/><path d="M1839.09 336.893C1838.05 339.17 1837.25 342.708 1838.02 350.192 1838.8 357.542 1841.77 362.464 1841.77 362.464L1875.84 337.817C1875.84 337.817 1871.76 333.28 1864.77 330.841 1857.78 328.401 1853.81 327.983 1850.78 328.438 1847.75 328.893 1840.08 334.729 1839.09 336.893Z" stroke="#000000" stroke-width="2.40643" stroke-linecap="round" stroke-linejoin="round" stroke-miterlimit="10" fill="#212121" fill-rule="evenodd"/><path d="M1922.24 408.257 1919.63 404.802 1894.41 423.052 1897.02 426.507Z" stroke="#000000" stroke-width="1.71893" stroke-linecap="round" stroke-linejoin="round" stroke-miterlimit="10" fill="#212121" fill-rule="evenodd"/><path d="M1890.11 365.727 1887.5 362.274 1862.27 380.524 1864.88 383.978Z" stroke="#000000" stroke-width="1.71893" stroke-linecap="round" stroke-linejoin="round" stroke-miterlimit="10" fill="#212121" fill-rule="evenodd"/><path d="M1906.17 386.992 1903.56 383.537 1878.34 401.787 1880.95 405.242Z" stroke="#000000" stroke-width="1.71893" stroke-linecap="round" stroke-linejoin="round" stroke-miterlimit="10" fill="#212121" fill-rule="evenodd"/><path d="M1874.04 344.462 1871.43 341.007 1846.2 359.257 1848.81 362.713Z" stroke="#000000" stroke-width="2.40643" stroke-linecap="round" stroke-linejoin="round" stroke-miterlimit="10" fill="#212121" fill-rule="evenodd"/></g></svg>