<svg height="67.664062pt" viewBox="0 0 313.24996 67.664064" width="313.24997pt" xmlns="http://www.w3.org/2000/svg"><path d="m47.27735 0c14.0039 3.3711 24.40625 15.97656 24.40625 31.01172 0 17.62109-14.28125 31.90234-31.89844 31.90234-11.52734 0-21.62109-6.11328-27.23047-15.27343 5.31641 11.80078 17.17578 20.02343 30.96094 20.02343 18.74219 0 33.94141-15.1914 33.94141-33.9375 0-17.47265-13.20313-31.85546-30.17969-33.72656" fill="#004ca1"/><path d="m39.78516 1.14844c-16.49219 0-29.86328 13.37109-29.86328 29.86328 0 2.53906.3125 5 .91016 7.35156-.15235-1.1875-.23438-2.39062-.23438-3.61718 0-15.375 12.45703-27.82813 27.83203-27.82813 15.36719 0 27.82422 12.45313 27.82422 27.82813 0 8.10546-3.46484 15.39453-8.99219 20.48046 7.50391-5.42187 12.38672-14.25 12.38672-24.21484 0-16.49219-13.37109-29.86328-29.86328-29.86328" fill="#009641"/><g fill="#c4181f"><path d="m0 31.01563c3.59375 0 6.46875.64062 7.71875 4.32812 1.04297 3.07422.625 5.25 3.98047 6.42578 0 0-6.85156.7461-8.15625-3.80859-1.0625-3.71094-.8789-5.51172-3.54297-6.94531"/><path d="m30.99219 31.2461c-7.02734 0-10.77734 1.32421-12.67187 4.95312-2.2461 4.30078-3.65625 6.01563-10.22266 7.35938 0 0 11.14844 1.67578 14.17188-4.35938 2.12109-4.23437 3.17187-6.31641 8.72265-7.95312"/><path d="m0 57.19922c3.59375 0 6.46875-.64062 7.71875-4.32031 1.04297-3.07422.625-5.25391 3.98047-6.42969 0 0-6.85156-.74219-8.15625 3.80859-1.0625 3.71094-.8789 5.51563-3.54297 6.94141"/><path d="m30.99219 56.97656c-7.02734 0-10.77734-1.32421-12.67187-4.95312-2.2461-4.30078-3.65625-6.01953-10.22266-7.36328 0 0 11.14844-1.67188 14.17188 4.36328 2.12109 4.23047 3.17187 6.31641 8.72265 7.95312"/></g><g fill="#727171"><path d="m19.86329 19.55078c0-.79687-.0937-.83984-1.25391-.89843v-.53125h4.57422v.53125c-1.15625.0586-1.24219.10156-1.24219.89843v3.46485l1.57813-1.73438c.76562-.82812 1.41406-1.59375 1.83593-2.10547.22657-.28906.19532-.45312-.0469-.46484l-.64844-.0586v-.53125h3.97656v.53125c-1.05468.0391-1.35547.20703-1.98828.70312-1.00781.78516-1.95703 1.80469-3.07031 2.94922.97656 1.47656 2.34766 3.34375 3.625 4.80078.46875.54297.89062.85938 1.1875.94922l.15625.0469v.52344l-.92188-.0312c-1.53515-.043-2.22656-.41797-3.23046-1.66797-.92579-1.14062-1.61329-2.18359-2.42579-3.55078h-.0273v3.73047c0 .80078.0859.83984 1.24219.90625v.52734h-4.57422v-.52734c1.16016-.0664 1.25391-.10547 1.25391-.90625zm0 0"/><path d="m33.69532 28.76172c1.69531 0 2.94922-.49609 3.80859-1.43359.85156-.91407 1.28906-2.28516 1.28906-3.9961 0-1.71875-.4375-3.08984-1.28906-4.0039-.85937-.9375-2.11328-1.42969-3.80859-1.42969-1.6875 0-2.95313.49219-3.79688 1.42969-.85156.91406-1.30859 2.28515-1.30859 4.0039 0 1.71094.45703 3.08203 1.30859 3.9961.84375.9375 2.10938 1.43359 3.79688 1.43359m0-.62891c-2.36328 0-2.75782-2.69531-2.78516-4.80078.0273-2.03515.42188-4.80468 2.78516-4.80468 2.35937 0 2.75781 2.76953 2.78125 4.80468-.0234 2.10547-.42188 4.80078-2.78125 4.80078"/><path d="m43.29297 22.67969v-3.29297c0-.55859.21485-.61719.99219-.63281 1.27734 0 2.06641.67969 2.05078 1.94531-.0195 1.24219-.72265 1.98047-2.21484 1.98047zm-3.32422 5.85937h4.90625c1.47657 0 2.46875-.27343 3.09766-.75781.63281-.49609.92188-1.21875.92188-2.11719 0-1.69921-1.25-2.51562-2.66407-2.72656v-.0273c1.44141-.30078 2.22657-1.11328 2.22657-2.32031 0-.88672-.34766-1.50391-.99219-1.91016-.63672-.40625-1.57813-.57031-2.76953-.55859h-4.72657v.53125c1.16016.0586 1.25.10156 1.25.89843v7.55469c0 .80078-.0898.83984-1.25.90625zm3.32422-5.22265h.875c1.64063 0 2.45313 1.01953 2.45313 2.40625-.0156 1.70312-.99219 2.18359-2.10547 2.18359-.91797 0-1.22266-.22265-1.22266-1.03906zm0 0"/><path d="m50.09766 28.01172c1.15625-.0664 1.24609-.10547 1.24609-.90625v-7.55469c0-.79687-.0898-.83984-1.24609-.89843v-.53125h7.92969v2.66406h-.54297c-.36328-1.50391-.66016-2.03125-2.27344-2.03125h-1.24609c-.44922 0-.54297.10547-.54297.54297v3.44531h1.67187c1.06641 0 1.21875-.30469 1.41407-1.33984h.52734v3.37109h-.52734c-.19532-1.03516-.34766-1.32813-1.41407-1.32813h-1.67187v3.26954c0 .66015.12109.97656.4375 1.08593.33594.0899.76172.10547 1.44141.10547 1.8125 0 2.23046-.62109 2.69531-2.30469h.53125l-.1875 2.9375h-8.24219zm0 0"/><path d="m31.46485 37c-.0117.35938-.0742.6875-.19922.90235-.28125.48828-.85156.65625-1.54688.65625-.73046 0-1.28906-.16797-1.55859-.64844-.125-.21485-.18359-.54297-.18359-.91016v-2.19922c0-.32812-.0391-.34375-.50782-.36718v-.21875h1.86329v.21875c-.46875.0234-.50782.0391-.50782.36718v2.21485c0 .62109.16797 1.28515.89453 1.28515.73438 0 .89454-.66015.89454-1.28515v-2.21485c0-.32812-.0352-.34375-.50782-.36718v-.21875h1.86719v.21875c-.47266.0234-.50781.0391-.50781.36718zm0 0"/><path d="m33.65235 34.21485c.6875 1.03125 1.39453 2.05859 2.10156 3.09375l.0273.004v-1.66015c0-.42969-.0195-.67188-.043-.88282-.0156-.20312-.0937-.28906-.26172-.30859l-.32422-.0273v-.21875h1.46875v.21875l-.22266.0234c-.14453.0156-.22265.10938-.24609.3125-.0234.20703-.0312.44532-.0312.88282v2.8125h-.58203c-.78125-1.17579-1.56641-2.34766-2.36328-3.52344h-.0273v2.08594c0 .42968.0156.66796.0391.88281.0234.20703.0937.28906.26563.30859l.32031.0312v.21485h-1.46484v-.21485l.22656-.0234c.13672-.0234.21875-.10937.24219-.3164.0195-.20703.0273-.44531.0273-.88281v-2.22657c0-.32812-.0352-.34375-.50781-.36718v-.21875zm0 0"/><path d="m38.31641 37.87891c0 .32422.0391.34765.51563.37109v.21485h-1.86719v-.21485c.46875-.0234.50781-.0469.50781-.37109v-3.07813c0-.32812-.0391-.34375-.50781-.36718v-.21875h1.86719v.21875c-.47657.0234-.51563.0391-.51563.36718zm0 0"/><path d="m40.01954 36.47656c-.0742-.22265-.52344-1.53125-.58985-1.71484-.10156-.28125-.17187-.31641-.48828-.32812v-.21875h1.75391v.21875l-.30078.0273c-.14844.0117-.15235.0859-.10938.21875.0586.17969.41797 1.27734.48438 1.46875l.5039 1.49219h.0234c.0742-.19532.48047-1.40235.55859-1.64453.19532-.58594.34766-1.10938.40625-1.33204.0273-.1289.0234-.1914-.12109-.20312l-.33594-.0273v-.21875h1.40235v.21875c-.33985.0195-.41016.0547-.53125.34765-.10938.26953-.33204.875-.57032 1.55469l-.7539 2.12891h-.64844zm0 0"/><path d="m43.16797 38.25c.47657-.0234.51172-.0469.51172-.37109v-3.07813c0-.32812-.0352-.34375-.51172-.36718v-.21875h3.23438v1.08593h-.22266c-.14453-.61328-.26562-.82812-.92578-.82812h-.51172c-.17969 0-.21875.043-.21875.22265v1.41016h.67969c.44141 0 .5-.12891.57812-.55078h.21485v1.375h-.21485c-.0781-.42188-.13671-.53906-.57812-.53906h-.67969v1.33203c0 .26562.0508.39844.17578.4414.14063.0352.32032.0391.59375.0391.73438 0 .91016-.25 1.09766-.9336h.21484l-.0742 1.19532h-3.36328zm0 0"/><path d="m48.33985 36.4961h.32812c.33203 0 .54297.13281.625.49218.0508.20313.10547.58985.19141.89063.125.42969.37891.58594.92187.58594h.46875v-.21485c-.11718-.004-.21875-.0625-.29687-.125-.17969-.14844-.26172-.38672-.30859-.69531-.0781-.51563-.19922-.92188-.83204-1.08203v-.0117c.59375-.0937 1.02735-.48828 1.02735-1.04688 0-.59375-.35156-1.07421-1.44922-1.07421h-2.03516v.21484c.47266.0273.50782.043.50782.37109v3.07813c0 .32422-.0352.34765-.50782.37109v.21485h1.86719v-.21485c-.47266-.0234-.50781-.0469-.50781-.37109zm0-.25782v-1.5c0-.19922.0469-.26562.41015-.26562.42969 0 .81641.20312.81641.86719 0 .55859-.24609.89843-.86328.89843zm0 0"/><path d="m53.64063 35.35156c-.14844-.6875-.49609-.97265-.91406-.97265-.4375 0-.70313.28125-.70313.68359 0 .44922.44922.67188.84766.83203l.18359.0703c.58203.23437 1.07031.57812 1.07031 1.28515 0 .66016-.38671 1.30078-1.57421 1.3086-.40625 0-.97657-.10157-1.27735-.37891l-.082-1.05469h.21484c.21094.73828.64063 1.17578 1.14454 1.17578.46484 0 .76171-.2539.76171-.73437 0-.44141-.30859-.69922-.73046-.86719l-.13282-.0547c-.58593-.23047-1.19531-.57812-1.19531-1.29297 0-.70703.48828-1.23046 1.49219-1.23046.375 0 .82422.0898 1.09765.27343v.95703zm0 0"/><path d="m56.01563 37.87891c0 .32422.0312.34765.50781.37109v.21485h-1.86328v-.21485c.47266-.0234.50781-.0469.50781-.37109v-3.07813c0-.32812-.0352-.34375-.50781-.36718v-.21875h1.86328v.21875c-.47656.0234-.50781.0391-.50781.36718zm0 0"/><path d="m57.60547 38.25.36719-.0312c.22266-.0195.25-.0976.25-.33203v-3.41406h-.28125c-.625 0-.72266.21484-.88281.84765h-.21485v-1.10546h3.61329v1.10546h-.21875c-.16016-.63281-.25391-.84765-.87891-.84765h-.28516v3.41406c0 .23438.0312.3125.25391.33203l.36719.0312v.21485h-2.08985zm0 0"/><path d="m61.5 38.25c.57032-.0234.60938-.0508.60938-.375v-.89062c0-.14453-.043-.26953-.10938-.40235-.10937-.21093-.80859-1.58984-.93359-1.82031-.13672-.26953-.21094-.3125-.53125-.32812v-.21875h1.81641v.21875l-.33594.0351c-.125.0117-.13281.0899-.0781.19531l.82032 1.73438h.008c.27734-.58203.63672-1.30469.79687-1.70313.0547-.14843.0274-.22265-.0859-.23437l-.32032-.0273v-.21875h1.42969v.21875c-.36328.0273-.44922.0781-.60937.35156-.25.4375-.6211 1.14062-.91407 1.74609-.0703.13281-.10546.24219-.10546.40235v.9414c0 .32422.043.35156.61328.375v.21485h-2.07032zm0 0"/></g><g fill="#221815"><path d="m208.86328 53.49219.2148-.10547c17.4688-9.10937 20.2969-21.42969 20.6524-26.8125h-20.8672v-4.41406h20.875v-12.01563h4.6563v12.01563h20.7734v4.41406h-20.7656c.3593 5.38281 3.1953 17.70703 20.6601 26.8125l.1055.0508-3.8789 4.07422-.2774-.17578c-.1367-.0859-13.4882-8.53125-18.9453-22.33203-5.4648 13.80078-18.8047 22.24609-18.9414 22.33203l-.2773.17578zm0 0"/><path d="m134.55469 28.55469h-6.64062v-5.24609h6.64062zm0 9.66406h-6.64062v-5.25h6.64062zm-11.09375-9.66406h-6.64453v-5.24609h6.64453zm0 9.66406h-6.64453v-5.25h6.64453zm4.45313-19.33203v-8.72266h-4.45313v8.72266h-11.09765v16.80078l-6.33985-5.43359c1.65625-2.26563 3.17969-4.6875 4.53125-7.1875l.13672-.2461-2.94922-3.93359h-3.51953l2.42578-2.69531-6.79687-6.02735-2.89063 3.20704 6.23438 5.51562h-10.48828v4.42188h12.57421c-1.21093 2.25781-5.88671 10.19921-14.71484 15.8125l3.09766 3.09765c.1289-.0703 3.01562-1.6914 6.89453-5.57031v20.85937h4.44922v-22.44531l4.84375 4.14844 2.51172-2.87109v6.29296h11.09765v14.875h4.45313v-14.875h11.09375v-23.74609zm0 0"/><path d="m155.8711 13.70703h41.21488v4.41016h-41.21488zm0 0"/><path d="m188.80468 36.4336h-24.95311v-9.8711h24.95311zm-29.92968-14.28516v15.35156c-.10937 3.28125-1.09765 11.46875-7.94921 16.64453l-.13672.10547 3.67187 3.25781.11719-.0898c.0703-.0547 7.49219-5.84766 9.09375-16.56641h30.4102v-18.70312zm0 0"/><path d="m292.67578 39.97656v-.61328l11.0117-7.29687v-4.21485h-27.164v4.41407h18.8398l-7.1328 4.73828v2.97265h-21.2813v4.41797h21.2813v8.69532h-5.8945v4.41796h10.3398v-13.11328h20.5742v-4.41797zm0 0"/><path d="m272.90238 23.34375h34.4023v7.48828h4.457v-11.89843h-8.875c1.6993-1.62891 3.5508-3.71094 4.8868-5.60938l-4.1485-3.17578-.2539.42187c-.023.0391-2.125 3.52735-6.9297 8.36329h-6.0742l2.4141-1.46485-4.5625-7.32031-3.668 2.22656 4.0898 6.5586h-7.1367l2.418-1.46485-4.5586-7.3164-3.6758 2.22265 4.0899 6.5586h-11.3243v11.89843h4.4493zm0 0"/></g></svg>