<?xml version="1.0" encoding="UTF-8"?>
<!DOCTYPE svg PUBLIC "-//W3C//DTD SVG 1.1//EN" "http://www.w3.org/Graphics/SVG/1.1/DTD/svg11.dtd">
<!-- Creator: CorelDRAW X7 -->
<svg xmlns="http://www.w3.org/2000/svg" xml:space="preserve" width="105.833mm" height="25.4mm" version="1.1" style="shape-rendering:geometricPrecision; text-rendering:geometricPrecision; image-rendering:optimizeQuality; fill-rule:evenodd; clip-rule:evenodd"
viewBox="0 0 10583 2540"
 xmlns:xlink="http://www.w3.org/1999/xlink">
 <defs>
  <style type="text/css">
   <![CDATA[
    .fil0 {fill:#004F8C;fill-rule:nonzero}
   ]]>
  </style>
 </defs>
 <g id="Слой_x0020_1">
  <metadata id="CorelCorpID_0Corel-Layer"/>
  <path class="fil0" d="M3668 687l-40 0 0 338 -155 0 0 -791 155 0 0 350 36 -16 218 -334 176 0 -230 332 -61 43 63 44 263 372 -191 0 -234 -338zm-910 -453l0 2006 -44 0 0 -2006 44 0zm-2441 0l1684 0 21 0 2 0 0 2 0 21 0 1324 0 6 0 0 0 0 0 1 0 0 0 4 0 0 0 9 0 2 0 0c-3,80 -28,162 -70,241 -43,81 -105,159 -181,226 -80,71 -176,131 -283,172 -98,39 -206,62 -318,64l-13 0 0 0c-111,0 -218,-20 -316,-56 -105,-38 -200,-93 -280,-159 -80,-68 -146,-146 -193,-231 -45,-82 -71,-170 -75,-257l0 0 0 -2 0 -18 0 -2 0 -1324 0 -21 0 -2 2 0 20 0zm601 1824l25 0 0 -70 3 -12 -9 11 -16 11 -9 -14 40 -33 13 0 0 107 24 0 0 20 -71 0 0 -20zm129 -10c0,-5 1,-8 2,-11 1,-4 3,-7 5,-9 2,-3 4,-5 7,-8 2,-2 5,-4 8,-5 -6,-4 -10,-8 -14,-13 -3,-5 -5,-11 -5,-18 0,-5 1,-9 3,-13 2,-4 4,-7 8,-10 3,-3 7,-6 11,-7 5,-2 10,-3 16,-3 5,0 10,1 15,2 4,2 8,4 11,6 3,3 5,6 7,10 2,4 3,8 3,12 0,7 -2,13 -5,18 -3,5 -8,9 -14,13 7,4 13,9 16,14 4,5 6,11 6,19 0,5 -1,10 -3,15 -2,4 -5,8 -8,11 -4,3 -8,5 -13,7 -5,2 -11,2 -17,2 -6,0 -11,0 -16,-2 -4,-2 -9,-4 -12,-7 -3,-2 -6,-6 -8,-10 -2,-4 -3,-8 -3,-13zm58 -3c0,-2 -1,-5 -2,-7 -2,-2 -3,-4 -5,-6 -2,-2 -5,-4 -7,-5 -3,-2 -5,-3 -8,-5 -6,3 -9,7 -11,11 -3,3 -4,7 -4,11 0,4 2,8 5,12 4,3 8,5 14,5 5,0 10,-1 13,-4 3,-3 5,-6 5,-12zm-32 -61c0,3 0,6 1,8 1,2 3,4 4,5 2,2 4,3 7,5 2,1 4,2 7,4 7,-6 11,-13 11,-20 0,-5 -2,-9 -5,-12 -3,-2 -6,-3 -10,-3 -6,0 -9,1 -12,4 -2,2 -3,6 -3,9zm107 32c0,-22 4,-38 11,-49 8,-11 18,-16 32,-16 15,0 26,5 33,16 7,10 11,27 11,49 0,22 -4,38 -12,48 -7,11 -18,16 -32,16 -15,0 -26,-5 -33,-16 -7,-12 -10,-28 -10,-48zm23 0c0,14 2,25 5,33 3,8 8,12 15,12 7,0 12,-4 16,-11 3,-7 4,-19 4,-34 0,-15 -1,-26 -4,-34 -3,-7 -8,-11 -16,-11 -7,0 -12,3 -15,11 -3,7 -5,18 -5,34zm204 27l-19 0 0 35 -22 0 0 -35 -54 0 0 -13 57 -77 19 0 0 72 19 0 0 18zm-41 -45l2 -15 -1 0 -6 13 -19 24 -8 6 11 -1 21 0 0 -27zm-467 -1254c-52,-29 -75,14 -126,25 -57,11 -73,-33 -97,-73 40,9 43,28 95,-8 38,-27 87,-9 116,23l-32 -85c95,-1 201,-13 294,0l12 2c100,19 175,105 175,213 0,79 -45,167 -111,214l0 10c88,-21 190,-95 199,-136 -13,-6 -44,-23 -44,-26 -35,-24 -49,-74 -41,-112 8,-37 25,-55 50,-71 18,-8 33,-13 52,-15l466 -66c2,16 4,32 5,48 13,285 -207,527 -492,541 -98,4 -224,-50 -268,-142 -3,1 -5,1 -7,1 -17,2 -33,5 -48,9 -14,62 112,110 260,134l-24 34c28,-9 57,-14 88,-14 162,0 293,131 293,293 0,162 -131,293 -293,293 -162,0 -293,-131 -293,-293 0,-16 2,-33 4,-49l10 2 178 12c-9,14 -14,31 -14,49 0,53 42,95 95,95 52,0 95,-42 95,-95 0,-51 -41,-93 -93,-94l0 -1 -12 1c-1,0 -2,0 -3,0l-153 18c-67,11 -124,16 -174,14l-211 288 -26 -70c-150,-12 -98,57 -65,85 4,3 4,14 1,17 -55,-4 -103,-48 -103,-106 0,-57 47,-106 106,-106 39,0 74,21 92,53l96 -303 -15 0 -58 84c-35,-36 -61,-79 -78,-127l-162 -201c-7,16 -17,30 -30,40l-33 -86c-71,-3 -116,14 -78,69l15 0 -2 -27 45 0 -7 94 0 1 0 0 0 1 -31 0 0 -6 -2 -30c-41,-15 -80,-47 -80,-99 0,-39 27,-79 65,-97l-21 -276 -50 -63 85 0c-3,-36 8,-74 28,-105 -19,3 -36,13 -53,41 -11,-60 40,-138 109,-126 70,11 63,-9 100,-36 -3,22 -3,45 -8,65 72,8 68,-19 114,-53 -8,71 0,143 -88,163 -79,19 -139,-27 -193,51l10 0 103 0 -50 63 -20 270c17,4 32,13 45,24l130 77 28 106 13 0c14,-176 159,-316 337,-320l-7 -18 -179 1 -34 -89zm-8 -28c6,7 10,15 14,24 76,13 217,101 170,-24l-184 0zm124 -255l47 0 0 11 14 0 0 36c-9,4 -16,13 -16,24 0,11 8,21 18,24l0 1 0 0 1 0 0 0 0 0 0 0 0 0 0 0 1 0 0 0 0 0 0 0 0 0 0 0 0 0 0 0 1 0 0 0 0 0 0 0 0 0 0 0 0 0 1 0 0 0 0 0 0 0 0 1 0 0 0 0 1 0 0 0 0 0 0 0 0 0 0 0 1 0 0 0 0 0 0 0 0 0 0 0 1 0 0 0 0 0 0 0 1 0 0 0 0 0 0 0c14,0 26,-12 26,-26l0 0 0 -1 0 0 0 -1c0,0 0,0 0,0l0 -1 0 0 -1 0 0 0c0,-1 0,-1 0,-2l0 0 0 -1 0 0 0 0 0 -1 0 0 0 0 -1 -1 0 0c-1,-4 -3,-7 -6,-10l0 0 0 0 -1 -1 0 0 0 0 0 0 0 0 0 0 -1 -1 0 0 0 0 0 0 0 0 0 0c-1,0 -1,-1 -1,-1l0 0 0 0 -1 0 0 0 0 -1 0 0 0 0c-1,0 -1,0 -1,0l0 0c-1,0 -1,-1 -1,-1l0 0 -1 0 0 0 0 0 0 -7c0,-21 18,-49 40,-49l39 -2 -56 147 -161 1 -56 -147 37 1c22,0 40,28 40,49l0 7c-5,2 -9,6 -12,11l0 0 0 1 0 0 0 0 0 0 0 1 -1 0 0 0 0 1 0 0 0 0 0 0 0 0 0 1 0 0c-1,1 -1,2 -1,3l0 0c0,1 0,2 0,2l0 0c-1,1 -1,1 -1,2l0 0 0 0 0 0 0 1 0 0c0,14 12,26 26,26l0 0 0 0 0 0 1 0 0 0 0 0 0 0 1 0 0 0 0 0 0 0 0 0 0 0 1 0 0 0 0 0 0 0 0 0 0 0 1 0 0 0 0 -1 0 0 0 0 0 0 0 0 1 0 0 0 0 0 0 0 0 0 0 0 0 0 1 0 0 0 0 0 1 0 0 0c11,-3 19,-13 19,-25 0,-11 -7,-20 -16,-24l0 -36 14 0 0 -11zm645 887c124,-51 239,-135 265,-344 -25,104 -78,161 -145,192 -72,34 -160,39 -244,40 57,24 95,59 124,112zm319 -1069l-1639 0 0 1279 0 0 0 2 0 15 0 5 0 0 0 3c0,84 23,169 66,249 44,82 107,159 186,224 76,64 166,116 266,152 93,34 195,53 301,53l0 0 12 0c107,-2 210,-23 303,-60 102,-40 193,-97 269,-164 74,-66 133,-140 174,-218 40,-76 62,-155 62,-231 0,-3 0,-4 0,-4l0 0 0 -1 0 0 0 0 0 0 0 -2 0 -4 0 0 0 -17 0 -2 0 0 0 -1279zm1891 1270l77 0 0 452c0,40 -5,76 -16,105 -10,30 -25,54 -45,73 -20,19 -43,33 -71,42 -28,9 -59,14 -92,14 -80,0 -140,-18 -181,-54 -41,-36 -61,-91 -61,-165l0 -467 80 0 0 430c0,34 4,63 10,86 7,24 17,43 31,57 13,15 30,25 51,32 20,6 44,9 71,9 52,0 89,-14 112,-43 23,-28 34,-76 34,-141l0 -430zm567 234l-52 -98 -4 0 9 98 0 443 -75 0 0 -688 43 0 324 452 50 93 5 0 -11 -93 0 -441 76 0 0 688 -43 0 -322 -454zm751 -234l80 0 0 677 -80 0 0 -677zm642 465l23 103 1 0 25 -105 164 -463 80 0 -256 688 -36 0 -261 -688 88 0 172 465zm577 -465l368 0 0 72 -288 0 0 221 264 0 0 72 -264 0 0 241 293 0 0 71 -373 0 0 -677zm721 7c25,-5 53,-8 85,-11 32,-3 61,-4 88,-4 29,0 58,3 84,10 27,6 51,17 71,32 20,15 37,34 49,58 12,24 18,53 18,87 0,53 -14,96 -43,129 -29,33 -66,54 -111,65l47 36 168 268 -94 0 -186 -292 -95 -14 0 306 -81 0 0 -670zm175 55c-9,0 -17,0 -27,0 -9,0 -17,0 -26,1 -8,0 -16,1 -23,2 -8,0 -14,1 -18,3l0 249 75 0c45,0 82,-11 111,-33 29,-22 43,-56 43,-102 0,-35 -12,-64 -36,-86 -24,-23 -57,-34 -99,-34zm910 443c0,-27 -8,-49 -24,-66 -16,-17 -36,-33 -61,-46 -24,-13 -50,-25 -78,-37 -29,-12 -55,-26 -79,-42 -25,-17 -45,-37 -61,-61 -16,-24 -24,-55 -24,-92 0,-53 18,-95 55,-126 37,-31 89,-47 157,-47 39,0 75,3 107,9 33,6 58,13 76,22l-24 71c-15,-7 -37,-14 -66,-20 -28,-7 -61,-10 -97,-10 -43,0 -74,9 -96,28 -21,19 -32,42 -32,68 0,25 8,46 24,63 17,16 37,31 61,45 24,13 50,26 79,39 28,13 55,28 79,45 24,17 44,37 60,61 16,24 24,54 24,89 0,29 -5,55 -15,79 -10,23 -26,43 -46,60 -20,16 -44,29 -72,38 -29,9 -61,14 -97,14 -48,0 -88,-4 -120,-11 -32,-8 -56,-16 -73,-25l27 -73c14,9 36,17 65,25 29,8 62,12 98,12 21,0 41,-2 60,-6 19,-4 35,-11 49,-20 13,-10 24,-21 32,-36 8,-14 12,-31 12,-50zm430 -505l80 0 0 677 -80 0 0 -677zm903 72l-211 0 0 605 -80 0 0 -605 -211 0 0 -72 502 0 0 72zm440 336l-223 -408 94 0 158 296 17 59 1 0 17 -61 152 -294 86 0 -221 407 0 270 -81 0 0 -269zm-5842 -1464c30,-14 66,-24 107,-32 41,-8 85,-12 130,-12 39,0 72,4 98,14 26,9 47,23 63,40 15,17 26,38 32,62 7,24 10,51 10,81 0,33 -1,67 -3,100 -3,34 -4,67 -4,99 -1,32 0,64 3,94 2,31 7,60 16,87l-119 0 -24 -78 -6 0c-15,23 -35,43 -62,60 -27,17 -61,26 -104,26 -26,0 -50,-4 -71,-12 -21,-8 -39,-20 -54,-34 -15,-15 -27,-32 -35,-52 -8,-20 -12,-42 -12,-67 0,-35 7,-64 23,-88 15,-23 38,-43 67,-57 28,-15 63,-25 103,-31 41,-5 86,-7 135,-5 6,-42 3,-72 -9,-91 -11,-18 -36,-27 -75,-27 -30,0 -61,3 -94,9 -32,6 -59,13 -80,23l-35 -109zm186 420c29,0 53,-7 70,-20 17,-13 30,-27 38,-42l0 -74c-23,-2 -45,-2 -67,-1 -21,2 -40,5 -57,10 -16,6 -30,13 -39,23 -10,10 -15,22 -15,37 0,21 6,38 19,49 12,12 29,18 51,18zm348 -13l222 -267 58 -49 -280 0 0 -124 442 0 0 124 -220 272 -56 44 276 0 0 125 -442 0 0 -125zm543 -407c30,-14 66,-24 107,-32 41,-8 85,-12 130,-12 39,0 72,4 98,14 26,9 47,23 63,40 15,17 26,38 32,62 7,24 10,51 10,81 0,33 -1,67 -3,100 -3,34 -4,67 -4,99 -1,32 0,64 3,94 2,31 7,60 16,87l-119 0 -24 -78 -6 0c-15,23 -36,43 -62,60 -27,17 -61,26 -104,26 -26,0 -50,-4 -71,-12 -21,-8 -39,-20 -54,-34 -15,-15 -27,-32 -35,-52 -8,-20 -12,-42 -12,-67 0,-35 7,-64 23,-88 15,-23 38,-43 67,-57 28,-15 63,-25 103,-31 41,-5 86,-7 135,-5 6,-42 3,-72 -9,-91 -11,-18 -36,-27 -75,-27 -30,0 -61,3 -94,9 -32,6 -59,13 -80,23l-35 -109zm186 420c29,0 53,-7 70,-20 17,-13 30,-27 38,-42l0 -74c-23,-2 -45,-2 -67,-1 -21,2 -40,5 -57,10 -16,6 -30,13 -39,23 -10,10 -15,22 -15,37 0,21 6,38 19,49 12,12 29,18 51,18zm723 112l0 -321c0,-46 -7,-79 -20,-99 -13,-21 -36,-31 -67,-31 -28,0 -52,8 -71,24 -19,17 -33,37 -41,61l0 366 -147 0 0 -565 116 0 17 75 5 0c17,-25 40,-46 69,-64 28,-18 65,-27 110,-27 28,0 53,4 75,12 22,7 40,19 55,37 15,17 26,41 34,70 8,30 11,67 11,110l0 352 -146 0zm558 -791l469 0 0 138 -314 0 0 195 289 0 0 138 -289 0 0 320 -155 0 0 -791zm1022 742c-23,18 -53,33 -92,46 -39,12 -80,18 -124,18 -91,0 -157,-26 -199,-79 -43,-53 -64,-126 -64,-219 0,-99 24,-174 72,-223 47,-50 114,-75 199,-75 29,0 57,4 84,12 27,7 51,19 72,37 21,17 38,40 51,70 13,29 19,66 19,109 0,16 -1,33 -3,51 -2,18 -4,37 -8,57l-339 0c2,47 15,83 37,107 22,24 58,36 108,36 31,0 58,-5 83,-14 24,-10 43,-19 56,-29l48 96zm-210 -414c-38,0 -67,11 -85,34 -19,23 -30,54 -33,92l210 0c3,-41 -4,-72 -19,-94 -16,-21 -40,-32 -73,-32zm812 264c0,31 0,63 1,95 1,31 4,66 10,105l-105 0 -20 -74 -5 0c-15,27 -36,48 -65,64 -28,16 -61,24 -100,24 -70,0 -125,-23 -164,-70 -40,-46 -59,-119 -59,-219 0,-96 22,-171 65,-224 44,-54 108,-81 192,-81 24,0 43,2 58,4 15,3 30,7 45,13l0 -229 147 0 0 592zm-250 90c29,0 51,-7 68,-21 17,-14 28,-34 35,-60l0 -239c-11,-9 -22,-15 -35,-19 -13,-4 -29,-6 -50,-6 -41,0 -72,14 -93,41 -20,28 -31,76 -31,144 0,48 9,87 26,116 16,29 43,44 80,44zm830 60c-23,18 -53,33 -92,46 -39,12 -80,18 -124,18 -91,0 -157,-26 -199,-79 -43,-53 -64,-126 -64,-219 0,-99 24,-174 72,-223 47,-50 114,-75 199,-75 29,0 57,4 84,12 27,7 51,19 72,37 21,17 38,40 51,70 13,29 19,66 19,109 0,16 -1,33 -3,51 -2,18 -4,37 -8,57l-339 0c2,47 15,83 37,107 22,24 58,36 108,36 31,0 58,-5 83,-14 24,-10 43,-19 56,-29l48 96zm-210 -414c-38,0 -67,11 -85,34 -19,23 -30,54 -33,92l210 0c3,-41 -4,-72 -19,-94 -16,-21 -40,-32 -73,-32zm644 36c-24,-9 -45,-13 -64,-13 -26,0 -48,7 -66,21 -17,14 -29,32 -35,54l0 365 -147 0 0 -565 114 0 17 75 4 0c13,-28 31,-50 52,-65 22,-15 48,-22 77,-22 20,0 42,4 67,12l-19 138zm81 -105c30,-14 66,-24 107,-32 41,-8 85,-12 130,-12 39,0 72,4 98,14 26,9 47,23 63,40 15,17 26,38 33,62 6,24 9,51 9,81 0,33 -1,67 -3,100 -3,34 -4,67 -4,99 -1,32 0,64 3,94 2,31 8,60 17,87l-120 0 -24 -78 -5 0c-16,23 -36,43 -63,60 -27,17 -61,26 -103,26 -27,0 -50,-4 -72,-12 -21,-8 -39,-20 -54,-34 -15,-15 -26,-32 -35,-52 -8,-20 -12,-42 -12,-67 0,-35 8,-64 23,-88 15,-23 38,-43 67,-57 29,-15 63,-25 103,-31 41,-5 86,-7 135,-5 6,-42 3,-72 -9,-91 -11,-18 -36,-27 -75,-27 -30,0 -61,3 -93,9 -33,6 -60,13 -81,23l-35 -109zm186 420c29,0 53,-7 70,-20 17,-13 30,-27 39,-42l0 -74c-24,-2 -46,-2 -68,-1 -21,2 -40,5 -57,10 -16,6 -29,13 -39,23 -10,10 -15,22 -15,37 0,21 6,38 19,49 12,12 29,18 51,18zm528 -78c0,26 4,45 11,57 6,12 17,18 32,18 9,0 18,0 27,-2 9,-1 19,-5 32,-10l16 115c-12,6 -31,12 -55,18 -25,6 -51,9 -77,9 -43,0 -76,-10 -98,-30 -23,-20 -34,-52 -34,-98l0 -678 146 0 0 601z"/>
 </g>
</svg>
