<?xml version="1.0" encoding="UTF-8" standalone="no"?>
<!-- Created with Inkscape (http://www.inkscape.org/) -->

<svg
   xmlns:dc="http://purl.org/dc/elements/1.1/"
   xmlns:cc="http://creativecommons.org/ns#"
   xmlns:rdf="http://www.w3.org/1999/02/22-rdf-syntax-ns#"
   xmlns:svg="http://www.w3.org/2000/svg"
   xmlns="http://www.w3.org/2000/svg"
   xmlns:sodipodi="http://sodipodi.sourceforge.net/DTD/sodipodi-0.dtd"
   xmlns:inkscape="http://www.inkscape.org/namespaces/inkscape"
   width="78.210197mm"
   height="42.490318mm"
   viewBox="0 0 277.12275 150.55625"
   id="svg2"
   version="1.1"
   inkscape:version="0.91 r13725"
   sodipodi:docname="ktu logo svg.svg">
  <defs
     id="defs4">
    <clipPath
       id="clipPath3356"
       clipPathUnits="userSpaceOnUse">
      <path
         inkscape:connector-curvature="0"
         id="path3358"
         d="m 0,595.276 841.89,0 L 841.89,0 0,0 0,595.276 Z" />
    </clipPath>
    <clipPath
       id="clipPath3386"
       clipPathUnits="userSpaceOnUse">
      <path
         inkscape:connector-curvature="0"
         id="path3388"
         d="m 0,0 841.89,0 0,595.276 L 0,595.276 0,0 Z" />
    </clipPath>
    <clipPath
       id="clipPath3422"
       clipPathUnits="userSpaceOnUse">
      <path
         inkscape:connector-curvature="0"
         id="path3424"
         d="m 0,0 841.89,0 0,595.276 L 0,595.276 0,0 Z" />
    </clipPath>
    <clipPath
       id="clipPath3464"
       clipPathUnits="userSpaceOnUse">
      <path
         inkscape:connector-curvature="0"
         id="path3466"
         d="m 0,0 841.89,0 0,595.276 L 0,595.276 0,0 Z" />
    </clipPath>
    <clipPath
       id="clipPath3486"
       clipPathUnits="userSpaceOnUse">
      <path
         inkscape:connector-curvature="0"
         id="path3488"
         d="m 0,0 841.89,0 0,595.276 L 0,595.276 0,0 Z" />
    </clipPath>
    <clipPath
       id="clipPath3536"
       clipPathUnits="userSpaceOnUse">
      <path
         inkscape:connector-curvature="0"
         id="path3538"
         d="m 0,0 841.89,0 0,595.276 L 0,595.276 0,0 Z" />
    </clipPath>
    <clipPath
       id="clipPath3572"
       clipPathUnits="userSpaceOnUse">
      <path
         inkscape:connector-curvature="0"
         id="path3574"
         d="m 0,0 841.89,0 0,595.276 L 0,595.276 0,0 Z" />
    </clipPath>
  </defs>
  <sodipodi:namedview
     id="base"
     pagecolor="#ffffff"
     bordercolor="#666666"
     borderopacity="1.0"
     inkscape:pageopacity="0.0"
     inkscape:pageshadow="2"
     inkscape:zoom="0.98994949"
     inkscape:cx="189.1506"
     inkscape:cy="-71.316496"
     inkscape:document-units="px"
     inkscape:current-layer="layer1"
     showgrid="false"
     fit-margin-top="0"
     fit-margin-left="0"
     fit-margin-right="0"
     fit-margin-bottom="0"
     inkscape:window-width="1920"
     inkscape:window-height="1018"
     inkscape:window-x="-8"
     inkscape:window-y="-8"
     inkscape:window-maximized="1" />
  <metadata
     id="metadata7">
    <rdf:RDF>
      <cc:Work
         rdf:about="">
        <dc:format>image/svg+xml</dc:format>
        <dc:type
           rdf:resource="http://purl.org/dc/dcmitype/StillImage" />
        <dc:title></dc:title>
      </cc:Work>
    </rdf:RDF>
  </metadata>
  <g
     inkscape:label="Layer 1"
     inkscape:groupmode="layer"
     id="layer1"
     transform="translate(-421.33464,-423.94866)">
    <text
       style="font-variant:normal;font-weight:300;font-stretch:normal;font-size:15px;font-family:'Open Sans Light';-inkscape-font-specification:OpenSans-Light;writing-mode:lr-tb;fill:#060004;fill-opacity:1;fill-rule:nonzero;stroke:none"
       id="text3346"
       x="-83.609238"
       y="797.72693">
      <tspan
         x="-83.609238"
         y="797.72693"
         id="tspan3348">5</tspan>
    </text>
    <g
       id="g3849">
      <g
         transform="matrix(1.25,0,0,-1.25,549.60964,570.88116)"
         id="g3374">
        <path
           inkscape:connector-curvature="0"
           id="path3376"
           style="fill:#231f20;fill-opacity:1;fill-rule:nonzero;stroke:none"
           d="m 0,0 0,2.898 -96.824,0 0,108.852 93.926,0 L -2.898,0 0,0 0,2.898 0,0 l 2.898,0 0,117.546 -105.518,0 0,-120.445 105.518,0 L 2.898,0 0,0 Z" />
      </g>
      <g
         transform="matrix(1.25,0,0,-1.25,454.40701,484.19178)"
         id="g3378">
        <path
           inkscape:connector-curvature="0"
           id="path3380"
           style="fill:#231f20;fill-opacity:1;fill-rule:nonzero;stroke:none"
           d="m 0,0 0,-20.504 9.732,12.908 6.297,0 -8.795,-11.45 9.627,-14.987 -6.556,0 -6.922,11.29 -3.383,-3.643 0,-7.647 -5.828,0 L -5.828,0 0,0 Z" />
      </g>
      <g
         transform="matrix(1.25,0,0,-1.25,-132.74361,838.51366)"
         id="g3382">
        <g
           clip-path="url(#clipPath3386)"
           id="g3384">
          <g
             transform="translate(502.9664,270.4502)"
             id="g3390">
            <path
               inkscape:connector-curvature="0"
               id="path3392"
               style="fill:#231f20;fill-opacity:1;fill-rule:nonzero;stroke:none"
               d="m 0,0 -5.982,0 0,-13.481 c 0,-2.499 1.248,-3.59 3.226,-3.59 0.78,0 1.508,0.157 2.239,0.415 L 0,-20.245 c -1.351,-0.728 -2.912,-1.199 -4.838,-1.199 -4.996,0 -7.023,2.916 -7.023,8.224 l 0,12.957 -3.178,0.832 0,3.695 3.488,0.261 1.508,5.881 4.061,0 0,-6.038 L 0,4.368 0,0 Z" />
          </g>
          <g
             transform="translate(522.2692,275.8618)"
             id="g3394">
            <path
               inkscape:connector-curvature="0"
               id="path3396"
               style="fill:#231f20;fill-opacity:1;fill-rule:nonzero;stroke:none"
               d="m 0,0 5.777,0 0,-26.437 -5.152,0 -0.26,2.498 c -1.875,-1.979 -4.32,-2.968 -7.285,-2.968 -5.361,0 -8.379,3.852 -8.379,9.993 l 0,16.914 5.826,0 0,-16.967 c 0,-3.488 1.459,-5.309 4.426,-5.309 2.289,0 4.059,1.145 5.047,2.498 L 0,0 Z" />
          </g>
          <g
             transform="translate(459.1013,232.9634)"
             id="g3398">
            <path
               inkscape:connector-curvature="0"
               id="path3400"
               style="fill:#231f20;fill-opacity:1;fill-rule:nonzero;stroke:none"
               d="m 0,0 0,-10.166 -2.225,0 0,6.814 -2.025,0 0,1.514 0.85,0 c 1.16,0 1.453,0.291 1.636,1.838 L 0,0 Z" />
          </g>
          <g
             transform="translate(463.6443,224.4351)"
             id="g3402">
            <path
               inkscape:connector-curvature="0"
               id="path3404"
               style="fill:#231f20;fill-opacity:1;fill-rule:nonzero;stroke:none"
               d="m 0,0 c 0.99,0 1.453,0.509 1.453,1.527 l 0,1.176 C 1.02,2.363 0.465,2.192 -0.23,2.192 c -1.762,0 -2.891,0.958 -2.891,3.045 0,2.148 1.207,3.383 3.385,3.383 2.162,0 3.275,-1.436 3.275,-3.211 l 0,-3.741 c 0,-2.117 -1.299,-3.447 -3.416,-3.447 -1.59,0 -2.641,0.76 -3.119,2.179 l 1.373,0.788 C -1.283,0.325 -0.803,0 0,0 m 1.453,4.665 0,0.852 c 0,0.896 -0.387,1.28 -1.221,1.28 -0.849,0 -1.236,-0.446 -1.236,-1.485 0,-1.11 0.402,-1.436 1.174,-1.436 0.572,0 1.252,0.199 1.283,0.789" />
          </g>
          <g
             transform="translate(474.7731,230.2603)"
             id="g3406">
            <path
               inkscape:connector-curvature="0"
               id="path3408"
               style="fill:#231f20;fill-opacity:1;fill-rule:nonzero;stroke:none"
               d="m 0,0 c 0,-3.445 -3.553,-3.646 -4.094,-5.718 l 4.11,0 0,-1.745 -6.459,0 -0.03,0.926 c 0.123,3.261 4.34,4.45 4.34,6.427 0,0.682 -0.355,1.082 -1.189,1.082 -0.74,0 -1.328,-0.54 -1.561,-1.53 L -6.535,0 C -6.117,1.56 -4.99,2.779 -3.137,2.779 -0.926,2.779 0,1.467 0,0" />
          </g>
          <g
             transform="translate(482.3025,230.2603)"
             id="g3410">
            <path
               inkscape:connector-curvature="0"
               id="path3412"
               style="fill:#231f20;fill-opacity:1;fill-rule:nonzero;stroke:none"
               d="m 0,0 c 0,-3.445 -3.553,-3.646 -4.094,-5.718 l 4.11,0 0,-1.745 -6.459,0 -0.03,0.926 c 0.123,3.261 4.34,4.45 4.34,6.427 0,0.682 -0.355,1.082 -1.189,1.082 -0.74,0 -1.328,-0.54 -1.561,-1.53 L -6.535,0 c 0.418,1.56 1.547,2.779 3.4,2.779 C -0.926,2.779 0,1.467 0,0" />
          </g>
        </g>
      </g>
      <g
         transform="matrix(1.25,0,0,-1.25,574.54839,467.56028)"
         id="g3414">
        <path
           inkscape:connector-curvature="0"
           id="path3416"
           style="fill:#231f20;fill-opacity:1;fill-rule:nonzero;stroke:none"
           d="m 0,0 0,-7.611 3.613,4.791 2.336,0 -3.265,-4.249 3.574,-5.564 -2.434,0 L 1.254,-8.44 0,-9.794 l 0,-2.839 -2.164,0 L -2.164,0 0,0 Z" />
      </g>
      <g
         transform="matrix(1.25,0,0,-1.25,-132.74361,838.51366)"
         id="g3418">
        <g
           clip-path="url(#clipPath3422)"
           id="g3420">
          <g
             transform="translate(573.2731,291.8579)"
             id="g3426">
            <path
               inkscape:connector-curvature="0"
               id="path3428"
               style="fill:#231f20;fill-opacity:1;fill-rule:nonzero;stroke:none"
               d="m 0,0 c 0.695,1.351 1.797,2.278 3.52,2.278 2.336,0 3.261,-1.467 3.261,-3.36 l 0,-4.639 c 0,-0.461 0.235,-0.733 0.7,-0.733 l 0.248,0 0,-1.236 C 7.437,-7.766 7.072,-7.844 6.725,-7.844 c -0.907,0 -1.452,0.367 -1.76,0.888 -0.695,-0.657 -1.543,-0.946 -2.53,-0.946 -1.74,0 -2.763,1.101 -2.763,2.705 0,1.719 1.023,3.166 4.289,3.166 l 0.676,0 0,0.949 c 0,1.197 -0.485,1.699 -1.428,1.699 -0.774,0 -1.43,-0.463 -1.895,-1.351 L 0,0 Z m 4.637,-5.662 0,2.204 -0.676,0 c -1.699,0 -2.221,-0.619 -2.221,-1.585 0,-1.006 0.465,-1.371 1.235,-1.371 0.736,0 1.238,0.269 1.662,0.752" />
          </g>
          <g
             transform="translate(587.8826,293.9429)"
             id="g3430">
            <path
               inkscape:connector-curvature="0"
               id="path3432"
               style="fill:#231f20;fill-opacity:1;fill-rule:nonzero;stroke:none"
               d="m 0,0 2.146,0 0,-9.813 -1.912,0 -0.097,0.927 c -0.696,-0.734 -1.604,-1.101 -2.703,-1.101 -1.991,0 -3.112,1.429 -3.112,3.71 l 0,6.277 2.164,0 0,-6.297 c 0,-1.295 0.541,-1.97 1.643,-1.97 0.849,0 1.506,0.425 1.871,0.926 L 0,0 Z" />
          </g>
          <g
             transform="translate(594.4586,284.1294)"
             id="g3434">
            <path
               inkscape:connector-curvature="0"
               id="path3436"
               style="fill:#231f20;fill-opacity:1;fill-rule:nonzero;stroke:none"
               d="m 0,0 -2.162,0 0,9.813 1.93,0 0.08,-0.945 c 0.675,0.753 1.58,1.12 2.683,1.12 2.026,0 3.129,-1.411 3.129,-3.709 L 5.66,0 3.516,0 l 0,6.22 C 3.516,7.554 2.957,8.212 1.873,8.212 1.025,8.212 0.367,7.806 0,7.264 L 0,0 Z" />
          </g>
          <g
             transform="translate(602.0563,291.8579)"
             id="g3438">
            <path
               inkscape:connector-curvature="0"
               id="path3440"
               style="fill:#231f20;fill-opacity:1;fill-rule:nonzero;stroke:none"
               d="m 0,0 c 0.693,1.351 1.795,2.278 3.518,2.278 2.338,0 3.261,-1.467 3.261,-3.36 l 0,-4.639 c 0,-0.461 0.235,-0.733 0.7,-0.733 l 0.248,0 0,-1.236 C 7.435,-7.766 7.07,-7.844 6.723,-7.844 c -0.907,0 -1.45,0.367 -1.76,0.888 C 4.27,-7.613 3.42,-7.902 2.434,-7.902 c -1.741,0 -2.764,1.101 -2.764,2.705 0,1.719 1.023,3.166 4.289,3.166 l 0.676,0 0,0.949 c 0,1.197 -0.483,1.699 -1.428,1.699 -0.773,0 -1.43,-0.463 -1.895,-1.351 L 0,0 Z m 4.635,-5.662 0,2.204 -0.676,0 c -1.699,0 -2.219,-0.619 -2.219,-1.585 0,-1.006 0.463,-1.371 1.233,-1.371 0.736,0 1.238,0.269 1.662,0.752" />
          </g>
          <g
             transform="translate(616.1619,291.374)"
             id="g3442">
            <path
               inkscape:connector-curvature="0"
               id="path3444"
               style="fill:#231f20;fill-opacity:1;fill-rule:nonzero;stroke:none"
               d="m 0,0 c -0.385,0.908 -1.078,1.196 -1.871,1.196 -0.947,0 -1.393,-0.443 -1.393,-1.1 0,-1.834 4.658,-1.235 4.658,-4.54 0,-1.719 -1.394,-2.974 -3.363,-2.974 -1.623,0 -2.801,0.656 -3.476,2.163 l 1.332,0.734 c 0.465,-0.984 1.312,-1.372 2.088,-1.372 0.927,0 1.371,0.445 1.371,1.258 0,1.948 -4.657,1.292 -4.657,4.558 0,1.565 1.178,2.82 3.36,2.82 1.566,0 2.65,-0.717 3.265,-2.126 L 0,0 Z" />
          </g>
          <g
             transform="translate(569.0759,276.5483)"
             id="g3446">
            <path
               inkscape:connector-curvature="0"
               id="path3448"
               style="fill:#231f20;fill-opacity:1;fill-rule:nonzero;stroke:none"
               d="m 0,0 2.145,0 0,-9.813 -1.911,0 -0.097,0.926 c -0.696,-0.735 -1.606,-1.102 -2.703,-1.102 -1.991,0 -3.112,1.429 -3.112,3.71 l 0,6.279 2.162,0 0,-6.298 c 0,-1.295 0.541,-1.971 1.645,-1.971 0.848,0 1.506,0.425 1.871,0.927 L 0,0 Z" />
          </g>
          <g
             transform="translate(575.652,266.7349)"
             id="g3450">
            <path
               inkscape:connector-curvature="0"
               id="path3452"
               style="fill:#231f20;fill-opacity:1;fill-rule:nonzero;stroke:none"
               d="m 0,0 -2.162,0 0,9.813 1.928,0 0.08,-0.947 C 0.521,9.62 1.428,9.985 2.529,9.985 4.557,9.985 5.66,8.576 5.66,6.277 L 5.66,0 3.514,0 l 0,6.218 C 3.514,7.554 2.955,8.209 1.873,8.209 1.023,8.209 0.367,7.804 0,7.263 L 0,0 Z" />
          </g>
        </g>
      </g>
      <path
         inkscape:connector-curvature="0"
         id="path3454"
         style="fill:#231f20;fill-opacity:1;fill-rule:nonzero;stroke:none"
         d="m 599.38264,505.09491 -2.7025,0 0,-11.78125 2.7025,0 0,11.78125 z m -0.16875,-13.42375 -2.36375,0 0,-2.3675 2.36375,0 0,2.3675 z" />
      <g
         transform="matrix(1.25,0,0,-1.25,608.53764,505.09503)"
         id="g3456">
        <path
           inkscape:connector-curvature="0"
           id="path3458"
           style="fill:#231f20;fill-opacity:1;fill-rule:nonzero;stroke:none"
           d="m 0,0 -2.412,0 -3.42,9.813 2.453,0 2.164,-7.902 2.201,7.902 2.454,0 L 0,0 Z" />
      </g>
      <g
         transform="matrix(1.25,0,0,-1.25,-132.74361,838.51366)"
         id="g3460">
        <g
           clip-path="url(#clipPath3464)"
           id="g3462">
          <g
             transform="translate(599.4099,271.3691)"
             id="g3468">
            <path
               inkscape:connector-curvature="0"
               id="path3470"
               style="fill:#231f20;fill-opacity:1;fill-rule:nonzero;stroke:none"
               d="m 0,0 0,-1.139 c 0,-1.333 0.633,-2.028 1.854,-2.028 0.923,0 1.486,0.406 1.89,1.449 L 5.293,-2.297 C 4.73,-3.978 3.59,-4.81 1.641,-4.81 c -2.453,0 -3.809,1.526 -3.809,3.593 l 0,3.014 c 0,1.971 1.295,3.554 3.768,3.554 2.379,0 3.673,-1.622 3.673,-3.65 L 5.273,0 0,0 Z m 0,1.278 3.359,0 0,0.675 C 3.359,3.111 2.74,3.75 1.68,3.75 0.519,3.75 0,3.074 0,1.913 L 0,1.278 Z" />
          </g>
          <g
             transform="translate(611.7576,274.48)"
             id="g3472">
            <path
               inkscape:connector-curvature="0"
               id="path3474"
               style="fill:#231f20;fill-opacity:1;fill-rule:nonzero;stroke:none"
               d="m 0,0 c -0.272,0.174 -0.6,0.252 -0.947,0.252 -1.295,0 -1.991,-0.946 -2.164,-2.531 l 0,-5.466 -2.162,0 0,9.813 1.873,0 0.117,-1.624 c 0.576,1.276 1.388,1.778 2.41,1.778 0.39,0 0.812,-0.096 1.103,-0.25 L 0,0 Z" />
          </g>
          <g
             transform="translate(618.4059,273.9775)"
             id="g3476">
            <path
               inkscape:connector-curvature="0"
               id="path3478"
               style="fill:#231f20;fill-opacity:1;fill-rule:nonzero;stroke:none"
               d="m 0,0 c -0.389,0.909 -1.084,1.197 -1.877,1.197 -0.943,0 -1.389,-0.443 -1.389,-1.099 0,-1.836 4.655,-1.237 4.655,-4.539 0,-1.721 -1.389,-2.977 -3.36,-2.977 -1.623,0 -2.8,0.658 -3.476,2.164 l 1.332,0.734 c 0.465,-0.984 1.312,-1.372 2.084,-1.372 0.927,0 1.375,0.446 1.375,1.257 0,1.95 -4.656,1.294 -4.656,4.558 0,1.566 1.177,2.82 3.359,2.82 1.564,0 2.646,-0.714 3.265,-2.126 L 0,0 Z" />
          </g>
        </g>
      </g>
      <path
         inkscape:connector-curvature="0"
         id="path3480"
         style="fill:#231f20;fill-opacity:1;fill-rule:nonzero;stroke:none"
         d="m 646.98264,505.09491 -2.7075,0 0,-11.78125 2.7075,0 0,11.78125 z m -0.16875,-13.42375 -2.37,0 0,-2.3675 2.37,0 0,2.3675 z" />
      <g
         transform="matrix(1.25,0,0,-1.25,-132.74361,838.51366)"
         id="g3482">
        <g
           clip-path="url(#clipPath3486)"
           id="g3484">
          <g
             transform="translate(630.9684,274.5386)"
             id="g3490">
            <path
               inkscape:connector-curvature="0"
               id="path3492"
               style="fill:#231f20;fill-opacity:1;fill-rule:nonzero;stroke:none"
               d="m 0,0 -2.219,0 0,-5.002 c 0,-0.929 0.459,-1.334 1.196,-1.334 0.292,0 0.56,0.058 0.832,0.154 L 0,-7.515 c -0.502,-0.27 -1.082,-0.444 -1.797,-0.444 -1.853,0 -2.607,1.082 -2.607,3.053 l 0,4.81 -1.178,0.307 0,1.374 1.295,0.095 0.558,2.184 1.51,0 0,-2.242 L 0,1.622 0,0 Z" />
          </g>
          <g
             transform="translate(637.5798,267.4683)"
             id="g3494">
            <path
               inkscape:connector-curvature="0"
               id="path3496"
               style="fill:#231f20;fill-opacity:1;fill-rule:nonzero;stroke:none"
               d="m 0,0 c -0.793,-2.029 -1.836,-2.841 -3.865,-2.937 l -0.153,1.508 c 1.08,0.135 1.643,0.52 2.047,1.564 l 0.057,0.154 -3.881,8.791 2.412,0 2.533,-6.627 2.084,6.627 2.243,0 L 0,0 Z" />
          </g>
          <g
             transform="translate(654.1033,270.0962)"
             id="g3498">
            <path
               inkscape:connector-curvature="0"
               id="path3500"
               style="fill:#231f20;fill-opacity:1;fill-rule:nonzero;stroke:none"
               d="m 0,0 c 0,-1.99 -1.352,-3.537 -3.941,-3.537 -2.586,0 -3.922,1.547 -3.922,3.537 l 0,3.052 c 0,1.989 1.336,3.572 3.922,3.572 C -1.315,6.624 0,5.079 0,3.052 L 0,0 Z m -5.697,0.096 c 0,-1.295 0.578,-2.009 1.756,-2.009 1.238,0 1.779,0.714 1.779,2.009 l 0,2.878 c 0,1.274 -0.541,2.008 -1.779,2.008 -1.215,0 -1.756,-0.734 -1.756,-2.008 l 0,-2.878 z" />
          </g>
          <g
             transform="translate(660.699,274.5181)"
             id="g3502">
            <path
               inkscape:connector-curvature="0"
               id="path3504"
               style="fill:#231f20;fill-opacity:1;fill-rule:nonzero;stroke:none"
               d="m 0,0 -2.188,0 0,-7.783 -2.162,0 0,7.783 -1.14,0 0,1.564 1.14,0 0,0.194 c 0,1.951 1.082,3.092 4.153,3.168 L -0.1,3.479 C -1.797,3.401 -2.281,2.938 -2.281,1.758 l 0,-0.194 L 0,1.564 0,0 Z" />
          </g>
          <g
             transform="translate(568.3629,257.1431)"
             id="g3506">
            <path
               inkscape:connector-curvature="0"
               id="path3508"
               style="fill:#231f20;fill-opacity:1;fill-rule:nonzero;stroke:none"
               d="m 0,0 -2.221,0 0,-5.004 c 0,-0.927 0.461,-1.332 1.198,-1.332 0.291,0 0.558,0.059 0.83,0.154 L 0,-7.514 c -0.502,-0.273 -1.084,-0.445 -1.797,-0.445 -1.853,0 -2.609,1.081 -2.609,3.052 l 0,4.811 -1.178,0.306 0,1.374 1.295,0.097 0.559,2.183 1.509,0 0,-2.242 L 0,1.622 0,0 Z" />
          </g>
          <g
             transform="translate(571.8629,253.9741)"
             id="g3510">
            <path
               inkscape:connector-curvature="0"
               id="path3512"
               style="fill:#231f20;fill-opacity:1;fill-rule:nonzero;stroke:none"
               d="m 0,0 0,-1.14 c 0,-1.332 0.637,-2.027 1.852,-2.027 0.929,0 1.488,0.405 1.896,1.447 l 1.545,-0.579 c -0.559,-1.68 -1.699,-2.51 -3.652,-2.51 -2.453,0 -3.805,1.525 -3.805,3.591 l 0,3.015 c 0,1.971 1.295,3.555 3.768,3.555 2.375,0 3.67,-1.623 3.67,-3.652 L 5.274,0 0,0 Z m 0,1.275 3.359,0 0,0.677 C 3.359,3.111 2.744,3.749 1.68,3.749 0.52,3.749 0,3.073 0,1.912 L 0,1.275 Z" />
          </g>
          <g
             transform="translate(584.2302,256.3691)"
             id="g3514">
            <path
               inkscape:connector-curvature="0"
               id="path3516"
               style="fill:#231f20;fill-opacity:1;fill-rule:nonzero;stroke:none"
               d="m 0,0 c -0.33,0.89 -0.949,1.257 -1.719,1.257 -1.121,0 -1.758,-0.6 -1.758,-1.952 l 0,-2.859 c 0,-1.351 0.637,-1.989 1.758,-1.989 0.85,0 1.389,0.386 1.737,1.332 l 1.548,-0.58 c -0.562,-1.505 -1.703,-2.413 -3.5,-2.413 -2.451,0 -3.707,1.622 -3.707,3.553 l 0,3.034 c 0,1.99 1.276,3.574 3.707,3.574 1.623,0 2.881,-0.851 3.44,-2.356 L 0,0 Z" />
          </g>
          <g
             transform="translate(589.5076,249.3384)"
             id="g3518">
            <path
               inkscape:connector-curvature="0"
               id="path3520"
               style="fill:#231f20;fill-opacity:1;fill-rule:nonzero;stroke:none"
               d="m 0,0 -2.164,0 0,12.632 2.164,0 0,-3.63 c 0.656,0.656 1.525,0.986 2.57,0.986 2.008,0 3.088,-1.412 3.088,-3.71 l 0,-6.278 -2.162,0 0,6.219 C 3.496,7.553 2.955,8.211 1.853,8.211 1.004,8.211 0.348,7.784 0,7.282 L 0,0 Z" />
          </g>
          <g
             transform="translate(599.4059,249.3384)"
             id="g3522">
            <path
               inkscape:connector-curvature="0"
               id="path3524"
               style="fill:#231f20;fill-opacity:1;fill-rule:nonzero;stroke:none"
               d="m 0,0 -2.164,0 0,9.813 1.93,0 0.078,-0.945 c 0.675,0.753 1.582,1.12 2.683,1.12 2.03,0 3.131,-1.412 3.131,-3.71 l 0,-6.278 -2.144,0 0,6.219 C 3.514,7.553 2.955,8.211 1.873,8.211 1.021,8.211 0.365,7.805 0,7.264 L 0,0 Z" />
          </g>
          <g
             transform="translate(614.6539,252.7002)"
             id="g3526">
            <path
               inkscape:connector-curvature="0"
               id="path3528"
               style="fill:#231f20;fill-opacity:1;fill-rule:nonzero;stroke:none"
               d="m 0,0 c 0,-1.99 -1.355,-3.535 -3.941,-3.535 -2.59,0 -3.924,1.545 -3.924,3.535 l 0,3.052 c 0,1.99 1.334,3.574 3.924,3.574 C -1.314,6.626 0,5.08 0,3.052 L 0,0 Z m -5.701,0.096 c 0,-1.294 0.582,-2.009 1.76,-2.009 1.232,0 1.777,0.715 1.777,2.009 l 0,2.878 c 0,1.275 -0.545,2.009 -1.777,2.009 -1.221,0 -1.76,-0.734 -1.76,-2.009 l 0,-2.878 z" />
          </g>
        </g>
      </g>
      <path
         inkscape:connector-curvature="0"
         id="path3530"
         style="fill:#231f20;fill-opacity:1;fill-rule:nonzero;stroke:none"
         d="m 640.91514,526.84116 -2.705,0 0,-15.79 2.705,0 0,15.79 z" />
      <g
         transform="matrix(1.25,0,0,-1.25,-132.74361,838.51366)"
         id="g3532">
        <g
           clip-path="url(#clipPath3536)"
           id="g3534">
          <g
             transform="translate(628.9158,252.7002)"
             id="g3540">
            <path
               inkscape:connector-curvature="0"
               id="path3542"
               style="fill:#231f20;fill-opacity:1;fill-rule:nonzero;stroke:none"
               d="m 0,0 c 0,-1.99 -1.352,-3.535 -3.941,-3.535 -2.586,0 -3.922,1.545 -3.922,3.535 l 0,3.052 c 0,1.99 1.336,3.574 3.922,3.574 C -1.315,6.626 0,5.08 0,3.052 L 0,0 Z m -5.697,0.096 c 0,-1.294 0.578,-2.009 1.756,-2.009 1.238,0 1.777,0.715 1.777,2.009 l 0,2.878 c 0,1.275 -0.539,2.009 -1.777,2.009 -1.217,0 -1.756,-0.734 -1.756,-2.009 l 0,-2.878 z" />
          </g>
          <g
             transform="translate(632.7283,253.5122)"
             id="g3544">
            <path
               inkscape:connector-curvature="0"
               id="path3546"
               style="fill:#231f20;fill-opacity:1;fill-rule:nonzero;stroke:none"
               d="m 0,0 c -0.369,-0.196 -0.562,-0.406 -0.562,-0.657 0,-0.369 0.253,-0.58 1.003,-0.58 l 2.225,0 c 2.353,0 3.223,-0.889 3.223,-2.281 0,-1.833 -1.543,-2.897 -4.247,-2.897 -2.687,0 -3.71,0.927 -3.71,2.222 0,0.598 0.252,1.158 0.712,1.565 -0.595,0.328 -0.943,0.868 -0.943,1.526 0,0.637 0.402,1.235 1.254,1.641 -0.598,0.502 -0.887,1.256 -0.887,2.241 0,2.03 1.139,3.014 3.551,3.014 0.91,0 1.643,-0.136 2.205,-0.406 0.522,0.291 0.906,0.754 1.102,1.178 L 5.912,6.123 C 5.795,5.388 5.43,4.772 4.926,4.346 5.137,3.901 5.254,3.379 5.254,2.761 5.254,0.83 4.115,-0.196 1.619,-0.196 1.004,-0.196 0.461,-0.137 0,0 m 0.193,-2.937 c -0.33,-0.233 -0.484,-0.581 -0.484,-1.024 0,-0.735 0.658,-1.043 2.027,-1.043 1.952,0 2.28,0.579 2.28,1.195 0,0.639 -0.309,0.872 -1.467,0.872 l -2.356,0 z m 1.449,4.173 c 1.215,0 1.563,0.347 1.563,1.505 0,1.178 -0.404,1.527 -1.563,1.527 -1.16,0 -1.529,-0.367 -1.529,-1.527 0,-1.158 0.348,-1.505 1.529,-1.505" />
          </g>
          <g
             transform="translate(645.0759,250.0728)"
             id="g3548">
            <path
               inkscape:connector-curvature="0"
               id="path3550"
               style="fill:#231f20;fill-opacity:1;fill-rule:nonzero;stroke:none"
               d="m 0,0 c -0.793,-2.029 -1.834,-2.841 -3.865,-2.938 l -0.151,1.508 c 1.08,0.135 1.641,0.523 2.047,1.566 l 0.055,0.153 -3.881,8.789 2.414,0 2.533,-6.624 2.082,6.624 2.244,0 L 0,0 Z" />
          </g>
        </g>
      </g>
      <g
         transform="matrix(1.25,0,0,-1.25,447.14614,538.55328)"
         id="g3552">
        <path
           inkscape:connector-curvature="0"
           id="path3554"
           style="fill:#100f0d;fill-opacity:1;fill-rule:nonzero;stroke:none"
           d="m 0,0 201.049,0 0,2.896 L 0,2.896" />
      </g>
    </g>
  </g>
</svg>
