<?xml version="1.0" encoding="utf-8"?>
<!-- Generator: Adobe Illustrator 22.1.0, SVG Export Plug-In . SVG Version: 6.00 Build 0)  -->
<svg version="1.1" id="レイヤー_1" xmlns="http://www.w3.org/2000/svg" xmlns:xlink="http://www.w3.org/1999/xlink" x="0px"
	 y="0px" width="500px" height="84px" viewBox="0 0 500 84" style="enable-background:new 0 0 500 84;" xml:space="preserve">
<style type="text/css">
	.st0{stroke:#FFFFFF;stroke-width:0.3749;}
	.st1{fill:#B02D32;}
	.st2{fill:#FFFFFF;}
	.st3{fill:#B02D32;stroke:#FFFFFF;stroke-width:1.3717;}
	.st4{fill:#FFFFFF;stroke:#B02D32;stroke-width:0.8136;}
	.st5{fill:#FFFFFF;stroke:#FFFFFF;stroke-width:0.3255;}
</style>
<g>
	<g>
		<g>
			<polygon class="st0" points="130.1,22.2 119.6,22.2 112.2,39 112.2,22.2 102.3,22.2 102.3,60.8 112.2,60.8 112.2,42 120.4,60.6 
				131.6,60.6 122.3,40.1 			"/>
			<path class="st0" d="M196.3,47.3V22.2h-10.3v25.4l0,0c0,2.1-1.7,3.8-3.8,3.8s-3.8-1.7-3.8-3.8l0,0V22.2H168v24.9l0,0v0.2v0.4l0,0
				c0.2,7.6,6.5,13.7,14.2,13.7c7.6,0,13.9-6.1,14.2-13.7l0,0v-0.2C196.3,47.5,196.3,47.3,196.3,47.3L196.3,47.3z"/>
			<g>
				<path class="st1" d="M141.3,54.5c0.8-0.6,3.8-3.2,3.8-7.2c0-2.1-0.8-4.2-1.7-6.5c0,0-0.8-2.1-0.9-3c-0.6-2.8-0.2-6.8,0.9-9.7
					c2.5-6.3,6.8-8.2,7.6-8.5l4.7,8.4c-0.8,0.6-3.8,2.8-3.8,6.6c0,2.1,1.7,6.3,1.7,6.3s0.8,1.9,0.9,3c0.6,3,0.2,7-0.9,9.7
					c-2.5,6.3-6.8,8.7-7.6,9.1L141.3,54.5z"/>
				<path class="st2" d="M150.8,19.8l4.6,8.2c-0.9,0.8-3.8,3-3.8,6.6c0,2.1,1.7,6.3,1.7,6.5c0.2,0.4,0.8,1.9,0.9,3
					c0.6,3,0.2,6.8-0.9,9.5c-2.5,5.9-6.3,8.4-7.4,8.9l-4.6-8.2c0.9-0.8,3.8-3.4,3.8-7.2c0-2.1-0.8-4.2-1.7-6.5c0,0-0.8-2.1-0.9-3
					c-0.6-2.8-0.2-6.6,0.9-9.5C145.8,22.4,149.8,20.3,150.8,19.8 M150.9,19.4c0,0-4.9,1.7-7.8,8.7c-1.1,3-1.5,7-0.9,9.9
					c0.2,1.1,0.9,3,0.9,3c0.9,2.3,1.7,4.2,1.7,6.3c0,4.4-3.8,7.2-3.8,7.2l4.9,8.7c0,0,4.9-2.1,7.8-9.3c1.1-3,1.5-6.8,0.9-9.9
					c-0.2-1.1-0.9-3-0.9-3s-1.7-4.2-1.7-6.3c0-4.4,3.8-6.6,3.8-6.6L150.9,19.4L150.9,19.4z"/>
			</g>
		</g>
	</g>
	<g>
		<g>
			<g>
				<g>
					<path class="st1" d="M23.7,55.7c0,0-17.1-2.5-23.4-19.8c0,0-2.1,13.1,7.8,22.4c0,0-3.2,1.1-4.7,1.1c0,0,16.9,11.6,29.8,5.5
						C33.4,64.8,27.3,61.6,23.7,55.7z"/>
					<path class="st2" d="M25,66.7L25,66.7c-10.6,0-21.5-7.2-21.5-7.4l-0.4-0.2h0.2c1.3,0,4-0.8,4.6-0.9c-9.7-9.3-7.8-22.2-7.8-22.4
						h0.2c6.1,17.1,23,19.8,23.2,19.8l0,0l0,0c3.6,5.9,9.5,9.1,9.7,9.3h0.2h-0.2C30.9,66.1,28.1,66.7,25,66.7L25,66.7z M3.8,59.3
						c1.5,0.9,11.4,7.2,21.3,7.2c3,0,5.7-0.6,8.2-1.7c-0.9-0.6-6.3-3.8-9.5-9.1c-0.9-0.2-17.1-3-23.2-19.6c-0.4,2.3-0.9,13.7,7.8,22
						l0.2,0.2H8.3C8.1,58.3,5.3,59.3,3.8,59.3L3.8,59.3z"/>
				</g>
				<g>
					<path class="st1" d="M22.8,54.2c0,0-2.8-5.1-3.4-11.2c0,0-13.1-6.6-12.2-24.5c0,0-4.9,8.4-3.4,19c0,0-3-1.3-3.2-2.1
						C0.5,35.4,4.9,50.5,22.8,54.2z"/>
					<path class="st2" d="M22.9,54.2L22.9,54.2C5.3,50.7,0.5,35.4,0.5,35.4h0.2c0.2,0.6,2.3,1.5,3,1.9C2.2,26.8,7,18.5,7.2,18.3h0.2
						c-0.9,17.7,12,24.5,12.2,24.5l0,0l0,0C19.9,48.8,22.8,54,22.9,54.2L22.9,54.2L22.9,54.2z M0.7,35.7C1.7,38.2,6.8,50.9,22.6,54
						c-0.6-0.9-2.8-5.7-3.2-11c-0.8-0.4-12.9-7.2-12.2-24.3c-0.9,1.7-4.6,9.3-3.2,18.6v0.2H3.8C3.8,37.4,1.5,36.5,0.7,35.7L0.7,35.7
						z"/>
				</g>
				<g>
					<path class="st1" d="M19.1,41.4c0,0-0.4-6.6,1.3-12c0,0-6.8-9.3-1.5-22c0,0-6.5,4.6-9.5,13.7c0,0-1.5-1.7-1.9-2.8
						C7.4,18.1,6.4,33.8,19.1,41.4z"/>
					<path class="st2" d="M19.3,41.4L19.3,41.4C6.4,34,7.4,18.3,7.4,18.1h0.2c0.4,0.9,1.5,2.3,1.9,2.8C12.5,12,19,7.4,19,7.2
						l0.2-0.2L19,7.2c-5.3,12.5,1.5,21.8,1.5,22l0,0l0,0C19,34.6,19.3,41.2,19.3,41.4L19.3,41.4L19.3,41.4z M7.6,18.5
						c0,2.3,0.2,16,11.6,22.8c0-1.1-0.2-7,1.3-11.8c-0.6-0.8-6.6-9.9-1.7-21.8c-1.3,0.9-6.5,5.5-9.3,13.5v0.2l-0.2-0.2
						C9.3,20.9,8.1,19.6,7.6,18.5L7.6,18.5z"/>
				</g>
				<g>
					<path class="st1" d="M20.9,27.9c0,0,1.7-5.3,5.1-8.9c0,0-2.1-7.8,4.7-16.9c0,0-6.5,2.3-10.6,8.9c0,0-0.4-1.9-0.6-3.8
						C19.3,7.1,13.8,16.9,20.9,27.9z"/>
					<path class="st2" d="M20.9,28.1L20.9,28.1c-7-11-1.5-20.9-1.5-21.1l0.2-0.2v0.4c0,1.5,0.4,3,0.6,3.6c4.2-6.5,10.4-8.9,10.4-8.9
						l0.2-0.2l-0.2,0.4C23.9,11,25.8,18.8,26,18.8l0,0l0,0C22.6,22.6,20.9,27.8,20.9,28.1L20.9,28.1L20.9,28.1z M19.3,7.4
						c-0.8,1.7-4.7,10.6,1.5,20.3c0.4-0.9,2.1-5.5,4.9-8.9c-0.2-0.6-1.7-8.2,4.6-16.5c-1.3,0.6-6.6,3-10.3,8.7l-0.2,0.2V11
						C19.9,10.9,19.5,9.1,19.3,7.4L19.3,7.4z"/>
				</g>
				<g>
					<path class="st1" d="M26.9,17.5c0,0,2.7-3.2,6.8-6.1c0,0,1.1-5.3,7.4-11.2c0,0-5.7,0.9-10.4,4.7c0,0-0.2-1.3,0.2-3
						C31.1,1.9,25,8.8,26.9,17.5z"/>
					<path class="st2" d="M26.9,17.7L26.9,17.7c-1.9-8.9,4-15.8,4-16h0.2c-0.4,1.5-0.4,2.5-0.2,2.8c4.6-3.4,10.3-4.4,10.3-4.4h0.4
						l-0.2,0.2c-6.1,5.7-7.4,11-7.4,11l0,0C29.8,14.5,26.9,17.7,26.9,17.7L26.9,17.7L26.9,17.7z M30.9,2.3
						c-1.1,1.3-5.3,7.6-3.8,15.2c0.6-0.6,3-3.4,6.8-5.9c0.2-0.4,1.5-5.5,7.2-11C40,0.8,35.1,1.9,31.1,5.2h-0.2V5
						C30.7,5,30.5,3.8,30.9,2.3L30.9,2.3z"/>
				</g>
				<g>
					<path class="st1" d="M34.9,10.9c0,0,4.6-2.7,6.8-3.4c0,0,1.5-4,7.8-6.1c0,0-4.7-0.6-8.2,1.9c0,0,0-1.5,0.6-2.7
						C41.7,0.4,37.2,3.6,34.9,10.9z"/>
					<path class="st2" d="M34.7,11v-0.2C37,3.6,41.6,0.6,41.6,0.4l0.4-0.2l-0.2,0.4c-0.4,0.9-0.6,2.1-0.6,2.5
						c2.5-1.5,5.3-1.9,6.8-1.9c0.8,0,1.3,0,1.3,0v0.2c-6.1,2.1-7.6,6.1-7.6,6.1l0,0l0,0c-2.3,0.9-6.8,3.4-6.8,3.4L34.7,11L34.7,11z
						 M41.6,0.8c-0.9,0.8-4.6,4-6.5,9.9c0.9-0.6,4.6-2.7,6.6-3.4c0.2-0.4,1.7-4,7.4-5.9c-0.2,0-0.6,0-0.9,0c-1.5,0-4.6,0.2-6.8,1.9
						h-0.2V3.1C41,3.1,41,1.9,41.6,0.8L41.6,0.8z"/>
				</g>
				<g>
					<path class="st1" d="M42.7,7.1c0,0,6.8-2.5,14.2-3.2c0,0-2.3-1.9-7.8-0.8c0,0-0.2-0.8,0.6-1.5C49.7,1.5,45.2,2.3,42.7,7.1z"/>
					<path class="st2" d="M42.5,7.2l0.2-0.2c2.5-4.6,7-5.5,7.2-5.5h0.2l-0.2,0.2c-0.6,0.6-0.6,1.1-0.6,1.3c1.1-0.2,2.3-0.4,3.4-0.4
						c3,0,4.4,1.1,4.4,1.1h0h-0.2c-7.4,0.8-14.2,3.2-14.2,3.2L42.5,7.2L42.5,7.2z M49.5,1.7c-0.9,0.2-4.6,1.3-6.6,5.1
						c1.1-0.4,7.4-2.5,13.9-3c-0.4-0.4-1.7-0.9-4-0.9c-1.1,0-2.3,0.2-3.4,0.4l0,0l0,0C49.1,3.1,49,2.3,49.5,1.7L49.5,1.7z"/>
				</g>
				<g>
					<path class="st1" d="M35.1,65.9c0,0,6.5,4,15,4.9c0,0-6.5,10.3-29.6,6.6c0,0,2.3-1.5,3.8-2.3c0,0-11.8-1.1-20.5-15.4
						C3.6,59.7,21.6,72.8,35.1,65.9z"/>
					<path class="st2" d="M29.8,78.5c-2.8,0-6.1-0.2-9.3-0.8h-0.2l0.2-0.2c0,0,2.1-1.5,3.6-2.3c-1.7-0.4-12.3-2.5-20.3-15.4l0.2-0.2
						c0.2,0,11.4,8.2,22.6,8.2c3.2,0,6.1-0.6,8.7-1.9l0,0l0,0c0,0,6.6,4,15,4.9h0.2v0.2C50.1,71.1,45.2,78.5,29.8,78.5L29.8,78.5
						L29.8,78.5z M20.7,77.5c3.2,0.6,6.3,0.8,9.1,0.8l0,0c14.2,0,19.4-6.3,20.1-7.2c-8-0.9-14.2-4.6-14.8-4.9
						c-2.7,1.3-5.5,1.9-8.7,1.9l0,0C16.1,68,6,61.4,3.9,60c8.5,13.7,20.1,15,20.3,15h0.2l-0.2,0.2C22.9,75.8,21.2,77.1,20.7,77.5
						L20.7,77.5z"/>
				</g>
				<g>
					<path class="st1" d="M52.9,71.2c0,0,5.5,0.8,12.2-0.4c0,0-2.3,11.6-20.3,12.7C38.7,84,30,83.4,20.9,77.9
						C20.7,77.9,43.5,82.5,52.9,71.2z"/>
					<path class="st2" d="M41.7,83.8c-7.6,0-14.6-1.9-21.1-5.9v-0.2c0,0,4.6,0.9,10.4,0.9c7,0,16.3-1.3,21.7-7.6l0,0l0,0
						c0,0,1.9,0.2,4.6,0.2s5.1-0.2,7.6-0.6h0.2v0.2c0,0.2-2.5,11.6-20.3,12.9C43.6,83.8,42.7,83.8,41.7,83.8L41.7,83.8z M21.2,78.1
						c7.2,4.2,15.2,6.1,23.5,5.5c16.7-1.1,19.9-11.4,20.1-12.5c-2.3,0.4-4.9,0.6-7.4,0.6c-2.5,0-4.2-0.2-4.6-0.2
						C47.6,77.7,38.1,79,31.1,79l0,0C26.4,78.8,22.6,78.3,21.2,78.1L21.2,78.1z"/>
				</g>
				<g>
					<path class="st1" d="M66.4,70.5c0,0,6.3-0.9,11.2-7.6c0,0-7.2,12.3-20.1,17.5C57.5,80.6,64.2,77.5,66.4,70.5z"/>
					<path class="st2" d="M57.5,80.6L57.5,80.6c0-0.2,6.6-3.2,8.7-10.1l0,0l0,0c0,0,6.3-0.9,11-7.6l0.2,0.2
						C77.4,63.3,70,75.4,57.5,80.6L57.5,80.6z M66.4,70.7c-1.5,4.7-5.3,7.8-7.4,9.1c8.9-4.2,15-11.8,17.3-15
						C71.9,69.5,67,70.5,66.4,70.7L66.4,70.7z"/>
				</g>
				<g>
					<path class="st1" d="M78.2,47.5l4.6-0.2c0,0-1.3,10.3-4.7,14.6C78,61.9,81.8,56.1,78.2,47.5z"/>
					<path class="st2" d="M78.2,61.9L78.2,61.9c-0.2-0.2,3.4-6.1,0-14.4v-0.2l4.7-0.2v0.2C82.8,47.5,81.4,57.6,78.2,61.9L78.2,61.9z
						 M78.4,47.5c2.5,6.3,1.1,11,0.4,13.1c2.7-4.4,3.8-12.3,4-13.3L78.4,47.5L78.4,47.5z"/>
				</g>
				<g>
					<path class="st1" d="M49.7,5.2c0,0-32.1,5.9-30,36.5c2.1,30.6,41.8,32.3,50.5,27c0,0,12.3-5.1,8.7-18.6
						c-2.7-9.9-14.4-8.2-16.9-7.4c-2.5,0.8-5.9,3.8-5.9,3.8s4,3.2,5.5,5.1c0,0,3-5.3,7.8-3.8c4.9,1.5,5.3,5.7,4.9,8
						c-0.4,2.3-2.7,10.1-16,11.4c-13.3,1.3-33-3.4-36.8-21.3C17.4,27.9,26.9,11.4,49.7,5.2z"/>
					<path class="st2" d="M57.7,71.1c-8.7,0-17.5-2.3-24.1-6.3C25,59.7,20.3,51.7,19.5,41.6C18.4,25.9,26.7,16.7,33.8,12
						c7.8-5.3,15.8-6.8,15.8-6.8v0.2c-21.5,5.9-32.3,21.3-28.1,40.5C24.8,61.6,41,67.3,53.9,67.3c1.5,0,2.8,0,4.2-0.2
						c12.5-1.3,15.2-8.4,15.8-11.4c0.2-0.9,0.8-6.1-4.7-7.8c-0.6-0.2-1.1-0.2-1.7-0.2c-3.8,0-6.1,4-6.1,4v0.2v-0.2
						c-1.5-1.9-5.5-4.9-5.5-5.1l0,0l0,0c0,0,3.4-3,5.9-3.8c0.8-0.2,2.7-0.6,4.9-0.6c3.6,0,10.3,0.9,12,8c3.6,13.3-8.2,18.4-8.7,18.6
						C67.6,70.1,63,71.1,57.7,71.1L57.7,71.1z M45.2,6.5c-3,0.9-7.2,2.7-11.4,5.5c-7,4.7-15.2,13.9-14.2,29.6
						c1.5,23,24.5,29.2,38,29.2c5.3,0,9.9-0.9,12.3-2.3c0.6-0.2,12.2-5.3,8.5-18.4c-1.9-6.8-8.2-8-11.8-8c-2.3,0-4.2,0.4-4.9,0.6
						c-2.3,0.8-5.3,3.2-5.9,3.6c0.6,0.4,4,3.2,5.3,4.9c0.4-0.6,2.7-4,6.1-4c0.6,0,1.1,0,1.7,0.2c5.9,1.7,5.1,7,4.9,8.2
						c-0.6,3-3.2,10.3-16,11.6c-1.3,0.2-2.8,0.2-4.2,0.2C40.8,67.4,24.5,61.8,21,46c-1.9-9.1-0.6-17.7,4.2-24.7
						C29.8,14.7,36.4,9.7,45.2,6.5L45.2,6.5z"/>
				</g>
				<g>
					<path class="st1" d="M42.9,7.8c0,0,9.7-3.8,13.7-3.6c0,0-1.5,3-6.3,3.2c0,0-0.2,0.9,0.9,1.7C51.2,9.1,45.5,10.1,42.9,7.8z"/>
					<path class="st2" d="M48.6,9.5c-1.7,0-4.2-0.2-5.7-1.5h-0.2h0.2c0.2,0,9.7-4,13.7-3.6h0.2v0.2c0,0-1.7,3-6.3,3.2
						c0,0.2,0,0.9,0.9,1.5l0-0.2h-0.2C51.2,9.3,50.1,9.5,48.6,9.5L48.6,9.5z M43.1,7.8c1.5,1.1,3.8,1.3,5.3,1.3
						c1.1,0,2.1-0.2,2.5-0.2c-0.9-0.8-0.8-1.7-0.8-1.7l0,0l0,0c4.2-0.2,5.9-2.5,6.1-3H56C52.4,4.2,44.2,7.4,43.1,7.8L43.1,7.8z"/>
				</g>
				<g>
					<path class="st1" d="M41.9,8.4c0,0,3.6,2.1,9.1,1.1c0,0-1.1,2.7-7.4,3.2c0,0,1.1,0.8,1.5,0.9c0,0-6.1,1.9-9.9-1.7
						C35.3,11.8,39.3,9.3,41.9,8.4z"/>
					<path class="st2" d="M41.6,14.3c-2.7,0-4.7-0.8-6.3-2.3l0,0l0,0c0,0,4-2.7,6.6-3.6l0,0l0,0c0,0,2.5,1.3,6.3,1.3
						c0.9,0,1.7,0,2.7-0.2H51v0.2c0,0.2-1.3,2.5-7.2,3.2c0.2,0,0.9,0.6,1.3,0.6h0.4h-0.4C45.2,13.7,43.6,14.3,41.6,14.3L41.6,14.3z
						 M35.5,11.8c1.9,1.7,4.4,2.1,6.1,2.1c1.5,0,2.7-0.2,3.2-0.4c-0.6-0.2-1.3-0.8-1.3-0.8l-0.2-0.2h0.2c5.1-0.6,6.8-2.5,7.2-3
						c-0.8,0.2-1.5,0.2-2.5,0.2c-3.6,0-6.1-1.1-6.5-1.3C39.5,9.3,36,11.4,35.5,11.8L35.5,11.8z"/>
				</g>
				<g>
					<path class="st1" d="M34.3,12.6c0,0,4.6,3.2,11,1.3c0,0-1.3,6.5-9.3,6.6c-5.9,0-8.2-1.7-8.2-1.7S31.5,14.5,34.3,12.6z"/>
					<path class="st2" d="M35.7,20.5c-5.5,0-7.6-1.7-7.8-1.7l0,0l0,0c0,0,3.6-4.4,6.5-6.3l0,0l0,0c0,0,2.8,1.9,6.8,1.9
						c1.3,0,2.7-0.2,4-0.6h0.2v0.2c0,0-1.3,6.5-9.3,6.6C35.9,20.5,35.7,20.5,35.7,20.5L35.7,20.5z M28.1,18.8c0.4,0.4,2.8,1.7,8,1.7
						c7.2-0.2,8.9-5.5,9.1-6.5c-1.3,0.4-2.7,0.6-4,0.6c-3.8,0-6.5-1.7-6.8-1.9C31.7,14.3,28.4,18.3,28.1,18.8L28.1,18.8z"/>
				</g>
				<g>
					<path class="st1" d="M27.1,19.6c0,0,5.9,2.1,11.8,0.8l2.5,1.3l-11,3.6l-0.6,2.8l-1.3,0.8c0,0-3,0.8-6.1,0
						C22.4,28.9,23.9,23.2,27.1,19.6z"/>
					<path class="st2" d="M25.2,29.3c-1.1,0-2.1-0.2-2.8-0.4l0,0l0,0c0,0,1.7-5.7,4.7-9.3l0,0l0,0c0,0,3.4,1.1,7.6,1.1
						c1.5,0,2.8-0.2,4.2-0.4l0,0l2.7,1.3l-11.2,3.8l-0.8,2.8l-1.3,0.8C28.4,28.9,26.9,29.3,25.2,29.3L25.2,29.3z M22.4,28.9
						c0.9,0.2,1.7,0.4,2.8,0.4c1.7,0,3-0.4,3-0.4l1.1-0.8l0.6-2.8l0,0l10.8-3.6l-2.1-1.1c-1.3,0.2-2.7,0.4-4.2,0.4
						c-4,0-7.2-0.9-7.6-1.1C24.3,23,22.8,28.1,22.4,28.9L22.4,28.9z"/>
				</g>
				<g>
					<path class="st1" d="M22,30c0,0,3.8,0,6.5-0.8v9.9c0,0-2.1,2.1-7.2,2.5C21,41.4,20.3,35.5,22,30z"/>
					<path class="st2" d="M21,41.6L21,41.6c0-0.2-0.8-6.1,0.8-11.6l0,0l0,0l0,0c0.4,0,4,0,6.3-0.8h0.2v10.1
						C28.3,39.2,26.2,41.2,21,41.6L21,41.6L21,41.6z M22,30c-1.5,5.1-0.9,10.6-0.8,11.2c4.6-0.4,6.8-2.1,7-2.3v-9.7
						C25.8,30,22.4,30,22,30L22,30z"/>
				</g>
				<g>
					<path class="st1" d="M21.2,42.8c0,0,4-0.9,7-3.2v12.5c0,0-1.1,1.1-3,1.9C25.2,54,22.4,50.5,21.2,42.8z"/>
					<path class="st2" d="M25.2,54.2L25.2,54.2c0,0-2.8-3.6-4-11.2l0,0l0,0c0,0,4-0.9,7-3.2l0.2-0.2v12.7l0,0
						C28.3,52.1,26.9,53.2,25.2,54.2L25.2,54.2L25.2,54.2z M21.4,42.9c0.9,7,3.4,10.4,3.8,11c1.5-0.6,2.7-1.7,2.8-1.7V39.9
						C25.4,41.8,21.8,42.8,21.4,42.9L21.4,42.9z"/>
				</g>
				<g>
					<path class="st1" d="M28.4,52.4c0,0-0.8,0.9-2.5,2.5c0,0,3.2,5.1,10.1,8.2c0,0,2.1-3.4,2.7-7.2L28.4,52.4z"/>
					<path class="st2" d="M36,63.3L36,63.3c-6.8-3-10.1-8.2-10.1-8.2l0,0l0,0c1.7-1.5,2.5-2.5,2.5-2.5l0,0l0,0l10.3,3.4l0,0
						C38.1,59.7,36,63.1,36,63.3L36,63.3L36,63.3z M26,55.1c0.4,0.6,3.6,5.1,9.9,8c0.4-0.6,2.1-3.6,2.5-7l-10.1-3.4
						C28.3,52.8,27.5,53.8,26,55.1L26,55.1z"/>
				</g>
				<g>
					<path class="st1" d="M37.6,63.7c0,0,1.3-4.4,1.1-7.8L51,55.7c0,0,1.7,7,0.8,10.8C51.8,66.7,45.7,67.1,37.6,63.7z"/>
					<path class="st2" d="M51.4,66.9c-1.5,0-6.8-0.2-13.9-3l0,0l0,0c0,0,1.3-4.4,1.1-7.8l0,0l12.5-0.2l0,0c0,0,1.7,7,0.8,11l0,0l0,0
						C51.8,66.9,51.6,66.9,51.4,66.9L51.4,66.9z M37.8,63.7c7,2.8,12.3,3,13.9,3c0.2,0,0.2,0,0.2,0c0.9-3.6-0.6-10.1-0.8-10.6
						l-12.2,0.2C39.1,59.3,37.9,63.1,37.8,63.7L37.8,63.7z"/>
				</g>
				<g>
					<path class="st1" d="M54.1,66.7c0,0-0.4-6.6-2.8-11.8l3-9.1c0,0,13.1,8.4,12,18.8C66.1,64.6,61.5,67.1,54.1,66.7z"/>
					<path class="st2" d="M55.2,66.9c-0.4,0-0.8,0-1.3,0l0,0l0,0c0,0-0.6-6.6-2.8-11.8l0,0l3.2-9.3l0,0c0.2,0,13.3,8.5,12,18.8l0,0
						l0,0C66.1,64.6,62.1,66.9,55.2,66.9L55.2,66.9z M54.1,66.7c7,0.2,11.4-1.9,12-2.1c1.1-9.9-10.6-17.9-11.8-18.6l-3,8.9
						C53.5,59.9,54.1,65.9,54.1,66.7L54.1,66.7z"/>
				</g>
				<g>
					<path class="st1" d="M61.5,51.7c0,0,5.7,5.9,4.9,12.5c0,0,7.6-3.6,7.2-10.3c-0.2-5.3-5.1-6.8-7.6-6.1
						C65.7,48.1,63.2,49,61.5,51.7z"/>
					<path class="st2" d="M66.4,64.6L66.4,64.6c0.8-6.6-4.9-12.7-4.9-12.7l0,0l0,0c1.7-2.8,4.4-3.8,4.7-3.8c0.4-0.4,0.8-0.4,1.1-0.4
						c2.5,0,6.3,1.7,6.5,6.3C74.2,60.6,66.6,64.4,66.4,64.6L66.4,64.6L66.4,64.6z M61.7,51.7c0.6,0.6,5.5,6.3,4.9,12.5
						c0.9-0.6,7.4-4.2,7-10.3c-0.2-4.6-3.8-6.3-6.3-6.3c-0.4,0-0.9,0-1.1,0.2C65.9,48.1,63.4,49,61.7,51.7L61.7,51.7z"/>
				</g>
				<g>
					<path class="st1" d="M55.8,43.3c0,0,1.9-7.2,8.5-9.5c0,0-6.3-2.3-8.7-10.8l-1.5,0.2v20.5L55.8,43.3z"/>
					<path class="st2" d="M53.9,43.9V23.2l1.7-0.4l0,0c2.5,8.4,8.7,10.6,8.7,10.8h0.2h-0.2c-6.6,2.3-8.5,9.3-8.5,9.5l0,0L53.9,43.9
						L53.9,43.9z M54.1,23.4v20.3l1.5-0.6c0.2-0.6,2.3-7.2,8.4-9.5c-1.1-0.6-6.5-3.2-8.5-10.6L54.1,23.4L54.1,23.4z"/>
				</g>
				<g>
					<path class="st1" d="M56.9,23c0,0,5.9-0.2,10.3,1.7c0,0,1.3,6.5,4.9,8c0,0-4.2-0.6-7.4,1.1C64.7,33.6,58.6,31.4,56.9,23z"/>
					<path class="st2" d="M64.7,33.8L64.7,33.8c-0.2,0-6.3-2.5-8-10.8v-0.2h0.2c0,0,0.2,0,0.6,0c1.7,0,6.3,0.2,9.7,1.7l0,0l0,0
						c0,0,1.3,6.5,4.7,8v0.2C72.1,32.7,67.9,32.1,64.7,33.8L64.7,33.8L64.7,33.8z M57.1,23c1.7,7.8,7.2,10.4,7.8,10.6
						c2.5-1.3,5.7-1.3,6.8-1.1c-3-1.7-4.4-7.2-4.4-7.8c-3.4-1.5-8-1.7-9.7-1.7C57.3,23,57.1,23,57.1,23L57.1,23z"/>
				</g>
				<g>
					<path class="st1" d="M68.3,25.1c0,0,0.9,6.1,4.2,7.6c0,0,5.1,0.9,9.1,3.2C81.6,35.7,78,29.5,68.3,25.1z"/>
					<path class="st2" d="M81.8,35.9l-0.2-0.2c-3.8-2.1-8.9-3-9.1-3.2c-3.2-1.5-4.2-7.4-4.2-7.6v-0.2h0.2
						c9.7,4.4,13.3,10.6,13.3,10.8V35.9L81.8,35.9z M68.5,25.3c0.2,0.9,1.1,6.1,4.2,7.4c0,0,4.9,0.9,8.7,3
						C80.7,34.2,76.9,28.9,68.5,25.3L68.5,25.3z"/>
				</g>
				<g>
					<path class="st1" d="M52.6,23.2c0,0,14.6-4.7,27.9,10.6c0,0-10.6-16.3-34-11.6L52.6,23.2z"/>
					<path class="st2" d="M80.5,33.8c-8-9.3-16.5-11.2-22.4-11.2c-3.4,0-5.5,0.8-5.5,0.8l-6.1-0.9v-0.2c2.8-0.6,5.7-0.9,8.4-0.9
						C72.3,21.3,80.7,33.6,80.5,33.8L80.5,33.8L80.5,33.8z M58.3,22.4c5.3,0,13.1,1.7,20.7,9.3c-3.2-3.6-11-10.3-23.9-10.3
						c-2.5,0-5.1,0.2-7.8,0.8l5.5,0.8C52.6,23.2,54.8,22.4,58.3,22.4L58.3,22.4z"/>
				</g>
				<g>
					<path class="st1" d="M68.9,24c0,0,4.4-3,9.7,0.4c0,0,2.7,4.2,3.4,10.8C82,35.4,77.3,27.8,68.9,24z"/>
					<path class="st2" d="M82,35.5c0,0-4.7-7.6-13.1-11.4h-0.2h0.2c0,0,1.7-1.3,4.4-1.3c1.9,0,3.6,0.6,5.5,1.7
						C78.8,24.5,81.4,28.7,82,35.5L82,35.5L82,35.5z M69.1,24c7.2,3.2,11.8,9.5,12.7,11c-0.8-6.5-3.2-10.4-3.2-10.4
						c-1.7-1.1-3.4-1.7-5.3-1.7C71.2,23,69.5,23.8,69.1,24L69.1,24z"/>
				</g>
				<g>
					<path class="st1" d="M57.3,21.3c0,0,5.1,0.2,9.9,2.1c0,0,5.9-2.8,11.4,0.9c0,0-3.2-5.9-5.3-7.6C73.3,16.7,64,14.3,57.3,21.3z"
						/>
					<path class="st2" d="M78.6,24.3c-1.9-1.3-4-1.9-6.5-1.9c-2.8,0-4.9,0.9-4.9,0.9l0,0l0,0c-4.6-1.9-9.9-2.1-9.9-2.1h-0.2l0-0.2
						c4-4.2,8.9-4.9,12.3-4.9c2.3,0,3.8,0.4,3.8,0.4C75.5,18.5,78.6,24.1,78.6,24.3L78.6,24.3L78.6,24.3z M72.1,22.2
						c2.3,0,4.4,0.6,6.1,1.7c-0.8-1.1-3.2-5.7-5.1-7.2c0,0-1.5-0.4-3.6-0.4c-3.2,0-8.2,0.8-12,4.7c0.9,0,5.5,0.4,9.7,2.1
						C67.4,23.2,69.5,22.2,72.1,22.2L72.1,22.2z"/>
				</g>
				<g>
					<path class="st1" d="M55.2,21.1c0,0,6.6-6.8,17.9-4.7c0,0-3.2-4-5.5-5.3c-2.3-1.3-18.2-2.1-26,9.1l1.7,2.5
						C43.3,22.6,47.4,20.9,55.2,21.1z"/>
					<path class="st2" d="M43.3,22.8l-1.7-2.5l0,0c6.3-9.1,17.7-9.9,20.9-9.9c2.7,0,4.6,0.4,5.1,0.8c2.3,1.3,5.5,5.3,5.5,5.3
						l0.2,0.2h-0.2c-1.5-0.2-2.8-0.4-4.4-0.4c-8.4,0-13.5,4.9-13.5,5.1l0,0C47.6,21.1,43.3,22.8,43.3,22.8L43.3,22.8L43.3,22.8z
						 M41.7,20.3l1.5,2.3c0.6-0.2,4.7-1.7,12-1.5c0.4-0.4,5.5-5.1,13.7-5.1c1.3,0,2.7,0.2,4,0.4c-0.8-0.8-3.4-4-5.3-5.1
						c-0.6-0.4-2.5-0.8-5.1-0.8C59.2,10.5,48,11.2,41.7,20.3L41.7,20.3z"/>
				</g>
				<g>
					<path class="st1" d="M45.9,13.7c0,0,9.5-5.1,21.1-3c0,0-5.3-4-10.4-5.5c0,0-2.5,2.7-5.7,2.7c0,0,0,0.9,0.9,1.3c0,0-1.3,3-7,3.8
						C44.8,12.9,45.2,13.3,45.9,13.7z"/>
					<path class="st2" d="M45.9,13.7L45.9,13.7c-0.8-0.4-1.1-0.8-1.1-0.8l-0.2-0.2h0.2c5.1-0.8,6.6-3.2,6.8-3.6
						c-0.9-0.4-0.9-1.3-0.9-1.5V7.4h0.2c3.2,0,5.5-2.7,5.7-2.7l0,0l0,0C61.7,6.3,67,10.3,67,10.3v0.2c-1.9-0.4-3.8-0.6-5.7-0.6
						C52.6,10.1,45.9,13.7,45.9,13.7L45.9,13.7L45.9,13.7z M45,12.9c0.2,0.2,0.6,0.4,0.9,0.6c0.6-0.4,7-3.6,15.4-3.6
						c1.7,0,3.6,0.2,5.3,0.4c-1.1-0.8-5.7-4-10.1-5.3c-0.4,0.4-2.7,2.7-5.7,2.7l0,0c0,0.2,0.2,0.9,0.9,1.3l0,0l0,0
						C51.8,9.1,50.5,12.2,45,12.9L45,12.9z"/>
				</g>
				<g>
					<path class="st1" d="M45.7,14.1c0,0-0.2,1.1-0.9,2.5c0,0,5.3-5.5,16.9-6.1C61.7,10.3,54.3,9.5,45.7,14.1z"/>
					<path class="st2" d="M44.8,16.6L44.8,16.6c0.6-1.3,0.9-2.5,0.9-2.5l0,0l0,0c6.6-3.4,12.5-3.8,14.8-3.8c0.8,0,1.1,0,1.1,0v0.2
						C50.1,11,44.8,16.4,44.8,16.6L44.8,16.6z M45.7,14.1c0,0.2-0.2,0.9-0.8,1.9c1.3-1.1,6.1-4.7,14.8-5.7
						C57.1,10.5,51.6,11,45.7,14.1L45.7,14.1z"/>
				</g>
				<g>
					<path class="st1" d="M55.6,21.1c0,0,0.8,0,1.3,0c0,0,3.8-5.1,13.5-4.9C70.4,16.2,62.4,15,55.6,21.1z"/>
					<path class="st2" d="M57.1,21.3L57.1,21.3c-0.6,0-1.1,0-1.3,0h-0.4l0.2-0.2c4.7-4.4,10.3-5.1,13.1-5.1c1.1,0,1.7,0.2,1.7,0.2
						v0.2C60.9,16,57.1,21.1,57.1,21.3L57.1,21.3L57.1,21.3z M55.8,21.1c0.2,0,0.8,0,1.1,0c0.4-0.4,3.4-4.2,10.4-4.9
						C64.5,16.4,60,17.3,55.8,21.1L55.8,21.1z"/>
				</g>
				<g>
					<path class="st1" d="M67.6,23.6c0,0,0.6,0.2,1.1,0.4c0,0,3.2-2.5,8.4-0.4C77.1,23.6,72.7,21.3,67.6,23.6z"/>
					<path class="st2" d="M68.7,24l-1.3-0.6h0.2c1.5-0.8,3-0.9,4.7-0.9c2.8,0,4.7,0.9,4.7,0.9v0.2c-1.3-0.6-2.7-0.8-4-0.8
						C70.4,22.8,68.7,24,68.7,24L68.7,24L68.7,24z M67.8,23.6l0.8,0.4c0.2-0.2,1.9-1.1,4.4-1.1c0.2,0,0.4,0,0.6,0
						c-0.4,0-0.8,0-1.3,0C70.8,22.6,69.3,22.8,67.8,23.6L67.8,23.6z"/>
				</g>
				<g>
					<path class="st1" d="M67.4,24.7c0,0,0.4,0.2,0.8,0.4c0,0,0.6,4.2,3,6.8C71.2,31.7,68.7,30.2,67.4,24.7z"/>
					<path class="st2" d="M71.2,31.9c0,0-2.5-1.7-3.8-7.2v-0.2h0.2c0,0,0.4,0.2,0.8,0.4l0,0l0,0C68.3,24.9,68.9,29.1,71.2,31.9
						L71.2,31.9L71.2,31.9z M67.6,24.7c0.8,3.2,1.9,5.1,2.7,6.1c-1.7-2.5-2.1-5.5-2.3-5.9C67.9,24.9,67.8,24.9,67.6,24.7L67.6,24.7z
						"/>
				</g>
				<g>
					<path class="st1" d="M55.8,23c0,0,0.6,0,0.9,0c0,0,0.8,6.3,6.3,9.9C63,32.9,57.9,30,55.8,23z"/>
					<path class="st2" d="M63,32.9c0,0-5.3-3-7.2-9.9v-0.2H56c0,0,0.6,0,0.9,0l0,0l0,0C56.7,23,57.7,29.1,63,32.9L63,32.9L63,32.9z
						 M55.8,23c0.9,3.4,2.8,5.9,4.4,7.4c-2.8-3.2-3.6-7-3.6-7.6C56.4,23,56,23,55.8,23L55.8,23z"/>
				</g>
				<g>
					<path class="st1" d="M42.1,8.2c0,0,0.4-0.2,0.6-0.2c0,0,1.7,1.5,5.1,1.5C47.8,9.5,44.8,9.7,42.1,8.2z"/>
					<path class="st2" d="M47.6,9.5c-0.8,0-3.2-0.2-5.5-1.3h-0.2h0.2c0,0,0.4-0.2,0.6-0.2l0,0l0,0C42.7,8,44.6,9.5,47.6,9.5v0.2
						C47.8,9.5,47.6,9.5,47.6,9.5L47.6,9.5z M42.3,8.2C43.1,8.6,43.8,9,44.6,9C43.5,8.6,42.9,8,42.7,8C42.7,8.2,42.5,8.2,42.3,8.2
						L42.3,8.2z"/>
				</g>
				<g>
					<path class="st1" d="M41.9,7.2c0,0,0.2-0.2,0.6-0.2c0,0,1.1-2.7,4.2-4.4C46.7,2.7,43.5,4,41.9,7.2z"/>
					<path class="st2" d="M41.7,7.4l0.2-0.2c1.5-3.2,4.7-4.7,4.7-4.7v0.2c-3,1.7-4.2,4.4-4.2,4.4l0,0l0,0c-0.4,0.2-0.6,0.4-0.6,0.4
						H41.7L41.7,7.4z M44.4,4.2c-0.8,0.8-1.7,1.7-2.3,2.8c0,0,0.2,0,0.4-0.2C42.5,6.7,43.1,5.5,44.4,4.2L44.4,4.2z"/>
				</g>
				<g>
					<path class="st1" d="M34.5,12.4c0,0,0.6-0.4,0.6-0.6c0,0,1.9,2.3,6.6,2.3C41.9,14.3,38.1,14.8,34.5,12.4z"/>
					<path class="st2" d="M41,14.5c-1.3,0-4-0.2-6.5-1.9h-0.2h0.2c0,0,0.6-0.4,0.6-0.6l0,0l0,0c0,0,2.1,2.3,6.6,2.3v0.2
						C41.9,14.5,41.6,14.5,41,14.5L41,14.5z M34.7,12.4c1.9,1.1,3.8,1.5,5.1,1.7c-2.8-0.6-4.4-1.9-4.6-2.1
						C35.1,12.2,34.9,12.4,34.7,12.4L34.7,12.4z"/>
				</g>
				<g>
					<path class="st1" d="M34,11.2l0.6-0.4c0,0,0.6-3,3.6-7C38.3,3.8,35.3,7.2,34,11.2z"/>
					<path class="st2" d="M34,11.6v-0.2c1.1-4.2,4.2-7.6,4.2-7.6L38.3,4c-2.8,4-3.6,7-3.6,7l0,0L34,11.6L34,11.6z M36.6,6.1
						c-0.9,1.3-1.9,3-2.5,5.1l0.4-0.2C34.7,10.5,35.1,8.8,36.6,6.1L36.6,6.1z"/>
				</g>
				<g>
					<path class="st1" d="M27.3,19.4c0,0,0.2-0.2,0.4-0.6c0,0,2.3,1.5,7,1.7C34.7,20.5,31.5,20.9,27.3,19.4z"/>
					<path class="st2" d="M34,20.7c-1.1,0-3.6-0.2-6.8-1.1h-0.2v-0.2c0,0,0.2-0.2,0.4-0.6l0,0l0,0c0,0,2.3,1.5,6.8,1.5v0.2
						C34.7,20.7,34.5,20.7,34,20.7L34,20.7z M27.3,19.4c1.7,0.6,3,0.8,4.2,0.9c-2.3-0.4-3.6-1.1-4-1.3
						C27.5,19.2,27.5,19.4,27.3,19.4L27.3,19.4z"/>
				</g>
				<g>
					<path class="st1" d="M22.2,29.1c0,0,1.7,0.6,5.5,0.2c0,0-2.1,0.8-5.9,0.6L22.2,29.1z"/>
					<path class="st2" d="M22.4,30H22l0.4-0.9l0,0c0,0,0.9,0.2,2.8,0.2c0.9,0,1.7,0,2.8-0.2v0.2C27.9,29.3,25.8,30,22.4,30L22.4,30z
						 M22.2,29.8h0.2c1.9,0,3.4-0.2,4.4-0.4c-0.6,0-1.1,0-1.5,0c-1.5,0-2.5-0.2-2.7-0.2L22.2,29.8L22.2,29.8z"/>
				</g>
				<g>
					<path class="st1" d="M21.2,42.6c0,0,0-0.4-0.2-0.9c0,0,3-0.2,6.3-1.7C27.3,40.1,25.2,41.4,21.2,42.6z"/>
					<path class="st2" d="M21.2,42.8L21.2,42.8c0-0.2,0-0.4-0.2-0.9v-0.2h0.2c0,0,3.2-0.2,6.3-1.7v0.2
						C27.3,40.1,25.2,41.6,21.2,42.8L21.2,42.8L21.2,42.8z M21.2,41.8c0,0.4,0,0.6,0.2,0.8c2.1-0.6,3.6-1.1,4.6-1.7
						C23.7,41.6,21.6,41.8,21.2,41.8L21.2,41.8z"/>
				</g>
				<g>
					<path class="st1" d="M25.2,54.2c0,0,0.4,0.4,0.6,0.8c0,0,1.9-1.5,2.3-2.3v-0.2C28.1,52.3,26.9,53.4,25.2,54.2z"/>
					<path class="st2" d="M25.8,54.9L25.8,54.9c-0.4-0.4-0.6-0.8-0.6-0.8l0,0l0,0c1.7-0.8,2.8-1.9,2.8-1.9l0.2-0.2v0.4
						C27.9,53.4,26,54.9,25.8,54.9L25.8,54.9L25.8,54.9z M25.4,54.2c0,0.2,0.2,0.4,0.4,0.6c0.4-0.2,1.9-1.5,2.3-2.3l0,0
						C27.7,52.6,26.7,53.6,25.4,54.2L25.4,54.2z"/>
				</g>
				<g>
					<path class="st1" d="M36.2,63.3c0,0,0.4,0.2,1.1,0.4c0,0,1.5-4.6,1.3-7.4C38.7,56.2,37.9,60.6,36.2,63.3z"/>
					<path class="st2" d="M37.4,63.8L37.4,63.8c-0.9-0.2-1.1-0.6-1.3-0.6l0,0l0,0c1.7-2.7,2.5-6.8,2.5-6.8h0.2
						C38.9,59.1,37.4,63.7,37.4,63.8L37.4,63.8L37.4,63.8z M36.4,63.1c0.2,0,0.4,0.2,0.9,0.4c0.2-0.6,1.3-4,1.3-6.5
						C38.3,58.3,37.6,61.2,36.4,63.1L36.4,63.1z"/>
				</g>
				<g>
					<path class="st1" d="M52.2,66.7c0,0,0.9,0,1.5,0c0,0-0.4-6.5-2.3-10.8C51.2,56.1,53.1,62.3,52.2,66.7z"/>
					<path class="st2" d="M53.3,66.9c-0.6,0-1.1,0-1.1,0H52l0,0c0.9-4.4-0.8-10.6-0.8-10.8h0.2c1.9,4.2,2.3,10.8,2.3,10.8l0,0l0,0
						C53.5,66.9,53.3,66.9,53.3,66.9L53.3,66.9z M52.2,66.7c0.2,0,0.8,0,1.3,0c0-0.8-0.4-5.7-1.9-9.7C52.2,59.1,52.9,63.5,52.2,66.7
						L52.2,66.7z"/>
				</g>
				<g>
					<path class="st1" d="M26,18.6c0,0,0.4-0.6,0.8-0.8c0,0-1.5-4.4,1.3-11.4C28.1,6.3,25,11.8,26,18.6z"/>
					<path class="st2" d="M26,18.8v-0.2c-1.1-6.8,1.9-12.3,2.1-12.3h0.2c-2.8,7-1.3,11.4-1.3,11.4l0,0l0,0
						C26.5,18.1,26.2,18.6,26,18.8L26,18.8L26,18.8z M27.1,8.8c-0.8,2.1-1.5,5.7-0.9,9.7c0.2-0.2,0.4-0.4,0.6-0.6
						C26.5,17.3,25.6,14.1,27.1,8.8L27.1,8.8z"/>
				</g>
				<g>
					<path class="st1" d="M20.5,29.1l0.2-0.9c0,0-3.2-3.8-3.6-11.8C17.1,16.4,16.7,22.6,20.5,29.1z"/>
					<path class="st2" d="M20.5,29.3L20.5,29.3c-4-6.6-3.4-12.7-3.4-12.9h0.2c0.4,8,3.6,11.6,3.6,11.8l0,0L20.5,29.3L20.5,29.3z
						 M17.2,19.4c0.2,2.3,1.1,5.9,3.2,9.5l0.2-0.6C20.3,27.9,18.2,25.1,17.2,19.4L17.2,19.4z"/>
				</g>
				<g>
					<path class="st1" d="M19.3,42.8c0,0-0.2-0.8-0.2-1.1c0,0-8.2-3.6-11.2-15.2C7.9,26.4,9.6,36.9,19.3,42.8z"/>
					<path class="st2" d="M19.5,42.8L19.5,42.8C9.6,36.9,8.1,26.4,7.9,26.2h0.2c3,11.6,11,15.2,11.2,15.2l0,0l0,0
						C19.3,41.8,19.3,42.6,19.5,42.8L19.5,42.8L19.5,42.8z M9.3,30.4c1.3,3.6,4.2,8.7,9.9,12.2c0-0.2,0-0.6,0-0.8
						C18.6,41.4,12.7,38.4,9.3,30.4L9.3,30.4z"/>
				</g>
				<g>
					<path class="st1" d="M23.3,55.3c0,0-0.6-0.8-0.6-0.9c0,0-8.9-0.9-16.9-9.3C5.8,44.8,11,52.4,23.3,55.3z"/>
					<path class="st2" d="M23.5,55.5h-0.2C11,52.6,5.7,45.2,5.7,45l0.2-0.2c7.8,8.4,16.9,9.3,16.9,9.3l0,0l0,0
						C22.9,54.5,23.5,55.3,23.5,55.5L23.5,55.5L23.5,55.5z M7.4,46.6c2.3,2.3,7.4,6.6,16,8.5c-0.2-0.2-0.4-0.6-0.4-0.8
						C22,54.3,14.4,53.2,7.4,46.6L7.4,46.6z"/>
				</g>
				<g>
					<path class="st1" d="M34.7,65.7c0,0-0.8-0.4-1.1-0.8c0,0-7,4.6-21.8-1.1C11.7,64,23.9,70.9,34.7,65.7z"/>
					<path class="st2" d="M26,67.6L26,67.6c-7.6,0-14.2-3.6-14.2-3.6v-0.2c4.9,1.9,9.5,2.8,13.7,2.8c5.5,0,8.2-1.7,8.2-1.7l0,0l0,0
						c0.4,0.2,1.1,0.6,1.1,0.8h0.2h-0.2C32.1,67.1,29.2,67.6,26,67.6L26,67.6z M13.3,64.6c2.5,1.1,7.2,2.8,12.7,2.8l0,0
						c3,0,6.1-0.6,8.5-1.7c-0.2-0.2-0.8-0.4-0.9-0.6c-0.4,0.2-3,1.7-8.2,1.7C21.6,66.9,17.6,66.1,13.3,64.6L13.3,64.6z"/>
				</g>
				<g>
					<path class="st1" d="M65.3,70.9c0,0,0.4,0,0.8-0.2c0,0-1.3,4.6-5.5,7.4C60.5,78.1,64.7,74.3,65.3,70.9z"/>
					<path class="st2" d="M60.7,78.3L60.7,78.3c0-0.2,4-4,4.6-7.4l0,0l0,0c0,0,0.4,0,0.8-0.2h0.2v0.2C66.1,70.7,64.7,75.2,60.7,78.3
						L60.7,78.3z M65.3,70.9c-0.4,2.3-2.3,4.7-3.4,6.1c2.7-2.5,3.8-5.5,4-6.3C65.7,70.9,65.5,70.9,65.3,70.9L65.3,70.9z"/>
				</g>
				<g>
					<path class="st1" d="M50.5,70.9c0,0,1.3,0.2,1.9,0.2c0,0-4.9,7.2-19.9,7.4C32.4,78.5,45.5,78.1,50.5,70.9z"/>
					<path class="st2" d="M32.4,78.7L32.4,78.7c0.2-0.2,13.1-0.6,18-7.6l0,0l0,0c0,0,1.3,0.2,1.9,0.2h0.2v0.2
						C52.4,71.2,47.4,78.5,32.4,78.7L32.4,78.7z M50.7,71.1c-3.4,4.7-10.4,6.6-14.6,7.2c11.2-0.9,15.6-6.1,16.3-7
						C51.8,71.2,50.9,71.1,50.7,71.1L50.7,71.1z"/>
				</g>
			</g>
			<g>
				<path class="st3" d="M56.6,29.7v-5.9c0-1.5-1.3-2.8-2.8-2.8h-8.5c-0.6-1.5-1.9-2.5-3.6-2.5s-3,0.9-3.6,2.5h-8.5
					c-1.5,0-2.8,1.3-2.8,2.8v5.9c0,0.9,0.4,1.9,1.1,2.5c-0.8,0.6-1.1,1.5-1.1,2.5v4.7c0,0.9,0.4,1.9,1.1,2.5
					c-0.8,0.6-1.1,1.3-1.1,2.3v10.3c0,1.7,1.5,3.2,3.2,3.2c0.9,0,1.7-0.4,2.3-0.9c0.4,0.6,0.9,0.8,1.7,0.8h4.6c0.2,1.7,1.5,3,3.2,3
					c1.7,0,3-1.3,3.2-3h4.7c0.6,0,1.1-0.2,1.5-0.6c0.6,0.6,1.3,0.8,2.1,0.8c1.7,0,3.2-1.5,3.2-3.2V44.1c0-0.9-0.4-1.7-1.1-2.3
					c0.8-0.6,1.1-1.5,1.1-2.5v-4.7c0-0.9-0.4-1.9-1.1-2.5C56,31.6,56.6,30.6,56.6,29.7z"/>
				<path class="st4" d="M55.2,44.3c0-0.9-0.8-1.5-1.5-1.5H29.4c-0.9,0-1.5,0.8-1.5,1.5c0,0.4,0,10.3,0,10.3c0,1.1,0.9,2.1,2.1,2.1
					c1.1,0,2.1-0.9,2.1-2.1v-8.7h19.4v8.7c0,1.1,0.9,2.1,2.1,2.1c1.1,0,2.1-0.9,2.1-2.1C55.2,54.7,55.2,44.7,55.2,44.3z"/>
				<path class="st4" d="M34.9,38.2c0.6,0,0.9-0.6,0.9-1.1c0-0.6-0.4-1.1-0.9-1.1h-3v-1.1h3c0.6,0,0.9-0.6,0.9-1.1
					c0-0.6-0.4-1.1-0.9-1.1h-5.1c-1.1,0-2.1,0.9-2.1,2.1v4.7c0,1.1,0.9,2.1,2.1,2.1h5.1c0.6,0,0.9-0.6,0.9-1.1
					c0-0.6-0.4-1.1-0.9-1.1h-3v-0.9H34.9z"/>
				<path class="st4" d="M53.3,32.7h-5.1c-0.6,0-0.9,0.6-0.9,1.1c0,0.6,0.4,1.1,0.9,1.1h3v1.1h-3c-0.6,0-0.9,0.6-0.9,1.1
					s0.4,1.1,0.9,1.1h3v1.1h-3c-0.6,0-0.9,0.6-0.9,1.1c0,0.6,0.4,1.1,0.9,1.1h5.1c1.1,0,2.1-0.9,2.1-2.1V35
					C55.2,33.6,54.3,32.7,53.3,32.7z"/>
				<path class="st4" d="M49,46.7c-0.9,0-1.5,0.8-1.5,1.7v5.9h-3.8v-1.1h1.9c0.6,0,0.9-0.6,0.9-1.1c0,0,0-3.8,0-4
					c0-0.6-0.4-1.1-0.9-1.1h-7.8c-0.6,0-0.9,0.6-0.9,1.1v4c0,0.6,0.4,1.1,0.9,1.1h1.7v1.1H36v-5.9c0-0.9-0.8-1.7-1.5-1.7
					c-0.9,0-1.5,0.8-1.5,1.7c0,0,0,6.8,0,7c0,0.6,0.4,1.1,0.9,1.1h5.7v0.9c0,1.1,0.9,2.1,2.1,2.1c1.1,0,2.1-0.9,2.1-2.1v-0.9h5.7
					c0.6,0,0.9-0.6,0.9-1.1c0-0.2,0-7,0-7C50.7,47.5,49.9,46.7,49,46.7z M39.5,49.2h4.4v1.7h-4.4V49.2z"/>
				<g>
					<path class="st5" d="M38.1,35.9c0.2,0.4,0.9,0.6,1.5,0.2l1.9-1.3l1.9,1.3c0.6,0.4,1.1,0.2,1.5-0.2c0.2-0.4,0-1.1-0.4-1.5
						l-1.1-0.8l1.1-0.8c0.6-0.4,0.8-0.9,0.4-1.5c-0.2-0.4-0.9-0.6-1.5-0.2l-1.9,1.3l-1.9-1.3c-0.6-0.4-1.1-0.2-1.5,0.2
						c-0.2,0.4,0,1.1,0.4,1.5l1.1,0.8l-1.1,0.8C37.9,34.8,37.8,35.5,38.1,35.9z"/>
					<path class="st5" d="M44.6,39.7L43.5,39l1.1-0.8c0.6-0.4,0.8-0.9,0.4-1.5c-0.2-0.4-0.9-0.6-1.5-0.2l-1.9,1.3l-1.9-1.3
						c-0.6-0.4-1.1-0.2-1.5,0.2c-0.2,0.4,0,1.1,0.4,1.5l1.1,0.8l-1.1,0.8c-0.6,0.4-0.8,0.9-0.4,1.5c0.2,0.4,0.9,0.6,1.5,0.2l1.9-1.3
						l1.9,1.3c0.6,0.4,1.1,0.2,1.5-0.2C45.3,40.9,45.2,40.1,44.6,39.7z"/>
				</g>
				<path class="st4" d="M55.2,23.8c0-0.9-0.8-1.5-1.5-1.5h-9.5c0-1.3-1.1-2.5-2.5-2.5c-1.3,0-2.5,1.1-2.5,2.5h-9.5
					c-0.9,0-1.5,0.8-1.5,1.5c0,0.4,0,5.9,0,5.9c0,1.1,0.9,2.1,2.1,2.1c1.1,0,2.1-0.9,2.1-2.1v-3.8c0-0.2,0-0.4,0-0.4h5.9
					c-0.9,0.9-1.5,1.7-2.7,2.7c-0.9,0.9-1.3,2.3-0.4,3c0.8,0.8,2.3,0.8,3.2-0.2c1.3-1.3,2.1-1.9,3.4-3.4c0-0.2,0.2-0.2,0.2-0.4
					l0.2,0.2c1.3,1.3,1.9,2.1,3.4,3.4c0.9,0.9,2.5,0.9,3.4,0.2c0.8-0.8,0.6-2.1-0.4-3c-1.1-1.1-1.7-1.7-2.7-2.7H52
					c0,0.2,0,0.4,0,0.4v3.8c0,1.1,0.9,2.1,2.1,2.1c1.1,0,2.1-0.9,2.1-2.1C55.2,29.7,55.2,24.1,55.2,23.8z"/>
			</g>
		</g>
	</g>
	<g>
		<g>
			<path d="M274.8,60.6h-4.9c-1.5,0-4.2-0.8-4.2-3.6c0-0.2,0-0.2,0-0.4l1.9-21.8h-9.1c-0.4,8.5-2.7,19-14.2,27.3l-3.8-3.6
				c10.4-5.9,13.1-15.8,13.7-23.7h-11.8v-4.2h12v-9.5h4.6v9.5h14.2l-2.3,24.5c0,1.1,0.6,1.3,1.3,1.3h0.6c3,0,3.2-0.2,4.2-8.9
				l4.7,2.7C280.1,59.9,278,60.6,274.8,60.6z"/>
			<path d="M287.5,46.7l-3.6-2.8c0,0,2.7-3.4,2.7-10.3c0-0.6,0-0.9,0-1.5h4.2c0,0.2,0,0.2,0,0.4C290.5,42.8,287.5,46.7,287.5,46.7z
				 M288.8,62.1l-3.8-3.6c6.1-4.4,7.8-10.3,7.8-21.5V21.9h4.4v15.2C297.2,49,295.8,56.2,288.8,62.1z M305.5,59.9V43.1l-3.6,2.1
				c0,0-1.9-6.6-4-11.6l3.8-1.5c1.9,4.6,3,8,3.6,10.3v-19h4.4v36.5H305.5z M318.3,61.4V42.9l-3.6,2.1c0,0-1.5-6.1-4-11.4l3.8-1.7
				c1.7,4.2,3,8.4,3.8,10.6V21.9h4.6v39.5C322.8,61.4,318.3,61.4,318.3,61.4z"/>
			<path d="M335,36.3v0.9c0,10.3,0,18.8-4.6,24.9l-3.6-3.4c3.6-4.9,3.8-10.8,3.8-20.3c0-0.4,0-0.9,0-1.3v-4.9h8.2
				c-0.6-1.3-1.7-3.2-2.7-4.9H331v-3.8h14.2v-2.3h5.1v2.5h14.2v3.8h-4.4c-0.8,1.9-1.7,3.6-2.5,4.9h9.5v4H335z M336.7,60.6v-3.8h13.1
				v-4.2h-8.5V49h8.5v-3.8h-7.2c-1.3,2.3-3.6,4.7-3.6,4.7l-3.2-3c0,0,4-3.4,5.9-9.1l4.2,1.3c-0.2,0.8-0.8,1.5-1.1,2.3h5.1v-3.8h4.6
				v3.8h10.8V45h-10.8v3.8h9.5v3.6h-9.5v4.2h13.3v3.8h-31V60.6z M341.2,27.6c0.8,1.3,1.9,3.6,2.5,4.9h8.9c0.8-1.1,1.7-3,2.7-4.9
				H341.2z"/>
			<path d="M410.9,61c-7-1.5-12.3-4.2-16.5-7.8v9.1h-4.7v-9.1c-3.8,3.8-9.1,6.3-15.8,7.8l-2.5-4.6c6.3-0.9,10.6-2.1,13.7-4.2h-12.5
				v-3.8h17.1v-3h-12.9V42h12.9v-2.7H375v-3.4h9.3c-0.8-1.7-1.5-3-2.3-4.2h-9.5v-3.8h6.1c-0.8-1.1-2.5-3-3.8-4.4l3.8-2.1
				c2.1,2.7,3.6,4.7,4.6,6.5h1.7v-6.8h4.6v6.8h5.1v-6.8h4.6v6.8h1.9c1.7-1.9,3-3.8,4.2-6.5l4,1.7c-0.9,1.7-2.3,3.6-3.4,4.7h5.7v3.8
				h-9.1c-0.4,1.3-1.3,2.8-2.1,4.2h8.7v3.4h-14.8V42h13.1v3.4h-13.1v3h17.3v3.8H399c3,1.7,7.4,3.2,13.7,4.2L410.9,61z M387.2,31.7
				c0.6,1.1,1.3,2.7,1.9,4.2h6.5c0.9-1.3,1.7-3,2.1-4.2H387.2z"/>
			<path d="M454.2,62.1c-8.7-5.3-14.8-13.3-17.5-20.5c-2.1,7.6-8.7,15.8-18,20.5l-2.8-4.4c12.5-5.7,17.1-15.4,17.9-22.2h-16.9v-4.2
				h17.1V21.1h4.7v10.4h17.1v4.2h-16.9c0,0,2.5,13.1,18,22L454.2,62.1z"/>
			<path d="M495.4,38.8v-5.3h-30.2v5.3h-4.6v-9.5h6.3c0,0-1.5-2.5-4-5.3l4.2-2.5c2.7,3.4,4,5.7,4,5.7l-3.4,2.1h10.4
				c0,0-1.3-2.5-4-5.5l4.2-2.5c2.7,3.4,4,5.7,4,5.7l-3.6,2.3h8.5c0,0,3.4-4.4,4.9-7.8l4.6,2.1c-1.1,2.1-2.8,4.2-4,5.7h7.2v9.5H495.4
				z M483.9,51.7v4.2c0,5.5-3.6,6.1-9.1,6.1l-1.9-4.4c1.1,0,2.1,0,3,0c2.5,0,3.6-0.2,3.6-1.9v-4.2h-18.6v-3.8h18.6v-3.4h2.5
				c2.5-1.1,4.7-2.8,4.7-2.8h-18.8v-4.2H493v4c0,0-3.4,3.6-9.1,6.5l0,0H500v4.2h-16.1V51.7z"/>
		</g>
	</g>
	<rect x="216.8" y="23.8" width="1.9" height="42.5"/>
</g>
</svg>
