<?xml version="1.0" encoding="UTF-8" standalone="no"?>
<!-- Created with Inkscape (http://www.inkscape.org/) -->

<svg
   xmlns:dc="http://purl.org/dc/elements/1.1/"
   xmlns:cc="http://creativecommons.org/ns#"
   xmlns:rdf="http://www.w3.org/1999/02/22-rdf-syntax-ns#"
   xmlns:svg="http://www.w3.org/2000/svg"
   xmlns="http://www.w3.org/2000/svg"
   xmlns:sodipodi="http://sodipodi.sourceforge.net/DTD/sodipodi-0.dtd"
   xmlns:inkscape="http://www.inkscape.org/namespaces/inkscape"
   width="1201.3425"
   height="1491.553"
   id="svg2"
   sodipodi:version="0.32"
   inkscape:version="0.92.4 (5da689c313, 2019-01-14)"
   version="1.0"
   sodipodi:docname="Shield_of_Loughborough_University.svg"
   inkscape:output_extension="org.inkscape.output.svg.inkscape">
  <sodipodi:namedview
     id="base"
     pagecolor="#ffffff"
     bordercolor="#666666"
     borderopacity="1.0"
     gridtolerance="10000"
     guidetolerance="10"
     objecttolerance="10"
     inkscape:pageopacity="0.0"
     inkscape:pageshadow="2"
     inkscape:zoom="0.20691285"
     inkscape:cx="-452.24511"
     inkscape:cy="724.48109"
     inkscape:document-units="px"
     inkscape:current-layer="layer2"
     showgrid="true"
     showguides="true"
     inkscape:guide-bbox="true"
     inkscape:window-width="1920"
     inkscape:window-height="999"
     inkscape:window-x="-9"
     inkscape:window-y="-9"
     inkscape:window-maximized="1"
     fit-margin-top="0"
     fit-margin-left="0"
     fit-margin-right="0"
     fit-margin-bottom="0">
    <inkscape:grid
       type="xygrid"
       id="grid2397"
       visible="true"
       enabled="true"
       originx="9.0563569"
       originy="-0.45531678" />
  </sodipodi:namedview>
  <defs
     id="defs4">
    <inkscape:perspective
       sodipodi:type="inkscape:persp3d"
       inkscape:vp_x="0 : 526.18109 : 1"
       inkscape:vp_y="0 : 1000 : 0"
       inkscape:vp_z="744.09448 : 526.18109 : 1"
       inkscape:persp3d-origin="372.04724 : 350.78739 : 1"
       id="perspective10" />
    <inkscape:perspective
       id="perspective2390"
       inkscape:persp3d-origin="372.04724 : 350.78739 : 1"
       inkscape:vp_z="744.09448 : 526.18109 : 1"
       inkscape:vp_y="0 : 1000 : 0"
       inkscape:vp_x="0 : 526.18109 : 1"
       sodipodi:type="inkscape:persp3d" />
    <filter
       inkscape:label="Sharpen More"
       inkscape:menu="Image Effects"
       inkscape:menu-tooltip="Sharpen edges and boundaries within the object, force=0.3"
       style="color-interpolation-filters:sRGB"
       id="filter5075-7-0">
      <feGaussianBlur
         stdDeviation="5"
         result="result3"
         id="feGaussianBlur5061-2-4" />
      <feColorMatrix
         values="1 0 0 0 0 0 1 0 0 0 0 0 1 0 0 0 0 0 50 0 "
         result="result7"
         id="feColorMatrix5063-7-2" />
      <feComposite
         operator="in"
         in2="SourceGraphic"
         result="result9"
         id="feComposite5065-1-1" />
      <feComposite
         k4="0"
         k2="0"
         in2="result7"
         operator="arithmetic"
         in="result9"
         k1="0.5"
         k3="0.5"
         result="result1"
         id="feComposite5067-5-2" />
      <feBlend
         in2="result1"
         result="result5"
         mode="screen"
         in="SourceGraphic"
         id="feBlend5069-8-0" />
      <feBlend
         in2="result5"
         mode="darken"
         in="result5"
         result="result6"
         id="feBlend5071-6-13" />
      <feComposite
         in2="SourceGraphic"
         operator="in"
         result="fbSourceGraphic"
         id="feComposite5073-1-3" />
      <feColorMatrix
         result="fbSourceGraphicAlpha"
         in="fbSourceGraphic"
         values="0 0 0 -1 0 0 0 0 -1 0 0 0 0 -1 0 0 0 0 1 0"
         id="feColorMatrix5114-4-60" />
      <feConvolveMatrix
         id="feConvolveMatrix5116-9-8"
         targetY="1"
         targetX="1"
         in="fbSourceGraphic"
         divisor="1"
         kernelMatrix="0 -0.3 0 -0.3 2.2 -0.3 0 -0.3 0"
         order="3 3"
         result="result1" />
      <feBlend
         in2="fbSourceGraphic"
         id="feBlend5118-5-3"
         mode="normal"
         result="result2" />
    </filter>
  </defs>
  <metadata
     id="metadata7">
    <rdf:RDF>
      <cc:Work
         rdf:about="">
        <dc:format>image/svg+xml</dc:format>
        <dc:type
           rdf:resource="http://purl.org/dc/dcmitype/StillImage" />
        <dc:title />
      </cc:Work>
    </rdf:RDF>
  </metadata>
  <g
     inkscape:groupmode="layer"
     id="layer2"
     inkscape:label="Shield base"
     style="display:inline"
     transform="translate(9.0563569,9.0081105)">
    <g
       id="g4982">
      <path
         inkscape:connector-curvature="0"
         sodipodi:nodetypes="cccccccc"
         id="path2399"
         d="m 10,9 c 0,0 0,804 0,824 0,240 140,380 240,440 140,81 145,85 340,198 195,-112 200,-116 340,-198 115,-70 240,-205 241,-440 0,-10.04988 0,-824 0,-824 z"
         style="opacity:1;fill:#000000;fill-opacity:1;fill-rule:evenodd;stroke:#000000;stroke-width:20;stroke-linecap:butt;stroke-linejoin:miter;stroke-miterlimit:4;stroke-dasharray:none;stroke-opacity:1" />
      <path
         id="path5303-3-8"
         d="m 480.66593,3.2248397 c 3.77486,19.0260723 0.75489,38.7838533 -9.43796,55.9805253 -15.10049,24.880147 -42.28163,40.247225 -71.72751,40.247225 29.44588,0 56.62702,15.00146 71.72751,39.88155 14.72299,24.88025 14.72299,55.24859 0,80.12892 -15.10049,24.5142 -42.28163,39.88138 -71.72751,39.88138 29.44588,0 56.62702,15.36734 71.72751,39.88174 14.72299,24.88018 14.72299,55.24847 0,80.12872 -15.10049,24.88015 -42.28163,40.24726 -71.72751,40.24726 29.44588,0 56.62702,15.00147 71.72751,39.88171 14.72299,24.87998 14.72299,55.24852 0,80.12893 -0.75506,0.73115 -1.13261,1.4634 -1.51013,2.19512 -1.13246,0.36614 -1.88747,1.09784 -2.64251,1.82945 -25.67107,14.26937 -57.38191,14.26937 -83.0531,0 -25.29319,-14.63552 -41.14882,-40.97903 -41.14882,-69.5182 0,28.53917 -15.85559,54.88268 -41.14887,69.5182 -25.67093,14.26937 -57.00457,14.26937 -82.67558,0 -25.67077,-14.26948 -41.14888,-40.97903 -41.14888,-69.5182 0,28.53917 -15.8554,55.24872 -41.14892,69.5182 -25.67088,14.26937 -57.004478,14.26937 -82.675466,0 -25.670886,-14.26948 -41.148934,-40.97903 -41.148934,-69.5182 0,9.14709 -1.887524,18.29428 -4.90763,26.70965 v 317.22255 c 3.020106,8.78131 4.90763,17.56256 4.90763,26.70969 0,-28.53926 15.478048,-54.88282 41.148934,-69.15244 25.670988,-14.26929 57.004586,-14.26929 82.675466,0 25.29352,14.26962 41.14892,40.61318 41.14892,69.15244 0,-28.53926 15.47811,-54.88282 41.14888,-69.15244 25.67101,-14.26929 57.00465,-14.26929 82.67558,0 25.29328,14.26962 41.14887,40.61318 41.14887,69.15244 0,-28.53926 15.85563,-54.88282 41.14882,-69.15244 25.67119,-14.26929 57.38203,-14.26929 83.0531,0 0.75504,0.36612 1.51005,1.09772 2.64251,1.82953 0.37752,0.73128 0.75507,1.46348 1.51013,2.19531 14.72299,24.88013 14.72299,55.24865 0,80.12897 -15.10049,24.51413 -42.28163,39.88142 -71.72751,39.88142 29.44588,0 56.62702,15.36713 71.72751,39.88141 14.72299,24.88026 14.72299,55.61448 0,80.12894 -15.10049,24.8823 -42.28163,40.2495 -71.72751,40.2495 29.44588,0 56.62702,14.9986 71.72751,39.88 14.72299,24.8819 14.72299,55.2479 0,80.1286 -15.10049,24.5154 -42.28163,39.8832 -71.72751,39.8832 29.44588,0 63.57948,9.3665 78.67997,33.881 C 508.13189,1321.1582 430,1373 430,1373 c 164.12362,92.5295 155,101.1066 225,61.1037 l 105,-60.0044 c 1.50993,-7.6829 -84.66173,-31.746 -49.42866,-114.4228 14.72283,-24.5145 41.90384,-39.881 71.34996,-39.881 -29.44612,0 -56.62713,-15.3678 -71.34996,-39.8832 -14.72304,-24.8807 -14.72304,-55.2467 0,-80.1286 14.72283,-24.8814 41.90384,-39.88 71.34996,-39.88 -29.44612,0 -56.62713,-15.3672 -71.34996,-40.2495 -14.72304,-24.51446 -14.72304,-55.24868 0,-80.12894 14.72283,-24.51428 41.90384,-39.88141 71.34996,-39.88141 -29.44612,0 -56.62713,-15.36729 -71.34996,-39.88142 -14.72304,-24.88032 -14.72304,-55.24884 0,-80.12897 0.37668,-0.73132 0.75548,-1.46352 1.51001,-2.56137 0.75545,-0.36605 1.88739,-1.09754 2.64259,-1.46347 25.67091,-14.26929 57.00462,-14.26929 82.67546,0 25.29331,14.26962 41.14893,40.61318 41.14893,69.15244 0,-28.53926 15.85534,-54.88282 41.14905,-69.15244 25.67091,-14.26929 57.00446,-14.26929 82.67529,0 25.67145,14.26962 41.52693,40.61318 41.52693,69.15244 0,-28.53926 15.4775,-54.88282 41.1484,-69.15244 25.6703,-14.26929 57.0048,-14.26929 82.6756,0 25.2925,14.26962 41.1498,40.61318 41.1498,69.15244 0,-9.14713 1.5093,-17.92838 4.9071,-26.70969 V 500.82882 c -3.3978,-8.41537 -4.9071,-17.56256 -4.9071,-26.70965 0,28.53917 -15.8573,55.24872 -41.1498,69.5182 -25.6708,14.26937 -57.0053,14.26937 -82.6756,0 -25.6709,-14.26948 -41.1484,-40.97903 -41.1484,-69.5182 0,28.53917 -15.85548,55.24872 -41.52693,69.5182 -25.67083,14.26937 -57.00438,14.26937 -82.67529,0 -25.29371,-14.26948 -41.14905,-40.97903 -41.14905,-69.5182 0,28.53917 -15.85562,55.24872 -41.14893,69.5182 -25.67084,14.26937 -57.00455,14.26937 -82.67546,0 -0.75571,-0.73121 -1.88766,-1.09754 -2.64259,-1.82945 -0.75569,-0.73121 -1.13252,-1.46346 -1.51001,-2.19512 -14.72304,-24.88041 -14.72304,-55.24895 0,-80.12893 14.72283,-24.88024 41.90384,-39.88171 71.34996,-39.88171 -29.44612,0 -56.62713,-15.36711 -71.34996,-40.24726 -14.72304,-24.5143 -14.72304,-55.24854 0,-80.12872 14.72283,-24.5144 41.90384,-39.88174 71.34996,-39.88174 -29.44612,0 -56.62713,-15.36718 -71.34996,-39.88138 -14.72304,-24.88033 -14.72304,-55.24867 0,-80.12892 14.72283,-24.88009 41.90384,-39.88155 71.34996,-39.88155 -29.44612,0 -56.62713,-15.367078 -71.34996,-40.247225 C 700.37856,42.008693 697.35831,22.250912 701.13349,3.2248397 Z"
         style="display:inline;fill:#6c3082;fill-opacity:1;fill-rule:nonzero;stroke:#ffffff;stroke-width:15.84807682;stroke-opacity:1"
         inkscape:connector-curvature="0"
         sodipodi:nodetypes="ccccccccccccccccccccccccsccscccccccccccccccccccccccccccccccccccccccccccccccccccccccccccccc" />
      <path
         inkscape:connector-curvature="0"
         sodipodi:nodetypes="cccccccc"
         id="path2399-6"
         d="m 5.1681752,5.2164216 c 0,0 0,801.6186384 0,821.5593784 0,239.2899 141.4341848,378.8736 242.4585348,438.6973 141.43415,80.7594 146.48537,84.7473 343.48291,197.4125 196.99753,-111.6681 202.04865,-115.6565 343.48289,-197.4125 116.17869,-69.7919 242.45899,-204.3927 243.46909,-438.6973 0,-10.02013 0,-821.5593784 0,-821.5593784 z"
         style="display:inline;opacity:1;fill:none;fill-opacity:1;fill-rule:evenodd;stroke:#000000;stroke-width:28.44906425;stroke-linecap:butt;stroke-linejoin:miter;stroke-miterlimit:4;stroke-dasharray:none;stroke-opacity:1" />
      <g
         id="g4936">
        <g
           style="fill:#decd87"
           id="g4924"
           transform="matrix(1.192126,0,0,1.0875546,-113.81948,-60.956789)">
          <path
             sodipodi:nodetypes="cccsc"
             id="path7182-1-8"
             d="m 469.10656,617.51651 c 15.44475,30.20711 -27.68058,32.75054 -16.04789,-0.85037 2.89119,-13.89004 17.0053,-17.75743 -2.94008,-34.66577 25.39223,10.98528 13.68599,20.59609 16.54252,30.44045 0.42653,1.47034 1.09588,2.49055 2.44545,5.07636 z"
             style="fill:#decd87;fill-opacity:1;fill-rule:evenodd;stroke:#000000;stroke-width:2.0011735;stroke-linecap:butt;stroke-linejoin:miter;stroke-miterlimit:4;stroke-dasharray:none;stroke-opacity:1"
             inkscape:connector-curvature="0" />
          <rect
             ry="0"
             y="727"
             x="554"
             height="12.020869"
             width="78.640327"
             id="rect7184-5-8"
             style="fill:#decd87;fill-opacity:1;stroke:#000000;stroke-width:2.0011735;stroke-miterlimit:4;stroke-dasharray:none;stroke-dashoffset:0;stroke-opacity:1" />
          <path
             sodipodi:nodetypes="ccccc"
             id="path7186-5-5"
             d="m 632.89292,739.23343 c 14.04406,0.93358 21.39279,13.70904 28.66569,26.61831 l -135.48821,0.30892 c 6.36605,-11.18511 10.89524,-22.86615 26.9703,-26.80377 l 79.85222,-0.1232 z"
             style="fill:#decd87;fill-opacity:1;fill-rule:evenodd;stroke:#000000;stroke-width:2.0011735;stroke-linecap:butt;stroke-linejoin:miter;stroke-miterlimit:4;stroke-dasharray:none;stroke-opacity:1"
             inkscape:connector-curvature="0" />
          <path
             sodipodi:nodetypes="ccccssscsccsccccscc"
             id="path7188-7-5"
             d="m 436.27338,646.123 51.80034,0.21995 c 1.94298,5.83084 2.87226,11.03818 9.70175,11.81831 l 198.32896,0.28954 c 13.03822,-10.26523 17.7773,-25.00392 24.23075,-34.74261 26.91345,-40.61358 47.9081,-17.05483 50.04449,-8.44757 6.38325,25.71713 -3.00325,42.66287 -18.55271,49.02387 -17.15511,7.01803 -38.25287,9.54149 -45.4323,19.85618 -0.20627,0.95524 -2.16308,2.01166 -0.7217,3.18871 24.50905,20.01521 -20.85798,24.20164 -10.18098,-2.10536 3.00997,-6.39065 19.43568,-19.74585 30.74822,-25.68988 18.68988,-10.32268 43.00345,-11.35381 29.77832,-41.06816 -4.00394,-8.99609 -20.1832,-8.60534 -49.86879,51.43686 -17.87564,28.84201 -36.423,53.95043 -58.86355,57.41831 H 536.7557 c -23.71713,-2.86511 -33.79064,-23.74934 -48.16219,-38.95721 -9.37219,-11.97355 -11.24332,-18.36318 -20.05452,-25.93678 -4.57283,-3.93042 -12.90216,-2.33598 -27.0682,-2.73389 l -5.19738,-13.56941 z"
             style="fill:#decd87;fill-opacity:1;fill-rule:evenodd;stroke:#000000;stroke-width:2.0011735;stroke-linecap:butt;stroke-linejoin:miter;stroke-miterlimit:4;stroke-dasharray:none;stroke-opacity:1"
             inkscape:connector-curvature="0" />
          <path
             id="path7306-5-0"
             d="m 523.39276,656.89651 19.41006,-15.4395 95.66385,-0.8344 20.44987,16.69155"
             style="fill:#decd87;fill-opacity:1;fill-rule:evenodd;stroke:#000000;stroke-width:2.0011735;stroke-linecap:butt;stroke-linejoin:miter;stroke-miterlimit:4;stroke-dasharray:none;stroke-opacity:1"
             inkscape:connector-curvature="0" />
          <rect
             y="610.63104"
             x="581.07739"
             height="12.329276"
             width="18.595106"
             id="rect7308-3-4"
             style="fill:#decd87;fill-opacity:1;stroke:#000000;stroke-width:2.0011735;stroke-miterlimit:4;stroke-dasharray:none;stroke-dashoffset:0;stroke-opacity:1" />
          <path
             sodipodi:nodetypes="cccc"
             id="path7310-3-0"
             d="m 552.69422,640.65146 22.34863,-18.82197 32.39685,0.21995 21.65566,17.72771"
             style="fill:#decd87;fill-opacity:1;fill-rule:evenodd;stroke:#000000;stroke-width:2.0011735;stroke-linecap:butt;stroke-linejoin:miter;stroke-miterlimit:4;stroke-dasharray:none;stroke-opacity:1"
             inkscape:connector-curvature="0" />
          <path
             sodipodi:nodetypes="ccc"
             id="path7312-2-4"
             d="m 571.49132,611.3788 c 8.62614,-30.57827 36.79612,-17.17427 37.59423,0.0571 z"
             style="fill:#decd87;fill-opacity:1;fill-rule:evenodd;stroke:#000000;stroke-width:2.0011735;stroke-linecap:butt;stroke-linejoin:miter;stroke-miterlimit:4;stroke-dasharray:none;stroke-opacity:1"
             inkscape:connector-curvature="0" />
          <path
             inkscape:connector-curvature="0"
             id="path4732-0-5"
             d="m 526.91309,722.56619 c -2.90986,-1.27074 -7.83311,-4.25657 -10.94053,-6.63584 -5.322,-4.07451 -26.53042,-29.20949 -38.96866,-46.18316 -3.09415,-4.22236 -7.20475,-8.51698 -9.13467,-9.54333 -1.92994,-1.02703 -8.4867,-2.19815 -14.5706,-2.60361 l -11.06163,-0.73749 -1.65005,-4.37134 -1.65006,-4.37111 h 24.08536 24.08538 l 1.30124,3.9685 c 2.66777,8.13637 -2.67255,7.7529 107.97723,7.7529 h 100.8832 l 3.55084,-3.26232 c 4.20014,-3.85886 6.09634,-6.59675 15.33001,-22.13424 8.91879,-15.00749 15.70135,-23.30697 22.51468,-27.55021 10.41046,-6.4833 20.01954,-5.11977 26.7634,3.79789 7.56515,10.00349 7.1527,29.03646 -0.87901,40.56354 -5.25847,7.54693 -9.64028,10.0687 -28.21905,16.24116 -19.07983,6.33901 -25.98292,9.56805 -29.63957,13.86417 -3.70875,4.35731 -3.57728,6.10829 0.77328,10.3002 3.81247,3.67361 4.70074,7.7455 1.97756,9.06571 -3.30749,1.60326 -8.47562,0.71586 -11.11703,-1.90884 -10.17984,-10.11578 8.17799,-28.12662 46.84444,-45.95906 14.84552,-6.84658 19.32569,-17.16605 13.62938,-31.3934 -2.76692,-6.91078 -4.45585,-8.5114 -8.96781,-8.49827 -9.27342,0.0233 -23.47423,15.95218 -37.59717,42.16312 -14.17987,26.3166 -32.68473,51.34693 -44.65543,60.40273 -12.86083,9.72926 -10.44393,9.43198 -76.32686,9.38467 -53.80629,-0.0456 -59.51677,-0.24744 -64.33782,-2.3526 z"
             style="fill:#decd87;fill-opacity:1;stroke:none;stroke-width:2.0011735;stroke-miterlimit:4;stroke-dasharray:none" />
        </g>
        <g
           style="fill:#decd87"
           id="g4950">
          <path
             d="m 984.84276,1050.1289 26.52724,34.5585 c 2.8943,3.5263 3.141,3.6778 0.7529,3.972 l -20.25813,3.7501 c -5.63494,1.7121 -5.4693,1.5736 -2.50152,4.5816 l 16.41225,20.4934 c 2.6311,1.8926 3.9356,-8.2833 7.0975,-1.9642 l 12.2554,25.1379 c 1.3475,2.5158 0.6887,3.0013 -3.5853,0.1175 l -19.3031,-13.143 c -8.59911,-3.9373 1.8507,-6.7001 1.3788,-7.2949 l -23.38598,-25.3499 c -6.76622,-6.3434 0.79357,-3.3826 17.12028,-9.7966 4.2467,-1.5358 4.4213,-1.2957 0.54526,-5.7015 l -20.44695,-24.894 c -3.27408,-4.2117 2.18946,-6.011 3.95607,-6.7058 0.83259,-0.3272 1.90939,0.1857 3.43523,2.2428 z"
             id="path3645-4-5-4-2-2-7"
             style="display:inline;fill:#decd87;fill-opacity:1;fill-rule:evenodd;stroke:#231f20;stroke-width:0.98103333;stroke-linecap:butt;stroke-linejoin:miter;stroke-opacity:1"
             inkscape:connector-curvature="0" />
          <path
             d="m 923.27189,1047.8399 -28.16581,32.9892 c -3.06125,3.3555 -3.3149,3.4925 -0.9444,3.9234 l 20.04813,4.9065 c 5.54406,2.0332 5.38532,1.8853 2.2759,4.7188 l -17.38297,19.5237 c -2.71923,1.7392 -3.52852,-8.4975 -6.99245,-2.3685 l -13.45704,24.4 c -1.46762,2.4351 -0.8332,2.9577 3.57485,0.3203 l 19.91338,-12.0176 c 8.77804,-3.4387 -1.52328,-6.7969 -1.02315,-7.3638 l 24.58247,-23.9736 c 7.06435,-5.9465 -0.6284,-3.4232 -16.62149,-10.7647 -4.16639,-1.7772 -4.35241,-1.5475 -0.26819,-5.7247 l 21.62547,-23.6868 c 3.47364,-4.018 -1.89501,-6.1283 -3.62552,-6.9233 -0.81541,-0.3739 -1.91568,0.08 -3.53918,2.0426 z"
             id="path3645-2-8-0-6-9"
             style="display:inline;fill:#decd87;fill-opacity:1;fill-rule:evenodd;stroke:#231f20;stroke-width:0.98103333;stroke-linecap:butt;stroke-linejoin:miter;stroke-opacity:1"
             inkscape:connector-curvature="0" />
          <g
             transform="matrix(-0.94603078,0.29484088,-0.06278407,0.7728396,1180.7806,422.54368)"
             id="g5605-5-8-1"
             style="display:inline;fill:#decd87;stroke-width:1.16213119">
            <path
               style="opacity:1;fill:#decd87;stroke:#000000;stroke-width:1.16213119;stroke-linecap:butt;stroke-linejoin:miter;stroke-opacity:1"
               d="m 113.41632,637.4992 c 5.94367,11.37728 26.70965,17.96864 28.58995,27.31471 1.32501,6.58583 -9.23243,12.52623 -9.72192,14.14956 -0.50128,2.34813 -0.41011,4.22013 0.58533,5.36541 3.77949,2.93696 7.80181,2.02498 12.22323,3.56809 4.43575,-0.92004 3.21253,10.61003 12.65757,11.71356 2.30992,0.33818 9.19062,-2.01552 12.93449,-3.33233 3.14572,-3.70021 9.65063,3.17365 10.70763,6.65618 1.27101,16.76282 -7.59735,37.22314 -21.21915,48.63856 -4.53488,4.1158 -7.14776,3.77206 -8.4171,0.31093 -6.60037,1.25873 -15.92524,4.70704 -14.7083,-0.3167 11.73666,-4.89696 22.93314,-16.89706 21.49398,-16.68273 -9.78738,9.36436 -17.24029,13.80036 -23.67027,16.07683 -7.73886,-0.4635 -11.77505,-2.8339 -10.93154,-5.15651 21.33994,-9.43507 23.84871,-14.26916 28.0755,-19.52302 -16.15756,13.07658 -23.39573,13.78172 -32.39297,16.92674 -9.07785,-0.29751 -8.71563,-3.37648 -8.30334,-4.99317 13.6781,-4.43778 26.99515,-9.13087 34.41432,-17.99481 -12.42368,10.71561 -25.34266,12.18381 -36.9588,14.57469 0,0 -13.085993,0.23336 -7.97014,-5.83725 0.1011,-0.12003 25.04808,-5.13267 33.78342,-12.41723 4.90172,-4.08763 -1.42971,-2.32658 -1.63542,-2.02661 -6.11889,8.92301 -34.566792,12.72435 -35.663907,12.59977 -7.730482,-0.87783 -12.398918,-8.42771 -9.197634,-8.43975 20.192631,-0.076 40.093411,-7.1876 38.161661,-6.5015 -19.93053,7.07874 -38.157874,4.08011 -38.157874,4.08011 -11.581943,-2.56074 -10.997919,-9.6667 -8.55588,-9.71783 14.441528,3.39277 28.968584,4.97798 43.760034,0.97494 -18.83462,2.33642 -33.586438,0.66093 -44.729359,-4.56077 -3.281146,-3.70122 -5.197336,-9.47125 -2.15247,-8.84186 14.086142,4.93734 28.063889,9.48615 39.996349,6.70414 -13.67006,0.8211 -31.314112,-4.16932 -40.0298,-9.17788 -5.856636,-4.61365 -8.225596,-12.36157 -5.226254,-11.16736 11.174377,7.00096 35.528114,11.61546 34.883604,8.50497 -5.95879,1.51855 -24.601064,-3.38807 -35.461785,-11.30213 -4.519641,-4.13848 -8.243759,-10.55528 -5.248591,-11.75704 11.747095,7.79835 33.5899,15.34976 34.2711,14.39707 0.248333,-0.34729 -0.08854,-1.00455 -0.454731,-1.76338 -13.263131,-2.55196 -26.119105,-9.81218 -33.302111,-14.76506 -4.510267,-5.40171 -8.1509,-18.70191 -1.311456,-13.69355 12.238882,9.76236 23.731497,16.75602 33.736291,18.2298 -17.257584,-5.91625 -26.136626,-14.7308 -32.951697,-20.8511 -7.35123,-7.36028 -4.954925,-20.34227 -0.59089,-15.08333 11.119807,14.10768 22.760978,24.94241 34.576726,28.10901 -14.700046,-7.61016 -25.433678,-17.57142 -33.121552,-29.33806 -5.579549,-7.24734 -3.132431,-21.86269 1.571176,-12.80772 4.514788,8.80931 20.661752,26.9195 33.20991,33.29197 9.55495,4.85239 2.24296,-1.05299 0.63231,-1.46263 -9.121574,-2.31996 -30.064641,-26.6209 -33.839923,-33.85625 -2.126019,-11.9608 3.662692,-17.69397 7.618207,-10.96206 4.959369,13.39388 15.819436,26.37954 27.438906,36.07784 2.69704,-1.58115 5.65883,-14.54735 10.60318,-3.93527 z"
               id="path5609-9-7-9"
               sodipodi:nodetypes="cscccccccccccccccccsssssscccccccccccscccccccccssccccc"
               inkscape:connector-curvature="0" />
            <path
               style="fill:#decd87;fill-opacity:1;stroke:#000000;stroke-width:1.16213119;stroke-linecap:butt;stroke-linejoin:miter;stroke-opacity:1"
               d="m 114.22412,650.66622 c 0.70497,2.60966 -10.05358,-12.24337 -11.76084,-6.10508 -2.11735,6.10241 5.59799,11.3277 10.39209,16.81359 -4.77681,-1.69345 -14.867413,-12.9414 -12.7232,-2.19049 1.25588,5.43014 7.74404,8.58169 13.1111,12.22146 -0.34661,0.78722 -14.183202,-7.32155 -13.931355,-0.94327 -0.356741,4.59507 4.994555,6.98818 13.580585,7.56424 -0.78366,2.28206 -12.2927,-0.79776 -9.91148,3.71315 3.92774,5.35245 7.84522,6.10036 11.75815,4.81182 0.75113,1.47127 -8.62625,3.72512 -5.91976,8.06267 3.0395,3.89557 8.61886,0.30516 13.22713,-0.42308 1.74082,0.70073 -9.3621,3.5031 -3.55403,7.22713 6.98338,4.77137 8.89227,1.19515 13.15835,1.40238 1.02639,2.35164 -10.20005,4.25266 -2.45179,9.31992 4.47505,1.89705 8.46189,-0.48303 12.41615,-3.1484 -0.3519,3.34196 -7.26797,7.10744 0.70826,9.91203 3.73789,-0.0148 9.23412,-0.96957 12.35829,-5.89999 -6.42434,9.2949 0.22779,8.97547 9.23497,6.92452 -4.78051,0.79471 -10.42871,4.14683 -13.62562,0.27407 -6.59368,1.76247 -12.05128,1.5952 -14.48737,-3.70426 -10.35649,-2.31215 -12.6387,-5.54594 -13.82885,-8.9044 0.0133,-2.42526 -8.7156,-4.5179 -8.12193,-8.65312 -3.25683,-1.87335 -5.86755,-1.01271 -8.69595,-4.65742 -1.4003,-1.80444 0.85538,-3.75297 0.88424,-5.31261 -4.78992,-4.44492 -9.375727,-8.20769 -5.4151,-11.26228 -1.930485,-4.23228 -6.74818,-8.0147 -1.410739,-13.3794 -0.532223,-1.08393 0.916889,-0.79469 -0.362866,-2.92538 -2.020368,-3.36378 -1.537817,-6.11505 1.756045,-9.87042 -0.38235,-4.38018 0.59622,-9.96569 4.13494,-12.49917 l 1.71444,-3.12968 c -0.0577,4.7133 2.98814,9.66958 7.76614,14.76147 z"
               id="path5611-1-6-7"
               sodipodi:nodetypes="ccccccccccccccccccccccscccscccc"
               inkscape:connector-curvature="0" />
            <path
               style="display:inline;opacity:1;fill:#decd87;stroke:#000000;stroke-width:1.16213119;stroke-linecap:butt;stroke-linejoin:miter;stroke-opacity:1"
               d="m 288.91837,568.4537 c -7.71332,16.66629 -30.37243,40.07515 -33.55603,51.38233 -2.24339,7.9678 8.07449,5.82369 8.37849,7.13971 0.22262,2.06778 -0.1153,4.10597 -1.30877,6.09896 -4.3488,6.08485 -8.45466,8.32072 -13.29722,13.45154 -4.53898,2.55566 -4.74611,13.69222 -14.80712,22.34997 -2.4694,2.18909 -9.39034,5.18043 -13.15143,6.7701 -2.82463,-1.38802 -10.54471,10.99483 -12.1052,15.49104 -3.50328,18.6118 3.16247,33.05612 15.98994,34.22838 4.22963,0.72153 7.01789,-1.71394 8.79859,-6.35627 6.76821,-3.91861 16.11417,-7.70105 15.48616,-12.0103 -11.69115,4.17608 -21.89615,0.46425 -20.41262,-0.45332 9.06629,2.0628 16.31872,0.80378 22.77635,-1.91082 8.18656,-6.63102 12.73161,-12.32472 12.14631,-14.09399 -21.18849,7.03516 -23.19758,3.95072 -26.95645,1.78952 15.27538,0.90336 22.78497,-4.10295 31.82611,-7.94375 9.57117,-7.51983 9.58911,-10.46547 9.36532,-11.83582 -13.78929,6.19968 -27.1664,11.84459 -33.81056,8.42704 11.65985,1.38864 25.03615,-7.3267 36.92497,-14.03872 0,0 13.71144,-10.14464 9.12462,-12.45762 -0.0906,-0.0458 -25.63902,14.49721 -33.86962,13.78315 -4.61849,-0.4007 1.80233,-3.57827 1.97954,-3.42661 5.2711,4.51196 34.65251,-14.08261 35.82071,-15.08448 8.23135,-7.05946 14.1104,-18.69413 10.75028,-16.16509 -21.19446,15.95222 -41.17229,24.28464 -39.23252,23.47139 20.01331,-8.39054 39.54181,-26.0111 39.54181,-26.0111 12.49349,-11.88458 12.7995,-18.88286 10.24174,-16.99769 -15.60401,15.02868 -31.06397,28.22714 -46.07861,35.76727 19.47599,-12.50035 35.18365,-25.97207 47.56037,-40.30235 3.92437,-6.49174 6.68304,-14.07223 3.40418,-10.99381 -15.43062,16.36846 -30.69715,32.24288 -42.86754,38.79532 14.24873,-9.99117 33.42238,-29.24021 43.22269,-41.41956 6.74693,-9.4947 10.23692,-19.51165 6.93281,-15.87628 -12.63994,16.22367 -38.81081,40.40514 -37.7316,36.62709 6.06089,-3.13638 26.27192,-23.08994 38.70062,-40.02343 5.28147,-7.93421 10.02231,-17.62929 7.03255,-16.51323 -13.3445,17.51571 -37.25859,42.78766 -37.85067,42.32808 -0.21584,-0.16752 0.22289,-1.12514 0.70564,-2.21276 14.25779,-13.21014 28.69711,-31.04117 36.88073,-41.94517 5.43506,-9.2533 10.97872,-26.11036 3.14869,-15.42086 -14.11502,19.96859 -27.08819,36.43726 -37.7849,45.92821 18.88759,-19.91439 29.35182,-36.22012 37.30011,-48.0579 8.67173,-13.56559 7.83485,-25.29545 2.57181,-16.30817 -13.50202,23.6431 -27.12811,44.26324 -39.9455,56.96966 16.42105,-19.66262 28.98114,-38.64496 38.57642,-57.10496 6.79668,-12.04034 6.11773,-25.44505 0.007,-12.20194 -5.88063,12.83521 -25.17948,44.67269 -39.18072,61.3271 -10.66141,12.68169 -2.21911,0.67506 -0.47477,-1.03389 9.87872,-9.67831 35.01484,-51.82461 39.91531,-62.41987 3.77988,-14.248 -1.55716,-15.67244 -6.58174,-5.46275 -6.9406,18.00244 -20.02471,40.2611 -33.481,59.67063 -2.62761,0.48097 -4.06037,-10.78334 -10.62531,4.28601 z"
               id="path5609-1-0-5-02"
               sodipodi:nodetypes="cscccccccccccccccccsssssscccccccccccscccccccccssccccc"
               inkscape:connector-curvature="0" />
            <path
               style="display:inline;fill:#decd87;fill-opacity:1;stroke:#000000;stroke-width:1.16213119;stroke-linecap:butt;stroke-linejoin:miter;stroke-opacity:1"
               d="m 286.36669,582.92176 c -1.0779,3.30013 12.14119,-20.83886 13.13989,-15.74852 1.43398,4.72706 -7.3439,16.33978 -13.08791,25.90682 5.23521,-5.57086 17.28653,-25.39385 13.64403,-12.40189 -2.02129,6.69932 -9.24223,15.16006 -15.34906,23.2434 0.26213,0.55146 15.84099,-18.94919 14.75137,-12.05139 -0.21985,4.54204 -6.14885,11.30375 -15.23958,18.72559 0.5277,1.7742 13.01179,-10.59759 9.9277,-3.97008 -4.81697,8.73906 -9.02748,12.63473 -12.96975,14.38833 -0.9791,2.14135 8.57652,-2.93709 5.17329,3.76661 -3.69575,6.50396 -9.09016,7.16343 -13.8351,10.05746 -1.91869,2.11797 9.37796,-3.75447 2.79713,4.76748 -7.95053,10.55491 -9.49241,8.31509 -13.99903,11.91976 -1.38204,3.28438 10.16092,-3.63265 1.36892,7.84026 -4.94468,5.54509 -8.82335,6.21112 -12.63091,6.55172 -0.0628,3.23001 6.71262,1.6931 -2.02606,10.97097 -3.92325,2.95217 -9.57133,6.31331 -12.21418,3.61633 5.54374,4.65996 -1.40035,9.60601 -10.59346,14.60359 4.91719,-2.96097 10.41472,-3.92532 14.27281,-10.53032 6.69603,-3.38431 12.4487,-7.89304 15.69243,-15.39216 11.17448,-10.65057 13.98939,-15.85835 15.67365,-20.33 0.29978,-2.53622 9.73674,-11.66405 9.64829,-15.53511 3.66236,-4.55297 6.29254,-5.72201 9.73416,-11.79494 1.7039,-3.00663 -0.41272,-3.26188 -0.24125,-4.87674 5.60493,-8.47059 10.90728,-16.06282 7.14339,-16.12588 2.57474,-5.97705 8.12313,-13.77399 3.2123,-15.1698 0.69912,-1.56079 -0.86002,-0.10652 0.7595,-3.36004 2.55677,-5.1364 2.40597,-7.64238 -0.5671,-8.97071 0.96816,-4.90321 0.66316,-9.99162 -2.7251,-9.84244 l -1.39546,-1.92531 c -0.54916,4.90363 -4.38879,12.5265 -10.06491,21.66701 z"
               id="path5611-3-6-6-6"
               sodipodi:nodetypes="ccccccccccccccccccccccscccscccc"
               inkscape:connector-curvature="0" />
          </g>
          <path
             d="m 934.947,968.62577 -22.73416,-37.6207 c -2.2655,-4.03412 -2.32738,-4.33461 -3.27774,-1.93368 l -9.16516,20.00379 c -3.13825,5.37044 -2.96827,5.23821 -4.75631,1.27783 l -13.28414,-23.01878 c -0.90391,-3.28709 8.42924,-1.69913 3.78329,-6.82028 l -18.57493,-20.03583 c -1.82387,-2.13102 -2.44195,-1.58568 -1.13782,3.69971 l 5.97834,23.90004 c 0.97565,10.09194 6.43236,0.0104 6.81914,0.67708 l 15.53926,31.68453 c 3.62389,8.88049 3.20657,0.15277 13.57823,-14.98661 2.58096,-3.97636 2.42023,-4.22772 5.17536,1.08288 l 15.989,28.49309 c 2.75868,4.62769 5.92404,-0.53802 7.04685,-2.17695 0.52915,-0.7717 0.38961,-2.04141 -0.97921,-4.22542 z"
             id="path3645-4-5-4-2-9"
             style="display:inline;fill:#decd87;fill-opacity:1;fill-rule:evenodd;stroke:#231f20;stroke-width:0.98103333;stroke-linecap:butt;stroke-linejoin:miter;stroke-opacity:1"
             inkscape:connector-curvature="0" />
          <path
             d="m 972.10491,967.56398 22.73416,-37.62082 c 2.2655,-4.03403 2.3274,-4.33449 3.27774,-1.93369 l 9.16519,20.0038 c 3.1382,5.37056 2.9683,5.23823 4.7563,1.27782 l 13.2841,-23.01867 c 0.9039,-3.28707 -8.4292,-1.69911 -3.7832,-6.82015 l 18.5749,-20.03594 c 1.8239,-2.13125 2.4419,-1.58593 1.1378,3.69961 l -5.9783,23.90004 c -0.9756,10.09204 -6.4324,0.0104 -6.8192,0.67593 l -15.5393,31.68451 c -3.6239,8.88038 -3.2065,0.15277 -13.57817,-14.98661 -2.58095,-3.97636 -2.42023,-4.22772 -5.17538,1.08288 l -15.989,28.49309 c -2.75871,4.62782 -5.92405,-0.53802 -7.04687,-2.17706 -0.52913,-0.7717 -0.38962,-2.0413 0.97923,-4.22554 z"
             id="path3645-5-1-2-9"
             style="display:inline;fill:#decd87;fill-opacity:1;fill-rule:evenodd;stroke:#231f20;stroke-width:0.98103333;stroke-linecap:butt;stroke-linejoin:miter;stroke-opacity:1"
             inkscape:connector-curvature="0" />
          <ellipse
             style="display:inline;opacity:0.98999999;fill:#decd87;fill-opacity:1;stroke:#000000;stroke-width:0.98103333;stroke-miterlimit:4;stroke-dasharray:none;stroke-opacity:1"
             id="path8988-2-3-9-5"
             cx="953.76453"
             cy="1028.7644"
             rx="24.367514"
             ry="123.31551" />
          <rect
             style="display:inline;opacity:0.98999999;fill:#decd87;fill-opacity:1;stroke:#000000;stroke-width:0.98103333;stroke-opacity:1"
             id="rect9009-2-8-4-7"
             width="51.246395"
             height="15.013388"
             x="928.1283"
             y="934.92535" />
          <rect
             style="display:inline;opacity:0.98999999;fill:#decd87;fill-opacity:1;stroke:#000000;stroke-width:0.98103333;stroke-opacity:1"
             id="rect9009-8-8-4-8-13"
             width="51.251846"
             height="13.884007"
             x="928.034"
             y="1106.7712" />
          <g
             id="g3072-2-6-6-5"
             style="display:inline;fill:#decd87;stroke:#000000;stroke-width:4.18088198;stroke-opacity:1"
             transform="matrix(0.24678468,0,0,0.223107,881.09756,834.3966)">
            <path
               sodipodi:nodetypes="csscccccccccsccsccccccccsccccccsccccccccccccccccsssccssccsccscccccccccccsscscccccccccccscccccccccc"
               transform="translate(-2.3841858e-7,-1.2525329e-6)"
               id="path3062-86-2-7-5"
               d="m 283.62852,111.12453 c 0,0 1.48886,21.58852 -11.16648,43.92148 -12.65534,22.33295 -18.6108,33.49943 -14.14421,44.6659 4.4666,11.16648 16.3775,20.84409 14.14421,34.9883 -13.71654,31.38585 1.23613,39.14167 4.46659,66.99886 -4.28242,21.26501 -7.31583,42.82403 0,64.02114 -19.84439,-24.93996 -6.43082,-37.62045 -9.67761,-58.81012 -17.76722,-43.2953 -17.08416,-52.2016 -15.63307,-72.95431 0.74443,-13.39978 1.84237,-27.81492 1.84237,-27.81492 0,0 -12.26442,21.85946 -11.51999,36.7481 5.30192,20.0577 -4.16894,40.71991 0.74444,60.29897 11.74376,33.27704 -10.78935,48.36791 17.86636,95.28727 0,0 -17.86636,-5.95545 -23.82182,-22.33295 -5.95545,-16.3775 -2.23329,-30.5217 -4.46659,-50.62136 -14.2521,-54.24335 -0.29172,-54.38261 -7.44432,-71.46545 -8.48408,-19.41404 -7.44431,-17.86637 -7.44431,-31.26614 0,-13.39977 -3.68475,-22.12266 -3.68475,-22.12266 0,0 -8.22616,22.86709 -8.22616,34.778 0.11052,25.53078 8.99712,28.07179 7.44431,75.93204 7.6703,18.91885 -12.40556,30.67203 -12.65534,48.38807 -2.30007,20.32521 0.78634,21.37297 16.3775,33.49943 -17.0962,5.32228 -24.77398,-15.39171 -26.05511,-29.03284 0.74443,-8.18875 5.21102,-27.54397 2.2333,-35.73272 -5.17772,-12.84732 -10.36745,-25.51792 -10.42205,-39.45489 2.9099,-14.21793 2.41512,-35.39556 1.91248,-28.70508 -0.45529,6.06024 -7.79144,7.64632 -11.59009,21.26076 -2.2333,10.42205 -5.21103,25.31068 -1.48887,33.49943 9.85783,16.1365 7.38163,27.76469 3.72216,50.62137 -3.12307,17.52832 9.41067,34.59873 23.07739,44.6659 7.44432,4.46659 12.65534,8.18875 12.65534,8.18875 -5.19777,9.29048 -16.11944,1.99771 -20.84409,-2.97772 -12.65534,-14.14421 -14.88864,-11.91091 -20.09966,-22.33296 -5.21102,-10.42204 -6.08318,-18.6637 -6.08318,-18.6637 0,0 -5.82773,12.70825 -2.10557,19.40813 3.3077,9.45915 9.47071,16.1706 16.3775,23.07739 -9.49048,4.05004 -16.77746,-5.71248 -23.82182,-10.42205 -8.62096,-8.89189 -8.3126,-13.98294 -8.3126,-13.98294 0,0 -1.36501,14.72738 3.84601,21.42726 20.97558,22.65436 41.28351,22.49293 69.23216,12.65534 -6.44178,12.87989 -18.61194,12.56945 -30.5217,16.3775 -4.4666,1.48887 -16.12205,-0.6167 -16.12205,-0.6167 0,0 8.67773,5.82772 18.35534,8.06102 16.15689,5.18042 31.69664,2.25146 45.41034,-7.44432 9.67761,-7.44432 12.65534,-14.88863 12.65534,-14.88863 -2.3517,11.37415 -5.74049,25.25051 5.21102,32.755 7.44432,3.72215 12.70825,2.66936 12.70825,2.66936 0,0 -7.49722,-7.13596 -8.24166,-12.34698 -1.3324,-9.50335 6.21357,-17.80782 14.88864,-20.84409 0,0 -0.74443,13.39977 1.48886,16.3775 2.2333,2.97773 8.18875,10.42205 16.3775,13.39977 8.18875,2.97773 11.05624,2.26314 17.43029,6.51926 6.88051,4.59431 7.354,13.43718 7.354,13.43718 17.7203,-10.14823 -3.52975,-29.14191 -10.64008,-38.56723 0,0 6.69988,3.72216 11.16647,7.44432 4.4666,3.72216 8.93319,10.42204 16.3775,11.91091 7.44432,1.48886 10.42205,2.97772 19.35523,2.97772 6.51255,0.17267 14.43589,-1.07343 17.86636,-7.44432 0,0 -8.18875,1.48887 -16.3775,-2.23329 -8.18875,-3.72216 -10.42204,-1.48886 -16.37749,-9.67761 -7.18188,-7.60341 -8.18875,-15.45851 -8.18875,-25.31069 0,0 15.63306,6.69989 22.33295,12.65535 6.69989,5.95545 7.44432,12.65534 16.3775,15.63306 15.61234,5.17274 25.57344,-9.23689 40.94375,1.48887 8.93318,7.44431 13.27204,13.49009 13.27204,13.49009 1.36884,-14.26727 -3.29881,-20.74638 -6.57216,-24.65657 -11.59465,-13.01092 -29.52251,-3.87595 -43.17704,-8.93318 0,0 10.42204,-3.72216 17.86636,-3.72216 19.45941,3.43148 22.01318,-0.48573 37.96602,-8.18875 9.61507,-3.86693 15.01333,-8.04045 22.59068,-18.79918 0,0 -10.67977,10.61043 -18.12408,9.866 -12.12253,-2.00986 -24.15964,-4.18665 -36.47716,-4.46659 8.18047,-6.74255 19.2232,-1.35346 28.28841,-4.46659 6.69988,-2.97773 3.72215,0 10.42204,-7.44432 6.69989,-7.44432 6.64004,-2.5427 11.16648,-10.42205 5.02492,-8.74707 5.95545,-15.26085 5.95545,-15.26085 0,0 -2.23329,5.76935 -9.67761,7.0721 -8.36077,1.46313 -9.67761,6.69989 -17.12193,8.18875 -18.03487,0.16194 -24.26628,1.99834 -38.71046,12.65534 6.24974,-33.89727 9.40216,-29.03573 20.09966,-40.19931 2.97773,-6.69989 4.6527,-16.74972 4.6527,-16.74972 0,0 -6.14156,10.79426 -15.07474,13.77199 -15.79608,2.72601 -17.1358,19.09169 -23.82182,30.5217 -3.06256,8.47561 -10.63683,11.18942 -17.12193,16.3775 12.45417,-17.87404 -3.27691,-38.66461 5.21102,-57.32125 9.80581,-13.16716 18.40864,-32.03463 12.65534,-48.38806 -8.00349,-14.2687 -0.89881,-30.57665 -8.93318,-44.66591 -16.13042,-15.1305 -6.82117,-29.72713 -13.39977,-50.62136 -3.72216,-11.16648 -0.74443,-20.84409 -0.74443,-26.79955 0,-5.95545 -0.74444,-10.42204 -0.74444,-10.42204 0,0 -10.42204,17.86636 -11.9109,29.03284 1.31454,21.25756 -3.323,46.12702 5.21102,66.25443 10.12233,14.67875 8.71959,35.63083 1.48886,51.36579 -10.08517,14.13112 -13.96978,29.06119 -14.1442,46.15477 -11.70316,-3.58259 -3.62977,-26.3603 -3.72216,-35.73272 -0.27142,-19.3393 -14.57566,-33.93474 -18.6108,-52.11023 -5.99804,-18.68481 3.72768,-37.93936 -0.74443,-56.57682 -8.91756,-15.59376 -16.75759,-30.6825 -14.1442,-49.1325 4.82388,-20.06097 1.7669,-30.45333 -8.93318,-47.64363 z"
               style="display:inline;overflow:visible;visibility:visible;opacity:1;fill:#decd87;fill-opacity:1;fill-rule:nonzero;stroke:#000000;stroke-width:4.18088198;stroke-linecap:round;stroke-linejoin:round;stroke-miterlimit:4;stroke-dasharray:none;stroke-dashoffset:8.75681114;stroke-opacity:1;marker:none;marker-start:none;marker-mid:none;marker-end:none;enable-background:accumulate"
               inkscape:connector-curvature="0" />
            <path
               sodipodi:nodetypes="cssscsssc"
               transform="translate(-2.3841858e-7,-1.2525329e-6)"
               id="path3064-3-9-7-2"
               d="m 193.22521,245.76862 c 0,0 -1.90624,20.19772 -3.02289,23.91988 -1.11664,3.72216 -1.86107,13.39978 -0.74443,18.6108 1.11665,5.21102 0.72554,13.67073 5.21103,19.72744 5.23747,7.0721 6.41798,18.50952 6.41798,18.50952 0,0 3.64699,-14.05926 1.39855,-20.3706 -2.10557,-5.9103 -3.82023,-13.79844 -4.19244,-19.00946 -0.37222,-5.21102 5.92633,-12.30861 2.33136,-19.32878 -2.86871,-5.60194 -7.18112,-16.68585 -7.39916,-22.0588 z"
               style="display:inline;overflow:visible;visibility:visible;opacity:1;fill:#decd87;fill-opacity:1;fill-rule:nonzero;stroke:#000000;stroke-width:4.18088198;stroke-linecap:round;stroke-linejoin:round;stroke-miterlimit:4;stroke-dasharray:none;stroke-dashoffset:8.75681114;stroke-opacity:1;marker:none;marker-start:none;marker-mid:none;marker-end:none;enable-background:accumulate"
               inkscape:connector-curvature="0" />
            <path
               sodipodi:nodetypes="ccccccccc"
               transform="translate(-2.3841858e-7,-1.2525329e-6)"
               id="path3066-1-4-1-3"
               d="m 313.1955,164.59457 c 0,0 -7.26823,22.58198 0.95472,35.48956 5.71322,12.06624 -0.4368,25.41545 1.86108,37.96602 1.06916,13.23567 9.26289,23.95936 12.28312,36.47716 2.2333,10.42204 2.97773,18.98301 2.97773,18.98301 6.8521,-14.09378 5.81123,-23.66484 4.44014,-30.46558 -5.67245,-13.77098 -6.47238,-19.96674 -5.18457,-36.53328 -1.99995,-30.03033 -4.83857,-35.58543 -10.92199,-41.72238 -6.71787,-4.91956 -6.83765,-20.02354 -6.41023,-20.19451 z"
               style="display:inline;overflow:visible;visibility:visible;opacity:1;fill:#decd87;fill-opacity:1;fill-rule:nonzero;stroke:#000000;stroke-width:4.18088198;stroke-linecap:round;stroke-linejoin:round;stroke-miterlimit:4;stroke-dasharray:none;stroke-dashoffset:8.75681114;stroke-opacity:1;marker:none;marker-start:none;marker-mid:none;marker-end:none;enable-background:accumulate"
               inkscape:connector-curvature="0" />
            <path
               sodipodi:nodetypes="cccssccsssc"
               transform="translate(-2.3841858e-7,-1.2525329e-6)"
               id="path3068-4-4-3-5"
               d="m 391.57113,270.80515 c 0,0 -5.95546,19.35523 -6.32767,21.58852 -4.13111,7.57427 -2.96216,16.21112 -5.58324,24.19404 0,16.74971 -5.21102,14.88863 -7.81654,18.23858 -2.60551,3.34994 -5.21102,9.30539 -5.58323,14.1442 -0.37222,4.83881 2.23329,23.82182 2.23329,23.82182 5.41895,-6.00254 7.2872,-15.0843 11.16648,-22.33296 4.46659,-7.81653 7.81653,-11.53869 11.16647,-18.98301 3.34995,-7.44432 1e-5,-13.58588 -0.37221,-21.40242 -0.37221,-7.81653 4.46659,-11.35258 3.72216,-20.28576 -0.74443,-8.93318 -2.2333,-18.98301 -2.60551,-18.98301 z"
               style="display:inline;overflow:visible;visibility:visible;opacity:1;fill:#decd87;fill-opacity:1;fill-rule:nonzero;stroke:#000000;stroke-width:4.18088198;stroke-linecap:round;stroke-linejoin:round;stroke-miterlimit:4;stroke-dasharray:none;stroke-dashoffset:8.75681114;stroke-opacity:1;marker:none;marker-start:none;marker-mid:none;marker-end:none;enable-background:accumulate"
               inkscape:connector-curvature="0" />
            <path
               sodipodi:nodetypes="cssssscsssssc"
               transform="translate(-2.3841858e-7,-1.2525329e-6)"
               id="path3070-2-6-8-2"
               d="m 241.42944,135.38563 c 0,0 -9.16672,20.77702 -10.28337,24.12697 -1.11664,3.34994 1.4405,9.36925 -1.16501,19.41908 -2.60551,10.04983 -6.99729,19.52036 -5.13621,23.98695 1.86108,4.46659 -1.27857,15.18604 -1.27857,23.747 0,8.56097 0.87991,13.61782 3.85763,19.57327 2.97773,5.95546 7.75268,13.8436 7.75268,13.8436 0,0 -0.30836,-9.00479 -0.30836,-16.07689 0,-7.07211 -0.37221,-8.18875 2.60551,-18.23858 2.97773,-10.04983 5.21103,-14.14421 5.58324,-21.96074 0.37222,-7.81654 1.48887,-16.3775 -0.37221,-21.96074 -1.86108,-5.58324 -2.12919,-13.27972 -4.83881,-20.84409 -3.17706,-8.86932 3.9557,-25.61583 3.58348,-25.61583 z"
               style="display:inline;overflow:visible;visibility:visible;opacity:1;fill:#decd87;fill-opacity:1;fill-rule:nonzero;stroke:#000000;stroke-width:4.18088198;stroke-linecap:round;stroke-linejoin:round;stroke-miterlimit:4;stroke-dasharray:none;stroke-dashoffset:8.75681114;stroke-opacity:1;marker:none;marker-start:none;marker-mid:none;marker-end:none;enable-background:accumulate"
               inkscape:connector-curvature="0" />
          </g>
          <g
             id="g3072-2-4-4-4-1"
             style="display:inline;fill:#decd87;stroke:#000000;stroke-width:4.18088198;stroke-opacity:1"
             transform="matrix(-0.24678468,0,0,-0.223107,1027.2407,1221.9299)">
            <path
               sodipodi:nodetypes="csscccccccccsccsccccccccsccccccsccccccccccccccccsssccssccsccscccccccccccsscscccccccccccscccccccccc"
               transform="translate(-2.3841858e-7,-1.2525329e-6)"
               id="path3062-86-5-40-3-8"
               d="m 283.62852,111.12453 c 0,0 1.48886,21.58852 -11.16648,43.92148 -12.65534,22.33295 -18.6108,33.49943 -14.14421,44.6659 4.4666,11.16648 16.3775,20.84409 14.14421,34.9883 -13.71654,31.38585 1.23613,39.14167 4.46659,66.99886 -4.28242,21.26501 -7.31583,42.82403 0,64.02114 -19.84439,-24.93996 -6.43082,-37.62045 -9.67761,-58.81012 -17.76722,-43.2953 -17.08416,-52.2016 -15.63307,-72.95431 0.74443,-13.39978 1.84237,-27.81492 1.84237,-27.81492 0,0 -12.26442,21.85946 -11.51999,36.7481 5.30192,20.0577 -4.16894,40.71991 0.74444,60.29897 11.74376,33.27704 -10.78935,48.36791 17.86636,95.28727 0,0 -17.86636,-5.95545 -23.82182,-22.33295 -5.95545,-16.3775 -2.23329,-30.5217 -4.46659,-50.62136 -14.2521,-54.24335 -0.29172,-54.38261 -7.44432,-71.46545 -8.48408,-19.41404 -7.44431,-17.86637 -7.44431,-31.26614 0,-13.39977 -3.68475,-22.12266 -3.68475,-22.12266 0,0 -8.22616,22.86709 -8.22616,34.778 0.11052,25.53078 8.99712,28.07179 7.44431,75.93204 7.6703,18.91885 -12.40556,30.67203 -12.65534,48.38807 -2.30007,20.32521 0.78634,21.37297 16.3775,33.49943 -17.0962,5.32228 -24.77398,-15.39171 -26.05511,-29.03284 0.74443,-8.18875 5.21102,-27.54397 2.2333,-35.73272 -5.17772,-12.84732 -10.36745,-25.51792 -10.42205,-39.45489 2.9099,-14.21793 2.41512,-35.39556 1.91248,-28.70508 -0.45529,6.06024 -7.79144,7.64632 -11.59009,21.26076 -2.2333,10.42205 -5.21103,25.31068 -1.48887,33.49943 9.85783,16.1365 7.38163,27.76469 3.72216,50.62137 -3.12307,17.52832 9.41067,34.59873 23.07739,44.6659 7.44432,4.46659 12.65534,8.18875 12.65534,8.18875 -5.19777,9.29048 -16.11944,1.99771 -20.84409,-2.97772 -12.65534,-14.14421 -14.88864,-11.91091 -20.09966,-22.33296 -5.21102,-10.42204 -6.08318,-18.6637 -6.08318,-18.6637 0,0 -5.82773,12.70825 -2.10557,19.40813 3.3077,9.45915 9.47071,16.1706 16.3775,23.07739 -9.49048,4.05004 -16.77746,-5.71248 -23.82182,-10.42205 -8.62096,-8.89189 -8.3126,-13.98294 -8.3126,-13.98294 0,0 -1.36501,14.72738 3.84601,21.42726 20.97558,22.65436 41.28351,22.49293 69.23216,12.65534 -6.44178,12.87989 -18.61194,12.56945 -30.5217,16.3775 -4.4666,1.48887 -16.12205,-0.6167 -16.12205,-0.6167 0,0 8.67773,5.82772 18.35534,8.06102 16.15689,5.18042 31.69664,2.25146 45.41034,-7.44432 9.67761,-7.44432 12.65534,-14.88863 12.65534,-14.88863 -2.3517,11.37415 -5.74049,25.25051 5.21102,32.755 7.44432,3.72215 12.70825,2.66936 12.70825,2.66936 0,0 -7.49722,-7.13596 -8.24166,-12.34698 -1.3324,-9.50335 6.21357,-17.80782 14.88864,-20.84409 0,0 -0.74443,13.39977 1.48886,16.3775 2.2333,2.97773 8.18875,10.42205 16.3775,13.39977 8.18875,2.97773 11.05624,2.26314 17.43029,6.51926 6.88051,4.59431 7.354,13.43718 7.354,13.43718 17.7203,-10.14823 -3.52975,-29.14191 -10.64008,-38.56723 0,0 6.69988,3.72216 11.16647,7.44432 4.4666,3.72216 8.93319,10.42204 16.3775,11.91091 7.44432,1.48886 10.42205,2.97772 19.35523,2.97772 6.51255,0.17267 14.43589,-1.07343 17.86636,-7.44432 0,0 -8.18875,1.48887 -16.3775,-2.23329 -8.18875,-3.72216 -10.42204,-1.48886 -16.37749,-9.67761 -7.18188,-7.60341 -8.18875,-15.45851 -8.18875,-25.31069 0,0 15.63306,6.69989 22.33295,12.65535 6.69989,5.95545 7.44432,12.65534 16.3775,15.63306 15.61234,5.17274 25.57344,-9.23689 40.94375,1.48887 8.93318,7.44431 13.27204,13.49009 13.27204,13.49009 1.36884,-14.26727 -3.29881,-20.74638 -6.57216,-24.65657 -11.59465,-13.01092 -29.52251,-3.87595 -43.17704,-8.93318 0,0 10.42204,-3.72216 17.86636,-3.72216 19.45941,3.43148 22.01318,-0.48573 37.96602,-8.18875 9.61507,-3.86693 15.01333,-8.04045 22.59068,-18.79918 0,0 -10.67977,10.61043 -18.12408,9.866 -12.12253,-2.00986 -24.15964,-4.18665 -36.47716,-4.46659 8.18047,-6.74255 19.2232,-1.35346 28.28841,-4.46659 6.69988,-2.97773 3.72215,0 10.42204,-7.44432 6.69989,-7.44432 6.64004,-2.5427 11.16648,-10.42205 5.02492,-8.74707 5.95545,-15.26085 5.95545,-15.26085 0,0 -2.23329,5.76935 -9.67761,7.0721 -8.36077,1.46313 -9.67761,6.69989 -17.12193,8.18875 -18.03487,0.16194 -24.26628,1.99834 -38.71046,12.65534 6.24974,-33.89727 9.40216,-29.03573 20.09966,-40.19931 2.97773,-6.69989 4.6527,-16.74972 4.6527,-16.74972 0,0 -6.14156,10.79426 -15.07474,13.77199 -15.79608,2.72601 -17.1358,19.09169 -23.82182,30.5217 -3.06256,8.47561 -10.63683,11.18942 -17.12193,16.3775 12.45417,-17.87404 -3.27691,-38.66461 5.21102,-57.32125 9.80581,-13.16716 18.40864,-32.03463 12.65534,-48.38806 -8.00349,-14.2687 -0.89881,-30.57665 -8.93318,-44.66591 -16.13042,-15.1305 -6.82117,-29.72713 -13.39977,-50.62136 -3.72216,-11.16648 -0.74443,-20.84409 -0.74443,-26.79955 0,-5.95545 -0.74444,-10.42204 -0.74444,-10.42204 0,0 -10.42204,17.86636 -11.9109,29.03284 1.31454,21.25756 -3.323,46.12702 5.21102,66.25443 10.12233,14.67875 8.71959,35.63083 1.48886,51.36579 -10.08517,14.13112 -13.96978,29.06119 -14.1442,46.15477 -11.70316,-3.58259 -3.62977,-26.3603 -3.72216,-35.73272 -0.27142,-19.3393 -14.57566,-33.93474 -18.6108,-52.11023 -5.99804,-18.68481 3.72768,-37.93936 -0.74443,-56.57682 -8.91756,-15.59376 -16.75759,-30.6825 -14.1442,-49.1325 4.82388,-20.06097 1.7669,-30.45333 -8.93318,-47.64363 z"
               style="display:inline;overflow:visible;visibility:visible;opacity:1;fill:#decd87;fill-opacity:1;fill-rule:nonzero;stroke:#000000;stroke-width:4.18088198;stroke-linecap:round;stroke-linejoin:round;stroke-miterlimit:4;stroke-dasharray:none;stroke-dashoffset:8.75681114;stroke-opacity:1;marker:none;marker-start:none;marker-mid:none;marker-end:none;enable-background:accumulate"
               inkscape:connector-curvature="0" />
            <path
               sodipodi:nodetypes="cssscsssc"
               transform="translate(-2.3841858e-7,-1.2525329e-6)"
               id="path3064-3-2-7-8-0"
               d="m 193.22521,245.76862 c 0,0 -1.90624,20.19772 -3.02289,23.91988 -1.11664,3.72216 -1.86107,13.39978 -0.74443,18.6108 1.11665,5.21102 0.72554,13.67073 5.21103,19.72744 5.23747,7.0721 6.41798,18.50952 6.41798,18.50952 0,0 3.64699,-14.05926 1.39855,-20.3706 -2.10557,-5.9103 -3.82023,-13.79844 -4.19244,-19.00946 -0.37222,-5.21102 5.92633,-12.30861 2.33136,-19.32878 -2.86871,-5.60194 -7.18112,-16.68585 -7.39916,-22.0588 z"
               style="display:inline;overflow:visible;visibility:visible;opacity:1;fill:#decd87;fill-opacity:1;fill-rule:nonzero;stroke:#000000;stroke-width:4.18088198;stroke-linecap:round;stroke-linejoin:round;stroke-miterlimit:4;stroke-dasharray:none;stroke-dashoffset:8.75681114;stroke-opacity:1;marker:none;marker-start:none;marker-mid:none;marker-end:none;enable-background:accumulate"
               inkscape:connector-curvature="0" />
            <path
               sodipodi:nodetypes="ccccccccc"
               transform="translate(-2.3841858e-7,-1.2525329e-6)"
               id="path3066-1-1-3-0-2"
               d="m 313.1955,164.59457 c 0,0 -7.26823,22.58198 0.95472,35.48956 5.71322,12.06624 -0.4368,25.41545 1.86108,37.96602 1.06916,13.23567 9.26289,23.95936 12.28312,36.47716 2.2333,10.42204 2.97773,18.98301 2.97773,18.98301 6.8521,-14.09378 5.81123,-23.66484 4.44014,-30.46558 -5.67245,-13.77098 -6.47238,-19.96674 -5.18457,-36.53328 -1.99995,-30.03033 -4.83857,-35.58543 -10.92199,-41.72238 -6.71787,-4.91956 -6.83765,-20.02354 -6.41023,-20.19451 z"
               style="display:inline;overflow:visible;visibility:visible;opacity:1;fill:#decd87;fill-opacity:1;fill-rule:nonzero;stroke:#000000;stroke-width:4.18088198;stroke-linecap:round;stroke-linejoin:round;stroke-miterlimit:4;stroke-dasharray:none;stroke-dashoffset:8.75681114;stroke-opacity:1;marker:none;marker-start:none;marker-mid:none;marker-end:none;enable-background:accumulate"
               inkscape:connector-curvature="0" />
            <path
               sodipodi:nodetypes="cccssccsssc"
               transform="translate(-2.3841858e-7,-1.2525329e-6)"
               id="path3068-4-7-5-4-41"
               d="m 391.57113,270.80515 c 0,0 -5.95546,19.35523 -6.32767,21.58852 -4.13111,7.57427 -2.96216,16.21112 -5.58324,24.19404 0,16.74971 -5.21102,14.88863 -7.81654,18.23858 -2.60551,3.34994 -5.21102,9.30539 -5.58323,14.1442 -0.37222,4.83881 2.23329,23.82182 2.23329,23.82182 5.41895,-6.00254 7.2872,-15.0843 11.16648,-22.33296 4.46659,-7.81653 7.81653,-11.53869 11.16647,-18.98301 3.34995,-7.44432 1e-5,-13.58588 -0.37221,-21.40242 -0.37221,-7.81653 4.46659,-11.35258 3.72216,-20.28576 -0.74443,-8.93318 -2.2333,-18.98301 -2.60551,-18.98301 z"
               style="display:inline;overflow:visible;visibility:visible;opacity:1;fill:#decd87;fill-opacity:1;fill-rule:nonzero;stroke:#000000;stroke-width:4.18088198;stroke-linecap:round;stroke-linejoin:round;stroke-miterlimit:4;stroke-dasharray:none;stroke-dashoffset:8.75681114;stroke-opacity:1;marker:none;marker-start:none;marker-mid:none;marker-end:none;enable-background:accumulate"
               inkscape:connector-curvature="0" />
            <path
               sodipodi:nodetypes="cssssscsssssc"
               transform="translate(-2.3841858e-7,-1.2525329e-6)"
               id="path3070-2-3-8-5-8"
               d="m 241.42944,135.38563 c 0,0 -9.16672,20.77702 -10.28337,24.12697 -1.11664,3.34994 1.4405,9.36925 -1.16501,19.41908 -2.60551,10.04983 -6.99729,19.52036 -5.13621,23.98695 1.86108,4.46659 -1.27857,15.18604 -1.27857,23.747 0,8.56097 0.87991,13.61782 3.85763,19.57327 2.97773,5.95546 7.75268,13.8436 7.75268,13.8436 0,0 -0.30836,-9.00479 -0.30836,-16.07689 0,-7.07211 -0.37221,-8.18875 2.60551,-18.23858 2.97773,-10.04983 5.21103,-14.14421 5.58324,-21.96074 0.37222,-7.81654 1.48887,-16.3775 -0.37221,-21.96074 -1.86108,-5.58324 -2.12919,-13.27972 -4.83881,-20.84409 -3.17706,-8.86932 3.9557,-25.61583 3.58348,-25.61583 z"
               style="display:inline;overflow:visible;visibility:visible;opacity:1;fill:#decd87;fill-opacity:1;fill-rule:nonzero;stroke:#000000;stroke-width:4.18088198;stroke-linecap:round;stroke-linejoin:round;stroke-miterlimit:4;stroke-dasharray:none;stroke-dashoffset:8.75681114;stroke-opacity:1;marker:none;marker-start:none;marker-mid:none;marker-end:none;enable-background:accumulate"
               inkscape:connector-curvature="0" />
          </g>
        </g>
        <g
           style="fill:#decd87"
           id="g4904">
          <rect
             style="display:inline;opacity:0.98999999;fill:#decd87;fill-opacity:1;stroke:none;stroke-width:0;stroke-miterlimit:4;stroke-dasharray:none;stroke-opacity:1"
             id="rect9219-5-4-5-2"
             width="110"
             height="34.584732"
             x="141.64735"
             y="79.999397" />
          <rect
             y="40.795189"
             x="180.27634"
             height="380.63843"
             width="32.284779"
             id="rect4934-6"
             style="display:inline;opacity:1;fill:#decd87;fill-opacity:1;stroke:none;stroke-width:11.33343506;stroke-opacity:1" />
          <path
             sodipodi:nodetypes="cccccccccc"
             style="fill:#decd87;stroke:none;stroke-width:0.38187236;stroke-opacity:1"
             id="path4-9"
             d="m 80.128873,177.58693 c 60.501897,56.99427 171.437347,56.99427 231.939297,0 v 105.86212 c -59.23613,-55.19327 -169.81973,-54.69259 -231.939297,0 z m 128.840187,51.28951 c -36.01183,0.5145 -36.01183,0.5145 -36.01183,0.5145 v 0 z"
             inkscape:connector-curvature="0" />
          <rect
             style="display:inline;opacity:0.98999999;fill:#decd87;fill-opacity:1;stroke:none;stroke-width:0;stroke-miterlimit:4;stroke-dasharray:none;stroke-opacity:1"
             id="rect9219-5-4-5-2-8"
             width="110"
             height="34.584732"
             x="141.68343"
             y="352.41547" />
        </g>
      </g>
    </g>
  </g>
  <g
     inkscape:groupmode="layer"
     id="layer3"
     inkscape:label="white cross"
     style="display:inline"
     transform="translate(9.0563569,9.0081105)" />
  <g
     inkscape:groupmode="layer"
     id="layer4"
     inkscape:label="Spades"
     style="display:inline"
     transform="translate(9.0563569,9.0081105)" />
  <g
     inkscape:groupmode="layer"
     id="layer5"
     inkscape:label="Lions"
     style="display:inline"
     transform="translate(9.0563569,9.0081105)" />
  <g
     inkscape:groupmode="layer"
     id="layer8"
     inkscape:label="Book shadow"
     style="display:inline"
     transform="translate(9.0563569,9.0081105)" />
  <g
     style="display:inline"
     inkscape:label="Book"
     id="layer6"
     inkscape:groupmode="layer"
     transform="translate(9.0563569,9.0081105)" />
  <g
     inkscape:groupmode="layer"
     id="layer7"
     inkscape:label="Corners"
     style="display:inline"
     transform="translate(9.0563569,9.0081105)" />
</svg>
