<svg xmlns="http://www.w3.org/2000/svg" viewBox="0 0 474 604"><defs><style>.a{fill:#004a8f;stroke:#000;stroke-width:4px;}.b{fill:#fec10d;}</style></defs><path class="a" d="M2,367C2,496.78,107.212,602,237,602c129.786,0,235-105.22,235-235V2H2Z"/><path d="M404.191,189.216l6.582,225.24h7.844V454.07H362.67275l2.00126-39.614h3.947A190.99138,190.99138,0,0,0,237,230.954,190.99015,190.99015,0,0,0,105.379,414.456h3.948l2.00126,39.614H55.383V414.456h7.843l6.581-225.24H61.989l-3.753-14.223H70.902V121.101H60.339V81.489H82.114v19.102H96.213V81.489h21.775v19.102h14.099V81.489h21.775v39.613H143.3v53.892h14.904V149.479h21.775v25.515h17.972V89.531H188.35V49.919h23.107V69.022h14.654V49.919h21.775V69.022h14.653V49.919h23.107V89.532h-9.601v85.461h17.972V149.478h21.774v25.515h14.903V121.101H320.132V81.489h21.774v19.102h14.1V81.489h21.773v19.102H391.88V81.489h21.774v39.613H403.091v53.892h12.666l-3.753,14.223-7.813-.001,7.818.001-7.818-.001Z"/><path class="b" d="M161.979,175.516h14.224V153.775H161.979Zm-56.766,0V162.474H100.67V150.457H74.677v25.06l30.536-.001Zm34.312-28.834v-25.06H74.677v25.06H100.67V130.89h12.862v15.792Zm0,3.776H113.532v12.017h-4.543v13.042h30.536ZM59.158,450.817h48.39426L105.551,418.754H59.158ZM312.02,175.516H297.794V153.775H312.02Zm56.766,0V162.474h4.544V150.457h25.992v25.06l-30.536-.001Zm-34.311-28.834v-25.06h64.848v25.06H373.33V130.89H360.468v15.792Zm0,3.776h25.992v12.017h4.543v13.042H334.475V150.458Zm80.366,300.359H366.44573l2.00126-32.063h46.394ZM95.591,189.739h50.411v21.284H95.591V189.739Zm27.117,25.059h54.55v25.138h-54.55V214.798Zm27.069-25.059h52.969v21.284H149.777V189.739ZM95.591,243.71h50.411v24.628H95.591Zm228.632-53.971H271.252v21.284h52.971V189.739ZM206.522,211.023h60.955V189.739H206.522v21.284ZM73.584,189.739H91.816v21.284H72.962l.622-21.284Zm-.732,25.059h46.081v25.138H72.117l.735-25.138Zm-.845,28.912h19.81v24.628H71.288Zm-.83,28.404h47.755v26.08H70.415l.762-26.08Zm-.872,29.855H91.817v24.632H69.585Zm-.83,28.408H109.24a204.309,204.309,0,0,0-9.461,26.083H68.713l.762-26.083Zm-.872,29.856H91.817v24.048H67.9Zm-.813,27.823H93.334a204.59113,204.59113,0,0,0-1.518,26.921H67.003Zm27.801-86.087h28.977a204.65555,204.65555,0,0,0-13.616,24.632H95.591Zm27.117-29.855h23.295v2.207a204.41369,204.41369,0,0,0-18.934,23.874h-4.361Zm27.069-28.404h31.78a204.66382,204.66382,0,0,0-29.809,24.628h-1.971V243.71ZM95.591,360.233h3.14l-3.14,13.605ZM378.408,189.739H327.997v21.284h50.411V189.739Zm-27.116,25.059h-54.55v25.138h54.55Zm27.116,28.912H327.997v24.628h50.411Zm22.007-53.971H382.184v21.284h18.854l-.623-21.284Zm.731,25.059h-46.08v25.138H401.88Zm.846,28.912H382.183v24.628H402.71Zm.83,28.404H355.066v26.08h48.518l-.762-26.08Zm.871,29.855h-21.51v24.632h22.229l-.719-24.632Zm.83,28.408H364.76a204.76566,204.76566,0,0,1,9.461,26.083h31.064l-.762-26.083Zm.873,29.856H382.183v24.048H406.1l-.704-24.048Zm-26.988-58.264H349.43a204.51455,204.51455,0,0,1,13.616,24.632h15.361l.001-24.632Zm-27.116-29.855H327.997v2.207a204.52741,204.52741,0,0,1,18.935,23.874h4.36V272.114ZM324.223,243.71H292.442a204.6801,204.6801,0,0,1,29.811,24.628h1.971V243.71Zm54.185,116.523h-3.141l3.141,13.605Zm27.801,27.823H380.665a204.94151,204.94151,0,0,1,1.519,26.921h24.813ZM237,217.259a204.664,204.664,0,0,1,49.668,22.677h6.299V214.798H181.034v25.138h6.298A204.49455,204.49455,0,0,1,237,217.259Zm0,10.249A194.7669,194.7669,0,0,0,101.604,414.98H95.593A200.77307,200.77307,0,0,1,237,221.207,200.77706,200.77706,0,0,1,378.408,414.978h-6.012A194.76452,194.76452,0,0,0,237,227.508ZM409.885,85.786H395.66v19.103H374.012V85.786H359.787v19.103h-21.65V85.786H323.913v32.063h85.973l-.001-32.063Zm-.776,100.154,1.748-6.625H63.142l1.749,6.625ZM212.353,145.771h49.293V117.913H243.43v15.736H230.568V117.913H212.353Zm53.068-27.859h6.853V145.77h-6.853Zm-21.991-3.774h28.844V90.054H238.887v12.011h4.543Zm-4.543,61.378h33.387V149.544H238.887v25.972Zm5.224-121.299H229.887V73.32H207.682V54.217H192.125V86.28h89.748V54.217H266.316V73.32H244.109V54.217Zm-35.533,63.695h-6.852V145.77h6.852Zm21.99-3.774H201.726V90.054h33.386v12.011h-4.544Zm4.544,61.378H201.726V149.544h33.386ZM64.115,85.786H78.339v19.103h21.65V85.786h14.224v19.103h21.65V85.786h14.224v32.063H64.115V85.786Z"/><path d="M364.82,422.35c-1.36-.26-2.73-.53-4.1-.79a10.51009,10.51009,0,0,0,1.28-1.68,10.82637,10.82637,0,0,0,1.53-5.35,6.38441,6.38441,0,0,1-4.29,1,5.95181,5.95181,0,0,1-2.14-.74c-.06-.16-.14-.45-.2-.68a7.49339,7.49339,0,0,0-2.36-4.11,6.94791,6.94791,0,0,0-4.95-1.49,11.83173,11.83173,0,0,1-2.91-.28,10.48608,10.48608,0,0,1-1.35-.46,18.05848,18.05848,0,0,1-3.36005-1.8c-.73-.61-3.03-4.68994-3.86-11.86.56.15,1.12.28,1.69.38l11.4,1.99-8.99-7.28a20.1225,20.1225,0,0,1-3.09-3.1l7.31.12-6.22-6.35c-.36-.37-.72-.74-1.09-1.11l4.27.93-2.1-5.24a26.65191,26.65191,0,0,0-2.97-5.47c-.18-.26-.37-.51-.56-.76,1.18-.08,2.35-.2,3.51-.37994,4.94-.74,9.62-1.44,13.29-5.35a16.11557,16.11557,0,0,0,4.33-11.12c-.27-8.28-7.51-13.3-11.83-16.31-1.78-1.23-4.34-2.5-9.96-5.25-3.31-1.63-6.65-3.21-9.92-4.69q-1.491-.67448-2.982-1.349A7.78864,7.78864,0,0,0,320.85,320.39l-.4-.27c-2.99-1.99-4.35-2.92-5.11-4.02a5.50375,5.50375,0,0,1-.86005-2.03,7.72526,7.72526,0,0,1,.93-4.95,13.24084,13.24084,0,0,1,2.47-3.62c-1.06.46-2.13.91-3.19,1.37l-4.14-5.22c-1.28-1.62-2.64-3.2-4.07-4.71a19.01185,19.01185,0,0,0,7.23-2.28l8.49-4.7-9.66-.91a16.75944,16.75944,0,0,1-7.64-2.47,22.63081,22.63081,0,0,1-1.99-1.51,28.74472,28.74472,0,0,0-4.93-3.38l-.36-.2a15.55327,15.55327,0,0,0-4.54-1.88c-1.46.02-2.91.05-4.37.07a11.06359,11.06359,0,0,0-1.77.55c-.17.08-.35.15-.52.23-.21.1-.51.26-.82995.44l-1.66-.89a16.25426,16.25426,0,0,0-4.81-1.68,15.10475,15.10475,0,0,0-6.34.17,14.8472,14.8472,0,0,0-7.69,4.86,15.35827,15.35827,0,0,0-3.5,8.68,16.98062,16.98062,0,0,0,.41,5.66,16.5989,16.5989,0,0,0,1.47,3.86l-4.8-2.8a13.57152,13.57152,0,0,1-5.31-5.14,15.78938,15.78938,0,0,1-.71-1.56,21.14224,21.14224,0,0,0-1.79-3.49,21.89,21.89,0,0,0-4.86-5.33l-1.72-1.35a27.76987,27.76987,0,0,0-1.28-8.52l-.73-2.34-2.45.26a22.39585,22.39585,0,0,0-9.58,3.32c-.01.01-.02.02-.03.02l-1.91-.68a26.31965,26.31965,0,0,0-10.54-1.48,23.11205,23.11205,0,0,0-9.78,2.53,20.18531,20.18531,0,0,0-2.39174,1.5c-.93724.02328-2.27829.08859-3.87822.28a28.80416,28.80416,0,0,0-10.05,2.61,21.614,21.614,0,0,0-6.5,5.07l-.36.41-.2.51a4.14378,4.14378,0,0,0,1.84,5.09l.34.21a9.21038,9.21038,0,0,0,.16,3.88,9.54026,9.54026,0,0,0,3.44235,5.08706l1.38971.55881a3.78889,3.78889,0,0,0-.22059,1.58826,3.89569,3.89569,0,0,0,.94853,2.22793l-2.92-.822-.76,2.48a11.4852,11.4852,0,0,0-.42,4.62,7.492,7.492,0,0,0,1.17,3.56,7.67317,7.67317,0,0,0,5.24,2.97,19.62793,19.62793,0,0,0,4.52.2,20.867,20.867,0,0,1-2.94,2.77,21.10281,21.10281,0,0,1-7.97,3.82l-7.74,1.88,7.06,3.7c.17.09.34.17.51.26a25.65067,25.65067,0,0,0-6.33,2.82,23.01352,23.01352,0,0,0-3.24,2.45,21.303,21.303,0,0,1-3.34,2.48,31.3355,31.3355,0,0,1-4.44,2.26l-8.25,3.4,8.62,2.27a18.025,18.025,0,0,0,2.92.51,22.44949,22.44949,0,0,0-4.56,5.12,21.7269,21.7269,0,0,0-3.02,6.43,27.88037,27.88037,0,0,1-1.13,3.11,24.89236,24.89236,0,0,1-6.58,8.6l-4.2,3.66,5.36,1.5a23.34675,23.34675,0,0,0,3.33.66l-.96.42a113.766,113.766,0,0,1-12.85,4.74,42.29554,42.29554,0,0,1-9.67005,1.94c-2.9.23-5.65.44-6.25995-.2-1-1.07-1.68005-4.7-1.97-6.25a9.8012,9.8012,0,0,0-1.93-4.32,6.43554,6.43554,0,0,0-2.45-1.75,1.0225,1.0225,0,0,0-.14-.04L126.09,367.62a8.0017,8.0017,0,0,0-2.9-2.71,8.10388,8.10388,0,0,0-5.14-.86l-3.91.61,1.64,3.6c.59,1.3,1.18,2.6,1.77,3.89l.44.95.73,1.6.03.06c-.09.01-.19.03-.28.04l-4.38995-.15a9.12907,9.12907,0,0,0-7.51,3.52l-2.03,2.64,8.72,5.35a9.85646,9.85646,0,0,0,.59,1.11005l1.19,1.88.11-.03a.0098.0098,0,0,1-.01.01l-2.48,1.76a8.46609,8.46609,0,0,0-2.87994,3.62,8.2723,8.2723,0,0,0-.62006,4.07l.39,3.95,3.7-1.46c.48-.15.96-.29,1.45-.43,2.29-.66,4.53-1.19,6.68-1.61a11.39783,11.39783,0,0,0,2.05-.3,8.58294,8.58294,0,0,0,1.85-.71L124.22,402.04a9.75722,9.75722,0,0,0,.66,7.04l1.73,3.54,3.24-2.87c.96-.85,1.92-1.71,2.89-2.56l3.81883-3.39589q.2439.397.52742.81087.14685.21352.29376.415h.01a23.62755,23.62755,0,0,0,4.11,4.31l5.99,4.88L146.28,406a17.0064,17.0064,0,0,0,4.49,2.64l5.3,2.08-1.28-5.54c-.23-1.03-.44-2.01-.64-2.98.23.11.46.21.69.31a36.8508,36.8508,0,0,0,13.94,3q-.06006.96-.15,1.95a64.065,64.065,0,0,1-1.3,8.22,39.51139,39.51139,0,0,0,7.17-8.16c.12-.18.24-.37.36-.55-.09.79-.19,1.64-.3,2.53l-.36,2.76h-.01l-.26.29c-.74.82-1.88,2.11-3.19,3.74-1.67,2.07-2.57,3.37-3.44,4.63-.64.93-1.25,1.81-2.17,3.02-3.23,4.23-4.45,5.73-6.29,6.69a15.65558,15.65558,0,0,1-5.82,1.55,34.97617,34.97617,0,0,1-3.94-.11c-.72-.05-1.34-.11-1.9-.16-1.95-.19-3.68-.34-5.37.44l.02-.67-4.29,1.82a10.05217,10.05217,0,0,0-5.96,7.02l-.79,3.5,9.44.42.37.59a6.93881,6.93881,0,0,0-.09,1.45,7.63479,7.63479,0,0,0,.17,1.22l-1.15,2.05a7.82827,7.82827,0,0,0-1.01,4.08,8.00138,8.00138,0,0,0,1.35,4.19l1.99,2.94,2.57-2.45c1.02-.97,2.04-1.94,3.05-2.92l1.77-1.7a8.52724,8.52724,0,0,0,5.13-1.57l1.02,2.99a10.73778,10.73778,0,0,0,1.42,2.78,10.27119,10.27119,0,0,0,3,2.79l2.61,1.59,1.54-2.63995a18.14589,18.14589,0,0,0,2.11005-5.6l.69-3.49c.13-.2.25-.4.36-.59l2.11,3.16c.57.85,1.14,1.7,1.71,2.56l2.16,3.26,2.59-2.94a9.57408,9.57408,0,0,0,1.95-3.39,9.289,9.289,0,0,0,.44-3.58l-.33-4.52a9.13842,9.13842,0,0,0,.04-3.49,58.16081,58.16081,0,0,0,6.53-3.48,60.7037,60.7037,0,0,0,6.13-4.34c.72.13,1.43.23,2.15.3a32.68693,32.68693,0,0,0,4.94.13l7.2-.39-5.35-4.84c-.91-.82-1.75-1.69-2.55-2.57a39.33013,39.33013,0,0,0,4.58.19,41.33505,41.33505,0,0,0,14.39-2.86c-1.74-1.05-3.48-2.11-5.22-3.16.69-.01,1.38-.01,2.09-.01h4.16l-1.31-3.95a28.28388,28.28388,0,0,0-1.5-3.56c1.17.16,2.34.3,3.5.38a54.6011,54.6011,0,0,0,14.25-.86l3.72-.73-1.55-3.45a10.30025,10.30025,0,0,1-.58-1.54c.37.03.74.05,1.12.06006a20.63537,20.63537,0,0,0,4.95-.48l7.84-1.71-7.04-3.85-.01-.01c1.6-.83,3.42-1.78,5.42-2.82,12.84-6.67,15.62006-7.97,16.94-8.59,8.1-3.76,12.64-5.79,15.88-6.03-.18.38-.44.89-.8,1.53a25.11793,25.11793,0,0,1-5.54,6.59,20.75493,20.75493,0,0,0-5.48,6.83,16.23885,16.23885,0,0,0-1.56,10.07c1.05,5.24,4.86,8.41,7.14,10.3a37.26486,37.26486,0,0,0,6.18,4.06c1.97,1.1,3.18,1.81,3.33,2.5a8.45634,8.45634,0,0,1,.13,2.04,12.37229,12.37229,0,0,1-.87,3.3,16.6796,16.6796,0,0,1-4.08,6.34,5.78607,5.78607,0,0,1-1.51,1.08,4.85888,4.85888,0,0,1-2.82-.07,7.11773,7.11773,0,0,1-2.28-.93,12.34134,12.34134,0,0,0-1.87119-.9187A10.23354,10.23354,0,0,0,266.17,435.19a12.66361,12.66361,0,0,0-5.28.5l-4.41,1.21a8.8638,8.8638,0,0,0-6.48,6.96l-.46,2.46,2.34.89c1.58.61,3.17,1.22,4.75,1.83l2.73,1.05-1.26,3.86a11.79631,11.79631,0,0,0,.19,7.75l1.77,4.74,3.31-3.83a12.74514,12.74514,0,0,1,1.34-1.31,12.07549,12.07549,0,0,1,1.95-1.26l4.66-2.43.17,1.94a9.9031,9.9031,0,0,0,.75,3.04,10.36144,10.36144,0,0,0,3.51,4.4l2.31,1.68,1.79-2.23c.49-.59.98-1.24,1.46-1.95a25.61836,25.61836,0,0,0,3.72-8.76,13.76177,13.76177,0,0,0,.9-1.47l.1.19c.68994,1.31,1.38995,2.61,2.09,3.91l2.58,4.82,2.86-3.05a11.31693,11.31693,0,0,0,3.08-7.39l.12-4.2h-.01a5.04608,5.04608,0,0,0,.06-.86c0-.11-.01-.23-.01-.34a8.9517,8.9517,0,0,0-.98-3.19,12.53179,12.53179,0,0,0-.81-1.48,10.19414,10.19414,0,0,1,2.82-.59,10.57438,10.57438,0,0,1,3.57.44l5.34,1.67-1.57-5.37a14.5345,14.5345,0,0,0-.82-2.14c.52.18,1.04.36,1.55.57l4.86,1.99-.75-5.2a12.58907,12.58907,0,0,0-.77-2.89l-.01-.01a12.62826,12.62826,0,0,0-1.96-3.29A4.51125,4.51125,0,0,0,308.91,426.1l.08-.18c1.05-2.48-.41-5.43-3.42-6.99-2.6-1.43-4.19-3.92-3.95-6.22a5.10863,5.10863,0,0,1,1.27-2.81,32.95282,32.95282,0,0,0,10.2,10.82,32.37217,32.37217,0,0,0,10.36,4.01c3.61.88,6.73,1.65,10.55,4.7a12.15034,12.15034,0,0,1,3.99,5.38c.99,2.8.71,4.07.33,4.6a2.46375,2.46375,0,0,1-.47.46c-1.26.92-3.41.59-5.69.25-2.32995-.35-5.12-.77-7.53.34v-.03l-.06.06a6.63585,6.63585,0,0,0-1.62,1.08,7.76053,7.76053,0,0,0-1.45,1.79l-1.92,1.8a10.79387,10.79387,0,0,0-3.36005,6.88l-.32,3.5,3.5-.23c1.3-.08,2.59-.17,3.88-.26l4.67-.33-.7,1.73a7.88037,7.88037,0,0,0,1.72,8.36l1.89,1.89,2.1-1.65c1.03-.82,2.07-1.63,3.11-2.43,1.44-1.48,2.88-2.97,4.32-4.45a7.6,7.6,0,0,0,1.01-1.32l.63,2.11a8.56225,8.56225,0,0,0,4.88995,5.48l2.6,1.1,1.25-2.54a17.50052,17.50052,0,0,0,1.02-2.56,17.24456,17.24456,0,0,0,.64-3.15l.47-4.24c.71.66,1.42,1.32,2.13,1.99l3.03,2.84,1.74-3.77a11.00206,11.00206,0,0,0,.9-2.99,11.48215,11.48215,0,0,0,0-3.7l-.59-3.57995c.89-3.38.46-8.1-1.25-13.33a6.27214,6.27214,0,0,0,.64-.3C362.84,428.46,364.23,424.73,364.82,422.35ZM205.21,302.88a2.21718,2.21718,0,0,1-1.12178.88471c-1.98169.82724-7.26546.73059-7.728.72058l1.89706-4.67645A9.259,9.259,0,0,1,201.06,299.095a4.43762,4.43762,0,0,1,3.04.405,2.87834,2.87834,0,0,1,1.27,1.63A2.33525,2.33525,0,0,1,205.21,302.88Zm68.24-14.39a6.04692,6.04692,0,0,1,3.55-1.53,5.96279,5.96279,0,0,1,2.88.56l.54.25a24.37334,24.37334,0,0,0-.04,2.51c.01.8.02,1.9.02,3.45v.03c.01.73.01,1.34,0,1.74l-.12,5.21,4.57-2.51a15.9443,15.9443,0,0,0,2.67-1.86c.09.28.18.56994.28.86a24.78231,24.78231,0,0,0,4.52,8.03l6.17,7.29-.89-9.51c-.06-.55-.11-1.1-.18-1.66.48.35.96.69,1.46,1.01a34.56675,34.56675,0,0,0,8.41,4.01l5.22,1.66-2.29,1.22c-.48.27-4.75,2.68-4.93,7.37v.02l-.92-.32a148.81667,148.81667,0,0,1-16.2-6.73c-8.57-4.16-11.65-6.72-14.07995-9.73-2.02-2.5-3.01-4.64-2.95-6.38A7.21643,7.21643,0,0,1,273.45,288.49ZM329.83,355c-4.64-1.68-6.84-2.62-8.61005-3.38-1.51-.65-2.8-1.21-4.95-1.93a81.78622,81.78622,0,0,0-17.73-3.67,117.74338,117.74338,0,0,0-14.09-.73,160.168,160.168,0,0,0-24.69,1.46c-2.89.41-5.28.84-6.94,1.16a8.54664,8.54664,0,0,1-1.99-5.09,9.20835,9.20835,0,0,0,2.68,1.5,9.67016,9.67016,0,0,0,5.32.31,33.62473,33.62473,0,0,1-3.71-10.44,33.17568,33.17568,0,0,1-.5-6.56,22.2532,22.2532,0,0,0,5.38,1.81l7.58,1.54-4.56-6.25a42.4744,42.4744,0,0,1-5.63-10.57,43.28207,43.28207,0,0,1-2.14-8.69l-.09-.67q.72494-.07969,1.48505-.20749A26.20944,26.20944,0,0,0,263.86,302.24a26.11,26.11,0,0,0,4.44,5.44,53.35444,53.35444,0,0,0,12.94,9.04,115.72258,115.72258,0,0,0,15.3,6.62006q-.51.47991-1.02,1.02a25.71415,25.71415,0,0,0-4.55,6.82c2-.3,4-.59,6-.89,1.49.01,3.05.08,4.61005.21.87.08,1.7.17,2.5.28a.42934.42934,0,0,0-.01.05,10.31,10.31,0,0,0,.7,4.11c1.86,4.74,6.71,6.38,7.55,6.65-.89-1.79-1.72-4.31-.86-6.74.04-.13.09-.25.14-.37a4.21587,4.21587,0,0,1,1.53-.56,7.48267,7.48267,0,0,1,2.16-.23,11.484,11.484,0,0,0,3.26-.35,16.0449,16.0449,0,0,0,2.18-.68006l1.99.9c1.24.55,3.07,1.39,5.26,2.43,18.64,8.96,20.64,13.2,20.80005,14.27a6.679,6.679,0,0,1-.22,2.7,6.40776,6.40776,0,0,1-3.13,3.39c-1.24.69-3.19.98-5.82.86A30.9471,30.9471,0,0,1,329.83,355Z"/><path class="b" d="M250.537,325.79413a13.40366,13.40366,0,0,1-1.63233-1.94122,26.58375,26.58375,0,0,0-.52942,9.2647,12.04619,12.04619,0,0,0,.97058,3.83826,11.12316,11.12316,0,0,0,5.02942,4.98529,33.61556,33.61556,0,0,1-2.73529-15.17645A13.36709,13.36709,0,0,1,250.537,325.79413Z"/><path class="b" d="M357.04,423a6.80009,6.80009,0,0,1-1.76-2.41,10.45332,10.45332,0,0,0,4.93994-2.41,10.98029,10.98029,0,0,1-1.2.02,8.63234,8.63234,0,0,1-3.39-.79c-2.11-1.12-1.12-3.51-3.03-5.12-1.61-1.36-3.13-.33-6.62-1.14a12.99094,12.99094,0,0,1-1.75-.59,21.23432,21.23432,0,0,1-4.03-2.17c-2.03-1.46-5.23-8.66-5.39-18.86a16.64179,16.64179,0,0,0,1.89.93994,17.02754,17.02754,0,0,0,3.62,1.06006,22.62565,22.62565,0,0,1-4.76-5.25,21.4325,21.4325,0,0,1-1.77-3.27c1.8.03,3.59.06,5.38.09-1.42-1.45-2.84-2.91-4.28-4.36-.86-.89-1.73-1.77-2.6-2.65-.01,4.11.03,12.02.53,20.81994a18.3903,18.3903,0,0,0,2.1,8.27,13.61968,13.61968,0,0,0,4.34,5.06,28.898,28.898,0,0,0,8.08,3.35,6.07636,6.07636,0,0,1,2.35,1,6.82391,6.82391,0,0,1,1.22,1.18c1.69,2.18,1.25,9.76,1.19,11.05a28.09255,28.09255,0,0,0,1.77,10.9,13.08228,13.08228,0,0,1-4.28-6.75,19.76426,19.76426,0,0,1-.31-7.06c.28-1.69.78-2.96.12994-4.41a5.16087,5.16087,0,0,0-2.12-2.16c-2.71-1.81-4.64-1.77-7.1-2.74a20.91828,20.91828,0,0,1-5.38-3.61c-4.99-4.33-4.73-12.61-5.89-26.46-.32995-3.97-.88995-9.76-1.88-16.82q1.62,2.295,3.49,4.67c.54.7,1.09,1.37,1.62994,2.03,1.05.16,2.12006.33,3.22.53,1.08.2,2.12.4,3.13.62a23.66912,23.66912,0,0,0-8.47-10.63,37.70076,37.70076,0,0,0,10.77-.05c4.79-.72,8.6-1.29,11.58-4.47a13.10266,13.10266,0,0,0,3.5-8.94c-.22-6.78-6.62-11.22-10.54-13.93994a89.71306,89.71306,0,0,0-9.57-5.03c-4.07-2-7.48-3.58-9.84-4.65a16.23817,16.23817,0,0,1-1.99,2.97c1.25.56,3.1,1.41,5.33,2.47,20.58,9.89,22.16,14.53,22.47,16.52a8.64811,8.64811,0,0,1-4.86,9.16c-.9.5-2.9,1.44-7.41,1.24a33.88543,33.88543,0,0,1-10.67-2.39c-8.66-3.13-9.03-3.78-13.5-5.29A79.47329,79.47329,0,0,0,298.19,349a114.29952,114.29952,0,0,0-13.74-.71,217.51848,217.51848,0,0,0-30.23,2.18,12.08264,12.08264,0,0,0,1.47,3.35,12.42211,12.42211,0,0,0,1.41,1.83,20.49381,20.49381,0,0,1-7.18-1.06,19.8126,19.8126,0,0,1-3.7-1.71,9.05887,9.05887,0,0,0-.3,2.12,9.50911,9.50911,0,0,0,.3,2.53,13.16481,13.16481,0,0,1-5.87994-1.88,12.81455,12.81455,0,0,1-3.3-2.89,41.28625,41.28625,0,0,1-17.59,20.3q-.596-1.37207-1.17-2.88c-.55064-1.45416-1.02219-2.85682-1.42709-4.1947a17.40475,17.40475,0,0,1-2.51964,4.9951c-1.65338,2.2616-2.37132,2.0495-4.80388,4.84314A19.212,19.212,0,0,0,205.34,382.82a15.68132,15.68132,0,0,0-.53,2.42,7.48722,7.48722,0,0,1-4.12-1.12,7.60486,7.60486,0,0,1-3.24-4.71,18.19164,18.19164,0,0,0,1.65,13.97,12.32718,12.32718,0,0,1-4.59.97,12.53549,12.53549,0,0,1-6.17-1.5A26.98672,26.98672,0,0,1,176.16,414.56c-.75.83-1.84,2.06-3.09,3.62-2.79,3.45-3.29,4.62-5.56,7.58-3.18,4.16-4.77,6.23-7.29,7.53a18.71838,18.71838,0,0,1-7.06,1.89,38.62252,38.62252,0,0,1-4.29-.12c-3.44-.24-4.92-.68-6.3.29a3.90367,3.90367,0,0,0-1.35,1.77,4.701,4.701,0,0,0,.47,3.94,10.98446,10.98446,0,0,1,3.82-1.71,11.24641,11.24641,0,0,1,6.24.36c-.53.23-1.32.57-2.3.94-2.46.93-2.75.78-3.53,1.29a5.25153,5.25153,0,0,0-2.41,4.41,4.762,4.762,0,0,0,1.36,3.06,5.44655,5.44655,0,0,0,4,1.47,5.79967,5.79967,0,0,0,3.82-1.03c2.05-1.62,1.05-4.02,2.82-6.32a7.64522,7.64522,0,0,1,4.94-2.65,14.32225,14.32225,0,0,0-2.11,3.12,8.34473,8.34473,0,0,0-1.18006,3.94,3.91067,3.91067,0,0,0,.94,3.12c1.27,1.11,3.27.44,3.53.35,1.82-.62994,2.7-2.32995,3.41-3.7a11.79055,11.79055,0,0,0,1.18-3.59c2.19,2.84,5.08,3.94,6.76,3.05a4.19586,4.19586,0,0,0,1.71-2.52,6.6908,6.6908,0,0,0-.62-5.1,56.29171,56.29171,0,0,0,15.56-9.37,32.88944,32.88944,0,0,0,3.29.53,28.779,28.779,0,0,0,4.47.11,37.58621,37.58621,0,0,1-3.58-3.7c-.7-.83-1.33-1.63-1.89-2.41a43.2497,43.2497,0,0,1-14.94,8.53c4.35-4.04,8.04-7.23,10.65-9.42,7.49-6.29,10.19-7.87,14.59-12.82,4.44-4.99,6.2-8.45,7.25-11.22a31.47774,31.47774,0,0,0,1.81006-7.6,13.8487,13.8487,0,0,1,1.13995,8.17,77.09584,77.09584,0,0,0,35.62-13.06,50.1556,50.1556,0,0,1-20.76,13.59,49.49266,49.49266,0,0,1-15.96,2.59q-.52506,1.38006-1.23,2.88c-.39.81-.78,1.58-1.17005,2.3a51.30693,51.30693,0,0,0,22.3.59,15.27449,15.27449,0,0,1-1.18-3.95,14.56778,14.56778,0,0,1-.17-2.53,17.362,17.362,0,0,0,4.7.77,17.86189,17.86189,0,0,0,4.24-.41,11.75137,11.75137,0,0,1-2.3-1.65,11.57838,11.57838,0,0,1-1.47-1.65c2.22-1.16,5.4-2.83,9.24-4.82,12.68994-6.6,15.56-7.95,17.06-8.65,9.62994-4.47,14.54-6.7,18.76-6.29,7.02.69,11.84,5.19,13.15,6.44,4.69,4.5,4.1,7.69,8.66,15.79,3.7,6.59,6.82,12.12,12.78,15.89,7.6,4.79,13.3,2.6,21.18,8.91a15.2834,15.2834,0,0,1,4.94,6.7c.41,1.16,1.74,4.88-.09,7.42a5.0311,5.0311,0,0,1-1.09,1.07c-4.41,3.25-11.3-1.53-14.67,1.52a5.04182,5.04182,0,0,0-1.54,2.88,3.95835,3.95835,0,0,0,.58,2.56,4.29585,4.29585,0,0,0,3.39,1.76,5.63637,5.63637,0,0,1,8.7-3.66,6.17156,6.17156,0,0,0-3.49,2.03,5.94,5.94,0,0,0-1.28,4.94,4.26909,4.26909,0,0,0,1.99,2.91,4.47114,4.47114,0,0,0,4.45-.71c2.59-1.99,1.33-5.5,4.28-7.85a6.01442,6.01442,0,0,1,1.59-.92,8.08761,8.08761,0,0,0-.57,3.17,4.65076,4.65076,0,0,0,.92,3.31,3.21964,3.21964,0,0,0,2.3,1.06006,3.17979,3.17979,0,0,0,2.2-.97,4.54055,4.54055,0,0,0,1.02-2.82,13.0563,13.0563,0,0,0-.05-3.84,7.20622,7.20622,0,0,0,3.31-.18,8.47126,8.47126,0,0,0,3.4-2.25c2.13-2.33,1.94-9.09-1.31994-16.9a7.55205,7.55205,0,0,0,3.31994-.79,7.71152,7.71152,0,0,0,3.12006-2.88A7.0354,7.0354,0,0,1,357.04,423ZM222.68,394.59a20.98574,20.98574,0,0,0,5.55-14.35,8.15037,8.15037,0,0,1,2.68,5.43C231.05,389.51,227.74,393.42,222.68,394.59Zm6.97-1.16A22.04848,22.04848,0,0,0,235.83,377a8.03167,8.03167,0,0,1,3.41,4.98C239.96,386.2,236.23,391.35,229.65,393.43Zm9.13-3.27a18.7859,18.7859,0,0,0,2.11-3.07995A20.7717,20.7717,0,0,0,243.35,376c.37.26,3.59,2.58,3.62,6.21C246.99,385.96,243.6,389.63,238.78,390.16ZM306.16,393.59a23.56128,23.56128,0,0,1-5.78-6.23,24.47174,24.47174,0,0,1-2.44-5.21l-.16-.46c-1.52-4.29-4.92-8.45-10.1-12.36l-1.28-.97,1.57.3a17.39577,17.39577,0,0,1,7.17,3.03c4.22,3.07,6.15,7.54,7.71,11.13.52,1.2,1.11,2.76,1.69,4.26.77,2.02,1.49,4.01,2.2,6.09l.4,1.16Z"/><path class="b" d="M170.21524,371.53a17.5044,17.5044,0,0,0-2,3.93994,19.652,19.652,0,0,0-1.06,5.77,67.08724,67.08724,0,0,0,.18,10.58,12.69762,12.69762,0,0,1,3.29-3,44.39182,44.39182,0,0,1,1.47,9.86,43.39654,43.39654,0,0,1-.4,7.63,17.07358,17.07358,0,0,0,3.09-8.82,16.89513,16.89513,0,0,0-1.06-6.89,11.00591,11.00591,0,0,1,2.39,2.12,9.85387,9.85387,0,0,1,1.41,2.21,10.58263,10.58263,0,0,1,.65,2.25c.3,1.82.15,6.52-.65,12.7a35.995,35.995,0,0,0,4.45-6.7,36.84,36.84,0,0,0,3.97-16.28,16.42766,16.42766,0,0,0,8.03,3.79,26.05546,26.05546,0,0,1,2.59-18.34,42.0158,42.0158,0,0,0,6.17007,8.5912,25.78683,25.78683,0,0,1,2.91177-5.69118c2.24883-3.30019,4.05228-4.26089,5.73816-6.49,1.46111-1.93188,3.07392-5.13384,3.18-10.52a40.57947,40.57947,0,0,1-3,4.35,42.86421,42.86421,0,0,0-3.59,4.56,17.15377,17.15377,0,0,0-1.7,3.85c-.17005-.27-3.96-6.84-.59-12.53a10.92751,10.92751,0,0,1,4.53-4.12,22.68992,22.68992,0,0,0-1.53,3.65,21.62386,21.62386,0,0,0-.82,3.65,36.54449,36.54449,0,0,0,5.41-4.3c.95-.92,1.79-1.83,2.53-2.7q1.53,3.69,3.06,7.47c.79,1.97,1.58,3.93,2.35,5.88a38.55372,38.55372,0,0,0,14.94-23.94,24.43189,24.43189,0,0,0,6.76,9,21.1519,21.1519,0,0,1,.95-5,21.72643,21.72643,0,0,1,.82-2.18,11.27959,11.27959,0,0,0,2.65,3.3,11.60431,11.60431,0,0,0,3.11,1.88,21.93023,21.93023,0,0,1-2-6.3,21.51763,21.51763,0,0,1-.23-4.52q-.75-1.41-1.47-3.06c-.48-1.11-.89-2.18-1.24-3.18a25.04148,25.04148,0,0,1-3.88,5.12,24.71519,24.71519,0,0,1-4.18,3.41,13.80987,13.80987,0,0,1,.3-14.24c.01,1.12.06,2.32.17,3.59a43.58646,43.58646,0,0,0,.71,4.83,28.45864,28.45864,0,0,0,3-3.55,29.6058,29.6058,0,0,0,5.06-12.4c-.55-1.18-1.09-2.36-1.64-3.55a16.6794,16.6794,0,0,1-2.54,4,16.97845,16.97845,0,0,1-4.72,3.83,55.9708,55.9708,0,0,0,4.94-16.36c.77,1.16,2.09,3.13,3.71,5.6,3.88,5.9,4.61,7.12994,6.22,8.51a16.9361,16.9361,0,0,0,7.93994,3.71,45.28873,45.28873,0,0,1-8.31994-20.62,11.2048,11.2048,0,0,1-6.18006-3.64,11.53977,11.53977,0,0,1-2.41-9.06,24.28137,24.28137,0,0,0,4.65,5.82,9.89924,9.89924,0,0,0,3.88,2.53,8.23689,8.23689,0,0,0,4.94-.18,16.15725,16.15725,0,0,1-6.44-6.31,48.28835,48.28835,0,0,0-2.38-4.85,18.80048,18.80048,0,0,0-4.2-4.59,10.559,10.559,0,0,1-1.8,2.56,10.38517,10.38517,0,0,1-2.52,1.94,24.67866,24.67866,0,0,0,1.46-8.01,24.95153,24.95153,0,0,0-1.14-7.82,19.26109,19.26109,0,0,0-13.22,7.35,13.38722,13.38722,0,0,1-.03-2.72,13.86619,13.86619,0,0,1,.4-2.12,23.51815,23.51815,0,0,0-19.54,1.72,26.12318,26.12318,0,0,0,11.53,3.85,7.19482,7.19482,0,0,1,.88,3.94,5.88307,5.88307,0,0,1-2.35,4.59,5.61484,5.61484,0,0,1-6.06-.26c.27-.03,4.5-.44,6.13-3.85a6.4502,6.4502,0,0,0,.55-3.34,27.78578,27.78578,0,0,0-4.12,2.75,28.53441,28.53441,0,0,0-5.65,6.06,7.89072,7.89072,0,0,1,.53-3.86,8.35028,8.35028,0,0,1,4.2-4.28,10.558,10.558,0,0,1-6.75-5.34c-.38.21-.76.42-1.14.62-.8.06-1.94.16-3.31.36-3.35.47-6.25.87-9.18,2.33a18.51087,18.51087,0,0,0-5.6,4.37,1.16112,1.16112,0,0,0,.57,1.46,10.85337,10.85337,0,0,1,2.65-1.5,11.68894,11.68894,0,0,1,5.16-.8,26.6893,26.6893,0,0,0-4.01,2.87,5.686,5.686,0,0,0-1.9,2.29,4.94139,4.94139,0,0,0-.04,3.05,5.74332,5.74332,0,0,0,2.99,3.83,6.17757,6.17757,0,0,0,3.18.23c1.7-.16,2.03-.56,3.88-.93,1.92-.38,3.12-.61,4.42-.09a5.38851,5.38851,0,0,1,1.67,8.65,5.81273,5.81273,0,0,1-3.57,1.37,40.67434,40.67434,0,0,1-10.72-.31,8.39432,8.39432,0,0,0-.31,3.4,4.68875,4.68875,0,0,0,.66,2.2,4.85578,4.85578,0,0,0,3.31,1.72c4.35.8,11.46-1.06,12.63-1.38a17.04485,17.04485,0,0,0,4.87-4.06,19.036,19.036,0,0,0,1.87006-2.85,18.01191,18.01191,0,0,0,1.58-4.07c.09.41,1.39,6.81-3.26,11.38995a12.554,12.554,0,0,1-9.4,3.4,24.05211,24.05211,0,0,1-14.51,10.23,45.58917,45.58917,0,0,0,5.16,2.3,44.34071,44.34071,0,0,0,6,1.76,36.29428,36.29428,0,0,0-8.01.93,26.71818,26.71818,0,0,0-8.77,3.29c-2.77,1.73-3.14,2.83-6.59,4.94a33.4887,33.4887,0,0,1-4.88,2.48,14.23287,14.23287,0,0,0,3.71.47c3.87-.04,6.73-1.7,10-3.65a41.02725,41.02725,0,0,0,6.23-4.59,13.27024,13.27024,0,0,1-2.94,10.74,16.69109,16.69109,0,0,0,7.37-3.27,16.4407,16.4407,0,0,0,3.84-4.28c-.01.84-.17,6.74-4.55,9.71a10.78363,10.78363,0,0,1-4.94,1.67,14.81353,14.81353,0,0,1-8.91-1.8,32.23369,32.23369,0,0,0,2.74006-2.25,31.34386,31.34386,0,0,0,2.50994-2.65c-1.04.47-2.54,1.16-4.35,2.01-2.9,1.36-4.37,2.05-5.09,2.5a18.5398,18.5398,0,0,0-5.56006,5.62c-2.45,3.57-2.31,5.53-3.87994,9.06006a27.56832,27.56832,0,0,1-7.35,9.65,20.19528,20.19528,0,0,0,9.35.35Zm35.76439-86.5366c0-1.94411.81338-3.52284,1.819-3.52284s1.8339,1.57873,1.8339,3.52284c0,1.95717-.82818,3.536-1.8339,3.536S205.97963,286.9506,205.97963,284.99343Zm2.93662,23.28235a6.36882,6.36882,0,0,1-8.84626,1.22979,7.46,7.46,0,0,0,7.45462-3.51686,7.56549,7.56549,0,0,0,.37755-6.27869A6.35927,6.35927,0,0,1,208.91625,308.27578Zm23.08322-28.93884a14.328,14.328,0,0,1,6.81626-3.047,17.69978,17.69978,0,0,1,1.03411,7.3998,18.06774,18.06774,0,0,1-2.60193,8.01553,29.42452,29.42452,0,0,0-.04452-6.69908,29.06391,29.06391,0,0,0-.78944-3.98122,22.89072,22.89072,0,0,0-4.65907,2.1552,22.59681,22.59681,0,0,0-4.22547,3.28049A13.30485,13.30485,0,0,1,231.99947,279.33694Zm2.38889,19.883c3.76834,3.88418,4.642,9.4,2.3684,13.42093a10.90955,10.90955,0,0,1-7.03157,4.94734,18.54988,18.54988,0,0,0,3.64209-5.18942A19.78746,19.78746,0,0,0,234.38836,299.22Zm-5.88314,21.43a39.34427,39.34427,0,0,0-.59,5.94,40.19948,40.19948,0,0,0,.47,7,47.02508,47.02508,0,0,1,11.59-18.71c-2.02,4.74-4.22,9.63-6.63995,14.65q-3.07507,6.345-6.18,12.18a19.18508,19.18508,0,0,1,1.35-21.06Zm-6.132-17.77944A19.64548,19.64548,0,0,0,223.70962,289.84c3.6335,3.93627,4.37485,9.42834,2.02559,13.35423a10.88315,10.88315,0,0,1-7.1,4.75072A18.39827,18.39827,0,0,0,222.37318,302.87058ZM208.09518,326.41a23.73058,23.73058,0,0,1,6.94-7.94,25.57566,25.57566,0,0,0-1.47,3.59,26.39949,26.39949,0,0,0-1.06,4.76,51.18643,51.18643,0,0,0,12.36-16.06,29.01982,29.01982,0,0,1-19.42,24.06A23.89554,23.89554,0,0,1,208.09518,326.41Zm-6.79,18.35a23.77815,23.77815,0,0,1,9.7-8.02,41.19291,41.19291,0,0,0-10.28,17.07c3.06-2.57,6.27-5.46,9.53-8.69,3.41-3.38,6.45-6.69,9.13-9.84-.67,2.35-1.32,4.86-1.89,7.54-.46,2.16-.84,4.24-1.15,6.22a29.95278,29.95278,0,0,0,3.62006-3.08,30.87331,30.87331,0,0,0,4.19-5.21,19.40218,19.40218,0,0,1-1.68,20.87,56.901,56.901,0,0,0,.22-13.68,24.7219,24.7219,0,0,1-4.76,3.66,25.344,25.344,0,0,1-6.53,2.74c.16-.62006.32-1.28.43994-1.99a22.51572,22.51572,0,0,0,.35-3.79,63.18046,63.18046,0,0,1-6.61,6.04,64.36836,64.36836,0,0,1-8.47,5.69A24.25951,24.25951,0,0,1,201.30521,344.76Zm-9,26.52a31.11822,31.11822,0,0,0-9.12,22.31c-.27-.05-5.29-1.07-7.06-5.8a9.49777,9.49777,0,0,1,.6-7.64,20.2096,20.2096,0,0,0,1.46,3.75,19.52258,19.52258,0,0,0,2.6,3.88,21.08086,21.08086,0,0,1,4.85-11.38A20.47045,20.47045,0,0,1,192.30521,371.28Zm-16.11-15.66a18.6909,18.6909,0,0,1,10.19-4.24,29.40582,29.40582,0,0,0-11.55,13.86,25.12257,25.12257,0,0,1,3.17-1.95,24.86171,24.86171,0,0,1,4.59-1.8,37.91435,37.91435,0,0,0-3.48,6.79,37.173,37.173,0,0,0-1.9,6.48,26.852,26.852,0,0,0,11.47-10.41c-.13.96-1.36,9.14-8.34,12.66a14.32543,14.32543,0,0,1-6.84,1.5,20.79449,20.79449,0,0,1,1.99-10.27,11.26775,11.26775,0,0,1-2.91.7,11.136,11.136,0,0,1-2.92005-.09A19.29366,19.29366,0,0,1,176.19522,355.62Z"/><path class="b" d="M208.40524,409.37c-1.35,2.08-3.89,4.7-7.96,8.26,1.94-.14,3.94-.26,6-.34,2.15-.08,4.23-.11,6.24-.11a24.41275,24.41275,0,0,0-1.59-3.71A24.89824,24.89824,0,0,0,208.40524,409.37Z"/><path class="b" d="M198.76523,419.07l-4.41,3.66a50.99468,50.99468,0,0,0,7.06.48,52.48794,52.48794,0,0,0,7.09-.5c-1.83-.53-3.78-1.18-5.82-1.97C201.2952,420.19,199.99521,419.63,198.76523,419.07Z"/><path class="b" d="M143.38992,407c-.23437-1.5542-.43615-3.20361-.58825-4.94116-.17591-2.0094-.26606-3.91632-.29413-5.70593a6.38782,6.38782,0,0,1-2.41175-.88233,6.49436,6.49436,0,0,1-2.41174-2.70587,43.53241,43.53241,0,0,0,25.2054.34923c-.06186-2.21173-.05432-4.569.05173-7.05512.12419-2.91131.36812-5.63911.684-8.16179a115.3842,115.3842,0,0,1-13.17645,4.86768,46.47439,46.47439,0,0,1-10.29413,2.05884c-4.57226.35174-7.12481.51184-8.69116-1.1471-1.60815-1.70318-2.30707-5.46173-2.73529-7.76471a5.4074,5.4074,0,0,0-1.19122-2.82348,3.57662,3.57662,0,0,0-1.334-.9925c-1.30108-.503-2.977.09479-4.313,1.38953a10.68208,10.68208,0,0,1,3.57355,9.17645,9.54569,9.54569,0,0,0-2.9118-3.44116c-1.13056-.81671-2.42243-1.74994-3.92646-1.41174-1.97375.44372-2.76947,2.72986-2.91174,3.17645a5.83738,5.83738,0,0,0,.66174,4.67645,13.51323,13.51323,0,0,1,8.29413.353c-.4259.06555-5.61749.93976-6.97058,4.80884-.10406.2976-.9574,2.73749.30878,4.19116,1.40039,1.60773,4.40289.872,4.72064.79413a27.09375,27.09375,0,0,0,3.44116-1.5c.96009-.4209,1.75525-.7461,2.27942-.95593a6.21184,6.21184,0,0,0-.05884,4.52941,5.9286,5.9286,0,0,0,9.52942,2.29413A21.001,21.001,0,0,0,143.38992,407Z"/><path class="b" d="M194.68493,304.23529l1.99154-4.17645c-.58654.06793-1.20885.11944-1.8639.147-.56074.02356-1.09822.02759-1.61021.01666a3.8064,3.8064,0,0,0-.07492,1.748A3.48709,3.48709,0,0,0,194.68493,304.23529Z"/><path class="b" d="M311.63992,311.897c-.27752.1554-3.23736,1.87177-3.353,4.853a6.11318,6.11318,0,0,0,1.89709,4.27942c1.59891,1.7493,3.71576,2.54425,6.44116,3.52942.68167.2464,1.25217.42459,1.634.53824-1.59986-.1016-5.77939-.145-8.95752,2.59408a5.50723,5.50723,0,0,0-2.25,3.48529,5.2467,5.2467,0,0,0,1.36767,3.92646,4.289,4.289,0,0,1,.92645-2.60291c.24738-.29456.90149-.97717,3.08826-1.5,2.58655-.61847,3.137-.01385,5.38233-.57355,1.40405-.35,2.83807-.70739,3.57354-1.98529a4.08944,4.08944,0,0,0,.08826-3.397c-.44885-1.01111-1.171-1.4159-2.69122-2.42652-3.19556-2.12432-4.81568-3.219-5.91175-4.80877a7.67716,7.67716,0,0,1-1.36767-3.353A7.13448,7.13448,0,0,1,311.63992,311.897Z"/><path class="b" d="M307.05167,322.88232c-2.22345-1.49841-6.01221.87439-6.79413,1.36768a12.15912,12.15912,0,0,0-3.26465,3.04413c1.52112.00928,3.14313.07525,4.8529.22058,1.1034.09375,2.16315.21368,3.17646.3529a7.44593,7.44593,0,0,1,3.22064-3.2647A3.21,3.21,0,0,0,307.05167,322.88232Z"/><path class="b" d="M270.38992,305.52942a49.82057,49.82057,0,0,0,12.23529,8.52942A112.79711,112.79711,0,0,0,299.63992,321.25a6.93008,6.93008,0,0,1,1.23529-1.05884,7.01857,7.01857,0,0,1,2.51471-1.04413,150.52771,150.52771,0,0,1-16.52942-6.8529c-8.55688-4.16419-12.2091-6.95954-15.103-10.54413-3.43323-4.25269-3.66413-6.97168-3.61762-8.38239a10.22147,10.22147,0,0,1,3.353-7.147,9.04672,9.04672,0,0,1,5.29407-2.25,8.90486,8.90486,0,0,1,4.366.827,7.97346,7.97346,0,0,1,1.35456-2.15052,12.99861,12.99861,0,0,0-3.88233-1.3529,11.54981,11.54981,0,0,0-11.23529,4,12.5339,12.5339,0,0,0-2.82354,7.05878,14.26373,14.26373,0,0,0,.353,4.64709C265.66177,300.07129,267.37875,302.59937,270.38992,305.52942Z"/><path class="b" d="M283.40463,295.57349a12.81437,12.81437,0,0,0,6.13233-7.76465,21.84378,21.84378,0,0,0,5.07354,15.48529c-.16253-1.70191-.40283-3.5329-.75-5.47064-.33441-1.86652-.72723-3.60511-1.147-5.20588a31.81019,31.81019,0,0,0,15.48529,10.8971,68.77918,68.77918,0,0,0-11.73529-11.6471,16.39756,16.39756,0,0,0,9.397,2.11768,16.06709,16.06709,0,0,0,6.397-1.94116,19.458,19.458,0,0,1-9-2.95593c-2.23291-1.4549-3.2262-2.85639-6.70587-4.76471-1.80225-.98835-3.23633-1.84027-5.20588-1.897a8.20137,8.20137,0,0,0-3.4364.64984c-.38446.16559-3.4804,1.552-4.40185,4.54132-.20276.65772-.11322.78644-.10291,6.103C283.40616,294.50208,283.40549,295.14557,283.40463,295.57349Z"/><path class="b" d="M330.037,457.55884a4.83383,4.83383,0,0,0,1.05883,5.13232l3.1471-2.45587a5.98458,5.98458,0,0,1-4.20593-2.67645Z"/><path class="b" d="M321.62521,447.35291a7.79469,7.79469,0,0,0-2.41174,4.97064q2.103-.14713,4.20587-.29413a6.97384,6.97384,0,0,1-1-1.44116A7.15277,7.15277,0,0,1,321.62521,447.35291Z"/><path class="b" d="M344.90463,458.10291a5.57475,5.57475,0,0,0,3.17646,3.57354,14.01352,14.01352,0,0,0,1.36767-4.72058,6.40414,6.40414,0,0,1-4.54413,1.147Z"/><path class="b" d="M355.88992,448.92645a12.83823,12.83823,0,0,1-2.20587.75q1.69849,1.58826,3.397,3.17646a8.67423,8.67423,0,0,0,.6618-4.94117A12.839,12.839,0,0,1,355.88992,448.92645Z"/><path class="b" d="M297.43521,433.09a72.001,72.001,0,0,0-5.78,5.34,73.79986,73.79986,0,0,0-6.62,7.81,33.51232,33.51232,0,0,1,10.72-15.49,32.42655,32.42655,0,0,1,9.33-5.17,1.664,1.664,0,0,0,1.13995-.83c.36005-.85-.37-2.29-2.1-3.19-3.69-2.02-5.86-5.63-5.5-9.15a8.32881,8.32881,0,0,1,2.18-4.7c-1.65-4.11-3.25-7.44-4.47-9.83a43.62852,43.62852,0,0,0-6.3-9.7,12.18294,12.18294,0,0,0-6.17-4.24,9.6981,9.6981,0,0,0-2.36-.29c-.23.52-.65,1.38-1.23,2.41-4.06,7.1-8.29,7.71-10.89,13.18a13.20383,13.20383,0,0,0-1.35,8.23c.84,4.19,4.04,6.86005,6.12,8.59,5.05,4.21,9.78,4.76,10.53,8.25a11.57386,11.57386,0,0,1,.18,2.87,14.31934,14.31934,0,0,1-1.06,4.17,19.50774,19.50774,0,0,1-4.86,7.47,6.57588,6.57588,0,0,1-7.01,1.72c-3.07-.69-3.36-1.98-6.18-2.38a6.108,6.108,0,0,0-3.48.27,5.25821,5.25821,0,0,0-3.05,3.61,3.46072,3.46072,0,0,0,.44,2.96,2.59577,2.59577,0,0,0,1.02.71,6.669,6.669,0,0,1,5.65-2.12,6.324,6.324,0,0,1,3.79,2.2,5.39937,5.39937,0,0,0-4.81-.13,4.86448,4.86448,0,0,0-2.56,5.25,4.755,4.755,0,0,0,4.33,3.66c1.82.08,3.2-1.2,4.07-2.01,1.68994-1.58,1.56-2.68,2.97-3.65a5.99533,5.99533,0,0,1,4.18-.79,4.898,4.898,0,0,0-4.15,5.26,4.47332,4.47332,0,0,0,3.88,3.71c2,.16,3.42-1.64,4.3-2.74a9.48241,9.48241,0,0,0,1.94-4.88c2.36,1.89,5.17,2.52,7.2,1.47a4.22892,4.22892,0,0,0,2.27-2.62,4.43722,4.43722,0,0,0-.65-2.91,10.68807,10.68807,0,0,0-2.75994-3.59,13.52929,13.52929,0,0,1,7.32-2.73,13.10538,13.10538,0,0,1,4.63.56994,11.83992,11.83992,0,0,0-4.85-6.56994ZM290.57657,412.586c.38181-3.029,3.022-5.717,6.61123-6.90055a10.79881,10.79881,0,0,0-2.76017,7.37192c.21821,5.707,5.34574,8.84635,5.84761,9.14723C294.10036,421.59278,290.042,416.88877,290.57657,412.586Z"/><path class="b" d="M304.537,429.26471a10.3424,10.3424,0,0,0-6,2.94116,33.7373,33.7373,0,0,1,8.5,2.26471,9.56154,9.56154,0,0,0-2.5-5.20587Z"/><path class="b" d="M168.51782,395.63628q-1.52729,1.51881-3.05887,3.03874-1.64752,1.635-3.29376,3.265,1.55823.11769,3.15878.265,1.77093.16339,3.48485.35383a26.29049,26.29049,0,0,0-.291-6.92254Z"/><path class="b" d="M158.69644,400.71747a22.97659,22.97659,0,0,0,2.67877.60608q.45219-2.0625.90442-4.125c-2.65625.21063-5.44812.33142-8.36444.33148q-1.27761,0-2.52-.03a38.47706,38.47706,0,0,0,4.58,2.24A26.4048,26.4048,0,0,0,158.69644,400.71747Z"/><path class="b" d="M150.19522,397.45c-.91876-.03467-1.89288-.10034-2.91559-.2074-1.15387-.12078-2.23749-.28045-3.24444-.46258a11.60115,11.60115,0,0,0,1.15,3.31,12.85632,12.85632,0,0,0,6.68,5.76c-.32-1.39-.63-2.82-.92-4.29Q150.53067,399.45822,150.19522,397.45Z"/><path class="b" d="M257.27225,439.79413a5.88162,5.88162,0,0,0-4.32349,4.61761l4.76471,1.82355a15.09872,15.09872,0,0,1-.44122-6.44116Z"/><path class="b" d="M260.94876,454.88232a8.81537,8.81537,0,0,0,.147,5.76471,13.93719,13.93719,0,0,1,4.17646-3.26471,13.327,13.327,0,0,1-4.32349-2.5Z"/><path class="b" d="M277.59579,459.88232a12.24578,12.24578,0,0,1-3.11761-.58819,7.19611,7.19611,0,0,0,.52936,2.147,7.42936,7.42936,0,0,0,2.5,3.11768c.44653-.54926.90088-1.14667,1.353-1.79413a30.777,30.777,0,0,0,1.91175-3.11768A12.24195,12.24195,0,0,1,277.59579,459.88232Z"/><path class="b" d="M288.67667,453.05145q1.34563,2.51469,2.69122,5.02942a8.32312,8.32312,0,0,0,2.272-5.42645,11.85284,11.85284,0,0,1-4.96325.397Z"/><path class="b" d="M138.71347,436.26471a7.0527,7.0527,0,0,0-4.20593,4.91174q2.43933.11345,4.87866.22693a16.73474,16.73474,0,0,1-.67273-5.13867Z"/><path class="b" d="M142.13992,451.22058a4.881,4.881,0,0,0,.22058,5.11768q1.52206-1.456,3.04413-2.91181a7.03085,7.03085,0,0,1-3.26471-2.20587Z"/><path class="b" d="M158.24289,454.35291a7.47311,7.47311,0,0,0,3.13232,3.97064,14.83968,14.83968,0,0,0,1.76471-4.67652,15.15519,15.15519,0,0,1-4.897.70588Z"/><path class="b" d="M173.24289,450.17645a6.337,6.337,0,0,1-2.44122.05884l2.64709,3.97058a6.36223,6.36223,0,0,0,1.647-4.76471A6.31766,6.31766,0,0,1,173.24289,450.17645Z"/><path class="b" d="M127.09579,402.86761a6.94305,6.94305,0,0,0,.47059,4.8971q1.59558-1.41174,3.19116-2.82355a6.37911,6.37911,0,0,1-3.66175-2.07355Z"/><path class="b" d="M114.38992,393.33826a5.47518,5.47518,0,0,0-2.25,4.94116,11.48088,11.48088,0,0,1,3.83826-.79413,6.32326,6.32326,0,0,1-1.58826-4.147Z"/><path class="b" d="M112.91934,379.647a7.45781,7.45781,0,0,1,1.05884-2,6.19726,6.19726,0,0,0-3.17651.76471A6.12653,6.12653,0,0,0,108.94876,380q1.77942,1.08819,3.55878,2.17645A7.46532,7.46532,0,0,1,112.91934,379.647Z"/><path class="b" d="M122.92667,369.47058q.32592-.1236.63971-.22058a4.98871,4.98871,0,0,0-1.80884-1.69855,5.08239,5.08239,0,0,0-3.24262-.52942q.88239,1.9412,1.76471,3.88239A11.36749,11.36749,0,0,1,122.92667,369.47058Z"/></svg>