<?xml version="1.0" encoding="UTF-8"?>
<svg id="Layer_1" xmlns="http://www.w3.org/2000/svg" width="401" height="133">
  <defs>
    <style>
      .cls-2 {
        fill: #1d376c;
      }

      .cls-3 {
        fill: #fff;
        fill-rule: evenodd;
      }
    </style>
  </defs>
  <g transform="translate(-64.925,-65.74)">
    <path class="cls-2" d="M131.54,65.74c-36.73,0-66.5,29.77-66.5,66.5s29.77,66.5,66.5,66.5,66.5-29.77,66.5-66.5-29.77-66.5-66.5-66.5"/>
    <path class="cls-3" d="M138.87,156.52c.44-.13,1.29-.79,1.75-.57.11.05.18.16.19.39,0,.09.01.17.01.26,0,.11.02.21.01.32-.05,1.54-.06,2.84.01,4.38.03.66.07,1.32.13,1.97.03.38.07.76.13,1.14.03.24.08.56.17.79.05.13.11.27.22.36l.16.13c.4.32.85.58,1.25.91.05.04.1.08.14.13.47.45.92.93,1.35,1.43.51.59.99,1.21,1.42,1.85.33.49.68,1.05.9,1.6.05.13.06.23.05.31-.02.18-.11.22-.34.28l-.15.04-.8.21c-.21.05-.33.08-.5.06-.09,0-.17-.02-.25-.03-.46-.09-.85-.29-1.31-.48l-4.54-1.85c-.96-.39-1.22-.23-1.56-1.33-.14-.43-.24-.88-.33-1.32-.16-.81-.3-1.64-.47-2.45-.04-.19-.14-.79-.37-.85-.02,0-.04,0-.06,0-.03,0-.07.01-.1.02-.23.1-.23.68-.28.89-.27,1.32-.21,2.18-.67,3.63-.16.5-.35,1-.59,1.43-.39.72-.99,1.38-1.57,1.97-.12.13-.94.74-1.09.8-.56.06-1.01.02-1.37-.5l-1.18-1.74c-.26-.38-.53-.75-.79-1.14-.12-.19-.26-.39-.31-.61-.05-.22-.03-.47,0-.7.16-1.44.3-2.78.34-4.24.03-1.17.1-2.32.05-3.48,0-.24-.02-.52-.04-.76,0-.04,0-.08-.01-.12-.08-.71-.15-.97-.34-.99-.08-.01-.15,0-.2.05-.16.14-.24,1.35-.29,1.68-.36,2.78-.5,6.27-2.26,8.52-.46.59-1.01,1.08-1.54,1.12l-1.24.06-.38.02-1.53.77c-.14.07-.29.13-.43.19-.85.35-1.87.64-2.78.43-.07-.01-.14-.03-.2-.05-.33-.11-.58-.24-.41-.61.22-.48.5-.92.76-1.38.44-.77,1.11-2.01,1.77-2.59.9-.79,2.75-2.19,3.17-3.26.03-.09.06-.18.08-.27.36-1.94.2-6.76.17-8.88,0-.2-.02-.39-.06-.58-.05-.23-.17-.47-.3-.8-.51-1.25-1.04-2.63-1.33-3.83-.08-.32-.16-.68-.27-.98-.08-.21-.19-.41-.36-.59-.18-.19-.43-.31-.67-.41-1.19-.49-2.51-1.03-3.66-1.59-.65-.32-1.28-.63-1.88-1.04-.25-.17-.4-.32-.51-.5-.21-.34-.41-.91-.21-1.28.28-.52.86-.37,1.3-.2.14.05.28.11.41.16.88.33,2.22.76,2.65.7.24-.03.41-.08.2-.51-.06-.12-.12-.24-.17-.34-.06-.11-.11-.21-.17-.31-.09-.15-.17-.29-.25-.43-.59-.98-1.05-1.81-1.55-2.98-.06-.13-.1-.26-.13-.37-.21-.86.6-1.16,1.18-.76.25.17.48.45.65.7.87,1.24,1.47,2.79,2.51,4.13.5.64.62.73,1.28,1.08.73.39,1.42.71,2.14,1.2.47.32,1.14,1.84,1.39,2.37.43.92.85,1.85,1.21,2.81.54,1.41.84,2.48,1.1,3.78.13.65.19,1.17.39,1.8.06.2.13.34.32.33.28-.02.3-.64.32-1.01,0-.18,0-.34,0-.41,0-.12,0-.24,0-.36,0-.31,0-.39-.02-.7-.02-.49-.04-.99-.07-1.48-.02-.35-.05-.72-.1-1.07-.19-1.37-1.68-3.83-2.38-5.05-.75-1.32-2.26-3.72-3.17-4.92-.3-.4-2.1-1.39-2.84-2.21-.27-.3-.26-.61-.18-.86.07-.21.19-.35.35-.44.16-.09.31-.1.45-.08.26.04,1.04.39,1.61.66.26.12.57.33.86.27.29-.06.35-.21.38-.49.02-.31.02-.72.02-1.12,0-.32,0-.44.05-.6.1-.34.34-.45.57-.37.47.17.7.82.7,1.41,0,.49.06,1.52.32,2.57.17.67.52,1.32,1.11,1.9,1.15,1.11,1.75,1.88,2.53,2.92.4.59.47,1.39.53,2.08.01.14.03.48.09.61.04.1.2.2.3.21.3.02.46-.1.49-.39.03-.24.02-.52.03-.75,0-.23,0-.46.01-.68,0-.2,0-.4,0-.59,0-.32-.02-.72-.08-1.03-.02-.13-.06-.25-.11-.37-.06-.16-.16-.31-.26-.44-.76-.98-1.64-2.11-2.27-3.26-.55-1.02-.84-2.13-1.31-3.18-.73-1.64-2.45-4.24-3.95-5.13-.29-.17-.97-.45-1.44-.76-.04-.03-.08-.06-.12-.08-.11-.08-.2-.16-.25-.25-.2-.3.05-.81.38-.82.07,0,.15,0,.25.04.46.14,1.02.44,1.52.37.08-.01.14-.06.2-.11.08-.07.14-.17.18-.3.06-.19.04-.46,0-.73-.14-.71-.52-1.64-.66-2.49-.05-.34-.05-.5,0-.79.07-.35.24-.68.6-.73.55-.08.85.62.95,1.04.04.18.07.2.11.38.56,2.36,1.01,3.99,2.26,5.49.81.97,1.94,1.83,2.88,2.68.21.19.47.45.62.56.08.06.14.1.19.13.2.1.3.07.35-.06.09-.26.05-.7-.1-.92-.12-.19-.37-.53-.55-.81-.38-.59-.81-1.3-.87-1.76-.02-.12-.01-.23,0-.35,0-.13.03-.26.05-.39.08-.47.11-.85.21-1.31.04-.18.06-.33.06-.59,0-.1,0-.21,0-.34,0-.69-.37-2.33-.07-2.86.05-.09.12-.17.2-.25.07-.07.15-.13.24-.19.25-.17.47-.29.76-.37.3-.08.54-.08.76-.05.11.02.2.05.28.1.11.06.25.2.38.39.6.91.76,2.31,1.2,3.35.05.12.14.33.25.55.14.28.33.66.46.76.13.1.29.12.46-.02.08-.06.11-.16.12-.27,0-.15-.05-.53-.08-.75,0-.08-.02-.14-.02-.2-.01-.11-.03-.22-.04-.32-.02-.13-.03-.24-.02-.35.01-.09.04-.16.08-.22.79-1.31,1.15-3.3,1.39-4.78.09-.57.47-.77.86-.83.04,0,.09-.01.13-.02.15-.01.32,0,.47.01.07.01.14.02.21.04.69.17.79.63.69,1.39-.01.09-.02.19-.03.28-.17,1.36-.19,2.82-.27,4.15-.02.26-.01.38,0,.6.08,1.23-.65,1.21-1.29,1.25-1.02.07-1.59.45-1.92,1.4-.06.17-.12.35-.19.54-.06.16-.12.32-.18.48-.09.24-.19.48-.25.72-.13.5-.32,1.09-.04,1.78.09.22.22.48.27.81.08.5-.21.99-.6,1.4-.73.75-1.36.78-1.55,2.47-.13,1.18.68,2.66,1.78,3.13.26.11.6.12.9.1.14,0,.45-.09.59-.11.06-.01.11-.02.15-.03.48-.07.53-.02.91.2,1.44.84,2.77.19,3.41-.69.2-.27.38-.62.73-.71.02,0,.05-.01.07-.01.26-.02.49.06.61.19.12.13-.21,1.68-.4,2.28-.03.05-.06.1-.09.15-.34.51-.83,1-1.19,1.48-.21.27-.44.56-.66.84-.09.12-.29.38-.37.5-.13.18-.2.35-.21.48-.02.25.12.47.49.3.37-.17,1.23-.93,1.61-1.28.25-.23.51-.48.76-.72.57-.56,1.08-1.09,1.27-1.28.7-.66,2.33-1.93,3.05-2.05.75-.13,1.47.04,1.73.87.26.8.16,1.32-.47,1.93-.75.8-2.69,2.95-2.95,3.68-.11.34-1.78,3.56-2.06,3.96-.66.83-1.21,1.3-2.05,2.15-.08.08-.41.41-.49.5-.07.08-.17.16-.25.26-.3.39.06.81.5.68M110.93,142.56c.5-.46,1.11-.04,1.33.45.18.4.18,1.16-.31,1.38-.96.43-1.83-1.19-1.02-1.83ZM112.62,149.02c-.21.47-.83.61-1.26.36-.28-.16-.5.28-.63.46-.33.47-.79.88-1.35,1.03-.41.11-.86.05-1.21-.2-.31-.23-.49-.58-.53-.96-.04-.41.06-.85.22-1.23.13-.26.32-.65.21-.94-.08-.2-.32-.4-.46-.56-.66-.65-.99-1.27-.34-2.07.37-.45.83-.56.84-1.24,0-.25.11-.48.31-.63.21-.15.49-.19.74-.12.29.07.52.27.65.54.38.78-.59,1.62-1.08,2.1-.07.07-.48.47-.39.59.08.11.5-.03.61-.07.12-.05.22-.12.33-.19.5-.32,1-.4.98.36,0,.47-.13.9-.25,1.34-.03.13-.22.85-.01.92.09.03.2-.08.25-.13.12-.13.21-.3.28-.46.11-.29.23-.57.32-.87.07-.23.22-.51.45-.62.08-.04.18-.06.27-.06.72.02,1.05.6,1.18,1.24.1.49.09.93-.12,1.39ZM106.45,141.88c-.3.98-1.31,1.31-2.23,1.2-.76-.1-1.46-.93-1.67-1.63-.03-.1-.05-.21-.06-.31-.02-.17,0-.34.06-.5.08-.24.23-.67.11-.9-.09-.17-.38-.32-.54-.43-.08-.06-.16-.12-.23-.2-.54-.6.04-1.51.43-2.04.08-.1.15-.2.24-.3.13-.16.26-.33.36-.52.09-.17.13-.32.16-.5.03-.18.05-.34.11-.51.11-.3.29-.6.57-.77.18-.11.42-.16.61-.05.19.12.22.36.2.57-.03.26-.1.33-.2.55-.17.35-.35.69-.54,1.04-.04.07-.21.38-.12.44.05.04.16-.03.2-.06.26-.18.5-.36.72-.59.1-.1.44-.46.58-.32.22.2-.02,1.2-.09,1.47-.07.27-.15.53-.22.79-.19.68-.49,1.32-.69,1.99-.02.07-.05.14-.05.21-.03.34.19.24.35.07.03-.03.05-.06.08-.09.71-.61,1.11-.87,1.68.05.25.4.33.88.19,1.35ZM106.35,148.67c-.08.76-.5,1.62-1.18,2-.21.12-.44.18-.68.11-.62-.18-.84-1.04-.85-1.6,0-.28-.01-.98.34-1.06.11-.03.22,0,.32.04.11.04.21.09.32.11h0s0,0,0,0c.17.07.63.2.72-.05.04-.12-.08-.23-.17-.29-.22-.15-.43-.32-.66-.47-.04-.03-.08-.05-.12-.07-1.01-.56-1.81-2.18-.45-2.87h0s0,0,0,0c.61-.23,1.62-.26,2.01.37.16.26.14.55.04.82-.16.42-.46.94-.27,1.39.11.27.25.54.39.8.08.14.17.3.21.46.03.1.03.2.02.31ZM101.63,149.87c-.22.19-.48.34-.76.42-.23.07-.47.12-.7.13-.28,0-.53-.07-.71-.31-.06-.08-.1-.16-.14-.24-.03-.06-.07-.13-.13-.16-.04-.03-.09-.03-.14-.02-.11.02-.25.2-.32.29-.14.18-.27.36-.44.51-.51.46-1.06.41-1.63.08-.3-.17-.54-.43-.78-.68-.62-.66-1.08-1.83-.55-2.69.45-.75,1.55-1.04,2.34-1.15.13-.02.26-.03.38-.05.06,0,.13-.01.19-.02.19-.01.42.02.51.22.09.2-.02.45-.14.61-.31.4-.6.68-1.01.96-.1.07-.56.39-.32.52.16.09.39,0,.53-.07.6-.28.96-.63,1.39-1.12.08-.09.15-.19.24-.28.11-.11.36-.36.53-.26.17.1.17.53.18.71,0,.08,0,.16,0,.24.02.25.11,1.17.43,1.15.09,0,.11-.17.11-.24.04-.71-.09-3.51.91-3.54.29,0,.48.26.58.51.14.37.16.91.15,1.31-.01.93.04,2.53-.71,3.19ZM95.32,142.7c-.05-.22-.17-.35-.34-.48-.11-.08-.24-.13-.37-.16-1.29-.35-1.05-1.47-.47-2.31.37-.53.94-.84,1.17-1.49.15-.45.03-.87.09-1.32,0-.06.02-.13.04-.19.13-.46.57-.64.99-.76.42-.12.72-.21.98-.31.57-.23,1.13-.81,1.49-.9.4-.09.76.08.12.89-.09.11-.17.23-.26.35-.49.69-.89,1.42-1.59,2.08-.39.37-.78.73-1.14,1.14-.2.22-.7.83-.73,1.12,0,0,0,.01,0,.02.01.06.09.09.15.09.1,0,.19-.07.25-.14.18-.22.37-.45.58-.63.2-.18.41-.36.64-.51.06-.04.36-.25.43-.21h0s0,0,0,0c.04.05-.06.39-.08.47-.2.89-.63,2.41-.36,3.3.05.18.16.01.19-.07.06-.16.1-.36.13-.53.06-.28.11-.56.18-.84.04-.17.42-1.69.7-1.54.1.05.29.53.35.65.23.45.52.82.92,1.13.04.03.14.1.19.06.13-.09-.22-.6-.28-.69-1.2-1.77-.77-3.51.3-4.97.06-.08.12-.16.19-.24.88-1.1,1.72-1.14,1.33.38-.03.11-.07.22-.1.33-.26.76-.64,1.55-.58,2.53.03.43.14.77.27,1.09.43.99,1.08,2.34.05,3.23-.24.21-.57.29-.98.16-.27-.09-.5-.28-.77-.34-.29-.07-.5.16-.65.36-.17.21-.3.45-.49.64-.38.39-.98.57-1.52.39-.64-.21-.93-.8-.98-1.42,0-.12-.01-.25-.04-.37ZM92.74,146.38c-.46-.22-.55-.86-.41-1.31.16-.5.62-.95,1.17-.95.35,0,.63.2.82.49.16.22.23.47.17.74-.07.31-.29.58-.55.76-.3.21-.84.44-1.2.27ZM89.99,140.21c.1-.06.43-.22.52-.1.03.04,0,.12-.01.16-.05.15-.1.31-.14.46-.09.42-.06,1,.04,1.41.07.29.28.34.3,0,.05-.54.1-.91.31-1.43.07-.18.17-.35.28-.5.15-.22.36-.45.59-.59.14-.08.32-.13.47-.05.15.08.21.26.21.42.02.25-.07.53-.17.76-.22.5-.25.97-.23,1.51.02.82-.18,1.61-1.08,1.87-.15.04-.31.09-.47.1-.36.01-.76-.02-1-.32-.14-.18-.22-.41-.3-.62-.09-.23-.21-.34-.47-.3-.08.01-.19.08-.27.13-.24.15-.51.21-.8.14-.49-.12-.87-.58-1.03-1.03-.25-.68-.18-1.36.29-1.93.09-.11.2-.2.3-.29.76-.64.31-.7.62-1.4.05-.11.11-.2.19-.29.22-.23.52-.34.82-.42.65-.17,1.44-.1,1.99.3.32.24.57.54.1.8-1.17.67-1.72.72-2.61,1.91-.03.05-.11.18-.06.23.09.09.47-.16.55-.22.02-.02.04-.03.06-.05.29-.23.64-.49.97-.66ZM92.81,129.64c.18.08.38.22.52.35.16.14.43.4.37.64-.06.21-.39.24-.56.24-.52.02-1.06-.07-1.56-.17-.66-.12-1.3-.09-1.92.2-.63.29-1.61.55-2.1-.13-.13-.18-.2-.4-.23-.62-.03-.22-.03-.44,0-.66.09-.74-.35-.6-.81-1.29-.75-1.12-.03-3.14,1.38-3.06.2.01.39.06.58.12.3.1.59.24.87.4.19.1.4.24.61.31.21.07.42.05.62-.03.2-.08.42-.22.63-.27.42-.11.81.15,1.13.4.29.24.55.52.79.81.34.43.67.92.88,1.43.1.24.29.76.1,1-.05.07-.13.1-.21.11-.13.02-.26,0-.38-.04-.43-.16-.72-.71-.91-1.09-.23-.45-.52-1.04-.89-1.42-.09-.09-.18-.15-.23-.11-.11.08-.02.42.02.52.08.17.16.33.24.49.07.14.19.39.22.55.05.26-.22.15-.34.09-.47-.21-.87-.42-1.35-.62-.48-.2-.78-.31-1.29-.41-.12-.02-.64-.11-.67.08-.02.11.09.24.17.27.67.24,1.21.41,1.82.78.26.15.01.32-.15.39-.44.19-.79.31-1.19.57-.08.05-.35.23-.31.34.05.13.48-.03.56-.06,1.39-.52,2.18-.62,3.59-.09ZM89.72,118.93c.48-.2.95-.46,1.3-.85.31-.35.69-.92,1.23-.65.35.17.4.71.25,1.03-.46.95-1.62,1.42-2.55,1.77-.09.04-.52.23-.47.36.04.11.33.1.42.08.29-.08.59-.16.88-.23.22-.06.35-.02.22.23-.04.07-.07.15-.11.22-.12.25-.26.49-.37.75-.14.35-.21.66-.18,1.04,0,.06.02.17.08.2.11.04.23-.28.26-.35.22-.55.47-1.07.79-1.56.28-.43.59-.84.91-1.24.19-.24.32-.18.4.11.08.28.09.57.17.85.04.14.26.77.45.73.11-.02.1-.28.09-.36,0-.18-.03-.35-.07-.53-.07-.3-.1-.63-.12-.94-.02-.32-.02-.64,0-.95.01-.18.17-.9.39-.91.23-.01.47.69.53.88.19.62.29,1.32.3,1.97,0,.31-.02.63-.07.94-.08.46-.23.94-.62,1.23-.28.21-.57.32-.93.28-.1-.01-.18-.05-.27-.11-.22-.14-.32-.27-.49,0-.02.04-.05.08-.07.11-.5.92-1.03,1.39-2.11,1.39-1.26,0-2.02-1.16-1.43-2.3.09-.17.4-.6.34-.79-.03-.1-.15-.25-.21-.33-.07-.09-.15-.19-.21-.29-.06-.1-.12-.22-.14-.34-.05-.29-.03-.59.17-.83.28-.32.85-.44,1.24-.6ZM89.04,115.74c.22-.58.97-.81,1.52-.58.62.27.75,1.01.33,1.51-.55.64-1.84.07-1.88-.69,0-.08,0-.16.04-.24ZM91.98,114.19c.07-.28.2-.44.43-.61.25-.19.48-.28.54-.63.03-.18,0-.37.02-.55,0-.18.03-.36.06-.54.24-1.2,1.01-1.67,2.14-1.08.27.14.31.17.61.07.37-.12.6.04.83.32.23.27.26.66.15.99-.1.3-.32.66-.51.92-.41.55-1.15,1.22-1.51.2-.05-.14-.24-.88-.45-.82-.09.02-.1.31-.1.39-.02.49-.03.99.03,1.47,0,.02,0,.03,0,.05.04.33,0,.69-.28.91-.5.4-1.3.36-1.73-.12-.24-.27-.31-.62-.22-.97ZM98.65,115.26c.03.1.07.2.12.3.04.08.11.24.18.28.04.03.1.03.15.04.1.01.2.02.3.04.4.07.77.21.84.64.02.09.02.18.03.27.01.28-.04.57-.15.84-.2.52-.51,1.21-1.08,1.42-.53.2-.92-.45-1.09-.84-.15-.35-.24-.7-.31-1.07-.03-.19-.08-.4-.17-.57-.03-.05-.1-.18-.18-.17-.07,0-.11.15-.12.21-.04.2-.03.45-.02.66.04.53.16,1.05.34,1.55.04.1.08.21.12.31.06.15.21.49.09.64-.09.12-.3.11-.43.1-.11,0-.23,0-.34,0-.11,0-.37.03-.39.18,0,.09.09.16.16.19.05.02.11.04.17.05.69.16,1.46.31,2.02.78.54.45.81,1.21,0,1.55-.2.09-.46.12-.68.1-.61-.06-1.02-.36-1.43-.78-.32-.32-.6-.68-.84-1.06-.13-.2-.32-.5-.39-.72-.11-.37.18-.75.42-1.01.36-.39.06-1.08-.13-1.49-.36-.79-.53-1.75.05-2.49.23-.29.58-.56.92-.72.31-.15.7-.17,1.03-.06.41.14.69.44.81.84ZM98.18,108.21c.54-.3,1.06-.26,1.59.04.08.05.17.1.26.14.22.12.47.23.73.21.18-.01.37-.08.54-.12.11-.03.22-.04.34-.04.08,0,.16,0,.24,0,.29,0,.56.06.8.23.63.44.72,1.16.46,1.85-.04.11-.09.21-.15.31-.3.48-.7.71-1.23.87-.07.02-.14.03-.21.04-.25.04-.57.05-.77-.14-.08-.08-.12-.18-.13-.29-.06-.55.29-1.03.6-1.45.05-.06.21-.29.14-.36-.05-.05-.17.02-.21.04-.43.25-.59.58-.92.9-.08.07-.13,0-.18-.06-.13-.17-.23-.34-.35-.51-.14-.2-.28-.35-.48-.5-.04-.03-.21-.17-.26-.12-.04.04.05.23.07.26.04.08.09.16.14.24.04.06.08.13.12.19.06.1.12.2.18.31.15.35.24.66.29,1.04.06.5-.26.89-.75.92-.07,0-.14,0-.2,0-.07,0-.14-.02-.21-.05-.5-.17-.63-.66-.57-1.14.02-.12.02-.24.01-.37,0-.31-.21-.72-.35-1-.12-.24-.11-.53-.03-.78.09-.27.27-.51.52-.65ZM107.54,113.31c.09.04.17.1.23.17.41.43.27,1.18.08,1.69-.15.42-.39.87-.69,1.2-.21.22-.51.44-.82.4-.55-.08-.74-.89-.81-1.36-.06-.42-.1-.84-.09-1.27,0-.13,0-.26.02-.39.01-.18.02-.39.03-.6.01-.74-.34-.33-.37.01-.05.21-.09.41-.13.62-.15.77-.12,1.82-.95,2.1-.4.14-.84.03-1.16-.24-.43-.36-.58-.93-.56-1.48.04-.6.59-.84,1.05-1.05.18-.07.47-.19.57-.38.08-.15.03-.36-.01-.52-.1-.49-.02-.98.32-1.37.29-.33.7-.53,1.12-.59.46-.07.98.02,1.35.32.46.37.57.94.47,1.52-.11.71-.25.77.36,1.22ZM111.82,110.05c-.32.03-.52-.39-.61-.65-.05-.14-.09-.27-.14-.41-.23-.72-.41-1.41-.47-2.17-.07-.95-.16-1.76-.39-2.67-.06-.24-.11-.34-.19-.33-.2.03-.16.76-.14,1.2.01.29.02.58,0,.87,0,.08-.04.47-.11.5h0s0,0,0,0c-.07,0-.29-.32-.33-.38-.56-.71-1.11-1.47-1.8-2.05-.09-.08-.66-.55-.77-.44-.07.07.1.32.14.38.08.11.16.21.24.32.25.3.5.59.73.91.09.11.8,1.01.52,1.13-.11.05-.63-.12-.77-.15-.52-.11-1.02-.12-1.54.01-.05.01-.17.05-.18.12-.01.17.65.21.76.22,1.43.11,2.67.85,3.42,2.1.27.44.87,1.53.24,1.9-.37.22-.76.08-1.09-.16-.24-.17-.41-.38-.6-.6-.24-.27-.53-.75-.84-.93-.39-.24-.71-.28-1.16-.29-.67,0-1.39-.24-1.82-.79-.13-.16-.22-.34-.28-.53-.24-.78-.07-1.46.64-1.86.06-.04.13-.08.17-.14.16-.25-.06-.87-.13-1.14-.05-.2-.08-.4-.13-.6-.06-.29-.03-.6.09-.87.18-.4.54-.69.95-.81.52-.14,1.04,0,1.47.3.11.07.21.15.33.21.12.06.26.11.4.14.1.02.24.04.34,0,.14-.04.23-.13.35-.21.18-.13.24-.33.48-.41.39-.13.88.3,1.14.56.52.6.48,1,.62,1.74.04.24.11.45.24.66.13.21.28.38.49.5.29.15.58.36.76.65.32.54.14.98-.08,1.51-.1.24-.21.49-.27.74-.13.49.07,1.86-.69,1.92ZM108.68,98.58c.68-.93,2.45.71,1.61,1.64h0s0,0,0,0c-.45.33-1.03.39-1.48.01-.22-.18-.36-.44-.39-.73-.04-.33.07-.66.27-.93ZM112.83,95.14c.73-.32,1.74-.38,2.31.28.24.28.26.71.11,1.03-.2.42-.55.7-1.01.48-.13-.06-.53-.24-.65-.1-.15.17.17.68.26.82.17.26.29.58.34.89.11.68-.12,1.53-.76,1.88-.24.13-.5.17-.77.13-.8-.1-.78-.94-.75-1.55.01-.38-.29-.9-.44-1.25-.08-.18-.13-.37-.14-.57-.02-.36.06-.7.25-1.01.28-.47.77-.82,1.27-1.04ZM116.61,91.8c.79-.55,1.64-.47,2.54-.28.25.05.74.21.89-.08.02-.04,0-.28.02-.37.07-.25.31-.34.55-.38.86-.12,1.47.25,2,.91.4.51.41.84.55,1.43.11.45.31.74.67,1.03.08.06.16.12.25.18.44.3.81.71,1,1.21.23.59.23,1.53-.51,1.74-.66.19-1.37-.53-1.69-1.03-.53-.83-.93-2.01-1.07-2.99-.02-.13-.05-.27-.11-.38-.03-.05-.08-.13-.14-.13-.11,0-.16.26-.17.33-.02.14-.03.28-.04.42-.01.22-.02.46,0,.68.04.36-.05.36-.31.16-.43-.33-.93-.72-1.42-.95-.26-.12-.53-.22-.8-.32-.11-.03-.52-.14-.58.04-.04.12.1.26.19.31.4.24.82.46,1.21.72.28.18.58.43.77.71.12.18.21.41.13.63-.15.45-.85.52-1.25.52-.13,0-.25,0-.38,0-.31-.01-.62-.03-.93-.06-.17-.02-.43-.04-.59-.1-.2-.07-.46-.22-.46-.46,0-.21.19-.35.36-.43.04-.02.16-.07.19-.1.04-.04.12-.11.1-.17-.1-.3-.89-.24-1.15-.32-.21-.06-.43-.16-.58-.33-.11-.12-.18-.25-.21-.41-.11-.62.5-1.39.97-1.73ZM126,89.66c.19-.03.38-.03.57-.05.15,0,.32-.02.44-.1.15-.09.21-.25.25-.41.02-.1.03-.19.03-.29h0s0,0,0,0c.02-.11.04-.22.08-.33.08-.23.21-.43.4-.57.44-.33.98-.22,1.45-.01.7.3,1.3.91,1.72,1.54.33.49.55,1.07.61,1.66.04.41.05,1.06-.16,1.43-.24.43-.7.55-1.14.48-.67-.1-1.1-.61-.95-1.29.05-.23.14-.53.12-.76,0-.08-.03-.27-.13-.3-.36-.12-.75,1.19-.88,1.41-.4.65-.87.07-1.13-.4-.13-.23-.29-.49-.48-.68-.07-.07-.15-.15-.22-.2-.03-.02-.12-.07-.16-.04-.08.06.02.4.05.49.04.13.1.26.14.38.19.6.71,1.88-.05,2.27-.37.19-.79.12-1.11-.14-.25-.2-.48-.56-.42-.9,0-.04.02-.08.04-.12.26-.59-.34-.97-.45-1.51-.21-1.04.45-1.44,1.37-1.55ZM132.32,87.03c.14-.05.29-.06.44-.01.4.14.62.64.67,1.03.07.53-.11,1.12-.68,1.26h0s0,0,0,0c-.57.02-1.08-.26-1.24-.82-.08-.28-.05-.57.08-.83.16-.3.43-.51.75-.63ZM133.97,90.71c.09-.84.18-1.55.56-2.33.25-.52.64-1.02,1.17-1.28.55-.27,1.25-.42,1.81-.1.69.41.79,1.31.71,2.03-.02.19-.03.39-.01.58,0,.09.03.21.09.27.07.06.18.08.27.09.18.04.34.08.5.16.26.11.42.3.54.55.24.52.07,1.1-.19,1.58-.4.75-.87,1.14-1.49,1.67-.15.13-.3.26-.44.39-.21.2-.38.53-.52.77-.14.24-.41.73-.71.76-.27.02-.45-.11-.55-.34-.24-.58-.02-1.31.25-1.86.29-.59.73-1.2,1.31-1.55.11-.06.22-.13.31-.22.07-.07.18-.22.1-.31-.22-.29-1.1.43-1.3.57-.07.05-.23.16-.29.03-.05-.13.11-1.2.13-1.42.04-.34.04-.67,0-1.01-.01-.08-.07-.32-.18-.33-.11,0-.19.3-.21.37-.32,1.27-.46,2.59-.95,3.82-.04.11-.09.22-.14.34-.12.26-.32.5-.62.54-.37.05-.7-.21-.9-.48-.28-.38-.39-.88-.34-1.35.03-.29.13-.72.47-.8.52-.12.56-.74.61-1.17ZM140.5,95.79c.12-.05.35-.27.45-.36.47-.45,1.02-.74,1.66-.51.22.08.41.2.59.34.16.13.28.29.39.46.28.41.23,1.08.1,1.55-.08.27-.22.52-.33.78-.25.56-.3.72.15,1.16.13.12.21.29.25.46.19.78-.38,1.66-1.08,2.03-.29.15-.57.22-.88.23-.26,0-.52-.03-.78-.04-.29,0-.54.02-.81.14-.25.11-.47.26-.7.4-.45.29-.8.48-1.32.6-.36.08-.77.1-1.13,0-.24-.07-.5-.21-.58-.46-.16-.44.3-.9.63-1.14.05-.04.1-.08.14-.12.05-.04.11-.07.16-.1,1.08-.61,2.58-.9,3.79-.85.12,0,.52-.02.52-.2,0-.03-.01-.12-.04-.14-.09-.06-.21-.1-.31-.13-.37-.11-.76-.18-1.14-.21-.37-.03-.37-.11-.1-.35.22-.19.45-.38.66-.57.23-.21.47-.44.66-.69.09-.12.14-.21.2-.31.38-.63.2-.88-.47-.23-.25.24-.5.46-.8.73-.21.19-.42.35-.65.51-.23.16-.48.3-.72.45-.29.18-.92.42-1.06-.04-.17-.56-.02-1.41.15-1.97.17-.54.46-1.23.9-1.61.22-.19.45-.23.72-.16.11.03.23.11.33.17.11.07.31.2.44.15ZM140.74,91.68c.14-.25.33-.47.56-.64.35-.26.76-.37,1.19-.4.41-.02.83.05,1.21.21.42.18.78.46,1.06.83.21.28.36.61.43.95.07.35.05.71-.11,1.03-.04.09-.1.17-.16.24-.24.28-.71.55-1.07.54-.23,0-.53-.09-.76-.24-.46-.29-.3-.67-.21-1.14.03-.18.05-.34-.05-.37-.18-.05-.4.16-.59.37-.28.3-.57.64-1.03.57-.18-.03-.36-.12-.5-.25-.56-.49-.29-1.15.04-1.73ZM146.76,92.61c.26-.22.56-.38.94-.45.75-.14,1.43.06,1.9.59.83.93.67,1.82.36,2.85-.12.41-.11.73.47.83.29.05.44.32.44.75.02,1.63-1.26,2.41-2.52,2.93-.52.21-.83.38-1.59,1.02-.12.1-.27.17-.42.21-.24.07-.49.05-.7-.1-.32-.22-.46-.66-.43-1.05.05-.73.7-1.13,1.32-1.28.2-.05.4-.07.6-.08.26-.02,1.37-.21,1.78-.48.38-.25.1-.4-.28-.35-.35.05-1.16.25-1.39.09-.26-.18-.13-.4.05-.72.15-.28.33-.6.39-.75.09-.22.18-.44.25-.63.04-.12.3-.86.14-1.13-.03-.06-.08-.06-.17.04-.09.1-.21.29-.36.61-.1.19-.25.51-.43.82-.6,1.05-1.6,1.58-1.59-.09,0-1.24.27-2.79,1.23-3.62ZM152.81,98.98c.16.08.29.18.42.31.06.06.14.17.22.2.18.07.55-.24.69-.34.86-.66,1.95-.27,2.62.48.49.55.74,1.3.34,1.98-.09.15-.16.27-.1.45.06.17.29.35.41.51.3.42.32,1.11-.08,1.47-.75.67-1.72.47-2.61,0-.75-.39-1.37-.92-1-1.55.32-.53.98-.69,1.39-1.12.34-.36.07-.5-.86-.06-.22.1-.42.22-.64.35-.25.15-.46.32-.67.51-.08.07-.24.18-.35.11-.06-.04-.08-.12-.08-.2,0-.1.02-.2.03-.29.01-.15.03-.31.03-.46,0-.15,0-.84-.26-.85-.08,0-.13.11-.15.17-.13.57-.18.9-.44,1.46-.28.61-.84,1.11-1.45.98-.1-.02-.23-.06-.3-.14-.3-.3-.16-.99-.06-1.35.1-.39.25-.79.41-1.16.35-.8,1.57-1.94,2.51-1.47ZM157.66,105.86c.13.03.27.06.41.05.32-.01.55-.23.75-.46.13-.15.27-.29.4-.43.22-.24.5-.39.82-.42.36-.03.71.11.96.38.31.35.4.85.36,1.31,0,.13-.03.25-.02.38.01.22.09.37.24.52.09.09.2.15.32.2.63.26.84.77.64,1.43-.12.37-.3.67-.56.96-.21.23-.45.42-.66.65-.14.15-.25.31-.34.49-.08.18-.1.34-.11.53-.01.55-.14.98-.58,1.32-.25.19-.5.3-.79.4-.44.14-.81.23-1.22.49-.05.03-.1.05-.14.07-.28.14-.73.38-.97.05-.02-.03-.04-.06-.05-.09-.06-.17.1-.45.18-.6.06-.1.12-.17.19-.26.45-.58.72-.94,1.29-1.41.42-.35.83-.69,1.22-1.08.08-.08.21-.21.34-.36.43-.51.4-.9-.28-.35-.07.06-.14.12-.21.17-.13.1-.26.21-.4.3-.32.19-.7.42-.35-.46.07-.17.47-1.1.74-1.92.27-.83.03-1.69-.46-.28-.24.68-.72,2-1.01,1.94-.01,0-.02,0-.03-.02-.08-.06-.22-.55-.26-.67-.09-.3-.2-.58-.36-.83-.39-.6-.72-.41-.4.32.83,1.9.3,3.53-.9,5.05-.12.15-.3.29-.5.26-.24-.03-.37-.2-.42-.43-.08-.38.05-.82.22-1.16.3-.59.38-1.18.31-1.83-.06-.53-.21-1.05-.27-1.58-.13-1.17.46-2.96,1.91-2.64ZM164.63,116.74c.32.34.55.8.55,1.29,0,.66-.41,1.15-.93,1.46-.49.3-.99.41-1.56.47-.23.03-.76.03-.89.28-.06.12-.08.27-.07.4.06.57-.52.82-.96.92-.89.22-2.85-.53-3.51-1.18-.17-.17-.34-.34-.23-.6.14-.32.59-.35.88-.29.51.1,1.05.41,1.6.53.19.04.36.05.39-.04.11-.36-1.19-.82-1.37-.92-.3-.17-.5-.38-.24-.61.31-.28,1.24-.4,1.48-.43,1.07-.13,2-.21,3.14-.1.04,0,.09,0,.13.01.49.08.37-.24.07-.39-.78-.38-2.28-.24-2.89-.21-.03,0-.07,0-.1-.03-.22-.23.45-.93.56-1.17.02-.03.05-.14.03-.18-.05-.07-.12-.1-.19-.07-.25.08-.84.81-1.09,1.03-.54.47-1.18.71-1.86.99-3.05,1.26-3.11-.69-.33-1.5.19-.06.36-.17.54-.27.21-.13.39-.31.55-.5.25-.3.48-.56.72-.77.46-.41.96-.74,1.76-.79.44-.03,1.06.13,1.35.52.19.27.17.6.06.9-.06.17.19.25.31.28.19.05.39.08.58.12.56.13,1.1.41,1.5.84ZM164.35,109.61c.37.29.33.87.12,1.24-.42.75-1.49.95-1.85.04-.1-.22-.12-.46-.02-.69.12-.27.37-.46.63-.57.3-.14.83-.24,1.12-.02ZM168.01,111.17c.61.59.57,1.1.53,1.59-.12,1.41.2.88,1.27,1.68.73.55,1.01,1.54.51,2.45-.11.21-.27.41-.47.59-.51.46-1.23.67-1.91.59-.84-.1-1.5-.61-1.94-1.33-.04-.06-.08-.13-.11-.2-.12-.22-.31-.64.03-.76.51-.19,1.38.17,1.84.39.1.05.63.4.63.1,0-.2-.2-.41-.33-.53-.59-.54-1.21-.63-1.96-.88-.18-.06-.79-.23-.83-.45-.02-.14.18-.27.28-.32.06-.03.12-.06.17-.09.27-.15,1.49-.81,1.26-1.23-.05-.09-.2-.05-.27-.02-.22.09-.44.2-.65.3-.3.14-.61.28-.92.4-.13.05-.27.1-.41.14-.52.16-1.22.28-1.52-.31-.14-.29.01-.56.2-.79.04-.05.08-.1.12-.15.09-.11.18-.19.29-.28.98-.79,3.06-2,4.19-.91ZM173.07,114.34c.2.42.28.93.22,1.55-.02.21-.06.41-.12.61-.08.29-.24.59-.47.8-.9.82-1.42-.06-1.42-.91,0-.39.03-.77.29-.81.1-.02.31.03.49.05.46.06.31-.21.03-.38-.57-.36-.9-.41-1.42-.91-.1-.1-.19-.19-.26-.3-.12-.18-.2-.37-.18-.61.03-.47.34-.65.75-.66.96-.02,1.65.64,2.09,1.57ZM158.63,124.53c-.79-1.18.54-2.38,1.64-1.48.12.1.2.22.23.37.09.39-.19.81-.48,1.05-.4.34-.98.48-1.39.07h0s0,0,0,0ZM156.5,134.01c.07.02.14.03.21.05,1.24.27,2.24,1.57,1.24,2.65-.34.37-.84.56-1.34.64-.18.03-.36.04-.53.04-.23,0-.45-.04-.68-.08-.25-.05-.49-.12-.74-.18-.21-.05-.44-.1-.66-.11-.33,0-.43.21-.57.45-.22.38-.94.18-1.27.06-.48-.18-1.09-.53-1.4-.92-.35-.44.04-.66.46-.77.64-.17,1.47-.28,2.14-.28.7-.03,1.31.1,1.98.27.03,0,.09.03.13.04.06.02.13.05.2.06.05.01.1.02.15.02.31-.01.31-.23.12-.4-.28-.25-.89-.37-1.26-.43-.1-.02-.2-.03-.3-.04-.28-.04-.38-.13-.25-.3.13-.18.68-.68.67-.85,0-.11-.13-.18-.3-.08-.18.11-.38.23-.56.35-.43.3-.92.55-1.47.62-.31.04-.42-.04-.31-.3.08-.2.57-.96.33-1.13-.07-.05-.15-.02-.31.23-.3.49-.63.91-1.13,1.24-.26.17-.55.3-.83.14-.17-.1-.21-.28-.07-.59.38-.82,1.35-2.26,2.41-2.24.66.01.61.37.76.42.06.02.13.03.19.04.29,0,.61-.17,1.29-.27.47-.07.91,0,1.17.23.18.16.29.34.32.58.02.15.02.3,0,.45,0,.07-.02.18,0,.25.03.08.12.12.2.15ZM144.18,125.93c-.09-.04-.18-.08-.26-.13-.16-.09-.31-.19-.47-.28-.08-.05-.18-.1-.27-.11-.1,0-.19.05-.26.09-.69.44-1.42.99-2.31.98-.86,0-1.59-.51-1.8-1.27-.11-.4-.05-.82.17-1.18.12-.19.28-.36.45-.52.12-.1.47-.31.47-.47,0-.09-.03-.16-.08-.24-.06-.08-.13-.16-.2-.24-.09-.12-.15-.24-.2-.37-.05-.16-.07-.34-.05-.51.05-.5.39-.86.95-.89.18,0,.37.01.55.05,1,.19,1.29.66,2.34.22.51-.22,1.16-.48,1.65-.06.31.26.23.69-.06.93-.8.68-2.34.5-3.36.48-.09,0-.63.01-.62.14,0,.06.12.1.17.12.1.03.2.05.3.07.16.02,1.1.21,1.19.27.08.07-.02.17-.08.21-.06.05-.12.1-.19.15-.18.14-.36.29-.53.44-.27.26-.72.61-.8.97,0,.04,0,.08.03.11.16.17.53-.11.64-.22.34-.33.69-.64,1.09-.91.4-.27.84-.49,1.29-.7.16-.07.43-.17.59-.05.22.18.11.76.12,1.01,0,.16.05.77.27.81.12.02.18-.2.2-.27.04-.16.07-.32.08-.49.02-.52.22-1.22.42-1.7.09-.2.36-.8.67-.71.39.11.44,1.04.43,1.34-.03.74-.16,1.51-.55,2.17-.07.11-.15.21-.23.31-.11.13-.25.24-.4.32-.46.24-.89.3-1.38.09ZM139.31,109.59c.33-.22.88-.32,1.19,0,.24.25.16.78.04,1.07-.09.22-.23.42-.43.55-.22.14-.46.15-.7.07-.92-.24-.77-1.24-.1-1.68ZM147.7,121.85c.23-.57,1.19-.27,1.63-.18,1.44.31,1.8.52,2.44,1.52.1.16.58,1.06.73,1.03.23-.05-.17-.97-.22-1.17-.03-.11-.14-.47-.04-.56.1-.1.45.07.55.11.37.16.75.31,1.13.45.12.04,1.12.51,1.2.28.05-.14-.78-.59-.89-.65-.23-.12-.46-.23-.69-.33-.03-.02-.13-.04-.22-.09-.22-.12-.4-.27,0-.47.13-.07.26-.15.38-.23.12-.08.63-.39.57-.52-.06-.13-.6.14-.7.19-.61.27-.96.48-1.66.42-.23-.02-.45-.08-.67-.16-.26-.1-.35-.22-.08-.53.15-.17.27-.34.41-.55.2-.3.38-.62.3-.67-.12-.08-.62.41-.75.52-.2.17-.4.37-.62.52-.4.26-1.08.37-1.55.31-.13-.01-.27-.01-.4-.05-.21-.06-.33-.13-.31-.38.03-.35.68-.66.95-.8.21-.11.42-.21.62-.34.8-.5,1.6-1.34,2.59-.69.21.14.4.33.56.52.22.26.46.44.82.45.51,0,1.51-.02,1.88.39.26.28.25.75.21,1.11-.02.18.14.32.25.44.15.15.3.28.45.43.33.32.57.73.66,1.18.13.67-.22,1.44-.78,1.8-.52.33-1.12.25-1.66.02-.12-.05-.24-.09-.37-.11-.34-.06-.56-.05-.79.24-.46.58-1.1.52-1.7.21-.15-.08-.29-.17-.42-.28-.36-.28-.59-.58-.85-.94-.25-.35-.53-.67-.89-.9-.23-.15-.47-.25-.72-.36-.23-.1-.48-.18-.71-.3-.28-.14-.8-.49-.64-.87ZM148.26,114.67c.1-.14.15-.31.22-.69.1-.52.56-.94,1.09-1.06.16-.04.32-.06.48-.04.19.03.36.08.53.16.09.05.18.12.28.16.14.05.29.02.43-.03.11-.04.21-.08.32-.13.88-.39,1.87-.65,2.64.02.21.18.34.41.39.67.1.58-.16.96-.59,1.35-.05.05-.1.1-.15.15-.44.47.1.54.25.94.05.14.06.29.02.44-.14.52-.76.84-1.29.75-.4-.07-.71-.15-1.03-.19-.92-.1-1.7.48-1.94.14-.1-.15-.03-.3.05-.45.47-.86,1.45-1.31,2.23-1.85.1-.07.36-.34.28-.47-.03-.05-.11-.06-.17-.06-.68.04-1.49.69-2.06,1.05-.07.04-.14.08-.21.13-.46.32-.12-1.08-.2-1.35-.01-.04-.08-.08-.12-.08-.14-.02-.27.41-.3.5-.05.19-.09.38-.14.58-.19.85-.23,1.91-1.03,2.46-.17.12-.36.19-.59.18-.14,0-.31-.03-.41-.09-.21-.15-.32-.37-.34-.62-.08-.91.51-1.62,1.08-2.28.08-.09.16-.19.25-.31ZM147.26,119.38c.12.43-.24.87-.61,1.04-.76.35-1.71-.11-1.47-1.03.05-.23.17-.43.38-.55.24-.14.55-.15.82-.09.32.07.79.29.88.62ZM145.14,114.22c-.08-.05-.28.16-.33.21-.28.29-.58.65-.84,1.02-.05.07-.25.34-.35.31-.14-.04-.09-.65-.09-.77.04-.79.09-1.33.07-2.13-.02-.65-.05-1.12-.29-1.13-.14,0-.19.3-.25,1.18,0,.14-.02.28-.02.42-.02.26-.04.51-.06.77-.03.28-.06.56-.12.83-.02.08-.08.4-.22.37-.13-.03-.31-.26-.39-.37-.25-.35-.53-.68-.92-.87-.08-.04-.25-.09-.31,0-.11.12.18.49.26.57.14.13.27.28.38.43.55.73.76,1.53.71,2.43,0,.17-.01.34-.03.51-.01.16-.04.31-.07.46-.06.25-.17.49-.36.66-.14.13-.33.22-.52.18-.44-.09-.47-.74-.44-1.09.01-.17.03-.35.05-.52.06-.78-.09-1.31-.54-1.94-.08-.11-.16-.22-.24-.33-.71-.94-1.58-2.75.19-3.29.14-.04.28-.06.44-.07.14,0,.27-.01.4-.02.28-.01.44-.31.55-.54.12-.25.2-.52.35-.76.25-.43.7-.77,1.21-.81.71-.06,1.15.48,1.31,1.11.03.11.06.24.1.35.08.19.21.29.41.37.12.05.25.04.37.05.18.01.34.06.47.12.87.45.63,1.84.19,2.53-.26.4-.58.77-.65,1.25-.03.24,0,.46.06.69.29,1.17-1.14,1.72-1.77,2.47-.14.17-.33.34-.53.43-.13.06-.31.1-.44.02-.21-.14-.13-.51-.06-.7.03-.09.06-.18.09-.26.25-.66.58-1.21.99-1.79.41-.57.79-1.12,1.09-1.76.04-.09.24-.53.13-.6ZM152.58,109.66c-.11-.16-.43-.38-.59-.49-.19-.13-.4-.26-.57-.4-.04-.04-.11-.09-.12-.15-.02-.12.24-.27.32-.33.33-.21.62-.44.89-.73.09-.09.52-.55.42-.68-.14-.2-.55.08-.67.18-.28.23-.59.42-.9.6-.43.25-.81.35-1.21-.04-.41-.4-.27-1.5-.11-1.99.19-.61.99-1.87,1.69-1.14.18.18.33.5.59.55.16.03.3.01.45-.03.26-.08.58-.17.86-.14.47.06.79.52,1.03.92.36.58.39,1.72-.2,2.12-.23.15-.37.3-.46.46-.31.56.11.72.18,1.27.01.1.02.2.01.29-.05.83-.83,1.2-1.67,1.16-.41-.02-.81-.11-1.22-.14-.73-.06-1.1,1.5-3.63.24-.21-.11-.73-.39-.67-.71.05-.26.44-.34.64-.36.41-.04.84.11,1.23.23.08.03.17.05.25.08.09.03.28.07.33-.03.04-.07,0-.17-.03-.24-.07-.12-.18-.22-.29-.28-.14-.08-.26-.18-.39-.29-.25-.2-.06-.32.14-.39,1.13-.42,2.4.2,3.47.62.06.03.22.08.27,0,.03-.05-.01-.12-.04-.16ZM146.76,103.6c.36-.01.72.02,1.06.16.65.28,1.16.94,1.08,1.66-.05.49-.35.86-.77,1.09-.13.07-.26.13-.4.2-.09.04-.18.09-.27.14-.64.35-.15.57.11.95.04.06.07.12.09.18.04.14.05.29,0,.43-.22.7-1.44,1.02-2.08.95-.56-.06-1.1-.27-1.62-.47-.42-.17-.86-.32-1.31-.38-.29-.04-.61-.03-.9-.02-.29,0-.95.02-1.2-.13-.18-.11-.24-.26-.12-.45.13-.21.53-.5.77-.58.35-.12.72-.18,1.09-.2.66-.03,1.51.07,2.13.34.2.09.39.22.57.33.1.06.49.3.6.18.06-.07-.03-.21-.07-.27-.01-.01-.02-.03-.04-.04-.33-.35-.76-.65-1.2-.83-.13-.05-.43-.19-.5-.31,0-.01-.01-.02-.01-.04-.01-.2.56-.38.71-.42.36-.11.72-.18,1.09-.24.33-.05.65-.09.98-.14.07-.01.28-.07.27-.18-.01-.09-.25-.16-.32-.18-.94-.23-1.92.07-2.81.38-.18.06-.36.13-.55.16-.09.02-.29.05-.36.02-.18-.07.1-.37.16-.44.31-.37.59-.68.98-.98.08-.06.31-.26.23-.38-.04-.06-.13-.07-.2-.06-.14.01-.28.08-.39.16-.56.37-.96.77-1.41,1.26-.23.25-.45.54-.72.77-.24.2-.49.39-.76.55-.25.16-.57.31-.87.31-.47,0-.63-.39-.69-.77-.17-1.09,2.16-3.36,2.72-2.55.04.06.09.11.16.13.05.01.1.01.14,0,.09,0,.18-.03.27-.07.14-.06.18-.1.29-.2.66-.58,1.58-1.41,2.46-1.47.33-.02.71.06.93.34.16.21.17.48.1.73-.09.33.38.37.6.36ZM127.76,115.52c-.28,0-.57.02-.85.05-.06,0-.12.02-.19.03-.14.01-.52.04-.58-.14-.07-.21.34-.56.5-.66.26-.18.53-.35.81-.49.4-.2.83-.36,1.25-.52.12-.05.57-.22.52-.4-.04-.16-.44-.17-.56-.15-.22.03-1.08.35-1.26.29-.02,0-.02-.03-.02-.08.03-.25.11-.71.07-.98-.02-.13-.06-.25-.21-.24-.05,0-.09.06-.13.23-.2.76-.27,1.39-1.03,2.01-.33.27-.62.55-.9.88-.39.46-.72.97-1.12,1.41-.08.09-.35.32-.48.29-.69-.13-.25-2.22-.06-2.65.12-.27.3-.6.64-.61.14,0,.27.04.41.07.04,0,.08.02.12.02.17.02.31-.02.44-.13.22-.19.39-.56.5-.82.11-.27.2-.55.29-.82.16-.49.51-.9.98-1.11.44-.19.92-.27,1.33.04.13.1.23.22.33.34.06.08.16.2.25.24.12.06.25.09.39.1.27.03.53,0,.8.05.36.07.62.26.86.53.13.15.22.31.29.49.26.77-.14,1.5-.75,1.96-.32.24-.78.64-.73,1.1.02.16.09.31.16.47.36.87-.56,1.33-1.36,1.09-.38-.11-.78-.22-1.18-.23-.41-.01-.85.15-1.26.2-.21.02-.49.01-.64-.17-.16-.19,0-.48.1-.56.54-.46,1.08-.52,1.75-.62.2-.03.41-.06.61-.08.1-.01.36-.08.36-.22,0-.16-.33-.19-.44-.19ZM122.15,121.27c.62.01,1.18.37,1.27,1.02.09.66-.36,1.18-.98,1.35-.16.04-.32.04-.47-.02-.4-.17-.6-.68-.63-1.08-.05-.57.18-1.16.8-1.27h0s0,0,0,0ZM119.74,120.55c-.07-.41-.1-.88-.11-1.05-.09-1.55.19-2.45.98-3.78.05-.09.33-.55.22-.63-.12-.09-.47.29-.54.37-.45.49-.71,1.09-1.06,1.66-.01.02-.03.05-.06.05-.14,0-.24-.45-.27-.54-.34-1.35-.1-2.46-.27-3.7-.02-.13-.05-.24-.1-.25-.13-.01-.22.16-.28.38-.16.66-.1,1.48-.11,2.16,0,.1.05.45-.05.49-.06.03-.15-.04-.19-.07-.24-.17-.47-.37-.7-.56-.21-.16-.56-.44-.82-.52-.07-.02-.17-.04-.22.03-.15.18.41.62.54.71,1.4,1.2,1.66,2.23,2.11,3.94.1.39.2.78.24,1.18.03.26-.06.46-.34.48-1.04.09-2.72-1.58-2.56-2.44.1-.56.74-.88.4-1.51-.12-.22-.27-.43-.42-.64-.18-.27-.36-.53-.53-.81-.12-.21-.23-.42-.31-.64-.18-.46-.18-1,.24-1.32.57-.44.9.25,1.1-.65.02-.08.03-.16.06-.24.64-1.94,1.71-2.23,2.57-1.61.44.32.78.75,1.03,1.45.11.3.31.57.65.48.64-.16,1.19-.07,1.16.94-.02.58-.25,1.29-.4,1.61-.15.31-.28.65-.2.85.04.11.14.18.25.22.29.12.5.33.58.64.1.37.08.68-.03.98-.22.57-.81.89-1.14,1.46-.12.21-.22.47-.31.73-.29.75-.87,1.54-1.11.13ZM109.16,120.08c-.91.63-1.81.23-1.9-.88-.03-.42.04-.93.47-1.11.43-.19.96.06,1.26.38.43.46.46,1.06.18,1.61h0s0,.01,0,.01ZM113.91,112.87c.1.37.12.67.1,1.06-.02.29-.06.55-.05.84.01.26.06.51.17.74.05.1.11.2.16.29.08.15.15.29.21.45.07.17.13.38.13.57,0,.21-.11.44-.33.49-.49.12-.85-.21-1.06-.63-.15-.3-.34-.64-.43-.97-.06-.24-.08-.53-.08-.78-.01-.31.01-.62.02-.93,0-.06,0-.23-.08-.24-.12-.02-.22.32-.25.41-.04.17-.14.71-.29.79-.13.06-.35-.11-.46-.19-.07-.06-.13-.14-.21-.19-.15-.1-.33-.2-.49-.27-.09-.04-.49-.23-.57-.11-.08.12.3.45.38.52.67.6,2.05,2.23,2.34,3.08.09.28-.11.3-.32.31l-.83.07c-.09,0-.33.04-.35.15-.02.17.45.24.57.25.55.1,1.02.16,1.54.39.12.05.24.11.35.18.46.27.65.61.04.87-.5.21-1.05.22-1.57.1-.57-.13-1.15-.43-1.58-.84-.27-.25-.63-.7-.5-1.1.02-.06.04-.11.08-.15.16-.23.43-.52.39-.83-.03-.21-.23-.3-.41-.35-.51-.14-1.05-.37-1.38-.82-.63-.85-.15-2.06.29-2.87.22-.41.54-.81.95-1.04.26-.14.59-.22.86-.1.2.09.27.27.44.37.27.17.66.07.9-.1.55-.37,1.16-.02,1.32.58ZM120.58,108.94c-.24.34-.62.51-1.03.53-.47.02-.93-.03-1.04-.57-.03-.14-.1-.68-.26-.72-.18-.05-.52.51-.61.64-.31.47-.93,1.57-1.51,1.68-.64.11-.39-.62-.49-.96-.11-.38-.33.07-.4.22-.04.09-.06.17-.11.25-.18.29-.53.6-.9.46-.34-.13-.41-.55-.37-.87.07-.52.37-1.14.68-1.56.24-.33.61-.74,1-.9.17-.07.42-.16.57,0,.05.06.11.11.17.15.33.25.59.05.82-.21.79-.89,2.07-1.08,2.98-.26.58.52.98,1.4.49,2.11ZM121.78,100.27c-.19.55-.56,1.02-1.11,1.23-.1.04-.19.07-.29.11-.3.13-.58.32-.55.69.02.19.1.31.2.47.15.24.18.43.12.71-.23.96-1.03,1.06-1.86,1.25-.4.09-.79.19-1.18.32-.22.07-.61.24-.83.22-.19-.02-.37-.11-.46-.29-.15-.31.08-.63.32-.81.47-.36,1.17-.46,1.72-.67.11-.04.76-.32.72-.46-.03-.12-.55-.03-.65-.01-.4.07-.78.19-1.17.26-.08.01-.35.09-.41.03-.08-.09.18-.46.24-.54.71-1,1.46-1.98,2.43-2.74.11-.09.77-.69.67-.83-.05-.07-.26.03-.32.06-.74.33-1.29.9-1.89,1.43-.09.08-.17.16-.26.23-.02.02-.06.05-.09.04-.1-.04-.07-.48-.06-.58,0-.17,0-.66-.02-.83,0-.05-.02-.19-.09-.2-.15-.03-.26.46-.28.53-.24.88-.21,1.52-.53,2.19-.24.5-1.23,2.23-1.59,2.53-.21.18-.44.24-.64-.09-.25-.43-.1-1.36.02-1.83.2-.74.49-1.12,1-1.68.33-.36.46-.7.49-1.18.02-.25,0-.5.04-.74.04-.3.12-.56.27-.83.16-.28.43-.52.69-.68.41-.25,1.01-.43,1.44-.12.19.14.31.34.36.57.04.18.27.11.39.06.18-.07.35-.16.52-.24,1.25-.6,2.27-.31,2.72,1.05.13.4.05.98-.09,1.37ZM122.56,104.21c.27.32.14.84-.1,1.14-.48.59-1.5.68-1.67-.22-.05-.22-.02-.44.1-.63.14-.21.36-.34.6-.42.3-.1.83-.14,1.06.13ZM126.89,101.79c-.22.34-.91.28-1.25.19-.32-.08-.62-.24-.88-.43-.15-.11-.47-.43-.67-.27-.13.11.15.55.21.66.13.21.17.46.07.69-.16.39-.64.62-1.05.58-.22-.02-.45-.1-.6-.27-.61-.68.36-3.18.85-3.8.47-.59,1.07-.37,1.61-.02.26.17.5.37.72.58.49.44,1.46,1.36.98,2.08ZM129.61,107.72c.09.11.17.24.21.37.04.14.05.28.03.42-.04.24-.15.45-.31.63-.51.57-1.38.78-2.16.72-.06,0-.11,0-.17-.01-.59-.06-1.09-.15-1.6.17-.22.14-.38.33-.56.52-.3.31-.53.46-.95.57-.06.02-.13.03-.2.04-.22.01-.38-.08-.41-.32-.04-.45.28-.88.57-1.17.82-.84,1.32-.9,2.49-.98.16-.01.31-.02.46-.04.06,0,.43-.06.43-.14,0-.05-.17-.1-.2-.11-.32-.1-.71-.15-1.04-.16-.09,0-.27,0-.31-.11-.05-.12.14-.31.2-.39.22-.26.47-.49.72-.71.2-.17.4-.34.61-.5.15-.11.29-.22.42-.34.06-.05.39-.34.31-.44-.11-.14-.77.21-.89.27-.05.03-.1.06-.15.09-.38.26-.75.52-1.12.79-.06.05-.12.1-.18.15-.04.04-.24.21-.31.16-.04-.03-.02-.13-.01-.17.02-.1.05-.2.07-.29.04-.22.09-.4.17-.61.03-.07.22-.6.11-.67-.05-.03-.16.06-.2.09-.1.09-.2.21-.27.32-.04.07-.08.14-.11.21-.17.43-.35.86-.55,1.28-.14.3-.3.6-.45.9-.17.33-.39.64-.6.95-.1.15-.21.3-.31.46-.11.17-.62.92-.87.56-.27-.39-.2-2.28.2-3.25.23-.56.51-.69,1.01-.94.13-.06.25-.14.36-.24.46-.42.52-1.04.84-1.55.23-.37.61-.62,1.06-.68.34-.05.76.01,1.05.26.09.08.16.19.26.26.17.11.33.16.52.13.11-.02.22-.06.32-.1.47-.16,1.01-.15,1.42.22.46.41.54,1.09.33,1.6-.1.23-.25.44-.37.66-.26.48-.27.67.11,1.13ZM135.58,99.23c-.23-.09-.41-.24-.51-.47-.1-.24-.1-.51-.03-.76.08-.33.37-.84.76-.89.47-.06.86.4.99.78.14.44.05,1.04-.37,1.31-.26.16-.56.14-.83.02ZM131.88,108.71c-.25-.45-.67-.89-.78-1.41-.22-.99.72-1.23.96-1.21.39.04.48-.12.58-.43.12-.41.26-.8.47-1.14.88-1.41,2.37-1.38,2.78.57.03.13.06.26.11.38.18.48.4.49.63.46,1.16-.19,1.7.87,1.68,2.01-.02,1.38-.82,1.83-1.05,2.87-.11.5.04,1.13.15,1.61.05.2.04.43-.07.61-.06.1-.15.17-.25.23-.76.4-1.44-1.09-1.56-1.66-.11-.51-.22-1.11-.02-1.62.18-.46.49-.8.76-1.2.04-.06.25-.36.18-.43-.11-.11-.86.49-.96.58-.1.08-.36.32-.49.27-.08-.03-.12-.15-.14-.23-.2-.81-.24-1.69-.23-2.53,0-.1,0-.19,0-.29,0-.13-.07-.25-.21-.25-.12,0-.18.28-.2.37-.07.38-.1.79-.11,1.17,0,.09,0,.18,0,.27,0,.14.02.27.02.41,0,.08,0,.21-.07.26-.22.18-1.41-1.05-1.54-.73-.03.07.24.4.28.44.1.1.21.2.32.29.57.51.92.79,1.24,1.53.06.13.31,1.02.2,1.1-.05.04-.14-.01-.19-.03-.11-.05-.22-.1-.33-.14-.39-.13-.75-.22-1.16-.26-.05,0-.22,0-.24.06-.02.07.15.15.19.17.03.02.07.03.1.05.48.23.97.46,1.42.76.32.22.62.5.81.85.1.18.28.56.1.75-.09.09-.23.11-.35.1-.54-.03-1.41-.57-1.85-.88-.49-.34-1-.74-1.31-1.28-.08-.14-.15-.29-.19-.45-.11-.37-.17-.82.21-1.06.07-.05.14-.1.2-.16.26-.26.14-.54-.07-.79h0s0,0,0,0ZM131.52,97.77c.01.13.04.27.01.39-.03.16-.09.21-.24.11-.23-.16-.49-.51-.68-.72-.17-.21-.34-.42-.54-.61-.13-.12-.8-.72-.98-.55,0,0-.01.01-.01.02-.08.15.27.56.37.66.34.39.69.78,1.01,1.19.13.16.25.33.38.5.05.07.11.13.16.2.05.06.18.24.13.31-.08.12-.49-.1-.57-.14-.36-.18-1.22-.49-1.61-.35-.04.01-.14.05-.14.11,0,.11.34.24.43.28,1.49.56,2.64,1.28,3.33,2.76.13.28.2.55.28.85.06.23.02.5-.18.64-.12.09-.27.11-.41.07-.2-.05-.38-.19-.51-.33-.12-.13-.25-.26-.37-.4-.23-.26-.45-.42-.79-.51-.08-.02-.17-.04-.25-.06-.49-.12-1.18-.45-1.14-1.05.02-.24.03-.59-.18-.76-.12-.1-.29-.14-.44-.17-.23-.05-.44-.09-.66-.17-.32-.11-.71-.29-.91-.58-.39-.56.03-1.35.59-1.6.09-.04.19-.09.23-.19.14-.4-.24-.82-.46-1.11-.33-.44-.45-.97-.17-1.46.09-.15.2-.28.32-.4.65-.59,1.51-.52,2.2-.04.17.12.35.24.52.37.16.11.52.4.72.27.17-.11.44-.31.64-.34.25-.04.55.15.75.28.48.3.94.87,1.11,1.41.15.48.16,1.01.17,1.51,0,.2-.02.68.07.84.03.05.07.09.12.12.08.07.17.12.26.18.46.28.5,1.03.45,1.5-.04.39-.18.9-.44,1.2-.11.13-.27.25-.44.25-.33,0-.51-.42-.6-.68-.29-.85-.64-1.67-.84-2.56-.08-.38-.13-.76-.17-1.15-.02-.15-.09-.74-.3-.74-.22,0-.24.51-.22.66ZM104.13,132.11c.04.22.14.44.35.55.41.23,2.67-1.07,1.06-2.03-1.18-.7-1.57.51-1.4,1.47ZM99.52,113.61c.43-.74,1.03-.75,1.54-.08.29.38.27,1.06-.07,1.41-.23.24-.55.26-.86.17-.05-.01-.1-.03-.14-.06-.48-.24-.74-.97-.47-1.45ZM89.25,132.95c-.06-.25.07-.44.26-.59.06-.05.14-.1.21-.14.39-.2.87-.19,1.29-.1.37.08.62.11.94.32.19.12.5.36.54.59.1.48-.25.85-.65,1.06-.29.15-.58.29-.89.39-.1.03-.64.23-.59.38.05.14.6.03.71,0,.34-.07.66-.18.98-.33.08-.04.33-.16.41-.09.03.03.04.11.05.15.02.2.02.42.02.62,0,.17,0,.51.07.66.02.04.05.1.1.1.08,0,.12-.14.13-.2.18-.83.32-1.83.86-2.52.31-.39.75-.71.82-.1,0,.04,0,.08,0,.13,0,1.5.44.3.54-.09,0-.03.02-.05.03-.08.06-.16.12-.32.19-.47.14-.29.32-.55.54-.71.31-.21.61-.27.64.2.04.73-.32,1.91-.78,2.48-.24.29-.55.46-.92.55-.25.06-.47.2-.59.42-.18.32-.15.75-.32,1.08-.14.27-.35.55-.65.67-.38.15-.76,0-1.07-.23-.12-.08-.23-.18-.34-.27-.47-.42-.75-.58-1.37-.31-.59.26-1.42-.3-1.68-.82-.17-.35-.37-.81-.18-1.19.11-.23.34-.42.53-.58.11-.09.19-.19.25-.32.09-.22-.07-.45-.12-.66ZM99.31,127.14c.06.4.24,1.06.12,1.44-.07.22-.44-.08-.52-.15-.54-.48-.91-.96-1.3-1.56-.07-.11-.44-.7-.59-.61-.12.07,0,.45.03.55.03.08.06.16.1.24.8,1.49,1.64,2.56,3.15,3.38.64.35.15.6-.23.84-.04.03-.08.05-.12.08-.23.15-.46.33-.64.54-.03.03-.11.13-.08.17.05.07.41-.1.47-.13.62-.29,2.13-.84,2.76-.45.49.3.23.91-.09,1.23-.65.64-2.15.51-2.98.35-.19-.04-.38-.08-.56-.15-.4-.15-.77-.36-.92-.78-.14-.36,0-.82-.12-1.19-.08-.24-.22-.38-.42-.53-.42-.32-1.08-.31-1.57-.52-.47-.2-.89-.56-.59-1.08.06-.11.15-.23.25-.3.35-.24.63-.55.21-.9-.18-.15-.35-.3-.51-.46-.46-.49-.72-.74-.6-1.47.14-.86.85-1.48,1.66-1.71.28-.08.57-.11.85-.05.36.07.59.2.81.5.16.22.27.41.49.59.1.08.21.13.34.11.11-.02.22-.09.32-.15.13-.08.25-.15.39-.19.08-.02.16-.04.24-.03.32,0,.6.31.8.54.55.63.81,1.57,1.02,2.36.13.48.34,1.07.73,1.39.06.05.12.1.19.14.39.28.72.41.96.85.09.16.17.39.09.57-.15.33-.73.25-1.01.2-.1-.02-.21-.04-.31-.08-.48-.16-.98-.42-1.39-.72-.34-.26-.62-.55-.72-.98-.06-.24-.06-.5-.08-.75-.03-.35-.09-.67-.21-1-.04-.1-.25-.55-.39-.5-.1.04-.05.34-.04.42ZM103.99,124.09c-.04.06-.16.19-.24.19-.14,0-.19-.37-.21-.47-.02-.15-.04-.29-.05-.42-.14-1.32.11-2.25.26-3.53.01-.12.01-.23-.04-.24-.08,0-.25.22-.27.28-.31.72-.42,1.32-.51,2.07,0,.03-.02.07-.05.08-.14.07-.59-.59-.85-.72-.05-.03-.1-.04-.12-.02-.08.08.12.44.14.48.16.26.35.5.5.75.16.28.26.54.3.84.05.3.06.53.11.82.08.4.23.77.31,1.14.06.25.1.69-.18.83-.08.04-.18.04-.28.03-.83-.12-1.32-1.45-1.36-2.37-.02-.35-.04-.71-.28-1.01-.4-.49-1.37-2.44-.21-3.08.16-.09.38-.06.68.12.28.17.45-.62.46-.81.03-.52.29-.89.65-1.14.37-.25.84-.36,1.26-.36.38,0,.74.11,1.07.28.37.19.68.63.83,1.03.2.53.16,1.1-.13,1.61-.2.34-.5.81-.15,1.09.1.08.23.12.36.14.26.03.48.16.62.37.21.33.18.74-.02,1.09-.05.09-.11.26-.21.43-.17.3-.27.61-.41.87-.67,1.24-.7,2.12-.8,2.77-.14.8-.67,1.14-1,.66-.12-.18-.19-.62-.22-1.12-.08-1.5.63-2.66.98-3.28.1-.17.42-.52.34-.63-.03-.04-.13-.06-.43.2-.34.3-.75.83-.87,1.01ZM110.29,131.74c.22.23.52.38.85.42.27.03.57-.03.78-.22.27-.25.27-.61.16-.93-.27-.89-1.06-.7-1.7-.3-.55.34-.49.6-.08,1.03ZM108.9,126.68c-.1.25-.16.33-.4.7-.52.81-1.26,1.75-1.79,1.99-.17.08-.39.13-.55.01-.23-.16-.23-.54-.2-.79.05-.39.2-.8.41-1.13.12-.21.28-.4.45-.56.14-.13.29-.25.41-.4.25-.3.32-.63.33-1.02,0-.34,0-.67,0-1.01.02-.73.24-1.58.74-2.11.41-.44,1.37-.79,1.86-.36.08.07.17.11.28.13.36.07.83-.12,1.18-.45.38-.35.95-.48,1.43-.29.8.32,1.49,1.46.86,2.23-.61.62-.03,1,.34,1.52.1.13.16.29.17.46.02.6-.62,1.07-1.12,1.26-.61.23-.91.19-.77.95.06.32-.12.74-.34.97-.16.16-.34.28-.55.37-.21.09-.43.15-.66.21-.18.04-.37.08-.56.12-.14.03-.29.05-.43.08-.21.05-.39.11-.58.2-.5.24-.96.6-1.54.59-.22,0-.38-.09-.44-.31-.06-.21.08-.44.29-.64.24-.24.65-.57.82-.67.65-.37,1.57-.48,2.3-.59.11-.02.4-.08.37-.24-.07-.35-1.05-.23-1.3-.21-.67.06-.39-.33-.01-.79.68-.84,1.56-1.87,2.04-2.74.12-.21.18-.46.06-.54-.08-.05-.36.24-.41.29-.44.47-1.07,1.26-1.42,1.71-.28.34-.4.16-.38-.17.03-.5-.03-.98-.09-1.48-.01-.09-.1-.45-.22-.45-.14,0-.17.41-.17.51.02.74-.12,1.99-.43,2.66ZM119.2,135.59c-.15.02-.53.04-.63.18-.02.03-.03.06-.03.09,0,.07-.01.13-.01.2-.03.62-.39.98-1,.78-.41-.13-.73-.53-1.08-.77h0s0,0,0,0c-.19-.2-.4-.32-.62-.1-.05.05-.1.11-.14.17-.22.31-.56.25-.87.13-.12-.05-.24-.12-.35-.19-.41-.3-.7-.79-.93-1.24-.22-.42-.59-1.22-.58-1.7,0-.13.04-.27.14-.35.19-.17.45-.05.63.07.27.19.48.47.63.77.21.41.36.87.51,1.31.02.06.09.29.16.26.17-.06.04-.78.02-.91-.02-.1-.04-.21-.06-.31-.03-.12-.07-.34.06-.42.12-.07.32.02.44.07.12.05.23.09.34.15.58.33.74.63,1.11,1.17.07.1.14.2.21.3.03.03.18.27.26.24.19-.08-.31-1.03-.34-1.23-.04-.26.14-.25.33-.22.46.06.8.08,1.26.01.08-.01.3-.05.31-.16.01-.12-.07-.18-.18-.2-.08-.01-.15-.02-.23-.02-.67-.04-1.38-.12-2.02-.34-.06-.02-.15-.06-.17-.13-.04-.13.18-.35.25-.43.11-.12.21-.25.31-.39.04-.05.27-.38.22-.44-.05-.07-.31.11-.36.14-.34.22-.63.48-1.02.61-.42.15-.89.03-1.3-.1-.46-.15-1.67-.73-1.29-1.39.05-.09.11-.16.2-.21.15-.09.34-.08.5-.03,1.16.38,1.33.32,2.36-.28.25-.14.54-.25.82-.28.12-.01.24-.02.35,0,.55.03,1.03.29,1.17.86.02.09.03.19.04.28,0,.1-.01.21-.04.3-.03.11-.09.29-.06.41.04.16.27.27.39.34.24.12.52.17.78.26.32.11.55.27.74.56.25.4.29.91.11,1.34-.24.55-.76.82-1.33.88ZM119.97,126.55c.04.14.08.27.11.41.18.88-.28,1.35-1.12,1.45-.38.04-.76-.14-1.13-.09-.27.03-.48.18-.64.4-.23.31-.52.54-.89.66-.71.22-1.94.14-2.61-.17-.45-.21-.22-.48.08-.67.52-.33,1.38-.28,1.97-.23.09,0,.17.02.26.02.08,0,.37,0,.38-.11,0-.06-.08-.11-.13-.14-.31-.15-.63-.24-.93-.4-.25-.13-.08-.26.08-.36.96-.57,2.15-.28,3.18-.11.06.01.21.03.24-.05.02-.05-.02-.1-.05-.13-.11-.12-.43-.25-.59-.31-.18-.08-.39-.15-.56-.24-.04-.02-.11-.06-.12-.1-.03-.1.18-.29.25-.35.27-.24.51-.5.72-.79.07-.1.14-.2.2-.31.03-.06.17-.3.09-.36-.12-.1-.51.25-.58.33-.23.25-.48.48-.74.69-.34.28-.83.49-1.24.22-.2-.13-.41-.46-.44-.68-.06-.39-.03-.81.05-1.19.1-.43.29-.88.63-1.17.07-.06.14-.1.21-.15.21-.12.55-.14.76.01.18.13.35.46.59.45.14,0,.27-.05.4-.11.22-.12.5-.26.76-.28.1,0,.2,0,.3.03.29.09.53.34.73.57.19.22.31.54.34.82.05.36,0,.78-.29,1.04-.49.47-.49.77-.29,1.39ZM128.25,120.84c-.19-.09-.03-.21.04-.23.18-.07.38-.12.56-.2.08-.03.64-.24.62-.33-.03-.14-.22-.13-.42-.08-.76.17-1.19.31-2.04.29-.21,0-.41-.04-.65-.11-.29-.09-.59-.14-.89-.17-.39-.04-.77-.06-1.16-.06-.06,0-.11,0-.17,0-.29,0-.97-.02-.61-.48.32-.42,1.04-.76,1.53-.93.5-.18,1.75-.52,2.14.02.17.24.23.27.52.34.34.09.92-.03,1.28-.05.56-.04,1.32.07,1.6.63.15.29.11.62-.02.92-.06.15-.07.33.01.47.08.15.37.33.51.44.16.14.27.31.3.52.05.34-.09.68-.31.92-.27.29-.64.43-1.04.42-.35-.02-.57.01-.78.31-.05.07-.09.15-.13.22-.35.63-1.37.52-1.91.23-.53-.29-1.02-1.32-1.33-1.39-.12-.03-.27,0-.38.03-.5.1-.81-.1-.99-.3-.12-.14-.88-1.46-.24-1.61.4-.1.83-.04,1.23.06.26.06.5.17.71.31.51.34.63.57.89,1.07.24.47.58,1.08.78,1,.07-.03.01-.24,0-.29-.12-.51-.41-.97-.53-1.49,0-.04-.02-.11.02-.14.08-.06.45.11.54.16.46.21.91.42,1.37.61.1.04.53.23.61.12.1-.14-.33-.39-.41-.43-.42-.26-.84-.53-1.26-.8ZM136.21,118.7c-.45.09-.88.25-1.28.48-.11.06-.62.43-.54.57.05.09.3.01.37,0,.37-.11.72-.28,1.08-.41,1.02-.35,2.31-.25,2.99.69.13.18.22.42.02.59-.01.01-.03.02-.04.03-.22.14-.68.01-.92-.04-.03,0-.06-.01-.08-.02-.64-.12-1.07-.1-1.67.16-.68.27-1.31.49-2.05.35-.8-.15-1.69-.88-1.3-1.77.03-.07.07-.13.12-.19.16-.18-.46-.38-.58-.42-.22-.08-.44-.18-.63-.32-.47-.34-.76-.88-.61-1.47.16-.65.77-1.02,1.42-1.05.14,0,.27-.01.41-.03.11-.01.27-.03.34-.13.05-.06.07-.16.09-.24.04-.14.08-.27.15-.39.4-.73,1.18-.83,1.89-.53.52.22.88.67,1.22,1.1.2.25.4.52.63.74.15.15.37.34.59.36.11,0,.22-.03.31-.08.61-.32,1.38.63,1.65,1.08.07.12.14.25.19.38.1.24.22.63.03.85-.3.35-1.08.02-1.42-.15-.7-.35-1.3-.81-1.93-1.26-.47-.34-.82-.74-1.22-1.16-.07-.07-.45-.46-.58-.35-.05.05-.02.17,0,.22.05.14.15.28.25.39.09.1.17.21.26.32.07.09.14.18.21.28.08.12.09.21-.08.23h0s0,0,0,0c-.63-.05-1.31-.14-1.94-.1-.09,0-.49.04-.48.17,0,.15.54.23.65.25.75.06,1.49.16,2.22.38.07.01.16.05.22.09.16.09.33.25.07.35h0s0,0,0,0ZM147.98,141.62c-.52.09-.97-.1-1.27-.53-.2-.3-.4-.69-.81-.68-.11,0-.19.07-.27.14-.41.35-1.34.56-1.71.05-.18-.25-.18-.62-.14-.91.03-.26.21-.78.14-1.02-.09-.28-.3-.34-.57-.38-.07,0-.13-.02-.2-.03-.44-.1-.45-.43-.41-.81.03-.31.09-.79,0-1.09-.04-.11-.1-.21-.15-.31-.09-.16-.18-.33-.27-.5-.12-.25-.22-.62.01-.84.26-.26.71-.09.97.07,1.6,1.02,2.1,2.36,1.94,4.2,0,.06,0,.13,0,.2,0,.2.05.31.24.13.28-.27.38-1.03.37-1.41,0-.21-.02-.42-.03-.63,0-.04,0-.08,0-.12v-.05s.04.03.04.03c.05.05.12.15.16.21.4.6.77,1.23,1.11,1.87.06.12.3.55.47.47.22-.1-.02-.79-.08-.95-.09-.21-.21-.41-.32-.61-.12-.2-.33-.53-.37-.75-.03-.17.07-.19.2-.17.12.01.24.07.35.12.14.06.62.17.71,0,.09-.17-.43-.39-.54-.43-.33-.14-.66-.28-.98-.45-.84-.46-1.59-1.03-2.35-1.6-.06-.04-.12-.08-.17-.12-.09-.07-.45-.34-.26-.47.37-.24,1.13-.25,1.56-.22.47.03,1.62.29,1.69.86.01.09.02.18.05.26.01.05.03.09.06.13.1.12.57.23.74.29.44.14.92.28,1.3.55.47.32.86,1.01.83,1.59,0,.08-.02.15-.04.23-.04.16-.1.36-.27.43-.1.04-.19.05-.29.12-.19.13-.1.48-.06.67.04.18.08.35.11.53.16.8-.25,1.47-.98,1.8-.16.07-.33.13-.5.16ZM134.7,132.63c0-.5.11-.99.64-1.2.62-.24,1.19-.07,1.59.45.08.1.16.18.26.26.16.13.37.25.57.15.22-.1.52-.23.76-.25.38-.02.86.23,1.16.45.72.53,1.29,1.39.46,2.11-.16.14-.43.24-.63.29-.43.11-.95.08-.93-.48,0-.14.05-.3.08-.43.09-.33-.27-.41-.47-.18-.17.19-.22.7-.48.77-.15.04-.32-.08-.43-.17-.3-.27-.52-.57-.75-.9-.03-.04-.05-.08-.08-.12-.01-.02-.03-.04-.04-.06-.39-.55-.86-.4-.5.18.03.05.06.09.09.14.13.2.28.38.38.59.12.24.17.51.01.74-.26.38-.93.42-1.34.3-.94-.27-1.14-1.42-.44-2.06.13-.12.12-.3.12-.46,0-.05-.01-.09-.01-.14ZM134.13,137.75c-.12-.6.48-1.04.97-1.24.51-.21,1.03-.17,1.56-.11.1.01.2.03.3.04.44.03.93.05,1.31-.21.07-.05.14-.1.2-.15.43-.35,1.22-.55,1.71-.24.1.07.19.15.25.26.21.36-.43.83-.7.98-.29.16-.51.29-.83.38-.76.21-1.56.27-2.35.19-.64-.06-1.52.16-.18.46.29.07.57.12.88.15.01,0,.02,0,.04,0,.07,0,.27.02.29.09.02.08-.12.16-.17.18-.5.27-.97.56-1.51.77-.12.04-.23.09-.35.14-1.06.43-.68.68.14.5.14-.03.28-.07.42-.12.35-.12.69-.26,1.03-.41.11-.05.44-.24.43.03,0,.19-.11.49-.16.68-.29,1.1.15.99.49.17.03-.06.05-.12.07-.18.05-.14.11-.28.17-.43.24-.58.57-1.03,1.03-1.44.5-.45,1.63-1.15,2.32-.82.23.11.29.33.25.57-.04.26-.29.69-.43.93-.16.27-.33.54-.48.81-.26.46-.74,1.4-1.4.93-.16-.11-.32-.11-.47.02-.07.06-.13.13-.18.2-.16.24-.23.52-.37.76-.21.36-.51.57-.89.72-.22.09-.51.1-.74.02-.21-.07-.41-.17-.56-.34-.18-.2-.18-.39-.49-.44-.11-.02-.22-.01-.33,0-.32.04-.62.17-.94.23-.42.08-.78,0-1.15-.2-.15-.08-.26-.21-.37-.34-.26-.31-.43-.69-.46-1.1-.03-.39-.02-.83.28-1.13.22-.22.6-.36.89-.49.18-.08.3-.19.39-.37.08-.17.12-.29.09-.48ZM147.14,132.98c-.06-.3,0-.6.22-.82.34-.33.91-.33,1.31-.11.36.2.69.66.54,1.08-.12.33-.6.52-.92.56-.54.08-1.07-.12-1.15-.72ZM149.21,129.84c.23-.21.46-.42.72-.61.48-.35,1.02-.63,1.56-.9.27-.13.2-.42-.4-.25-.28.08-.56.17-.83.28-.27.11-.54.26-.79.4-.25.15-.49.3-.73.46-.23.15-.36.2-.34-.14.01-.32-.02-.65-.09-.97-.02-.09-.05-.2-.1-.27-.01-.02-.04-.04-.07-.05-.16-.02-.22.34-.22.44-.08,1-.46,2.07-1.19,2.8-.08.08-.15.16-.24.23-.23.18-.67.35-.97.39-.24.03-.5.02-.69-.13-.69-.52.11-1.54.61-1.91.57-.43.65-.71.73-1.09.18-.86.62-2.07,1.53-2.41,1.06-.39,1.47.34,2.04.63.25.13.47.05.86-.02.28-.05.56-.13.85-.14.5-.03,1.05.05,1.46.36.23.17.43.44.55.68.26.52.28,1.12-.32,1.4-.15.07-.66.36-.74.48-.12.17.02.42.05.6.06.3-.07.54-.33.72-.45.31-1.14.42-1.69.43-.33,0-.65,0-1.01-.08-.8-.17-.92-.67-.2-1.34ZM167.16,129.41c-.23.28-.83,1.01-1.2.54-.34-.44-.13-.92.13-1.34.32-.51.83-1.22,1.03-1.82.05-.14.07-.28,0-.32-.14-.08-.42.27-.49.36-.1.13-.19.26-.28.39-.11.15-.27.42-.41.53-.22.17-.26-.12-.28-.27-.07-.55-.11-1.1-.18-1.65-.08-.58-.23-1.13-.42-1.68-.05-.13-.31-.66-.49-.59-.11.04-.07.29-.06.38.15.77.39,1.59.39,2.37,0,.33-.3.18-.45.06-.41-.31-.79-.63-1.25-.87-.07-.04-.38-.2-.45-.11-.05.07.1.23.14.28.07.07.15.14.22.21.52.44,1.05.93,1.42,1.51.41.65.78,1.72.55,2.49-.06.19-.15.34-.3.38-.21.05-.49-.21-.6-.37-.29-.44-.43-.95-.61-1.44-.26-.64-.63-1.19-1.19-1.61-.41-.3-.8-.68-1.02-1.14-.15-.32-.22-.7-.1-1.04.15-.43.61-.78,1.07-.78.14,0,.53.08.55-.14.02-.17-.05-.39-.1-.56-.33-1.27.5-2.44,1.86-2.35,1.35.09,1.8,1.66,1.96,2.95.05.41.37.5.63.47.7-.07.95.23,1.05.68.33,1.56-.14,3.23-1.13,4.46ZM173.74,120.87c-.13.59-.54.79-.85,1.25-.05.08-.1.17-.11.27,0,.05,0,.13.02.18.12.3.01.61-.2.83-.29.29-.8.45-1.18.52-.26.05-.53.09-.8.11-.74.06-1.87.01-1.19-1.16.73-1.02,1.65-1.21,2.18-1.68.48-.42.46-.81-.34-.46-.63.27-.91.58-1.44.89-.15.09-.3.16-.37.15-.12-.03-.22-.33-.36-.64-.15-.31-.38-.53-.61-.61-.14-.05-.26.04-.18.2.1.2.18.34.26.59.17.54.24,1.13,0,1.48-.23.35-.74.3-1-.1-.13-.2-.16-.47-.23-.74-.11-.43-.38-.75-.47-1.19-.03-.16-.04-.34-.03-.51.03-.26.12-.51.28-.71.2-.25.43-.41.73-.45.56-.08,1.17.2,1.7.38.53.18.86,0,1.26-.34.36-.3.71-.6,1.1-.64,1.11-.13,2.04,1.36,1.83,2.38ZM175.69,121.8c.36.27.33.84.14,1.2-.4.73-1.44.95-1.8.06-.1-.22-.12-.44-.03-.67.11-.26.35-.45.6-.57.29-.14.8-.24,1.08-.03ZM171.12,139.03c.14.49-.17,1.03-.59,1.14-.27.07-.16.55-.13.78.06.57.02,1.2-.25,1.7-.2.37-.52.63-.89.68-1,.12-1.16-.64-1.47-1.27-.32-.63-1.1-.24-1.63-.34-.47-.09-.79-.4-.91-.79-.17-.53.01-1.18.04-1.73.02-.43,0-.81-.18-1.05-.45-.59.02-2.07.96-1.65.7.32.54,1.94.54,2.64,0,.49.17.56.28.43.15-.19.2-.37.23-.57.06-.38.16-1.56.64-.91.44.6.73,1.67.9,2.29.28,1.04.69,1.08.5-.18-.08-.58-.27-1.24-.32-1.39-.04-.11-.12-.29-.17-.48-.22-.73.17-.9.63-.86.8.08,1.57.66,1.83,1.57ZM173.15,131.56c-.21-.4-.74-.71-1.33-.68-.52.03-.97.33-1.42.48,0,0,0,0,0,0,0,0,0,0,0,0-.26.14-.52.2-.75-.05-.05-.06-.1-.12-.14-.19-.65-1.12-2.1.16-2.49.58-.16.18-.3.4-.39.64-.14.36-.32,1.09.31,1.14.44.04.87-.59,1.08-.89.12-.18.24-.36.35-.54.02-.03.03-.05.05-.08.13-.21.24-.16.21.07-.04.23-.09.44-.18.66-.03.09-.07.18-.11.27-.05.1-.12.29.01.39.12.09.37.06.52.05.14-.01.28-.02.42-.05.72-.15,1.01-.41,1.52-.82.09-.07.55-.47.65-.38.12.1-.22.51-.29.59-.13.15-.28.3-.34.47-.09.23.13.27.36.29.56.06,1.01.13,1.57.32.1.03.36.13.36.23,0,.12-.1.2-.23.18-.09,0-.19-.03-.29-.04-.42-.07-.84-.14-1.26-.18-.42-.04-.75-.06-1.15-.04-.2.01-.22.11-.18.22.16.38.68.64.97.94.37.38.26.75-.34.36-.23-.15-.49-.36-.55-.4-.33-.26-.71-.54-.99-.69-.46-.24-1.03-.34-1.51-.33-.47.01-1.44.24-1.49.74-.04.46.66.56,1.05.56.57,0,.73-.02,1.05.12.32.14.63.38,1.15.77.5.38,1.02.61,1.51.71.75.15,1.71.05,2.18-.45.11-.12.15-.24.16-.34.09-.64.73-.69,1.29-.77.42-.05.8-.11,1.14-.49.15-.17.24-.4.25-.7.02-.86-.27-1.31-.65-1.55-.2-.13-.42-.2-.64-.24-.12-.02-.29-.04-.47-.07-.67-.11-.65-.22-.97-.82ZM163.06,130.21c-.19-.75-.86-1.72-1.42-2.17-.31-.25-.67-.36-1.04-.36-.26,0-.51-.1-.7-.31-.12-.13-.22-.26-.3-.38-.25-.35-.59-.78-.98-1.03-.56-.35-1.29-.21-1.48.43-.17.58-.06.91-1.34.87-1.35-.05-1.6,1.54-.68,2.42.22.21.5.39.8.57.14.08.35.24.26.53-.15.52.29.81.6.93.77.31,3.19.34,2.63-.89-.49-1.07-1.83-1.32-2.52-1.48-.11-.02-.68-.1-.68-.26,0-.16.58-.16.69-.16.35,0,.69.04,1.04.13.09.02.36.09.42,0,.02-.04.01-.12,0-.17-.04-.21-.1-.43-.16-.64-.05-.18-.14-.53-.12-.7,0-.05.02-.11.07-.13.08-.03.15.12.18.18.42.83.93,1.77,1.64,2.42.05.05.02.03.08.08.08.06.09.08.18.14.46.29.65.31.71.1.08-.31-.22-.8-.09-1.18.02-.07.12-.08.22.04.28.35.36.84.64,1.24.41.57,1.58.7,1.35-.22ZM159.53,134.16s-.08-.03-.16-.06c-.79-.25-.21-1.67,1.09-1.84.77-.1,1.43.29,1.07,1.15-.06.13-.13.27-.2.39-.36.61.2.56.47.29.08-.08.16-.18.23-.29.34-.52,1.49-1.84,2.47-2.09.3-.08.58-.05.83.12.36.25.25.95,0,1.53-.12.28-.29.54-.48.74-.38.42-.75.67-1.13.52-.08-.03-.15-.08-.23-.15-.26-.21-.42-.25-.9.24-.26.26-.56.58-.94.77-1.26.61-2.38.05-2.23-.83.03-.16.19-.39.11-.48ZM175.52,127.75c.08-.01.23-.06.23-.16,0-.06-.06-.11-.11-.13-.28-.12-.83-.18-1.14-.19-.35-.01-.7-.01-1.04,0-.13,0-.28,0-.42,0-.06,0-.15-.02-.18-.08-.02-.06.04-.13.08-.17.08-.09.18-.18.28-.27.11-.1.24-.18.36-.26.1-.07.21-.15.31-.22.06-.04.17-.13.13-.22-.02-.05-.09-.07-.14-.08-.1-.01-.22.03-.32.07-.11.05-.23.1-.34.16-.43.22-.82.48-1.23.73-.54.35-1.09.58-1.69.79-.38.18-1.2.28-1.11-.67.03-.37.21-.83.74-1.17,1.21-.76,2.24-.17,3.2-.67.3-.16.58-.37.91-.49.86-.33,1.88-.3,1.92.83,0,.12.02.23.07.34.08.17.17.3.35.38.1.04.21.07.31.1.55.16,1.01.54,1.05,1.13.03.47-.24.92-.65,1.16-.21.12-.44.19-.66.29-.2.09-.45.23-.45.48,0,.24.12.47.14.71.02.24-.03.48-.2.66-.49.54-1.72.4-2.26,0-.31-.23-.6-.47-.91-.7-.21-.16-.43-.32-.68-.43-.16-.07-.33-.11-.5-.14-.47-.07-.94-.02-1.41-.04-.29-.01-.82-.13-.87-.48-.05-.35.46-.57.72-.66,1.34-.45,2.78-.37,3.9.54.11.09.22.19.33.3.06.06.23.21.32.14.06-.04.03-.15.01-.2-.05-.16-.19-.31-.3-.43-.1-.1-.19-.2-.31-.29-.09-.08-.47-.32-.5-.41-.08-.27,1.12-.24,1.28-.24.13,0,.25,0,.38,0,.13,0,.25,0,.38,0ZM176.97,139.49c.02.5-.03,1.14-.52,1.48-.17.12-.39.2-.61.24-.09.02-.17.04-.26.04-.35,0-.84.06-1.03.55-.04.09-.1.17-.17.23-.2.16-.5.23-.82.25-.32.02-.62-.05-.9-.19-.42-.22-.67-.7-.53-1.09.09-.25.4-.61.79-.37.11.07.22.18.33.25.37.24.44.08.39-.17-.1-.55-.55-.93-.62-1.34-.05-.35.34-.39,1.08-.14.15.05.32.13.49.17.7.16.82-.14.51-.39-.43-.35-1.18-.37-1.42-.85-.17-.34-.05-.76.06-.97.31-.62,1.03-.63,1.7-.25.92.51,1.49,1.66,1.52,2.57ZM172.4,145.33c-.19.3-.28.91-.36,1.26-.04.19-.11.37-.21.53-1.21,1.94-4.12-.75-4.2-2.04-.04-.77.61-1.14,1.17-1.03,1.02.2.65,1.22.97,1.65.2.26.38.2.46-.12.07-.27.04-.62.09-.91.05-.34.16-.67.35-.93.12-.16.27-.3.43-.42.7-.49,1.58-.33,1.89.36.29.65-.23,1.04-.6,1.65ZM164.97,147.26c.14.05.26.03.31-.05.07-.12-.1-.28-.25-.46-.13-.16-.51-.39-.84-.57-.09-.05-.19-.08-.26-.14-.15-.13-.4-.13-.02-.43.24-.19.56-.49.55-.74,0-.13-.19-.07-.33.01-.26.17-.54.29-.85.36-.47.1-1.23.18-1.69,0-.36-.15-.53-.43-.5-.84.02-.28.14-.52.36-.68.32-.23.89-.26,1.24-.06.2.12.43.12.62-.01.77-.53,1.78-.8,2.36-.1.25.3.19.83.11,1.21-.06.27-.06.45.06.7.11.22.37.4.59.48.05.02.09.04.14.06.62.3,1.02.79,1.16,1.5.13.65-.04,1.31-.53,1.73-.5.42-1.1.53-1.71.29-.41-.16-.87-.51-1.12-.89-.08-.11-.16-.23-.24-.33-.25-.33-.56-.63-.84-.92-.13-.13-.37-.42-.24-.62.08-.13.25-.16.41-.15.44.01,1.08.51,1.52.67ZM161.51,147.72c.68-.62,1.35.07,1.34.82,0,.37-.21.88-.61.96-.16.03-.34-.05-.47-.14-.17-.12-.31-.29-.41-.47-.22-.4-.21-.86.16-1.17ZM159.08,140.72c-.06.14-.54.93-.24,1.04.14.05.41-.46.7-.84.09-.12.18-.25.28-.38.47-.66.95-1.32,1.25-1.56.14-.12.28-.26.43-.34.23-.11.22.12.2.26-.01.09-.02.52.02.9.03.35.16.59.28.58.16,0,.19-.55.19-.68,0-.53.04-1.11.22-1.62.16-.43.41-.78.78-1.06.19-.14.55-.36.79-.18.21.16.14.51.04.71-.05.1-.09.2-.13.31-.3.71-.54,1.39-.51,2.17.04.81-.03,2.11-1.26,2.12-.14,0-.27-.04-.38-.11-.1-.06-.23-.11-.35-.11-.3,0-.39.25-.46.48-.45,1.24-1.72,1.97-3.04,1.42-.94-.39-1.47-1.44-1.01-2.36.07-.14.46-.89.14-.93-.31-.04-.67-.16-.77-.46-.39-1.1.83-1.76,1.74-1.94.34-.07.72-.19,1.04-.33.57-.26,1.15-.77,1.81-1.04.37-.15.76-.23,1.14-.15.19.04.27.13.29.23.05.46-1.4,1.38-1.8,1.65-.59.4-1.07.53-1.7.74-.49.16-.51.38.03.35.16,0,.3-.04.48-.08.05-.01.11-.02.16-.03.42-.06.32.12.17.36-.18.29-.37.58-.53.88ZM157.79,146.38c-.59-1.33.68-1.43,1.52-.87.4.27.79.66,1.02,1.07.25.44.36,1.28-.29,1.41-.26.05-.22.32-.13.51.3.65.6.95.35,1.71-.39,1.21-2.27,1.89-2.87.46-.03-.08-.08-.21-.14-.27-.17-.18-.31-.2-.51-.05-.36.26-.59.47-1.03.24-1.08-.56-1.23-1.9-.66-2.9.25-.43.41-.56.5-1.08.04-.25.16-.55.44-.58.28-.03.52.22.62.47.16.43.02.99-.11,1.41-.04.11-.18.59-.03.66.15.07.38-.32.44-.42.11-.2.29-.82.49-.9.08-.03.13.03.18.09.33.4.35,1.13.53,1.61.03.07.09.21.18.2.17-.01.2-.43.19-.55-.06-.86-.29-1.46-.68-2.21ZM154.38,146.39c-.47.26-.64.26-1-.15-.21-.24-.44.14-.54.3-.08.13-.17.25-.25.37-.09.13-.14.23-.27.32-.82.6-1.86.17-2.25-.71-.11-.25-.15-.54-.14-.81,0-.18.11-.7-.04-.83-.1-.08-.34-.11-.46-.08-.44.1-.67-.08-.86-.47-.2-.42-.14-.93.06-1.33.3-.61.87-1.01,1.42-1.37.61-.41,1.07-.79,1.36-1.49.14-.33.26-.66.43-.97.41-.74.88-.4.86.3-.01.44-.14.89-.29,1.31-.28.81-.73,1.49-1.47,1.94-.16.1-.33.18-.5.25-.09.04-.46.2-.42.33.03.08.17.09.24.09.02,0,.03,0,.05,0,.42-.05.78-.21,1.13-.43.1-.07.35-.21.47-.2.01,0,.02,0,.03,0,.25.14-.2,1.43-.29,1.65-.05.14-.4,1.02-.21,1.1.14.06.41-.36.46-.46.05-.09.1-.19.13-.29.15-.44.33-.87.48-1.3.1-.27.18-.55.28-.82.03-.07.1-.24.16-.28.14-.09.24.27.26.35.05.17.09.34.13.51.04.18.07.36.11.53.03.12.05.24.08.35.02.07.12.35.21.34.13-.02.11-.52.11-.61-.02-.61-.16-1.15-.32-1.73-.17-.59-.31-1.13-.3-1.75,0-.26.02-.58.17-.8.36-.54,1.09,0,1.32.4.18.3.32.62.44.95.1.28.16.66.2.95.02.14-.06.64-.26.62-.12-.01-.19.04-.25.14-.04.07-.06.15-.07.23-.02.13,0,.18.01.31.05.28.1.55.14.83.05.33.06.65.07.98.02.51-.18,1.15-.65,1.41ZM112.84,137.1c.11.62-.22.91-.54,1.34-.11.15-.15.3-.15.5-.03.83.14,1.59-.68,2.04-.46.25-1.2.36-1.71.13-.38-.17-.66-.48-.86-.87-.34-.64-.54-1.26-1.33-1.16-1.1.15-1.39-.26-1.38-1.38,0-.52.13-1.04.25-1.53.14-.58.22-1.17.14-1.74-.05-.34-.16-.66-.23-.99-.06-.28-.1-.71.25-.81.54-.15.97.7,1.18,1.08.32.59.74,1.34.59,2.07-.03.17-.08.33-.13.49-.11.32-.25.59-.37.89-.06.15-.09.29-.03.33.11.08.22-.03.31-.16.14-.19.26-.42.4-.61.07-.09.27-.4.4-.37.14.02.23.39.26.5.12.39.25.79.39,1.19.05.15.38,1.14.6,1.07.07-.02.05-.21.05-.26-.03-.48-.15-.99-.28-1.46-.02-.07-.04-.15-.06-.22-.13-.48-.09-.59.21-.46.33.14.51.2.87.26.19.03.37.05.39-.02.05-.16-.53-.4-.61-.44-.6-.31-.98-.45-1.39-1.03-.13-.19-.21-.39-.3-.59-.03-.07-.15-.3-.09-.37.03-.04.12-.02.16-.02.49.02.92.04,1.4-.06.22-.05.26-.21-.02-.25-.03,0-.06,0-.1-.02-.44-.07-.88-.1-1.3-.23-.43-.14-.91-.56-1.16-.93-.06-.1-.15-.19-.2-.3-.08-.18-.09-.3.09-.42.26-.17.86.11,1.13.22.2.09.41.18.62.25.16.05.32.1.49.13.54.09,1.03.21,1.39.67.31.4.34.91.23,1.38-.08.33-.03.62.22.89.44.48.74.56.86,1.28ZM116.4,175.2c-1.76-.63-3.47-1.37-5.12-2.2h0c-.12-.06-.24-.12-.36-.19-.16-.1-.29-.21-.36-.32-.08-.13-.13-.33-.11-.5,0-.08.03-.16.07-.23.3-.46.72-.6,1.02-.32.35.33.31.81.81,1.16.09.07.21.09.32.08.18-.01.26-.18.19-.46-.02-.09-.07-.19-.11-.28-.24-.59-.32-1.45.21-1.85.2-.16.44-.23.56-.14.1.07.13.17.11.29-.03.15-.05.29-.05.43-.04,1.05.24,1.8,1.03,2.51.28.25.59.44.88.48.31.04.33-.17.12-.41-.13-.15-.26-.34-.4-.56-.55-.91-.89-2.42-.07-3.26.11-.11.24-.21.42-.31.08-.04.15-.07.23-.09.48-.13.5.16.32.54-.19.41-.32.54-.38,1.02-.03.21-.03.42,0,.61.12.83.45,1.19,1,1.73.11.11.23.22.33.33.34.34.65.66.94.96.33.35.84.45.65-.29-.06-.25-.14-.5-.16-.62-.02-.09-.04-.19-.05-.28-.01-.07-.02-.14-.01-.2.01-.31.44-.29.61-.13.46.45.65.99,1.04,1.51.09.11.23.35.41.59.1.13.22.25.35.35.76.59.61-.12.44-.66-.24-.73-.44-1.45-.46-1.68-.02-.29-.07-.52.14-.61.17-.07.37.09.55.33.68.91.91,1.77,1.72,2.79.41.62.8.71.79.4-.02-.48-.59-1.99-.89-2.96-.05-.16-.09-.3-.11-.41-.08-.35-.1-.61.12-.73.11-.06.25,0,.48.34.09.13.19.3.31.52.35.63.68,1.41,1.12,2.18.56.96.8,1.4,1.07,1.29.24-.09.07-.49-.11-1.26-.09-.38-1-3.12-.56-3.21.18-.1.39.11.59.42.44.69.61,1.07.98,1.74.24.43,1.14,2.04,1.5,2.33.33.26.47,0,.3-.56-.38-1.26-.58-1.7-.93-2.84-.09-.28-.07-.57.08-.64.18-.09.41.11.6.39.28.42.32.46.59.89.53.84.92,1.61,1.45,2.41.2.3.4.53.55.49.25-.02.26-.51.25-.93,0-.18,0-.33.02-.45.09-.59.54-.51.82-.14.28.38.52,1.05.78,1.34.16.17.34.26.44.13.37-.49-.27-3.08.28-3.15.18-.04.35.1.5.35.41.66.82,2.39,1.16,2.66.06.05.13.07.21.05.65-.14-.24-4.05.46-4.18.7-.07.79,1.57,1.08,2.9.08.39.34,1.16.75,1.12.37-.04.28-1.13.26-1.44-.09-1.01-.11-2.55.68-2.55.78,0,.72,1.3.58,2.16-.04.23-.08.42-.12.56-.19.71-.13,1.12,0,1.19.23.13.85-.4,1.2-1.37.16-.44.28-.88.46-1.29.07-.16.26-.42.46-.38.2.03.27.25.3.42.04.24,0,.8-.1,1.25-.15.75-.07,1.65.62.75.33-.43.52-.93.79-1.41.19-.34.4-.48.56-.45.24.04.28.3.27.55-.02.33-.18.81-.03,1.13.05.1.14.14.31.06.55-.24.63-1.06,1.14-1.43.39-.27.8-.16.62.5-.05.19-.1.37,0,.43.09.05.24.02.42-.09.5-.34,1.26-1.19,1.41-1.69.2-.63.14-1.27-.17-1.97-.12-.25-.37-.75-.5-1.14-.06-.17-.1-.32-.11-.44,0-.08,0-.15.08-.2.1-.07.28,0,.47.11.81.47,1.23,1.39,1.34,2.29.07.55.02,1.06-.16,1.58-.06.17-.12.35-.11.45,0,.11.06.15.16.13.43-.08.78-.47.92-.87.11-.32.19-.69.22-1.08.01-.13,0-.81-.15-1.3-.12-.35-.03-.52.23-.47.47.11.74.6.84,1.03.1.42.03.9-.05,1.3-.13.77.58.67.75.21.11-.3.13-.65.3-.9.16-.24.43-.34.78-.15.09.05.18.11.26.21.42.37.36.77.09,1.08-.23.27-.83.52-1.23.71-6.02,2.92-12.77,4.57-19.91,4.57-5.4,0-10.57-.94-15.38-2.66,0,0-.01,0-.02,0ZM141.44,185.51l-1.48.32-.2-.92,4.17-.89.05.95-1.46.32,1.08,5.04-1.08.23-1.08-5.04ZM134.42,186.27l.06,1.52,1.84-.08.04.93-1.82.08.07,1.75,2.39-.1.04.96-3.52.15-.26-6.09,3.44-.15-.11.93-2.18.09ZM170.39,170.12l1.27,1.24.32-.32c.21-.21.49-.51.49-.83,0-.25-.14-.49-.31-.66-.52-.51-.99-.22-1.42.22l-.34.35ZM172.25,171.93l1.84,1.81-.76.78-4.35-4.27,1.32-1.34c.78-.8,1.81-1.03,2.66-.19.59.58.78,1.5.24,2.17.38-.02,1.01.12,1.36.2l1.74.4-.92.94-1.06-.29c-.56-.15-1.17-.31-1.75-.3-.13,0-.22.02-.32.1ZM164.99,174.98l-1.2.92-.57-.75,3.39-2.59.46.84-1.19.91,3.13,4.09-.88.67-3.13-4.1ZM159.52,179.11c.11.38.22.75.32,1.13.11.4.23.79.33,1.19l1.11-.69c-.1-.08-.19-.17-.28-.26-.22-.2-.44-.4-.65-.6-.21-.19-.42-.39-.62-.58-.07-.06-.14-.12-.2-.19ZM162,181.4l-1.57.98.42,1.59-.98.61-1.52-6.23,1.05-.65,4.87,4.15-1.03.64-1.24-1.08ZM151.97,182.46l.79,1.82.66-.29c.63-.27.81-.68.53-1.32-.1-.23-.25-.46-.49-.56-.28-.12-.57-.05-.83.06l-.66.29ZM153.12,185.12l.91,2.09-1.01.44-2.43-5.59,1.51-.66c.5-.22.99-.42,1.54-.35.65.08,1.14.49,1.4,1.09.46,1.06.01,2.14-1.05,2.6l-.88.38ZM182.12,152.04l1.41.58.7-1.7.87.36-.69,1.69,1.62.67.91-2.21.89.37-1.34,3.26-5.64-2.32,1.31-3.18.8.49-.83,2.02ZM181.55,159.5c-.13-.02-.25-.05-.37-.08-.29-.06-.58-.13-.87-.19-.28-.06-.56-.13-.83-.19-.09-.02-.18-.04-.27-.06.28.27.57.54.85.81.3.29.6.57.88.86l.61-1.15ZM182.51,159.71l-.87,1.64,1.16,1.17-.54,1.02-4.45-4.62.58-1.09,6.3,1.14-.57,1.07-1.62-.31ZM179.08,167.96l-4.92-3.6.67-.91,4.92,3.6-.67.92ZM96.16,174.03c-.26.37-.54.73-.81,1.09l-1.8,2.34-.86-.68,3.77-4.79.96.75-.67,3.23c-.09.41-.2.84-.34,1.24.25-.37.51-.74.79-1.1l1.71-2.2.83.65-3.77,4.79-.89-.71.69-3.07c.03-.11.05-.22.08-.34.1-.41.19-.82.32-1.23ZM89.74,169.96l-1.27,1.21,1.65,1.74-.7.66-2.43-2.55,4.42-4.2,2.37,2.5-.77.53-1.51-1.59-1.1,1.05,1.27,1.33-.68.64-1.26-1.32ZM82.24,158.57c-.42.24-.87.53-1.16.93-.34.47-.36,1.01-.07,1.51.21.36.45.56.84.72l.06.02-.36.83-.05-.02c-.58-.24-.99-.64-1.3-1.18-.38-.67-.47-1.39-.2-2.12.28-.74.86-1.3,1.54-1.68.55-.32,1.16-.54,1.8-.57.96-.03,1.86.41,2.34,1.26.26.45.43,1.04.34,1.56v.05s-.92-.08-.92-.08v-.06c.05-.37-.02-.7-.2-1.02-.25-.43-.68-.65-1.17-.65-.51,0-1.05.25-1.49.51ZM79.94,151.53l.07.74c.08.88-.2,1.71-1.08,2.05-.14.06-.29.09-.44.11-1.1.15-1.91-.66-2.28-1.61-.26-.65-.35-1.37-.23-2.05v-.05s.97.08.97.08v.06c-.09.59-.1,1.09.13,1.65.21.53.64.95,1.24.71.47-.19.51-.65.46-1.1l-.07-.66c-.05-.47-.02-.98.25-1.38.19-.27.44-.45.75-.58.35-.14.71-.17,1.08-.08.68.17,1.14.73,1.39,1.35.25.62.33,1.35.17,2v.05s-.94-.18-.94-.18v-.06c.09-.51.11-.96-.08-1.45-.17-.43-.56-.77-1.04-.58-.41.16-.39.58-.35.95ZM122.89,185.59l-.2,1.51,1.83.24-.12.93-1.81-.24-.23,1.74,2.37.31-.13.95-3.49-.46.8-6.04,3.41.45-.27.9-2.17-.29ZM115.72,186.63c0-.13,0-.26,0-.38,0-.3,0-.59,0-.89,0-.28.01-.57.02-.85,0-.09,0-.18,0-.28-.21.33-.41.66-.62,1-.22.35-.43.7-.67,1.04l1.25.36ZM115.71,187.61l-1.78-.51-.9,1.38-1.1-.32,3.61-5.3,1.18.34.18,6.4-1.16-.34-.03-1.65ZM83.89,167.06l-.65-.93,4.98-3.51.65.93-4.98,3.51ZM107.95,186.45l-1.03-.47,2.53-5.55,1.03.47-2.53,5.54ZM104.34,178.81l-2.58,4.46-.96-.56,2.58-4.46-1.31-.76.47-.82,3.69,2.14-.6.74-1.29-.75ZM185.16,135.23l-.9.27-.18-.94,1.41-.47h.74v5.97h-1.07v-4.83ZM190.63,137.58c-.31.3-.71.45-1.15.45-1.13,0-1.84-.78-1.84-1.89v-.03c0-1.16.81-2.06,1.99-2.06.55,0,1.01.15,1.41.55.59.59.69,1.49.69,2.28v.06c0,1.48-.53,3.22-2.31,3.22-.61,0-1.11-.2-1.59-.58l-.06-.05.54-.86.08.06c.31.25.64.43,1.05.43.83,0,1.14-.89,1.19-1.58ZM189.64,135.01c-.61,0-.93.48-.93,1.06v.02c0,.59.34,1.01.95,1.01s.95-.44.95-1.02h0c0-.6-.34-1.06-.96-1.06ZM72.42,135.23l-.9.27-.18-.94,1.41-.47h.74v5.97h-1.07v-4.83ZM77.9,137.58c-.31.3-.71.45-1.15.45-1.13,0-1.83-.78-1.83-1.89v-.03c0-1.16.8-2.06,1.98-2.06.55,0,1.01.15,1.41.55.59.59.69,1.49.69,2.28v.06c0,1.48-.52,3.22-2.31,3.22-.61,0-1.11-.2-1.59-.58l-.06-.05.54-.86.08.06c.31.25.64.43,1.05.43.83,0,1.14-.89,1.19-1.58ZM76.91,135.01c-.61,0-.93.48-.93,1.06v.02c0,.59.34,1.01.95,1.01s.95-.44.95-1.02h0c0-.6-.34-1.06-.96-1.06ZM87.87,93.74l1.15.99,1.21-1.39.71.61-1.19,1.38,1.32,1.15,1.57-1.81.73.63-2.3,2.66-4.61-3.99,2.25-2.6.6.72-1.43,1.65ZM86.04,101.8s-.03-.04-.05-.06c-.23-.25-.44-.5-.65-.76l-2.24-2.76.62-.98,4.02,5.07-.54.85-6.26-1.58.65-1.02,3.48.93c.32.09.66.18.97.3ZM79.01,105.05l5.43,2.78-.52,1.01-5.43-2.78.52-1.01ZM79.99,112.94c-.44-.11-.87-.24-1.3-.38l-2.65-.88.34-1,5.77,1.95-.36,1.08-3.13.37c-.11.01-.23.03-.34.04-.42.05-.84.1-1.26.11.44.12.87.26,1.3.4l2.81.91-.35,1.03-5.77-1.95.39-1.15,3.27-.44c.42-.06.86-.09,1.28-.1ZM73.16,122.58l4.01.72c.74.13,1.18.01,1.32-.79.13-.73-.28-1.09-.96-1.21l-4.01-.72.19-1.09,4.29.77c1.25.22,1.64,1.27,1.43,2.42-.21,1.2-.87,2-2.17,1.77l-4.3-.77.2-1.1ZM96.23,89.14c.38.01,1,.2,1.34.31l1.7.54-1,.87-1.03-.37c-.55-.2-1.14-.41-1.72-.45-.13,0-.22,0-.33.07l1.69,1.95-.82.71-3.99-4.61,1.42-1.23c.84-.73,1.89-.88,2.67.03.55.63.66,1.55.06,2.18ZM130.3,76.51l-.64-.17c-.46-.12-.93-.31-1.21-.71-.19-.27-.28-.57-.28-.9-.03-1.19.94-1.85,2.04-1.88.67-.02,1.38.16,1.94.53l.05.03-.49.81-.05-.03c-.45-.26-.86-.43-1.39-.41-.47.01-.91.25-.9.78.01.45.41.56.77.66l.71.19c.86.23,1.53.77,1.55,1.72,0,.15-.01.3-.04.44-.24,1.08-1.27,1.57-2.3,1.59-.69.02-1.4-.15-2-.49l-.05-.03.41-.87.05.03c.52.28,1,.46,1.6.44.58-.01,1.11-.27,1.09-.92-.01-.51-.44-.7-.87-.81ZM122.96,78.16l-1.82.33-.2,1.63-1.13.2.9-6.35,1.21-.22,2.99,5.66-1.19.21-.75-1.46ZM114.43,76.49l1.65,4.88-1.05.36-1.65-4.88-1.43.48-.3-.89,4.04-1.37.16.94-1.42.48ZM107.73,78.02l2.51,5.55-1.03.47-2.51-5.55,1.03-.47ZM100.62,81.65c.57-.36,1.26-.58,1.93-.55h.05v.94h-.06c-.52.02-.96.08-1.4.37-.4.25-.65.69-.37,1.13.24.38.64.27,1,.17l.71-.21c.86-.25,1.71-.13,2.22.66.08.13.15.26.2.41.35,1.04-.28,2-1.14,2.55-.58.37-1.27.6-1.97.62h-.05s-.1-.96-.1-.96h.06c.59-.03,1.09-.13,1.6-.45.48-.31.81-.8.46-1.36-.27-.43-.74-.37-1.17-.24l-.64.19c-.45.14-.96.21-1.4.02-.3-.13-.53-.34-.71-.62-.64-1-.16-2.07.77-2.67ZM93.5,88.14l1.17,1.34.34-.3c.23-.2.53-.47.55-.79.02-.25-.1-.5-.26-.68-.48-.55-.97-.3-1.43.11l-.37.32ZM121.5,75.11c-.04.39-.08.78-.12,1.17-.04.41-.07.82-.14,1.23l1.28-.23c-.06-.11-.11-.23-.17-.34-.13-.27-.26-.53-.38-.8-.12-.26-.24-.51-.36-.77-.04-.08-.08-.17-.12-.25ZM188.71,114.83l-5.77,1.95-.36-1.07,5.77-1.95.36,1.07ZM186.57,124.54c-.15.03-.3.04-.45.03-1.1-.07-1.73-1.03-1.91-2.03-.12-.68-.07-1.41.19-2.06l.02-.05.92.27-.02.06c-.2.56-.3,1.06-.2,1.65.1.57.43,1.06,1.08.94.5-.09.63-.54.67-.98l.07-.66c.05-.47.17-.97.52-1.3.24-.23.52-.36.85-.42,1.17-.21,1.97.64,2.17,1.74.12.66.05,1.39-.23,2l-.02.05-.87-.36.02-.05c.18-.48.29-.92.2-1.44-.08-.46-.39-.86-.91-.77-.44.08-.5.49-.54.86l-.08.73c-.1.89-.53,1.63-1.46,1.8ZM182.7,109.12l-.1-.66c-.07-.46-.07-.98.18-1.39.17-.28.42-.48.72-.61.34-.15.71-.21,1.07-.13.68.14,1.18.67,1.45,1.29.28.61.39,1.33.26,1.99v.05s-.94-.14-.94-.14v-.06c.06-.52.07-.96-.15-1.44-.19-.43-.59-.74-1.07-.53-.41.18-.36.6-.31.97l.1.73c.12.88-.12,1.71-.98,2.1-.14.06-.28.11-.43.14-1.09.2-1.93-.57-2.35-1.5-.29-.63-.41-1.35-.32-2.04v-.05s.97.04.97.04v.06c-.07.59-.04,1.1.21,1.65.24.52.68.92,1.28.65.46-.21.48-.68.41-1.12ZM178.61,102.81c.36-.27.73-.53,1.11-.78l2.34-1.52.57.89-5.13,3.29-.61-.96,1.66-2.68c.06-.1.12-.19.18-.29.22-.35.45-.72.7-1.05-.37.27-.74.52-1.12.77l-2.47,1.62-.59-.92,5.13-3.29.66,1.02-1.69,2.83c-.22.36-.46.73-.73,1.06ZM175.25,93.09l-1.15,1,1.21,1.39-.71.61-1.19-1.38-1.33,1.15,1.57,1.81-.73.63-2.3-2.66,4.61-3.99,2.26,2.6-.8.49-1.43-1.65ZM171.58,88.14l-3.99,4.61-.86-.74,3.99-4.61.86.74ZM163,86.98c.27-.23.56-.44.85-.65l2.86-2.11.94.67-5.26,3.77-.82-.58,1.87-6.18.99.7-1.1,3.43c-.1.32-.21.64-.34.95ZM158.76,80.42l-2.35,4.59-.99-.51,2.35-4.59-1.35-.69.43-.84,3.79,1.94-.56.77-1.33-.68ZM150.81,80.8l-1.75-.59-.96,1.34-1.09-.37,3.85-5.13,1.17.39-.11,6.4-1.15-.39.05-1.65ZM142.25,79.08l2.19.39-.35.89-3.11-.56,1.07-6,1.11.2-.91,5.08ZM151,77.42c-.22.32-.44.65-.67.97-.23.34-.46.68-.71,1.01l1.24.42c0-.13.01-.26.02-.38.01-.3.03-.59.05-.88.02-.28.04-.57.06-.85,0-.09.01-.18.02-.28ZM141.29,132.07c-.05-.04-.1-.1-.15-.16-.2-.21-.39-.42-.55-.62-.37-.46-.4-.5-.09-1.04.67-1.18.61-1.07,1.38-2.38.1-.18.19-.31.25-.36.07-.07.16-.12.25-.16.81-.36,2.08.3,1.55,1.21h0c-.15.32-.54,1.45-.91,2.47-.07.18-.14.44-.23.68-.19.61-.89.91-1.5.37Z"/>
  </g>
  <g transform="translate(-64.925,-65.74)">
    <path class="cls-2" d="M225.43,130.81h22.15l2.74-10.42h-.55c-.58,1.64-1.33,3.1-2.25,4.36-.91,1.26-2.05,2.23-3.4,2.9-1.35.68-2.96,1.01-4.82,1.01h-7.35v-32.23c.04-.95.39-1.76,1.07-2.44s1.49-1.01,2.44-1.01h.71v-.55h-15.13v.55h.71c.95,0,1.76.34,2.44,1.01.68.68,1.03,1.49,1.07,2.44v30.37c-.04.95-.39,1.76-1.07,2.44s-1.49,1.01-2.44,1.01h-.71v.55h4.38Z"/>
    <path class="cls-2" d="M277.51,129.36c-.55.6-1.17.9-1.86.9h-.49v.55h15.73v-.55h-.44c-.84,0-1.71-.26-2.6-.79-.86-.51-1.57-1.35-2.14-2.51l-15.76-35.5h-.49c-.04.37-.16.89-.38,1.56-.22.68-.48,1.38-.79,2.11-.31.73-.58,1.38-.82,1.95-.24.57-.39.92-.47,1.07l-12.6,28.95c-.56,1.09-1.25,1.89-2.07,2.38-.9.53-1.76.79-2.6.79h-.49v.55h11.51v-.55h-.49c-.44,0-.88-.14-1.32-.41-.44-.27-.75-.67-.93-1.18-.18-.51-.13-1.13.16-1.86h-.02l3.11-7.62h13.51l2.99,7.66c.38,1.07.31,1.91-.23,2.5ZM262.1,117.11l6.06-14.85,5.78,14.85h-11.85Z"/>
    <path class="cls-2" d="M317.58,99.3v.71l.55.05v-8.66c-.33.15-.88.29-1.64.44-.77.15-1.6.27-2.49.38-.9.11-1.75.16-2.55.16h-20.56c-.77,0-1.61-.05-2.52-.16-.91-.11-1.75-.24-2.49-.38-.75-.15-1.31-.29-1.67-.44v8.66l.55-.05v-.71c0-1.42.44-2.58,1.32-3.45s2.03-1.33,3.45-1.37h8.33v32.34c-.04.95-.39,1.76-1.07,2.44s-1.49,1.01-2.44,1.01h-.71v.55h15.13v-.55h-.71c-.95,0-1.76-.34-2.44-1.01-.68-.68-1.03-1.49-1.07-2.44v-32.34h8.28c1.43.04,2.58.49,3.45,1.37s1.32,2.03,1.32,3.45Z"/>
    <path class="cls-2" d="M323.36,93.79c.9.53,1.63,1.42,2.22,2.66h.03s16.09,35.36,16.09,35.36h.49c.04-.37.16-.89.38-1.56.22-.68.47-1.38.77-2.11.29-.73.57-1.38.82-1.95.25-.57.42-.92.49-1.07l13.04-28.95c.56-1.09,1.25-1.89,2.09-2.37.91-.53,1.77-.79,2.58-.79h.49v-.55h-11.51v.55h.49c.73,0,1.37.29,1.92.88.53.57.59,1.38.19,2.44l-10.47,24.76-10.01-24.67h.07c-.4-1.1-.34-1.94.19-2.52.53-.58,1.14-.88,1.84-.88h.49v-.55h-15.73v.55h.44c.84,0,1.71.27,2.6.79Z"/>
    <path class="cls-2" d="M376.28,130.81h4.22v-.55h-.71c-.95,0-1.76-.34-2.44-1.01-.68-.68-1.03-1.49-1.07-2.44v-30.37c.04-.95.39-1.76,1.07-2.44s1.49-1.01,2.44-1.01h.71v-.55h-15.13v.55h.71c.95,0,1.76.34,2.44,1.01.68.68,1.03,1.49,1.07,2.44v30.37c-.04.95-.39,1.76-1.07,2.44s-1.49,1.01-2.44,1.01h-.71v.55h10.91Z"/>
    <path class="cls-2" d="M391.6,138.68c1.22-1.08,2.19-2.38,2.91-3.89s1.07-3.21,1.07-5.07v-33.27c.04-.95.39-1.76,1.07-2.44s1.49-1.01,2.44-1.01h.71v-.55h-15.13v.55h.71c.95,0,1.76.34,2.44,1.01.68.68,1.03,1.49,1.07,2.44v33.11c0,1.64-.24,3.25-.71,4.82-.48,1.57-1.19,2.97-2.14,4.19-.95,1.22-2.14,2.13-3.56,2.71v.49c1.72.11,3.36-.11,4.93-.66,1.57-.55,2.97-1.36,4.19-2.44Z"/>
    <path class="cls-2" d="M398.76,130.27v.55h11.51v-.55h-.49c-.44,0-.88-.14-1.32-.41-.44-.27-.75-.67-.93-1.18-.18-.51-.13-1.13.16-1.86h-.02l3.11-7.62h13.51l2.99,7.67c.38,1.07.31,1.91-.23,2.5-.55.6-1.17.9-1.86.9h-.49v.55h15.73v-.55h-.44c-.84,0-1.71-.26-2.6-.79-.86-.51-1.57-1.35-2.14-2.51l-15.76-35.51h-.49c-.04.37-.16.89-.38,1.56-.22.68-.48,1.38-.79,2.11-.31.73-.58,1.38-.82,1.95-.24.57-.39.92-.47,1.07l-12.59,28.95c-.56,1.09-1.25,1.89-2.07,2.38-.9.53-1.76.79-2.6.79h-.49ZM417.69,102.26l5.78,14.85h-11.85l6.06-14.85Z"/>
    <path class="cls-2" d="M462.1,128.62c2.32-1.97,3.54-4.64,3.64-8,.07-1.75-.24-3.33-.93-4.74-.69-1.41-1.79-2.6-3.29-3.59l-10.58-7.84c-1.02-.73-1.84-1.53-2.44-2.38-.6-.86-.87-1.75-.79-2.66.04-1.57.68-2.91,1.95-4,1.26-1.1,2.95-1.64,5.07-1.64s3.85.55,5.18,1.64c1.33,1.1,2,2.58,2,4.44h.55l.41-6.47h.03l.05-1.15h-3.27c-.32-.05-.64-.09-.98-.14-.97-.13-1.93-.23-2.88-.3-.95-.07-1.77-.11-2.47-.11-2.23,0-4.14.42-5.73,1.26-1.59.84-2.82,1.98-3.7,3.43-.88,1.44-1.37,3.04-1.48,4.8-.11,1.68.19,3.3.9,4.85.71,1.55,1.91,2.88,3.59,3.97l9.92,7.51c1.24.73,2.16,1.54,2.74,2.44.58.9.88,1.89.88,2.99,0,1.9-.69,3.45-2.06,4.66s-3.19,1.85-5.45,1.92c-2.01.04-3.75-.37-5.23-1.23-1.48-.86-2.6-2.05-3.37-3.56-.77-1.52-1.08-3.21-.93-5.07h-.49c-.37.77-.68,1.71-.93,2.82-.26,1.12-.4,2.19-.44,3.23-.04,1.04.05,1.93.27,2.66.69.69,1.62,1.29,2.79,1.78,1.17.49,2.46.86,3.86,1.1,1.41.24,2.79.36,4.14.36,3.98,0,7.13-.99,9.46-2.96Z"/>
    <path class="cls-2" d="M241.74,149.49h-4.02v.33h.53c.48,0,.89.15,1.24.46.34.31.51.7.51,1.19v12.95c0,1.49-.29,2.8-.87,3.92-.58,1.12-1.41,1.99-2.47,2.6-1.07.62-2.31.92-3.74.92s-2.55-.32-3.57-.97c-1.02-.65-1.81-1.57-2.37-2.75-.56-1.19-.84-2.57-.84-4.15v-12.52c0-.48.17-.88.51-1.19.34-.31.75-.46,1.24-.46h.53v-.33h-7.61v.33h.53c.48,0,.89.15,1.23.46s.51.7.51,1.19v12.91c0,1.73.38,3.25,1.15,4.55.77,1.3,1.88,2.3,3.33,3.01,1.45.71,3.17,1.07,5.17,1.07,1.84,0,3.45-.36,4.83-1.09,1.37-.72,2.43-1.73,3.16-3.03.74-1.3,1.1-2.81,1.1-4.55v-12.88c0-.48.17-.88.51-1.19.34-.31.75-.46,1.23-.46h.53v-.33h-2.34Z"/>
    <path class="cls-2" d="M269.18,149.49h-5.11v.33h.63c.57,0,1.05.19,1.43.58.38.38.59.86.61,1.43v15.16l-17.52-17.99h-.33c.22,1.58.33,2.95.33,4.12v17.1c0,.55-.2,1.02-.59,1.42-.4.39-.87.59-1.42.59h-.63v.33h7.84v-.33h-.63c-.55,0-1.02-.2-1.42-.59-.4-.4-.59-.87-.59-1.42h0l-.02-15.19,17.55,17.99h.3c-.11-.77-.19-1.48-.25-2.12s-.08-1.35-.08-2.09v-16.96c.02-.57.23-1.05.63-1.43.4-.38.87-.58,1.42-.58h.59v-.33h-2.73Z"/>
    <path class="cls-2" d="M280.94,149.49h-5.5v.33h.43c.57,0,1.06.2,1.47.61.41.41.62.89.64,1.47v18.25c-.02.57-.24,1.06-.64,1.47-.41.41-.9.61-1.47.61h-.43v.33h8.14v-.33h-.43c-.57,0-1.06-.2-1.47-.61-.41-.41-.62-.89-.64-1.47v-18.25c.02-.57.24-1.06.64-1.47.41-.41.89-.61,1.47-.61h.43v-.33h-2.64Z"/>
    <path class="cls-2" d="M304.16,149.82h.3c.42,0,.79.18,1.12.53.29.31.35.76.19,1.32l-6.8,16.24-6.45-16.04h.02c-.24-.66-.2-1.16.12-1.52.32-.35.69-.53,1.1-.53h.3v-.33h-8.43v.33h.26c.5,0,1.03.16,1.58.48.54.31.97.83,1.3,1.56l9.48,21.22h.3c.02-.2.09-.49.21-.89.12-.4.27-.8.44-1.22.18-.42.33-.77.48-1.07.14-.3.21-.47.21-.51l7.83-17.49h.01c.35-.75.8-1.28,1.35-1.6.55-.32,1.06-.48,1.55-.48h.3v-.33h-6.75v.33Z"/>
    <path class="cls-2" d="M327.94,169.19c-.51.7-1.14,1.25-1.91,1.63-.77.38-1.72.58-2.87.58h-4.58v-9.65h5.17c.57,0,1.04.2,1.42.59.37.4.56.87.56,1.42v.43h.33v-6h-.33v.4c0,.55-.19,1.02-.56,1.42-.37.4-.85.6-1.42.63h-5.17v-9.98h6.51c.57.07,1.05.3,1.44.69.45.46.68,1.03.68,1.71v.53h.33v-4.68c-.2.09-.53.18-.99.26-.46.09-.96.17-1.5.23-.54.07-1.05.1-1.53.1h-10.54l.03.33h.4c.57,0,1.06.2,1.48.61.42.41.63.89.63,1.47v18.25c-.02.57-.24,1.06-.64,1.47-.41.41-.9.61-1.47.61h-.43v.33h14.79l1.78-5.8h-.33c-.35.92-.78,1.74-1.28,2.44Z"/>
    <path class="cls-2" d="M351.44,171.05c-.43-.36-.86-.81-1.3-1.33-.33-.37-.71-.84-1.14-1.42-.43-.57-.85-1.15-1.27-1.73-.42-.58-.76-1.07-1.04-1.47s-.41-.6-.41-.63c-.35-.48-.77-.98-1.25-1.48-.48-.5-.97-.84-1.45-1.02,1.12-.04,2.09-.37,2.92-.99.82-.61,1.47-1.4,1.93-2.35.46-.96.69-1.94.69-2.95s-.18-1.93-.53-2.7c-.35-.77-.83-1.41-1.43-1.93-.6-.52-1.33-.91-2.19-1.17s-1.78-.4-2.77-.4h-9.68v.33h.43c.57,0,1.06.2,1.47.61s.62.89.64,1.47v18.25c-.02.57-.24,1.06-.64,1.47s-.9.61-1.47.61h-.43v.33h8.1v-.33h-.4c-.57,0-1.07-.2-1.48-.61-.42-.41-.63-.89-.63-1.47v-19.5h.56c.4,0,.87,0,1.42-.02.55-.01,1.08,0,1.58.05,1.19.04,2.15.49,2.88,1.33.74.85,1.11,2.03,1.14,3.54.02.35.02.69-.02,1.02-.03.33-.08.6-.15.82-.26.99-.66,1.73-1.2,2.24-.54.51-1.13.85-1.78,1.02-.65.18-1.26.28-1.83.3-.4.02-.74.03-1.04.02-.3-.01-.46-.02-.48-.02v.33c.55.02,1.05.25,1.52.67.46.43.88.94,1.25,1.53.07.11.22.36.46.74.24.38.53.84.86,1.37.33.53.66,1.06,1,1.6.34.54.65,1.02.92,1.43s.46.7.54.86c.42.55.92,1.06,1.52,1.53.59.47,1.3.84,2.11,1.12.81.28,1.75.41,2.8.41h2.31v-.33c-.62,0-1.17-.1-1.66-.31-.49-.21-.96-.49-1.38-.86Z"/>
    <path class="cls-2" d="M367.01,162.14l-6.42-5.37c-.57-.46-.99-.96-1.27-1.5s-.4-1.05-.38-1.53c0-.97.38-1.81,1.14-2.52.76-.71,1.75-1.07,2.98-1.07,1.16,0,2.13.32,2.9.96.77.64,1.15,1.49,1.15,2.57h.3l.12-3.62h.01v-.69h-1.66c-.16-.03-.32-.05-.5-.08-.49-.08-.98-.14-1.47-.18-.48-.04-.91-.07-1.29-.07-1.3,0-2.4.26-3.31.77s-1.61,1.21-2.09,2.08-.75,1.79-.79,2.78c-.04.83.11,1.67.46,2.5.35.83.94,1.56,1.78,2.17l6.13,5.2c.59.42,1.03.89,1.32,1.42.29.53.43,1.11.43,1.75,0,1.23-.42,2.22-1.27,2.98s-1.92,1.16-3.21,1.2c-1.08.04-2.03-.17-2.85-.64-.82-.47-1.45-1.15-1.88-2.03-.43-.88-.59-1.88-.48-3h-.3c-.2.48-.36,1.03-.48,1.65-.12.62-.19,1.21-.2,1.8-.01.58.04,1.07.15,1.47.42.44.97.8,1.65,1.07s1.41.48,2.19.61c.78.13,1.51.2,2.19.2,2.13,0,3.82-.58,5.07-1.75,1.25-1.16,1.9-2.71,1.94-4.64.02-.83-.13-1.64-.44-2.42-.32-.78-.86-1.47-1.63-2.06Z"/>
    <path class="cls-2" d="M378.87,149.49h-5.5v.33h.43c.57,0,1.06.2,1.47.61s.62.89.64,1.47v18.25c-.02.57-.24,1.06-.64,1.47s-.9.61-1.47.61h-.43v.33h8.14v-.33h-.43c-.57,0-1.06-.2-1.47-.61s-.62-.89-.64-1.47v-18.25c.02-.57.24-1.06.64-1.47s.9-.61,1.47-.61h.43v-.33h-2.63Z"/>
    <path class="cls-2" d="M402.32,150.58c.7.02,1.28.26,1.73.71s.68,1.03.68,1.73v.49l.33.03v-4.68c-.2.09-.53.18-.99.26-.46.09-.96.17-1.5.23-.54.07-1.05.1-1.53.1h-11.69c-.46,0-.97-.03-1.51-.1-.55-.07-1.05-.14-1.5-.23-.45-.09-.79-.17-1-.26v4.68l.33-.03v-.49c0-.7.23-1.28.68-1.73s1.03-.69,1.73-.71h5.6v19.57c-.02.57-.24,1.06-.64,1.47s-.89.61-1.47.61h-.43v.33h8.14v-.33h-.43c-.57,0-1.06-.2-1.47-.61-.41-.41-.62-.89-.64-1.47v-19.57h5.6Z"/>
    <rect class="cls-2" x="411.44" y="144.88" width="8.5" height="1.48"/>
    <path class="cls-2" d="M426.15,171.74c-.46-.27-.84-.71-1.17-1.28l-9.29-21.49h-.3c0,.2-.07.49-.2.89-.13.4-.28.8-.44,1.22-.17.42-.32.77-.46,1.07-.14.3-.22.47-.25.51l-7.61,17.8c-.32.58-.71,1.02-1.17,1.29-.54.32-1.06.48-1.56.48h-.3v.33h6.75v-.33h-.3c-.26,0-.52-.08-.77-.25-.25-.17-.43-.4-.54-.71-.09-.26-.07-.59.03-.95l2.09-5.24h8.49l1.94,5.07h-.01c.26.66.23,1.17-.1,1.53-.33.36-.71.54-1.15.54h-.3v.33h8.43v-.33h-.26c-.51,0-1.03-.16-1.56-.48ZM411.12,163.95l3.89-9.73,3.73,9.73h-7.62Z"/>
    <path class="cls-2" d="M443.61,149.36c-.54.07-1.05.1-1.53.1h-11.69c-.46,0-.97-.03-1.51-.1-.55-.07-1.05-.14-1.5-.23-.45-.09-.79-.17-1-.26v4.68l.33-.03v-.49c0-.7.23-1.28.68-1.73s1.03-.69,1.73-.71h5.6v19.57c-.02.57-.24,1.06-.64,1.47s-.89.61-1.47.61h-.43v.33h8.14v-.33h-.43c-.57,0-1.06-.2-1.47-.61-.41-.41-.62-.89-.64-1.47v-19.57h5.6c.7.02,1.28.26,1.73.71s.68,1.03.68,1.73v.49l.33.03v-4.68c-.2.09-.53.18-.99.26-.46.09-.96.17-1.5.23Z"/>
    <path class="cls-2" d="M465.5,166.75c-.35.92-.78,1.74-1.29,2.44-.5.7-1.14,1.25-1.91,1.63-.77.38-1.72.58-2.87.58h-4.58v-9.65h5.17c.57,0,1.04.2,1.42.59.37.4.56.87.56,1.42v.43h.33v-6h-.33v.4c0,.55-.19,1.02-.56,1.42-.37.4-.85.6-1.42.63h-5.17v-9.98h6.51c.57.07,1.06.3,1.44.69.45.46.67,1.03.67,1.71v.53h.33v-4.68c-.2.09-.53.18-.99.26-.46.09-.96.17-1.5.23-.54.07-1.05.1-1.53.1h-10.54l.03.33h.4c.57,0,1.06.2,1.48.61.42.41.63.89.63,1.47v18.25c-.02.57-.24,1.06-.64,1.47s-.9.61-1.47.61h-.43v.33h14.79l1.78-5.8h-.33Z"/>
  </g>
</svg>