<?xml version="1.0" encoding="UTF-8"?>
<svg width="300" height="300" version="1.1" viewBox="0 0 300 300" xmlns="http://www.w3.org/2000/svg">
  <circle cx="150" cy="150" r="149.5" fill="#fff"/>
  <circle cx="150" cy="150" r="145.5" fill="none" stroke="#2e3490" stroke-width="8"/>
  <circle cx="150" cy="150" r="106" fill="none" stroke="#2e3490" stroke-width="8"/>
  <g fill="#2e3490">
    <path d="m150.01 245.58c11.899-12.026 23.812-24.039 35.711-36.065l-27.02-27.799 27.17-27.592 18.315 18.523-9.0203 9.1096-9.034-9.1096-9.034 9.1096 18.068 18.233c9.0203-9.1234 18.054-18.233 27.088-27.343-12.05-12.165-24.086-24.329-36.122-36.48-12.036 12.165-24.086 24.315-36.122 36.48-12.05-12.165-24.086-24.315-36.122-36.48-12.05 12.151-24.086 24.315-36.122 36.48 9.0203 9.1096 18.054 18.219 27.088 27.343l18.054-18.233-9.0203-9.1096-9.034 9.1096-9.0339-9.1096 18.328-18.523 27.157 27.592-27.02 27.799c11.913 12.026 23.812 24.039 35.725 36.065"/>
    <path d="m31.674 112.15c-0.51624-4e-3 -1.0256 0.1115-1.5311 0.34479-0.80876 0.37324-1.4815 1.4369-1.9889 3.2063l-0.76749 2.7096-4.8387-1.383-0.42466 1.4941 11.325 3.2472 1.2331-4.3128c0.4636-1.6173 0.45027-2.8196-0.0292-3.6076-0.49351-0.78794-1.166-1.3135-2.0434-1.5623-0.31358-0.0882-0.62528-0.13376-0.93501-0.13636zm-0.29415 1.4999c0.21588-9e-3 0.44203 0.0185 0.68179 0.0877 0.69903 0.19348 1.1384 0.55383 1.3304 1.0792 0.20593 0.51146 0.16253 1.2436-0.11103 2.1837l-0.78113 2.7369-3.9349-1.1201 0.57659-2.0044c0.27357-0.95381 0.52067-1.6312 0.72659-2.0044 0.19199-0.387 0.49229-0.6638 0.89022-0.82982 0.199-0.0758 0.40551-0.11995 0.62139-0.12857zm1.2701-18.753c-0.5344 0.0139-1.015 0.13887-1.4259 0.38764-0.41105 0.23499-0.78106 0.59341-1.1103 1.0772-0.24671 0.34559-0.53366 0.87091-0.86294 1.5759l-1.8778 4.0362 10.679 4.977 0.6584-1.4239-4.3459-2.0181 1.274-2.7369c0.71327-1.5067 0.87819-2.6959 0.52205-3.5667-0.35633-0.87089-0.98719-1.5352-1.8914-1.9499-0.5347-0.24898-1.0706-0.35842-1.6188-0.35842zm-0.0896 1.4181c0.32323-6e-3 0.65274 0.0704 0.98176 0.22596 0.61708 0.29033 1.0007 0.70557 1.1649 1.2448 0.16415 0.5391 0.0274 1.2713-0.39738 2.1836l-1.2759 2.7641-3.8238-1.7824 1.2759-2.7369c0.30242-0.63586 0.53488-1.0647 0.71295-1.272 0.27376-0.3181 0.61542-0.52492 1.0402-0.59413 0.10624-0.0206 0.21367-0.0312 0.32141-0.0331zm-12.837 33.596 0.30142-1.5344 5.0585 0.9953c0.13729-0.70499 0.0995-1.2165-0.10942-1.5621-0.21985-0.33153-0.79483-0.81564-1.741-1.4653-0.69935-0.46996-1.1789-0.82938-1.4532-1.1059-0.27358-0.26263-0.4795-0.60821-0.61678-1.0368-0.13728-0.42853-0.16414-0.87091-0.0696-1.327 0.10942-0.59445 0.17807-0.91234 0.19199-0.93992l1.3297 0.26261c-0.01 0.0553-0.0398 0.15218-0.0696 0.30394-0.0398 0.16603-0.0696 0.27637-0.0696 0.30396-0.10943 0.49764-0.0597 0.88465 0.13728 1.1612 0.19199 0.29021 0.64462 0.66357 1.3572 1.1335 0.90427 0.56677 1.4531 1.0229 1.6587 1.3408 0.20592 0.31809 0.3432 0.67731 0.42478 1.0782 0.35613-0.70499 1.1789-1.3132 2.495-1.8108l4.3045-1.6312-0.35613 1.8938-3.5232 1.327c-0.9729 0.35942-1.645 0.69115-2.0425 0.98145-0.39792 0.30395-0.64462 0.73269-0.75405 1.2994l5.4011 1.0506-0.28749 1.5344zm5.1408-21.44 0.41085-1.5068 11.323 3.2485-0.42477 1.4929zm7.718-18.233 10.391 5.5155 0.74013-1.3685-9.1847-4.8797 2.8514-5.3496-1.2338-0.64972zm15.495-13.116c-0.10929-4e-4 -0.22007 3e-3 -0.3331 0.0117-0.89114 0.0691-1.8799 0.84265-2.9628 2.3356l-1.6441 2.2811-4.0712-2.957-0.91943 1.2564 9.5274 6.9269 2.6317-3.6232c1.0005-1.3685 1.3997-2.5005 1.2077-3.4128-0.192-0.89854-0.64487-1.6172-1.385-2.1564-0.61173-0.43536-1.2862-0.6595-2.0512-0.6623zm0.0429 1.572c0.36654 0.0119 0.71577 0.14932 1.0753 0.40323 0.57597 0.42852 0.87852 0.91195 0.87852 1.4649 0.014 0.55295-0.27333 1.2164-0.84931 2.0181l-1.6733 2.3083-3.3037-2.4057 1.2194-1.685c0.58922-0.80178 1.0424-1.3558 1.3577-1.646 0.32897-0.2901 0.6989-0.44176 1.1376-0.45582 0.0532-3e-3 0.10542-4e-3 0.15779-2e-3zm-3.8998-7.0206 9.5275 6.9255 0.91819-1.2579-9.5275-6.9255zm9.8017 1.0091 0.68541-1.3685c0.50735 0.2902 1.1378 0.44236 1.8918 0.44236 0.75405 0.0141 1.3983-0.29019 1.9192-0.89849 0.54813-0.62203 0.80877-1.2579 0.80877-1.8938-0.01-0.63587-0.23278-1.1474-0.68541-1.5482-0.49342-0.41469-1.0556-0.56677-1.6724-0.44238-0.61677 0.12419-1.2064 0.52524-1.7822 1.175l-0.47949 0.56677-1.0281-0.8985c0.46657-0.53918 0.79484-0.98145 0.98683-1.3132 0.192-0.34538 0.24672-0.73268 0.17807-1.1888-0.0696-0.44239-0.26063-0.8018-0.5899-1.0921-0.38399-0.33154-0.84956-0.46996-1.3983-0.4147-0.56206 0.0411-1.0556 0.3178-1.4942 0.84323-0.39792 0.44238-0.61677 0.92618-0.67149 1.4376-0.0398 0.51149 0.0498 0.98147 0.32928 1.4238 0.26063 0.45623 0.47948 0.74652 0.67148 0.91234l-1.2475 0.8985c-1.6451-1.9076-1.6724-3.7738-0.10943-5.5847 0.75404-0.87091 1.6039-1.3409 2.5224-1.4376 0.93212-0.0833 1.7136 0.15218 2.358 0.71884 0.83662 0.705 1.1377 1.6726 0.90426 2.8476 0.52127-0.34577 1.1103-0.49764 1.7546-0.47005 0.65855 0.028 1.2476 0.27635 1.7822 0.74652 0.76798 0.66356 1.1515 1.5068 1.1652 2.5435 0 1.0506-0.4387 2.0597-1.2886 3.0412-1.4667 1.6726-3.3037 2.0044-5.5108 0.95378m34.4-38.604c-0.3714 0.011-0.76086 0.0847-1.1824 0.22986-0.38389 0.13823-0.93335 0.40201-1.6188 0.77528l-3.8784 2.1564 5.7016 10.299 1.3714-0.74802-2.3297-4.2017 2.6453-1.4512c1.4532-0.81559 2.2898-1.6726 2.5226-2.5849 0.21885-0.92617 0.0802-1.8251-0.39933-2.696-0.2879-0.51147-0.64213-0.92521-1.0948-1.2292-0.4388-0.30414-0.9048-0.48443-1.3714-0.53959-0.11995-0.0104-0.24241-0.0134-0.36621-0.01zm-0.2883 1.535c0.25061 6e-3 0.49633 0.0679 0.73633 0.18895 0.38399 0.17966 0.69805 0.48312 0.94476 0.91165 0.31535 0.60822 0.39848 1.1615 0.20648 1.7006-0.17817 0.52529-0.72575 1.0373-1.6032 1.535l-2.6609 1.4785-2.0415-3.6914 2.6317-1.4512c0.61646-0.35942 1.0539-0.55219 1.3285-0.6214 0.15403-0.0363 0.3074-0.054 0.45776-0.0507zm39.875-15.515-1.646 0.29025-2.4116 12.387 1.6304-0.29025 0.64477-3.7323 4.8523-0.85709 1.9752 3.2609 1.7532-0.30389zm-0.67205 1.3285c0.28749 0.59441 0.71149 1.3531 1.2467 2.2655l1.7824 2.9862-3.9329 0.70516 0.67205-3.6212c0.15319-0.78796 0.22183-1.5615 0.2318-2.3356zm26.101-3.333-4.7296 11.709 1.6596 0.0272 1.3577-3.5511 4.9205 0.0955 1.3168 3.5803 1.7688 0.0292-4.6069-11.861zm0.81035 1.383c0.17806 0.64973 0.43863 1.465 0.79477 2.4603l1.1785 3.2901-4.003-0.0818 1.3577-3.4148c0.28749-0.74648 0.50791-1.4935 0.67205-2.2538zm-93.987 43.323 3.0844-3.1932-1.0418-1.0091-3.0844 3.1932zm10.912-3.1932-6.676-7.9623-2.9748 2.502-0.89133-1.0644 7.1422-6.0132 0.90427 1.0644-2.9885 2.5159 6.676 7.9485zm8.9655-7.1329 1.2749-0.88465-2.8651-4.0917-0.0298-8.2664-1.4942 1.0368 0.10943 4.1608c0.0298 0.91235 0.0796 1.7279 0.15121 2.4329-0.68541-0.33154-1.3983-0.63588-2.1248-0.93994l-3.9344-1.5758-1.5491 1.0782 7.5946 2.9721zm12.927-21.33 1.412-0.62204 2.1111 4.7138c0.64463-0.2902 1.0418-0.62203 1.2063-0.9953 0.15121-0.37326 0.21985-1.1197 0.19199-2.267-0.01-0.82939 0.01-1.4514 0.0796-1.8247 0.0596-0.37325 0.23278-0.74641 0.49341-1.0921 0.27457-0.35941 0.61677-0.63587 1.0556-0.82937 0.54813-0.24878 0.83662-0.37326 0.87741-0.37326l0.5342 1.2303c-0.0398 0.0281-0.13729 0.0692-0.2875 0.12419-0.16414 0.0692-0.2467 0.0973-0.28749 0.11045-0.45263 0.20734-0.74013 0.46996-0.86348 0.78795-0.12335 0.31778-0.17807 0.91233-0.13729 1.7556 0.0398 1.0644-0.01 1.7694-0.15121 2.1288-0.15119 0.34578-0.37005 0.66357-0.64461 0.96762 0.7809-0.12419 1.741 0.22119 2.9062 1.0091l3.811 2.5988-1.7684 0.78795-3.0981-2.1288c-0.84955-0.58061-1.508-0.95386-1.9878-1.1059-0.46556-0.15217-0.95997-0.11044-1.4943 0.12419l2.2482 5.0317-1.4257 0.63588zm17.78 5.0455-3.0434-11.377 2.2757-0.59435 4.8391 7.3264c0.45263 0.6773 0.79484 1.1888 1.0008 1.5344 0.01-0.44238 0.0597-1.1059 0.12335-1.9767l0.60285-8.6534 2.0289-0.53918 3.0433 11.377-1.4531 0.387-2.5498-9.5243-0.75405 10.409-1.3572 0.37325-5.8947-8.8055 2.6047 9.6764zm26.293-5.6953-0.82269-11.75 1.5491-0.11045 0.34221 4.8244 6.1004-0.41469-0.32928-4.8382 1.5491-0.11045 0.8227 11.764-1.5491 0.0964-0.39792-5.5294-6.1003 0.42853 0.38399 5.5294zm33.408-3.1517 1.4943 0.5806c-0.47949 1.2303-1.1789 2.1288-2.0974 2.6956-0.93212 0.55292-2.0014 0.76027-3.2215 0.62203-1.2612-0.16601-2.2482-0.53907-2.9747-1.1611-0.72619-0.60829-1.2338-1.41-1.5354-2.4329-0.28749-1.023-0.37006-2.1012-0.23278-3.2209 0.15121-1.2165 0.50735-2.2532 1.0967-3.0964 0.57599-0.85706 1.3161-1.4653 2.2346-1.8247 0.91819-0.35942 1.8917-0.48381 2.9199-0.35942 1.1652 0.15218 2.111 0.56677 2.8376 1.2579 0.72621 0.69116 1.1789 1.6035 1.3572 2.7094l-1.5628 0.17976c-0.16413-0.88466-0.47949-1.5482-0.95997-2.0044-0.45263-0.45622-1.083-0.71884-1.8644-0.81564-0.90426-0.11045-1.6724 0-2.3304 0.35942-0.65756 0.35942-1.1516 0.88465-1.4806 1.5759-0.3432 0.705-0.56206 1.4376-0.64462 2.1979-0.12335 1.0091-0.0796 1.8938 0.10943 2.6679 0.20591 0.7741 0.57598 1.3823 1.1516 1.8247 0.56206 0.44238 1.1926 0.705 1.9192 0.78796 0.86347 0.11045 1.6314-0.0411 2.2893-0.46996 0.67147-0.42853 1.1653-1.1197 1.4943-2.0735m68.857 25.725-8.0314 8.6255 1.1512 1.0655 3.2628-3.5122 2.207 2.0609c1.22 1.1473 2.3033 1.6723 3.2356 1.6032 0.94605-0.0692 1.7418-0.48482 2.4272-1.2175 0.41085-0.42855 0.68517-0.89687 0.84931-1.4084 0.15121-0.52534 0.17834-1.0243 0.0799-1.4804-0.10942-0.46996-0.32925-0.92671-0.69931-1.3967-0.24672-0.33163-0.65891-0.77398-1.2214-1.2993zm0.22207 2.2401 2.207 2.059c0.50735 0.48381 0.84838 0.83051 0.98566 1.0655 0.21985 0.35941 0.30211 0.7461 0.2474 1.1746-0.0597 0.42853-0.26096 0.82885-0.59024 1.1882-0.46655 0.49765-0.97253 0.73254-1.5486 0.71879-0.56205 0-1.2058-0.35876-1.946-1.0499l-2.2343-2.0746zm-20.878-18.165-6.2374 9.9813 3.8102 2.3901c0.6307 0.38712 1.207 0.67764 1.7142 0.84346 0.50734 0.15217 0.97336 0.22259 1.3986 0.18116 0.42476-0.0281 0.86223-0.19493 1.3148-0.4714 0.45264-0.27635 0.82265-0.65012 1.1104-1.1201 0.35613-0.5806 0.52222-1.1874 0.4675-1.8233-0.0696-0.62204-0.3432-1.2178-0.83762-1.7707 0.61677 0.0692 1.1663-0.0264 1.6188-0.26102 0.46556-0.22119 0.83657-0.55324 1.1103-0.98177 0.27457-0.45622 0.42466-0.98165 0.42466-1.5623 0-0.59444-0.16522-1.1191-0.50841-1.6168-0.32829-0.4838-0.8765-0.96934-1.6441-1.4532zm0.31556 1.9226 2.0006 1.2428c0.71326 0.44237 1.1928 0.80246 1.4259 1.0928 0.23278 0.27636 0.35647 0.5795 0.35647 0.93891 0.01 0.34579-0.0999 0.69285-0.30192 1.0246-0.21886 0.34578-0.49335 0.58057-0.79477 0.7188-0.32928 0.11045-0.68554 0.12377-1.0694 0.0137-0.31536-0.0833-0.75468-0.30463-1.3441-0.66426l-2.1525-1.3538zm-2.618 4.1881 2.3025 1.4512c0.6446 0.38699 1.0978 0.74755 1.3714 1.0792 0.26062 0.31786 0.41467 0.67646 0.42465 1.0636 0.0268 0.40089-0.0964 0.78771-0.32921 1.161-0.19199 0.31799-0.42517 0.55299-0.72659 0.70517-0.27456 0.17956-0.55013 0.24934-0.83762 0.24934s-0.60185-0.0706-0.93112-0.19481c-0.20592-0.083-0.50829-0.26138-0.93307-0.52399l-2.4934-1.5486zm-36.589-21.883 1.5216 0.40086 1.837 7.9761 5.1133-6.11 1.5079 0.40085-6.6487 7.7135c-0.8227 0.95376-1.4531 1.5621-1.8917 1.8247-0.42478 0.24877-0.97291 0.2902-1.6039 0.11044-0.39792-0.0973-0.84955-0.31809-1.3572-0.64973l0.34221-1.2856c0.3432 0.33163 0.74013 0.56676 1.1927 0.67741 0.37006 0.11044 0.71326 0.0692 1.0418-0.0833 0.32928-0.16602 0.76798-0.63588 1.316-1.3823zm9.1299 14.957 1.4532 0.55292 1.9877-5.1838 5.7165 2.1979-1.9877 5.1838 1.4531 0.55293 4.2223-10.99-1.4668-0.56677-1.7274 4.5202-5.7165-2.1979 1.741-4.5064-1.4531-0.55291zm17.396-5.5985 1.2475 0.63588-4.2359 8.3079 9.8154-5.4741 1.4119 0.71884-5.36 10.492-1.2475-0.63587 4.2086-8.294-9.8017 5.4464-1.3983-0.70499zm15.82 23.375 7.2518-9.2893 6.7035 5.2391-0.84955 1.1059-5.4834-4.2853-2.207 2.8338 5.127 4.0226-0.84954 1.092-5.1407-4.0226-2.4676 3.1656 5.7028 4.4511-0.84956 1.092zm26.238 19.906 0.67147 1.4653c-1.1926 0.55292-2.3305 0.705-3.3861 0.46996-1.0556-0.23503-1.9603-0.82938-2.7416-1.7832-0.79484-0.98146-1.2476-1.9491-1.3435-2.8891-0.0994-0.95378 0.0994-1.8938 0.60284-2.8338 0.50735-0.94002 1.1927-1.7694 2.0563-2.4744 0.95997-0.77411 1.9329-1.2579 2.9474-1.4653 1.0007-0.22119 1.9604-0.13833 2.8651 0.23494 0.91819 0.37326 1.6998 0.96761 2.3579 1.7694 0.74012 0.92618 1.1241 1.88 1.1652 2.8891 0.0398 0.99531-0.26064 1.963-0.90427 2.9029l-1.2475-0.96761c0.49342-0.76026 0.7262-1.4653 0.71326-2.115-0.0298-0.64972-0.28749-1.2718-0.7819-1.88-0.57598-0.70499-1.2201-1.1612-1.933-1.3685-0.7262-0.19361-1.4394-0.15218-2.1659 0.11044-0.7262 0.27637-1.3846 0.64973-1.9878 1.1335-0.7819 0.63589-1.3708 1.2994-1.7684 1.9906-0.39792 0.69124-0.54813 1.41-0.4387 2.115 0.0994 0.71883 0.37006 1.3409 0.8227 1.9076 0.54812 0.67741 1.2064 1.0921 1.974 1.2441 0.76798 0.15218 1.6176 0 2.5224-0.45612m9.4589-0.0413-9.8839 6.414 0.84956 1.2994 11.227 0.1936-7.8002 5.0732 0.76798 1.1888 9.8701-6.4141-0.84955-1.3132-11.241-0.17977 7.8276-5.0732zm-1.7821 19.795 9.171-4.8797-1.8232-3.4282 1.2338-0.64971 4.3867 8.2387-1.2338 0.64971-1.8232-3.442-9.1711 4.8797zm3.6739 7.3126 10.926-4.4097 3.1941 7.8793-1.2887 0.52533-2.6046-6.4417-3.3586 1.3409 2.4401 6.0408-1.2749 0.52523-2.4401-6.0408-3.7151 1.4929 2.7143 6.7044-1.3023 0.52533zm5.3327 14.072 0.42477 1.5068 9.9798-2.8614 1.0693 3.7461 1.3434-0.3871-2.5772-8.9714-1.3297 0.37327 1.0693 3.7323zm13.667 5.6261 0.27356 1.3824-9.1572 1.7832 10.35 4.3682 0.30143 1.5482-11.556 2.2394-0.27356-1.3962 9.1299-1.7694-10.323-4.382-0.30143-1.5344z"/>
    <path d="m267.32 161.44 1.6724 0.11044 0.0994-1.6726-1.6587-0.0963zm8.842 12.759 0.12335-1.4791c0.58991 0.0411 1.0968-0.0411 1.5217-0.22119 0.41085-0.1936 0.78091-0.52533 1.0967-1.0091 0.31535-0.49765 0.54813-1.0644 0.65756-1.7141 0.10942-0.59445 0.10942-1.1197 0.0298-1.6035-0.10943-0.4838-0.2875-0.85707-0.54813-1.1197-0.27456-0.27635-0.57598-0.44237-0.93212-0.51149-0.37007-0.0692-0.69934-0.0141-1.0145 0.15218-0.30143 0.16602-0.58992 0.47006-0.86349 0.91235-0.17807 0.30394-0.49341 0.95386-0.93212 1.9767-0.45263 1.0229-0.82269 1.7279-1.1241 2.115-0.38399 0.49765-0.80876 0.84322-1.3023 1.0368-0.46657 0.19359-0.97291 0.24877-1.508 0.15217-0.57598-0.0963-1.0967-0.35942-1.549-0.77411-0.46656-0.42854-0.75406-0.98145-0.90526-1.6726-0.15121-0.67741-0.15121-1.41-0.0298-2.1979 0.1512-0.85707 0.42477-1.5897 0.82269-2.1979 0.39791-0.60818 0.89133-1.0367 1.4943-1.2994 0.58992-0.26261 1.2338-0.33163 1.9193-0.24877l-0.15121 1.493c-0.74013-0.0553-1.3435 0.12419-1.7959 0.51149-0.45263 0.387-0.75405 1.0229-0.91819 1.9215-0.16414 0.92608-0.12336 1.6311 0.1512 2.1288 0.27456 0.46996 0.64463 0.76027 1.1241 0.84323 0.41085 0.0833 0.78092-0.0141 1.0968-0.26262 0.31535-0.24878 0.74012-0.96763 1.2337-2.1841 0.50734-1.1888 0.91819-2.0044 1.2064-2.4329 0.42477-0.60819 0.90426-1.0506 1.4394-1.2856 0.5352-0.23504 1.1104-0.2902 1.741-0.1936 0.61678 0.12459 1.1653 0.3871 1.6451 0.84322 0.47948 0.45612 0.82268 1.0367 1.0144 1.7417 0.17807 0.71884 0.20593 1.4929 0.0596 2.3223-0.17806 1.0506-0.49341 1.9077-0.91819 2.5573-0.43869 0.66357-1.0008 1.1335-1.6862 1.4238-0.68541 0.30395-1.412 0.3871-2.1934 0.27637m1.2149 11.459-11.474-2.6403 1.9192-8.3079 1.3572 0.31778-1.5628 6.7735 3.5094 0.81555 1.4668-6.3449 1.3434 0.30395-1.4667 6.3588 3.9069 0.8985 1.6313-7.0499 1.3435 0.31779zm-2.5224 7.4232 0.47949-1.4791-9.8702-3.2209 1.2064-3.7046-1.3297-0.42854-2.8926 8.8746 1.3297 0.42854 1.1926-3.677zm-11.543 17.196 0.52127-1.3823c0.56206 0.1936 1.0693 0.26262 1.5216 0.20735 0.45263-0.0692 0.89133-0.29021 1.3435-0.66358 0.43871-0.38709 0.80876-0.87091 1.0967-1.4653 0.26064-0.53918 0.42478-1.0506 0.46656-1.5344 0.0298-0.49765-0.0398-0.8985-0.20592-1.2303-0.192-0.34578-0.43871-0.59445-0.76798-0.74652-0.32928-0.16602-0.67149-0.20734-1.0145-0.13834-0.34321 0.0692-0.69934 0.29021-1.0967 0.64973-0.24671 0.23493-0.7262 0.77411-1.4257 1.6312-0.71327 0.85706-1.2611 1.4376-1.6587 1.7279-0.50734 0.37327-1.0281 0.58062-1.5491 0.64972-0.50735 0.0553-1.0007-0.0411-1.4942-0.27635-0.52127-0.26263-0.94605-0.66356-1.2612-1.1888-0.32927-0.52532-0.45263-1.1473-0.41085-1.8385 0.0398-0.705 0.23278-1.41 0.57599-2.1288 0.38399-0.77412 0.84955-1.41 1.3983-1.8938 0.54812-0.46997 1.1378-0.74653 1.7822-0.82939 0.65755-0.0833 1.2886 0.0141 1.9192 0.29021l-0.54813 1.3962c-0.69934-0.24879-1.3297-0.26262-1.8643-0.0141-0.56206 0.24877-1.0145 0.78796-1.4257 1.6035-0.41085 0.84322-0.54812 1.5344-0.4387 2.0873 0.12336 0.52532 0.41085 0.91234 0.84955 1.1197 0.37007 0.19362 0.75406 0.19362 1.1378 0.0411 0.37006-0.15218 0.95997-0.73269 1.7822-1.7418 0.80876-1.0091 1.4119-1.6864 1.8095-2.0182 0.58992-0.47007 1.1789-0.74643 1.7547-0.84322 0.57599-0.0692 1.1515 0.028 1.7135 0.30394 0.57598 0.27636 1.0145 0.69115 1.3572 1.2579 0.34221 0.56677 0.50734 1.2165 0.49342 1.9629-0.0298 0.73257-0.21985 1.4791-0.58991 2.2394-0.45263 0.95377-1.0007 1.7003-1.5902 2.1979-0.58991 0.51149-1.2612 0.81564-2.0015 0.92619-0.74012 0.0833-1.4804-0.028-2.1796-0.35943m8.7459-9.5926 0.56206-1.4653-10.981-4.2576-0.56205 1.4514zm-2.2894-39.134 11.762 0.8018 0.0995-1.5482-11.748-0.81563zm-13.268 47.772c-0.6307-0.0141-1.1799 0.16682-1.6597 0.51231-0.46655 0.34577-0.97262 0.96759-1.5214 1.8661l-2.768 4.4219 9.9774 6.2373 0.83567-1.3149-4.4413-2.7778 0.96034-1.535c0.21885-0.33163 0.38312-0.56694 0.50647-0.70517 0.17807-0.16602 0.38413-0.31778 0.64477-0.42854 0.2467-0.12458 0.60298-0.20576 1.0831-0.26103 0.47949-0.0412 1.139-0.0838 1.9752-0.0838l2.9063-0.0292 1.0422-1.6713-3.8121 0.0409c-0.74012 0.028-1.411 0.11069-2.0142 0.27662-0.27356 0.0692-0.60361 0.23432-0.9876 0.48309 0.46655-1.0367 0.58937-1.9355 0.39738-2.7096-0.20592-0.76026-0.65624-1.3535-1.3558-1.8096-0.56206-0.33154-1.1381-0.51231-1.7687-0.51231zm-0.0973 1.5954c0.34733-0.01 0.68328 0.0869 1.0129 0.28635 0.31535 0.20735 0.54881 0.48444 0.71295 0.82983 0.17312 0.34554 0.22411 0.71881 0.12467 1.1473-0.0826 0.41471-0.32925 0.93859-0.69932 1.533l-1.7687 2.8479-3.3174-2.0726 1.9869-3.1518c0.45233-0.74651 0.95947-1.2038 1.4668-1.3422 0.1629-0.0475 0.32327-0.0736 0.48115-0.0779zm-2.5779 21.021-9.6509-6.7596 4.8802-6.967 1.1378 0.78795-3.9892 5.7091 2.9474 2.0597 3.7425-5.3358 1.1378 0.80179-3.7562 5.3358 3.2901 2.2947 4.1538-5.9164 1.1377 0.78795zm-5.5383 6.2482 1.0281-1.2441-6.0592-11.086-1.0282 1.2165 4.5102 7.9346c0.34321 0.59445 0.69934 1.1612 1.0692 1.7279-0.56206-0.26262-1.1926-0.52523-1.878-0.77411l-8.5131-3.1517-1.0967 1.2856zm-15.532 14.736-7.7317-8.8884 1.2064-1.0644 10.748 2.9306-6.0728-6.9808 1.124-0.98147 7.7317 8.8885-1.1927 1.0506-10.761-2.9167 6.0866 6.9808zm-25.896 11.916 1.2613-0.77411c0.31535 0.48381 0.68541 0.84322 1.0829 1.0644 0.39792 0.22119 0.89133 0.31778 1.4668 0.27635 0.58991-0.028 1.1789-0.20734 1.7821-0.49765 0.52127-0.27635 0.94604-0.59445 1.2749-0.95376 0.32928-0.37327 0.52128-0.73269 0.57599-1.1197 0.0596-0.37326 0-0.71884-0.15121-1.0506-0.17807-0.31809-0.42478-0.56677-0.7262-0.70499-0.32928-0.15218-0.74012-0.1936-1.2749-0.13833-0.32928 0.028-1.0418 0.16601-2.1249 0.42853-1.0829 0.26261-1.8643 0.3871-2.3578 0.3871-0.63071 0-1.1652-0.15217-1.6176-0.41469-0.4387-0.26261-0.79484-0.63588-1.0418-1.1197-0.26064-0.52534-0.37007-1.092-0.30142-1.7141 0.0696-0.60829 0.32928-1.1888 0.7819-1.7141 0.45263-0.52534 1.0418-0.98145 1.741-1.3408 0.78091-0.40095 1.5354-0.62214 2.2619-0.67741 0.71326-0.0411 1.3709 0.0833 1.9329 0.41469 0.56206 0.31778 1.0145 0.78796 1.3572 1.3823l-1.2749 0.78795c-0.42477-0.62204-0.91819-1.0091-1.4942-1.1335-0.58991-0.12458-1.2887 0.0141-2.0974 0.41469-0.83662 0.44239-1.3709 0.8985-1.6039 1.41-0.21986 0.49766-0.21986 0.96762 0 1.3962 0.19199 0.3871 0.47949 0.62204 0.8774 0.73258 0.38399 0.0973 1.2201 0 2.4676-0.33153 1.2612-0.30395 2.1522-0.48381 2.6732-0.51149 0.75405-0.028 1.3846 0.0973 1.8918 0.3871 0.52126 0.27635 0.91819 0.705 1.2063 1.2717 0.2875 0.55292 0.38399 1.1612 0.32929 1.8247-0.0796 0.64972-0.34321 1.2717-0.79484 1.8523-0.46556 0.5806-1.0692 1.0644-1.8095 1.4376-0.94604 0.48381-1.8232 0.76027-2.6047 0.80179-0.78092 0.0553-1.4942-0.11044-2.1385-0.47006-0.65755-0.37316-1.1652-0.91234-1.5491-1.6035m-8.8845-4.6453-1.5214 0.71879 0.87657 12.58 1.5077-0.69152-0.34284-3.7868 4.4686-2.0746 2.7564 2.6551 1.6032-0.7597zm-0.27466 1.4941c0.43861 0.51149 1.042 1.1197 1.796 1.8662l2.4953 2.433-3.6193 1.685-0.2883-3.6758c-0.0686-0.78794-0.19174-1.5481-0.38374-2.3083zm-11.131 15.482-4.0303-11.059 1.5079-0.55292 8.9655 6.58-3.153-8.6949 1.3983-0.51148 4.0303 11.073-1.5079 0.53918-8.9655-6.58 3.1667 8.6949zm-9.5817-10.022-1.6324 0.40128-1.535 12.523 1.6032-0.40129 0.3857-3.7732 4.7842-1.1882 2.1934 3.1226 1.7259-0.42854zm-0.54932 1.4103c0.32897 0.56678 0.79578 1.2991 1.3986 2.17l1.9869 2.8615-3.8784 0.96619 0.42269-3.6622c0.0796-0.78795 0.10993-1.5615 0.0701-2.3356zm-15.669 13.145-1.645-11.667 2.3304-0.3178 3.9207 7.8793c0.35614 0.71883 0.63071 1.2717 0.79484 1.645 0.0796-0.44237 0.192-1.1059 0.35613-1.9629l1.6587-8.5152 2.07-0.27635 1.6451 11.653-1.4806 0.20733-1.3846-9.7593-2.0152 10.243-1.3983 0.19361-4.7569-9.4552 1.3983 9.9252zm61.332-35.526 3.8933 5.5708c0.84955 1.2165 1.22 2.1703 1.1241 2.8753-0.10943 0.705-0.61678 1.3962-1.5628 2.0459-0.56206 0.387-1.083 0.60819-1.6176 0.64971-0.5342 0.0411-1.0144-0.0692-1.4531-0.35941-0.42477-0.2902-0.93211-0.84323-1.5216-1.6865l-3.8933-5.5708-1.2748 0.88466 3.8932 5.5846c0.71326 1.0229 1.3983 1.7418 2.0562 2.1565 0.65855 0.42854 1.3846 0.59435 2.1797 0.49764 0.7819-0.0833 1.6451-0.45621 2.5498-1.0782 0.93211-0.64973 1.5491-1.3547 1.8781-2.115 0.31535-0.76026 0.39792-1.5067 0.21986-2.2256-0.17807-0.73268-0.60285-1.5758-1.2887-2.5435l-3.907-5.5708zm-3.1941-0.7188 0.94605 1.3547 1.3708-0.94003-0.94605-1.3685zm-2.7143 1.9076 0.94605 1.3685 1.3709-0.94003-0.95998-1.3685zm26.211-3.0826-8.1703-8.4876 1.1241-1.0782 8.1566 8.4876zm-9.9113-10.216 1.1515 1.1888 1.1926-1.1473-1.1516-1.2026zm26.279-38.484 1.5491 0.59445 0.60284-1.5482-1.5628-0.59445zm-118.03 86.175 0.41085-11.778 8.513 0.30395-0.0398 1.3962-6.9639-0.24878-0.12335 3.6079 6.5116 0.22119-0.0398 1.3824-6.5116-0.23492-0.15121 4.0088 7.2382 0.26261-0.0596 1.3824zm-8.4719-1.0506 0.69934-4.9488-3.5505-7.3541 1.8781 0.26262 1.8095 3.8429c0.31535 0.71883 0.6307 1.4238 0.90426 2.1426 0.43871-0.55291 0.94605-1.1888 1.5628-1.88l2.7416-3.1103 1.7959 0.24877-5.6068 6.0685-0.69934 4.9487zm-8.184-1.3408 2.2482-11.556 1.5354 0.30394-2.2482 11.556zm2.3441-12.344 1.6314 0.31778 0.31535-1.6312-1.6312-0.3178zm-14.079 9.4276 1.4943 0.42854 1.1377-3.9258 2.3717-1.2718 2.3852 6.8841 1.9741 0.56677-3.0296-8.1558 6.0729-3.2208-2.0288-0.58061-7.2382 3.9949 1.6039-5.6123-1.4942-0.42853zm-8.0609-14.999-3.8375 11.142 1.4824 0.51036 1.6986-4.9478 1.7142 0.58049c0.37007 0.13843 0.64355 0.24745 0.79476 0.34479 0.20592 0.12439 0.39853 0.30476 0.5766 0.52594 0.16413 0.20735 0.32799 0.55304 0.4792 0.99541 0.16414 0.45615 0.34145 1.0777 0.54737 1.907l0.67204 2.8206 1.8506 0.63503-0.89216-3.6894c-0.17806-0.73265-0.42545-1.3699-0.71294-1.909-0.13729-0.24878-0.37004-0.53891-0.69932-0.85711 1.124 0.22119 2.0298 0.1393 2.7291-0.22011 0.69904-0.35942 1.1796-0.93989 1.4532-1.7278 0.20294-0.60822 0.24607-1.2307 0.12271-1.8389-0.13728-0.62204-0.43786-1.1208-0.87657-1.4941-0.45243-0.3732-1.1793-0.73185-2.1661-1.0772zm1.0558 1.7415 3.5102 1.2175c0.83623 0.27645 1.3834 0.64991 1.6441 1.1337 0.26064 0.46999 0.30274 0.96691 0.12467 1.4921-0.12334 0.35942-0.34334 0.66308-0.64477 0.89801-0.30112 0.23493-0.65829 0.35994-1.0831 0.374-0.43861 0-0.98817-0.1118-1.6597-0.34673l-3.1674-1.0772zm-4.2908-3.4969-2.8651 6.1653c-0.6307 1.3409-1.2749 2.1426-1.933 2.4053-0.67149 0.26262-1.5216 0.16602-2.5498-0.33163-0.61677-0.27636-1.0693-0.63588-1.3709-1.0644-0.31535-0.42853-0.45264-0.91234-0.42478-1.4376 0.0398-0.51149 0.27456-1.2441 0.69934-2.1703l2.8787-6.1514-1.412-0.66357-2.8787 6.1652c-0.52127 1.1336-0.80876 2.0874-0.83662 2.8615-0.0398 0.78796 0.17807 1.4929 0.65755 2.1426 0.46557 0.63589 1.2064 1.1888 2.2072 1.6588 1.0418 0.46996 1.9603 0.66355 2.7828 0.56676 0.80877-0.0963 1.4943-0.4147 2.0289-0.92619 0.5342-0.51148 1.0556-1.3132 1.5627-2.3776l2.8651-6.1791zm-18.781 3.4835 5.3464-8.9023-3.3175-2.0044 0.71326-1.1888 8.0059 4.8106-0.7262 1.1888-3.3449-2.0044-5.3464 8.9022zm-7.4026-10.962 0.84956-1.175 3.5917 2.6126-0.84956 1.1888zm24.511 5.8611 1.4943 0.705 0.71327-1.5068-1.5079-0.70498zm-3.0296-1.3962 1.5079 0.705 0.71327-1.4929-1.5079-0.71885zm-37.246-11.003 7.7316-8.8885 1.2064 1.0506-1.3983 11.031 6.0592-6.9808 1.1378 0.98146-7.7316 8.8884-1.2064-1.0506 1.3983-11.031-6.0729 6.9808zm2.6459-14.294-11.694 4.7277 1.124 1.2175 3.4966-1.4921 3.3446 3.6076-1.6596 3.4284 1.2058 1.2993 5.3335-11.557zm-0.35647 1.4376c-0.34261 0.56677-0.75286 1.3274-1.2194 2.2674l-1.5369 3.1245-2.7271-2.9161 3.3992-1.4103c0.7266-0.30416 1.4267-0.66458 2.0843-1.0655zm-14.655-0.73168 8.184-6.4002-2.3853-3.055 1.0966-0.85708 5.7439 7.3541-1.083 0.85705-2.4127-3.0688-8.184 6.4002zm-5.4698-14.611c-0.65756 0.42854-1.1378 0.98145-1.4531 1.6726-0.31535 0.67741-0.41084 1.3962-0.28749 2.1841 0.10943 0.77411 0.45263 1.6035 1.0281 2.5159 0.4387 0.70498 0.9729 1.2717 1.5903 1.6726 0.61677 0.4147 1.2475 0.6083 1.9054 0.63589 0.67148 0.0141 1.2612-0.15218 1.7959-0.48381 0.53421-0.34537 0.9182-0.7741 1.1652-1.3132 0.23279-0.52535 0.30142-1.175 0.20593-1.9215-0.0696-0.51149-0.31536-1.3823-0.74013-2.6126-0.42478-1.2303-0.60285-2.032-0.5342-2.4329 0.0696-0.40085 0.28749-0.71884 0.64462-0.94003 0.41085-0.26262 0.87741-0.30394 1.3983-0.11044 0.52127 0.17976 1.042 0.67741 1.5354 1.4653 0.4795 0.77411 0.67149 1.4514 0.60285 2.0458-0.0696 0.59444-0.41085 1.1197-1.0008 1.5897l0.89133 1.2026c0.57598-0.38701 1.0007-0.88465 1.2611-1.4653 0.27456-0.59445 0.35614-1.2579 0.23278-1.9629-0.10943-0.71883-0.39792-1.4514-0.86348-2.1841-0.41085-0.6774-0.90426-1.2164-1.4806-1.6173-0.57598-0.41469-1.1652-0.62204-1.7821-0.63589-0.61677-0.0141-1.1789 0.13835-1.6724 0.45612-0.46656 0.27637-0.80877 0.66357-1.0281 1.1197-0.21886 0.46996-0.31535 1.0229-0.27456 1.645 0.0398 0.49766 0.23278 1.2718 0.58991 2.3223 0.35614 1.0644 0.56206 1.7556 0.6307 2.0874 0.0994 0.51149 0.0796 0.93992-0.0398 1.2717-0.10943 0.33153-0.32927 0.5806-0.64463 0.7741-0.31534 0.20735-0.65755 0.27636-1.0281 0.26262-0.38399-0.028-0.76798-0.1936-1.1652-0.4838-0.38399-0.29021-0.74013-0.69116-1.0556-1.2026-0.35613-0.55292-0.57599-1.1335-0.65756-1.7141-0.0796-0.58061-0.0398-1.0644 0.15121-1.4791 0.17806-0.41468 0.50734-0.81563 0.9729-1.1888zm-5.5108-1.7418 10.199-5.8888 0.78191 1.3547-10.199 5.8888zm-5.6617-10.575 4.0852 8.377 1.2475-0.60829-3.2901-6.7735 1.0556 0.29021 10.24 2.35 1.2475-0.59445-3.7013-7.5891-1.2475 0.6083 2.8788 5.9026c-0.52127-0.16603-1.1104-0.33165-1.7958-0.48382l-9.4179-2.115zm-1.5354-3.8291 10.761-4.7829 0.6307 1.41-10.761 4.7967zm1.3023-9.1649 1.1241 3.2761-2.07 0.705c-0.39792-0.20735-0.80877-0.58062-1.2612-1.1059-0.46655-0.52524-0.80876-1.1059-1.0145-1.7417-0.26063-0.73268-0.32927-1.4791-0.23278-2.2532 0.0994-0.76027 0.42478-1.4238 0.97291-2.0044 0.54813-0.56677 1.3297-1.0229 2.3168-1.3685 0.80877-0.27635 1.6039-0.387 2.3853-0.34537 0.45263 0.028 0.90427 0.13833 1.3435 0.33164 0.4387 0.17975 0.84955 0.4838 1.22 0.91233 0.37007 0.41469 0.67148 0.96762 0.90427 1.6312 0.192 0.56676 0.27456 1.1059 0.23278 1.6311-0.0298 0.53918-0.16513 0.98146-0.41185 1.3409-0.23278 0.35942-0.60284 0.71884-1.1103 1.0782l0.80876 1.2026c0.68541-0.44238 1.2063-0.93993 1.5354-1.4653 0.34319-0.52534 0.5342-1.175 0.56205-1.9076 0.0398-0.74643-0.0796-1.5206-0.35613-2.3223-0.38399-1.1059-0.94605-2.0044-1.6999-2.6956-0.74012-0.705-1.6724-1.1197-2.7691-1.2441-1.0829-0.12419-2.1797-0.0141-3.2627 0.37327-1.0967 0.37325-2.0014 0.94001-2.7279 1.7003-0.74012 0.76028-1.179 1.6726-1.3435 2.7232-0.15121 1.0506-0.0498 2.1288 0.32928 3.2347 0.27456 0.80181 0.69934 1.5482 1.2476 2.2118 0.56206 0.66356 1.2475 1.2717 2.0837 1.797l4.1263-1.4238-1.6314-4.7138zm2.2756-18.634-11.473 2.655 0.34284 1.5058 5.0997-1.1746 0.41102 1.7687c0.0875 0.387 0.12834 0.67734 0.1383 0.8571 0 0.24878-0.0524 0.49902-0.15193 0.76165-0.0966 0.26261-0.28881 0.5795-0.59024 0.93891-0.30162 0.37325-0.74053 0.87042-1.3304 1.4649l-2.0278 2.0746 0.43829 1.907 2.659-2.7096c0.52047-0.55294 0.93358-1.0777 1.235-1.6168 0.13728-0.24878 0.26068-0.60758 0.37011-1.0499 0.39751 1.0644 0.94533 1.7964 1.6168 2.1973 0.68542 0.40108 1.4253 0.51112 2.2479 0.31752 0.63081-0.15198 1.1661-0.442 1.6188-0.88437 0.45163-0.44234 0.71517-0.94074 0.79475-1.5214 0.0826-0.58061 0.013-1.3808-0.23374-2.4038zm-0.91554 1.8116 0.83567 3.6349c0.18805 0.84322 0.16128 1.5072-0.0993 1.9772-0.26033 0.48378-0.65764 0.77331-1.2058 0.91164-0.35654 0.0827-0.72664 0.0565-1.0967-0.0818-0.35713-0.12449-0.65744-0.35917-0.89022-0.73244-0.23278-0.34559-0.43902-0.87111-0.59023-1.5623l-0.75386-3.2764zm-11.463-4.1751 11.611-2.0459 0.26062 1.5344-11.598 2.0459zm10.309-11.86 0.192 1.5344-5.1133 0.6359c0.0796 0.70498 0.27456 1.175 0.58991 1.4376 0.30143 0.24877 1.0144 0.53908 2.1112 0.85706 0.80876 0.23493 1.3845 0.42854 1.7135 0.6082 0.34321 0.16601 0.64463 0.42853 0.9182 0.80179 0.26063 0.35943 0.42477 0.77411 0.46655 1.2303 0.0796 0.59445 0.12336 0.91234 0.10943 0.95377l-1.3435 0.16601c0-0.0552-0.01-0.16601-0.0298-0.31809-0.01-0.16602-0.0298-0.27635-0.0298-0.31778-0.0596-0.48381-0.23278-0.84322-0.49342-1.0506-0.27456-0.20735-0.82269-0.42853-1.6314-0.64973-1.0418-0.27635-1.7135-0.52532-2.0015-0.77411-0.28749-0.23493-0.53421-0.52533-0.7262-0.88464-0.12335 0.7741-0.7262 1.6035-1.8233 2.4882l-3.5917 2.8891-0.2467-1.9215 2.9336-2.35c0.80876-0.63589 1.3709-1.175 1.6451-1.5759 0.2875-0.40084 0.39792-0.88465 0.32927-1.4653l-5.4834 0.67741-0.17806-1.5482zm16.629 50.055 0.83662 1.4376 1.4394-0.82938-0.83662-1.4376z"/>
  </g>
  <path d="m86.289 149.04-0.54812-0.0963-0.5352-0.0964-0.50735-0.11043-0.46656-0.12459-0.45263-0.13834-0.39791-0.13833-0.38399-0.16601-0.32928-0.16602-0.30142-0.17976-0.24671-0.1936-0.19199-0.22119-0.16414-0.22118-0.10943-0.22119-0.0597-0.24878-0.01-0.26262v-0.0692l0.0398-0.20735 0.0796-0.20734 0.0696-0.12459 0.0696-0.13833 0.10943-0.15218c0.0398-0.0552 0.0796-0.11044 0.13729-0.16601l0.2875-0.33163 0.10942-0.11045 0.10943-0.0963 0.12335-0.11044 0.24671-0.19361 0.27456-0.1936 0.15121-0.0963 0.15121-0.0833 0.16413-0.0963 0.68542-0.34578 0.21885-0.0833 0.20593-0.0833 0.42477-0.16601 0.4387-0.15218 0.46657-0.15218c0.20592-0.0692 0.42477-0.13833 0.64462-0.19359 0.23278-0.0692 0.47949-0.13833 0.71326-0.20735 0.24671-0.0553 0.49342-0.12419 0.74013-0.16602 0.26063-0.0833 0.53519-0.13833 0.80877-0.20735 1.0007-0.22118 2.0014-0.41469 3.0158-0.63587 0.67148-0.13833 1.3435-0.27636 2.0152-0.42854 0.19199-0.028 0.37006-0.0833 0.56206-0.12418l1.0144 5.1146 0.2875 1.493c0.10943 0.56676 0.23278 1.1197 0.35613 1.6726l-1.4394 0.0141-1.1928 0.0141h-1.2337l-1.2612-0.028-0.64463-0.0141-0.61677-0.0411-0.6307-0.028-0.63069-0.0411-0.61678-0.0553-0.60285-0.0553-0.5899-0.0692zm-5.8536 9.4552-0.21985-0.0692-0.20592-0.0692-0.192-0.0553-0.16414-0.0692-0.17807-0.0692-0.30142-0.16602-0.13727-0.0692-0.24672-0.16602-0.0994-0.0692-0.0994-0.0833-0.16414-0.16601-0.0696-0.0833-0.0596-0.0973-0.0498-0.0833-0.0398-0.0964-0.0796-0.16602-0.0298-0.1936-0.0298-0.0833v-0.23493l0.0398-0.12419 0.0398-0.13832 0.0696-0.11045 0.19199-0.24878 0.12335-0.11043 0.13729-0.11045 0.16414-0.11045 0.15121-0.11043 0.19199-0.0963 0.17807-0.0962 0.192-0.0833 0.20592-0.0972 0.24671-0.0963c0.0994-0.0411 0.16414-0.0692 0.2467-0.0963l1.0281-0.35942 0.54814-0.16602 0.45262 3.7461 0.0994 0.85706-0.68541-0.11044-0.2875-0.0411-0.26063-0.0411-0.49341-0.11044zm4.1536-66.339c-0.10943 0.9953-0.21984 2.0044-0.31535 2.9997l-0.26063 3.1379-0.37006 5.6538-0.0796 1.3685-0.0994 1.9629-0.21885 5.0317-0.50734 13.229 0.01 0.95377 0.01 0.63587-0.01 1.2717-0.0298 0.95377-0.0796 1.8938-0.0398 0.63588-0.13729 1.8938-0.1512 1.88v0.028l-0.0298 0.62203-0.49342 7.4646-0.10943 1.5897c0.0796-0.11044 0.16415-0.22119 0.24672-0.33163l0.12335-0.13833 0.13728-0.12459 0.12336-0.12418 0.15121-0.12459 0.13727-0.1246 0.15121-0.12418 0.16415-0.11043 0.15121-0.11045 0.17806-0.0972 0.16414-0.11045 0.32927-0.16602c0.0498-0.028 0.12336-0.0692 0.17808-0.0833 0.13728-0.0833 0.28749-0.13834 0.43869-0.20735l0.56206-0.23503c0.75406-0.2902 1.5354-0.51149 2.3168-0.73259 0.23278-0.0553 0.45263-0.11043 0.68541-0.16601l0.79484-0.1936c0.30142-0.0692 0.60284-0.13833 0.90526-0.1936l3.5643-0.76027 1.3846-0.30395 0.95998-0.22119 0.97289-0.24878 1.0144-0.24876 0.50734-0.15218 0.52127-0.13833 0.52128-0.15218 0.53519-0.16601 0.54812-0.16602 0.53421-0.17976 0.54813-0.16601 0.56205-0.19361 0.54814-0.20734 1.179-0.42854 1.1515-0.44237 1.1653-0.45612 1.1515-0.47006 1.1516-0.48381 2.303-0.9953 1.1378-0.49764 1.1378-0.52534 1.1516-0.51149 2.5635-1.1888 2.4264-1.1197 4.1263-1.9214 1.1516-0.51149 1.1377-0.5115 1.1516-0.5115 1.1515-0.49763 2.303-0.96762 2.3305-0.91234 1.1652-0.44238 1.1789-0.42854 1.1653-0.41468 1.1927-0.38711 1.1789-0.387 1.0556-0.30396c-0.0398-0.15217-0.0696-0.30394-0.0995-0.44236-0.20591-1.0091-0.41085-2.0044-0.61676-2.9997l-0.86349-4.1746-0.60284-2.9306-0.61677-2.9582-0.54814-2.6541-0.43869-2.1703-0.52128-2.4606-0.45263-2.2394c-0.41085-1.9629-0.80876-3.912-1.2063-5.875l-0.21985-1.0091-0.83662-4.0641c-0.10943-0.55292-0.23278-1.1059-0.34321-1.6588-0.2467-1.1612-0.47948-2.3223-0.72619-3.4973-0.01-0.0833-0.0298-0.16602-0.0597-0.26261-0.17807-0.85707-0.35613-1.7141-0.5342-2.5711-0.15121-0.78796-0.31535-1.5621-0.47949-2.35-0.24671-1.2165-0.49342-2.4467-0.74012-3.677-0.17808-0.82938-0.34221-1.6588-0.52128-2.4882-0.3432-1.728-0.69934-3.442-1.0555-5.1562-0.5899-2.8061-1.1789-5.6123-1.7547-8.4184l-0.86347 0.48381-1.0693 0.58061-1.0692 0.56676-1.083 0.56677-1.0829 0.53917-1.083 0.55292-2.166 1.0782-2.1933 1.0506-2.1797 1.0368c-1.8507 0.85707-3.7013 1.7279-5.552 2.585-1.4394 0.6773-2.8787 1.3547-4.3045 2.032l-1.0966 0.52534-1.083 0.52533-1.0829 0.53908-1.083 0.55292-1.0693 0.53918-1.0829 0.56677-1.0693 0.56676-1.0556 0.56677-1.0692 0.59434-1.0556 0.59445c-0.52126 0.30395-1.0419 0.59445-1.5628 0.89849-0.32927 0.19361-0.65755 0.40086-0.98683 0.59446-0.23278 0.13833-0.47949 0.2902-0.71327 0.44237l-0.54812 0.35943-0.23278 0.17975-0.21986 0.16603-0.20592 0.17975-0.19199 0.16602-0.16415 0.16602-0.16413 0.17975-0.13729 0.16592-0.13727 0.19361-0.24672 0.3871-0.19199 0.44237-0.10943 0.23503-0.0994 0.26262-0.0796 0.27636-0.0796 0.29021-0.0796 0.31779-0.0994 0.33152-0.0796 0.37327c-0.17807 0.73268-0.3432 1.4653-0.49341 2.2118-0.01 0.0833-0.01 0.16601-0.0298 0.23503-0.01 0.2902-0.0398 0.55292-0.0796 0.82937-0.0398 0.46997-0.10943 0.92619-0.17807 1.3824l-0.56206 2.9029-0.0298 0.17976c-0.0796 0.64972-0.16414 1.3132-0.23278 1.9767m-1.7547 22.159 0.0596-1.7141 0.10943-2.35 0.13728-3.29 0.0696-1.4238 0.0398-0.63587 0.21984-3.7185 0.2875-3.8705 0.16414-1.9768 0.0796-0.85708 0.24672-2.3776 0.19199-1.6312 0.0298-0.12419-0.71326 0.17976-1.3435 0.37326-0.83662 0.29021-0.32927 0.12418-0.39792 0.15218-0.34221 0.15217-0.32928 0.15218-0.32927 0.16602-0.31535 0.17975-0.31535 0.19361-0.46656 0.29019-0.45263 0.31809-0.4387 0.30395-0.42477 0.33163-0.21986 0.16602-0.20592 0.15217-0.19199 0.16603-0.20593 0.16601-0.17806 0.16602-0.19199 0.166-0.17808 0.16602-0.16413 0.17977-0.31536 0.31779-0.15121 0.17976-0.13727 0.16601-0.13729 0.15217-0.12335 0.16603-0.10943 0.16601-0.10943 0.15217-0.0994 0.15217-0.0796 0.16602-0.0796 0.15218-0.10943 0.27635-0.0398 0.15218-0.0298 0.13833-0.0298 0.12459-0.01 0.15218v0.15216l-0.01 0.16603v0.5806l0.01 0.42853c0.01 0.15219 0.0298 0.30395 0.0398 0.44238l0.10943 1.4929c0.12336 1.2718 0.2875 2.5297 0.45263 3.8014l0.27357 2.35 0.13728 1.1059 0.12335 1.0921 0.10943 1.1197 0.10943 1.1059 0.10943 1.1197 0.0994 1.1335 0.10943 1.1197 0.0796 1.1473 0.16414 2.267 0.0796 1.1474 0.0796 1.1335 0.0596 1.1473 0.0696 1.1612 0.12337 2.2947 0.10942 2.2947 0.0994 2.2809 0.0696 2.2809 0.0796 2.267 0.0696 2.35 0.0597 2.3914 0.0994 4.617 0.0498 1.8523 0.17806 4.0226c0.0298 0.66357 0.0696 1.3271 0.10943 1.9906l0.0796 1.1473 0.0994 1.175c0.0298 0.34537 0.0498 0.6773 0.0796 1.0229l0.12336 1.1059 0.0994-0.12459 0.0796-0.0964 0.0995-0.0962 0.10943-0.0973 0.12335-0.0962 0.12335-0.0833 0.13728-0.0963 0.13728-0.0833 0.23279-0.12459 0.45262-0.20735 0.6307-0.26261c0.12336-0.0411 0.26064-0.0964 0.38399-0.13833l0.49342-0.16602 1.2201-0.35942c0.32928-0.0833 0.67149-0.16602 1.0144-0.23494l1.5765-0.29019c0.60284-0.11045 1.2063-0.20735 1.8095-0.29021l2.0974-0.30395 1.1652-0.16591 1.2201-0.20735 0.32829-0.0553 0.32928-0.0692 0.31534-0.0692 0.30143-0.0833 0.31534-0.0833 0.2875-0.0833 0.57598-0.19359 0.52128-0.19361 0.2467-0.12459 0.24671-0.11045 0.21985-0.13832 0.21985-0.1242 0.20592-0.13832 0.17807-0.15217 0.19199-0.15217 0.16414-0.16602 0.27456-0.35943 0.13729-0.19359 0.01-0.028-0.95997 0.0141-2.3168 0.0141h-0.61677l-1.2612-0.028-0.64462-0.028-0.6307-0.028-0.61678-0.0411-0.63069-0.0411-0.61677-0.0553-0.60284-0.0552-0.58992-0.0692-0.57598-0.0833-0.54813-0.0833-0.5342-0.11044-0.49342-0.11045-0.49341-0.12459-0.45264-0.12419-0.42477-0.15216-0.38399-0.17977-0.35614-0.17976-0.32927-0.20734-0.27358-0.22118-0.23277-0.23494-0.192-0.26262-0.13729-0.2902-0.0696-0.30394-0.01-0.3181c0.01-0.33163 0.0398-0.66357 0.0596-0.98144 0.19199-2.4744 0.39791-4.935 0.56205-7.4094l0.10942-1.797 0.01-0.37325v-0.16602l-0.0298-0.028 0.0398-0.34536c0.0696-0.87091 0.13729-1.7418 0.20592-2.6265 0.0696-0.88466 0.10943-1.7832 0.15121-2.6817l0.0398-1.3409 0.01-0.95378 0.01-0.94001c-0.01-0.35942-0.01-0.73268-0.01-1.092h-0.01c0.0596-1.4238 0.10943-2.82 0.16513-4.2438 0.0796-2.3914 0.17807-4.7691 0.27357-7.1605m-21.18 4.7829c0.20592 0.69116 0.38399 1.3685 0.57599 2.0459v0.0141l0.95997 4.1608c0.0696 0.31778 0.13729 0.62203 0.192 0.93992 0.17807 0.88466 0.3432 1.7832 0.49341 2.6679 0.0597 0.33164 0.10943 0.64973 0.16415 0.98146l0.28749 1.7971 0.12335 0.82938 0.23279 1.6588 0.21984 1.645 0.20593 1.5482 0.58991 4.9073 0.41085 3.4973 0.26063 2.0182c0.0994 0.71883 0.192 1.41 0.28749 2.1288l0.23279 1.645 0.10942 0.82937 0.12336 0.82939 0.13728 0.81564 0.13728 0.84322c0.0796 0.48381 0.17807 0.95376 0.26064 1.4238 0.0696 0.31778 0.12335 0.63587 0.192 0.95376 0.13727 0.66356 0.27356 1.3132 0.42477 1.9629 0.0994 0.44239 0.20592 0.8985 0.30142 1.3409 0.13728 0.52533 0.27456 1.0782 0.41184 1.6035 0.13728 0.5115 0.27357 1.0229 0.41085 1.5344 0.12336 0.44237 0.26064 0.88464 0.38399 1.327l0.49342 1.5897c0.19199-0.23491 0.39792-0.44236 0.58892-0.66345l0.80876-0.85708c0.17807-0.19359 0.37006-0.37326 0.54813-0.56676l0.9729-0.92618 0.27458-0.24877 0.45262-0.38701 0.38399-0.33163 0.38399-0.30395 0.79484-0.58061 0.39792-0.26261 0.38399-0.24878 0.95997-0.55291 0.38399-0.19361 0.79484-0.35942 0.39791-0.15217 0.41085-0.16602 0.41085-0.13833c0.15121-0.0553 0.30143-0.0962 0.45264-0.15218 0.19199-0.0692 0.38398-0.12418 0.57598-0.17975 0.23278-0.0692 0.46656-0.13833 0.71326-0.1936l0.26064-0.0692-0.28749-0.0411-0.27358-0.0553-0.49341-0.11045-0.24671-0.0692-0.21885-0.0553-0.41085-0.13833-0.17807-0.0833-0.192-0.0692-0.16513-0.0833-0.30142-0.16603-0.13728-0.0833-0.24671-0.19359-0.21985-0.19361-0.16414-0.19359-0.13729-0.2212-0.0596-0.11044-0.0796-0.2212-0.0596-0.22118-0.01-0.12459-0.01-0.11044-0.0398-0.27636-0.0398-0.3182-0.0398-0.33153-0.0796-0.73267-0.0796-0.80169-0.0796-0.87091-0.0696-1.1336c-0.0398-0.49766-0.0696-0.99531-0.0994-1.4929l-0.0696-1.2441-0.0597-1.0506-0.0696-1.645-0.0994-2.8062c-0.0298-0.94004-0.0596-1.88-0.0696-2.82l-0.12335-5.64-0.192-5.8058-0.0994-2.2809-0.10943-2.2947-0.12335-2.2947-0.20592-3.442-0.16513-2.267-0.0796-1.1474-0.0994-1.1197-0.0994-1.1336-0.0994-1.1197-0.21985-2.2394-0.10942-1.1059-0.12336-1.1059-0.12335-1.0782-0.13729-1.1612-0.12335-0.95376-0.37006 0.11044-1.0967 0.35942-0.5352 0.1936-0.52127 0.17976-1.5216 0.62204-0.49342 0.23492-0.47948 0.20735-0.95999 0.47006-0.93211 0.49765-0.46656 0.26261-0.45263 0.26263-0.90526 0.55292-0.90426 0.58061-0.43871 0.2902-0.45263 0.31808-0.4387 0.30396-0.45263 0.33153-0.43871 0.33163-0.45262 0.33153-0.43871 0.34579-0.45263 0.35941-0.45263 0.34577-0.45263 0.38701-0.82269 0.67731c0.32928 0.88464 0.65755 1.7832 0.98683 2.6817l0.58991 1.7694 0.15121 0.49765z" fill="#ec1d27"/>
  <path d="m213.73 148.9 0.54813-0.0964 0.5352-0.0973 0.49341-0.11045 0.4795-0.11044 0.45263-0.13832 0.39791-0.15217 0.38399-0.15218 0.32928-0.17976 0.28749-0.17976 0.26064-0.19361 0.20593-0.20734 0.1512-0.22119 0.10942-0.23493 0.0598-0.23493 0.01-0.26262v-0.0833l-0.0398-0.20734-0.0298-0.0692-0.0398-0.13832-0.0796-0.12419-0.0696-0.13834-0.10943-0.15217c-0.0398-0.0553-0.0994-0.11044-0.13728-0.16602l-0.0796-0.11044-0.0994-0.11044-0.21985-0.2212-0.10943-0.0963-0.12335-0.0973-0.12335-0.11045-0.13729-0.0963-0.12335-0.0962-0.13729-0.0973-0.15121-0.0833-0.15121-0.0963-0.16413-0.0833-0.16414-0.0964-0.15121-0.0833-0.17807-0.0833-0.20592-0.0833-0.20593-0.0973-0.19199-0.0833-0.4387-0.16601-0.43871-0.15218-0.45262-0.15217c-0.23279-0.0692-0.43871-0.12418-0.65856-0.19361-0.23278-0.0692-0.47948-0.13832-0.71326-0.1936-0.24671-0.0692-0.49342-0.12458-0.74013-0.17976-0.27456-0.0692-0.5342-0.12458-0.80876-0.1936-1.0007-0.22119-2.0014-0.42854-3.0158-0.63588-0.67149-0.13833-1.3435-0.29021-2.0152-0.42853-0.192-0.0411-0.37007-0.0833-0.56206-0.12459l-1.0007 5.1146-0.30142 1.493c-0.12336 0.55291-0.23278 1.1059-0.35614 1.6588l1.4394 0.028 1.1927 0.0141h0.61677l0.6307-0.0141 0.61677-0.0141 0.6307-0.0141 0.64462-0.0141 1.2612-0.0553 0.61677-0.0553 0.61678-0.0411 0.60283-0.0692zm5.8536 9.4552 0.21984-0.0692 0.20593-0.0553 0.192-0.0692 0.16413-0.0692 0.17807-0.0692 0.15121-0.0692 0.15121-0.0833 0.13728-0.0692 0.12335-0.0972 0.10943-0.0692 0.10943-0.0833 0.0994-0.0833 0.16513-0.16602 0.0696-0.0833 0.0498-0.0964 0.0596-0.0833 0.0796-0.16602 0.0498-0.1936 0.01-0.0833 0.01-0.0963 0.01-0.0833-0.0298-0.27636-0.0498-0.12459-0.0696-0.1246-0.0796-0.12418-0.10943-0.12459-0.12335-0.11044-0.13728-0.11044-0.15121-0.11045-0.17806-0.0962-0.16415-0.0973-0.38399-0.1936-0.20592-0.0833-0.26064-0.11043c-0.0696-0.028-0.15121-0.0692-0.23278-0.0974l-1.0281-0.34536-0.53421-0.16602-0.45263 3.7462-0.10943 0.84322 0.69934-0.0973 0.27357-0.0411 0.26063-0.0552 0.26064-0.0411 0.23278-0.0692zm-4.1536-66.325c0.10942 0.99529 0.21984 1.9906 0.31534 2.9996l0.26064 3.1241 0.37006 5.6538 0.0796 1.3824 0.0994 1.9491 0.21886 5.0455 0.50734 13.229-0.01 0.94002-0.01 0.64973 0.01 1.2579 0.0298 0.95376 0.0796 1.9076 0.0398 0.62204 0.13729 1.9076 0.16413 1.88-0.01 0.0141 0.0298 0.63588 0.0696 1.2441 0.41085 6.2067 0.12335 1.5897c-0.0796-0.11045-0.16413-0.20734-0.2467-0.31809l-0.12335-0.13833-0.26064-0.26262-0.15121-0.12418-0.13727-0.12459-0.15121-0.11045-0.16415-0.11044-0.15121-0.11044-0.17806-0.11044-0.17807-0.0963-0.31535-0.17975c-0.0596-0.028-0.10943-0.0553-0.17807-0.0833-0.13728-0.0692-0.27356-0.13834-0.42477-0.20734l-0.57599-0.22121c-0.75405-0.29018-1.5354-0.52522-2.3168-0.73267-0.21885-0.0553-0.45263-0.12418-0.68541-0.17975l-0.78191-0.19361c-0.31535-0.0552-0.61677-0.12419-0.91819-0.1936l-3.5642-0.76027-1.3846-0.2902-0.94603-0.23503-0.98684-0.23494-0.50735-0.12458-1.0145-0.27636-0.52128-0.15217-0.5352-0.15217-0.52126-0.15219-0.54814-0.16601-0.5352-0.17976-0.56206-0.17976-0.53518-0.1936-0.56206-0.19361-1.1652-0.42852-2.3305-0.91235-1.1515-0.46996-2.303-0.96761-1.1516-0.51149-1.1378-0.49765-1.1378-0.52534-1.1516-0.5115-2.5635-1.1888-2.4264-1.1197-4.1263-1.9076-1.1516-0.51149-1.1377-0.52534-3.4546-1.4929-2.303-0.94001-1.1789-0.45612-1.1652-0.44237-1.1653-0.4147-1.1789-0.41469-1.1789-0.40085-1.2064-0.37327-1.0418-0.30394c0.0298-0.15216 0.0696-0.30394 0.0995-0.45611 0.20592-0.9953 0.41085-2.0044 0.61677-2.9997l0.86348-4.1747 0.60284-2.9305 0.61677-2.9582 0.54813-2.6541 0.45263-2.1564 0.50734-2.4744 0.46557-2.2256c0.39791-1.9629 0.79484-3.9258 1.2064-5.8888l0.20593-1.0091 0.83662-4.0641c0.10941-0.53918 0.21884-1.0921 0.34319-1.645 0.24671-1.1611 0.47949-2.3361 0.72621-3.4973 0.01-0.0833 0.0298-0.17976 0.0596-0.26262 0.16414-0.85707 0.35613-1.7279 0.52127-2.585 0.17807-0.77411 0.32928-1.562 0.49342-2.3361 0.24671-1.2303 0.49341-2.4606 0.75405-3.6771 0.16415-0.84322 0.32928-1.6726 0.50734-2.502 0.35614-1.7141 0.69935-3.442 1.0556-5.1561 0.58892-2.8062 1.1789-5.6123 1.7547-8.4046l0.86348 0.46996 1.0693 0.58061 1.0829 0.56676 1.0693 0.56676 2.166 1.1059 1.083 0.53908 1.0829 0.52534 1.0967 0.52533 1.083 0.52534 2.1934 1.0367c1.8506 0.87091 3.7012 1.728 5.5519 2.5988 1.4394 0.66356 2.8788 1.3409 4.3046 2.032l1.0829 0.51149 1.0967 0.53908 1.083 0.52533 2.166 1.1059 1.0692 0.55292 1.0693 0.56676 1.0556 0.5806 1.0693 0.58062 1.0556 0.59444c0.52127 0.30396 1.0418 0.59445 1.5491 0.91234 0.34221 0.19361 0.67149 0.38711 1.0007 0.59445 0.24671 0.13834 0.47949 0.27637 0.71327 0.42853l0.27356 0.19361 0.26064 0.17976 0.24671 0.17977 0.21985 0.166 0.20593 0.16602 0.17806 0.16602 0.3432 0.34578 0.27357 0.35942 0.12336 0.1936 0.21885 0.41469 0.0994 0.22119 0.10942 0.23492 0.0796 0.26263 0.0994 0.27636 0.0994 0.29019 0.0696 0.3178 0.0994 0.34578 0.0796 0.35942c0.17807 0.73257 0.34321 1.4791 0.50734 2.2117 0 0.0833 0 0.16601 0.01 0.24877 0.01 0.27636 0.0398 0.55292 0.0696 0.82938 0.0498 0.45612 0.12336 0.91234 0.20593 1.3685l0.54812 2.9167 0.01 0.16602c0.0994 0.66346 0.17807 1.3132 0.24671 1.9906m1.7547 22.145-0.0696-1.7141-0.0994-2.35-0.15121-3.2899-0.0498-1.41-0.0398-0.64973-0.23278-3.7185-0.27357-3.8705-0.16414-1.9629-0.0796-0.87091-0.24671-2.3776-0.20593-1.6173-0.01-0.12458 0.7262 0.17976 1.316 0.37326 0.84955 0.27636 0.32928 0.12459 0.39791 0.15217 0.34221 0.15217 0.32928 0.15218 0.32927 0.16601 0.31535 0.19361 0.31535 0.17976 0.46656 0.30394 0.45263 0.30394 0.4387 0.30396 0.42477 0.33163 0.21886 0.16601 0.19199 0.16602 0.20593 0.16601 0.38399 0.33163 0.17806 0.16602 0.192 0.16602 0.32928 0.33164 0.30142 0.33163 0.27356 0.33153 0.12337 0.15218 0.21984 0.33163 0.0994 0.15216 0.16414 0.30394 0.0596 0.13835 0.0597 0.15216 0.0398 0.13834 0.0498 0.27636v0.13833l0.01 0.15217 0.01 0.17976v0.56677l-0.0298 0.44237c0 0.13834-0.01 0.2902-0.0298 0.44238l-0.12136 1.478c-0.10942 1.2718-0.27457 2.5297-0.42478 3.8152l-0.30142 2.35-0.12335 1.092-0.10943 1.1059-0.12335 1.1059-0.21886 2.2394-0.0994 1.1197-0.192 2.267-0.0796 1.1336-0.16415 2.2947-0.0696 1.1335-0.13728 2.2946-0.12336 2.2947-0.10942 2.2947-0.0994 2.2947-0.0796 2.267-0.0696 2.2671-0.0498 2.35-0.0597 2.4053-0.10943 4.617-0.0596 1.8385-0.16415 4.0226c-0.0398 0.66356-0.0796 1.327-0.12335 1.9906l-0.16414 2.3223c-0.0298 0.34578-0.0696 0.69116-0.10942 1.0368l-0.12336 1.0921-0.16414-0.22119-0.0995-0.0973-0.10942-0.0963-0.12337-0.0962-0.2467-0.16603-0.15121-0.0963-0.23278-0.12458-0.45263-0.20735-0.63069-0.24878c-0.12337-0.0553-0.26064-0.0962-0.39793-0.15217l-0.47949-0.15218-1.2201-0.35941c-0.3432-0.0833-0.67148-0.16601-1.0007-0.23494l-1.5902-0.30394c-0.60284-0.11045-1.2064-0.19361-1.8232-0.2902l-2.0838-0.29021-1.1652-0.16601-1.2208-0.20745-0.32927-0.0692-0.31536-0.0692-0.32927-0.0692-0.31534-0.0833-0.30143-0.0692-0.28749-0.0833-0.2875-0.0964-0.54813-0.19359-0.26064-0.11045-0.2467-0.11045-0.46656-0.24877-0.21985-0.13834-0.20592-0.13832-0.19199-0.15217-0.16415-0.15218-0.16413-0.16601-0.15121-0.16603-0.13729-0.17975-0.13728-0.19361-0.01-0.0411 0.97291 0.0141 2.303 0.0141h0.61677l0.63069-0.0141 0.64463-0.0141 1.8918-0.0833 0.61677-0.0411 0.61677-0.0553 0.60285-0.0553 0.57598-0.0692 0.58892-0.0833 0.54813-0.0963 0.52127-0.0973 0.52128-0.11045 0.47948-0.12418 0.45263-0.13832 0.42478-0.15218 0.39792-0.16601 0.35613-0.19361 0.31535-0.20734 0.27456-0.20735 0.23279-0.24878 0.19199-0.26261 0.13728-0.2902 0.0696-0.30395 0.01-0.31809c-0.01-0.31779-0.0398-0.64972-0.0596-0.96762-0.17807-2.4744-0.38399-4.9487-0.56206-7.4231l-0.10943-1.7832-0.01-0.38701v-0.15217l0.0298-0.0411-0.0298-0.34579c-0.0796-0.87091-0.15121-1.7417-0.21985-2.6126-0.0596-0.8985-0.10943-1.7832-0.15121-2.6817l-0.0498-1.3409-0.01-0.95376v-0.93994c0-0.37326 0.01-0.73257 0.01-1.1059h0.01c-0.0596-1.41-0.10942-2.82-0.16413-4.23-0.0994-2.3914-0.17807-4.7829-0.27457-7.1743m21.166 4.7967c-0.192 0.67741-0.38399 1.3547-0.56205 2.0458l-0.95999 4.1747c-0.0696 0.30395-0.12335 0.62203-0.19199 0.92618-0.17806 0.89849-0.3432 1.7832-0.49342 2.6679-0.0498 0.33163-0.10942 0.66356-0.16414 0.98146l-0.28749 1.797-0.12336 0.82939-0.23278 1.6588-0.21885 1.6588-0.192 1.5482-0.60284 4.9073-0.42477 3.4973-0.26064 2.0044c-0.0796 0.71885-0.17807 1.4238-0.27456 2.1288l-0.23278 1.645-0.10943 0.82938-0.12335 0.82939-0.13729 0.81563-0.13727 0.85707c-0.0994 0.46997-0.16415 0.93993-0.26064 1.4238-0.0596 0.30394-0.12336 0.63587-0.192 0.95377-0.13728 0.64972-0.27456 1.2994-0.42478 1.9629-0.0994 0.44238-0.20592 0.88465-0.31535 1.327-0.12335 0.53908-0.26063 1.0782-0.39791 1.6173-0.13728 0.5115-0.27456 1.0229-0.41085 1.5206-0.12335 0.45612-0.26064 0.88466-0.38399 1.327l-0.49342 1.5897c-0.19199-0.22119-0.38398-0.44238-0.60284-0.66357l-0.79484-0.85706c-0.17807-0.19362-0.35613-0.37327-0.54812-0.55293l-0.97291-0.92618-0.2875-0.26261-0.4387-0.38701-0.38399-0.31809-0.38399-0.30395-0.79484-0.5806-0.38399-0.27636-0.39792-0.24877-0.57598-0.33165-0.38399-0.20733-0.38399-0.1936-0.79484-0.35943-0.39792-0.16601-0.41085-0.15219-0.39791-0.15216c-0.16415-0.0412-0.31536-0.0963-0.46656-0.15218-0.192-0.0553-0.37006-0.11043-0.56206-0.16601-0.24671-0.0833-0.47949-0.13833-0.72619-0.20735l-0.26064-0.0692 0.28749-0.0411 0.27457-0.0553 0.2467-0.0553 0.26064-0.0553 0.21984-0.0553 0.23279-0.0692 0.41085-0.13832 0.17806-0.0692 0.192-0.0833 0.16415-0.0833 0.15121-0.0692 0.1512-0.0963 0.13728-0.0833 0.12335-0.0833 0.12335-0.0963 0.10943-0.0973 0.192-0.1936 0.0796-0.11045 0.13729-0.22118 0.0596-0.11044 0.0398-0.0974 0.0398-0.12418 0.0398-0.11044 0.01-0.11045 0.01-0.12459 0.01-0.0963 0.0398-0.27636 0.0398-0.3178 0.0398-0.34578 0.0994-0.73267 0.0696-0.80169 0.0696-0.85708 0.0796-1.1335c0.0398-0.51149 0.0696-1.0091 0.0994-1.5067l0.0696-1.2303 0.0696-1.0644 0.0696-1.645 0.0796-2.7924c0.0298-0.93992 0.0498-1.8938 0.0696-2.8338l0.13727-5.6399 0.192-5.792 0.0796-2.2947 0.10943-2.2947 0.12335-2.2809 0.0696-1.1612 0.0696-1.1335 0.0696-1.1474 0.0796-1.1474 0.0696-1.1335 0.19199-2.267 0.0796-1.1335 0.10943-1.1197 0.0994-1.1197 0.12335-1.1059 0.10943-1.1197 0.2467-2.1841 0.13729-1.1612 0.13727-0.95377 0.35614 0.11045 1.0967 0.35942 0.52127 0.1936 0.5342 0.1936 1.5216 0.62204 0.98683 0.44237 0.46656 0.23504 0.47948 0.23492 0.47949 0.24878 0.45263 0.23494 0.46656 0.2626 0.45263 0.26263 0.46656 0.27636 0.45263 0.2902 0.4387 0.27637 0.43871 0.29019 0.90425 0.6082 0.43871 0.31809 0.45263 0.31778 0.45264 0.33163 0.42477 0.33153 0.45263 0.34578 0.90427 0.71885 0.45262 0.37325 0.8227 0.67742c-0.34321 0.88465-0.67149 1.7832-0.98684 2.6817l-0.5899 1.7694-0.15121 0.49765z" fill="#ec1d27"/>
  <path d="m174.97 57.146-22.852 112.05c-0.49342 2.4191-1.3024 3.3729-2.1112 3.3591-1.0418 0-1.6039-0.96761-2.0974-3.3729l-22.852-112.04c-0.50734-2.5158 2.8514-3.3176 3.3724-0.76026l16.176 79.291c0.69934-2.6403 3.1667-4.382 5.1681-4.3682 2.2209 0.0141 4.7158 1.8109 5.4835 5.17l16.341-80.093c0.52126-2.5435 3.8932-1.7556 3.3723 0.76026" fill="#2e3490"/>
  <path d="m150 228.06-18.904-18.827 18.904-19.007 18.918 19.007z" fill="#fff"/>
  <path d="m139.8 205.48v8.0314h-2.2208v-5.2667c-0.35613 0.27635-0.69933 0.49764-1.0418 0.66356-0.32928 0.16602-0.75405 0.33153-1.2612 0.4838v-1.797c0.75405-0.24877 1.3297-0.53918 1.741-0.87091 0.41085-0.33163 0.74013-0.76026 0.97291-1.2441zm2.495 6.262 2.1796-0.27636c0.0696 0.30395 0.15121 0.52533 0.2875 0.64973 0.13728 0.12459 0.31535 0.17976 0.50734 0.17976 0.34321 0 0.63071-0.16603 0.8227-0.52524 0.13728-0.26262 0.26063-0.81564 0.32927-1.6726-0.26064 0.27635-0.5352 0.46996-0.80876 0.59444-0.27357 0.12419-0.60285 0.17976-0.95998 0.17976-0.71327 0-1.3023-0.23493-1.7958-0.74642-0.49342-0.49766-0.72621-1.1335-0.72621-1.9076 0-0.52534 0.12336-1.0091 0.37007-1.4376 0.24671-0.42855 0.58892-0.76028 1.0281-0.96762 0.42478-0.23492 0.97291-0.33153 1.6314-0.33153 0.79484 0 1.4256 0.12458 1.9054 0.40085 0.47949 0.26261 0.86348 0.70499 1.1516 1.2994 0.28749 0.58062 0.42478 1.3685 0.42478 2.3362 0 1.4238-0.30142 2.4744-0.90427 3.1379-0.60284 0.66356-1.4257 0.99529-2.4949 0.99529-0.63069 0-1.1241-0.0692-1.4806-0.22119-0.37006-0.15218-0.67148-0.35943-0.91819-0.63588-0.23278-0.27636-0.42477-0.63587-0.54813-1.0506m4.044-3.5388c0-0.41468-0.10943-0.76026-0.32928-0.99529-0.21984-0.24877-0.46656-0.35942-0.7819-0.35942-0.30142 0-0.5342 0.11045-0.7262 0.3178-0.19199 0.23492-0.2875 0.55291-0.2875 0.99528 0 0.44239 0.0994 0.77412 0.30143 1.0091 0.19199 0.23493 0.43869 0.34577 0.75405 0.34577 0.30142 0 0.56205-0.11044 0.76798-0.33163 0.19199-0.23493 0.30142-0.55291 0.30142-0.98146m3.3174 3.5388 2.1797-0.27636c0.0696 0.30394 0.16414 0.52533 0.30142 0.64972 0.13729 0.12458 0.30142 0.17975 0.50734 0.17975 0.3432 0 0.61678-0.16601 0.80877-0.52523 0.15121-0.26262 0.26063-0.81554 0.32927-1.6726-0.26063 0.27636-0.5342 0.46997-0.80876 0.59446-0.27356 0.12419-0.60284 0.17976-0.95997 0.17976-0.71327 0-1.3024-0.23504-1.7958-0.74653-0.47949-0.49765-0.7262-1.1335-0.7262-1.9076 0-0.52535 0.12336-1.0091 0.37006-1.4376 0.24671-0.42854 0.58892-0.76027 1.0281-0.96762 0.43871-0.23492 0.97291-0.33163 1.6314-0.33163 0.79484 0 1.4394 0.12459 1.9054 0.40086 0.49342 0.2626 0.86348 0.70499 1.1516 1.2994 0.2875 0.5806 0.42478 1.3685 0.42478 2.3362 0 1.4238-0.28749 2.4744-0.89134 3.1379-0.60284 0.66357-1.4394 0.9953-2.4949 0.9953-0.64463 0-1.1378-0.0692-1.4942-0.22119-0.37006-0.15217-0.67148-0.35942-0.90526-0.63587-0.24671-0.27636-0.42477-0.63589-0.56206-1.0506m4.0441-3.5388c0-0.41469-0.10943-0.76026-0.31535-0.99528-0.21985-0.24877-0.47949-0.35943-0.79484-0.35943-0.2875 0-0.5342 0.11045-0.72619 0.3178-0.192 0.23502-0.2875 0.55291-0.2875 0.99529s0.10943 0.77411 0.30142 1.0091c0.20593 0.23494 0.45263 0.34578 0.75405 0.34578 0.30143 0 0.56206-0.11044 0.76798-0.33163 0.20592-0.23494 0.30143-0.55293 0.30143-0.98146m4.1263-2.5988h5.2092v1.7556h-3.5368l-0.17806 1.1888c0.23278-0.11044 0.47949-0.20734 0.71326-0.26261 0.24672-0.0553 0.4795-0.0833 0.71327-0.0833 0.79484 0 1.4257 0.23504 1.9329 0.71884 0.49341 0.46997 0.72619 1.0782 0.72619 1.797 0 0.52534-0.12335 1.0091-0.38399 1.4791-0.23278 0.46996-0.60284 0.82937-1.0693 1.0782-0.46655 0.24878-1.0556 0.37326-1.7822 0.37326-0.52128 0-0.97291-0.0553-1.3435-0.13833-0.37007-0.11045-0.68542-0.24877-0.94605-0.45612-0.26064-0.19361-0.4795-0.41469-0.63071-0.66356-0.16413-0.24878-0.30142-0.55293-0.42477-0.92618l2.2345-0.23494c0.0596 0.34578 0.17806 0.62204 0.38398 0.80171 0.192 0.17975 0.42478 0.27635 0.69934 0.27635 0.30142 0 0.54814-0.11044 0.76798-0.34578 0.19199-0.23494 0.2875-0.58061 0.2875-1.0368 0-0.46997-0.0995-0.81555-0.30143-1.0367-0.20591-0.2212-0.47949-0.33153-0.79483-0.33153-0.21986 0-0.42478 0.0553-0.63071 0.16602-0.13727 0.0692-0.30142 0.20733-0.47948 0.40084l-1.8781-0.26261z" fill="#2e3490"/>
  <path d="m206.78 110.2-3.578-3.3038 4.2086 0.27637 1.0281-4.4096 1.7958 4.7967 4.1948 0.82938-3.0295 2.4329 1.6587 4.7829-3.7699-3.1379-3.1942 2.1979zm-5.3052 2.3223c-2.2482 1.0091-4.7433 1.0229-7.2793-0.16602-5.0585-2.3776-8.4171-8.7364-7.4575-14.141 0.94605-5.4049 5.8536-7.8655 10.912-5.4879 2.8514 1.327 5.1544 3.9259 6.5665 6.8564-1.2064-4.8105-4.5514-9.2064-8.8832-11.238-6.4568-3.0412-12.722 0.24877-13.969 7.2988-1.2337 7.0499 3.0023 15.275 9.4727 18.302 4.2222 1.9906 8.376 1.2579 10.638-1.4238" fill="#fff"/>
  <path d="m108.58 90.529c0.94605-1.8523 1.1378-2.7509 1.1652-3.4559 0.01-0.60819-0.26064-1.2579-0.4795-1.7141 0.71327 0.40085 1.2887 0.93993 1.412 1.8938 0.0796 0.71884-0.0994 1.8661-0.35613 2.9582 1.2064-1.7141 1.5216-2.5988 1.645-3.3038 0.12336-0.62204-0.0398-1.2994-0.20591-1.8385 0.64462 0.53907 1.1104 1.2026 1.083 2.1703-0.01 0.74651-0.37005 1.88-0.7819 2.9444 1.412-1.5482 1.8506-2.3776 2.0837-3.0826 0.20592-0.60828 0.15121-1.3409 0.0696-1.88 0.54814 0.64973 0.89134 1.3823 0.71327 2.3638-0.12335 0.76026-0.64462 1.8385-1.1926 2.8476 1.5902-1.327 2.1385-2.1012 2.4675-2.7785 0.2875-0.58061 0.35614-1.327 0.37007-1.8938 0.42477 0.74652 0.6307 1.5482 0.31534 2.502-0.2467 0.76027-0.89133 1.7832-1.5902 2.7094 1.741-1.0782 2.3853-1.7832 2.8102-2.4191 0.35614-0.52524 0.54813-1.2717 0.64462-1.8523 0.2875 0.81553 0.37007 1.6726-0.0796 2.5988-0.35613 0.70499-1.1242 1.6312-1.9604 2.4605 1.8507-0.81553 2.5909-1.41 3.0844-1.9629 0.42477-0.51149 0.71326-1.2303 0.90526-1.7832 0.1512 0.88466 0.10942 1.7556-0.47949 2.6126-0.45263 0.6773-1.3435 1.4653-2.2481 2.1841 1.8917-0.53917 2.7006-1.0091 3.2626-1.5068 0.49342-0.41469 0.86348-1.1197 1.1378-1.6588 0.01 0.92619-0.16414 1.797-0.84955 2.5711-0.5352 0.59445-1.508 1.2717-2.5088 1.8524 1.9055-0.2212 2.7555-0.58061 3.3724-0.9953 0.5342-0.34578 1.0008-0.98145 1.3435-1.4791-0.10942 0.92618-0.42477 1.797-1.2064 2.4606-0.61677 0.52534-1.6587 1.0368-2.6868 1.4515 1.8643 0.0962 2.728-0.13835 3.386-0.44239 0.57599-0.26261 1.1241-0.82938 1.5217-1.2856-0.26064 0.91234-0.68541 1.7279-1.5491 2.3085-0.67148 0.41469-1.741 0.76028-2.8103 1.0229 1.7821 0.3871 2.6595 0.30394 3.3449 0.0972 0.58991-0.16603 1.2064-0.64972 1.6587-1.0368-0.38398 0.88476-0.91819 1.645-1.8369 2.0735-0.71326 0.31809-1.8095 0.48381-2.8651 0.58061 1.6587 0.67731 2.5087 0.74642 3.1941 0.64972 0.60284-0.0833 1.2612-0.46996 1.7684-0.78796-0.52126 0.82939-1.1516 1.5206-2.0974 1.7832-0.72619 0.22118-1.8095 0.20735-2.8377 0.12459 1.4806 0.98145 2.303 1.175 2.9747 1.2026 0.58991 0.0141 1.275-0.27635 1.8096-0.51149-0.61677 0.76027-1.3435 1.3547-2.2757 1.4515-0.75405 0.11044-1.7821-0.0833-2.7691-0.33153 1.2886 1.2302 2.0426 1.562 2.6868 1.6864 0.56206 0.11045 1.2749-0.0553 1.8234-0.22118-0.71326 0.6773-1.4943 1.1611-2.4265 1.1197-0.7262-0.0141-1.6862-0.35941-2.5909-0.80169 1.0282 1.4515 1.7136 1.9076 2.3168 2.1703 0.52127 0.20734 1.2338 0.13833 1.7958 0.0553-0.79484 0.5806-1.6175 0.93993-2.5087 0.74642-0.68541-0.13833-1.5764-0.64972-2.3853-1.2441 0.78191 1.645 1.3572 2.2256 1.9055 2.5712 0.47949 0.29021 1.1652 0.34538 1.7136 0.35941-0.84954 0.45613-1.6862 0.67732-2.5361 0.34539-0.64462-0.26263-1.3983-0.92608-2.0837-1.645 0.50735 1.797 0.9729 2.4744 1.4394 2.9029 0.42478 0.38711 1.0693 0.56676 1.6039 0.64972-0.90426 0.3178-1.741 0.40085-2.4812-0.0692-0.60283-0.35943-1.2201-1.1612-1.7822-2.0044 0.20592 1.8938 0.56205 2.6679 0.93212 3.1794 0.3432 0.45611 0.94605 0.73268 1.4256 0.92618-0.87741 0.17976-1.7135 0.11044-2.3579-0.47007-0.52127-0.46996-1.0144-1.3962-1.3983-2.35-0.0796 1.9767 0.12335 2.7923 0.42477 3.3867 0.24672 0.51149 0.79484 0.91235 1.2201 1.175-0.87741 0.028-1.6724-0.15216-2.2072-0.87091-0.41085-0.55291-0.74012-1.562-0.9729-2.5988-0.39792 1.9906-0.31535 2.8615-0.12336 3.5112 0.16415 0.55291 0.64463 1.0368 1.0144 1.3824-0.8774-0.12459-1.6039-0.44237-2.0152-1.2441-0.30142-0.64972-0.46655-1.7141-0.54812-2.7923-0.65757 1.9215-0.71327 2.82-0.63071 3.5112 0.0696 0.59443 0.45264 1.1611 0.75406 1.5758-0.80877-0.26261-1.4806-0.70499-1.7273-1.5897-0.20592-0.70499-0.20592-1.8109-0.12336-2.9029-0.93211 1.8385-1.1241 2.737-1.1378 3.4558-0.0298 0.60819 0.24671 1.2441 0.49342 1.7003-0.75405-0.40086-1.316-0.93993-1.4256-1.88-0.10942-0.74653 0.0696-1.88 0.34321-2.9858-1.1926 1.7279-1.5079 2.5988-1.6313 3.3176-0.10943 0.62204 0.0596 1.3132 0.20592 1.8247-0.64463-0.53918-1.1104-1.1888-1.0692-2.1703 0.0298-0.74652 0.35615-1.8662 0.78092-2.9306-1.4119 1.5344-1.8506 2.3777-2.0837 3.0826-0.21986 0.60829-0.15121 1.327-0.0796 1.8662-0.54812-0.63589-0.89133-1.3685-0.69933-2.3638 0.13727-0.74653 0.63069-1.8247 1.1926-2.8476-1.5902 1.3409-2.1522 2.115-2.4812 2.7785-0.2875 0.59445-0.3432 1.3271-0.35613 1.8938-0.42478-0.73268-0.65756-1.5482-0.32828-2.502 0.26063-0.76029 0.90426-1.7556 1.6039-2.6956-1.7411 1.0921-2.3853 1.7832-2.824 2.4191-0.35614 0.53908-0.52127 1.2717-0.6307 1.8385-0.28749-0.81554-0.38399-1.6726 0.0796-2.585 0.35614-0.71884 1.1378-1.6312 1.933-2.4744-1.8233 0.81565-2.5636 1.41-3.0707 1.9906-0.4387 0.48381-0.71326 1.2026-0.89133 1.7556-0.16414-0.85707-0.10943-1.7418 0.46556-2.5988 0.45263-0.66356 1.3435-1.4653 2.2619-2.1703-1.9054 0.5115-2.7006 0.99529-3.2762 1.4929-0.49342 0.42855-0.86348 1.1059-1.1242 1.645-0.0298-0.91235 0.15121-1.797 0.83662-2.5712 0.54813-0.59444 1.5354-1.2579 2.5088-1.8385-1.9055 0.22119-2.7555 0.59446-3.3586 0.9953-0.54813 0.33153-1.0145 0.98146-1.3572 1.4791 0.12336-0.93993 0.4387-1.7832 1.22-2.4744 0.60284-0.51149 1.6451-1.0367 2.6869-1.4514-1.8643-0.0692-2.7417 0.13833-3.3997 0.45613-0.57599 0.27635-1.1241 0.82937-1.5216 1.2856 0.26064-0.92619 0.69935-1.7556 1.549-2.2947 0.67148-0.44238 1.7411-0.78796 2.8103-1.0506-1.7821-0.38701-2.6458-0.30396-3.3312-0.0964-0.61677 0.17976-1.2201 0.66356-1.6587 1.0644 0.37005-0.8985 0.90427-1.6726 1.8369-2.0735 0.69934-0.33153 1.7958-0.51149 2.8515-0.59444-1.6588-0.69117-2.5088-0.74644-3.1942-0.64973-0.60284 0.0833-1.2475 0.45622-1.7547 0.78795 0.52128-0.84322 1.1516-1.5206 2.0838-1.7971 0.74013-0.20734 1.8094-0.20734 2.8376-0.12418-1.4806-0.96762-2.2893-1.1612-2.9611-1.1888-0.5899 0-1.2885 0.27636-1.8095 0.52534 0.60285-0.76027 1.316-1.3547 2.2757-1.4791 0.74012-0.11044 1.7683 0.0833 2.7554 0.33153-1.2749-1.2303-2.0289-1.5482-2.6868-1.6726-0.56205-0.12418-1.2749 0.0411-1.8096 0.20735 0.69934-0.66356 1.4806-1.1473 2.4265-1.1197 0.71326 0.0141 1.6862 0.3871 2.5909 0.80178-1.0556-1.4653-1.7136-1.9076-2.3168-2.1426-0.5342-0.20734-1.2475-0.16602-1.8095-0.0833 0.79484-0.56677 1.6313-0.91235 2.5224-0.74653 0.69933 0.13833 1.5627 0.67741 2.3716 1.2441-0.78092-1.645-1.3572-2.2256-1.9055-2.5573-0.47949-0.30395-1.1652-0.35942-1.6999-0.37327 0.83662-0.44237 1.6724-0.66356 2.5087-0.34577 0.65755 0.26262 1.412 0.92618 2.1112 1.6588-0.50735-1.8109-0.95998-2.4744-1.4394-2.9167-0.41085-0.37327-1.083-0.53908-1.5902-0.64973 0.8774-0.31809 1.7272-0.40084 2.4675 0.0692 0.57598 0.35942 1.2201 1.1612 1.7684 2.0044-0.20592-1.8938-0.54813-2.6541-0.94605-3.1794-0.32927-0.44238-0.93212-0.73259-1.4256-0.91235 0.90426-0.16601 1.7273-0.12458 2.3716 0.46997 0.50734 0.46996 1.0008 1.3823 1.412 2.3361 0.0796-1.9629-0.13727-2.7923-0.42477-3.3867-0.26064-0.51149-0.80876-0.89849-1.2337-1.1612 0.89133-0.028 1.6724 0.16602 2.2208 0.85708 0.41085 0.56676 0.7262 1.5759 0.97291 2.5988 0.38399-1.963 0.30142-2.8338 0.10943-3.4835-0.16415-0.56677-0.6307-1.0506-1.0008-1.3962 0.86348 0.13833 1.5902 0.44237 1.9877 1.2579 0.32927 0.62202 0.49342 1.7141 0.54813 2.7785 0.67149-1.9353 0.74012-2.8338 0.64463-3.5112-0.0796-0.59445-0.43871-1.1612-0.76798-1.5759 0.80876 0.26262 1.4668 0.705 1.7274 1.6035 0.20592 0.67741 0.20592 1.7971 0.10943 2.9029" fill="#f5f012"/>
  <path d="m110.75 92.222c-0.62931 0.0035-1.2758 0.07316-1.9356 0.21484-5.2642 1.1197-9.3778 6.4277-9.1172 11.777 0.24682 5.3635 4.7848 8.8327 10.049 7.6992 5.2641-1.1335 9.3756-6.455 9.1289-11.805-0.22798-4.6809-3.7199-7.9115-8.125-7.8867zm-0.0625 0.31836c1.9756-0.01037 3.7514 0.68235 5.0879 1.8887-2.3008 0.40656-4.55 1.3076-6.625 2.5898-2.0109-0.32166-4.1995-0.26045-6.4922 0.22852-0.47206 0.10732-0.39011 0.09072-0.37891 0.08789 1.5488-2.2769 3.911-4.0209 6.6035-4.5957 0.61518-0.13132 1.2181-0.19614 1.8047-0.19922zm5.6094 2.4082c0.0877 0.09726 0.17122 0.19844 0.25391 0.30078-0.2727 0.04917-0.55257 0.10532-0.85547 0.17188-1.7449 0.37468-3.4038 1.0464-4.9316 1.9473-4.8e-4 2.84e-4 -1e-3 -2.85e-4 -2e-3 0-0.19021-0.05267-0.38407-0.10319-0.57812-0.14844 1.9233-1.1403 3.9987-1.9282 6.1133-2.2715zm0.56641 0.71484c0.0829 0.11896 0.16197 0.24059 0.23828 0.36523-1.8096 0.16813-3.5532 0.78584-5.1406 1.7324-0.17513-0.06597-0.35226-0.12827-0.53125-0.1875 1.3355-0.77001 2.7782-1.3455 4.293-1.668 0.40495-0.07719 0.78425-0.16144 1.1406-0.24219zm0.44726 0.73242c0.54629 1.0174 0.88484 2.2 0.94922 3.5059 0.0401 0.85809-0.0437 1.7135-0.22851 2.5488-1.3981-1.9947-3.2835-3.5127-5.5137-4.4668 1.1045-0.63046 2.2973-1.1042 3.5488-1.373 0.45467-0.09807 0.86805-0.15832 1.2441-0.21484zm-11.553 1.0957c0.82523-0.01097 1.6305 0.04767 2.4121 0.16992-0.21615 0.15017-0.43106 0.30456-0.64258 0.46289-1.636-0.26587-3.3875-0.22863-5.1973 0.16016l-0.63671 0.13672-6e-3 -0.12109c0.0457-0.08382 0.0928-0.16729 0.14062-0.25 0.32201-0.05399-0.0236-0.0049 0.85742-0.20898 1.0453-0.22247 2.0726-0.33632 3.0723-0.34961zm3.4219 0.36719c0.19481 0.04563 0.38894 0.09267 0.58008 0.14648-0.22465 0.15347-0.44633 0.31305-0.66406 0.47656-0.19086-0.05669-0.38323-0.11038-0.57813-0.1582 0.21743-0.1598 0.43956-0.31439 0.66211-0.46484zm1.2344 0.35156c0.18645 0.06304 0.37036 0.13223 0.55273 0.20312-0.22409 0.15979-0.44403 0.32545-0.66015 0.49805-0.18626-0.07738-0.37538-0.15034-0.56641-0.21875 0.22049-0.16709 0.44547-0.32688 0.67383-0.48242zm-5.0117 0.26953c0.50955 0.01181 1.0092 0.05866 1.498 0.13281-0.18347 0.14762-0.36557 0.29755-0.54492 0.45117-1.3547-0.21605-2.8037-0.18634-4.3008 0.13281-0.31815 0.07205-0.60885 0.13642-0.89257 0.20508 0.0408-0.09893 0.0833-0.19711 0.12695-0.29492l1.0684-0.32617c1.041-0.22679 2.0598-0.32361 3.0449-0.30078zm6.0918 0.15039c2.5435 1.1191 4.6412 3.0172 6.0195 5.4883-0.19363 0.4818-0.42029 0.95186-0.67969 1.4043l-0.2207-0.45117c-1.2008-2.6753-3.2478-4.7368-5.8008-5.9375 0.22142-0.17546 0.45016-0.34252 0.68164-0.50391zm-3.6094 0.17774c0.19907 0.04846 0.39544 0.10137 0.58985 0.16016-0.18597 0.15251-0.36878 0.30908-0.54883 0.46875-0.19577-0.06298-0.39271-0.12212-0.59375-0.17383 0.18224-0.15539 0.36593-0.30646 0.55273-0.45508zm1.2344 0.37695c0.19656 0.07296 0.39121 0.15075 0.58203 0.23438-0.18451 0.16327-0.36561 0.33173-0.54297 0.50391-0.19258-0.09095-0.38863-0.17674-0.58789-0.25586 0.18009-0.16414 0.362-0.32635 0.54883-0.48242zm-4.7324 0.22266c0.49023 0.0079 0.97059 0.05229 1.4414 0.125-2.0237 1.8427-3.7522 4.0644-5.0176 6.5137-0.24125-0.71636-0.38928-1.4922-0.42773-2.3164-0.0648-1.3118 0.15387-2.6195 0.59766-3.8555 1.155-0.33141 2.3018-0.48451 3.4062-0.4668zm5.8125 0.24414c2.7932 1.3979 4.8822 3.9643 5.6953 7.2656-0.30858 0.3934-0.64373 0.76479-1 1.1152-0.46932-3.5545-2.4497-6.3505-5.2461-7.8633 0.17927-0.17737 0.36253-0.35008 0.55078-0.51758zm-3.3965 0.08008c0.20579 0.05301 0.40929 0.1121 0.60938 0.17773-2.4654 2.3551-4.3022 5.3833-5.1699 8.6543-0.30293-0.34988-0.57456-0.73052-0.81054-1.1406 1.1785-2.9459 3.0659-5.59 5.3711-7.6914zm1.2617 0.41602c0.20395 0.0838 0.40525 0.17418 0.60156 0.27149-2.5254 2.6713-4.197 6.2345-4.3516 9.7969-0.38262-0.20218-0.74393-0.44135-1.082-0.70703 0.5096-3.5084 2.2821-6.8393 4.832-9.3613zm1.0879 0.5332c2.5757 1.4758 4.3663 4.1681 4.5684 7.748v0.61328c-1.1809 0.88117-2.5297 1.5256-3.9746 1.834-1.5019 0.32572-2.938 0.24854-4.2168-0.15625-7e-3 -0.15211-0.0186-0.30974-0.0332-0.47852-0.1545-3.4977 1.2804-6.9654 3.6562-9.5606z" fill="#ec1d27"/>
</svg>
