<?xml version="1.0" encoding="UTF-8" standalone="no"?>
<!-- Created with Inkscape (http://www.inkscape.org/) -->

<svg
   version="1.1"
   id="svg1"
   width="616.64038"
   height="145.70007"
   viewBox="0 0 616.64036 145.70007"
   xmlns="http://www.w3.org/2000/svg"
   xmlns:svg="http://www.w3.org/2000/svg">
  <defs
     id="defs1">
    <clipPath
       clipPathUnits="userSpaceOnUse"
       id="clipPath7">
      <path
         d="M 0,800.00005 H 1280 V 2.5000001e-5 H 0 Z"
         id="path7" />
    </clipPath>
  </defs>
  <g
     id="g1"
     transform="translate(-938.66637,-331.99993)">
    <path
       id="path29"
       d="m 1227.4105,418.16187 c -0.9413,0 -0.9413,-1.88267 0,-2.01733 l 6.456,-0.53734 c 3.6307,-0.26933 5.3787,-1.74933 5.244,-5.65066 l -1.6133,-67.91867 h -0.404 l -29.184,74.10667 c -0.2707,0.80666 -0.9427,1.21066 -1.6147,1.21066 h -2.152 c -0.8067,0 -1.48,-0.53866 -1.748,-1.21066 l -27.3027,-71.68667 c -0.404,-1.21066 -1.076,-2.42 -1.7493,-3.09333 l -1.6133,67.248 c -0.1347,5.24533 1.344,6.456 9.4146,7.128 l 4.4387,0.404 c 0.9413,0.13466 0.9413,2.01733 0,2.01733 h -31.876 c -0.9413,0 -0.9413,-1.88267 0,-2.01733 l 5.1107,-0.404 c 5.784,-0.40267 7.8013,-1.748 7.936,-7.26134 l 1.748,-64.55866 c 0.1346,-5.24533 -1.48,-6.72533 -6.86,-7.26267 l -5.648,-0.53866 c -0.9414,-0.13334 -0.9414,-2.01734 0,-2.01734 h 24.6133 c 0.8067,0 1.344,0.53867 1.6133,1.21067 l 25.6894,67.248 h 0.2693 l 26.36,-67.248 c 0.268,-0.80667 0.9413,-1.21067 1.6133,-1.21067 h 24.3454 c 0.94,0 0.94,1.884 0,2.01734 l -7.8027,0.404 c -3.496,0.13466 -4.7067,1.48 -4.7067,4.03466 l 1.48,69.668 c 0.1347,4.03467 0.9414,5.112 6.052,5.51467 l 5.5147,0.404 c 0.94,0.13466 0.94,2.01733 0,2.01733 z"
       style="fill:#020000;fill-opacity:1;fill-rule:nonzero;stroke:none;stroke-width:1.33333" />
    <path
       id="path30"
       d="m 1269.9141,418.16187 c -0.9413,0 -0.9413,-1.88267 0,-2.01733 l 5.5133,-0.404 c 5.5147,-0.40267 6.188,-2.95734 6.188,-6.18667 v -66.844 c 0,-3.228 -0.6733,-5.784 -6.188,-6.18666 l -5.5133,-0.404 c -0.9413,-0.13334 -0.9413,-2.01734 0,-2.01734 h 34.0267 c 0.9413,0 0.9413,1.884 0,2.01734 l -5.5134,0.404 c -5.5146,0.40266 -6.1866,2.95866 -6.1866,6.18666 v 66.844 c 0,3.22933 0.672,5.784 6.1866,6.18667 l 5.5134,0.404 c 0.9413,0.13466 0.9413,2.01733 0,2.01733 z"
       style="fill:#020000;fill-opacity:1;fill-rule:nonzero;stroke:none;stroke-width:1.33333" />
    <path
       id="path31"
       d="M 0,0 H -0.403 L -9.684,-26.024 H 8.675 Z m 8.07,-54.168 c -0.707,0 -0.707,1.513 0,1.513 l 4.539,0.303 c 3.632,0.201 4.539,1.11 2.925,5.851 l -5.749,17.047 h -20.78 l -3.631,-10.491 c -3.531,-10.188 -3.43,-11.6 3.934,-12.407 l 2.925,-0.303 c 0.706,-0.101 0.706,-1.513 0,-1.513 h -22.999 c -0.705,0 -0.705,1.412 0,1.513 l 2.623,0.403 c 4.741,0.707 5.75,1.615 10.693,15.232 l 14.323,39.845 -0.605,2.32 c -0.202,0.706 -0.101,1.11 0.403,1.513 l 5.044,3.329 c 0.807,0.605 1.916,0.705 2.219,-0.202 l 19.065,-54.773 c 2.118,-6.053 2.925,-6.86 6.556,-7.264 l 3.935,-0.403 c 0.706,-0.101 0.706,-1.513 0,-1.513 z"
       style="fill:#020000;fill-opacity:1;fill-rule:nonzero;stroke:none"
       transform="matrix(1.3333333,0,0,-1.3333333,1351.8229,345.93813)"
       clip-path="none" />
    <path
       id="path33"
       d="m 1476.7712,418.16187 c -0.9413,0 -0.9413,-1.88267 0,-2.01733 l 6.456,-0.53734 c 3.632,-0.26933 5.3787,-1.74933 5.244,-5.65066 l -1.612,-67.91867 h -0.4053 l -29.184,74.10667 c -0.2694,0.80666 -0.9427,1.21066 -1.6147,1.21066 h -2.152 c -0.8067,0 -1.48,-0.53866 -1.748,-1.21066 l -27.3027,-71.68667 c -0.404,-1.21066 -1.076,-2.42 -1.7493,-3.09333 l -1.6133,67.248 c -0.1334,5.24533 1.344,6.456 9.4146,7.128 l 4.4387,0.404 c 0.9413,0.13466 0.9413,2.01733 0,2.01733 h -31.876 c -0.9413,0 -0.9413,-1.88267 0,-2.01733 l 5.1107,-0.404 c 5.784,-0.40267 7.8013,-1.748 7.936,-7.26134 l 1.748,-64.55866 c 0.1346,-5.24533 -1.48,-6.72533 -6.86,-7.26267 l -5.648,-0.53866 c -0.9414,-0.13334 -0.9414,-2.01734 0,-2.01734 h 24.6133 c 0.8067,0 1.344,0.53867 1.6133,1.21067 l 25.6894,67.248 h 0.268 l 26.3613,-67.248 c 0.2693,-0.80667 0.9413,-1.21067 1.6147,-1.21067 h 24.344 c 0.94,0 0.94,1.884 0,2.01734 l -7.8014,0.404 c -3.4973,0.13466 -4.708,1.48 -4.708,4.03466 l 1.48,69.668 c 0.1347,4.03467 0.9414,5.112 6.052,5.51467 l 5.5147,0.404 c 0.9413,0.13466 0.9413,2.01733 0,2.01733 z"
       style="fill:#020000;fill-opacity:1;fill-rule:nonzero;stroke:none;stroke-width:1.33333" />
    <path
       id="path34"
       d="m 1519.4095,418.16187 c -0.9413,0 -0.9413,-1.88267 0,-2.01733 l 5.5133,-0.404 c 5.5147,-0.40267 6.188,-2.95734 6.188,-6.18667 v -66.844 c 0,-3.228 -0.6733,-5.784 -6.188,-6.18666 l -5.5133,-0.404 c -0.9413,-0.13334 -0.9413,-2.01734 0,-2.01734 h 34.028 c 0.9413,0 0.9413,1.884 0,2.01734 l -5.5147,0.404 c -5.5146,0.40266 -6.188,2.95866 -6.188,6.18666 v 66.844 c 0,3.22933 0.6734,5.784 6.188,6.18667 l 5.5147,0.404 c 0.9413,0.13466 0.9413,2.01733 0,2.01733 z"
       style="fill:#020000;fill-opacity:1;fill-rule:nonzero;stroke:none;stroke-width:1.33333" />
    <path
       id="path35"
       d="m 0,0 c 0,3.448 -0.888,4.128 -3.762,4.545 l -1.463,0.209 c -0.47,0.053 -0.418,0.784 0,0.784 h 12.33 c 0.419,0 0.471,-0.731 0,-0.784 L 5.59,4.545 C 3.396,4.232 2.403,3.5 2.403,-0.105 l -0.104,-14.63 c -0.053,-8.046 -4.023,-13.166 -12.749,-13.166 -8.934,0 -13.167,3.501 -13.167,12.07 V 1.933 c 0,1.567 -0.836,2.455 -2.665,2.612 l -2.089,0.209 c -0.471,0.053 -0.419,0.784 0,0.784 h 14.472 c 0.419,0 0.471,-0.731 0,-0.784 L -16.197,4.545 C -17.974,4.388 -18.653,3.239 -18.653,1.88 v -15.517 c 0,-7.367 3.03,-10.973 9.405,-10.973 5.904,0 9.3,4.18 9.248,11.182 z"
       style="fill:#020000;fill-opacity:1;fill-rule:nonzero;stroke:none"
       transform="matrix(1.3333333,0,0,-1.3333333,1191.2863,440.49867)"
       clip-path="none" />
    <path
       id="path37"
       d="m 1244.5095,477.07387 c -0.5573,0 -1.116,-0.20933 -1.4627,-0.69733 l -28.7026,-36.57467 h -0.1387 l 0.1387,29.54 c 0,4.596 1.1146,5.43333 4.9453,5.98933 l 1.9507,0.28 c 0.628,0.0693 0.5586,1.044 0,1.044 h -16.5107 c -0.556,0 -0.6267,-0.97466 0,-1.044 l 1.9507,-0.28 c 2.9266,-0.41733 4.32,-1.32266 4.32,-6.12933 l 0.069,-28.076 c 0,-3.41333 -1.3933,-5.99067 -5.2947,-6.688 l -1.6013,-0.27867 c -0.628,-0.13866 -0.5587,-1.044 0,-1.044 h 12.4693 c 0.5574,0 1.1147,0.208 1.4627,0.696 l 24.8013,31.90667 h 0.14 l -0.14,-25.288 c 0,-4.59733 -1.1146,-5.43467 -4.9466,-5.992 l -1.9507,-0.27867 c -0.6267,-0.0693 -0.556,-1.044 0,-1.044 h 16.5107 c 0.5573,0 0.628,0.97467 0,1.044 l -1.9507,0.27867 c -2.9253,0.41733 -4.3187,1.324 -4.3187,6.13067 l -0.14,35.53066 c 0,0.556 -0.488,0.97467 -1.044,0.97467 z"
       style="fill:#020000;fill-opacity:1;fill-rule:nonzero;stroke:none;stroke-width:1.33333" />
    <path
       id="path38"
       d="m 1256.9091,476.65547 c -0.5573,0 -0.628,-0.97467 0,-1.04533 l 2.7867,-0.27867 c 2.5773,-0.27867 3.344,-1.39333 3.344,-3.9 v -33.092 c 0,-2.508 -0.7667,-3.62267 -3.344,-3.90133 l -2.7867,-0.27867 c -0.628,-0.0693 -0.5573,-1.04533 0,-1.04533 h 18.8787 c 0.5573,0 0.6266,0.976 0,1.04533 l -2.7867,0.27867 c -2.576,0.27866 -3.344,1.39333 -3.344,3.90133 v 33.092 c 0,2.50667 0.768,3.62133 3.344,3.9 l 2.7867,0.27867 c 0.6266,0.0707 0.5573,1.04533 0,1.04533 z"
       style="fill:#020000;fill-opacity:1;fill-rule:nonzero;stroke:none;stroke-width:1.33333" />
    <path
       id="path39"
       d="m 1301.2837,477.4912 c -0.5573,0 -0.9747,-0.348 -1.184,-0.836 l -13.0973,-35.668 c -1.9507,-5.29467 -2.7867,-6.132 -5.852,-6.54933 l -1.9507,-0.27867 c -0.6267,-0.0693 -0.556,-1.044 0,-1.044 h 19.0187 c 0.5586,0 0.628,0.97467 0,1.044 l -2.02,0.14 c -3.4134,0.20933 -4.1094,1.74133 -2.508,6.26933 l 9.892,27.936 h 0.4186 l 8.012,-22.36266 c 3.4134,-9.61334 3.0654,-11.28667 -2.7173,-11.84267 l -1.532,-0.14 c -0.628,-0.0693 -0.5587,-1.044 0,-1.044 h 17.276 c 0.5573,0 0.628,0.90533 0,1.044 l -1.3933,0.27867 c -3.4134,0.69733 -4.4587,1.324 -8.4294,12.33066 l -10.868,29.88667 c -0.208,0.488 -0.6266,0.836 -1.184,0.836 z"
       style="fill:#020000;fill-opacity:1;fill-rule:nonzero;stroke:none;stroke-width:1.33333" />
    <path
       id="path40"
       d="m 1328.3132,476.65547 c -0.5573,0 -0.6973,-0.97467 -0.069,-1.04533 l 2.4373,-0.27867 c 2.5773,-0.27867 3.136,-1.39333 3.136,-3.9 v -33.092 c 0,-2.22933 -0.28,-3.692 -3.4147,-3.97067 l -2.0893,-0.20933 c -0.628,-0.0693 -0.5573,-1.04533 0,-1.04533 h 32.464 c 0.5573,0 1.0453,0.34933 1.0453,0.976 l 0.6267,13.096 c 0,0.768 -1.184,0.69733 -1.324,0 l -0.696,-2.64667 c -1.672,-6.33867 -3.7627,-8.22 -14.212,-8.22 h -5.7827 v 16.64933 l 4.5294,-0.0693 c 7.5226,-0.14 8.0813,-1.88133 8.568,-4.94533 l 0.2786,-1.812 c 0.14,-0.836 1.4627,-0.76667 1.4627,0 v 16.30133 c 0,0.76667 -1.3227,0.836 -1.4627,0 l -0.2786,-1.812 c -0.4867,-3.064 -1.0454,-4.736 -8.568,-4.876 l -4.5294,-0.0693 v 17.556 l 6.688,0.27866 c 10.38,0.348 13.236,-1.88 15.4654,-8.708 l 0.836,-2.57866 c 0.2786,-0.76534 1.5333,-0.62667 1.3933,0.14 l -2.02,13.44533 c -0.069,0.55733 -0.5573,0.836 -1.044,0.836 z"
       style="fill:#020000;fill-opacity:1;fill-rule:nonzero;stroke:none;stroke-width:1.33333" />
    <path
       id="path41"
       d="M 1380.8401,436.24933 V 453.388 c 1.4627,0.48666 4.2493,0.90533 5.504,0.90533 6.06,-0.14 9.9613,-2.3 9.9613,-9.196 0,-6.34 -3.692,-8.848 -11.7733,-8.848 z m 19.2973,40.40667 c -1.184,0 -1.8813,-0.41867 -2.4386,-1.324 l -11.076,-17.97467 c -1.5334,-0.0693 -4.668,-0.41733 -5.7827,-0.83467 V 471.64 c 0,2.716 0.9747,3.552 3.344,3.76133 l 2.368,0.20933 c 0.6267,0.0693 0.5573,1.04534 0,1.04534 h -17.8333 c -0.5587,0 -0.6974,-0.976 -0.071,-1.04534 l 2.4387,-0.20933 c 2.368,-0.20933 3.1346,-1.46267 3.1346,-3.97067 v -33.092 c 0,-2.50666 -0.6973,-3.76133 -3.1346,-3.96933 l -2.4387,-0.20933 c -0.6267,-0.0707 -0.5573,-1.04534 0,-1.04534 h 17.6253 c 11.356,0 16.9987,4.59734 16.9987,11.84267 0,5.36533 -3.2733,10.52 -9.4747,12.26133 l 8.4307,12.67867 c 2.6467,4.04133 4.1787,5.156 6.896,5.504 l 1.6027,0.20933 c 0.6266,0.0693 0.5573,1.04534 0,1.04534 z"
       style="fill:#020000;fill-opacity:1;fill-rule:nonzero;stroke:none;stroke-width:1.33333" />
    <path
       id="path42"
       d="m 1413.6529,463.698 c 0,-0.55733 0.976,-0.69733 1.184,-0.0693 l 0.976,2.78533 c 1.8813,5.364 6.0613,8.152 11.9827,8.152 5.852,0 9.544,-2.71733 9.544,-7.94267 0,-5.364 -4.04,-7.732 -10.2414,-9.892 -6.8266,-2.43866 -12.1906,-5.57333 -12.1906,-12.68 0,-5.712 4.7373,-11.912 13.9333,-11.912 5.9907,0 8.0813,1.324 9.196,1.324 1.1147,0 1.9507,-0.76666 2.368,-0.76666 0.348,0 0.488,0.20933 0.488,0.488 l 0.1387,11.772 c 0,0.55866 -0.9747,0.69733 -1.2534,0 l -1.9506,-4.45867 c -1.464,-3.41333 -4.0414,-5.29333 -9.2654,-5.29333 -4.8773,0 -8.152,2.508 -8.152,6.688 0,4.80666 4.4587,6.75733 9.964,8.77733 7.732,2.78667 12.956,6.06133 12.956,13.51467 0,6.47866 -5.7813,13.44533 -15.604,13.44533 -3.9026,0.0707 -8.7786,-0.76533 -12.54,-2.02 -0.6266,-0.20933 -1.1146,-0.836 -1.1146,-1.46267 z"
       style="fill:#020000;fill-opacity:1;fill-rule:nonzero;stroke:none;stroke-width:1.33333" />
    <path
       id="path43"
       d="m 1447.2317,476.65547 c -0.5573,0 -0.628,-0.97467 0,-1.04533 l 2.7867,-0.27867 c 2.5773,-0.27867 3.3426,-1.39333 3.3426,-3.9 v -33.092 c 0,-2.508 -0.7653,-3.62267 -3.3426,-3.90133 l -2.7867,-0.27867 c -0.628,-0.0693 -0.5573,-1.04533 0,-1.04533 h 18.8787 c 0.5573,0 0.6266,0.976 0,1.04533 l -2.7867,0.27867 c -2.5773,0.27866 -3.344,1.39333 -3.344,3.90133 v 33.092 c 0,2.50667 0.7667,3.62133 3.344,3.9 l 2.7867,0.27867 c 0.6266,0.0707 0.5573,1.04533 0,1.04533 z"
       style="fill:#020000;fill-opacity:1;fill-rule:nonzero;stroke:none;stroke-width:1.33333" />
    <path
       id="path44"
       d="m 1479.5555,476.65547 c -0.5573,0 -0.628,-0.97467 0,-1.04533 l 3.344,-0.27867 c 2.16,-0.20933 3.204,-1.60133 3.204,-3.48267 v -35.52933 h -2.0893 c -7.1067,0 -10.868,3.064 -12.6094,7.80267 l -1.0453,2.856 c -0.2787,0.976 -1.5333,0.76666 -1.3933,0 l 2.02,-12.95867 c 0.069,-0.48667 0.488,-0.90533 1.0453,-0.90533 h 35.2493 c 0.5587,0 0.976,0.34933 1.0454,0.976 l 1.2546,12.888 c 0.069,0.836 -1.0453,0.90533 -1.324,0 l -0.836,-2.64667 c -1.8106,-5.85333 -5.364,-8.012 -12.4693,-8.012 h -2.2293 v 35.52933 c 0,1.88134 1.0453,3.27334 3.204,3.48267 l 3.344,0.27867 c 0.628,0.0707 0.5573,1.04533 0,1.04533 z"
       style="fill:#020000;fill-opacity:1;fill-rule:nonzero;stroke:none;stroke-width:1.33333" />
    <path
       id="path45"
       d="M 0,0 C -0.418,0 -0.47,0.731 0,0.784 L 2.507,0.993 C 4.128,1.15 4.911,2.194 4.911,3.605 V 13.898 L -3.5,28.371 c -1.36,2.351 -2.248,3.03 -4.128,3.292 l -1.464,0.209 c -0.47,0.052 -0.417,0.784 0,0.784 H 4.755 c 0.417,0 0.47,-0.732 0,-0.784 L 3.814,31.82 C 1.097,31.663 0.784,30.409 2.612,27.118 L 8.36,16.929 h 0.104 l 4.493,8.255 c 2.561,4.755 2.614,6.114 -0.626,6.531 l -1.202,0.157 c -0.47,0.052 -0.418,0.784 0,0.784 h 12.069 c 0.419,0 0.47,-0.732 0,-0.784 L 21.996,31.715 C 19.959,31.454 18.601,30.409 15.883,25.497 L 9.876,14.63 V 3.605 c 0,-1.411 0.783,-2.455 2.402,-2.612 L 14.787,0.784 C 15.257,0.731 15.204,0 14.787,0 Z"
       style="fill:#020000;fill-opacity:1;fill-rule:nonzero;stroke:none"
       transform="matrix(1.3333333,0,0,-1.3333333,1523.9312,476.65547)"
       clip-path="none" />
    <path
       id="path47"
       d="m 0,0 v 46.425 h 2.094 l 18.414,30.3 H -30.797 L -51.948,41.687 -73.099,76.725 h -51.306 l 18.417,-30.3 h 2.093 V 0 h -2.093 l -18.417,-30.3 H 20.508 L 2.094,0 Z"
       style="fill:#ffffff;fill-opacity:1;fill-rule:nonzero;stroke:none"
       transform="matrix(1.3333333,0,0,-1.3333333,1104.5397,436.32533)"
       clip-path="none" />
    <path
       id="path49"
       d="m 1038.1088,472.53013 19.456,-32.00933 h 4.6267 v -22.41867 l -26.9147,44.58533 -26.9147,-44.58533 v 22.41867 h 4.6267 l 19.4533,32.00933 h -86.31596 l 19.456,-32.00933 h 4.62533 v -70.29067 h -4.62533 l -19.456,-32.00933 h 58.57996 l 30.5694,50.64 30.5706,-50.64 h 58.5787 l -19.4533,32.00933 h -4.6267 v 70.29067 h 4.6267 l 19.4533,32.00933 z"
       style="fill:#020000;fill-opacity:1;fill-rule:nonzero;stroke:none;stroke-width:1.33333" />
    <path
       id="path50"
       d="m 978.59853,361.83973 h -8.29733 l -9.256,-15.228 h 38.92666 l 35.30404,58.484 35.3053,-58.484 h 38.9253 l -9.2546,15.228 h -8.2987 v 87.072 h 8.2987 l 9.2546,15.228 h -56.4786 l 9.256,-15.228 h 8.2973 V 387.9664 l -22.8227,37.80666 -12.4826,20.67867 v 0 l -12.4827,-20.67867 -22.82134,-37.80666 v 60.94533 h 8.29864 l 9.2547,15.228 h -56.48 l 9.256,-15.228 h 8.29733 z"
       style="fill:#c61a32;fill-opacity:1;fill-rule:nonzero;stroke:none;stroke-width:1.33333" />
  </g>
</svg>
