<svg xmlns="http://www.w3.org/2000/svg" version="1.1" viewBox="482.76 -710.13 8944.88 427.23">
  <g transform="matrix(1.3333333,0,0,-1.3333333,0,124.24)" style="fill: #00244c; fill-opacity: 1; fill-rule: nonzero; stroke: none;">
      <path d="m 6896.07,538.633 0.01,-21.227 c 0,-2.554 1.2,-4.961 3.23,-6.504 l 15.74,-11.976 c 1.42,-1.078 3.15,-1.664 4.93,-1.664 l 81.77,-0.067 c 12.89,0.039 19.04,-3.5 24.51,-8.269 l 32.47,-30.891 c 10.91,-10.012 12,-12.504 12,-28.433 l -0.24,-59.325 c 0,0 0.24,-17.339 -9.57,-25.609 l -36.38,-32.039 c 0,0 -10.95,-6.973 -21.04,-6.973 h -171.39 l -15.9,73.723 42.71,-9.102 h 111.97 c 1.78,0 3.5,0.578 4.92,1.653 l 17.18,12.777 c 2.04,1.543 3.24,3.957 3.24,6.52 v 20.566 c 0,2.562 -1.2,4.977 -3.24,6.52 l -15.81,11.976 c -1.42,1.07 -3.14,1.652 -4.92,1.652 l -81.78,0.008 c -16.82,0 -21.88,5.66 -30.03,13.821 l -26.96,26.132 c -10.9,10.012 -11.99,12.504 -11.99,28.434 l 0.22,58.777 c 0,15.93 1.09,18.422 12,28.434 l 25.44,22.297 c 10,8.644 14.73,14.351 31.54,14.351 h 159.97 l 10.87,-73.718 -34.08,9.222 h -107.4 c -1.79,0 -3.52,-1.441 -4.94,-2.519 l -15.82,-12.032 c -2.03,-1.546 -3.23,-3.957 -3.23,-6.515"/>
      <path d="m 6009.26,342.059 8.18,-36.403 h -96.78 l 8.63,36.403 V 504.063 L 5843.41,369.82 h -15.45 l -85.87,134.243 V 342.059 l 8.63,-36.403 h -96.78 l 8.18,36.403 v 245.734 l -8.18,36.402 h 96.33 l 85.42,-142.429 85.42,142.429 h 96.33 l -8.18,-36.402 V 342.059"/>
      <path d="m 6065.61,342.059 v 245.734 l -8.63,36.402 h 98.6 l -8.64,-36.402 V 342.059 l 8.64,-36.403 h -98.6 l 8.63,36.403"/>
      <path d="m 6202.72,342.059 v 245.734 l -8.18,36.402 h 70.88 l 144.95,-185.664 v 149.262 l -8.64,36.402 h 98.6 l -8.18,-36.402 V 305.656 H 6429 L 6284.51,490.41 V 342.059 l 8.63,-36.403 h -98.6 l 8.18,36.403"/>
      <path d="m 6795.23,379.379 -18.17,-73.723 h -237.19 l 8.18,36.403 v 245.734 l -8.18,36.402 h 229.01 l 13.63,-73.718 -34.08,9.101 h -118.59 v -63.25 h 100.42 l 24.99,5.914 V 429.43 l -24.99,5.918 h -100.42 v -65.071 h 122.68 l 42.71,9.102"/>
      <path d="m 642.668,394.617 c 0,-15.57 -5.953,-29.754 -16.934,-40.742 l -31.586,-31.59 C 583.16,311.301 568.969,305.352 553.41,305.352 H 451.328 c -15.558,0 -29.75,5.949 -40.738,16.933 l -31.586,31.59 c -10.988,10.988 -16.934,25.172 -16.934,40.742 v 141.899 c 0,15.57 5.946,29.754 16.934,40.742 l 31.586,31.586 c 10.988,10.988 25.18,16.933 40.738,16.933 H 553.41 c 15.559,0 29.75,-5.945 40.738,-16.933 l 31.586,-31.586 c 10.981,-10.988 16.934,-25.172 16.934,-40.742 V 523.703 L 560.73,508.594 v 8.695 c 0,8.695 -3.66,16.488 -10.984,22.434 l -11.898,10.988 c -6.41,5.488 -15.11,8.695 -23.805,8.695 h -23.348 c -8.238,0 -17.394,-2.75 -23.343,-8.695 l -12.36,-11.445 c -6.867,-6.407 -10.988,-14.188 -10.988,-22.434 V 414.301 c 0,-8.238 3.664,-16.028 10.988,-22.434 l 12.36,-11.445 c 5.949,-5.488 15.105,-8.695 23.343,-8.695 h 23.348 c 8.695,0 17.395,3.207 23.805,8.695 l 11.898,10.984 c 7.324,5.961 10.984,13.739 10.984,22.438 v 9.152 l 81.938,-16.016 v -12.363"/>
      <path d="m 833.602,371.727 c 8.699,0 17.394,3.207 23.343,8.695 l 12.364,11.445 c 6.863,6.406 10.984,14.196 10.984,22.434 v 102.531 c 0,8.246 -4.121,16.027 -10.984,22.434 l -12.364,11.445 c -5.949,5.945 -14.644,8.695 -23.343,8.695 h -26.551 c -8.238,0 -16.934,-2.75 -23.344,-8.695 l -12.355,-11.445 c -6.414,-6.407 -10.989,-14.188 -10.989,-22.434 V 414.301 c 0,-8.238 4.117,-16.028 10.989,-22.434 l 12.355,-11.445 c 6.41,-5.488 15.106,-8.695 23.344,-8.695 z m -106.657,-49.442 -31.586,31.59 c -10.984,10.988 -16.933,25.172 -16.933,40.742 v 141.899 c 0,15.57 5.949,29.754 16.933,40.742 l 31.586,31.586 c 10.989,10.988 25.18,16.933 40.739,16.933 H 873.43 c 15.562,0 29.754,-5.945 40.734,-16.933 l 31.59,-31.586 c 10.984,-10.988 16.937,-25.172 16.937,-40.742 V 394.617 c 0,-15.57 -5.953,-29.754 -16.937,-40.742 l -31.59,-31.59 C 903.184,311.301 888.992,305.352 873.43,305.352 H 767.684 c -15.559,0 -29.75,5.949 -40.739,16.933"/>
      <path d="m 1235.56,382.715 -18.31,-77.363 h -207.37 l 8.25,36.617 V 589.16 l -8.25,36.617 h 99.34 l -8.7,-36.16 V 373.559 h 92.01 l 43.03,9.156"/>
      <path d="m 1413.21,371.727 c 8.7,0 17.39,3.207 23.35,8.695 l 12.36,11.445 c 6.86,6.406 10.98,14.196 10.98,22.434 v 102.531 c 0,8.246 -4.12,16.027 -10.98,22.434 l -12.36,11.445 c -5.96,5.945 -14.65,8.695 -23.35,8.695 h -26.55 c -8.24,0 -16.93,-2.75 -23.34,-8.695 l -12.36,-11.445 c -6.41,-6.407 -10.99,-14.188 -10.99,-22.434 V 414.301 c 0,-8.238 4.12,-16.028 10.99,-22.434 l 12.36,-11.445 c 6.41,-5.488 15.1,-8.695 23.34,-8.695 z m -106.65,-49.442 -31.59,31.59 c -10.99,10.988 -16.94,25.172 -16.94,40.742 v 141.899 c 0,15.57 5.95,29.754 16.94,40.742 l 31.59,31.586 c 10.98,10.988 25.17,16.933 40.73,16.933 h 105.75 c 15.56,0 29.75,-5.945 40.73,-16.933 l 31.59,-31.586 c 10.99,-10.988 16.94,-25.172 16.94,-40.742 V 394.617 c 0,-15.57 -5.95,-29.754 -16.94,-40.742 l -31.59,-31.59 c -10.98,-10.984 -25.17,-16.933 -40.73,-16.933 h -105.75 c -15.56,0 -29.75,5.949 -40.73,16.933"/>
      <path d="m 1680.14,467.852 h 56.75 c 9.62,0 18.31,4.125 25.18,10.527 l 12.36,11.906 c 5.03,5.488 7.78,12.82 7.78,20.141 v 8.695 c 0,6.863 -2.29,13.738 -7.78,19.684 l -12.36,13.738 c -6.41,7.32 -15.56,10.527 -25.18,10.527 h -56.75 z m 199.58,-162.5 h -104.37 l -8.24,37.078 -29.3,62.258 h -57.67 v -62.719 l 8.69,-36.617 h -99.33 l 8.24,36.617 V 589.16 l -8.24,36.617 h 185.39 c 15.56,0 28.83,-6.863 40.74,-16.933 l 31.59,-27.461 c 11.9,-10.074 16.93,-25.184 16.93,-40.742 v -50.817 c 0,-15.558 -5.95,-29.754 -16.93,-40.738 l -30.67,-26.547 37.99,-80.109 25.18,-37.078"/>
      <path d="m 2088.5,436.73 -38.9,131.829 -38.91,-131.829 z m 25.64,-131.378 2.29,36.617 -9.62,32.047 h -114.89 l -9.61,-32.047 2.28,-36.617 h -104.82 l 19.23,36.617 78.27,249.023 -3.66,34.785 h 151.97 l -4.12,-34.785 78.28,-249.023 19.22,-36.617 h -104.82"/>
      <path d="m 2441.94,516.832 c 0,8.246 -4.12,16.027 -10.98,22.434 l -12.37,11.445 c -5.95,5.945 -14.64,8.695 -23.34,8.695 h -62.71 V 371.727 h 62.71 c 8.7,0 17.39,3.207 23.34,8.695 l 12.37,11.445 c 6.86,6.406 10.98,14.196 10.98,22.434 z m 82.39,19.684 V 394.617 c 0,-15.57 -5.94,-29.754 -16.93,-40.742 l -31.59,-31.59 c -10.98,-10.984 -25.17,-16.933 -40.74,-16.933 H 2241.9 l 8.24,36.617 V 589.16 l -8.24,36.617 h 193.17 c 15.57,0 29.76,-5.945 40.74,-16.933 l 31.59,-31.586 c 10.99,-10.988 16.93,-25.172 16.93,-40.742"/>
      <path d="m 2724.89,371.727 c 8.7,0 17.39,3.207 23.34,8.695 l 12.37,11.445 c 6.86,6.406 10.98,14.196 10.98,22.434 v 102.531 c 0,8.246 -4.12,16.027 -10.98,22.434 l -12.37,11.445 c -5.95,5.945 -14.64,8.695 -23.34,8.695 h -26.55 c -8.24,0 -16.94,-2.75 -23.35,-8.695 l -12.35,-11.445 c -6.41,-6.407 -10.99,-14.188 -10.99,-22.434 V 414.301 c 0,-8.238 4.12,-16.028 10.99,-22.434 l 12.35,-11.445 c 6.41,-5.488 15.11,-8.695 23.35,-8.695 z m -106.66,-49.442 -31.58,31.59 c -10.99,10.988 -16.94,25.172 -16.94,40.742 v 141.899 c 0,15.57 5.95,29.754 16.94,40.742 l 31.58,31.586 c 10.99,10.988 25.18,16.933 40.74,16.933 h 105.75 c 15.56,0 29.75,-5.945 40.73,-16.933 l 31.59,-31.586 c 10.99,-10.988 16.94,-25.172 16.94,-40.742 V 394.617 c 0,-15.57 -5.95,-29.754 -16.94,-40.742 l -31.59,-31.59 c -10.98,-10.984 -25.17,-16.933 -40.73,-16.933 h -105.75 c -15.56,0 -29.75,5.949 -40.74,16.933"/>
      <path d="m 2990,379.047 43.48,-8.699 h 108.49 c 5.49,0 10.07,0.918 13.28,4.125 l 8.23,6.406 c 2.75,2.75 4.12,6.875 4.12,10.988 v 7.778 c 0,5.957 -7.32,13.738 -16.47,16.945 l -111.7,37.535 c -25.17,8.238 -47.15,34.785 -47.15,61.789 v 29.754 c 0,16.027 5.96,30.672 16.94,40.742 l 25.63,22.434 c 10.07,8.699 25.18,16.933 42.12,16.933 h 148.31 l 11.9,-73.691 -43.48,8.695 h -81.94 c -7.79,0 -16.02,-0.457 -21.06,-4.582 l -9.15,-6.863 c -3.66,-2.75 -5.5,-6.863 -5.5,-11.445 v -5.032 c 0,-7.332 8.24,-16.027 17.85,-18.765 l 113.53,-37.086 c 24.72,-7.781 43.94,-34.785 43.94,-60.418 v -30.668 c 0,-16.488 -5.49,-31.59 -16.93,-41.203 l -25.64,-22.434 c -10.07,-8.695 -25.17,-16.933 -42.11,-16.933 H 3005.1 l -15.1,73.695"/>
      <path d="m 3566.81,394.617 c 0,-15.57 -5.95,-29.754 -16.93,-40.742 l -31.59,-31.59 c -10.99,-10.984 -25.18,-16.933 -40.74,-16.933 h -102.08 c -15.56,0 -29.75,5.949 -40.74,16.933 l -31.58,31.59 c -10.99,10.988 -16.94,25.172 -16.94,40.742 v 141.899 c 0,15.57 5.95,29.754 16.94,40.742 l 31.58,31.586 c 10.99,10.988 25.18,16.933 40.74,16.933 h 102.08 c 15.56,0 29.75,-5.945 40.74,-16.933 l 31.59,-31.586 c 10.98,-10.988 16.93,-25.172 16.93,-40.742 v -12.813 l -81.93,-15.109 v 8.695 c 0,8.695 -3.67,16.488 -10.99,22.434 l -11.9,10.988 c -6.41,5.488 -15.11,8.695 -23.8,8.695 h -23.35 c -8.24,0 -17.39,-2.75 -23.35,-8.695 l -12.35,-11.445 c -6.87,-6.407 -10.99,-14.188 -10.99,-22.434 V 414.301 c 0,-8.238 3.66,-16.028 10.99,-22.434 l 12.35,-11.445 c 5.96,-5.488 15.11,-8.695 23.35,-8.695 h 23.35 c 8.69,0 17.39,3.207 23.8,8.695 l 11.9,10.984 c 7.32,5.961 10.99,13.739 10.99,22.438 v 9.152 l 81.93,-16.016 v -12.363"/>
      <path d="m 3895.99,341.969 8.7,-36.617 h -99.34 l 8.24,36.617 v 88.347 h -118.56 v -88.347 l 8.7,-36.617 h -99.33 l 8.24,36.617 V 589.16 l -8.24,36.617 h 99.33 l -8.7,-36.617 v -91.097 h 118.56 v 91.097 l -8.24,36.617 h 99.34 l -8.7,-36.617 V 341.969"/>
      <path d="m 4107.07,371.727 c 8.7,0 17.39,3.207 23.34,8.695 l 12.37,11.445 c 6.86,6.406 10.98,14.196 10.98,22.434 v 102.531 c 0,8.246 -4.12,16.027 -10.98,22.434 l -12.37,11.445 c -5.95,5.945 -14.64,8.695 -23.34,8.695 h -26.55 c -8.24,0 -16.94,-2.75 -23.35,-8.695 l -12.35,-11.445 c -6.41,-6.407 -10.99,-14.188 -10.99,-22.434 V 414.301 c 0,-8.238 4.12,-16.028 10.99,-22.434 l 12.35,-11.445 c 6.41,-5.488 15.11,-8.695 23.35,-8.695 z m -106.66,-49.442 -31.58,31.59 c -10.98,10.988 -16.94,25.172 -16.94,40.742 v 141.899 c 0,15.57 5.96,29.754 16.94,40.742 l 31.58,31.586 c 10.99,10.988 25.18,16.933 40.74,16.933 h 105.75 c 15.56,0 29.75,-5.945 40.73,-16.933 l 31.59,-31.586 c 10.99,-10.988 16.93,-25.172 16.93,-40.742 V 394.617 c 0,-15.57 -5.94,-29.754 -16.93,-40.742 l -31.59,-31.59 c -10.98,-10.984 -25.17,-16.933 -40.73,-16.933 h -105.75 c -15.56,0 -29.75,5.949 -40.74,16.933"/>
      <path d="m 4436.7,371.727 c 8.7,0 17.39,3.207 23.34,8.695 l 12.37,11.445 c 6.86,6.406 10.98,14.196 10.98,22.434 v 102.531 c 0,8.246 -4.12,16.027 -10.98,22.434 l -12.37,11.445 c -5.95,5.945 -14.64,8.695 -23.34,8.695 h -26.55 c -8.24,0 -16.94,-2.75 -23.35,-8.695 l -12.35,-11.445 c -6.41,-6.407 -10.99,-14.188 -10.99,-22.434 V 414.301 c 0,-8.238 4.12,-16.028 10.99,-22.434 l 12.35,-11.445 c 6.41,-5.488 15.11,-8.695 23.35,-8.695 z m -106.66,-49.442 -31.58,31.59 c -10.99,10.988 -16.94,25.172 -16.94,40.742 v 141.899 c 0,15.57 5.95,29.754 16.94,40.742 l 31.58,31.586 c 10.99,10.988 25.18,16.933 40.74,16.933 h 105.74 c 15.57,0 29.76,-5.945 40.74,-16.933 l 31.59,-31.586 c 10.99,-10.988 16.94,-25.172 16.94,-40.742 V 394.617 c 0,-15.57 -5.95,-29.754 -16.94,-40.742 l -31.59,-31.59 c -10.98,-10.984 -25.17,-16.933 -40.74,-16.933 h -105.74 c -15.56,0 -29.75,5.949 -40.74,16.933"/>
      <path d="m 4838.66,382.715 -18.3,-77.363 h -207.37 l 8.24,36.617 V 589.16 l -8.24,36.617 h 99.34 l -8.7,-36.16 V 373.559 h 92.01 l 43.02,9.156"/>
      <path d="m 5112.92,371.727 c 8.69,0 17.39,3.207 23.34,8.695 l 12.36,11.445 c 6.86,6.406 10.98,14.196 10.98,22.434 v 102.531 c 0,8.246 -4.12,16.027 -10.98,22.434 l -12.36,11.445 c -5.95,5.945 -14.65,8.695 -23.34,8.695 h -26.56 c -8.23,0 -16.93,-2.75 -23.34,-8.695 l -12.36,-11.445 c -6.41,-6.407 -10.98,-14.188 -10.98,-22.434 V 414.301 c 0,-8.238 4.11,-16.028 10.98,-22.434 l 12.36,-11.445 c 6.41,-5.488 15.11,-8.695 23.34,-8.695 z m -106.66,-49.442 -31.59,31.59 c -10.98,10.988 -16.93,25.172 -16.93,40.742 v 141.899 c 0,15.57 5.95,29.754 16.93,40.742 l 31.59,31.586 c 10.99,10.988 25.18,16.933 40.74,16.933 h 105.74 c 15.57,0 29.76,-5.945 40.74,-16.933 l 31.58,-31.586 C 5236.05,566.27 5242,552.086 5242,536.516 V 394.617 c 0,-15.57 -5.95,-29.754 -16.94,-40.742 l -31.58,-31.59 c -10.98,-10.984 -25.17,-16.933 -40.74,-16.933 H 5047 c -15.56,0 -29.75,5.949 -40.74,16.933"/>
      <path d="m 5481,487.535 25.17,5.957 v -76.441 l -25.17,5.945 h -100.71 v -81.027 l 8.24,-36.617 h -99.33 l 8.24,36.617 V 589.16 l -8.24,36.617 h 230.71 l 13.73,-77.816 -34.34,9.152 H 5380.29 V 487.535 H 5481"/>
  </g>
</svg>