<svg class="site-header-svg-logo" xmlns="http://www.w3.org/2000/svg" viewBox="0 0 424 151" fill="currentColor"><title>Manchester Metropolitan University</title><path d="M332 115h-2.2v-2.6h9.7v2.6h-3.8l5.6 12.7.3 1.1.1-.4.2-.7 5.3-12.7h-3.8v-2.6h9.3v2.6h-2l-8.3 19c-1.2 3-2 4.2-2.8 4.8-.8.6-2.1 1-3.7 1l-2.6-.2v-2.7l2 .1c.9 0 1.5-.1 2-.4.5-.4.6-.6 1.4-2.2l1-2.2L332 115Zm-10.6 11.7c0 1.4.1 2 .6 2.4.3.5 1 .8 1.6.8 1 0 1.7-.5 2-1.4.2-.5.3-1 .3-2.5h2.8c0 2.5-.2 3.4-.8 4.4-1 1.5-2.5 2.3-4.8 2.3-1.5 0-2.7-.4-3.6-1.1-1.2-1-1.6-2.3-1.6-5V115h-4v-2.6h4V108l3.6-1.3v5.7h6.4v2.6h-6.5v11.7Zm-10.3-19h-4v-3.9h4v4Zm0 21.8h3.2v2.7h-10.4v-2.7h3.6V115h-3.6v-2.6h7.2v17.1Zm-12.7-17.1h2.8v6.4h-2.8c0-2.6-2-4.2-5.5-4.2-2.8 0-4.7 1.2-4.7 3 0 1.6.9 2.2 3.6 2.6l2.6.4c2.7.4 4 .8 5 1.6a5 5 0 0 1 2 4.2c0 3.8-3 6.3-7.9 6.3-3.3 0-5-1-6.3-3.3v2.7h-2.9v-6.8h2.9c.1 2.8 2.4 4.6 5.6 4.6 3 0 5-1.3 5-3.2 0-1-.4-1.7-1-2.1-.7-.4-1.6-.6-3.6-.9l-2.4-.3c-2.4-.3-3.8-.8-4.8-1.7a5 5 0 0 1-1.5-3.8 5 5 0 0 1 2.6-4.6 10 10 0 0 1 5.3-1.4c3 0 4.8.9 6 3v-2.5Zm-23.5 4.4c.5-3 3-5 6.3-5 .6 0 1 .2 1.7.3v3.2c-.7-.5-1.1-.7-2-.7-1.5 0-3 .6-4 1.7-1.2 1.3-1.8 3.1-1.8 5.7v7.5h4.3v2.7h-11.5v-2.7h3.6V115h-3.7v-2.6h7.1v4.4Zm-12.3 3.7c-.3-3.7-2.5-5.9-6.2-5.9s-6 2.2-6.5 5.9h12.7Zm3.3 5.5a7 7 0 0 1-1.1 3c-1.7 2.4-4.4 3.7-8.2 3.7-4.1 0-6.8-1.2-8.7-4a10.5 10.5 0 0 1-1.8-6.2c0-6.6 3.9-10.6 10.3-10.6 5 0 8.2 2.2 9.3 6.3.4 1.6.5 2.4.5 5h-16.4c0 4 2.8 6.7 7 6.7 3.1 0 5.3-1.4 5.9-3.9h3.2Zm-32.3.8c.7 1.7.8 2.1.9 3.3a71.4 71.4 0 0 1 2.4-6.9l3.2-8.2h-3.7v-2.6h9.5v2.6h-2.3l-6.9 17.1h-4.4l-7-17H223v-2.7h9.7v2.6H229l3.3 8.2 1.3 3.6Zm-13.9-19h-4v-4h4v4Zm0 21.7h3.3v2.7h-10.4v-2.7h3.6V115h-3.6v-2.6h7.1v17.1ZM193 116.2c.8-2.8 3.3-4.3 6.9-4.3 4.6 0 7.1 2.2 7.1 6.2v11.4h3.5v2.6H200v-2.6h3.4v-10.2c0-3.1-1.5-4.7-4.6-4.7-3.5 0-5.6 2.4-5.6 6.3v8.6h3.5v2.6H186v-2.6h3.6V115H186v-2.6h7v3.8Zm-10.9 4.4c0 4-.4 5.7-2 7.9-1.9 2.7-5.1 4.2-9.1 4.2s-7-1.3-9.1-3.8c-1.5-1.9-2.1-4-2.1-7.3v-15h-3.9v-2.8h12.3v2.8h-4.7V122c0 2 .4 3.4 1.4 4.7 1.3 1.8 3.6 2.9 6.2 2.9 4.8 0 7.6-3.2 7.6-8.6v-14.3h-4.5v-2.8H186v2.8H182v13.9Zm207.3-83a6.4 6.4 0 0 1 6.2-5.5c.8 0 1.3.2 1.8.7v5a7 7 0 0 0-2-.3c-1.5 0-2.8.4-3.8 1.3-1.3 1.2-1.9 2.6-1.9 4.9v5.5h3.7V53h-12.5v-3.7h3V36.5h-3v-3.7h8.5v4.7Zm-15.9 3.3c-.1-3.2-1.7-5-4.6-5s-4.5 1.8-4.8 5h9.4Zm5.4 6a8.2 8.2 0 0 1-2 3.7c-1.6 2-4.2 2.9-7.8 2.9-6.7 0-10.8-4-10.8-10.7s4-10.7 10.5-10.7c7 0 10.4 3.7 10.4 11.3v.9H364c.2 3.4 2 5.3 5.1 5.3 2.4 0 3.9-1 4.4-2.7h5.4Zm-29 .2c0 1.3 0 1.6.3 2 .3.3.8.5 1.3.5.7 0 1.3-.4 1.6-1.1l.2-2.4h3.5c0 2.1 0 2.6-.4 3.7-.7 2.5-2.7 3.7-6 3.7-4.3 0-6.4-2.2-6.4-6.7V36.5h-3.3v-3.7h3.3v-4.1l5.8-2v6.1h5.8v3.7h-5.8V47Zm-15.7-14.3h4.2v6.7H334v-.3c0-2-1.6-3.2-4.1-3.2-2.2 0-3.5.8-3.5 2.2 0 1.3.7 1.8 3.3 2.3l2.4.4c4.6.9 6.8 2.9 6.8 6.1 0 4-3 6.5-7.7 6.5-3.1 0-5-1-6-3.1V53h-4.4v-7h4.6c.2 2.3 1.8 3.6 4.4 3.6 2.2 0 3.7-.9 3.7-2.3a2 2 0 0 0-1-1.6 9 9 0 0 0-2.9-.8l-2.6-.5c-4.2-.7-6-2.6-6-5.9 0-3.8 3-6.4 7.5-6.4 2.9 0 4.5.9 5.8 3.1v-2.4Zm-21.7 8.1c0-3.2-1.7-5-4.5-5s-4.5 1.8-4.8 5h9.3Zm5.5 6a8.2 8.2 0 0 1-2 3.7c-1.7 2-4.3 2.9-8 2.9-6.6 0-10.7-4-10.7-10.7s4-10.7 10.6-10.7c6.9 0 10.3 3.7 10.3 11.3v.9H303c.2 3.4 2 5.3 5.2 5.3 2.3 0 3.8-1 4.3-2.7h5.5Zm-38.7-10.6c.8-2.7 3.3-4.2 6.8-4.2 4.5 0 7.2 2.4 7.2 6.2v11h3v3.6h-11.7v-3.7h2.9v-8.8c0-3-1.1-4.5-3.6-4.5-3 0-4.6 2.1-4.6 6v7.4h2.8V53h-11.6v-3.7h3V27.8h-3V24h8.8v12.2ZM268.7 46c0 1.2-.1 1.7-.5 2.6-1.3 3.1-4.5 5-9 5-6.6 0-10.8-4.2-10.8-11s3.9-10.5 9.7-10.5c3 0 5.3 1.3 6.1 3.5v-2.8h4.4v7.8h-4.8c-.2-3-1.7-4.7-4.4-4.7-3.1 0-5 2.5-5 6.6 0 4.5 2 7.1 5.2 7.1 2.4 0 3.6-1 4.2-3.6h4.9ZM230 36.9c.9-3 3.4-4.8 7.2-4.8 4.6 0 7.2 2.4 7.2 6.6v10.6h2.8V53h-11.4v-3.7h2.8v-9c0-3-1.2-4.3-3.8-4.3-2.6 0-4.3 2-4.3 5.3v8h2.7V53h-11.6v-3.7h3V36.5h-3v-3.7h8.4v4Zm-20.6 6.7c-2.3 0-3.6.1-4.7.5-1.6.4-2.4 1.5-2.4 2.8 0 1.7 1.3 2.7 3.4 2.7 3.5 0 5.1-1.8 5.6-6h-2M197.7 39c.1-4.4 3.5-6.8 9.3-6.8 6.7 0 9.6 2.4 9.6 8v9.1h3V53h-8v-3.7c-1.5 3-3.6 4.3-7.3 4.3-4.7 0-7.5-2.4-7.5-6.3a6 6 0 0 1 3.7-5.7c1.6-.7 4-1 7.4-1h3.4c0-2-.2-2.6-.6-3.3-.7-.9-1.7-1.3-3.5-1.3-2.6 0-3.8 1-4 3h-5.6Zm-33.3-10.4v20.6h3.3v3.8H156v-3.8h3.5V28.5H156v-3.8h12.9l4.6 14.5c1 3.3 1.4 4.7 2 8l.5-2.8 1.7-5.5 4.4-14.3h12.8v4h-3.5V49h3.5v3.8h-12.4v-3.8h3.3V28.5L177.6 53h-5.3l-8-24.4Zm242.4 48c.9-3 3.4-4.8 7.2-4.8 4.6 0 7.2 2.4 7.2 6.6V89h2.8v3.7h-11.4v-3.7h2.7v-9c0-3-1.1-4.3-3.7-4.3-2.7 0-4.4 2-4.4 5.3v8h2.8v3.7h-11.6v-3.7h3V76h-3v-3.7h8.4v4Zm-20.6 6.7c-2.3 0-3.6.1-4.7.5-1.6.4-2.5 1.5-2.5 2.8 0 1.7 1.4 2.7 3.5 2.7 3.5 0 5.1-1.8 5.5-6h-1.8Zm-11.9-4.7c.2-4.4 3.6-6.8 9.4-6.8 6.7 0 9.6 2.4 9.6 8v9.2h3v3.6h-8V89c-1.5 3-3.6 4.2-7.3 4.2-4.7 0-7.5-2.4-7.5-6.3A6 6 0 0 1 377 81c1.6-.7 4-1 7.4-1h3.4c0-2-.2-2.6-.6-3.3-.7-.8-1.7-1.3-3.5-1.3-2.6 0-3.8 1-4 3h-5.6Zm-9.6 8.2c0 1.3 0 1.6.3 2 .3.3.8.5 1.4.5.7 0 1.3-.4 1.5-1.1.1-.4.2-.8.2-2.4h3.5c0 2.1 0 2.7-.3 3.8-.7 2.4-2.7 3.6-6 3.6-4.4 0-6.5-2.2-6.5-6.7V76h-3.3v-3.7h3.4v-4.1l5.8-2v6.1h5.8v3.7h-5.8v10.6ZM352 69.1h-6v-5.4h6V69Zm0 19.8h2.6v3.6h-11.4V89h3V76h-3v-3.7h8.7V89Zm-14.1 0h2.8v3.6h-11.6V89h3V67.4h-3v-3.7h8.8v25.2Zm-26.2-6.6c0 4.3 2 7 5.2 7s5.3-2.5 5.3-7c0-4.2-2-6.7-5.3-6.7s-5.2 2.5-5.2 6.7Zm16.4.1c0 6.4-4.4 10.7-11.1 10.7s-11.3-4.2-11.3-10.9c0-6.3 4.5-10.5 11.2-10.5s11.2 4.1 11.2 10.7m-41.3 0c0 4.3 2 6.8 5.4 6.8s5.1-2.4 5.1-6.8-1.8-6.9-5-6.9c-3.4 0-5.5 2.6-5.5 6.8Zm-.3-5.6a5 5 0 0 1 2-3.4 8 8 0 0 1 5.6-1.7c5.9 0 9.2 3.9 9.2 10.6S300 93.1 294 93.1c-3.5 0-6-1.4-7-4.2v7.3h3.3v3.7h-12v-3.7h2.9V76.1h-3v-3.7h8.5v4.4Zm-25.9 5.5c0 4.3 2 7 5.2 7s5.3-2.5 5.3-7c0-4.2-2-6.7-5.2-6.7s-5.3 2.5-5.3 6.7Zm16.5.1c0 6.4-4.4 10.7-11.2 10.7s-11.3-4.2-11.3-10.9c0-6.3 4.5-10.5 11.2-10.5s11.3 4.1 11.3 10.7m-31.9-5.3a6.4 6.4 0 0 1 6.2-5.4c.8 0 1.3.2 1.8.7v5a7 7 0 0 0-2-.3c-1.5 0-2.7.4-3.8 1.3-1.3 1.2-1.8 2.6-1.8 4.9v5.5h3.6v3.7h-12.5v-3.7h3V76.1h-3v-3.7h8.5v4.7Zm-17.6 9.6c0 1.3 0 1.6.4 2 .3.3.8.5 1.3.5.7 0 1.3-.4 1.6-1.1l.2-2.4h3.5c0 2.1 0 2.7-.4 3.8-.7 2.4-2.7 3.6-6 3.6-4.3 0-6.4-2.2-6.4-6.7V76h-3.4v-3.7h3.4v-4.1l5.8-2v6.1h5.8v3.7h-5.8v10.6Zm-16.3-6.2c-.1-3.2-1.7-5-4.5-5s-4.5 1.8-4.8 5h9.3Zm5.4 6a8.2 8.2 0 0 1-1.9 3.7c-1.7 2-4.3 2.9-8 2.9-6.6 0-10.7-4-10.7-10.7s4-10.7 10.6-10.7c6.9 0 10.3 3.7 10.3 11.3v.9H202c.2 3.4 2 5.3 5.2 5.3 2.3 0 3.8-1 4.3-2.7h5.5ZM164.3 68v20.6h3.4v3.8H156v-3.8h3.5V68H156v-3.8h12.9l4.6 14.5c1 3.4 1.4 4.7 2 8l.5-2.8 1.7-5.5 4.4-14.2h12.8V68h-3.5v20.6h3.5v3.9h-12.4v-4h3.3V68.2l-8.1 24.5h-5.3l-8-24.5ZM93.7 116c4.3-8.2 1-16.9-4.7-23.8l-3-3.5 4.7.8c8.8 1.5 18 0 22.9-7.9 13.2 1.8 16.3 21.2 17 32.8-10.4 5.2-28.8 12.3-37 1.6Zm-5.5-2.8c-11.1.4-17.4 10.9-19.8 21.2C66 124 59.7 113.5 48.5 113c-2.2-6.5.6-12.8 4.7-18.3A70.5 70.5 0 0 1 68.3 82c4.8 3.1 10.8 7.7 15.2 13 4 5.4 7 11.7 4.6 18.2Zm-45 2.8c-8.2 10.7-26.6 3.6-37-1.6.7-11.6 3.8-31 17-32.8 5 7.9 14.2 9.4 23 8l4.6-1a47 47 0 0 0-3 3.7c-5.7 6.8-9 15.6-4.6 23.7ZM19.8 50.5c10.2 3 22.4 2.9 28.3-6.6C55 45.2 59 50.8 61.7 57.1c2.3 6.4 3.2 13.9 3.6 19.5-5 2.6-12 5.6-18.8 6.7-6.8.8-13.6.1-18-5 5-10-.8-20.6-8.6-27.8ZM68.3 6.6c9.7 6.4 25 18.8 19.9 31.2-9.3.3-15.2 7.5-18.3 15.9L68.3 58c-.4-1.5-1-3-1.6-4.5-3-8.3-9-15.5-18.3-15.8-5-12.4 10.2-24.8 20-31.2m48.3 43.9c-7.7 7.2-13.7 17.9-8.5 27.7-4.4 5.2-11.3 6-18 5.1a70.7 70.7 0 0 1-18.8-6.7c.3-5.6 1.2-13.1 3.6-19.5 2.7-6.3 6.7-12 13.4-13.2 6 9.5 18.2 9.7 28.3 6.6Zm19.8 64.7c-.6-12-2.7-26-11.8-34.8a19 19 0 0 0-11-4.9c-3.5-9.8 4.8-19.3 11.5-26 2-2.1 4.2-4.1 6.4-6l-1.3-2.4c-2.8 1-5.6 1.8-8.4 2.5-9.3 2.4-21.6 5-28.3-3.1a19 19 0 0 0 1.2-12c-3-12.2-14.2-21-24.3-27.6-.6-.4-1.4-.8-2.2-.8-.8 0-1.5.4-2.2.8C56.1 7.5 45 16.3 42 28.6c-1 3.9-.5 8.2 1.2 11.9-6.7 8-19 5.5-28.3 3.1C12 43 9.2 42 6.4 41.1L5 43.4l6.5 6c6.6 6.8 15 16.3 11.4 26.1-4 .4-8 2.2-11 5C2.8 89.1.8 103.2.1 115.1c0 .8 0 1.7.4 2.4.4.6 1.2 1.1 1.8 1.5 10.8 5.4 23.9 10.7 36 7.2a19 19 0 0 0 9.8-7C58.4 121 62.4 133 65 142.1l2 8.5h2.7c.6-2.9 1.2-5.7 2-8.5 2.5-9.2 6.6-21.2 16.9-23a19 19 0 0 0 9.7 7c12.2 3.5 25.3-1.7 36-7.2.7-.3 1.4-.8 1.8-1.5.4-.6.5-1.5.4-2.3Z"/></svg>