<?xml version="1.0" encoding="UTF-8" standalone="no"?>
<svg enable-background="new 0 0 142.468 49.56" height="173.93401" viewBox="0 0 500.00057 173.934" width="500.00058" xmlns="http://www.w3.org/2000/svg">
   <rect fill="#ed1c24" height="162.70691" stroke-width="3.50956416" width="106.66618" y="4.1728745"/>
   <g transform="matrix(3.5095642 0 0 3.5095642 -.00000859 0)">
      <path d="m32.64 31.491c0 0 5.32 3.866 2.841 7.95 0 0-1.67 2.643-5.07-1.31 0 0-2.091 3.77-5.139 1.293 0 0-2.936-3.155 3.142-8.397 0 0-11.896 5.849-5.173 12.237 0 0 4.691 3.35 7.179-1.753 0 0 4.424 5.919 7.696.951-.001-.001 4.724-5.716-5.476-10.971" fill="#ed1c24"/>
      <path d="m24.188 18.859c0 0-6.542-.49-6.542-5.268 0 0 .026-3.146 4.984-1.566 0 0-.19-4.318 3.701-3.823 0 0 4.14 1.124 1.687 8.809 0 0 7.093-11.269-1.962-13.165 0 0-5.725-.347-5.191 5.307 0 0-6.843-2.717-7.05 3.246 0-.001-1.05 7.363 10.373 6.46" fill="#fff"/>
      <path d="m38.029 25.447c0 0 4.863-4.458 8.289-1.163 0 0 2.247 2.205-2.307 4.73 0 0 3.237 2.829.198 5.35 0 0-3.667 2.226-7.497-4.855 0 0 3.228 12.953 10.819 7.654 0 0 4.202-3.949-.232-7.455 0 0 6.662-3.142 2.522-7.403.001 0-4.579-5.832-11.792 3.142" fill="#ed1c24"/>
      <path d="m32.675 15.522c0 0-1.11-6.509 3.477-7.659 0 0 3.047-.729 2.738 4.513 0 0 4.105-1.241 4.553 2.69 0 0-.086 4.313-8.065 3.763 0 0 12.55 4.217 12.197-5.077 0 0-1.034-5.703-6.344-3.814 0 0 .938-7.346-4.838-6.119 0 0-7.351.76-3.718 11.703" fill="#ed1c24"/>
      <path d="m25.031 25.125c0 0-.491 6.604-5.217 6.604 0 0-3.125-.039-1.566-5.046 0 0-4.278.195-3.805-3.728 0 0 1.137-4.169 8.738-1.696 0 0-11.165-7.156-13.033 1.974 0 0-.353 5.776 5.25 5.238 0 0-2.677 6.9 3.237 7.104 0-.001 7.3 1.059 6.396-10.45" fill="#fff"/>
      <path d="m4.579 7.473c0 .733-.594 1.319-1.317 1.319-.723 0-1.308-.586-1.308-1.319 0-.738.584-1.324 1.308-1.324.723 0 1.317.585 1.317 1.324" fill="#fff"/>
      <path d="m6.653 10.085c0 .468-.387.855-.852.855-.473 0-.861-.387-.861-.855 0-.473.388-.859.861-.859.465 0 .852.386.852.859" fill="#fff"/>
      <path d="m8.314 7.499c0 .478-.378.855-.852.855-.464 0-.844-.377-.844-.855 0-.468.379-.859.844-.859.474 0 .852.39.852.859" fill="#fff"/>
      <path d="m9.614 11.035c0 .469-.387.855-.843.855-.481 0-.861-.386-.861-.855 0-.481.379-.859.861-.859.456 0 .843.378.843.859" fill="#fff"/>
      <path d="m11.276 8.436c0 .482-.371.859-.843.859-.482 0-.853-.377-.853-.859 0-.477.37-.864.853-.864.472 0 .843.387.843.864" fill="#fff"/>
      <path d="m12.283 12.099c0 .481-.378.868-.844.868-.481 0-.861-.387-.861-.868 0-.469.379-.842.861-.842.465-.001.844.373.844.842" fill="#fff"/>
      <path d="m13.944 9.187c0 .482-.379.873-.844.873-.465 0-.852-.391-.852-.873 0-.469.387-.854.852-.854.465-.001.844.385.844.854" fill="#fff"/>
      <path d="m7.703 9.113c0 0 16.234 3.085 23.75 16.186 0 0 .275 1.41-1.016.286 0 0-6.309-10.115-15.958-13.76-.001 0-3.9-2.057-6.776-2.712" fill="#fff"/>
      <path d="m76.548 7.555v16.798h-6.988v-11.843c0-1.145-.027-2.13-.078-2.938-.06-.803-.207-1.471-.43-1.974-.232-.499-.594-.876-1.059-1.116-.456-.225-1.137-.347-1.988-.347-.68 0-1.342.161-1.98.456-.654.304-1.23.624-1.755.963v16.798h-6.99v-23.696h6.99v2.612c1.196-1.024 2.358-1.823 3.443-2.4 1.092-.577 2.306-.868 3.64-.868 1.429 0 2.694.347 3.795 1.05 1.094.694 1.947 1.718 2.565 3.063 1.395-1.276 2.746-2.283 4.063-3.011 1.318-.733 2.609-1.102 3.857-1.102 2.35 0 4.14.768 5.354 2.309 1.213 1.528 1.825 3.736 1.825 6.618v15.426h-6.99v-11.843c0-1.167-.026-2.156-.069-2.942-.043-.816-.18-1.466-.413-1.97-.215-.499-.559-.876-1.042-1.116-.482-.225-1.162-.347-2.014-.347-.585 0-1.145.113-1.704.334-.559.223-1.231.578-2.032 1.086" fill="#010101"/>
      <path d="m116.171 16.846c0 2.439-1.016 4.413-3.021 5.915-2.014 1.492-4.778 2.248-8.272 2.248-1.945 0-3.693-.2-5.268-.585-1.576-.4-2.849-.834-3.796-1.311v-6.249h.629c.353.273.766.556 1.222.873.457.316 1.111.659 1.946 1.028.723.32 1.541.594 2.453.833.921.238 1.902.347 2.944.347 1.369 0 2.384-.166 3.056-.495.654-.334.973-.821.973-1.472 0-.577-.181-.989-.577-1.253-.387-.256-1.119-.509-2.212-.755-.517-.122-1.213-.247-2.091-.399-.887-.156-1.688-.33-2.419-.546-1.972-.556-3.443-1.445-4.39-2.621-.965-1.189-1.438-2.677-1.438-4.443 0-2.282.99-4.17 2.979-5.689 1.979-1.511 4.691-2.27 8.117-2.27 1.636 0 3.193.183 4.682.542 1.49.352 2.652.738 3.487 1.146v5.992h-.594c-1.033-.772-2.212-1.401-3.538-1.878-1.316-.504-2.659-.734-4.011-.734-1.119 0-2.074.169-2.84.503-.766.338-1.153.816-1.153 1.428 0 .572.172.998.525 1.292.353.299 1.171.599 2.453.894.715.139 1.481.3 2.299.447.817.143 1.644.334 2.47.564 1.833.512 3.194 1.333 4.063 2.452.882 1.119 1.322 2.516 1.322 4.196" fill="#010101"/>
      <path d="m142.468 24.353h-6.999v-2.617c-1.283 1.068-2.47 1.879-3.538 2.439-1.066.552-2.341.833-3.831.833-2.393 0-4.251-.756-5.535-2.265-1.3-1.497-1.945-3.719-1.945-6.666v-15.421h6.99v11.75c0 1.202.043 2.188.103 2.986.069.802.241 1.454.5 1.983.241.512.611.897 1.102 1.136.499.23 1.205.352 2.091.352.594 0 1.249-.121 1.979-.352.724-.239 1.42-.599 2.083-1.059v-16.796h6.999v23.697z" fill="#010101"/>
      <path d="m59.634 36.781v3.35h-1.506v-2.365c0-.239-.008-.429-.017-.595-.008-.156-.042-.286-.094-.39-.043-.1-.129-.173-.224-.226-.104-.039-.25-.069-.431-.069-.146 0-.292.034-.43.095-.138.061-.267.122-.37.2v3.35h-1.523v-4.739h1.523v.521c.25-.204.499-.355.74-.478.233-.121.491-.169.775-.169.318 0 .594.07.826.204.241.139.421.343.56.621.301-.26.585-.465.878-.612.276-.143.56-.213.835-.213.5 0 .887.148 1.153.452.267.308.388.755.388 1.328v3.085h-1.507v-2.365c0-.239 0-.429-.009-.595-.017-.161-.044-.286-.104-.39-.043-.1-.112-.173-.224-.226-.095-.039-.241-.069-.431-.069-.12 0-.25.03-.37.069-.111.039-.257.117-.438.226" fill="#010101"/>
      <path d="m67.993 39.632c-.078.057-.181.13-.301.226-.121.083-.233.152-.345.2-.154.069-.301.117-.456.148-.155.039-.335.048-.525.048-.448 0-.818-.135-1.119-.413-.301-.277-.448-.633-.448-1.067 0-.352.069-.625.233-.846.154-.217.36-.4.645-.521.284-.126.628-.213 1.033-.273.422-.053.843-.087 1.292-.117v-.03c0-.257-.104-.435-.319-.535-.214-.108-.516-.147-.938-.147-.258 0-.517.04-.792.13-.292.096-.481.156-.611.2h-.138v-1.133c.146-.052.413-.096.783-.152.345-.065.715-.091 1.077-.091.851 0 1.463.13 1.859.399.378.26.568.677.568 1.25v3.225h-1.498zm0-.742v-.977c-.207.014-.43.03-.655.065-.25.03-.43.065-.551.104-.146.048-.266.113-.344.213-.077.087-.12.204-.12.352 0 .104.009.183.017.234.026.065.069.125.138.187.069.047.138.091.224.122.095.026.232.035.422.035.154 0 .301-.026.457-.083.162-.061.291-.148.412-.252" fill="#010101"/>
      <path d="m76.618 40.131h-1.507v-2.349c0-.19-.009-.386-.035-.577-.017-.183-.052-.33-.104-.417-.051-.104-.12-.182-.241-.226-.103-.047-.249-.078-.447-.078-.137 0-.275.031-.414.07-.146.047-.292.121-.456.226v3.35h-1.514v-4.739h1.516v.52c.267-.212.525-.364.758-.477.25-.121.525-.169.826-.169.516 0 .904.147 1.196.434.284.304.422.751.422 1.346z" fill="#010101"/>
      <path d="m81.886 39.632c-.086.057-.189.13-.31.226-.111.083-.232.152-.335.2-.146.069-.293.117-.457.148-.163.039-.344.048-.534.048-.438 0-.809-.135-1.11-.413-.31-.277-.456-.633-.456-1.067 0-.352.078-.625.224-.846.155-.217.379-.4.646-.521.284-.126.637-.213 1.05-.273.404-.053.843-.087 1.291-.117v-.03c0-.257-.112-.435-.318-.535-.215-.108-.534-.147-.947-.147-.24 0-.507.04-.792.13-.284.096-.491.156-.611.2h-.129v-1.133c.155-.052.422-.096.774-.152.345-.065.714-.091 1.076-.091.853 0 1.473.13 1.851.399.378.26.568.677.568 1.25v3.225h-1.48v-.501zm0-.742v-.977c-.215.014-.43.03-.671.065-.232.03-.413.065-.534.104-.155.048-.267.113-.353.213-.078.087-.112.204-.112.352 0 .104 0 .183.025.234.009.065.069.125.129.187.061.047.138.091.233.122.086.026.215.035.404.035.163 0 .31-.026.464-.083.156-.061.294-.148.415-.252" fill="#010101"/>
      <path d="m90.355 39.584c0 .452-.06.82-.189 1.12-.121.303-.302.542-.526.72-.215.178-.49.3-.809.377-.328.074-.68.113-1.093.113-.327 0-.646-.013-.964-.057-.31-.039-.584-.091-.818-.143v-1.189h.181c.181.079.405.147.663.204.275.062.516.087.714.087.284 0 .508-.026.689-.074.171-.053.3-.126.396-.222.086-.095.146-.204.189-.347.043-.139.052-.313.052-.508v-.091c-.164.151-.378.278-.595.355-.223.087-.464.13-.74.13-.655 0-1.171-.2-1.523-.591-.353-.403-.533-1.015-.533-1.822 0-.395.06-.734.171-1.02.112-.288.267-.53.457-.743.181-.195.404-.355.68-.464.268-.108.542-.157.826-.157.25 0 .482.027.689.083.215.064.405.151.568.255l.06-.212h1.455zm-1.514-.946v-2.152c-.086-.035-.189-.069-.31-.083-.121-.026-.232-.034-.335-.034-.396 0-.689.117-.896.346-.198.23-.301.556-.301.956 0 .459.086.785.258.954.172.183.422.278.749.278.155 0 .302-.026.448-.074.146-.052.275-.113.387-.191" fill="#010101"/>
      <path d="m97.44 38.043h-3.452c.017.369.164.651.422.851.257.2.636.295 1.136.295.327 0 .637-.056.929-.169.302-.117.534-.243.714-.381h.155v1.223c-.334.147-.644.238-.954.308-.301.056-.629.082-.999.082-.946 0-1.67-.204-2.178-.638-.49-.425-.749-1.037-.749-1.827 0-.781.24-1.393.714-1.857.474-.451 1.127-.677 1.962-.677.758 0 1.334.191 1.721.577.379.391.577.951.577 1.675v.538zm-1.506-.897c0-.313-.086-.551-.224-.712-.155-.165-.378-.239-.689-.239-.292 0-.533.074-.723.221-.18.156-.292.404-.31.729h1.946z" fill="#010101"/>
      <path d="m104.128 36.781v3.35h-1.506v-2.365c0-.239-.017-.429-.025-.595-.009-.156-.034-.286-.095-.39-.051-.1-.129-.173-.223-.226-.104-.039-.25-.069-.439-.069-.137 0-.275.034-.421.095-.146.061-.267.122-.379.2v3.35h-1.515v-4.739h1.515v.521c.267-.204.508-.355.749-.478.232-.121.491-.169.775-.169.318 0 .585.07.826.204.232.139.421.343.559.621.302-.26.595-.465.87-.612.293-.143.56-.213.844-.213.5 0 .887.148 1.153.452.267.308.396.755.396 1.328v3.085h-1.506v-2.365c0-.239-.009-.429-.017-.595-.017-.161-.043-.286-.095-.39-.051-.1-.121-.173-.215-.226-.111-.039-.258-.069-.448-.069-.121 0-.25.03-.361.069-.124.039-.27.117-.442.226" fill="#010101"/>
      <path d="m114.259 38.043h-3.451c.025.369.164.651.422.851.258.2.646.295 1.136.295.327 0 .637-.056.929-.169.301-.117.525-.243.706-.381h.172v1.223c-.353.147-.662.238-.964.309-.302.056-.637.082-.999.082-.947 0-1.67-.204-2.169-.638-.507-.425-.749-1.037-.749-1.827 0-.781.233-1.393.707-1.857.473-.451 1.135-.677 1.962-.677.766 0 1.334.191 1.721.577.379.391.577.951.577 1.675zm-1.497-.897c0-.313-.077-.551-.241-.712-.146-.165-.378-.239-.688-.239-.284 0-.525.074-.715.221-.18.156-.292.404-.31.729h1.954z" fill="#010101"/>
      <path d="m121.085 40.131h-1.523v-2.349c0-.19-.009-.386-.026-.577-.025-.183-.06-.33-.104-.417-.06-.104-.137-.182-.249-.226-.104-.047-.258-.078-.448-.078-.138 0-.275.031-.414.07-.138.047-.293.121-.456.226v3.35h-1.515v-4.739h1.515v.52c.267-.212.517-.364.767-.477.24-.121.524-.169.817-.169.517 0 .904.147 1.196.434.285.304.439.751.439 1.346v3.086z" fill="#010101"/>
      <path d="m126.5 40.096c-.172.035-.345.074-.525.095-.181.018-.396.031-.663.031-.586 0-1.024-.122-1.309-.36-.284-.234-.439-.647-.439-1.225v-2.222h-.611v-1.023h.611v-1.354h1.524v1.354h1.412v1.023h-1.412v1.688.435c0 .117.034.234.069.338.043.091.111.17.207.226.103.065.249.087.43.087.077 0 .181-.013.31-.043.121-.044.207-.065.267-.1h.129z" fill="#010101"/>
      <path d="m139.214 40.131h-1.997l-.577-.526c-.285.217-.586.382-.929.491-.336.109-.681.173-1.068.173-.767 0-1.368-.187-1.808-.546-.438-.356-.663-.83-.663-1.402 0-.239.043-.447.112-.621.06-.182.155-.343.275-.481.095-.139.233-.256.37-.351.146-.104.284-.187.414-.261-.121-.079-.233-.174-.344-.273-.104-.091-.189-.191-.267-.308-.078-.114-.138-.222-.181-.353-.034-.143-.07-.294-.07-.455 0-.2.053-.377.129-.547.087-.186.216-.338.379-.473.172-.152.404-.26.697-.347.292-.092.637-.135 1.042-.135.327 0 .628.03.904.104.267.07.482.162.663.283.172.117.301.272.396.43.095.169.129.352.129.542 0 .13-.008.274-.051.425-.043.156-.103.304-.207.443-.103.147-.25.283-.421.404-.189.134-.43.243-.732.338l1.266 1.133v-1.359h1.575v.473c0 .338-.06.651-.18.955-.095.304-.25.547-.448.75l1.593 1.415v.079zm-3.315-1.25l-1.79-1.588c-.051.052-.112.152-.19.3-.078.138-.12.3-.12.477 0 .191.042.352.12.49.069.135.156.244.268.334.103.091.241.161.378.204.129.043.267.07.396.07.189 0 .362-.022.509-.066.146-.025.292-.104.429-.221m-.628-3.615c0-.147-.026-.269-.069-.351-.043-.092-.103-.148-.163-.2-.069-.039-.147-.079-.207-.087-.077-.004-.137-.012-.181-.012-.051 0-.103.008-.154.012-.06.008-.138.048-.207.087-.051.051-.103.104-.146.178-.061.082-.078.182-.078.303 0 .169.078.33.207.482.138.161.31.317.516.478.164-.117.267-.252.361-.408.079-.152.121-.312.121-.482" fill="#010101"/>
      <path d="m59.135 46.319c0 .486-.215.881-.655 1.176-.438.304-1.033.46-1.79.46-.421 0-.801-.048-1.136-.122-.344-.083-.611-.169-.818-.261v-1.25h.129c.086.048.172.109.258.179.112.061.249.125.43.205.155.064.335.112.534.16.189.043.413.074.627.074.302 0 .517-.039.664-.104.137-.065.215-.166.215-.292 0-.112-.043-.199-.121-.25-.094-.052-.25-.096-.482-.152-.12-.017-.266-.047-.464-.079-.19-.029-.354-.064-.517-.108-.421-.117-.749-.295-.947-.525-.207-.243-.311-.534-.311-.885 0-.46.215-.838.646-1.138.421-.308 1.007-.459 1.756-.459.344 0 .68.039 1.008.109.327.077.568.151.757.225v1.207h-.129c-.232-.152-.474-.286-.757-.374-.293-.104-.586-.147-.878-.147-.241 0-.448.03-.611.096-.164.065-.25.165-.25.29 0 .114.035.201.112.257.078.051.25.116.534.182.146.026.318.057.5.087.182.03.353.061.534.112.396.096.688.26.87.49.189.229.292.503.292.837" fill="#010101"/>
      <path d="m62.578 47.938c-.404 0-.775-.043-1.119-.139-.335-.096-.637-.251-.887-.46-.25-.2-.439-.464-.576-.772-.146-.317-.198-.673-.198-1.098 0-.438.069-.82.207-1.146.146-.312.362-.582.611-.798.258-.195.551-.342.886-.434.327-.087.681-.143 1.025-.143.327 0 .628.039.895.108.267.074.534.165.757.273v1.293h-.215c-.052-.048-.129-.114-.199-.183-.085-.057-.188-.126-.318-.191-.103-.057-.232-.109-.37-.156-.146-.043-.301-.057-.474-.057-.413 0-.714.13-.93.382-.215.265-.318.611-.318 1.05 0 .456.103.808.327 1.033.215.248.542.36.947.36.189 0 .353-.017.499-.064.163-.044.293-.091.378-.152.095-.057.181-.122.258-.179.07-.061.147-.129.199-.182h.215v1.297c-.224.113-.482.2-.74.261-.266.075-.55.097-.86.097" fill="#010101"/>
      <path d="m66.728 42.409h-1.593v-1.164h1.593zm-.043 5.407h-1.498v-4.735h1.498z" fill="#010101"/>
      <path d="m72.736 45.733h-3.461c.035.369.172.66.431.855.258.195.637.287 1.145.287.31 0 .62-.057.92-.169.302-.113.542-.24.715-.369h.163v1.215c-.336.143-.663.234-.964.303-.31.062-.637.083-1.007.083-.938 0-1.669-.199-2.169-.638-.5-.425-.749-1.037-.749-1.822 0-.781.241-1.401.723-1.857.474-.451 1.12-.686 1.954-.686.758 0 1.334.199 1.713.585.387.391.585.946.585 1.675v.538zm-1.498-.89c-.009-.317-.086-.556-.233-.72-.154-.156-.378-.238-.68-.238-.301 0-.534.073-.732.229-.18.152-.292.396-.318.729z" fill="#010101"/>
      <path d="m78.511 47.816h-1.506v-2.348c0-.191-.008-.387-.025-.573-.018-.191-.052-.338-.095-.421-.068-.108-.146-.177-.249-.226-.104-.047-.258-.064-.448-.064-.147 0-.284.017-.431.06-.129.053-.292.113-.448.212v3.359h-1.515v-4.735h1.515v.521c.268-.213.518-.369.776-.478.249-.117.524-.177.826-.177.491 0 .896.147 1.179.442.285.308.422.751.422 1.341v3.087z" fill="#010101"/>
      <path d="m82.35 47.938c-.413 0-.783-.043-1.119-.139-.344-.096-.628-.251-.886-.46-.25-.2-.438-.464-.585-.772-.128-.317-.207-.673-.207-1.098 0-.438.086-.82.224-1.146.146-.312.362-.582.611-.798.258-.195.56-.342.886-.434.328-.087.672-.143 1.025-.143.327 0 .628.039.895.108.275.074.517.165.766.273v1.293h-.224c-.061-.048-.129-.114-.207-.183-.085-.057-.189-.126-.31-.191-.111-.057-.24-.109-.378-.156-.129-.043-.292-.057-.474-.057-.404 0-.705.13-.92.382-.216.265-.328.611-.328 1.05 0 .456.112.808.336 1.033.215.248.534.36.947.36.189 0 .353-.017.499-.064.155-.044.293-.091.388-.152.103-.057.18-.122.25-.179.069-.061.137-.129.198-.182h.224v1.297c-.25.113-.491.2-.749.261-.259.075-.552.097-.862.097" fill="#010101"/>
      <path d="m89.582 45.733h-3.452c.017.369.155.66.413.855.258.195.637.287 1.145.287.318 0 .628-.057.921-.169.301-.113.542-.24.715-.369h.163v1.215c-.336.143-.654.234-.956.303-.31.062-.645.083-1.007.083-.947 0-1.662-.199-2.169-.638-.491-.425-.758-1.037-.758-1.822 0-.781.25-1.401.723-1.857.474-.451 1.119-.686 1.954-.686.767 0 1.334.199 1.722.585.387.391.585.946.585 1.675v.538zm-1.507-.89c0-.317-.086-.556-.233-.72-.146-.156-.378-.238-.697-.238-.275 0-.525.073-.706.229-.189.152-.292.396-.31.729z" fill="#010101"/>
      <path d="m98.258 47.816h-1.515v-.516c-.284.208-.525.373-.767.485-.232.108-.507.169-.835.169-.507 0-.921-.156-1.188-.46-.275-.299-.422-.742-.422-1.328v-3.085h1.506v2.348c0 .248.009.443.026.604.009.152.052.286.103.386.061.104.138.182.25.226.112.057.249.078.438.078.138 0 .284-.021.431-.078.155-.044.31-.117.456-.209v-3.354h1.515v4.734z" fill="#010101"/>
      <path d="m104.403 47.816h-1.515v-2.348c0-.191-.009-.387-.035-.573-.017-.191-.051-.338-.103-.421-.042-.108-.129-.177-.241-.226-.104-.047-.258-.064-.448-.064-.137 0-.275.017-.414.06-.146.053-.292.113-.464.212v3.359h-1.506v-4.735h1.506v.521c.267-.213.534-.369.774-.478.25-.117.517-.177.818-.177.507 0 .904.147 1.196.442.284.308.43.751.43 1.341v3.087z" fill="#010101"/>
      <path d="m107.339 42.409h-1.601v-1.164h1.601zm-.043 5.407h-1.516v-4.735h1.516z" fill="#010101"/>
      <polygon fill="#010101" points="110.808 46.336 111.893 43.082 113.451 43.082 111.635 47.816 109.93 47.816 108.122 43.082 109.715 43.082"/>
      <path d="m118.908 45.733h-3.443c.017.369.163.66.421.855.25.195.637.287 1.136.287.319 0 .637-.057.938-.169.284-.113.525-.24.698-.369h.172v1.215c-.344.143-.663.234-.964.303-.31.062-.637.083-1.007.083-.947 0-1.661-.199-2.169-.638-.5-.425-.749-1.037-.749-1.822 0-.781.232-1.401.706-1.857.481-.451 1.127-.686 1.971-.686.757 0 1.342.199 1.704.585.396.391.586.946.586 1.675zm-1.489-.89c-.009-.317-.086-.556-.241-.72-.146-.156-.371-.238-.697-.238-.284 0-.517.073-.707.229-.188.152-.292.396-.317.729z" fill="#010101"/>
      <path d="m123.384 44.531h-.129c-.069-.022-.172-.035-.311-.057-.146-.009-.266-.017-.353-.017-.215 0-.413.017-.577.043-.164.03-.344.073-.534.147v3.168h-1.506v-4.734h1.506v.689c.336-.29.621-.473.87-.564.241-.099.474-.143.672-.143h.189c.06.018.121.018.172.018v1.45z" fill="#010101"/>
      <path d="m128.325 46.319c0 .486-.224.881-.654 1.176-.439.304-1.033.46-1.791.46-.413 0-.792-.048-1.136-.122-.344-.083-.62-.169-.826-.261v-1.25h.146c.06.048.154.109.258.179.095.061.241.125.421.205.155.064.335.112.542.16.189.043.396.074.628.074.284 0 .508-.039.655-.104.137-.065.215-.166.215-.292 0-.112-.043-.199-.129-.25-.086-.052-.25-.096-.474-.152-.112-.017-.267-.047-.456-.079-.189-.029-.37-.064-.525-.108-.421-.117-.741-.295-.938-.525-.215-.243-.327-.534-.327-.885 0-.46.223-.838.646-1.138.43-.308 1.015-.459 1.765-.459.344 0 .68.039 1.007.109.318.077.576.151.757.225v1.207h-.138c-.215-.152-.473-.286-.757-.374-.276-.104-.577-.147-.869-.147-.241 0-.448.03-.611.096-.164.065-.25.165-.25.29 0 .114.035.201.112.257.078.051.25.116.525.182.155.026.327.057.5.087.181.03.361.061.542.112.396.096.688.26.878.49.181.229.284.503.284.837" fill="#010101"/>
      <path d="m130.873 42.409h-1.601v-1.164h1.601zm-.043 5.407h-1.515v-4.735h1.515z" fill="#010101"/>
      <path d="m135.254 47.777c-.155.039-.335.077-.516.1-.172.021-.396.039-.664.039-.584 0-1.015-.13-1.316-.365-.276-.239-.422-.651-.422-1.228v-2.209h-.611v-1.032h.611v-1.358h1.507v1.358h1.412v1.032h-1.412v1.684c0 .156.009.304.009.421.017.138.025.247.068.342.043.101.104.178.215.235.078.057.241.091.431.091.068 0 .172-.021.302-.052.129-.039.215-.065.266-.096h.121v1.038z" fill="#010101"/>
      <polygon fill="#010101" points="137.397 47.786 135.564 43.082 137.156 43.082 138.275 46.141 139.343 43.082 140.9 43.082 138.284 49.56 136.648 49.56"/>
      <path d="m27.277 31.778c0 0-9.485 5.572-4.33 11.04 0 0 4.27 3.971 7.471-1.307l-.042-3.25c0 0-2.187 4.083-5.243 1.202.001 0-2.383-1.975 2.144-7.685" fill="#fff"/>
      <rect fill="#e9262a" height=".70300001" width="86.947998" x="55.262001" y="30.016001"/>
   </g>
</svg>
