<?xml version="1.0" encoding="UTF-8" standalone="no"?>
<!-- Created with Inkscape (http://www.inkscape.org/) -->

<svg
   xmlns:dc="http://purl.org/dc/elements/1.1/"
   xmlns:cc="http://creativecommons.org/ns#"
   xmlns:rdf="http://www.w3.org/1999/02/22-rdf-syntax-ns#"
   xmlns:svg="http://www.w3.org/2000/svg"
   xmlns="http://www.w3.org/2000/svg"
   xmlns:sodipodi="http://sodipodi.sourceforge.net/DTD/sodipodi-0.dtd"
   xmlns:inkscape="http://www.inkscape.org/namespaces/inkscape"
   width="39.6875mm"
   height="23.991964mm"
   viewBox="0 0 39.6875 23.991964"
   version="1.1"
   id="svg3718"
   inkscape:version="0.92.1 r15371"
   sodipodi:docname="nagoya.svg">
  <defs
     id="defs3712" />
  <sodipodi:namedview
     id="base"
     pagecolor="#ffffff"
     bordercolor="#666666"
     borderopacity="1.0"
     inkscape:pageopacity="0.0"
     inkscape:pageshadow="2"
     inkscape:zoom="2.8"
     inkscape:cx="125.61975"
     inkscape:cy="10.160387"
     inkscape:document-units="mm"
     inkscape:current-layer="layer1"
     showgrid="false"
     fit-margin-top="0"
     fit-margin-left="0"
     fit-margin-right="0"
     fit-margin-bottom="0"
     inkscape:window-width="1600"
     inkscape:window-height="838"
     inkscape:window-x="-8"
     inkscape:window-y="-8"
     inkscape:window-maximized="1" />
  <metadata
     id="metadata3715">
    <rdf:RDF>
      <cc:Work
         rdf:about="">
        <dc:format>image/svg+xml</dc:format>
        <dc:type
           rdf:resource="http://purl.org/dc/dcmitype/StillImage" />
        <dc:title></dc:title>
      </cc:Work>
    </rdf:RDF>
  </metadata>
  <g
     inkscape:label="Layer 1"
     inkscape:groupmode="layer"
     id="layer1"
     transform="translate(-70.870535,-116.42664)">
    <g
       id="g526"
       transform="matrix(1.1062832,0,0,-1.1062832,89.480969,122.76786)">
      <path
         d="m 0,0 -0.508,-1.891 c -0.101,-0.375 -0.31,-0.642 -0.747,-0.642 h -6.687 c -0.288,0 -0.383,-0.158 -0.454,-0.422 l -0.981,-3.654 c -0.076,-0.291 -0.305,-0.459 -0.721,-0.459 -0.416,0 -0.532,0.168 -0.455,0.459 l 1.195,4.466 c 0.083,0.301 0.416,0.536 0.739,0.536 h 2.681 c 0.215,0 0.309,0.064 0.352,0.228 l 0.198,0.744 c 0.057,0.209 -0.073,0.274 -0.234,0.274 h -2.896 c -0.306,0 -0.399,0.14 -0.311,0.468 0.078,0.293 0.252,0.456 0.558,0.456 h 7.876 C 0.022,0.563 0.103,0.385 0,0 M -1.127,-4.133 -1.645,-6.105 C -1.792,-6.656 -2.18,-6.953 -2.697,-6.953 h -4.967 c -0.583,0 -0.731,0.215 -0.591,0.738 l 0.542,2.061 c 0.131,0.486 0.445,0.736 1.012,0.736 h 5.033 c 0.669,0 0.674,-0.221 0.541,-0.715 m 1.393,8.149 c -1.527,0 -2.85,-0.684 -5.045,-2.346 -0.264,1.939 -0.932,2.338 -1.974,2.338 -1.007,0 -2.505,-0.006 -6.853,-5.988 l 2.546,-0.024 c 0,0 -1.758,-6.574 -2.12,-7.928 h 4.784 c 0.128,0.506 0.438,1.729 0.438,1.729 h 2.757 c 0,0 -0.325,-1.287 -0.439,-1.729 h 4.747 C -0.646,-9.021 2.053,0.984 2.053,0.984 2.642,3.215 1.411,4.016 0.266,4.016 m -1.825,-4.377 h -2.28 c -0.141,0 -0.261,-0.071 -0.299,-0.205 L -4.363,-1.41 c -0.037,-0.149 0.024,-0.197 0.189,-0.197 h 2.281 c 0.19,0 0.264,0.086 0.3,0.218 l 0.214,0.791 c 0.043,0.16 -0.029,0.237 -0.18,0.237 m -1.068,-3.936 h -3.644 c -0.23,0 -0.402,-0.152 -0.443,-0.308 l -0.258,-1.002 c -0.059,-0.221 -0.002,-0.389 0.312,-0.389 h 3.655 c 0.163,0 0.278,0.1 0.346,0.351 l 0.257,1.006 c 0.056,0.209 0.067,0.342 -0.225,0.342 M 12.577,-5.414 H 9.655 c -0.232,0 -0.274,0.09 -0.218,0.301 0.055,0.211 0.377,1.418 0.377,1.418 0.085,0.32 -0.103,0.507 -0.584,0.507 -0.48,0 -0.788,-0.187 -0.874,-0.507 0,0 -0.32,-1.207 -0.374,-1.409 -0.053,-0.197 -0.226,-0.31 -0.411,-0.31 H 4.557 c -0.452,0 -0.696,-0.316 -0.762,-0.572 l -1.317,-4.907 c -0.076,-0.277 0.031,-0.488 0.536,-0.488 0.504,0 0.718,0.197 0.796,0.492 l 1.084,4.034 c 0.058,0.22 0.21,0.341 0.401,0.341 h 0.644 c 0.166,0 0.238,-0.099 0.181,-0.32 -0.059,-0.221 -1.09,-4.059 -1.09,-4.059 -0.075,-0.277 0.013,-0.486 0.538,-0.486 0.524,0 0.721,0.209 0.796,0.486 l 1.095,4.08 c 0.069,0.266 0.244,0.299 0.475,0.299 h 0.858 c 0.21,0 0.292,-0.066 0.222,-0.32 -0.07,-0.254 -1.09,-4.059 -1.09,-4.059 -0.074,-0.277 0.123,-0.486 0.536,-0.486 0.416,0 0.724,0.209 0.799,0.486 0,0 1.019,3.805 1.086,4.047 0.066,0.242 0.199,0.332 0.408,0.332 h 0.576 c 0.227,0 0.298,-0.09 0.231,-0.341 -0.072,-0.266 -1.086,-4.04 -1.086,-4.04 -0.072,-0.277 0.14,-0.486 0.54,-0.486 0.397,0 0.72,0.209 0.795,0.486 l 1.322,4.926 c 0.103,0.389 0.07,0.555 -0.554,0.555 m -3.095,-9.498 c -1.185,0 -2.02,0.557 -2.25,1.783 -1.627,-1.193 -2.975,-1.789 -4.418,-1.789 -1.847,0 -2.973,1.158 -2.316,3.639 L 3.423,-0.43 H 9.23 L 8.788,-2.07 h 1.413 l 0.438,1.588 h 5.716 l -2.03,-7.555 h 2.863 c -3.908,-5.401 -5.657,-6.875 -7.706,-6.875 m -9.858,4.303 h -6.132 l 0.441,1.73 h -1.366 l -0.439,-1.73 h -6.189 l 2.125,7.939 h -2.988 c 4.863,6.904 6.614,7.352 8.171,7.352 1.248,0 2.134,-0.565 2.374,-1.858 2.131,1.508 3.412,1.865 4.645,1.865 1.945,0 3.123,-1.228 2.439,-3.878 z m 19.294,3.589 h -3.224 l 2.021,7.583 H 3.707 C 3.871,1.342 3.941,1.828 3.942,2.32 3.949,4.607 2.453,5.732 0.266,5.732 -1.109,5.732 -2.438,5.301 -3.898,4.367 -4.5,5.225 -5.5,5.725 -6.753,5.725 c -1.877,0 -4.101,-0.495 -10.005,-9.186 -0.103,-0.154 -0.084,-0.209 0.067,-0.209 l 3.398,-0.033 c -0.487,-1.818 -2.127,-7.951 -2.127,-7.951 h 14.843 c -0.075,-0.455 -0.107,-0.805 -0.107,-1.108 0.01,-2.138 1.434,-3.193 3.498,-3.193 1.307,0 2.54,0.398 3.97,1.291 0.571,-0.816 1.507,-1.283 2.698,-1.283 2.197,0 4.206,1.064 9.525,8.756 0.078,0.115 0.059,0.17 -0.089,0.171"
         style="fill:#00674c;fill-opacity:1;fill-rule:nonzero;stroke:none"
         id="path528"
         inkscape:connector-curvature="0" />
    </g>
  </g>
</svg>
