<svg xmlns="http://www.w3.org/2000/svg" xmlns:xlink="http://www.w3.org/1999/xlink" viewBox="0 0 96 96"><defs><style>.cls-1{fill:none;}.cls-2{fill:#fff;}.cls-3{clip-path:url(#clip-path);}.cls-4{fill:#b9a879;}</style><clipPath id="clip-path" transform="translate(0)"><rect class="cls-1" width="96" height="96"/></clipPath></defs><g id="Layer_2" data-name="Layer 2"><g id="Layer_1-2" data-name="Layer 1"><path class="cls-2" d="M48,96A48,48,0,1,0,0,48,48,48,0,0,0,48,96" transform="translate(0)"/><g class="cls-3"><path class="cls-4" d="M48,0A48,48,0,1,0,96,48,48,48,0,0,0,48,0m0,94.64A46.64,46.64,0,1,1,94.64,48,46.64,46.64,0,0,1,48,94.64" transform="translate(0)"/><path class="cls-4" d="M62.87,52.75c-1.76,0-3,.88-3,2.78s1.28,2.83,3,2.83,3.06-.91,3.06-2.9c0-1.81-1.28-2.71-3.05-2.71" transform="translate(0)"/><path class="cls-4" d="M51.73,52.75c-1.77,0-3,.88-3,2.78s1.28,2.83,3,2.83,3.05-.91,3.05-2.9c0-1.81-1.28-2.71-3-2.71" transform="translate(0)"/><path class="cls-4" d="M22.05,18.63a1.33,1.33,0,0,0,0-2,1.33,1.33,0,1,0-2,1.76,1.32,1.32,0,0,0,2,.24" transform="translate(0)"/><path class="cls-4" d="M48,2.72A45.28,45.28,0,1,0,93.28,48,45.28,45.28,0,0,0,48,2.72M90.5,49.5h-.42V48.13H86.85v-.47h3.23V46.3h.42Zm-.07-4-3.64.24,0-.48L90.4,45Zm-11.8-27-.3.3-1.28-1.26-.84.86.9.88-.29.29-.9-.88-.84.86,1.29,1.26-.3.3-1.62-1.59L77,16.92Zm-.49,39.42v2.15H68.87V51h2.27v6.9ZM73.31,13.82l.34.27,0,3.89,1.89-2.33.36.29-2.29,2.84-.38-.3,0-3.81L71.39,17,71,16.66ZM68.2,10.58l.63,3.84,1.51-2.6.41.24-1.83,3.15L68.49,15l-.63-3.76-1.47,2.54L66,13.51l1.83-3.15Zm0,44.93c0,3.18-2.42,4.75-5.36,4.75s-5.39-1.6-5.39-4.74c0-3,2.21-4.68,5.4-4.68s5.35,1.61,5.35,4.67M66.14,9.56l.42.2L65,13.05l-.43-.2Zm-5.91,1.12.26.1a1.47,1.47,0,0,0,2-.67,1.68,1.68,0,0,1-1,0,1.09,1.09,0,0,1-.71-1.42,1.2,1.2,0,0,1,1.66-.72c.87.31,1,1.07.72,2a2,2,0,0,1-2.68,1.33.68.68,0,0,1-.19-.08Zm-3-.88,1,.27.71-2.64-1-.13L58,6.88,59.39,7l.11,0-.86,3.14.94.26-.11.4-2.39-.65ZM57.1,55.51c0,3.18-2.42,4.75-5.36,4.75s-5.39-1.6-5.39-4.74c0-3,2.21-4.68,5.4-4.68s5.35,1.61,5.35,4.67M55.2,8.42a1.11,1.11,0,0,1-.93-1.29,1.2,1.2,0,0,1,1.52-1c.91.17,1.2.89,1,1.84a2,2,0,0,1-2.43,1.74l-.19-.05-.07-.47.27.06a1.47,1.47,0,0,0,1.83-1,1.76,1.76,0,0,1-1,.12M51,8.83l1,.1.28-2.71-1,0,0-.43,1.42-.09h.11L52.48,9l1,.1,0,.42-2.47-.25Zm.75,38.09h.53L54,39.71h2.57l-2.51,9H50l-2.09-7.21h-.63l-1.9,7.21h-4l-2.73-9h2.53l2,7.21h.53l1.78-7.21h4.26ZM37.59,56.63v3.45H35.33V51h2.26v3.45h5.94V51H45.8v9H43.53V56.63Zm-5.33,1.56a5,5,0,0,0,2-.33V60a6,6,0,0,1-2.36.31,4.7,4.7,0,1,1,.21-9.4,7.36,7.36,0,0,1,2.3.26l-.22,2.06a5.84,5.84,0,0,0-2-.3,2.44,2.44,0,0,0-2.66,2.66,2.5,2.5,0,0,0,2.71,2.65m2.47-26.35V28.39H37v9.06H34.73V34H28.79v3.46H26.53V28.39h2.26v3.45ZM28.34,45.37h.34V39.71h2.26v9H28.38L23,43h-.34v5.79H20.42v-9h2.64ZM32,48.76v-9h6.44v2H34.24v1.52h3.39V45.2H34.24v1.52h4.18v2ZM45.55,5.55l2.56,2.94-.08-3h.47l.1,3.65h-.49L45.6,6.26l.08,2.94H45.2l-.09-3.65ZM44.48,30.43H40.3V32h3.38v1.92H40.3v1.53h4.18v2H38V28.39h6.44ZM43.73,5.71l.38,3.63-.47.05-.38-3.63Zm-5,.8a1.83,1.83,0,1,1,.77,3.57l-1.16.26-.78-3.57Zm-2.23.55.12.4L34.91,8l.36,1.14,1.2-.37.12.39-1.2.37.36,1.15,1.72-.54.12.4-2.17.68L34.33,7.74Zm-5,1.77a1.82,1.82,0,1,1,1.4,3.37l-1.1.46-1.4-3.37Zm-5,2.5,3.62,1.44-1.44-2.64.41-.22,1.76,3.2-.43.23-3.55-1.4,1.42,2.57-.42.23-1.76-3.2ZM22.55,14l1.1,1.55a1.2,1.2,0,0,0,1.78.47,1.22,1.22,0,0,0,.15-1.83l-1.09-1.56.38-.27L26,13.9a1.65,1.65,0,0,1-.33,2.41,1.6,1.6,0,0,1-2.38-.5l-1.12-1.59Zm-2.73,2.14a1.77,1.77,0,0,1,2.61.22,1.82,1.82,0,1,1-2.72,2.41,1.77,1.77,0,0,1,.11-2.63M18,17.87l.3.29-1.23,1.3.87.83.87-.92.3.29-.86.92,1.16,1.1L19.1,22l-2.65-2.51Zm-.07,10.52h7.92v2H23v7H20.77v-7H17.94Zm2,25.4c0-1.92,1.52-2.95,3.49-2.95a6.87,6.87,0,0,1,3.11.71l-.43,1.92a5.88,5.88,0,0,0-2.76-.69c-.7,0-1.17.27-1.17.75,0,1.47,4.64.64,4.64,3.69,0,1.61-1.16,3-3.57,3a7.61,7.61,0,0,1-3.13-.58l.09-2.07a7.11,7.11,0,0,0,3.11.71c1,0,1.24-.35,1.24-.77,0-1.35-4.62-.56-4.62-3.76M78.14,68H20.41V66H78.14Zm0-3.95H20.41V62H78.14ZM79,24.57l-.3-.38,1.69-2.72-3,1.13-.3-.37L79.19,19l.33.4L77.68,22.1l3.07-1.19.29.36L79.27,24l3-1.24.3.37Zm2.59,3.95-.24-.41,1.16-.68,1.29-2.36.26.45L83,27.44l2.23,0,.25.42-2.7-.06Zm1.55,3.14a1.79,1.79,0,0,1,1-2.46,1.82,1.82,0,1,1-1,2.46M84.9,35.8l1.18-1.13L85.85,34l-1.4.49-.16-.44,3.44-1.21L88.14,34a1,1,0,0,1-.63,1.42,1.08,1.08,0,0,1-1.22-.36L85.08,36.3Zm.94,3.31,1.21-1.86-1.59.41-.12-.46,3.53-.92.12.46-1.59.42,2,1.07.15.59-2.17-1.24L86,39.74Zm2.3,2.2a1.82,1.82,0,0,1,2.14,1.63,2.35,2.35,0,0,1,0,1l-.43,0a1.93,1.93,0,0,0,.06-.9,1.48,1.48,0,0,0-2.93.38,1.88,1.88,0,0,0,.3.87l-.41.07a2.17,2.17,0,0,1-.32-.94,1.8,1.8,0,0,1,1.63-2.1m2.09,11.45,0,.49L88,51.61l-1.34-.14,0-.47,1.34.14L90.5,50l0,.52-2,.92Z" transform="translate(0)"/><path class="cls-4" d="M32.72,11.82a1.41,1.41,0,0,0-1.08-2.6L31,9.5l1.08,2.59Z" transform="translate(0)"/><path class="cls-4" d="M62.22,8.27a.78.78,0,0,0-1,.51.73.73,0,0,0,.49,1,1.47,1.47,0,0,0,.95,0c.24-.71.15-1.26-.4-1.46" transform="translate(0)"/><path class="cls-4" d="M39.41,9.67A1.35,1.35,0,0,0,40.46,8a1.35,1.35,0,0,0-1.65-1.08l-.7.15.6,2.75Z" transform="translate(0)"/><path class="cls-4" d="M87.34,35a.65.65,0,0,0,.37-.91l-.22-.64-1.26.45.22.63a.67.67,0,0,0,.89.47" transform="translate(0)"/><path class="cls-4" d="M55.7,6.52a.78.78,0,0,0-1,.67.72.72,0,0,0,.64.85,1.4,1.4,0,0,0,.94-.15c.12-.73-.06-1.26-.63-1.37" transform="translate(0)"/><path class="cls-4" d="M86.22,30.23a1.48,1.48,0,0,0-2.67,1.24,1.33,1.33,0,0,0,1.91.57,1.32,1.32,0,0,0,.76-1.81" transform="translate(0)"/></g></g></g></svg>