<?xml version="1.0" encoding="UTF-8"?>
<!DOCTYPE svg PUBLIC "-//W3C//DTD SVG 1.1//EN" "http://www.w3.org/Graphics/SVG/1.1/DTD/svg11.dtd">
<!-- Creator: CorelDRAW 2021 (64-Bit) -->
<svg xmlns="http://www.w3.org/2000/svg" xml:space="preserve" width="38.1mm" height="10.7318mm" version="1.1" style="shape-rendering:geometricPrecision; text-rendering:geometricPrecision; image-rendering:optimizeQuality; fill-rule:evenodd; clip-rule:evenodd"
viewBox="0 0 3810 1073.18"
 xmlns:xlink="http://www.w3.org/1999/xlink"
 xmlns:xodm="http://www.corel.com/coreldraw/odm/2003">
 <defs>
  <style type="text/css">
   <![CDATA[
    .fil0 {fill:black;fill-rule:nonzero}
    .fil1 {fill:url(#id0)}
    .fil2 {fill:url(#id1)}
    .fil3 {fill:url(#id2)}
    .fil4 {fill:url(#id3)}
    .fil5 {fill:url(#id4)}
    .fil6 {fill:url(#id5)}
   ]]>
  </style>
  <linearGradient id="id0" gradientUnits="userSpaceOnUse" x1="-0" y1="210.11" x2="1062.25" y2="210.11">
   <stop offset="0" style="stop-opacity:1; stop-color:#781C33"/>
   <stop offset="0.388235" style="stop-opacity:1; stop-color:#9A0E39"/>
   <stop offset="1" style="stop-opacity:1; stop-color:#BD0040"/>
  </linearGradient>
  <linearGradient id="id1" gradientUnits="userSpaceOnUse" x1="863.08" y1="1073.18" x2="863.08" y2="10.93">
   <stop offset="0" style="stop-opacity:1; stop-color:#0F4736"/>
   <stop offset="1" style="stop-opacity:1; stop-color:#0F8B59"/>
  </linearGradient>
  <linearGradient id="id2" gradientUnits="userSpaceOnUse" x1="289.72" y1="155.78" x2="1062.25" y2="155.78">
   <stop offset="0" style="stop-opacity:1; stop-color:#F20F38"/>
   <stop offset="0.0784314" style="stop-opacity:1; stop-color:#F82E48"/>
   <stop offset="1" style="stop-opacity:1; stop-color:#FF4D59"/>
  </linearGradient>
  <linearGradient id="id3" gradientUnits="userSpaceOnUse" x1="-0" y1="686.92" x2="289.7" y2="686.92">
   <stop offset="0" style="stop-opacity:1; stop-color:#BD0040"/>
   <stop offset="1" style="stop-opacity:1; stop-color:#F20F38"/>
  </linearGradient>
  <linearGradient id="id4" gradientUnits="userSpaceOnUse" x1="917.39" y1="783.47" x2="917.39" y2="10.93">
   <stop offset="0" style="stop-opacity:1; stop-color:#00CB73"/>
   <stop offset="1" style="stop-opacity:1; stop-color:#42E3A3"/>
  </linearGradient>
  <linearGradient id="id5" gradientUnits="userSpaceOnUse" x1="386.28" y1="1073.18" x2="386.28" y2="783.48">
   <stop offset="0" style="stop-opacity:1; stop-color:#0F8958"/>
   <stop offset="1" style="stop-opacity:1; stop-color:#00CC73"/>
  </linearGradient>
 </defs>
 <g id="Слой_x0020_1">
  <metadata id="CorelCorpID_0Corel-Layer"/>
  <g id="_2103558770400">
   <g>
    <polygon class="fil0" points="1708.43,912.31 1500.8,671.88 1407.35,671.88 1407.35,1073.17 1507.57,1073.17 1507.57,832.74 1715.19,1073.17 1808.64,1073.17 1808.64,671.88 1708.43,671.88 "/>
    <polygon class="fil0" points="2381.42,763.26 2531.95,763.26 2531.95,1073.17 2632.17,1073.17 2632.17,763.26 2782.7,763.26 2782.7,671.88 2381.42,671.88 "/>
    <polygon class="fil0" points="2862.06,1073.17 2962.28,1073.17 2962.28,671.88 2862.06,671.88 "/>
    <polygon class="fil0" points="1900.77,1073.17 2302.06,1073.17 2302.06,981.8 2000.98,981.8 2000.98,918.21 2302.06,918.21 2302.06,826.84 2000.98,826.84 2000.98,763.26 2302.06,763.26 2302.06,671.88 1900.77,671.88 "/>
   </g>
   <polygon class="fil0" points="1537.6,185.3 1442.94,67.29 1429.13,46.2 1429.88,71.06 1429.88,185.3 1407.78,185.3 1407.78,9.54 1425.87,9.54 1520.28,127.81 1534.09,149.15 1533.33,125.29 1533.33,9.54 1555.43,9.54 1555.43,185.3 "/>
   <path class="fil0" d="M1659.14 167.73c27.86,0 47.2,-19.34 47.2,-47.96 0,-28.88 -20.34,-48.21 -47.2,-48.21 -26.87,0 -46.71,19.08 -46.71,48.21 0,27.87 19.33,47.96 46.71,47.96zm0 -116.01c41.18,0 69.55,28.37 69.55,68.05 0,39.42 -28.37,67.79 -69.55,67.79 -40.43,0 -69.06,-28.37 -69.06,-67.79 0,-39.68 28.12,-68.05 69.06,-68.05z"/>
   <polygon class="fil0" points="1813.3,185.3 1797.74,185.3 1736.72,54.73 1761.08,54.73 1796.48,131.82 1806.02,154.93 1815.06,131.82 1849.21,54.73 1871.8,54.73 "/>
   <path class="fil0" d="M1948.89 167.73c27.87,0 47.21,-19.34 47.21,-47.96 0,-28.88 -20.34,-48.21 -47.21,-48.21 -26.87,0 -46.7,19.08 -46.7,48.21 0,27.87 19.33,47.96 46.7,47.96zm0 -116.01c41.18,0 69.56,28.37 69.56,68.05 0,39.42 -28.38,67.79 -69.56,67.79 -40.43,0 -69.05,-28.37 -69.05,-67.79 0,-39.68 28.12,-68.05 69.05,-68.05z"/>
   <path class="fil0" d="M2043.81 89.13c0,-23.35 22.35,-37.41 51.73,-37.41 26.61,0 42.43,9.79 51.22,22.6l-14.82 13.81c-7.03,-9.54 -20.59,-16.58 -37.66,-16.58 -13.31,0 -28.12,5.03 -28.12,16.58 0,27.37 82.86,10.29 82.86,61.27 0,26.36 -24.11,38.17 -52.24,38.17 -26.85,0 -49.71,-12.32 -58.99,-30.9l16.81 -11.79c7.79,13.81 25.62,22.85 45.71,22.85 15.06,0 26.61,-6.03 26.61,-18.08 0,-30.89 -83.11,-12.31 -83.11,-60.52z"/>
   <path class="fil0" d="M2180.66 54.73l21.09 0 0 130.57 -21.09 0 0 -130.57zm10.79 -54.73c7.03,0 13.06,5.27 13.06,12.3 0,7.54 -6.03,13.05 -13.06,13.05 -7.78,0 -13.56,-5.51 -13.56,-13.05 0,-7.03 6.03,-12.3 13.56,-12.3z"/>
   <path class="fil0" d="M2263.26 96.67l0 56.24c10.05,10.04 24.36,14.82 38.16,14.82 24.86,0 43.69,-17.83 43.69,-48.71 0,-29.89 -17.31,-47.46 -41.93,-47.46 -18.07,0 -32.64,11.55 -39.92,25.11zm-21.09 -94.66l21.09 0 0 68.54c11.05,-12.8 25.86,-18.83 43.19,-18.83 38.42,0 61.02,27.37 61.02,66.04 0,43.19 -26.62,69.8 -67.55,69.8 -23.1,0 -44.44,-9.29 -57.75,-23.6l0 -161.95z"/>
   <path class="fil0" d="M2399.61 54.73l21.09 0 0 130.57 -21.09 0 0 -130.57zm10.8 -54.73c7.02,0 13.05,5.27 13.05,12.3 0,7.54 -6.03,13.05 -13.05,13.05 -7.79,0 -13.56,-5.51 -13.56,-13.05 0,-7.03 6.02,-12.3 13.56,-12.3z"/>
   <path class="fil0" d="M2461.13 54.73l21.09 0 0 13.06c4.52,-10.29 16.82,-15.82 26.87,-15.82 12.55,0 20.84,4.52 26.61,11.8l-13.3 14.57c-3.02,-4.03 -7.54,-6.53 -15.57,-6.53 -11.3,0 -21.6,9.04 -24.61,22.6l0 90.89 -21.09 0 0 -130.57z"/>
   <path class="fil0" d="M2550.51 89.13c0,-23.35 22.36,-37.41 51.73,-37.41 26.62,0 42.44,9.79 51.22,22.6l-14.81 13.81c-7.03,-9.54 -20.59,-16.58 -37.66,-16.58 -13.31,0 -28.12,5.03 -28.12,16.58 0,27.37 82.85,10.29 82.85,61.27 0,26.36 -24.1,38.17 -52.23,38.17 -26.86,0 -49.71,-12.32 -59,-30.9l16.82 -11.79c7.79,13.81 25.62,22.85 45.7,22.85 15.06,0 26.62,-6.03 26.62,-18.08 0,-30.89 -83.12,-12.31 -83.12,-60.52z"/>
   <polygon class="fil0" points="2684.6,2.01 2705.68,2.01 2705.68,112.74 2768.97,54.73 2797.34,54.73 2734.57,112.74 2801.61,185.3 2772.73,185.3 2715.98,124.53 2705.68,133.08 2705.68,185.3 2684.6,185.3 "/>
   <path class="fil0" d="M2898.03 55.49c0,-26.12 25.11,-48.21 65.03,-48.21 27.37,0 50.73,8.54 64.03,25.61l-14.82 14.81c-10.54,-10.54 -26.86,-18.83 -49.71,-18.83 -16.82,0 -40.93,6.53 -40.93,26.11 0,42.94 108.47,18.84 108.47,81.86 0,30.13 -27.37,50.72 -63.78,50.72 -31.13,0 -60.01,-15.81 -72.06,-33.89l14.82 -16.08c11.3,14.57 32.14,28.38 59.5,28.38 20.09,0 37.92,-10.05 37.92,-27.37 0,-43.7 -108.47,-17.07 -108.47,-83.11z"/>
   <path class="fil0" d="M3043.66 54.73l27.12 0 0 -33.39 21.08 0 0 33.39 44.95 0 0 18.59 -44.95 0 0 59c0,25.87 7.04,34.65 22.6,34.65 9.05,0 16.58,-3.76 23.61,-9.29l9.54 15.57c-8.03,8.79 -20.59,13.81 -36.91,13.81 -25.61,0 -39.92,-17.08 -39.92,-49.21l0 -64.53 -27.12 0 0 -18.59z"/>
   <path class="fil0" d="M3250.82 143.12l0 -14.56c-6.53,-2.27 -17.33,-4.27 -27.88,-4.27 -26.36,0 -42.93,6.27 -42.93,22.09 0,13.57 12.31,21.6 30.13,21.6 21.84,0 36.16,-14.31 40.68,-24.86zm-84.62 -72.82c12.06,-11.3 32.89,-18.58 54.74,-18.58 34.65,0 50.97,19.34 50.97,52.98l0 80.6 -21.09 0 0 -23.85c-6.53,12.55 -23.1,25.61 -45.71,25.61 -28.37,0 -47.45,-15.82 -47.45,-39.92 0,-28.38 24.86,-39.93 62.53,-39.93 9.79,0 24.1,1.26 30.63,3.27 1.5,-24.36 -7.54,-39.67 -34.9,-39.67 -14.82,0 -26.88,5.52 -38.93,14.56l-10.79 -15.07z"/>
   <path class="fil0" d="M3290.48 54.73l27.13 0 0 -33.39 21.08 0 0 33.39 44.95 0 0 18.59 -44.95 0 0 59c0,25.87 7.03,34.65 22.6,34.65 9.04,0 16.58,-3.76 23.6,-9.29l9.55 15.57c-8.04,8.79 -20.59,13.81 -36.91,13.81 -25.61,0 -39.92,-17.08 -39.92,-49.21l0 -64.53 -27.13 0 0 -18.59z"/>
   <path class="fil0" d="M3423.06 108.97l82.62 0c-1.01,-24.85 -16.07,-38.42 -39.42,-38.42 -24.36,0 -41.18,16.32 -43.2,38.42zm99.94 51.47c-12.3,18.34 -30.88,27.13 -52.22,27.13 -41.44,0 -69.56,-26.37 -69.56,-67.81 0,-38.41 23.1,-68.04 66.54,-68.04 34.4,0 60.26,23.1 60.26,59.25 0,4.28 -0.25,9.8 -1.25,15.58l-103.45 0c1.25,26.36 21.59,41.68 48.21,41.68 15.82,0 30.13,-8.54 37.91,-19.84l13.56 12.05z"/>
   <polygon class="fil0" points="1385.69,310.85 1530.82,310.85 1530.82,332.2 1469.56,332.2 1469.56,486.61 1446.71,486.61 1446.71,332.2 1385.69,332.2 "/>
   <path class="fil0" d="M1541.62 410.28l82.62 0c-1.02,-24.85 -16.08,-38.42 -39.43,-38.42 -24.35,0 -41.18,16.33 -43.19,38.42zm99.94 51.48c-12.3,18.33 -30.88,27.12 -52.23,27.12 -41.43,0 -69.55,-26.37 -69.55,-67.8 0,-38.42 23.1,-68.05 66.54,-68.05 34.4,0 60.26,23.11 60.26,59.26 0,4.27 -0.25,9.8 -1.25,15.57l-103.45 0c1.25,26.37 21.59,41.68 48.21,41.68 15.81,0 30.13,-8.53 37.91,-19.83l13.56 12.05z"/>
   <path class="fil0" d="M1789.45 459.75c-10.04,19.08 -32.89,29.13 -53.73,29.13 -41.43,0 -69.81,-26.37 -69.81,-67.8 0,-38.42 27.38,-68.05 68.55,-68.05 23.35,0 44.2,10.56 52.98,26.62l-16.32 11.05c-9.04,-12.3 -20.08,-17.83 -36.16,-17.83 -26.86,0 -46.7,20.09 -46.7,48.21 0,28.63 19.84,47.96 49.47,47.96 15.82,0 28.62,-8.04 36.66,-20.09l15.06 10.8z"/>
   <path class="fil0" d="M1814.31 303.32l21.09 0 0 69.8c9.54,-12.55 23.1,-19.83 42.43,-19.83 35.67,0 55,18.07 55,59.25l0 74.08 -21.09 0 0 -72.06c0,-28.38 -12.31,-41.44 -37.92,-41.44 -18.33,0 -31.63,11.8 -38.42,27.13l0 86.37 -21.09 0 0 -183.3z"/>
   <path class="fil0" d="M1968.74 356.05l21.09 0 0 17.07c8.53,-13.06 25.86,-19.83 44.7,-19.83 34.14,0 52.97,17.57 52.97,59l0 74.33 -21.09 0 0 -71.82c0,-28.88 -12.55,-41.68 -38.16,-41.68 -16.07,0 -31.39,10.55 -38.42,26.36l0 87.14 -21.09 0 0 -130.57z"/>
   <path class="fil0" d="M2126.17 356.05l21.09 0 0 130.57 -21.09 0 0 -130.57zm10.8 -54.74c7.03,0 13.05,5.27 13.05,12.3 0,7.54 -6.02,13.06 -13.05,13.06 -7.79,0 -13.56,-5.52 -13.56,-13.06 0,-7.03 6.03,-12.3 13.56,-12.3z"/>
   <path class="fil0" d="M2302.94 459.75c-10.04,19.08 -32.9,29.13 -53.73,29.13 -41.43,0 -69.81,-26.37 -69.81,-67.8 0,-38.42 27.37,-68.05 68.55,-68.05 23.35,0 44.2,10.56 52.98,26.62l-16.32 11.05c-9.04,-12.3 -20.09,-17.83 -36.16,-17.83 -26.86,0 -46.7,20.09 -46.7,48.21 0,28.63 19.84,47.96 49.46,47.96 15.82,0 28.63,-8.04 36.66,-20.09l15.07 10.8z"/>
   <path class="fil0" d="M2412.18 444.43l0 -14.56c-6.54,-2.26 -17.33,-4.27 -27.88,-4.27 -26.37,0 -42.94,6.28 -42.94,22.1 0,13.56 12.31,21.59 30.13,21.59 21.85,0 36.17,-14.31 40.69,-24.86zm-84.63 -72.81c12.06,-11.3 32.9,-18.58 54.74,-18.58 34.65,0 50.98,19.33 50.98,52.98l0 80.6 -21.09 0 0 -23.86c-6.54,12.56 -23.11,25.61 -45.71,25.61 -28.37,0 -47.45,-15.82 -47.45,-39.92 0,-28.38 24.86,-39.92 62.52,-39.92 9.79,0 24.1,1.25 30.64,3.26 1.5,-24.35 -7.54,-39.67 -34.91,-39.67 -14.82,0 -26.87,5.52 -38.92,14.57l-10.8 -15.07z"/>
   <polygon class="fil0" points="2470.42,303.32 2491.51,303.32 2491.51,486.62 2470.42,486.62 "/>
   <path class="fil0" d="M2760.18 412.29c0,54.24 -36.16,76.33 -71.81,76.33 -40.93,0 -76.33,-26.11 -76.33,-77.83l0 -99.94 22.85 0 0 96.67c0,38.67 23.85,59.52 53.48,59.52 32.64,0 48.96,-23.1 48.96,-58.26l0 -97.93 22.85 0 0 101.44z"/>
   <path class="fil0" d="M2799.1 356.05l21.09 0 0 17.07c8.54,-13.06 25.86,-19.83 44.7,-19.83 34.15,0 52.98,17.57 52.98,59l0 74.33 -21.09 0 0 -71.82c0,-28.88 -12.56,-41.68 -38.17,-41.68 -16.07,0 -31.39,10.55 -38.42,26.36l0 87.14 -21.09 0 0 -130.57z"/>
   <path class="fil0" d="M2956.55 356.05l21.08 0 0 130.57 -21.08 0 0 -130.57zm10.78 -54.74c7.03,0 13.07,5.27 13.07,12.3 0,7.54 -6.04,13.06 -13.07,13.06 -7.78,0 -13.55,-5.52 -13.55,-13.06 0,-7.03 6.02,-12.3 13.55,-12.3z"/>
   <polygon class="fil0" points="3077.07,486.62 3061.5,486.62 3000.48,356.05 3024.84,356.05 3060.24,433.14 3069.78,456.24 3078.82,433.14 3112.97,356.05 3135.57,356.05 "/>
   <path class="fil0" d="M3165.45 410.28l82.61 0c-1.01,-24.85 -16.07,-38.42 -39.42,-38.42 -24.36,0 -41.18,16.33 -43.19,38.42zm99.93 51.48c-12.3,18.33 -30.88,27.12 -52.22,27.12 -41.44,0 -69.56,-26.37 -69.56,-67.8 0,-38.42 23.1,-68.05 66.54,-68.05 34.4,0 60.27,23.11 60.27,59.26 0,4.27 -0.26,9.8 -1.26,15.57l-103.45 0c1.26,26.37 21.59,41.68 48.21,41.68 15.82,0 30.14,-8.53 37.91,-19.83l13.56 12.05z"/>
   <path class="fil0" d="M3300.54 356.05l21.09 0 0 13.06c4.52,-10.3 16.82,-15.82 26.87,-15.82 12.55,0 20.84,4.52 26.62,11.8l-13.31 14.56c-3.02,-4.02 -7.54,-6.53 -15.57,-6.53 -11.3,0 -21.59,9.05 -24.61,22.6l0 90.9 -21.09 0 0 -130.57z"/>
   <path class="fil0" d="M3389.93 390.45c0,-23.35 22.35,-37.42 51.73,-37.42 26.61,0 42.43,9.79 51.22,22.6l-14.82 13.82c-7.03,-9.55 -20.59,-16.58 -37.66,-16.58 -13.31,0 -28.12,5.02 -28.12,16.58 0,27.36 82.86,10.29 82.86,61.26 0,26.36 -24.11,38.17 -52.23,38.17 -26.86,0 -49.71,-12.31 -59,-30.89l16.82 -11.8c7.78,13.81 25.61,22.85 45.7,22.85 15.06,0 26.61,-6.03 26.61,-18.07 0,-30.9 -83.11,-12.32 -83.11,-60.52z"/>
   <path class="fil0" d="M3526.78 356.05l21.09 0 0 130.57 -21.09 0 0 -130.57zm10.79 -54.74c7.03,0 13.06,5.27 13.06,12.3 0,7.54 -6.03,13.06 -13.06,13.06 -7.79,0 -13.56,-5.52 -13.56,-13.06 0,-7.03 6.03,-12.3 13.56,-12.3z"/>
   <path class="fil0" d="M3570.96 356.05l27.13 0 0 -33.4 21.08 0 0 33.4 44.95 0 0 18.58 -44.95 0 0 59.01c0,25.86 7.04,34.65 22.6,34.65 9.05,0 16.58,-3.77 23.61,-9.29l9.54 15.56c-8.04,8.79 -20.59,13.81 -36.91,13.81 -25.61,0 -39.92,-17.07 -39.92,-49.21l0 -64.53 -27.13 0 0 -18.58z"/>
   <path class="fil0" d="M3704.55 518c1.75,0.76 3.52,1.26 5.52,1.26 9.55,0 16.32,-6.53 25.36,-27.62l4.02 -9.79 -63.28 -125.8 24.86 0 38.92 79.09 10.05 22.6 7.78 -23.61 29.13 -78.08 23.09 0 -49.71 128.56c-17.83,43.94 -31.39,54.74 -49.47,54.74 -5.52,0 -10.29,-1.01 -14.56,-3.02l8.29 -18.33z"/>
   <g>
    <polygon class="fil1" points="1062.24,10.94 -0,10.94 -0,409.29 "/>
    <polygon class="fil2" points="663.9,1073.18 1062.24,1073.18 1062.24,10.94 "/>
    <polygon class="fil3" points="289.7,300.64 772.54,300.64 1062.24,10.94 "/>
    <polygon class="fil4" points="-0,409.29 -0,1073.18 289.7,783.48 289.7,300.64 "/>
    <polygon class="fil5" points="772.54,300.64 772.54,783.47 1062.24,10.94 "/>
    <polygon class="fil6" points="772.54,783.48 289.7,783.48 -0,1073.18 663.9,1073.18 "/>
   </g>
  </g>
 </g>
</svg>
