<?xml version="1.0" encoding="UTF-8" standalone="no"?>
<!-- Created with Inkscape (http://www.inkscape.org/) -->

<svg
   xmlns:dc="http://purl.org/dc/elements/1.1/"
   xmlns:cc="http://creativecommons.org/ns#"
   xmlns:rdf="http://www.w3.org/1999/02/22-rdf-syntax-ns#"
   xmlns:svg="http://www.w3.org/2000/svg"
   xmlns="http://www.w3.org/2000/svg"
   xmlns:sodipodi="http://sodipodi.sourceforge.net/DTD/sodipodi-0.dtd"
   xmlns:inkscape="http://www.inkscape.org/namespaces/inkscape"
   width="650"
   height="160.92914"
   id="svg2"
   version="1.1"
   inkscape:version="0.48.5 r10040"
   sodipodi:docname="國立臺北大學中英文全銜.svg">
  <defs
     id="defs4" />
  <sodipodi:namedview
     id="base"
     pagecolor="#ffffff"
     bordercolor="#666666"
     borderopacity="1.0"
     inkscape:pageopacity="0.0"
     inkscape:pageshadow="2"
     inkscape:zoom="0.54449223"
     inkscape:cx="358.27885"
     inkscape:cy="85.786722"
     inkscape:document-units="px"
     inkscape:current-layer="layer1"
     showgrid="false"
     fit-margin-top="0"
     fit-margin-left="0"
     fit-margin-right="0"
     fit-margin-bottom="0"
     inkscape:window-width="1366"
     inkscape:window-height="705"
     inkscape:window-x="-8"
     inkscape:window-y="-8"
     inkscape:window-maximized="1" />
  <metadata
     id="metadata7">
    <rdf:RDF>
      <cc:Work
         rdf:about="">
        <dc:format>image/svg+xml</dc:format>
        <dc:type
           rdf:resource="http://purl.org/dc/dcmitype/StillImage" />
        <dc:title />
      </cc:Work>
    </rdf:RDF>
  </metadata>
  <g
     inkscape:label="Layer 1"
     inkscape:groupmode="layer"
     id="layer1"
     transform="translate(117.41407,-554.02119)">
    <g
       id="g3183"
       transform="matrix(0.45345311,0,0,0.45345311,-117.41407,554.02089)">
      <path
         id="path3185"
         d="m 0,333.5315 0,-72.67323 16.61811,0 34.582675,48.54331 0,-48.54331 15.838582,0 0,72.67323 -17.114172,0 -34.086613,-47.40945 0,47.40945 z"
         style="fill:#000000;fill-opacity:1;fill-rule:nonzero;stroke:none"
         inkscape:connector-curvature="0" />
      <path
         id="path3187"
         d="m 97.157476,296.92914 -14.704723,-2.26772 c 1.665354,-5.10236 4.499999,-8.85827 8.539369,-11.30315 4.03937,-2.44488 10.027558,-3.68504 17.964568,-3.68504 7.22834,0 12.61417,0.7441 16.15748,2.23229 3.54331,1.45275 6.02362,3.33071 7.47638,5.59842 1.41732,2.26772 2.16141,6.41339 2.16141,12.47244 l -0.17716,16.26378 c 0,4.6063 0.24803,8.04331 0.77953,10.24016 0.49606,2.19685 1.48818,4.53543 2.90551,7.05118 l -16.01575,0 c -0.4252,-0.92126 -0.95669,-2.30315 -1.55906,-4.11023 -0.28346,-0.8504 -0.46063,-1.38189 -0.60236,-1.62993 -2.76378,2.30315 -5.70472,4.03937 -8.85827,5.20867 -3.15354,1.13385 -6.51968,1.73622 -10.09842,1.73622 -6.307086,0 -11.267716,-1.48819 -14.917322,-4.42914 -3.614173,-2.94094 -5.42126,-6.66142 -5.42126,-11.16142 0,-2.97637 0.814961,-5.63385 2.480315,-7.937 1.629921,-2.33859 3.968504,-4.14567 6.944882,-5.38583 2.976378,-1.20472 7.263779,-2.30315 12.862205,-3.22441 7.58268,-1.24016 12.82677,-2.37402 15.76771,-3.43701 l 0,-1.38189 c 0,-2.65748 -0.77952,-4.57086 -2.30314,-5.70472 -1.55906,-1.16929 -4.46457,-1.73622 -8.71654,-1.73622 -2.90551,0 -5.13779,0.49606 -6.76772,1.48819 -1.594484,0.95669 -2.905508,2.65748 -3.897634,5.10236 z m 21.685034,11.30315 c -2.09055,0.60236 -5.38582,1.31102 -9.88582,2.16142 -4.5,0.81496 -7.44095,1.62992 -8.82284,2.40945 -2.090547,1.27559 -3.153539,2.94094 -3.153539,4.92519 0,1.94882 0.850394,3.61418 2.551181,5.0315 1.665358,1.41732 3.826768,2.12598 6.448818,2.12598 2.90551,0 5.70472,-0.81496 8.36221,-2.44488 1.94881,-1.27559 3.2244,-2.79921 3.8622,-4.64173 0.4252,-1.16929 0.63779,-3.43701 0.63779,-6.76772 z"
         style="fill:#000000;fill-opacity:1;fill-rule:nonzero;stroke:none"
         inkscape:connector-curvature="0" />
      <path
         id="path3189"
         d="m 178.86613,280.87796 0,11.09055 -11.09055,0 0,21.22441 c 0,4.32283 0.1063,6.80315 0.3189,7.51181 0.2126,0.70866 0.70866,1.31102 1.45276,1.77165 0.74409,0.46063 1.66535,0.70867 2.72834,0.70867 1.48819,0 3.68504,-0.46063 6.51969,-1.34646 l 1.38189,10.80709 c -3.75591,1.38188 -8.04331,2.09055 -12.79134,2.09055 -2.94094,0 -5.56299,-0.4252 -7.90157,-1.27559 -2.33859,-0.8504 -4.07481,-1.94882 -5.17323,-3.29528 -1.09843,-1.31102 -1.84252,-3.11811 -2.26772,-5.42126 -0.35433,-1.59449 -0.5315,-4.88976 -0.5315,-9.81496 l 0,-22.96063 -7.44094,0 0,-11.09055 7.44094,0 0,-10.45276 16.26378,-8.1496 0,18.60236 z"
         style="fill:#000000;fill-opacity:1;fill-rule:nonzero;stroke:none"
         inkscape:connector-curvature="0" />
      <path
         id="path3191"
         d="m 190.20472,273.75591 0,-12.89764 16.19291,0 0,12.89764 z m 0,59.77559 0,-52.65354 16.19291,0 0,52.65354 z"
         style="fill:#000000;fill-opacity:1;fill-rule:nonzero;stroke:none"
         inkscape:connector-curvature="0" />
      <path
         id="path3193"
         d="m 219.2244,306.46064 c 0,-4.64174 1.31102,-9.1063 3.9685,-13.42914 2.65748,-4.32283 6.41339,-7.65354 11.26772,-9.92126 4.85433,-2.26772 10.27559,-3.43701 16.29921,-3.43701 9.24803,0 16.83071,2.58662 22.74803,7.75985 5.91733,5.17322 8.8937,11.72834 8.8937,19.62992 0,7.97244 -2.97637,14.56299 -8.96456,19.80708 -5.98819,5.2441 -13.5,7.86615 -22.57087,7.86615 -5.63386,0 -10.98425,-1.09843 -16.05118,-3.29528 -5.10236,-2.16142 -8.96457,-5.38583 -11.62205,-9.60236 -2.65748,-4.21654 -3.9685,-9.3189 -3.9685,-15.37795 z m 16.58268,0.74409 c 0,5.20866 1.45275,9.2126 4.32283,12.01181 2.90551,2.76378 6.44882,4.14567 10.66536,4.14567 4.25196,0 7.79527,-1.38189 10.62992,-4.14567 2.87007,-2.79921 4.32283,-6.83858 4.32283,-12.11811 0,-5.13779 -1.45276,-9.1063 -4.32283,-11.90551 -2.83465,-2.76378 -6.37796,-4.14567 -10.62992,-4.14567 -4.21654,0 -7.75985,1.38189 -10.66536,4.14567 -2.87008,2.79921 -4.32283,6.80315 -4.32283,12.01181 z"
         style="fill:#000000;fill-opacity:1;fill-rule:nonzero;stroke:none"
         inkscape:connector-curvature="0" />
      <path
         id="path3195"
         d="m 350.82282,333.5315 -16.19291,0 0,-26.85827 c 0,-5.70472 -0.35433,-9.38976 -1.02756,-11.05511 -0.70866,-1.66536 -1.80709,-2.94095 -3.36614,-3.89764 -1.55906,-0.92126 -3.43701,-1.38189 -5.63386,-1.38189 -2.79921,0 -5.31496,0.67323 -7.54724,1.98425 -2.23229,1.34646 -3.75591,3.08268 -4.57087,5.27953 -0.85039,2.16141 -1.24016,6.20078 -1.24016,12.08267 l 0,23.84646 -16.22834,0 0,-52.65354 15.05905,0 0,7.72441 c 5.35039,-5.95276 12.08268,-8.92914 20.16142,-8.92914 3.57874,0 6.87401,0.56693 9.81496,1.66536 2.97638,1.13386 5.20866,2.51575 6.73228,4.25197 1.52362,1.70078 2.55118,3.6496 3.15354,5.84645 0.60237,2.19685 0.88583,5.31496 0.88583,9.35433 z"
         style="fill:#000000;fill-opacity:1;fill-rule:nonzero;stroke:none"
         inkscape:connector-curvature="0" />
      <path
         id="path3197"
         d="m 379.41731,296.92914 -14.66929,-2.26772 c 1.62992,-5.10236 4.46456,-8.85827 8.50393,-11.30315 4.03937,-2.44488 10.02756,-3.68504 18,-3.68504 7.22835,0 12.61418,0.7441 16.15748,2.23229 3.50788,1.45275 6.02362,3.33071 7.44095,5.59842 1.45275,2.26772 2.16141,6.41339 2.16141,12.47244 l -0.14173,16.26378 c 0,4.6063 0.24803,8.04331 0.7441,10.24016 0.53149,2.19685 1.52362,4.53543 2.94094,7.05118 l -16.05118,0 c -0.4252,-0.92126 -0.92126,-2.30315 -1.55905,-4.11023 -0.24804,-0.8504 -0.46063,-1.38189 -0.56693,-1.62993 -2.76378,2.30315 -5.74016,4.03937 -8.85827,5.20867 -3.15354,1.13385 -6.51969,1.73622 -10.09843,1.73622 -6.30708,0 -11.26771,-1.48819 -14.91732,-4.42914 -3.61417,-2.94094 -5.45669,-6.66142 -5.45669,-11.16142 0,-2.97637 0.85039,-5.63385 2.48031,-7.937 1.66536,-2.33859 3.96851,-4.14567 6.94489,-5.38583 2.97637,-1.20472 7.29921,-2.30315 12.89763,-3.22441 7.58268,-1.24016 12.82677,-2.37402 15.73229,-3.43701 l 0,-1.38189 c 0,-2.65748 -0.7441,-4.57086 -2.30315,-5.70472 -1.52363,-1.16929 -4.42914,-1.73622 -8.71654,-1.73622 -2.87008,0 -5.10236,0.49606 -6.73228,1.48819 -1.59449,0.95669 -2.90551,2.65748 -3.93307,5.10236 z m 21.68504,11.30315 c -2.05512,0.60236 -5.3504,1.31102 -9.8504,2.16142 -4.5,0.81496 -7.44094,1.62992 -8.82283,2.40945 -2.12599,1.27559 -3.15354,2.94094 -3.15354,4.92519 0,1.94882 0.81496,3.61418 2.51574,5.0315 1.70079,1.41732 3.86221,2.12598 6.44882,2.12598 2.94095,0 5.74016,-0.81496 8.36221,-2.44488 1.98425,-1.27559 3.25984,-2.79921 3.8622,-4.64173 0.4252,-1.16929 0.6378,-3.43701 0.6378,-6.76772 z"
         style="fill:#000000;fill-opacity:1;fill-rule:nonzero;stroke:none"
         inkscape:connector-curvature="0" />
      <path
         id="path3199"
         d="m 433.06297,333.5315 0,-72.67323 16.19292,0 0,72.67323 z"
         style="fill:#000000;fill-opacity:1;fill-rule:nonzero;stroke:none"
         inkscape:connector-curvature="0" />
      <path
         id="path3201"
         d="m 517.67714,333.5315 0,-60.37795 -25.05118,0 0,-12.29528 67.14567,0 0,12.29528 -25.01575,0 0,60.37795 z"
         style="fill:#000000;fill-opacity:1;fill-rule:nonzero;stroke:none"
         inkscape:connector-curvature="0" />
      <path
         id="path3203"
         d="m 582.83856,296.92914 -14.70472,-2.26772 c 1.66535,-5.10236 4.5,-8.85827 8.53937,-11.30315 4.03937,-2.44488 10.02755,-3.68504 17.99999,-3.68504 7.22835,0 12.61418,0.7441 16.12205,2.23229 3.54331,1.45275 6.02362,3.33071 7.47638,5.59842 1.45275,2.26772 2.16142,6.41339 2.16142,12.47244 l -0.17717,16.26378 c 0,4.6063 0.28347,8.04331 0.77953,10.24016 0.53149,2.19685 1.48819,4.53543 2.90551,7.05118 l -16.01575,0 c -0.42519,-0.92126 -0.95669,-2.30315 -1.55905,-4.11023 -0.28347,-0.8504 -0.46063,-1.38189 -0.56693,-1.62993 -2.76378,2.30315 -5.74016,4.03937 -8.8937,5.20867 -3.15355,1.13385 -6.51969,1.73622 -10.09843,1.73622 -6.27165,0 -11.26771,-1.48819 -14.88189,-4.42914 -3.6496,-2.94094 -5.45669,-6.66142 -5.45669,-11.16142 0,-2.97637 0.81496,-5.63385 2.48032,-7.937 1.66535,-2.33859 3.9685,-4.14567 6.94488,-5.38583 2.97638,-1.20472 7.26378,-2.30315 12.89763,-3.22441 7.54725,-1.24016 12.82678,-2.37402 15.73229,-3.43701 l 0,-1.38189 c 0,-2.65748 -0.77953,-4.57086 -2.30315,-5.70472 -1.52362,-1.16929 -4.42914,-1.73622 -8.71654,-1.73622 -2.87008,0 -5.13779,0.49606 -6.73228,1.48819 -1.62992,0.95669 -2.94094,2.65748 -3.93307,5.10236 z m 21.68504,11.30315 c -2.09055,0.60236 -5.3504,1.31102 -9.8504,2.16142 -4.5,0.81496 -7.44094,1.62992 -8.82283,2.40945 -2.12598,1.27559 -3.18898,2.94094 -3.18898,4.92519 0,1.94882 0.8504,3.61418 2.55118,5.0315 1.70079,1.41732 3.82678,2.12598 6.44882,2.12598 2.94095,0 5.70473,-0.81496 8.36221,-2.44488 1.94882,-1.27559 3.25984,-2.79921 3.8622,-4.64173 0.4252,-1.16929 0.6378,-3.43701 0.6378,-6.76772 z"
         style="fill:#000000;fill-opacity:1;fill-rule:nonzero;stroke:none"
         inkscape:connector-curvature="0" />
      <path
         id="path3205"
         d="m 636.44879,273.75591 0,-12.89764 16.22835,0 0,12.89764 z m 0,59.77559 0,-52.65354 16.22835,0 0,52.65354 z"
         style="fill:#000000;fill-opacity:1;fill-rule:nonzero;stroke:none"
         inkscape:connector-curvature="0" />
      <path
         id="path3207"
         d="m 668.76375,280.87796 15.09449,0 0,7.72441 c 1.94882,-2.62205 4.6063,-4.78347 7.97244,-6.44882 3.33071,-1.62992 7.05118,-2.48032 11.12598,-2.48032 7.08662,0 13.14567,2.40945 18.1063,7.19292 4.9252,4.81889 7.40551,11.48031 7.40551,20.05512 0,8.7874 -2.48031,15.62598 -7.47637,20.48031 -4.99607,4.88976 -11.05512,7.33465 -18.17717,7.33465 -3.36614,0 -6.44882,-0.60237 -9.17716,-1.73622 -2.76378,-1.1693 -5.63386,-3.15355 -8.6811,-5.95276 l 0,26.50394 -16.19292,0 z m 16.01575,25.44094 c 0,5.91733 1.38189,10.27559 4.11024,13.11024 2.72834,2.83465 6.02362,4.25197 9.95669,4.25197 3.7559,0 6.90945,-1.31103 9.38976,-3.89764 2.51575,-2.62205 3.75591,-6.87402 3.75591,-12.79134 0,-5.49212 -1.27559,-9.60236 -3.86221,-12.29527 -2.58661,-2.65748 -5.77559,-4.00394 -9.56693,-4.00394 -3.9685,0 -7.26378,1.31102 -9.85039,3.93307 -2.62205,2.62205 -3.93307,6.51968 -3.93307,11.69291 z"
         style="fill:#000000;fill-opacity:1;fill-rule:nonzero;stroke:none"
         inkscape:connector-curvature="0" />
      <path
         id="path3209"
         d="m 776.87005,316.77166 16.12204,2.33858 c -2.05511,5.06693 -5.35039,8.96457 -9.81496,11.62205 -4.5,2.65748 -10.09842,4.00394 -16.8307,4.00394 -10.62992,0 -18.49607,-3.01181 -23.63386,-9 -4.03937,-4.78347 -6.05906,-10.84252 -6.05906,-18.14174 0,-8.71653 2.65748,-15.55511 7.97244,-20.48031 5.31496,-4.96063 12.01181,-7.44095 20.12599,-7.44095 9.1063,0 16.29921,2.58662 21.5433,7.75985 5.27953,5.17322 7.79528,13.11023 7.58268,23.77559 l -40.6063,0 c 0.1063,4.14567 1.41733,7.37008 3.93307,9.63779 2.48032,2.30315 5.59843,3.47244 9.3189,3.47244 2.55118,0 4.67717,-0.60236 6.41339,-1.80708 1.73622,-1.16929 3.04724,-3.08268 3.93307,-5.74016 z m 0.92126,-14.06693 c -0.14173,-4.03937 -1.34646,-7.12205 -3.64961,-9.2126 -2.30315,-2.09055 -5.10236,-3.15354 -8.39764,-3.15354 -3.5433,0 -6.48425,1.09842 -8.7874,3.33071 -2.30315,2.19685 -3.43701,5.20866 -3.40157,9.03543 z"
         style="fill:#000000;fill-opacity:1;fill-rule:nonzero;stroke:none"
         inkscape:connector-curvature="0" />
      <path
         id="path3211"
         d="m 807.12989,273.75591 0,-12.89764 16.19291,0 0,12.89764 z m 0,59.77559 0,-52.65354 16.19291,0 0,52.65354 z"
         style="fill:#000000;fill-opacity:1;fill-rule:nonzero;stroke:none"
         inkscape:connector-curvature="0" />
      <path
         id="path3213"
         d="m 872.6102,260.85827 17.07874,0 0,39.36614 c 0,6.23623 0.2126,10.2756 0.6378,12.11812 0.74409,2.97637 2.48031,5.38582 5.20866,7.19291 2.76378,1.80709 6.51968,2.69291 11.26771,2.69291 4.85433,0 8.50394,-0.85039 10.94882,-2.55118 2.48032,-1.70079 3.96851,-3.79134 4.46457,-6.27165 0.49606,-2.48032 0.74409,-6.59055 0.74409,-12.36614 l 0,-40.18111 17.07874,0 0,38.16142 c 0,8.71654 -0.46063,14.88189 -1.41732,18.49606 -0.92126,3.61418 -2.62205,6.62599 -5.10236,9.1063 -2.44488,2.48032 -5.77559,4.46457 -9.92126,5.95276 -4.14567,1.45275 -9.56693,2.19685 -16.26378,2.19685 -8.07874,0 -14.20866,-0.81496 -18.35433,-2.40945 -4.1811,-1.59449 -7.47638,-3.68504 -9.88583,-6.23622 -2.44488,-2.58661 -4.03937,-5.24409 -4.78346,-8.07874 -1.13386,-4.14567 -1.70079,-10.31102 -1.70079,-18.4252 z"
         style="fill:#000000;fill-opacity:1;fill-rule:nonzero;stroke:none"
         inkscape:connector-curvature="0" />
      <path
         id="path3215"
         d="m 1013.6338,333.5315 -16.1929,0 0,-26.85827 c 0,-5.70472 -0.35433,-9.38976 -1.02755,-11.05511 -0.70867,-1.66536 -1.80709,-2.94095 -3.36615,-3.89764 -1.55905,-0.92126 -3.437,-1.38189 -5.63385,-1.38189 -2.79922,0 -5.31496,0.67323 -7.54725,1.98425 -2.23228,1.34646 -3.7559,3.08268 -4.57086,5.27953 -0.8504,2.16141 -1.24016,6.20078 -1.24016,12.08267 l 0,23.84646 -16.22835,0 0,-52.65354 15.05906,0 0,7.72441 c 5.35039,-5.95276 12.08267,-8.92914 20.19685,-8.92914 3.5433,0 6.83858,0.56693 9.77956,1.66536 2.9763,1.13386 5.2086,2.51575 6.7322,4.25197 1.5237,1.70078 2.5512,3.6496 3.1536,5.84645 0.6024,2.19685 0.8858,5.31496 0.8858,9.35433 z"
         style="fill:#000000;fill-opacity:1;fill-rule:nonzero;stroke:none"
         inkscape:connector-curvature="0" />
      <path
         id="path3217"
         d="m 1030.1456,273.75591 0,-12.89764 16.1929,0 0,12.89764 z m 0,59.77559 0,-52.65354 16.1929,0 0,52.65354 z"
         style="fill:#000000;fill-opacity:1;fill-rule:nonzero;stroke:none"
         inkscape:connector-curvature="0" />
      <path
         id="path3219"
         d="m 1079.7165,333.5315 -24.6614,-52.65354 17.0078,0 11.5158,26.85827 3.3661,9 c 0.8859,-2.30315 1.4174,-3.79134 1.6654,-4.53544 0.5315,-1.48819 1.0984,-2.97638 1.7362,-4.46456 l 11.6221,-26.85827 16.6889,0 -24.3425,52.65354 z"
         style="fill:#000000;fill-opacity:1;fill-rule:nonzero;stroke:none"
         inkscape:connector-curvature="0" />
      <path
         id="path3221"
         d="m 1164.0826,316.77166 16.1221,2.33858 c -2.0551,5.06693 -5.3504,8.96457 -9.815,11.62205 -4.4646,2.65748 -10.0984,4.00394 -16.7953,4.00394 -10.6653,0 -18.5315,-3.01181 -23.6692,-9 -4.004,-4.78347 -6.0237,-10.84252 -6.0237,-18.14174 0,-8.71653 2.6221,-15.55511 7.937,-20.48031 5.315,-4.96063 12.0118,-7.44095 20.126,-7.44095 9.1063,0 16.2992,2.58662 21.5788,7.75985 5.2441,5.17322 7.7598,13.11023 7.5472,23.77559 l -40.6063,0 c 0.1063,4.14567 1.4173,7.37008 3.9331,9.63779 2.4803,2.30315 5.5984,3.47244 9.3189,3.47244 2.5512,0 4.6771,-0.60236 6.4134,-1.80708 1.7362,-1.16929 3.0472,-3.08268 3.933,-5.74016 z m 0.9213,-14.06693 c -0.1063,-4.03937 -1.3465,-7.12205 -3.6496,-9.2126 -2.3032,-2.09055 -5.1024,-3.15354 -8.3977,-3.15354 -3.5433,0 -6.4842,1.09842 -8.7874,3.33071 -2.3031,2.19685 -3.437,5.20866 -3.4015,9.03543 z"
         style="fill:#000000;fill-opacity:1;fill-rule:nonzero;stroke:none"
         inkscape:connector-curvature="0" />
      <path
         id="path3223"
         d="m 1209.8622,333.5315 -16.193,0 0,-52.65354 15.0237,0 0,7.47638 c 2.5866,-3.54331 4.8897,-5.84646 6.9448,-6.98032 2.0552,-1.13386 4.3937,-1.70079 7.0158,-1.70079 3.685,0 7.2283,0.88583 10.6653,2.65748 l -5.0314,12.11811 c -2.7284,-1.52362 -5.2441,-2.26771 -7.5827,-2.26771 -2.2677,0 -4.2166,0.53149 -5.7756,1.59449 -1.5945,1.09842 -2.8347,3.04724 -3.7205,5.84645 -0.9212,2.79922 -1.3464,8.68111 -1.3464,17.64567 z"
         style="fill:#000000;fill-opacity:1;fill-rule:nonzero;stroke:none"
         inkscape:connector-curvature="0" />
      <path
         id="path3225"
         d="m 1234.5236,318.50788 16.2638,-2.12598 c 0.7086,2.69291 2.0905,4.74803 4.2165,6.16535 2.0905,1.41732 5.0669,2.09055 8.8583,2.09055 4.2165,0 7.37,-0.63779 9.4606,-1.94882 1.4173,-0.95669 2.126,-2.19685 2.126,-3.72047 0,-1.06299 -0.3544,-1.94882 -1.1339,-2.65748 -0.815,-0.6378 -2.622,-1.24016 -5.4213,-1.80709 -13.0748,-2.48031 -21.3661,-4.74803 -24.8385,-6.80315 -4.8544,-2.83464 -7.2638,-6.80315 -7.2638,-11.83464 0,-4.57087 2.0905,-8.39764 6.2716,-11.51575 4.1811,-3.11811 10.7008,-4.67717 19.4882,-4.67717 8.3622,0 14.5985,1.20473 18.6733,3.54331 4.0748,2.33858 6.874,5.81102 8.433,10.41732 l -15.2716,2.40945 c -0.6733,-2.05512 -1.9134,-3.61417 -3.7205,-4.7126 -1.8425,-1.09842 -4.4291,-1.62992 -7.8307,-1.62992 -4.252,0 -7.3347,0.5315 -9.1772,1.52362 -1.2047,0.7441 -1.8425,1.70079 -1.8425,2.83465 0,0.99213 0.5669,1.84252 1.6299,2.55118 1.4528,0.92126 6.4843,2.23228 15.13,3.89764 8.6456,1.70079 14.6692,3.7559 18.0708,6.20079 3.4016,2.48031 5.0669,5.91732 5.0669,10.34645 0,4.85433 -2.3385,9 -7.0157,12.47244 -4.7126,3.47245 -11.622,5.20867 -20.8346,5.20867 -8.3268,0 -14.9174,-1.48819 -19.8071,-4.3937 -4.8544,-2.90552 -8.0433,-6.83859 -9.5315,-11.83465 z"
         style="fill:#000000;fill-opacity:1;fill-rule:nonzero;stroke:none"
         inkscape:connector-curvature="0" />
      <path
         id="path3227"
         d="m 1305.9566,273.75591 0,-12.89764 16.193,0 0,12.89764 z m 0,59.77559 0,-52.65354 16.193,0 0,52.65354 z"
         style="fill:#000000;fill-opacity:1;fill-rule:nonzero;stroke:none"
         inkscape:connector-curvature="0" />
      <path
         id="path3229"
         d="m 1366.7952,280.87796 0,11.09055 -11.0551,0 0,21.22441 c 0,4.32283 0.071,6.80315 0.2835,7.51181 0.2126,0.70866 0.7086,1.31102 1.4527,1.77165 0.7441,0.46063 1.6654,0.70867 2.7284,0.70867 1.5236,0 3.685,-0.46063 6.5197,-1.34646 l 1.3818,10.80709 c -3.7559,1.38188 -8.0078,2.09055 -12.7913,2.09055 -2.9055,0 -5.563,-0.4252 -7.9016,-1.27559 -2.3386,-0.8504 -4.0748,-1.94882 -5.1378,-3.29528 -1.0984,-1.31102 -1.8779,-3.11811 -2.3031,-5.42126 -0.3189,-1.59449 -0.4961,-4.88976 -0.4961,-9.81496 l 0,-22.96063 -7.4409,0 0,-11.09055 7.4409,0 0,-10.45276 16.2638,-8.1496 0,18.60236 z"
         style="fill:#000000;fill-opacity:1;fill-rule:nonzero;stroke:none"
         inkscape:connector-curvature="0" />
      <path
         id="path3231"
         d="m 1370.4803,280.87796 17.2559,0 14.6338,37.38189 14.2795,-37.38189 16.7953,0 -21.6141,50.66929 -3.8623,9.17717 c -1.4173,3.08267 -2.7992,5.42126 -4.0748,7.05118 -1.2755,1.59448 -2.7637,2.90551 -4.4291,3.93307 -1.6653,0.99212 -3.7559,1.77165 -6.1653,2.33858 -2.4449,0.56693 -5.2087,0.85039 -8.2914,0.85039 -3.1181,0 -6.1653,-0.28346 -9.1771,-0.85039 l -1.4174,-10.91339 c 2.5158,0.46063 4.8189,0.67323 6.8386,0.67323 3.7914,0 6.5551,-0.95669 8.3622,-2.87008 1.8071,-1.91338 3.189,-4.32283 4.1457,-7.26378 z"
         style="fill:#000000;fill-opacity:1;fill-rule:nonzero;stroke:none"
         inkscape:connector-curvature="0" />
      <path
         id="path3233"
         d="m 591.0236,12.047244 c 12.22441,-0.92126 25.19291,1.062992 36.88582,0 8.11418,-0.708661 16.54725,-7.0157478 21.04725,-1.098425 -1.94882,11.905512 -24.44882,12.791339 -43.90158,12.968504 -4.67716,0 -14.38582,-2.870079 -14.91732,3.968504 13.85433,9.354331 46.77165,-3.791338 56.87008,5.031496 -8.46851,11.692914 -25.58268,12.22441 -52.01575,10.984253 -16.54724,-0.708662 -34.54724,1.807086 -46.98425,1.062992 -10.98425,-0.708662 -23.03149,0.744094 -32.91732,-3.047244 1.41732,-27.354332 44.43307,-0.708662 57.93307,-14.031497 -3.75591,-5.77559 -13.32284,-2.515748 -19.98425,-3.082677 -8.61024,-0.531496 -18.35433,-2.338583 -28.94882,-1.062992 -3.08268,-3.968504 -9,-5.031496 -7.93701,-10.984252 1.98425,-12.04724457 41.77559,2.161417 54.88583,-1.984252 0.92126,-14.740158 19.80708,-14.3858273 19.98425,1.27559 z"
         style="fill:#000000;fill-opacity:1;fill-rule:evenodd;stroke:none"
         inkscape:connector-curvature="0" />
      <path
         id="path3235"
         d="m 1349.8936,35.964568 c 5.4213,-3.578741 14.3859,-9.708662 18.8859,-1.062993 -0.8859,6.129922 -4.1103,9.885827 -5.9174,14.917324 1.2402,3.437007 7.3701,1.984252 9,5.066929 0.3544,9 -8.4685,8.787401 -9.9212,16.015748 5.2441,4.5 12.7913,6.661417 14.9527,14.031496 -4.8543,10.984253 -21.9685,2.338583 -25.9015,-3.082677 -7.4055,6.307087 -21.437,13.5 -32.9528,7.051181 -0.5315,-5.77559 0.3543,-10.27559 3.0827,-12.968504 5.9173,1.417323 12.2244,1.240158 16.0157,-1.984252 -1.807,-8.114173 -9.5669,-10.275591 -14.0669,-16.015748 0.9213,-6.484252 7.5827,-7.015748 12.0827,-9.885827 -12.6142,-12.082677 1.9842,-25.370079 14.7401,-12.082677 z m -5.3858,29.161417 7.1929,0 c 4.1457,-5.208661 3.9685,-8.822834 -3.6141,-10.984252 -0.1772,4.677166 -4.6772,5.066929 -3.5788,10.984252 z"
         style="fill:#000000;fill-opacity:1;fill-rule:evenodd;stroke:none"
         inkscape:connector-curvature="0" />
      <path
         id="path3237"
         d="m 1410.7322,37.94882 c 7.3701,-0.885827 13.6772,-6.307087 18.8859,-1.062993 -9,16.015749 -2.5158,47.515749 -19.9843,54.885828 -8.0787,-2.870079 -20.3386,-1.629921 -27.8858,-5.031496 -3.9685,-19.452756 21.6141,-3.614173 25.0157,-12.968504 -3.2244,-7.015748 -20.1614,-0.531496 -23.9173,-7.015748 -1.6299,-18.354331 18.5315,-6.129922 25.9016,-12.968504 -3.6142,-6.307087 -15.1299,-4.854331 -23.0315,-7.015749 -5.2087,-15.661417 17.8228,-18.177165 25.0157,-8.822834 z"
         style="fill:#000000;fill-opacity:1;fill-rule:evenodd;stroke:none"
         inkscape:connector-curvature="0" />
      <path
         id="path3239"
         d="m 1319.8464,42.980316 c -2.5157,9.177165 -11.6929,11.728346 -23.0315,12.082677 0.5315,10.062992 14.563,0.177165 18,7.015748 1.9843,12.22441 -11.5157,9.885827 -16.0157,12.933071 1.063,6.484252 9.8858,0.92126 14.9173,1.984252 4.5,20.870079 -25.5473,9.531497 -37.9488,16.015749 -12.437,-8.610237 5.3858,-12.401575 7.0157,-21.047245 2.1614,-11.338583 -8.1142,-14.031496 -7.0157,-28.984252 10.5945,-15.271654 27.7086,-0.885827 44.0787,0 z"
         style="fill:#000000;fill-opacity:1;fill-rule:evenodd;stroke:none"
         inkscape:connector-curvature="0" />
      <path
         id="path3241"
         d="m 197.64566,66.047245 c 0,18.354331 -0.88583,39.401575 -3.04724,64.948825 -1.62992,19.41732 4.85433,33.09448 -3.08268,45.88582 -9.88583,8.29134 -28.77165,3.79134 -45.88582,5.0315 -8.64567,0.74409 -16.54725,3.79134 -23.91733,-1.06299 -12.437,5.20866 -25.370074,0.53149 -37.984247,1.98425 -6.838582,0.70866 -13.145669,4.67716 -19.984251,5.91732 -4.322835,0.7441 -8.787401,-0.70866 -12.93307,0 -8.291339,1.27559 -16.759842,9.17717 -25.015747,1.98425 3.755905,-13.14567 5.208661,-29.87008 3.047244,-49.85433 C 27.212597,125.61024 20.374015,111.36614 18.956692,100.02756 18.425196,95.527561 20.19685,89.255907 20.019684,85.110238 19.133857,71.255907 12.295275,63.141733 18.956692,52.157481 22.003936,47.30315 32.633857,38.870079 38.90551,38.125985 c 7.405512,-0.885827 12.791338,5.244095 21.082677,5.952756 4.85433,0.531496 9.177165,-1.629921 14.031495,-1.984252 9.531496,-0.531496 19.807086,2.870079 30.933068,3.047244 21.79134,0.389764 46.09843,-0.354331 65.87008,3.082677 4.85433,0.708662 8.82283,3.22441 12.04724,3.047244 7.22835,-0.708661 5.95276,-7.192913 14.06693,-7.015748 11.33858,0.177166 10.94882,18.177166 0.70866,21.791339 z M 41.811022,67.996064 c -4.322835,25.192914 1.984252,44.468506 3.047244,65.870076 15.838582,8.29134 43.015746,8.46851 63.885824,5.95276 8.64567,-7.19291 17.4685,-14.42126 23.95276,-23.95276 -8.46851,-6.27165 -12.43701,-16.901571 -23.95276,-19.948815 -0.70866,8.255905 5.56299,9.354335 5.95276,16.015745 1.24015,23.563 -54.177167,26.07874 -57.968506,10.94882 -3.57874,-14.56299 14.952755,-13.5 16.015748,-25.901573 -8.610236,-4.14567 -22.110236,0.35433 -25.015747,-7.901575 -2.338583,-6.661418 2.515747,-15.484253 7.937007,-16.937008 10.807086,-3.047245 37.771652,10.452756 52.015748,5.952756 -0.56693,-5.952756 2.51575,-8.114174 1.94882,-14.031497 -26.255908,-2.515748 -44.255907,3.401575 -67.818898,3.933071 z m 90.885828,11.905512 8.96456,0 c -0.70866,-6.307087 1.45276,-9.92126 3.08268,-14.066929 -4.14567,-2.161418 -12.25984,-0.531496 -18,-1.062992 2.69291,4.5 3.61417,10.452756 5.95276,15.129921 z m 7.01574,17.078741 c 2.16142,1.27559 3.75591,2.870078 5.0315,5.031493 7.37008,-2.870076 19.24016,-11.515745 21.93307,-1.06299 2.16142,8.43307 -9,9.35433 -12.04724,16.01575 5.20866,7.37008 10.27559,15.09449 18.88582,18.88583 l 0,5.03149 c -7.72441,0.17717 -10.77165,9 -16.90157,10.98425 -5.0315,1.62993 -12.40158,-0.53149 -18.88583,0 -26.29134,1.98426 -66.224406,4.5 -88.90157,9 -0.177166,3.79134 0,7.37008 1.062992,9.88583 14.598424,3.61417 25.759841,-3.04724 37.98425,-3.93307 29.870078,-2.33858 62.964568,3.93307 89.787398,0 -0.17717,-30.9685 0.92126,-66.40158 1.98425,-98.822836 -5.95275,-0.708661 -11.69291,-1.594488 -18,-1.948819 -1.62992,2.515748 3.43701,9.708662 0,14.031497 3.96851,0 7.75984,0.35433 9,3.047244 -3.79134,10.984252 -16.54724,13.322835 -30.93307,13.854331 z M 83.728343,114.98032 c 1.984252,1.80708 8.114173,3.22441 10.984252,1.06299 0.35433,-3.93307 0,-7.37008 -1.984252,-9 -6.484252,-1.06299 -8.468504,2.55118 -9,7.93701 z m 57.933067,14.91732 c -3.22441,3.79134 -7.01575,6.83858 -9.88582,10.98425 7.75984,-0.70866 12.437,1.62992 19.98425,1.09843 0,-3.79134 -5.38583,-9.92126 -10.09843,-12.08268 z"
         style="fill:#000000;fill-opacity:1;fill-rule:evenodd;stroke:none"
         inkscape:connector-curvature="0" />
      <path
         id="path3243"
         d="m 631.87793,48.047245 c -5.38583,9 -8.11418,28.771654 -16.90158,32.917323 -10.45275,4.854331 -29.33858,-0.177165 -43.937,1.098426 -9.5315,0.708661 -16.19292,4.85433 -23.91732,1.948819 -5.95276,-7.015749 -6.30709,-19.594489 -12.96851,-25.901576 1.09843,-5.208661 5.0315,-7.547244 7.93701,-10.984252 27.35433,-2.338583 56.48031,8.822835 77.91732,1.984252 4.5,-1.629921 6.83858,-5.562992 11.87008,-1.062992 z m -78.83858,18.885827 c 1.62992,6.838583 7.75984,3.047244 14.06693,3.047244 14.74015,-0.354331 38.69291,4.677166 44.96456,-3.933071 -14.38582,-2.551181 -50.38582,-7.051181 -59.03149,0.885827 z"
         style="fill:#000000;fill-opacity:1;fill-rule:evenodd;stroke:none"
         inkscape:connector-curvature="0" />
      <path
         id="path3245"
         d="m 363.36613,82.062994 c 12.9685,0.885826 27.92126,4.677165 41.95275,3.047244 8.07874,-1.098425 15.83858,-7.937008 21.93307,-3.047244 0.7441,14.740157 -18.88582,17.610236 -34.90157,18.885826 -7.37008,13.67717 -7.90158,28.06299 -10.98425,45.88583 12.79133,1.62992 34.54724,8.2559 49.85433,7.90157 11.87007,-0.17716 17.99999,-5.56299 23.95275,-12.93307 10.94882,10.59449 -4.85433,26.07874 -16.93701,27.88583 -16.01574,2.51575 -29.69291,-8.4685 -47.87007,-9 -10.98426,-0.17717 -26.25591,1.06299 -40.85433,1.98425 -13.2874,0.88583 -26.61024,5.74016 -38.87008,7.01575 -5.56299,0.5315 -10.94882,-0.70866 -16.01575,0 -10.24015,1.41732 -22.11023,10.98425 -33.98031,7.90157 -8.4685,-2.16141 -15.48425,-14.91732 -16.93701,-23.03149 23.20866,0.17716 49.85433,1.45275 73.94882,-1.98425 3.43701,-18.88583 -0.5315,-38.69292 -7.90158,-49.8189 -11.87008,-6.484255 -25.90157,5.03149 -36,0 -7.19291,-9.000003 5.0315,-22.854334 14.95276,-25.015751 13.85433,-3.082677 48.93307,13.677165 52.01575,-1.984252 1.24015,-7.015748 -9,-10.098426 -9,-16.015748 0,-14.208662 24.80314,-15.129922 32.03149,-3.968504 4.85433,8.114173 1.06299,14.740157 -0.38976,26.291339 z m -26.96457,19.771656 c -1.27559,14.95275 -5.06693,31.14567 -3.08268,47.87008 9.7441,1.98425 25.75985,1.80708 32.0315,-3.04725 -2.33858,-15.12992 3.79134,-31.85433 3.08268,-45 -11.33859,3.25984 -21.61418,-2.338581 -32.0315,0.17717 z"
         style="fill:#000000;fill-opacity:1;fill-rule:evenodd;stroke:none"
         inkscape:connector-curvature="0" />
      <path
         id="path3247"
         d="m 1102.2874,48.933072 c 5.5629,10.629921 5.9173,26.468504 1.9842,38.870079 14.0315,0.177166 28.5945,3.047244 41.9173,1.098425 9.1772,-1.452756 16.7244,-10.098425 25.0158,-5.952756 -1.6299,22.67717 -37.4173,19.80709 -59.9173,25.01575 11.6929,9.5315 27.7086,27.35433 43.0157,39.93307 13.8543,11.33858 35.2559,30.25984 43.9016,3.9685 10.9842,0.70867 7.9016,14.563 5.0315,21.96851 -9.3544,9.88583 -36.8859,15.66142 -50.9173,5.91732 -2.5158,-2.69291 -2.9056,-7.90157 -5.067,-10.98425 -8.7874,-7.19291 -14.9173,-13.85433 -23.9173,-21.93307 -5.2087,-4.67717 -18.8858,-19.80709 -25.0157,-19.98425 -9.5315,-0.17717 -17.256,20.87008 -23.0315,25.90157 -9,8.29134 -16.0158,9.56693 -29.8701,12.96851 -10.2756,2.51574 -24.4843,13.5 -37.9843,10.98425 -4.5,-0.88583 -12.04721,-4.14567 -12.93304,-9.88583 -2.33858,-14.06693 18.17714,-23.24409 28.94884,-12.08268 27.5315,-5.38582 52.0157,-13.85433 55.9842,-42.98031 -16.5472,-9.7441 -36.5315,-0.2126 -57.9685,-5.95276 -6.2716,-13.854329 2.7284,-24.838582 12.0827,-25.901574 7.1929,-0.92126 9.7087,4.677166 16.9016,5.917323 12.2244,2.338583 26.1141,-2.515748 32.0315,3.968504 5.9527,-5.952756 -2.3386,-14.031496 -1.9843,-21.968504 0.1772,-9.177166 7.7599,-24.625985 21.7914,-18.885827 z"
         style="fill:#000000;fill-opacity:1;fill-rule:evenodd;stroke:none"
         inkscape:connector-curvature="0" />
      <path
         id="path3249"
         d="m 744.69682,178.86614 c -7.72441,-10.27559 -0.88583,-24.12992 5.95276,-30.9685 16.54724,-0.5315 30.04724,7.19291 44.99999,5.06693 3.75591,-9.56693 2.51575,-24.12992 3.93307,-36 -15.62598,-1.98425 -36.88582,-3.08268 -53.96456,-5.0315 -3.08268,-7.40551 1.41732,-14.066927 3.93307,-18.921257 15.48425,-5.385827 32.42126,1.098425 46.98425,5.066929 7.19291,-2.161417 2.33858,-10.807087 3.9685,-16.937008 1.80709,-7.192914 17.25591,-20.338583 25.01575,-7.901575 4.32284,7.015748 0.88583,18.885827 0,25.015748 -2.69291,19.771653 0.70866,60.448823 -14.95275,72.850393 -13.67717,10.80709 -37.59449,0.7441 -48.93307,1.98425 -5.2441,0.38977 -8.46851,5.77559 -16.93701,5.77559 z"
         style="fill:#000000;fill-opacity:1;fill-rule:evenodd;stroke:none"
         inkscape:connector-curvature="0" />
      <path
         id="path3251"
         d="m 884.55115,89.964569 c 11.51574,8.645669 33.98031,3.224409 45.88582,1.984252 3.40158,4.85433 -2.33858,10.417319 -3.08268,16.901579 -8.2559,6.66141 -26.7874,3.08267 -40.85433,3.9685 -1.06299,9.17717 2.16142,29.69291 -1.94881,38.87008 12.2244,2.16142 23.91732,11.69291 37.94881,9 8.46851,-1.62992 9.88583,-12.04725 18.88583,-9 6.30709,19.80709 -19.41732,28.41732 -41.91732,25.90157 -5.95276,-0.70866 -11.69292,-4.5 -18,-5.03149 -11.69291,-0.70866 -25.19291,3.04724 -32.0315,-7.01575 1.98426,-9.35433 9.88583,-7.90157 12.96851,-16.90158 2.69291,-8.11417 2.16141,-23.42126 1.06299,-34.01574 -1.06299,-10.27559 -6.48425,-18.5315 -5.0315,-27.000004 1.80709,-10.452756 16.37008,-28.062993 25.90158,-10.984252 1.45275,5.598425 -2.16142,9.885827 0.2126,13.322835 z"
         style="fill:#000000;fill-opacity:1;fill-rule:evenodd;stroke:none"
         inkscape:connector-curvature="0" />
      <path
         id="path3253"
         d="m 657.95667,129.89764 c -7.72441,-5.20866 -1.59449,-18.14173 -3.04725,-28.94882 -23.03149,-5.208661 -45.53149,1.80709 -65.87007,-1.098425 -3.04725,-0.35433 -6.83859,-2.870078 -9.88583,-3.047244 -11.87008,-0.531496 -25.54724,4.322839 -38.87008,5.031499 -7.75984,0.35433 -14.95275,-1.06299 -23.03149,1.09842 -6.66142,3.75591 -2.16142,18.5315 -5.0315,25.90158 -3.61417,1.98425 -6.66142,0.17716 -10.98425,0 -6.12992,-14.56299 -0.17717,-31.322837 7.01575,-40.854333 21.22441,2.161417 47.87007,-1.984252 67.85433,-3.047245 29.69291,-1.629921 62.07873,6.661418 83.83464,-1.984252 12.25984,4.322835 10.80708,22.5 12.08268,37.98425 -3.79134,3.93307 -6.66142,8.7874 -14.06693,8.96457 z"
         style="fill:#000000;fill-opacity:1;fill-rule:evenodd;stroke:none"
         inkscape:connector-curvature="0" />
      <path
         id="path3255"
         d="m 1404.7795,132.80315 c -0.8859,-7.40551 6.8386,-5.95275 9.9212,-9 1.7717,-3.61417 2.3386,-8.29134 1.9488,-14.03149 -30.4015,-5.06693 -62.7873,-0.38977 -91.7716,0 -12.9331,0.17716 -27.7087,-3.08268 -38.8701,5.03149 -1.063,14.20866 -8.2559,30.93307 -23.0315,25.01575 -0.8858,-9.92126 6.8386,-11.16142 7.937,-18 1.5945,-9.88583 -5.4212,-23.385827 9,-27.000001 3.7559,-0.885826 7.1929,0.92126 12.0473,1.098426 15.6614,0.177165 38.3386,-1.984252 57.933,-1.984252 23.0315,0 46.4174,3.57874 63,3.047244 5.9174,-0.177166 10.063,-5.385827 14.9174,-1.062992 13.5,14.208665 -1.2402,55.417325 -23.0315,36.885825 z"
         style="fill:#000000;fill-opacity:1;fill-rule:evenodd;stroke:none"
         inkscape:connector-curvature="0" />
      <path
         id="path3257"
         d="m 629.89368,103.99606 c -1.62993,7.37008 -5.563,16.54725 -14.91733,12.96851 2.69292,6.83858 8.43307,18 -1.98425,23.91732 -7.40551,4.14567 -23.77559,-0.17716 -21.08267,12.96851 9.74409,5.95275 35.29133,-5.95276 41.95275,3.04724 -4.5,5.95276 -15.12992,9.7441 -25.93701,10.98425 -5.38582,0.5315 -14.03149,-2.87008 -16.90157,3.04725 4.5,3.79134 8.64567,1.62992 14.03149,1.98425 19.09843,1.27559 42.48425,13.14567 58.85433,5.95275 6.12992,-2.69291 6.66142,-11.16141 14.0315,-10.98425 6.83858,7.01575 -1.45276,16.01575 -5.0315,18.88583 -5.38582,4.5 -17.29134,9.56693 -29.87008,9 -7.37007,-0.35433 -12.61417,-4.85433 -21.04724,-7.01575 -12.25984,-3.04724 -31.14567,-0.70866 -47.87008,0 -22.67716,1.09843 -39.04724,-1.24016 -52.01574,5.95276 -6.48425,-3.25984 -16.37008,5.38582 -23.95276,0 -2.51574,-6.12992 1.45276,-13.67717 3.08268,-18.88583 9.5315,0.17717 23.20866,0.70866 36.88583,0 14.38582,-0.74409 32.74015,4.67717 38.87007,-5.95276 -9.35433,-5.56299 -31.5,1.62993 -40.85433,-3.9685 1.45276,-3.9685 2.69292,-7.90157 5.0315,-10.98425 10.80709,-4.85433 39.9685,7.01575 36.88582,-5.91732 -2.33858,-9.70867 -23.20866,-0.5315 -32.03149,-3.96851 -1.77165,-3.22441 -3.75591,-6.30709 -3.04724,-12.04724 6.83858,-5.20866 20.87007,-3.08268 23.95275,-12.04725 -7.93701,-3.61417 -20.51575,5.74016 -25.93701,-1.09842 1.80709,-5.56299 2.87008,-10.24016 5.95276,-12.96851 6.48425,-5.56299 12.7559,-1.94882 23.0315,-1.06299 18.88582,1.80709 43.90157,-3.25984 59.91732,-1.80709 z m -47.87008,15.83859 c 0.70866,5.03149 -3.57874,5.03149 -3.96851,9 3.43701,3.9685 16.58268,6.12992 21.96851,1.98425 1.06299,-12.79134 -6.48425,-11.87008 -18,-10.98425 z"
         style="fill:#000000;fill-opacity:1;fill-rule:evenodd;stroke:none"
         inkscape:connector-curvature="0" />
      <path
         id="path3259"
         d="m 1390.748,115.86614 c 0,20.33859 -15.8386,24.66142 -25.0158,36 7.0158,0 15.4843,0.70867 23.9528,0 8.4331,-0.70866 18.8858,-8.29133 23.0315,1.09843 -4.3229,19.94882 -32.9528,9.5315 -52.937,12.93307 -5.7402,11.51575 -7.9016,23.59843 -16.9016,32.0315 -19.063,17.64567 -53.6102,21.04724 -85.8189,18 -4.7126,-14.74016 24.8032,-28.98425 23.9173,-9 30.0473,0.35433 57.4016,-10.41733 59.9173,-40.85433 -15.6614,-3.22441 -39.5787,1.80708 -53.9645,-3.04725 0.7086,-7.01575 3.7559,-11.51575 7.9016,-14.95275 15.4842,0.56692 27.5315,4.32283 43.9015,3.9685 -3.933,-6.12992 -10.4173,-9.5315 -12.933,-16.90158 -5.9528,0.35434 -11.5158,0.17717 -14.067,-3.08267 -1.5945,-18.5315 15.13,-20.51575 34.0158,-18.88583 7.937,0.70866 15.8386,6.30709 21.9685,5.95276 8.2913,-0.7441 15.8386,-12.25985 23.0315,-3.25985 z m -42.8386,16.93701 c 1.4528,4.14567 5.2441,6.09449 10.9842,5.91732 1.2756,-1.98425 4.8544,-1.77165 3.9685,-5.91732 -3.437,-1.09842 -11.6929,-1.80708 -14.9527,0 z"
         style="fill:#000000;fill-opacity:1;fill-rule:evenodd;stroke:none"
         inkscape:connector-curvature="0" />
    </g>
  </g>
</svg>
