<?xml version="1.0" encoding="UTF-8" standalone="no"?>
<!-- Created with Inkscape (http://www.inkscape.org/) -->

<svg
   xmlns:dc="http://purl.org/dc/elements/1.1/"
   xmlns:cc="http://creativecommons.org/ns#"
   xmlns:rdf="http://www.w3.org/1999/02/22-rdf-syntax-ns#"
   xmlns:svg="http://www.w3.org/2000/svg"
   xmlns="http://www.w3.org/2000/svg"
   xmlns:sodipodi="http://sodipodi.sourceforge.net/DTD/sodipodi-0.dtd"
   xmlns:inkscape="http://www.inkscape.org/namespaces/inkscape"
   version="1.1"
   width="200"
   height="45.585999"
   viewBox="0 0 199.99999 45.585998"
   id="圖層_1"
   xml:space="preserve"
   sodipodi:docname="NTU_name.svg"
   inkscape:version="0.92.1 r15371"><sodipodi:namedview
     pagecolor="#ffffff"
     bordercolor="#666666"
     borderopacity="1"
     objecttolerance="10"
     gridtolerance="10"
     guidetolerance="10"
     inkscape:pageopacity="0"
     inkscape:pageshadow="2"
     inkscape:window-width="1600"
     inkscape:window-height="838"
     id="namedview27"
     showgrid="false"
     inkscape:zoom="1.9092437"
     inkscape:cx="153.97354"
     inkscape:cy="2.8104574"
     inkscape:window-x="-8"
     inkscape:window-y="-8"
     inkscape:window-maximized="1"
     inkscape:current-layer="圖層_1" /><metadata
     id="metadata49"><rdf:RDF><cc:Work
         rdf:about=""><dc:format>image/svg+xml</dc:format><dc:type
           rdf:resource="http://purl.org/dc/dcmitype/StillImage" /><dc:title></dc:title></cc:Work></rdf:RDF></metadata><defs
     id="defs47" /><g
     transform="matrix(2.3090578,0,0,2.3090578,-586.49937,-949.3339)"
     id="g3026"><path
       d="m 266.352,419.055 c -0.354,-1.446 -0.398,-2.785 -0.76,-4.123 v -1.085 c -0.231,-0.67 -0.698,-1.052 -0.759,-2.061 -0.515,-0.257 -1.352,-0.86 -2.387,-0.542 -0.35,0.106 -0.777,0.503 -1.084,0.65 -1.361,0.654 -3.095,0.658 -4.123,1.628 h -0.107 c 0.231,0.173 0.567,0.215 0.976,0.216 v 0.108 h 0.108 c -0.001,1.602 -0.377,2.167 -0.868,3.146 -0.401,0.118 -0.964,0.513 -1.41,0.216 h -0.108 c 0.027,0.544 0.112,0.728 0.542,0.869 -0.109,1.159 -0.907,2.063 -1.301,3.037 -0.415,1.017 -0.304,2.162 -0.65,3.253 -0.192,0.6 -0.704,1.66 -0.218,2.279 0.069,0.188 0.021,0.105 0.108,0.217 0.127,-0.432 0.281,-0.484 0.651,-0.652 0.012,-1.656 0.486,-3.994 1.085,-5.532 0.277,-0.711 0.862,-1.433 1.085,-2.169 h 0.542 c -0.054,0.903 -0.452,1.755 0.217,2.277 -0.119,0.256 -0.211,0.302 -0.434,0.434 v 0.543 h 0.108 c 0.189,-0.361 0.427,-0.465 0.651,-0.76 0.25,0.037 0.27,0.05 0.435,0.109 0.121,0.526 0.286,1.039 0,1.41 -0.144,0.264 0.049,0.076 -0.217,0.219 -0.159,0.084 -0.442,0.047 -0.651,-0.111 h -0.109 c 0.199,0.518 0.357,0.535 0.542,1.195 0.295,-0.004 0.497,-0.006 0.65,-0.109 0.466,-0.164 0.471,-0.447 0.761,-0.758 -0.047,-0.666 -0.198,-1.829 -0.542,-2.28 0.1,-0.841 0.875,-0.7 1.3,-1.193 h 0.218 c 0.414,0.851 0.599,1.716 0.542,2.821 -0.698,0.617 -1.076,1.621 -1.843,2.17 -0.667,0.475 -1.699,0.977 -2.28,1.52 -0.149,0.188 -0.185,0.557 -0.325,0.758 0.022,0.283 0.048,0.369 0.109,0.543 0.906,0.354 1.39,-0.068 2.17,-0.217 0.465,-0.092 1.423,0.316 2.277,0.107 0.865,-0.213 1.717,-0.457 2.604,-0.76 0.17,-0.422 0.151,-0.484 0.109,-0.975 -0.199,-0.094 -0.485,-0.193 -0.651,-0.326 -0.532,-0.643 -0.508,-1.658 -0.976,-2.385 0.05,-0.784 0.43,-0.882 0.651,-1.413 0.216,-0.52 0.05,-1.06 0.108,-1.519 0,0 0.304,-0.301 0.325,-0.325 -0.039,-0.52 -0.126,-0.63 -0.542,-0.76 -0.531,-0.376 -1.156,-0.03 -1.953,0 -0.009,-0.424 -0.021,-1.22 -0.217,-1.519 0.127,-0.611 1.079,-0.737 1.628,-0.867 -0.037,-0.703 -0.243,-0.602 -0.542,-0.976 h -0.977 c 0.112,0.087 0.026,0.039 0.217,0.107 -0.05,0.489 -0.142,0.465 -0.326,0.76 h -0.216 c -0.046,-0.243 -0.094,-0.785 -0.217,-0.976 0.036,-1.235 1.583,-1.051 2.277,-1.628 0.9,0.102 0.733,0.73 1.302,1.086 v 0.106 c -0.187,-0.066 -0.106,-0.019 -0.217,-0.106 -0.501,-0.021 -0.862,-0.04 -1.085,0.216 h -0.109 c 0.445,0.508 0.937,1.374 1.844,1.084 0.3,1.244 1.142,6.216 0.76,7.16 0.071,0.188 0.022,0.105 0.108,0.217 0.14,0.096 0.268,0.102 0.543,0.109 -0.141,0.213 -0.172,0.729 -0.325,0.977 v 0.109 c -0.113,-0.176 -0.109,-0.691 -0.218,-0.869 v -0.107 h -0.108 c 0,1.373 -0.094,3.111 -0.325,4.014 -0.144,0.563 -0.087,1.279 0.217,1.627 0.392,0.141 0.483,-0.32 1.192,-0.219 -0.11,-1.006 0.179,-2.189 0,-2.93 -0.13,-0.547 -0.263,-1.992 -0.215,-2.275 0.151,-0.91 0.259,-1.773 0.107,-2.279 0.13,-0.558 0.612,-1.327 0.326,-2.491 m -11.391,5.748 h -0.108 v -0.215 h 0.108 z m 0,-0.541 h -0.108 v -0.217 h 0.108 z m 7.377,0.759 c -0.345,0.725 -2.409,1.578 -3.254,0.977 h -0.544 v -0.219 c 0.95,-0.486 2.142,-1.619 2.712,-2.496 h 0.326 c 0.254,0.58 0.506,1.158 0.76,1.738 m -1.086,-5.966 c 0.297,0.002 0.498,0.004 0.652,0.107 h 0.217 c 0.013,0.513 0.103,1.412 -0.109,1.735 v 0.108 c -0.502,-0.241 -0.815,-1.502 -0.76,-1.95 m -2.06,-3.039 c 0.247,0.112 0.234,0.188 0.434,0.326 0.034,0.251 0.05,0.269 0.108,0.434 -0.29,0.11 -0.578,0.218 -0.869,0.325 h -0.325 c 0.153,-0.428 0.453,-0.664 0.652,-1.085 m 1.193,2.821 c -0.135,0.552 -1.103,1.05 -1.627,1.194 -0.151,0.077 -0.137,0.034 -0.324,-0.109 h -0.218 c -0.057,-0.369 -0.217,-0.873 0,-1.194 0.246,-0.499 0.874,-0.814 1.195,-1.301 0.221,-0.043 0.208,-0.027 0.324,-0.109 h 0.218 c 0.094,0.385 0.21,1.185 0.432,1.519 m 4.556,-3.254 h -0.11 v -0.217 h 0.11 z m 0.326,6.833 h 0.109 v 0.217 h -0.109 z m 0.108,0.867 v 0.109 h -0.109 v -0.217 c 0.188,0.07 0.108,0.021 0.218,0.107 h -0.109 z m 0,2.063 c -0.081,-0.117 -0.068,-0.1 -0.109,-0.324 h 0.109 z"
       id="path3"
       style="fill:#221714"
       inkscape:connector-curvature="0" /><path
       d="m 319.532,421.441 c 0.018,-0.829 0.292,-0.826 0.432,-1.409 h 0.325 v -0.435 c 0.199,-0.032 1.477,-0.07 1.736,-0.217 0.23,-0.128 -0.098,-0.22 0.435,-0.325 -0.108,-0.289 -0.144,-0.185 -0.217,-0.543 -0.343,-0.062 -0.315,-0.096 -0.542,-0.217 v -0.436 c -0.49,-0.004 -0.826,0.011 -1.085,0.218 h -0.542 v -0.108 c 0.037,-0.109 0.072,-0.216 0.107,-0.326 0,0 -0.426,-0.641 -0.433,-0.65 -0.423,-0.491 -1.308,-0.431 -1.626,-0.759 h -0.76 c -0.071,0.242 -0.08,0.287 -0.219,0.434 -0.002,0.316 -0.004,0.592 0.108,0.76 v 0.107 c 0.212,0.05 0.14,-0.047 0.218,-0.107 0.491,0.28 0.295,1.259 0.325,1.845 -0.735,0.102 -2.56,1.055 -3.255,0.435 h -1.085 c 0.216,0.469 1.379,1.179 1.846,1.409 0.072,-0.037 0.144,-0.072 0.216,-0.109 0.408,0.542 -0.32,0.406 0.543,0.76 -0.147,0.669 -0.549,0.65 -0.759,1.41 -0.26,0.514 0.312,1.943 1.085,1.846 1.205,-0.229 1.879,-1.734 2.494,-2.605 0.051,-0.092 0.381,0.18 0.76,0.217 0.463,1.064 1.226,1.717 1.409,2.82 0.398,0.109 0.798,0.219 1.193,0.326 0.178,-0.25 0.267,-0.482 0.542,-0.65 -0.319,-1.96 -1.336,-3.03 -3.251,-3.691 m -0.218,-2.712 h -0.108 v -0.216 h 0.108 z"
       id="path5"
       style="fill:#221714"
       inkscape:connector-curvature="0" /><path
       d="m 273.889,417.427 c 0.088,0.127 0.087,0.182 0.109,0.434 0.231,-0.101 0.697,-0.273 0.976,-0.325 0.143,0.036 0.289,0.073 0.434,0.107 0.193,-0.075 0.447,-0.418 0.651,-0.541 0.064,-0.372 0.032,-0.581 0.107,-0.868 -0.744,-0.745 -1.185,-1.648 -2.386,-1.953 0.298,0.724 -0.094,0.312 0,0.868 0.062,0.369 0.447,0.855 0.325,1.302 -0.14,0.517 -1.381,1.883 -1.844,2.169 v 0.218 c 0.565,-0.357 1.318,-0.801 1.628,-1.411"
       id="path7"
       style="fill:#221714"
       inkscape:connector-curvature="0" /><path
       d="m 278.119,424.262 c -0.326,-0.146 -0.651,-0.289 -0.976,-0.436 -0.043,-0.01 -2.664,0.439 -2.821,0.543 h -0.542 v -0.107 c 1.291,-0.334 1.521,-1.428 2.279,-2.279 -0.023,-0.371 -0.053,-0.554 -0.218,-0.76 -0.162,-0.241 -0.224,-0.33 -0.542,-0.433 -0.087,-0.128 0.002,0.038 -0.107,0.108 h -0.11 c -0.16,-0.27 0.027,-0.129 -0.325,-0.218 0.336,-1.057 1.128,-1.211 1.951,-1.52 0.002,-0.782 -0.237,-1.055 -0.758,-1.302 -1.192,0.949 -3.092,1.156 -4.449,1.085 0.128,0.088 0.182,0.088 0.435,0.11 -0.084,0.074 -0.243,0.141 -0.326,0.217 h -0.109 v 0.216 c 0.118,-0.099 0.011,0.008 0.109,-0.107 0.585,0.02 0.363,0.084 0.543,0.217 0.365,0.251 1.315,0.169 1.736,0 0.035,0.071 0.073,0.144 0.108,0.216 h -0.108 v 0.543 c -0.131,0.171 -0.621,0.154 -0.76,0.325 -0.253,0.321 -0.413,1.148 -0.542,1.302 0.029,0.49 0.115,0.523 0.216,0.867 0.252,-0.023 0.307,-0.02 0.435,-0.107 0.679,-0.047 1.064,-0.586 1.409,-0.976 h 0.217 c -0.073,0.695 -1.644,2.433 -2.277,2.603 -0.596,0.408 -1.64,0 -1.953,-0.324 h -0.107 c 0.01,0.072 0.042,0.236 0.082,0.434 h 0.025 v 0.109 c -0.002,0 -0.002,0 -0.003,-0.004 0.097,0.465 0.239,1.055 0.328,1.195 0.094,0.379 0.151,0.293 0.325,0.543 0.576,-0.068 0.543,-0.295 0.869,-0.434 0.867,-0.035 1.736,-0.074 2.604,-0.109 0.889,-0.287 1.845,-0.889 2.821,-0.107 0.531,-0.131 0.375,-0.49 0.541,-0.869 0.022,-0.018 -0.036,-0.252 0,-0.541 m -4.557,-5.425 c 0.188,0.068 0.106,0.021 0.218,0.107 -0.187,-0.068 -0.108,-0.02 -0.218,-0.107 m -0.107,5.532 h -0.109 v -0.217 h 0.109 z"
       id="path9"
       style="fill:#221714"
       inkscape:connector-curvature="0" /><path
       d="m 340.563,416.886 c -0.066,-0.373 -0.125,-0.337 -0.218,-0.652 h -0.326 v -0.325 c -2.764,-0.257 -5.293,1.627 -7.377,2.386 -0.66,0.242 -1.217,0.188 -1.733,0.543 h -0.217 c -0.017,-1.089 0.011,-2.193 0.651,-2.82 v -0.219 c 0.211,0.316 0.035,0.48 0.433,0.652 1.239,0.469 3.396,-1.739 3.797,-3.146 0.552,-0.216 1.504,-0.313 1.735,-0.867 0.121,-0.282 -0.008,-0.377 -0.432,-0.435 -0.354,-0.174 -1.211,0.341 -1.521,0.325 -0.504,-0.119 -0.896,-0.633 -1.193,-0.976 h -0.324 c 0.094,0.127 0.086,0.122 0.217,0.216 -0.099,0.256 -0.235,0.494 -0.435,0.651 0.11,0.288 0.218,0.579 0.325,0.867 -0.32,0.31 -0.477,0.609 -0.975,0.761 -0.002,0.002 0,0.215 -0.108,0.106 v -0.106 c -0.244,-0.138 -0.362,-0.474 -0.435,-0.761 -0.578,-0.139 -1.246,-0.304 -1.627,-0.106 h -0.217 c 0.163,0.185 0.538,0.256 0.867,0.433 -0.014,0.738 -0.21,1.343 -0.107,1.736 -0.535,-0.156 -2.156,-0.267 -2.604,-0.543 h -0.977 c 0.559,0.699 1.035,0.784 1.41,1.627 0.39,0.879 0.056,1.961 0.758,2.495 -0.043,0.223 -0.026,0.209 -0.107,0.326 -0.292,0.226 -0.759,0.223 -1.084,0.433 -0.197,-0.259 -0.145,-0.683 -0.434,-0.868 -0.221,-0.097 -0.652,0.104 -0.87,0 -0.421,0 -0.489,-0.058 -0.65,0.218 -0.147,0.303 0.111,0.6 0.435,0.76 0.025,0.474 0.082,0.905 -0.219,1.085 0.242,0.388 0.242,0.308 0.327,0.759 0.275,-0.011 0.401,-0.014 0.542,-0.11 0.543,-0.261 0.692,-0.979 1.194,-1.299 1.288,-0.824 3.028,-0.764 4.665,-1.303 0.888,-0.292 1.576,-1.031 2.386,-1.302 0.458,-0.152 2.134,-0.097 2.276,0 0.602,0.235 0.6,0.859 0.977,1.302 -0.084,0.412 -0.119,0.307 -0.324,0.543 h -0.108 c 0.147,0.119 0.313,0.167 0.543,0.216 0.348,-0.66 1.377,-2.087 1.084,-2.602 m -7.485,-2.171 c 0.071,-0.518 0.213,-0.442 0.436,-0.761 h 0.324 c -0.148,0.623 -0.414,1.015 -0.652,1.52 h -0.107 v 0.108 h -0.107 c 0.058,-0.355 0.106,-0.867 0.106,-0.867"
       id="path11"
       style="fill:#221714"
       inkscape:connector-curvature="0" /><path
       d="m 332.754,423.502 c 0.271,-1.25 0.84,-1.987 1.519,-2.821 -0.037,-0.107 -0.073,-0.217 -0.11,-0.325 -0.896,-0.336 -1.584,-0.002 -2.494,0.218 -0.738,0.177 -1.033,-0.347 -1.627,-0.435 0.459,0.614 1.321,1.082 2.061,1.41 -0.004,0.556 -0.172,2.13 -0.325,2.384 0.124,0.4 0.334,0.666 0.651,0.869 -0.07,0.189 -0.022,0.107 -0.107,0.219 -0.249,0.195 -1.568,-0.205 -1.953,0 h -0.219 c 0.637,0.656 1.738,0.871 2.496,1.408 0.43,0.557 -0.053,1.896 -0.76,2.063 0.037,0.18 0.072,0.361 0.108,0.543 1.935,-0.291 1.334,-1.039 2.062,-2.279 0.145,-0.072 0.289,-0.145 0.434,-0.217 0.246,-0.381 0.348,-0.93 0.434,-1.41 -0.317,-0.156 -0.728,-0.221 -1.084,-0.434 -0.414,-0.246 -0.664,-0.902 -1.086,-1.193"
       id="path13"
       style="fill:#221714"
       inkscape:connector-curvature="0" /><path
       d="m 305.148,414.065 c 0.666,-0.428 1.752,-0.236 2.496,-0.651 0.145,-0.181 0.289,-0.362 0.434,-0.543 0.271,-0.159 0.604,-0.027 0.869,-0.218 0.127,-0.089 0.155,-0.322 0.324,-0.433 -0.092,-0.379 -0.15,-0.292 -0.324,-0.542 -1.353,0.051 -1.705,0.884 -3.037,0.975 v -0.433 c -0.22,-0.253 -0.436,-0.506 -0.652,-0.759 -0.313,0.629 -0.788,1.855 -1.519,2.387 0.036,0.433 0.073,0.868 0.107,1.301 0.611,-0.222 0.822,-0.775 1.302,-1.084"
       id="path15"
       style="fill:#221714"
       inkscape:connector-curvature="0" /><path
       d="m 309.705,414.065 c -1.081,-0.002 -2.68,0.968 -3.146,1.518 -0.504,-0.036 -0.816,-0.168 -1.084,-0.434 h -0.326 c 0.18,0.632 0.479,1.021 0.869,1.627 h 0.541 c 0.307,-1.409 1.161,-1.455 1.954,-1.953 0.502,0.136 0.379,0.438 0.651,0.76 -0.096,1.221 -0.984,1.312 -1.629,1.953 h -0.108 v 0.107 c 1,-0.199 1.924,-0.771 2.931,-1.409 -0.078,-0.487 -0.435,-1.574 -0.543,-1.844 -0.036,-0.109 -0.073,-0.218 -0.11,-0.325"
       id="path17"
       style="fill:#221714"
       inkscape:connector-curvature="0" /><path
       d="m 300.594,414.281 h -0.326 c -0.161,0.271 -0.229,0.222 -0.651,0.217 0.497,0.576 0.954,1.113 1.302,1.845 0.217,0.072 0.436,0.146 0.652,0.217 0.9,-1.13 -0.364,-1.477 -0.977,-2.279"
       id="path19"
       style="fill:#221714"
       inkscape:connector-curvature="0" /><path
       d="m 303.957,417.318 v 0.109 h 0.107 c 0.084,-0.386 0.094,-1.28 0.219,-1.519 v -0.109 c -0.595,0.142 -0.621,0.341 -1.193,0 0.012,0.666 0.15,0.97 0.216,1.519 0.335,0.061 0.356,0.087 0.651,0"
       id="path21"
       style="fill:#221714"
       inkscape:connector-curvature="0" /><path
       d="m 306.885,420.357 c 0.145,-0.31 0.602,-0.876 0.868,-1.084 0.005,-0.316 0.006,-0.594 -0.108,-0.761 -0.156,-0.38 -0.369,-0.309 -0.543,-0.651 -0.599,0.068 -1.492,0.192 -1.843,0.542 -0.164,0.201 -0.203,0.394 -0.218,0.76 0.434,-0.072 0.867,-0.144 1.302,-0.218 -0.082,0.506 -0.349,0.712 -0.651,0.977 -0.115,0.083 -0.101,0.069 -0.324,0.11 -0.041,0.309 -0.072,0.467 -0.219,0.649 0.036,0.249 0.053,0.271 0.11,0.435 h 0.866 v 0.974 c 0.221,0.197 0.383,0.387 0.65,0.543 0.022,1.322 0.391,2.936 0.109,3.906 -0.465,1.609 -3.507,3.301 -4.99,4.014 0.07,0.188 0.021,0.105 0.109,0.219 v 0.105 c 0.083,-0.117 0.068,-0.1 0.109,-0.324 0.541,0.176 0.638,-0.096 0.977,-0.217 0.216,0.037 0.432,0.072 0.648,0.107 0.414,-0.111 0.427,-0.295 0.761,-0.434 h 0.542 c 0.895,-0.467 1.859,-2.326 2.712,-2.711 0.157,-1.225 0.159,-1.77 -0.108,-2.818 -0.15,-0.59 0.131,-1.246 0.217,-1.521 0.156,-0.498 -0.244,-0.926 -0.326,-1.194 -0.232,-0.765 0.041,-1.131 -0.65,-1.408"
       id="path23"
       style="fill:#221714"
       inkscape:connector-curvature="0" /><path
       d="m 297.772,417.969 c -0.089,0.351 -0.128,0.507 -0.432,0.65 0.187,0.651 0.407,1.548 0.867,1.954 0.325,0.107 0.651,0.215 0.976,0.324 0.101,-0.098 0.188,-0.146 0.326,-0.217 0.007,-1.037 -1.078,-2.412 -1.737,-2.711"
       id="path25"
       style="fill:#221714"
       inkscape:connector-curvature="0" /><path
       d="m 297.882,422.742 c -0.396,-0.508 -0.688,-1.24 -1.194,-1.626 0.042,1.72 0,3.103 1.194,3.906 0.164,0.109 0.756,0.039 1.085,-0.221 0.146,-0.104 0.195,-0.207 0.324,-0.322 -0.045,-1.235 -0.887,-1.059 -1.409,-1.737"
       id="path27"
       style="fill:#221714"
       inkscape:connector-curvature="0" /><path
       d="m 286.143,420.899 c -0.13,-0.223 -0.068,-0.206 -0.323,-0.325 v -0.327 c 1.254,-0.181 3.341,-0.962 3.686,-2.059 0.118,-0.101 0.012,0.008 0.11,-0.11 -0.279,-0.284 -0.308,-0.508 -0.759,-0.651 0.306,-0.867 1.385,-1.209 1.953,-1.844 0.082,-0.115 0.067,-0.099 0.108,-0.325 -0.707,-0.1 -0.854,-0.233 -1.519,-0.217 0.272,-1.243 0.973,-1.775 1.844,-2.387 v -0.325 c -0.597,-0.027 -1.835,-0.87 -2.169,-1.192 -0.581,-0.012 -0.94,0.018 -1.194,0.325 0,0 0.453,0.845 0.652,1.084 v 1.085 c -0.396,0.101 -1.451,0.19 -1.844,0.435 h -0.218 c 0.33,0.515 1.023,0.857 1.843,0.867 0.015,1.256 -3.446,2.442 -4.338,1.52 -0.264,0.142 -0.076,-0.053 -0.218,0.216 -0.092,0.183 -0.052,0.335 0.11,0.543 0.216,0.604 0.878,0.596 1.3,0.978 1.177,0.026 2.114,-0.342 2.388,-1.194 0.473,0.31 0.075,0.83 0.433,1.194 -0.051,0.744 -1.309,1.871 -1.952,1.518 -1.426,0.083 -0.643,1.321 -1.411,1.953 0.203,0.375 0.31,1.042 0.651,1.3 0.111,0.088 0.027,0.039 0.217,0.109 0.364,-0.406 0.689,-0.932 0.977,-1.41 h 0.218 c 0.326,0.486 0.567,1.394 0.974,1.843 -0.089,0.66 -0.964,1.238 -1.519,1.41 h -0.867 c -0.287,0.104 -0.376,0.414 -0.651,0.541 0.07,0.189 0.022,0.109 0.109,0.217 0.231,0.156 0.794,0.125 1.194,0.109 v 0.109 h 0.108 c -0.119,0.596 -0.253,0.789 -0.651,1.084 0.037,0.531 0.175,1.266 0.435,1.627 0,0 3.326,-0.363 3.796,-0.217 0.101,-0.201 0.387,-0.475 0.435,-0.65 0.168,-0.641 -0.284,-1.57 0.107,-2.17 v -0.326 h -0.107 c -0.208,0.883 -0.579,1.523 -0.977,2.17 -0.727,0.039 -1.644,0.279 -2.171,-0.107 h -0.215 c 0.423,-1.629 1.233,-1.885 2.276,-2.818 -0.031,-0.846 -0.416,-1.418 -0.867,-1.848 0.053,-0.375 0.121,-0.549 0.326,-0.758 -0.145,-0.536 -0.374,-0.301 -0.761,-0.544 h -0.107 c 0.322,-0.64 1.432,-0.729 1.951,-1.192 h 0.545 c -0.149,0.439 -0.499,0.761 -0.87,0.978 v 0.215 c 1.151,-0.481 2.038,-1.062 3.037,-1.625 v -0.217 c -0.333,-0.133 -0.852,-0.457 -1.083,-0.544 -0.781,-0.292 -4.022,1.716 -4.992,1.952"
       id="path29"
       style="fill:#221714"
       inkscape:connector-curvature="0" /><path
       d="m 290.811,424.152 c -0.117,0.082 -0.103,0.068 -0.326,0.109 v 0.107 h -0.108 v 0.543 c 0.378,-0.141 0.814,-0.148 1.084,0.109 0.293,-0.1 0.318,-0.188 0.542,-0.326 -0.062,-0.344 -0.096,-0.314 -0.217,-0.543 h -0.975 z"
       id="path31"
       style="fill:#221714"
       inkscape:connector-curvature="0" /></g><g
     transform="translate(-253.99944,-385.29101)"
     id="g33" /><g
     transform="translate(-253.99944,-385.29101)"
     id="g35" /><g
     transform="translate(-253.99944,-385.29101)"
     id="g37" /><g
     transform="translate(-253.99944,-385.29101)"
     id="g39" /><g
     transform="translate(-253.99944,-385.29101)"
     id="g41" /><g
     transform="translate(-253.99944,-385.29101)"
     id="g43" /></svg>