<?xml version="1.0" encoding="UTF-8"?>
<svg xmlns="http://www.w3.org/2000/svg" xmlns:xlink="http://www.w3.org/1999/xlink" width="200px" height="51px" viewBox="0 0 199 51" version="1.1">
<g id="surface1">
<path style=" stroke:none;fill-rule:evenodd;fill:rgb(45.490196%,17.254902%,51.764709%);fill-opacity:1;" d="M 23.363281 0.488281 C 23.300781 0.550781 22.925781 0.613281 22.535156 0.621094 C 22.152344 0.632812 21.597656 0.765625 21.308594 0.917969 C 21.019531 1.0625 20.660156 1.140625 20.503906 1.082031 C 20.355469 1.023438 19.976562 1.136719 19.671875 1.339844 C 19.367188 1.539062 19.117188 1.621094 19.113281 1.515625 C 19.113281 1.414062 19.042969 1.429688 18.953125 1.546875 C 18.730469 1.847656 17.890625 2.300781 17.542969 2.300781 C 17.382812 2.300781 17.078125 2.496094 16.863281 2.730469 C 16.648438 2.96875 16.230469 3.164062 15.933594 3.164062 C 15.636719 3.164062 15.453125 3.222656 15.523438 3.292969 C 15.71875 3.492188 14.214844 4.722656 13.960938 4.566406 C 13.835938 4.488281 13.757812 4.503906 13.792969 4.601562 C 13.871094 4.847656 13.199219 5.777344 13.050781 5.625 C 12.984375 5.5625 12.816406 5.851562 12.675781 6.277344 C 12.535156 6.703125 12.234375 7.148438 12.007812 7.269531 C 11.78125 7.390625 11.597656 7.664062 11.597656 7.875 C 11.597656 8.082031 11.457031 8.445312 11.28125 8.675781 C 11.105469 8.90625 10.957031 9.289062 10.949219 9.523438 C 10.941406 9.761719 10.804688 10.320312 10.644531 10.765625 C 10.453125 11.3125 10.433594 11.574219 10.589844 11.574219 C 10.742188 11.574219 10.734375 11.660156 10.566406 11.832031 C 10.371094 12.027344 10.308594 14.886719 10.308594 23.371094 L 10.308594 34.648438 L 19.441406 34.648438 L 19.441406 24.890625 C 19.441406 13.949219 19.472656 13.570312 20.578125 12.496094 C 23.515625 9.636719 28.101562 10 29.757812 13.226562 L 30.402344 14.484375 L 30.402344 34.753906 L 39.546875 34.753906 L 39.457031 23.21875 C 39.371094 12.171875 39.265625 9.632812 38.894531 9.632812 C 38.734375 9.632812 38.425781 8.921875 38.375 8.417969 C 38.328125 8.019531 37.753906 7.046875 37.5625 7.046875 C 37.464844 7.046875 37.386719 6.914062 37.386719 6.753906 C 37.386719 6.421875 35.21875 4.078125 34.824219 3.980469 C 34.6875 3.945312 34.191406 3.570312 33.726562 3.144531 C 33.257812 2.71875 32.464844 2.242188 31.964844 2.082031 C 31.460938 1.921875 30.933594 1.703125 30.789062 1.601562 C 30.191406 1.148438 28.101562 0.746094 26.078125 0.691406 C 24.878906 0.660156 23.804688 0.574219 23.683594 0.5 C 23.570312 0.429688 23.421875 0.425781 23.363281 0.488281 M 64.464844 24.925781 C 64.464844 35.472656 64.523438 44.253906 64.597656 44.441406 C 64.789062 44.949219 69.511719 44.949219 69.707031 44.441406 C 69.78125 44.253906 69.835938 38.019531 69.835938 30.585938 L 69.835938 17.074219 L 70.363281 18.109375 C 70.652344 18.683594 71.179688 19.453125 71.539062 19.816406 C 71.894531 20.183594 72.140625 20.554688 72.085938 20.640625 C 72.039062 20.726562 72.183594 20.847656 72.421875 20.910156 C 72.65625 20.972656 72.847656 21.203125 72.847656 21.425781 C 72.847656 21.648438 73.042969 21.96875 73.277344 22.140625 C 73.511719 22.3125 73.707031 22.566406 73.707031 22.699219 C 73.707031 22.835938 73.851562 23.070312 74.023438 23.214844 C 74.203125 23.363281 74.296875 23.5625 74.238281 23.660156 C 74.179688 23.753906 74.324219 23.894531 74.5625 23.972656 C 74.800781 24.046875 74.996094 24.285156 74.996094 24.503906 C 74.996094 24.71875 75.285156 25.125 75.636719 25.40625 C 75.992188 25.683594 76.28125 26.035156 76.28125 26.183594 C 76.285156 26.332031 76.367188 26.453125 76.464844 26.453125 C 76.5625 26.453125 76.777344 26.71875 76.945312 27.046875 C 77.308594 27.75 78.617188 29.527344 78.90625 29.710938 C 79.023438 29.785156 79.109375 29.929688 79.097656 30.035156 C 79.09375 30.140625 79.28125 30.46875 79.519531 30.765625 C 80.601562 32.109375 81.226562 32.996094 81.226562 33.183594 C 81.226562 33.289062 81.304688 33.332031 81.394531 33.273438 C 81.488281 33.214844 81.683594 33.433594 81.824219 33.761719 C 81.96875 34.085938 82.28125 34.558594 82.519531 34.8125 C 82.753906 35.070312 82.949219 35.359375 82.949219 35.460938 C 82.949219 35.5625 83.289062 35.976562 83.710938 36.382812 C 84.214844 36.871094 84.4375 37.261719 84.371094 37.523438 C 84.3125 37.746094 84.320312 37.867188 84.390625 37.796875 C 84.527344 37.664062 85.527344 38.660156 85.527344 38.929688 C 85.527344 39.019531 85.695312 39.285156 85.902344 39.511719 C 86.109375 39.742188 86.519531 40.292969 86.816406 40.738281 C 87.113281 41.179688 87.425781 41.542969 87.515625 41.546875 C 87.601562 41.546875 87.675781 41.691406 87.675781 41.871094 C 87.675781 42.050781 87.871094 42.390625 88.105469 42.625 C 88.339844 42.863281 88.472656 43.058594 88.398438 43.058594 C 88.320312 43.058594 88.535156 43.335938 88.882812 43.675781 C 89.21875 44.015625 89.675781 44.503906 89.886719 44.765625 C 90.195312 45.144531 90.457031 45.222656 91.175781 45.171875 L 92.082031 45.105469 L 92.082031 5.859375 L 86.386719 5.738281 L 86.386719 18.710938 C 86.386719 30.21875 86.347656 31.652344 86.0625 31.414062 C 85.886719 31.265625 85.742188 31.050781 85.742188 30.941406 C 85.742188 30.828125 85.621094 30.597656 85.472656 30.433594 C 85.324219 30.265625 85.007812 29.875 84.773438 29.558594 C 84.539062 29.246094 84.175781 28.835938 83.96875 28.648438 C 83.761719 28.453125 83.59375 28.167969 83.59375 28.011719 C 83.59375 27.855469 83.351562 27.484375 83.054688 27.1875 C 82.757812 26.890625 82.519531 26.582031 82.519531 26.496094 C 82.519531 26.351562 81.792969 25.410156 81.152344 24.726562 C 80.988281 24.550781 80.785156 24.183594 80.703125 23.917969 C 80.621094 23.652344 80.414062 23.433594 80.246094 23.433594 C 80.078125 23.433594 79.9375 23.3125 79.9375 23.164062 C 79.9375 23.015625 79.613281 22.542969 79.214844 22.109375 C 78.355469 21.167969 77.46875 19.773438 77.71875 19.753906 C 77.816406 19.746094 77.703125 19.660156 77.464844 19.566406 C 77.226562 19.46875 76.890625 19.109375 76.714844 18.769531 C 76.542969 18.429688 76.140625 17.886719 75.820312 17.566406 C 75.5 17.246094 74.886719 16.4375 74.460938 15.773438 C 73.664062 14.523438 73.445312 14.21875 72.792969 13.496094 C 72.585938 13.273438 72.417969 13.007812 72.414062 12.921875 C 72.410156 12.734375 71.277344 11.3125 70.429688 10.429688 C 70.101562 10.089844 69.835938 9.722656 69.835938 9.617188 C 69.835938 9.503906 69.550781 9.105469 69.191406 8.738281 C 68.835938 8.363281 68.546875 7.953125 68.546875 7.820312 C 68.546875 7.6875 68.355469 7.460938 68.117188 7.3125 C 67.882812 7.164062 67.6875 6.910156 67.6875 6.753906 C 67.6875 6.136719 66.921875 5.75 65.683594 5.75 L 64.464844 5.75 L 64.464844 24.925781 M 96.058594 6.382812 C 96.058594 6.734375 96.15625 7.078125 96.273438 7.152344 C 96.390625 7.226562 96.488281 7.523438 96.488281 7.8125 C 96.488281 8.101562 96.585938 8.339844 96.703125 8.339844 C 96.820312 8.339844 96.917969 8.574219 96.917969 8.863281 C 96.917969 9.15625 97.015625 9.449219 97.132812 9.523438 C 97.25 9.597656 97.347656 9.996094 97.347656 10.414062 C 97.347656 10.863281 97.433594 11.117188 97.5625 11.035156 C 97.683594 10.960938 97.789062 11.144531 97.804688 11.453125 C 97.835938 12.15625 97.839844 12.171875 98.273438 13.164062 C 98.472656 13.621094 98.636719 14.269531 98.636719 14.601562 C 98.636719 14.933594 98.738281 15.238281 98.859375 15.28125 C 98.984375 15.320312 99.121094 15.703125 99.160156 16.128906 C 99.199219 16.558594 99.398438 17.15625 99.597656 17.464844 C 99.796875 17.773438 99.902344 18.121094 99.832031 18.238281 C 99.757812 18.355469 99.894531 18.875 100.140625 19.394531 C 100.382812 19.910156 100.613281 20.523438 100.660156 20.753906 C 100.863281 21.796875 101.476562 23.652344 101.660156 23.769531 C 101.769531 23.835938 101.859375 24.171875 101.859375 24.511719 C 101.859375 24.851562 101.957031 25.191406 102.074219 25.265625 C 102.191406 25.339844 102.289062 25.632812 102.289062 25.914062 C 102.289062 26.195312 102.386719 26.488281 102.503906 26.5625 C 102.621094 26.636719 102.71875 26.984375 102.71875 27.34375 C 102.71875 27.714844 102.808594 27.933594 102.933594 27.855469 C 103.0625 27.777344 103.148438 28.015625 103.148438 28.445312 C 103.148438 28.84375 103.230469 29.261719 103.332031 29.375 C 103.429688 29.488281 103.636719 30.140625 103.792969 30.820312 C 103.949219 31.5 104.160156 32.058594 104.257812 32.058594 C 104.359375 32.058594 104.4375 32.242188 104.4375 32.464844 C 104.4375 32.6875 104.578125 33.207031 104.75 33.625 C 104.925781 34.039062 104.996094 34.453125 104.914062 34.546875 C 104.828125 34.640625 104.882812 34.648438 105.03125 34.5625 C 105.214844 34.457031 105.296875 34.574219 105.296875 34.929688 C 105.296875 35.21875 105.445312 35.808594 105.625 36.238281 C 105.800781 36.664062 105.949219 37.066406 105.949219 37.125 C 105.964844 37.585938 106.25 38.558594 106.398438 38.652344 C 106.503906 38.71875 106.585938 39.007812 106.585938 39.296875 C 106.585938 39.585938 106.667969 39.824219 106.765625 39.824219 C 106.945312 39.824219 106.980469 39.976562 107.042969 41.003906 C 107.058594 41.300781 107.144531 41.496094 107.234375 41.4375 C 107.328125 41.382812 107.449219 41.648438 107.515625 42.035156 C 107.890625 44.347656 108.476562 45.214844 109.652344 45.214844 C 110.386719 45.214844 110.480469 45.148438 110.59375 44.570312 C 110.664062 44.21875 110.808594 43.980469 110.914062 44.046875 C 111.015625 44.109375 111.101562 43.871094 111.101562 43.515625 C 111.101562 43.160156 111.199219 42.808594 111.316406 42.734375 C 111.433594 42.660156 111.53125 42.410156 111.53125 42.183594 C 111.53125 41.953125 111.636719 41.765625 111.757812 41.765625 C 111.882812 41.765625 111.9375 41.683594 111.875 41.585938 C 111.816406 41.492188 111.914062 41.128906 112.089844 40.785156 C 112.269531 40.441406 112.378906 40.003906 112.328125 39.824219 C 112.28125 39.636719 112.371094 39.363281 112.53125 39.214844 C 112.6875 39.066406 112.820312 38.703125 112.820312 38.410156 C 112.820312 38.121094 112.902344 37.882812 113 37.882812 C 113.097656 37.882812 113.164062 37.59375 113.144531 37.234375 C 113.121094 36.878906 113.179688 36.589844 113.265625 36.589844 C 113.453125 36.589844 113.972656 35.191406 114.023438 34.570312 C 114.039062 34.351562 114.1875 34.085938 114.351562 33.980469 C 114.511719 33.875 114.582031 33.789062 114.503906 33.789062 C 114.359375 33.785156 114.628906 32.53125 114.945312 31.738281 C 115.359375 30.710938 115.683594 29.734375 115.90625 28.878906 C 116.035156 28.375 116.214844 27.960938 116.308594 27.960938 C 116.398438 27.960938 116.472656 27.8125 116.472656 27.636719 C 116.472656 27.113281 116.996094 25.589844 117.171875 25.589844 C 117.257812 25.589844 117.332031 25.25 117.332031 24.835938 C 117.332031 24.421875 117.4375 24.082031 117.5625 24.082031 C 117.6875 24.082031 117.730469 23.984375 117.65625 23.867188 C 117.582031 23.746094 117.6875 23.335938 117.886719 22.949219 C 118.574219 21.628906 118.621094 21.496094 118.621094 20.851562 C 118.621094 20.492188 118.71875 20.199219 118.835938 20.199219 C 118.957031 20.199219 119.058594 20.03125 119.070312 19.820312 C 119.089844 19.304688 119.875 21.046875 119.894531 21.660156 C 119.90625 21.929688 120.058594 22.207031 120.234375 22.277344 C 120.410156 22.347656 120.503906 22.488281 120.441406 22.589844 C 120.285156 22.839844 120.789062 24.511719 121.019531 24.511719 C 121.121094 24.511719 121.203125 24.800781 121.203125 25.160156 C 121.203125 25.515625 121.289062 25.804688 121.398438 25.804688 C 121.5 25.804688 121.707031 26.316406 121.855469 26.9375 C 122.003906 27.5625 122.222656 28.132812 122.339844 28.210938 C 122.460938 28.289062 122.585938 28.605469 122.617188 28.917969 C 122.648438 29.226562 122.832031 29.78125 123.015625 30.15625 C 123.199219 30.527344 123.351562 31.042969 123.351562 31.300781 C 123.351562 31.5625 123.417969 31.835938 123.5 31.921875 C 123.714844 32.136719 124.203125 33.617188 124.207031 34.066406 C 124.210938 34.285156 124.308594 34.398438 124.425781 34.324219 C 124.550781 34.246094 124.640625 34.464844 124.640625 34.851562 C 124.640625 35.214844 124.738281 35.511719 124.855469 35.511719 C 124.972656 35.511719 125.070312 35.660156 125.070312 35.835938 C 125.070312 36.015625 125.179688 36.378906 125.320312 36.644531 C 125.863281 37.699219 125.929688 37.894531 125.929688 38.429688 C 125.929688 38.730469 126.125 39.1875 126.359375 39.441406 C 126.609375 39.707031 126.789062 40.203125 126.789062 40.605469 C 126.789062 40.992188 126.886719 41.367188 127.003906 41.441406 C 127.121094 41.515625 127.21875 41.8125 127.21875 42.101562 C 127.21875 42.390625 127.304688 42.625 127.40625 42.625 C 127.511719 42.625 127.667969 42.941406 127.757812 43.328125 C 127.847656 43.710938 127.945312 44.144531 127.976562 44.292969 C 128.097656 44.804688 128.699219 45.214844 129.335938 45.214844 C 130.117188 45.214844 130.691406 45.011719 130.554688 44.785156 C 130.496094 44.695312 130.613281 44.289062 130.816406 43.894531 C 131.015625 43.492188 131.207031 42.96875 131.242188 42.734375 C 131.277344 42.5 131.394531 42.109375 131.5 41.871094 C 131.613281 41.636719 131.773438 41.152344 131.859375 40.792969 C 132.054688 40.003906 132.035156 40.066406 132.339844 39.324219 C 132.476562 38.992188 132.59375 38.535156 132.59375 38.3125 C 132.59375 38.089844 132.691406 37.84375 132.808594 37.769531 C 132.929688 37.695312 132.972656 37.546875 132.90625 37.4375 C 132.835938 37.328125 132.863281 37.234375 132.960938 37.234375 C 133.0625 37.234375 133.164062 36.96875 133.1875 36.640625 C 133.214844 36.316406 133.316406 35.855469 133.421875 35.617188 C 133.914062 34.5 134.097656 33.945312 134.097656 33.546875 C 134.097656 33.304688 134.175781 33.160156 134.277344 33.226562 C 134.375 33.285156 134.46875 33.011719 134.484375 32.613281 C 134.519531 31.667969 134.59375 31.332031 134.804688 31.175781 C 134.898438 31.105469 134.992188 30.839844 135.011719 30.585938 C 135.035156 30.328125 135.125 30.117188 135.21875 30.117188 C 135.308594 30.117188 135.386719 29.789062 135.386719 29.382812 C 135.386719 28.976562 135.480469 28.613281 135.59375 28.574219 C 135.707031 28.535156 135.824219 28.183594 135.855469 27.800781 C 135.882812 27.417969 135.984375 27.101562 136.078125 27.101562 C 136.167969 27.101562 136.246094 26.90625 136.246094 26.667969 C 136.246094 26.433594 136.324219 26.238281 136.414062 26.238281 C 136.507812 26.238281 136.609375 25.925781 136.636719 25.539062 C 136.664062 25.15625 136.78125 24.75 136.898438 24.632812 C 137.011719 24.519531 137.105469 24.246094 137.105469 24.023438 C 137.105469 23.804688 137.179688 23.671875 137.265625 23.722656 C 137.355469 23.777344 137.453125 23.476562 137.484375 23.054688 C 137.515625 22.632812 137.644531 22.160156 137.769531 22.003906 C 137.898438 21.855469 137.9375 21.625 137.859375 21.496094 C 137.785156 21.371094 137.96875 20.820312 138.269531 20.277344 C 138.574219 19.726562 138.824219 19.078125 138.828125 18.824219 C 138.832031 18.25 139.789062 15.203125 139.921875 15.335938 C 139.976562 15.390625 140.035156 15.269531 140.058594 15.066406 C 140.132812 14.335938 140.253906 13.824219 140.515625 13.203125 C 140.65625 12.859375 140.800781 12.371094 140.824219 12.125 C 140.847656 11.882812 140.988281 11.554688 141.136719 11.394531 C 141.28125 11.238281 141.402344 10.875 141.402344 10.585938 C 141.402344 10.300781 141.496094 10.0625 141.605469 10.0625 C 141.714844 10.0625 141.773438 9.871094 141.726562 9.636719 C 141.683594 9.402344 141.726562 9.160156 141.828125 9.097656 C 141.925781 9.035156 142.074219 8.59375 142.15625 8.125 C 142.238281 7.648438 142.367188 7.261719 142.453125 7.261719 C 142.53125 7.261719 142.59375 6.945312 142.59375 6.558594 L 142.585938 5.859375 L 139.835938 5.796875 C 137.816406 5.753906 137.019531 5.8125 136.828125 6.015625 C 136.496094 6.363281 136.03125 7.691406 136.03125 8.28125 C 136.03125 8.53125 135.945312 8.765625 135.835938 8.808594 C 135.730469 8.84375 135.589844 9.167969 135.53125 9.523438 C 135.289062 10.929688 135.105469 11.585938 134.929688 11.699219 C 134.824219 11.761719 134.742188 12.152344 134.742188 12.570312 C 134.742188 13.019531 134.652344 13.273438 134.527344 13.191406 C 134.410156 13.117188 134.3125 13.238281 134.3125 13.457031 C 134.3125 13.679688 134.222656 13.953125 134.105469 14.0625 C 133.996094 14.179688 133.878906 14.632812 133.847656 15.078125 C 133.816406 15.523438 133.71875 15.886719 133.625 15.886719 C 133.527344 15.886719 133.453125 16.070312 133.453125 16.300781 C 133.453125 16.527344 133.332031 16.761719 133.183594 16.824219 C 132.96875 16.90625 132.96875 16.933594 133.183594 16.949219 C 133.375 16.960938 133.394531 17.074219 133.253906 17.34375 C 132.96875 17.882812 132.148438 20.652344 132.109375 21.222656 C 132.089844 21.488281 131.996094 21.707031 131.902344 21.707031 C 131.808594 21.707031 131.734375 21.898438 131.734375 22.125 C 131.734375 22.355469 131.636719 22.605469 131.519531 22.679688 C 131.398438 22.753906 131.300781 23.148438 131.300781 23.554688 C 131.300781 23.964844 131.207031 24.296875 131.085938 24.296875 C 130.96875 24.296875 130.871094 24.585938 130.871094 24.945312 C 130.871094 25.300781 130.796875 25.589844 130.703125 25.589844 C 130.609375 25.589844 130.515625 25.820312 130.492188 26.101562 C 130.46875 26.386719 130.339844 26.894531 130.199219 27.234375 C 130.058594 27.574219 129.960938 27.929688 129.980469 28.023438 C 130 28.113281 129.839844 28.5625 129.621094 29.015625 C 129.398438 29.472656 129.230469 30.140625 129.242188 30.5 C 129.25 30.859375 129.1875 31.109375 129.101562 31.054688 C 129.011719 31 128.9375 31.058594 128.9375 31.183594 C 128.9375 31.308594 128.84375 31.414062 128.730469 31.414062 C 128.617188 31.414062 128.578125 31.269531 128.648438 31.089844 C 128.714844 30.910156 128.664062 30.765625 128.53125 30.765625 C 128.402344 30.765625 128.292969 30.523438 128.292969 30.226562 C 128.292969 29.929688 128.1875 29.6875 128.050781 29.6875 C 127.910156 29.6875 127.855469 29.460938 127.917969 29.136719 C 127.976562 28.832031 127.898438 28.457031 127.742188 28.304688 C 127.59375 28.152344 127.425781 27.742188 127.378906 27.398438 C 127.28125 26.722656 127.089844 26.128906 126.773438 25.539062 C 126.664062 25.335938 126.574219 24.871094 126.574219 24.515625 C 126.574219 24.160156 126.476562 23.867188 126.359375 23.867188 C 126.242188 23.867188 126.144531 23.621094 126.144531 23.328125 C 126.144531 23.03125 126.046875 22.789062 125.929688 22.789062 C 125.8125 22.789062 125.714844 22.496094 125.714844 22.140625 C 125.714844 21.78125 125.601562 21.492188 125.464844 21.492188 C 125.324219 21.492188 125.269531 21.4375 125.339844 21.367188 C 125.40625 21.300781 125.367188 20.9375 125.25 20.558594 C 125.136719 20.183594 124.859375 19.242188 124.636719 18.464844 C 124.414062 17.6875 124.117188 16.765625 123.976562 16.414062 C 123.832031 16.066406 123.6875 15.644531 123.652344 15.476562 C 123.621094 15.308594 123.511719 15.117188 123.410156 15.042969 C 123.3125 14.972656 123.242188 14.699219 123.261719 14.433594 C 123.277344 14.167969 123.183594 13.730469 123.046875 13.464844 C 122.910156 13.195312 122.804688 12.78125 122.808594 12.542969 C 122.808594 12.308594 122.691406 11.984375 122.542969 11.828125 C 122.394531 11.667969 122.328125 11.449219 122.398438 11.335938 C 122.464844 11.230469 122.378906 11.085938 122.203125 11.019531 C 122.03125 10.949219 121.914062 10.734375 121.949219 10.535156 C 121.980469 10.332031 121.910156 10.050781 121.792969 9.902344 C 121.675781 9.753906 121.640625 9.632812 121.71875 9.632812 C 121.796875 9.632812 121.707031 9.347656 121.53125 8.996094 C 121.347656 8.644531 121.203125 8.074219 121.203125 7.71875 C 121.203125 7.367188 121.113281 7.046875 121.007812 7.007812 C 120.898438 6.972656 120.777344 6.742188 120.738281 6.507812 C 120.632812 5.894531 120.367188 5.757812 119.257812 5.753906 C 118.21875 5.75 117.722656 6.042969 117.910156 6.535156 C 117.976562 6.703125 117.921875 6.964844 117.789062 7.121094 C 117.664062 7.273438 117.523438 7.609375 117.488281 7.863281 C 117.449219 8.121094 117.351562 8.394531 117.265625 8.476562 C 117.1875 8.558594 117.117188 8.851562 117.117188 9.128906 C 117.117188 9.40625 117.019531 9.632812 116.902344 9.632812 C 116.785156 9.632812 116.6875 9.972656 116.6875 10.386719 C 116.6875 10.800781 116.589844 11.140625 116.472656 11.140625 C 116.355469 11.140625 116.257812 11.386719 116.257812 11.679688 C 116.257812 11.976562 116.160156 12.21875 116.042969 12.21875 C 115.925781 12.21875 115.828125 12.554688 115.828125 12.960938 C 115.828125 13.371094 115.730469 13.765625 115.613281 13.839844 C 115.496094 13.910156 115.398438 14.144531 115.398438 14.355469 C 115.398438 14.570312 115.25 15.042969 115.0625 15.414062 C 114.878906 15.785156 114.671875 16.457031 114.597656 16.902344 C 114.527344 17.351562 114.292969 18.007812 114.074219 18.367188 C 113.859375 18.722656 113.679688 19.28125 113.679688 19.605469 C 113.679688 19.933594 113.582031 20.199219 113.464844 20.199219 C 113.347656 20.199219 113.25 20.480469 113.25 20.816406 C 113.25 21.15625 113.035156 21.707031 112.769531 22.046875 C 112.507812 22.382812 112.433594 22.570312 112.609375 22.46875 C 112.871094 22.308594 112.878906 22.328125 112.664062 22.597656 C 112.519531 22.777344 112.378906 23.230469 112.351562 23.609375 C 112.324219 23.988281 112.234375 24.296875 112.15625 24.296875 C 112.078125 24.296875 112.015625 24.558594 112.015625 24.878906 C 112.015625 25.203125 111.90625 25.5 111.773438 25.546875 C 111.636719 25.589844 111.53125 25.765625 111.53125 25.929688 C 111.53125 26.097656 111.429688 26.238281 111.308594 26.238281 C 111.1875 26.238281 111.105469 26.554688 111.125 26.9375 C 111.140625 27.324219 111.0625 27.882812 110.941406 28.179688 C 110.820312 28.476562 110.699219 28.816406 110.671875 28.933594 C 110.609375 29.183594 110.292969 30.078125 110.09375 30.550781 C 110.015625 30.730469 109.949219 30.9375 109.9375 31.019531 C 109.839844 31.761719 109.410156 31.285156 109.300781 30.316406 C 109.238281 29.753906 109.035156 29.152344 108.71875 28.558594 C 108.613281 28.351562 108.523438 27.945312 108.523438 27.65625 C 108.523438 27.363281 108.425781 27.066406 108.308594 26.992188 C 108.191406 26.917969 108.09375 26.523438 108.09375 26.117188 C 108.09375 25.707031 107.996094 25.375 107.878906 25.375 C 107.757812 25.375 107.664062 25.140625 107.664062 24.847656 C 107.664062 24.558594 107.566406 24.261719 107.449219 24.1875 C 107.328125 24.113281 107.234375 23.71875 107.234375 23.3125 C 107.234375 22.90625 107.136719 22.570312 107.019531 22.570312 C 106.898438 22.570312 106.800781 22.328125 106.800781 22.027344 C 106.800781 21.734375 106.707031 21.292969 106.585938 21.058594 C 106.46875 20.824219 106.277344 20.4375 106.15625 20.203125 C 106.039062 19.96875 105.941406 19.457031 105.941406 19.070312 C 105.941406 18.683594 105.753906 18.0625 105.53125 17.6875 C 105.253906 17.238281 105.191406 16.941406 105.335938 16.800781 C 105.480469 16.65625 105.472656 16.535156 105.320312 16.4375 C 105.1875 16.359375 105.082031 16.101562 105.082031 15.875 C 105.082031 15.644531 104.984375 15.457031 104.867188 15.457031 C 104.75 15.457031 104.652344 15.234375 104.652344 14.960938 C 104.652344 14.6875 104.53125 14.332031 104.386719 14.171875 C 104.167969 13.9375 104.175781 13.914062 104.4375 14.0625 C 104.707031 14.210938 104.714844 14.1875 104.492188 13.910156 C 104.347656 13.730469 104.285156 13.523438 104.355469 13.457031 C 104.425781 13.386719 104.339844 13.054688 104.164062 12.71875 C 103.695312 11.828125 102.890625 8.988281 102.617188 7.261719 C 102.605469 7.199219 102.480469 6.949219 102.34375 6.695312 C 102.203125 6.445312 102.160156 6.164062 102.242188 6.066406 C 102.328125 5.972656 102.277344 5.96875 102.128906 6.050781 C 101.980469 6.140625 101.859375 6.105469 101.859375 5.980469 C 101.859375 5.828125 100.855469 5.75 98.957031 5.75 L 96.058594 5.75 L 96.058594 6.382812 M 146.828125 19.308594 C 146.855469 26.773438 146.808594 32.835938 146.722656 32.78125 C 146.632812 32.722656 146.570312 33.269531 146.589844 33.992188 C 146.605469 34.714844 146.703125 35.355469 146.804688 35.417969 C 146.90625 35.484375 146.992188 35.820312 146.992188 36.171875 C 146.992188 36.519531 147.082031 36.804688 147.191406 36.804688 C 147.304688 36.804688 147.378906 36.980469 147.363281 37.195312 C 147.328125 37.722656 147.851562 38.960938 148.117188 38.960938 C 148.230469 38.960938 148.269531 39.109375 148.199219 39.289062 C 148.125 39.480469 148.210938 39.675781 148.390625 39.746094 C 148.566406 39.8125 148.714844 39.980469 148.71875 40.117188 C 148.722656 40.25 149.007812 40.691406 149.355469 41.097656 C 149.703125 41.503906 149.921875 41.933594 149.847656 42.050781 C 149.769531 42.179688 149.855469 42.214844 150.058594 42.132812 C 150.25 42.0625 150.433594 42.074219 150.46875 42.160156 C 150.628906 42.523438 153.398438 44.082031 154.136719 44.21875 C 154.582031 44.304688 154.941406 44.460938 154.941406 44.578125 C 154.941406 44.6875 155.578125 44.78125 156.351562 44.78125 C 157.238281 44.78125 157.714844 44.863281 157.628906 45 C 157.484375 45.230469 157.847656 45.253906 161.390625 45.214844 C 163.984375 45.183594 164.546875 45.136719 164.75 44.929688 C 164.835938 44.851562 165.125 44.78125 165.394531 44.78125 C 165.667969 44.78125 166.238281 44.585938 166.667969 44.34375 C 167.113281 44.09375 167.625 43.960938 167.859375 44.035156 C 168.085938 44.109375 168.265625 44.0625 168.265625 43.933594 C 168.265625 43.808594 168.398438 43.703125 168.554688 43.703125 C 168.71875 43.703125 169.070312 43.507812 169.34375 43.273438 C 169.613281 43.039062 169.894531 42.84375 169.964844 42.839844 C 170.039062 42.835938 170.480469 42.496094 170.949219 42.085938 C 171.425781 41.667969 171.878906 41.332031 171.957031 41.332031 C 172.039062 41.332031 172.164062 41.164062 172.226562 40.957031 C 172.292969 40.746094 172.589844 40.296875 172.882812 39.957031 C 173.175781 39.613281 173.363281 39.25 173.300781 39.148438 C 173.238281 39.042969 173.277344 38.960938 173.386719 38.960938 C 173.503906 38.960938 173.652344 38.71875 173.726562 38.421875 C 173.800781 38.125 173.941406 37.882812 174.039062 37.882812 C 174.132812 37.882812 174.199219 37.664062 174.175781 37.398438 C 174.152344 37.132812 174.210938 36.765625 174.296875 36.589844 C 174.792969 35.585938 174.988281 34.4375 174.722656 34.117188 C 174.535156 33.890625 174.523438 33.785156 174.6875 33.785156 C 174.863281 33.785156 174.929688 29.988281 174.929688 19.769531 L 174.929688 5.75 L 172.042969 5.75 C 170.453125 5.75 169.105469 5.832031 169.042969 5.929688 C 168.980469 6.03125 168.917969 12.398438 168.902344 20.089844 C 168.871094 34.746094 168.777344 36.132812 167.792969 36.550781 C 167.699219 36.589844 167.621094 36.765625 167.621094 36.941406 C 167.621094 37.117188 167.527344 37.203125 167.40625 37.128906 C 167.289062 37.054688 167.191406 37.082031 167.191406 37.1875 C 167.191406 37.472656 166.429688 38.3125 166.171875 38.3125 C 166.054688 38.3125 165.828125 38.46875 165.667969 38.660156 C 165.433594 38.945312 164.617188 39.398438 164.183594 39.484375 C 164.125 39.496094 163.941406 39.59375 163.773438 39.699219 C 163.558594 39.835938 163.519531 39.8125 163.640625 39.621094 C 163.769531 39.414062 163.710938 39.398438 163.40625 39.558594 C 163.183594 39.679688 162.425781 39.839844 161.71875 39.925781 C 161.015625 40.003906 160.363281 40.117188 160.269531 40.171875 C 160.179688 40.234375 160.101562 40.195312 160.101562 40.085938 C 160.101562 39.976562 159.652344 39.882812 159.105469 39.878906 C 158.554688 39.867188 158.039062 39.746094 157.953125 39.609375 C 157.867188 39.46875 157.734375 39.371094 157.65625 39.386719 C 157.332031 39.46875 156.234375 39.125 156.234375 38.945312 C 156.234375 38.835938 156.132812 38.746094 156.011719 38.746094 C 155.886719 38.746094 155.523438 38.472656 155.199219 38.136719 C 154.871094 37.804688 154.4375 37.46875 154.222656 37.386719 C 154.011719 37.304688 153.902344 37.140625 153.976562 37.019531 C 154.050781 36.898438 153.960938 36.742188 153.773438 36.671875 C 153.589844 36.601562 153.4375 36.300781 153.4375 36.003906 C 153.4375 35.710938 153.21875 35.277344 152.957031 35.042969 C 152.691406 34.808594 152.605469 34.683594 152.773438 34.773438 C 152.980469 34.878906 153.023438 34.847656 152.914062 34.671875 C 152.828125 34.527344 152.738281 27.984375 152.71875 20.136719 L 152.6875 5.859375 L 146.769531 5.738281 L 146.828125 19.308594 M 0.542969 16.253906 C 0.464844 16.457031 0.414062 18.839844 0.433594 21.550781 C 0.453125 24.261719 0.40625 26.542969 0.328125 26.617188 C 0.140625 26.808594 0.207031 38.746094 0.394531 38.746094 C 0.476562 38.746094 0.527344 39.011719 0.511719 39.339844 C 0.492188 39.664062 0.574219 40.050781 0.691406 40.199219 C 0.835938 40.386719 0.824219 40.46875 0.644531 40.46875 C 0.480469 40.46875 0.511719 40.589844 0.726562 40.808594 C 0.914062 40.996094 1.066406 41.4375 1.066406 41.789062 C 1.066406 42.167969 1.15625 42.378906 1.28125 42.304688 C 1.398438 42.230469 1.496094 42.367188 1.496094 42.605469 C 1.496094 43.40625 5.039062 47.367188 5.753906 47.371094 C 5.90625 47.371094 5.980469 47.453125 5.921875 47.554688 C 5.859375 47.65625 6.265625 47.96875 6.820312 48.253906 C 7.378906 48.535156 7.898438 48.851562 7.972656 48.960938 C 8.050781 49.070312 8.3125 49.105469 8.550781 49.042969 C 8.816406 48.972656 9.035156 49.046875 9.105469 49.226562 C 9.167969 49.390625 9.464844 49.527344 9.761719 49.527344 C 10.0625 49.527344 10.308594 49.601562 10.308594 49.6875 C 10.308594 49.777344 10.5625 49.863281 10.871094 49.882812 C 11.183594 49.902344 11.5 50.007812 11.570312 50.125 C 11.644531 50.234375 12.125 50.328125 12.636719 50.324219 C 13.160156 50.324219 13.644531 50.445312 13.738281 50.59375 C 13.867188 50.804688 13.929688 50.808594 13.996094 50.609375 C 14.054688 50.433594 14.695312 50.347656 16.007812 50.347656 C 17.070312 50.351562 18.050781 50.253906 18.191406 50.140625 C 18.328125 50.027344 18.734375 49.921875 19.089844 49.910156 C 19.449219 49.902344 19.722656 49.785156 19.699219 49.660156 C 19.671875 49.523438 19.90625 49.453125 20.246094 49.488281 C 20.574219 49.527344 20.835938 49.464844 20.835938 49.351562 C 20.835938 49.238281 21.273438 49.015625 21.804688 48.855469 C 22.335938 48.699219 22.773438 48.496094 22.773438 48.402344 C 22.773438 48.3125 22.96875 48.234375 23.203125 48.234375 C 23.4375 48.234375 23.632812 48.136719 23.632812 48.015625 C 23.632812 47.898438 23.785156 47.800781 23.976562 47.800781 C 24.199219 47.800781 24.277344 47.683594 24.195312 47.46875 C 24.121094 47.277344 24.15625 47.1875 24.28125 47.261719 C 24.398438 47.335938 24.492188 47.246094 24.492188 47.0625 C 24.492188 46.765625 24.265625 46.640625 23.828125 46.6875 C 23.761719 46.695312 23.570312 46.496094 23.398438 46.253906 C 23.230469 46.007812 22.828125 45.539062 22.503906 45.203125 C 22.175781 44.875 21.914062 44.539062 21.914062 44.464844 C 21.914062 44.390625 21.714844 44.121094 21.472656 43.863281 C 20.824219 43.164062 19.90625 41.164062 19.773438 40.160156 C 19.660156 39.316406 18.6875 38.648438 18.6875 39.410156 C 18.6875 39.558594 18.628906 39.617188 18.554688 39.542969 C 18.480469 39.472656 18.03125 39.609375 17.550781 39.851562 C 15.605469 40.851562 12.554688 40.371094 10.84375 38.796875 C 9.558594 37.617188 9.636719 38.300781 9.527344 26.949219 C 9.472656 21.160156 9.386719 16.304688 9.335938 16.15625 C 9.179688 15.683594 0.722656 15.777344 0.542969 16.253906 M 20.773438 16.15625 C 20.410156 16.425781 20.167969 38.824219 20.515625 39.394531 C 20.585938 39.507812 20.6875 39.957031 20.742188 40.402344 C 20.800781 40.847656 20.933594 41.300781 21.039062 41.40625 C 21.148438 41.515625 21.183594 41.734375 21.121094 41.898438 C 21.058594 42.058594 21.105469 42.195312 21.226562 42.195312 C 21.347656 42.195312 21.507812 42.46875 21.578125 42.796875 C 21.652344 43.132812 21.953125 43.660156 22.242188 43.972656 C 22.535156 44.289062 22.777344 44.625 22.777344 44.71875 C 22.796875 45.21875 25.753906 47.804688 26.695312 48.144531 C 26.902344 48.222656 27.070312 48.367188 27.070312 48.476562 C 27.070312 48.582031 27.203125 48.664062 27.359375 48.664062 C 27.519531 48.664062 27.976562 48.828125 28.378906 49.035156 C 28.78125 49.238281 29.296875 49.433594 29.523438 49.46875 C 29.753906 49.507812 30.042969 49.617188 30.167969 49.71875 C 31 50.378906 37.953125 50.539062 39.058594 49.921875 C 39.445312 49.707031 39.976562 49.523438 40.242188 49.523438 C 40.503906 49.519531 40.960938 49.328125 41.253906 49.097656 C 41.550781 48.863281 41.914062 48.671875 42.0625 48.667969 C 42.414062 48.664062 43.09375 48.277344 44.078125 47.53125 C 44.507812 47.207031 44.929688 46.9375 45.007812 46.9375 C 45.226562 46.9375 45.667969 46.449219 45.828125 46.023438 C 45.90625 45.8125 46.117188 45.644531 46.296875 45.644531 C 46.480469 45.644531 46.628906 45.492188 46.628906 45.308594 C 46.628906 45.125 46.726562 45.03125 46.84375 45.105469 C 46.960938 45.179688 47.058594 45.0625 47.058594 44.84375 C 47.058594 44.625 47.25 44.308594 47.488281 44.136719 C 47.722656 43.964844 47.917969 43.648438 47.917969 43.429688 C 47.917969 43.210938 48.015625 43.089844 48.132812 43.164062 C 48.25 43.238281 48.347656 43.144531 48.347656 42.960938 C 48.347656 42.773438 48.445312 42.425781 48.5625 42.191406 C 48.679688 41.957031 48.875 41.570312 48.992188 41.335938 C 49.109375 41.101562 49.207031 40.5625 49.207031 40.136719 C 49.207031 39.695312 49.292969 39.421875 49.414062 39.496094 C 49.765625 39.714844 49.710938 16.433594 49.355469 16.140625 C 49.164062 15.980469 47.664062 15.917969 44.824219 15.945312 L 40.574219 15.996094 L 40.539062 26.4375 C 40.511719 34.308594 40.4375 36.898438 40.246094 36.960938 C 40.105469 37.007812 40.027344 37.160156 40.078125 37.304688 C 40.179688 37.597656 39.71875 38.179688 38.710938 39.015625 C 38.320312 39.339844 38.078125 39.609375 38.175781 39.617188 C 39.292969 39.667969 36.492188 40.253906 35.15625 40.246094 C 32.933594 40.234375 32.65625 40.214844 32.65625 40.042969 C 32.65625 39.96875 32.320312 39.769531 31.90625 39.609375 C 31.492188 39.445312 31.152344 39.246094 31.152344 39.167969 C 31.152344 39.089844 30.863281 38.722656 30.507812 38.347656 C 30.144531 37.964844 29.863281 37.4375 29.863281 37.132812 C 29.863281 36.832031 29.773438 36.589844 29.664062 36.589844 C 29.542969 36.589844 29.453125 32.558594 29.441406 26.421875 C 29.429688 20.828125 29.371094 16.171875 29.308594 16.070312 C 29.117188 15.761719 21.195312 15.84375 20.773438 16.15625 "/>
<path style=" stroke:none;fill-rule:evenodd;fill:rgb(39.215687%,14.117648%,42.352942%);fill-opacity:1;" d="M 22.914062 0.328125 C 22.699219 0.417969 23.613281 0.496094 24.953125 0.507812 C 26.402344 0.519531 27.21875 0.453125 26.960938 0.351562 C 26.429688 0.132812 23.453125 0.117188 22.914062 0.328125 M 20.730469 0.792969 C 20.5625 1.0625 21.058594 1.0625 21.484375 0.792969 C 21.746094 0.621094 21.71875 0.582031 21.335938 0.578125 C 21.078125 0.574219 20.804688 0.671875 20.730469 0.792969 M 28.359375 0.792969 C 28.777344 1.0625 29.003906 1.0625 29.003906 0.792969 C 29.003906 0.671875 28.785156 0.574219 28.519531 0.578125 C 28.132812 0.582031 28.097656 0.621094 28.359375 0.792969 M 34.164062 3.328125 C 34.164062 3.417969 34.355469 3.613281 34.59375 3.761719 C 35.09375 4.074219 35.160156 3.917969 34.714844 3.46875 C 34.378906 3.132812 34.164062 3.074219 34.164062 3.328125 M 65.164062 5.691406 C 65.488281 5.738281 66.019531 5.738281 66.34375 5.691406 C 66.671875 5.640625 66.40625 5.601562 65.753906 5.601562 C 65.101562 5.601562 64.835938 5.640625 65.164062 5.691406 M 88.0625 5.699219 C 88.804688 5.738281 89.960938 5.738281 90.640625 5.695312 C 91.316406 5.652344 90.703125 5.617188 89.289062 5.617188 C 87.871094 5.617188 87.316406 5.652344 88.0625 5.699219 M 97.625 5.699219 C 98.429688 5.738281 99.683594 5.738281 100.417969 5.695312 C 101.152344 5.652344 100.496094 5.621094 98.957031 5.621094 C 97.421875 5.621094 96.824219 5.652344 97.625 5.699219 M 118.675781 5.691406 C 119.003906 5.738281 119.53125 5.738281 119.859375 5.691406 C 120.183594 5.640625 119.917969 5.601562 119.269531 5.601562 C 118.617188 5.601562 118.351562 5.640625 118.675781 5.691406 M 138.234375 5.699219 C 139.03125 5.738281 140.335938 5.738281 141.136719 5.699219 C 141.933594 5.652344 141.28125 5.621094 139.683594 5.621094 C 138.089844 5.621094 137.433594 5.652344 138.234375 5.699219 M 148.34375 5.699219 C 149.148438 5.738281 150.402344 5.738281 151.136719 5.695312 C 151.871094 5.652344 151.214844 5.621094 149.675781 5.621094 C 148.140625 5.621094 147.542969 5.652344 148.34375 5.699219 M 170.480469 5.699219 C 171.28125 5.738281 172.539062 5.738281 173.273438 5.695312 C 174.007812 5.652344 173.351562 5.621094 171.8125 5.621094 C 170.277344 5.621094 169.679688 5.652344 170.480469 5.699219 M 36.960938 5.878906 C 36.96875 6.167969 37.804688 7.195312 37.8125 6.917969 C 37.8125 6.785156 37.621094 6.457031 37.386719 6.183594 C 37.152344 5.910156 36.960938 5.773438 36.960938 5.878906 M 95.628906 6.074219 C 95.628906 6.253906 95.726562 6.398438 95.84375 6.398438 C 95.960938 6.398438 96.058594 6.253906 96.058594 6.074219 C 96.058594 5.894531 95.960938 5.75 95.84375 5.75 C 95.726562 5.75 95.628906 5.894531 95.628906 6.074219 M 142.644531 6.433594 C 142.550781 7.046875 142.570312 7.070312 142.835938 6.714844 C 143.164062 6.261719 143.21875 5.75 142.929688 5.75 C 142.828125 5.75 142.695312 6.058594 142.644531 6.433594 M 146.347656 20.507812 C 146.347656 30.117188 146.421875 35.316406 146.5625 35.402344 C 146.679688 35.476562 146.789062 35.847656 146.804688 36.222656 C 146.832031 36.785156 146.855469 36.8125 146.929688 36.394531 C 146.984375 36.109375 146.925781 35.671875 146.792969 35.421875 C 146.628906 35.105469 146.574219 30.640625 146.613281 20.359375 C 146.644531 12.324219 146.59375 5.75 146.507812 5.75 C 146.421875 5.75 146.347656 12.390625 146.347656 20.507812 M 168.796875 19.121094 C 168.796875 26.535156 168.824219 29.566406 168.859375 25.859375 C 168.890625 22.152344 168.890625 16.089844 168.859375 12.382812 C 168.824219 8.675781 168.796875 11.707031 168.796875 19.121094 M 117.761719 6.683594 C 117.761719 6.882812 117.664062 7.046875 117.546875 7.046875 C 117.429688 7.046875 117.332031 7.234375 117.332031 7.464844 C 117.332031 7.691406 117.246094 7.933594 117.140625 8.003906 C 117.039062 8.066406 116.914062 8.453125 116.863281 8.859375 C 116.816406 9.269531 116.855469 9.554688 116.945312 9.5 C 117.042969 9.441406 117.117188 9.203125 117.117188 8.972656 C 117.117188 8.738281 117.324219 8.109375 117.574219 7.574219 C 117.828125 7.035156 117.972656 6.535156 117.898438 6.460938 C 117.824219 6.386719 117.761719 6.488281 117.761719 6.683594 M 67.6875 6.734375 C 67.6875 6.898438 68.265625 7.476562 68.425781 7.476562 C 68.699219 7.476562 68.523438 7.132812 68.117188 6.878906 C 67.882812 6.730469 67.6875 6.667969 67.6875 6.734375 M 11.660156 7.316406 C 11.328125 7.753906 10.777344 9.042969 10.488281 10.074219 C 10.113281 11.394531 9.96875 34.34375 10.332031 34.78125 C 10.789062 35.339844 19.761719 35.183594 19.761719 34.617188 C 19.761719 34.503906 19.585938 34.511719 19.347656 34.640625 C 18.902344 34.875 11.238281 34.960938 10.644531 34.730469 C 10.34375 34.613281 10.308594 33.398438 10.308594 23.191406 C 10.308594 10.851562 10.335938 10.46875 11.554688 7.949219 C 11.992188 7.03125 12.03125 6.828125 11.660156 7.316406 M 121.207031 7.839844 C 121.207031 8.054688 121.300781 8.375 121.417969 8.554688 C 121.578125 8.808594 121.625 8.753906 121.628906 8.296875 C 121.632812 7.976562 121.535156 7.660156 121.417969 7.585938 C 121.300781 7.511719 121.203125 7.625 121.207031 7.839844 M 68.976562 8.332031 C 69.636719 9.269531 69.957031 9.378906 69.371094 8.472656 C 69.097656 8.046875 68.789062 7.695312 68.695312 7.695312 C 68.597656 7.691406 68.722656 7.980469 68.976562 8.332031 M 189.113281 8.367188 C 186.648438 9.742188 185.890625 11.117188 185.890625 14.1875 C 185.890625 16.164062 186.152344 17.394531 186.570312 17.394531 C 186.667969 17.394531 186.75 17.542969 186.75 17.726562 C 186.75 18.460938 189.246094 20.414062 190.183594 20.414062 C 190.40625 20.414062 190.652344 20.511719 190.726562 20.628906 C 190.800781 20.75 191.53125 20.847656 192.351562 20.847656 C 193.199219 20.847656 193.84375 20.753906 193.84375 20.628906 C 193.84375 20.511719 194.132812 20.414062 194.488281 20.414062 C 194.84375 20.414062 195.132812 20.316406 195.132812 20.199219 C 195.132812 20.082031 195.328125 19.984375 195.5625 19.984375 C 195.796875 19.984375 195.992188 19.886719 195.992188 19.769531 C 195.992188 19.648438 196.1875 19.550781 196.421875 19.550781 C 196.707031 19.550781 196.851562 19.40625 196.851562 19.121094 C 196.851562 18.835938 196.996094 18.691406 197.28125 18.691406 C 197.527344 18.691406 197.710938 18.546875 197.710938 18.351562 C 197.710938 18.164062 197.863281 17.859375 198.042969 17.679688 C 198.226562 17.492188 198.433594 17.066406 198.5 16.722656 C 198.566406 16.382812 198.707031 16.101562 198.8125 16.101562 C 199.074219 16.101562 199.050781 12.273438 198.785156 12.113281 C 198.667969 12.039062 198.570312 11.789062 198.570312 11.558594 C 198.570312 11.332031 198.472656 11.140625 198.355469 11.140625 C 198.238281 11.140625 198.140625 11.011719 198.140625 10.851562 C 198.140625 10.433594 196.308594 8.554688 195.902344 8.554688 C 195.714844 8.554688 195.5625 8.480469 195.5625 8.394531 C 195.546875 7.4375 190.808594 7.417969 189.113281 8.367188 M 102.738281 7.90625 C 102.734375 7.96875 102.910156 8.597656 103.140625 9.308594 C 103.378906 10.042969 103.550781 10.371094 103.550781 10.0625 C 103.546875 9.617188 102.777344 7.574219 102.738281 7.90625 M 141.996094 8.761719 C 141.851562 9.292969 141.941406 9.597656 142.171875 9.363281 C 142.242188 9.296875 142.261719 9.011719 142.222656 8.734375 L 142.144531 8.230469 L 141.996094 8.761719 M 70.265625 10.058594 C 70.78125 10.792969 71.128906 11.054688 71.128906 10.722656 C 71.128906 10.601562 71.03125 10.496094 70.914062 10.496094 C 70.792969 10.496094 70.699219 10.390625 70.699219 10.261719 C 70.699219 10.011719 70.171875 9.417969 69.945312 9.417969 C 69.871094 9.417969 70.011719 9.707031 70.265625 10.058594 M 96.972656 9.863281 C 96.957031 10.089844 97.035156 10.28125 97.144531 10.28125 C 97.390625 10.28125 97.414062 9.699219 97.175781 9.550781 C 97.082031 9.496094 96.992188 9.632812 96.972656 9.863281 M 193.199219 9.632812 C 193.199219 9.75 193.390625 9.847656 193.628906 9.847656 C 193.863281 9.847656 194.058594 9.945312 194.058594 10.0625 C 194.058594 10.183594 194.25 10.28125 194.488281 10.28125 C 194.722656 10.28125 194.917969 10.378906 194.917969 10.496094 C 194.917969 10.613281 195.019531 10.710938 195.148438 10.710938 C 196.34375 10.710938 197.273438 13.910156 196.617188 15.777344 C 196.15625 17.089844 195.140625 17.785156 195.125 16.804688 C 195.121094 16.59375 194.847656 16.191406 194.519531 15.902344 L 193.921875 15.382812 L 194.527344 14.800781 C 195.390625 13.972656 195.414062 12.050781 194.566406 11.203125 C 194.035156 10.671875 193.871094 10.636719 191.882812 10.621094 C 190.714844 10.609375 189.761719 10.527344 189.757812 10.441406 C 189.757812 10.355469 189.953125 10.28125 190.1875 10.28125 C 190.421875 10.28125 190.617188 10.183594 190.617188 10.0625 C 190.617188 9.945312 190.804688 9.847656 191.035156 9.847656 C 191.261719 9.847656 191.511719 9.75 191.585938 9.632812 C 191.660156 9.515625 192.050781 9.417969 192.457031 9.417969 C 192.863281 9.417969 193.199219 9.515625 193.199219 9.632812 M 103.707031 11.289062 C 103.90625 12.113281 104.007812 12.191406 104.007812 11.511719 C 104.007812 11.207031 103.90625 10.890625 103.785156 10.8125 C 103.640625 10.722656 103.613281 10.886719 103.707031 11.289062 M 189.328125 14.054688 C 189.328125 16.140625 189.25 17.394531 189.113281 17.394531 C 188.996094 17.394531 188.898438 17.296875 188.898438 17.171875 C 188.898438 17.050781 188.703125 16.738281 188.46875 16.484375 C 188.234375 16.230469 188.039062 15.894531 188.039062 15.738281 C 188.039062 15.582031 187.941406 15.457031 187.824219 15.457031 C 187.398438 15.457031 187.574219 13.101562 188.039062 12.601562 C 188.273438 12.347656 188.46875 12.011719 188.46875 11.855469 C 188.46875 11.703125 188.566406 11.574219 188.683594 11.574219 C 188.800781 11.574219 188.898438 11.378906 188.898438 11.140625 C 188.898438 10.90625 188.996094 10.710938 189.113281 10.710938 C 189.25 10.710938 189.328125 11.96875 189.328125 14.054688 M 71.394531 11.574219 C 71.644531 11.976562 71.988281 12.15625 71.988281 11.878906 C 71.988281 11.722656 71.410156 11.140625 71.25 11.140625 C 71.179688 11.140625 71.246094 11.335938 71.394531 11.574219 M 97.480469 11.789062 C 97.558594 12.203125 97.703125 12.636719 97.804688 12.75 C 97.90625 12.859375 97.992188 13.128906 97.992188 13.34375 C 97.992188 13.554688 98.089844 13.730469 98.207031 13.730469 C 98.324219 13.730469 98.421875 14.0625 98.421875 14.472656 C 98.421875 14.878906 98.5 15.261719 98.597656 15.324219 C 98.886719 15.503906 98.628906 14.117188 98.1875 13.140625 C 97.960938 12.636719 97.777344 12.101562 97.773438 11.953125 C 97.773438 11.804688 97.675781 11.535156 97.558594 11.359375 C 97.410156 11.128906 97.386719 11.257812 97.480469 11.789062 M 28.789062 12.085938 C 28.789062 12.175781 29.023438 12.558594 29.308594 12.933594 C 29.59375 13.3125 29.925781 13.960938 30.042969 14.378906 C 30.160156 14.792969 30.265625 14.953125 30.273438 14.734375 C 30.296875 14.234375 29.683594 12.898438 29.171875 12.34375 C 28.960938 12.113281 28.789062 12 28.789062 12.085938 M 140.78125 12.582031 C 140.769531 12.71875 140.695312 13.007812 140.621094 13.226562 C 140.511719 13.535156 140.539062 13.570312 140.75 13.375 C 140.894531 13.242188 140.96875 12.949219 140.910156 12.730469 C 140.855469 12.507812 140.800781 12.441406 140.78125 12.582031 M 191.585938 12.652344 C 191.660156 12.769531 192.050781 12.867188 192.457031 12.867188 C 192.863281 12.867188 193.199219 12.964844 193.199219 13.082031 C 193.199219 13.199219 193.007812 13.300781 192.78125 13.300781 C 192.550781 13.300781 192.304688 13.398438 192.230469 13.515625 C 191.898438 14.054688 191.046875 13.742188 191.046875 13.082031 C 191.046875 12.449219 191.324219 12.226562 191.585938 12.652344 M 20.015625 13.101562 C 19.609375 13.761719 19.855469 13.847656 20.277344 13.199219 C 20.472656 12.898438 20.554688 12.652344 20.464844 12.652344 C 20.371094 12.652344 20.167969 12.855469 20.015625 13.101562 M 72.417969 13.03125 C 72.417969 13.121094 72.613281 13.316406 72.847656 13.464844 C 73.347656 13.777344 73.414062 13.621094 72.972656 13.175781 C 72.632812 12.835938 72.417969 12.78125 72.417969 13.03125 M 104.578125 14.160156 C 104.648438 14.527344 104.847656 15.1875 105.011719 15.628906 C 105.261719 16.285156 105.292969 16.3125 105.183594 15.777344 C 105.109375 15.421875 105 14.816406 104.9375 14.425781 C 104.871094 14.042969 104.738281 13.671875 104.632812 13.609375 C 104.53125 13.542969 104.503906 13.792969 104.578125 14.160156 M 115.082031 14.441406 C 114.992188 14.652344 114.976562 14.890625 115.050781 14.960938 C 115.269531 15.179688 115.441406 14.871094 115.34375 14.449219 C 115.253906 14.070312 115.246094 14.070312 115.082031 14.441406 M 19.496094 23.378906 C 19.46875 28.210938 19.515625 32.257812 19.601562 32.375 C 19.6875 32.484375 19.761719 28.53125 19.761719 23.585938 C 19.761719 18.640625 19.714844 14.59375 19.660156 14.59375 C 19.605469 14.59375 19.53125 18.546875 19.496094 23.378906 M 73.921875 14.726562 C 73.921875 14.84375 74.0625 15.128906 74.238281 15.359375 C 74.410156 15.589844 74.550781 15.679688 74.550781 15.5625 C 74.550781 15.445312 74.410156 15.160156 74.238281 14.929688 C 74.0625 14.695312 73.921875 14.605469 73.921875 14.726562 M 123.464844 14.96875 C 123.550781 15.179688 123.75 15.6875 123.910156 16.101562 C 124.269531 17.066406 124.292969 16.585938 123.941406 15.453125 C 123.796875 14.980469 123.59375 14.59375 123.492188 14.59375 C 123.386719 14.59375 123.378906 14.761719 123.464844 14.96875 M 192.097656 16.082031 C 192.46875 16.425781 192.765625 16.828125 192.765625 16.972656 C 192.765625 17.117188 192.972656 17.417969 193.222656 17.636719 C 193.992188 18.300781 193.605469 18.722656 192.289062 18.644531 L 191.15625 18.582031 L 191.09375 17.019531 C 191.019531 15.277344 191.132812 15.171875 192.097656 16.082031 M 98.851562 16.164062 C 98.851562 16.46875 98.953125 16.785156 99.074219 16.863281 C 99.21875 16.953125 99.246094 16.789062 99.152344 16.386719 C 98.953125 15.5625 98.851562 15.484375 98.851562 16.164062 M 0.121094 16.226562 C -0.0664062 16.71875 -0.03125 38.800781 0.15625 39.101562 C 0.242188 39.238281 0.285156 34.25 0.25 28.015625 C 0.210938 20.363281 0.261719 16.609375 0.410156 16.457031 C 0.6875 16.179688 0.703125 15.886719 0.445312 15.886719 C 0.335938 15.886719 0.191406 16.042969 0.121094 16.226562 M 20.242188 27.046875 L 20.296875 38.207031 L 20.355469 27.21875 C 20.398438 18.761719 20.476562 16.191406 20.679688 16.0625 C 20.867188 15.945312 20.835938 15.894531 20.570312 15.890625 C 20.214844 15.886719 20.195312 16.539062 20.242188 27.046875 M 29.328125 16.101562 C 29.402344 16.222656 29.449219 20.394531 29.441406 25.375 C 29.425781 31.453125 29.496094 34.433594 29.640625 34.433594 C 29.789062 34.433594 29.863281 31.371094 29.863281 25.160156 C 29.863281 16.902344 29.828125 15.886719 29.527344 15.886719 C 29.34375 15.886719 29.253906 15.984375 29.328125 16.101562 M 40.25 16.230469 C 40.09375 16.636719 40.027344 37.03125 40.179688 36.875 C 40.289062 36.765625 40.550781 15.886719 40.441406 15.886719 C 40.410156 15.886719 40.320312 16.042969 40.25 16.230469 M 75.210938 16.429688 C 75.210938 16.707031 76.152344 18.039062 76.347656 18.042969 C 76.445312 18.042969 76.253906 17.679688 75.929688 17.234375 C 75.605469 16.789062 75.308594 16.386719 75.273438 16.335938 C 75.238281 16.289062 75.210938 16.328125 75.210938 16.429688 M 139.367188 16.8125 C 139.277344 17.027344 139.261719 17.261719 139.335938 17.332031 C 139.554688 17.550781 139.726562 17.246094 139.628906 16.820312 C 139.539062 16.441406 139.53125 16.441406 139.367188 16.8125 M 105.21875 16.917969 C 105.128906 17.0625 105.152344 17.179688 105.261719 17.179688 C 105.375 17.179688 105.53125 17.433594 105.605469 17.746094 C 105.683594 18.054688 105.796875 18.261719 105.855469 18.203125 C 105.917969 18.140625 105.832031 17.769531 105.675781 17.375 C 105.484375 16.902344 105.324219 16.75 105.21875 16.917969 M 124.675781 18.527344 C 124.910156 19.269531 125.183594 20.199219 125.28125 20.59375 C 125.382812 20.988281 125.53125 21.375 125.613281 21.457031 C 125.796875 21.632812 125.550781 20.269531 125.292969 19.660156 C 125.1875 19.425781 124.980469 18.765625 124.824219 18.203125 C 124.675781 17.640625 124.480469 17.179688 124.398438 17.179688 C 124.316406 17.179688 124.441406 17.785156 124.675781 18.527344 M 69.851562 17.71875 C 69.851562 17.835938 69.992188 18.125 70.167969 18.351562 C 70.339844 18.585938 70.484375 18.675781 70.484375 18.554688 C 70.484375 18.4375 70.339844 18.152344 70.167969 17.921875 C 69.992188 17.691406 69.851562 17.601562 69.851562 17.71875 M 71.128906 19.671875 C 71.128906 19.734375 71.328125 20 71.574219 20.261719 L 72.019531 20.738281 L 71.753906 20.144531 C 71.523438 19.628906 71.128906 19.332031 71.128906 19.671875 M 119.058594 19.804688 C 119.054688 20 118.941406 20.199219 118.804688 20.246094 C 118.667969 20.289062 118.597656 20.4375 118.644531 20.574219 C 118.703125 20.746094 118.847656 20.730469 119.125 20.523438 C 119.433594 20.292969 119.472656 20.144531 119.292969 19.839844 C 119.09375 19.492188 119.066406 19.488281 119.058594 19.804688 M 100.140625 20.171875 C 100.140625 20.410156 100.238281 20.664062 100.355469 20.738281 C 100.472656 20.8125 100.570312 20.679688 100.570312 20.441406 C 100.570312 20.203125 100.472656 19.949219 100.355469 19.875 C 100.238281 19.800781 100.140625 19.9375 100.140625 20.171875 M 106.371094 20.726562 C 106.371094 20.898438 106.46875 21.097656 106.585938 21.167969 C 106.707031 21.242188 106.800781 21.101562 106.800781 20.859375 C 106.800781 20.613281 106.707031 20.414062 106.585938 20.414062 C 106.46875 20.414062 106.371094 20.554688 106.371094 20.726562 M 131.734375 21.074219 C 131.734375 21.316406 131.828125 21.460938 131.949219 21.386719 C 132.066406 21.3125 132.164062 21.113281 132.164062 20.941406 C 132.164062 20.769531 132.066406 20.628906 131.949219 20.628906 C 131.828125 20.628906 131.734375 20.828125 131.734375 21.074219 M 73.328125 22.675781 C 73.59375 23.089844 73.886719 23.429688 73.976562 23.429688 C 74.066406 23.433594 73.921875 23.097656 73.65625 22.683594 C 73.386719 22.269531 73.09375 21.929688 73.003906 21.929688 C 72.917969 21.925781 73.0625 22.261719 73.328125 22.675781 M 117.921875 22.917969 C 117.832031 23.003906 117.761719 23.222656 117.761719 23.40625 C 117.761719 23.648438 117.828125 23.671875 118 23.496094 C 118.132812 23.363281 118.203125 23.144531 118.160156 23.007812 C 118.113281 22.871094 118.003906 22.832031 117.921875 22.917969 M 120.355469 23.582031 C 120.347656 23.84375 120.441406 24.113281 120.558594 24.1875 C 120.8125 24.347656 120.8125 24.136719 120.558594 23.542969 C 120.378906 23.128906 120.371094 23.128906 120.355469 23.582031 M 80.582031 23.570312 C 80.582031 23.6875 80.722656 23.96875 80.898438 24.203125 C 81.074219 24.429688 81.214844 24.523438 81.214844 24.40625 C 81.214844 24.285156 81.074219 24 80.898438 23.769531 C 80.722656 23.539062 80.582031 23.449219 80.582031 23.570312 M 81.445312 24.871094 C 81.453125 25.203125 81.847656 25.683594 81.992188 25.539062 C 82.074219 25.460938 81.984375 25.238281 81.792969 25.042969 C 81.601562 24.851562 81.441406 24.777344 81.445312 24.871094 M 111.644531 25.007812 C 111.554688 25.21875 111.539062 25.457031 111.613281 25.527344 C 111.828125 25.746094 112.003906 25.4375 111.90625 25.015625 C 111.816406 24.636719 111.804688 24.636719 111.644531 25.007812 M 82.519531 26.613281 C 82.519531 26.707031 82.710938 26.902344 82.949219 27.050781 C 83.183594 27.199219 83.378906 27.246094 83.378906 27.152344 C 83.378906 27.0625 83.183594 26.867188 82.949219 26.71875 C 82.710938 26.570312 82.519531 26.523438 82.519531 26.613281 M 135.972656 27.445312 C 135.886719 27.53125 135.816406 27.75 135.816406 27.9375 C 135.816406 28.179688 135.878906 28.203125 136.054688 28.023438 C 136.183594 27.890625 136.253906 27.671875 136.210938 27.539062 C 136.164062 27.398438 136.058594 27.359375 135.972656 27.445312 M 129.726562 27.675781 C 129.507812 27.898438 129.554688 28.648438 129.785156 28.511719 C 129.894531 28.441406 129.972656 28.191406 129.953125 27.960938 C 129.917969 27.476562 129.921875 27.480469 129.726562 27.675781 M 84.140625 28.523438 C 84.761719 29.507812 85.519531 30.414062 85.628906 30.304688 C 85.683594 30.25 85.484375 29.945312 85.199219 29.632812 C 84.90625 29.316406 84.667969 28.972656 84.667969 28.867188 C 84.667969 28.761719 84.457031 28.492188 84.191406 28.265625 L 83.722656 27.855469 L 84.140625 28.523438 M 77.574219 28.363281 C 77.574219 28.507812 77.671875 28.746094 77.792969 28.890625 C 77.914062 29.03125 78.203125 29.382812 78.4375 29.667969 C 79.109375 30.484375 78.925781 29.890625 78.210938 28.949219 C 77.863281 28.480469 77.574219 28.21875 77.574219 28.363281 M 115.273438 30.929688 C 115.199219 31.253906 115 31.945312 114.832031 32.464844 C 114.664062 32.988281 114.574219 33.460938 114.632812 33.523438 C 114.695312 33.582031 114.785156 33.496094 114.832031 33.332031 C 114.914062 33.046875 115.222656 31.902344 115.511719 30.820312 C 115.582031 30.554688 115.589844 30.335938 115.527344 30.335938 C 115.460938 30.335938 115.34375 30.601562 115.273438 30.929688 M 134.890625 31.167969 C 134.6875 31.617188 134.535156 32.222656 134.550781 32.507812 C 134.574219 32.945312 134.59375 32.960938 134.671875 32.597656 C 134.722656 32.363281 134.910156 31.789062 135.085938 31.332031 C 135.503906 30.238281 135.351562 30.109375 134.890625 31.167969 M 80.191406 32.082031 C 80.347656 32.355469 80.753906 32.875 81.09375 33.234375 C 81.664062 33.84375 81.65625 33.8125 80.992188 32.851562 C 80.222656 31.738281 79.71875 31.253906 80.191406 32.082031 M 134.128906 33.5 C 134.109375 33.753906 134.03125 34.140625 133.957031 34.359375 C 133.851562 34.664062 133.878906 34.699219 134.082031 34.511719 C 134.226562 34.378906 134.304688 33.992188 134.253906 33.648438 C 134.1875 33.210938 134.148438 33.167969 134.128906 33.5 M 152.800781 34.214844 C 152.800781 34.394531 152.894531 34.683594 153.007812 34.863281 C 153.195312 35.148438 153.21875 35.148438 153.21875 34.863281 C 153.21875 34.683594 153.121094 34.394531 153.007812 34.214844 C 152.824219 33.929688 152.800781 33.929688 152.800781 34.214844 M 30.507812 34.917969 C 30.507812 35.003906 32.488281 35.078125 34.914062 35.078125 C 37.339844 35.078125 39.320312 35.003906 39.320312 34.917969 C 39.320312 34.828125 37.339844 34.753906 34.914062 34.753906 C 32.488281 34.753906 30.507812 34.828125 30.507812 34.917969 M 113.832031 35.378906 C 113.742188 35.605469 113.71875 35.835938 113.785156 35.902344 C 113.980469 36.097656 114.148438 35.777344 114.070312 35.367188 C 113.992188 34.992188 113.980469 34.992188 113.832031 35.378906 M 167.980469 35.4375 C 167.902344 35.515625 167.84375 35.78125 167.851562 36.03125 C 167.863281 36.445312 167.882812 36.441406 168.070312 35.964844 C 168.28125 35.4375 168.238281 35.179688 167.980469 35.4375 M 29.4375 35.765625 C 29.445312 36.308594 29.859375 36.753906 29.859375 36.222656 C 29.863281 35.964844 29.765625 35.691406 29.648438 35.617188 C 29.53125 35.542969 29.433594 35.609375 29.4375 35.765625 M 153.457031 35.710938 C 153.433594 36.082031 154.328125 37.449219 154.59375 37.449219 C 154.695312 37.449219 154.539062 37.132812 154.25 36.75 C 153.960938 36.367188 153.664062 35.90625 153.597656 35.726562 C 153.492188 35.457031 153.46875 35.457031 153.457031 35.710938 M 174.613281 35.789062 C 174.523438 36.003906 174.507812 36.238281 174.582031 36.308594 C 174.800781 36.527344 174.972656 36.222656 174.875 35.796875 C 174.785156 35.417969 174.773438 35.417969 174.613281 35.789062 M 82.949219 35.867188 C 82.949219 35.988281 83.140625 36.265625 83.378906 36.480469 C 83.613281 36.695312 83.808594 36.804688 83.808594 36.71875 C 83.808594 36.640625 83.613281 36.363281 83.378906 36.105469 C 83.140625 35.855469 82.949219 35.746094 82.949219 35.867188 M 113.40625 36.503906 C 113.320312 36.589844 113.25 36.808594 113.25 36.992188 C 113.25 37.234375 113.3125 37.257812 113.488281 37.082031 C 113.621094 36.949219 113.691406 36.730469 113.644531 36.59375 C 113.597656 36.457031 113.492188 36.417969 113.40625 36.503906 M 125.074219 36.75 C 125.070312 37.015625 125.167969 37.234375 125.285156 37.234375 C 125.554688 37.234375 125.554688 37.007812 125.285156 36.589844 C 125.117188 36.324219 125.078125 36.359375 125.074219 36.75 M 166.761719 37.34375 C 166.613281 37.527344 166.535156 37.722656 166.59375 37.785156 C 166.652344 37.84375 166.828125 37.746094 166.976562 37.558594 C 167.128906 37.375 167.207031 37.179688 167.144531 37.117188 C 167.089844 37.058594 166.914062 37.15625 166.761719 37.34375 M 147.210938 37.816406 C 147.210938 38.074219 147.304688 38.347656 147.421875 38.421875 C 147.539062 38.496094 147.636719 38.746094 147.636719 38.972656 C 147.636719 39.203125 147.734375 39.390625 147.851562 39.390625 C 148.136719 39.390625 148.132812 39.371094 147.640625 38.285156 C 147.339844 37.621094 147.214844 37.480469 147.210938 37.816406 M 10.097656 37.800781 C 10.09375 38.109375 11.722656 39.609375 12.058594 39.609375 C 12.195312 39.609375 11.914062 39.320312 11.433594 38.96875 C 10.949219 38.621094 10.453125 38.160156 10.332031 37.945312 C 10.207031 37.734375 10.101562 37.671875 10.097656 37.800781 M 132.753906 37.792969 C 132.667969 37.882812 132.59375 38.207031 132.597656 38.511719 C 132.605469 39 132.632812 39.019531 132.828125 38.683594 C 133.074219 38.261719 133.011719 37.527344 132.753906 37.792969 M 173.621094 38.847656 C 173.335938 39.386719 173.03125 39.824219 172.941406 39.824219 C 172.855469 39.824219 172.78125 39.957031 172.78125 40.121094 C 172.78125 40.285156 172.632812 40.539062 172.453125 40.6875 C 172.273438 40.839844 172.171875 41.007812 172.226562 41.066406 C 172.285156 41.121094 172.460938 41.035156 172.621094 40.875 C 173.003906 40.492188 174.324219 38.066406 174.21875 37.960938 C 174.171875 37.914062 173.902344 38.3125 173.621094 38.847656 M 165.589844 38.382812 C 164.980469 38.75 164.550781 39.175781 164.785156 39.175781 C 164.894531 39.175781 165.214844 38.996094 165.496094 38.777344 C 165.777344 38.554688 166.15625 38.324219 166.332031 38.257812 C 166.617188 38.144531 166.617188 38.132812 166.332031 38.128906 C 166.15625 38.125 165.824219 38.238281 165.589844 38.382812 M 18.636719 38.824219 C 18.425781 38.984375 18.257812 39.191406 18.257812 39.289062 C 18.257812 39.382812 18.453125 39.285156 18.6875 39.066406 C 18.933594 38.847656 19.117188 38.785156 19.117188 38.925781 C 19.117188 39.066406 19.273438 39.175781 19.457031 39.175781 C 19.871094 39.175781 19.746094 38.65625 19.316406 38.585938 C 19.148438 38.558594 18.84375 38.667969 18.636719 38.824219 M 20.191406 39.453125 C 20.191406 39.757812 20.292969 40.074219 20.417969 40.152344 C 20.5625 40.246094 20.589844 40.078125 20.496094 39.679688 C 20.296875 38.851562 20.191406 38.773438 20.191406 39.453125 M 112.542969 39.261719 C 112.449219 39.484375 112.429688 39.71875 112.496094 39.78125 C 112.6875 39.976562 112.859375 39.65625 112.78125 39.246094 C 112.703125 38.871094 112.691406 38.871094 112.542969 39.261719 M 148.070312 39.742188 C 148.066406 39.878906 148.40625 40.355469 148.816406 40.808594 C 149.230469 41.261719 149.566406 41.542969 149.5625 41.425781 C 149.550781 41.128906 148.074219 39.460938 148.070312 39.742188 M 12.886719 40.039062 C 13.308594 40.3125 13.804688 40.3125 13.636719 40.039062 C 13.5625 39.921875 13.292969 39.824219 13.035156 39.828125 C 12.652344 39.828125 12.625 39.871094 12.886719 40.039062 M 16.222656 40.027344 C 16.152344 40.140625 16.304688 40.191406 16.5625 40.144531 C 17.203125 40.019531 17.351562 39.824219 16.800781 39.824219 C 16.554688 39.824219 16.292969 39.914062 16.222656 40.027344 M 32.980469 40.039062 C 33.570312 40.292969 33.78125 40.292969 33.625 40.039062 C 33.550781 39.921875 33.277344 39.828125 33.019531 39.835938 C 32.566406 39.851562 32.566406 39.859375 32.980469 40.039062 M 36.3125 40.039062 C 36.3125 40.3125 36.75 40.3125 37.171875 40.039062 C 37.421875 39.878906 37.363281 39.828125 36.902344 39.828125 C 36.578125 39.824219 36.3125 39.921875 36.3125 40.039062 M 126.492188 40.671875 C 126.566406 41.082031 126.757812 41.546875 126.925781 41.714844 C 127.261719 42.054688 127.304688 41.925781 127.027344 41.382812 C 126.921875 41.175781 126.726562 40.765625 126.59375 40.46875 C 126.378906 39.976562 126.371094 40 126.492188 40.671875 M 131.875 40.765625 C 131.785156 41.101562 131.761719 41.433594 131.824219 41.496094 C 131.996094 41.667969 132.210938 40.976562 132.117188 40.539062 C 132.054688 40.246094 131.992188 40.308594 131.875 40.765625 M 20.40625 41.542969 C 20.152344 41.703125 20.144531 41.800781 20.355469 42.011719 C 20.570312 42.226562 20.621094 42.226562 20.621094 42.011719 C 20.621094 41.863281 20.703125 41.789062 20.800781 41.847656 C 20.902344 41.914062 20.980469 41.816406 20.980469 41.644531 C 20.980469 41.28125 20.855469 41.257812 20.40625 41.542969 M 170.949219 42.199219 C 170.613281 42.550781 170.40625 42.84375 170.492188 42.84375 C 170.714844 42.84375 171.773438 41.757812 171.660156 41.644531 C 171.609375 41.59375 171.289062 41.839844 170.949219 42.199219 M 131.460938 41.894531 C 131.375 41.980469 131.304688 42.253906 131.308594 42.5 C 131.316406 42.917969 131.332031 42.917969 131.539062 42.566406 C 131.78125 42.152344 131.71875 41.636719 131.460938 41.894531 M 20.835938 42.410156 C 20.527344 42.613281 20.554688 42.648438 21.089844 42.707031 C 21.417969 42.746094 21.589844 43.273438 21.273438 43.273438 C 21.136719 43.273438 21.089844 43.371094 21.164062 43.492188 C 21.238281 43.613281 21.386719 43.65625 21.496094 43.589844 C 21.601562 43.523438 21.636719 43.609375 21.574219 43.78125 C 21.496094 43.976562 21.621094 44.148438 21.898438 44.242188 C 22.148438 44.316406 22.292969 44.472656 22.226562 44.585938 C 22.15625 44.691406 22.203125 44.78125 22.328125 44.78125 C 22.453125 44.78125 22.535156 44.855469 22.507812 44.945312 C 22.425781 45.199219 23.460938 46.289062 23.664062 46.164062 C 23.765625 46.105469 23.847656 46.152344 23.847656 46.273438 C 23.847656 46.394531 24.066406 46.605469 24.332031 46.742188 C 24.804688 46.992188 24.804688 46.988281 24.292969 46.429688 C 24.007812 46.117188 23.644531 45.859375 23.488281 45.859375 C 23.328125 45.859375 23.203125 45.761719 23.203125 45.636719 C 23.203125 45.414062 22.46875 44.292969 21.964844 43.75 C 21.820312 43.589844 21.699219 43.335938 21.699219 43.191406 C 21.699219 42.664062 21.175781 42.191406 20.835938 42.410156 M 127.109375 42.519531 C 127.195312 42.753906 127.316406 43.117188 127.378906 43.328125 C 127.433594 43.535156 127.570312 43.703125 127.664062 43.703125 C 127.890625 43.703125 127.6875 43.097656 127.261719 42.519531 L 126.949219 42.085938 L 127.109375 42.519531 M 1.289062 42.84375 C 1.292969 43.195312 1.871094 44.054688 2.003906 43.902344 C 2.046875 43.851562 1.902344 43.523438 1.683594 43.164062 C 1.460938 42.808594 1.285156 42.664062 1.289062 42.84375 M 151.355469 43.179688 C 151.804688 43.484375 152.285156 43.6875 152.429688 43.628906 C 152.609375 43.554688 152.601562 43.519531 152.398438 43.507812 C 152.238281 43.496094 151.863281 43.292969 151.5625 43.058594 C 151.261719 42.820312 150.910156 42.625 150.777344 42.625 C 150.652344 42.625 150.910156 42.875 151.355469 43.179688 M 111.253906 43.140625 C 111.160156 43.367188 111.140625 43.601562 111.203125 43.664062 C 111.398438 43.859375 111.570312 43.539062 111.492188 43.128906 C 111.414062 42.753906 111.402344 42.753906 111.253906 43.140625 M 169.449219 43.273438 C 169.09375 43.507812 168.929688 43.703125 169.082031 43.703125 C 169.234375 43.703125 169.566406 43.507812 169.824219 43.273438 C 170.40625 42.726562 170.273438 42.726562 169.449219 43.273438 M 107.679688 43.5 C 107.65625 44.21875 108.121094 45.210938 108.484375 45.214844 C 108.695312 45.214844 108.683594 45.128906 108.429688 44.878906 C 108.242188 44.6875 108.035156 44.277344 107.96875 43.960938 C 107.757812 43.015625 107.695312 42.917969 107.679688 43.5 M 88.945312 44.203125 C 89.335938 44.777344 89.699219 45.195312 89.761719 45.132812 C 89.894531 45 89.128906 43.890625 88.613281 43.46875 C 88.402344 43.304688 88.554688 43.632812 88.945312 44.203125 M 47.324219 44.242188 C 47.179688 44.414062 47.0625 44.722656 47.070312 44.933594 C 47.085938 45.253906 47.128906 45.234375 47.320312 44.835938 C 47.445312 44.570312 47.632812 44.351562 47.734375 44.351562 C 47.835938 44.351562 47.917969 44.253906 47.917969 44.136719 C 47.917969 43.832031 47.640625 43.882812 47.324219 44.242188 M 153.027344 44.109375 C 153.585938 44.476562 155.199219 44.945312 156.339844 45.070312 C 157.039062 45.148438 157.261719 45.121094 156.984375 45 C 156.75 44.898438 156.191406 44.804688 155.75 44.796875 C 155.304688 44.789062 154.941406 44.699219 154.941406 44.59375 C 154.941406 44.492188 154.628906 44.355469 154.246094 44.289062 C 153.863281 44.226562 153.351562 44.109375 153.117188 44.03125 C 152.765625 43.914062 152.75 43.929688 153.027344 44.109375 M 2.148438 44.261719 C 2.15625 44.585938 2.734375 45.253906 2.847656 45.066406 C 2.898438 44.96875 2.765625 44.707031 2.542969 44.476562 C 2.320312 44.246094 2.144531 44.148438 2.148438 44.261719 M 166.871094 44.390625 C 166.515625 44.511719 165.886719 44.683594 165.472656 44.78125 C 164.726562 44.949219 164.726562 44.949219 165.367188 44.972656 C 166.003906 44.992188 167.476562 44.570312 167.761719 44.285156 C 167.957031 44.089844 167.664062 44.121094 166.871094 44.390625 M 65.816406 44.945312 C 66.621094 44.984375 67.875 44.984375 68.613281 44.941406 C 69.34375 44.902344 68.6875 44.867188 67.152344 44.867188 C 65.613281 44.867188 65.015625 44.902344 65.816406 44.945312 M 159.242188 45.429688 C 159.242188 45.554688 159.886719 45.644531 160.746094 45.644531 C 161.605469 45.644531 162.25 45.554688 162.25 45.429688 C 162.25 45.304688 161.605469 45.214844 160.746094 45.214844 C 159.886719 45.214844 159.242188 45.304688 159.242188 45.429688 M 3.859375 46.15625 C 3.859375 46.421875 4.949219 47.425781 5.09375 47.285156 C 5.164062 47.210938 5.179688 47.132812 5.132812 47.101562 C 5.082031 47.070312 4.777344 46.8125 4.449219 46.523438 C 4.125 46.238281 3.859375 46.070312 3.859375 46.15625 M 44.453125 47.355469 C 44.171875 47.59375 44.039062 47.789062 44.15625 47.789062 C 44.464844 47.789062 45.21875 47.183594 45.082031 47.042969 C 45.023438 46.980469 44.738281 47.121094 44.453125 47.355469 M 6.867188 48.390625 C 6.867188 48.601562 7.734375 49.160156 7.863281 49.03125 C 7.917969 48.980469 7.710938 48.777344 7.414062 48.582031 C 7.113281 48.386719 6.867188 48.300781 6.867188 48.390625 M 21.503906 49 C 21.101562 49.175781 20.835938 49.382812 20.914062 49.464844 C 20.996094 49.539062 21.171875 49.488281 21.316406 49.351562 C 21.457031 49.210938 21.742188 49.097656 21.957031 49.097656 C 22.167969 49.097656 22.34375 49 22.34375 48.878906 C 22.34375 48.617188 22.394531 48.609375 21.503906 49 M 41.898438 48.878906 C 41.898438 49 42.042969 49.097656 42.222656 49.097656 C 42.398438 49.097656 42.542969 49 42.542969 48.878906 C 42.542969 48.761719 42.398438 48.664062 42.222656 48.664062 C 42.042969 48.664062 41.898438 48.761719 41.898438 48.878906 M 39.644531 49.742188 C 39.570312 49.859375 39.65625 49.957031 39.832031 49.957031 C 40.007812 49.957031 40.214844 49.859375 40.289062 49.742188 C 40.359375 49.625 40.273438 49.527344 40.097656 49.527344 C 39.921875 49.527344 39.714844 49.625 39.644531 49.742188 M 10.738281 50.175781 C 10.738281 50.292969 10.957031 50.390625 11.21875 50.386719 C 11.609375 50.382812 11.644531 50.34375 11.382812 50.175781 C 10.964844 49.90625 10.738281 49.90625 10.738281 50.175781 M 18.257812 50.175781 C 17.996094 50.34375 18.03125 50.382812 18.421875 50.386719 C 18.683594 50.390625 18.902344 50.292969 18.902344 50.175781 C 18.902344 49.90625 18.675781 49.90625 18.257812 50.175781 M 30.832031 50.175781 C 30.90625 50.292969 31.175781 50.390625 31.4375 50.386719 C 31.820312 50.382812 31.84375 50.34375 31.582031 50.175781 C 31.160156 49.902344 30.664062 49.902344 30.832031 50.175781 M 13.960938 50.605469 C 13.960938 50.722656 14.4375 50.820312 15.023438 50.820312 C 15.605469 50.820312 16.144531 50.722656 16.21875 50.605469 C 16.296875 50.46875 15.898438 50.390625 15.15625 50.390625 C 14.496094 50.390625 13.960938 50.488281 13.960938 50.605469 M 33.644531 50.636719 C 33.800781 50.890625 35.914062 50.863281 36.3125 50.597656 C 36.539062 50.449219 36.175781 50.394531 35.082031 50.417969 C 34.230469 50.4375 33.582031 50.535156 33.644531 50.636719 "/>
<path style=" stroke:none;fill-rule:evenodd;fill:rgb(47.058824%,15.686275%,48.627451%);fill-opacity:1;" d="M 24.203125 0.523438 C 24.148438 0.609375 24.425781 0.683594 24.8125 0.683594 C 25.203125 0.683594 25.480469 0.609375 25.425781 0.523438 C 25.371094 0.433594 25.097656 0.359375 24.8125 0.359375 C 24.53125 0.359375 24.257812 0.433594 24.203125 0.523438 M 146.613281 19.269531 C 146.585938 26.644531 146.636719 32.726562 146.722656 32.78125 C 146.871094 32.871094 146.867188 23.285156 146.71875 10.710938 C 146.6875 8.042969 146.640625 11.894531 146.613281 19.269531 M 30.390625 24.621094 C 30.390625 30.074219 30.421875 32.277344 30.457031 29.511719 C 30.488281 26.746094 30.488281 22.28125 30.457031 19.59375 C 30.421875 16.902344 30.390625 19.164062 30.390625 24.621094 M 19.429688 23.542969 C 19.429688 28.167969 19.460938 30.027344 19.496094 27.679688 C 19.527344 25.328125 19.527344 21.542969 19.496094 19.269531 C 19.460938 16.992188 19.429688 18.914062 19.429688 23.542969 M 0.246094 21.4375 C 0.226562 24.195312 0.28125 26.453125 0.367188 26.453125 C 0.453125 26.453125 0.5 24.777344 0.472656 22.734375 C 0.378906 16.613281 0.289062 16.117188 0.246094 21.4375 M 9.542969 23.648438 C 9.542969 27.503906 9.570312 29.082031 9.609375 27.152344 C 9.644531 25.226562 9.644531 22.074219 9.609375 20.144531 C 9.570312 18.21875 9.542969 19.796875 9.542969 23.648438 M 40.453125 17.828125 C 40.453125 18.359375 40.496094 18.578125 40.546875 18.3125 C 40.597656 18.046875 40.597656 17.609375 40.546875 17.34375 C 40.496094 17.074219 40.453125 17.296875 40.453125 17.828125 M 40.492188 27.421875 C 40.492188 32.050781 40.523438 33.910156 40.554688 31.5625 C 40.589844 29.210938 40.589844 25.425781 40.554688 23.152344 C 40.523438 20.875 40.492188 22.796875 40.492188 27.421875 M 83.523438 27.914062 C 83.589844 28.183594 83.730469 28.453125 83.832031 28.519531 C 84.125 28.699219 84.054688 28.304688 83.710938 27.839844 C 83.410156 27.4375 83.402344 27.441406 83.523438 27.914062 M 19.496094 33.304688 C 19.640625 34.652344 19.761719 34.746094 19.761719 33.507812 C 19.761719 32.964844 19.679688 32.464844 19.574219 32.398438 C 19.472656 32.335938 19.4375 32.742188 19.496094 33.304688 M 12.84375 34.808594 C 14.0625 34.847656 15.996094 34.847656 17.140625 34.808594 C 18.289062 34.769531 17.292969 34.738281 14.929688 34.738281 C 12.5625 34.738281 11.625 34.769531 12.84375 34.808594 M 33.035156 34.808594 C 34.128906 34.847656 35.914062 34.847656 37.011719 34.808594 C 38.105469 34.769531 37.207031 34.738281 35.023438 34.738281 C 32.835938 34.738281 31.9375 34.769531 33.035156 34.808594 M 83.808594 36.75 C 83.808594 36.871094 83.953125 37.085938 84.128906 37.234375 C 84.3125 37.382812 84.453125 37.40625 84.453125 37.289062 C 84.453125 37.167969 84.308594 36.953125 84.128906 36.804688 C 83.949219 36.65625 83.808594 36.632812 83.808594 36.75 M 156.664062 44.863281 C 156.664062 45.054688 157.53125 45.15625 157.644531 44.976562 C 157.707031 44.871094 157.515625 44.78125 157.214844 44.78125 C 156.910156 44.78125 156.664062 44.820312 156.664062 44.863281 "/>
<path style=" stroke:none;fill-rule:evenodd;fill:rgb(47.058824%,15.686275%,48.627451%);fill-opacity:1;" d="M 24.203125 0.523438 C 24.148438 0.609375 24.425781 0.683594 24.8125 0.683594 C 25.203125 0.683594 25.480469 0.609375 25.425781 0.523438 C 25.371094 0.433594 25.097656 0.359375 24.8125 0.359375 C 24.53125 0.359375 24.257812 0.433594 24.203125 0.523438 M 146.613281 19.269531 C 146.585938 26.644531 146.636719 32.726562 146.722656 32.78125 C 146.871094 32.871094 146.867188 23.285156 146.71875 10.710938 C 146.6875 8.042969 146.640625 11.894531 146.613281 19.269531 M 30.390625 24.621094 C 30.390625 30.074219 30.421875 32.277344 30.457031 29.511719 C 30.488281 26.746094 30.488281 22.28125 30.457031 19.59375 C 30.421875 16.902344 30.390625 19.164062 30.390625 24.621094 M 19.429688 23.542969 C 19.429688 28.167969 19.460938 30.027344 19.496094 27.679688 C 19.527344 25.328125 19.527344 21.542969 19.496094 19.269531 C 19.460938 16.992188 19.429688 18.914062 19.429688 23.542969 M 0.246094 21.4375 C 0.226562 24.195312 0.28125 26.453125 0.367188 26.453125 C 0.453125 26.453125 0.5 24.777344 0.472656 22.734375 C 0.378906 16.613281 0.289062 16.117188 0.246094 21.4375 M 9.542969 23.648438 C 9.542969 27.503906 9.570312 29.082031 9.609375 27.152344 C 9.644531 25.226562 9.644531 22.074219 9.609375 20.144531 C 9.570312 18.21875 9.542969 19.796875 9.542969 23.648438 M 40.453125 17.828125 C 40.453125 18.359375 40.496094 18.578125 40.546875 18.3125 C 40.597656 18.046875 40.597656 17.609375 40.546875 17.34375 C 40.496094 17.074219 40.453125 17.296875 40.453125 17.828125 M 40.492188 27.421875 C 40.492188 32.050781 40.523438 33.910156 40.554688 31.5625 C 40.589844 29.210938 40.589844 25.425781 40.554688 23.152344 C 40.523438 20.875 40.492188 22.796875 40.492188 27.421875 M 83.523438 27.914062 C 83.589844 28.183594 83.730469 28.453125 83.832031 28.519531 C 84.125 28.699219 84.054688 28.304688 83.710938 27.839844 C 83.410156 27.4375 83.402344 27.441406 83.523438 27.914062 M 19.496094 33.304688 C 19.640625 34.652344 19.761719 34.746094 19.761719 33.507812 C 19.761719 32.964844 19.679688 32.464844 19.574219 32.398438 C 19.472656 32.335938 19.4375 32.742188 19.496094 33.304688 M 12.84375 34.808594 C 14.0625 34.847656 15.996094 34.847656 17.140625 34.808594 C 18.289062 34.769531 17.292969 34.738281 14.929688 34.738281 C 12.5625 34.738281 11.625 34.769531 12.84375 34.808594 M 33.035156 34.808594 C 34.128906 34.847656 35.914062 34.847656 37.011719 34.808594 C 38.105469 34.769531 37.207031 34.738281 35.023438 34.738281 C 32.835938 34.738281 31.9375 34.769531 33.035156 34.808594 M 83.808594 36.75 C 83.808594 36.871094 83.953125 37.085938 84.128906 37.234375 C 84.3125 37.382812 84.453125 37.40625 84.453125 37.289062 C 84.453125 37.167969 84.308594 36.953125 84.128906 36.804688 C 83.949219 36.65625 83.808594 36.632812 83.808594 36.75 M 156.664062 44.863281 C 156.664062 45.054688 157.53125 45.15625 157.644531 44.976562 C 157.707031 44.871094 157.515625 44.78125 157.214844 44.78125 C 156.910156 44.78125 156.664062 44.820312 156.664062 44.863281 "/>
<path style=" stroke:none;fill-rule:evenodd;fill:rgb(47.058824%,15.686275%,48.627451%);fill-opacity:1;" d="M 24.203125 0.523438 C 24.148438 0.609375 24.425781 0.683594 24.8125 0.683594 C 25.203125 0.683594 25.480469 0.609375 25.425781 0.523438 C 25.371094 0.433594 25.097656 0.359375 24.8125 0.359375 C 24.53125 0.359375 24.257812 0.433594 24.203125 0.523438 M 146.613281 19.269531 C 146.585938 26.644531 146.636719 32.726562 146.722656 32.78125 C 146.871094 32.871094 146.867188 23.285156 146.71875 10.710938 C 146.6875 8.042969 146.640625 11.894531 146.613281 19.269531 M 30.390625 24.621094 C 30.390625 30.074219 30.421875 32.277344 30.457031 29.511719 C 30.488281 26.746094 30.488281 22.28125 30.457031 19.59375 C 30.421875 16.902344 30.390625 19.164062 30.390625 24.621094 M 19.429688 23.542969 C 19.429688 28.167969 19.460938 30.027344 19.496094 27.679688 C 19.527344 25.328125 19.527344 21.542969 19.496094 19.269531 C 19.460938 16.992188 19.429688 18.914062 19.429688 23.542969 M 0.246094 21.4375 C 0.226562 24.195312 0.28125 26.453125 0.367188 26.453125 C 0.453125 26.453125 0.5 24.777344 0.472656 22.734375 C 0.378906 16.613281 0.289062 16.117188 0.246094 21.4375 M 9.542969 23.648438 C 9.542969 27.503906 9.570312 29.082031 9.609375 27.152344 C 9.644531 25.226562 9.644531 22.074219 9.609375 20.144531 C 9.570312 18.21875 9.542969 19.796875 9.542969 23.648438 M 40.453125 17.828125 C 40.453125 18.359375 40.496094 18.578125 40.546875 18.3125 C 40.597656 18.046875 40.597656 17.609375 40.546875 17.34375 C 40.496094 17.074219 40.453125 17.296875 40.453125 17.828125 M 40.492188 27.421875 C 40.492188 32.050781 40.523438 33.910156 40.554688 31.5625 C 40.589844 29.210938 40.589844 25.425781 40.554688 23.152344 C 40.523438 20.875 40.492188 22.796875 40.492188 27.421875 M 83.523438 27.914062 C 83.589844 28.183594 83.730469 28.453125 83.832031 28.519531 C 84.125 28.699219 84.054688 28.304688 83.710938 27.839844 C 83.410156 27.4375 83.402344 27.441406 83.523438 27.914062 M 19.496094 33.304688 C 19.640625 34.652344 19.761719 34.746094 19.761719 33.507812 C 19.761719 32.964844 19.679688 32.464844 19.574219 32.398438 C 19.472656 32.335938 19.4375 32.742188 19.496094 33.304688 M 12.84375 34.808594 C 14.0625 34.847656 15.996094 34.847656 17.140625 34.808594 C 18.289062 34.769531 17.292969 34.738281 14.929688 34.738281 C 12.5625 34.738281 11.625 34.769531 12.84375 34.808594 M 33.035156 34.808594 C 34.128906 34.847656 35.914062 34.847656 37.011719 34.808594 C 38.105469 34.769531 37.207031 34.738281 35.023438 34.738281 C 32.835938 34.738281 31.9375 34.769531 33.035156 34.808594 M 83.808594 36.75 C 83.808594 36.871094 83.953125 37.085938 84.128906 37.234375 C 84.3125 37.382812 84.453125 37.40625 84.453125 37.289062 C 84.453125 37.167969 84.308594 36.953125 84.128906 36.804688 C 83.949219 36.65625 83.808594 36.632812 83.808594 36.75 M 156.664062 44.863281 C 156.664062 45.054688 157.53125 45.15625 157.644531 44.976562 C 157.707031 44.871094 157.515625 44.78125 157.214844 44.78125 C 156.910156 44.78125 156.664062 44.820312 156.664062 44.863281 "/>
</g>
</svg>
