<?xml version="1.0" encoding="UTF-8"?>
<svg width="650" height="173.2" version="1.1" viewBox="0 0 171.98 45.825" xmlns="http://www.w3.org/2000/svg">
 <defs>
  <clipPath id="clipPath42526-7">
   <path d="m0 0h841.89v595.28h-841.89z"/>
  </clipPath>
  <clipPath id="clipPath42500-9">
   <path d="m0 0h841.89v595.28h-841.89z"/>
  </clipPath>
  <clipPath id="clipPath42480-3">
   <path d="m0 0h841.89v595.28h-841.89z"/>
  </clipPath>
  <clipPath id="clipPath42460-6">
   <path d="m0 0h841.89v595.28h-841.89z"/>
  </clipPath>
  <clipPath id="clipPath42432-6">
   <path d="m0 0h841.89v595.28h-841.89z"/>
  </clipPath>
 </defs>
 <g transform="translate(23.32 -110.43)">
  <g transform="matrix(.35278 0 0 -.35278 -247.62 64.97)">
   <g transform="matrix(5.2088 0 0 5.2088 -327.47 -2383.2)">
    <g clip-path="url(#clipPath42432-6)">
     <g transform="translate(210.28 426.53)">
      <path d="m0 0c0.422-1.331 0.629-2.741 0.584-4.216-0.221-6.988-6.068-12.475-13.064-12.258-6.997 0.217-12.493 6.065-12.274 13.051 0.039 1.201 0.248 2.361 0.594 3.449-0.701-1.543-1.119-3.252-1.176-5.054-0.228-7.314 5.52-13.424 12.838-13.653 7.314-0.228 13.43 5.511 13.66 12.827 0.067 2.083-0.357 4.07-1.162 5.854" fill="#2c2c35"/>
     </g>
     <g transform="translate(202.43 420.2)">
      <path d="m0 0c0.176-0.279 0.455-0.808 0.576-1.521 0.08-0.476 0.055-0.764 0.045-0.946-0.012-0.213-0.125-0.816-0.131-0.82 0 0 0.223 0.342 0.389 0.674 0.158 0.32 0.361 0.81 0.41 0.957 0.152 0.45 0.273 0.897 0.348 1.345 0.25 1.532 0.019 3.026-0.553 4.366-0.676 1.581-1.84 2.953-3.461 3.873-2.051 1.164-4.357 1.418-6.416 0.837-1.389-0.392-2.686-1.14-3.717-2.247-0.414-0.446-0.806-0.965-1.115-1.535-1.609-2.979-1.357-6.539 0.549-9.092 1.885-2.783 5.021-4.582 8.639-4.637 5.89-0.086 10.781 4.633 10.865 10.517 0.088 5.885-4.617 10.731-10.508 10.813-2.219 0.035-4.295-0.615-6.018-1.752 1.182 0.614 2.514 1.011 3.938 1.111 5.389 0.387 10.105-3.558 10.478-8.738 0.143-1.998-0.414-4.087-1.523-5.732-1.102-1.637-2.617-2.948-4.563-3.547-3.263-1.008-5.824 1.059-5.962 3.681-0.03 0.586 0.084 1.34 0.439 2.043 0.588 1.168 1.887 2.239 3.645 2.268 1.537 0.024 2.914-0.764 3.646-1.918" fill="#2c2c35"/>
     </g>
     <g transform="translate(224.78 424.58)">
      <path d="m0 0c0-2.412-1.973-4.331-4.342-4.331s-4.342 1.919-4.342 4.331c0 2.425 1.94 4.365 4.342 4.365 2.403 0 4.342-1.94 4.342-4.365m-7.139 0.036c0-1.548 1.276-2.867 2.797-2.867 1.524 0 2.797 1.319 2.797 2.867 0 1.567-1.24 2.828-2.797 2.828-1.556 0-2.797-1.261-2.797-2.828" fill="#2c2c35"/>
     </g>
     <g transform="translate(227.01 422.8)">
      <path d="m0 0c0-0.666 0.543-1.051 1.162-1.051 0.586 0 1.082 0.44 1.082 1.051 0 0.912-0.765 1.184-1.453 1.408-0.555 0.181-1.027 0.338-1.445 0.768-0.407 0.416-0.655 1.025-0.655 1.601 0 1.364 1.129 2.369 2.459 2.369 1.286 0 2.448-1.06 2.436-2.369h-1.588c-0.023 0.519-0.453 0.868-0.937 0.868-0.508 0-0.834-0.383-0.825-0.879-9e-3 -0.61 0.555-0.846 1.049-1.016 0.588-0.202 1.151-0.372 1.625-0.766 0.598-0.474 0.879-1.082 0.879-1.894 0-1.488-1.228-2.641-2.705-2.641-1.422 0-2.695 1.096-2.695 2.551z" fill="#2c2c35"/>
     </g>
    </g>
   </g>
   <g transform="matrix(5.2088 0 0 5.2088 884.73 -157.52)">
    <path d="m0 0h-1.533v1.502h4.635v-1.502h-1.557v-6.833h-1.545z" fill="#2c2c35"/>
   </g>
   <g transform="matrix(5.2088 0 0 5.2088 -327.47 -2383.2)">
    <g clip-path="url(#clipPath42460-6)">
     <g transform="translate(236.66 428.78)">
      <path d="m0 0h2.414c0.789-0.012 1.535-0.057 2.166-0.586 0.598-0.498 0.971-1.277 0.971-2.055 0-0.607-0.283-1.363-0.69-1.815-0.406-0.44-0.912-0.677-1.476-0.802l2.254-3.077h-1.905l-2.189 3.192v-3.192h-1.545zm2.391-3.971c0.408 0 0.925 0.057 1.23 0.352 0.248 0.234 0.383 0.551 0.383 0.9 0 0.361-0.158 0.721-0.451 0.937-0.362 0.269-0.721 0.292-1.151 0.28h-0.857v-2.469z" fill="#2c2c35"/>
     </g>
    </g>
   </g>
   <g transform="matrix(5.2088 0 0 5.2088 954.08 -149.7)">
    <path d="m0 0h1.207l3.508-8.335h-1.703l-0.903 2.153h-2.955l-0.924-2.153h-1.703zm1.5-4.681-0.891 2.527-0.89-2.527z" fill="#2c2c35"/>
   </g>
   <g transform="matrix(5.2088 0 0 5.2088 972.6 -149.7)">
    <path d="m0 0h1.623l2.244-6.34 2.244 6.34h1.623l-3.224-8.335h-1.276z" fill="#2c2c35"/>
   </g>
   <g transform="matrix(5.2088 0 0 5.2088 -327.47 -2383.2)">
    <g clip-path="url(#clipPath42480-3)">
     <g transform="translate(259.17 422.8)">
      <path d="m0 0c0-0.666 0.543-1.051 1.162-1.051 0.588 0 1.084 0.44 1.084 1.051 0 0.912-0.767 1.184-1.455 1.408-0.553 0.181-1.027 0.338-1.443 0.768-0.407 0.416-0.655 1.025-0.655 1.601 0 1.364 1.127 2.369 2.459 2.369 1.286 0 2.448-1.06 2.436-2.369h-1.592c-0.021 0.519-0.451 0.868-0.935 0.868-0.508 0-0.834-0.383-0.823-0.879-0.011-0.61 0.553-0.846 1.049-1.016 0.586-0.202 1.151-0.372 1.623-0.766 0.598-0.474 0.881-1.082 0.881-1.894 0-1.488-1.23-2.641-2.707-2.641-1.422 0-2.697 1.096-2.697 2.551z" fill="#2c2c35"/>
     </g>
    </g>
   </g>
   <g transform="matrix(5.2088 0 0 5.2088 1047.8 -149.7)">
    <path d="m0 0h1.547v-3.61l2.594 3.61h1.849l-3.146-4.094 3.146-4.241h-1.849l-2.594 3.654v-3.654h-1.547z" fill="#2c2c35"/>
   </g>
   <g transform="matrix(5.2088 0 0 5.2088 1098.8 -149.7)">
    <path d="m0 0h1.207l3.506-8.335h-1.703l-0.903 2.153h-2.953l-0.926-2.153h-1.703zm1.5-4.681-0.891 2.527-0.892-2.527z" fill="#2c2c35"/>
   </g>
   <g transform="matrix(5.2088 0 0 5.2088 -327.47 -2383.2)">
    <g clip-path="url(#clipPath42500-9)">
     <g transform="translate(218.6 411.74)">
      <path d="m0 0c-1.127 0-1.9 0.678-1.9 2.199v3.487h0.56v-3.487c0-1.14 0.469-1.685 1.348-1.685 0.861 0 1.338 0.545 1.338 1.685v3.487h0.56v-3.487c0-1.521-0.771-2.199-1.906-2.199" fill="#2c2c35"/>
     </g>
    </g>
   </g>
   <g transform="matrix(5.2088 0 0 5.2088 860.35 -237.96)">
    <path d="m0 0-3.33 4.914v-4.914h-0.561v5.588h0.758l3.133-4.635v4.635h0.561v-5.588z" fill="#2c2c35"/>
   </g>
   <path d="m882.27-237.96h2.9065v29.117h-2.9065z" fill="#2c2c35"/>
   <g transform="matrix(5.2088 0 0 5.2088 916.4 -237.96)">
    <path d="m0 0h-0.545l-2.301 5.588h0.614l1.966-4.893 1.975 4.893h0.605z" fill="#2c2c35"/>
   </g>
   <g transform="matrix(5.2088 0 0 5.2088 944.85 -237.96)">
    <path d="m0 0v5.588h3.057v-0.508h-2.496v-2.004h2.414v-0.506h-2.414v-2.063h2.496v-0.507z" fill="#2c2c35"/>
   </g>
   <g transform="matrix(5.2088 0 0 5.2088 -327.47 -2383.2)">
    <g clip-path="url(#clipPath42526-7)">
     <g transform="translate(252.96 413.93)">
      <path d="m0 0 1.566-2.088h-0.695l-1.885 2.532c1.567 0 2.098 0.275 2.098 1.279 0 0.929-0.576 1.269-1.879 1.269h-0.787v-5.08h-0.559v5.588h1.385c1.756 0 2.406-0.636 2.406-1.801 0-0.99-0.576-1.587-1.65-1.699" fill="#2c2c35"/>
     </g>
    </g>
   </g>
   <g transform="matrix(5.2088 0 0 5.2088 1013.6 -237.96)">
    <path d="m0 0v0.507l2.746 4.573h-2.664v0.508h3.291v-0.508l-2.738-4.573h2.822v-0.507z" fill="#2c2c35"/>
   </g>
   <path d="m1047.8-237.96h2.9221v29.117h-2.9221z" fill="#2c2c35"/>
   <g transform="matrix(5.2088 0 0 5.2088 1076.6 -211.49)">
    <path d="m0 0v-5.08h-0.559v5.08h-1.279v0.508h3.117v-0.508z" fill="#2c2c35"/>
   </g>
   <g transform="matrix(5.2088 0 0 5.2088 1120.1 -237.96)">
    <path d="m0 0-0.809 1.883h-2.603l-0.818-1.883h-0.588l2.398 5.588h0.629l2.404-5.588zm-2.104 4.952-1.095-2.563h2.172z" fill="#2c2c35"/>
   </g>
   <g transform="matrix(5.2088 0 0 5.2088 1094.1 -142.81)">
    <path d="m0 0 3.004 0.893 0.349-1.164-3.027-0.791z" fill="#2c2c35"/>
   </g>
  </g>
 </g>
</svg>
