<svg xmlns="http://www.w3.org/2000/svg" width="258" height="85">
  <path fill="#060d87" d="m252.553 80.86 1.348-3.746 1.347 3.745h-2.675zm-2.258 3.209h1.089l.872-2.417h3.25l.871 2.417h1.169l-3.051-8.084h-1.169zm-2.774 0h1.268l-2.913-4.2 2.814-3.884h-1.209l-2.516 3.507h-1.03v-3.507h-1.11v8.084h1.11v-3.685h1.03zm-11.987-3.21 1.347-3.745 1.347 3.745zm-2.259 3.21h1.09l.871-2.417h3.25l.872 2.417h1.169l-3.032-8.084h-1.169l-3.031 8.084zm-9.114 0h1.169l1.763-6.697 1.744 6.697h1.169l1.882-8.084h-1.05l-1.407 6.598-1.724-6.598h-1.169l-1.723 6.578-1.407-6.578h-1.11l1.883 8.084zm-11.888.139c1.109 0 2.06-.476 2.655-1.209l.099 1.07h.971v-8.084h-1.11v6.38c-.614.594-1.407.99-2.279.99-1.149 0-1.684-.495-1.684-1.882v-5.488h-1.109v5.667c0 1.743.812 2.556 2.457 2.556zm-12.027-.139h1.109v-3.784h4.399v3.784h1.11v-8.084h-1.11v3.448h-4.399v-3.448h-1.109zm-4.082 0h1.11v-8.084h-1.11zm-7.291-3.21 1.347-3.745 1.347 3.745zm-2.259 3.21h1.09l.872-2.417h3.249l.872 2.417h1.169l-3.032-8.084h-1.169zm-2.774 0h1.268l-2.912-4.2 2.813-3.884h-1.208l-2.517 3.507h-1.03v-3.507h-1.11v8.084h1.11v-3.685h1.03zm-11.987-3.21 1.347-3.745 1.348 3.745zm-2.259 3.21h1.09l.872-2.417h3.249l.872 2.417h1.169l-3.051-8.084h-1.169l-3.052 8.084zm-8.916 0h1.11v-3.784h4.398v3.784h1.11v-8.084h-1.11v3.448h-4.398v-3.448h-1.11zm-10.085 0h1.169l1.764-6.697 1.743 6.697h1.169l1.882-8.084h-1.05l-1.406 6.598-1.724-6.598h-1.169l-1.724 6.578-1.407-6.578h-1.109l1.882 8.084zm-11.888.139c1.11 0 2.061-.476 2.655-1.209l.099 1.07h.971v-8.084h-1.11v6.38c-.614.594-1.406.99-2.278.99-1.149 0-1.684-.495-1.684-1.882v-5.488h-1.11v5.667c0 1.743.812 2.556 2.457 2.556zm-11.591-4.181c0-2.001 1.05-3.329 2.715-3.329 1.664 0 2.694 1.328 2.694 3.329 0 2.001-1.05 3.329-2.694 3.329-1.645 0-2.715-1.328-2.715-3.329zm2.715 4.18c2.159 0 3.804-1.664 3.804-4.18s-1.645-4.18-3.804-4.18c-2.16 0-3.824 1.684-3.824 4.18 0 2.497 1.644 4.18 3.824 4.18zm-6.559-.138h1.268l-2.912-4.2 2.813-3.884h-1.208l-2.517 3.507h-1.03v-3.507h-1.11v8.084h1.11v-3.685h1.03zm-11.987-3.21 1.347-3.745 1.348 3.745h-2.675zm-.515-5.924h3.745v-.575h-3.745zm-1.744 9.134h1.09l.872-2.417h3.249l.872 2.417h1.169l-3.051-8.084h-1.169zm-4.676 0h1.11v-7.232h2.873v-.832h-6.856v.832h2.873zm-10.005-9.134h3.744v-.575h-3.745zm-.813 5.092c0-2.001 1.05-3.329 2.715-3.329 1.664 0 2.694 1.328 2.694 3.329 0 2.001-1.05 3.329-2.694 3.329-1.645 0-2.715-1.328-2.715-3.329zm2.715 4.18c2.16 0 3.804-1.664 3.804-4.18s-1.645-4.18-3.804-4.18c-2.16 0-3.805 1.684-3.805 4.18 0 2.497 1.645 4.18 3.805 4.18zm118.227-30.175c0-4.716 2.179-7.866 5.786-7.866 3.606 0 5.785 3.15 5.785 7.866 0 4.715-2.179 7.826-5.785 7.826-3.607 0-5.786-3.071-5.786-7.826zm-2.992 0c0 5.567 3.983 9.252 8.778 9.252 4.794 0 8.737-3.685 8.737-9.252 0-5.568-3.943-9.293-8.737-9.293-4.795 0-8.778 3.725-8.778 9.293zM165.176 40.3l-4.755 3.804 1.882 1.228v12.7c0 3.805 2.041 5.251 4.716 5.251 2.08 0 4.141-.891 5.686-3.19l-.376-.376c-.991 1.03-2.338 1.565-3.805 1.565-2.12 0-3.328-1.149-3.328-3.685V46.819h6.518l.416-1.605h-6.954zm-28.432 8.56c0-7.411 3.526-11.136 8.4-11.136 5.489 0 9.135 4.874 9.135 12.918 0 7.41-3.527 11.155-8.401 11.155-5.489 0-9.134-4.913-9.134-12.958m-3.111.912c0 7.985 5.33 13.513 11.888 13.513s11.888-5.528 11.888-13.513-5.369-13.513-11.888-13.513-11.888 5.568-11.888 13.513zm-37.487 4.26c0-4.716 2.18-7.866 5.785-7.866 3.606 0 5.786 3.15 5.786 7.866 0 4.715-2.18 7.826-5.786 7.826-3.606 0-5.785-3.071-5.785-7.826zm-2.992 0c0 5.567 4.002 9.253 8.777 9.253 4.775 0 8.738-3.686 8.738-9.253 0-5.568-3.943-9.293-8.738-9.293s-8.777 3.725-8.777 9.293zm18.922-27.937h5.607v-.813l-2.992-.773V1.585l2.992-.773V0h-8.976v.812l2.992.773v19.378c-2.08 2.338-4.517 3.606-7.41 3.606-3.606 0-5.528-1.684-5.528-6.677V1.585l2.992-.773V0h-8.976v.812l2.992.773v16.643c0 5.984 2.952 8.322 7.589 8.322 3.566 0 6.637-2.06 8.401-4.379zm11.927 9.411c-3.526 0-8.638 2.497-8.856 9.709l-1.962 1.605h1.962v14.463l-1.149 1.526h7.331v-.812l-3.309-.535V46.8h4.537l.416-1.605h-4.953c-.297-1.308-.377-2.22-.377-3.032 0-3.606 2.18-4.458 4.458-4.458 1.07 0 2.18.159 3.27.416l.416-1.724c.158-.772-.535-.911-1.764-.911m8.758-9.411h6.935v-.813l-2.913-.535v-10.58c0-4.34-2.536-6.142-5.528-6.142-2.992 0-4.636 1.644-5.984 3.19h-.158v-3.19l-4.379 1.228 1.466 2.259v13.037l-1.109 1.526h6.934v-.813l-2.912-.535V12.463c1.149-1.348 2.912-2.497 4.914-2.497 2.258 0 3.883 1.387 3.883 4.498v10.045l-1.149 1.526zm13.929-23.4c0-.99-.694-1.843-1.922-1.843-1.229 0-1.882.832-1.882 1.843 0 1.01.693 1.803 1.882 1.803s1.922-.813 1.922-1.803zm-4.181 23.4h6.935v-.813l-2.913-.535V8.024l-4.379 1.229 1.447 2.259v13.037l-1.11 1.526zm24.945-15.91 1.387-1.685h-6.4v.813l2.992 1.03-4.874 12.284-5.449-12.502 1.15-1.605h-6.182v.812l1.763.535 7.51 16.644.911-.377 7.172-15.91zm5.568 4.794c.376-3.804 2.794-5.607 5.369-5.607 2.378 0 3.923 1.724 3.963 5.072zm12.661 5.092-.535-.158c-.892 2.12-2.378 4.537-6.103 4.537-3.725 0-6.102-3.23-6.102-8.282v-.297h12.165c.04-.535.04-1.03.04-1.308 0-4.101-2.794-6.519-6.321-6.519-4.795 0-8.599 3.983-8.599 9.511 0 5.528 3.408 9.015 8.064 9.015 5.152 0 6.975-4.022 7.411-6.479m-.199 35.764c0 3.11-1.525 5.488-4.596 5.488-2.18 0-3.369-1.189-3.369-3.943 0-.733.08-1.466.238-2.298l7.747-.813v1.566zm5.826 5.983-2.913-.535v-9.51c0-4.914-2.833-7.014-6.717-7.014-2.793 0-4.834 1.11-6.558 2.417l.337.733c1.426-.773 3.19-1.347 4.953-1.347 3.111 0 5.053 1.07 5.053 5.567v.535l-10.284 1.764c-.336 1.387-.495 2.457-.495 3.408 0 3.447 2.219 5.37 5.33 5.37 2.298 0 4.26-1.19 5.369-3.647h.159l.297 3.448 5.449-.456v-.733zm9.173-50.841.238-1.962c.079-.654-.535-.99-1.486-.99-2.615 0-4.537 2.04-5.726 4.874h-.079V8.024l-4.379 1.229 1.466 2.259v13.037l-1.109 1.526h7.331v-.813l-3.309-.535V14.484c.99-2.12 2.912-3.686 5.329-3.686.615 0 1.07.04 1.724.159m.297 35.03c2.755 0 4.379 1.684 4.379 4.676s-1.565 4.518-4.379 4.518c-2.813 0-4.378-1.684-4.378-4.676s1.565-4.538 4.378-4.538m-.535 16.188h3.607c3.031 0 3.526 1.15 3.526 2.615 0 1.883-2.001 4.022-6.3 4.022-3.983 0-5.211-1.723-5.211-3.487 0-1.07.495-3.15 4.378-3.15zm3.527-16.96a9.37 9.37 0 0 0-2.992-.496c-3.764 0-7.212 2.041-7.212 5.865 0 2.715 1.684 4.478 3.983 5.33l-2.774 3.864c.198.891 1.347 1.605 2.219 1.723v.198c-2.259.615-3.943 2.041-3.943 3.943 0 2.675 3.032 4.538 7.49 4.538 4.715 0 9.352-2.576 9.352-6.34 0-2.418-1.605-4.3-5.865-4.3h-6.479l1.07-3.329a9.692 9.692 0 0 0 2.14.238c3.764 0 7.212-2.001 7.212-5.865 0-2.219-1.189-3.943-3.23-4.993l3.269-3.725v-.277l-2.496-.733-1.764 4.339zm2.12-33.307c0-1.506 1.031-2.576 3.071-2.576 1.803 0 4.023.813 5.786 3.567h.119l-.297-4.716-1.566.535c-1.307-.416-2.456-.733-3.923-.733-3.229 0-5.647 1.724-5.647 4.597s2.338 4.26 5.172 5.449c2.912 1.228 4.676 2.08 4.676 4.14 0 1.685-1.348 2.992-3.369 2.992-2.219 0-4.418-1.07-6.716-3.903l-.119.04.456 4.101c2.001.733 4.22 1.11 5.864 1.11 4.3 0 6.36-2.418 6.36-5.053 0-3.309-2.833-4.636-5.686-5.865-2.298-.95-4.22-1.803-4.22-3.685m17.951-9.253c0-.99-.694-1.842-1.922-1.842-1.229 0-1.882.832-1.882 1.842 0 1.01.693 1.803 1.882 1.803s1.922-.812 1.922-1.803zm-4.181 23.4h6.935v-.812l-2.913-.535V8.024l-4.379 1.229 1.467 2.259v13.037l-1.11 1.526zm31.682-16.802 2.992.951-4.993 11.809-5.211-11.967 1.149-1.605h-11.769V3.507l-4.755 3.804 1.882 1.229v12.7c0 3.804 2.041 5.25 4.715 5.25 2.081 0 4.141-.871 5.687-3.19l-.377-.376c-.99 1.03-2.338 1.566-3.804 1.566-2.1 0-3.328-1.15-3.328-3.686V10.026h7.489l7.054 15.573c-.892 2.675-2.576 5.092-5.984 5.092-.416 0-.832-.04-1.347-.158.158 2.04 1.387 2.873 2.833 2.873 3.448 0 4.914-4.458 6.479-10.046l6.321-13.275 1.347-1.684h-6.36v.812z"/>
  <path fill="#f4b142" d="M24.056 42.187c-5.567-.208-9.348 6.133-9.348 14.053 0 7.92 7.026 26.616 21.823 27.629-11.135-1.549-18.816-16.375-18.816-28.314 0-6.252 1.994-12.802 6.341-13.368zm-15.482 14.5c0 9.914 11.135 27.628 27.063 27.628.328 0 .894 0 1.549-.119-16.494 0-25.277-17.923-25.277-27.629 0-9.02 3.9-15.362 13.04-14.826-.566-.238-1.548-.328-2.56-.328-7.92 0-13.815 6.253-13.815 15.274zM69.31 35.28c0-9.914-11.135-27.629-27.063-27.629-.328 0-.893 0-1.548.12 16.494 0 25.277 17.922 25.277 27.628 0 9.021-3.9 15.363-13.04 14.827.565.238 1.547.327 2.56.327 7.92 0 13.814-6.252 13.814-15.273zM35.102 7.324c1.22 0 2.233.12 2.888.327-.566-.446-2.352-.654-3.9-.654C17.594 6.997 0 21.912 0 45.997S17.595 85 34.09 85c1.547 0 3.125-.208 3.9-.655-.656.238-1.668.328-2.888.328-17.15 0-29.535-17.388-29.535-28.076 0-11.7 9.795-15.809 14.708-15.809 2.56 0 4.109.238 5.567.893-1.101-1.012-3.662-1.786-6.58-1.786-.625 0-1.25 0-1.875.06.238-17.268 8.813-30.398 19.144-31.827C23.61 8.783 14.41 24.86 13.933 40.52a14.794 14.794 0 0 0-3.215 1.28c.685-16.85 10.182-34 26.468-34-.774-.119-1.46-.119-1.787-.119-14.826 0-28.313 16.256-28.61 37.216-1.043 1.131-2.025 2.53-2.948 4.198-.06-1.28-.09-2.501-.09-3.186 0-23.401 15.363-38.555 31.32-38.555M53.8 49.809c5.567.209 9.348-6.133 9.348-14.023S56.121 9.17 41.294 8.158C52.43 9.706 60.11 24.532 60.11 36.44c0 6.252-1.994 12.802-6.341 13.368M43.736 7.026c-1.549 0-3.126.209-3.9.655.654-.208 1.667-.327 2.887-.327 17.15 0 29.534 17.387 29.534 28.075 0 11.7-9.795 15.81-14.707 15.81-2.56 0-4.109-.239-5.567-.894 1.101 1.012 3.662 1.786 6.58 1.786.624 0 1.25 0 1.875-.06C60.2 69.34 51.625 82.47 41.294 83.899c12.921-.655 22.121-16.732 22.597-32.392a14.78 14.78 0 0 0 3.216-1.28c-.685 16.851-10.182 34-26.468 34 .774.119 1.46.119 1.787.119 14.826 0 28.313-16.256 28.61-37.215 1.043-1.162 2.025-2.531 2.948-4.198.06 1.28.09 2.5.09 3.185 0 23.401-15.363 38.556-31.32 38.556-1.222 0-2.234-.12-2.889-.328.566.447 2.352.655 3.9.655 16.494 0 34.09-14.916 34.09-39.002 0-24.086-17.566-39.002-34.06-39.002m13.279-4.823c2.203 0 3.75-.923 4.972-2.173H15.838c1.22 1.25 2.769 2.173 4.972 2.173h36.233z"/>
</svg>
