<?xml version="1.0" encoding="UTF-8"?>
<svg id="b" xmlns="http://www.w3.org/2000/svg" version="1.1" viewBox="0 0 354.05 214.23">
  <!-- Generator: Adobe Illustrator 30.2.1, SVG Export Plug-In . SVG Version: 2.1.1 Build 1)  -->
  <defs>
    <style>
      .st0 {
        fill: none;
        stroke: #000;
        stroke-width: .61px;
      }

      .st1 {
        fill: #000006;
      }

      .st2 {
        fill: #3071b8;
      }
    </style>
  </defs>
  <polygon class="st2" points="319.46 103.88 319.46 111.3 307.63 111.3 307.63 123.15 300.21 123.15 300.21 111.3 288.37 111.3 288.37 103.88 300.21 103.88 300.21 92.05 307.63 92.05 307.63 103.88 319.46 103.88"/>
  <polygon class="st2" points="278.82 144.54 278.82 151.96 266.97 151.96 266.97 163.81 259.55 163.81 259.55 151.96 247.72 151.96 247.72 144.54 259.55 144.54 259.55 132.7 266.97 132.7 266.97 144.54 278.82 144.54"/>
  <path class="st2" d="M216.03,107.59l6.57-6.57,6.57,6.57-6.57,6.57-6.57-6.57ZM222.6,91.08l-16.52,16.52,16.52,16.51,16.52-16.51-16.52-16.52Z"/>
  <path class="st2" d="M256.7,66.93l6.57-6.57,6.57,6.57-6.57,6.57-6.57-6.57ZM263.26,50.42l-16.52,16.52,16.52,16.51,16.52-16.51-16.52-16.52Z"/>
  <path class="st2" d="M244.51,70.65c3.39,3.39,5.6,7.46,6.71,11.83h-7.81c-.87-2.39-2.27-4.61-4.2-6.52-3.56-3.56-8.23-5.31-12.9-5.31,0,4.66,1.75,9.34,5.31,12.9,1.92,1.92,4.14,3.32,6.52,4.2v7.81c-4.37-1.11-8.46-3.32-11.83-6.71-4.55-4.55-7.17-10.32-7.41-16.38-.11-3.5.46-7,.76-7.76.11-.35.35-.59.7-.7.81-.35,4.26-.87,7.76-.76,6.01.17,11.83,2.86,16.38,7.41"/>
  <path class="st2" d="M282.01,70.65c-3.39,3.39-5.6,7.46-6.71,11.83h7.81c.88-2.39,2.27-4.61,4.2-6.52,3.56-3.56,8.23-5.31,12.9-5.31,0,4.66-1.75,9.34-5.31,12.9-1.93,1.92-4.14,3.32-6.52,4.2v7.81c4.37-1.11,8.46-3.32,11.83-6.71,4.55-4.55,7.17-10.32,7.41-16.38.11-3.5-.46-7-.76-7.76-.11-.35-.35-.59-.7-.7-.81-.35-4.26-.87-7.76-.76-6.01.17-11.83,2.86-16.38,7.41"/>
  <path class="st2" d="M282.01,144.54c-3.39-3.39-5.6-7.46-6.71-11.83h7.81c.88,2.39,2.27,4.61,4.2,6.52,3.56,3.56,8.23,5.31,12.9,5.31,0-4.66-1.75-9.34-5.31-12.9-1.93-1.92-4.14-3.32-6.52-4.2v-7.81c4.37,1.11,8.46,3.32,11.83,6.71,4.55,4.55,7.17,10.32,7.41,16.38.11,3.5-.46,7-.76,7.76-.11.35-.35.59-.7.7-.81.35-4.26.87-7.76.76-6.01-.17-11.83-2.86-16.38-7.41"/>
  <path class="st2" d="M244.51,144.54c3.39-3.39,5.6-7.46,6.71-11.83h-7.81c-.87,2.39-2.27,4.61-4.2,6.52-3.56,3.56-8.23,5.31-12.9,5.31,0-4.66,1.75-9.34,5.31-12.9,1.92-1.92,4.14-3.32,6.52-4.2v-7.81c-4.37,1.11-8.46,3.32-11.83,6.71-4.55,4.55-7.17,10.32-7.41,16.38-.11,3.5.46,7,.76,7.76.11.35.35.59.7.7.81.35,4.26.87,7.76.76,6.01-.17,11.83-2.86,16.38-7.41"/>
  <path class="st1" d="M94.11,93.23s.08.11.08.2-.01.29.06.42c.07.11.14.21.14.32s-.03.18,0,.34c.01.22-.08.46-.06.5.03.03.18-.11.28-.22.1-.11.25-.5.25-.5,0,0-.18-.27-.25-.39s-.04-.27-.13-.39c-.07-.1-.17-.07-.18-.14-.03-.17-.17-.11-.17-.11"/>
  <path class="st1" d="M98.17,103.04s-.34.35-.45.42-.49.32-.62.36c-.13.03-.1.11-.21.11-.13,0-.21-.11-.17-.21s.18-.2.31-.31.62-.39.67-.41.07.06.18.06.27-.03.27-.03"/>
  <path class="st1" d="M97.99,102.76c-.13.03-.11-.34-.17-.42s-.2-.29-.25-.39-.13-.13-.11-.24c.01-.1.06-.21.14-.18.08.01.14.01.28-.01.13-.03.24-.14.35-.11s.03.34.1.52c.07.17.17.45.17.45,0,0,.21-.07.42-.21.22-.13.43-.28.57-.31.13-.03.08-.06.13.04s.13.5.11.53-.11.01-.15-.07c-.04-.08-.13-.18-.13-.18,0,0-.36.25-.55.34-.17.08-.38.24-.49.21s-.17-.35-.24-.56c-.06-.15-.11-.46-.18-.48-.07-.01-.28.06-.27.11s.1.36.18.48c.07.11.1.32.1.38s-.03.1-.03.1"/>
  <path class="st1" d="M98.52,103.19s-.07.07-.06.21c.01.13.17.63.22.71.06.08.06.32.21.39.14.07.18-.04.11-.18-.06-.14-.27-.49-.24-.6.03-.1-.04-.15-.07-.27-.03-.1-.17-.27-.17-.27"/>
  <path class="st1" d="M120.4,100.38c-.01.43-.03.87-.06,1.3-.04,1.16-.1,2.32-.42,3.44-.06-.04-.11-.07-.17-.11-.42-.24-1.01-.28-1.47-.1-.45.18-.8.48-1.22.74-.2.13-.36.27-.53.42.28-.91.59-1.83,1.15-2.6.36-.49.85-.99.83-1.61,0-.25-.11-.49-.21-.71-.38-.84-.81-1.67-1.3-2.45.14-.06.29-.13.38-.18.22-.17.18-.15.46-.22.2-.06.43-.13.63-.17.27-.06.59-.25.85-.28.55-.03.66-.13,1.01,0,.07.28.08.55.1.83.01.57,0,1.15-.03,1.72M119.84,106.64c-.08.32-.14.56-.28.99-.08.27-.42.2-.7.25-.34.06-.67.11-1.01.17-.59.1-1.3.25-1.55.78-.04.1-.06.24-.03.35h0c-.38.04-.76,0-1.12-.04.08-.78.15-1.57.24-2.35,0-.1.03-.2.07-.28.06-.08.18-.06.2-.17-.13-1.2.32-2.42.84-3.42.1-.17.1-.35.28-.38.31-.06.88-.21,1.11-.43.04.28-.13.5-.27.74-.14.22-.31.52-.49.73-.31.36-.55.78-.7,1.25-.13.36-.18.76-.27,1.13-.22,1.06-.36,2.11-.55,3.18.22-.71.45-1.44.67-2.16.17-.42.35-.77.71-1.01.24-.15.49-.24.74-.36.36-.17.73-.39,1.13-.46s.88.18,1.04.56c.13.31.03.63-.06.95M116.62,109.17c.06-.34.35-.63.69-.74.18-.06.41-.1.63-.14-.04.04-.1.07-.14.13-.28.34-.49.78-.64.87-.15-.06-.35-.1-.53-.1M118.95,109.59c-.11.31-.18.64-.25.97-.13.55-.24,1.09-.36,1.64-.17.73-.34,1.48-.77,2.09,0,0,0,.01-.01.03-.11-.08-.21-.18-.29-.34-.11-.18-.48-.08-.5-.29,0-.2.21-.32.36-.46.1-.1.5-.57.56-.69.29-.62.08-1.33.15-1.53-.15-.06-.92-.17-1.53-.28-.88-.17-1.26.08-1.44.13-.27.06-.46-.06-.73-.13-.13-.03-.36-.1-.48-.2-.1-.07-.15-.11-.25-.2-.21-.18-.53-.15-.8-.14-.24,0-.55-.11-.56-.35-.01-.22.25-.34.46-.38l1.09-.22c-.13-.08-.27-.14-.42-.15.06-.21.06-.41-.03-.63-.01-.04-.1-.18-.11-.24v-.15c0-.14-.15-.39-.22-.5-.18-.31-.32-.46-.56-.73-.07-.08-.14-.17-.24-.21-.07-.03-.15-.06-.2-.11.13-.1.28-.14.45-.14l.15-.11c-.17-.17-.42-.15-.66-.17-.41-.01-.63,0-.98.2-.11.07-.21.14-.31.22-.06.04-.31.11-.34.18-.07.14.03.32-.03.48v.03c-.06-.03-.11-.07-.15-.11-.1-.11-.15-.28-.2-.42-.11-.36-.21-.8.03-1.11.13-.17.32-.25.52-.32.42-.14.87-.22,1.32-.21.28,0,.57.04.78.22.11.11.2.25.27.39.5,1.06.6,2.3,1.16,3.33.03.06.08.21.14.25.07.04.24.06.31.06.91,0,1.39.1,2.28.18.21.03.76.11.95.18.28.1.48.27.57.55.08.28-.08.5-.24.78.34-.15.55-.53.53-.9s-.27-.71-.62-.84c-.04-.28.31-.18.46-.25.38-.14.63,1.69,1.86-1.26-.11-.1-.99.1-1.3.41.28-.04.45-.1.7-.2-.14.56-.36,1.08-.55,1.62M115.85,111.3l.07-.04c.11-.03.22.04.34.06.14,0,.28-.08.42-.04.08.03.15.1.21.17.07.06.14.11.21.14.04.01.08.03.13.06.06.04.08.17.11.22.11.22.14.45,0,.66-.04.06-.1.14-.15.18-.21.17-.46.24-.73.29-.11.03-.27,0-.35-.07-.1-.07-.08-.27-.1-.38-.07-.38-.04-.56-.11-.77-.03-.08-.1-.15-.11-.25-.03-.08,0-.2.07-.24M114.2,111.82c.03-.1.03-.24.06-.35-.14.18-.2.42-.21.64-.01.24,0,.5-.1.71,0,.03-.03.1-.06.11-.03.03-.11,0-.15,0-.18,0-.35-.07-.49-.17-.2-.14-.29-.21-.45-.39-.04-.04-.11-.2-.13-.25-.06-.14.01-.31.08-.45.03-.06.06-.11.1-.15.04-.04.1-.06.15-.07.11-.04.24-.08.35-.13.25-.08.55-.17.78-.06.04.03.08.06.14.06s.14-.04.18-.06c.29-.06.56-.04.84.03l.03.08c.1.24.15.42.24.64.04.11.07.27.1.39.04.18.08.45.06.63-.03.15-.1.28-.13.43-.04.17-.08.31-.13.46-.04.17-.15.36-.31.41-.14.04-.41-.07-.53-.15-.15-.1-.22-.24-.35-.36-.07-.06-.08-.13-.11-.21-.04-.08-.07-.18-.07-.27v-.46c0-.11.01-.21.04-.32.01-.07,0-.13.01-.2.03-.21-.03-.38.03-.57M116.09,118.12c-.34.95-.88,2.18-1.48,3.32-1.25,2.34-1.89,3.36-3,5.22-.87,1.46-2.45,3.79-3.43,5.05-.15.2-.98,1.3-1.2,1.54-1.13,1.13-2.7,2.86-4.21,4.23-.13.11-.25.22-.36.35l-.1.03c-.24.03-.46-.91-.57-1.29-1.09-3.79-1.4-4.7-1.81-6.86-.36-1.93-.53-3.19-.7-4.98-.1-1.05-.14-4.19-.14-5.17.01-2.56.1-4.98.15-5.04.13-.11,2.7.08,4.63.15.81.03,1.74.1,2.91.22,1.02.1,1.86.29,2.51.49.49.15,1.74.25,2.24.57.78.52.74.87,1.33.99.53.11,1.08-.08,1.44-.81.1-.2.59-.1.73-.11.32-.03.24.2.59.36.18.08.5.14.62.31.18.25-.04,1.12-.15,1.43M101.51,138.56c-.1.29-.27.43-.5.64-.5.45-.41.63-1.08,1.05-.43.27-.8.6-1.81,1.4-.38.29-1.23.97-2.02,1.34-.38.18-2,1.51-2.42,1.53-.39,0-.59-.32-.42-.6.66-.57,1.27-1.18,1.88-1.85.07-.07.11-.27.14-.36.03-.1-.01-.48-.03-.5-.1-.17-.06-.36.03-.53.08-.17.21-.31.32-.46.46-.64.5-1.29,1.13-1.78.22-.17.43-.06.6-.32.24-.34.53-.27.9-.76.36-.49.38-.97.43-1.3.06-.29-.08-.71-.27-.97-.14-.2-.31-.66-.5-.78-.25-.17-.5-.27-.8-.34-.38-.08-.88-.13-1.29-.03-.21.06-.74.34-.9.48-.9.76-1.11,1.19-1.4,2.46.04-.71.01-.63.08-1.4.04-.56.13-.99.24-1.47.18-.7.56-1.33.84-1.99.2-.43.34-.8.31-1.27-.03-.43-.1-.6-.1-.6-.13-.38-.46-.88-.56-1.02-.18-.27-.41-.69-.59-.95-.24-.36-.36-.49-.71-.73-.32-.21-.92-.22-1.25-.01s-.53.43-.74.76c-.69,1.08-1.15,1.61-1.81,2.51-.31.42-.67,1.04-.9,1.51-.22.48-.25.92.08,1.33-.87-.11-1.43.11-1.67.95-.11.38-.2.91-.43,1.22-.18.24-.17.22-.27.5-.07.21-.13.57-.15.78-.06.39-.24.67-.21,1.08.01.5.43.62.39,1.29-.01.32.53.43.78.25.22-.17.45-.13.76-.07.15.03.13.25.25.35.18.17.38.06.41.31.04.31.24.6.14.85-.06.15-.21.45-.27.6-.07.17-.32.42-.62.43-.2-.01-.39-.07-.53-.1-.28-.06-1.02-.62-1.26-.74s-.31-.28-.62-.56-.34-.49-.64-.64-.35-.31-.74-.45c-.39-.13-.56-.8-.64-1.16-.08-.36.15-.88.24-1.37.08-.49.41-.8.74-1.44s.25-1.76.59-2.48c.34-.71.41-1.5.71-2.59.31-1.11.55-3.72.59-4.16.06-.43-.15-.41-.06-.77s.07-.87.07-1.32-.07-1.36,0-1.82c.08-.46,0-.95.06-1.05.03-.04.1-.14.17-.24.14.1.28.2.43.29-.07.21-.07.46-.14.69-.11.34-.07.53-.01.88.06.35.18.46.52.55.2.04.5.04.66-.03.36-.15.35.1,1.18-.39.24-.14.48-.52.7-.67.17-.11.77-.15,1.26-.88.15-.03.32-.04.41,0,.17.06.24.24.49.24s.78-.34.95-.25c.18.08.34.41.49.5s.59.1.76.31c.17.2.06.56.22.76.17.18.35.2.59.21.24,0,.57.03.76-.03.18-.06,1.67-1.4,1.82-1.58.17-.18.5-.59.53-.88s-.07-.55-.2-.74c-.14-.2-.31-.2-.31-.31,0-.1.07-.24.15-.45.06-.14.07-.35.11-.52v-.03c.07-.21.21-.29.27-.41.04-.11.18-.27.25-.34.08-.08.1-.15.17-.21.07-.06.07-.15.13-.21.03-.03.06-.03.07-.01v1.36c0,1.5.03,2.66.11,4.16.06,1.08-.03,1.57-.06,1.97-.01.32.35.9.38,1.09.08.45-.25.56-.04,1.5.38,1.79.77,4.35,1.5,6.59.48,1.44.7,2.59,1.2,3.61.11.21,0,.41-.07.63M92.65,142.67c-.06-.13,0-.48-.06-.73-.06-.27-.22-.74-.27-.74-.13-.04-.28.67-.36.88-.06.15-.13.34-.28.28-.18-.06-.28-.18-.32-.24-.32-.32-.52-.39-.78-.73-.04-.06-.1-.13-.07-.2.03-.06.07-.08.13-.11.22-.14.34-.43.6-.48.27-.04.5.22.78.21.11,0,.22-.07.35-.1.18-.04.29.07.39.14.14.1.11.32.11.49-.01.49.07.67.25,1.12l.1.17c-.18.13-.48.15-.55.03M94.93,141.49s-.11.07-.17.08c-.22.07-.43.14-.66.21-.11.04-.24.07-.35.01-.08-.04-.13-.14-.17-.22-.04-.1-.08-.2-.14-.29-.04-.08-.08-.18-.07-.28,0-.18.18-.31.34-.39.06-.03.11-.07.18-.08.1-.01.21.04.29.1.22.15.43.36.71.39l.04.08c.04.13.07.28-.03.38M89.47,139.07c0-.14.25-.15.53-.24.28-.07.5-.18.7-.21.25-.03.42.11.71.06.41-.07.88-.11,1.27-.08.59.03,1.05.1,1.48,0,.27-.06.69-.13.94-.03.32.13.29.14.42.22s.18.24.18.29c0,.1-.03.24-.04.32-.06.21-.08.36-.21.45-.13.1-.62.04-.7.04-.77.03-.95-.04-1.43-.07-.08,0-.43-.03-.52-.01-.13,0-.27.11-.39.11s-.25-.11-.48-.13c-.39-.03-.95,0-1.34-.04-.22-.01-1.13-.35-1.15-.69M97.26,135.96c-.03-.08-.21-.18-.39-.2-.32-.01-.56,0-.9.07-.32.06-.77.15-.81.29-.06.14.27,0,.32.17.03.07-.04.22-.08.28-.15.18-.31.18-.41.29-.1.11-.03.2,0,.27s.17.14.1.34c-.07.17-.18.34-.35.56-.1.11-.14.18-.21.27-.2,0-.35-.03-.55-.03-.25-.06-.2-.15-.13-.31.14-.29.17-.38.27-.52.06-.08.14-.22.13-.25-.06-.04-.49.2-.74,1.01.06-1.29.76-2.87,1.86-3.53.22-.14.35-.18.6-.28.15-.06.28-.15.42-.2.2-.07.57-.01.77.04.55.18.99.73,1.09,1.29.03.17.07.42,0,.53-.07.11-.21.07-.39.21-.17.14-.29.38-.43.55-.14.17-.31.41-.52.36-.18-.03-.38-.18-.38-.36s.08-.29.25-.36c.11-.04.27-.14.36-.2.1-.06.17-.21.13-.31M88.51,135.93c-.21-.07-.42.03-.48.25-.03.17.1.45.25.62.14.17.38.42.36.5-.03.14-.24.2-.39.1-.14-.1-.34-.48-.39-.64-.1-.28-.29-.42-.38-.67-.07-.18,0-.42-.03-.53-.04-.28-.22-.39-.31-.67-.08-.28-.03-.5.14-.73.2-.25.55-.28.74-.31.2-.03.52-.01.71.04.32.11.6.22.83.43.46.42.53.84.84,1.37.15.27.5.56.69.52.2-.06.32-.52.38-.81.11-.6-.21-.66-.06-1.19.14-.48,0-.59-.1-.83-.17-.39-.27-.67-.66-.98-.14-.1-.2-.15-.29-.29s-.15-.63-.28-.81c-.18-.25-.25-.6-.11-1.06.21-.5.64-1.05.84-1.18.42-.25.56-.45.7-.76.11-.22.22-.42.42-.57.28-.24.62-.22.91-.01s.69.56.87.88c.27.5.55,1.02.81,1.53.17.42.03.81-.11,1.19-.2.55-.52.97-.76,1.48-.52,1.12-.43,2.79-.45,3.04-.04.71-.04,1.32-.15,2.1-.03.15-.07.27-.08.35-.24-.06-.43-.1-.67-.1-.07-2.18-.1-3.51-.1-4.91,0-.35.03-.85-.04-1.19s-.38-.78-.77-.87c-.34-.07-.55-.1-.69.03-.17.14-.15.42-.06.62s.24.28.36.46c.25.38.62.56.69.88.06.27-.03.55.07.92.06.21-.13,1.02-.1,1.39,0,.15,0,.31.01.46.04.53.08,1.93.14,2.27h-.08c-.15.06-.32.11-.46-.03-.13-.15-.25-.39-.34-.57-.08-.18-.31-.43-.39-.35-.13.13.34,1.23.27,1.22-.25-.04-.17-.41-.6-1.01-.21-.29-.2-.6-.42-.69-.41-.14-.49-.28-.85-.55-.11-.07-.27-.28-.45-.34M83.84,135.45v.03l-.04.04s.04-.07.04-.07ZM82.43,135.97c-.21.49-.34.95-.52,1.13-.18.18-.48.13-.91-.06-.43-.18-.9-.71-1.26-1.13-.36-.41-.95-.85-1.44-1.29s-1.4-1.67-1.85-2.25c-.13-.17-.28-.18-.45-.29-.15-.1-.41-.59-.7-1.11-.28-.52-.41-.94-.74-1.19-.35-.24-1.23-1.36-1.39-1.69s-.18-.95-.41-1.13c-.22-.17-.8-.77-1.26-1.41-.46-.64-.34-1.32-.41-1.57-.08-.25-.25-.36-.41-.64s-.22-1.01-.39-1.34c-.15-.32-.34-.36-.59-.7s-.49-.9-.92-1.39-.92-.95-1.08-1.47c-.11-.36-.36-.87-.43-1.08-.08-.21-.06-.62.13-.8.18-.18,1.23-.74,1.39-.77.15-.03.7.07,1.02.03.34-.06.8-.31,1.32-.49.1-.04.21-.06.31-.08l.95-.11h0l2.74-.34s.11.01.18.03c.31.03.7-.1,1.11-.18l.57-.07h.08c.48,0,.81.15,1.58.17.85.03,1.01-.18,1.41-.21.41-.03.7.06,1.19-.03.49-.07.64.07,1.02.07s1.25,0,1.47.17c.17.13.13,1.16.18,1.78.04.53.2.97.15,1.09-.21.49-.03,1.57,0,2.34.03.63-.55,1.01-.5,1.65.1,1.23.63-.03.63,1.82,0,.59-.06.46-.03.8.03.34.24.31.15.83-.06.36-.24.77-.1,1.39.13.62.04.84.03,1.46-.03.78.11,1.2.13,1.34.03.31-.28.66-.36,1.16-.1.59-.48,1.65-.77,2.87-.28,1.2-.64,2.21-.85,2.7M68.16,113.88c.39,0,.8-.03,1.2-.11.41-.08.45.07.45.07-.74.56-.42.39-.99.63-.36.15-.64.24-.92.15s-.71-.42-.71-.62c0,0,.59-.13.97-.13M67.07,109.61c.06-.11.31-.17.52-.2.2-.04.94-.06,1.06-.11s.83-.2,1.12-.2.85-.04.94-.04.13-.1.38-.11c.25-.01.99.01,1.41,0,.21,0,.31-.06.39-.08.21.27.76.98.59,1.18-.03.03-.07.06-.1.08-.04.03-.1.04-.14.07-.11-.01-.29-.01-.43-.01-.25,0-.53-.06-.83-.04-.29.01-.57.11-.57.11-.08.1.24.32.43.39.2.08.25.2.53.08.1-.04.22-.1.34-.17-.04.21-.08.45.27.69.22.15.2.49,0,.71h0c.04-.1-.29.27-.42.27-.14,0-.73-.06-.83-.07-.1-.01-.31-.2-.36-.24s0,.18.13.31c.13.13.48.34.52.42.04.1-.06.2-.24.2s-.35-.06-.49-.2-.31-.48-.31-.9-.13-.6-.1-.9c.04-.29.1-.52.01-.62-.07-.11-.67-.04-1.02.01s-.67,0-.73.11c-.06.11.2.45.17.66-.04.21-.11.64-.06.94.06.29.07.36.28.36s.36-.36.38-.59c.01-.22,0-.88.07-.95s.13-.06.18.1c.06.14.1.38.14.67.06.29.28.77.29.83s.22.32.28.41c.06.07-.48.48-.6.49s-.42-.43-.64-.56c-.22-.13-.84-.38-1.04-.83-.2-.43-.11-1.12-.22-1.32s-.73-.49-1.01-.59-.32-.28-.28-.38M66.15,106.16c-.76-.35-1.2-.22-1.2-.22,0,0,.04-.39-.18-.53-.24-.15-.31,0-.31,0,0,0-.48.48-.6.42-.11-.06-.08-.48.03-.7.1-.21.42-.43.67-.57.25-.14.53-.06.92.04.48.11.41.41.64.57.24.18.63.52.81.71s.32.49.43.66c.11.15.28.55.5,1.04.17.38.5,1.02.5,1.25s-.29.31-.46.31c0,0-.41-.46-.57-.81-.34-.67-.15-.94-.24-1.19-.14-.45-.2-.62-.95-.97M65.7,107.8c-.1.06-.39-.27-.49-.43-.11-.17-.17-.48-.03-.53.1-.04.15.03.28.15.13.13.21.18.32.35.1.17.03.42-.07.46M63.65,102.56c.11-.21.28-.57.25-.8-.01-.21-.34-.67-.39-1.05s.06-1.11.01-1.47c-.04-.35.06-.69.25-1.05.14-.25,0-.78-.1-.99.2,0,.32.03.55.13.24.1.46.2.78.29.31.1.38.25.55.34s.6.11.85.14c.29.03.55.14.66.24.03.03.07.06.11.08-.04.06-.11.28-.2.32-.15.06-.38.39-.55.81-.18.42-.24.71-.49.92-.25.22-.57.59-.7,1.08-.13.48-.25.83-.06,1.2.2.38.14.6.42.83.28.21.25.46.25.46,0,0-.38.08-.57.11-.2.03-.49.08-.81.1s-.57.24-.57.24c0,0-.32-1.01-.32-1.33s-.04-.39.08-.62M63.49,105.04v-.04h0v.04ZM63.75,88.46c.07-.46.28-1.79.43-2.21.14-.43.42-.67.28-.91-.14-.25-.74-.06-.67-.34.14-.46.1-.92.04-1.25-.06-.32.1-.2.57-.53s.88-.6,1.37-.87c.45-.24.31-.6.55-.73,0,0,.5-.2,1.37-.27.85-.07.41.14.87.2.27.03.63-.08.91-.15s1.51.03,2,0c.76-.07,2.25,0,3.29,0,1.02.03,1.62-.11,2.48-.04.78.06,1.06-.15,1.85,0,.8.15,1.99-.03,2.2.04.21.07-.13.55.07.76.34.36.57.91.83,1.4s.6.92.67,1.37c.08.52.5.81.46,1.71-.03.9-.25,3.19-.36,3.68-.11.5.21.6.36,1.15.14.53.04,1.48.2,1.9.14.43.31.46.35.88.04.43-.04.43-.07.85-.04.43.14,1.57.25,2.07.11.5-.07,1.46-.11,1.67s-.03.52-.11.63-.99.11-1.2.11-.85.07-1.75.06c-.85-.01-3.15-.32-4.83-.55-1.68-.21-4-.62-4.37-.74-.36-.11-2.39-.52-3.4-.84-1.01-.32-1.55-.27-2.13-.38-.34-.07-.67-.28-1.06-.35s-.94-.43-1.22-.53c-.28-.11-.22-1.04-.25-1.26-.03-.21.07-1.69.14-2.18.07-.5-.14-1.36-.11-1.68.04-.32.28-.69.46-.97.18-.28.36-.64.18-.78-.18-.14-.39.14-.6,0s0-.43.07-.9M64.3,81.72c.13-.01.18.14.25.14s.17.01.17.01c.11.06.07.28-.1.38-.17.11-.31.14-.48,0s.01-.53.14-.55M90.41,94.14c-.13-.22-.53-.56-.59-.88.29-.08.34.48.45.43.15-.07.21-.73.28-1.12.07-.01.13,0,.24,0s.32-.01.42.04c.17.11.32.15.45.15-.01.5-.24,1.33-.17,2.13-.11-.13-.36-.14-.49-.14,0,.11,0,.17-.01.28-.22.1-.59.06-.62-.15-.01-.13.25-.42.07-.74M96.61,86.85c.24,0,.39.11.39.11.1.11.24.24.28.31.03.04.11.06.15.07.08.04.15.11.22.18.11.11.21.22.32.32.14.13.11.24.1.39,0,.17-.07.46-.18.57s-.18.13-.35.17c.13-.21,0-.46-.2-.63-.18-.17-.41-.25-.64-.27-.14,0-.29,0-.39-.07-.1.06-.21.08-.32.1-.04,0-.1,0-.14.03-.04,0-.07.03-.11.06-.18.11-.38.22-.49.41-.03.04-.04.08-.08.11-.04.03-.11.03-.15.07-.04.04-.04.13-.1.17-.01,0-.04.01-.07.03-.03.01-.04.04-.06.06-.11.14-.22.28-.34.41.1,0,.2,0,.28.03.04-.08.11-.15.17-.22.53-.5,1.25-.73,1.95-.95.04-.01.1-.03.14-.01.06.03.1.08.14.11.07.04.18.03.25.08.07.06.07.15.03.22s-.07.14-.14.2c-.13.1-.27.17-.39.28-.11.1-.2.27-.14.31.07.06.15.1.24.11.06,0,.11,0,.17.03.15.07.2.28.11.43-.08.14-.24.22-.41.27-.04,0-.07.01-.11,0-.04,0-.07-.04-.11-.07-.13-.1-.29-.11-.42-.2s-.2-.22-.25-.36c-.03-.07-.06-.13-.11-.17-.11-.07-.25-.01-.36.04-.48.28-.9.73-.99,1.26-.1-.03-.18-.04-.28-.06-.31-.06-.63-.08-.94-.11.13-.32.27-.98.32-1.11.1-.21.29-.7.29-.84s.1-.36.21-.46c0,0,0-.01.01-.01h0s.03-.04.06-.07c.2-.25.59-.81.78-.92.25-.15.5-.25.78-.31.04,0,.07-.01.11,0,.03,0,.04.03.07.04.13.06.25-.08.39-.08.18,0,.35.2.52.1.06-.03-.14-.11-.22-.17M89.4,90.85s.03-.13.01-.2c0-.17.04-.15.17-.03.07.08.15.15.18.27s.04.17.1.25c1.47-.21,2.97-.22,4.44-.06.25.03.49.07.71.17.24.17.36.45.29.74-.01.06-.06.13-.08.18-.1.14-.5.14-.66.21-.24.1-.45.11-.78.13-.04.06.13.07.13.2-.1.06-.34.21-.35.24-.03.04,0,.1.06.11.04.03.17.01.21.03.43.03.66.03.83.08.14.04.57.35.55.49-.03.11-.15.17-.21.27s-.04.24-.01.35.08.22.08.35c0,.04,0,.07-.03.11-.04.07-.11.06-.15.11,0,.13-.11.21-.21.28-.14.08-.36.13-.84-.08-.1-.07-.25-.14-.34-.22-.34-.34-.53-.7-.57-1.16-.03-.24-.08-.57-.18-.67-.14.21-.08.91.06,1.34.13.43.36.91.25,1.36-.04.18-.15.43-.25.59-.14.22-.25.43-.53.45-.27,0-.46-.24-.64-.39-.17-.14-.35-.21-.45-.41-.11-.2-.11-.43-.06-.66.25.18.59.64.73.59.08-.04-.17-.63-.14-1.39.03-.55.13-.73.17-1.67.11,0,.2-.04.28-.04.14,0,.29.03.43.06h.13s.6-.15.57-.31c-.03-.13-.63-.13-.74-.14-.18-.03-.25-.01-.45.01-.04,0-.2.08-.24.11-.03.01-.07.03-.11.03-.27-.03-.48-.03-.73-.07-.13-.03-.28-.04-.39-.1-.07-.17-.15-.27-.24-.36-.07-.1-.55-.27-.64-.25-.21.06-.21.32-.42.39-.35.11-.53.08-.45-.35.08-.5.21-.38.38-.53.11-.1.17-.21.14-.35M85.48,85.22c-.18-.39,0-.8-.11-1.02-.27-.46-.38-.38-.55-.67-.83-1.41-1.02-2.48-.8-2.52,1.81-.31,2.66.17,3.54.15.31,0,.66-.17,1.01-.18.43-.03,1.08.1,1.51.07.41-.01.8-.03,1.19-.04-.01.06-.06.17-.42.36-.36.2-.39.17-.74.39-.21.14-.55.5-.76.64-.28.17-.7.41-.91.84-.13.24-.15.52-.17.8-.03.27-.06.53-.07.8v.18c.03.06.42.46.55.67s.18.32.31.67c.06.17.06.42.14.59-.11-.07-.24-.14-.28-.2-.1-.1-.49-.15-.94-.14-.5,0-.8.39-1.29.46-.15.03-.73.03-.81.13-.07.08-.08.15-.11.27-.08.35.04.41-.1.73-.18.42-.32,1.22-.08,1.67.07.13.31.24.38.36.03.06-.08.46.18.53.28.08.52-.22,1.44-.38.15-.03.15.03.21.11.03.06.13.22.17.27.06.07.11.15.18.22.07.08.21.25.21.36,0,.13-.18.2-.29.24s-.31.08-.5.14c-.42.13-.57.31-.53.78.01.18.46.41.69.52.27.14.64.38.49.64-.14.22-.36.85-.18,1.4.11.32.35.03.53,1.01.04.25.64-.08.83-.06.18.03.11.53.31.87.15.27.36.42.66.49.36.1.74-.04.87-.11.08-.06.57-.38.94-.42.11-.01.41-.15.56-.31.43-.41.62-.83.76-.94.29-.24.39-.29.43-.43.29.22.57.15.67.11q.13-.06.24-.14c.1-.07.18-.18.28-.25.13-.1.18-.24.17-.41-.01-.15-.1-.31-.18-.43.15-.14.31-.36.27-.56-.01-.08-.07-.17-.13-.24-.08-.11-.21-.18-.35-.22.27-.14.35-.22.53-.45.03-.03.13-.11.13-.15v-.24c0-.08.04-.18.03-.27-.03-.25-.01-.46-.22-.7-.08-.08-.32-.22-.43-.27-.06-.03-.1-.06-.13-.11.03-.08.04-.17.08-.25.01-.04.06-.07.1-.07.03,0,.06.03.08.04.31.28.78.38,1.19.22.2-.07.41-.18.57-.24.2-.07.27-.03.38-.11.04-.04.1-.1.15-.08.01,0,.04.01.06.01.03,0,.03-.04.04-.06.21-.29.18-.57.21-.84.22-.1.35-.2.48-.39.14-.22.18-.48.24-.73.03-.13.08-.28.07-.42-.03-.14-.17-.32-.24-.43-.17-.28-.32-.48-.62-.63-.21-.11-.42-.13-.67-.2-.71-.08-1.55.17-2,.46-.22.15-.39.31-.52.46-.42.32-.66.98-.91,1.19-.01.01-.04.03-.04.06v.04c0,.1-.13.31-.18.5-.11.42-.07.87-.18,1.29-.27-.01-.53-.01-.8,0-.01-.04-.03-.1-.04-.14-.1-.92-.21-1.37-.1-2.18.03-.22.04-.63.07-.85.03-.21.1-.49.08-.7v-.55c.01-.46.34-.98.1-1.37-.14-.21-.41-.46-.67-.62,0,0-.13.03-.06.2.03.06-.04.15-.04.21-.03.15.04.31.11.45.17.36.21.73.2,1.18,0,.11-.06.22-.01.32.01.06.06.1.08.14.11.18.01.46.11.69-.15.49-.18,1.26-.21,1.41-.03.25-.11.48-.15.84-.03.25-.01.71-.11,1.01-.2.01-.39.04-.59.07-.13-.11-.24-.24-.35-.38-.36-.53-.34-1.09-.84-1.74-.07-.1-.11-.14-.17-.24-.03-.04-.1-.14-.14-.18-.06-.07-.14-.11-.22-.14l.03.04c.15.18.25.34.39.55.11.17.17.35.21.56.03.11.08.17.11.27.01.06.04.2.06.31,0,.07.06.22.03.32,0,.04.08.14.11.17.13.18.32.38.38.53-.11.01-.24.03-.35.03-.1-.13-.14-.28-.2-.45-.04-.14-.34-.69-.39-.78-.11-.18-.18-.25-.27-.45-.04-.08-.17-.34-.21-.41-.1-.14-.2-.2-.24-.27-.07-.08-.21-.24-.31-.28-.07-.03-.24-.04-.32.01-.13.1-.13.24-.1.39.04.15.39.57.52.83.1.18.14.38.04.39-.15.03-.29.13-.36.17-.13.08-.21.03-.31.04-.1,0-.18.18-.27.03-.03-.17.11-.35.14-.55.04-.32-.66-.64-.53-1.15.06-.21.18-.31.27-.6.03-.08-.04-.21-.14-.17-.11.04-.2.18-.42.34s-.56.42-.49.69c.04.15.14.41.24.53.1.13.1.34-.01.35-.11-.03-.35-.41-.41-.7-.08-.35.14-.91.48-1.02.38-.11.27-.22.46-.35.34-.22.41-.48.71-.5.71-.07,1.18.15,1.23.11.13.04.31.2.35.29.13.24.34.22.39.38.07.24.15.46.28.67.17.27.49.78.57.81.11.03.13-.25.14-.35.11-1.43-.07-1.51-.08-2.3,0-.31.03-.57-.07-.87-.13-.38-.36-.83-.59-1.15-.17-.25-.31-.45-.29-.74.01-.18.1-.36.11-.56,0-.17-.04-.32,0-.49.08-.32.42-.52.69-.7s.52-.39.73-.64c.55-.66.88-.64,1.05-.67.17-.03.42.18.55.28.17.11.28.35.48.52.17.13.28.36.41.52.14.17.22.45.32.64.17.35.25.49.27.88,0,.25,0,.52-.06.76-.2.84-.6,1.16-.91,1.89-.08.21-.28.38-.38.92-.03.14-.25.14-.31.38-.06.2-.08.49-.04.73.03.17-.07.27-.1.74,0,.1-.01.31-.03.41-.01.13-.03.35.01.38s.1-.45.17-.67c.07-.24.08-.42.14-.64.04-.2.13-.27.15-.48.03-.18.03-.21.15-.35.15-.15.24-.42.31-.62.13-.35.21-.52.45-.81.11-.14.2-.41.27-.56.07-.18.2-.39.28-.56.2-.46.25-.66.22-1.3-.01-.34-.1-.46-.21-.77-.07-.18-.17-.39-.28-.55-.07-.1-.28-.48-.34-.57-.17-.34-.46-.74-.76-.98-.04-.04-.08-.07-.14-.08h.03c.25-.04.41-.07.66-.04.2,0,.64.11.84.11.56,0,2.14-.03,2.95-.04,1.01-.01,1.18.28,2.67.41.71.06,1.09,0,1.76.07-.04.43-.04.74-.62.99-.29.13-.38.22-.39.63,0,.1-.03.42-.01.52.01.31-.11.52-.36.94-.28.48-.39.84-.52,1.2-.2.56-.03.56-.25,1.19-.64,1.83-1.11,4.07-1.11,6.02,0,.6-.18,1.19-.27,1.78-.07.46-.07.98-.21,1.43-.28.97-.17,1.55.14,2.88v.04s.01-.24-.07-.34c-.17-.21-.15-.43-.35-.63-.22-.22-1.04-.7-1.01-.6.03.06-.11.08-.03.11.14.06.39.18.49.25.14.1.45.28.56.46.1.2-.03.69-.11.81-.08.11-.28.21-.34.36-.06.15-.45,1.18-.64,1.61-.18.42-.63,1.61-.77,1.92-.14.32-.27.6-.32.71s-.1,0-.24.52c-.14.5-.18.62-.22.8s-.2.36-.25.57-.21.81-.32,1.01c-.1.21-.38.9-.5,1.19-.13.31-.49,1.09-.59,1.29-.07.17-.31.76-.46.99,0,0,0-.01-.03-.03-.14-.17-.24-.6-.34-.74-.11-.14-.43-.8-.56-1.02,0-.03-.01-.04-.03-.07-.08-.18-.17-.32-.07-.5.1-.17.36-.29.46-.63.22-.7.67-1.26.88-1.9.18-.55.38-1.18.64-1.68.31-.6.57-1.18.78-1.76.25-.73.7-2.03,1.13-2.94.15-.34.36-.9.42-1.04.03-.06.35-.25.53-.17.14.08.04-.14-.03-.17-.13-.04-.46-.07-.91.22-.1.06-.24.22-.31.31-.15.15-.31.57-.38.78-.13.35-.84,1.95-.97,2.32-.6,1.86-1.2,2.59-1.47,3.44-.03.07-.15.45-.35.97-.22.64-.62,1.26-.76,1.68-.07.07-.1.06-.14-.01-.06-.11-.29-.77-.42-.95s-.15-.15-.15-.15c0,0-.03-.28-.13-.48-.1-.21-.49-.97-.66-1.39-.15-.42-.6-1.47-.94-2.24s-.81-1.83-1.12-2.74-.69-1.26-.94-1.58c-.13-.17-.25-.2-.35-.2-.39,0-1.05.45-1.05.45l.06.11s.76-.32.8-.34c.08,0,.13.04.17.06.1.06.13.14.21.21.15.15.25.41.38.66.13.25.1.29.28.7.18.41.32.81.5,1.12.17.31.32.56.39.8.06.24.13.46.28.84s.64,1.4.92,2,1.12,2.45,1.36,2.93c.28.56.84,1.74.91,1.92.1.25.25.45.38.81.13.36.53,1.19.66,1.47.13.28.18.34.18.43s.35.21.46.39c.13.17.22.28.27.43s.22.38.25.5c.03.13-.04.15-.17.13-.13-.03-.42-.03-.59-.11s-.77-.06-.88-.14c-.13-.08-.36-.22-.42-.34-.07-.13-.27-.66-.27-.66,0,0,.2-.06.39-.08.18-.01.08-.11.32-.13.25-.01.34.13.39.04s.04-.15-.14-.15-.78-.14-.94-.25-.43-.38-.57-.57c-.14-.2-.5-1.36-.6-1.65-.11-.29-.57-1.18-.62-1.4s-.28-.71-.39-.88c-.11-.17-.14-.36-.18-.46-.06-.1-.76-1.71-.8-1.81-.03-.1-.06-.25-.15-.35-.1-.08-.18-.43-.31-.73-.07-.15-.27-.59-.45-.97-.25-.64-.49-1.33-.64-1.61-.11-.2-.27-.27-.36-.45-.08-.14-.06-.49-.27-.9-.27-.52-.36-.62-.45-.94-.04-.17-.01-.52-.14-.64-.1-.11-.53-.48-.6-.55-.15-.15-.07-.46-.08-.78,0-.22-.04-.63-.04-.87-.01-1.04-.15-1.2-.14-1.62,0-.35.13-.77.04-1.01-.11-.28-.15-.5-.18-.7-.04-.34-.06-.57-.07-.8-.03-.36-.15-.38-.22-.71-.03-.14.03-.48-.04-.73-.04-.15-.22-.22-.27-.29-.11-.18-.2-.7-.38-1.11.36.1.27.52.39.64.11.13.41-.2.36-.45-.14-.88-.06-1.23-.1-1.4-.03-.11-.22-.25-.31-.32-.29-.2-.66-.43-.88-.66.22-.03.45-.04.7,0,.5.08,1.16.49,1.29.31s-.08-.88-.38-1.51M99.33,100.07c.03.08-.18.42-.27.53-.07.11-.15.42-.1.49.04.07.27.08.39.13s.06.17.2.11c.13-.04.27-.39.31-.5s.14-.15.21-.25c.07-.08.04-.2.17-.2s.35.17.59.27c.24.08.77.28.81.38s-.74,1.32-.87,1.55c-.08.15-.35.35-.5.55-.11.13-.1.17-.27.15s-.28-.11-.38-.14c-.1-.04-.18.1-.27.21s-.15.27-.07.36.57.28.71.34c.07.03.04-.14-.03-.17-.06-.01-.11-.08-.27-.15-.15-.06-.21-.24-.15-.31.04-.06.46.15.6.25.13.08.14.25.07.43s-.18.46-.34.57c-.17.1-.24.08-.32.21-.08.13-.04.56-.08.77s-.38.97-.49.99-.88-.48-.98-.57c-.1-.08-.11-.18-.1-.34.01-.17.25-.62.24-.74s-.06-.13-.22-.22c-.17-.1-.24-.27-.32-.31s-.13.07-.22.24c-.08.15-.14.46-.31.67-.15.21-.22.08-.45.07-.24-.01-.78-.22-.81-.34-.03-.11.24-.73.39-1.01.15-.28.36-1.13.52-1.37.17-.24.42-.92.55-1.27.11-.35.29-.7.31-.83s.18-.42.29-.59c.1-.17.25-.56.32-.64,0,0,.07-.04.14-.01s.35.22.43.28c.08.06.53.28.57.36M99.54,100.06c.11.06.24.1.35.11-.1.13-.17.31-.21.42-.04.14-.1.45-.25.49s-.21-.08-.22-.22c-.01-.13.1-.36.18-.52.06-.08.1-.21.13-.29M95.07,114c.08.13.13.24.15.34.03.08.08.17-.04.21s-.13-.07-.21-.08c-.1-.03-.24.03-.34.06-.1.03-.25,0-.25,0-.27-.08-.74-.41-.91-.56-.15-.15-.36-.55-.36-.55,0,0,.13-.2.2-.18.07.03.2,0,.25-.06.06-.04.24.03.32-.03.13-.08.27-.08.42.03s.22.08.29.1c.08,0,.31.29.38.38.07.1-.06.13-.06.13,0,0,.07.11.15.22M88.31,116.3s.08-.07.13-.1c.03,0,.04-.01.07-.03.21-.07.32.06.41.2.07.14.17.41.06.63s-.66.53-.81.57c-.15.04-.24-.06-.31,0-.06.06-.31.62-.46.76s-.36.11-.28.15.25,0,.42-.1c.17-.1.24-.27.34-.24.1.03.42.49.56.67.14.18.64,1.01.7.98.03-.01.13-.06.1-.11-.11-.17-.31-.46-.34-.5-.04-.06-.2-.31-.27-.45s-.22-.31-.25-.41c-.03-.08-.1-.28.03-.29.13,0,.53.28.71.41.18.13.22.57.28.73.06.15.14.22.14.22,0,0-1.15.81-1.25.81-.03,0-.08-.04-.13-.08-.08-.18-.22-.38-.43-.64-.07-.08-.25-.63-.45-.69-.14-.04-.25,0-.46.1-.24-.17-.38-.59-.5-.99.67-.5,1.36-.97,2.03-1.6M90.76,111.93c.03-.1.27-.5.38-.52.11,0,.35.13.62.42.25.29.31.63.28,1.2-.03.56-.45.84-.45.84,0,0-.04,0-.08-.03s-.07-.17-.14-.24c-.07-.07-.11-.18-.34-.63-.25-.5-.28-.97-.25-1.06M91.01,113.65c.14.18.17.32.18.39,0,.07.1.14.11.29.03.15.03.57-.06.7s-.11.2-.25.28c-.14.08-.14.11-.17.06-.03-.06-.07-.22-.13-.29-.06-.07-.07-.14-.15-.25-.1-.11-.24-.32-.28-.48s-.06-.45-.06-.57-.13-.15-.08-.29c.03-.14.07-.36.24-.43,0,0,.15,0,.24.07s.28.35.42.53M87.96,103.84c.08.06.31.35.38.52s.15.45.11.57c-.06.13-.17.24-.35.24s-.32.03-.49-.17c-.17-.2-.15-.36-.32-.38-.15,0-.48.18-.53.22-.06.04-.15.1-.18.24s-.03.08-.13.07c-.1,0-.28-.25-.24-.35s.13-.08.15-.22c.04-.13.15-.63.15-.63,0,0,.41.1.67.25.27.14.41.21.41.21,0,0,.14-.24.15-.34.03-.1.13-.28.21-.22M87.75,103.6s-.52-.14-.73-.25c-.22-.11-.46-.27-.46-.27,0,0,.1-.14.13-.22.03-.08.14-.5.21-.69.06-.18.15-.46.17-.52.03-.06-.04-.14-.17-.18s-.35-.13-.35-.13l-.17.14c-.17.14-.13.41-.17.6s-.18.46-.18.46c0,0-.14-.04-.31-.15s-.53-.46-.62-.46-.13.04-.22.07c-.1.03-.13.25-.22.38s-.04.25.03.32.17.08.32.14.5.32.53.38c.03.04.08-.04.17-.01.1.03.15.2.15.2l.04-.1s.01-.1-.11-.17-.57-.32-.8-.39c-.22-.06-.29-.21-.29-.24,0-.01.13-.18.13-.18,0,0,.08-.04.15-.03.08.01.15.06.31.13.15.06.34.27.43.34.1.08.24,0,.35.03s.04.17.1.17.04-.08.04-.14.14-.76.17-.98c.03-.22.15-.29.15-.29l.29.11s-.01.22-.1.42c-.08.21-.17.53-.24.71-.06.18-.17.36-.13.42s.24.11.39.17c.15.07.6.36.67.43.06.08.15.13.15.13l-.11.27s-.57-.34-.66-.38c-.07-.04-.24-.03-.32-.07-.1-.03-.04.07-.14.13-.1.06-.1.52-.17.62-.08.11-.14.24-.2.11-.07-.13-.04-.27-.03-.38.01-.11.24-.67.18-.77-.04-.1-.07,0-.17.11-.11.13-.2.59-.2.59,0,0-.1-.01-.14-.14s.03-.17-.01-.35c-.04-.17-.2-.42-.2-.42,0,0-.32.14-.5.13-.17-.01-.45.03-.57-.15s-.13-.41-.18-.63c-.07-.21-.31-.41-.39-.53s0-.42-.01-.55-.08-.18-.08-.29.11-.15.15-.28c.03-.07,0-.18-.04-.25.29-.18.63-.31.8-.29.34.42.28.81.46.94.29.2.22-.11.8-.14.15,0-.25-1.05-.27-1.19-.01-.2.45-.35.71-.5.13.28.48,1.01.67,1.36.25.43.53,1.2.59,1.54.07.35.28.78.29.88.01.11-.11.25-.11.25M68.97,108.85c-.14.1-.29.1-.38.01s-.21-.7-.35-1.06-.48-.85-.45-1.05c0,0,.52-.11.62.06.1.18.07.57.1.81s.25.77.28.91c.01.14.34.22.2.32M70.39,104.69c-.01.39-.2.78-.24,1.11s.07.52.08.85c.01.32-.08.31-.18.49s.01.21.1.43.04.34-.03.53c-.08.2-.01.59-.13.7-.1.1-.25,0-.43-.1-.17-.1-.17-.7-.2-1.08-.04-.38.11-.84.04-1.12-.07-.28-.31-.87-.43-1.22s0-1.25,0-1.61-.27-.78-.35-1.26c-.08-.49-.29-1.46-.28-1.76.01-.31.07-.46.13-.67.04-.21.17-.69.07-.59-.1.1-.29.76-.38.97s-.13.52-.29.69-.38.57-.38.85-.06.49-.25.49-.43-.36-.46-.71.1-.97.28-1.29c.17-.31.63-.81.8-1.05s.71-.83.78-.92c0,0,.01-.03.03-.03.13-.11.27-.22.34-.27.17-.1.34-.14.48-.1.14.04.74.64,1.08.98.32.35.81.94.95,1.44.14.5-.13.73-.38,1.22-.27.49-.76.63-.88.73-.13.1.13.17.25.14.14-.03.35-.22.42-.21s.13.08.07.17-.57,1.3-.6,1.48.06.31.03.71M75.37,105.59c-.06.31-.25.87-.36,1.01-.07.08-.14.17-.18.21-.11-.06-.27-.08-.42-.03-.28.1-.55.31-.55.36s.04.13.17.01c.13-.11.36-.29.59-.18s.32.24.17.36c-.17.13-.41.48-.71.46-.31-.01-.49-.07-.6-.36-.11-.29.28-.99.46-1.08.18-.1.76-.11.91-.22.17-.11.43-.67.42-.98-.01-.31.18.13.13.43M71.9,107.26c.18-.21.55-.66.74-.73.2-.07.29-.07.35.07.06.14-.18.8-.46.95-.28.14-.24.8-.31.94-.07.13-.43.17-.7.2-.25.04-.24.1-.46.1s-.29.13-.28-.13c.01-.25.14-.95.28-1.19.13-.24.25-.64.22-.84-.04-.2.43-.32.6-.7.17-.36.25-.7.35-.84s-.07-.24-.28-.14c-.13.06-.55.24-.9.41.25-.32.67-.81,1.05-.99.6-.29.95-.32,1.5-.32s1.23.25,1.33.55c.11.29,0,.69-.22.94-.21.25-.35.42-.6.42s-.9-.13-1.18-.01c-.28.11-.6.25-.83.53s-.56,1.13-.55,1.27.14-.24.31-.46M86.06,115.53c-.04-.21-.13-.46-.07-.95s-.14-1.54-.2-1.75h0s-.07-.1-.14-.11c-.18-.08-.41-.06-.64-.13-.31-.1-.46-.24-.91-.22-.46.01-.88.17-1.26.18-.38.01-1.44.07-2.1.1-.66.01-1.61.04-1.89.04s-.77-.06-1.12-.01-1.01.1-1.27.17c-.28.07-.42.18-.83.25s-.83-.17-1.23-.07c-.41.1-.48.41-1.04.56-.56.17-1.09.2-1.3.2s-.22-.01-.46-.01-.17-.18-.32-.18-.38.1-.52.01c-.13-.07-.14-.1-.04-.2.11-.11.56-.34.67-.35s.07.11.17.14c.1.04.43.11.64-.04.2-.14.25-.41.38-.55.28-.15.8-.39.85-.77.07-.48-.36-.91-.42-1.12-.06-.21.57-.18.73-.5.15-.34.06-.53-.25-1.11.04,0-.04-.15-.15-.25-.04-.06-.07-.11-.11-.15.1-.11.38-.27.53-.36.22-.13.62-.17.88-.36.25-.2.49-.71.42-.94,0-.01-.01-.03-.03-.06.11-.13.32-.39.45-.87.18-.67.13-.73.11-.97-.01-.24-.07-.62-.31-.85s-.64-.67-1.57-.69c-.94-.01-1.47.34-1.47.34,0,0-.63.21-1.54,1.47,0,0,0,.03-.01.04,0-.35,0-.83.01-.98.03-.22.1-.83.28-1.22.18-.39.34-1.05.53-1.32.21-.27.29-.59.36-.88.07-.29-.03-.53-.1-.8s-.36-.73-.5-.9-.49-.45-.35-.45.49.15.81.22,1.27.32,1.72.38c.45.06.91.1,1.54.27.62.17.9.06,1.32.07.43.01.46.08.84.15s.56.21,1.01.24c.45.04,1.29.1,1.75.03s1.89.11,2.24.07c.35-.03.24-.13,1.04-.24.63-.1,1.68-.03,1.86,0,.2.07.59.8.53,1.12-.21.1-.2.03-.39.13-.18-.34-.11-.49-.43-1.05-.55.14-1.26.45-1.76.7-.57.31-.34.77-.48,1.26-.1.36.2.35.11.97-.03.18.15.21.25.45s-.06.52.27.7c.18.1.62.06.87.24.17.11.15.27.17.32.07.43.41.52.56.67.17.15.08.35.21.6.06.11.31.25.41.35.28.25.59.39.95.14.42-.28,1.13-.56,1.5-.59.18,0,.48.74.73,1.25.52,1.08,1.05,2.17,1.58,3.77.07.2.32.35.31.56-.01.15-.28.57-.46.73-.64.52-.31.81-.6,1.2-.17.22-.49.67-.57,1.02-.07.29-.22.81-.29,1.05-.11.32-.48.56-.95.94-.24.18-.45.34-.66.46-.17.03-.42.06-.57.06-.24,0-.34,0-.36-.28-.03-.28.2-1.13.15-1.33M93.02,119.27c-.08.04-.14.27-.22.34-.08.07-.29.28-.59.28s-.62-.34-.8-.32c-.18.03-.32-.03-.39.13-.07.15-.34.56-.6.67-.27.1-1.06.53-1.16.7-.08.18-.07.31.07.36.22.11.42-.29.56-.31.13,0,.18,0,.21.11.04.11.07.32.21.35.07.01.13.03.18.04-.04.1-.07.18-.11.25-.36.53-1.13.22-1.75.06-.1-.03-.22-.06-.28-.15-.06-.08-.03-.18-.03-.28v-.06c.08-.15.17-.35.15-.43,0-.18-.14-.17-.11-.39.03-.22.52-.57.84-.81.32-.22.99-.45,1.25-.56.25-.1.45-.24.55-.31s.18-.15.11-.31c-.07-.17-.38-.55-.48-.73-.1-.18-.34-.6-.36-.73-.03-.13.1-.08.24-.07.14,0,.28,0,.27-.07,0-.07-.18-.15-.29-.18-.1-.03-.14-.03-.27-.13s-.59-.39-.66-.63-.18-.76-.08-.97.35-.34.56-.2.38.42.49.63c.11.21.32.49.32.49,0,0,.11.03.15.07s-.03.17.07.31c.1.15.08.29.15.29s.06-.14.06-.18-.04-.29-.04-.41-.06-.49.11-.71.18-.49.32-.45c.15.04-.04.32.22.56.27.25.34.36.35.6,0,.24-.08.76-.03.97.07.21.27.38.27.52s-.07.25-.14.25-.25-.03-.39-.25c-.17-.27-.69-1.08-.73-1.48,0-.07-.11.46-.03.59s.53.85.57.98.32.56.57.56.55-.14.67-.14.17-.06.18.07c0,.13-.06.25.04.22.08-.03.28-.67.32-.97.06-.29.14-.76.18-.81.06-.07.38-.04.49,0s.34.18.34.36-.14.63-.15.83c0,.2,0,.67-.07.81-.08.14-.13.38-.18.67-.07.31-.21.73-.43.73s-.7-.17-.77-.29.07-.29.1-.36c.04-.07,0-.18-.07-.14M96.78,120.89c.07.04.18,0,.24-.1.07-.08-.13-.27-.03-.46.1-.2.24-.41.24-.41.07,0,.35.35.36.74,0,.39-.06.76-.57.9-.53.14-.41.06-.59,0-.2-.06-.25-.13-.36-.31-.11-.18-.07-.27-.11-.32-.06-.07-.14-.13-.11-.32.11-.91.29-1.26.29-1.26,0,0-.36.04-.43.08s-.04.8-.08.95c-.06.15-.24.22-.39.18-.15-.04-.62-.22-.76-.39-.14-.17-.2-.27-.18-.35,0-.08.22-.85.28-.92s.07.07.14.1c.07.04.39.24.57.32.18.08.42.17.42.17,0,0-.03.04,0,.13.03.07.2.13.28.07.07-.06.25-.56.32-.64.07-.07.2-.11.21-.21.01-.11.03-.34.08-.35.07,0,.5-.04.66.03.15.06.29.06.22.22s-.24.45-.29.56c-.06.11-.13.45-.24.64s-.28.35-.28.57.06.31.13.35M98.49,117.01s.03.18-.03.29c-.06.11-.2.27-.27.32-.08.06-.1.17-.22.22s-.17.17-.36.15c-.24-.03-.67-.15-.94-.28s-.39-.38-.6-.55c-.21-.15-.71-.45-.85-.56-.14-.13-.32-.35-.48-.49-.14-.15-.5-.25-.63-.35-.14-.1-.15-.31-.21-.43-.06-.14-.03-.29,0-.39,0-.1.21-.11.48-.17s.69.18.88.32c.2.14.25.56.25.66s.11.28.13.34.01.11.03.18c0,.07.13.31.13.31,0,0,.17-.55.21-.62.03-.08.01-.11.07-.13.04,0,.41.27.5.35s.31.15.38.22.55.46.6.49.06-.07.08-.07.15.07.21.07.11-.21.08-.27-.14-.2-.25-.21c-.1-.03-.31.03-.46,0s-.25-.21-.36-.29-.1-.15-.1-.15c0,0,.21-.08.38-.1.15,0,.35-.06.55-.06s.45.17.57.24c.13.07.24.24.24.34s.1.31.07.41-.1.15-.06.21M111.02,107.1s.08-.06.14-.08c.11-.04.24-.08.35-.11.04,0,.08-.01.13,0,.04,0,.08.03.13.06.25.15.45.39.63.62.03.04.07.08.08.14.04.14,0,.27.04.42.01.08.1.43.15.49.18.2.21.32.32.48-.17,0-.34.03-.49.1-.08-.66-.15-1.57-.84-1.51-.18.01-.35.04-.59-.25-.03-.13-.15-.21-.07-.31M108.74,107.27c.1.9.74.83.91,1.39.1.31,0,.71.28.87.17.1.46-.04.63-.14s.29-.22.43-.14c.25.21.52.45.52.77,0,.35-.2.46-.31.8-.1.31-.14.67.08.9.13.11.46.31.35.55-.13.27-.2.42-.31.59-.03.04-.04.07-.06.11-.5.59-3.26-.41-5.03-.28-.91.07-2,0-2.34.06-1.04.11-2.03-.03-2.46-.06-.43-.01-1.02.06-1.55.06s-1.06-.21-1.34.31c-.07.14-.08.36-.08.53v2.39h-.06c-.06,0-.29-.22-.38-.25s-.28-.03-.39-.03-.32.03-.46.03-.41.1-.52.14-.14,0-.21-.07c-.07-.08-.38-.29-.56-.45-.17-.14-.43-.45-.43-.45,0,0-.03-.36-.1-.6-.06-.24-.27-.63-.35-.78-.04-.07-.11-.17-.17-.25,0-.18-.04-.63-.13-.81-.1-.2-.59-.84-.78-1.16-.18-.32-.2-.56-.24-.78v-.03c0-.08,0-.17.01-.22.06-.22.39-1.13.66-1.64.27-.49.25-.81.39-.97s.17-.18.25-.39.31-.83.45-.88.25.08.45.08.45-.2.62-.07c.15.11.06.5.13.6.07.08.56.17.74.31.2.14.46.1.66.01.18-.08.43-.38.64-.36.21.01.29.1.39-.04.1-.14.11-.27.27-.57.14-.31.35-.66.49-.91s.29-.49.28-.67c-.01-.18.07-.29.14-.56s.17-.38.36-.76c.2-.38.42-.84.59-1.08.15-.24.04-.22.13-.34s.13-.08.21-.25c.07-.17.06-.32.13-.45s.17-.31.04-.41c-.11-.1-.48-.42-.62-.43-.13-.01-.22.07-.25,0-.01-.04-.07-.2-.22-.31h.56c.6.03,1.15.07,1.75.04.64-.03,1.25-.08,1.89-.06s1.55.11,2.2.1c.77,0,1.48-.17,2.24-.22.57-.06,1.02-.07,1.6-.07,1.15,0,2.23-.25,3.23-.53h.01c-.52.63-.99,1.32-1.41,2.03-.25.43-.49.9-.45,1.4.03.42.25.94.46,1.3.39.67.66,1.36.87,2.1.21.7.35,1.3.43,2-.24-.55-.34-.85-.57-1.64-.03-.11-.35-1.01-.42-1.11-.06-.08-.27-.31-.35-.36-.27-.21-.39-.21-.71-.31-.36-.11-.71-.13-1.11-.04-.52.1-1.13.39-1.39.74-.13.17-.17.38-.27.56-.22.41-.57.71-.52,1.18M114.38,102.3c.28.07.55.06.69.32.04.07.06.14.07.21.11.66.11,1.37.08,2.03-.07,1.44-.25,2.66-.35,4.24-.18-.03-.36-.04-.53-.06,0-.29-.03-.66-.08-.92-.27-1.58.03-3-.49-4.49-.17-.49-.53-.95-.62-1.51-.04-.28-.11-.56-.04-.84.08-.35.36-.62.63-.87.36-.35.69-.74.98-1.15.25-.36.56-.78,1.01-.78.29,0,.55.18.76.39.73.69,1.23,1.61,1.43,2.6,0,.06.01.11,0,.17-.03.08-.11.13-.18.17-.41.2-1.19.43-1.23.53,0,.14-.15.39-.27.56-.24.36-.24.59-.48.95-.18-.28-.03-.52-.28-.81-.21-.25-.17-.8-.48-.9-.5-.18-.92-.03-1.33-.31.15.18.48.41.71.46M112.06,81.42c.8.03,1.02.28,1.82.24,1.01-.06,2.38,0,3.36-.1.49-.06,1.09-.06,1.58,0s.98.24,1.2.67c.14.27.14.59.17.88.06.56-.1,1.27,0,1.9.2,1.18.06,2.91,0,4.35-.01.39-.03.8.01,1.19.03.29.11.59.14.88.04.34.07.81-.03,1.13-.11.36-.07,2.25-.06,3.64-.11.13-.24.24-.38.31-.36.21-.87.46-1.25.64-.57.25-1.54.6-2.07.78-1.79.63-4.06,1.09-5.38,1.15-.97.03-1.68.1-2.72.11-.9,0-1.01.17-1.9.22-.73.04-2.18.04-2.98.04s-1.83-.07-2.66-.08c-.73,0-1.34-.06-2.06-.07.01-.15.11-.36.13-.49.03-2,.29-3.92.5-6.01.22-2.18.6-4.89,1.32-6.89.6-1.68,1.08-3.08,1.97-4.61,3.05,0,6.17-.01,9.24.1M120.99,96.1c.03-.28-.03-.87,0-1.58.04-.7.18-2.56.13-3.53-.06-.97-.36-1.68-.32-2.32.04-.64.04-2.51.08-3.32s-.2-2.44-.22-2.88c-.01-.45.17-.99-.31-1.26-.49-.27-1.22-.22-2.1-.28-.88-.06-2.28-.13-2.91-.08s-2,.07-2.66-.04c-.67-.11-2.84-.17-3.61-.1-.77.06-1.25-.08-2.38-.08s-1.96.06-2.95-.03-2.06.04-3.05-.01c-.99-.06-2.52-.27-3.37-.32s-2.31.08-2.73.08h-1.74c-.45,0-.74.1-1.01.13-.27.01-.7-.13-1.27-.1-.56.01-.74.17-1.41.13-.67-.04-2.02-.18-2.83-.18s-2.3-.01-4.07.14-4.14.08-4.62.04c-.49-.04-1.36.17-1.86.17s-1.9-.13-2.74-.17c-.85-.04-2.02.17-2.52.17s-1.41.04-1.96.07c-.55.03-1.08.03-1.61.04-.55.01-1.37.13-1.74.13s-1.02.28-1.19.34c-.17.06-1.4,1.37-1.53,1.74-.13.36-.2.84-.2,1.34s-.1.87-.13,1.16c-.03.31-.06,1.06-.06,1.61s.01,1.47.04,2.07-.08.87,0,1.33c.08.46,0,.91.04,1.79s-.1,1.68-.13,3.39c-.03,1.72.11,2.84.08,3.46-.04.6.08,1.32.08,2.38s.14,1.89.24,2.88.24,2.41.32,2.88c.08.49.38,1.36.45,1.6.06.24.07.59.18.78.13.2.28,1.13.67,2.23.38,1.09.56,1.83.92,2.87.36,1.02,1.15,3.53,1.61,4.3.46.77,1.4,2.74,1.92,3.53s.88,2.23,1.15,2.55.63.99.85,1.36.1.36.64,1.09.97,1.29,1.46,2.11,1.43,2.37,1.82,2.84c.38.49.97.95,1.86,1.9.88.95,1.74,1.72,2.23,2.27.49.55,1.46,1.36,2.3,2.02.85.67,1.09,1.18,1.29,1.41s.63.45.95.63c.32.18.67.55.81.81s2.11,1.27,2.69,1.78c.56.5.88,1.11,1.41,1.33.52.22,1.34.7,1.99,1.12.64.42,1.41.7,1.72.7.59,0,1.47-.2,1.83-.39s.24-.2.77-.48.92-.63,1.47-1.01.9-.6,1.58-1.16c0,0,1.02-.77,1.71-1.32.69-.56,1.69-1.25,2.42-1.9.73-.64.81-.76,1.12-1.18s1.6-1.5,2.18-2,.7-.97,1.29-1.47,1.46-1.61,1.78-2.04c.32-.42,1.02-1.32,1.69-2.24.67-.92,1.82-2.65,2.44-3.46.63-.81,1.22-1.86,1.51-2.41.31-.55.81-1.41.99-1.6s.28-.7.56-1.23,1.74-4.27,1.93-4.65.08-.6.14-.95c.06-.35.41-.5.5-.73.1-.22-.01-.2.06-.49.08-.28.24-.6.42-.95s.13-.91.36-1.25c.24-.35.32-1.36.46-1.74s.22-.28.38-.69c.17-.41.08-1.09.24-1.51.17-.42.59-1.23.73-1.97.14-.74.38-2.79.5-3.89s.01-1.89.1-2.66c.08-.77.04-2.87.04-3.42s.03-.67.07-.97c.03-.25-.04-.42-.01-.67"/>
  <path class="st1" d="M139.56,89.49l-.63-1.58,1.58-.63.63,1.58-1.58.63ZM142.25,89.09c-.1-.27-.31-.45-.55-.55l.43-.99-.99-.43c.11-.24.13-.52.03-.77-.03-.08-.08-.17-.14-.24-.08,0-.18.03-.27.07-.27.1-.45.31-.55.55l-.99-.43-.43.99c-.24-.1-.52-.13-.77-.03-.08.04-.17.08-.24.14,0,.08.03.18.07.27.1.27.31.45.55.55l-.43.99.99.43c-.1.24-.13.5-.01.77.03.08.08.17.14.24.08,0,.18-.03.27-.07.25-.1.45-.31.55-.55l.99.43.43-.99c.24.11.52.13.77.03.08-.03.17-.08.24-.14,0-.08-.03-.18-.07-.27"/>
  <path class="st1" d="M42.79,88.86l.63-1.58,1.58.63-.63,1.58-1.58-.63ZM41.63,89.36c.07.06.15.1.24.14.27.1.53.08.77-.03l.43.99.99-.43c.1.24.29.43.55.55.08.03.18.06.27.07.06-.07.1-.15.14-.24.1-.27.08-.53-.01-.77l.99-.43-.43-.99c.24-.1.43-.29.55-.55.03-.08.06-.18.07-.27-.07-.06-.15-.1-.24-.14-.27-.1-.53-.08-.77.01l-.43-.99-.99.43c-.1-.24-.29-.45-.55-.55-.08-.04-.18-.06-.27-.07-.06.07-.1.15-.14.24-.1.27-.08.53.03.77l-.99.43.43.99c-.24.1-.43.29-.55.55-.03.08-.06.18-.07.27"/>
  <path class="st1" d="M48.95,81.21l-3.95-2.8-.91.71-.48-.34,2.24-3.15.53.38-.64,1.02,4.06,2.88c1.33.95,2.34.81,3.12-.29.84-1.18.6-2.24-.83-3.26l-3.77-2.66-.98.81-.48-.34,1.9-2.67.53.38-.64,1.02,3.89,2.76c1.72,1.22,1.95,2.95.73,4.68-1.16,1.64-2.74,2.02-4.35.88"/>
  <path class="st1" d="M61.6,69.2l-4.21-4.72-1.13.57-.39-.43,2.39-2.13.43.49-.85.84,5.25,5.92-1.5-.55h.01ZM53.47,68.06l.1.11,4.4,4.9,1.13-.57.39.43-2.41,2.14-.43-.49.85-.85-4.65-5.25-1.04.49-.39-.43,2.28-2.03,9.37,3.23-1.29,1.13-8.33-2.81h.01Z"/>
  <polygon class="st1" points="63.05 60.55 61.93 60.83 61.64 60.34 64.96 58.35 65.28 58.91 64.28 59.58 67.88 65.6 69 65.31 69.3 65.81 65.98 67.8 65.64 67.24 66.65 66.57 63.05 60.55"/>
  <polygon class="st1" points="69.02 57.24 67.74 57.38 67.53 56.83 71.14 55.45 71.38 56.06 70.4 56.5 74.92 62.09 74.57 55.11 73.31 55.25 73.1 54.71 76.24 53.5 76.47 54.1 75.37 54.59 75.75 62.94 74.22 63.51 69.02 57.24"/>
  <polygon class="st1" points="80.19 53.57 79.04 53.45 78.94 52.87 85.76 51.7 86.11 53.77 85.33 53.91 84.54 52.63 81.69 53.08 82.23 56.3 84.28 55.91 84.18 54.93 84.75 54.83 85.2 57.39 84.68 57.48 84.21 56.64 82.36 56.96 82.92 60.27 85.73 59.75 86.07 58.24 86.92 58.1 87.29 60.21 80.32 61.4 80.2 60.76 81.38 60.49 80.19 53.57"/>
  <path class="st1" d="M95.58,53.96c.04-1.16-.56-1.75-1.89-1.79l-.94-.03-.13,3.63.8.03c1.37.06,2.1-.56,2.14-1.83M89.74,59.34l1.2-.03.25-7-1.09-.36.03-.59,3.7.14c2.31.08,3.47.94,3.42,2.51-.04,1.22-.73,1.93-1.97,2.24l1.65,3.09,1.22.36-.03.59-2.46-.08-1.92-3.71h-.28l-.84-.04-.1,2.73.97.36-.03.59-3.74-.14.03-.64h0Z"/>
  <path class="st1" d="M100.28,60.5l.46-1.96.95.22.27,1.85c.17.06.34.1.52.14,1.32.31,2.2-.06,2.42-.99.13-.55-.14-1.12-.84-1.64l-1.25-.94c-.98-.73-1.32-1.51-1.08-2.52.35-1.48,1.9-2.17,3.89-1.69.84.2,1.41.43,2,.8l-.46,1.9-.95-.22-.24-1.71-.34-.08c-1.29-.31-2.2.04-2.39.88-.14.56.1,1.05.67,1.51l1.33,1.01c1.12.87,1.48,1.65,1.25,2.63-.38,1.57-1.88,2.25-3.88,1.76-.98-.24-1.62-.49-2.35-.97"/>
  <polygon class="st1" points="112.39 56.27 111.5 55.56 111.72 55.01 115.28 56.5 115.04 57.09 113.91 56.69 111.22 63.18 112.11 63.89 111.89 64.44 108.32 62.95 108.56 62.35 109.71 62.76 112.39 56.27"/>
  <polygon class="st1" points="119.11 67.87 118.81 68.37 115.31 66.17 115.64 65.63 116.82 66.29 120.65 60.14 119.38 59.38 118.01 60.39 117.29 59.94 118.51 58 124.84 61.96 123.62 63.91 122.91 63.46 123.23 61.79 121.98 60.97 118.23 66.94 119.11 67.87"/>
  <path class="st1" d="M127.54,71.38l1.95-4.16-4.05,2.18,2.1,1.97ZM127.24,72.07l-2.45-2.31-1.54.84.67,1.08-.41.42-2.45-2.31.45-.48.92.78,7.36-3.95,1.22,1.15-3.37,7.43.67,1.08-.41.42-2.79-2.63.45-.48.81.69.83-1.76.03.03Z"/>
  <path class="st1" d="M129.43,77.94l1.65-1.15.56.8-1.04,1.55c.1.15.2.29.29.45.77,1.11,1.68,1.43,2.48.87.46-.32.63-.94.46-1.78l-.31-1.53c-.24-1.19.03-2.02.87-2.6,1.26-.88,2.87-.35,4.03,1.32.49.7.77,1.26.97,1.93l-1.61,1.12-.56-.8.97-1.43-.2-.29c-.76-1.09-1.68-1.43-2.38-.94-.46.32-.63.85-.49,1.58l.32,1.64c.25,1.39.01,2.23-.81,2.8-1.32.92-2.9.43-4.07-1.26-.57-.83-.88-1.46-1.12-2.3"/>
  <path class="st1" d="M40.3,102.77c2.21.29,3.68-.43,3.88-1.89.21-1.51-1.15-2.69-3.51-3.01-2.2-.29-3.67.42-3.86,1.88-.21,1.53,1.15,2.7,3.51,3.01M36.29,98.67c.64-1.79,2.41-2.8,4.56-2.51,2.72.36,4.38,2.38,4.05,4.87-.32,2.38-2.28,3.79-4.8,3.46-2.28-.31-3.71-1.78-3.88-3.78-.52.43-.76.95-.88,1.83-.07.48-.04.81.06,1.18l-.62.03c-.21-.71-.25-1.36-.13-2.24.2-1.43.67-2.3,1.64-2.84"/>
  <path class="st1" d="M38.48,108.7l4.83-.42.22-1.13.59-.06.34,3.85-.64.06-.17-1.19-4.97.43c-1.62.14-2.31.9-2.2,2.24.13,1.44.99,2.1,2.73,1.96l4.59-.39.21-1.26.59-.06.28,3.28-.64.06-.17-1.19-4.76.41c-2.11.18-3.4-.99-3.58-3.09-.17-2,.8-3.32,2.74-3.49"/>
  <polygon class="st1" points="44.91 119.38 44.93 118.23 45.49 118.08 46.5 121.8 45.87 121.97 45.49 120.84 38.73 122.67 38.7 123.82 38.14 123.97 37.13 120.23 37.76 120.07 38.14 121.21 44.91 119.38"/>
  <path class="st1" d="M43.86,133.91l5.67-2.8-.25-1.25.52-.25,1.41,2.88-.59.28-.59-1.05-7.11,3.49.92-1.29h.01ZM47.1,126.4l-.13.07-5.89,2.93.25,1.25-.52.25-1.41-2.9.59-.28.59,1.05,6.3-3.08-.2-1.13.52-.25,1.34,2.74-5.61,8.18-.76-1.54,4.94-7.28h-.01Z"/>
  <path class="st1" d="M53.22,141.85c1.74-1.4,2.2-2.97,1.29-4.12-.95-1.18-2.74-1.01-4.59.5-1.72,1.4-2.21,2.97-1.29,4.1.98,1.2,2.74,1.02,4.61-.49M47.48,141.95c-.85-1.69-.38-3.67,1.32-5.04,2.13-1.72,4.73-1.57,6.31.39,1.51,1.86,1.2,4.26-.78,5.87-1.79,1.44-3.84,1.48-5.4.24-.04.67.18,1.22.73,1.89.31.38.56.59.9.77l-.41.48c-.66-.34-1.16-.74-1.72-1.44-.91-1.12-1.2-2.06-.95-3.15"/>
  <path class="st1" d="M56.32,147.26l3-3.81-.67-.94.36-.46,3.04,2.39-.41.52-.99-.7-3.08,3.92c-1.01,1.29-.92,2.3.14,3.12,1.13.9,2.21.71,3.29-.66l2.86-3.63-.77-1.02.36-.46,2.58,2.03-.41.52-.99-.7-2.95,3.75c-1.3,1.67-3.05,1.79-4.7.49-1.58-1.25-1.88-2.84-.66-4.38"/>
  <polygon class="st1" points="68.41 149.89 67.56 149.12 67.81 148.59 74.01 151.64 73.09 153.53 72.36 153.18 72.49 151.7 69.91 150.38 68.47 153.29 70.35 154.19 70.84 153.33 71.37 153.6 70.22 155.92 69.74 155.7 69.86 154.73 68.18 153.91 66.69 156.92 69.27 158.14 70.43 157.12 71.21 157.49 70.26 159.43 63.91 156.3 64.2 155.71 65.31 156.19 68.41 149.89"/>
  <polygon class="st1" points="77.11 153.67 76.13 153.07 76.28 152.51 82.95 154.29 82.42 156.32 81.63 156.11 81.46 154.62 78.68 153.84 77.84 156.99 79.85 157.49 80.18 156.57 80.74 156.71 80.06 159.23 79.56 159.09 79.49 158.12 77.67 157.65 76.8 160.88 79.57 161.58 80.51 160.35 81.35 160.57 80.79 162.65 73.96 160.83 74.13 160.2 75.3 160.45 77.11 153.67"/>
  <path d="M85.02,159.17c.18-2.8,2.11-4.54,4.84-4.35,1.08.07,1.83.27,2.32.59l-.14,2.14-.94-.06-.66-1.97h-.17c-2.02-.14-3.4,1.32-3.56,3.74-.13,2.04,1.04,3.5,2.93,3.63.81.06,1.44-.06,2.1-.34l.08.73c-.98.39-1.92.53-3.08.45-2.44-.15-3.93-1.97-3.77-4.55"/>
  <path d="M95.14,159.52c-.36-2.79,1.2-4.86,3.92-5.21,1.06-.14,1.85-.1,2.41.14l.28,2.13-.92.11-1.02-1.81-.17.03c-2,.25-3.08,1.96-2.77,4.37.27,2.03,1.68,3.23,3.57,3,.81-.1,1.41-.32,2-.73l.22.69c-.88.57-1.78.88-2.93,1.04-2.42.31-4.24-1.18-4.56-3.74"/>
  <polygon class="st1" points="105.31 154.1 104.16 154.13 103.98 153.59 107.65 152.38 107.84 153 106.72 153.43 108.99 160.32 111.15 159.57 111.26 157.98 112.13 157.7 112.8 159.78 106.57 161.82 106.37 161.2 107.49 160.77 105.31 154.1"/>
  <polygon class="st1" points="113.35 151.04 112.23 151.29 111.93 150.77 117.98 147.43 119 149.27 118.3 149.67 117.15 148.71 114.59 150.07 116.17 152.93 117.97 151.89 117.56 151.01 118.06 150.73 119.32 153 118.88 153.25 118.15 152.61 116.5 153.52 118.12 156.46 120.6 155.03 120.42 153.5 121.19 153.08 122.22 154.96 116.03 158.38 115.71 157.82 116.73 157.17 113.35 151.04"/>
  <path class="st1" d="M125.4,152.44l-1.29-1.55.76-.62,1.64.9c.15-.11.28-.21.42-.32,1.04-.85,1.27-1.79.67-2.53-.35-.43-.98-.56-1.82-.32l-1.5.43c-1.16.34-2,.14-2.66-.64-.98-1.18-.59-2.83.98-4.13.66-.55,1.2-.87,1.83-1.12l1.25,1.51-.76.62-1.51-.84-.27.22c-1.02.84-1.29,1.79-.74,2.45.36.43.9.56,1.62.36l1.61-.45c1.36-.36,2.21-.2,2.86.59,1.02,1.25.67,2.86-.92,4.16-.78.64-1.37,1.01-2.2,1.3"/>
  <polygon class="st1" points="127.73 140.2 126.76 140.82 126.31 140.43 128.87 137.54 129.36 137.97 128.62 138.91 133.86 143.58 134.84 142.96 135.27 143.35 132.7 146.25 132.22 145.82 132.96 144.86 127.73 140.2"/>
  <polygon class="st1" points="131.74 135.3 130.88 136.07 130.39 135.75 134.08 129.91 135.86 131.04 135.43 131.72 133.96 131.44 132.37 133.86 135.13 135.61 136.21 133.83 135.43 133.26 135.73 132.77 137.93 134.15 137.65 134.59 136.71 134.38 135.71 135.97 138.53 137.76 140.03 135.33 139.14 134.07 139.6 133.33 141.42 134.47 137.62 140.45 137.08 140.12 137.67 139.05 131.74 135.3"/>
  <path class="st1" d="M144.47,123.58l-5.95-2.14-.73,1.05-.55-.2,1.09-3.01.6.22-.35,1.15,7.45,2.7-1.58.22h.01ZM136.8,126.45l.14.04,6.2,2.21.73-1.05.55.2-1.11,3.02-.6-.22.35-1.16-6.59-2.39-.69.92-.55-.2,1.04-2.87,9.79-1.62-.59,1.61-8.67,1.48v.03Z"/>
  <path class="st1" d="M146.95,118.62l-1.99-.29.14-.97,1.82-.42c.04-.18.07-.35.1-.52.2-1.33-.25-2.18-1.19-2.34-.56-.08-1.11.24-1.57.97l-.83,1.32c-.64,1.04-1.4,1.44-2.41,1.29-1.51-.22-2.32-1.72-2.03-3.74.13-.84.31-1.44.63-2.06l1.93.29-.14.97-1.68.38-.06.35c-.2,1.32.24,2.18,1.08,2.31.56.08,1.04-.18,1.44-.81l.9-1.41c.77-1.19,1.51-1.62,2.52-1.47,1.6.24,2.39,1.68,2.1,3.71-.15,1.01-.35,1.67-.76,2.44"/>
  <polygon class="st1" points="140.52 108 140.21 109.1 139.64 109.12 139.57 105.25 140.21 105.24 140.31 106.44 147.31 106.32 147.62 105.21 148.21 105.21 148.27 109.08 147.62 109.09 147.54 107.89 140.52 108"/>
  <path class="st1" d="M147.79,101.63l-1.99.31-.15-.97,1.61-.94c-.01-.18-.04-.35-.07-.53-.21-1.33-.88-2.02-1.83-1.88-.55.08-.98.56-1.2,1.4l-.41,1.51c-.31,1.18-.91,1.79-1.92,1.95-1.51.24-2.73-.94-3.04-2.95-.13-.84-.14-1.47-.01-2.16l1.93-.29.15.97-1.5.87.06.35c.2,1.3.88,2.02,1.72,1.89.56-.08.94-.49,1.15-1.2l.43-1.61c.38-1.36.97-2,1.96-2.16,1.6-.25,2.79.88,3.11,2.93.15.99.15,1.69,0,2.55"/>
  <polygon class="st1" points="82.93 74.21 83.76 74.17 83.76 70.99 82.93 70.99 82.93 70.5 84.88 69.97 84.89 69.98 84.89 74.07 85.61 74.24 85.61 74.65 82.93 74.65 82.93 74.21"/>
  <path class="st1" d="M87.15,70.05h3.05l.06.43-1.39,1.62h0c.92,0,1.57.52,1.57,1.23,0,.85-.87,1.4-2.2,1.4-.53,0-.9-.04-1.15-.13v-1.25h.63l.39.92c.69-.06,1.09-.39,1.09-.9s-.34-.84-.84-.84h-.17l-.06-.45.94-1.18-1.08.03-.29.69h-.59v-1.6h.03Z"/>
  <path class="st1" d="M94.04,74.22c.45,0,.71-.38.71-.98,0-.56-.32-.91-.83-.91-.2,0-.34.04-.53.11v.41c0,.94.22,1.39.64,1.39M92.19,72.6c0-1.64.88-2.63,2.35-2.63.43,0,.7.04.99.14v.5c-.27-.07-.46-.1-.67-.1-.83,0-1.33.52-1.44,1.47.43-.27.74-.35,1.09-.35.88,0,1.44.55,1.44,1.44,0,.99-.8,1.68-1.93,1.68s-1.83-.77-1.83-2.14"/>
  <polygon class="st1" points="97.79 74.63 100.06 71.05 98.34 71.07 98.06 71.76 97.41 71.76 97.41 70.05 100.63 70.05 100.7 70.49 99.39 74.65 97.8 74.65 97.79 74.63"/>
  <line class="st0" x1="177.67" y1="63.22" x2="177.67" y2="151.93"/>
</svg>