<svg height="322.304314" viewBox="0 0 150 155.81" width="310.265782" xmlns="http://www.w3.org/2000/svg" xmlns:xlink="http://www.w3.org/1999/xlink"><clipPath id="a"><path d="m0 595.276h841.89v-595.276h-841.89z" transform="translate(-356.87 -392.03)"/></clipPath><clipPath id="b"><path d="m0 595.276h841.89v-595.276h-841.89z" transform="translate(-354.94 -391.12)"/></clipPath><clipPath id="c"><path d="m0 595.276h841.89v-595.276h-841.89z" transform="translate(-381.45 -396.17)"/></clipPath><clipPath id="d"><path d="m0 595.276h841.89v-595.276h-841.89z" transform="translate(-344.66 -384.2)"/></clipPath><clipPath id="e"><path d="m0 595.276h841.89v-595.276h-841.89z" transform="translate(-356.87 -392.03)"/></clipPath><clipPath id="f"><path d="m0 595.276h841.89v-595.276h-841.89z" transform="translate(-354.94 -391.12)"/></clipPath><clipPath id="g"><path d="m0 595.276h841.89v-595.276h-841.89z" transform="translate(-365.61 -366.34)"/></clipPath><clipPath id="h"><path d="m0 595.276h841.89v-595.276h-841.89z"/></clipPath><clipPath id="i"><path d="m0 595.276h841.89v-595.276h-841.89z" transform="translate(-362.62 -384.6)"/></clipPath><clipPath id="j"><path d="m0 595.276h841.89v-595.276h-841.89z" transform="translate(-352.38 -347.9)"/></clipPath><clipPath id="k"><path d="m0 595.276h841.89v-595.276h-841.89z"/></clipPath><clipPath id="l"><path d="m0 595.276h841.89v-595.276h-841.89z" transform="translate(-330.66 -352.59)"/></clipPath><clipPath id="m"><path d="m0 595.276h841.89v-595.276h-841.89z"/></clipPath><clipPath id="n"><path d="m0 595.276h841.89v-595.276h-841.89z" transform="translate(-375.9 -378.54)"/></clipPath><clipPath id="o"><path d="m0 595.276h841.89v-595.276h-841.89z" transform="translate(-401.94 -352.59)"/></clipPath><clipPath id="p"><path d="m0 595.276h841.89v-595.276h-841.89z" transform="translate(-373.86 -326.37)"/></clipPath><clipPath id="q"><path d="m0 595.276h841.89v-595.276h-841.89z"/></clipPath><clipPath id="r"><path d="m0 595.276h841.89v-595.276h-841.89z" transform="translate(-362.62 -316.35)"/></clipPath><clipPath id="s"><path d="m0 595.276h841.89v-595.276h-841.89z" transform="translate(-340.18 -338.97)"/></clipPath><clipPath id="t"><path d="m0 595.276h841.89v-595.276h-841.89z"/></clipPath><clipPath id="u"><path d="m0 595.276h841.89v-595.276h-841.89z" transform="translate(-375.9 -322.41)"/></clipPath><clipPath id="v"><path d="m0 595.276h841.89v-595.276h-841.89z" transform="translate(-389.44 -358.96)"/></clipPath><clipPath id="w"><path d="m0 595.276h841.89v-595.276h-841.89z" transform="translate(-392.52 -338.97)"/></clipPath><clipPath id="x"><path d="m0 595.276h841.89v-595.276h-841.89z" transform="translate(-345.17 -388.55)"/></clipPath><clipPath id="y"><path d="m0 595.276h841.89v-595.276h-841.89z" transform="translate(-387.32 -388.55)"/></clipPath><clipPath id="z"><path d="m0 595.276h841.89v-595.276h-841.89z" transform="translate(-369.94 -302.89)"/></clipPath><clipPath id="A"><path d="m0 595.276h841.89v-595.276h-841.89z" transform="translate(-387.32 -312.33)"/></clipPath><clipPath id="B"><path d="m0 595.276h841.89v-595.276h-841.89z" transform="translate(-335.8 -321.7)"/></clipPath><clipPath id="C"><path d="m0 595.276h841.89v-595.276h-841.89z" transform="translate(-326.35 -354.41)"/></clipPath><clipPath id="D"><path d="m0 595.276h841.89v-595.276h-841.89z" transform="translate(-412.02 -337.03)"/></clipPath><clipPath id="E"><path d="m0 595.276h841.89v-595.276h-841.89z" transform="translate(-412.02 -363.86)"/></clipPath><clipPath id="F"><path d="m0 595.276h841.89v-595.276h-841.89z" transform="translate(-432.52 -297.87)"/></clipPath><clipPath id="G"><path d="m0 595.276h841.89v-595.276h-841.89z" transform="translate(-466.91 -258.92)"/></clipPath><clipPath id="H"><path d="m0 595.276h841.89v-595.276h-841.89z" transform="translate(-479.47 -258.82)"/></clipPath><clipPath id="I"><path d="m0 595.276h841.89v-595.276h-841.89z" transform="translate(-532.44 -404.58)"/></clipPath><clipPath id="J"><path d="m0 595.276h841.89v-595.276h-841.89z" transform="translate(-521.15 -404.33)"/></clipPath><clipPath id="K"><path d="m0 595.276h841.89v-595.276h-841.89z" transform="translate(-509.82 -408.34)"/></clipPath><clipPath id="L"><path d="m0 595.276h841.89v-595.276h-841.89z" transform="translate(-498.49 -412.34)"/></clipPath><clipPath id="M"><path d="m0 595.276h841.89v-595.276h-841.89z" transform="translate(-487.11 -416.35)"/></clipPath><clipPath id="N"><path d="m0 595.276h841.89v-595.276h-841.89z" transform="translate(-475.72 -420.35)"/></clipPath><clipPath id="O"><path d="m0 595.276h841.89v-595.276h-841.89z" transform="translate(-464.29 -424.38)"/></clipPath><clipPath id="P"><path d="m0 595.276h841.89v-595.276h-841.89z" transform="translate(-295.51 -164.45)"/></clipPath><clipPath id="Q"><path d="m0 595.276h841.89v-595.276h-841.89z" transform="translate(-315.39 -162.53)"/></clipPath><clipPath id="R"><path d="m0 595.276h841.89v-595.276h-841.89z" transform="translate(-322.58 -170.87)"/></clipPath><clipPath id="S"><path d="m0 595.276h841.89v-595.276h-841.89z" transform="translate(-351.24 -162.53)"/></clipPath><clipPath id="T"><path d="m0 595.276h841.89v-595.276h-841.89z" transform="translate(-371.24 -168.64)"/></clipPath><clipPath id="U"><path d="m0 595.276h841.89v-595.276h-841.89z" transform="translate(-403.19 -163.19)"/></clipPath><clipPath id="V"><path d="m0 595.276h841.89v-595.276h-841.89z" transform="translate(-425.11 -160.61)"/></clipPath><clipPath id="W"><path d="m0 595.276h841.89v-595.276h-841.89z"/></clipPath><clipPath id="X"><path d="m0 595.276h841.89v-595.276h-841.89z" transform="translate(-452.2 -158.93)"/></clipPath><clipPath id="Y"><path d="m0 595.276h841.89v-595.276h-841.89z" transform="translate(-465.69 -154.68)"/></clipPath><clipPath id="Z"><path d="m0 595.276h841.89v-595.276h-841.89z" transform="translate(-491.76 -168.64)"/></clipPath><clipPath id="aa"><path d="m0 595.276h841.89v-595.276h-841.89z" transform="translate(-507.51 -166.6)"/></clipPath><clipPath id="ab"><path d="m0 595.276h841.89v-595.276h-841.89z"/></clipPath><clipPath id="ac"><path d="m0 595.276h841.89v-595.276h-841.89z" transform="translate(-525.84 -170.87)"/></clipPath><clipPath id="ad"><path d="m0 595.276h841.89v-595.276h-841.89z" transform="translate(-557.51 -174.22)"/></clipPath><clipPath id="ae"><path d="m0 595.276h841.89v-595.276h-841.89z" transform="translate(-411.29 -220.15)"/></clipPath><clipPath id="af"><path d="m0 595.276h841.89v-595.276h-841.89z" transform="translate(-419.94 -220.15)"/></clipPath><clipPath id="ag"><path d="m0 595.276h841.89v-595.276h-841.89z" transform="translate(-440.7 -205.07)"/></clipPath><clipPath id="ah"><path d="m0 595.276h841.89v-595.276h-841.89z" transform="translate(-538.06 -188.92)"/></clipPath><clipPath id="ai"><path d="m0 595.276h841.89v-595.276h-841.89z" transform="translate(-561.4 -191.91)"/></clipPath><clipPath id="aj"><path d="m0 595.276h841.89v-595.276h-841.89z" transform="translate(-369.58 -220.15)"/></clipPath><clipPath id="ak"><path d="m0 595.276h841.89v-595.276h-841.89z" transform="translate(-360.59 -220.15)"/></clipPath><clipPath id="al"><path d="m0 595.276h841.89v-595.276h-841.89z" transform="translate(-313.98 -196.47)"/></clipPath><g fill="#8a1538" transform="matrix(.39986 0 0 .39986 -149.539 -80.9136)"><path d="m0 0h.001z" transform="matrix(1.3333 0 0 -1.3333 508.6 265.48)"/><path d="m0 0h.003z" transform="matrix(1.3333 0 0 -1.3333 459.55 281.43)"/><path clip-path="url(#a)" d="m0 0c-.009-.004-.019-.009-.024-.01.005.001.015.006.024.01" transform="matrix(1.3333 0 0 -1.3333 475.82 270.99)"/><path clip-path="url(#b)" d="m0 0c.003.001.007.003.013.006-.006-.003-.01-.005-.013-.006" transform="matrix(1.3333 0 0 -1.3333 473.26 272.21)"/><path clip-path="url(#c)" d="m0 0h.001z" transform="matrix(1.3333 0 0 -1.3333 508.6 265.48)"/><path clip-path="url(#d)" d="m0 0h.003z" transform="matrix(1.3333 0 0 -1.3333 459.55 281.43)"/><path clip-path="url(#e)" d="m0 0c-.009-.004-.019-.009-.024-.01.005.001.015.006.024.01" transform="matrix(1.3333 0 0 -1.3333 475.82 270.99)"/><path clip-path="url(#f)" d="m0 0c.003.001.007.003.013.006-.006-.003-.01-.005-.013-.006" transform="matrix(1.3333 0 0 -1.3333 473.26 272.21)"/><path clip-path="url(#g)" d="m0 0 .955.955c2.617 2.619 5.814 5.817 7.297 7.283 1.592-1.587 5.356-5.348 8.223-8.238z" transform="matrix(1.3333 0 0 -1.3333 487.48 305.25)"/><path clip-path="url(#h)" d="m340.54 384.19h17.743v-17.881h-17.743z" transform="matrix(1.3333 0 0 -1.3333 0 793.7)"/><path clip-path="url(#i)" d="m0 0 9.2 9.096v-15.16l-9.2-9.168z" transform="matrix(1.3333 0 0 -1.3333 483.5 280.9)"/><path clip-path="url(#j)" d="m0 0-2.585 2.573 2.583 2.571s4.866 4.876 5.903 5.913v-16.969c-.899.898-5.901 5.912-5.901 5.912" transform="matrix(1.3333 0 0 -1.3333 469.84 329.83)"/><path clip-path="url(#k)" d="m362.65 361.98h22.636v-23.009h-22.636z" transform="matrix(1.3333 0 0 -1.3333 0 793.7)"/><path clip-path="url(#l)" d="m0 0 9.515 9.392h15.029l-9.426-9.392z" transform="matrix(1.3333 0 0 -1.3333 440.88 323.59)"/><path clip-path="url(#m)" d="m389.44 384.19h17.743v-17.881h-17.743z" transform="matrix(1.3333 0 0 -1.3333 0 793.7)"/><path clip-path="url(#n)" d="m0 0v15.16l9.2-9.096v-15.231z" transform="matrix(1.3333 0 0 -1.3333 501.2 288.99)"/><path clip-path="url(#o)" d="m0 0-9.426 9.392h15.029l9.514-9.392z" transform="matrix(1.3333 0 0 -1.3333 535.92 323.59)"/><path clip-path="url(#p)" d="m0 0c-1.445 1.429-4.519 4.505-7.098 7.084l-1.154 1.154h16.475c-2.867-2.889-6.63-6.651-8.223-8.238" transform="matrix(1.3333 0 0 -1.3333 498.48 358.54)"/><path clip-path="url(#q)" d="m340.54 334.63h17.743v-17.882h-17.743z" transform="matrix(1.3333 0 0 -1.3333 0 793.7)"/><path clip-path="url(#r)" d="m0 0v15.231l9.2-9.166v-15.161z" transform="matrix(1.3333 0 0 -1.3333 483.5 371.91)"/><path clip-path="url(#s)" d="m0 0-9.515 9.392h15.118l9.426-9.392z" transform="matrix(1.3333 0 0 -1.3333 453.57 341.74)"/><path clip-path="url(#t)" d="m389.44 334.63h17.743v-17.882h-17.743z" transform="matrix(1.3333 0 0 -1.3333 0 793.7)"/><path clip-path="url(#u)" d="m0 0 9.2 9.167v-15.232l-9.2-9.096z" transform="matrix(1.3333 0 0 -1.3333 501.2 363.82)"/><path clip-path="url(#v)" d="m0 0c1.027-1.027 5.901-5.912 5.901-5.912l2.584-2.57-2.583-2.574s-4.952-4.963-5.902-5.912z" transform="matrix(1.3333 0 0 -1.3333 519.25 315.09)"/><path clip-path="url(#w)" d="m0 0 9.426 9.392h15.118l-9.515-9.392z" transform="matrix(1.3333 0 0 -1.3333 523.35 341.74)"/><path clip-path="url(#x)" d="m0 0c7.231 5.464 15.749 8.712 24.77 9.445l-9.444-9.445z" transform="matrix(1.3333 0 0 -1.3333 460.22 275.63)"/><path clip-path="url(#y)" d="m0 0-9.444 9.444c9.021-.733 17.538-3.981 24.77-9.444z" transform="matrix(1.3333 0 0 -1.3333 516.43 275.63)"/><path clip-path="url(#z)" d="m0 0c-9.021.733-17.539 3.981-24.77 9.444h15.326z" transform="matrix(1.3333 0 0 -1.3333 493.25 389.85)"/><path clip-path="url(#A)" d="m0 0h15.326c-7.232-5.463-15.749-8.711-24.77-9.444z" transform="matrix(1.3333 0 0 -1.3333 516.43 377.26)"/><path clip-path="url(#B)" d="m0 0c-5.464 7.231-8.712 15.749-9.445 24.77l9.445-9.444z" transform="matrix(1.3333 0 0 -1.3333 447.73 364.76)"/><path clip-path="url(#C)" d="m0 0c.733 9.021 3.981 17.539 9.445 24.77v-15.325z" transform="matrix(1.3333 0 0 -1.3333 435.13 321.15)"/><path clip-path="url(#D)" d="m0 0 9.445 9.445c-.733-9.022-3.981-17.539-9.445-24.771z" transform="matrix(1.3333 0 0 -1.3333 549.36 344.33)"/><path clip-path="url(#E)" d="m0 0v15.326c5.464-7.232 8.712-15.749 9.445-24.771z" transform="matrix(1.3333 0 0 -1.3333 549.36 308.56)"/><path clip-path="url(#F)" d="m0 0 24.393 13.824v131.82l-73.049-30.048v-3.357h48.656z" transform="matrix(1.3333 0 0 -1.3333 576.69 396.54)"/><path clip-path="url(#G)" d="m0 0-34.409 32.112h-117.07v117.02l-8.342-31.059v-93.709l-26.102-24.36z" transform="matrix(1.3333 0 0 -1.3333 622.54 448.48)"/><path clip-path="url(#H)" d="m0 0-35.697 33.347 17.157 9.826 89.471-31.185 10.502-11.988z" transform="matrix(1.3333 0 0 -1.3333 639.29 448.61)"/><path clip-path="url(#I)" d="m0 0v-4.213l5.459-1.914v-114.74l3.98-1.386v118.93z" transform="matrix(1.3333 0 0 -1.3333 709.92 254.26)"/><path clip-path="url(#J)" d="m0 0 5.315-1.866v-114.78l4.134-1.44v118.98l-9.449 3.309z" transform="matrix(1.3333 0 0 -1.3333 694.86 254.59)"/><path clip-path="url(#K)" d="m0 0 5.574-1.958v-114.83l3.884-1.354v119.03l-9.458 3.318z" transform="matrix(1.3333 0 0 -1.3333 679.75 249.25)"/><path clip-path="url(#L)" d="m0 0 5.427-1.918v-114.87l4.053-1.412v119.08l-9.48 3.318z" transform="matrix(1.3333 0 0 -1.3333 664.65 243.92)"/><path clip-path="url(#M)" d="m0 0 5.708-1.996v-114.93l3.789-1.32v119.11l-9.497 3.345z" transform="matrix(1.3333 0 0 -1.3333 649.48 238.57)"/><path clip-path="url(#N)" d="m0 0 5.396-1.886v-114.96l4.095-1.428v119.15l-9.491 3.332z" transform="matrix(1.3333 0 0 -1.3333 634.3 233.24)"/><path clip-path="url(#O)" d="m0 0 5.409-1.901v-115l4.089-1.426v119.19l-9.498 3.351z" transform="matrix(1.3333 0 0 -1.3333 619.05 227.86)"/><path clip-path="url(#P)" d="m0 0c0-3.258-1.466-6.739-5.581-6.739-4.153 0-5.627 3.631-5.627 6.739 0 2.167.698 4.104 1.916 5.312.958.949 2.186 1.43 3.661 1.43h.054c1.47.03 2.701-.464 3.66-1.416 1.218-1.208 1.917-3.149 1.917-5.326m3.82 0c0 6.042-3.778 10.102-9.401 10.102-5.646 0-9.44-4.06-9.44-10.102 0-6.117 3.706-10.07 9.44-10.07.523 0 .932.023 1.316.078l3.406-3.186h4.801l-4.731 4.272c2.94 1.62 4.609 4.821 4.609 8.906" transform="matrix(1.3333 0 0 -1.3333 394.01 574.44)"/><path clip-path="url(#Q)" d="m0 0h-5.895l2.943 7.341zm-4.586 11.692-8.338-19.546h3.89l1.872 4.684h8.408l1.911-4.684h3.987l-8.265 19.546z" transform="matrix(1.3333 0 0 -1.3333 420.52 576.99)"/><path clip-path="url(#R)" d="m0 0h5.77v-16.195h3.647v16.195h5.764v3.352h-15.181z" transform="matrix(1.3333 0 0 -1.3333 430.11 565.87)"/><path clip-path="url(#S)" d="m0 0h-5.896l2.946 7.341zm-4.574 11.692-8.322-19.546h3.881l1.875 4.684h8.4l1.893-4.684h3.983l-8.261 19.546z" transform="matrix(1.3333 0 0 -1.3333 468.33 576.99)"/><path clip-path="url(#T)" d="m0 0c0-1.496-1.309-2.389-3.502-2.389h-1.77v4.623h2.056c1.201 0 3.216-.29 3.216-2.234m.689-4.342c1.913.732 3.132 2.389 3.132 4.392 0 4.878-3.895 5.536-7.705 5.536h-5.046v-19.547h3.658v8.239h1.091c1.392 0 1.969 0 2.647-1.506l2.978-6.733h4.148l-3.847 8.12c-.346.66-.649 1.14-1.056 1.499" transform="matrix(1.3333 0 0 -1.3333 494.99 568.85)"/><path clip-path="url(#U)" d="m0 0c0-3.796-1.245-5.489-4.035-5.489-2.793 0-4.038 1.693-4.038 5.489v11.027h-3.661v-11.362c0-5.393 2.806-8.485 7.699-8.485 4.894 0 7.702 3.092 7.702 8.485v11.362h-3.667z" transform="matrix(1.3333 0 0 -1.3333 537.59 576.11)"/><path clip-path="url(#V)" d="m0 0-7.447 13.609h-4.415v-19.546h3.654v13.911l7.669-13.911h4.178v19.546h-3.639z" transform="matrix(1.3333 0 0 -1.3333 566.82 579.55)"/><path clip-path="url(#W)" d="m435.14 154.68h3.651v19.547h-3.651z" transform="matrix(1.3333 0 0 -1.3333 0 793.7)"/><path clip-path="url(#X)" d="m0 0-5.399 15.294h-4.032l7.347-19.548h4.009l7.478 19.548h-3.885z" transform="matrix(1.3333 0 0 -1.3333 602.93 581.79)"/><path clip-path="url(#Y)" d="m0 0h11.369v3.343h-7.701v5.11h7.051v3.33h-7.051v4.412h7.701v3.352h-11.369z" transform="matrix(1.3333 0 0 -1.3333 620.93 587.47)"/><path clip-path="url(#Z)" d="m0 0c0-1.496-1.31-2.389-3.503-2.389h-1.761v4.623h2.047c1.201 0 3.217-.29 3.217-2.234m.693-4.343c1.909.731 3.125 2.388 3.125 4.393 0 4.878-3.891 5.536-7.699 5.536h-5.043v-19.547h3.66v8.239h1.092c1.395 0 1.973 0 2.663-1.505l2.959-6.734h4.141l-3.844 8.116c-.358.699-.676 1.165-1.054 1.502" transform="matrix(1.3333 0 0 -1.3333 655.68 568.85)"/><path clip-path="url(#aa)" d="m0 0c-1.803.867-2.907 1.457-2.907 2.629 0 1.703 1.725 1.957 2.754 1.957 1.254 0 1.929-.209 3.283-.724l.574-.217.554 3.465-.395.138c-1.266.442-2.776.696-4.141.696-3.915 0-6.446-2.182-6.446-5.561 0-3.43 2.644-4.668 4.769-5.663 1.992-.934 3.214-1.583 3.214-3.09 0-1.854-1.885-2.526-3.153-2.526-1.162 0-2.646.446-3.648.864l-.618.259-.379-3.522.38-.128c1.234-.417 2.568-.803 3.957-.803 4.548 0 7.263 2.25 7.263 6.02 0 3.774-2.806 5.123-5.061 6.206" transform="matrix(1.3333 0 0 -1.3333 676.68 571.57)"/><path clip-path="url(#ab)" d="m517.86 154.68h3.653v19.547h-3.653z" transform="matrix(1.3333 0 0 -1.3333 0 793.7)"/><path clip-path="url(#ac)" d="m0 0h5.765v-16.195h3.654v16.195h5.75v3.352h-15.169z" transform="matrix(1.3333 0 0 -1.3333 701.11 565.87)"/><path clip-path="url(#ad)" d="m0 0-5.117-7.898-5.238 7.898h-4.306l7.674-11.454v-8.093h3.643v8.093l7.667 11.454z" transform="matrix(1.3333 0 0 -1.3333 743.35 561.4)"/><path clip-path="url(#ae)" d="m0 0c.885 0 1.668.296 2.416.921.688.641 1.037 1.411 1.037 2.289 0 .894-.351 1.664-1.058 2.305-.733.607-1.517.903-2.395.903-.954 0-1.774-.302-2.433-.894-.715-.628-1.078-1.407-1.078-2.314 0-.897.362-1.675 1.079-2.314.673-.586 1.514-.896 2.432-.896" transform="matrix(1.3333 0 0 -1.3333 548.39 500.16)"/><path clip-path="url(#af)" d="m0 0c.908 0 1.714.308 2.406.922.7.655 1.055 1.425 1.055 2.288 0 .879-.357 1.649-1.066 2.295-.687.605-1.493.913-2.395.913-.951 0-1.747-.292-2.435-.897-.699-.625-1.054-1.403-1.054-2.311 0-.898.354-1.675 1.063-2.318.704-.6 1.498-.892 2.426-.892" transform="matrix(1.3333 0 0 -1.3333 559.92 500.16)"/><path clip-path="url(#ag)" d="m0 0c0 2.462.856 4.452 2.618 6.083 1.756 1.615 3.921 2.434 6.437 2.434 2.58 0 4.683-.804 6.432-2.458 1.723-1.608 2.597-3.647 2.597-6.059 0-2.396-.878-4.417-2.607-6.006-1.809-1.651-3.91-2.454-6.422-2.454-2.514 0-4.68.825-6.438 2.454-1.736 1.589-2.617 3.61-2.617 6.006m41.251-.303c0 2.471.856 4.455 2.621 6.069 1.732 1.611 3.905 2.427 6.457 2.427 2.532 0 4.689-.818 6.405-2.43 1.745-1.661 2.592-3.646 2.592-6.066 0-2.437-.857-4.411-2.623-6.035-1.761-1.615-3.905-2.433-6.374-2.433-2.531 0-4.704.818-6.46 2.433-1.762 1.619-2.618 3.593-2.618 6.035m-62.039-12.872v4.435h-.5c-4.762 0-8.01.347-9.66 1.034-2.924 1.192-4.286 3.562-4.286 7.458 0 2.084.652 3.975 1.938 5.618 1.388 1.772 3.121 2.669 5.153 2.669h8.587v-21.188h66.368c1.225-.29 2.442-.436 3.64-.436.851 0 1.693.073 2.52.221 3.229.563 5.826 2.12 7.938 4.761 1.968 2.498 2.965 5.397 2.965 8.618 0 3.742-1.313 6.927-3.903 9.468h-.001c-2.59 2.533-5.84 3.816-9.661 3.816-3.842 0-7.105-1.289-9.697-3.83-2.608-2.552-3.93-5.742-3.93-9.482 0-3.387.949-6.272 2.824-8.591h-20.313c2.237 2.434 3.369 5.384 3.369 8.789 0 3.751-1.306 6.936-3.882 9.465-2.575 2.528-5.815 3.809-9.631 3.809-3.835 0-7.088-1.277-9.666-3.798-2.576-2.515-3.883-5.692-3.883-9.445 0-3.395 1.124-6.341 3.343-8.774h-13.73v21.162h-13.413c-3.132 0-5.993-1.544-8.498-4.585-1.974-2.333-2.975-5.282-2.975-8.765 0-3.394.983-6.045 3.185-8.592.836-.988 1.859-1.67 2.752-2.209.614-.366 1.068-.532 1.697-.762l.391-.143c1.019-.399 3.378-.723 4.377-.723z" transform="matrix(1.3333 0 0 -1.3333 587.6 520.28)"/><path clip-path="url(#ah)" d="m0 0c-.92 0-1.726-.307-2.383-.9-.71-.605-1.069-1.392-1.069-2.34 0-.945.359-1.733 1.057-2.332.667-.606 1.473-.913 2.395-.913.933 0 1.74.307 2.399.912.687.622 1.036 1.407 1.036 2.333 0 .929-.349 1.714-1.035 2.328-.663.605-1.47.912-2.4.912" transform="matrix(1.3333 0 0 -1.3333 717.42 541.81)"/><path clip-path="url(#ai)" d="m0 0v4.217l-26.341 21.478-3.256-3.156 21.878-18.051h-31c-1.467 0-2.738.137-3.673.393-1.175.34-2.344 1.008-3.433 1.942-.971 1.059-1.653 2.196-2.022 3.366-.184.658-.405 1.813-.405 3.586v21.938h-4.562l.001-23.207c.094-2.025.364-3.261.522-3.837.612-1.915 1.67-3.624 3.146-5.084 1.488-1.445 3.247-2.476 5.224-3.063.406-.123 1.601-.421 3.92-.522z" transform="matrix(1.3333 0 0 -1.3333 748.54 537.83)"/><path clip-path="url(#aj)" d="m0 0c.949 0 1.767.305 2.429.902.677.605 1.021 1.381 1.021 2.308 0 .91-.342 1.685-1.02 2.305-.668.599-1.486.904-2.43.904-.929 0-1.74-.304-2.41-.902-.707-.625-1.081-1.423-1.081-2.307 0-.913.366-1.691 1.079-2.307.667-.599 1.478-.903 2.412-.903" transform="matrix(1.3333 0 0 -1.3333 492.77 500.17)"/><path clip-path="url(#ak)" d="m0 0c.963 0 1.753.297 2.399.895.711.606 1.071 1.384 1.071 2.315 0 .914-.359 1.69-1.056 2.301-.665.611-1.455.908-2.414.908-.923 0-1.754-.314-2.393-.897-.709-.607-1.068-1.385-1.068-2.312 0-.956.351-1.715 1.055-2.303.647-.594 1.479-.907 2.406-.907" transform="matrix(1.3333 0 0 -1.3333 480.79 500.17)"/><path clip-path="url(#al)" d="m0 0v9.173c1.653 1.558 3.736 3.051 6.193 4.437 5.442 3.069 11.212 3.468 15.432 1.067 1.93-1.099 3.139-3.118 3.316-5.54.201-2.739-.955-5.516-2.945-7.075-2.686-2.085-6.394-2.085-9.666-2.085-2.395-.004-4.789.003-7.183.01-1.715.006-3.431.012-5.147.013m57.987 4.861c0-1.624 0-3.237-.01-4.861l-8.87-.003c-2.15.22-3.57.443-5.153 1.69-2.128 1.664-3.414 4.287-3.357 6.847.043 2.083.788 4.099 2.047 5.535 1.545 1.783 4.074 2.8 6.949 2.8.033 0 .066 0 .099-.001 2.977-.023 5.691-1.153 7.26-3.023.965-1.143 1.068-2.539 1.035-3.886-.009-1.126-.006-2.253-.003-3.387zm-83.922-14.64c1.986 1.382 3.417 3.092 4.366 5.218h84.11v13.466c0 2.987-.166 5.646-2.202 7.942v.001c-1.866 2.093-4.503 3.62-7.24 4.188-5.919 1.168-12.432-1.38-15.148-5.917-2.689-4.502-2.514-10.159.437-14.079l.145-.199c.23-.32.437-.597.627-.833h-12.777c.158.184.327.395.513.631.081.103.147.188.203.254 3.878 4.859 3.189 12.732-1.432 16.575l-.127.11c-2.434 1.924-5.321 2.876-9.365 3.089-4.567.231-8.969-.995-13.086-3.652-.986-.624-1.993-1.298-3.059-2.047v16.182h-4.536v-31.142h-15.834v13.661h-4.562v-13.231c0-2.123-.763-3.954-2.265-5.439-1.522-1.493-3.389-2.179-5.548-2.031l-.534.035v-4.927h.5c2.491 0 4.784.722 6.814 2.145" transform="matrix(1.3333 0 0 -1.3333 418.64 531.75)"/></g></svg>