<?xml version="1.0"?>
<svg width="300" height="55" xmlns="http://www.w3.org/2000/svg" xmlns:xlink="http://www.w3.org/1999/xlink" version="1.1">
 <desc>Logo of Robert Gordon University</desc>
 <g>
   <path fill="#712177" fill-rule="nonzero" id="path38" d="m73.60912,51.62137c-0.96812,1.70667 -2.856,2.89263 -5.49604,2.89263c-2.64385,0 -4.52985,-1.18596 -5.4998,-2.89263c-0.48409,-0.83304 -0.70004,-1.80309 -0.70004,-3.23208l0,-14.49778l4.47589,0l0,14.52293c0,0.51487 0.05391,0.77909 0.13305,1.03163c0.26798,0.66732 0.80795,1.04717 1.5909,1.04717c0.77908,0 1.31911,-0.37985 1.58901,-1.04717c0.08099,-0.25254 0.13696,-0.51675 0.13696,-1.03163l0,-14.52293l4.4758,0l0,14.49778c0,1.42899 -0.21977,2.39904 -0.70583,3.23208"/>
   <path fill="#712177" fill-rule="nonzero" id="path42" d="m85.30652,54.10553l-3.90896,-11.39885l0,11.39885l-4.31192,0l0,-20.21365l4.18079,0l3.90698,11.31787l0,-11.31787l4.31191,0l0,20.21365l-4.17881,0z"/>
   <path fill="#712177" fill-rule="nonzero" id="path44" d="m92.44939,33.89207l4.47392,0l0,20.21364l-4.47392,0l0,-20.21364z"/>
   <path fill="#712177" fill-rule="nonzero" id="path48" d="m107.22085,54.10553l-4.23292,0l-4.57999,-20.21365l4.47198,0l2.23698,12.66777l2.23698,-12.66777l4.45081,0l-4.58385,20.21365z"/>
   <path fill="#712177" fill-rule="nonzero" id="path52" d="m113.28261,54.10553l0,-20.21365l9.5418,0l0,4.067l-5.06784,0l0,3.61391l4.82298,0l0,4.06898l-4.82298,0l0,4.3929l5.31083,0l0,4.07086l-9.78479,0z"/>
   <path fill="#712177" fill-rule="nonzero" id="path56" d="m131.34189,37.74288l-1.40388,0l0,5.66378l1.40388,0c1.34798,0 2.12898,-0.99697 2.12898,-2.83284c0,-1.83586 -0.78101,-2.83095 -2.12898,-2.83095m2.5069,16.36264l-2.18294,-6.84589l-1.72784,0l0,6.84589l-4.39101,0l0,-20.21365l6.06492,0c3.85098,0 6.30591,2.63999 6.30591,6.70511c0,2.21957 -0.75597,4.07284 -2.10393,5.26266l2.96785,8.24587l-4.93295,0z"/>
   <path fill="#712177" fill-rule="nonzero" id="path60" d="m145.54601,54.51419c-2.67278,0 -4.87888,-0.9951 -5.47472,-1.37494l0,-4.74976c0.51288,0.48408 2.3468,2.10394 4.96181,2.10394c1.45592,0 2.1039,-0.73088 2.1039,-1.67004c0,-1.5369 -2.29298,-2.80581 -3.88579,-4.04196c-1.47716,-1.13388 -3.448,-2.56287 -3.448,-5.90286c0,-3.34582 2.61488,-5.39373 5.92984,-5.39373c2.964,0 4.90404,0.96995 5.228,1.16279l0,4.23094c-1.05101,-0.67495 -2.82709,-1.61985 -4.6861,-1.61985c-1.27081,0 -1.86284,0.69999 -1.86284,1.67579c0,1.33822 1.29395,2.12701 3.47694,3.69291c1.53699,1.12814 3.88193,2.71909 3.88193,6.22112c0,3.18377 -2.183,5.66567 -6.22498,5.66567"/>
   <path fill="#712177" fill-rule="nonzero" id="path62" d="m153.79431,33.89207l4.47392,0l0,20.21364l-4.47392,0l0,-20.21364z"/>
   <path fill="#712177" fill-rule="nonzero" id="path66" d="m168.18146,37.95888l0,16.14664l-4.47198,0l0,-16.14664l-3.69484,0l0,-4.067l11.86162,0l0,4.067l-3.69479,0z"/>
   <path fill="#712177" fill-rule="nonzero" id="path70" d="m181.5255,45.12953l0,8.97675l-4.47397,0l0,-8.97675l-4.90396,-11.23878l4.47198,0l2.69206,6.92102l2.70563,-6.92102l-0.09062,0l4.47971,0l-4.88083,11.23878z"/>
   <path fill="#ac97af" fill-rule="nonzero" id="path74" d="m196.72337,39.92779l-1.58902,7.41481l3.17802,0l-1.589,-7.41481zm2.93697,14.17773l-0.64792,-3.04498l-4.58192,0l-0.64798,3.04498l-4.49899,0l5.14697,-20.21365l4.7709,0l5.145,20.21365l-4.68607,0z"/>
   <path fill="#ac97af" fill-rule="nonzero" id="path78" d="m211.8622,45.58922l-1.72781,0l0,4.55306l1.72781,0c1.15904,0 1.94005,-0.91411 1.94005,-2.264c0,-1.34406 -0.78101,-2.28906 -1.94005,-2.28906m-0.2179,-7.84672l-1.50992,0l0,3.88387l1.50992,0c0.99893,0 1.67194,-0.83502 1.67194,-1.93802c0,-1.13784 -0.673,-1.94584 -1.67194,-1.94584m0.59007,16.36265l-6.41194,0l0,-20.21364l5.71581,0c4.09789,0 5.95883,2.63999 5.95883,5.26068c0,2.01909 -0.54382,3.4172 -1.91881,4.33319c1.86288,0.97193 2.64198,2.56288 2.64198,4.76898c0,3.58688 -2.53011,5.85079 -5.98587,5.85079"/>
   <path fill="#ac97af" fill-rule="nonzero" id="path82" d="m220.64497,54.10553l0,-20.21365l9.54182,0l0,4.067l-5.06404,0l0,3.61391l4.82297,0l0,4.06898l-4.82297,0l0,4.3929l5.31084,0l0,4.07086l-9.78862,0z"/>
   <path fill="#ac97af" fill-rule="nonzero" id="path86" d="m238.70328,37.74288l-1.40002,0l0,5.66378l1.40002,0c1.34995,0 2.13284,-0.99697 2.13284,-2.83284c0,-1.83586 -0.7829,-2.83095 -2.13284,-2.83095m2.50888,16.36264l-2.18295,-6.84589l-1.72595,0l0,6.84589l-4.3929,0l0,-20.21365l6.06485,0c3.85298,0 6.30598,2.63999 6.30598,6.70511c0,2.21957 -0.75598,4.07284 -2.10588,5.26266l2.96783,8.24587l-4.93098,0z"/>
   <path fill="#ac97af" fill-rule="nonzero" id="path90" d="m255.81879,40.41112c0,-0.64415 -0.05208,-0.99895 -0.18898,-1.31326c-0.26808,-0.65574 -0.808,-1.13972 -1.83397,-1.13972l-1.42702,0l0,12.07766l1.42702,0c1.02597,0 1.56589,-0.48596 1.83397,-1.13191c0.1369,-0.32015 0.18898,-0.67504 0.18898,-1.31713l0,-7.17564zm3.90891,10.56384c-0.81378,1.80883 -2.66895,3.12982 -5.63483,3.12982l-6.19797,0l0,-20.21365l6.19797,0c2.96588,0 4.82104,1.32475 5.63483,3.12785c0.37216,0.80799 0.5708,1.66806 0.5708,3.07201l0,7.81583c0,1.40008 -0.19864,2.26787 -0.5708,3.06814"/>
   <path fill="#ac97af" fill-rule="nonzero" id="path94" d="m263.06732,54.10553l0,-20.21365l9.54565,0l0,4.067l-5.07175,0l0,3.61391l4.82684,0l0,4.06898l-4.82684,0l0,4.3929l5.31088,0l0,4.07086l-9.78479,0z"/>
   <path fill="#ac97af" fill-rule="nonzero" id="path98" d="m275.33301,54.10553l0,-20.21365l9.53799,0l0,4.067l-5.06409,0l0,3.61391l4.82303,0l0,4.06898l-4.82303,0l0,4.3929l5.30692,0l0,4.07086l-9.78082,0z"/>
   <path fill="#ac97af" fill-rule="nonzero" id="path102" d="m295.81552,54.10553l-3.90698,-11.39885l0,11.39885l-4.3139,0l0,-20.21365l4.17886,0l3.90506,11.31787l0,-11.31787l4.31583,0l0,20.21365l-4.17886,0z"/>
   <path fill="#712177" fill-rule="nonzero" id="path106" d="m69.70925,5.80177l-1.88792,0l0,7.61537l1.88792,0c1.81077,0 2.86368,-1.33643 2.86368,-3.80863c0,-2.46457 -1.05291,-3.80674 -2.86368,-3.80674m3.37276,22.01872l-2.93505,-9.21206l-2.32564,0l0,9.21206l-5.91063,0l0,-27.20426l8.1592,0c5.19128,0 8.49078,3.55411 8.49078,9.0308c0,2.97747 -1.01817,5.47678 -2.82709,7.07159l3.98795,11.10187l-6.63953,0l0,0z"/>
   <path fill="#712177" fill-rule="nonzero" id="path110" d="m92.70446,8.26823c0,-0.68653 -0.07128,-1.05291 -0.18121,-1.37494c-0.36449,-0.91214 -1.08958,-1.41938 -2.25045,-1.41938c-1.15903,0 -1.88411,0.50725 -2.24663,1.41938c-0.10993,0.32203 -0.18126,0.68841 -0.18126,1.37494l0,11.89452c0,0.69415 0.07133,1.04905 0.18126,1.38068c0.36252,0.90639 1.0876,1.41552 2.24663,1.41552c1.16087,0 1.88596,-0.50913 2.25045,-1.41552c0.10993,-0.33163 0.18121,-0.68653 0.18121,-1.38068l0,-11.89452zm5.07948,16.21218c-1.30748,2.28905 -3.84525,3.88 -7.51114,3.88c-3.66211,0 -6.20182,-1.59095 -7.50548,-3.88c-0.65372,-1.12428 -0.94491,-2.42399 -0.94491,-4.34855l0,-11.82898c0,-1.9206 0.29119,-3.22426 0.94491,-4.35241c1.30366,-2.28322 3.84337,-3.88 7.50548,-3.88c3.66589,0 6.20366,1.59678 7.51114,3.88c0.65183,1.12814 0.94683,2.4318 0.94683,4.35241l0,11.82898c0,1.92456 -0.295,3.22426 -0.94683,4.34855"/>
   <path fill="#712177" fill-rule="nonzero" id="path114" d="m110.58362,16.35835l-2.31796,0l0,6.12461l2.31796,0c1.56396,0 2.61109,-1.23031 2.61109,-3.043c0,-1.81279 -1.04713,-3.08161 -2.61109,-3.08161m-0.28733,-10.55621l-2.03062,0l0,5.22217l2.03062,0c1.34217,0 2.24852,-1.12231 2.24852,-2.61495c0,-1.51571 -0.90635,-2.60723 -2.24852,-2.60723m0.79839,22.01871l-8.63165,0l0,-27.20426l7.6867,0c5.5153,0 8.01452,3.55411 8.01452,7.06763c0,2.72483 -0.72123,4.61088 -2.57446,5.85089c2.50497,1.29782 3.55598,3.43839 3.55598,6.41199c0,4.82679 -3.40942,7.87375 -8.05109,7.87375"/>
   <path fill="#712177" fill-rule="nonzero" id="path118" d="m122.40845,27.82124l0,-27.20614l12.84328,0l0,5.47283l-6.81891,0l0,4.86737l6.48917,0l0,5.47669l-6.48917,0l0,5.91256l7.14287,0l0,5.47669l-13.16724,0z"/>
   <path fill="#712177" fill-rule="nonzero" id="path122" d="m146.70892,5.80177l-1.886,0l0,7.61537l1.886,0c1.81462,0 2.86946,-1.33643 2.86946,-3.80863c0,-2.46457 -1.05484,-3.80674 -2.86946,-3.80674m3.37277,22.01872l-2.93506,-9.21206l-2.32372,0l0,9.21206l-5.91447,0l0,-27.20426l8.16685,0c5.18358,0 8.48697,3.55411 8.48697,9.0308c0,2.97747 -1.01434,5.47678 -2.83282,7.07159l3.99374,11.10187l-6.64149,0l0,0z"/>
   <path fill="#712177" fill-rule="nonzero" id="path126" d="m168.25024,6.08774l0,21.73331l-6.0224,0l0,-21.73331l-4.96573,0l0,-5.47095l15.95384,0l0,5.47095l-4.96571,0z"/>
   <path fill="#712177" fill-rule="nonzero" id="path130" d="m189.9351,28.35984c-3.55402,0 -6.0224,-1.59095 -7.32607,-3.88c-0.65178,-1.12231 -0.94682,-2.42399 -0.94682,-4.34855l0,-11.827c0,-1.9207 0.29504,-3.29564 1.0182,-4.57227c1.23228,-2.1367 3.77003,-3.66202 7.32796,-3.66202c3.00835,0 5.43816,0.76167 7.14291,1.70271l0,5.88168c-2.06728,-1.31129 -4.68028,-2.18105 -6.3831,-2.18105c-2.43175,0 -3.08546,1.30752 -3.08546,3.51936l0,11.16948c0,0.69416 0.0752,1.05093 0.18518,1.38266c0.36053,0.9063 1.0143,1.41543 2.21376,1.41543c0.90448,0 1.8455,-0.29312 2.10196,-0.47627l0,-5.90484l-1.92258,0l0,-5.48253l7.94508,0l0,14.69261c-1.19952,1.16091 -4.71696,2.57059 -8.27103,2.57059"/>
   <path fill="#712177" fill-rule="nonzero" id="path134" d="m212.638,8.26823c0,-0.68653 -0.07327,-1.05291 -0.18126,-1.37494c-0.36256,-0.91214 -1.08762,-1.41938 -2.25046,-1.41938c-1.16096,0 -1.88605,0.50725 -2.24857,1.41938c-0.10606,0.32203 -0.17932,0.68841 -0.17932,1.37494l0,11.89452c0,0.69415 0.07326,1.04905 0.17932,1.38068c0.36252,0.90639 1.0876,1.41552 2.24857,1.41552c1.16284,0 1.88789,-0.50913 2.25046,-1.41552c0.10799,-0.33163 0.18126,-0.68653 0.18126,-1.38068l0,-11.89452zm5.08139,16.21218c-1.30748,2.28905 -3.85109,3.88 -7.51311,3.88c-3.66014,0 -6.19994,-1.59095 -7.50539,-3.88c-0.65376,-1.12428 -0.94495,-2.42399 -0.94495,-4.34855l0,-11.82898c0,-1.9206 0.29118,-3.22426 0.94495,-4.35241c1.30545,-2.28322 3.84525,-3.88 7.50539,-3.88c3.66202,0 6.20563,1.59678 7.51311,3.88c0.65179,1.12814 0.93912,2.4318 0.93912,4.35241l0,11.82898c0,1.92456 -0.28732,3.22426 -0.93912,4.34855"/>
   <path fill="#712177" fill-rule="nonzero" id="path138" d="m230.19283,5.80177l-1.8822,0l0,7.61537l1.8822,0c1.8165,0 2.8656,-1.33643 2.8656,-3.80863c0,-2.46457 -1.0491,-3.80674 -2.8656,-3.80674m3.37666,22.01872l-2.94086,-9.21206l-2.31801,0l0,9.21206l-5.91443,0l0,-27.20426l8.16107,0c5.1855,0 8.48889,3.55411 8.48889,9.0308c0,2.97747 -1.01628,5.47678 -2.82903,7.07159l3.98608,11.10187l-6.63373,0l0,0z"/>
   <path fill="#712177" fill-rule="nonzero" id="path142" d="m253.22427,9.39364c0,-0.86779 -0.07518,-1.34603 -0.25072,-1.77993c-0.36444,-0.86967 -1.09151,-1.52541 -2.47031,-1.52541l-1.91486,0l0,16.25662l1.91486,0c1.3788,0 2.10587,-0.65376 2.47031,-1.52155c0.17554,-0.4435 0.25072,-0.91026 0.25072,-1.78567l0,-9.64407zm5.26074,14.22208c-1.08569,2.42785 -3.59268,4.20589 -7.58064,4.20589l-8.34427,0l0,-27.20614l8.34427,0c3.98796,0 6.49495,1.77418 7.58064,4.20777c0.50522,1.08577 0.75983,2.25054 0.75983,4.13452l0,10.5176c0,1.88407 -0.25461,3.05468 -0.75983,4.14035"/>
   <path fill="#712177" fill-rule="nonzero" id="path146" d="m273.56119,8.26823c0,-0.68653 -0.07327,-1.05291 -0.17929,-1.37494c-0.36456,-0.91214 -1.0896,-1.41938 -2.25241,-1.41938c-1.16098,0 -1.88608,0.50725 -2.24664,1.41938c-0.10989,0.32203 -0.18124,0.68841 -0.18124,1.37494l0,11.89452c0,0.69415 0.07135,1.04905 0.18124,1.38068c0.36057,0.90639 1.08566,1.41552 2.24664,1.41552c1.16281,0 1.88785,-0.50913 2.25241,-1.41552c0.10602,-0.33163 0.17929,-0.68653 0.17929,-1.38068l0,-11.89452zm5.07562,16.21218c-1.3017,2.28905 -3.84143,3.88 -7.50732,3.88c-3.66406,0 -6.198,-1.59095 -7.50931,-3.88c-0.64987,-1.12428 -0.94107,-2.42399 -0.94107,-4.34855l0,-11.82898c0,-1.9206 0.2912,-3.22426 0.94107,-4.35241c1.31131,-2.28322 3.84525,-3.88 7.50931,-3.88c3.66589,0 6.20563,1.59678 7.50732,3.88c0.65567,1.12814 0.94492,2.4318 0.94492,4.35241l0,11.82898c0,1.92456 -0.28925,3.22426 -0.94492,4.34855"/>
   <path fill="#712177" fill-rule="nonzero" id="path150" d="m294.37842,27.82124l-5.2569,-15.34251l0,15.34251l-5.80066,0l0,-27.20614l5.61942,0l5.2569,15.2345l0,-15.2345l5.80258,0l0,27.20614l-5.62134,0z"/>
   <path fill="#712177" fill-rule="nonzero" id="path154" d="m53.49049,51.458c0,1.46561 -1.18789,2.65543 -2.65351,2.65543l-48.18347,0c-1.46557,0 -2.65351,-1.18982 -2.65351,-2.65543l0,-48.1854c0,-1.46364 1.18794,-2.65157 2.65351,-2.65157l48.18347,0c1.46562,0 2.65351,1.18794 2.65351,2.65157l0,48.1854z"/>
   <path fill="#ffffff" fill-rule="nonzero" id="path158" d="m13.47082,31.65397c0,-0.96233 -0.19477,-1.69509 -0.58427,-2.20036c-0.38766,-0.50329 -0.9353,-0.75395 -1.64113,-0.75395l-1.46943,0l0,5.90671l1.46943,0c0.70583,0 1.25347,-0.25075 1.64113,-0.75207c0.3895,-0.50724 0.58427,-1.23812 0.58427,-2.20034m0.38375,14.12179l-2.26589,-7.14484l-1.8127,0l0,7.14484l-4.5742,0l0,-21.09884l6.31938,0c1.00668,0 1.91495,0.16196 2.72488,0.4918c0.81186,0.32975 1.50418,0.80216 2.07493,1.41345c0.57273,0.61525 1.01435,1.35375 1.32673,2.21194c0.3105,0.86393 0.46671,1.82428 0.46671,2.88688c0,1.16466 -0.18898,2.2138 -0.56887,3.14713c-0.38182,0.93333 -0.92372,1.71439 -1.63143,2.33727l3.09319,8.61037l-5.15273,0l0,0z"/>
   <path fill="#ffffff" fill-rule="nonzero" id="path162" d="m48.06662,41.73183c-0.11567,0.53417 -0.30084,1.02211 -0.55729,1.46175c-0.25649,0.43973 -0.5708,0.8466 -0.94109,1.21684c-0.37024,0.36836 -0.79641,0.68841 -1.27659,0.95649c-0.48211,0.26422 -1.01826,0.46864 -1.60832,0.61713c-0.59011,0.14463 -1.22842,0.21789 -1.91491,0.21789c-0.68846,0 -1.32866,-0.07326 -1.91877,-0.21789c-0.59011,-0.14849 -1.12621,-0.35292 -1.60639,-0.61713c-0.48018,-0.26808 -0.90635,-0.58813 -1.27852,-0.95649c-0.37029,-0.37024 -0.67886,-0.77711 -0.9257,-1.21684c-0.25645,-0.43964 -0.44543,-0.92758 -0.56308,-1.46175c-0.11953,-0.53804 -0.17933,-1.17438 -0.17933,-1.91872l0,-15.13619l4.67062,0l0,15.16509c0,0.2661 0.01351,0.48013 0.04242,0.63634c0.02698,0.16393 0.06365,0.30668 0.10796,0.43587c0.13889,0.34906 0.34524,0.61901 0.61906,0.80988c0.27579,0.19096 0.61901,0.28738 1.03172,0.28738c0.41073,0 0.75592,-0.09642 1.03554,-0.28738c0.27961,-0.19086 0.48789,-0.46082 0.6248,-0.80988c0.04628,-0.12919 0.08098,-0.27194 0.1041,-0.43587c0.02128,-0.15621 0.03475,-0.37024 0.03475,-0.63634l0,-15.16509l4.67062,0l0,15.13619c0,0.74434 -0.05786,1.38068 -0.17161,1.91872"/>
   <path fill="#ffffff" fill-rule="nonzero" id="path166" d="m31.99013,44.89752c-0.43964,0.23719 -0.94491,0.45319 -1.51764,0.64604c-0.57278,0.19096 -1.19175,0.34906 -1.86283,0.47438c-0.66722,0.12147 -1.34415,0.18512 -2.03256,0.18512c-0.68653,0 -1.31905,-0.07326 -1.90144,-0.21986c-0.58234,-0.14652 -1.11068,-0.35282 -1.58708,-0.61704c-0.47631,-0.26808 -0.8967,-0.58625 -1.26505,-0.95649c-0.36445,-0.37024 -0.67104,-0.77523 -0.91981,-1.21684c-0.25649,-0.43964 -0.44354,-0.92759 -0.5612,-1.46176c-0.11954,-0.53804 -0.18126,-1.17438 -0.18126,-1.91872l0,-9.17739c0,-0.74048 0.06361,-1.39226 0.18715,-1.95544c0.1234,-0.56497 0.3258,-1.09142 0.61322,-1.58709c0.23526,-0.41073 0.53601,-0.79255 0.8967,-1.13963c0.36252,-0.34905 0.78295,-0.64802 1.26505,-0.90253c0.48018,-0.25066 1.01435,-0.44547 1.60055,-0.58813c0.58432,-0.14275 1.22264,-0.21214 1.90911,-0.21214c1.17443,0 2.22545,0.12731 3.16071,0.38371c0.93337,0.25461 1.72978,0.57278 2.38934,0.94688l0,4.54911c-0.40306,-0.2468 -0.82344,-0.47627 -1.26312,-0.68643c-0.44162,-0.21412 -0.87937,-0.39152 -1.3191,-0.53615c-0.43964,-0.14849 -0.86393,-0.26035 -1.27268,-0.34519c-0.40499,-0.08098 -0.7733,-0.12533 -1.10309,-0.12533c-0.46855,0 -0.85809,0.06553 -1.16859,0.1871c-0.3105,0.12335 -0.55541,0.30273 -0.73672,0.53794c-0.17735,0.23145 -0.30466,0.51685 -0.37598,0.85818c-0.07519,0.33747 -0.10993,0.72127 -0.10993,1.15319l0,8.66826c0,0.2661 0.01346,0.48013 0.04242,0.63634c0.02509,0.16393 0.06167,0.30658 0.108,0.43775c0.13884,0.34708 0.33747,0.61713 0.6055,0.80997c0.26422,0.19086 0.6306,0.28728 1.09924,0.28728c0.17161,0 0.34905,-0.01544 0.52834,-0.04049c0.17744,-0.02891 0.3394,-0.0598 0.48794,-0.09642c0.14458,-0.03663 0.2757,-0.07909 0.38371,-0.11761c0.10993,-0.04049 0.18903,-0.08098 0.23333,-0.11761l0,-4.58583l-1.48289,0l0,-4.24638l6.1555,0l0,11.38737c-0.22947,0.22947 -0.56506,0.46468 -1.00475,0.70188"/>
   <path fill="#ffffff" fill-rule="nonzero" id="path170" d="m46.19513,16.66767c-10.64105,-3.88386 -21.22804,5.48827 -27.18877,5.48827c-7.61537,0 -13.90777,-4.81332 -13.90777,-4.81332l16.51688,-7.54013c3.64667,-1.66618 8.53137,-1.72785 13.20773,0c4.6726,1.724 11.37193,6.86519 11.37193,6.86519"/>
   <path fill="#ffffff" fill-rule="nonzero" id="path174" d="m48.23748,21.44842c-5.46515,-2.79432 -9.15806,2.74414 -13.83061,0.36252l-3.61578,-2.12512c0,0 10.59472,-5.22791 15.15155,-0.58822c2.30059,2.34499 2.29485,2.35082 2.29485,2.35082"/>
   <path fill="#ffffff" fill-rule="nonzero" id="path178" d="m17.93876,10.40587c-3.45383,-0.79641 -6.38308,2.52041 -8.23245,2.748c-2.36617,0.29501 -4.50476,-0.95847 -4.50476,-0.95847l4.8403,-2.97549c1.06835,-0.6595 2.58213,-0.8659 4.1017,-0.50913c1.51773,0.35678 3.79521,1.69509 3.79521,1.69509"/>
 </g>
</svg>