<?xml version="1.0" encoding="UTF-8" standalone="no"?>
<svg
   xmlns:dc="http://purl.org/dc/elements/1.1/"
   xmlns:cc="http://creativecommons.org/ns#"
   xmlns:rdf="http://www.w3.org/1999/02/22-rdf-syntax-ns#"
   xmlns:svg="http://www.w3.org/2000/svg"
   xmlns="http://www.w3.org/2000/svg"
   xmlns:sodipodi="http://sodipodi.sourceforge.net/DTD/sodipodi-0.dtd"
   xmlns:inkscape="http://www.inkscape.org/namespaces/inkscape"
   width="59"
   height="121"
   version="1.1"
   id="svg4"
   sodipodi:docname="ritsu.svg"
   inkscape:version="1.0.1 (3bc2e813f5, 2020-09-07)">
  <metadata
     id="metadata10">
    <rdf:RDF>
      <cc:Work
         rdf:about="">
        <dc:format>image/svg+xml</dc:format>
        <dc:type
           rdf:resource="http://purl.org/dc/dcmitype/StillImage" />
      </cc:Work>
    </rdf:RDF>
  </metadata>
  <defs
     id="defs8" />
  <sodipodi:namedview
     pagecolor="#ffffff"
     bordercolor="#666666"
     borderopacity="1"
     objecttolerance="10"
     gridtolerance="10"
     guidetolerance="10"
     inkscape:pageopacity="0"
     inkscape:pageshadow="2"
     inkscape:window-width="640"
     inkscape:window-height="480"
     id="namedview6"
     showgrid="false"
     inkscape:zoom="1"
     inkscape:cx="29.5"
     inkscape:cy="60.5"
     inkscape:current-layer="svg4" />
  <path
     fill="#880000"
     d="M 0.109,0.3331 V 94.3799 H 11.8686 V 47.3584 L 44.5718,94.3799 H 58.8901 L 26.1871,47.3584 h 9.1563 c 13.052,0 23.5468,-10.5462 23.5468,-23.5097 C 58.8902,10.8851 48.3954,0.333 35.3434,0.333 Z m 11.7596,11.7596 h 23.4747 c 6.5729,0 11.791,5.2715 11.791,11.7559 0,6.4791 -5.2181,11.7558 -11.791,11.7558 H 11.8686 Z M 0.1148,101.9053 v 7.5215 h 0.9414 v -3.7598 l 2.6153,3.7598 H 4.818 L 2.2027,105.667 h 0.7285 c 1.047,0 1.8868,-0.8444 1.8868,-1.8808 0,-1.0365 -0.8399,-1.8809 -1.8868,-1.8809 z m 6.2188,0 v 7.5215 H 7.275 v -7.5215 z m 2.457,0 v 0.9375 h 1.8867 v 6.584 h 0.9375 v -6.584 h 1.879 v -0.9375 z m 7.584,0 c -0.7083,0 -1.3379,0.3802 -1.666,1 -0.1875,0.349 -0.2188,0.6257 -0.2188,1.1152 0,0.4844 0.0313,0.7611 0.2188,1.1153 0.3281,0.6198 0.9577,1 1.666,1 h 0.9316 c 0.3646,0 0.6732,0.1927 0.8399,0.5 0.0781,0.151 0.1094,0.2435 0.1094,0.6758 0,0.427 -0.0313,0.5266 -0.1094,0.6777 -0.1667,0.3073 -0.4753,0.4941 -0.8399,0.4941 h -2.8164 v 0.9434 h 2.8164 c 0.7136,0 1.3399,-0.3854 1.668,-1 0.1875,-0.3542 0.2188,-0.6309 0.2188,-1.1152 0,-0.4896 -0.0313,-0.765 -0.2188,-1.1192 -0.3281,-0.6146 -0.9544,-1 -1.668,-1 h -0.9316 c -0.3594,0 -0.6725,-0.1869 -0.834,-0.4941 -0.0781,-0.151 -0.1094,-0.2507 -0.1094,-0.6778 0,-0.4323 0.0313,-0.5267 0.1094,-0.6777 0.1615,-0.3073 0.4746,-0.5 0.834,-0.5 h 2.8184 v -0.9375 z m 4.3594,0 v 5.6367 c 0,0.7084 0.3802,1.3379 1,1.666 0.3541,0.1875 0.662,0.2188 1.1465,0.2188 h 0.4062 c 0.4896,0 0.7962,-0.0312 1.1504,-0.2188 0.6146,-0.3281 1,-0.9576 1,-1.666 v -5.6367 h -0.9434 v 5.6367 c 0,0.3646 -0.1927,0.6712 -0.5,0.8379 -0.1458,0.0781 -0.2747,0.1094 -0.707,0.1094 l -0.4062,-0.006 c -0.4271,0 -0.558,-0.026 -0.709,-0.1094 -0.3073,-0.1615 -0.4942,-0.4779 -0.4942,-0.832 v -5.6367 z m 6.2402,0 v 7.5215 h 0.9414 v -5.3594 l 0.8965,2.0684 h 1.0254 l 0.9023,-2.0684 v 5.3594 h 0.9375 v -7.5215 H 30.65 l -1.3223,3.0527 -1.3281,-3.0527 z m 8.3906,0 c -0.4843,0 -0.7923,0.0312 -1.1464,0.2188 -0.6146,0.328 -1,0.9544 -1,1.668 v 3.75 c 0,0.7083 0.3854,1.3378 1,1.666 0.3541,0.1874 0.662,0.2187 1.1464,0.2187 h 2.5567 v -0.9434 h -2.5567 c -0.427,0 -0.5573,-0.0312 -0.703,-0.1093 -0.3074,-0.1615 -0.5,-0.478 -0.5,-0.832 v -1.4063 h 3.7597 v -0.9434 h -3.7599 v -1.4004 a 0.9522,0.9522 0 0 1 0.5,-0.8398 c 0.1458,-0.0781 0.276,-0.1094 0.7031,-0.1094 h 2.5567 v -0.9375 z m 4.25,0 v 7.5215 h 0.9375 v -7.5215 z m 2.629,0 v 7.5215 h 0.9433 v -2.9746 l 2.5254,2.9746 h 1.2344 l -3.1973,-3.7598 3.1973,-3.7617 h -1.2344 l -2.5254,2.9746 v -2.9746 z m 7.8437,0 c -0.4844,0 -0.7904,0.0312 -1.1445,0.2188 -0.6198,0.328 -1,0.9544 -1,1.668 v 5.6347 h 0.9414 v -3.291 h 2.8183 v 3.291 h 0.9434 v -5.6348 c 0,-0.7135 -0.3854,-1.3398 -1,-1.668 -0.3542,-0.1875 -0.6628,-0.2187 -1.1524,-0.2187 z m 4.0996,0 v 7.5215 h 0.9375 v -5.4746 l 2.8223,5.4746 h 0.9375 v -7.5215 h -0.9375 v 5.4688 l -2.8223,-5.4688 z m -53.1309,0.9375 h 1.875 c 0.526,0 0.9434,0.4225 0.9434,0.9434 0,0.5156 -0.4173,0.9375 -0.9434,0.9375 h -1.875 z m 49.0313,0 h 0.4062 c 0.4323,0 0.5632,0.0312 0.709,0.1094 0.3073,0.1666 0.5,0.4856 0.5,0.8398 v 1.4004 h -2.8183 v -1.4004 c 0,-0.3646 0.194,-0.6732 0.496,-0.8398 0.1511,-0.0781 0.28,-0.1094 0.707,-0.1094 z m 0.709,10.2969 1.875,3.8594 v 3.6464 h 0.9375 v -3.6464 l 1.875,-3.8594 h -1.041 l -1.3028,2.6836 -1.3027,-2.6836 z m -47.2813,0.0215 0.0059,5.625 c 0,0.7083 0.3795,1.334 0.9941,1.662 0.349,0.1876 0.6621,0.2188 1.1465,0.2188 H 6.068 c 0.4843,0 0.7903,-0.0312 1.1445,-0.2187 0.6094,-0.3282 0.996,-0.9538 0.996,-1.6621 v -5.625 H 7.2711 v 5.625 c 0,0.3593 -0.1927,0.6666 -0.5,0.828 -0.151,0.0834 -0.276,0.1095 -0.7031,0.1095 H 5.6616 c -0.4323,0 -0.5573,-0.026 -0.7031,-0.1094 -0.3125,-0.1615 -0.5,-0.4792 -0.5,-0.8281 v -5.625 z m 6.2598,0 v 7.5058 h 0.9375 v -5.459 l 2.8125,5.459 h 0.9375 v -7.5058 H 13.525 v 5.459 l -2.8125,-5.459 z m 8.834,0 1.8594,7.4433 -0.0098,0.0566 h 0.994 l -0.0155,-0.0566 1.8593,-7.4433 h -0.9629 l -1.3808,5.5097 -1.375,-5.5097 z m 7.8379,0 c -0.4844,0 -0.7904,0.0312 -1.1446,0.2187 -0.6145,0.3282 -0.996,0.9525 -0.996,1.666 v 3.7403 c 0,0.7031 0.3815,1.3333 0.996,1.6562 0.3542,0.1875 0.6602,0.2188 1.1446,0.2188 l 2.5468,0.006 v -0.9434 h -2.5468 c -0.4271,0 -0.5573,-0.026 -0.7032,-0.1094 a 0.934,0.934 0 0 1 -0.5,-0.828 v -1.4005 h 3.75 v -0.9433 h -3.75 v -1.3965 c 0,-0.3542 0.1928,-0.6712 0.5,-0.838 0.1459,-0.078 0.276,-0.1093 0.7032,-0.1093 h 2.5468 v -0.9375 z m 4.2558,0 v 7.5058 h 0.9375 v -3.7558 l 2.6094,3.7558 h 1.1406 l -2.6093,-3.7558 h 0.7285 c 1.0468,0 1.8808,-0.8386 1.8808,-1.875 0,-1.0313 -0.834,-1.875 -1.8808,-1.875 z m 7.5782,0 c -0.7136,0 -1.338,0.3802 -1.666,1 -0.1876,0.349 -0.2188,0.6302 -0.2188,1.1093 0,0.4844 0.0312,0.7663 0.2187,1.1153 0.3282,0.6146 0.9525,1 1.666,1 h 0.9278 c 0.3594,0 0.6654,0.1868 0.832,0.4941 0.0781,0.151 0.1094,0.25 0.1094,0.6719 0,0.4323 -0.0313,0.5267 -0.1094,0.6777 -0.1666,0.3073 -0.4726,0.4942 -0.832,0.4942 h -2.8125 v 0.9433 h 2.8125 c 0.7083,0 1.332,-0.3854 1.6601,-1 0.1875,-0.349 0.2188,-0.6256 0.2188,-1.1152 0,-0.4844 -0.0313,-0.7604 -0.2188,-1.1094 -0.328,-0.6198 -0.9518,-1 -1.6601,-1 h -0.9277 c -0.3646,0 -0.6726,-0.1868 -0.834,-0.4941 -0.0834,-0.151 -0.1133,-0.2507 -0.1133,-0.6778 0,-0.427 0.03,-0.5208 0.1133,-0.6718 0.1614,-0.3073 0.4694,-0.5 0.834,-0.5 h 2.8066 v -0.9375 z m -22.125,0.006 v 7.5 h 0.9375 v -7.5 z m 26.4843,0 v 7.5 h 0.9375 v -7.5 z m 2.459,0 v 0.9316 h 1.875 v 6.5684 h 0.9375 v -6.5684 h 1.875 v -0.9316 z m -13.459,0.9316 h 1.8692 c 0.526,0 0.9433,0.4219 0.9433,0.9375 0,0.5209 -0.4173,0.9375 -0.9433,0.9375 h -1.8692 z"
     id="path2" />
</svg>
