<?xml version="1.0" encoding="UTF-8" standalone="no"?>
<!-- Created with Inkscape (http://www.inkscape.org/) -->

<svg
   xmlns:dc="http://purl.org/dc/elements/1.1/"
   xmlns:cc="http://creativecommons.org/ns#"
   xmlns:rdf="http://www.w3.org/1999/02/22-rdf-syntax-ns#"
   xmlns:svg="http://www.w3.org/2000/svg"
   xmlns="http://www.w3.org/2000/svg"
   xmlns:sodipodi="http://sodipodi.sourceforge.net/DTD/sodipodi-0.dtd"
   xmlns:inkscape="http://www.inkscape.org/namespaces/inkscape"
   width="295"
   height="65.5"
   viewBox="0 0 295 65.500001"
   id="svg10469"
   version="1.1"
   inkscape:version="0.91 r13725"
   sodipodi:docname="rwj barnabas.svg">
  <defs
     id="defs10471" />
  <sodipodi:namedview
     id="base"
     pagecolor="#ffffff"
     bordercolor="#666666"
     borderopacity="1.0"
     inkscape:pageopacity="0.0"
     inkscape:pageshadow="2"
     inkscape:zoom="3.079187"
     inkscape:cx="147.49999"
     inkscape:cy="32.75"
     inkscape:document-units="px"
     inkscape:current-layer="layer1"
     showgrid="false"
     units="px"
     inkscape:window-width="1280"
     inkscape:window-height="744"
     inkscape:window-x="-4"
     inkscape:window-y="-4"
     inkscape:window-maximized="1" />
  <metadata
     id="metadata10474">
    <rdf:RDF>
      <cc:Work
         rdf:about="">
        <dc:format>image/svg+xml</dc:format>
        <dc:type
           rdf:resource="http://purl.org/dc/dcmitype/StillImage" />
        <dc:title></dc:title>
      </cc:Work>
    </rdf:RDF>
  </metadata>
  <g
     inkscape:label="Layer 1"
     inkscape:groupmode="layer"
     id="layer1"
     transform="translate(0,-986.86216)">
    <g
       id="g10560"
       style="fill:#d22a2f;fill-opacity:1"
       transform="translate(-243.92858,255.82138)">
      <g
         transform="matrix(1.25,0,0,-1.25,252.31045,748.61953)"
         id="g8892"
         style="fill:#d22a2f;fill-opacity:1">
        <path
           inkscape:connector-curvature="0"
           id="path8894"
           style="fill:#d22a2f;fill-opacity:1;fill-rule:nonzero;stroke:none"
           d="M 0,0 3.696,0 C 4.258,0 4.855,0.02 5.485,0.06 6.113,0.101 6.684,0.221 7.193,0.422 7.7,0.623 8.123,0.937 8.458,1.366 8.792,1.794 8.961,2.398 8.961,3.174 8.961,3.897 8.813,4.473 8.519,4.903 8.223,5.33 7.848,5.659 7.393,5.887 6.937,6.114 6.415,6.269 5.827,6.349 5.236,6.429 4.66,6.469 4.098,6.469 L 0,6.469 0,0 Z m -6.269,11.773 11.011,0 c 1.446,0 2.818,-0.139 4.118,-0.421 1.299,-0.281 2.436,-0.75 3.416,-1.407 0.977,-0.656 1.753,-1.54 2.33,-2.651 0.576,-1.113 0.864,-2.499 0.864,-4.159 0,-2.009 -0.522,-3.717 -1.567,-5.124 -1.045,-1.405 -2.572,-2.297 -4.581,-2.672 l 7.233,-12.015 -7.514,0 -5.947,11.372 -3.094,0 0,-11.372 -6.269,0 0,28.449" />
      </g>
      <g
         transform="matrix(1.25,0,0,-1.25,272.47545,733.90328)"
         id="g8896"
         style="fill:#d22a2f;fill-opacity:1">
        <path
           inkscape:connector-curvature="0"
           id="path8898"
           style="fill:#d22a2f;fill-opacity:1;fill-rule:nonzero;stroke:none"
           d="m 0,0 6.831,0 4.541,-18.242 0.079,0 5.947,18.242 5.827,0 5.908,-18.726 0.079,0 4.783,18.726 6.348,0 -8.317,-28.45 -5.585,0 -6.269,19.691 -0.081,0 -6.268,-19.691 -5.385,0 L 0,0 Z" />
      </g>
      <g
         transform="matrix(1.25,0,0,-1.25,339.36795,733.90328)"
         id="g8952"
         style="fill:#d22a2f;fill-opacity:1">
        <path
           inkscape:connector-curvature="0"
           id="path8954"
           style="fill:#d22a2f;fill-opacity:1;fill-rule:nonzero;stroke:none"
           d="m 0,0 -5.901,0 0,-18.242 c 0,-0.537 -0.02,-1.12 -0.06,-1.749 -0.04,-0.63 -0.154,-1.212 -0.341,-1.748 -0.189,-0.536 -0.483,-0.985 -0.885,-1.346 -0.401,-0.361 -0.965,-0.542 -1.687,-0.542 -0.698,0 -1.32,0.241 -1.869,0.723 -0.55,0.483 -0.864,1.072 -0.944,1.768 l -5.747,-1.406 c 0.456,-2.278 1.46,-3.953 3.015,-5.024 1.553,-1.071 3.455,-1.607 5.705,-1.607 1.929,0 3.489,0.288 4.681,0.864 1.193,0.576 2.11,1.34 2.753,2.29 0.622,0.922 1.047,1.978 1.28,3.164 L 0,0" />
      </g>
    </g>
    <g
       id="g10568"
       style="fill:#02568a;fill-opacity:1"
       transform="translate(-243.92858,255.82138)">
      <g
         transform="matrix(1.25,0,0,-1.25,382.90545,758.76578)"
         id="g8900"
         style="fill:#02568a;fill-opacity:1">
        <path
           inkscape:connector-curvature="0"
           id="path8902"
           style="fill:#02568a;fill-opacity:1;fill-rule:nonzero;stroke:none"
           d="m 0,0 c -0.455,0 -1.025,-0.02 -1.708,-0.06 -0.683,-0.041 -1.34,-0.155 -1.969,-0.342 -0.628,-0.188 -1.166,-0.469 -1.607,-0.844 -0.442,-0.375 -0.663,-0.898 -0.663,-1.566 0,-0.724 0.307,-1.26 0.924,-1.608 0.616,-0.348 1.259,-0.522 1.929,-0.522 0.589,0 1.158,0.08 1.708,0.241 0.548,0.16 1.038,0.387 1.466,0.682 0.429,0.295 0.771,0.67 1.024,1.125 0.256,0.456 0.383,0.992 0.383,1.608 L 1.487,0 0,0 Z m 1.487,-6.108 -0.08,0 c -0.67,-1.044 -1.562,-1.795 -2.673,-2.25 -1.112,-0.456 -2.283,-0.684 -3.516,-0.684 -0.911,0 -1.788,0.128 -2.633,0.383 -0.843,0.253 -1.586,0.636 -2.229,1.145 -0.643,0.508 -1.152,1.137 -1.527,1.888 -0.375,0.75 -0.562,1.621 -0.562,2.612 0,1.126 0.207,2.075 0.622,2.853 0.416,0.777 0.978,1.42 1.688,1.929 0.71,0.508 1.52,0.905 2.432,1.185 0.91,0.281 1.854,0.489 2.831,0.623 0.978,0.134 1.957,0.214 2.935,0.242 0.978,0.026 1.881,0.04 2.712,0.04 0,1.071 -0.383,1.921 -1.145,2.551 -0.764,0.629 -1.668,0.945 -2.713,0.945 -0.991,0 -1.896,-0.208 -2.712,-0.623 C -5.901,6.314 -6.63,5.746 -7.273,5.023 l -3.215,3.295 c 1.125,1.045 2.438,1.828 3.939,2.351 1.499,0.522 3.053,0.783 4.66,0.783 1.769,0 3.221,-0.221 4.36,-0.663 C 3.609,10.347 4.521,9.698 5.204,8.841 5.887,7.983 6.361,6.931 6.63,5.686 6.898,4.441 7.032,2.999 7.032,1.366 l 0,-9.925 -5.545,0 0,2.451" />
      </g>
      <g
         transform="matrix(1.25,0,0,-1.25,394.21045,745.05328)"
         id="g8904"
         style="fill:#02568a;fill-opacity:1">
        <path
           inkscape:connector-curvature="0"
           id="path8906"
           style="fill:#02568a;fill-opacity:1;fill-rule:nonzero;stroke:none"
           d="m 0,0 6.027,0 0,-3.135 0.08,0 c 0.644,1.206 1.406,2.11 2.29,2.713 0.884,0.603 1.996,0.904 3.336,0.904 0.348,0 0.696,-0.014 1.045,-0.039 0.347,-0.028 0.669,-0.082 0.964,-0.162 l 0,-5.505 c -0.429,0.134 -0.851,0.234 -1.266,0.302 -0.416,0.067 -0.851,0.1 -1.305,0.1 -1.153,0 -2.064,-0.16 -2.733,-0.482 C 7.768,-5.626 7.252,-6.075 6.891,-6.651 6.529,-7.227 6.295,-7.916 6.188,-8.72 6.08,-9.524 6.027,-10.407 6.027,-11.372 l 0,-8.157 -6.027,0 L 0,0" />
      </g>
      <g
         transform="matrix(1.25,0,0,-1.25,413.3917,745.05328)"
         id="g8908"
         style="fill:#02568a;fill-opacity:1">
        <path
           inkscape:connector-curvature="0"
           id="path8910"
           style="fill:#02568a;fill-opacity:1;fill-rule:nonzero;stroke:none"
           d="m 0,0 5.787,0 0,-2.652 0.079,0 c 0.188,0.375 0.456,0.75 0.804,1.124 0.347,0.376 0.763,0.711 1.246,1.006 0.482,0.294 1.031,0.535 1.647,0.723 0.616,0.187 1.286,0.281 2.01,0.281 1.526,0 2.758,-0.235 3.696,-0.703 0.937,-0.469 1.668,-1.12 2.19,-1.949 0.522,-0.831 0.877,-1.808 1.066,-2.934 0.187,-1.124 0.28,-2.344 0.28,-3.656 l 0,-10.769 -6.027,0 0,9.563 c 0,0.563 -0.02,1.146 -0.06,1.748 -0.04,0.604 -0.16,1.158 -0.363,1.668 -0.201,0.509 -0.507,0.924 -0.923,1.246 -0.416,0.322 -1.012,0.482 -1.788,0.482 -0.777,0 -1.407,-0.141 -1.89,-0.422 C 7.272,-5.526 6.904,-5.901 6.65,-6.369 6.394,-6.839 6.228,-7.367 6.147,-7.956 6.067,-8.546 6.027,-9.162 6.027,-9.805 l 0,-9.724 -6.027,0 L 0,0" />
      </g>
      <g
         transform="matrix(1.25,0,0,-1.25,453.2042,758.76578)"
         id="g8912"
         style="fill:#02568a;fill-opacity:1">
        <path
           inkscape:connector-curvature="0"
           id="path8914"
           style="fill:#02568a;fill-opacity:1;fill-rule:nonzero;stroke:none"
           d="m 0,0 c -0.456,0 -1.026,-0.02 -1.708,-0.06 -0.683,-0.041 -1.341,-0.155 -1.969,-0.342 -0.629,-0.188 -1.166,-0.469 -1.608,-0.844 -0.442,-0.375 -0.663,-0.898 -0.663,-1.566 0,-0.724 0.308,-1.26 0.925,-1.608 0.615,-0.348 1.258,-0.522 1.928,-0.522 0.589,0 1.158,0.08 1.708,0.241 0.549,0.16 1.038,0.387 1.466,0.682 0.429,0.295 0.771,0.67 1.025,1.125 0.254,0.456 0.383,0.992 0.383,1.608 L 1.487,0 0,0 Z m 1.487,-6.108 -0.081,0 c -0.67,-1.044 -1.561,-1.795 -2.673,-2.25 -1.111,-0.456 -2.283,-0.684 -3.516,-0.684 -0.911,0 -1.788,0.128 -2.632,0.383 -0.844,0.253 -1.587,0.636 -2.229,1.145 -0.644,0.508 -1.153,1.137 -1.527,1.888 -0.376,0.75 -0.563,1.621 -0.563,2.612 0,1.126 0.207,2.075 0.622,2.853 0.416,0.777 0.979,1.42 1.689,1.929 0.709,0.508 1.52,0.905 2.431,1.185 0.91,0.281 1.854,0.489 2.832,0.623 0.978,0.134 1.956,0.214 2.934,0.242 0.978,0.026 1.881,0.04 2.713,0.04 0,1.071 -0.383,1.921 -1.147,2.551 -0.762,0.629 -1.667,0.945 -2.712,0.945 -0.991,0 -1.895,-0.208 -2.712,-0.623 -0.818,-0.417 -1.547,-0.985 -2.19,-1.708 l -3.215,3.295 c 1.126,1.045 2.438,1.828 3.939,2.351 1.499,0.522 3.053,0.783 4.66,0.783 1.768,0 3.222,-0.221 4.361,-0.663 C 3.609,10.347 4.52,9.698 5.204,8.841 5.886,7.983 6.361,6.931 6.63,5.686 6.898,4.441 7.032,2.999 7.032,1.366 l 0,-9.925 -5.545,0 0,2.451" />
      </g>
      <g
         transform="matrix(1.25,0,0,-1.25,471.53045,757.25953)"
         id="g8916"
         style="fill:#02568a;fill-opacity:1">
        <path
           inkscape:connector-curvature="0"
           id="path8918"
           style="fill:#02568a;fill-opacity:1;fill-rule:nonzero;stroke:none"
           d="m 0,0 c 0,-1.474 0.422,-2.666 1.266,-3.576 0.844,-0.912 2.028,-1.366 3.556,-1.366 1.527,0 2.712,0.454 3.556,1.366 0.844,0.91 1.266,2.102 1.266,3.576 0,1.473 -0.422,2.665 -1.266,3.576 C 7.534,4.486 6.349,4.943 4.822,4.943 3.294,4.943 2.11,4.486 1.266,3.576 0.422,2.665 0,1.473 0,0 m -5.545,20.614 6.027,0 0,-12.939 0.081,0 c 0.696,0.938 1.586,1.601 2.672,1.989 1.084,0.389 2.256,0.583 3.515,0.583 1.394,0 2.639,-0.289 3.737,-0.865 1.098,-0.576 2.03,-1.345 2.793,-2.309 0.764,-0.965 1.353,-2.07 1.769,-3.315 0.414,-1.246 0.623,-2.553 0.623,-3.919 0,-1.474 -0.228,-2.826 -0.683,-4.058 -0.457,-1.233 -1.106,-2.297 -1.95,-3.195 -0.843,-0.897 -1.855,-1.594 -3.034,-2.09 -1.178,-0.495 -2.491,-0.743 -3.938,-0.743 -0.696,0 -1.352,0.095 -1.969,0.281 -0.617,0.188 -1.185,0.429 -1.707,0.723 -0.523,0.296 -0.979,0.623 -1.366,0.986 -0.389,0.362 -0.704,0.716 -0.945,1.064 l -0.08,0 0,-2.572 -5.545,0 0,30.379" />
      </g>
      <g
         transform="matrix(1.25,0,0,-1.25,506.6392,758.76578)"
         id="g8920"
         style="fill:#02568a;fill-opacity:1">
        <path
           inkscape:connector-curvature="0"
           id="path8922"
           style="fill:#02568a;fill-opacity:1;fill-rule:nonzero;stroke:none"
           d="m 0,0 c -0.456,0 -1.025,-0.02 -1.708,-0.06 -0.683,-0.041 -1.34,-0.155 -1.969,-0.342 -0.629,-0.188 -1.165,-0.469 -1.607,-0.844 -0.443,-0.375 -0.663,-0.898 -0.663,-1.566 0,-0.724 0.307,-1.26 0.924,-1.608 0.616,-0.348 1.259,-0.522 1.928,-0.522 0.59,0 1.16,0.08 1.708,0.241 0.549,0.16 1.038,0.387 1.468,0.682 0.427,0.295 0.769,0.67 1.023,1.125 0.255,0.456 0.383,0.992 0.383,1.608 L 1.487,0 0,0 Z m 1.487,-6.108 -0.081,0 c -0.67,-1.044 -1.561,-1.795 -2.671,-2.25 -1.113,-0.456 -2.285,-0.684 -3.517,-0.684 -0.911,0 -1.788,0.128 -2.632,0.383 -0.843,0.253 -1.588,0.636 -2.23,1.145 -0.643,0.508 -1.153,1.137 -1.527,1.888 -0.376,0.75 -0.563,1.621 -0.563,2.612 0,1.126 0.208,2.075 0.623,2.853 0.415,0.777 0.978,1.42 1.688,1.929 0.709,0.508 1.52,0.905 2.431,1.185 0.911,0.281 1.854,0.489 2.833,0.623 0.977,0.134 1.955,0.214 2.934,0.242 0.977,0.026 1.881,0.04 2.712,0.04 0,1.071 -0.383,1.921 -1.145,2.551 -0.764,0.629 -1.669,0.945 -2.712,0.945 -0.992,0 -1.896,-0.208 -2.713,-0.623 C -5.9,6.314 -6.63,5.746 -7.273,5.023 l -3.214,3.295 c 1.124,1.045 2.436,1.828 3.938,2.351 1.499,0.522 3.053,0.783 4.661,0.783 1.768,0 3.22,-0.221 4.359,-0.663 C 3.61,10.347 4.52,9.698 5.204,8.841 5.887,7.983 6.362,6.931 6.63,5.686 6.898,4.441 7.032,2.999 7.032,1.366 l 0,-9.925 -5.545,0 0,2.451" />
      </g>
      <g
         transform="matrix(1.25,0,0,-1.25,532.80795,752.23703)"
         id="g8924"
         style="fill:#02568a;fill-opacity:1">
        <path
           inkscape:connector-curvature="0"
           id="path8926"
           style="fill:#02568a;fill-opacity:1;fill-rule:nonzero;stroke:none"
           d="m 0,0 c -0.884,1.099 -2.05,1.648 -3.497,1.648 -0.509,0 -1.004,-0.12 -1.487,-0.361 -0.481,-0.241 -0.722,-0.658 -0.722,-1.246 0,-0.482 0.247,-0.838 0.743,-1.065 0.495,-0.227 1.125,-0.428 1.889,-0.602 0.763,-0.175 1.58,-0.362 2.451,-0.563 0.87,-0.201 1.687,-0.516 2.451,-0.944 0.764,-0.429 1.392,-1.011 1.889,-1.748 0.495,-0.737 0.743,-1.722 0.743,-2.954 0,-1.259 -0.275,-2.297 -0.824,-3.115 -0.549,-0.817 -1.252,-1.472 -2.109,-1.967 -0.858,-0.497 -1.822,-0.845 -2.894,-1.046 -1.072,-0.201 -2.13,-0.302 -3.174,-0.302 -1.366,0 -2.747,0.195 -4.139,0.584 -1.393,0.388 -2.571,1.077 -3.536,2.069 l 3.656,4.058 c 0.564,-0.696 1.187,-1.225 1.869,-1.588 0.683,-0.361 1.48,-0.541 2.391,-0.541 0.697,0 1.327,0.101 1.888,0.301 0.563,0.201 0.844,0.569 0.844,1.105 0,0.508 -0.248,0.891 -0.743,1.145 -0.496,0.255 -1.124,0.469 -1.888,0.644 -0.764,0.174 -1.581,0.361 -2.452,0.562 -0.871,0.2 -1.687,0.502 -2.451,0.904 -0.764,0.402 -1.393,0.97 -1.889,1.707 -0.496,0.737 -0.743,1.722 -0.743,2.954 0,1.152 0.235,2.143 0.704,2.973 0.468,0.831 1.085,1.514 1.848,2.05 0.763,0.535 1.641,0.93 2.633,1.186 0.99,0.254 1.994,0.381 3.013,0.381 1.285,0 2.584,-0.188 3.898,-0.562 C 1.674,5.292 2.785,4.621 3.697,3.658 L 0,0" />
      </g>
      <g
         transform="matrix(1.25,0,0,-1.25,283.6117,773.47328)"
         id="g8928"
         style="fill:#02568a;fill-opacity:1">
        <path
           inkscape:connector-curvature="0"
           id="path8930"
           style="fill:#02568a;fill-opacity:1;fill-rule:nonzero;stroke:none"
           d="m 0,0 3.969,0 0,-6.719 7.711,0 0,6.719 3.97,0 0,-18.018 -3.97,0 0,7.787 -7.711,0 0,-7.787 -3.969,0 L 0,0 Z" />
      </g>
      <g
         transform="matrix(1.25,0,0,-1.25,306.78045,773.47328)"
         id="g8932"
         style="fill:#02568a;fill-opacity:1">
        <path
           inkscape:connector-curvature="0"
           id="path8934"
           style="fill:#02568a;fill-opacity:1;fill-rule:nonzero;stroke:none"
           d="m 0,0 12.24,0 0,-3.665 -8.27,0 0,-3.359 7.812,0 0,-3.664 -7.812,0 0,-3.666 8.728,0 0,-3.664 L 0,-18.018 0,0 Z" />
      </g>
      <g
         transform="matrix(1.25,0,0,-1.25,335.79045,780.02703)"
         id="g8936"
         style="fill:#02568a;fill-opacity:1">
        <path
           inkscape:connector-curvature="0"
           id="path8938"
           style="fill:#02568a;fill-opacity:1;fill-rule:nonzero;stroke:none"
           d="m 0,0 -2.187,-5.598 4.402,0 L 0,0 Z m -1.527,5.243 3.283,0 7.839,-18.018 -4.48,0 -1.552,3.818 -6.999,0 -1.5,-3.818 -4.378,0 7.787,18.018 z" />
      </g>
      <g
         transform="matrix(1.25,0,0,-1.25,349.66045,773.47328)"
         id="g8940"
         style="fill:#02568a;fill-opacity:1">
        <path
           inkscape:connector-curvature="0"
           id="path8942"
           style="fill:#02568a;fill-opacity:1;fill-rule:nonzero;stroke:none"
           d="m 0,0 3.97,0 0,-14.354 7.355,0 0,-3.664 L 0,-18.018 0,0 Z" />
      </g>
      <g
         transform="matrix(1.25,0,0,-1.25,368.70795,777.95828)"
         id="g8944"
         style="fill:#02568a;fill-opacity:1">
        <path
           inkscape:connector-curvature="0"
           id="path8946"
           style="fill:#02568a;fill-opacity:1;fill-rule:nonzero;stroke:none"
           d="m 0,0 -5.14,0 0,3.513 14.251,0 0,-3.513 -5.142,0 0,-14.505 -3.969,0 L 0,0 Z" />
      </g>
      <g
         transform="matrix(1.25,0,0,-1.25,382.6017,773.47328)"
         id="g8948"
         style="fill:#02568a;fill-opacity:1">
        <path
           inkscape:connector-curvature="0"
           id="path8950"
           style="fill:#02568a;fill-opacity:1;fill-rule:nonzero;stroke:none"
           d="m 0,0 3.97,0 0,-6.719 7.711,0 0,6.719 3.969,0 0,-18.018 -3.969,0 0,7.787 -7.711,0 0,-7.787 -3.97,0 L 0,0 Z" />
      </g>
      <g
         transform="matrix(1.25,0,0,-1.25,347.20295,762.83453)"
         id="g8956"
         style="fill:#02568a;fill-opacity:1">
        <path
           inkscape:connector-curvature="0"
           id="path8958"
           style="fill:#02568a;fill-opacity:1;fill-rule:nonzero;stroke:none"
           d="M 0,0 5.625,0 C 6.108,0 6.596,0.054 7.092,0.161 7.587,0.267 8.036,0.455 8.438,0.724 8.841,0.99 9.167,1.338 9.423,1.768 9.677,2.196 9.804,2.718 9.804,3.334 9.804,4.005 9.637,4.547 9.303,4.963 8.968,5.378 8.544,5.692 8.036,5.906 7.527,6.121 6.978,6.269 6.389,6.349 5.799,6.429 5.25,6.469 4.742,6.469 L 0,6.469 0,0 Z m 0,11.773 4.54,0 c 0.483,0 0.958,0.054 1.426,0.162 0.468,0.106 0.892,0.281 1.266,0.522 0.376,0.24 0.676,0.562 0.904,0.964 0.228,0.402 0.342,0.883 0.342,1.446 0,0.589 -0.127,1.079 -0.381,1.468 -0.255,0.387 -0.583,0.689 -0.984,0.904 -0.404,0.214 -0.859,0.367 -1.367,0.462 -0.509,0.092 -1.004,0.14 -1.488,0.14 l -4.258,0 0,-6.068 z m -6.269,11.372 10.609,0 c 1.231,0 2.471,-0.087 3.717,-0.261 1.246,-0.174 2.363,-0.522 3.355,-1.045 0.991,-0.522 1.795,-1.253 2.411,-2.189 0.616,-0.938 0.924,-2.184 0.924,-3.738 0,-1.608 -0.449,-2.94 -1.346,-3.998 C 12.503,10.856 11.318,10.1 9.844,9.644 l 0,-0.08 c 0.938,-0.135 1.788,-0.397 2.552,-0.784 0.763,-0.388 1.419,-0.885 1.968,-1.486 0.55,-0.604 0.972,-1.306 1.267,-2.11 0.294,-0.803 0.442,-1.662 0.442,-2.572 0,-1.501 -0.32,-2.753 -0.964,-3.757 C 14.466,-2.15 13.635,-2.961 12.618,-3.576 11.599,-4.193 10.454,-4.635 9.181,-4.903 7.908,-5.17 6.643,-5.305 5.384,-5.305 l -11.653,0 0,28.45" />
      </g>
    </g>
  </g>
</svg>
