<?xml version="1.0" encoding="UTF-8" standalone="no"?>
<svg
   width="100%"
   height="100%"
   viewBox="0 0 886 299"
   version="1.1"
   xml:space="preserve"
   style="fill-rule:evenodd;clip-rule:evenodd;stroke-linejoin:round;stroke-miterlimit:2;"
   id="svg53"
   sodipodi:docname="Saitama Daigaku.svg"
   inkscape:version="1.1.1 (3bf5ae0d25, 2021-09-20)"
   xmlns:inkscape="http://www.inkscape.org/namespaces/inkscape"
   xmlns:sodipodi="http://sodipodi.sourceforge.net/DTD/sodipodi-0.dtd"
   xmlns="http://www.w3.org/2000/svg"
   xmlns:svg="http://www.w3.org/2000/svg"><defs
   id="defs57" /><sodipodi:namedview
   id="namedview55"
   pagecolor="#ffffff"
   bordercolor="#666666"
   borderopacity="1.0"
   inkscape:pageshadow="2"
   inkscape:pageopacity="0.0"
   inkscape:pagecheckerboard="0"
   showgrid="false"
   inkscape:zoom="1.3239278"
   inkscape:cx="443"
   inkscape:cy="149.17732"
   inkscape:window-width="1920"
   inkscape:window-height="1017"
   inkscape:window-x="-8"
   inkscape:window-y="-8"
   inkscape:window-maximized="1"
   inkscape:current-layer="g50" />
    <g
   id="アートボード1"
   transform="matrix(0.965699,0,0,0.838471,-429.82,-712.837)">
        <rect
   x="445.086"
   y="850.163"
   width="917.055"
   height="355.43"
   style="fill:none;"
   id="rect2" />
        <g
   transform="matrix(0.577932,0,0,0.665627,212.289,526.998)"
   id="g6">
            <path
   d="M612.764,869.046L540.334,855.339L540.417,855.092L540.193,855.175C581.838,967.637 701.593,1030.81 818.32,1001.89C921.634,976.299 992.099,886.499 997.523,785.714L997.619,785.651C997.764,784.088 997.954,779.971 997.86,772.89C997.854,768.074 997.699,763.238 997.39,758.389C997.2,754.446 996.943,750.052 996.603,745.185C995.826,734.058 991.336,717.623 990.76,715.556L990.569,715.675C990.569,715.675 957.131,626.132 967.438,596.257C978.384,564.529 1013.03,547.656 1044.76,558.602C1076.49,569.548 1093.36,604.194 1082.41,635.922C1075.1,657.125 1031.91,688.402 1007.42,704.74C1014.18,726.475 1013.43,751.069 1011.6,776.28C1061.06,742.682 1130.11,690.519 1142.85,653.594C1164.79,589.992 1130.96,520.541 1067.36,498.599C1003.76,476.656 934.311,510.479 912.369,574.08C901.067,606.839 917.261,676.366 933.773,731.394C956.786,825.862 898.882,921.283 804.162,944.748C729.355,963.28 652.889,931.381 612.764,869.046ZM527.565,745.258L585.304,760.059L585.358,760.159C589.049,711.595 612.724,666.437 651.05,635.636C719.152,580.906 816.448,584.079 880.489,641.959L886.58,647.73C883.448,622.153 880.451,596.603 886.488,572.909C803.182,521.138 693.733,525.804 614.169,589.745C565.848,628.579 534.994,684.529 527.565,745.258Z"
   style="fill:rgb(0,148,64);"
   id="path4" />
        </g>
        <g
   transform="matrix(0.577932,0,0,0.665627,212.289,526.998)"
   id="g10">
            <path
   d="M907.333,752.839C909.234,773.144 910.606,793.148 905.639,812.995C905.639,812.995 817.315,862.425 706.608,859.922C602.9,857.576 433.913,802.46 433.913,802.46L414.237,734.426C414.237,734.426 575.384,801.415 725.258,798.355C805.002,796.726 907.333,752.839 907.333,752.839Z"
   style="fill:rgb(145,178,36);"
   id="path8" />
        </g>
        <g
   transform="matrix(1.03552,0,0,1.19265,-3.43388,-132.086)"
   id="g14">
            <path
   d="M1210.23,1032.43L1196.2,1032.43L1196.2,1008.3L1218.54,1008.3L1207.35,986.632L1225.01,986.632L1234.83,1008.3L1245.54,1008.3L1235.8,986.632L1255.09,986.632L1261.2,1008.3L1273.7,1008.3L1280.89,986.632L1299.07,986.632L1289.18,1008.3L1312.72,1008.3L1312.72,1032.43L1297.73,1032.43L1297.73,1037.45L1295.23,1037.45L1273.78,1058.08L1310.07,1058.08L1310.07,1067.64L1264.3,1067.64L1264.3,1099.41C1264.3,1103.64 1260.87,1107.07 1256.63,1107.07L1226.63,1107.07L1226.63,1092.25L1245.74,1092.25L1245.74,1067.64L1197.47,1067.64L1197.47,1058.08L1248.07,1058.08L1270.45,1037.45L1210.23,1037.45L1210.23,1032.43ZM1040.63,1092.94L1048.27,1092.94L1048.27,1107.02L939.678,1107.02L939.678,1092.94L985.037,1092.94L985.037,1048.91L947.809,1048.91L947.809,1038.32L985.037,1038.32L985.037,1002.12L941.138,1002.12L941.138,991.504L1046.81,991.504L1046.81,1002.12L1002.91,1002.12L1002.91,1038.32L1040.14,1038.32L1040.14,1048.91L1002.91,1048.91L1002.91,1092.94L1026.53,1092.94L1018.64,1073.54L1032.19,1073.54L1040.63,1092.94ZM909.004,1048.47L909.004,1092.32L898.466,1092.32L898.466,1106.08L916.844,1106.08C919.167,1106.08 921.394,1105.15 923.036,1103.51C924.679,1101.87 925.601,1099.64 925.601,1097.32L925.601,1048.47L930.682,1048.47L930.682,1037.89L846.459,1037.89L846.459,1048.47L909.004,1048.47ZM1132.93,1007.82L1184.75,1007.82L1184.75,1018.23L1132.93,1018.23L1132.93,1020.68L1166.48,1093.24L1184.73,1093.24L1184.73,1105.84L1151.86,1105.84L1123.51,1038.45L1091.28,1105.84L1062.89,1105.84L1062.89,1092.62L1080.99,1092.62L1114.26,1020.68L1114.26,1018.23L1062.43,1018.23L1062.43,1007.82L1114.26,1007.82L1114.26,985.684L1132.93,985.684L1132.93,1007.82ZM837.769,1007.85L837.769,991.669L822.556,991.669L822.556,1007.85L808.144,1007.85L808.144,1018.22L822.556,1018.22L822.556,1081.9L806.661,1085.25L806.6,1100.73L848.952,1089.71L849.297,1076.28L837.769,1078.7L837.769,1018.22L849.295,1018.22L849.295,1007.85L837.769,1007.85ZM901.378,1054.37L857.627,1054.37L857.627,1092.48L895.27,1092.48C896.89,1092.48 898.444,1091.84 899.589,1090.69C900.734,1089.55 901.378,1087.99 901.378,1086.37C901.378,1075.6 901.378,1054.37 901.378,1054.37ZM889.85,1062.61L868.334,1062.61L868.334,1084.57L889.85,1084.57L889.85,1062.61ZM898.239,991.612L898.239,985.999L879.34,985.999L879.347,991.612L851.823,991.612L851.823,1002.57L879.362,1002.57L879.365,1004.93L868.553,1021.67L846.461,1021.67L846.459,1035.01L873.577,1035.01L888.904,1013.07L903.95,1035.01L931.043,1035.01L931.036,1021.67L909.282,1021.67L898.239,1005.02L898.239,1002.57L928.285,1002.57L928.285,991.612L898.239,991.612ZM1296.12,1029.62L1212.67,1029.62L1212.67,1016.23L1296.12,1016.23L1296.12,1029.62Z"
   style="fill:rgb(0,148,64);"
   id="path12" />
        </g>
        <g
   transform="matrix(1.91921,0,0,2.21043,-549.596,-666.432)"
   id="g50">
            
            
            
            
            
            
            
            
            
            
            
            
            
            
            
            
            
        </g>
    </g>
</svg>
