<svg xmlns="http://www.w3.org/2000/svg" width="244" height="74" viewBox="0 0 122 37"><path fill="#be2619" d="M6.72505 9.1172c-.5301.093-.9099.5298-1.1599 1.0709.8698-.2001.5299.402.5998.9661.07-.1012.1502-.332.27-.3532.1101-.0179.3.003.3102-.1279.0598-.4799.1299-.9601.1299-1.4281 0-.1519.01-.155-.15-.1278m-1.0899 4.2108c-1.0301-.1159-1.5801-.589-1.4601-.877.0398-.1179.1601-.2409.5601-.1749l.0699-.1389c-.3402-.7591.0401-2.2731 1.2201-3.17.5101-.388 2.3298-.21 1.5199.4289-.2598.5811-.1799.8989-.24 1.1421-.15.616-.54.6318-.85.7719-.1901.0819-.2499.4651-.2499.873 0 .1219.01.169-.1201.1659-.4198-.01-.25-.4329-.1598-.7518l-.0801-.038c-.82.057-.5601-.7271.0598-.3651.1202-.1329-.21-.8909-.3398-.8889-.2402.004-.4601.661-.47 1.2648-.0101.5321.0998.949.25 1.0962.1899.1899.9298.153.5698.5799-.0998.116-.1299.0981-.2798.0819"/><path fill="#be2619" d="M12.72515 4.0111c-.1202-.0102-.21.0519-.2401.114-.0202.2038.0799.356.2401.485l.4598.8909c.0402.089.0601.2381.18.205.1601-.0431.1301-.2861-.1501-.9301-.0597-.538-.2697-.748-.4897-.7648m.3299-1.521c-.1301.1349-.0799.2769.1299.424.9102 1.787 1.6101 4.2798 1.9001 3.403.03-.1142-.04-.1582-.1001-.2392-.36-.4638-1.1499-2.096-1.33-3.024.3101-.3609-.2299-.849-.5999-.5638m-1.1199 2.4548c.1899.5601.3599 1.0732.47 1.559l.03.197c-.0201.2551.08.6472.3399.504.1199-.0689.0901-.1068.0601-.233-.14-.7078-.3703-1.3989-.6402-2.069-.2399-1.1908-1.0799-.5828-.2598.042"/><path fill="#be2619" d="M25.77505 6.6791c-.2002-.328-.72-.9689-.8301-.8889-.1901.4439.1101 1.726.75 1.328l.0801-.1522c.0598-.1199.07-.1809 0-.2869m.25-3.058c.03-.4031-.3102-.4201-.47-.0471l-.04.1831c0 .1809-.2401.4111-.4003.624-.3599.0731-.6298-.002-.7697-.1891-.7502-.3368-.2802 1.1302.3698.6321l.07.0771c-.4198.5148-.82.8408-1.1998.978-.1702.0609-.1801.0269-.2402-.114-.1698.0258-.2598.123-.2999.29.0199.5839.2101.326.6701.0658.58-.3249 1.1397-.6529 1.4599-1.338.3699-.051.7401-.0269 1.0399.0672.3901-.0411.12-.4351-.0299-.4241l-.76.0009c.11-.199.2401-.328.46-.5179.0899-.0751.1299-.165.1401-.288"/><path fill="#be2619" d="m31.57495 12.1772.19-.0411c.1301.1049.28.28.4501.525.12.316-.32.261-.6001.2069-.0601.0312.0201.2191.15.479l.0201.1931c-.0802.0941-.18.1389-.3001.0989-.1101-.0368-.0999-.0831-.12-.1899l-.0498-.26c-.6402.201-.9001.156-1.0801.0491-.2702-.167-.1902-.2421-.1001-.4743.1401-.3659.25-.3727.29-.2049.0199.1012-.1.324.0601.5672.1999.0329.61.0519.7098-.2131l-.47-.4629c-.0898-.108-.1298-.129-.1-.2761.0501-.241.2401-.3759.39.1641.0503.159.2401.2228.36.4019.1202-.0241.2602-.002.35-.1321 0-.0909-.0399-.1598-.1198-.2089-.0902-.0589-.1402-.1131-.0301-.2219m3.1899.2508c.1601-.1479.2202-.3058.1201-.3608-.1201-.07-.2599.015-.4201.089l-.1001.0709c-.0898.134-.25.0209-.3398-.072-.1-.0961-.1702-.0601-.2701-.0119l-.08.0918c.0502.186-.5099.0181-.5598.0371l-.1001.036c-.0601.0219.17.148-.2599.218-.17-.1491-.22-.2829-.1801-.333l.62-.0689.1001-.1571-.09-.1289c.41-.0531.9798.0938 1.06-.2591-.14-.2841-.3501-.1381-.3801-.003l-.83.2401c-.12-.0241-.18-.0878-.1899-.1919.2099.005.3999-.0759.59-.1391.1198-.1679.1799-.2999.1699-.398-.1699-.2149-.4101.2202-.44.2781-.1799.0779-1.0501.1941-.88.5011.18-.0312.1499.2699.0301.18-.55-.424-.8602-.7583-.9202-1.002-.1398-.055-.2398-.0202-.2999.0938-.1401.2602.12.3711.29.54.39.1301.83.4782 1.4301 1.362 0 .1112-.0301.1452-.1001.1761l-.3-.18c-.1201-.0159.25.506.2699.6721.2301-.038.47-.2631.3802-.4972-.08-.258-.1701-.396-.25-.5579l.0898-.003c.11.0882.2802.1352.5101.1451.2.009.2.008.3-.153l.1101-.1619c.1399-.0632.2599.273.4699.239.1199-.019.0899-.2073.0899-.305l.2001-.0961.04.1099z"/><path fill="#be2619" fill-rule="evenodd" d="M18.63515.8179c9.7599 0 17.68 7.918 17.68 17.682 0 9.7642-7.9201 17.6822-17.68 17.6822-9.76 0-17.68-7.918-17.68-17.6822 0-9.764 7.92-17.682 17.68-17.682m0-.743c10.1698 0 18.43 8.2511 18.43 18.425 0 10.1741-8.2602 18.4252-18.43 18.4252-10.1703 0-18.4301-8.2511-18.4301-18.4252 0-10.1739 8.2598-18.425 18.4301-18.425"/><path fill="#be2619" d="M16.58505 8.7702c.2801.5258.8601.366 1.59.345.32-.008.4501.527.4501.771h.4198c0-.337-.0399-.7801.4201-.767.7299.0198 1.2201.1768 1.5001-.349.18 1.1968-.9501 1.0148-1.6402.9819v.169c.7901.015 1.2.3441 1.5101.9011.1099.1948.1401.3249.1599.5429l.14 2.412h1.4201c.87.2701.8499 2.2759.8602 4.5541.1099 3.9399.3999 7.3298 1.51 8.079l-1.5203-.013c-.11-.186-.2599-.4612-.4799-.7251-.2701-.311.16.7611.1899.712l-1.0599-.0221c-.35-3.168-.39-6.849-.7299-10.258-.0501-.2248-.1502-.3549-.32-.3889l-1.9902-.0771-.01-3.649c.7999-.199 1.11-1.3179.2401-1.8369-1.3601-.5031-1.9202 1.4241-.7002 1.8369l-.01 3.649-1.99.0771c-.17.034-.2701.1641-.31.3889-.26 3.765-.1299 10.1072-.7399 10.258l-1.0602.0221c.0301.0491.4601-1.023.19-.712-.22.2639-.3699.5391-.4799.7251l-1.52.013c1.1101-.7492 1.4001-4.1391 1.5101-8.079.01-2.2782-.01-4.284.86-4.5541h1.4199l.14-2.412c.0201-.218.0499-.3481.1598-.5429.3102-.557.75-.8872 1.5401-.902v-.17c-.6898.0328-1.8499.2168-1.6699-.98"/><path fill="#be2619" d="M17.57495 15.9042h.07c.4601 0 .8402.3469.8402.7718v7.367l-.0201.6231h.75l-.01-.6231v-7.367c0-.4249.3799-.7718.8399-.7718h.07c.4601 0 .6999.3739.7101.7988l.1299 7.34c.01.8362-.5301 2.3241-2.1099 2.3241-1.5902 0-2.1303-1.4879-2.1101-2.3241l.1499-7.446c0-.425.2302-.6928.69-.6928"/><path fill="#be2619" d="M18.74475 6.4401c6.6501 0 12.0501 5.3961 12.0501 12.049 0 4.517-2.4899 8.454-6.1699 10.516l-.2199-.4301c3.5198-1.9819 5.9-5.756 5.9-10.0859 0-6.3851-5.18-11.5631-11.5603-11.5631-6.3898 0-11.5698 5.178-11.5698 11.5631 0 4.3869 2.45 8.2049 6.0499 10.1639l-.2899.3912c-3.7199-2.052-6.24-6.0092-6.24-10.5551 0-6.6529 5.4001-12.049 12.0498-12.049"/><path fill="#be2619" d="M21.93495 29.3682c0-.2342-.0199-.398-.0499-.4921-.04-.1131-.1199-.169-.2299-.169l-.0802.008-.0598.0309-.0102.0572c-.01.1109-.0199.182-.0199.2138 0 .3021.0199.5071.0499.6151.04.108.1001.1621.2001.1621l.1701-.123c.0198-.0541.0298-.1551.0298-.303m.4803-1.5971v.078c-.2102.038-.3702.1049-.5002.201-.18.1321-.2999.3231-.37.5731l.1401-.0431.1599-.008c.15 0 .2699.04.3698.1199.1402.11.2102.2809.2102.5111 0 .1378-.04.2699-.1301.396-.1299.184-.3198.2758-.5698.2758-.1902 0-.36-.0578-.4901-.174-.1701-.1559-.2599-.3949-.2599-.7169 0-.2991.1199-.5579.35-.7781.26-.2478.6299-.3929 1.0901-.4349zm-2.74.5069c0 .2341.0197.4031.0597.5062.04.1029.1101.1548.2201.1548l.09-.0108.05-.032.02-.1151.01-.1519c0-.3022-.0198-.5071-.0498-.6151-.0301-.108-.1001-.1619-.2002-.1619-.0897 0-.1499.0408-.1699.123-.0201.0539-.0298.1548-.0298.3028zm-.4803 1.597v-.0779c.21-.038.3702-.1041.5-.1979.1701-.1321.3002-.326.3802-.5822l-.1499.0462-.1503.01c-.15 0-.2798-.0391-.3799-.1191-.14-.11-.2101-.2809-.2101-.5108 0-.138.0399-.2701.1302-.396.1298-.1842.32-.2761.58-.2761.1899 0 .35.0579.4799.1741.17.1559.2599.3948.2599.7169 0 .2979-.1199.5581-.3497.7781-.2603.248-.6203.3929-1.0903.4348zm-1.4-.5099c0 .1159.03.214.0802.2939.0499.0802.1298.1202.2299.1202.1198 0 .2101-.0482.25-.144l.04-.2072c0-.11-.0499-.2089-.1301-.2968-.0599-.0522-.1599-.123-.3001-.2132-.0798.1041-.1297.184-.1399.241zm.3801-1.594c.22 0 .3901.0511.5.1531.08.078.1199.1718.1199.2818 0 .1122-.0499.206-.1499.282-.0701.0542-.1702.0992-.29.1352.1499.0819.2699.1729.3501.273.0898.1148.14.2378.14.3699 0 .186-.07.3339-.21.4439-.1401.11-.32.165-.55.165-.1902 0-.35-.0419-.4702-.1259-.1398-.0921-.2098-.2179-.2098-.3781 0-.144.0499-.2608.16-.3509.0798-.0641.1898-.1171.3199-.1571-.1301-.072-.2401-.1488-.3101-.231-.0899-.0998-.14-.2089-.14-.3268 0-.1522.0601-.2761.18-.3722.1301-.108.3101-.1619.5601-.1619m-.32.33c0 .0941.0399.1831.1301.267.0699.076.1698.1429.29.201l.1-.1381.0401-.2069c0-.1001-.0202-.18-.0503-.2401-.0498-.0839-.1298-.1258-.2398-.1258l-.1902.0739zm-.9 1.6631v.072h-1.2201v-.072c.1701 0 .29-.0261.3402-.078.0298-.036.0499-.11.0499-.2222v-1.156l-.0201-.1318-.11-.0751-.0998.021-.1602.0541v-.0782l.8101-.3269h.0599v1.711c0 .11.0201.182.0502.216.0499.044.1499.0661.2999.0661"/><path fill="#be2619" d="m32.79505 17.4672.0799.0119.0201.1531.08.0938.9502.786.6198.0871c.1299.0181.2101.009.26-.0289.0301-.0301.0601-.108.0899-.2362l.0802.0122-.1602 1.1628-.0799-.0119c0-.1321-.01-.2149-.03-.25-.0301-.0519-.11-.0871-.2399-.1049l-.4901-.0692-1.1999.457-.0802.0331-.14.2089-.0801-.0119.1501-1.123.0901.0119c-.0201.1162-.0201.1921-.01.2262l.0799.0609.1001-.019.0998-.0351.8402-.292-.5701-.4598-.1301-.0921-.1698-.0819-.1201.0569-.0599.2039-.0902-.0119zm1.5899 3.9889.0802.0241-.35 1.156-.0799-.025c.0399-.1273.0498-.214.0297-.2602-.0199-.057-.0998-.1049-.2299-.1448l-1.7099-.5211c-.0502.1611-.06.2929-.0401.396.0501.1659.1799.2971.4001.3949l-.03.0941-.6501-.208.59-1.9421.6599.1919-.0298.0942c-.2401-.0411-.4201-.006-.54.1071-.0901.072-.1501.1879-.2001.347l1.7099.5218c.1301.04.2202.0431.2701.009.04-.0269.08-.106.1199-.235zm-.8098 2.5231.0799.0309-.4499 1.099-.07-.032c.0401-.1369.0498-.2279.0298-.271l-.1398-.1111-1.5202-.6129-.22.0139c-.0399.0332-.0799.095-.1199.1871l-.0799-.0309.4499-1.099.0799.0318c-.04.0941-.0599.1661-.0599.2171.0101.0751.0599.1321.16.1709l1.5199.614.2201-.01c.0401-.034.0802-.1001.1201-.1979zm-2.2502 1.3938-.04.0842c-.1598-.036-.3098-.0402-.4498-.009-.2001.042-.3402.1421-.4201.2991-.04.0859-.0601.1729-.04.2628.01.0901.0601.159.1599.208l.22.04c.07-.0159.1601-.0689.2901-.1599l.45-.3231c.0799-.0559.1702-.0919.2801-.11.1598-.0258.3099-.0009.4497.074.1603.0842.2603.2112.3201.3821.0701.212.0401.443-.0898.6919-.0502.095-.11.1772-.1701.2461l-.2.2109-.0101.0742.0602.0689-.04.087-.7401-.3931.0399-.0859c.2002.0589.3802.074.54.0451.1902-.036.3402-.1421.43-.3181.0601-.119.08-.2279.0503-.326-.0301-.0981-.0903-.174-.1904-.2259l-.2697-.0252c-.0601.0221-.1501.0771-.2702.1661l-.1998.1491c-.2302.165-.4301.25-.6001.2548-.1001.002-.2101-.0258-.3201-.0839-.1899-.1009-.2999-.2469-.3398-.4391-.0302-.1658 0-.3438.11-.5349.0498-.0941.1098-.1831.1998-.2681.0901-.0848.14-.1338.14-.146v-.1018l-.0399-.049.0399-.089zm.04 2.8732.0601.053-.43.54-1.27-.1221-.0501.0711.5102.417c.0998.0799.18.1139.2299.104.0498-.008.11-.055.2001-.1392l.07.053-.72.889-.07-.053c.07-.1089.0998-.182.0998-.22 0-.0578-.05-.127-.1499-.2078l-1.1698-.9411c-.1003-.085-.1903-.1219-.25-.108l-.1801.1429-.0602-.053.6801-.847c.2001-.2418.3901-.3929.5701-.455.18-.0621.3501-.032.5.0882.14.1139.21.254.1998.4189 0 .0919-.03.2109-.0899.3581l1.1801.0788.0799-.017zm-2.45-.07.6701.5428c.15-.1819.2299-.324.2299-.4249 0-.121-.0799-.248-.2398-.3821-.1302-.106-.25-.1579-.3501-.155-.1001.002-.2001.0581-.2901.1672l-.0798.144zm-2.7099 2.255-.0601-.0661 1.5203-1.2291.4299.529-.07.053c-.1701-.1548-.3302-.2228-.4802-.207-.1199.0142-.2798.099-.47.2552l-.14.1459.0399.1341.5.61c.1302-.1102.2101-.2131.2303-.3101.0197-.1151-.0202-.2571-.1201-.4269l.06-.0561.72.8889-.0601.055c-.15-.144-.2699-.2188-.3897-.2228-.1102-.005-.2303.0488-.3703.1608l.5202.6372.14.0788.1998-.1108c.15-.1262.26-.256.3102-.3901.0701-.1769.0701-.3889 0-.635l.0701-.06.3397.6321-1.5399 1.2458-.05-.066.14-.1749-.0601-.199-1.0298-1.2731-.2001-.102zm-.5.1868.0399.0762-.14.1488c-.0199.0482-.0199.127-.01.2362l.2199 2.12-.0898.0419-1.6899-1.413-.1801-.1111-.1799.0292-.0401-.0752 1.0199-.5159.0299.0749c-.0999.053-.1699.0961-.1898.127v.1312l.0999.11.1201.104.8799.7518-.1199-1.188-.0201-.1398-.0301-.0992c-.04-.0918-.15-.0938-.3299-.006l-.0301-.076zm-1.99 3.2992.0199.0808-1.1398.3271-.0202-.0819c.1301-.0522.2101-.0992.2301-.1412l.0101-.1769-.4601-1.5749c-.0199-.0952-.0701-.1511-.15-.1672l-.21.0241-.0302-.082 1.1402-.3259.0201.081c-.0901.0278-.1601.059-.2001.093-.0499.0519-.07.127-.04.2268l.45 1.5741c.0299.0941.0802.1491.1501.1669.0499.0131.1299.005.2299-.0238m-4.38.8609-.0101-.0839c.11-.0241.1801-.0491.2103-.0771.0498-.04.0699-.1131.0598-.2191l-.1399-1.5979c-.1-.1001-.1701-.1642-.21-.1919l-.1001-.0261v-.0839l.7101-.0621 1.29 1.3371-.0802-1.0222c-.01-.1139-.03-.1939-.0799-.2378-.0499-.0561-.1301-.0791-.26-.068l-.01-.0851.72-.0629.01.0839c-.1098.0241-.1799.0559-.2099.097-.03.0411-.03.106-.03.1961l.1799 1.986-.1.008-1.66-1.696.11 1.349c.0102.1219.04.2019.09.2421.05.0408.1301.0618.2601.0638l.01.0842zm-.75-2.304-.0101.0839c-.1001.007-.17.0241-.21.0502-.04.0368-.07.108-.0799.214l-.0899 1.0749c-.0102.1171-.0402.229-.07.337-.0502.1341-.11.233-.18.2971-.0802.0788-.2001.1329-.3302.165-.1199.0258-.2299.034-.3498.0229-.11-.01-.2201-.03-.3101-.0609-.15-.0471-.2699-.1171-.36-.2112l-.1501-.231c-.0399-.0958-.0399-.2288-.0299-.3989l.1-1.127c.01-.1281 0-.214-.0499-.258-.0202-.03-.0901-.055-.2001-.0759l.01-.0842 1.1401.0992-.01.085c-.1301-.011-.21-.004-.25.0219-.0601.036-.0902.1221-.1001.259l-.1 1.126c-.0199.2321 0 .4031.07.513.07.11.1898.173.3501.1871.2599.023.44-.0572.5499-.2372.0601-.1018.1-.2489.1199-.442l.0901-1.0278c.01-.1171 0-.2001-.03-.248-.05-.0641-.1302-.1032-.2699-.1151l.01-.0839zm-7.0901.6009.03-.0791c.11.0273.1902.0341.2302.0222.0598-.017.0998-.0749.14-.1749l.5498-1.5072c-.05-.1318-.0798-.22-.1098-.2639l-.08-.0641.0298-.0788.6701.2438.6101 1.76.3599-.9609c.04-.1089.0498-.1911.0301-.2481-.0202-.0728-.0902-.1309-.2101-.1749l.0301-.0799.68.2489-.0301.0799c-.1099-.0269-.1899-.0269-.2301-.0008l-.1099.165-.6799 1.8728-.09-.032-.7901-2.2388-.47 1.2699c-.04.1139-.0499.2001-.0201.2551.0201.057.0901.1128.21.1698l-.0301.0791zm-1.81-2.15.5301.388.2102-.8648zm.94 1.5732-.0399.068-.8901-.644.0501-.0692.1899.106.1001-.053c.0301-.0348.0601-.1049.0899-.2089.0102-.0439.03-.127.0503-.2469l-.6101-.4481c-.12.0751-.2101.1329-.2702.1749l-.11.0909v.1543l.14.1269-.0498.0681-.5603-.4042.0503-.0678.2299.025c.0499-.0162.14-.0661.2701-.15l1.7-1.059.0799.055-.4399 1.8839c-.0502.2049-.0699.3401-.0699.4039zm-.9499-3.405-.07.0559-.18-.1029-.21.1-.8.722c-.0901.078-.18.1449-.28.199-.1199.0658-.2299.0989-.33.0969-.1199-.001-.2401-.0371-.3601-.1071-.0999-.0578-.1898-.133-.27-.2228l-.19-.256c-.07-.136-.1099-.2681-.1099-.3971 0-.112.01-.203.0399-.273.0502-.0921.1301-.1959.26-.311l.8402-.756c.0898-.0861.14-.159.14-.2199l-.1001-.195.07-.0562.76.8501-.0601.057c-.0898-.0941-.1499-.146-.1998-.155-.0701-.0131-.15.0269-.25.119l-.8402.756c-.1698.1559-.2699.2979-.2999.4269-.0199.129.0201.2551.1301.377.1799.1911.36.258.57.2001.1099-.0331.2398-.1139.38-.244l.77-.69.1397-.2041c.0202-.0759-.0198-.1649-.1099-.267l.0601-.057zm-3.78-.985-.0799.0439-.5903-.987.0701-.0431c.07.091.1301.146.1602.1641l.2101-.0269.6597-.4011-.42-.699-.6599.4011-.1199.1698c0 .0422.0199.1131.0698.2151l-.08.0431-.5799-.9782.07-.0428.11.1289.2401-.006 1.4099-.8442.1199-.176c0-.04-.0198-.104-.0597-.1939l.0699-.0439.5899.9779-.0799.0431-.1301-.159-.2299.0218-.6001.3611.4201.6991.5998-.3612.1202-.1349c.0199-.0621-.0102-.1451-.07-.25l.07-.0431.5899.9862-.07.0439-.1299-.155-.2301.0229-1.4001.8442-.12.165c0 .0428.0202.1139.0701.214zm-1.3501-3.3032-.04.1241c-.1999-.0819-.36-.1701-.47-.263-.14-.1211-.2399-.277-.3098-.47-.1202-.358-.11-.6809.04-.97.14-.2679.3699-.4561.6899-.565.33-.1131.6401-.102.9301.0329.2901.1341.4898.3691.61.7041.03.0961.0499.2021.0499.3189v.3532l.0799.078.1202.019.0298.0859-.7498.2579-.03-.0799c.1499-.1231.2599-.2651.3399-.4261.0999-.199.1201-.3798.06-.5448-.0701-.2151-.2298-.3362-.47-.3631-.2002-.0221-.46.0201-.7598.1261-.1402.0448-.2601.0978-.3703.1579-.1199.059-.2098.1341-.29.222-.0598.072-.11.1559-.1298.2511-.0202.1179-.0202.2288.0198.332.0502.134.1202.248.21.3418.1099.1052.2501.197.44.277m-1.3198-2.8389-.08.0119-.17-1.173.0898-.0119c.0301.1389.0601.2231.1001.252l.18.0269 1.62-.229c.1001-.0128.1601-.055.1899-.125.0201-.0479.0201-.1208 0-.22l.0901-.0119.1599 1.1741-.08.0108c-.0199-.0998-.0399-.171-.0699-.2129-.04-.0621-.11-.0859-.2101-.072l-1.6299.2279-.18.1182c-.0202.051-.0202.129-.01.2339zm1.2098-2.384-.01-.0949c.1601-.0482.29-.1231.3901-.2231.1499-.1369.2199-.294.21-.472-.0102-.0969-.04-.18-.1001-.2489-.0601-.0691-.14-.1012-.2401-.0961l-.2101.0811c-.0498.0488-.1099.1449-.1698.288l-.2199.51-.1902.2358c-.1199.104-.2599.1602-.4198.1681-.1801.01-.33-.0439-.47-.161-.1701-.1449-.2602-.358-.2801-.6401 0-.108 0-.208.0199-.301.0201-.0919.0403-.1868.07-.2829l-.04-.0649-.08-.0301-.01-.0981.83-.0439.01.0981c-.1999.051-.36.1298-.48.235-.1499.1329-.2199.2979-.21.4958.01.1352.0499.2381.1301.3069.0698.0701.1599.1012.2699.0961.11-.006.1899-.045.25-.1179.04-.0502.0899-.144.15-.2829l.0901-.231c.11-.2571.2397-.432.3798-.525.0902-.055.19-.085.3201-.0913.21-.0119.3901.0553.5201.1993.1099.125.1698.296.18.512.01.106 0 .2179-.03.3359-.0401.1179-.0502.1839-.0502.1981l.0601.0848.0602.0201v.102z"/><path fill="#be2619" d="M120.13495 26.1472v.1108c-.1301.0181-.2301.057-.2999.1171-.1.083-.2602.3109-.4803.682l-.8698 1.4629v.9771c0 .209.01.3391.03.3901l.1299.1329c.07.04.1502.059.2602.059h.2199v.11h-2.26v-.11h.21c.1199 0 .2101-.021.2801-.0629l.1198-.144c.0301-.0462.0401-.1712.0401-.3751v-.8109l-.9498-1.7312c-.1903-.3418-.3301-.5419-.4001-.6029-.0802-.0609-.18-.091-.3101-.0941v-.1108h1.9301v.1108h-.0802c-.1198 0-.1999.017-.25.051l-.07.1072c0 .0708.0802.2508.2401.5388l.7298 1.3391.7303-1.22c.18-.2979.2697-.4949.2697-.593l-.0798-.133c-.0699-.0501-.1899-.079-.3699-.0901v-.1108zm-4.86 0v1.095h-.11c-.06-.2531-.1301-.434-.2099-.544-.08-.1111-.19-.199-.3201-.2642-.08-.036-.2101-.053-.4-.053h-.3v3.1161c0 .207.01.336.0401.3881l.1297.1349c.0701.04.1602.059.2702.059h.1401v.11h-2.1201v-.11h.1401c.1099 0 .21-.021.2801-.0629l.1198-.144c.0199-.0462.0301-.1712.0301-.3751V26.381h-.29c-.2701 0-.47.0561-.5902.1721-.1698.161-.28.3909-.3299.6891h-.11v-1.095zm-4.3001 3.9319v.11h-2.1099v-.11h.1298c.1203 0 .2203-.021.2901-.0629l.1201-.144c.0199-.0462.03-.1712.03-.3751v-2.658c0-.2061-.0101-.3351-.03-.3869l-.14-.1361c-.0601-.038-.1499-.0581-.2702-.0581h-.1298v-.1108h2.1099v.1108h-.1298c-.1202 0-.2101.021-.29.0621l-.1202.144c-.0199.0479-.0298.1729-.0298.375v2.658c0 .207.01.336.0298.3881l.14.1349c.07.04.15.059.2702.059zm-3.0699-4.0229.0399 1.347h-.1297c-.0503-.3382-.1903-.6092-.4202-.8161-.2299-.2049-.47-.3081-.7299-.3081-.2002 0-.36.0541-.4802.1621-.1199.1089-.18.233-.18.375l.0601.2379c.0601.0932.1499.1862.2801.2761.0898.0669.3098.1819.6499.3489.4699.2341.79.453.9499.6602.1701.2058.25.4419.25.7089 0 .3371-.1297.6279-.3999.8711-.26.243-.5899.3648-1.0001.3648-.1298 0-.25-.013-.36-.0379-.11-.0261-.2599-.0749-.43-.1469l-.2299-.0592-.1702.0592-.1399.1829h-.1101v-1.5259h.1101c.0901.4289.2602.756.5102.9808.2498.2262.5199.339.8.339.2299 0 .3999-.061.5401-.182.1297-.121.1997-.2628.1997-.4229 0-.0961-.0299-.188-.0799-.2781-.0499-.089-.1301-.1738-.2299-.254-.11-.0808-.29-.1859-.5502-.3149-.3699-.1809-.6299-.3339-.7901-.4609-.1597-.127-.2899-.2702-.37-.4272-.0897-.1559-.1297-.3288-.1297-.5179 0-.322.11-.597.3498-.8229.2402-.2262.54-.339.8999-.339.1302 0 .25.015.3802.047.0899.0238.1999.0678.3399.133.13.0637.2303.0969.2801.0969l.12-.0479c.0299-.0312.06-.108.0802-.229zm-5.9499.3089v1.77h.17c.2699 0 .4799-.0241.6199-.0751.1299-.051.24-.142.3202-.275.0798-.1318.1198-.3039.1198-.517 0-.3079-.08-.5349-.2201-.682-.1399-.148-.3698-.2209-.7-.2209zm0 1.982v1.133c0 .2189.01.3561.0399.4119l.14.1361c.0701.034.19.051.3799.051v.11h-2.0699v-.11c.18 0 .3101-.017.3799-.053l.14-.1349c.0299-.0562.04-.1922.04-.4111V26.857c0-.218-.0101-.3549-.04-.4131l-.14-.1349c-.0698-.034-.1999-.051-.3799-.051v-.1108h1.88c.4799 0 .8399.0348 1.07.102.22.0669.4099.1919.55.3739.1499.182.2199.3949.2199.6389 0 .2979-.11.5451-.32.7402-.14.123-.33.216-.58.2769l.9701 1.368c.13.1769.2199.2869.2701.33.08.062.1799.096.29.102v.11h-1.2802l-1.3-1.842zm-4.3403-1.9661v1.6441h.0802c.2601 0 .4401-.0799.56-.2409.11-.1602.1899-.398.2199-.7121h.11v2.1161h-.11c-.0198-.2311-.07-.419-.1499-.5672-.08-.1469-.1701-.2458-.2699-.2968-.1-.0502-.25-.0751-.4403-.0751v1.1381c0 .2228.0103.358.0302.4079l.1099.1219c.0502.0331.1301.0481.2501.0481h.24c.37 0 .6801-.087.91-.2619.2199-.1752.39-.441.4901-.7991h.11l-.1902 1.285h-3.4899v-.11h.1399c.11 0 .21-.021.2799-.0629l.1203-.144c.0199-.0462.0298-.1712.0298-.3751v-2.658c0-.1831 0-.2951-.01-.337l-.11-.1599c-.08-.0561-.1799-.0842-.3101-.0842h-.1399v-.1108h3.3799v1.1959h-.11c-.0598-.292-.14-.502-.2398-.629-.11-.127-.25-.2211-.4502-.2801-.1099-.036-.3098-.053-.6199-.053zm-2.0297-.2338v.1108c-.1501.0241-.2801.102-.3901.235-.0899.1001-.21.3331-.37.701l-1.4 3.0881h-.0901l-1.3899-3.2131c-.17-.3869-.28-.6148-.3402-.682-.0498-.0678-.1598-.1109-.3199-.129v-.1108h1.94v.1108h-.0598c-.18 0-.3003.0221-.36.0652l-.07.1318.0198.127c.0201.0482.07.1791.1602.392l.8699 2.0112.79-1.7912c.1001-.216.16-.362.18-.4348l.0301-.188-.0501-.1581-.1299-.1041c-.0902-.034-.2001-.051-.3402-.051v-.1108zm-4.7901 3.9319v.11h-2.1101v-.11h.1301c.1199 0 .2101-.021.2801-.0629l.1198-.144c.0301-.0462.0401-.1712.0401-.3751v-2.658c0-.2061-.01-.3351-.0401-.3869l-.13-.1361c-.0598-.038-.1599-.0581-.2699-.0581h-.1301v-.1108h2.1101v.1108h-.1301c-.1199 0-.2199.021-.29.0621l-.1199.144c-.02.0479-.0301.1729-.0301.375v2.658c0 .207.0101.336.0301.3881l.1401.1349c.0598.04.1499.059.2698.059zm-5.43-3.9319 2.0001 2.5069v-1.7379c0-.2421-.0402-.4051-.11-.4912-.0901-.1148-.25-.171-.4802-.167v-.1108h1.3399v.1108c-.1698.0221-.2899.0502-.3497.085l-.1301.1701c-.0399.078-.0499.2129-.0499.4031v3.3659h-.1001l-2.74-3.3659v2.5699c0 .2319.0599.3889.1599.47.11.0819.2302.123.3702.123h.0899v.11h-1.4301v-.11c.22-.002.3801-.0479.4601-.1369.0901-.0902.14-.2412.14-.4561v-2.8519l-.0901-.108c-.0899-.1072-.1599-.1772-.23-.2112-.06-.034-.1598-.053-.28-.057v-.1108zm-6.09 0h2.09v.1108h-.1c-.1599 0-.2699.017-.33.049l-.1198.1361c-.0302.057-.0401.2021-.0401.432v1.978c0 .362.0298.601.08.7189.0598.1171.1499.214.2698.2919.1301.0783.2801.1163.4802.1163.2098 0 .4-.0482.5499-.1471.1599-.099.2699-.2339.3501-.4071.08-.1729.11-.474.11-.9028v-1.6481c0-.1811-.02-.3101-.0502-.3881l-.1499-.1598c-.0799-.0462-.2101-.0692-.37-.0692v-.1108h1.3899v.1108h-.0801c-.1098 0-.2099.023-.2799.0692-.0801.0447-.1299.1128-.1698.2049-.0201.0641-.04.178-.04.343v1.535c0 .475-.03.818-.0901 1.0281-.0601.2109-.2101.4039-.4601.5808-.2399.1772-.5701.265-.9899.265-.3501 0-.6199-.0459-.8101-.14-.2599-.127-.4399-.29-.55-.4878-.1099-.2002-.1598-.466-.1598-.8031v-1.978c0-.2319-.0102-.3759-.0402-.434l-.1398-.1349c-.0601-.034-.1801-.0491-.3501-.0482zm-4.5501 0 1.9902 2.5069v-1.7379c0-.2421-.0301-.4051-.1001-.4912-.1001-.1148-.2599-.171-.4799-.167v-.1108h1.33v.1108c-.1701.0221-.2801.0502-.3401.085l-.14.1701c-.0301.078-.05.2129-.05.4031v3.3659h-.0999l-2.7303-3.3659v2.5699c0 .2319.0503.3889.1603.47.0997.0819.2199.123.36.123h.0998v.11h-1.44v-.11c.2301-.002.3801-.0479.4702-.1369.09-.0902.1299-.2412.1299-.4561v-2.8519l-.0899-.108c-.0802-.1072-.1602-.1772-.2201-.2112-.0699-.034-.16-.053-.2901-.057v-.1108zm-3.7999 2.6708-.6001-1.3918-.6198 1.3918zm.1001.2202h-1.4203l-.1698.3937c-.06.1313-.0899.2393-.0899.324 0 .1151.0498.1982.1399.2512.0499.032.1899.0561.4.072v.11h-1.3499v-.11c.1499-.0221.2699-.0819.36-.1811.0899-.0978.2097-.3008.3497-.6089l1.4401-3.225h.0601l1.4499 3.314c.1402.3149.26.5119.3501.593.07.0621.1599.0981.28.108v.11h-1.9499v-.11h.08c.1597 0 .2698-.0221.3299-.066l.07-.137-.0201-.1099c-.01-.0182-.04-.093-.0899-.224zm-7.1002-2.891h2.08v.1108h-.1c-.1599 0-.2699.017-.33.049l-.1198.1361c-.0301.057-.0401.2021-.0401.432v1.978c0 .362.03.601.08.7189.0601.1171.1499.214.2701.2919.1298.0783.29.1163.4799.1163.2199 0 .4-.0482.5599-.1471.1502-.099.2603-.2339.3401-.4071.0799-.1729.1199-.474.1199-.9028v-1.6481c0-.1811-.0198-.3101-.0598-.3881l-.1399-.1598c-.0903-.0462-.2201-.0692-.3802-.0692v-.1108h1.39v.1108h-.0799c-.1102 0-.21.023-.28.0692-.08.0447-.13.1128-.1701.2049-.0201.0641-.0301.178-.0301.343v1.535c0 .475-.04.818-.1 1.0281-.0598.2109-.2098.4039-.4598.5808-.2402.1772-.5701.265-.9902.265-.3501 0-.6198-.0459-.8098-.14-.2602-.127-.4402-.29-.5503-.4878-.11-.2002-.1598-.466-.1598-.8031v-1.978c0-.2319-.01-.3759-.04-.434l-.1301-.1349c-.07-.034-.18-.0491-.35-.0482zm-3.53 2.099v1.2509c0 .207.0102.336.03.3881l.1401.1349c.06.04.1499.059.2701.059h.1298v.11h-2.1098v-.11h.1299c.1201 0 .21-.021.28-.0629l.1199-.144c.03-.0462.04-.1712.04-.3751v-2.658c0-.2061-.01-.3351-.04-.3869l-.1298-.1361c-.0601-.038-.1602-.0581-.2701-.0581h-.1299v-.1108h2.1098v.1108h-.1298c-.1202 0-.22.021-.29.0621l-.1202.144c-.0198.0479-.03.1729-.03.375v1.1449h1.4301v-1.1449c0-.2061-.0199-.3351-.04-.3869l-.1301-.1361c-.07-.038-.1599-.0581-.2699-.0581h-.1301v-.1108h2.1101v.1108h-.13c-.12 0-.2201.021-.2901.0621l-.1199.144c-.0201.0479-.03.1729-.03.375v2.658c0 .207.01.336.03.3881l.1301.1349c.0698.04.1599.059.2799.059h.13v.11h-2.1101v-.11h.1301c.1199 0 .2101-.021.2801-.0629l.1199-.144c.0201-.0462.04-.1712.04-.3751v-1.2509zm-2.31-2.19v1.4h-.12c-.0798-.3651-.25-.6452-.4798-.8402-.2401-.195-.5102-.2928-.8201-.2928-.25 0-.4801.0728-.6899.218-.2101.146-.36.3347-.4601.57-.1301.2999-.19.6339-.19 1.0009 0 .3609.05.69.1399.9879.0901.2971.2301.521.43.673.1902.1522.4402.227.75.227.26 0 .4901-.0538.7002-.1658.21-.1111.4399-.3022.6698-.5752v.349c-.22.2361-.4598.4082-.7098.5142-.2401.106-.5301.1599-.8601.1599-.4299 0-.8101-.0871-1.14-.26-.3399-.1729-.6001-.4209-.7801-.7449-.18-.324-.2699-.669-.2699-1.0341 0-.3861.1001-.7509.2999-1.097.2002-.345.47-.614.8201-.8039.3399-.1911.6999-.286 1.0899-.286.2801 0 .58.0609.8999.1839.1801.0709.3003.108.3501.108l.16-.07c.0501-.047.0802-.121.09-.2219zm-4.5197 4.0229v.11h-2.1101v-.11h.13c.12 0 .21-.021.29-.0629l.1099-.144c.0301-.0462.04-.1712.04-.3751v-2.658c0-.2061-.01-.3351-.04-.3869l-.1302-.1361c-.0597-.038-.1497-.0581-.2697-.0581h-.13v-.1108h2.1101v.1108h-.1302c-.1198 0-.2101.021-.29.0621l-.1199.144c-.0201.0479-.0301.1729-.0301.375v2.658c0 .207.01.336.0301.3881l.14.1349c.0598.04.1501.059.2699.059zm-3.0704-4.0229.0403 1.347h-.1301c-.0499-.3382-.1899-.6092-.42-.8161-.23-.2049-.4701-.3081-.73-.3081-.2001 0-.3699.0541-.4799.1621-.1202.1089-.18.233-.18.375l.0598.2379c.06.0932.15.1862.2801.2761.0901.0669.3101.1819.6501.3489.4698.2341.7899.453.95.6602.1698.2058.2498.4419.2498.7089 0 .3371-.1398.6279-.4.8711-.2599.243-.5998.3648-.9998.3648-.1301 0-.25-.013-.36-.0379-.11-.0261-.2602-.0749-.43-.1469-.0901-.0391-.1701-.0592-.2303-.0592l-.1698.0592-.1399.1829h-.1101v-1.5259h.1101c.0899.4289.2599.756.5099.9808.2502.2262.5199.339.8.339.2299 0 .4-.061.54-.182.1301-.121.1899-.2628.1899-.4229 0-.0961-.0199-.188-.07-.2781-.05-.089-.1298-.1738-.2299-.254-.11-.0808-.29-.1859-.5499-.3149-.3702-.1809-.6303-.3339-.79-.4609-.1701-.127-.29-.2702-.3702-.4272-.0899-.1559-.1298-.3288-.1298-.5179 0-.322.1099-.597.35-.8229.2398-.2262.54-.339.8898-.339.14 0 .2602.015.3902.047.09.0238.2.0678.34.133.1298.0637.2299.0969.2798.0969l.1201-.0479c.0301-.0312.0599-.108.08-.229z"/><path fill="#be2619" fill-rule="evenodd" d="M114.54505 8.4451c-.01.4181.41.4671.4499.9348.0201.7113-.0399.8303-.0399 1.4542-.2901.3889-.2701 1.1469-.2099 1.8111.19.525.7898.792 1.19-.218.0598-.589.01-1.0741-.1401-1.4562.0199-.415.05-.8339.0701-1.2469.0198-.415.15-.832-.0102-1.249-.3498-.8611-.9598-.7789-1.1499-.642-.2701.176-.2399.2619-.16.612m1.4899 4.79c-.36.1431-.7299.3461-1.09.4751-2.37 1.434-2.83.7029-3.5 1.44-.1898.549.4202 1.4918 2.1202.7149.3498-.245.6198-.5049.93-.722.2398-.1761.3399.121.8898-.4031.29-.2809.61-.434.9601-.631.87-.487.6298-.7759 1.8302-1.0769 1.0298-.2579 2.2697-.5941 2.1998-.0159-.28.2818-.4399.7129-.53.9519.3001.1449 1.5601.2761 1.9499-.2789-.22-.9672-.25-1.408-.7298-1.5752-.19-.0638-.4301-.341-.7102-.347-.1698-.003-.36.2412-.5697.2591-.1103.009-.2302.0281-.3501.0439-.1202.017-.1701-.1409-.3002-.1148.1202-.5831.4901-1.148 1.04-1.942.2801-.7452-.2699-.4481-.4099-.6732-.1599-.2928-.2001-.7968.1199-1.1449l.4201-.3039c.4201-.148.58-.4261.68-.8291-.2999-.557-.4901-.0261-.9099-.442l.36-.8509c.0297-.4981-.07-.832-.5901-1.131-.22.0119-.4099.1298-.5301.3758-.2999.5281 0 .8762-.1599 1.876-.32.4581.1701.6282-.7298 1.294-.5702.2401-.4701.955.3899.472.1101.0921.15.1842.0899.2971-.15.303-.5001.5289-.7801.9059-.1599.199.0503.491-.19 1.3782-.0999.4068.2899.508.0399.9468-.25.229-.5.227-.7298.2982-.2299.1239-.19-.527-.04-1.2121.15-.6871.4201-1.417.4301-1.4471.01-.193-.1202-.593-.5301-.0309-.1701.3699.03.6321-.1199.9471-.2002-.11-.3002-.4882-.22-1.0472.1298-.9348.9998-2.3229.55-3.1149-.4601-.785-.7701-.4621-.9602.265-.1899.76.1301.758.1001 1.1639-.07.8371-.4799 1.912-.3501 2.992.0601.5332-.1698 1.1401-.11 1.4442.1701.4218.4901.349.04.7929m1.3402 2.1461-1.0701.6848c-1.33.3181-1.1101-.898-.2199-1.167.4099-.0649.6998-.4368 1.0499-.606.4399-.218.9399-.2469 1.5801.282.0498.7532-.1701.934-.5701 1.334-.2999.43-.2401.6151.2299.8881.4601-.1471 1.0503-.1979 1.51-.1341 1.15.807.18 1.489-.3699 1.4491l-.4099-.2979c-.2802-.1242-.5601-.0922-.83.0969.18 3.047-.7302 2.7561-1.1701 3.5501-.5301.938-1.01.959-1.3201.1349-.47-.036-.8-.2029-.79-.6579-.2398-.191-.4597-.5652-.3399-.8081.1302-.3739.8501.013 1.3201.2029.9997.6092 1.0998-.489 1.5199-.9879l-.11-1.072c-.4698-.4989-1.0699.7381-2.3799 1.076-1.3.0661-1.55-.9521-1.12-1.4269.5199-.144 1.0401-.1061 1.5598-.2481.45-.1241.91-.4359 1.3702-.5629l.0699-.6582zm-23.76 3.1598.4799-.046c.9499-.9688 1.7299-1.9179 2.3001-4.058-1.7201.445-2.53-.4068-2.7701-1.4148.0499-.614.0499-1.0162.7801-.9941 1.1799.864 2.0398-.055 2.9399-.0689.3698-.8762.5399-1.4312.6301-2.1473.0799-.5567-.1001-1.2378.03-1.8099.51-.46 1.3899-.542 1.6898.65-.1298.8331-.4701 1.6651-.9499 2.4951.01.305.2298.4019.65.2891.9099-.4331 1.7802-1.114 2.4599-.091-.33 1.1588-2.34.851-3.5198 1.8678-.8201 3.4622-2.1502 4.513-3.2 5.4782-.4802.4399-.6101 1.1098-1.1703 1.533-1.3098.4359-1.6499-.2841-1.1796-1.222.0399-.747.5399-.8632.8299-.4612m4.97-1.842c.1899-.2619.5698-.159.8799-.104.6701.119.5301.936 1.8099 1.2991.8702.6151 1.37 1.6841.36 2.397-1.5199.163-2.0398-.4689-2.3899-1.8479-.39-.451-.69-1.1622-.6599-1.7442m-24.1801-4.877c-.5801-.8878-.3501-2.1628 1.4199-.913.4102 1.1562-.0598 2.196-.18 2.9982-.2 1.3178-.4 2.3349-.5499 3.414-.1001.737.0799 1.4029-.26 2.3159-.61.6401-1.04.402-1.2998-.4019.0397-.5432.39-.8272.5897-1.241.51-1.442.7501-5.4151.2801-6.1722m3.0501-.5409c-.07.453-.0301.7419.3399 1.3859.1199 1.0562.1302 2.1402-.0301 3.2681-.2398.6491.93.803 1.2101.2299l.1899-2.67c-.3398-.2548-.0598-.5258.1301-.883l-.07-1.04c-.86-1.1608-1.2699-.847-1.7699-.2909m3.5498-4.075c-.1599.21-.0799.4759-.0799.6499.0398 1.1192.4501-.0459.5899 2.145.03.5542-.01 1.3711-.0199 2.4701 0 .1449-.0798.43-.0798.5851-.0103 1.0959.0596 2.3159-.0202 3.943l.3999 3.191c.44.3639.5001.3018.8201-.127-.1701-1.9792-.51-4.095-.5-6.4211-.0199-1.3609.1199-2.7819.5602-4.053 1.4297-1.9459.1497-3.1399-1.6703-2.383m-30.64 6.5029c1.9203-2.1699 4.9902-2.973 6.9401-3.2459 2.28-.3189 4.1199.254 5.47 1.9839.6801.9131.78 1.645.97 2.8591-.2599.54-.7702.623-1.2999.873-.8102-.712-1.8202.493-3.1401.9621-.8402.2988-2.47.5219-2.94-.0482-1.1898-.7228-.9398-.5131-2.0899.0162-.3201.1479-.83.4439-1.44.415-.8102.072-.9502-.2852-.7901-.8371.33-.4411.98-.777 1.9401-1.0091.08-.2359.2397-.472.25-.7078-.47-.0661-.6901-.307-.7401-.72-.0601-.491.0799-1.2572.8699-1.1821.3501.18.6001.6041.7401 1.2711.2199.1338.9-.453 1.19-.9851.2801-.5329.2699-.8841.6801-1.0411.54-.0638 1 .2222.9198.987-.25.881-.5899 1.0712-1.3799 1.5851-.2999.1979.5199-.076.5899 1.2169l4.3302-2.1739c1.04-1.2619-.9902-2.196-3.3801-2.122-1.69.051-3.56.3209-4.8299 1.0511-.2802.1599-.6202.5389-.8402.6908-.2299.1511-.36.0731-.5298.252-.6702.7691-1.0502 1.1982-1.2401 1.677-.2401.6151-.08 1.362.0602 2.5832-.5902.798-1.1303.5479-1.7301-.015-.4201-2.0322-1.6702-3.1102-.6501-5.222 1.3001-1.0602 1.7199-.3952 2.0699.8858"/></svg>