<svg xmlns="http://www.w3.org/2000/svg" xmlns:svg="http://www.w3.org/2000/svg" viewBox="0 0 799.99998 212.28562" version="1.1" width="614.2951168339512" height="162.78820596099706">
  <defs id="defs1">
    <style id="style1">
      .cls-1 {
        fill: #1d1d1b;
      }
    </style>
  </defs>
  <path class="cls-1" d="m 799.95134,128.5975 c -15.56988,3.7465 -45.7122,8.34448 -65.78275,8.34448 -41.45481,0 -50.69943,-23.45213 -52.74297,-33.57256 -16.17808,-3.624859 -42.84151,-1.72728 -55.68666,1.19207 12.65053,2.74906 20.14354,12.45591 22.40603,30.36127 1.50834,-0.53521 7.8336,-2.57876 14.40215,-2.57876 14.06155,0 25.98224,16.08077 25.98224,33.88882 0,26.37149 -14.93736,45.90683 -29.36383,45.90683 -9.85281,0 -12.89381,-4.74395 -16.22673,-4.74395 -3.33293,0 -6.00901,4.88991 -15.44825,4.88991 -14.69407,0 -30.87215,-21.57888 -30.87215,-46.1501 0,-11.33682 6.10631,-33.9618 30.38559,-33.9618 6.20363,0 9.34193,1.60564 10.0961,2.04354 -0.41358,-12.40725 -9.39059,-23.54944 -25.56867,-23.54944 -13.74528,0 -47.17187,13.16141 -71.32952,33.42659 l -7.17674,-9.95013 c 22.74662,-16.90792 71.5728,-41.114221 128.15959,-41.114221 7.80927,0 14.93736,0.559543 20.87337,1.556988 2.74906,-7.225398 11.28817,-21.238292 36.54057,-21.238292 39.55723,0 68.75076,33.353605 81.40129,55.248755 z M 721.32344,0 C 647.99903,15.837494 619.80294,54.154 619.80294,82.520379 696.41163,73.348745 687.04537,25.714637 721.32344,0 Z M 501.27722,28.001464 h -35.3485 V 135.70126 c 0,44.71475 -38.24352,45.42026 -43.1821,45.42026 -4.93857,0 -43.18209,-0.70551 -43.18209,-45.42026 V 28.001464 h -35.3485 V 133.12249 c 0,56.31919 37.34339,79.16312 78.53059,79.16312 41.18721,0 78.5306,-22.84393 78.5306,-79.16311 z M 315.43608,118.84199 c 0,6.90914 -0.85148,90.84053 -99.47695,90.84053 H 158.37489 V 27.977136 h 57.58424 c 98.6498,0 99.47695,83.955724 99.47695,90.840534 z m -35.3485,0 c 0,-21.943798 -12.67486,-59.700762 -60.21165,-59.700762 H 193.69906 V 178.54276 h 26.17687 c 47.53679,0 60.21165,-37.75696 60.21165,-59.70077 z M 0,185.01399 c 18.82983,17.12687 41.60078,27.27162 66.22065,27.27162 32.98869,0 62.06058,-22.33305 62.06058,-54.49458 0,-61.233429 -84.56392,-52.18344 -84.56392,-81.522932 0,-13.988566 14.93735,-19.705632 28.26907,-19.705632 12.04233,0 24.35226,5.181852 31.67498,11.945019 l 18.34326,-25.957913 c -17.27284,-12.699185 -34.57,-17.12687 -53.15655,-17.12687 -30.36127,0 -60.45493,18.683859 -60.45493,51.137331 0,57.949157 84.56392,45.663547 84.56392,81.766207 0,13.21007 -10.99623,22.81961 -26.71208,22.81961 -16.73762,0 -32.72108,-8.56344 -43.18209,-19.97324 L 0.04866,185.03832 Z" style="stroke-width:2.43279"/>
</svg>