<?xml version="1.0" encoding="UTF-8"?>
<svg id="Layer_1" data-name="Layer 1" xmlns="http://www.w3.org/2000/svg" version="1.1" viewBox="0 0 235.5 93.5">
  <defs>
    <style>
      .cls-1 {
        fill: #a00;
      }

      .cls-1, .cls-2 {
        stroke-width: 0px;
      }

      .cls-2 {
        fill: #fff;
      }
    </style>
  </defs>
  <rect class="cls-1" x="-.25" y="-.07" width="235.75" height="93.5"/>
  <g>
    <path class="cls-2" d="M38.3,58.93l-2.59.07-2.71-.07c-.2.05-.3.18-.34.36-.04.22.04.45.19.57l.03.02.53.08c.62.1.94.26,1.13.57.45.72.45,3.35.45,4.76v3.06c0,3.99-1.48,6.01-4.39,6.01s-4.3-2.05-4.3-6.08v-5.61c0-2.52.17-2.54,1.25-2.7l.58-.08.03-.03c.12-.12.18-.34.15-.55-.03-.17-.11-.3-.23-.36l-.03-.02-3.32.07-3.19-.07-.03.02c-.12.06-.2.19-.23.36-.03.21.02.43.15.55l.03.03.46.08c1.09.16,1.26.19,1.26,2.71v6.22c0,2.53.54,4.28,1.66,5.35,1.15,1.1,2.78,1.61,5.15,1.61,1.44,0,3.46-.33,4.91-1.88,1.13-1.22,1.65-3.04,1.65-5.76v-2.92c0-1.9,0-4.06.33-4.77.14-.31.48-.4.98-.51,0,0,.58-.13.58-.13l.03-.02c.12-.11.19-.28.17-.47-.02-.19-.1-.35-.24-.44l-.04-.02h-.05Z"/>
    <path class="cls-2" d="M48.76,58.93l-1.68.07h-.32c-.66,0-1.77.01-2.56-.07-.2.05-.31.18-.35.37-.04.19-.01.45.14.58l.03.02.4.08c.35.08,1,.27,1.24.46.76.65.76.97.76,2.75v5.97c0,1.89,0,4.04-.31,4.77-.14.32-.52.41-.97.48,0,0-.58.13-.58.13l-.03.02c-.12.11-.19.29-.17.49.02.2.1.37.24.45l.04.02,2.59-.07,2.79.07c.19-.05.3-.19.34-.37,0-.04.01-.08.01-.12,0-.17-.06-.35-.21-.47l-.03-.02-.58-.08c-.65-.1-.98-.26-1.15-.55-.42-.74-.42-3.35-.42-4.75v-4.78c0-.66,0-1.08.01-1.3.3.3.75.8,1.43,1.57l1.18,1.34,5.73,6.54c1.74,1.99,2.47,2.83,2.86,3.35l.04.05h.06c.3.03.71-.06.96-.4l.03-.04v-.05c-.04-.25-.08-1.2-.08-4.3v-5.86c0-1.89,0-4.04.33-4.77.13-.3.43-.4.95-.48,0,0,.61-.13.61-.13l.03-.02c.12-.11.19-.29.17-.49-.02-.2-.1-.36-.24-.45l-.04-.02-2.61.07-2.81-.07c-.19.05-.3.19-.34.37,0,.04-.01.08-.01.13,0,.17.06.35.2.47l.03.02.6.08c.64.1.95.25,1.12.55.45.74.45,3.26.45,4.76v4.78c0,.14,0,.26,0,.34-.39-.38-1.43-1.54-2.22-2.43l-1.16-1.29s-2.45-2.65-2.45-2.65c-.87-.94-3.51-4.01-3.92-5.03l-.04-.09h-.1Z"/>
    <path class="cls-2" d="M76.01,58.93l-3.25.07-3.34-.07-.03.02c-.12.06-.2.19-.23.37-.03.17,0,.42.14.57l.03.03.59.08c1.06.14,1.25.16,1.25,2.68v9.12c0,2.52-.19,2.55-1.25,2.68,0,0-.59.08-.59.08l-.03.03c-.15.15-.17.4-.14.57.03.17.11.31.23.37l.03.02,3.34-.07,3.29.07.03-.02c.12-.06.2-.19.23-.37.03-.17,0-.42-.14-.57l-.03-.03-.59-.08c-1.06-.13-1.25-.16-1.25-2.68v-9.12c0-2.52.19-2.55,1.25-2.68,0,0,.59-.08.59-.08l.03-.03c.15-.15.17-.4.14-.57-.03-.17-.11-.31-.23-.37l-.03-.02h-.04Z"/>
    <path class="cls-2" d="M99.62,58.93l-2.37.07-2.66-.07-.04.02c-.12.07-.2.21-.22.38,0,.04,0,.07,0,.11,0,.17.05.32.15.43l.03.03.75.18c.32.07.47.14.52.24.02.04.03.08.03.14,0,.18-.09.44-.23.78-1.14,2.93-2.39,5.84-3.6,8.67,0,0-.22.52-.36.84-.07-.15-.13-.3-.13-.3l-1.08-2.52-1.77-4.36c-.96-2.38-1.19-3.01-1.19-3.21,0-.07.07-.18.63-.3,0,0,.61-.15.61-.15.18-.13.26-.29.26-.48v-.02c0-.19-.1-.37-.24-.46l-.04-.02-3.28.07-2.96-.07c-.18.05-.28.16-.32.32-.05.21,0,.47.14.61l.03.03.63.13c.92.18,1.11.49,1.79,2.1l4.29,10.32c.36.85.74,1.92,1.12,3.2l.02.05.05.03c.15.09.35.14.54.14.15,0,.44-.04.53-.18.43-1.28,1.57-4.12,2.56-6.37,0,0,1.37-3.04,1.37-3.04l.34-.76c.9-2.02,1.55-3.47,2.16-4.52.39-.66.9-.82,1.43-.94,0,0,.61-.12.61-.12h.06s.03-.06.03-.06c.1-.17.14-.42.1-.61l-.23-.36-.04.04Z"/>
    <path class="cls-2" d="M116.53,58.93c-.28.04-1.57.07-3.29.07h-4.68l-3.19-.07-.03.02c-.12.06-.2.19-.23.37-.03.17,0,.42.14.57l.03.03.44.05c1.08.16,1.25.19,1.25,2.7v9.12c0,2.52-.19,2.54-1.25,2.65,0,0-.96.1-.96.1l-.03.04c-.15.15-.17.4-.15.57.03.17.11.31.23.37l.03.02,3.71-.07h2.8c2.9,0,4.99.03,6.05.07h.09s.04-.07.04-.07c.35-.67.89-2.55,1.04-3.6v-.05s-.02-.04-.02-.04c-.09-.15-.26-.26-.46-.29-.2-.04-.39,0-.53.11l-.03.02-.02.03c-.85,1.98-1.38,2.61-4.38,2.56-2.08,0-2.42-.2-2.67-.49-.36-.4-.38-1.35-.38-2.46v-3.11q0-.52.45-.52h1.18c2.15,0,2.43.05,2.58.96,0,0,.18,1.04.18,1.04l.04.03c.17.13.44.15.64.12l.42-.22-.05-.04-.03-.71-.05-1.86.05-1.95.02-.54-.02-.04c-.07-.11-.2-.18-.37-.21-.19-.03-.46,0-.63.15l-.04.03-.18.88c-.15.93-.43.97-2.58.97h-1.18q-.45,0-.45-.52v-4.14q0-1.31.91-1.31h1.64c.8,0,1.45.07,1.92.21.7.18,1.05.69,1.45,2.13v.05s.05.03.05.03c.17.12.44.13.64.09.17-.04.3-.12.35-.23l.02-.04-.2-1.82-.21-1.78-.14.04Z"/>
    <path class="cls-2" d="M124.98,59.15h-.03s-.03.02-.03.02c-.12.07-.19.21-.21.37-.02.2.04.41.16.53l.03.03.68.08c1.01.11,1.05.23,1.05,2.63v8.97c0,2.52-.19,2.55-1.25,2.68,0,0-.58.08-.58.08l-.03.02c-.14.11-.21.29-.18.5.02.2.12.37.26.44l.03.02,3.34-.07,3.29.07.03-.02c.12-.06.2-.19.23-.37.03-.17,0-.42-.15-.56l-.03-.03-.59-.08c-1.06-.13-1.25-.16-1.25-2.68v-3.14c0-.4.28-.4.9-.4.76,0,1.35.18,1.76.88,0,0,.82,1.43.82,1.43l1.12,1.91c1.6,2.44,4.3,5.11,6.57,5.11.71,0,1.24-.05,1.65-.15h.06s.03-.06.03-.06c.1-.17.11-.52-.08-.67l-.03-.03h-.04c-.14-.02-.88-.1-1.61-.73-1.12-.93-4.33-4.93-6.2-8.09l-.09-.15c-.06-.09-.08-.17-.07-.21,1.13-.47,3.03-1.6,3.03-4.01,0-2.08-1.21-3.16-2.23-3.7-1.03-.56-2.62-.85-4.72-.85s-4.17.08-5.65.22ZM129.77,66.35v-5.1q0-1.06,1.16-1.06c2.23,0,3.24,1.81,3.24,3.49,0,2.3-1.07,3.36-3.36,3.36q-1.04,0-1.04-.69Z"/>
    <path class="cls-2" d="M147.33,63.23c0,1.91,1.19,3.54,3.53,4.85l1.05.59c1.68.94,2.43,2,2.43,3.43,0,1.51-1.09,2.48-2.78,2.48-2.57,0-3.81-3.15-4.04-3.78v-.03s-.04-.02-.04-.02c-.13-.12-.34-.17-.54-.14-.19.03-.34.13-.43.27l-.02.03v.04c-.02,1.41.26,3.22.77,3.82v.02s.03.01.03.01c.43.26,1.75,1.05,4.09,1.05,3.54,0,5.82-1.93,5.82-4.92,0-2.61-1.86-4.13-3.43-4.95l-1.52-.81c-1.45-.77-2.25-1.79-2.25-2.87,0-1.18.69-2.43,2.63-2.43s2.8,1.53,3.17,2.82v.04s.05.03.05.03c.16.12.4.17.62.13.17-.04.3-.12.37-.24l.02-.03v-.04c0-1.21-.25-2.82-.53-3.37l-.03-.06-.89-.19c-.82-.18-1.59-.35-2.56-.35-3.82,0-5.53,2.32-5.53,4.62Z"/>
    <path class="cls-2" d="M171.16,58.93l-3.25.07-3.34-.07-.03.02c-.12.06-.2.19-.23.37-.03.17,0,.42.15.57l.03.03.59.08c1.06.14,1.25.16,1.25,2.68v9.12c0,2.52-.19,2.55-1.25,2.68,0,0-.59.08-.59.08l-.03.03c-.15.15-.17.4-.15.57.03.17.11.31.23.37l.03.02,3.34-.07,3.29.07.03-.02c.12-.06.2-.19.23-.37.03-.17,0-.42-.15-.57l-.03-.03-.59-.08c-1.06-.13-1.25-.16-1.25-2.68v-9.12c0-2.52.19-2.55,1.25-2.68,0,0,.59-.08.59-.08l.03-.03c.15-.15.17-.4.15-.57-.03-.17-.11-.31-.23-.37l-.03-.02h-.04Z"/>
    <path class="cls-2" d="M193.45,58.52l-.05.02v.04c-.26.48-.52.56-1.75.56h-10c-1.71,0-1.9-.05-1.99-.52-.09-.16-.21-.21-.38-.21-.07,0-.28,0-.39.16-.19.92-.57,2.45-.97,3.74l-.02.05.02.05c.06.14.21.25.42.31.18.04.43.05.59-.08.93-2.01,1.58-2.22,3.73-2.22h1.37q.52,0,.52.94v10.45c0,2.52-.19,2.54-1.25,2.63,0,0-1.07.13-1.07.13l-.03.02c-.15.1-.18.33-.17.5.02.21.11.38.24.45l.03.02,3.83-.07,3.63.07.03-.02c.12-.06.2-.19.23-.37.03-.17,0-.42-.15-.57l-.03-.04-.93-.1c-1.06-.11-1.25-.13-1.25-2.66v-10.45q0-.94.52-.94h1.4c2.61,0,2.97.46,3.27,2.26v.05s.05.03.05.03c.15.12.36.16.58.12.17-.03.32-.12.39-.23l.03-.04v-.05c-.08-.78.12-2.87.36-3.85v-.06s-.02-.05-.02-.05c-.08-.12-.24-.19-.43-.19l-.36.11Z"/>
    <path class="cls-2" d="M205.87,58.93c-.54.05-2.02.07-3.13.07l-3.08-.07c-.17.05-.26.17-.3.34-.05.18-.04.45.09.61l.03.03.68.16c1.05.21,1.22.46,1.74,1.5l2.94,5.81c.68,1.29.77,1.63.77,2.97v1.45c0,2.52-.19,2.54-1.25,2.65,0,0-.83.1-.83.1l-.03.04c-.15.15-.17.4-.15.57.03.17.11.31.23.37l.03.02,3.58-.07,3.73.07.03-.02c.12-.06.2-.19.23-.37.03-.17,0-.42-.14-.57l-.04-.04-.98-.1c-1.13-.11-1.3-.13-1.3-2.65v-1.47c0-1.67.18-2.16.89-3.39,0,0,.29-.53.29-.53l2.03-3.59c1.27-2.16,1.55-2.57,2.57-2.75,0,0,.76-.16.76-.16l.03-.04c.13-.14.18-.37.15-.57-.03-.16-.11-.29-.24-.36l-.03-.02-2.36.07-2.6-.07-.03.02c-.14.07-.23.21-.26.39,0,.04-.01.08-.01.11,0,.17.06.33.16.43l.03.03.78.18c.42.06.46.14.46.23,0,.26-.32.93-.65,1.58,0,0-2.19,4.14-2.74,5.18-.75-1.4-1.46-2.91-2.19-4.51l-.52-1.13c-.31-.74-.43-1.04-.43-1.22,0-.07,0-.13.39-.18,0,0,.78-.13.78-.13l.03-.03c.11-.1.17-.26.17-.43,0-.03,0-.06,0-.1-.02-.19-.12-.34-.24-.41l-.04-.02h-.04Z"/>
    <path class="cls-2" d="M66.08,17.31c-.53.13-3.25.13-6.14.13h-8.59c-1.76,0-3.27-.04-5.39-.14h-.04s-.03.02-.03.02c-.22.11-.32.45-.33.71,0,.15,0,.52.23.68l.03.02.76.1c2.58.31,2.66.84,2.66,5.62v16.45c0,4.83-.25,5.36-2.7,5.57l-1.56.14-.04.04c-.2.21-.23.56-.19.82.04.27.16.47.32.55l.03.02,6.25-.14h4.11c4.03,0,8.15.05,12.24.14h.09s.04-.08.04-.08c.61-1.26,1.75-4.78,2.07-6.39v-.05s0-.04,0-.04c-.1-.23-.32-.4-.6-.48-.28-.08-.56-.04-.76.1l-.03.02-.02.03c-1.11,2.22-2.33,3.9-3.19,4.37-1.01.5-2.41.67-5.78.67-4.08,0-4.94-.52-5.43-1.01-.69-.73-.83-2.26-.83-4.65v-6.44c0-1.07.03-1.09,1.37-1.09h2.65c1.67,0,2.83.04,3.48.22.89.22,1.16.92,1.32,1.63,0,0,.42,1.82.42,1.82l.02.03c.18.22.55.27.81.25.29-.02.51-.14.61-.31l.02-.04-.08-1.72-.11-2.7.11-2.81.08-1.85-.02-.03c-.1-.17-.32-.29-.61-.31-.26-.02-.63.03-.81.25l-.02.03-.37,1.91c-.23,1.16-.55,1.34-1,1.49-.52.17-1.88.27-3.84.27h-2.65q-1.37,0-1.37-1.14v-9.14q0-1.69,1.23-1.69h3.29c2.02,0,3.45.04,4.4.27,2.2.55,2.65,1.99,3.29,3.98l.08.27c.15.2.39.28.68.26.24-.01.57-.1.72-.32l.03-.04-.06-.65c-.18-2.02-.43-4.79-.68-5.51l-.04-.12-.13.03Z"/>
    <path class="cls-2" d="M102.85,16.61l-.05.04v.06c-.33,1.82-.87,4.44-1.6,6.51l-.02.06.03.05c.11.23.37.42.68.49.27.07.54.02.72-.12l.03-.02.02-.03c.47-1.08.78-1.96,1.88-2.97,1.06-.97,3.39-1.1,5.53-1.1h2.51q1.23,0,1.23,1.32v20.01c0,4.83-.25,5.36-2.7,5.57l-1.68.14-.03.02c-.21.13-.32.4-.31.73.01.23.1.55.32.66l.03.02,6.39-.14,6.02.14.03-.02c.22-.11.32-.45.33-.71,0-.15,0-.52-.23-.68l-.03-.02-1.5-.14c-2.53-.26-2.61-.8-2.61-5.57v-20.06c0-.64,0-.99.14-1.13.13-.13.48-.14,1.05-.14h2.67c2.49,0,3.06.37,4.08,1.11.48.36.88,1.4,1.08,3.1v.04s.03.03.03.03c.17.21.53.27.81.24.29-.03.52-.16.61-.36l.02-.04v-.04c-.14-1.36.17-4.73.68-6.62v-.05s0-.05,0-.05c-.14-.29-.75-.31-1-.21l-.05.02-.02.04c-.63,1.1-.95,1.07-3.44,1.07h-16.98c-2,0-3.31.14-3.56-1.16v-.04s-.04-.03-.04-.03c-.2-.2-.87-.14-1.05-.02Z"/>
    <path class="cls-2" d="M134.05,16.61l-.05.04v.06c-.33,1.82-.87,4.44-1.6,6.51l-.02.06.03.05c.11.23.38.42.68.49.27.07.53.02.72-.12l.03-.02v-.03c.49-1.08.8-1.96,1.9-2.97,1.06-.97,2.25-1.1,4.39-1.1h1.38q1.23,0,1.23,1.32v20.01c0,4.83-.25,5.36-2.7,5.57l-1.68.14-.03.02c-.21.13-.32.4-.31.73.01.23.1.55.32.66l.03.02,6.39-.14,6.02.14.04-.02c.22-.11.32-.45.33-.71,0-.15,0-.52-.23-.68l-.03-.02-1.5-.14c-2.53-.26-2.61-.8-2.61-5.57v-20.06c0-.64,0-.99.13-1.13.13-.13.49-.14,1.05-.14h3.24c2.5,0,4.2.37,5.22,1.11.49.36.88,1.37,1.09,3.1v.04s.03.03.03.03c.18.21.54.27.82.24.29-.03.52-.16.61-.36l.02-.04v-.04c-.14-1.35.17-4.73.68-6.62v-.05s-.01-.05-.01-.05c-.14-.29-.75-.31-1-.21l-.04.02-.03.04c-.63,1.1-.95,1.07-3.44,1.07h-16.42c-2,0-3.31.14-3.56-1.16v-.04s-.04-.03-.04-.03c-.2-.2-.87-.14-1.05-.02Z"/>
    <path class="cls-2" d="M175.41,17.31l-5.62.14-5.97-.14-.03.02c-.22.11-.32.45-.33.71-.01.15,0,.52.23.68l.03.02,1.18.1c2.73.22,2.84.84,2.84,5.62v16.45c0,4.77-.09,5.31-2.61,5.57l-1.42.14-.04.04c-.2.21-.23.56-.19.82.04.27.16.47.32.55l.03.02,5.97-.14h4.2c5.01,0,9.15.05,11.37.14h.09s.04-.08.04-.08c.67-1.28,1.94-5.95,1.94-6.46,0-.16-.11-.3-.32-.4-.32-.15-.82-.18-1.05.01l-.03.02v.04c-.85,2.13-2.01,3.88-2.97,4.45-.7.4-1.67.57-5.5.57-3.4,0-4.35-.48-4.88-1.01-.78-.82-.92-1.98-.92-4.84v-15.9c0-4.78.1-5.4,2.66-5.62l1.13-.1.03-.02c.23-.16.23-.53.22-.68-.02-.26-.11-.6-.33-.71l-.03-.02h-.04Z"/>
    <path class="cls-2" d="M211.64,17.31c-.53.13-3.25.13-6.13.13h-8.59c-1.75,0-3.26-.04-5.38-.14h-.04s-.03.02-.03.02c-.22.11-.32.45-.33.71-.01.15,0,.52.23.68l.03.02.76.1c2.58.31,2.66.84,2.66,5.62v16.45c0,4.83-.25,5.36-2.7,5.57l-1.56.14-.04.04c-.21.21-.23.56-.19.82.04.27.16.47.32.55l.03.02,6.25-.14h4.11c4.03,0,8.15.05,12.25.14h.09s.04-.08.04-.08c.61-1.26,1.75-4.78,2.07-6.39v-.05s-.01-.04-.01-.04c-.1-.23-.32-.4-.6-.48-.28-.08-.56-.04-.76.1l-.03.02v.03c-1.13,2.22-2.35,3.9-3.2,4.37-1.01.5-2.41.67-5.78.67-4.08,0-4.94-.52-5.43-1.01-.69-.73-.83-2.26-.83-4.65v-6.44c0-1.07.02-1.09,1.37-1.09h2.65c1.67,0,2.83.04,3.48.22.89.22,1.16.92,1.32,1.63,0,0,.42,1.82.42,1.82l.02.03c.18.22.55.27.81.25.29-.03.51-.14.61-.31l.02-.04-.08-1.72-.11-2.7.11-2.81.08-1.85-.02-.03c-.1-.17-.32-.29-.61-.31-.26-.02-.63.03-.81.25l-.02.03-.37,1.91c-.23,1.16-.55,1.34-1,1.49-.52.17-1.88.27-3.84.27h-2.65q-1.37,0-1.37-1.14v-9.14q0-1.69,1.23-1.69h3.29c2.02,0,3.45.04,4.4.27,2.2.55,2.65,1.99,3.28,3.98l.09.27c.15.2.39.28.68.26.24-.01.57-.1.72-.32l.03-.04-.06-.66c-.18-2.02-.43-4.78-.68-5.5l-.04-.12-.13.03Z"/>
    <path class="cls-2" d="M34.5,31.13l-3.84-2.28c-2.66-1.64-4.01-3.49-4.01-5.5,0-1.48.54-4.93,5.56-4.93,4.38,0,5.71,2.7,6.38,5.06.15.2.38.27.66.25.28-.01.66-.13.81-.35l.02-.04v-.04c0-1.63-.22-3.31-.64-4.89-.14-.52-.26-1.64-1.01-1.67-.28-.01-.57.1-.84.17-.37.1-.72.22-1.11.17-.36-.05-.73-.13-1.09-.19-.81-.11-1.64-.18-2.46-.18-5.94,0-9.94,3.22-9.94,8,0,3.87,2.85,6.48,5.25,7.98l4.56,2.83c3.4,2.08,3.87,4.25,3.87,6.28,0,2.54-1.81,5.11-5.85,5.11-4.99,0-7.16-3.65-8.11-6.71-.12-.18-.31-.26-.55-.26-.28,0-.67.11-.86.36l-.03.04v.05c.04.93.16,1.86.32,2.78.15.9.33,1.81.61,2.69.2.63.48,1.21.86,1.75.33.46.78.46,1.3.44.53-.03,1.01-.01,1.58.08,1.16.28,2.59.49,4.26.49,6.2,0,10.37-3.46,10.37-8.6,0-3.58-1.98-6.49-6.07-8.9Z"/>
    <path class="cls-2" d="M89.13,16.71l-.04.05c-.53.63-1.28,1.39-2.31,1.69l-.13.04.03.13c.13.69-.13,1.53-.77,3.17,0,0-4.66,12.34-4.66,12.34l-3.13,7.97-.89,2.22c-.54,1.38-1.35,2.04-2.62,2.15,0,0-1.55.14-1.55.14l-.03.03c-.15.13-.23.36-.21.65.01.24.1.58.32.72l.04.03,1.03-.04,3.4-.1,1.52.03,3.26.11h.04c.22-.11.37-.35.4-.64.03-.32-.08-.62-.28-.76l-.03-.02-1.55-.14c-1.11-.09-1.19-.37-1.19-.77,0-.5.34-1.76,1-3.75l1.6-4.8c.29-.88.49-1,1.6-1h6.9c1.33,0,1.44.12,1.74,1.04l2.01,6.22c.41,1.23.59,1.95.59,2.38,0,.34-.55.59-1.47.68l-1.36.14-.03.02c-.19.14-.29.41-.27.72.02.31.17.56.38.67l.03.02.94-.03,4.35-.1c1.93,0,3.53.04,5.52.14h.05s.04-.03.04-.03c.19-.15.27-.5.26-.76,0-.28-.1-.49-.27-.61l-.03-.02-1.27-.14c-1.92-.22-2.48-.93-3.77-4.75l-6.52-19.12c-.61-1.78-1.23-3.61-1.75-5.37-.09-.33-.39-.51-.82-.51h-.07ZM92.85,37.1h0,0ZM86.67,25.17c.43-1.19.82-2.12,1-2.5.27.6.63,1.69.97,2.68l2.47,7.45c.13.38.27.83.16,1.05-.08.16-.49.18-1.03.18h-5.62c-.45,0-.9-.02-1-.11-.09-.09.08-.55.17-.79,0,0,2.88-7.95,2.88-7.95Z"/>
  </g>
</svg>