<svg xmlns="http://www.w3.org/2000/svg" height="244.48" viewBox="0 0 250 244.48344" width="250"><g transform="matrix(1.25 0 0 -1.25 -1603.1 625.31)"><g><path d="m31.367 0.67578l-30.484 24.312-0.00019 77.802 30.869 24.48h-30.869l-0.00019 45.86 30.762 24.27h68.865c2.69 3.35 7.48 5.59 12.95 5.59 0.75 0 1.47-0.06 2.18-0.14l-4.26 40.31h82.66l-5.95-56.18h-5.4v-14.03h43.68l5.97-56.31h16.54v-70.208h-117.2v-21.483l-30.76-24.273-69.553-0.00022zm29.248 56.203h12.531l1.446 14.008h-13.977v-14.008zm40.325 14.008h13.03l1.19 11.285-14.22-11.285zm81.75 31.753h7.54l1.47 14h-9.01v-14zm-124.81 24.56h14.068v14.02h-12.562l-1.506-14.02z" transform="matrix(.8 0 0 -.8 1282.4 500.25)" fill="#fc0"/><path d="m35.631 12.863l-22.557 17.996v66.045l22.799 18.096h48.268v38.42h-35.717l-1.481-13.96h-33.869v27.76l22.799 17.99h61.065l22.552-17.99v-66.04l-22.801-18.102h-48.265v-27l-13.955-11.39h49.672l1.441 13.935h33.908v-27.764l-22.801-17.996h-61.058zm89.299 45.762l3.36 31.822h6.75v108.72h-6.75l-3.36 31.8h55.56l-3.37-31.8h-6.62v-38.41h44.9l3.37-31.93h-48.27v-26.99l-13.95-11.393h44.67l1.45 13.933h34.02v-45.755h-111.76zm-20.3 126.82v2.15h2.1v7.62h2.53v-7.62h2.1v-2.15h-6.73zm8.73 0l-1.66 9.77h2.53l0.81-5.62h0.03l2.24 5.62h1.01l2.35-5.62h0.02l0.72 5.62h2.54l-1.48-9.77h-2.53l-2.1 5.22-1.98-5.22h-2.5z" transform="matrix(.8 0 0 -.8 1282.4 500.25)" fill="#52247f"/></g></g></svg>
