<svg width="932" height="932" viewBox="0 0 932 932" fill="none" xmlns="http://www.w3.org/2000/svg">
<path d="M534.453 5.38741C535.153 5.49408 535.863 5.60075 536.583 5.70741C578.653 12.1274 620.173 23.9474 658.723 42.0974C661.416 43.3641 664.119 44.6107 666.833 45.8374C695.183 58.8474 721.713 75.4474 746.453 94.3874C747.093 94.8741 747.743 95.3708 748.403 95.8774C754.936 100.877 761.329 106.047 767.583 111.387C768.089 111.821 768.606 112.264 769.133 112.717C779.013 121.237 788.453 130.217 797.653 139.457C799.279 141.084 800.909 142.711 802.543 144.337C808.053 149.847 813.443 155.417 818.453 161.387C818.986 162.014 819.526 162.647 820.073 163.287C865.463 216.877 899.073 280.287 916.453 348.387C916.726 349.454 917.003 350.534 917.283 351.627C921.673 369.037 924.903 386.617 927.453 404.387C927.703 406.057 927.703 406.057 927.963 407.757C933.863 448.817 932.773 493.457 926.453 534.387C926.346 535.087 926.239 535.797 926.133 536.517C919.713 578.587 907.893 620.107 889.743 658.657C888.476 661.351 887.229 664.054 886.003 666.767C872.993 695.117 856.393 721.647 837.453 746.387C836.713 747.357 836.713 747.357 835.963 748.337C830.963 754.871 825.793 761.264 820.453 767.517C820.019 768.024 819.576 768.541 819.123 769.068C810.603 778.948 801.623 788.378 792.383 797.588C790.756 799.214 789.129 800.841 787.503 802.468C781.993 807.988 776.433 813.378 770.453 818.388C769.833 818.921 769.199 819.461 768.553 820.008C714.963 865.398 651.553 899.008 583.453 916.388C582.386 916.661 581.306 916.938 580.213 917.218C562.803 921.608 545.223 924.838 527.453 927.388C525.783 927.638 525.783 927.638 524.073 927.898C485.423 933.418 443.063 933.058 404.453 927.388C403.453 927.248 403.453 927.248 402.443 927.098C357.893 920.738 313.983 908.887 273.193 889.677C270.493 888.411 267.786 887.164 265.073 885.938C236.733 872.927 210.193 856.328 185.453 837.388C184.483 836.648 184.483 836.648 183.503 835.898C176.976 830.898 170.586 825.728 164.333 820.388C163.819 819.954 163.299 819.511 162.773 819.057C152.893 810.537 143.463 801.558 134.253 792.318C132.626 790.691 130.999 789.064 129.373 787.438C123.853 781.927 118.473 776.368 113.453 770.388C112.926 769.761 112.386 769.127 111.833 768.487C66.4426 714.897 32.8326 651.487 15.4526 583.387C15.1793 582.321 14.9026 581.241 14.6226 580.147C10.2326 562.737 7.01259 545.157 4.45259 527.387C4.28592 526.274 4.11925 525.147 3.95259 524.007C-1.57741 485.357 -1.20741 442.997 4.45259 404.387C4.54592 403.727 4.64259 403.057 4.74259 402.377C11.1026 357.817 22.9526 313.907 42.1626 273.127C43.4293 270.427 44.6759 267.721 45.9026 265.007C58.9126 236.657 75.5126 210.127 94.4526 185.387C94.9392 184.747 95.4359 184.097 95.9426 183.437C100.943 176.911 106.113 170.521 111.453 164.267C112.113 163.497 112.113 163.497 112.783 162.707C121.313 152.827 130.283 143.397 139.523 134.187C141.149 132.561 142.776 130.934 144.403 129.307C149.913 123.787 155.483 118.407 161.453 113.387C162.079 112.854 162.713 112.314 163.353 111.767C216.943 66.3774 280.353 32.7674 348.453 15.3874C349.519 15.1141 350.599 14.8374 351.693 14.5574C369.103 10.1674 386.683 6.94741 404.453 4.38741C406.123 4.13741 406.123 4.13741 407.823 3.88741C448.883 -2.02259 493.523 -0.932589 534.453 5.38741ZM368.453 31.3874C367.439 31.6207 366.409 31.8574 365.363 32.0974C334.323 39.2974 304.293 49.9074 275.453 63.3874C274.446 63.8608 273.423 64.3374 272.383 64.8174C244.643 77.9374 218.653 94.5574 194.453 113.387C193.553 114.087 192.636 114.801 191.703 115.527C175.943 127.977 161.293 141.467 147.083 155.637C146.609 156.104 146.129 156.581 145.643 157.067C140.023 162.667 134.573 168.327 129.453 174.387C128.919 175.014 128.379 175.651 127.833 176.297C88.1926 223.107 58.6726 276.867 40.4526 335.387C40.1126 336.461 39.7693 337.551 39.4226 338.657C30.3326 367.727 24.4326 398.557 22.6026 428.987C22.4626 431.201 22.3026 433.414 22.1226 435.627C16.6526 508.837 29.7926 584.387 61.2326 650.797C62.4059 653.291 63.5526 655.794 64.6726 658.307C79.2226 690.337 98.7426 720.557 121.453 747.387C122.313 748.421 123.169 749.451 124.023 750.477C134.013 762.477 144.693 773.708 155.703 784.768C156.176 785.234 156.653 785.711 157.133 786.198C162.733 791.818 168.393 797.278 174.453 802.388C175.079 802.921 175.716 803.461 176.363 804.008C223.173 843.648 276.933 873.168 335.453 891.388C337.073 891.898 337.073 891.898 338.723 892.418C385.493 907.048 433.683 911.468 482.453 910.388C483.213 910.374 483.986 910.358 484.773 910.338C541.683 909.078 599.443 894.957 650.863 870.607C653.356 869.441 655.859 868.294 658.373 867.168C690.403 852.618 720.623 833.098 747.453 810.388C748.486 809.528 749.519 808.671 750.553 807.818C762.543 797.828 773.783 787.158 784.833 776.138C785.299 775.671 785.776 775.194 786.263 774.708C791.883 769.118 797.343 763.447 802.453 757.387C802.986 756.761 803.526 756.124 804.073 755.477C868.603 679.277 907.033 583.417 910.453 483.387C910.479 482.627 910.506 481.854 910.533 481.067C911.763 443.397 909.143 405.147 900.453 368.387C900.219 367.374 899.983 366.341 899.743 365.287C892.553 334.257 881.933 304.227 868.453 275.387C867.979 274.381 867.503 273.357 867.023 272.317C853.903 244.577 837.293 218.587 818.453 194.387C817.753 193.487 817.043 192.571 816.323 191.637C803.863 175.877 790.373 161.227 776.203 147.017C775.736 146.544 775.259 146.064 774.773 145.577C769.183 139.957 763.513 134.507 757.453 129.387C756.826 128.854 756.193 128.314 755.553 127.767C687.103 69.8174 603.503 33.6774 514.453 23.3874C513.479 23.2741 512.489 23.1574 511.483 23.0374C464.463 17.6874 414.493 20.5074 368.453 31.3874Z" fill="black"/>
<path d="M53.4526 469.387C77.1026 469.147 100.863 469.697 124.453 471.387C124.453 473.147 124.453 473.147 124.463 474.937C125.103 512.567 134.663 551.797 146.453 587.387C139.363 594.067 132.283 600.567 124.453 606.387C133.673 636.447 152.983 664.087 172.453 688.387C173.199 689.321 173.956 690.267 174.723 691.227C175.289 691.934 175.866 692.654 176.453 693.387C180.173 692.817 182.773 691.817 185.953 689.817C186.773 689.317 187.606 688.807 188.453 688.287C190.173 687.221 191.886 686.151 193.593 685.077C194.823 684.327 194.823 684.327 196.083 683.567C196.823 683.101 197.573 682.631 198.333 682.157C200.453 681.387 200.453 681.387 202.513 682.037C204.563 683.467 206.133 684.927 207.813 686.767C208.426 687.434 209.049 688.111 209.683 688.797C210.323 689.504 210.976 690.221 211.643 690.947C212.989 692.407 214.339 693.867 215.693 695.327C216.333 696.027 216.986 696.737 217.653 697.457C222.913 703.107 228.383 708.427 234.233 713.447C236.426 715.381 238.593 717.344 240.733 719.337C246.243 724.457 251.873 729.377 257.773 734.057C259.013 735.037 260.249 736.021 261.483 737.007C270.793 744.467 280.073 751.477 290.453 757.387C288.633 763.087 286.583 768.567 284.123 774.027C283.303 776.937 283.493 778.537 284.453 781.387C301.573 802.777 347.423 820.977 373.833 824.137C375.019 824.217 376.226 824.301 377.453 824.387C377.686 823.574 377.926 822.747 378.173 821.907C379.713 817.677 381.773 813.967 384.013 810.077C384.426 809.351 384.843 808.614 385.263 807.867C388.293 802.547 388.293 802.547 389.453 801.387C395.213 801.537 400.953 802.447 406.643 803.327C427.123 806.277 447.653 806.757 468.313 806.707C470.479 806.701 472.646 806.697 474.813 806.697C498.123 806.687 521.253 805.817 544.453 803.387C548.119 810.721 551.786 818.054 555.453 825.387C563.053 824.947 569.893 823.357 577.143 821.077C578.249 820.731 579.369 820.381 580.503 820.027C598.653 814.217 616.493 807.197 633.893 799.447C635.043 798.937 635.043 798.937 636.213 798.417C641.223 796.127 645.853 793.407 650.453 790.387C650.143 783.107 648.503 776.767 646.093 769.917C644.043 763.887 644.043 763.887 645.453 760.387C647.043 758.947 647.043 758.947 649.113 757.607C650.263 756.847 650.263 756.847 651.433 756.077C652.259 755.544 653.099 755.001 653.953 754.447C668.193 744.987 681.553 734.597 694.453 723.387C695.553 722.437 695.553 722.437 696.683 721.467C698.616 719.787 700.539 718.094 702.453 716.387C703.259 715.674 704.079 714.947 704.913 714.207C711.913 707.967 718.573 701.697 724.453 694.387C727.833 694.997 729.873 696.227 732.563 698.327C733.316 698.907 734.079 699.497 734.853 700.097C735.626 700.704 736.409 701.321 737.203 701.947C737.989 702.561 738.789 703.184 739.603 703.817C741.556 705.337 743.506 706.861 745.453 708.387C757.713 698.317 766.603 685.417 775.453 672.387C775.913 671.714 776.383 671.031 776.863 670.337C782.813 661.657 788.083 652.687 793.013 643.387C793.526 642.434 794.046 641.471 794.573 640.497C798.873 632.347 798.873 632.347 800.453 623.387C799.083 620.657 799.083 620.657 796.583 618.757C795.749 618.031 794.906 617.287 794.053 616.527C793.199 615.827 792.333 615.114 791.453 614.387C789.973 613.074 788.493 611.761 787.013 610.447C786.379 609.907 785.736 609.357 785.083 608.797C783.829 607.704 782.619 606.567 781.453 605.387C781.873 601.767 783.043 598.437 784.243 595.007C795.083 563.487 803.553 531.287 808.943 498.367C809.353 495.997 809.853 493.717 810.453 491.387C824.923 491.277 839.363 491.327 853.833 491.827C854.979 491.867 856.146 491.907 857.333 491.947C865.383 492.247 873.413 492.767 881.453 493.387C881.313 496.074 881.166 498.761 881.013 501.447C880.963 502.577 880.963 502.577 880.903 503.727C880.643 508.337 880.173 512.827 879.453 517.387C869.403 517.487 859.463 517.487 849.453 516.387C849.503 517.187 849.503 517.187 849.563 518.007C850.033 531.747 845.853 545.577 842.333 558.757C842.139 559.484 841.943 560.221 841.743 560.967C836.703 579.897 830.703 598.587 822.453 616.387C822.966 616.727 823.486 617.074 824.013 617.427C831.493 622.414 838.973 627.401 846.453 632.387C844.833 637.987 842.283 642.937 839.583 648.077C839.096 648.997 838.603 649.931 838.103 650.877C833.043 660.367 827.363 669.407 821.453 678.387C820.959 679.141 820.459 679.907 819.953 680.687C790.083 726.297 790.083 726.297 772.453 743.387C767.443 741.887 764.433 738.877 760.763 735.327C756.933 731.417 756.933 731.417 752.453 728.387C752.213 729.114 751.966 729.854 751.713 730.607C750.303 733.727 748.703 735.517 746.273 737.937C745.433 738.771 744.583 739.617 743.723 740.477C742.836 741.351 741.933 742.237 741.013 743.137C739.653 744.487 739.653 744.487 738.253 745.867C733.023 750.997 727.783 755.917 721.993 760.407C719.603 762.267 717.323 764.217 715.043 766.197C702.813 776.797 689.773 786.787 675.453 794.387C676.513 797.807 677.723 801.077 679.213 804.337C679.526 805.017 679.843 805.707 680.163 806.407C680.823 807.821 681.486 809.231 682.153 810.637C684.493 815.797 684.493 815.797 684.313 818.407C681.193 825.617 668.743 830.147 662.083 833.577C661.009 834.131 659.919 834.691 658.813 835.257C584.293 873.097 584.293 873.097 559.023 872.307C555.893 871.187 555.163 869.787 553.753 866.857C553.473 866.231 553.189 865.594 552.903 864.947C552.603 864.307 552.296 863.657 551.983 862.997C551.023 860.944 550.076 858.887 549.143 856.827C548.489 855.434 547.836 854.041 547.183 852.647C545.589 849.234 544.013 845.814 542.453 842.387C541.499 842.514 540.529 842.641 539.543 842.767C488.543 849.337 437.633 848.357 386.453 844.387C386.266 845.107 386.073 845.837 385.873 846.577C384.513 851.647 383.123 856.647 381.263 861.577C380.753 862.957 380.753 862.957 380.223 864.367C379.969 865.027 379.713 865.701 379.453 866.387C372.833 866.607 367.113 865.927 360.703 864.327C359.796 864.101 358.876 863.874 357.943 863.647C321.103 854.287 276.333 838.657 246.453 814.387C245.213 810.647 245.853 809.947 247.543 806.497C247.996 805.564 248.456 804.617 248.923 803.657C249.403 802.684 249.893 801.697 250.393 800.697C250.873 799.717 251.359 798.721 251.853 797.707C253.046 795.261 254.246 792.821 255.453 790.387C254.733 789.914 253.999 789.437 253.253 788.957C241.793 781.417 230.963 773.197 220.453 764.387C219.673 763.737 219.673 763.737 218.873 763.067C203.563 750.257 188.213 736.767 175.453 721.387C172.893 722.654 170.329 723.924 167.763 725.197C167.049 725.551 166.323 725.911 165.583 726.277C164.883 726.631 164.169 726.987 163.443 727.347C162.756 727.687 162.059 728.031 161.353 728.377C159.253 729.447 159.253 729.447 156.683 731.277C154.453 732.387 154.453 732.387 152.373 731.807C143.733 725.407 138.143 715.327 132.453 706.387C131.966 705.621 131.469 704.844 130.963 704.057C87.4626 635.727 87.4626 635.727 81.4526 609.387C85.0593 607.574 88.6626 605.761 92.2626 603.947C93.2826 603.434 94.3193 602.914 95.3726 602.387C96.8426 601.647 96.8426 601.647 98.3526 600.887C99.2526 600.434 100.166 599.974 101.093 599.507C103.453 598.387 103.453 598.387 106.453 597.387C104.953 591.797 103.423 586.217 101.773 580.657C101.486 579.697 101.196 578.717 100.903 577.717C100.316 575.771 99.7326 573.824 99.1526 571.877C94.9326 557.627 91.8726 543.137 89.1626 528.527C88.6959 526.054 88.2226 523.584 87.7426 521.117C86.1126 512.467 84.9426 504.237 85.4526 495.387C84.5226 495.397 84.5226 495.397 83.5826 495.407C80.7226 495.427 77.8659 495.441 75.0126 495.447C73.5526 495.467 73.5526 495.467 72.0626 495.477C66.1126 495.497 60.3326 495.337 54.4526 494.387C53.1726 491.827 53.3426 490.017 53.3526 487.157C53.3593 486.131 53.3626 485.091 53.3626 484.037C53.3759 482.964 53.3859 481.871 53.3926 480.757C53.3993 479.677 53.4026 478.581 53.4026 477.467C53.4159 474.774 53.4326 472.081 53.4526 469.387Z" fill="black"/>
<path d="M597.453 299.387C598.443 300.377 598.443 300.377 599.453 301.387C598.699 301.894 597.933 302.407 597.153 302.927C596.166 303.614 595.163 304.307 594.143 305.007C592.663 306.017 592.663 306.017 591.153 307.047C587.343 310.347 585.773 313.397 584.983 318.357C584.803 336.527 595.293 350.867 606.603 364.177C610.103 368.357 610.703 370.507 610.693 375.897C610.693 376.557 610.696 377.227 610.703 377.907C610.703 380.141 610.696 382.371 610.683 384.597C610.683 386.197 610.683 387.794 610.683 389.387C610.683 393.727 610.673 398.067 610.653 402.407C610.646 406.934 610.643 411.464 610.643 415.997C610.636 424.584 610.619 433.171 610.593 441.757C610.573 451.531 610.559 461.304 610.553 471.077C610.533 491.177 610.499 511.281 610.453 531.387C607.543 529.967 605.013 528.407 602.393 526.507C593.623 520.737 585.943 519.147 575.563 518.777C574.596 518.737 573.613 518.697 572.613 518.657C570.226 518.564 567.839 518.474 565.453 518.387C564.799 498.907 564.149 479.427 563.503 459.947C563.196 450.901 562.893 441.854 562.593 432.807C562.326 424.921 562.063 417.031 561.803 409.137C561.663 404.964 561.523 400.791 561.383 396.617C561.249 392.684 561.116 388.747 560.983 384.807C560.936 383.374 560.889 381.937 560.843 380.497C560.553 372.127 560.403 363.767 560.453 355.387C556.493 355.387 552.533 355.387 548.453 355.387C548.519 357.147 548.586 358.931 548.653 360.737C549.273 378.024 549.719 395.314 549.993 412.607C550.033 415.187 550.076 417.764 550.123 420.337C550.209 425.671 550.296 431.001 550.383 436.327C550.483 442.454 550.586 448.581 550.693 454.707C550.793 460.681 550.893 466.651 550.993 472.617C551.033 475.131 551.073 477.641 551.113 480.147C551.173 483.647 551.229 487.151 551.283 490.657C551.303 491.664 551.323 492.687 551.343 493.727C551.443 500.614 551.479 507.501 551.453 514.387C550.093 513.847 550.093 513.847 548.703 513.297C536.243 508.597 525.483 508.187 512.453 511.387C508.393 478.837 507.273 446.347 507.213 413.567C507.206 411.487 507.199 409.407 507.193 407.327C507.093 381.057 507.573 354.677 515.453 329.387C515.726 328.501 516.003 327.601 516.283 326.687C520.963 312.727 528.413 300.737 541.763 293.887C559.583 285.507 580.353 291.897 597.453 299.387Z" fill="black"/>
<path d="M406.453 299.387C407.333 300.087 407.333 300.087 408.223 300.797C417.723 309.147 422.393 322.497 425.453 334.387C425.753 335.457 425.753 335.457 426.063 336.547C427.653 342.407 428.573 348.387 429.453 354.387C429.626 355.561 429.803 356.754 429.983 357.967C432.063 373.897 431.803 389.967 431.773 406.007C431.766 408.467 431.763 410.927 431.763 413.387C431.743 434.337 431.403 455.217 430.083 476.137C430.016 477.137 429.953 478.154 429.893 479.187C429.193 489.997 428.213 500.687 426.453 511.387C425.633 511.161 424.796 510.927 423.943 510.687C413.033 507.707 406.133 507.827 395.373 511.417C393.073 512.187 390.813 512.817 388.453 513.387C388.326 483.574 388.463 453.761 388.863 423.947C388.889 421.554 388.919 419.157 388.953 416.757C389.206 395.964 389.706 375.174 390.453 354.387C386.493 354.387 382.533 354.387 378.453 354.387C378.479 355.961 378.503 357.557 378.523 359.177C378.773 387.117 377.673 415.037 376.733 442.967C376.539 448.661 376.353 454.357 376.173 460.057C375.973 466.291 375.769 472.524 375.563 478.757C375.469 481.384 375.383 484.011 375.303 486.637C375.183 490.284 375.059 493.934 374.933 497.587C374.883 499.187 374.883 499.187 374.833 500.817C374.623 506.727 374.183 512.527 373.453 518.387C372.813 518.401 372.163 518.411 371.503 518.417C357.363 518.687 347.203 519.657 335.463 528.017C333.523 529.347 331.563 530.357 329.453 531.387C329.173 510.394 328.966 489.401 328.833 468.407C328.773 458.661 328.679 448.911 328.553 439.157C328.426 430.657 328.349 422.154 328.323 413.647C328.316 409.154 328.269 404.657 328.183 400.157C327.573 367.677 327.573 367.677 335.213 359.047C336.743 357.567 338.313 356.177 339.943 354.817C348.633 346.577 354.513 332.347 354.953 320.637C354.743 315.347 354.373 311.167 350.453 307.387C347.243 305.127 343.933 303.197 340.453 301.387C340.779 300.401 341.113 299.401 341.453 298.387C344.003 297.217 346.443 296.247 349.083 295.327C349.776 295.074 350.483 294.814 351.203 294.547C370.013 287.757 390.433 285.347 406.453 299.387Z" fill="black"/>
<path d="M451.453 202.387C464.653 202.387 477.853 202.387 491.453 202.387C492.823 228.037 492.823 228.037 486.583 235.197C484.889 236.944 483.179 238.674 481.453 240.387C479.513 243.387 479.223 245.587 479.333 249.137C479.346 249.931 479.363 250.737 479.383 251.557C479.409 252.157 479.433 252.767 479.453 253.387C484.823 251.917 487.813 248.297 491.513 244.387C492.733 243.114 493.953 241.844 495.173 240.577C495.706 240.017 496.246 239.447 496.793 238.867C500.343 235.707 503.183 235.137 507.873 235.197C508.893 235.197 509.929 235.201 510.983 235.207C512.043 235.227 513.116 235.244 514.203 235.257C515.276 235.271 516.366 235.281 517.473 235.287C520.133 235.314 522.793 235.347 525.453 235.387C529.863 247.447 529.873 260.977 529.933 273.697C529.959 276.111 530.009 278.524 530.083 280.937C530.096 282.484 530.106 284.034 530.113 285.587C530.133 286.294 530.156 287.014 530.183 287.747C530.163 290.527 530.033 292.727 528.153 294.877C526.643 296.117 525.053 297.257 523.453 298.387C508.773 317.317 504.603 340.217 501.453 363.387C501.359 364.047 501.266 364.721 501.173 365.407C500.223 372.847 500.133 380.337 499.953 387.827C499.923 388.977 499.923 388.977 499.893 390.157C499.173 418.897 498.853 447.647 498.453 476.387C497.719 475.921 496.973 475.444 496.213 474.957C495.206 474.344 494.183 473.717 493.143 473.077C491.663 472.147 491.663 472.147 490.153 471.207C485.583 468.687 480.503 467.607 475.453 466.387C475.373 425.317 475.573 384.257 475.903 343.187C475.963 335.327 476.023 327.464 476.083 319.597C476.203 303.531 476.326 287.461 476.453 271.387C472.823 271.387 469.193 271.387 465.453 271.387C465.459 272.167 465.463 272.957 465.463 273.757C465.529 293.224 465.319 312.687 464.833 332.147C464.766 334.887 464.703 337.627 464.643 340.367C464.503 346.054 464.363 351.744 464.223 357.437C464.036 365.324 463.849 373.214 463.663 381.107C462.983 409.537 462.283 437.967 461.453 466.387C458.913 467.514 456.373 468.637 453.833 469.757C453.119 470.077 452.399 470.401 451.673 470.727C447.653 472.497 443.653 474.077 439.453 475.387C439.453 473.767 439.453 473.767 439.463 472.107C439.483 461.854 439.496 451.601 439.503 441.347C439.509 436.081 439.519 430.814 439.533 425.547C439.539 420.447 439.546 415.351 439.553 410.257C439.553 408.324 439.556 406.391 439.563 404.457C439.603 388.647 438.933 373.187 436.643 357.507C436.463 356.301 436.283 355.077 436.103 353.837C433.053 333.487 428.013 315.717 416.453 298.387C416.213 295.367 416.213 295.367 416.223 291.647C416.223 290.981 416.223 290.304 416.223 289.617C416.229 287.437 416.243 285.257 416.263 283.077C416.276 281.577 416.286 280.077 416.293 278.577C416.353 269.987 416.483 261.407 416.833 252.827C416.859 251.974 416.889 251.111 416.923 250.237C417.173 245.047 418.043 240.387 419.453 235.387C423.159 235.301 426.869 235.237 430.583 235.197C431.623 235.171 432.679 235.147 433.753 235.127C443.953 235.027 449.293 238.407 456.453 245.387C458.543 247.667 460.503 249.997 462.453 252.387C464.433 251.887 464.433 251.887 466.453 251.387C466.283 243.527 461.973 236.877 456.473 231.417C454.826 230.044 453.153 228.701 451.453 227.387C450.273 225.017 450.323 223.557 450.323 220.917C450.323 220.044 450.323 219.154 450.323 218.247C450.323 217.327 450.326 216.394 450.333 215.447C450.323 214.067 450.323 214.067 450.323 212.657C450.323 211.784 450.323 210.894 450.323 209.987C450.323 209.181 450.323 208.364 450.323 207.537C450.453 205.387 450.453 205.387 451.453 202.387Z" fill="black"/>
<path d="M661.143 683.517C668.073 690.697 676.283 702.897 676.513 713.107C676.493 713.854 676.473 714.614 676.453 715.387C675.779 715.241 675.096 715.094 674.403 714.947C664.053 712.887 656.703 711.857 647.363 717.417C643.133 720.277 639.183 723.447 635.283 726.727C621.853 736.477 610.693 737.477 594.453 737.417C592.239 737.431 590.026 737.447 587.813 737.467C583.193 737.487 578.576 737.487 573.963 737.467C568.076 737.454 562.189 737.487 556.303 737.567C551.736 737.614 547.173 737.627 542.613 737.607C540.446 737.607 538.276 737.624 536.103 737.657C523.643 737.817 514.813 737.417 505.493 728.527C504.826 727.827 504.146 727.114 503.453 726.387C504.993 723.167 506.643 720.897 509.113 718.317C509.819 717.571 510.539 716.811 511.273 716.037C512.006 715.271 512.753 714.491 513.513 713.697C514.633 712.527 514.633 712.527 515.773 711.327C522.373 704.387 522.373 704.387 526.103 704.267C527.769 704.267 529.436 704.271 531.103 704.277C532.463 704.277 532.463 704.277 533.853 704.277C536.866 704.277 539.879 704.281 542.893 704.287C544.979 704.294 547.063 704.297 549.143 704.297C554.643 704.297 560.139 704.304 565.633 704.317C571.239 704.331 576.843 704.337 582.443 704.337C593.449 704.351 604.453 704.367 615.453 704.387C615.453 701.747 615.453 699.107 615.453 696.387C614.613 696.407 613.759 696.424 612.893 696.437C597.783 696.597 582.703 695.737 567.623 694.997C563.869 694.811 560.119 694.631 556.373 694.457C549.066 694.104 541.759 693.747 534.453 693.387C535.743 689.417 537.123 685.897 539.203 682.277C539.729 681.364 540.259 680.437 540.793 679.497C541.339 678.557 541.893 677.604 542.453 676.637C543.273 675.197 543.273 675.197 544.113 673.737C548.183 666.657 548.183 666.657 550.453 664.387C552.923 663.977 552.923 663.977 556.083 663.757C557.263 663.671 558.459 663.584 559.673 663.497C560.953 663.424 562.256 663.347 563.583 663.267C564.573 663.197 564.573 663.197 565.583 663.137C634.423 658.937 634.423 658.937 661.143 683.517Z" fill="black"/>
<path d="M359.073 663.307C362.599 663.367 366.129 663.381 369.663 663.347C391.933 663.097 391.933 663.097 397.643 666.807C401.043 670.207 403.013 674.077 404.723 678.537C405.723 681.077 407.143 683.317 408.583 685.637C410.083 688.317 410.453 689.217 410.453 692.387C402.553 692.781 394.649 693.171 386.743 693.557C383.069 693.737 379.399 693.921 375.733 694.107C344.533 695.677 344.533 695.677 329.453 695.387C329.453 698.027 329.453 700.667 329.453 703.387C330.419 703.354 331.399 703.324 332.393 703.297C341.906 703.011 351.419 702.781 360.933 702.607C367.546 702.467 374.156 702.254 380.763 701.967C385.409 701.794 390.059 701.654 394.713 701.547C396.979 701.481 399.246 701.391 401.513 701.277C420.443 700.307 420.443 700.307 426.863 705.397C429.923 708.247 432.513 711.357 435.033 714.687C436.503 716.447 438.033 717.797 439.823 719.217C441.123 720.287 441.123 720.287 442.453 721.387C442.453 723.387 442.453 723.387 440.433 725.517C429.733 734.127 419.413 733.677 406.113 733.517C403.853 733.517 401.593 733.521 399.333 733.527C394.613 733.527 389.896 733.501 385.183 733.447C379.169 733.394 373.153 733.387 367.133 733.427C362.473 733.441 357.813 733.434 353.153 733.407C350.939 733.394 348.723 733.394 346.503 733.407C333.663 733.437 324.163 733.117 313.453 725.387C311.793 724.307 310.126 723.227 308.453 722.147C306.213 720.607 303.976 719.054 301.743 717.487C293.183 711.617 285.803 710.257 275.523 711.837C273.156 712.304 270.799 712.821 268.453 713.387C271.043 698.407 280.253 685.227 292.453 676.387C313.043 663.467 335.443 662.947 359.073 663.307Z" fill="black"/>
<path d="M688.453 520.387C689.259 520.761 690.076 521.141 690.903 521.527C701.423 527.147 712.093 537.687 717.453 548.387C717.453 549.047 717.453 549.714 717.453 550.387C716.273 550.534 715.076 550.684 713.863 550.837C691.873 553.777 671.783 562.367 654.453 576.387C653.906 576.834 653.349 577.287 652.783 577.747C630.263 596.117 613.963 620.067 603.563 647.187C601.633 652.217 601.633 652.217 599.453 654.387C597.113 654.617 597.113 654.617 594.223 654.587C592.683 654.577 592.683 654.577 591.103 654.567C590.029 654.547 588.939 654.531 587.833 654.517C586.746 654.504 585.646 654.494 584.533 654.487C581.839 654.461 579.146 654.427 576.453 654.387C578.123 648.697 580.683 643.547 583.333 638.267C583.813 637.307 584.299 636.334 584.793 635.347C602.593 600.327 629.703 553.967 668.453 539.387C656.663 538.047 646.013 545.927 637.203 552.927C610.313 575.317 590.133 610.077 576.063 641.627C575.709 642.414 575.353 643.211 574.993 644.017C574.359 645.464 573.749 646.921 573.163 648.387C571.723 651.727 570.853 653.187 567.533 654.827C564.793 655.327 562.363 655.597 559.583 655.507C558.856 655.487 558.119 655.467 557.373 655.447C556.739 655.427 556.099 655.407 555.453 655.387C556.783 648.317 559.013 642.187 561.953 635.637C562.393 634.644 562.839 633.634 563.293 632.607C564.673 629.527 566.059 626.454 567.453 623.387C567.873 622.467 568.296 621.534 568.723 620.587C581.153 593.277 596.743 567.257 617.453 545.387C617.919 544.887 618.393 544.377 618.873 543.857C636.623 524.737 662.013 507.987 688.453 520.387Z" fill="black"/>
<path d="M306.903 536.727C311.373 539.627 315.423 542.917 319.453 546.387C320.253 547.061 321.063 547.744 321.883 548.437C352.463 575.067 377.723 616.027 390.453 654.387C390.453 655.374 390.453 656.374 390.453 657.387C385.583 658.407 380.913 658.857 376.453 656.387C371.713 650.997 369.003 643.937 365.973 637.497C363.543 632.517 360.733 627.767 357.893 623.007C357.353 622.101 356.803 621.177 356.243 620.237C339.323 591.997 319.103 564.217 288.453 550.387C287.799 550.061 287.133 549.727 286.453 549.387C285.079 549.321 283.706 549.301 282.333 549.327C280.413 549.357 280.413 549.357 278.453 549.387C280.013 550.117 280.013 550.117 281.603 550.857C290.073 554.887 297.423 559.087 304.453 565.387C305.233 566.047 306.023 566.717 306.823 567.397C331.253 588.537 348.303 616.277 364.013 644.137C364.453 644.911 364.899 645.694 365.353 646.487C365.759 647.207 366.169 647.941 366.583 648.687C366.943 649.327 367.309 649.974 367.683 650.627C368.453 652.387 368.453 652.387 368.453 655.387C360.863 655.387 353.273 655.387 345.453 655.387C344.323 653.077 343.183 650.767 342.013 648.387C332.583 629.467 322.163 612.647 307.453 597.387C306.813 596.687 306.166 595.974 305.513 595.247C285.383 573.767 256.083 562.327 227.453 558.387C246.473 528.957 276.103 518.867 306.903 536.727Z" fill="black"/>
<path d="M490.453 58.3874C511.723 58.0074 530.793 60.3174 551.453 65.3874C550.863 71.3874 549.983 77.1874 548.703 83.0774C548.529 83.8907 548.353 84.7141 548.173 85.5474C547.606 88.2008 547.033 90.8541 546.453 93.5074C546.053 95.3741 545.649 97.2407 545.243 99.1074C542.476 111.861 539.629 124.601 536.703 137.327C536.529 138.101 536.349 138.884 536.163 139.677C533.493 151.317 530.543 162.857 527.453 174.387C523.913 175.397 522.083 175.197 518.563 174.057C512.023 172.147 505.523 171.397 498.763 170.697C496.983 170.507 496.983 170.507 495.163 170.307C492.263 169.994 489.359 169.687 486.453 169.387C486.193 150.287 486.623 131.317 487.673 112.237C487.766 110.557 487.856 108.877 487.943 107.197C488.013 105.957 488.013 105.957 488.083 104.697C488.593 95.1674 488.873 85.6274 489.113 76.0774C489.273 70.1074 489.573 64.2974 490.453 58.3874Z" fill="black"/>
<path d="M875.453 402.387C881.353 424.357 882.753 444.767 882.453 467.387C864.063 467.557 845.693 467.057 827.313 466.517C824.173 466.431 821.033 466.341 817.893 466.247C801.073 465.777 784.263 465.247 767.453 464.387C765.753 449.987 765.203 435.887 765.453 421.387C770.843 419.707 776.123 418.727 781.703 417.947C783.476 417.694 785.246 417.441 787.013 417.187C787.906 417.054 788.813 416.921 789.733 416.787C792.406 416.387 795.076 415.967 797.743 415.527C798.583 415.387 799.436 415.247 800.303 415.107C801.903 414.841 803.499 414.571 805.093 414.297C809.613 413.557 813.873 413.257 818.453 413.387C818.773 415.407 819.086 417.427 819.393 419.447C819.566 420.567 819.743 421.704 819.923 422.857C820.683 429.347 821.023 435.877 821.453 442.387C831.683 442.387 841.913 442.387 852.453 442.387C851.463 438.097 850.473 433.807 849.453 429.387C848.999 426.581 848.603 423.767 848.263 420.947C848.109 419.654 847.949 418.344 847.783 417.017C847.493 413.777 847.393 410.637 847.453 407.387C848.453 407.194 849.466 406.997 850.493 406.797C851.833 406.537 853.173 406.274 854.513 406.007C855.166 405.887 855.829 405.761 856.503 405.627C859.773 404.987 862.883 404.257 866.073 403.287C869.373 402.407 872.063 402.217 875.453 402.387Z" fill="black"/>
<path d="M422.703 550.257C423.609 550.257 424.526 550.257 425.453 550.257C426.813 550.257 426.813 550.257 428.203 550.257C430.453 550.387 430.453 550.387 431.453 551.387C431.453 557.657 431.453 563.927 431.453 570.387C455.213 570.387 478.973 570.387 503.453 570.387C503.453 564.117 503.453 557.847 503.453 551.387C504.453 550.387 504.453 550.387 506.703 550.257C507.609 550.257 508.526 550.257 509.453 550.257C510.813 550.257 510.813 550.257 512.203 550.257C514.453 550.387 514.453 550.387 515.453 551.387C515.533 552.807 515.566 554.224 515.553 555.637C515.553 556.404 515.549 557.181 515.543 557.967C515.536 558.947 515.526 559.941 515.513 560.947C515.493 564.067 515.473 567.177 515.453 570.387C522.383 570.387 529.313 570.387 536.453 570.387C536.423 567.697 536.423 567.697 536.393 564.947C536.366 563.094 536.386 561.241 536.453 559.387C537.453 558.387 537.453 558.387 539.703 558.257C540.609 558.257 541.526 558.257 542.453 558.257C543.813 558.257 543.813 558.257 545.203 558.257C547.453 558.387 547.453 558.387 548.453 559.387C548.553 561.887 548.596 564.387 548.583 566.887C548.589 567.634 548.593 568.391 548.593 569.157C548.593 570.751 548.589 572.344 548.583 573.937C548.583 576.377 548.586 578.817 548.593 581.257C548.593 582.804 548.589 584.347 548.583 585.887C548.589 586.621 548.593 587.364 548.593 588.117C548.573 593.267 548.573 593.267 547.453 594.387C545.786 594.481 544.119 594.521 542.453 594.507C541.093 594.517 541.093 594.517 539.703 594.517C537.453 594.387 537.453 594.387 536.453 593.387C536.313 589.717 536.413 586.057 536.453 582.387C529.523 582.387 522.593 582.387 515.453 582.387C515.493 588.597 515.493 588.597 515.543 594.807C515.553 595.957 515.553 595.957 515.553 597.137C515.559 597.924 515.566 598.721 515.573 599.527C515.453 601.387 515.453 601.387 514.453 602.387C512.786 602.481 511.119 602.521 509.453 602.507C508.093 602.517 508.093 602.517 506.703 602.517C504.453 602.387 504.453 602.387 503.453 601.387C503.453 595.117 503.453 588.847 503.453 582.387C479.693 582.387 455.933 582.387 431.453 582.387C431.453 600.537 431.453 618.687 431.453 637.387C437.393 637.387 443.333 637.387 449.453 637.387C449.433 635.274 449.413 633.127 449.393 630.947C449.366 628.761 449.386 626.574 449.453 624.387C450.453 623.387 450.453 623.387 452.703 623.257C453.609 623.257 454.526 623.257 455.453 623.257C456.813 623.257 456.813 623.257 458.203 623.257C460.453 623.387 460.453 623.387 461.453 624.387C461.546 626.154 461.589 627.924 461.583 629.697C461.589 630.771 461.593 631.857 461.593 632.957C461.586 634.084 461.583 635.227 461.583 636.387C461.583 637.514 461.586 638.657 461.593 639.817C461.593 640.884 461.589 641.971 461.583 643.077C461.583 644.064 461.583 645.067 461.583 646.087C461.453 648.387 461.453 648.387 460.453 649.387C457.519 649.487 454.583 649.531 451.643 649.517C450.763 649.517 449.869 649.521 448.963 649.527C447.089 649.527 445.216 649.524 443.343 649.517C440.463 649.511 437.586 649.514 434.713 649.527C432.899 649.527 431.083 649.524 429.263 649.517C428.403 649.524 427.529 649.527 426.643 649.527C420.573 649.507 420.573 649.507 419.453 648.387C419.366 646.334 419.329 644.277 419.343 642.217C419.343 641.577 419.343 640.927 419.343 640.267C419.343 638.127 419.346 635.991 419.353 633.857C419.359 632.377 419.363 630.897 419.363 629.417C419.369 625.517 419.376 621.621 419.383 617.727C419.396 613.747 419.403 609.771 419.403 605.797C419.416 597.997 419.433 590.194 419.453 582.387C416.153 582.387 412.853 582.387 409.453 582.387C409.466 583.594 409.479 584.821 409.493 586.067C409.499 587.654 409.506 589.241 409.513 590.827C409.526 591.621 409.536 592.431 409.543 593.257C409.543 595.304 409.513 597.347 409.453 599.387C407.773 601.067 405.663 600.517 403.363 600.517C402.336 600.517 401.296 600.521 400.243 600.527C398.613 600.517 398.613 600.517 396.953 600.507C395.873 600.514 394.779 600.521 393.673 600.527C392.646 600.521 391.606 600.517 390.553 600.517C389.599 600.517 388.636 600.517 387.663 600.517C385.453 600.387 385.453 600.387 384.453 599.387C384.359 597.721 384.319 596.054 384.333 594.387C384.326 593.487 384.323 592.571 384.323 591.637C384.453 589.387 384.453 589.387 385.453 588.387C387.473 588.321 389.493 588.301 391.513 588.327C393.173 588.337 393.173 588.337 394.863 588.357C395.716 588.364 396.579 588.374 397.453 588.387C397.433 586.567 397.433 586.567 397.423 584.707C397.409 583.121 397.399 581.534 397.393 579.947C397.386 579.154 397.376 578.344 397.363 577.517C397.363 575.471 397.393 573.427 397.453 571.387C398.453 570.387 398.453 570.387 400.493 570.277C401.366 570.277 402.249 570.281 403.143 570.287C404.083 570.294 405.036 570.297 406.003 570.297C406.996 570.304 407.999 570.314 409.013 570.327C410.006 570.327 411.013 570.331 412.033 570.337C414.506 570.351 416.979 570.367 419.453 570.387C419.446 569.821 419.443 569.244 419.443 568.657C419.423 566.091 419.406 563.521 419.393 560.947C419.386 560.054 419.376 559.147 419.363 558.227C419.363 557.381 419.359 556.517 419.353 555.637C419.353 554.851 419.349 554.054 419.343 553.247C419.513 550.467 419.933 550.417 422.703 550.257Z" fill="black"/>
<path d="M487.453 483.387C494.483 488.927 498.633 494.927 501.453 503.387C502.193 511.907 501.633 519.967 496.533 527.057C488.813 536.057 481.573 540.517 469.793 541.637C460.873 542.027 453.903 539.727 447.083 533.947C439.753 526.987 435.293 520.197 434.953 509.887C435.323 499.797 439.423 493.387 446.453 486.387C458.013 475.947 474.293 475.487 487.453 483.387Z" fill="black"/>
<path d="M312.323 405.107C316.433 407.567 317.993 410.987 319.453 415.387C319.723 421.027 319.643 426.677 319.643 432.327C319.643 433.207 319.643 434.104 319.643 435.017C319.643 468.147 318.423 501.277 317.453 534.387C316.833 534.081 316.206 533.767 315.573 533.447C313.606 532.467 311.639 531.487 309.673 530.507C308.246 529.801 306.819 529.094 305.393 528.387C304.673 528.034 303.946 527.674 303.213 527.307C302.519 526.967 301.816 526.617 301.103 526.257C300.163 525.797 300.163 525.797 299.203 525.317C297.453 524.387 297.453 524.387 294.453 522.387C294.183 519.887 294.093 517.627 294.143 515.127C294.149 514.387 294.153 513.634 294.153 512.867C294.159 511.234 294.176 509.604 294.203 507.977C294.229 505.384 294.249 502.791 294.263 500.197C294.283 495.611 294.316 491.027 294.363 486.447C294.436 479.154 294.489 471.857 294.523 464.557C294.543 462.031 294.569 459.501 294.603 456.967C295.093 435.207 295.093 435.207 286.893 415.827C284.703 413.377 284.703 413.377 282.453 412.387C283.953 407.897 287.553 405.717 291.453 403.387C298.613 400.997 305.513 402.107 312.323 405.107Z" fill="black"/>
<path d="M637.413 403.157C644.583 402.687 650.803 405.237 656.243 409.927C657.453 411.387 657.453 411.387 657.453 413.387C656.093 414.407 656.093 414.407 654.703 415.447C648.483 420.447 646.723 428.757 645.653 436.347C645.533 437.221 645.409 438.111 645.283 439.017C644.253 447.527 644.433 455.977 644.693 464.527C644.726 465.961 644.763 467.397 644.803 468.837C644.963 474.757 645.133 480.677 645.423 486.587C646.583 510.947 646.583 510.947 643.043 516.667C639.633 520.097 635.833 521.927 631.333 523.557C629.253 524.477 627.803 525.597 626.093 527.097C623.453 529.387 623.453 529.387 621.453 529.387C621.426 528.134 621.399 526.857 621.373 525.557C621.259 519.691 621.139 513.821 621.013 507.947C620.993 506.894 620.973 505.821 620.953 504.727C620.713 493.357 620.453 481.997 619.893 470.637C619.423 460.167 619.253 449.687 619.163 439.207C619.149 437.307 619.126 435.407 619.093 433.507C619.053 430.827 619.033 428.151 619.033 425.477C619.013 424.684 618.993 423.877 618.973 423.057C618.993 417.477 620.163 412.977 623.453 408.387C627.673 404.917 632.123 403.777 637.413 403.157Z" fill="black"/>
<path d="M468.103 726.817C469.616 726.784 471.126 726.731 472.633 726.657C480.853 726.257 486.923 726.127 493.583 731.547C495.216 733.147 496.839 734.761 498.453 736.387C499.839 737.314 501.226 738.234 502.613 739.147C504.923 741.137 505.413 742.147 505.993 745.187C506.143 748.577 506.063 751.877 505.893 755.267C505.859 756.421 505.826 757.597 505.793 758.797C505.713 761.657 505.599 764.521 505.453 767.387C504.233 767.367 502.993 767.347 501.733 767.327C493.003 767.017 493.003 767.017 485.173 770.027C483.763 772.087 482.623 774.187 481.453 776.387C478.373 779.957 475.343 782.717 470.513 783.197C466.103 782.837 463.493 780.497 460.313 777.607C458.453 775.387 458.453 775.387 457.673 773.617C456.773 771.567 455.983 770.037 454.453 768.387C451.213 767.377 448.083 767.407 444.703 767.447C443.373 767.427 443.373 767.427 442.013 767.397C439.826 767.364 437.639 767.361 435.453 767.387C432.753 746.597 432.753 746.597 437.093 739.847C446.413 729.977 454.933 727.067 468.103 726.817Z" fill="black"/>
<path d="M689.583 565.827C697.813 567.017 705.133 574.207 710.453 580.387C710.453 581.374 710.453 582.374 710.453 583.387C709.646 583.414 708.826 583.441 707.993 583.467C688.763 584.447 675.353 593.757 662.453 607.507C650.303 621.707 642.673 638.307 635.453 655.387C631.686 655.414 627.916 655.434 624.143 655.447C622.533 655.457 622.533 655.457 620.893 655.477C619.873 655.477 618.836 655.481 617.783 655.487C616.836 655.494 615.876 655.497 614.903 655.497C612.453 655.387 612.453 655.387 609.453 654.387C610.033 648.937 611.923 644.587 614.263 639.697C614.663 638.877 615.063 638.044 615.463 637.197C622.863 622.147 631.993 608.617 643.453 596.387C643.913 595.887 644.379 595.384 644.853 594.877C653.623 585.467 663.463 578.067 674.393 571.387C675.013 571.001 675.646 570.611 676.293 570.217C680.783 567.547 684.543 566.727 689.583 565.827Z" fill="black"/>
<path d="M261.453 574.387C264.693 575.607 267.673 577.157 270.703 578.827C271.529 579.274 272.366 579.724 273.213 580.177C280.573 584.267 287.063 588.907 293.453 594.387C293.959 594.814 294.469 595.247 294.983 595.687C311.193 609.537 322.113 626.007 332.083 644.697C332.516 645.511 332.956 646.337 333.403 647.177C333.803 647.944 334.209 648.717 334.623 649.497C335.153 650.517 335.153 650.517 335.693 651.557C336.453 653.387 336.453 653.387 336.453 656.387C327.443 657.017 318.493 657.557 309.453 657.387C309.113 656.474 308.769 655.544 308.423 654.597C299.133 630.087 283.443 605.897 259.053 594.417C251.133 591.277 242.923 589.927 234.453 589.387C236.703 583.787 241.793 580.917 246.453 577.387C247.459 576.547 248.479 575.694 249.513 574.827C253.713 572.767 256.963 573.397 261.453 574.387Z" fill="black"/>
<path d="M864.453 356.387C867.363 361.727 868.803 366.677 869.583 372.727C869.749 373.967 869.919 375.231 870.093 376.517C870.213 377.457 870.333 378.414 870.453 379.387C844.473 384.497 818.493 389.597 792.453 394.387C791.133 394.634 789.813 394.881 788.493 395.127C784.606 395.841 780.719 396.551 776.833 397.257C775.673 397.477 774.496 397.697 773.303 397.917C772.229 398.111 771.143 398.307 770.043 398.507C769.109 398.674 768.163 398.847 767.203 399.027C764.453 399.387 764.453 399.387 758.453 399.387C757.793 395.097 757.133 390.807 756.453 386.387C762.593 384.007 768.783 381.977 775.083 380.077C776.076 379.771 777.086 379.464 778.113 379.157C785.853 376.827 793.643 374.677 801.453 372.587C807.463 370.967 813.403 369.177 819.333 367.257C826.383 364.977 833.443 363.057 840.653 361.327C845.613 360.097 850.483 358.627 855.363 357.117C858.513 356.377 861.233 356.257 864.453 356.387Z" fill="black"/>
<path d="M611.453 85.3874C618.213 85.8974 623.893 88.3574 630.083 91.0174C631.203 91.4907 632.343 91.9774 633.503 92.4774C654.033 101.417 673.863 111.867 692.453 124.387C693.153 124.854 693.863 125.327 694.583 125.807C710.523 136.447 725.723 148.117 739.873 161.047C741.273 162.327 742.689 163.584 744.123 164.817C749.853 169.717 755.193 174.967 760.503 180.297C762.016 181.817 763.533 183.334 765.053 184.847C770.403 190.187 775.573 195.617 780.453 201.387C781.339 202.407 782.229 203.427 783.123 204.447C799.313 223.327 814.163 243.767 826.453 265.387C826.873 266.121 827.299 266.864 827.733 267.617C837.503 284.627 837.503 284.627 840.453 293.387C838.473 294.377 838.473 294.377 836.453 295.387C836.186 294.881 835.913 294.371 835.633 293.857C819.303 263.397 800.153 234.527 776.793 208.967C775.526 207.587 774.286 206.184 773.073 204.757C767.813 198.607 762.143 192.887 756.423 187.167C754.716 185.461 753.016 183.747 751.323 182.027C745.393 176.077 739.393 170.477 732.803 165.267C730.553 163.467 728.433 161.587 726.333 159.637C702.863 138.597 675.163 121.197 647.453 106.387C645.859 105.527 644.266 104.664 642.673 103.797C634.373 99.3274 626.083 95.1074 617.263 91.7174C615.383 90.9574 615.383 90.9574 612.453 89.3874C611.523 87.1974 611.523 87.1974 611.453 85.3874Z" fill="black"/>
<path d="M609.453 99.3874C615.933 100.287 621.403 102.647 627.393 105.197C629.113 105.937 629.113 105.937 630.873 106.687C661.063 119.767 688.703 136.997 714.453 157.387C715.853 158.497 715.853 158.497 717.283 159.617C723.243 164.427 728.933 169.477 734.543 174.697C737.216 177.157 739.916 179.594 742.643 182.007C749.383 188.077 755.753 194.417 761.653 201.317C763.633 203.587 765.663 205.797 767.703 208.007C772.803 213.667 777.453 219.617 782.103 225.637C783.376 227.277 784.659 228.911 785.953 230.537C799.233 247.417 810.473 265.687 820.513 284.637C821.253 286.017 821.253 286.017 822.003 287.417C822.449 288.277 822.903 289.147 823.363 290.027C823.973 291.177 823.973 291.177 824.583 292.357C825.453 294.387 825.453 294.387 825.453 297.387C824.139 297.387 822.806 297.387 821.453 297.387C820.873 296.314 820.286 295.224 819.693 294.117C804.473 266.187 786.463 240.257 765.453 216.387C764.666 215.487 763.866 214.574 763.053 213.647C757.073 206.967 750.793 200.597 744.483 194.237C743.483 193.231 742.483 192.221 741.483 191.207C735.623 185.267 729.593 179.707 723.063 174.497C720.583 172.487 718.203 170.407 715.843 168.267C711.473 164.347 706.913 160.767 702.203 157.267C701.349 156.627 700.483 155.977 699.603 155.317C673.283 135.867 645.103 119.257 615.323 105.697C613.009 104.644 610.719 103.541 608.453 102.387C608.779 101.401 609.113 100.401 609.453 99.3874Z" fill="black"/>
<path d="M426.453 695.387C446.723 695.317 466.983 695.487 487.253 695.847C490.793 695.914 494.336 695.974 497.883 696.027C504.736 696.147 511.593 696.267 518.453 696.387C516.313 700.807 513.493 703.827 510.083 707.327C509.243 708.237 509.243 708.237 508.383 709.167C500.663 717.077 491.653 719.937 480.713 720.077C479.339 720.071 477.966 720.057 476.593 720.037C474.526 720.017 472.456 720.027 470.383 720.067C459.313 720.107 449.203 718.217 440.793 710.507C439.446 709.114 438.126 707.701 436.833 706.267C436.153 705.554 435.466 704.831 434.773 704.097C433.526 702.777 432.286 701.451 431.053 700.117C429.553 698.511 428.019 696.934 426.453 695.387Z" fill="black"/>
<path d="M419.913 57.9375C436.433 55.8875 452.833 56.0777 469.453 56.3877C469.663 79.3776 469.163 102.268 468.123 125.228C467.983 128.421 467.846 131.611 467.713 134.798C467.58 137.911 467.443 141.024 467.303 144.138C467.243 145.604 467.18 147.071 467.113 148.537C467.027 150.564 466.936 152.591 466.843 154.617C466.789 155.75 466.74 156.904 466.693 158.077C466.443 161.547 465.983 164.948 465.453 168.388C464.673 168.481 463.883 168.578 463.083 168.678C387.833 177.928 313.323 204.938 259.013 259.838C257.303 261.538 255.513 263.108 253.644 264.638C237.074 279.008 222.103 299.288 211.453 318.388C205.733 316.778 200.863 314.018 195.703 311.138C193.736 310.051 191.769 308.968 189.803 307.888C188.776 307.321 187.733 306.744 186.673 306.157C180.063 302.527 173.413 298.988 166.763 295.428C161.923 292.828 157.103 290.218 152.354 287.468C151.244 286.818 151.243 286.817 150.104 286.157C148.757 285.377 147.416 284.587 146.083 283.787C144.583 282.907 143.023 282.138 141.453 281.388C137.453 282.718 136.613 284.888 134.453 288.388C135.153 288.634 135.863 288.887 136.583 289.147C139.803 290.537 142.473 292.258 145.383 294.218C145.949 294.604 146.527 294.994 147.113 295.388C148.353 296.221 149.59 297.054 150.823 297.888C154.156 300.134 157.493 302.377 160.833 304.617C161.526 305.077 162.23 305.547 162.943 306.027C170.29 310.947 177.664 315.827 185.063 320.667C186.49 321.607 187.913 322.544 189.333 323.478C191.326 324.784 193.32 326.091 195.313 327.397C195.907 327.784 196.507 328.181 197.113 328.588C199.193 329.948 201.233 331.278 203.453 332.388C202.213 339.858 200.553 347.098 198.513 354.388C194.783 367.998 191.283 381.668 187.803 395.338C183.369 412.691 178.92 430.041 174.453 447.388H53.4531C53.4531 436.068 53.4536 436.067 54.3936 430.327C54.6535 428.668 54.6529 428.667 54.9229 426.978C55.4528 424.388 55.4532 424.388 56.4531 423.388C58.9631 423.248 61.4431 423.197 63.9531 423.197H66.3828C80.4228 423.307 94.4531 424.448 108.453 425.388C108.513 424.328 108.573 423.254 108.633 422.167C110.393 391.287 118.983 361.567 131.203 333.268C131.623 332.294 132.046 331.304 132.473 330.298C133.053 328.988 133.053 328.987 133.633 327.647C134.623 325.318 134.623 325.317 134.453 322.388C131.903 320.478 131.903 320.477 128.563 318.657C127.957 318.304 127.34 317.948 126.713 317.588C124.733 316.448 122.749 315.317 120.763 314.197C118.836 313.097 116.91 311.994 114.983 310.888C113.71 310.154 112.433 309.421 111.153 308.688C104.833 305.058 98.6331 301.248 92.4531 297.388C93.6831 293.398 95.1329 289.888 97.2129 286.268C97.7462 285.321 98.2935 284.361 98.8535 283.388C99.4201 282.401 99.9964 281.401 100.583 280.388C101.453 278.858 101.453 278.857 102.343 277.308C104.043 274.334 105.746 271.361 107.453 268.388C108.333 266.848 109.213 265.308 110.093 263.768C111.873 260.641 113.66 257.514 115.453 254.388C122.543 258.018 129.243 262.108 135.953 266.388C137.613 267.434 139.277 268.481 140.943 269.527C143.517 271.147 146.066 272.804 148.593 274.497C155.943 279.117 162.913 279.518 171.453 278.388C175.593 277.228 178.433 275.447 181.453 272.327C183.463 266.417 183.513 259.957 180.953 254.197C175.713 245.247 166.703 239.328 158.453 233.388L162.453 226.388C166.253 226.978 169.064 228.077 172.394 229.957C173.307 230.457 174.23 230.967 175.163 231.487C177.076 232.547 178.983 233.617 180.883 234.697C181.789 235.197 182.71 235.7 183.644 236.207C184.47 236.674 185.307 237.144 186.153 237.617C188.433 238.637 188.433 238.637 190.613 237.667C193.253 235.827 195.193 233.607 197.333 231.197C198.293 230.124 199.253 229.048 200.213 227.968C200.726 227.394 201.247 226.814 201.773 226.228C203.593 224.254 205.443 222.311 207.323 220.397C208.293 219.398 208.294 219.398 209.273 218.378C210.547 217.065 211.83 215.761 213.123 214.468C213.696 213.868 214.28 213.258 214.873 212.638C215.393 212.111 215.92 211.574 216.453 211.027C217.673 209.407 217.673 209.407 217.213 207.317C216.213 204.778 214.733 203.148 212.894 201.138C212.254 200.438 211.606 199.724 210.953 198.997C210.46 198.471 209.96 197.934 209.453 197.388C206.383 198.438 204.383 199.447 201.894 201.577C199.454 203.387 199.453 203.387 197.503 203.167C195.243 202.307 194.023 201.357 192.283 199.697C191.71 199.151 191.127 198.594 190.533 198.027C189.933 197.447 189.323 196.861 188.703 196.268C187.456 195.081 186.21 193.894 184.963 192.707C184.363 192.141 183.757 191.564 183.144 190.978C180.004 188.018 176.733 185.188 173.453 182.388C174.853 179.138 176.424 177.317 179.144 175.077C181.863 172.767 184.463 170.438 186.953 167.888C189.263 165.528 191.643 163.317 194.153 161.167C199.253 156.737 204.114 152.068 208.983 147.378C209.657 146.738 210.343 146.084 211.043 145.417C211.953 144.547 211.953 144.547 212.883 143.657C214.453 142.387 214.453 142.388 216.453 142.388C217.82 143.901 219.134 145.464 220.394 147.077C223.044 150.407 225.693 153.697 228.533 156.867C229.033 157.441 229.543 158.024 230.063 158.617C231.063 159.744 232.07 160.861 233.083 161.968C236.463 165.828 236.463 165.828 236.423 168.598C234.933 171.358 232.743 173.268 230.453 175.388C232.703 182.437 238.663 186.147 244.833 189.787C249.903 192.267 253.843 193.188 259.453 192.388C265.053 189.988 268.523 186.778 271.453 181.388C273.543 175.108 273.523 169.048 271.043 162.878C269.193 159.198 267.083 155.668 264.953 152.138C264.226 150.891 263.503 149.644 262.783 148.397C261.03 145.378 259.253 142.374 257.453 139.388L261.453 135.388C265.183 136.628 266.093 138.128 268.513 141.197C269.293 142.177 270.087 143.171 270.894 144.178C271.307 144.698 271.724 145.225 272.144 145.758C274.393 148.568 276.703 151.317 279.013 154.077C279.873 155.097 280.73 156.121 281.583 157.147C282.513 158.257 282.513 158.258 283.453 159.388C287.053 158.018 290.383 156.417 293.753 154.567C294.726 154.034 295.713 153.494 296.713 152.947C297.713 152.394 298.729 151.834 299.763 151.268C301.303 150.418 301.303 150.417 302.883 149.558C305.409 148.171 307.933 146.781 310.453 145.388C309.993 138.478 307.234 132.817 304.394 126.577C303.46 124.511 302.53 122.44 301.604 120.367C301.197 119.461 300.78 118.544 300.354 117.617C299.454 115.387 299.453 115.387 299.453 113.388C302.453 111.388 302.453 111.388 304.423 111.468C307.293 112.768 308.293 114.537 310.023 117.157C310.993 118.617 310.993 118.618 311.993 120.098C312.66 121.118 313.333 122.151 314.013 123.197C315.353 125.204 316.69 127.211 318.023 129.218C318.603 130.111 319.196 131.015 319.803 131.928C321.283 134.128 322.833 136.281 324.453 138.388C331.153 136.308 337.443 133.697 343.833 130.787C347.983 129.177 352.093 128.238 356.453 127.388C356.213 126.214 355.969 125.024 355.723 123.817C353.776 114.324 351.956 104.808 350.263 95.2676C350.013 93.8576 350.013 93.8575 349.763 92.4375C348.723 86.4376 347.973 80.4576 347.453 74.3877C356.893 71.0377 366.333 68.0173 376.083 65.6973C376.876 65.5106 377.68 65.3213 378.493 65.1279C391.483 62.1379 404.603 59.8773 417.833 58.1973C418.513 58.1106 419.206 58.0242 419.913 57.9375ZM434.453 90.3877C412.583 90.3877 390.873 92.9477 369.453 97.3877C369.883 105.258 370.483 112.748 372.453 120.388C373.373 120.261 374.28 120.138 375.173 120.018C376.453 119.851 377.713 119.684 378.953 119.518C382.526 119.031 386.104 118.561 389.684 118.107C390.437 118.021 391.177 117.934 391.903 117.848C393.337 117.674 394.77 117.5 396.203 117.327C398.623 117.04 401.04 116.728 403.453 116.388C406.423 115.288 406.423 115.288 409.553 114.998C410.819 114.878 412.073 114.758 413.313 114.638C415.373 114.431 417.436 114.227 419.503 114.027C420.936 113.894 422.37 113.757 423.803 113.617C425.869 113.411 427.933 113.208 429.993 113.008C433.263 112.698 433.263 112.698 436.453 112.388L434.453 90.3877Z" fill="black"/>
<path d="M571.453 69.3877C576.973 70.0977 582.063 71.7373 587.333 73.4473C588.206 73.7273 589.093 74.0143 589.993 74.3076C592.146 74.9943 594.3 75.6877 596.453 76.3877C595.103 83.9875 593.113 91.3074 590.894 98.6973C590.267 100.797 589.639 102.897 589.013 104.997C588.739 105.91 588.464 106.837 588.184 107.777C587.484 110.297 586.933 112.818 586.453 115.388C587.503 115.568 587.503 115.567 588.583 115.747C594.193 116.997 599.413 119.497 604.703 121.697C605.343 121.964 605.993 122.234 606.653 122.508C633.863 133.848 659.653 147.438 684.453 163.388C683.753 167.657 682.333 170.707 680.193 174.417C679.273 176.877 679.523 177.958 680.453 180.388C681.443 181.878 681.443 181.878 682.453 183.388C682.543 186.748 682.453 190.047 682.293 193.407C682.163 197.987 682.493 200.828 685.453 204.388C689.993 208.387 695.063 207.727 700.763 207.577C701.689 207.564 702.633 207.55 703.593 207.537C705.879 207.497 708.166 207.448 710.453 207.388C710.333 208.434 710.213 209.494 710.093 210.567C708.913 220.897 708.913 220.897 711.903 230.617C716.213 235.527 722.253 237.447 728.583 238.197C729.85 238.257 731.14 238.321 732.453 238.388C732.513 239.707 732.513 239.708 732.573 241.058C732.633 242.211 732.696 243.384 732.763 244.577C732.853 246.297 732.853 246.298 732.943 248.058C733.483 251.557 734.523 253.468 736.453 256.388V258.388C737.173 258.674 737.904 258.964 738.644 259.258C740.35 259.938 742.03 260.678 743.684 261.478C747.163 262.617 749.994 262.308 753.644 262.138C758.483 262.368 761.393 262.848 764.693 266.388C771.573 275.187 771.573 275.187 771.303 280.117C770.563 282.087 769.734 284.027 768.894 285.947C766.844 291.307 766.593 296.738 767.453 302.388C769.783 307.017 773.673 309.767 778.513 311.447C783.083 312.697 787.753 313.028 792.453 313.388C793.126 315.321 793.793 317.257 794.453 319.197C794.826 320.271 795.203 321.361 795.583 322.468C796.453 325.387 796.453 325.388 796.453 328.388C812.523 325.228 828.173 320.777 843.133 314.037C845.953 313.247 847.673 313.518 850.453 314.388C852.003 316.128 852.003 316.128 853.203 318.258C853.813 319.308 853.813 319.308 854.443 320.378C856.233 323.918 856.573 326.667 856.513 330.577C856.506 331.47 856.5 332.381 856.493 333.308C856.473 334.337 856.473 334.338 856.453 335.388C844.153 342.428 830.993 346.398 817.453 350.388C816.333 350.721 815.199 351.054 814.053 351.388C799.253 355.708 784.353 359.448 769.333 362.888C768.56 363.068 767.777 363.248 766.983 363.428C764.783 363.928 762.583 364.424 760.383 364.917C758.483 365.347 758.483 365.347 756.553 365.777C753.453 366.387 753.453 366.388 750.453 366.388C750.033 365.434 749.603 364.464 749.163 363.478C737.793 338.368 723.073 315.308 706.453 293.388C705.773 292.488 705.773 292.487 705.083 291.577C699.373 284.067 693.383 276.938 686.934 270.048C684.927 267.895 682.976 265.694 681.083 263.447C673.583 254.817 665.263 246.678 656.453 239.388C655.94 238.954 655.416 238.514 654.883 238.067C622.553 210.817 586.433 191.768 546.453 178.388C547.713 169.868 549.533 161.557 551.623 153.207C554.623 141.234 557.419 129.211 560.013 117.138C562.313 106.418 564.753 95.7305 567.333 85.0771C567.626 83.844 567.927 82.5977 568.233 81.3379C570.313 72.8181 570.313 72.8175 571.453 69.3877ZM581.453 124.388C580.48 127.221 579.557 130.068 578.684 132.928C578.274 134.288 578.273 134.287 577.883 135.617C577.403 137.204 576.926 138.794 576.453 140.388C580.006 141.908 583.553 143.438 587.093 144.978C588.566 145.611 590.039 146.248 591.513 146.888C605.883 153.048 619.503 160.077 633.083 167.827C637.453 170.347 641.333 172.828 646.453 173.388C649.193 169.068 649.193 169.067 654.453 158.388C639.203 148.988 623.213 140.728 606.763 133.628C605.063 132.908 605.063 132.907 603.394 132.197C596.184 129.147 589.003 126.468 581.453 124.388Z" fill="black"/>
<path d="M477.703 623.257C478.609 623.257 479.526 623.257 480.453 623.257C481.813 623.257 481.813 623.257 483.203 623.257C485.453 623.387 485.453 623.387 486.453 624.387C486.546 625.827 486.589 627.267 486.583 628.707C486.589 629.621 486.593 630.547 486.593 631.487C486.593 632.481 486.589 633.487 486.583 634.507C486.593 636.037 486.593 636.037 486.593 637.597C486.593 639.751 486.589 641.904 486.583 644.057C486.583 647.371 486.586 650.684 486.593 653.997C486.593 656.084 486.589 658.171 486.583 660.257C486.589 661.251 486.593 662.261 486.593 663.287C486.593 664.201 486.589 665.127 486.583 666.067C486.583 666.874 486.583 667.694 486.583 668.527C486.453 670.387 486.453 670.387 485.453 671.387C483.613 671.481 481.769 671.524 479.923 671.517C478.809 671.517 477.679 671.521 476.533 671.527C475.359 671.521 474.166 671.514 472.953 671.507C471.183 671.517 471.183 671.517 469.383 671.527C467.703 671.517 467.703 671.517 465.983 671.517C464.956 671.517 463.909 671.517 462.843 671.517C460.453 671.387 460.453 671.387 459.453 670.387C459.359 668.721 459.319 667.054 459.333 665.387C459.326 664.487 459.323 663.571 459.323 662.637C459.453 660.387 459.453 660.387 460.453 659.387C462.806 659.321 465.159 659.301 467.513 659.327C468.799 659.334 470.103 659.344 471.423 659.357C472.423 659.364 473.433 659.374 474.453 659.387C474.446 658.341 474.443 657.274 474.443 656.187C474.423 652.287 474.409 648.387 474.403 644.487C474.396 642.801 474.389 641.111 474.383 639.417C474.369 636.991 474.359 634.564 474.353 632.137C474.353 631.384 474.349 630.617 474.343 629.837C474.349 628.017 474.386 626.201 474.453 624.387C475.453 623.387 475.453 623.387 477.703 623.257Z" fill="black"/>
<path d="M506.703 613.257C507.609 613.257 508.526 613.257 509.453 613.257C510.813 613.257 510.813 613.257 512.203 613.257C514.453 613.387 514.453 613.387 515.453 614.387C515.546 616.134 515.589 617.881 515.583 619.627C515.589 620.741 515.593 621.871 515.593 623.017C515.593 624.224 515.589 625.451 515.583 626.697C515.589 627.931 515.593 629.184 515.593 630.457C515.593 633.084 515.589 635.711 515.583 638.337C515.576 641.711 515.576 645.084 515.583 648.457C515.589 651.664 515.589 654.871 515.583 658.077C515.589 659.284 515.593 660.511 515.593 661.757C515.593 662.871 515.589 664.001 515.583 665.147C515.583 666.134 515.583 667.134 515.583 668.147C515.453 670.387 515.453 670.387 514.453 671.387C512.786 671.481 511.119 671.521 509.453 671.507C508.093 671.517 508.093 671.517 506.703 671.517C504.453 671.387 504.453 671.387 503.453 670.387C503.359 668.641 503.316 666.894 503.323 665.147C503.323 664.034 503.319 662.904 503.313 661.757C503.313 660.551 503.316 659.324 503.323 658.077C503.323 656.844 503.323 655.591 503.323 654.317C503.316 651.691 503.316 649.064 503.323 646.437C503.329 643.064 503.329 639.691 503.323 636.317C503.316 633.111 503.316 629.904 503.323 626.697C503.323 625.491 503.319 624.264 503.313 623.017C503.319 621.904 503.323 620.774 503.323 619.627C503.323 618.641 503.323 617.641 503.323 616.627C503.503 613.597 503.673 613.437 506.703 613.257Z" fill="black"/>
<path d="M476.453 865.387C477.113 867.027 477.779 868.694 478.453 870.387C479.293 869.567 480.146 868.734 481.013 867.887C483.723 865.617 484.453 865.387 488.203 865.007C491.453 865.387 491.453 865.387 493.453 866.387C493.126 868.027 492.793 869.694 492.453 871.387C490.486 871.387 488.486 871.387 486.453 871.387C485.799 873.027 485.133 874.694 484.453 876.387C487.753 876.057 491.053 875.727 494.453 875.387C494.833 877.381 495.166 879.381 495.453 881.387C494.453 882.387 494.453 882.387 491.803 882.517C490.723 882.517 489.626 882.517 488.513 882.517C486.893 882.517 486.893 882.517 485.243 882.517C482.453 882.387 482.453 882.387 480.453 881.387C480.453 886.007 480.453 890.627 480.453 895.387C478.486 895.387 476.486 895.387 474.453 895.387C474.419 894.221 474.383 893.037 474.343 891.837C473.993 882.997 473.403 874.817 470.453 866.387C472.453 865.387 472.453 865.387 476.453 865.387Z" fill="black"/>
<path d="M430.453 865.387C432.133 865.674 433.799 866.007 435.453 866.387C436.113 868.697 436.773 871.007 437.453 873.387C439.093 873.387 440.759 873.387 442.453 873.387C442.453 871.077 442.453 868.767 442.453 866.387C444.093 866.387 445.759 866.387 447.453 866.387C447.783 868.697 448.113 871.007 448.453 873.387C449.113 873.387 449.779 873.387 450.453 873.387C450.783 870.747 451.113 868.107 451.453 865.387C453.426 865.387 455.426 865.387 457.453 865.387C457.663 870.737 457.523 874.737 454.153 879.047C452.453 880.387 452.453 880.387 450.373 880.427C449.233 880.217 449.233 880.217 448.083 880.007C444.213 879.337 442.613 879.557 438.453 880.387C438.453 885.337 438.453 890.287 438.453 895.387C436.813 895.387 435.146 895.387 433.453 895.387C433.419 894.387 433.383 893.374 433.343 892.347C432.973 884.207 432.093 876.677 429.973 868.767C429.806 867.987 429.633 867.194 429.453 866.387C429.779 866.061 430.113 865.727 430.453 865.387Z" fill="black"/>
<path d="M512.453 864.387C514.913 866.847 515.453 869.097 516.453 872.387C516.906 871.607 517.366 870.814 517.833 870.007C519.453 867.387 519.453 867.387 521.453 865.387C523.333 865.157 523.333 865.157 525.453 865.197C526.503 865.207 526.503 865.207 527.583 865.217C529.453 865.387 529.453 865.387 531.453 866.387C531.126 868.027 530.793 869.694 530.453 871.387C528.143 871.387 525.833 871.387 523.453 871.387C522.799 873.027 522.133 874.694 521.453 876.387C524.753 876.387 528.053 876.387 531.453 876.387C531.779 878.027 532.113 879.694 532.453 881.387C529.963 882.627 528.223 882.517 525.453 882.517C524.573 882.517 523.676 882.517 522.763 882.517C520.453 882.387 520.453 882.387 518.453 881.387C518.123 886.007 517.793 890.627 517.453 895.387C515.486 895.387 513.486 895.387 511.453 895.387C511.433 894.834 511.413 894.271 511.393 893.697C511.293 891.111 511.189 888.527 511.083 885.947C511.049 885.074 511.016 884.187 510.983 883.287C510.723 877.427 509.873 872.077 508.453 866.387C509.766 865.727 511.099 865.061 512.453 864.387Z" fill="black"/>
<path d="M259.453 168.387C261.893 170.017 261.893 170.017 263.453 172.387C263.453 176.167 263.243 178.417 260.833 181.387C257.343 182.857 255.063 182.367 251.453 181.387C249.453 179.757 249.453 179.757 248.453 177.387C248.523 173.607 248.673 171.317 251.143 168.387C254.363 166.997 256.123 167.347 259.453 168.387Z" fill="black"/>
<path d="M409.453 864.387C414.913 869.847 414.493 879.057 414.523 886.297C414.516 889.331 414.493 892.361 414.453 895.387C412.486 895.387 410.486 895.387 408.453 895.387C408.433 894.834 408.413 894.271 408.393 893.697C408.293 891.111 408.189 888.527 408.083 885.947C408.049 885.074 408.016 884.187 407.983 883.287C407.723 877.427 406.883 872.077 405.453 866.387C406.766 865.727 408.099 865.061 409.453 864.387Z" fill="black"/>
<path d="M165.453 255.387C167.833 257.017 167.833 257.017 169.453 259.387C170.063 263.057 169.943 264.677 167.833 267.767C164.743 269.877 163.123 269.997 159.453 269.387C157.083 267.757 157.083 267.757 155.453 265.387C154.843 261.717 154.963 260.097 157.083 257.007C160.163 254.897 161.783 254.777 165.453 255.387Z" fill="black"/>
<path d="M139.453 237.387C141.833 239.017 141.833 239.017 143.453 241.387C144.063 245.057 143.943 246.677 141.833 249.767C138.743 251.877 137.123 251.997 133.453 251.387C131.083 249.757 131.083 249.757 129.453 247.387C128.843 243.717 128.963 242.097 131.083 239.007C134.163 236.897 135.783 236.777 139.453 237.387Z" fill="black"/>
<path d="M787.453 287.387C789.833 289.017 789.833 289.017 791.453 291.387C792.013 294.387 792.013 294.387 791.453 297.387C789.043 300.007 787.373 301.187 783.893 301.947C781.453 301.387 781.453 301.387 779.143 299.197C777.303 296.137 776.743 294.867 777.453 291.387C780.283 287.357 782.633 286.587 787.453 287.387Z" fill="black"/>
<path d="M753.453 236.387C755.833 238.017 755.833 238.017 757.453 240.387C758.013 243.387 758.013 243.387 757.453 246.387C755.043 249.007 753.373 250.187 749.893 250.947C747.453 250.387 747.453 250.387 745.143 248.197C743.303 245.137 742.743 243.867 743.453 240.387C746.283 236.357 748.633 235.587 753.453 236.387Z" fill="black"/>
<path d="M731.453 210.387C733.833 212.017 733.833 212.017 735.453 214.387C736.013 217.387 736.013 217.387 735.453 220.387C733.043 223.007 731.373 224.187 727.893 224.947C725.453 224.387 725.453 224.387 723.143 222.197C721.303 219.137 720.743 217.867 721.453 214.387C724.283 210.357 726.633 209.587 731.453 210.387Z" fill="black"/>
<path d="M701.453 183.387C703.833 185.017 703.833 185.017 705.453 187.387C706.013 190.387 706.013 190.387 705.453 193.387C703.043 196.007 701.373 197.187 697.893 197.947C695.453 197.387 695.453 197.387 693.143 195.197C691.303 192.137 690.743 190.867 691.453 187.387C694.283 183.357 696.633 182.587 701.453 183.387Z" fill="black"/>
<path d="M438.703 659.257C439.609 659.257 440.526 659.257 441.453 659.257C442.813 659.257 442.813 659.257 444.203 659.257C446.453 659.387 446.453 659.387 447.453 660.387C447.546 662.054 447.589 663.721 447.583 665.387C447.583 666.287 447.583 667.204 447.583 668.137C447.453 670.387 447.453 670.387 446.453 671.387C444.786 671.481 443.119 671.521 441.453 671.507C440.093 671.517 440.093 671.517 438.703 671.517C436.453 671.387 436.453 671.387 435.453 670.387C435.359 668.721 435.319 667.054 435.333 665.387C435.326 664.487 435.323 663.571 435.323 662.637C435.503 659.597 435.663 659.437 438.703 659.257Z" fill="black"/>
<path d="M422.703 659.257C423.609 659.257 424.526 659.257 425.453 659.257C426.813 659.257 426.813 659.257 428.203 659.257C430.453 659.387 430.453 659.387 431.453 660.387C431.546 662.054 431.589 663.721 431.583 665.387C431.583 666.287 431.583 667.204 431.583 668.137C431.453 670.387 431.453 670.387 430.453 671.387C428.786 671.481 427.119 671.521 425.453 671.507C424.093 671.517 424.093 671.517 422.703 671.517C420.453 671.387 420.453 671.387 419.453 670.387C419.359 668.721 419.319 667.054 419.333 665.387C419.326 664.487 419.323 663.571 419.323 662.637C419.503 659.597 419.663 659.437 422.703 659.257Z" fill="black"/>
</svg>
