<?xml version="1.0"?>
<svg xmlns="http://www.w3.org/2000/svg" viewBox="0 0 225.98863 87.99104" width="225.98863" height="87.991043">
  <g style="fill:#000;fill-rule:nonzero;stroke:none" transform="matrix(1.2150669,0,0,1.2150669,-482.83739,590.28777)">
    <g transform="matrix(1.25,0,0,-1.25,-111.12447,516.94969)">
        <g transform="translate(409.6883,758.3649)">
          <path d="m 0,0 c 1.514,-0.333 2.215,-0.883 2.215,-1.935 0,-1.177 -0.973,-1.935 -2.32,-1.935 -1.084,0 -1.967,0.362 -2.783,1.091 l 0.479,0.561 c 0.707,-0.642 1.386,-0.961 2.331,-0.961 0.913,0 1.516,0.474 1.516,1.163 0,0.648 -0.341,1.002 -1.771,1.306 -1.564,0.341 -2.283,0.843 -2.283,1.972 0,1.086 0.943,1.865 2.238,1.865 0.988,0 1.699,-0.28 2.388,-0.837 L 1.566,1.701 C 0.931,2.214 0.299,2.437 -0.399,2.437 -1.284,2.437 -1.847,1.951 -1.847,1.327 -1.847,0.678 -1.5,0.319 0,0" />
        </g>
    </g>
    <path
       d="m 406.33928,-426.29156 0.96,0 0,-8.5025 -0.96,0 0,8.5025 z" />
    <g transform="matrix(1.25,0,0,-1.25,416.58866,-434.79418)">
      <path d="m 0,0 0.745,0 0,-6.802 -0.608,0 -4.391,5.579 0,-5.579 -0.749,0 0,6.802 0.719,0 L 0,-5.452 0,0 Z" />
    </g>
    <g transform="matrix(1.25,0,0,-1.25,-111.12447,516.94969)">
      <g>
        <g transform="translate(428.3418,754.4754)">
          <path d="m 0,0 c -2.14,0 -3.46,1.552 -3.46,3.51 0,1.873 1.37,3.524 3.411,3.524 1.144,0 1.856,-0.334 2.537,-0.904 L 1.989,5.55 C 1.463,6.007 0.881,6.326 -0.08,6.326 c -1.505,0 -2.584,-1.271 -2.584,-2.798 0,-1.629 1.041,-2.837 2.692,-2.837 0.777,0 1.496,0.303 1.961,0.681 l 0,1.69 -2.069,0 0,0.69 2.809,0 0,-2.71 C 2.099,0.478 1.145,0 0,0" />
        </g>
      </g>
    </g>
    <g transform="matrix(1.25,0,0,-1.25,438.1594,-426.29143)">
      <path d="m 0,0 -0.825,0 -0.798,1.797 -3.702,0 L -6.13,0 l -0.789,0 3.098,6.853 0.723,0 L 0,0 Z m -3.468,5.955 -1.557,-3.468 3.1,0 -1.543,3.468 z" />
    </g>
    <g transform="matrix(1.25,0,0,-1.25,-111.12447,516.94969)">
      <g>
        <g transform="translate(443.4786,756.9972)">
          <path d="m 0,0 -1.652,0 0,-2.404 -0.765,0 0,6.802 2.546,0 C 1.662,4.398 2.672,3.582 2.672,2.234 2.672,0.755 1.448,0 0,0m 0.066,3.688 -1.718,0 0,-2.99 1.681,0 c 1.124,0 1.864,0.601 1.864,1.503 0,0.981 -0.73,1.487 -1.827,1.487" />
        </g>
        <g transform="translate(451.1003,754.4754)">
          <path d="m 0,0 c -2.077,0 -3.463,1.624 -3.463,3.51 0,1.886 1.407,3.524 3.481,3.524 2.066,0 3.457,-1.623 3.457,-3.506 C 3.475,1.647 2.063,0 0,0m 0,6.326 c -1.557,0 -2.67,-1.242 -2.67,-2.798 0,-1.553 1.128,-2.818 2.688,-2.818 1.551,0 2.658,1.244 2.658,2.8 C 2.676,5.065 1.55,6.326 0,6.326" />
        </g>
        <g transform="translate(461.1692,754.5929)">
          <path d="m 0,0 -1.97,2.643 -1.942,0 0,-2.643 -0.769,0 0,6.802 2.922,0 c 1.498,0 2.464,-0.807 2.464,-2.034 0,-1.134 -0.779,-1.797 -1.852,-1.989 L 0.946,0 0,0 Z m -1.815,6.092 -2.097,0 0,-2.761 2.086,0 c 1.021,0 1.752,0.528 1.752,1.41 0,0.845 -0.646,1.351 -1.741,1.351" />
        </g>
      </g>
    </g>
    <g transform="matrix(1.25,0,0,-1.25,474.95853,-433.92068)">
      <path d="m 0,0 -4.15,0 0,-2.322 3.713,0 0,-0.699 -3.713,0 0,-2.384 4.197,0 0,-0.698 -4.963,0 0,6.802 L 0,0.699 0,0 Z" />
    </g>
    <g transform="matrix(1.25,0,0,-1.25,-111.12447,516.94969)">
      <g>
        <g transform="translate(480.6865,757.4978)">
          <path d="m 0,0 c 0,-1.98 -1.133,-3.013 -2.835,-3.013 -1.681,0 -2.83,1.033 -2.83,2.956 l 0,3.954 0.769,0 0,-3.909 c 0,-1.467 0.776,-2.293 2.076,-2.293 1.256,0 2.052,0.759 2.052,2.248 l 0,3.954 L 0,3.897 0,0 Z" />
        </g>
      </g>
    </g>
    <g transform="matrix(1.25,0,0,-1.25,498.80753,-434.79418)">
      <path d="m 0,0 0.748,0 0,-6.802 -0.615,0 -4.389,5.579 0,-5.579 -0.746,0 0,6.802 0.715,0 L 0,-5.452 0,0 Z" />
    </g>
    <path d="m 502.77928,-426.29156 0.955,0 0,-8.5025 -0.955,0 0,8.5025 z" />
    <g transform="matrix(1.25,0,0,-1.25,512.99228,-434.79418)">
      <path d="m 0,0 0.826,0 -2.927,-6.851 -0.681,0 L -5.706,0 -4.854,0 -2.43,-5.858 0,0 Z" />
    </g>
    <g transform="matrix(1.25,0,0,-1.25,522.21053,-433.92068)">
      <path d="m 0,0 -4.152,0 0,-2.322 3.711,0 0,-0.699 -3.711,0 0,-2.384 4.203,0 0,-0.698 -4.972,0 0,6.802 L 0,0.699 0,0 Z" />
    </g>
    <g transform="matrix(1.25,0,0,-1.25,-111.12447,516.94969)">
      <g>
        <g transform="translate(513.3798,754.5929)">
          <path d="m 0,0 -1.975,2.643 -1.938,0 0,-2.643 -0.77,0 0,6.802 2.927,0 C -0.263,6.802 0.7,5.995 0.7,4.768 0.7,3.634 -0.081,2.971 -1.148,2.779 L 0.947,0 0,0 Z m -1.816,6.092 -2.097,0 0,-2.761 2.086,0 c 1.024,0 1.746,0.528 1.746,1.41 0,0.845 -0.641,1.351 -1.735,1.351" />
        </g>
        <g transform="translate(518.5983,758.3649)">
          <path d="m 0,0 c 1.515,-0.333 2.213,-0.883 2.213,-1.935 0,-1.177 -0.967,-1.935 -2.324,-1.935 -1.075,0 -1.958,0.362 -2.778,1.091 l 0.477,0.561 c 0.708,-0.642 1.392,-0.961 2.331,-0.961 0.912,0 1.519,0.474 1.519,1.163 0,0.648 -0.341,1.002 -1.77,1.306 -1.563,0.341 -2.283,0.843 -2.283,1.972 0,1.086 0.944,1.865 2.236,1.865 0.987,0 1.699,-0.28 2.39,-0.837 L 1.567,1.701 C 0.931,2.214 0.299,2.437 -0.403,2.437 -1.284,2.437 -1.846,1.951 -1.846,1.327 -1.846,0.678 -1.498,0.319 0,0" />
        </g>
      </g>
    </g>
    <path d="m 542.47553,-426.29156 0.9625,0 0,-8.5025 -0.9625,0 0,8.5025 z" />
    <g transform="matrix(1.25,0,0,-1.25,549.50791,-426.29143)">
      <path d="m 0,0 -0.776,0 0,6.092 -2.285,0 0,0.71 5.344,0 0,-0.71 L 0,6.092 0,0 Z" />
    </g>
    <g transform="matrix(1.25,0,0,-1.25,558.03428,-426.29143)">
      <path d="m 0,0 -0.776,0 0,2.694 -2.828,4.108 0.934,0 2.291,-3.399 2.311,3.399 0.892,0 L 0,2.7 0,0 Z" />
    </g>
    <g transform="matrix(1.25,0,0,-1.25,-111.12447,516.94969)">
      <g>
        <g transform="translate(545.3118,754.4754)">
          <path d="m 0,0 c -2.068,0 -3.461,1.624 -3.461,3.51 0,1.886 1.41,3.524 3.479,3.524 2.072,0 3.459,-1.623 3.459,-3.506 C 3.477,1.647 2.07,0 0,0m 0,6.326 c -1.558,0 -2.663,-1.242 -2.663,-2.798 0,-1.553 1.129,-2.818 2.681,-2.818 1.558,0 2.662,1.244 2.662,2.8 0,1.555 -1.121,2.816 -2.68,2.816" />
        </g>
      </g>
    </g>
    <g transform="matrix(1.25,0,0,-1.25,583.36378,-433.90669)">
      <path d="m 0,0 -4.118,0 0,-2.43 3.684,0 0,-0.698 -3.684,0 0,-2.964 -0.769,0 0,6.802 L 0,0.71 0,0 Z" />
    </g>
    <g transform="matrix(1.25,0,0,-1.25,401.20015,-413.54143)">
      <path d="m 0,0 -0.776,0 0,6.089 -2.284,0 0,0.709 5.344,0 0,-0.709 L 0,6.089 0,0 Z" />
    </g>
    <g transform="matrix(1.25,0,0,-1.25,412.61378,-421.16581)">
      <path d="m 0,0 -4.154,0 0,-2.324 3.716,0 0,-0.697 -3.716,0 0,-2.384 4.202,0 0,-0.695 -4.97,0 0,6.798 L 0,0.698 0,0 Z" />
    </g>
    <g transform="matrix(1.25,0,0,-1.25,-111.12447,516.94969)">
      <g>
        <g transform="translate(424.32,744.2719)">
          <path d="m 0,0 c -1.959,0 -3.408,1.547 -3.408,3.509 0,1.946 1.437,3.525 3.443,3.525 1.232,0 1.969,-0.433 2.647,-1.077 L 2.16,5.396 C 1.584,5.939 0.946,6.329 0.023,6.329 c -1.507,0 -2.635,-1.22 -2.635,-2.797 0,-1.587 1.136,-2.821 2.635,-2.821 0.933,0 1.539,0.359 2.193,0.982 L 2.723,1.198 C 2.013,0.476 1.237,0 0,0" />
        </g>
      </g>
    </g>
    <g transform="matrix(1.25,0,0,-1.25,426.22716,-417.36018)">
      <path d="m 0,0 0,-3.055 -0.767,0 0,6.798 0.767,0 0,-3.022 3.923,0 0,3.022 0.771,0 0,-6.798 -0.771,0 L 3.923,0 0,0 Z" />
    </g>
    <g transform="matrix(1.25,0,0,-1.25,441.78615,-422.03831)">
      <path d="m 0,0 0.748,0 0,-6.798 -0.61,0 -4.391,5.574 0,-5.574 -0.752,0 0,6.798 0.717,0 L 0,-5.448 0,0 Z" />
    </g>
    <g transform="matrix(1.25,0,0,-1.25,-111.12447,516.94969)">
      <g>
        <g transform="translate(448.6944,744.2719)">
          <path d="m 0,0 c -2.071,0 -3.456,1.625 -3.456,3.509 0,1.887 1.405,3.525 3.475,3.525 C 2.088,7.034 3.48,5.415 3.48,3.532 3.48,1.645 2.071,0 0,0m 0,6.329 c -1.555,0 -2.663,-1.244 -2.663,-2.797 0,-1.561 1.129,-2.821 2.682,-2.821 1.553,0 2.664,1.246 2.664,2.798 0,1.557 -1.129,2.82 -2.683,2.82" />
        </g>
      </g>
    </g>
    <g transform="matrix(1.25,0,0,-1.25,456.78678,-422.03831)">
      <path d="m 0,0 0.77,0 0,-6.09 3.828,0 0,-0.708 L 0,-6.798 0,0 Z" />
    </g>
    <g transform="matrix(1.25,0,0,-1.25,-111.12447,516.94969)">
      <g>
        <g transform="translate(463.3621,744.2719)">
          <path d="m 0,0 c -2.072,0 -3.463,1.625 -3.463,3.509 0,1.887 1.412,3.525 3.481,3.525 2.068,0 3.457,-1.619 3.457,-3.502 C 3.475,1.645 2.068,0 0,0m 0,6.329 c -1.559,0 -2.666,-1.244 -2.666,-2.797 0,-1.561 1.13,-2.821 2.684,-2.821 1.556,0 2.659,1.246 2.659,2.798 0,1.557 -1.124,2.82 -2.677,2.82" />
        </g>
        <g transform="translate(472.1044,744.2719)">
          <path d="m 0,0 c -2.134,0 -3.459,1.556 -3.459,3.509 0,1.875 1.371,3.525 3.409,3.525 1.149,0 1.861,-0.328 2.538,-0.902 L 1.992,5.552 c -0.52,0.457 -1.106,0.777 -2.067,0.777 -1.507,0 -2.585,-1.274 -2.585,-2.797 0,-1.637 1.04,-2.84 2.689,-2.84 0.78,0 1.496,0.301 1.963,0.68 l 0,1.691 -2.067,0 0,0.688 2.807,0 0,-2.711 C 2.096,0.476 1.151,0 0,0" />
        </g>
      </g>
    </g>
    <g transform="matrix(1.25,0,0,-1.25,488.46128,-413.54143)">
      <path d="m 0,0 -0.777,0 0,2.692 -2.831,4.106 0.934,0 2.294,-3.403 2.311,3.403 0.894,0 L 0,2.7 0,0 Z" />
    </g>
    <g transform="matrix(1.25,0,0,-1.25,505.87253,-413.54143)">
      <path d="m 0,0 -0.829,0 -0.796,1.793 -3.702,0 L -6.132,0 l -0.787,0 3.097,6.849 0.719,0 L 0,0 Z m -3.471,5.954 -1.553,-3.467 3.1,0 -1.547,3.467 z" />
    </g>
    <g transform="matrix(1.25,0,0,-1.25,514.47216,-422.03831)">
      <path d="m 0,0 0.748,0 0,-6.798 -0.612,0 -4.392,5.574 0,-5.574 -0.747,0 0,6.798 0.714,0 L 0,-5.448 0,0 Z" />
    </g>
    <g transform="matrix(1.25,0,0,-1.25,-111.12447,516.94969)">
      <g>
        <g transform="translate(506.338,744.3929)">
          <path d="m 0,0 -2.361,0 0,6.798 2.361,0 C 2.136,6.798 3.611,5.334 3.611,3.411 3.611,1.484 2.136,0 0,0m 0,6.089 -1.593,0 0,-5.381 1.593,0 c 1.717,0 2.816,1.163 2.816,2.68 0,1.517 -1.099,2.701 -2.816,2.701" />
        </g>
        <g transform="translate(518.0612,744.3929)">
          <path d="m 0,0 -2.361,0 0,6.798 2.361,0 C 2.139,6.798 3.616,5.334 3.616,3.411 3.616,1.484 2.139,0 0,0m 0,6.089 -1.592,0 0,-5.381 1.592,0 c 1.724,0 2.818,1.163 2.818,2.68 0,1.517 -1.094,2.701 -2.818,2.701" />
        </g>
      </g>
    </g>
    <g transform="matrix(1.25,0,0,-1.25,549.9354,-421.16581)">
      <path d="m 0,0 -4.148,0 0,-2.324 3.71,0 0,-0.697 -3.71,0 0,-2.384 4.197,0 0,-0.695 -4.963,0 0,6.798 L 0,0.698 0,0 Z" />
    </g>
    <g transform="matrix(1.25,0,0,-1.25,-111.12447,516.94969)">
      <g>
        <g transform="translate(533.5153,748.1599)">
          <path d="m 0,0 c 1.515,-0.334 2.214,-0.885 2.214,-1.931 0,-1.178 -0.973,-1.938 -2.323,-1.938 -1.078,0 -1.963,0.363 -2.776,1.093 l 0.471,0.562 c 0.712,-0.643 1.39,-0.963 2.332,-0.963 0.913,0 1.519,0.475 1.519,1.165 0,0.644 -0.343,1 -1.769,1.3 -1.564,0.34 -2.281,0.848 -2.281,1.977 0,1.085 0.939,1.863 2.234,1.863 0.989,0 1.701,-0.281 2.39,-0.837 L 1.564,1.701 c -0.636,0.516 -1.265,0.74 -1.963,0.74 -0.887,0 -1.45,-0.489 -1.45,-1.108 C -1.849,0.681 -1.498,0.321 0,0" />
        </g>
      </g>
    </g>
    <path
       d="m 561.61303,-413.54156 0.95625,0 0,-8.4975 -0.95625,0 0,8.4975 z" />
    <g transform="matrix(1.25,0,0,-1.25,-111.12447,516.94969)">
      <g>
        <g transform="translate(544.5455,744.2719)">
          <path d="m 0,0 c -2.138,0 -3.464,1.556 -3.464,3.509 0,1.875 1.372,3.525 3.411,3.525 1.148,0 1.859,-0.328 2.541,-0.902 L 1.992,5.552 c -0.525,0.457 -1.111,0.777 -2.073,0.777 -1.506,0 -2.584,-1.274 -2.584,-2.797 0,-1.637 1.04,-2.84 2.692,-2.84 0.775,0 1.497,0.301 1.965,0.68 l 0,1.691 -2.073,0 0,0.688 2.809,0 0,-2.711 C 2.096,0.476 1.144,0 0,0" />
        </g>
      </g>
    </g>
    <g transform="matrix(1.25,0,0,-1.25,582.4214,-422.03831)">
      <path d="m 0,0 0.749,0 0,-6.798 -0.613,0 -4.393,5.574 0,-5.574 -0.751,0 0,6.798 0.72,0 L 0,-5.448 0,0 Z" />
    </g>
    <path d="m 430.32303,-452.85906 -32.9475,0 0,-4.255 32.9475,0 0,4.255 z" />
    <path d="m 439.88803,-471.98656 -32.94875,0 0,-4.2575 32.94875,0 0,4.2575 z" />
    <g transform="matrix(1.25,0,0,-1.25,439.88791,-443.29731)">
      <path d="m 0,0 -34.01,0 0,3.401 30.608,0 0,11.904 -30.608,0 0,18.702 34.01,0 0,-3.399 -30.61,0 0,-11.903 30.61,0 L 0,0 Z" />
    </g>
    <path d="m 468.58178,-462.42906 -4.25125,0 0,-23.3775 4.25125,0 0,23.3775 z" />
    <g transform="matrix(1.25,0,0,-1.25,487.71428,-443.29731)">
      <path d="m 0,0 -34.009,0 0,34.007 3.397,0 0,-30.606 27.21,0 0,30.606 3.402,0 L 0,0 Z" />
    </g>
    <g transform="matrix(1.25,0,0,-1.25,478.14803,-452.85931)">
      <path d="m 0,0 -18.705,0 0,26.358 3.401,0 0,-22.954 11.902,0 0,22.954 3.402,0 L 0,0 Z" />
    </g>
    <path d="m 564.23553,-462.42906 -23.38,0 0,-4.24875 23.38,0 0,4.24875 z" />
    <g transform="matrix(1.25,0,0,-1.25,583.36378,-443.29731)">
      <path d="m 0,0 -34.007,0 0,3.401 30.609,0 0,27.207 -30.609,0 0,3.399 L 0,34.007 0,0 Z" />
    </g>
    <g transform="matrix(1.25,0,0,-1.25,573.80178,-452.85931)">
      <path d="m 0,0 -26.358,0 0,3.404 22.953,0 0,11.898 -22.953,0 0,3.406 L 0,18.708 0,0 Z" />
    </g>
    <g transform="matrix(1.25,0,0,-1.25,493.02553,-485.80619)">
      <path d="m 0,0 0,-3.399 15.307,0 0,-30.608 3.398,0 0,30.608 15.308,0 0,3.399 L 0,0 Z" />
    </g>
    <g transform="matrix(1.25,0,0,-1.25,521.72378,-443.29731)">
      <path d="m 0,0 3.397,0 0,22.951 7.658,0 0,3.407 L 0,26.358 0,0 Z" />
    </g>
    <path d="m 531.28803,-443.29781 4.25375,0 0,-23.38125 -4.25375,0 0,23.38125 z" />
    <path d="m 493.02553,-443.29781 4.255,0 0,-23.38125 -4.255,0 0,23.38125 z" />
    <g
       transform="matrix(1.25,0,0,-1.25,493.02553,-471.98644)">
      <path d="m 0,0 7.653,0 0,-22.951 3.4,0 0,26.357 L 0,3.406 0,0 Z" />
    </g>
  </g>
</svg>
