<?xml version="1.0" encoding="UTF-8" standalone="no"?>
<svg
   width="500"
   height="252.84091"
   version="1.1"
   id="svg4"
   xmlns="http://www.w3.org/2000/svg"
   xmlns:svg="http://www.w3.org/2000/svg">
  <defs
     id="defs4" />
  <g
     fill="none"
     fill-rule="evenodd"
     id="g4"
     transform="scale(2.8409091)">
    <path
       fill="#dc2d27"
       d="m 87,89 h 89 V 0 H 87 Z"
       id="path1" />
    <path
       fill="#000000"
       d="M 0,89 H 89 V 0 H 0 Z"
       id="path2" />
    <path
       d="m 106.001,31.078 1.232,0.708 c 0.535,0.302 1.015,0.624 1.015,1.247 0,0.783 -0.57,1.234 -1.563,1.234 l -0.103,-0.003 c -0.618,-0.01 -1.06,-0.045 -1.55,-0.448 l -0.094,-0.078 v 0.879 l 0.037,0.015 c 0.507,0.192 0.867,0.195 1.365,0.196 l 0.168,0.003 0.128,0.003 c 0.55,0 1.563,-0.091 2.142,-0.693 0.303,-0.313 0.447,-0.724 0.429,-1.222 -0.04,-1.064 -0.606,-1.382 -1.323,-1.784 -0.081,-0.045 -0.164,-0.09 -0.248,-0.14 l -1.078,-0.625 c -0.444,-0.255 -0.728,-0.5 -0.77,-0.945 a 0.875,0.875 0 0 1 0.245,-0.685 c 0.255,-0.278 0.675,-0.452 1.098,-0.452 0.03,0 0.061,0 0.093,0.003 0.513,0.018 0.883,0.098 1.25,0.444 l 0.098,0.095 v -0.873 l -0.036,-0.015 c -0.427,-0.174 -0.733,-0.183 -1.155,-0.197 -0.102,-0.001 -0.213,-0.007 -0.318,-0.009 -0.685,0 -1.306,0.231 -1.705,0.635 -0.297,0.3 -0.453,0.68 -0.449,1.098 0.01,0.68 0.336,1.162 1.092,1.61 m 3.549,-2.935 c 0.07,0.09 0.094,0.143 0.12,0.236 l 2.45,6.598 1.75,-4.825 1.734,4.64 0.054,0.15 2.314,-6.446 a 0.937,0.937 0 0 1 0.089,-0.188 l 0.04,-0.07 c 0.08,-0.123 0.135,-0.207 0.231,-0.323 l 0.08,-0.094 h -1.227 l 0.058,0.09 a 0.375,0.375 0 0 1 0.07,0.217 c 0.008,0.102 -0.023,0.174 -0.076,0.291 l -1.49,4.428 -1.613,-4.476 a 0.531,0.531 0 0 1 -0.026,-0.3 0.539,0.539 0 0 1 0.065,-0.156 l 0.046,-0.085 h -1.471 l 0.102,0.1 c 0.064,0.065 0.12,0.119 0.184,0.203 l 0.051,0.061 c 0.051,0.06 0.09,0.105 0.122,0.188 l 0.327,0.83 -1.36,3.626 -1.607,-4.57 c -0.021,-0.057 -0.017,-0.1 0.001,-0.173 a 0.369,0.369 0 0 1 0.074,-0.175 l 0.058,-0.09 h -1.57 l 0.19,0.11 a 0.705,0.705 0 0 1 0.23,0.203 m 9.688,0.08 c 0.042,0.135 0.05,0.209 0.05,0.336 v 5.517 c 0,0.135 0,0.215 -0.05,0.337 a 0.778,0.778 0 0 1 -0.103,0.213 l -0.06,0.09 h 1.264 l -0.046,-0.087 c -0.015,-0.03 -0.033,-0.053 -0.048,-0.078 -0.033,-0.052 -0.06,-0.093 -0.07,-0.154 -0.028,-0.222 -0.028,-0.525 -0.028,-0.876 v -4.98 c 0,-0.098 0,-0.158 0.06,-0.36 l 0.006,-0.012 c 0.035,-0.093 0.06,-0.162 0.102,-0.246 l 0.04,-0.084 h -1.313 l 0.058,0.088 c 0.066,0.101 0.102,0.179 0.138,0.296 m 2.355,-0.096 a 0.474,0.474 0 0 1 0.066,0.261 v 5.663 c 0,0.132 0,0.219 -0.036,0.352 a 0.532,0.532 0 0 1 -0.108,0.222 l -0.064,0.092 h 1.05 l -0.046,-0.149 a 2.206,2.206 0 0 1 -0.058,-0.213 c -0.063,-0.295 -0.063,-0.295 -0.063,-0.487 V 28.98 l 5.382,5.94 0.102,0.111 -0.01,-6.489 c 0,-0.132 0,-0.211 0.025,-0.35 0.021,-0.116 0.036,-0.188 0.07,-0.292 l 0.026,-0.076 h -0.92 l 0.023,0.073 c 0.029,0.102 0.044,0.16 0.063,0.255 0.048,0.269 0.046,0.456 0.046,0.696 l -0.001,4.304 -4.665,-5.32 h -1.236 l 0.186,0.109 a 0.355,0.355 0 0 1 0.168,0.187 m 7.411,0.035 a 0.859,0.859 0 0 1 0.086,0.378 v 5.582 a 0.903,0.903 0 0 1 -0.057,0.328 l -0.01,0.017 a 0.812,0.812 0 0 1 -0.095,0.166 l -0.065,0.092 h 1.919 c 1.407,0 2.287,-0.765 2.298,-1.992 0,-0.891 -0.408,-1.482 -1.21,-1.754 l -0.157,-0.055 0.15,-0.092 c 0.561,-0.322 0.78,-0.703 0.762,-1.321 -0.05,-0.942 -0.78,-1.68 -1.665,-1.68 h -2.157 l 0.062,0.091 c 0.061,0.089 0.097,0.146 0.14,0.24 m 1.483,3.113 c 1.14,0.033 1.728,0.522 1.75,1.45 0.029,0.945 -0.825,1.422 -1.681,1.475 a 1.674,1.674 0 0 1 -0.599,-0.066 v -2.817 c 0.195,-0.042 0.318,-0.042 0.53,-0.042 m -0.033,-0.55 h -0.533 v -2.327 h 0.606 c 0.768,0 1.248,0.418 1.283,1.117 0.013,0.344 -0.084,0.635 -0.282,0.842 -0.233,0.24 -0.605,0.367 -1.074,0.367 m 3.742,-2.475 c 0.012,0.081 0.01,0.137 0.01,0.209 -0.003,0.03 -0.003,0.058 -0.003,0.091 v 3.893 c 0,1.357 1.17,2.379 2.721,2.379 h 0.053 c 1.465,-0.026 2.568,-1.034 2.568,-2.34 V 28.42 a 1.42,1.42 0 0 1 0.08,-0.517 l 0.022,-0.074 h -1.109 l 0.033,0.078 c 0.04,0.104 0.057,0.17 0.084,0.28 l 0.003,0.01 c 0.018,0.12 0.018,0.2 0.018,0.336 v 3.88 c 0,0.962 -0.715,1.677 -1.704,1.706 h -0.058 c -1.01,0 -1.86,-0.804 -1.86,-1.757 v -3.945 a 0.783,0.783 0 0 1 0.02,-0.24 0.794,0.794 0 0 1 0.074,-0.267 l 0.035,-0.08 h -1.098 l 0.03,0.076 c 0.048,0.13 0.064,0.208 0.08,0.343 m 6.467,-0.27 a 0.732,0.732 0 0 1 0.081,0.192 c 0.045,0.247 0.053,0.391 0.053,0.645 v 4.863 c 0,0.241 0,0.547 -0.026,0.684 -0.004,0.072 -0.031,0.123 -0.067,0.192 l -0.036,0.067 -0.042,0.086 h 1.177 l -0.06,-0.155 c -0.031,-0.084 -0.054,-0.144 -0.069,-0.244 -0.027,-0.123 -0.027,-0.198 -0.027,-0.31 v -3.055 c 0.01,0.005 0.017,0.012 0.027,0.023 0.047,0.034 0.072,0.07 0.104,0.118 0.02,0.027 0.039,0.056 0.064,0.087 l 2.726,3.54 0.016,0.021 h 1.277 l -0.143,-0.103 c -0.133,-0.098 -0.208,-0.16 -0.34,-0.269 -0.195,-0.17 -0.347,-0.37 -0.542,-0.62 l -1.648,-2.095 a 3.776,3.776 0 0 0 -0.479,-0.522 l -0.012,-0.012 a 0.718,0.718 0 0 0 0.08,0.003 c 0.897,0 1.64,-0.753 1.657,-1.672 a 1.49,1.49 0 0 0 -0.415,-1.106 c -0.32,-0.327 -0.792,-0.514 -1.3,-0.514 h -2.137 l 0.042,0.084 0.04,0.072 z m 0.995,0.474 c 0.228,-0.095 0.385,-0.107 0.658,-0.107 1.046,0.044 1.223,0.563 1.259,1.118 0.054,0.71 -0.467,1.179 -1.386,1.254 -0.18,0.01 -0.4,0.003 -0.531,-0.012 z m 4.625,-0.328 a 0.526,0.526 0 0 1 0.068,0.266 v 5.66 c 0,0.131 0,0.218 -0.035,0.35 a 0.581,0.581 0 0 1 -0.113,0.224 l -0.064,0.091 h 1.05 l -0.021,-0.075 c -0.01,-0.036 -0.021,-0.066 -0.03,-0.096 -0.018,-0.064 -0.036,-0.117 -0.048,-0.189 -0.065,-0.295 -0.065,-0.295 -0.065,-0.487 V 28.98 l 5.378,5.94 0.102,0.11 -0.006,-6.49 c 0,-0.131 0,-0.21 0.027,-0.352 0.016,-0.115 0.036,-0.187 0.066,-0.29 l 0.025,-0.076 h -0.92 l 0.023,0.075 c 0.032,0.1 0.046,0.156 0.066,0.254 0.048,0.262 0.044,0.448 0.042,0.68 v 4.321 l -4.66,-5.32 h -1.242 l 0.186,0.107 c 0.09,0.053 0.133,0.1 0.171,0.186 m 7.473,-0.017 a 0.722,0.722 0 0 1 0.05,0.27 v 5.682 c 0,0.033 0,0.065 0.002,0.093 0.003,0.08 0.008,0.15 -0.02,0.236 a 0.597,0.597 0 0 1 -0.106,0.235 l -0.066,0.092 h 4.068 l 0.296,-0.963 -0.137,0.093 a 0.918,0.918 0 0 1 -0.29,0.14 2.038,2.038 0 0 1 -0.739,0.104 h -2.109 v -2.913 h 1.757 c 0.108,0 0.184,0 0.286,0.014 0.158,0.04 0.242,0.064 0.37,0.124 l 0.08,0.04 v -0.794 h -2.521 v -2.117 h 1.785 l 0.11,-10e-4 c 0.09,-0.006 0.166,-0.015 0.29,0.028 0.095,0.029 0.16,0.072 0.239,0.147 l 0.097,0.096 v -0.876 h -3.658 l 0.103,0.1 c 0.06,0.058 0.081,0.098 0.113,0.17 M 100.415,46.49 c 1.464,-0.027 2.568,-1.034 2.568,-2.34 v -3.968 l -0.001,-0.094 c 0,-0.077 -0.003,-0.137 0.012,-0.224 a 1.71,1.71 0 0 1 0.069,-0.292 l 0.024,-0.075 h -1.107 l 0.031,0.08 c 0.042,0.103 0.06,0.173 0.087,0.286 0.018,0.123 0.018,0.204 0.018,0.339 v 3.88 c 0,0.962 -0.717,1.677 -1.704,1.706 h -0.06 c -1.006,0 -1.858,-0.806 -1.858,-1.758 v -3.875 l -0.002,-0.069 c 0,-0.084 -0.001,-0.148 0.021,-0.243 a 0.87,0.87 0 0 1 0.075,-0.264 l 0.036,-0.082 h -1.096 l 0.028,0.078 a 1.425,1.425 0 0 1 0.087,0.549 l -0.001,0.094 v 3.893 c 0,1.357 1.17,2.379 2.724,2.379 h 0.05 z m 4.628,-0.286 a 1.21,1.21 0 0 1 -0.048,-0.18 c -0.063,-0.295 -0.063,-0.295 -0.063,-0.487 V 40.65 l 5.382,5.94 0.1,0.114 -0.008,-6.495 c 0,-0.133 0,-0.213 0.024,-0.354 a 2.34,2.34 0 0 1 0.072,-0.294 l 0.024,-0.073 h -0.92 l 0.021,0.073 c 0.029,0.096 0.047,0.162 0.066,0.258 0.048,0.263 0.047,0.447 0.044,0.683 v 4.316 l -4.662,-5.317 h -1.233 l 0.178,0.108 a 0.36,0.36 0 0 1 0.171,0.187 0.485,0.485 0 0 1 0.066,0.26 v 5.664 c 0,0.132 0,0.22 -0.037,0.348 a 0.555,0.555 0 0 1 -0.107,0.226 l -0.064,0.09 h 1.048 l -0.02,-0.073 -0.034,-0.107 m 7.7,-6.353 0.015,-0.037 c 0.03,-0.083 0.053,-0.144 0.092,-0.222 l 0.04,-0.084 h -1.314 l 0.057,0.088 c 0.066,0.1 0.1,0.176 0.14,0.299 0.042,0.124 0.05,0.2 0.05,0.334 v 5.514 c 0,0.14 0,0.213 -0.05,0.34 a 0.724,0.724 0 0 1 -0.104,0.214 l -0.057,0.087 h 1.27 l -0.053,-0.086 c -0.012,-0.024 -0.027,-0.045 -0.04,-0.067 a 0.411,0.411 0 0 1 -0.079,-0.168 c -0.027,-0.222 -0.027,-0.524 -0.027,-0.873 v -4.982 c 0,-0.094 0,-0.153 0.06,-0.357 m 2.129,-0.361 h -1.403 l 0.179,0.108 c 0.093,0.053 0.14,0.1 0.202,0.203 a 0.702,0.702 0 0 1 0.081,0.16 l 3.243,6.635 3.018,-6.416 a 2.12,2.12 0 0 1 0.144,-0.262 c 0.072,-0.137 0.128,-0.215 0.21,-0.324 l 0.072,-0.093 h -1.138 l 0.024,0.073 a 0.694,0.694 0 0 1 0.034,0.22 0.517,0.517 0 0 1 -0.066,0.208 4.45,4.45 0 0 0 -0.04,0.084 l -2.234,4.795 -2.376,-5.004 a 0.394,0.394 0 0 1 -0.04,-0.168 c 0,-0.046 0.006,-0.08 0.036,-0.129 z m 6.602,6.798 -0.07,0.094 h 4.072 l 0.297,-0.958 -0.137,0.091 a 0.954,0.954 0 0 1 -0.292,0.138 2.074,2.074 0 0 1 -0.737,0.107 h -2.112 v -2.915 h 1.76 c 0.106,0 0.184,0 0.286,0.014 0.143,0.034 0.23,0.063 0.37,0.126 l 0.08,0.036 v -0.792 h -2.523 v -2.115 h 1.787 c 0.039,0 0.075,-0.005 0.112,-0.005 a 0.736,0.736 0 0 1 0.287,0.027 0.54,0.54 0 0 1 0.24,0.149 l 0.097,0.099 v -0.88 h -3.65 l 0.094,0.098 c 0.058,0.063 0.082,0.1 0.115,0.171 0.035,0.102 0.05,0.167 0.05,0.272 v 5.68 c 0,0.035 0.001,0.066 0.003,0.095 0.001,0.084 0.004,0.151 -0.021,0.238 a 0.534,0.534 0 0 1 -0.108,0.23 m 10.136,0.01 a 10.945,10.945 0 0 1 -0.343,-0.27 c -0.192,-0.172 -0.348,-0.375 -0.543,-0.63 l -1.643,-2.085 a 4.108,4.108 0 0 0 -0.48,-0.523 l -0.013,-0.012 c 0.028,0.003 0.057,0.003 0.084,0.003 0.897,0 1.636,-0.75 1.654,-1.671 a 1.482,1.482 0 0 0 -0.414,-1.103 c -0.318,-0.33 -0.795,-0.517 -1.305,-0.517 h -2.136 l 0.077,0.142 c 0.037,0.068 0.069,0.123 0.088,0.204 0.042,0.25 0.054,0.395 0.054,0.647 v 4.861 c 0,0.245 0,0.55 -0.027,0.687 a 0.46,0.46 0 0 1 -0.075,0.203 l -0.072,0.14 h 1.176 l -0.027,-0.076 c -0.012,-0.033 -0.022,-0.063 -0.033,-0.09 a 0.995,0.995 0 0 1 -0.066,-0.23 1.065,1.065 0 0 1 -0.025,-0.295 v -3.072 l 0.025,0.023 c 0.047,0.036 0.072,0.073 0.108,0.121 0.017,0.027 0.038,0.054 0.062,0.086 l 2.722,3.538 0.017,0.023 h 1.273 z m -4.059,-6.178 c 0.227,-0.093 0.384,-0.105 0.656,-0.105 1.05,0.043 1.227,0.588 1.261,1.114 0.053,0.714 -0.468,1.182 -1.387,1.257 -0.195,0.005 -0.404,0 -0.53,-0.012 z"
       fill="#ffffff"
       id="path3" />
    <path
       d="m 131.678,41.137 c 0.01,0.682 0.335,1.162 1.092,1.61 l 1.232,0.709 c 0.532,0.3 1.014,0.62 1.014,1.246 0,0.771 -0.584,1.233 -1.562,1.233 -0.034,0 -0.07,-0.003 -0.106,-0.003 -0.614,-0.009 -1.053,-0.045 -1.55,-0.448 l -0.093,-0.078 v 0.88 l 0.036,0.014 c 0.5,0.187 0.854,0.192 1.344,0.196 l 0.19,0.005 0.128,0.001 c 0.552,0 1.562,-0.091 2.144,-0.693 0.303,-0.313 0.447,-0.724 0.43,-1.22 -0.043,-1.066 -0.612,-1.385 -1.326,-1.787 l -0.246,-0.14 -1.081,-0.624 c -0.443,-0.255 -0.725,-0.502 -0.768,-0.945 a 0.88,0.88 0 0 1 0.244,-0.685 c 0.257,-0.278 0.678,-0.45 1.098,-0.45 l 0.093,0.001 c 0.515,0.02 0.885,0.1 1.253,0.444 l 0.099,0.095 v -0.873 l -0.036,-0.014 c -0.428,-0.175 -0.75,-0.184 -1.158,-0.196 -0.1,-0.006 -0.207,-0.01 -0.318,-0.01 -0.684,0 -1.305,0.23 -1.704,0.634 -0.299,0.298 -0.452,0.68 -0.449,1.098 m 6.347,-1.286 0.028,-0.075 c 0.024,-0.064 0.047,-0.12 0.08,-0.184 l 0.04,-0.084 h -1.314 l 0.057,0.088 c 0.074,0.113 0.107,0.19 0.14,0.297 0.043,0.134 0.05,0.21 0.05,0.336 v 5.514 c 0,0.14 0,0.213 -0.05,0.34 a 0.775,0.775 0 0 1 -0.102,0.214 l -0.06,0.087 h 1.264 l -0.048,-0.086 a 0.44,0.44 0 0 0 -0.048,-0.076 0.424,0.424 0 0 1 -0.07,-0.16 c -0.026,-0.221 -0.026,-0.523 -0.026,-0.872 v -4.982 c 0,-0.094 0,-0.153 0.059,-0.357 m 1.436,0.282 h 1.649 v 5.603 c 0,0.044 0.003,0.085 0.003,0.119 a 0.862,0.862 0 0 1 -0.01,0.234 1.318,1.318 0 0 1 -0.088,0.212 l -0.042,0.084 h 1.146 l 0.096,-0.005 -0.048,-0.087 c -0.05,-0.087 -0.085,-0.141 -0.091,-0.224 -0.036,-0.2 -0.036,-0.22 -0.035,-0.289 v -5.676 h 1.42 c 0.14,0 0.235,0.014 0.39,0.062 0.112,0.027 0.187,0.052 0.296,0.106 l 0.092,0.042 -0.08,-0.815 h -5.188 l -0.182,0.877 0.114,-0.071 a 0.908,0.908 0 0 1 0.34,-0.14 0.584,0.584 0 0 1 0.218,-0.032 m 10.258,0 c 0.069,-0.116 0.115,-0.191 0.192,-0.296 0.076,-0.1 0.126,-0.159 0.222,-0.245 l 0.112,-0.1 h -1.144 l 0.01,0.066 a 0.45,0.45 0 0 1 0.002,0.148 0.562,0.562 0 0 1 -0.093,0.191 l -1.493,2.361 -1.366,-2.216 -0.027,-0.041 c -0.048,-0.077 -0.084,-0.134 -0.111,-0.224 a 0.55,0.55 0 0 1 -0.017,-0.212 l 0.008,-0.066 h -1.319 l 0.13,0.105 c 0.068,0.053 0.107,0.098 0.152,0.149 l 0.033,0.036 c 0.074,0.1 0.11,0.151 0.174,0.252 l 1.832,2.882 v 3.02 c 0,0.019 0,0.038 0.003,0.055 0,0.041 0.001,0.072 -0.012,0.12 a 0.7,0.7 0 0 1 -0.059,0.194 l -0.033,0.08 h 1.046 l -0.026,-0.075 a 1.396,1.396 0 0 1 -0.05,-0.197 0.874,0.874 0 0 1 -0.03,-0.211 v -2.986 z m 7.41,-0.781 a 3.514,3.514 0 0 0 -3.503,3.517 c 0,1.911 1.512,3.458 3.441,3.525 h 0.084 c 0.95,0 1.872,-0.382 2.525,-1.05 0.123,-0.124 0.178,-0.288 0.277,-0.427 0.04,-0.056 0.077,-0.116 0.114,-0.176 a 3.25,3.25 0 0 0 0.443,-1.075 c 0.015,-0.062 0.024,-0.123 0.034,-0.186 0.033,-0.212 0.114,-0.41 0.11,-0.627 a 3.527,3.527 0 0 0 -3.428,-3.5 z m 0.039,0.672 c 1.485,0.025 2.619,1.24 2.637,2.829 0,0.727 -0.28,1.456 -0.765,1.995 -0.504,0.56 -1.175,0.865 -1.892,0.865 h -0.06 c -1.476,-0.033 -2.605,-1.299 -2.575,-2.883 0.027,-1.359 0.95,-2.806 2.616,-2.806 z m 5.402,2.196 v -2.105 h 1.887 l 0.082,-0.003 c 0.084,0 0.155,0.005 0.233,0.024 0.088,0.029 0.14,0.07 0.219,0.128 l 0.112,0.088 V 39.5 h -3.595 l 0.069,0.093 c 0.042,0.061 0.08,0.112 0.102,0.184 a 0.708,0.708 0 0 1 0.05,0.26 v 5.683 l 0.002,0.11 c 0.003,0.078 0.008,0.148 -0.009,0.226 a 1.093,1.093 0 0 1 -0.106,0.25 l -0.048,0.086 h 1.16 l -0.016,-0.072 a 0.36,0.36 0 0 0 -0.031,-0.091 0.295,0.295 0 0 1 -0.029,-0.102 5.82,5.82 0 0 1 -0.055,-0.87 v -2.421 h 1.756 c 0.051,0 0.095,0 0.138,-0.003 0.077,0 0.146,-0.002 0.25,0.003 0.09,0 0.15,0.018 0.232,0.039 l 0.135,0.033 v -0.687 h -2.54 z m -62.998,8.946 -0.182,0.877 0.114,-0.072 a 0.863,0.863 0 0 1 0.34,-0.138 0.627,0.627 0 0 1 0.218,-0.034 h 1.649 v 5.605 c 0,0.045 0.001,0.084 0.004,0.122 0.003,0.085 0.008,0.15 -0.01,0.23 l -0.006,0.02 a 0.891,0.891 0 0 1 -0.08,0.188 l -0.052,0.085 h 1.155 l 0.1,-10e-4 -0.05,-0.087 c -0.053,-0.089 -0.085,-0.141 -0.095,-0.22 -0.035,-0.208 -0.035,-0.224 -0.033,-0.296 v -5.673 h 1.42 c 0.147,0 0.24,0.013 0.386,0.061 0.123,0.03 0.198,0.056 0.298,0.107 l 0.093,0.046 -0.079,-0.82 z m 10.175,6.156 a 2.101,2.101 0 0 1 -0.738,0.106 h -2.11 V 54.51 h 1.754 a 1.418,1.418 0 0 1 0.658,0.142 l 0.083,0.04 v -0.794 h -2.524 v -2.116 h 1.783 c 0.04,0 0.08,-0.003 0.116,-0.003 0.085,-0.005 0.157,-0.017 0.286,0.03 a 0.502,0.502 0 0 1 0.239,0.148 l 0.1,0.102 v -0.885 h -3.65 l 0.092,0.098 a 0.505,0.505 0 0 1 0.116,0.174 0.707,0.707 0 0 1 0.05,0.268 v 5.68 c 0,0.032 0.002,0.062 0.004,0.092 0.001,0.084 0.004,0.152 -0.021,0.24 a 0.606,0.606 0 0 1 -0.107,0.233 l -0.064,0.093 h 4.062 l 0.298,-0.957 -0.135,0.088 a 1.01,1.01 0 0 1 -0.292,0.14 m 4.516,0.184 h -0.096 c -0.878,0 -1.667,-0.307 -2.217,-0.87 -0.516,-0.523 -0.78,-1.214 -0.767,-1.995 0.017,-1.67 1.292,-2.928 2.967,-2.928 h 0.066 c 0.621,0.012 1.013,0.12 1.551,0.425 l 0.087,0.047 v -0.799 l -0.034,-0.015 c -0.575,-0.242 -0.966,-0.288 -1.622,-0.297 h -0.042 c -1.12,0 -2.133,0.396 -2.85,1.116 -0.118,0.118 -0.17,0.277 -0.271,0.41 -0.032,0.043 -0.059,0.091 -0.09,0.136 a 3.294,3.294 0 0 0 -0.479,1.104 2.24,2.24 0 0 0 -0.031,0.17 c -0.04,0.211 -0.123,0.41 -0.122,0.631 0.008,2.011 1.623,3.531 3.756,3.531 0.07,0 0.137,-0.003 0.206,-0.006 l 0.102,-0.002 c 0.586,-0.017 0.973,-0.028 1.546,-0.235 l 0.027,-0.009 0.443,-1.104 -0.16,0.11 c -0.54,0.38 -1.186,0.57 -1.97,0.58 m 8.218,0.192 a 1.156,1.156 0 0 1 -0.034,-0.296 v -5.3 c 0,-0.046 0,-0.09 -0.002,-0.13 -10e-4,-0.156 -0.006,-0.282 0.036,-0.444 a 1.35,1.35 0 0 1 0.098,-0.271 l 0.036,-0.083 h -1.283 l 0.089,0.096 a 0.628,0.628 0 0 1 0.159,0.291 c 0.033,0.093 0.03,0.168 0.028,0.261 a 2.06,2.06 0 0 0 -0.003,0.1 v 1.946 h -3.568 v -1.92 c 0,-0.18 0,-0.301 0.051,-0.466 l 0.018,-0.045 c 0.027,-0.066 0.045,-0.114 0.087,-0.19 l 0.046,-0.085 h -1.272 l 0.066,0.092 c 0.07,0.093 0.102,0.151 0.147,0.256 0.035,0.119 0.035,0.201 0.035,0.34 v 5.656 a 0.711,0.711 0 0 1 -0.03,0.279 1.311,1.311 0 0 1 -0.111,0.181 l -0.07,0.093 h 1.268 l -0.096,-0.14 a 0.589,0.589 0 0 1 -0.087,-0.15 1.372,1.372 0 0 1 -0.043,-0.454 l 10e-4,-0.15 v -2.679 h 3.558 v 2.969 c 0,0.036 0.002,0.067 0.003,0.096 0.002,0.048 0.003,0.087 -0.001,0.13 a 0.551,0.551 0 0 1 -0.125,0.264 l -0.076,0.095 h 1.225 l -0.045,-0.087 c -0.055,-0.1 -0.079,-0.168 -0.105,-0.255 m 6.803,-6.471 c 0.027,0.102 0.044,0.163 0.063,0.262 0.048,0.26 0.048,0.447 0.045,0.681 l -0.001,0.17 v 4.146 l -4.66,-5.322 h -1.234 l 0.177,0.11 a 0.364,0.364 0 0 1 0.171,0.184 0.523,0.523 0 0 1 0.066,0.264 v 5.661 c 0,0.132 0,0.22 -0.034,0.354 a 0.524,0.524 0 0 1 -0.11,0.22 l -0.061,0.092 h 1.045 l -0.02,-0.075 c -0.011,-0.04 -0.023,-0.074 -0.034,-0.105 -0.02,-0.063 -0.036,-0.111 -0.048,-0.18 -0.061,-0.294 -0.061,-0.294 -0.061,-0.489 v -4.886 l 5.377,5.94 0.1,0.114 -0.005,-6.49 c 0,-0.14 0,-0.216 0.024,-0.355 0.02,-0.116 0.039,-0.184 0.072,-0.293 l 0.022,-0.075 h -0.912 z m 8.69,4.107 c 0.012,-0.064 0.024,-0.127 0.033,-0.195 0.035,-0.21 0.116,-0.403 0.111,-0.62 -0.036,-1.924 -1.512,-3.425 -3.432,-3.499 l -0.1,-10e-4 c -1.928,0 -3.495,1.576 -3.495,3.516 0,1.912 1.509,3.459 3.438,3.523 h 0.088 c 0.948,0 1.866,-0.379 2.52,-1.045 0.123,-0.125 0.182,-0.293 0.282,-0.434 0.038,-0.052 0.072,-0.11 0.108,-0.168 0.212,-0.334 0.36,-0.688 0.447,-1.077 z m -3.342,-3.645 c 1.485,0.024 2.618,1.24 2.633,2.83 0,0.728 -0.278,1.454 -0.764,1.994 -0.504,0.561 -1.177,0.867 -1.89,0.867 h -0.058 c -1.476,-0.034 -2.609,-1.3 -2.579,-2.883 0.027,-1.359 0.956,-2.808 2.628,-2.808 z m 8.532,5.627 c -0.02,0.006 -0.042,0.01 -0.076,0.021 a 0.936,0.936 0 0 1 -0.383,0.06 l -2.551,0.01 -0.01,-5.345 c 0,-0.051 0,-0.096 -0.002,-0.14 a 1.44,1.44 0 0 1 0.034,-0.421 0.927,0.927 0 0 1 0.095,-0.242 l 0.046,-0.084 h -1.261 l 0.066,0.09 c 0.063,0.09 0.102,0.165 0.138,0.28 0.033,0.136 0.042,0.202 0.042,0.334 v 5.584 c 0,0.123 0,0.201 -0.042,0.312 -0.024,0.065 -0.059,0.113 -0.102,0.174 l -0.066,0.092 h 4.083 l 0.304,-0.82 -0.094,-0.06 c -0.16,0.143 -0.173,0.145 -0.22,0.155 m 7.205,-1.982 a 3.77,3.77 0 0 0 0.033,-0.195 c 0.034,-0.21 0.115,-0.403 0.11,-0.62 -0.035,-1.924 -1.513,-3.425 -3.433,-3.499 l -0.1,-10e-4 c -1.928,0 -3.497,1.576 -3.497,3.516 0,1.88 1.544,3.462 3.44,3.523 h 0.087 c 0.95,0 1.87,-0.38 2.523,-1.047 0.123,-0.126 0.178,-0.288 0.277,-0.427 0.044,-0.057 0.08,-0.119 0.117,-0.179 0.209,-0.333 0.357,-0.684 0.443,-1.07 z m -3.345,-3.645 c 1.482,0.024 2.619,1.24 2.638,2.83 a 3.01,3.01 0 0 1 -0.766,1.994 c -0.504,0.561 -1.178,0.867 -1.893,0.867 h -0.059 c -1.471,-0.034 -2.6,-1.3 -2.572,-2.883 0.024,-1.359 0.95,-2.808 2.623,-2.808 z m 9.542,2.986 c 0.097,0.108 0.154,0.173 0.195,0.303 0.073,0.237 0.073,0.43 0.072,0.672 v 1.376 c -0.534,0.3 -0.953,0.373 -1.482,0.4 -0.054,0.003 -0.105,0.003 -0.158,0.003 -1.642,0 -2.87,-1.18 -2.919,-2.806 -0.018,-0.795 0.263,-1.556 0.771,-2.085 0.495,-0.515 1.182,-0.792 1.986,-0.804 0.564,0 1.227,0.054 1.865,0.435 l 0.085,0.052 v -0.835 l -0.036,-0.014 c -0.65,-0.255 -1.108,-0.279 -1.78,-0.29 h -0.04 c -0.233,0 -0.42,0.076 -0.635,0.107 -0.059,0.006 -0.113,0.018 -0.171,0.029 -0.443,0.08 -0.839,0.216 -1.19,0.417 a 1.315,1.315 0 0 0 -0.076,0.048 3.176,3.176 0 0 0 -0.899,0.814 c -0.03,0.044 -0.058,0.089 -0.085,0.132 -0.22,0.33 -0.378,0.704 -0.474,1.124 -0.017,0.069 -0.03,0.144 -0.044,0.216 -0.039,0.226 -0.123,0.423 -0.127,0.669 -0.003,0.219 0.08,0.421 0.118,0.633 0.01,0.048 0.017,0.094 0.026,0.14 0.093,0.415 0.264,0.794 0.511,1.148 0.02,0.027 0.035,0.053 0.054,0.077 0.093,0.129 0.146,0.283 0.261,0.399 0.707,0.715 1.685,1.11 2.759,1.11 0.058,0 0.118,-0.002 0.178,-0.005 0.99,-0.039 1.853,-0.391 2.288,-0.682 l 0.025,-0.017 -0.009,-2.29 v -0.056 a 0.474,0.474 0 0 1 0.027,-0.211 0.517,0.517 0 0 1 0.114,-0.21 l 0.075,-0.095 h -1.37 z m 5.765,-3.449 c 0.01,0.054 0.01,0.096 0.001,0.147 a 0.568,0.568 0 0 1 -0.093,0.191 l -1.494,2.361 -1.404,-2.273 a 1.007,1.007 0 0 1 -0.1,-0.201 c -0.015,-0.083 -0.024,-0.14 -0.015,-0.22 l 0.009,-0.064 h -1.323 l 0.132,0.105 c 0.075,0.057 0.115,0.105 0.168,0.165 l 0.02,0.024 c 0.07,0.094 0.104,0.147 0.173,0.247 l 1.83,2.879 v 3.023 c 0,0.022 0,0.04 0.003,0.056 0,0.044 0.003,0.071 -0.012,0.119 -0.007,0.066 -0.025,0.111 -0.058,0.195 l -0.033,0.08 h 1.045 l -0.025,-0.075 a 2.507,2.507 0 0 1 -0.04,-0.143 l -0.013,-0.05 a 1.102,1.102 0 0 1 -0.025,-0.215 v -2.99 l 1.861,-2.787 c 0.075,-0.123 0.117,-0.192 0.192,-0.299 0.075,-0.099 0.128,-0.159 0.222,-0.242 l 0.11,-0.101 h -1.142 l 0.01,0.068 z M 14.795,28.503 C 12.63,28.475 11.136,28.323 9.458,26.948 v 2.41 c 1.861,0.702 3.11,0.64 5.094,0.67 4.116,0.092 9.057,-1.189 8.875,-6.22 -0.151,-3.873 -2.439,-4.73 -5.185,-6.315 l -3.629,-2.104 c -1.434,-0.824 -2.53,-1.706 -2.683,-3.324 -0.215,-2.5 2.53,-4.18 5.031,-4.025 1.768,0.06 3.05,0.335 4.332,1.556 V 7.246 C 19.644,6.578 18.516,6.638 16.718,6.578 12.876,6.453 9.335,8.586 9.365,12.186 c 0.031,2.44 1.344,3.936 3.57,5.246 l 4.149,2.38 c 1.888,1.067 3.505,2.193 3.505,4.36 0,2.839 -2.194,4.456 -5.794,4.331 M 24.522,8.769 c 0.23,0.288 0.318,0.49 0.405,0.81 l 7.628,20.544 5.578,-15.374 5.693,15.258 7.197,-20.055 c 0.114,-0.348 0.26,-0.549 0.432,-0.867 0.26,-0.406 0.432,-0.663 0.751,-1.04 h -3.181 c 0.175,0.26 0.23,0.463 0.262,0.782 C 49.316,9.201 49.2,9.46 49.025,9.835 L 44.114,24.43 38.798,9.664 c -0.114,-0.376 -0.176,-0.636 -0.086,-1.04 0.056,-0.233 0.116,-0.347 0.23,-0.55 h -3.929 c 0.231,0.231 0.402,0.404 0.605,0.666 0.232,0.288 0.435,0.46 0.579,0.839 l 1.07,2.715 L 32.73,24.37 27.44,9.348 c -0.086,-0.233 -0.057,-0.407 0,-0.64 0.03,-0.257 0.118,-0.403 0.264,-0.634 H 23.74 c 0.348,0.203 0.52,0.377 0.781,0.695 m 27.638,5.69 c 0.148,0.225 0.234,0.4 0.313,0.672 0.105,0.306 0.122,0.484 0.122,0.772 v 12.36 c 0,0.297 0,0.495 -0.117,0.767 v 0.004 l -0.005,0.003 a 1.643,1.643 0 0 1 -0.232,0.488 l -0.077,0.115 h 2.649 L 54.743,29.53 54.65,29.382 c -0.087,-0.127 -0.156,-0.23 -0.183,-0.397 -0.06,-0.498 -0.06,-1.178 -0.06,-1.962 V 15.861 c 0,-0.223 0,-0.354 0.14,-0.835 0.078,-0.216 0.14,-0.375 0.238,-0.573 l 0.054,-0.107 H 52.084 Z M 78.21,8.048 h -2.427 c 0.084,0.317 0.144,0.52 0.201,0.836 0.203,1.04 0.144,1.707 0.144,2.746 V 25.327 L 61.014,8.075 h -3.177 c 0.29,0.176 0.464,0.345 0.608,0.665 0.172,0.32 0.23,0.577 0.23,0.925 v 18.029 c 0,0.435 0,0.723 -0.116,1.158 -0.056,0.32 -0.171,0.49 -0.374,0.778 h 2.744 c -0.116,-0.375 -0.201,-0.576 -0.26,-0.924 -0.2,-0.952 -0.2,-0.952 -0.2,-1.587 V 11.08 l 17.453,19.274 -0.03,-20.2 c 0,-0.432 0,-0.689 0.089,-1.152 0.057,-0.377 0.114,-0.61 0.23,-0.953 M 31.748,48.937 c 0,-2.83 -1.332,-4.596 -3.73,-5.406 l -0.867,-0.317 0.81,-0.49 c 1.561,-0.894 2.4,-1.995 2.341,-4.047 -0.144,-2.802 -2.311,-5.172 -5.116,-5.172 h -6.53 c 0.204,0.292 0.32,0.49 0.462,0.81 0.206,0.462 0.29,0.78 0.29,1.27 v 17.77 c 0,0.436 -0.059,0.724 -0.204,1.127 -0.116,0.234 -0.173,0.378 -0.344,0.61 h 5.751 c 4.39,0 7.107,-2.34 7.137,-6.155 z M 21.692,34.949 h 2.11 c 2.684,0 4.159,1.56 4.274,3.728 0.087,2.34 -1.357,4.047 -4.507,4.047 h -1.877 z m 2.223,18.842 c -0.81,0.058 -1.327,-0.029 -2.107,-0.26 v -9.249 c 0.72,-0.172 1.153,-0.172 1.878,-0.172 2.857,0.085 5.662,1.098 5.75,4.798 0.086,3.119 -2.689,4.71 -5.52,4.883 z M 51.904,35.5 c 0,-0.406 -0.032,-0.634 0.028,-1.039 0.059,-0.376 0.116,-0.609 0.231,-0.954 h -3.009 c 0.147,0.345 0.207,0.578 0.294,0.954 0.059,0.405 0.059,0.662 0.059,1.094 v 12.37 c 0,3.065 -2.313,5.52 -5.61,5.607 C 40.574,53.646 37.6,51.077 37.6,47.75 V 35.41 c 0,-0.373 -0.032,-0.634 0.055,-1.01 0.06,-0.375 0.12,-0.58 0.261,-0.893 H 34.97 c 0.144,0.4 0.203,0.665 0.26,1.124 0.057,0.378 0.027,0.607 0.027,0.982 v 12.4 c 0,4.391 3.873,7.453 8.64,7.397 4.453,-0.088 8.007,-3.123 8.007,-7.282 V 35.5 Z m 19.35,18.754 c -0.666,-0.579 -1.185,-1.273 -1.85,-2.137 l -5.143,-6.534 a 13.956,13.956 0 0 0 -1.504,-1.646 c -0.176,-0.142 -0.261,-0.262 -0.432,-0.406 3.18,0.492 5.808,-2.08 5.865,-5.085 0.087,-3.092 -2.456,-4.968 -5.29,-4.968 h -6.5 c 0.175,0.316 0.32,0.517 0.403,0.894 0.147,0.811 0.176,1.27 0.176,2.08 v 15.49 c 0,0.81 0,1.76 -0.087,2.197 -0.029,0.345 -0.173,0.547 -0.347,0.894 h 3.177 c -0.144,-0.405 -0.26,-0.636 -0.316,-1.04 -0.117,-0.462 -0.087,-0.724 -0.087,-1.182 v -9.915 c 0.144,0.087 0.26,0.144 0.375,0.26 0.26,0.202 0.346,0.403 0.579,0.694 l 8.667,11.268 h 3.412 A 15.033,15.033 0 0 1 71.254,54.254 M 59.347,42.637 v -7.454 c 0.84,-0.378 1.39,-0.406 2.283,-0.406 3.498,0.145 4.076,1.995 4.19,3.726 0.174,2.398 -1.619,3.961 -4.596,4.192 -0.689,0.027 -1.47,0 -1.877,-0.058 M 44.388,59.745 c 0.202,1.04 0.144,1.704 0.144,2.747 V 76.188 L 29.418,58.935 h -3.179 c 0.291,0.176 0.462,0.347 0.608,0.663 0.174,0.323 0.232,0.58 0.232,0.926 v 18.031 c 0,0.437 0,0.723 -0.117,1.157 -0.057,0.318 -0.174,0.49 -0.375,0.778 h 2.745 C 29.217,80.118 29.128,79.914 29.072,79.566 28.87,78.614 28.87,78.614 28.87,77.981 V 61.94 L 46.323,81.215 46.296,61.017 c 0,-0.433 0,-0.696 0.085,-1.156 0.059,-0.375 0.116,-0.608 0.233,-0.953 h -2.43 c 0.087,0.318 0.145,0.52 0.204,0.837 m 16.7,19.129 H 54.183 V 69.22 h 5.778 c 0.345,0 0.608,0 0.954,0.059 0.49,0.115 0.779,0.202 1.212,0.405 v -2.052 h -8.03 v -7.107 h 5.864 c 0.492,0 0.839,-0.086 1.33,0.084 0.347,0.118 0.58,0.262 0.836,0.522 V 58.963 H 51.116 c 0.207,0.203 0.292,0.348 0.41,0.605 0.115,0.318 0.172,0.552 0.172,0.925 v 18.092 c 0,0.405 0.057,0.693 -0.057,1.095 a 2.24,2.24 0 0 1 -0.377,0.81 h 12.452 l 0.75,-2.424 c -0.34,0.23 -0.576,0.345 -0.981,0.459 -0.897,0.29 -1.443,0.348 -2.397,0.348 M 17.903,68.611 A 2.037,2.037 0 0 0 17.595,68.52 c -0.046,-0.01 -0.147,0.031 -0.184,0.001 l -0.027,-0.039 c -0.125,0.002 -0.498,0.117 -0.612,0.18 -0.284,0.149 -0.395,0.3 -0.64,0.323 l -0.053,0.009 a 0.909,0.909 0 0 1 -0.258,-0.192 c -0.024,-0.044 0.009,-0.149 0.018,-0.197 0.103,-0.493 0.826,-0.337 1.117,-0.472 a 0.9,0.9 0 0 0 0.35,-0.336 c 0.078,-0.125 0.193,-0.615 0.153,-0.752 -0.014,-0.046 -0.19,-0.56 -0.114,-0.781 0.018,-0.056 0.066,-0.192 0.043,-0.248 A 0.656,0.656 0 0 0 17.28,65.908 c -0.15,0.056 -0.28,0.144 -0.43,0.176 -0.164,0.036 -0.356,-0.005 -0.512,0.02 -0.301,0.037 -0.688,0.223 -0.841,0.553 -0.308,0.664 0.006,1.065 0.025,1.186 0.005,0.05 0.03,0.042 0.038,0.096 0.006,0.155 -0.294,0.359 -0.443,0.338 -0.108,-0.017 -0.304,-0.22 -0.316,-0.368 a 1.82,1.82 0 0 1 0.042,-0.333 c 0.015,-0.046 0.046,-0.2 0.043,-0.246 -0.01,-0.147 0.033,-0.38 -0.031,-0.534 -0.026,-0.057 -0.171,-0.35 -0.22,-0.402 A 6.967,6.967 0 0 0 14.097,66.061 5.53,5.53 0 0 0 13.83,66.036 32.977,32.977 0 0 0 13.38,66.009 l -0.41,-0.237 c -0.028,-0.015 -0.155,0.025 -0.167,0.025 -0.02,0.05 -0.07,0.113 -0.068,0.168 0.01,0.197 0.138,0.31 0.089,0.525 -0.056,0.23 -0.183,0.473 -0.18,0.71 0.004,0.318 0.267,0.721 0.543,0.912 0.048,0.037 0.159,0.05 0.205,0.076 0.095,0.05 0.134,0.119 0.228,0.147 0.044,0.017 0.144,-0.015 0.182,-0.006 0.034,0.01 0.56,0.354 0.58,0.398 0.027,0.052 -0.022,0.18 -0.057,0.223 -0.106,0.135 -0.252,0.135 -0.38,0.116 l -0.044,0.028 c -0.053,-0.036 -0.14,-0.08 -0.162,-0.1 -0.045,-0.044 -0.068,-0.13 -0.117,-0.17 a 4.59,4.59 0 0 0 -0.417,-0.198 c -0.144,-0.058 -0.5,-0.058 -0.657,0.027 -0.084,0.047 -0.236,0.21 -0.303,0.27 -0.035,0.036 -0.095,0.051 -0.125,0.089 -0.123,0.157 -0.163,0.418 -0.247,0.573 -0.065,0.114 -0.18,0.184 -0.218,0.304 -0.033,0.108 0.005,0.13 0.063,0.266 0.006,0 0.056,-0.01 0.056,-0.01 0,0 0.292,0.203 0.426,0.347 0.13,0.144 0.492,0.326 0.652,0.318 0.07,0 0.34,-0.048 0.39,-0.058 0.125,-0.021 0.321,-0.111 0.437,-0.212 0.042,-0.036 0.336,-0.507 0.354,-0.552 0.007,-0.03 0.35,-0.435 0.493,-0.346 0.014,0.004 0.21,0.175 0.248,0.26 0.02,0.05 -0.01,0.218 -0.032,0.266 -0.066,0.137 -0.247,0.19 -0.384,0.332 a 2.57,2.57 0 0 0 -0.279,0.44 c -0.03,0.076 -0.006,0.166 -0.006,0.25 -0.007,0.225 0.015,0.5 0.26,0.772 0.039,0.044 0.162,0.123 0.207,0.165 0.166,0.165 0.357,0.483 0.553,0.444 0.192,-0.039 0.294,-0.26 0.504,-0.382 0.222,-0.132 0.446,-0.345 0.536,-0.555 0.037,-0.093 0.022,-0.294 0.033,-0.396 0,-0.012 -0.065,-0.32 -0.123,-0.44 -0.042,-0.087 -0.077,-0.226 -0.174,-0.339 -0.119,-0.135 -0.408,-0.204 -0.476,-0.375 -0.006,-0.009 0.033,-0.072 0.033,-0.082 -0.003,-0.053 -0.045,-0.066 -0.052,-0.119 a 0.852,0.852 0 0 1 0.087,-0.274 c 0.163,-0.183 0.5,-0.116 0.613,0 0.16,0.163 0.123,0.366 0.216,0.528 0.204,0.36 0.732,0.6 1.007,0.558 0.058,-0.008 0.262,-0.04 0.32,-0.068 0.166,-0.082 0.3,-0.246 0.383,-0.328 0.13,-0.13 0.41,-0.254 0.492,-0.404 0.063,-0.123 -0.129,-0.474 -0.183,-0.613 -0.067,-0.168 -0.223,-0.543 -0.406,-0.67 m 59.259,0.975 c -0.08,-0.156 -0.123,-0.419 -0.247,-0.575 -0.027,-0.037 -0.087,-0.052 -0.123,-0.088 -0.07,-0.06 -0.216,-0.224 -0.302,-0.269 -0.159,-0.087 -0.514,-0.087 -0.658,-0.03 a 4.214,4.214 0 0 0 -0.419,0.203 c -0.046,0.039 -0.067,0.124 -0.115,0.165 -0.024,0.022 -0.111,0.067 -0.164,0.102 l -0.04,-0.03 c -0.128,0.02 -0.276,0.02 -0.383,-0.113 -0.036,-0.046 -0.085,-0.172 -0.057,-0.225 0.02,-0.045 0.545,-0.382 0.58,-0.397 0.037,-0.01 0.139,0.02 0.184,0.007 0.096,-0.031 0.13,-0.096 0.226,-0.148 0.048,-0.027 0.16,-0.04 0.207,-0.075 0.273,-0.188 0.539,-0.594 0.543,-0.914 0.002,-0.237 -0.126,-0.48 -0.18,-0.708 -0.052,-0.214 0.078,-0.33 0.086,-0.526 0.003,-0.056 -0.047,-0.119 -0.065,-0.168 -0.015,0 -0.142,-0.042 -0.17,-0.024 -0.028,0.013 -0.412,0.235 -0.412,0.235 l -0.447,0.026 c -0.033,0.003 -0.232,0.022 -0.27,0.027 a 11.5,11.5 0 0 0 -0.537,0.334 2.831,2.831 0 0 0 -0.216,0.404 c -0.067,0.148 -0.024,0.384 -0.034,0.53 -0.002,0.046 0.03,0.2 0.043,0.245 0.024,0.07 0.047,0.329 0.044,0.338 -0.01,0.144 -0.21,0.35 -0.318,0.364 -0.149,0.021 -0.447,-0.183 -0.441,-0.339 0.004,-0.052 0.033,-0.045 0.037,-0.096 0.017,-0.115 0.333,-0.52 0.026,-1.185 -0.155,-0.331 -0.543,-0.516 -0.842,-0.555 -0.154,-0.02 -0.346,0.017 -0.511,-0.016 -0.152,-0.033 -0.282,-0.123 -0.43,-0.179 0,0 -0.097,0.08 -0.107,0.11 -0.024,0.054 0.027,0.192 0.042,0.246 0.073,0.222 -0.102,0.735 -0.117,0.781 -0.04,0.137 0.08,0.63 0.157,0.752 a 0.874,0.874 0 0 0 0.348,0.34 c 0.291,0.13 1.013,-0.025 1.118,0.468 0.012,0.048 0.04,0.153 0.018,0.197 -0.023,0.048 -0.23,0.19 -0.258,0.192 l -0.053,-0.008 c -0.244,-0.022 -0.361,-0.175 -0.639,-0.32 -0.117,-0.064 -0.489,-0.18 -0.616,-0.184 l -0.024,0.04 c -0.038,0.03 -0.138,-0.011 -0.183,0 a 2.143,2.143 0 0 0 -0.31,0.09 c -0.184,0.128 -0.341,0.502 -0.406,0.673 -0.054,0.138 -0.246,0.49 -0.181,0.613 0.08,0.149 0.36,0.27 0.489,0.4 0.087,0.085 0.216,0.248 0.385,0.33 0.059,0.03 0.261,0.06 0.321,0.073 0.272,0.037 0.803,-0.203 1.005,-0.564 0.092,-0.16 0.054,-0.362 0.216,-0.528 0.11,-0.116 0.452,-0.182 0.615,0 a 0.829,0.829 0 0 1 0.084,0.277 c -0.007,0.05 -0.05,0.065 -0.05,0.117 0,0.01 0.035,0.072 0.034,0.084 -0.068,0.168 -0.36,0.239 -0.477,0.375 -0.096,0.111 -0.134,0.25 -0.177,0.34 -0.057,0.12 -0.12,0.425 -0.12,0.437 0.009,0.102 -0.005,0.303 0.034,0.395 0.086,0.21 0.31,0.424 0.534,0.556 0.21,0.122 0.31,0.344 0.504,0.381 0.197,0.04 0.389,-0.277 0.557,-0.44 0.042,-0.044 0.165,-0.124 0.207,-0.167 0.243,-0.269 0.26,-0.545 0.256,-0.774 0,-0.081 0.023,-0.173 -0.006,-0.25 a 2.79,2.79 0 0 0 -0.279,-0.44 c -0.136,-0.141 -0.32,-0.194 -0.385,-0.332 -0.021,-0.046 -0.05,-0.214 -0.03,-0.265 0.034,-0.086 0.232,-0.255 0.247,-0.261 0.144,-0.087 0.485,0.318 0.495,0.346 0.014,0.047 0.312,0.518 0.353,0.554 0.115,0.1 0.312,0.19 0.435,0.213 0.052,0.007 0.32,0.057 0.391,0.058 0.162,0.005 0.52,-0.175 0.651,-0.315 0.135,-0.147 0.43,-0.35 0.43,-0.35 l 0.053,0.007 c 0.056,-0.135 0.1,-0.156 0.062,-0.263 -0.038,-0.118 -0.153,-0.192 -0.218,-0.304"
       fill="#ffffff"
       id="path4" />
  </g>
</svg>
