<?xml version="1.0" encoding="UTF-8" standalone="no"?><!DOCTYPE svg PUBLIC "-//W3C//DTD SVG 1.1//EN" "http://www.w3.org/Graphics/SVG/1.1/DTD/svg11.dtd"><svg width="100%" height="100%" viewBox="0 0 220 75" version="1.1" xmlns="http://www.w3.org/2000/svg" xmlns:xlink="http://www.w3.org/1999/xlink" xml:space="preserve" xmlns:serif="http://www.serif.com/" style="fill-rule:evenodd;clip-rule:evenodd;stroke-linejoin:round;stroke-miterlimit:2;"><rect id="Artboard1" x="0" y="0" width="219.541" height="74.77" style="fill:none;"/><clipPath id="_clip1"><rect x="0" y="0" width="219.541" height="74.77"/></clipPath><g clip-path="url(#_clip1)"><path d="M86.831,53.373l-0,9.143l-1.194,0l0,-9.143l1.194,-0Zm2.939,-0l-0,0.992l-7.065,0l-0,-0.992l7.065,-0Z" style="fill-rule:nonzero;"/><path d="M96.357,53.373l1.206,-0l-0,6.186c-0,0.686 -0.153,1.258 -0.459,1.714c-0.305,0.456 -0.71,0.799 -1.215,1.027c-0.504,0.228 -1.052,0.342 -1.642,0.342c-0.62,-0 -1.18,-0.114 -1.68,-0.342c-0.5,-0.228 -0.896,-0.571 -1.187,-1.027c-0.291,-0.456 -0.436,-1.028 -0.436,-1.714l-0,-6.186l1.199,-0l0,6.186c0,0.477 0.088,0.87 0.264,1.18c0.176,0.31 0.422,0.54 0.738,0.691c0.316,0.151 0.683,0.226 1.102,0.226c0.423,0 0.792,-0.075 1.108,-0.226c0.317,-0.151 0.562,-0.381 0.738,-0.691c0.176,-0.31 0.264,-0.703 0.264,-1.18l0,-6.186Z" style="fill-rule:nonzero;"/><path d="M106.499,53.373l-0,9.143l-1.218,0l-4.603,-7.052l-0,7.052l-1.212,0l-0,-9.143l1.212,-0l4.622,7.071l-0,-7.071l1.199,-0Z" style="fill-rule:nonzero;"/><path d="M115.398,57.964l-0,3.347c-0.114,0.167 -0.294,0.354 -0.541,0.562c-0.247,0.207 -0.587,0.387 -1.02,0.54c-0.433,0.153 -0.991,0.229 -1.674,0.229c-0.556,-0 -1.068,-0.097 -1.535,-0.292c-0.467,-0.195 -0.871,-0.479 -1.212,-0.854c-0.341,-0.375 -0.605,-0.831 -0.791,-1.369c-0.187,-0.538 -0.28,-1.148 -0.28,-1.831l0,-0.709c0,-0.683 0.081,-1.292 0.242,-1.828c0.161,-0.536 0.399,-0.991 0.713,-1.366c0.314,-0.374 0.699,-0.659 1.155,-0.854c0.457,-0.194 0.98,-0.292 1.57,-0.292c0.699,0 1.284,0.121 1.755,0.361c0.471,0.241 0.84,0.573 1.106,0.996c0.266,0.423 0.436,0.904 0.512,1.444l-1.213,0c-0.054,-0.331 -0.162,-0.632 -0.323,-0.904c-0.161,-0.272 -0.39,-0.491 -0.688,-0.656c-0.297,-0.166 -0.68,-0.248 -1.149,-0.248c-0.423,-0 -0.789,0.077 -1.099,0.232c-0.31,0.155 -0.565,0.377 -0.766,0.666c-0.201,0.288 -0.35,0.638 -0.449,1.048c-0.098,0.411 -0.147,0.873 -0.147,1.388l-0,0.722c-0,0.528 0.061,0.999 0.185,1.413c0.123,0.415 0.3,0.768 0.53,1.058c0.231,0.291 0.506,0.512 0.826,0.663c0.321,0.151 0.675,0.226 1.065,0.226c0.431,0 0.78,-0.037 1.048,-0.11c0.268,-0.073 0.478,-0.161 0.628,-0.264c0.151,-0.102 0.266,-0.199 0.346,-0.292l-0,-2.047l-2.117,0l0,-0.979l3.323,-0Z" style="fill-rule:nonzero;"/><path d="M123.373,57.304l-0,0.986l-4.949,0l0,-0.986l4.949,0Zm-4.76,-3.931l-0,9.143l-1.212,0l-0,-9.143l1.212,-0Zm5.815,-0l-0,9.143l-1.206,0l0,-9.143l1.206,-0Z" style="fill-rule:nonzero;"/><path d="M130.073,54.183l-3.026,8.333l-1.238,0l3.486,-9.143l0.797,-0l-0.019,0.81Zm2.538,8.333l-3.034,-8.333l-0.018,-0.81l0.797,-0l3.498,9.143l-1.243,0Zm-0.157,-3.384l-0,0.992l-5.137,-0l-0,-0.992l5.137,-0Z" style="fill-rule:nonzero;"/><rect x="135.166" y="53.373" width="1.212" height="9.143" style="fill-rule:nonzero;"/><path d="M150.188,53.373l1.206,-0l-0,6.186c-0,0.686 -0.153,1.258 -0.459,1.714c-0.306,0.456 -0.711,0.799 -1.215,1.027c-0.505,0.228 -1.052,0.342 -1.642,0.342c-0.62,-0 -1.18,-0.114 -1.68,-0.342c-0.5,-0.228 -0.896,-0.571 -1.187,-1.027c-0.291,-0.456 -0.436,-1.028 -0.436,-1.714l-0,-6.186l1.199,-0l0,6.186c0,0.477 0.088,0.87 0.264,1.18c0.176,0.31 0.422,0.54 0.738,0.691c0.316,0.151 0.683,0.226 1.102,0.226c0.423,0 0.792,-0.075 1.108,-0.226c0.316,-0.151 0.562,-0.381 0.738,-0.691c0.176,-0.31 0.264,-0.703 0.264,-1.18l-0,-6.186Z" style="fill-rule:nonzero;"/><path d="M160.33,53.373l-0,9.143l-1.219,0l-4.603,-7.052l0,7.052l-1.212,0l0,-9.143l1.212,-0l4.622,7.071l0,-7.071l1.2,-0Z" style="fill-rule:nonzero;"/><rect x="162.559" y="53.373" width="1.212" height="9.143" style="fill-rule:nonzero;"/><path d="M168.921,61.129l2.694,-7.756l1.312,-0l-3.385,9.143l-0.935,0l0.314,-1.387Zm-2.519,-7.756l2.669,7.756l0.333,1.387l-0.936,0l-3.378,-9.143l1.312,-0Z" style="fill-rule:nonzero;"/><path d="M179.967,61.53l-0,0.986l-4.842,0l0,-0.986l4.842,0Zm-4.597,-8.157l-0,9.143l-1.212,0l-0,-9.143l1.212,-0Zm3.956,3.931l0,0.986l-4.201,0l0,-0.986l4.201,0Zm0.578,-3.931l-0,0.992l-4.779,0l0,-0.992l4.779,-0Z" style="fill-rule:nonzero;"/><path d="M181.468,53.373l3.027,-0c0.686,-0 1.267,0.105 1.742,0.314c0.475,0.209 0.837,0.518 1.087,0.926c0.249,0.408 0.373,0.91 0.373,1.504c0,0.419 -0.085,0.801 -0.254,1.146c-0.17,0.346 -0.412,0.639 -0.729,0.879c-0.316,0.241 -0.693,0.42 -1.133,0.537l-0.339,0.132l-2.845,0l-0.013,-0.986l2.148,0c0.436,0 0.798,-0.076 1.087,-0.229c0.288,-0.153 0.506,-0.359 0.653,-0.618c0.146,-0.26 0.22,-0.547 0.22,-0.861c-0,-0.351 -0.07,-0.659 -0.208,-0.923c-0.138,-0.264 -0.355,-0.468 -0.65,-0.612c-0.295,-0.145 -0.675,-0.217 -1.139,-0.217l-1.815,0l-0,8.151l-1.212,0l-0,-9.143Zm5.344,9.143l-2.223,-4.144l1.262,-0.007l2.254,4.076l0,0.075l-1.293,0Z" style="fill-rule:nonzero;"/><path d="M194.266,60.205c-0,-0.213 -0.033,-0.403 -0.097,-0.568c-0.065,-0.165 -0.178,-0.315 -0.34,-0.449c-0.161,-0.134 -0.383,-0.262 -0.665,-0.383c-0.283,-0.121 -0.64,-0.245 -1.071,-0.37c-0.452,-0.134 -0.86,-0.284 -1.224,-0.45c-0.365,-0.165 -0.677,-0.354 -0.936,-0.568c-0.26,-0.213 -0.459,-0.458 -0.597,-0.735c-0.138,-0.276 -0.207,-0.592 -0.207,-0.948c0,-0.356 0.073,-0.684 0.22,-0.986c0.146,-0.301 0.357,-0.564 0.631,-0.788c0.274,-0.224 0.602,-0.399 0.983,-0.524c0.381,-0.126 0.806,-0.189 1.275,-0.189c0.686,0 1.269,0.131 1.748,0.393c0.48,0.262 0.845,0.603 1.096,1.023c0.252,0.421 0.377,0.87 0.377,1.347l-1.206,0c0,-0.343 -0.073,-0.647 -0.219,-0.913c-0.147,-0.266 -0.369,-0.475 -0.666,-0.628c-0.297,-0.153 -0.674,-0.229 -1.13,-0.229c-0.432,-0 -0.788,0.064 -1.068,0.194c-0.281,0.13 -0.489,0.306 -0.625,0.528c-0.136,0.222 -0.204,0.475 -0.204,0.76c0,0.192 0.041,0.367 0.123,0.524c0.081,0.157 0.209,0.302 0.383,0.436c0.173,0.134 0.395,0.258 0.665,0.371c0.27,0.113 0.594,0.222 0.97,0.326c0.52,0.147 0.968,0.31 1.344,0.49c0.377,0.18 0.688,0.382 0.933,0.606c0.245,0.224 0.427,0.478 0.546,0.76c0.12,0.283 0.179,0.602 0.179,0.958c0,0.372 -0.075,0.709 -0.226,1.011c-0.151,0.301 -0.366,0.559 -0.647,0.772c-0.28,0.214 -0.616,0.378 -1.008,0.493c-0.391,0.115 -0.827,0.173 -1.309,0.173c-0.423,-0 -0.838,-0.059 -1.246,-0.176c-0.409,-0.117 -0.779,-0.293 -1.112,-0.527c-0.333,-0.235 -0.599,-0.525 -0.798,-0.87c-0.198,-0.345 -0.298,-0.746 -0.298,-1.203l1.206,0c-0,0.314 0.061,0.583 0.182,0.807c0.121,0.224 0.288,0.41 0.499,0.556c0.212,0.147 0.452,0.254 0.722,0.323c0.27,0.07 0.552,0.104 0.845,0.104c0.423,0 0.781,-0.059 1.074,-0.176c0.293,-0.117 0.516,-0.284 0.669,-0.502c0.153,-0.218 0.229,-0.475 0.229,-0.773Z" style="fill-rule:nonzero;"/><rect x="197.117" y="53.373" width="1.212" height="9.143" style="fill-rule:nonzero;"/><path d="M203.723,53.373l0,9.143l-1.193,0l0,-9.143l1.193,-0Zm2.939,-0l0,0.992l-7.064,0l-0,-0.992l7.064,-0Z" style="fill-rule:nonzero;"/><path d="M208.54,53.373l2.374,4.591l2.38,-4.591l1.375,-0l-3.152,5.727l-0,3.416l-1.212,0l-0,-3.416l-3.153,-5.727l1.388,-0Z" style="fill-rule:nonzero;"/><g><path d="M14.8,10.3c0.4,0 0.8,0 1.2,-0.1c0.5,-0.2 1,-0.3 1.3,-0.8c0.2,-0.4 0.5,-0.8 0.6,-1.3c0.3,-1 0.8,-1.9 1.6,-2.5c0.8,-0.6 1.6,-0.9 2.5,-0.8c0.6,-0 1.2,0.2 1.8,0.4c1,0.2 1.9,-0.1 2.6,-0.8c0.3,-0.2 0.4,-0.6 0.6,-0.9c0.4,-0.9 1.2,-1.3 2,-1.7c0.7,-0.3 1.4,-0.2 2,-0.2c0.4,-0 0.8,0.3 1.2,0.5c0.7,0.3 1.3,0.9 2.1,0.8c0.6,-0.1 1.1,-0.3 1.6,-0.5c0.5,-0.2 0.9,-0.6 1.4,-1c0.6,-0.4 1.2,-0.7 1.9,-0.6c0.6,0.1 1.1,0.2 1.6,0.4c0.4,0.2 0.7,0.5 1,0.8c0.4,0.7 1.1,1.1 1.8,1.3c0.6,0.2 1.3,0.3 1.9,-0c0.6,-0.3 1.3,-0.6 1.9,-0.8c0.7,-0.2 1.3,-0.2 2,-0c0.8,0.3 1.3,0.8 1.8,1.4c0.3,0.4 0.6,0.9 0.8,1.4c0.5,1.2 1.6,1.6 2.9,1.3c1,-0.2 2.1,-0.5 3,-0c0.6,0.3 1.2,0.7 1.5,1.4c0.3,0.9 0.6,1.8 0.9,2.7c0.2,0.7 0.7,1 1.3,1.3c0.7,0.3 1.5,0.3 2.2,0.3c0.4,-0 0.8,0.2 1.2,0.4c0.3,0.2 0.6,0.5 0.9,0.8c0.6,0.6 0.9,1.2 0.9,2c0,0.7 0,1.4 -0.1,2c0,0.8 0.2,1.6 0.8,2.2c0.2,0.2 0.5,0.4 0.8,0.6c0.6,0.3 1.2,0.5 1.7,0.8c1,0.6 1.7,1.5 1.6,2.7c0,0.8 -0.3,1.6 -0.6,2.3c-0.6,1.5 -0.4,2.7 0.9,3.7c0.7,0.6 1.5,1.2 1.8,2.1c0.3,0.9 0.4,1.9 0.1,2.8c-0.2,0.8 -0.8,1.4 -1.3,2c-0.6,0.7 -0.8,1.5 -0.5,2.3c0.3,0.7 0.7,1.4 1.2,2c0.6,0.8 0.8,1.7 0.6,2.7c-0.2,1.1 -0.7,2.1 -1.6,2.8c-0.3,0.3 -0.7,0.6 -1,0.9c-0.5,0.5 -0.7,1.2 -0.5,1.9c0.1,0.4 0.2,0.7 0.4,1.1c0.8,1.8 -0.4,4.7 -2.4,5.2c-0.2,0.1 -0.4,0.1 -0.6,0.2c-1,0.3 -1.6,1.3 -1.4,2.4c0.3,1.5 0.1,3 -1.1,4c-0.5,0.4 -1.1,0.7 -1.7,0.9c-0.5,0.2 -1.1,0.2 -1.6,0.4c-1,0.3 -1.3,1 -1.5,1.9c-0.3,1.9 -0.9,2.7 -2.7,3.3c-0.5,0.2 -1.1,0.1 -1.7,0c-0.3,0 -0.6,-0.1 -0.9,-0.2c-0.5,-0.1 -1.4,0.1 -1.6,0.6c-0.2,0.4 -0.4,0.9 -0.7,1.3c-0.3,0.6 -0.6,1.2 -1,1.7c-0.4,0.5 -1,0.7 -1.6,0.9c-0.9,0.2 -1.8,-0.1 -2.7,-0.3c-0.8,-0.3 -1.6,-0.8 -2.6,-0.4c-0.5,0.2 -0.9,0.5 -1.3,0.8c-0.5,0.4 -0.8,0.9 -1.3,1.3c-0.9,0.9 -2,1.3 -3.2,1.1c-0.7,-0.1 -1.3,-0.5 -1.8,-1c-0.4,-0.4 -0.8,-0.8 -1.3,-1.2c-0.6,-0.4 -1.8,-0.4 -2.4,0.2c-0.7,0.7 -1.4,1.2 -2.3,1.4c-0.6,0.2 -1.3,0.1 -1.9,-0.1c-0.9,-0.3 -1.5,-0.9 -1.9,-1.7c-0.2,-0.4 -0.5,-0.9 -0.8,-1.3c-0.5,-0.6 -1.2,-0.7 -1.9,-0.5c-0.7,0.2 -1.4,0.5 -2.1,0.7c-1.1,0.2 -2.1,0.1 -3,-0.7c-0.5,-0.5 -1,-1.1 -1.1,-1.8c-0.1,-0.5 -0.3,-1.1 -0.5,-1.6c-0.3,-0.7 -0.9,-1 -1.7,-1c-0.6,0 -1.1,0.1 -1.7,0.1c-0.6,-0.1 -1.2,0 -1.8,-0.3c-0.7,-0.4 -1.1,-0.8 -1.4,-1.5c-0.3,-0.8 -0.4,-1.6 -0.5,-2.4c-0.1,-1.3 -0.9,-2.4 -2.2,-2.8c-0.7,-0.2 -1.5,-0.4 -2.2,-0.8c-1,-0.5 -1.4,-1.5 -1.6,-2.6c-0.1,-0.8 0.1,-1.6 0.4,-2.4c0.1,-0.2 0.1,-0.4 0,-0.6c-0.2,-1.1 -0.6,-2.2 -1.7,-2.8c-0.4,-0.2 -0.8,-0.5 -1.2,-0.7c-0.8,-0.4 -1.2,-1.1 -1.5,-1.9c-0.3,-0.8 -0.2,-1.7 0.2,-2.5c0.3,-0.7 0.7,-1.3 0.9,-2c0.2,-0.6 0.2,-1.3 0,-2c-0.2,-0.9 -0.9,-1.5 -1.5,-2.2c-0.9,-1 -1.2,-2.2 -0.7,-3.5c0.3,-0.7 0.7,-1.2 1.3,-1.7c1,-0.8 1.5,-1.8 1.3,-3.1c-0.1,-0.6 -0.5,-1.1 -0.7,-1.7c-0.3,-0.7 -0.6,-1.5 -0.5,-2.3c0.2,-1.1 0.7,-2 1.6,-2.7c0.3,-0.2 0.6,-0.3 0.9,-0.4c0.9,-0.4 1.5,-1.3 1.3,-2.2c-0.1,-0.7 -0.2,-1.4 -0.2,-2.1c0,-1.1 0.5,-2 1.3,-2.7c0.5,-0.4 1.1,-0.6 1.8,-0.8c1,-0.3 1.6,-0.8 2,-1.8c0.2,-0.7 0.2,-1.5 0.4,-2.2c0.2,-1 0.9,-1.6 1.7,-2.1c0.9,0.1 1.6,-0 2.3,0.1Zm20.3,-5.9c-1,0.1 -2,0.1 -2.9,0.3c-1.3,0.2 -2.5,0.6 -3.7,0.9c-1.6,0.5 -3.2,1 -4.7,1.8c-0.8,0.4 -1.6,0.8 -2.4,1.2c-2.4,1.4 -4.5,3 -6.5,4.9c-1.6,1.6 -3.1,3.3 -4.4,5.1c-0.6,0.9 -1.3,1.9 -1.9,2.8c-0,-0 -0,0.1 -0.1,0.1c-0.1,0.3 -0.3,0.7 -0.4,1c-0.2,0.5 -0.5,1 -0.7,1.5c-0.2,0.4 -0.3,0.8 -0.5,1.2c-0.2,0.5 -0.5,1 -0.6,1.5c-0.6,2.1 -1.3,4.2 -1.6,6.4c-0.1,0.8 -0.2,1.6 -0.3,2.5c-0.1,0.6 -0.1,1.2 -0.1,1.8c-0,0.8 -0.1,1.7 -0,2.5c-0,0.8 0.1,1.6 0.2,2.4c0.1,0.7 0.2,1.5 0.3,2.2c0.1,0.8 0.3,1.6 0.5,2.3c0.4,1.3 0.8,2.6 1.2,3.9c0.2,0.7 0.6,1.4 0.9,2.2c0.2,0.6 0.5,1.1 0.8,1.6c0.4,0.7 0.8,1.4 1.3,2.1c0.5,0.8 1,1.6 1.5,2.3c0.8,1.1 1.7,2.1 2.6,3.1c0.5,0.5 0.9,1 1.4,1.5c1,0.8 2,1.6 3,2.4c0.4,0.4 0.9,0.7 1.4,1c0.7,0.4 1.4,0.9 2.1,1.3c1,0.4 1.9,0.9 2.8,1.4c0.3,0.2 0.7,0.3 1.1,0.4c0.9,0.3 1.8,0.7 2.8,1c0.8,0.2 1.6,0.4 2.5,0.6c0.5,0.1 1.1,0.3 1.6,0.3c0.5,0.1 1,0.1 1.6,0.2c0.9,0.1 1.9,0.2 2.8,0.3c0.6,0 1.3,0 1.9,-0.1c1.3,-0.1 2.5,-0.2 3.8,-0.3c0.9,-0.1 1.9,-0.3 2.8,-0.5c1.1,-0.3 2.1,-0.6 3.2,-1c0.9,-0.3 1.7,-0.6 2.6,-1c0.7,-0.3 1.2,-0.7 1.9,-1c1.2,-0.6 2.3,-1.2 3.4,-2c1.3,-1 2.6,-2 3.9,-3.1c0.5,-0.4 0.9,-0.8 1.3,-1.2c0.5,-0.5 0.9,-1 1.4,-1.6c0.4,-0.5 0.9,-0.9 1.2,-1.4c0.5,-0.7 1,-1.4 1.4,-2.2c0.5,-0.8 0.9,-1.5 1.4,-2.3c0.4,-0.7 0.8,-1.4 1.2,-2.2c1,-2.2 1.9,-4.6 2.3,-7c0.2,-1.2 0.4,-2.4 0.6,-3.6c0.2,-1.4 0.3,-2.8 0.2,-4.2l0,-1.7c-0.1,-0.9 -0.2,-1.7 -0.3,-2.6c-0.1,-0.9 -0.3,-1.9 -0.5,-2.8c-0.3,-1.3 -0.6,-2.6 -1,-3.9c-0.3,-1 -0.8,-2 -1.2,-3c-0.5,-1.2 -1.1,-2.3 -1.7,-3.4c-0.5,-0.9 -1.1,-1.7 -1.6,-2.5c-1.3,-1.9 -2.9,-3.5 -4.5,-5c-0.9,-0.8 -1.9,-1.5 -2.8,-2.3c-0.4,-0.3 -0.8,-0.5 -1.2,-0.8c-1.9,-1.4 -4,-2.4 -6.2,-3.3c-1.2,-0.3 -2.2,-0.5 -3.2,-0.8c-1.3,-0.4 -2.6,-0.7 -4,-0.9c-1.4,-0.2 -2.9,-0.4 -4.3,-0.4l-1.7,0c-0.2,0 -0.3,-0.1 -0.5,0c-0.5,0 -0.9,0 -1.4,0.1Z" style="fill:#3853a3;fill-rule:nonzero;"/></g><g><path d="M8.8,38.4l0,-1.9c0.1,-0.9 0.2,-1.8 0.3,-2.8c0.2,-1.1 0.4,-2.3 0.7,-3.4c0.2,-0.7 0.4,-1.4 0.6,-2c1.4,-4.2 3.7,-7.8 6.8,-11c3,-3.1 6.5,-5.3 10.5,-6.8c1.5,-0.6 3,-1 4.5,-1.3c1.2,-0.2 2.4,-0.4 3.6,-0.5c1.1,0 2.2,-0.1 3.3,-0.1c1.1,0.1 2.2,0.2 3.3,0.4c2.7,0.4 5.3,1.3 7.8,2.5c4,1.9 7.2,4.6 10,7.9c2.3,2.9 4.1,6.1 5.1,9.6c0.3,1.1 0.7,2.3 0.9,3.5c0.3,1.3 0.5,2.5 0.5,3.8c-0,0.9 0.1,1.7 0.1,2.6c-0.1,1.3 -0.2,2.5 -0.4,3.7c-0.2,1.1 -0.4,2.2 -0.7,3.3c-0.2,0.8 -0.5,1.6 -0.8,2.3c-1.4,3.7 -3.3,7 -5.9,9.9c-2.5,2.7 -5.3,4.8 -8.6,6.5c-1.6,0.8 -3.3,1.4 -5,1.9c-1.4,0.4 -2.8,0.7 -4.2,0.9c-1.4,0.2 -2.9,0.2 -4.3,0.1c-1.4,0 -2.8,-0.2 -4.2,-0.4c-1.9,-0.3 -3.8,-0.8 -5.6,-1.6c-3.5,-1.5 -6.7,-3.5 -9.4,-6.2c-2.7,-2.7 -4.9,-5.8 -6.4,-9.3c-0.4,-1 -0.9,-2 -1.2,-3.1c-0.4,-1.4 -0.7,-2.8 -1,-4.2c-0.3,-1.4 -0.4,-3 -0.3,-4.3Zm0.9,-0.3c0,0.6 0.1,1.2 0.1,1.7c0.1,0.7 0,1.5 0.2,2.2c0.3,1.4 0.6,2.8 0.9,4.2c1.2,4.5 3.5,8.4 6.7,11.8c3.2,3.3 6.9,5.7 11.3,7.2c0.6,0.2 1.2,0.4 1.8,0.5c0.8,0.2 1.6,0.4 2.5,0.5c1,0.2 2,0.3 3,0.4c1.1,0.1 2.2,0 3.3,0l0.3,0c1,-0.2 2,-0.3 3,-0.5c0.9,-0.2 1.8,-0.3 2.7,-0.6c1.3,-0.4 2.6,-0.9 3.8,-1.4c4.9,-2.3 8.9,-5.8 11.8,-10.4c2,-3.1 3.3,-6.5 4,-10.1c0.4,-1.9 0.6,-3.9 0.5,-5.9c0,-0.4 0.1,-0.8 0,-1.2c-0.1,-0.8 -0.2,-1.6 -0.3,-2.4c-0.1,-0.9 -0.2,-1.8 -0.4,-2.7c-0.5,-1.8 -1,-3.5 -1.8,-5.2c-1.3,-2.8 -2.9,-5.4 -5,-7.6c-2.6,-2.8 -5.6,-5 -9.2,-6.6c-1.1,-0.5 -2.2,-0.9 -3.3,-1.3c-1.2,-0.3 -2.4,-0.6 -3.6,-0.8c-0.9,-0.2 -1.8,-0.3 -2.7,-0.4c-2.1,-0.1 -4.3,-0.1 -6.4,0.4c-1.3,0.3 -2.5,0.5 -3.7,0.9c-3.3,1.1 -6.4,2.7 -9.1,4.9c-2.2,1.8 -4.1,3.9 -5.7,6.2c-1.9,2.8 -3.2,5.8 -4,9.1c-0.3,1.2 -0.5,2.4 -0.7,3.7c0.1,1.3 0.1,2.4 0,3.4Z" style="fill:#3853a3;fill-rule:nonzero;"/></g><g><path d="M41.2,68.3c0,0.3 0.1,0.5 0.1,0.8c-0.3,0.1 -0.6,0.1 -0.9,0.2c-0.6,0.1 -1.2,0.1 -1.8,0.2c-0.1,0 -0.2,0.1 -0.3,0.2c0.1,0.1 0.2,0.2 0.3,0.2c0.6,0 1.1,-0.1 1.7,-0.1c0.3,0 0.7,-0.1 1,0c0.1,0 0.2,0.1 0.2,0.2c0.1,0.3 0.1,0.7 0.1,1c0,0.3 -0.1,0.4 -0.4,0.5c-1,0.1 -2,0.2 -3,0.3c-0.5,0.1 -0.6,-0.1 -0.5,-0.5c0,-0.1 0.2,-0.3 0.3,-0.3c0.8,-0.1 1.6,-0.2 2.4,-0.2c0.1,0 0.2,-0.1 0.4,-0.1l-2.8,0c-0.3,0 -0.5,-0.1 -0.5,-0.5l0,-1.1c0,-0.3 0.1,-0.3 0.3,-0.4c0.4,0 0.8,0 1.2,-0.1c0.5,-0.1 1,-0.1 1.5,-0.2c0.2,-0.1 0.4,-0.1 0.7,-0.1Z" style="fill:#3853a3;fill-rule:nonzero;"/></g><g><path d="M35.4,70.9l0,-0.4c-0.6,-0.1 -1.2,-0.1 -1.8,-0.2c-0.3,0 -0.6,0 -0.9,-0.1c-0.1,0 -0.3,-0.2 -0.2,-0.3c0.1,-0.5 0.2,-1.1 0.3,-1.6c1.1,0.1 2.1,0.2 3.1,0.2c0.4,0 0.4,0.2 0.4,0.5c0,0.7 -0.1,1.4 -0.1,2.1c0,0.5 0,0.5 -0.5,0.5c-1,0 -2,-0.1 -2.9,-0.2c-0.4,0 -0.5,-0.3 -0.4,-0.6c0,-0.1 0.2,-0.2 0.3,-0.2c0.8,0.1 1.7,0.2 2.7,0.3Zm0,-1.2c0,-0.2 0,-0.4 -0.1,-0.4c-0.7,-0.1 -1.3,-0.1 -2,-0.2l0,0.4c0.7,0.1 1.4,0.1 2.1,0.2Z" style="fill:#3853a3;fill-rule:nonzero;"/></g><g><path d="M43.3,69.3c1,-0.2 2,-0.4 3.1,-0.7c0.1,0.5 0.3,0.9 0.3,1.4c-0,0.1 -0.1,0.3 -0.3,0.3c-1,0.3 -2,0.5 -3,0.7c-0.2,0 -0.4,0.1 -0.6,0.1l-0,-0.5c-0,-0.1 0.1,-0.2 0.2,-0.3c0.8,-0.2 1.7,-0.4 2.5,-0.6c0.1,0 0.2,-0.2 0.3,-0.3c-0,0 -0,-0.1 -0.1,-0.1c-0.2,0 -0.4,0.1 -0.5,0.1c-0.7,0.1 -1.4,0.3 -2.1,0.4c-0.3,0.1 -0.6,0 -0.6,-0.4c-0.1,-0.4 -0.1,-0.8 -0.2,-1.2c-0,-0.1 0.1,-0.3 0.2,-0.3c0.4,-0.1 0.8,-0.2 1.2,-0.3c0.6,-0.2 1.2,-0.3 1.8,-0.5c0.2,-0.1 0.4,-0.1 0.5,0.2c-0,0.3 -0,0.4 -0.4,0.5c-0.3,0 -0.7,0.2 -1,0.3c-0.4,0.1 -0.8,0.2 -1.2,0.3c-0.3,0.4 -0.3,0.4 -0.1,0.9Z" style="fill:#3853a3;fill-rule:nonzero;"/></g><g><path d="M31.3,68.3c-0.1,0.4 -0.2,0.8 -0.3,1.2c-0.1,0.4 -0.2,0.9 -0.3,1.3c-0.1,0.2 -0.2,0.3 -0.4,0.2c-0.2,-0.1 -0.4,-0.1 -0.3,-0.4c0.1,-0.6 0.3,-1.2 0.4,-1.8c0.1,-0.3 0.1,-0.5 0.2,-0.8c0,-0.1 0.2,-0.2 0.3,-0.2c0.3,0.1 0.4,0.2 0.4,0.5Z" style="fill:#3853a3;fill-rule:nonzero;"/></g><g><path d="M37.8,57.7c-1.1,-0.1 -2.2,-0.1 -3.3,-0.4c-2.9,-0.6 -5.6,-1.6 -8,-3.4c-3.2,-2.4 -5.5,-5.4 -6.8,-9.2c-0.4,-1.2 -0.6,-2.5 -0.9,-3.7c-0.3,-1.2 -0.3,-2.5 -0.2,-3.7c0.1,-0.9 0.2,-1.9 0.4,-2.8c0.3,-1.9 0.9,-3.6 1.8,-5.3c2,-3.9 4.9,-6.9 9,-8.7c1.3,-0.6 2.7,-1 4.1,-1.4c0.6,-0.2 1.3,-0.2 1.9,-0.3c0.7,-0.1 1.4,-0.1 2.1,-0.1c1.2,0 2.4,0.1 3.5,0.4c2,0.4 4,1.1 5.8,2.1c3.2,1.8 5.7,4.4 7.5,7.7c0.8,1.5 1.4,3.1 1.8,4.7c0.2,0.8 0.3,1.6 0.4,2.4c0.1,0.7 0.2,1.4 0.2,2.1c-0,1.1 -0.1,2.2 -0.3,3.2c-0.5,3.4 -2,6.5 -4.1,9.2c-1.7,2.2 -3.9,3.8 -6.4,5c-1.1,0.5 -2.1,0.9 -3.2,1.3c-0.8,0.2 -1.6,0.3 -2.4,0.5c-1.2,0.2 -2.1,0.3 -2.9,0.4Zm-0.1,-2.9c0.8,-0.1 1.6,-0.1 2.4,-0.2c2,-0.3 3.9,-0.9 5.6,-2c1.5,-0.9 2.9,-2 4.1,-3.3c2,-2.3 3.3,-4.9 3.8,-7.9c0.2,-0.9 0.3,-1.9 0.3,-2.9c0,-0.5 0,-1 -0.1,-1.5c0,-1 -0.2,-2.1 -0.5,-3.1c-0.7,-2.8 -2.1,-5.2 -4.1,-7.3c-1.2,-1.2 -2.6,-2.2 -4,-3.1c-1.3,-0.7 -2.6,-1.2 -4.1,-1.5c-0.8,-0.2 -1.6,-0.3 -2.3,-0.3c-1,-0.1 -2,-0.1 -3,-0c-1.1,0.1 -2.1,0.3 -3.1,0.7c-3,1 -5.5,2.7 -7.6,5.2c-1.6,1.9 -2.6,4.1 -3.3,6.5c-0.3,1.1 -0.4,2.3 -0.5,3.4c-0.1,1.1 0,2.2 0.2,3.3c0.2,1.5 0.6,3 1.3,4.3c1.9,4 4.8,6.9 8.9,8.5c2.1,0.7 4,1.2 6,1.2Z" style="fill:#3853a3;fill-rule:nonzero;"/></g><g><g><path d="M52.6,15c1,0.9 2,1.7 3,2.5c0.1,0.1 0.3,0.1 0.5,0.1c0.3,0 0.8,0.3 0.9,0.6c0,0.1 -0.1,0.3 -0.2,0.5c0.1,0.2 0.3,0.4 0.5,0.6c0.9,0.9 1.5,1.9 2.2,2.9c0.3,0.4 0.2,0.6 -0.6,0.8c-0.3,-0.5 -0.5,-0.9 -0.8,-1.4c-0.2,-0.3 -0.5,-0.6 -0.7,-0.8c-0.4,-0.4 -0.8,-0.9 -1.1,-1.3c-0.3,-0.4 -0.4,-0.2 -0.7,0.1c0.3,0.4 0.7,0.8 1,1.2c0.5,0.7 1.1,1.5 1.6,2.2c0.2,0.3 0.2,0.5 -0.2,0.8c-0.8,0.5 -1.7,1.1 -2.5,1.7c-0.8,-1 -1.5,-2 -2.3,-3c0,0 -0.1,0 -0.1,0.1c0.1,0.4 0.1,0.8 0.2,1.3c0.2,0.8 0.6,1.5 1,2.1c0.3,0.4 0.1,0.8 -0.4,0.8c-0.1,0 -0.2,-0.1 -0.3,-0.2c-0.8,-1 -1.2,-2.1 -1.4,-3.3c-0.3,0 -0.5,0.5 -0.9,0.2c-0.6,-0.4 0,-0.7 0.1,-1.1c-1,-0.1 -1.8,-0.6 -2.6,-1c-0.3,-0.1 -0.2,-0.4 -0.1,-0.6c0.2,-0.3 0.4,-0.3 0.6,-0.1c0.4,0.2 0.7,0.4 1.1,0.6c0.5,0.2 1,0.3 1.5,0.3c-0.6,-1 -1.6,-1.4 -2.3,-2.2c0.1,-0.2 0.3,-0.5 0.4,-0.7c0.4,-0.6 0.8,-1.2 1.2,-1.8c0.3,-0.4 0.4,-0.4 0.8,-0.1c0.8,0.6 1.6,1.3 2.3,1.9c0.1,0.1 0.2,0.2 0.3,0.2l0.4,0l0,-0.4c-0.1,-0.2 -0.3,-0.4 -0.5,-0.5c-0.8,-0.6 -1.5,-1.2 -2.3,-1.8c-0.4,-0.3 -0.4,-0.5 -0.1,-0.8c0.3,-0.2 0.3,-0.3 0.5,-0.4Zm3.6,9c-0.5,-0.9 -1.1,-1.7 -1.8,-2.5c-0.1,-0.1 -0.3,-0.3 -0.5,-0.1c-0.2,0.2 -0.2,0.3 0,0.6c0.6,0.7 1.1,1.3 1.6,2c0.3,0.2 0.5,0.2 0.7,0Zm-1.4,-3.3c0.2,0.3 0.5,0.6 0.7,1c0.4,0.5 0.7,1 1.1,1.5c0.1,0.1 0.3,0.1 0.5,0.1l-0,-0.4c-0,-0.1 -0.1,-0.2 -0.2,-0.3c-0.5,-0.6 -1,-1.3 -1.5,-1.9c-0.1,-0.1 -0.3,-0.2 -0.4,-0.4c-0.1,0.1 -0.2,0.1 -0.2,0.2c0.1,0.1 -0,0.1 -0,0.2Zm-0.9,-0.9c0.4,-0.3 0.4,-0.3 0.1,-0.6c-0.5,-0.5 -1.1,-1 -1.6,-1.5c-0.1,-0.1 -0.3,-0 -0.4,-0c-0.1,0.1 -0.1,0.4 -0,0.5c0.6,0.5 1.3,1.1 1.9,1.6Zm-2.9,-0.7c-0,-0 -0,0.1 0.1,0.1c0.6,0.5 1.2,1 1.8,1.5c0.1,-0 0.3,-0 0.3,-0.1c0.1,-0.1 0.1,-0.3 -0,-0.3c-0.5,-0.5 -1,-1 -1.5,-1.4c-0.3,-0.3 -0.4,-0.2 -0.7,0.2Z" style="fill:#fff100;fill-rule:nonzero;"/></g></g><g><g><path d="M43,13c0.5,0.1 0.9,0.1 1.3,0.2c1.1,0.4 2.2,0.6 3.3,1.2c0.6,0.3 1.3,0.6 1.9,0.9c0.3,0.1 0.3,0.4 0.2,0.6c-0.2,0.3 -0.4,0.5 -0.5,0.8c-0.1,0.1 -0.1,0.3 0,0.4c0.1,0.4 -0.1,0.6 -0.4,0.6c-0.4,0.1 -0.3,0.4 -0.3,0.6c0,0.5 -0.2,0.8 -0.6,0.8c-0.2,0.4 -0.5,0.5 -0.9,0.4c-0.3,-0.1 -0.4,-0.3 -0.2,-0.5c0.3,-0.3 0,-0.4 -0.1,-0.5c-0.4,-0.2 -0.7,-0.4 -1.1,-0.5c-0.1,0 -0.3,0.1 -0.4,0.2c-0.2,0.2 -0.3,0.2 -0.5,0.1c-0.2,-0.2 -0.7,-0.2 -0.4,-0.7c-0.5,-0.1 -1,-0.3 -1.5,-0.4c-0.5,-0.1 -0.6,-0.2 -0.5,-0.7c0,-0.1 0.1,-0.3 0.1,-0.4c0.1,-0.3 0.2,-0.6 -0.3,-0.7c-0.1,-0.1 -0.1,-0.3 -0.1,-0.4c0,-0.2 0.1,-0.3 0.1,-0.5c0.5,0.1 0.5,0.1 0.6,-0.5c0.1,-0.2 0.2,-0.6 0.3,-1Zm2.6,1.8c0,-0 0,-0.2 -0.1,-0.2c-0.5,-0.2 -1,-0.4 -1.5,-0.5c-0.1,-0 -0.3,0.2 -0.3,0.3c0,0.2 0,0.4 0.1,0.5c0.5,0.2 1,0.3 1.4,0.4c0.3,0.1 0.4,-0 0.4,-0.5Zm1.1,0.2c-0.2,0.7 -0.2,0.8 0.4,1c0.2,0.1 0.3,0.2 0.5,0.2c0.1,0.1 0.3,0.2 0.4,0.2c0.2,-0.1 0.3,-0.2 0.4,-0.4c0,-0.1 0,-0.3 -0.1,-0.3c-0.5,-0.2 -1.1,-0.4 -1.6,-0.7Zm-1.7,1.8c0.1,-0.2 0.1,-0.4 0.2,-0.7c-0.6,-0.1 -1.1,-0.3 -1.6,-0.4c-0.1,-0 -0.2,0.1 -0.3,0.2c-0.1,0.1 0,0.3 0,0.4c0.3,0.1 0.6,0.2 0.9,0.2c0.2,0.2 0.5,0.2 0.8,0.3Zm2.7,0.5c-0.2,-0.1 -0.4,-0.3 -0.7,-0.4c-0.2,-0.1 -0.5,-0.2 -0.8,-0.2c-0.1,-0 -0.1,0.3 -0.2,0.4c0.3,0.2 0.5,0.3 0.8,0.5c0.5,0.3 0.6,0.3 0.9,-0.3Z" style="fill:#fff100;fill-rule:nonzero;"/></g></g><g><g><path d="M29.5,18.1c0.6,-0.3 1.1,-0.5 1.6,-0.9c0.5,-0.4 0.9,-0.8 1.4,-1.3c0.4,-0.4 0.5,-1 0.4,-1.6l0,-0.7c0,-0.5 -0.1,-0.6 -0.6,-0.5c-0.6,0.1 -1.3,0.3 -1.9,0.5c-0.8,0.2 -1.5,0.5 -2.3,0.7c-0.1,-0.3 -0.2,-0.5 -0.3,-0.8c0.5,-0.2 0.9,-0.4 1.4,-0.5c1,-0.3 2.1,-0.6 3.1,-0.9c0.1,0 0.2,-0.2 0.2,-0.3c0,-0.3 0,-0.5 -0.1,-0.9c0.3,-0.1 0.7,-0.2 1,-0.2c0,0.4 0.1,0.8 0.1,1.2c0.3,0 0.6,-0.1 0.9,-0.1c1.2,-0.1 2.4,-0.2 3.7,-0.3c0.3,0 0.4,0.1 0.4,0.4c0,0.3 0.1,0.6 -0.4,0.6c-0.8,0 -1.6,0 -2.3,0.1c-0.6,0 -1.1,0.1 -1.7,0.2c-0.1,0 -0.2,0.2 -0.2,0.3c0.1,0.5 0.2,1 0.4,1.5c0.5,1.1 1.4,1.6 2.5,1.9c0.4,0.1 0.9,0 1.3,0c0.3,0 0.4,0 0.4,0.3c0,0.7 -0.1,0.7 -0.7,0.7c-1.3,0 -2.4,-0.4 -3.5,-1.1c-0.5,-0.4 -0.5,-0.3 -0.9,0.1c-0.4,0.5 -0.8,1 -1.3,1.4c-0.7,0.5 -1.3,1 -2.2,1.2c-0.3,0.1 -0.3,-0.1 -0.4,-0.2c0.1,-0.4 0,-0.7 0,-0.8Z" style="fill:#fff100;fill-rule:nonzero;"/></g></g><g><path d="M40,62.5c-0.1,-0.6 -0.1,-1.2 -0.2,-1.7c0,-0.5 -0.1,-0.9 -0.1,-1.4c0,-0.3 0.3,-0.6 0.6,-0.6c0.3,-0 0.4,0.3 0.4,0.6c0.1,0.9 0.2,1.8 0.2,2.7c0.1,0.9 0.2,1.8 0.2,2.7c0,0.3 0,0.5 -0.3,0.6c-0.3,0.1 -0.6,0.1 -0.8,-0.3c-0.4,-0.7 -0.8,-1.5 -1.2,-2.3c-0.2,-0.3 -0.3,-0.6 -0.5,-0.9l-0.1,-0l0,0.3c0,0.9 -0.1,1.8 -0.1,2.7c0,0.4 -0.3,0.4 -0.6,0.4c-0.2,0 -0.5,-0.3 -0.5,-0.6c0.1,-1.3 0.2,-2.6 0.2,-3.8l0,-1.9c0,-0.2 0.2,-0.4 0.4,-0.5c0.1,-0 0.4,0.1 0.5,0.2c0.2,0.3 0.3,0.7 0.5,1c0.4,0.8 0.8,1.7 1.2,2.5c0.1,0.4 0.2,0.4 0.2,0.3Z" style="fill:#3853a3;fill-rule:nonzero;"/></g><g><path d="M16.3,48.1c0.4,-0.1 0.7,-0.2 1.1,-0.4c0.5,-0.2 0.9,-0.4 1.4,-0.6c0.2,-0.1 0.5,-0.1 0.6,0c0.1,0.1 0.2,0.4 0.2,0.6c0,0 -0.1,0.1 -0.1,0.2c-0.4,0.2 -0.9,0.4 -1.3,0.6c-0.9,0.4 -1.9,0.8 -2.8,1.2c-0.3,0.1 -0.6,0.2 -0.9,0.4c-0.3,0.1 -0.5,0 -0.7,-0.2c-0.2,-0.2 -0.2,-0.5 0,-0.7c0.2,-0.3 0.4,-0.6 0.6,-0.8c0.5,-0.5 0.9,-1 1.4,-1.5c0.1,-0.1 0.2,-0.2 0.3,-0.4l-0.4,0c-0.7,0.2 -1.4,0.5 -2,0.8c-0.4,0.1 -0.8,0.1 -0.9,-0.1c-0.3,-0.5 -0.2,-0.8 0.6,-1c1.1,-0.4 2.3,-0.7 3.4,-1c0.4,-0.1 0.8,-0.3 1.2,-0.4c0.2,0 0.4,0 0.6,0.1c0.2,0.2 0.2,0.5 0,0.7c-0.4,0.5 -0.9,1 -1.4,1.5c-0.3,0.3 -0.5,0.6 -0.8,0.9c-0.2,-0 -0.2,0.1 -0.1,0.1Z" style="fill:#3853a3;fill-rule:nonzero;"/></g><g><path d="M54.7,55c0,0.1 0,0.2 -0.1,0.3c-0.2,0.3 0,0.5 0.3,0.6c0.4,0.2 0.9,0.4 1.3,0.6c0.4,0.2 0.5,0.7 0.2,1.1c-0.2,0.2 -0.6,0.2 -1,0c-0.4,-0.3 -0.8,-0.5 -1.2,-0.8c-0.2,-0.2 -0.4,-0.1 -0.6,0.1c-0.5,0.5 -0.5,0.5 -0.1,1.1c0.3,0.4 0.5,0.8 0.8,1.2c0.2,0.3 0,0.5 -0.3,0.6c-0.2,0.1 -0.5,0.2 -0.7,-0.1c-1,-1.5 -2.1,-2.9 -3.1,-4.4c-0.3,-0.4 -0.2,-0.7 0.2,-1c0.4,-0.4 0.8,-0.7 1.2,-1.1c0.4,-0.4 1,-0.4 1.4,-0.3c1.1,0.3 1.6,1 1.7,2.1Zm-3.3,-0c0.2,0.4 0.4,0.7 0.6,1c0.3,0.4 0.4,0.4 0.8,0.1c0.6,-0.4 0.7,-0.9 0.6,-1.5c-0.1,-0.5 -0.7,-0.8 -1.1,-0.5c-0.3,0.3 -0.6,0.6 -0.9,0.9Z" style="fill:#3853a3;fill-rule:nonzero;"/></g><g><g><path d="M26.8,19.2c0.1,-0.1 0.2,-0.2 0.3,-0.2c0.2,-0.2 0.4,-0.1 0.5,0.1c0.1,0.2 0.1,0.4 -0.1,0.5c-0.3,0.1 -0.3,0.3 -0.1,0.5c0.1,0.2 0.3,0.5 0.4,0.7c-0.6,0.4 -1.2,0.8 -1.8,1.3c-1,0.9 -1.9,1.8 -2.9,2.7c-0.2,0.2 -0.3,0.3 -0.5,0.1c-0.1,-0.1 -0.1,-0.3 -0.1,-0.5c-0,-0.1 0.2,-0.3 0.3,-0.4c1,-1.1 2,-2 3.2,-2.9c0.2,-0.1 0.3,-0.2 0.5,-0.4c0.1,-0.1 -0,-0.3 -0,-0.4l-0.3,0c-1.3,1 -2.7,2 -3.7,3.3c-0.3,0.4 -0.6,0.7 -0.9,1.1c-0.2,0.2 -0.4,0.3 -0.6,0.1c-0.2,-0.2 -0.1,-0.4 -0,-0.6c1.4,-1.6 2.8,-3.2 4.7,-4.4c0.1,-0.1 0.1,-0.3 0.1,-0.4c-0.1,0 -0.3,-0.1 -0.4,0c-0.8,0.6 -1.6,1.2 -2.3,1.8c-0.6,0.5 -1.1,1.1 -1.6,1.7c-0.1,0.1 -0.3,0.1 -0.3,0c-0.1,0.1 -0.2,-0.1 -0.2,-0.3c0,-0.1 0.1,-0.2 0.2,-0.3c1.3,-1.4 2.7,-2.6 4.3,-3.7c0.6,-0.4 0.6,-0.4 1,0.3c0.1,0.1 0.2,0.2 0.3,0.3Z" style="fill:#fff100;fill-rule:nonzero;"/></g></g><g><path d="M35.4,60.5c0.1,-0.5 0.1,-0.9 0.2,-1.4c0.1,-0.3 0.3,-0.5 0.7,-0.4c0.3,0.1 0.4,0.4 0.4,0.7c0,0.3 -0.1,0.5 -0.1,0.8c-0.1,1.1 -0.2,2.3 -0.3,3.4c0,0.4 -0.1,0.8 -0.2,1.1c-0.2,0.5 -0.6,0.7 -1.1,0.8c-0.8,0.2 -1.6,-0.1 -2.2,-0.7c-0.3,-0.3 -0.4,-0.7 -0.3,-1.2c0.2,-1 0.4,-2 0.6,-3c0.1,-0.6 0.2,-1.1 0.4,-1.7c0.1,-0.3 0.4,-0.5 0.7,-0.4c0.3,0.1 0.4,0.3 0.3,0.6c-0.2,1.1 -0.4,2.2 -0.6,3.4c-0.1,0.3 -0.1,0.7 -0.2,1c-0.1,0.3 0.2,0.7 0.6,0.7c0.6,0.1 0.8,0 0.8,-0.5c0.1,-0.6 0.1,-1.2 0.2,-1.8c-0.1,-0.4 0,-0.9 0.1,-1.4Z" style="fill:#3853a3;fill-rule:nonzero;"/></g><g><path d="M11.3,42.9c0,-0.5 0.2,-1 0.5,-1.4c0.3,-0.4 0.8,-0.4 1.2,-0.5c1.2,-0.3 2.5,-0.5 3.8,-0.8c0.3,-0.1 0.5,0 0.6,0.3c0.1,0.3 -0.1,0.6 -0.4,0.7c-0.7,0.2 -1.4,0.3 -2.1,0.4c-0.7,0.1 -1.3,0.3 -2,0.4c-0.3,0.1 -0.4,0.3 -0.5,0.7c-0,0.4 -0,0.7 0.4,0.8c0.3,0.1 0.7,0 1,-0.1c0.3,0 0.6,-0.1 0.8,-0.2c0.9,-0.2 1.8,-0.4 2.7,-0.7c0.3,-0.1 0.5,0 0.5,0.4c-0,0.6 -0.1,0.7 -0.8,0.8c-0.6,0.1 -1.1,0.3 -1.6,0.4c-0.6,0.1 -1.2,0.2 -1.8,0.4c-0.2,0 -0.4,0.1 -0.6,0.1c-0.9,0.2 -1.7,-0.5 -1.7,-1.7Z" style="fill:#3853a3;fill-rule:nonzero;"/></g><g><path d="M19.9,58.7c-0.1,-0.1 -0.2,-0.3 -0.3,-0.4c-0.1,-0.2 -0.1,-0.4 0.1,-0.6c0.4,-0.4 0.8,-0.9 1.2,-1.3c0.2,-0.2 0.2,-0.3 -0,-0.5c-0.3,-0.2 -0.6,-0.5 -0.9,-0.7c-0.1,-0.1 -0.3,-0.1 -0.4,0c-0.3,0.2 -0.6,0.5 -0.9,0.8c-0.4,0.3 -0.7,0.3 -1,0c-0.2,-0.2 -0.1,-0.6 0.2,-0.9c0.6,-0.6 1.3,-1.1 1.9,-1.6c0.6,-0.5 1.2,-1 1.8,-1.5c0.2,-0.2 0.5,-0.3 0.8,-0.1c0.3,0.2 0.3,0.4 0.1,0.6c-0.1,0.2 -0.3,0.3 -0.4,0.5c-0.4,0.4 -0.9,0.8 -1.3,1.2c-0.2,0.2 -0.2,0.3 -0,0.5c0.3,0.2 0.6,0.5 0.9,0.6c0.2,0 0.5,-0.4 0.7,-0.7c0.3,-0.3 0.6,-0.6 1,-1c0.2,-0.2 0.5,-0.3 0.7,0c0.2,0.2 0.2,0.5 -0,0.7c-0.9,1.1 -1.8,2.1 -2.8,3.2c-0.3,0.3 -0.6,0.7 -0.9,1c-0.1,-0 -0.3,0.1 -0.5,0.2Z" style="fill:#3853a3;fill-rule:nonzero;"/></g><g><path d="M55.9,51.8c0.4,-0.1 0.8,-0.2 1.2,-0.4c0.7,-0.3 1.3,-0.1 1.9,0.3c0.2,0.2 0.4,0.5 0.5,0.8c0.3,1.2 0,2.3 -1.2,2.8c-0.5,0.2 -1.1,0.3 -1.6,-0c-0.1,-0.1 -0.2,-0.4 -0.3,-0.6c0,-0.2 0.1,-0.3 0.4,-0.4c0.2,-0 0.5,-0.1 0.7,-0.1c0.4,-0.1 1,-0.6 1,-0.9c0,-0.6 -0.4,-1 -1,-0.9c-0.5,0.1 -1,0.3 -1.5,0.4c-0.6,0.2 -1.7,-0.1 -2.1,-0.9c-0.4,-0.9 -0.2,-1.9 0.5,-2.3c0.4,-0.2 0.9,-0.4 1.5,-0.3c0.3,0.1 0.4,0.3 0.4,0.5c0,0.3 -0.1,0.4 -0.4,0.4c-0.2,-0 -0.4,-0 -0.6,0.1c-0.3,0.1 -0.5,0.3 -0.5,0.6c0,0.3 0.3,0.6 0.6,0.6c0.3,0.3 0.4,0.2 0.5,0.3Z" style="fill:#3853a3;fill-rule:nonzero;"/></g><g><path d="M24.1,60.7c-0.1,-0.1 -0.1,-0.2 -0.2,-0.3c-0.5,-0.3 -1,-0.7 -1.5,-1l-0.3,0c-0.2,0.1 -0.3,0.2 -0.4,0.3c-0.2,0.2 -0.4,0.1 -0.6,-0.1c-0.2,-0.2 -0.3,-0.5 -0.1,-0.6c0.5,-0.4 1,-0.8 1.5,-1.1c0.1,-0.1 0.2,-0.1 0.2,-0.2c0.9,-0.7 1.8,-1.5 2.8,-2.2c0.2,-0.1 0.5,-0.2 0.6,-0.1c0.2,0.1 0.4,0.4 0.3,0.7c-0.2,0.6 -0.3,1.2 -0.5,1.7c-0.3,1.2 -0.7,2.4 -1,3.5c-0.1,0.3 -0.4,0.5 -0.7,0.4c-0.4,-0.1 -0.5,-0.4 -0.3,-0.7c0.1,0 0.1,-0.1 0.2,-0.3Zm-0.8,-2.2c0.3,0.2 0.6,0.4 0.9,0.6c0.2,0.1 0.4,0.1 0.4,-0.2c0.1,-0.3 0.2,-0.7 0.3,-1c0.1,-0.2 0.1,-0.4 0.2,-0.6c-0,0 -0.1,0 -0.1,-0.1c-0.6,0.5 -1.1,0.9 -1.7,1.3Z" style="fill:#3853a3;fill-rule:nonzero;"/></g><g><path d="M20,51.3c0.1,-0.9 -0.8,-1.1 -1.4,-0.9c-0.9,0.3 -1.6,0.9 -2.2,1.6c-0.1,0.2 -0.2,0.6 -0.1,0.8c0.1,0.3 0.4,0.5 0.7,0.6c0.3,0.1 0.5,-0.2 0.3,-0.5c0,-0.1 -0.1,-0.2 -0.1,-0.3c-0.1,-0.2 -0.2,-0.5 0.1,-0.7c0.2,-0.1 0.6,-0.2 0.8,0.1c0.2,0.3 0.4,0.7 0.6,1c0.1,0.1 0,0.3 0,0.4c-0.4,0.5 -0.9,0.8 -1.5,0.9c-0.7,0.1 -1.5,-0.5 -1.8,-1.1c-0.4,-0.8 -0.2,-1.5 0.3,-2.1c0.6,-0.8 1.4,-1.4 2.4,-1.7c0.3,-0.1 0.6,-0.3 0.9,-0.3c1,-0.2 2.1,0.7 2.2,1.7c0,0.3 -0.2,0.7 -0.3,1c-0.2,0.2 -0.5,0.2 -0.7,0.2c-0.1,-0 -0.2,-0.3 -0.2,-0.4l0,-0.3Z" style="fill:#3853a3;fill-rule:nonzero;"/></g><g><path d="M50.4,60.8c0.5,-0.3 0.9,-0.5 1.3,-0.7c0.4,-0.2 0.7,-0.1 0.9,0.3c0.1,0.1 0,0.4 -0.1,0.5c-0.7,0.4 -1.3,0.9 -2,1.2c-0.3,0.1 -0.6,-0 -0.7,-0.3c-0.4,-0.8 -0.8,-1.7 -1.2,-2.5c-0.3,-0.5 -0.5,-1.1 -0.8,-1.6c-0.3,-0.6 -0.4,-0.9 0,-1.2c0.2,-0.2 0.5,-0.3 0.7,-0.5c0.2,-0.1 0.3,-0.2 0.5,-0.3c0.2,-0.1 0.4,-0.4 0.7,-0.1c0.2,0.2 0.2,0.7 0,0.9c-0.2,0.2 -0.4,0.3 -0.6,0.4c-0.2,0.1 -0.3,0.3 -0.1,0.5c0.1,0.2 0.2,0.5 0.3,0.7c0.1,0.2 0.2,0.2 0.4,0.1c0.3,-0.2 0.6,-0.4 0.9,-0.5c0.3,-0.1 0.4,-0 0.6,0.2c0.1,0.2 0.2,0.4 0,0.6c-0.3,0.2 -0.6,0.4 -0.9,0.7c-0.1,0.1 -0.2,0.3 -0.2,0.5c0,0.2 0.2,0.3 0.2,0.5c-0.1,0.1 -0.1,0.3 0.1,0.6Z" style="fill:#3853a3;fill-rule:nonzero;"/></g><g><path d="M11.9,37.3l4,-0c0.3,-0 0.4,-0.1 0.3,-0.4l0,-0.8c0,-0.5 0.4,-0.7 0.8,-0.6c0.1,-0 0.3,0.2 0.3,0.3c0,1.2 0.1,2.3 0.1,3.5c0,0.6 -0.4,0.9 -0.9,0.5c-0.1,-0.1 -0.2,-0.3 -0.2,-0.5c0,-0.8 0,-0.8 -0.8,-0.8l-3.9,-0c-0.2,-0 -0.4,-0.2 -0.5,-0.3c-0.1,-0.2 -0.1,-0.6 0.2,-0.7c0.2,-0.1 0.4,-0.2 0.6,-0.2Z" style="fill:#3853a3;fill-rule:nonzero;"/></g><g><path d="M46,61.7l0,-4.1c0.1,-0.1 0.3,-0.3 0.5,-0.4c0.1,0 0.2,0.2 0.3,0.3l0,0.1c0,1 0.1,2 0.1,3c0,0.9 0.1,1.7 0.1,2.6c0,0.2 -0.1,0.5 -0.3,0.6c-0.4,0.4 -0.9,0.2 -1.1,-0.5c-0.5,-1.1 -1,-2.1 -1.5,-3.2c-0.3,-0.5 -0.5,-1.1 -0.7,-1.6c0,-0.1 0.1,-0.4 0.2,-0.5c0.2,-0.1 0.4,-0 0.6,-0c0.1,-0 0.2,0.2 0.2,0.3c0.3,0.7 0.6,1.5 1,2.2c0.1,0.5 0.3,0.8 0.6,1.2Z" style="fill:#3853a3;fill-rule:nonzero;"/></g><g><path d="M57.9,44.8c-0.1,0.3 -0.1,0.5 -0.1,0.7c0,0.1 0,0.3 -0.1,0.4c-0.2,0.5 -0.4,0.6 -0.8,0.5c-0.3,-0.1 -0.4,-0.4 -0.3,-0.8c0.2,-0.9 0.5,-1.8 0.8,-2.7c0,-0.1 0,-0.2 0.1,-0.3c0.1,-0.4 0.3,-0.5 0.7,-0.5c0.4,-0 0.4,0.3 0.3,0.6c0,0.3 -0.1,0.7 -0.2,1c0.3,0.1 0.5,0.2 0.7,0.3c0.9,0.3 1.9,0.7 2.8,1c0.3,0.1 0.7,0.2 1,0.3c0.4,0.2 0.5,0.5 0.4,0.7c-0.1,0.3 -0.5,0.4 -0.8,0.3c-0.7,-0.2 -1.4,-0.5 -2.1,-0.7c-0.8,-0.3 -1.5,-0.6 -2.4,-0.8Z" style="fill:#3853a3;fill-rule:nonzero;"/></g><g><path d="M59.6,39.2c-0.3,-0.2 -0.5,-0.4 -0.8,-0.6c-0.2,-0.2 -0.5,-0.3 -0.7,-0.4c-0.3,-0.2 -0.3,-0.6 -0.1,-0.8c0.2,-0.3 0.4,-0.2 0.7,-0.1c0.5,0.3 1,0.6 1.4,0.9c0.4,0.3 0.8,0.4 1.3,0.5c0.8,0.1 1.7,0.2 2.5,0.3c0.3,0.1 0.5,0.4 0.3,0.8c-0.1,0.1 -0.4,0.3 -0.5,0.3c-1.1,0 -2.1,-0.1 -3.2,-0.1c-0.4,0 -0.7,0.3 -1.1,0.5c-0.2,0.1 -0.5,0.3 -0.7,0.4c-0.4,0.2 -0.8,0.2 -0.9,-0.1c-0.1,-0.3 0,-0.7 0.4,-0.9c0.4,-0.2 0.8,-0.4 1.4,-0.7Z" style="fill:#3853a3;fill-rule:nonzero;"/></g><g><g><path d="M27.6,17.8c-0.4,0.1 -0.7,0.2 -0.9,-0.1c-0.1,-0.1 -0.2,-0.1 -0.3,-0.1c-0.3,0.1 -0.5,0.2 -0.8,0.4c-0.4,0.3 -0.9,0.6 -1.3,0.9c-1.5,1.1 -2.9,2.3 -4,3.8c-0.2,0.3 -0.5,0.6 0,1c0.1,0 0,0.3 0,0.4c-0.1,0.1 -0.4,0.2 -0.5,0.2c-0.3,-0.1 -0.5,-0.3 -0.7,-0.6c-0.2,-0.2 -0.2,-0.5 0,-0.7c0.4,-0.5 0.8,-0.9 1.2,-1.4c1.6,-1.9 3.5,-3.4 5.6,-4.7c0.2,-0.1 0.4,-0.2 0.6,-0.3c0.3,-0.2 0.5,-0.2 0.6,0.2c0.2,0.3 0.4,0.6 0.5,1Z" style="fill:#fff100;fill-rule:nonzero;"/></g></g><g><g><path d="M43.4,10.7l0.5,-0c0.3,-0 0.5,0.1 0.5,0.5c0,0.1 0.2,0.3 0.3,0.4c0.8,0.3 1.6,0.4 2.3,0.7c0.7,0.3 1.4,0.6 2.1,0.9c0.5,0.2 0.9,0.4 1.4,0.7c0.1,0.1 0.4,0.3 0.4,0.3c-0.1,0.3 -0.2,0.5 -0.4,0.7l-0.2,-0c-2,-1.2 -4.1,-1.9 -6.3,-2.6l-0.2,-0c-0.5,-0 -0.6,-0.2 -0.6,-0.7c0,-0.4 0.1,-0.6 0.2,-0.9Z" style="fill:#fff100;fill-rule:nonzero;"/></g></g><g><g><path d="M20.6,19.7c0.1,-0.2 0.3,-0.3 0.4,-0.6c-0.5,-0.1 -0.9,-0.2 -1.3,0c-0.2,0.1 -0.4,0.1 -0.5,-0.1c-0.1,-0.1 0,-0.3 0,-0.5c0.3,-0.4 0.6,-0.8 0.9,-1.2c0,-0.1 -0.1,-0.2 -0.1,-0.3c0.1,-0.1 0.2,-0.2 0.3,-0.3c0.1,-0.1 0.3,-0.1 0.3,-0.1c0.3,0.1 0.5,0 0.7,-0.1c0.4,-0.2 0.7,-0.5 1.1,-0.7c0.4,0.6 0.3,0.8 -0.2,1l-0,1.2c0.4,-0.2 0.6,-0.4 0.9,-0.6c0.4,0.3 0.5,0.4 0.1,0.7c-0.3,0.3 -0.8,0.5 -1.2,0.7c-0,0.2 -0.1,0.2 -0.2,0.3c-0.2,0.2 -0.3,0.5 -0.5,0.7c-0.4,0.4 -0.6,0.3 -0.7,-0.1Zm-0.1,-1.5l0,0.1c0.2,0 0.3,0.1 0.5,0.1c0.5,0 0.7,-0.4 0.5,-0.8c0,-0.1 -0.2,-0.1 -0.2,-0.1c-0.3,0.2 -0.6,0.5 -0.8,0.7Z" style="fill:#fff100;fill-rule:nonzero;"/></g></g><g><path d="M56.2,47c0.1,0.1 0.3,0.2 0.4,0.3c0.1,0.1 0.2,0.2 0.3,0.2c0.8,0.4 1.6,0.8 2.4,1.3c0.6,0.3 1.2,0.7 1.8,1.1c0.4,0.3 0.5,0.5 0.3,0.9c-0.2,0.3 -0.5,0.4 -0.9,0.1c-1.5,-0.9 -3.1,-1.7 -4.6,-2.6c-0.4,-0.2 -0.4,-0.5 -0.3,-0.8c0,-0.4 0.3,-0.4 0.6,-0.5Z" style="fill:#3853a3;fill-rule:nonzero;"/></g><g><path d="M59.1,32c-0,-0.9 0.6,-1.6 1.5,-1.5c0.9,0 1.4,0.6 1.5,1.6c-0,0.7 -0.8,1.5 -1.4,1.5c-1,0 -1.6,-0.6 -1.6,-1.6Z" style="fill:#3853a3;fill-rule:nonzero;"/></g><g><path d="M26.4,63c-0.5,0 -0.8,-0.3 -0.7,-0.6c0.1,-0.2 0.2,-0.4 0.3,-0.7c0.3,-0.5 0.5,-1.1 0.8,-1.6c0.2,-0.5 0.5,-0.9 0.7,-1.4c0.1,-0.2 0.2,-0.3 0.2,-0.5c0.2,-0.3 0.3,-0.7 0.5,-1c0.1,-0.3 0.5,-0.4 0.8,-0.2c0.3,0.1 0.4,0.4 0.2,0.7c-0.7,1.4 -1.4,2.8 -2.1,4.2c-0.1,0.3 -0.2,0.6 -0.4,0.8c0,0.1 -0.2,0.2 -0.3,0.3Z" style="fill:#3853a3;fill-rule:nonzero;"/></g><g><path d="M16.8,30.6c0,0.9 -0.6,1.6 -1.5,1.5c-0.8,0 -1.5,-0.5 -1.5,-1.6c0,-0.7 0.8,-1.5 1.5,-1.5c0.8,0.1 1.6,0.8 1.5,1.6Z" style="fill:#3853a3;fill-rule:nonzero;"/></g><g><path d="M42.9,60.6c0.1,0.5 0.1,1 0.2,1.5c0.1,0.8 0.3,1.5 0.4,2.3c0.1,0.4 -0.1,0.6 -0.4,0.7c-0.4,0.1 -0.5,-0.1 -0.6,-0.5c-0.1,-0.7 -0.2,-1.3 -0.4,-2c-0.1,-0.8 -0.3,-1.6 -0.4,-2.4c-0.1,-0.4 -0.1,-0.8 -0.2,-1.2c0,-0.3 0.4,-0.6 0.7,-0.6c0.3,-0 0.4,0.2 0.4,0.5c0.1,0.5 0.2,0.9 0.3,1.4l0,0.3c0,-0.1 0,-0 0,-0Z" style="fill:#3853a3;fill-rule:nonzero;"/></g><g><g><path d="M18.8,21.4c0.2,-0.2 0.3,-0.4 0.5,-0.6c0.1,-0.1 0.2,-0.2 0.3,-0.1c0.1,0.1 0.3,0.2 0.3,0.3c0,0.1 -0.1,0.2 -0.1,0.3c-0.2,0.3 -0.4,0.6 -0.6,0.8c-0.4,0.5 -0.4,0.5 -0.9,0.1c-0.5,-0.4 -0.9,-0.7 -1.4,-1.1c-0.3,-0.2 -0.3,-0.4 -0.1,-0.7c0.3,-0.4 0.6,-0.8 0.9,-1.1c0.1,-0.2 0.4,-0.3 0.5,-0.1c0.1,0.2 0.2,0.4 -0.1,0.6c-0.2,0.2 -0.3,0.4 -0.4,0.7c0,0.1 0.1,0.2 0.2,0.3c0.1,-0.1 0.2,-0.1 0.3,-0.2c0.2,-0.2 0.3,-0.4 0.5,-0.6c0.1,-0.1 0.2,-0 0.3,-0l0,0.4c-0.1,0.2 -0.3,0.4 -0.4,0.6c-0.1,0.1 0,0.2 0,0.3c0.1,0 0.2,0 0.2,0.1Z" style="fill:#fff100;fill-rule:nonzero;"/></g></g><g><g><path d="M24.6,13.8c0.4,0.8 0.8,1.5 1.2,2.3c0.1,0.3 0.1,0.4 -0.1,0.6c-0.4,0.2 -0.9,0.5 -1.4,0.7c0,-0.2 -0.1,-0.4 -0.1,-0.6c0.3,-0.2 0.5,-0.3 0.8,-0.5c-0.1,-0.5 -0.2,-0.6 -0.6,-0.2c-0.1,0.1 -0.2,0.2 -0.2,0.2c-0.1,0.2 -0.4,0.2 -0.5,0c-0.1,-0.1 -0,-0.4 0.1,-0.5c0.1,-0.2 0.4,-0.2 0.5,-0.4c0.1,-0.1 0.1,-0.4 0.1,-0.5c-0.2,0 -0.3,0 -0.5,0.1c-0.2,0.1 -0.3,0.3 -0.5,0.4c-0.1,0.1 -0.3,0.1 -0.3,0c-0.1,-0.1 -0.1,-0.4 -0.1,-0.5c0.3,-0.5 0.9,-0.9 1.6,-1.1Z" style="fill:#fff100;fill-rule:nonzero;"/></g></g><g><g><path d="M40.8,10.3c0.5,0.1 1,0.2 1.4,0.3c0.3,0.1 0.3,0.4 0.2,0.8c-0.1,0.3 -0.3,0.2 -0.5,0.2c-0.5,-0.1 -1,-0.2 -1.5,-0.2c-0.2,0 -0.3,-0.1 -0.3,-0.3c-0.1,-0.7 -0.1,-0.7 0.7,-0.8Z" style="fill:#fff100;fill-rule:nonzero;"/></g></g><g><g><path d="M41.6,13.3l0,0.6c0,0.3 -0.2,0.6 -0.6,0.4l-0.2,0c-0.8,0 -0.9,-0.2 -0.7,-1.1c0.4,-0 0.9,-0 1.5,0.1Z" style="fill:#fff100;fill-rule:nonzero;"/></g></g><g><g><path d="M40.1,16.4l0.5,0c0.6,0 0.8,0.3 0.5,0.8c0,0.1 -0.2,0.1 -0.2,0.1l-0.4,0c-0.5,0 -0.7,-0.3 -0.6,-0.8c0,-0.1 0.1,-0.1 0.2,-0.1Z" style="fill:#fff100;fill-rule:nonzero;"/></g></g><g><path d="M36.8,44.5l-11.9,0c-0.2,-0.5 -0.4,-0.9 -0.6,-1.4l12.5,0l-0,-0.1c-0.1,0 -0.3,-0.1 -0.4,-0.1l-11.8,0c-0.3,0 -0.4,-0.1 -0.5,-0.4c-0.1,-0.5 -0.2,-1 -0.4,-1.6l10.9,0l-0,-0.2c-0.1,0 -0.3,-0.1 -0.4,-0.1l-9.7,0c-0.9,0 -0.9,0 -1,-0.9l-0,-1.2l28.3,0l-0,0.8c-0,0.2 -0,0.4 -0.1,0.6c-0.1,0.8 -0.1,0.8 -0.9,0.8l-9.4,0c-0.2,0 -0.3,0 -0.5,0.1c1.2,0.2 2.3,0.1 3.5,0.1l7.2,0c-0.2,0.7 -0.3,1.3 -0.5,1.9l-12.3,0l-0,0.2l12.1,0c-0.2,0.5 -0.4,0.9 -0.5,1.3c-0,0.1 -0.2,0.1 -0.4,0.1l-11.2,0l-0,0.1c0.1,0 0.1,0.1 0.2,0.1l11.3,0c-0.2,0.3 -0.3,0.7 -0.5,0.9c-0.1,0.1 -0.3,0.2 -0.5,0.2l-10.1,0c-0.1,0 -0.3,0 -0.4,0.1l-0,0.2l10.8,0c-0.2,0.3 -0.4,0.6 -0.6,0.8c-0.1,0.1 -0.3,0.2 -0.5,0.2l-21.6,0c-0.6,0 -1,-0.3 -1.1,-1l10.9,0l-0,-0.1c-0.1,0 -0.1,-0.1 -0.2,-0.1l-10.6,0c-0.3,0 -0.5,-0.1 -0.6,-0.4c-0.1,-0.2 -0.2,-0.4 -0.4,-0.7l11.8,0c0.1,-0.1 0.1,-0.2 0.1,-0.2Zm-1.3,-3.8l-0,0.8l1.9,0l-0,4.6l0.9,0l-0,-4.6l1.9,0l-0,-0.8l-2,0l-0,-1.5l-0.9,0l-0,1.5l-1.8,0Z" style="fill:#3853a3;fill-rule:nonzero;"/></g><g><path d="M50.8,32.5l-5.3,0l-0,0.1l5,0c0.3,0 0.4,0.1 0.5,0.3c0.2,0.8 0.4,1.6 0.7,2.4c-0,0.1 -0,0.3 0.1,0.5l-28,0c0.1,-0.5 0.2,-1 0.3,-1.5c0.1,-0.4 0.3,-0.7 0.4,-1.1c0.1,-0.5 0.3,-0.6 0.7,-0.6l4.9,0l-0,-0.2c-0.1,0 -0.2,-0.1 -0.4,-0.1l-5,0c0.2,-0.4 0.3,-0.7 0.5,-1c0.4,-0.7 0.9,-1.5 1.4,-2.2c0.2,-0.3 0.5,-0.4 0.9,-0.4l20.6,-0c0.4,-0 0.6,0.1 0.9,0.4c0.7,1.1 1.3,2.2 1.8,3.4Zm-10.9,2.1c0.1,0.1 0.2,0.1 0.3,0.2c0.8,0.6 1.8,0.8 2.7,0.5c1.7,-0.6 2.7,-2.4 1.8,-4.2c-0.8,-1.7 -2.8,-2.3 -4.4,-1.2c-0.3,0.2 -0.5,0.2 -0.9,0c-0.8,-0.5 -1.6,-0.8 -2.6,-0.4c-0.4,0.2 -0.8,0.4 -1.2,0.6c-0.1,-0.1 -0.2,-0.1 -0.3,-0.2c-0.8,-0.5 -1.7,-0.7 -2.6,-0.4c-1.9,0.6 -2.8,3 -1.5,4.7c1,1.2 2.8,1.6 4.1,0.7c0.3,-0.2 0.6,-0.2 0.9,0c0.9,0.6 1.8,0.7 2.8,0.3c0.2,-0.3 0.6,-0.4 0.9,-0.6Z" style="fill:#3853a3;fill-rule:nonzero;"/></g><g><path d="M48.2,28.5l-21,0l0,-0.1c2.1,-2.4 4.7,-3.9 7.9,-4.5c5.2,-0.9 9.6,0.7 13.2,4.5l-0.1,0.1Z" style="fill:#3853a3;fill-rule:nonzero;"/></g><g><path d="M51.8,36c-0,0.8 0.1,1.5 0.1,2.2l-28.4,0c-0,-0.4 -0,-0.7 0.1,-1.1c-0,-0.4 0.1,-0.8 0.1,-1.1l28.1,0Z" style="fill:#3853a3;fill-rule:nonzero;"/></g><g><path d="M26.7,47.2l22.1,0c-0.2,0.6 -0.8,1.2 -1.5,1.2l-19.2,0c-0.3,0 -0.5,-0.1 -0.7,-0.3c-0.2,-0.3 -0.5,-0.6 -0.7,-0.9Z" style="fill:#3853a3;fill-rule:nonzero;"/></g><g><path d="M47.6,48.6c-0.6,0.5 -0.9,1 -1.7,1l-16,0c-0.6,0 -1.1,-0.2 -1.6,-0.6c-0.1,-0.1 -0.2,-0.2 -0.4,-0.4l19.7,0Z" style="fill:#3853a3;fill-rule:nonzero;"/></g><g><path d="M29.4,49.8l16.6,-0c-0.4,0.4 -0.8,0.7 -1.4,0.7l-13.5,-0c-0.7,0.1 -1.2,-0.2 -1.7,-0.7Z" style="fill:#3853a3;fill-rule:nonzero;"/></g><g><path d="M31,50.8c0,0.1 8.9,-0 13.4,-0c-0.3,0.3 -0.6,0.5 -1.1,0.5l-11.2,-0c-0.4,-0 -0.8,-0.3 -1.1,-0.5Z" style="fill:#3853a3;fill-rule:nonzero;"/></g><g><path d="M32.7,51.6l10,0c-0.4,0.3 -0.9,0.5 -1.5,0.5l-7.1,0c-0.5,0 -1,-0.2 -1.5,-0.3c0.1,-0.1 0.1,-0.1 0.1,-0.2Z" style="fill:#3853a3;fill-rule:nonzero;"/></g><g><path d="M40.6,52.3c-1.9,0.4 -3.7,0.4 -5.6,0.1l0,-0.1l5.6,-0Z" style="fill:#3853a3;fill-rule:nonzero;"/></g><g><path d="M40.3,30.6c1.4,-1.1 2.8,-0.7 3.5,0.1c0.9,1 0.9,2.2 0.1,3.2c-0.8,1 -2.4,1.2 -3.5,0.2c0.5,-1.2 0.6,-2.4 -0.1,-3.5Zm3.6,2c-0.2,-0.2 -2,-0.3 -2.5,-0.2c-0.1,-0 -0.1,0.1 -0.2,0.2l2.7,-0Z" style="fill:#3853a3;fill-rule:nonzero;"/></g><g><path d="M35.2,30.6c-0.7,1.2 -0.8,2.3 0,3.5c-1.1,1 -2.5,0.9 -3.5,-0.1c-0.9,-1 -0.9,-2.2 0,-3.2c1,-1.1 2.3,-1.2 3.5,-0.2Zm-3.6,2l2.7,0c-0.3,-0.2 -2.5,-0.2 -2.7,0Z" style="fill:#3853a3;fill-rule:nonzero;"/></g><g><path d="M39.4,34.1c-1.3,0.9 -2.6,0.7 -3.3,-0.1c0.7,-1.6 0.6,-2.1 0,-3.5c0.8,-0.8 2,-0.9 3,-0.3c0.4,0.2 0.3,0.3 0.1,0.7c-0.3,0.6 -0.4,1.2 -0.2,1.8c0.1,0.5 0.2,1 0.4,1.4Zm-1,-1.5c-0.2,-0.3 -1.2,-0.3 -1.4,0l1.4,0Z" style="fill:#3853a3;fill-rule:nonzero;"/></g><g><path d="M39.9,31.2c0.4,0.8 0.3,1.5 0,2.2c-0.5,-0.4 -0.5,-1.7 0,-2.2Z" style="fill:#3853a3;fill-rule:nonzero;"/></g><g><path d="M35.6,33.4c-0.4,-0.5 -0.4,-1.6 0,-2.2c0.4,0.4 0.4,1.7 0,2.2Z" style="fill:#3853a3;fill-rule:nonzero;"/></g><g><g><path d="M163.5,13.9c-0.4,1.8 -0.7,3.7 -1.1,5.5c-0.1,0.7 0.1,0.8 0.7,0.7c0.9,-0.2 1.9,-0.4 2.8,-0.6c0.6,-0.1 1.2,-0.2 1.8,-0.4c0.5,-0.1 1,-0.3 1.6,-0.5c0.8,-0.2 1.7,-0.3 2.5,-0.4c0.4,0 0.7,0.3 1.1,0.5c0.9,0.4 1.3,1.4 1.1,2.3c-0.2,0.7 -0.6,1.1 -1.3,1.2c-1.5,0.3 -2.9,0.5 -4.4,0.7c-0.4,0.1 -0.8,0.3 -1.2,0.5c-1,0.4 -2,0.7 -3,1.1c-0.5,0.2 -0.6,0.5 -0.2,0.9c2,2.2 4.5,3.9 7.1,5.4c0.8,0.5 1.6,1 2.4,1.4c0.4,0.2 0.9,0.4 1.4,0.6c1,0.3 2,0.6 3,0.8c0.8,0.2 1,0.6 0.6,1.3c-0.1,0.1 -0.1,0.3 -0.1,0.4c-0.1,1.9 -2.1,2.6 -3.6,2.2c-0.8,-0.2 -1.6,-0.6 -2.4,-1c-0.9,-0.5 -1.9,-1 -2.8,-1.6c-1.8,-1.2 -3.6,-2.5 -5.3,-3.8c-0.9,-0.6 -1.7,-1.3 -2.5,-1.9c-0.5,-0.4 -0.9,-0.3 -1.2,0.1c-0.4,0.5 -0.8,1 -1.2,1.6c-0.6,1 -1.4,1.8 -2.6,2.1c-0.8,0.2 -1.4,0.9 -2.4,0.7c-0.4,-0.1 -0.7,-0.1 -1.1,-0.3c-0.1,0 -0.3,-0.2 -0.3,-0.3c0,-0.1 0.2,-0.2 0.3,-0.3l0.1,0c1.6,0.2 2.4,-1 3.2,-2.1c0.7,-0.9 0.8,-1.9 0.8,-3c0,-0.1 -0.3,-0.3 -0.5,-0.3c-0.5,0.1 -1,0.3 -1.6,0.4c-1.3,0.2 -2.5,0.5 -3.8,0.7l-0.7,0c-0.8,-0.2 -0.9,-0.5 -0.6,-1.3c0.5,-1 1.4,-1.3 2.2,-1.8c1.7,-0.9 3.3,-1.9 5,-2.8c1.1,-0.5 1.4,-1.3 1.4,-2.5c0,-2.3 0.7,-4.5 1.4,-6.6c0.3,-0.9 0.9,-1.4 1.7,-1.9c0.5,-0.3 1.2,0.2 1.3,0.9l0,1.3c0.3,0.1 0.4,0.1 0.4,0.1Z" style="fill-rule:nonzero;"/></g><g><path d="M197.8,21.5c0.3,0.1 0.7,-0.1 0.7,-0.7c0.1,-0.6 0.1,-1.3 0.1,-1.9c0,-1.4 -0.2,-2.8 -0.2,-4.2c0,-1.6 0.2,-3.3 0.4,-4.9c0.1,-0.6 0.4,-1.2 0.7,-1.7c0.3,-0.5 0.8,-0.9 1.5,-0.5c0.2,0.1 0.4,0 0.7,0.1c0,0.6 0.1,1.2 0,1.7c-0.3,1.9 -0.7,3.9 -1,5.8c-0.1,0.9 0,1.8 0,2.8c0,0.7 0.1,1.4 0.2,2.1c0,0.3 0.2,0.6 0.3,0.8c0.3,-0.2 0.8,-0.3 0.9,-0.6c0.2,-0.7 0.4,-1.2 1,-1.7c0.2,-0.2 0.1,-0.7 0,-1.1c0,-0.7 -0.2,-1.3 -0.1,-2c0.1,-0.7 0.4,-0.9 1.1,-0.6c0.2,0.1 0.5,0.3 0.7,0.5c0.2,0.2 0.3,0.4 0.7,0.8c0.2,-0.5 0.5,-1 0.4,-1.3c-0.1,-0.4 -0.5,-0.8 -0.8,-1c-0.6,-0.2 -1.3,-0.2 -1.9,-0.3c-0.3,0 -0.6,-0.1 -1,-0.2c0.2,-0.2 0.3,-0.3 0.4,-0.4c1,-0.8 1,-1.2 0.4,-2.2c-0.2,-0.3 -0.1,-0.8 0,-1.2c0.1,-0.3 0.5,-0.4 0.8,-0.2c0.2,0.1 0.5,0.2 0.7,0.3c0.5,0.2 0.9,0.1 1.1,-0.4c0.2,-0.7 0.4,-1.3 0.7,-2c0.1,-0.3 0.4,-0.6 0.7,-0.7c0.4,-0.1 0.8,0 0.7,0.6c-0.2,0.8 -0.4,1.6 -0.6,2.4c-0.2,0.6 -0.4,1.3 -0.4,1.9c0,0.4 0.2,0.8 0.4,1.2c0.5,0.7 0.7,1.3 0.4,2.1c-0.4,1.3 -0.8,2.6 -1,3.9c-0.2,1.1 0.1,1.3 1.3,1.2c1.2,-0.1 2.4,-0.1 3.2,-1.2c0.2,-0.3 0.4,-0.7 0.5,-1c-0.9,-0.2 -1.6,-0.4 -2.4,-0.6c-0.6,-0.2 -0.7,-0.7 -0.5,-1.1c0.2,-0.5 0.4,-1.2 0.8,-1.3c0.6,-0.1 1.3,0.1 1.9,0.3c0.8,0.3 1.3,0.2 1.6,-0.7c0.1,-0.2 0.1,-0.5 0.2,-0.8c-0.4,0 -0.7,0.1 -1,0.1c-1.1,0.1 -2,-0.4 -2.3,-1.5c-0.2,-0.7 0.4,-1.8 1.1,-1.9c0.2,0 0.6,0 0.8,0.2c0.4,0.2 0.8,0.6 1.2,0.9c0.5,0.4 0.8,0.3 1,-0.3c0.2,-0.4 0.5,-0.9 0.6,-1.3c0.2,-0.5 0,-0.9 -0.6,-0.8l-1.5,0c-0.6,0 -1.2,-0.3 -1.3,-0.9c-0.1,-0.6 0.3,-1.1 0.9,-1.3c1,-0.5 2.1,-1 3.3,-0.7c0.6,0.1 1.1,0.8 1.6,1.3c0.4,0.4 0.3,0.8 0.2,1.4c-0.4,2.4 -1.6,4.5 -2.6,6.6c-0.6,1.3 -0.7,2.8 -1,4.1c1.1,0.3 2,0.4 2.8,0.7c2.2,0.8 2.9,2.1 2.8,4.3c0,1.1 -1.2,1.7 -2.2,1.2c-0.4,-0.2 -0.9,-0.3 -0.9,-0.8c0,-0.3 0,-0.7 0.2,-0.9c0.5,-0.6 0.4,-1.2 0.2,-1.8c-0.2,-0.6 -0.8,-0.6 -1.3,-0.7c-1.2,-0.1 -2.4,-0.4 -3.6,-0.3c-3,0.3 -5.9,0.8 -8.8,1.2c-2.3,0.3 -4.5,0.9 -6.5,1.9c-2.3,1.2 -4.1,2.9 -5.1,5.4c-0.1,0.3 -0.2,0.5 -0.2,0.8c0,0.5 -0.2,1.1 -0.8,1c-0.3,-0.1 -0.7,-0.6 -0.8,-1c-0.1,-0.5 0,-1.1 0.1,-1.7c0.2,-0.8 0.5,-1.6 0.7,-2.4c0.1,-0.2 0.2,-0.4 0.4,-0.6c0.1,0 0.1,0 0.2,0.1c-0.2,0.9 -0.3,1.9 -0.5,2.9c0.3,0.1 0.5,0.1 0.8,0.2c0.1,-0.2 0.3,-0.5 0.4,-0.7c0.7,-1.2 1.4,-2.5 2.2,-3.7c0.3,-0.5 1,-0.8 1.5,-1c0.5,-0.2 0.6,-0.4 0.6,-0.9c-0.1,-0.7 0,-1.5 -0.2,-2.2c-0.3,-1.8 -0.7,-3.6 -1,-5.3c-0.3,-1.5 -0.1,-2.9 0.6,-4.2c0.2,-0.4 0.8,-0.8 1.2,-0.8c0.8,0 1.4,0.6 1.4,1.4c0,0.6 -0.1,1.2 -0.2,1.8c-0.2,1 -0.3,1.9 -0.6,2.9c-0.1,0.6 -0.3,1.3 -0.5,1.9c-0.2,0.5 -0.1,0.9 0.2,1.3c0.5,0.4 0.8,1.2 1.2,2.1Z" style="fill-rule:nonzero;"/></g><g><path d="M128.8,29.1c0.7,0 0.8,-0.5 1,-0.9c0.3,-1.1 0.6,-2.2 0.8,-3.3c0.3,-1.2 0.7,-1.5 1.9,-1.3c0.5,0.1 1.3,-0.2 1.3,0.8c0,1 -0.5,1.7 -1.4,1.9c-0.3,0.1 -0.7,0.2 -1,0.3c-0.9,0.5 -1.3,1.4 -1.2,2.6c0.3,-0.1 0.7,-0.1 0.9,-0.3c1.3,-1 2.9,-1.3 4.4,-1.7c0.6,-0.2 1,-0.5 1.2,-1.1c0.3,-1 0.5,-2.1 0.8,-3.1c0.2,-0.8 0.6,-0.9 1.2,-0.4c1,1 1.2,1.5 0.8,2.7c-0.2,0.5 -0.4,1 -0.6,1.5c-0.2,0.5 -0.1,0.9 0.4,1.3c1.1,0.9 2.2,1.9 2.9,3c0.9,1.4 1.2,3.2 0.6,4.9c-0.4,1.1 -1.3,2 -2.5,2.5c-0.5,0.2 -1.1,0.4 -1.6,0.7c-1.4,0.7 -2.8,0.5 -4.2,0.3c-0.6,-0.1 -1.1,-0.1 -1.7,-0.2c-0.2,-0.1 -0.6,-0.4 -0.6,-0.5c0.1,-0.4 0.3,-0.7 0.5,-1c0.2,-0.2 0.6,-0.3 0.8,-0.3c0.8,0 1.7,0 2.5,0.1c2,0.3 4.1,-1.2 4.2,-3.2c0.1,-1 0.1,-1.9 0,-2.9c-0.1,-1 -0.8,-1.7 -1.6,-2.2c-0.4,-0.3 -0.7,-0.1 -1,0.3c-1.2,1.5 -2.4,3.1 -3.7,4.6c-0.9,1 -2.1,1.1 -3.4,1.2c-1.1,0.1 -2.2,0.2 -3.2,-0.5c-0.1,-0.1 -0.3,-0 -0.4,-0c-0.3,-0.1 -0.9,-0.1 -0.9,-0.2c0,-0.5 -0.1,-1.1 0.2,-1.4c1.3,-1.4 1.3,-3 1.3,-4.8c-0.1,-2.2 0.1,-4.4 0.2,-6.7c0,-0.9 0.3,-1.8 0.4,-2.8c-0.3,0.1 -0.5,0.1 -0.6,0.2c-1,1 -1.9,2.1 -2.9,3.1c-0.7,0.8 -1.4,1.5 -2.1,2.3c-0.6,0.6 -1,1.4 -1.1,2.3c-0.1,0.4 -0.2,0.8 -0.4,1.2l-0.3,-0c-0,-0.7 -0.1,-1.4 -0,-2c0.2,-1.8 0.8,-3.4 1.6,-5c0.1,-0.2 0.2,-0.4 0.3,-0.6c0.5,-1.2 1.2,-2.2 2.3,-2.8c1.1,-0.7 2.2,-1.4 3.2,-2.2c0.5,-0.4 1,-0.9 1.3,-1.5c0.7,-1 1.2,-2 1.8,-3c0.1,-0.2 0.2,-0.4 0.4,-0.6c0.1,0.1 0.2,0.1 0.3,0.2l0,1.7c0,0.6 0.4,0.8 0.9,0.6c1.3,-0.6 2.5,-1.3 3.8,-1.9c1.1,-0.5 2.3,-0.9 3.5,-1.3c0.4,-0.2 0.8,-0.1 1,0.3c0.2,0.4 0.3,1 -0.2,1.3c-1,0.5 -2.1,1 -3.2,1.5c-2.7,1.1 -5.4,2.2 -6.8,5c-0.4,0.7 -0.5,1.5 -0.8,2.3c-0.3,0.9 -0.7,1.8 -0.8,2.7c-0.2,1 -0.3,2 -0.4,3.1c-0.2,0.7 -0.1,1.9 -0.1,3.2Zm5.7,0.7c-1.3,-0.1 -3.7,1.3 -4.2,2.4c-0.2,0.4 -0,0.7 0.5,0.6c1.9,-0.2 2.7,-1.6 3.7,-3Z" style="fill-rule:nonzero;"/></g><g><path d="M89,28.6c-0.1,-0.3 -0.2,-0.4 -0.2,-0.5c0,-0.8 -0.4,-1.2 -1.2,-1.3c-0.1,0 -0.3,-0.4 -0.3,-0.6c-0.2,-1.6 0.2,-3.1 0.6,-4.6c0.2,-0.6 0.2,-1.2 0.3,-1.9c-0.3,0 -0.6,-0.1 -0.9,-0.1c-0.9,0 -1.8,0.1 -2.7,0.2c-1.6,0.2 -2.8,-0.5 -4,-1.4c-0.2,-0.2 -0.1,-0.9 -0.1,-1.3c0.1,-0.3 0.3,-0.7 0.5,-1c0.3,-0.6 0.8,-1 1.5,-1.1c1.5,-0.3 3,-0.6 4.5,-0.9c1,-0.2 1.9,-0.3 2.9,-0.3c1.7,0 3,-0.7 3.9,-2.2c0.6,-1.1 1.5,-2 2.4,-2.9c0.4,-0.4 1.2,-0.6 1.7,-0.5c1.2,0.2 2.5,0.4 3.5,1.3c0.2,0.2 0.3,0.4 0.4,0.7c-2,-0.2 -3.3,0.6 -4.4,2.2c1.1,0.4 2.1,0 3.1,-0.1c1.7,-0.2 3.4,-0.5 5.1,-0.7c0.4,0 0.9,0.1 1.3,0.2c0.2,0.1 0.3,0.5 0.3,0.8c0,1 -0.1,2 -0.2,3.1c0,0.4 -0.2,0.7 -0.6,0.8c-1.2,0.2 -2.3,0.5 -3.5,0.6c-2.4,0.3 -4.7,0.6 -7.1,0.9c-1,0.1 -2.1,0.3 -3.1,0.6c-0.4,0.1 -0.8,0.7 -1.1,1.2c-0.7,1.4 -1.5,2.8 -2,4.3c-0.4,1.1 -0.5,2.3 -0.7,3.4c0.2,0.4 0.2,0.7 0.1,1.1Z" style="fill-rule:nonzero;"/></g><g><path d="M204.5,32.8c-0.6,-0.8 -1.1,-1.4 -1.6,-2c-0.4,-0.4 -0.6,-0.9 -0.3,-1.3c0.2,-0.3 0.6,-0.5 1,-0.5c0.4,-0.1 0.8,0 1.2,0.1c0.6,0.1 1,0 1.4,-0.5c0.4,-0.5 0.8,-0.9 1.1,-1.4c0.2,-0.2 0.4,-0.4 0.6,-0.7c0.1,-0.2 0.3,-0.7 0.2,-0.7c-0.2,-0.2 -0.6,-0.3 -0.9,-0.3c-0.8,0.2 -1.7,0.4 -2.5,0.7c-1.2,0.5 -2.4,1 -3.6,1.6c-0.4,0.2 -0.8,0.5 -1.1,0.9c-0.9,1 -1.9,1.3 -3.2,1.1c-0.3,-0.1 -0.6,-0.4 -0.8,-0.8c-0.1,-0.2 0.1,-0.6 0.3,-0.8c0.2,-0.2 0.4,-0.3 0.7,-0.5c1,-0.5 2.1,-0.9 3,-1.4c2.2,-1.2 4.4,-2.1 6.9,-2.5c0.8,-0.1 1.6,0 2.3,0.2c0.3,0.1 0.7,0.7 0.7,1.1c0.1,1.4 -0.4,2.6 -1.2,3.8c-0.3,0.4 -0.8,0.6 -1.2,0.9c-0.4,0.4 -0.9,0.7 -0.7,1.4c0.2,0.6 0.6,0.8 1.2,0.7c1.6,-0.1 3.1,-0.2 4.7,-0.3c0.7,0 1.4,-0.3 2.1,0.3c0.5,0.5 0.8,2 0.4,2.6c-0.4,0.6 -1.1,0.5 -1.7,0.5c-1.2,-0.1 -2.4,0 -3.6,0.1c-0.1,0 -0.4,0.3 -0.4,0.4c-0.1,0.3 -0.1,0.6 -0.1,0.9c0,2.2 -0.7,4.1 -2.1,5.8c-0.4,0.5 -1,0.9 -1.5,1.2c-1.6,1 -3.4,1.7 -5.3,1.2c-0.9,-0.2 -1.8,-0.6 -2.6,-1c-0.3,-0.2 -0.7,-0.7 -0.7,-0.8c0.2,-0.4 0.6,-0.8 1,-0.9c0.7,-0.1 1.4,0 2.1,0c0.6,0 1.2,0 1.7,-0.2c2,-0.7 3.4,-2.1 4.4,-4c0.4,-0.9 0.1,-1.6 -0.9,-1.5c-2.9,0.1 -5.7,0.2 -8.5,1.4c-1.2,0.5 -2.6,0.5 -4,0.7c-0.4,0.1 -0.7,-0.2 -0.6,-0.7l0,-0.3c0,-1.4 0.1,-1.6 1.4,-2c1.9,-0.6 3.8,-1.2 5.7,-1.7c1.4,-0.3 2.9,-0.4 4.3,-0.6c0.1,-0.1 0.3,-0.1 0.7,-0.2Z" style="fill-rule:nonzero;"/></g><g><path d="M103.4,25.6c-0.1,0.6 -0.3,1.2 -0.4,1.8c-0.2,1.4 -1.2,2 -2.4,2.4c-0.9,0.3 -1.8,0.5 -2.7,0.7c-0.6,0.1 -1,0.4 -1.1,1.1c-0.1,1.6 -0.3,3.2 -0.2,4.8c0.1,1.7 -0.3,2.4 -2,2.8c-0.5,0.1 -1,0.3 -1.5,0.5c-0.2,-0.1 -0.5,-0.4 -0.7,-0.5c0.1,-0.9 0.2,-1.8 0.2,-2.7c0,-0.1 0.1,-0.3 0.2,-0.4c1,-0.6 0.8,-1.6 0.9,-2.6c0.1,-0.5 0.1,-1.1 0.2,-1.6c0.1,-0.5 -0.1,-0.7 -0.5,-0.9c-0.3,-0.1 -0.7,-0.2 -1,-0.3c-0.4,-0.2 -0.8,-0.4 -1.3,-0.5c-0.4,-0.1 -0.9,-0.1 -1.3,-0.2c-0.1,0 -0.2,-0.1 -0.4,-0.3c1,-0.3 2.1,-0.7 3.1,-0.9c1.7,-0.3 2,-0.4 1.9,-2.1c-0.1,-1.2 0.6,-2 1,-2.9c0.2,-0.4 0.4,-0.2 0.6,0.1c0.7,0.9 0.9,1.9 0.9,3c0,0.5 0.2,0.6 0.6,0.6c1.4,-0.2 2.7,-0.6 3.7,-1.8c0.6,-0.8 1.1,-0.8 2.2,-0.1Z" style="fill-rule:nonzero;"/></g><g><path d="M121.6,32.7c-0.2,1.8 -0.4,3.5 -0.6,5.3c-0.1,1.1 -0.9,1.8 -1.6,2.6c-0.3,0.3 -0.7,0.3 -1.1,0.1c-0.9,-0.6 -1.3,-1.5 -1.5,-2.4c-0.4,-1.8 -0.9,-3.6 -1.2,-5.4c-0.2,-1.1 -0.1,-2.2 -0,-3.3c-0,-0.3 0.3,-0.7 0.6,-0.7c0.4,-0.1 0.7,0.2 0.9,0.6c0.8,1.1 0.7,2.4 1.1,3.7c0.1,0.4 0.2,0.8 0.6,0.7c0.2,0 0.5,-0.4 0.6,-0.6c0.4,-1 0.6,-2.1 1,-3.1c0.1,-0.2 0.4,-0.3 0.7,-0.5c0.1,0.2 0.4,0.5 0.4,0.7l-0,2.5c-0,-0.2 -0,-0.2 0.1,-0.2Z" style="fill-rule:nonzero;"/></g><g><path d="M82.2,37c-0.1,-1.1 0.4,-1.9 1,-2.5c0.4,-0.4 0.8,-0.3 1.1,0.1c0.2,0.2 0.4,0.5 0.5,0.7c0.4,0.6 0.9,1 1.5,1.4c0.5,0.3 0.7,1 1,1.6c0.2,0.3 0.5,0.8 0.4,1.1c-0.3,0.8 -0.7,1.7 -1.6,2c-0.3,0.1 -0.7,-0.2 -1.1,-0.3c-0.3,-0.1 -0.6,-0.3 -0.9,-0.5c-0.3,-0.3 -0.7,-0.5 -0.8,-0.9c-0.5,-0.9 -1.3,-1.7 -1.1,-2.7Z" style="fill-rule:nonzero;"/></g><g><path d="M106.1,37.6c-0,1.5 -1.3,2.3 -2.5,1.7c-1.6,-0.8 -2.1,-1.8 -1.7,-3.7c0.1,-0.6 -0,-1.2 0.1,-1.7c0.1,-0.9 1,-1.4 1.7,-0.7c0.7,0.7 1.4,1.3 1.6,2.3c0.1,0.6 0.5,1.1 0.7,1.7c0.1,0.2 0.1,0.4 0.1,0.4Z" style="fill-rule:nonzero;"/></g><g><path d="M118.3,17.9c-0.1,1.2 -0.3,2 -1,2.6c-0.4,0.4 -0.8,0.4 -0.9,-0.2c-0.2,-1 -0.4,-2.1 -0.6,-3.1c-0.1,-0.5 0,-0.9 0.5,-1.1c0.2,-0.1 0.2,-0.3 0.4,-0.4c0.1,-0.2 0.4,-0.5 0.4,-0.4c0.2,0.1 0.4,0.3 0.5,0.5c0.3,0.7 0.5,1.5 0.7,2.1Z" style="fill-rule:nonzero;"/></g></g><g><rect x="80.5" y="48.5" width="138.6" height="0.8"/></g><g><rect x="81" y="66.7" width="138.6" height="0.8"/></g><g id="ooo"><path d="M42,29.3c-0.8,-0 -1.5,0.3 -2.1,0.8c-0.5,-0.5 -1.3,-0.8 -2.1,-0.8c-0.8,-0 -1.5,0.3 -2.1,0.8c-0.5,-0.5 -1.3,-0.8 -2.1,-0.8c-1.7,-0 -3.1,1.4 -3.1,3.1c0,1.7 1.4,3.1 3.1,3.1c0.8,0 1.5,-0.3 2.1,-0.8c0.5,0.5 1.3,0.8 2.1,0.8c0.8,0 1.5,-0.3 2.1,-0.8c0.5,0.5 1.3,0.8 2.1,0.8c1.7,0 3.1,-1.4 3.1,-3.1c0,-1.7 -1.4,-3.1 -3.1,-3.1Zm-2.3,3.1c0,-0.4 0.1,-0.8 0.3,-1.1c0.2,0.3 0.3,0.7 0.3,1.1c0,0.4 -0.1,0.8 -0.3,1.1c-0.2,-0.3 -0.3,-0.7 -0.3,-1.1Zm-4.2,0c0,-0.4 0.1,-0.8 0.3,-1.1c0.2,0.3 0.3,0.7 0.3,1.1c0,0.4 -0.1,0.8 -0.3,1.1c-0.2,-0.3 -0.3,-0.7 -0.3,-1.1Zm-4.2,0c-0,-1.3 1.1,-2.3 2.3,-2.3c0.6,0 1.2,0.2 1.6,0.6c-0.3,0.5 -0.5,1.1 -0.5,1.7c-0,0.6 0.2,1.2 0.5,1.7c-0.4,0.4 -1,0.7 -1.6,0.7c-1.2,-0.1 -2.3,-1.1 -2.3,-2.4Zm4.9,1.7c0.3,-0.5 0.5,-1.1 0.5,-1.7c0,-0.6 -0.2,-1.2 -0.5,-1.7c0.4,-0.4 1,-0.6 1.6,-0.6c0.6,-0 1.2,0.2 1.6,0.6c-0.3,0.5 -0.5,1.1 -0.5,1.7c0,0.6 0.2,1.2 0.5,1.7c-0.4,0.4 -1,0.6 -1.6,0.6c-0.6,-0 -1.2,-0.2 -1.6,-0.6Zm5.8,0.6c-0.6,-0 -1.2,-0.2 -1.6,-0.6c0.3,-0.5 0.5,-1.1 0.5,-1.7c0,-0.6 -0.2,-1.2 -0.5,-1.7c0.4,-0.4 1,-0.6 1.6,-0.6c1.3,-0 2.3,1.1 2.3,2.3c0.1,1.3 -1,2.3 -2.3,2.3Z" style="fill:#fff100;fill-rule:nonzero;"/><path d="M40.2,40.7l-2,0l0,-1.5l-0.8,0l-0,1.5l-2,0l-0,0.8l2,0l-0,4.6l0.8,0l0,-4.6l2,0l0,-0.8Z" style="fill:#fff100;fill-rule:nonzero;"/></g></g></svg>