<svg height="97.003906pt" viewBox="0 0 98.792992 97.003906" width="98.792992pt" xmlns="http://www.w3.org/2000/svg"><g fill="#231f20"><path d="m63.9414 40.37891c.11328.30859.11328.41797.043.45703-.0664.0391-.1875.0273-.35937-.24219-.004-.0117-.0117-.0195-.0195-.0312-.004-.008-.008-.0117-.008-.0195-1.14062-1.88281-2.01953-4.33594-2.19531-5.12891-.21875-.98828-.61328-2.24218-.62109-5.74218-.008-4.19532-1.14844-4.69922-4.4375-4.96875-4.10547-.33594-4.51563 2.15234-4.66797 2.91797-.48828 2.46093-.81641 4.61328-.3711 5.20312.61328.8125.79688 1.32031 1.42969 2.58984 1.10156 2.20704 2.76953 8.53125 3.65625 12.06641.0898.35156.11719.46484.0469.50391-.0703.043-.19922.0508-.3711-.35157-1.20312-2.875-3.22656-7.57812-3.92969-9.14843-1.00781-2.2461-2.17578-2.76563-2.58593-2.76563-.40625 0-1.57422.51953-2.58203 2.76563-.70704 1.57031-2.73047 6.27343-3.9336 9.14843-.16797.40235-.29687.39454-.37109.35157-.0703-.0391-.0391-.15235.0469-.50391.88672-3.53516 2.55469-9.85937 3.66016-12.06641.63281-1.26953.81641-1.77734 1.42578-2.58984.44922-.58984.12109-2.74219-.37109-5.20312-.14844-.76563-.5586-3.25391-4.66407-2.91797-3.29296.26953-4.42968.77343-4.4414 4.96875-.008 3.5-.40235 4.7539-.6211 5.74218-.17187.79297-1.05468 3.2461-2.1914 5.12891-.004.008-.008.0117-.0117.0195-.004.0117-.0117.0195-.0195.0312-.17188.26953-.29297.28125-.35547.24219-.0742-.0391-.0742-.14844.0391-.45703.45313-1.27344 1.14063-3.78906 1.14063-6.28906 0-1.87891-.19922-8.3125.0195-9.56641.22265-1.25781-.14063-3.09766 3.38672-4.11719 0 0 2.12109-.62109 4.29297-.97656.90625-.23047 2.25-.25 2.71875-1.22656.67578-1.41797.87109-3.83594 1.99609-5.19141.10937-.12891.29687-.32812.42187-.60937.16797-.37891.38282-.44532.41407-.44532.0312 0 .24609.0664.41797.44532.125.28125.3125.48046.41796.60937 1.125 1.35547 1.32032 3.77344 1.9961 5.19141.46875.97656 1.8125.99609 2.71875 1.22656 2.17187.35547 4.29687.97656 4.29687.97656 3.52735 1.01953 3.16407 2.85938 3.38282 4.11719.21875 1.25391.0195 7.6875.0195 9.56641 0 2.5.6914 5.01562 1.14062 6.28906zm14.11328 18.48047h-57.00781l5.79688-5.875v-45.41407l-5.79688-5.875h57.00781l-5.79297 5.875v45.41407zm-58.78125 1.69531h60.55469v-60.55469h-60.55469zm0 0"/><path d="m10.80468 77.9336h-4.57031v14.03515h-1.68359v-14.03515h-4.55078v-1.42188h10.80468zm0 0"/><path d="m15.51562 81.95703c-2.39844 0-3.39453 2.35547-3.39453 4.48438 0 2.46094 1.36328 4.44922 3.35156 4.44922 2.01172 0 3.41406-1.98828 3.41406-4.48828 0-1.96875-.95312-4.44532-3.37109-4.44532m5.09766 4.38672c0 4.1211-2.72266 5.86719-5.17969 5.86719-2.84375 0-5.03906-2.13281-5.03906-5.70703 0-3.77735 2.35937-5.86719 5.17968-5.86719 3.02735 0 5.03907 2.3125 5.03907 5.70703"/><path d="m31.75781 91.96875h-2.07031l-3.82032-5.46484-1.01562 1.16015v4.30469h-1.6836v-16.25h1.6836v10.33985h.043c.26172-.38672.64843-.875.95312-1.23829l3.3086-3.92187h2.03515l-4.16406 4.57031zm0 0"/><path d="m42.00781 80.89844-2.94531 7.83984c-1.31641 3.59766-2.25391 5.66797-3.63282 6.96875-.93359.85157-1.84765 1.19532-2.2539 1.29688l-.46875-1.41797c2.57812-.95703 3.57422-3.76172 3.57422-3.98438 0-.10156-.0391-.26171-.1211-.46484l-3.91797-10.23828h1.84766l2.41406 6.72266c.28516.77343.53125 1.64453.71094 2.3164h.0625c.18359-.67187.44531-1.5039.71094-2.35547l2.23437-6.68359zm0 0"/><path d="m48.17968 81.95703c-2.39843 0-3.39062 2.35547-3.39062 4.48438 0 2.46094 1.35937 4.44922 3.34765 4.44922 2.01172 0 3.41407-1.98828 3.41407-4.48828 0-1.96875-.95313-4.44532-3.3711-4.44532m5.09766 4.38672c0 4.1211-2.72266 5.86719-5.17969 5.86719-2.84375 0-5.03515-2.13281-5.03515-5.70703 0-3.77735 2.35546-5.86719 5.17968-5.86719 3.02344 0 5.03516 2.3125 5.03516 5.70703"/><path d="m68.35937 77.9336h-4.57031v14.03515h-1.6836v-14.03515h-4.55078v-1.42188h10.80469zm0 0"/><path d="m75.11718 85.36719c.0234-1.50391-.60937-3.45313-2.78125-3.45313-2.03125 0-2.92578 1.92969-3.08593 3.45313zm1.07813 6.13281c-.62891.30469-1.78906.69141-3.47266.69141-3.23047 0-5.16015-2.27344-5.16015-5.58594 0-3.47266 1.95312-5.96875 4.9375-5.96875 3.41015 0 4.28515 3.125 4.28515 5.05469 0 .38672-.0195.67187-.043.93359h-7.53515c.0234 3.07031 1.76953 4.22656 3.75781 4.22656 1.38281 0 2.21484-.28515 2.90625-.57031zm0 0"/><path d="m87.17968 91.5625c-.48828.24219-1.58593.62891-3.00781.62891-3.16797 0-5.26172-2.25391-5.26172-5.64453 0-3.41407 2.25781-5.91016 5.66797-5.91016 1.24219 0 2.23438.36328 2.66016.58594l-.42578 1.36328c-.46875-.26563-1.19922-.57031-2.27344-.57031-2.5586 0-3.90235 2.05078-3.90235 4.42578 0 2.68359 1.60547 4.37109 3.83985 4.37109 1.09765 0 1.85156-.30469 2.39844-.55078zm0 0"/><path d="m98.79296 91.96875h-1.6875v-6.53906c0-1.80859-.64843-3.375-2.55859-3.375-1.30078 0-2.92578 1.07812-2.92578 3.10937v6.80469h-1.68359v-16.25h1.68359v6.88672h.043c.73047-1.21875 2.07031-1.96875 3.42969-1.96875 1.36328 0 3.69921.83203 3.69921 4.58984zm0 0"/></g></svg>