<svg xmlns:xlink="http://www.w3.org/1999/xlink" xmlns="http://www.w3.org/2000/svg" class="_icon-logo-en-main-header" width="196" height="115"><defs><svg fill="none" viewBox="0 0 196 115" id="logo-en-main-header" xmlns="http://www.w3.org/2000/svg"><path d="M22.379 61.46V26.74h17.06v35.83c0 5.34 3.49 10.82 10.42 10.82s10.33-5.48 10.33-10.82V26.74h17.09v34.64c0 13.84-8.67 27.45-27.42 27.45s-27.48-13.64-27.48-27.37z" fill="#0072BC"></path><path d="M94.11 5.73h-8.39l-5.58 1.54v2H61.86V7.19l-5.6-2.16h-4.54l-.94-.52a.94.94 0 00-.55-1.18V0h-.7v3.33a1 1 0 00-.6.88 1 1 0 00.06.3l-1 .52h-4.75l-5.29 2.16v2H19.54v-2l-5.57-1.54H5.58L0 7.19v57.5a49.45 49.45 0 0049.44 49.39h.93a49.441 49.441 0 0049.38-49.39V7.3l-5.64-1.57zm-1.53 59A42.31 42.31 0 0150.32 107h-.88A42.31 42.31 0 017.17 64.73V16.06h85.46l-.05 48.67z" fill="#0072BC"></path><path d="M26.05 83.98l3.26 3.3-.86.84-1.17-1.19-3.13 3.09-.9-.92 3.13-3.08-1.18-1.2.85-.84zM32.55 89.51a2.801 2.801 0 01.89 4.06 2.83 2.83 0 01-4.07.78 2.778 2.778 0 01-.9-4 2.841 2.841 0 014.08-.79v-.05zm-2.52 3.89a1.55 1.55 0 002.28-.53 1.62 1.62 0 10-2.7-1.78 1.642 1.642 0 00.42 2.31zM36.189 91.79l1.22.42.87 2.79 2.3-1.71 1.15.39-1.81 5.3-1.21-.41 1.15-3.38-2.18 1.57-.17-.06-.78-2.55-1.14 3.36-1.21-.42 1.81-5.3zM43.249 95.45a1.67 1.67 0 012-1.38 2.28 2.28 0 011.56.82l-.81.87a1.059 1.059 0 00-.79-.48c-.35-.05-.58.09-.61.34-.12.92 2.23 1 2 2.8a1.742 1.742 0 01-2.11 1.39 2.11 2.11 0 01-1.77-1.15l.84-.77a1.571 1.571 0 001.11.74c.33 0 .55-.1.58-.36.11-.84-2.23-1-2-2.82zM48.809 94.49l1.28-.03.06 2.44 1.77-2.48 1.54-.04-2.04 2.63 2.34 2.96-1.63.04-1.97-2.62.06 2.67-1.28.02-.13-5.59zM57.178 96.307l-2.084.33.175 1.107 2.084-.331-.175-1.106zM59.43 93.21l.83-.23 1.53 5.38-1.15.33-1.06-3.75-.44.53-.87-.78 1.16-1.48zM63.72 96.19a1.45 1.45 0 01.17-1.65 1.47 1.47 0 01-1.22-.9 1.66 1.66 0 011.07-2.13 1.681 1.681 0 012.34.53 1.48 1.48 0 01-.17 1.54 1.29 1.29 0 011.41.79c.45 1-.06 1.85-1.12 2.35s-2.08.33-2.48-.53zm1-2.73a.5.5 0 00.27-.7c-.13-.28-.4-.36-.77-.19a.521.521 0 10.41.94l.09-.05zm.42 1.13a.622.622 0 00-.38.83c.13.29.44.44.91.22.47-.22.56-.57.43-.85a.6.6 0 00-.87-.24l-.09.04zM66.578 90.13l2.98-2.16.48.67 1.26 4.98-1.06.77-1.14-4.61-1.82 1.32-.7-.97zM73.492 90.07a1.47 1.47 0 01-.42-1.6 1.43 1.43 0 01-1.45-.4 1.94 1.94 0 012.61-2.71 1.47 1.47 0 01.4 1.49 1.29 1.29 0 011.6.24 1.73 1.73 0 01-.21 2.59c-.81.84-1.83 1-2.52.39h-.01zm.01-2.91a.51.51 0 000-.75c-.23-.22-.5-.2-.79.1a.51.51 0 10.71.72l.08-.07zm.79.9a.63.63 0 00-.06.92c.22.22.56.25.93-.12s.32-.74.1-.95a.599.599 0 00-.9.08l-.07.07z" fill="#0072BC"></path><path d="M112.039 39.55h10.9v2.17h-4.29v11.05h-2.32V41.72h-4.29v-2.17zM126.851 44.06a4.462 4.462 0 014.182 5.43 4.46 4.46 0 01-8.812-.97 4.334 4.334 0 011.327-3.255 4.338 4.338 0 013.303-1.205zm0 6.9a2.428 2.428 0 002.528-2.816 2.425 2.425 0 00-1.868-1.982 2.432 2.432 0 00-2.96 2.358 2.28 2.28 0 002.3 2.44zM146.182 52.77h-2.17v-5c0-1.06-.43-1.62-1.45-1.62a1.903 1.903 0 00-1.76 1v5.62h-2.17v-5.14a1.326 1.326 0 00-.362-1.072 1.32 1.32 0 00-1.058-.398 2.094 2.094 0 00-1.78.9v5.71h-2.17v-8.5h2.18v.92a3.61 3.61 0 012.67-1.09 2.46 2.46 0 012.47 1.36 3.442 3.442 0 012.87-1.36c1.55 0 2.72.77 2.72 3.1l.01 5.57zM148.071 46.65c0-1.66 1.36-2.59 3.12-2.59a4.71 4.71 0 013.25 1.13l-.81 1.55a3.999 3.999 0 00-2.31-.82c-.66 0-1.05.36-1.05.74 0 1.42 4.59.64 4.59 3.65 0 1.68-1.36 2.72-3.44 2.72a4.907 4.907 0 01-3.55-1.46l1-1.41a4.43 4.43 0 002.65 1.05c.62 0 1.11-.26 1.11-.79.03-1.43-4.56-.67-4.56-3.77zM156.641 39.55h2.17v13.22h-2.17V39.55zm4.8 8.64l3.57 4.61h-2.79l-3.36-4.44 3-4.06h2.74l-3.16 3.89zM113.001 61.99c0-2 1.55-3.65 4.12-3.65a5.067 5.067 0 013.78 1.42l-1.25 1.74a3.05 3.05 0 00-2.34-1c-1.15 0-1.85.58-1.85 1.45 0 2.74 6 1.87 6 6.27 0 2.23-1.95 3.74-4.42 3.74-1.7 0-3.69-.73-4.33-2.07l1.32-1.59a4 4 0 003.05 1.49c1.09 0 1.92-.55 1.92-1.55-.01-2.59-6-1.94-6-6.25zM123.36 60.91h2.17v2.36h2.74v2h-2.74v3.1c0 .93.3 1.53 1 1.53a2.07 2.07 0 001.3-.49l.66 1.68a4.002 4.002 0 01-2.51.83c-1.92 0-2.64-1.24-2.64-3.41l.02-7.6zM130.282 63.88a6.219 6.219 0 013-.81c2.51 0 3.4 1.28 3.4 3.53v5.18h-1.89v-1a3.004 3.004 0 01-2.51 1.1 2.47 2.47 0 01-2.66-2.61c0-1.87 1.38-2.76 3.09-2.76a3.531 3.531 0 011.93.55c.06-1.42-.32-2.19-1.58-2.19a4.757 4.757 0 00-2.23.59l-.55-1.58zm4.36 5.4v-.87a2.441 2.441 0 00-1.49-.41c-.72 0-1.36.34-1.36 1.06s.53 1 1.21 1a1.849 1.849 0 001.64-.78zM138.731 60.91h2.17v2.36h2.74v2h-2.74v3.1c0 .93.31 1.53 1 1.53.479-.01.941-.183 1.31-.49l.66 1.68a4.07 4.07 0 01-2.51.83c-1.93 0-2.65-1.24-2.65-3.41l.02-7.6zM152.668 70.93a5.128 5.128 0 01-3.25 1 4.462 4.462 0 01-4.707-4.413 4.472 4.472 0 011.352-3.238 4.452 4.452 0 013.275-1.259 3.889 3.889 0 014 4 3.7 3.7 0 01-.14 1.17h-6.14a2.35 2.35 0 002.56 2 3.998 3.998 0 002.39-.77l.66 1.51zm-5.65-4.2h4.17a1.778 1.778 0 00-1.94-1.85 2.1 2.1 0 00-2.23 1.85zM124.38 85.3c0 4-2.48 5.69-5.25 5.69-3.29 0-5.63-1.95-5.63-5.82v-7.61h2.32v7.12c0 2.47 1 4.14 3.31 4.14 2 0 2.94-1.42 2.94-4v-7.27h2.31v7.75zM127.02 82.28h2.17v.85a3.408 3.408 0 012.44-1c2.08 0 3.49 1 3.49 3.66v5h-2.17v-4.6a1.747 1.747 0 00-1.124-1.906 1.738 1.738 0 00-.786-.094 2.55 2.55 0 00-1.85.81v5.8h-2.17v-8.52zM138.569 77.96a1.25 1.25 0 011.25 1.26 1.276 1.276 0 01-.749 1.25c-.158.07-.329.108-.501.11a1.302 1.302 0 01-1.361-1.36 1.283 1.283 0 011.361-1.26zm-1.131 4.32h2.171v8.5h-2.171v-8.5zM146.49 90.82h-1.6l-3.91-8.54h2.58l1.57 3.65c.272.62.486 1.262.64 1.92.164-.68.374-1.349.63-2l1.47-3.61h2.29l-3.67 8.58zM158.319 89.93a5.079 5.079 0 01-3.25 1.06 4.46 4.46 0 01-.07-8.92 3.883 3.883 0 013.73 2.45c.195.493.287 1.02.27 1.55a4.05 4.05 0 01-.13 1.17h-6.14a2.342 2.342 0 002.55 2 3.907 3.907 0 002.4-.78l.64 1.47zm-5.64-4.19h4.17a1.773 1.773 0 00-1.233-1.778 1.785 1.785 0 00-.767-.072 2.082 2.082 0 00-2.17 1.85zM160.762 82.28h2.17v.83a2.21 2.21 0 011.95-1 2 2 0 011.32.32l-.78 2a1.83 1.83 0 00-1.09-.32 1.47 1.47 0 00-1.4.91v5.7h-2.17v-8.44zM167.061 84.66c0-1.66 1.36-2.59 3.11-2.59a4.69 4.69 0 013.27 1.12l-.81 1.55a4.001 4.001 0 00-2.3-.81c-.66 0-1.06.36-1.06.73 0 1.42 4.59.65 4.59 3.65 0 1.68-1.36 2.72-3.44 2.72a4.997 4.997 0 01-3.55-1.45l1.06-1.42a4.349 4.349 0 002.64 1.06c.62 0 1.12-.27 1.12-.8-.04-1.42-4.63-.66-4.63-3.76zM176.889 77.96a1.242 1.242 0 011.24 1.26 1.282 1.282 0 01-.329.946 1.256 1.256 0 01-.911.414 1.302 1.302 0 01-1.274-.83 1.298 1.298 0 01-.086-.53 1.27 1.27 0 011.36-1.26zm-1.14 4.32h2.18v8.5h-2.18v-8.5zM180.25 79.92h2.19v2.36h2.74v2h-2.74v3.1c0 .93.3 1.53 1 1.53a2.09 2.09 0 001.3-.49l.7 1.77a3.998 3.998 0 01-2.51.83c-1.92 0-2.64-1.25-2.64-3.42l-.04-7.68zM192.24 90.78c-1.24 3-2 3.78-3.28 3.78a2.999 2.999 0 01-1.84-.66l.7-1.64c.266.174.572.277.89.3.55 0 .94-.44 1.3-1.33l.19-.45-3.93-8.5h2.61l2 4.65c.17.41.29.81.42 1.23.07-.423.17-.84.3-1.25l1.53-4.63h2.48l-3.37 8.5zM118.84 30.47l-4.65-5.85v5.85h-.85v-7.45h.72l4.65 5.88v-5.88h.85v7.45h-.72zM121.44 26.01a3.11 3.11 0 011.59-.43c1.37 0 1.84.71 1.84 1.95v2.94h-.8v-.62a1.85 1.85 0 01-1.54.69 1.366 1.366 0 01-1.379-.893 1.367 1.367 0 01-.081-.577c0-1 .77-1.53 1.8-1.53.422-.014.838.094 1.2.31 0-.89-.14-1.51-1.09-1.51a2.6 2.6 0 00-1.32.35l-.22-.68zm2.63 3.15v-.6a1.768 1.768 0 00-1.08-.32c-.51 0-1 .23-1 .78s.31.76.86.76a1.565 1.565 0 001.22-.59v-.03zM126.262 24.35h.85v1.33h1.76v.8h-1.76v2.09c0 .75.25 1.19.85 1.19.276-.004.543-.098.76-.27l.26.66c-.35.268-.78.41-1.22.4-1.07 0-1.5-.68-1.5-1.9v-4.3zM130.631 23.38a.506.506 0 01.48.313c.026.062.04.13.04.197a.527.527 0 01-.142.387.512.512 0 01-.378.163.53.53 0 01-.56-.55.52.52 0 01.56-.51zm-.45 2.3h.85v4.79h-.85v-4.79zM134.91 25.58a2.496 2.496 0 012.274 1.578 2.497 2.497 0 01-.573 2.707 2.501 2.501 0 01-4.251-1.785 2.436 2.436 0 011.567-2.345 2.43 2.43 0 01.983-.155zm0 4.2a1.6 1.6 0 001.65-1.7 1.649 1.649 0 10-3.169.692 1.657 1.657 0 001.519 1.008zM138.711 25.68h.85v.59a2.24 2.24 0 011.56-.67c1.25 0 2 .6 2 2.1v2.77h-.85v-2.61c0-1-.46-1.46-1.35-1.46a1.839 1.839 0 00-1.35.61v3.46h-.85l-.01-4.79zM144.61 26.01a3.108 3.108 0 011.59-.43c1.36 0 1.84.71 1.84 1.95v2.94h-.81v-.62a1.824 1.824 0 01-1.53.69 1.378 1.378 0 01-1.47-1.47c0-1 .78-1.53 1.81-1.53a2.19 2.19 0 011.19.31c0-.89-.13-1.51-1.08-1.51a2.54 2.54 0 00-1.32.35l-.22-.68zm2.62 3.15v-.6a1.74 1.74 0 00-1.07-.32c-.51 0-1 .23-1 .78s.31.76.86.76a1.521 1.521 0 001.21-.59v-.03zM149.488 23.02h.86v5.79c0 .65.16.95.56.95.221-.012.433-.088.61-.22l.19.65a1.75 1.75 0 01-1.13.36c-.72 0-1.09-.43-1.09-1.36v-6.17zM155.32 30.47v-7.45h2c2 0 2.65 1 2.65 2.22a2.136 2.136 0 01-1.62 2.1l2.48 3.15h-1.11l-2.28-3h-1.22v3l-.9-.02zm.9-6.59v2.76h1.1a1.549 1.549 0 001.69-1.41c0-.77-.43-1.38-1.74-1.38l-1.05.03zM165.638 29.95a2.758 2.758 0 01-1.79.63 2.377 2.377 0 01-2.41-1.505 2.395 2.395 0 01-.16-.995 2.362 2.362 0 01.674-1.805 2.345 2.345 0 011.796-.695 2.146 2.146 0 011.584.615 2.133 2.133 0 01.636 1.575c.019.19.019.38 0 .57h-3.73a1.53 1.53 0 00.526 1.079 1.516 1.516 0 001.144.361 2.198 2.198 0 001.47-.5l.26.67zm-3.45-2.3h2.9a1.269 1.269 0 00-1.38-1.28 1.429 1.429 0 00-1.52 1.28zM166.97 26.93c0-.84.68-1.35 1.63-1.35a2.37 2.37 0 011.64.56l-.4.65a1.79 1.79 0 00-1.2-.47c-.48 0-.77.28-.77.6 0 1 2.59.53 2.59 2.21 0 1-.9 1.45-1.85 1.45a2.375 2.375 0 01-1.77-.75l.48-.6c.372.36.862.574 1.38.6.45 0 .85-.22.85-.66 0-.98-2.58-.49-2.58-2.24zM175.752 29.95a2.76 2.76 0 01-1.8.63 2.383 2.383 0 01-2.401-1.508 2.383 2.383 0 01-.159-.992 2.345 2.345 0 011.497-2.345c.31-.12.641-.173.973-.155a2.138 2.138 0 012.22 2.19c.004.192-.016.383-.06.57h-3.67a1.517 1.517 0 001.053 1.374c.196.063.402.085.607.066a2.201 2.201 0 001.47-.5l.27.67zm-3.46-2.3h2.9a1.27 1.27 0 00-1.38-1.28 1.438 1.438 0 00-1.52 1.28zM177.292 26.01a3.15 3.15 0 011.6-.43c1.36 0 1.84.71 1.84 1.95v2.94h-.81v-.62a1.841 1.841 0 01-1.53.69 1.37 1.37 0 01-1.47-1.47c0-1 .77-1.53 1.81-1.53a2.19 2.19 0 011.19.31c0-.89-.14-1.51-1.09-1.51a2.6 2.6 0 00-1.32.35l-.22-.68zm2.63 3.15v-.6a1.771 1.771 0 00-1.08-.32c-.51 0-1 .23-1 .78s.31.76.86.76a1.558 1.558 0 001.22-.59v-.03zM182.191 25.68h.86v.57a1.345 1.345 0 011.2-.65c.261-.029.522.035.74.18l-.3.8a.999.999 0 00-.64-.18 1.06 1.06 0 00-1 .68v3.39h-.86v-4.79zM189.832 29.78a2.305 2.305 0 01-1.84.8 2.501 2.501 0 11-.13-5 2.622 2.622 0 011.88.62l-.39.67a2.002 2.002 0 00-1.38-.5 1.71 1.71 0 00.09 3.41 1.831 1.831 0 001.38-.59l.39.59zM190.901 23.02h.85v3.22a2.288 2.288 0 011.56-.64c1.25 0 2 .63 2 2.13v2.74h-.87v-2.63c0-.95-.46-1.44-1.34-1.44a1.904 1.904 0 00-1.36.6v3.47h-.85l.01-7.45z" fill="#231F20"></path></svg></defs>
                    <g><path d="M22.379 61.46V26.74h17.06v35.83c0 5.34 3.49 10.82 10.42 10.82s10.33-5.48 10.33-10.82V26.74h17.09v34.64c0 13.84-8.67 27.45-27.42 27.45s-27.48-13.64-27.48-27.37z" fill="#0072BC"></path><path d="M94.11 5.73h-8.39l-5.58 1.54v2H61.86V7.19l-5.6-2.16h-4.54l-.94-.52a.94.94 0 00-.55-1.18V0h-.7v3.33a1 1 0 00-.6.88 1 1 0 00.06.3l-1 .52h-4.75l-5.29 2.16v2H19.54v-2l-5.57-1.54H5.58L0 7.19v57.5a49.45 49.45 0 0049.44 49.39h.93a49.441 49.441 0 0049.38-49.39V7.3l-5.64-1.57zm-1.53 59A42.31 42.31 0 0150.32 107h-.88A42.31 42.31 0 017.17 64.73V16.06h85.46l-.05 48.67z" fill="#0072BC"></path><path d="M26.05 83.98l3.26 3.3-.86.84-1.17-1.19-3.13 3.09-.9-.92 3.13-3.08-1.18-1.2.85-.84zM32.55 89.51a2.801 2.801 0 01.89 4.06 2.83 2.83 0 01-4.07.78 2.778 2.778 0 01-.9-4 2.841 2.841 0 014.08-.79v-.05zm-2.52 3.89a1.55 1.55 0 002.28-.53 1.62 1.62 0 10-2.7-1.78 1.642 1.642 0 00.42 2.31zM36.189 91.79l1.22.42.87 2.79 2.3-1.71 1.15.39-1.81 5.3-1.21-.41 1.15-3.38-2.18 1.57-.17-.06-.78-2.55-1.14 3.36-1.21-.42 1.81-5.3zM43.249 95.45a1.67 1.67 0 012-1.38 2.28 2.28 0 011.56.82l-.81.87a1.059 1.059 0 00-.79-.48c-.35-.05-.58.09-.61.34-.12.92 2.23 1 2 2.8a1.742 1.742 0 01-2.11 1.39 2.11 2.11 0 01-1.77-1.15l.84-.77a1.571 1.571 0 001.11.74c.33 0 .55-.1.58-.36.11-.84-2.23-1-2-2.82zM48.809 94.49l1.28-.03.06 2.44 1.77-2.48 1.54-.04-2.04 2.63 2.34 2.96-1.63.04-1.97-2.62.06 2.67-1.28.02-.13-5.59zM57.178 96.307l-2.084.33.175 1.107 2.084-.331-.175-1.106zM59.43 93.21l.83-.23 1.53 5.38-1.15.33-1.06-3.75-.44.53-.87-.78 1.16-1.48zM63.72 96.19a1.45 1.45 0 01.17-1.65 1.47 1.47 0 01-1.22-.9 1.66 1.66 0 011.07-2.13 1.681 1.681 0 012.34.53 1.48 1.48 0 01-.17 1.54 1.29 1.29 0 011.41.79c.45 1-.06 1.85-1.12 2.35s-2.08.33-2.48-.53zm1-2.73a.5.5 0 00.27-.7c-.13-.28-.4-.36-.77-.19a.521.521 0 10.41.94l.09-.05zm.42 1.13a.622.622 0 00-.38.83c.13.29.44.44.91.22.47-.22.56-.57.43-.85a.6.6 0 00-.87-.24l-.09.04zM66.578 90.13l2.98-2.16.48.67 1.26 4.98-1.06.77-1.14-4.61-1.82 1.32-.7-.97zM73.492 90.07a1.47 1.47 0 01-.42-1.6 1.43 1.43 0 01-1.45-.4 1.94 1.94 0 012.61-2.71 1.47 1.47 0 01.4 1.49 1.29 1.29 0 011.6.24 1.73 1.73 0 01-.21 2.59c-.81.84-1.83 1-2.52.39h-.01zm.01-2.91a.51.51 0 000-.75c-.23-.22-.5-.2-.79.1a.51.51 0 10.71.72l.08-.07zm.79.9a.63.63 0 00-.06.92c.22.22.56.25.93-.12s.32-.74.1-.95a.599.599 0 00-.9.08l-.07.07z" fill="#0072BC"></path><path d="M112.039 39.55h10.9v2.17h-4.29v11.05h-2.32V41.72h-4.29v-2.17zM126.851 44.06a4.462 4.462 0 014.182 5.43 4.46 4.46 0 01-8.812-.97 4.334 4.334 0 011.327-3.255 4.338 4.338 0 013.303-1.205zm0 6.9a2.428 2.428 0 002.528-2.816 2.425 2.425 0 00-1.868-1.982 2.432 2.432 0 00-2.96 2.358 2.28 2.28 0 002.3 2.44zM146.182 52.77h-2.17v-5c0-1.06-.43-1.62-1.45-1.62a1.903 1.903 0 00-1.76 1v5.62h-2.17v-5.14a1.326 1.326 0 00-.362-1.072 1.32 1.32 0 00-1.058-.398 2.094 2.094 0 00-1.78.9v5.71h-2.17v-8.5h2.18v.92a3.61 3.61 0 012.67-1.09 2.46 2.46 0 012.47 1.36 3.442 3.442 0 012.87-1.36c1.55 0 2.72.77 2.72 3.1l.01 5.57zM148.071 46.65c0-1.66 1.36-2.59 3.12-2.59a4.71 4.71 0 013.25 1.13l-.81 1.55a3.999 3.999 0 00-2.31-.82c-.66 0-1.05.36-1.05.74 0 1.42 4.59.64 4.59 3.65 0 1.68-1.36 2.72-3.44 2.72a4.907 4.907 0 01-3.55-1.46l1-1.41a4.43 4.43 0 002.65 1.05c.62 0 1.11-.26 1.11-.79.03-1.43-4.56-.67-4.56-3.77zM156.641 39.55h2.17v13.22h-2.17V39.55zm4.8 8.64l3.57 4.61h-2.79l-3.36-4.44 3-4.06h2.74l-3.16 3.89zM113.001 61.99c0-2 1.55-3.65 4.12-3.65a5.067 5.067 0 013.78 1.42l-1.25 1.74a3.05 3.05 0 00-2.34-1c-1.15 0-1.85.58-1.85 1.45 0 2.74 6 1.87 6 6.27 0 2.23-1.95 3.74-4.42 3.74-1.7 0-3.69-.73-4.33-2.07l1.32-1.59a4 4 0 003.05 1.49c1.09 0 1.92-.55 1.92-1.55-.01-2.59-6-1.94-6-6.25zM123.36 60.91h2.17v2.36h2.74v2h-2.74v3.1c0 .93.3 1.53 1 1.53a2.07 2.07 0 001.3-.49l.66 1.68a4.002 4.002 0 01-2.51.83c-1.92 0-2.64-1.24-2.64-3.41l.02-7.6zM130.282 63.88a6.219 6.219 0 013-.81c2.51 0 3.4 1.28 3.4 3.53v5.18h-1.89v-1a3.004 3.004 0 01-2.51 1.1 2.47 2.47 0 01-2.66-2.61c0-1.87 1.38-2.76 3.09-2.76a3.531 3.531 0 011.93.55c.06-1.42-.32-2.19-1.58-2.19a4.757 4.757 0 00-2.23.59l-.55-1.58zm4.36 5.4v-.87a2.441 2.441 0 00-1.49-.41c-.72 0-1.36.34-1.36 1.06s.53 1 1.21 1a1.849 1.849 0 001.64-.78zM138.731 60.91h2.17v2.36h2.74v2h-2.74v3.1c0 .93.31 1.53 1 1.53.479-.01.941-.183 1.31-.49l.66 1.68a4.07 4.07 0 01-2.51.83c-1.93 0-2.65-1.24-2.65-3.41l.02-7.6zM152.668 70.93a5.128 5.128 0 01-3.25 1 4.462 4.462 0 01-4.707-4.413 4.472 4.472 0 011.352-3.238 4.452 4.452 0 013.275-1.259 3.889 3.889 0 014 4 3.7 3.7 0 01-.14 1.17h-6.14a2.35 2.35 0 002.56 2 3.998 3.998 0 002.39-.77l.66 1.51zm-5.65-4.2h4.17a1.778 1.778 0 00-1.94-1.85 2.1 2.1 0 00-2.23 1.85zM124.38 85.3c0 4-2.48 5.69-5.25 5.69-3.29 0-5.63-1.95-5.63-5.82v-7.61h2.32v7.12c0 2.47 1 4.14 3.31 4.14 2 0 2.94-1.42 2.94-4v-7.27h2.31v7.75zM127.02 82.28h2.17v.85a3.408 3.408 0 012.44-1c2.08 0 3.49 1 3.49 3.66v5h-2.17v-4.6a1.747 1.747 0 00-1.124-1.906 1.738 1.738 0 00-.786-.094 2.55 2.55 0 00-1.85.81v5.8h-2.17v-8.52zM138.569 77.96a1.25 1.25 0 011.25 1.26 1.276 1.276 0 01-.749 1.25c-.158.07-.329.108-.501.11a1.302 1.302 0 01-1.361-1.36 1.283 1.283 0 011.361-1.26zm-1.131 4.32h2.171v8.5h-2.171v-8.5zM146.49 90.82h-1.6l-3.91-8.54h2.58l1.57 3.65c.272.62.486 1.262.64 1.92.164-.68.374-1.349.63-2l1.47-3.61h2.29l-3.67 8.58zM158.319 89.93a5.079 5.079 0 01-3.25 1.06 4.46 4.46 0 01-.07-8.92 3.883 3.883 0 013.73 2.45c.195.493.287 1.02.27 1.55a4.05 4.05 0 01-.13 1.17h-6.14a2.342 2.342 0 002.55 2 3.907 3.907 0 002.4-.78l.64 1.47zm-5.64-4.19h4.17a1.773 1.773 0 00-1.233-1.778 1.785 1.785 0 00-.767-.072 2.082 2.082 0 00-2.17 1.85zM160.762 82.28h2.17v.83a2.21 2.21 0 011.95-1 2 2 0 011.32.32l-.78 2a1.83 1.83 0 00-1.09-.32 1.47 1.47 0 00-1.4.91v5.7h-2.17v-8.44zM167.061 84.66c0-1.66 1.36-2.59 3.11-2.59a4.69 4.69 0 013.27 1.12l-.81 1.55a4.001 4.001 0 00-2.3-.81c-.66 0-1.06.36-1.06.73 0 1.42 4.59.65 4.59 3.65 0 1.68-1.36 2.72-3.44 2.72a4.997 4.997 0 01-3.55-1.45l1.06-1.42a4.349 4.349 0 002.64 1.06c.62 0 1.12-.27 1.12-.8-.04-1.42-4.63-.66-4.63-3.76zM176.889 77.96a1.242 1.242 0 011.24 1.26 1.282 1.282 0 01-.329.946 1.256 1.256 0 01-.911.414 1.302 1.302 0 01-1.274-.83 1.298 1.298 0 01-.086-.53 1.27 1.27 0 011.36-1.26zm-1.14 4.32h2.18v8.5h-2.18v-8.5zM180.25 79.92h2.19v2.36h2.74v2h-2.74v3.1c0 .93.3 1.53 1 1.53a2.09 2.09 0 001.3-.49l.7 1.77a3.998 3.998 0 01-2.51.83c-1.92 0-2.64-1.25-2.64-3.42l-.04-7.68zM192.24 90.78c-1.24 3-2 3.78-3.28 3.78a2.999 2.999 0 01-1.84-.66l.7-1.64c.266.174.572.277.89.3.55 0 .94-.44 1.3-1.33l.19-.45-3.93-8.5h2.61l2 4.65c.17.41.29.81.42 1.23.07-.423.17-.84.3-1.25l1.53-4.63h2.48l-3.37 8.5zM118.84 30.47l-4.65-5.85v5.85h-.85v-7.45h.72l4.65 5.88v-5.88h.85v7.45h-.72zM121.44 26.01a3.11 3.11 0 011.59-.43c1.37 0 1.84.71 1.84 1.95v2.94h-.8v-.62a1.85 1.85 0 01-1.54.69 1.366 1.366 0 01-1.379-.893 1.367 1.367 0 01-.081-.577c0-1 .77-1.53 1.8-1.53.422-.014.838.094 1.2.31 0-.89-.14-1.51-1.09-1.51a2.6 2.6 0 00-1.32.35l-.22-.68zm2.63 3.15v-.6a1.768 1.768 0 00-1.08-.32c-.51 0-1 .23-1 .78s.31.76.86.76a1.565 1.565 0 001.22-.59v-.03zM126.262 24.35h.85v1.33h1.76v.8h-1.76v2.09c0 .75.25 1.19.85 1.19.276-.004.543-.098.76-.27l.26.66c-.35.268-.78.41-1.22.4-1.07 0-1.5-.68-1.5-1.9v-4.3zM130.631 23.38a.506.506 0 01.48.313c.026.062.04.13.04.197a.527.527 0 01-.142.387.512.512 0 01-.378.163.53.53 0 01-.56-.55.52.52 0 01.56-.51zm-.45 2.3h.85v4.79h-.85v-4.79zM134.91 25.58a2.496 2.496 0 012.274 1.578 2.497 2.497 0 01-.573 2.707 2.501 2.501 0 01-4.251-1.785 2.436 2.436 0 011.567-2.345 2.43 2.43 0 01.983-.155zm0 4.2a1.6 1.6 0 001.65-1.7 1.649 1.649 0 10-3.169.692 1.657 1.657 0 001.519 1.008zM138.711 25.68h.85v.59a2.24 2.24 0 011.56-.67c1.25 0 2 .6 2 2.1v2.77h-.85v-2.61c0-1-.46-1.46-1.35-1.46a1.839 1.839 0 00-1.35.61v3.46h-.85l-.01-4.79zM144.61 26.01a3.108 3.108 0 011.59-.43c1.36 0 1.84.71 1.84 1.95v2.94h-.81v-.62a1.824 1.824 0 01-1.53.69 1.378 1.378 0 01-1.47-1.47c0-1 .78-1.53 1.81-1.53a2.19 2.19 0 011.19.31c0-.89-.13-1.51-1.08-1.51a2.54 2.54 0 00-1.32.35l-.22-.68zm2.62 3.15v-.6a1.74 1.74 0 00-1.07-.32c-.51 0-1 .23-1 .78s.31.76.86.76a1.521 1.521 0 001.21-.59v-.03zM149.488 23.02h.86v5.79c0 .65.16.95.56.95.221-.012.433-.088.61-.22l.19.65a1.75 1.75 0 01-1.13.36c-.72 0-1.09-.43-1.09-1.36v-6.17zM155.32 30.47v-7.45h2c2 0 2.65 1 2.65 2.22a2.136 2.136 0 01-1.62 2.1l2.48 3.15h-1.11l-2.28-3h-1.22v3l-.9-.02zm.9-6.59v2.76h1.1a1.549 1.549 0 001.69-1.41c0-.77-.43-1.38-1.74-1.38l-1.05.03zM165.638 29.95a2.758 2.758 0 01-1.79.63 2.377 2.377 0 01-2.41-1.505 2.395 2.395 0 01-.16-.995 2.362 2.362 0 01.674-1.805 2.345 2.345 0 011.796-.695 2.146 2.146 0 011.584.615 2.133 2.133 0 01.636 1.575c.019.19.019.38 0 .57h-3.73a1.53 1.53 0 00.526 1.079 1.516 1.516 0 001.144.361 2.198 2.198 0 001.47-.5l.26.67zm-3.45-2.3h2.9a1.269 1.269 0 00-1.38-1.28 1.429 1.429 0 00-1.52 1.28zM166.97 26.93c0-.84.68-1.35 1.63-1.35a2.37 2.37 0 011.64.56l-.4.65a1.79 1.79 0 00-1.2-.47c-.48 0-.77.28-.77.6 0 1 2.59.53 2.59 2.21 0 1-.9 1.45-1.85 1.45a2.375 2.375 0 01-1.77-.75l.48-.6c.372.36.862.574 1.38.6.45 0 .85-.22.85-.66 0-.98-2.58-.49-2.58-2.24zM175.752 29.95a2.76 2.76 0 01-1.8.63 2.383 2.383 0 01-2.401-1.508 2.383 2.383 0 01-.159-.992 2.345 2.345 0 011.497-2.345c.31-.12.641-.173.973-.155a2.138 2.138 0 012.22 2.19c.004.192-.016.383-.06.57h-3.67a1.517 1.517 0 001.053 1.374c.196.063.402.085.607.066a2.201 2.201 0 001.47-.5l.27.67zm-3.46-2.3h2.9a1.27 1.27 0 00-1.38-1.28 1.438 1.438 0 00-1.52 1.28zM177.292 26.01a3.15 3.15 0 011.6-.43c1.36 0 1.84.71 1.84 1.95v2.94h-.81v-.62a1.841 1.841 0 01-1.53.69 1.37 1.37 0 01-1.47-1.47c0-1 .77-1.53 1.81-1.53a2.19 2.19 0 011.19.31c0-.89-.14-1.51-1.09-1.51a2.6 2.6 0 00-1.32.35l-.22-.68zm2.63 3.15v-.6a1.771 1.771 0 00-1.08-.32c-.51 0-1 .23-1 .78s.31.76.86.76a1.558 1.558 0 001.22-.59v-.03zM182.191 25.68h.86v.57a1.345 1.345 0 011.2-.65c.261-.029.522.035.74.18l-.3.8a.999.999 0 00-.64-.18 1.06 1.06 0 00-1 .68v3.39h-.86v-4.79zM189.832 29.78a2.305 2.305 0 01-1.84.8 2.501 2.501 0 11-.13-5 2.622 2.622 0 011.88.62l-.39.67a2.002 2.002 0 00-1.38-.5 1.71 1.71 0 00.09 3.41 1.831 1.831 0 001.38-.59l.39.59zM190.901 23.02h.85v3.22a2.288 2.288 0 011.56-.64c1.25 0 2 .63 2 2.13v2.74h-.87v-2.63c0-.95-.46-1.44-1.34-1.44a1.904 1.904 0 00-1.36.6v3.47h-.85l.01-7.45z" fill="#231F20"></path></g>
                </svg>