<?xml version="1.0" encoding="utf-8"?>
<!-- Generator: Adobe Illustrator 27.5.0, SVG Export Plug-In . SVG Version: 6.00 Build 0)  -->
<svg version="1.1" id="Ebene_1" xmlns="http://www.w3.org/2000/svg" xmlns:xlink="http://www.w3.org/1999/xlink" x="0px" y="0px"
	 viewBox="0 0 582.9 205.3" style="enable-background:new 0 0 582.9 205.3;" xml:space="preserve">
<style type="text/css">
	.st0{fill:#0069B4;}
</style>
<g>
	<path class="st0" d="M204.8,90.8L186,86.4l16-10.8l-23.9-0.3l0.5,2.8l15.1-0.1v0.1l-13.9,9.4l16.3,3.9v0.1L182,96.8l0.5,2.8
		L204.8,90.8L204.8,90.8z M193,61.7l2.3-1.2l-5.6-10.7l-20,10.4l5.6,10.7l2.3-1.2l-4.3-8.2l7.5-3.9l4.2,8l2.3-1.2l-4.1-8l5.6-2.9
		L193,61.7L193,61.7z M174.7,47.3c5.5-5.1,4.3-11.7-0.3-16.8l-3.1-3.4l-16.6,15.2l3.1,3.4C162.5,50.9,169,52.5,174.7,47.3
		L174.7,47.3z M172.7,45.3c-4.8,4.4-9.7,2.2-13.6-2l-0.7-0.7l12.8-11.8l0.7,0.7C175.7,35.8,177.5,40.9,172.7,45.3L172.7,45.3z
		 M150.7,39.1l2.9-25.6l-21.3,14.6l2.6,1.6l5.1-3.5l8.9,5.3l-0.7,6.2L150.7,39.1L150.7,39.1z M150.4,18.8l-1.3,9.9l-6.9-4.1
		L150.4,18.8L150.4,18.8z M122.5,13.1l12.3-7.3l-3.6-0.9L119.6,12l2.4-9.5l-2.7-0.7l-5.5,21.8l2.7,0.7l2.3-9.1l1.4-0.8l5.7,12.2
		l3.7,0.9L122.5,13.1L122.5,13.1z M105.6,23.2l3-0.1L97.1,0l-10,23.8l3-0.1l2.4-5.7l10.3-0.3L105.6,23.2L105.6,23.2z M101.6,15.1
		l-8,0.2l3.7-9.2L101.6,15.1L101.6,15.1z M79.8,15.2l-0.3-0.8l-8.4,3.1l0.9,2.4l5.5-2c1.2,3.5-1.3,7.6-4.6,8.8
		c-4.6,1.7-9.8-1.1-11.4-5.6c-1.8-4.7,0.5-9.9,5.2-11.7c2.6-1,5.6-0.5,7.9,1L75.8,8c-3-1.8-6.8-2.1-10.1-0.9
		c-6.1,2.3-9.1,9-6.8,15.1c2.2,5.8,8.8,9.2,14.7,7C79.5,26.9,81.9,21,79.8,15.2L79.8,15.2z M48,31.8c2.4-2.3,2.5-5.7,0.5-8.3
		c-1.3-1.7-3.4-2.8-5.6-2.5c-2,0.3-3.8,1.5-5.4,2.8l-2.7,2l13.6,17.9l2.2-1.7l-5.7-7.6l0.9-0.7l11,3.6l2.7-2.1L48,31.8L48,31.8z
		 M44.2,32.1l-0.7,0.5l-4.9-6.5l0.6-0.5c2.2-1.7,5.2-3.3,7.3-0.5C48.7,28.1,46.5,30.4,44.2,32.1L44.2,32.1z M27.3,47.3l-4.9-4
		l5.9-7.2l-2-1.6l-7.6,9.4l17.4,14.2l7.6-9.4l-2-1.6l-5.9,7.2l-6.6-5.4l5.7-7l-2-1.6L27.3,47.3L27.3,47.3z M20,62.5
		c0-1.7-1.3-3.3-2.8-4c-4.6-2.2-7.3,1-9.1,4.8l-1.2,2.5l20.3,9.7l2.3-4.7c1.7-3.6,1.7-7.8-2.3-9.8C24.7,59.8,21.6,60.3,20,62.5
		L20,62.5L20,62.5z M17.4,66.8l-0.3,0.6l-6.7-3.2l0.3-0.7c1.1-2.4,2.5-4.1,5.4-2.7C19,62.2,18.5,64.4,17.4,66.8L17.4,66.8z
		 M19.8,66.9c1.1-2.3,3.1-4.9,5.9-3.5c2.9,1.4,2.4,4.2,1.3,6.5l-0.9,1.9l-7-3.3L19.8,66.9L19.8,66.9z M14.6,93.6L0.4,93.3l-0.1,2.8
		l13.3,0.3c3.7,0.1,7,1.2,7,5.6c-0.1,4.3-3.5,5.4-7.2,5.3L0.1,107L0,109.8l14.2,0.3c5,0.1,8.8-2.9,8.9-8.1
		C23.3,96.9,19.5,93.7,14.6,93.6L14.6,93.6z M4,119.9l-2.5,0.6l3.1,13.1l2.5-0.6l-1.2-5.2l19.4-4.6l-0.6-2.7l-19.4,4.6L4,119.9
		L4,119.9z M43.8,157.3l-15,16.7l2.1,1.9l7.4-8.2l5.8,5.2l1.7-1.9l-5.8-5.2l4.2-4.7l6,5.4l1.7-1.9L43.8,157.3L43.8,157.3z M55.8,168
		l-11.1,19.6l2.4,1.4l4.7-8.3l1,0.6l1.1,11.5l3,1.7l-1.3-12c3,1.3,6.2,0,7.8-2.8c1.1-1.9,1.2-4.2,0.1-6.1c-1.1-1.8-2.9-2.9-4.6-3.8
		L55.8,168L55.8,168z M53,178.7l4-7.1l0.6,0.4c2.4,1.4,5.1,3.5,3.3,6.5c-1.8,3.1-4.7,2-7.2,0.6L53,178.7L53,178.7z M71.5,176.7
		l-6.6,21.5l11.6,3.5l0.7-2.5l-8.9-2.7l2.5-8.1l8.6,2.6l0.7-2.5l-8.6-2.6l1.8-6l8.9,2.7l0.7-2.5L71.5,176.7L71.5,176.7z M89.1,181.5
		l-2.7,22.3l2.8,0.3l2.7-22.3L89.1,181.5L89.1,181.5z M101.7,182.7l-2.7,0.1l0.8,22.5l5.2-0.2c4-0.1,7.7-2.1,7.6-6.6
		c-0.1-2.6-2-5.2-4.7-5.5v-0.1c1.5-0.8,2.3-2.7,2.3-4.4C110,183.5,105.9,182.6,101.7,182.7L101.7,182.7z M102.2,194.9l1.7-0.1
		c2.5-0.1,5.8,0.4,5.9,3.6c0.1,3.2-2.6,4.1-5.2,4.2l-2.1,0.1L102.2,194.9L102.2,194.9z M101.9,185.2h0.8c2.6-0.1,4.8,0.4,4.9,3.5
		c0.1,3.2-2,3.8-4.7,3.9h-0.7L101.9,185.2L101.9,185.2z M128.1,178.3l-11.6,3.4l6.3,21.6l11.6-3.4l-0.7-2.5l-8.9,2.6l-2.4-8.2
		l8.7-2.5l-0.7-2.5l-8.7,2.5l-1.8-6l8.9-2.6L128.1,178.3L128.1,178.3z M133.1,176.7l10.8,19.7l2.5-1.4l-4.6-8.3l1-0.6l10.4,5.1
		l3-1.6l-10.9-5.2c2.7-1.9,3.3-5.3,1.7-8.1c-1-1.9-3-3.2-5.2-3.3c-2.1,0-4,1-5.7,1.9L133.1,176.7L133.1,176.7z M136.8,177.6l0.7-0.4
		c2.4-1.3,5.6-2.5,7.3,0.6c1.7,3.1-0.7,5.1-3.2,6.5l-0.8,0.4L136.8,177.6L136.8,177.6z M155.1,177.7c4.2,4.6,11.6,5.2,16.3,0.9
		c4.6-4.3,4.6-10.7,0.5-15.2l-0.6-0.7l-6.6,6l1.7,1.9l4.3-3.9c2.4,2.8,1.7,7.6-0.9,9.9c-3.6,3.3-9.5,2.6-12.7-0.9
		c-3.4-3.7-3.3-9.4,0.5-12.8c2-1.9,5-2.6,7.7-2.1l0.2-2.7c-3.5-0.6-7.1,0.6-9.7,3C151,165.5,150.7,172.9,155.1,177.7L155.1,177.7z
		 M181.1,115.6l-3,11.7l2.5,0.6l2.3-9l8.2,2.1l-2.2,8.7l2.5,0.6l2.2-8.7l6.1,1.5l-2.3,9l2.5,0.6l3-11.7L181.1,115.6L181.1,115.6z
		 M181.6,108.1l22.4,1.6l0.2-2.8l-22.4-1.6L181.6,108.1L181.6,108.1z M19.8,150c0,1.5,1.3,2.8,2.8,2.8s2.8-1.3,2.8-2.8
		s-1.3-2.8-2.8-2.8S19.8,148.4,19.8,150z M178.9,150c0,1.5,1.3,2.8,2.8,2.8s2.8-1.3,2.8-2.8s-1.3-2.8-2.8-2.8S178.9,148.4,178.9,150
		z"/>
	<g>
		<path class="st0" d="M276.8,38.8v63.8h-18.3V38.8h-17.2V23.4H294v15.4H276.8z"/>
		<path class="st0" d="M370.6,70.3c0,7.6-1,17-8.8,25.1c-7.6,7.8-16.4,9-24.7,9c-8.3,0-17.1-1.2-24.7-9c-7.8-8.1-8.8-17.5-8.8-25.1
			V23.4h18.3v46.4c0,3.4,0.2,9.3,4.2,13.3c3.2,3.4,7.6,4.2,11,4.2s7.8-0.7,11-4.2c3.9-4,4.2-9.9,4.2-13.3V23.4h18.3V70.3z"/>
		<path class="st0" d="M439.8,65.6c-2.9-2.9-7.1-4.8-10.9-5.3c1.9-0.8,4.6-2.5,6.7-5.8c2.1-3.4,2.6-7,2.6-10.1
			c0-3.4-0.6-10.1-5.7-15c-6.2-5.8-15.9-6.1-20.2-6.1h-24.2v79.2h29.8c4.9,0,14.4-0.5,20.9-6.8c3.1-3.1,6.2-8.1,6.2-16
			C444.9,72.8,442.4,68.3,439.8,65.6z M406,37.6h2.8c3.3,0,6.9,0,9.5,2c1.4,1.1,3.1,3.2,3.1,6.7c0,3.4-1.5,5.8-3.2,7
			c-2.6,1.9-6.8,2.3-9.3,2.3h-3v-18H406z M424,85.1c-3.3,3.1-8.9,3.2-13.5,3.2h-4.4V69.1h5c3.7,0,9.9,0,13.1,3
			c1.2,1.1,2.5,3.2,2.5,6.4C426.6,81.3,425.6,83.6,424,85.1z"/>
		<path class="st0" d="M498.8,23.4h-16.7l-32,79.2h19l6.1-15h29.9l5.9,15h19L498.8,23.4z M480.5,73.6l9.9-26.6l9.7,26.6H480.5z"/>
		<path class="st0" d="M582.9,38.8h-25.7v15.3H581v15.4h-23.8v33h-18.3V23.3h44V38.8z"/>
	</g>
	<g>
		<path class="st0" d="M257.4,129.2h4.3c2.1,0,5.1,0.2,7.7,2.4c1.9,1.6,3.6,4.3,3.6,8c0,4.4-2.2,6.7-3.7,8c-1.9,1.6-3.9,2.4-7.6,2.4
			h-4.2L257.4,129.2L257.4,129.2z M259.7,147.9h2c1.7,0,3.9-0.2,6-1.9c1.6-1.3,2.8-3.4,2.8-6.4c0-5-3.5-8.3-8.8-8.3h-2V147.9z"/>
		<path class="st0" d="M277.8,130.6c0.9,0,1.6,0.7,1.6,1.6s-0.7,1.6-1.6,1.6s-1.6-0.7-1.6-1.6C276.2,131.3,276.9,130.6,277.8,130.6z
			 M278.9,137.1v13h-2.3v-13H278.9z"/>
		<path class="st0" d="M294.7,146.8c-0.4,0.7-0.9,1.5-1.6,2.1c-1.2,1.1-2.7,1.6-4.3,1.6c-3.1,0-6.4-2-6.4-6.8c0-3.9,2.4-6.9,6.3-6.9
			c2.5,0,4.1,1.3,4.9,2.4c0.8,1.2,1.3,3.2,1.2,4.9h-10.1c0,2.7,1.9,4.4,4.1,4.4c1.1,0,1.9-0.3,2.7-0.9c0.6-0.5,1.1-1.2,1.3-1.8
			L294.7,146.8z M292.5,142.2c-0.4-2-1.9-3.4-3.8-3.4s-3.5,1.4-3.8,3.4H292.5z"/>
		<path class="st0" d="M309.4,129.2c1.4,0,3.5,0.1,5.1,1.2c1.2,0.8,2.3,2.4,2.3,4.6c0,3.2-2.1,5.5-5.3,5.8l6.6,9.3h-2.8l-6.4-9.1
			h-0.6v9.1H306v-20.9H309.4z M308.4,138.9h1.5c2.9,0,4.6-1.4,4.6-3.8c0-1.2-0.3-2.3-1.7-3.1c-0.9-0.5-2-0.6-3-0.6h-1.4V138.9z"/>
		<path class="st0" d="M332.2,146.8c-0.4,0.7-0.9,1.5-1.6,2.1c-1.2,1.1-2.7,1.6-4.3,1.6c-3.1,0-6.4-2-6.4-6.8c0-3.9,2.4-6.9,6.3-6.9
			c2.5,0,4.1,1.3,4.9,2.4c0.8,1.2,1.3,3.2,1.2,4.9h-10.1c0,2.7,1.9,4.4,4.1,4.4c1.1,0,1.9-0.3,2.7-0.9c0.6-0.5,1.1-1.2,1.3-1.8
			L332.2,146.8z M329.9,142.2c-0.4-2-1.9-3.4-3.8-3.4s-3.5,1.4-3.8,3.4H329.9z"/>
		<path class="st0" d="M341,140.1c-0.3-0.8-1-1.3-1.8-1.3s-1.6,0.5-1.6,1.5c0,0.9,0.6,1.2,2.1,1.8c1.9,0.8,2.8,1.4,3.3,2
			c0.6,0.7,0.7,1.4,0.7,2.1c0,2.7-2,4.3-4.5,4.3c-0.5,0-3.4-0.1-4.5-3.3l1.9-0.8c0.3,0.7,1,2.1,2.6,2.1c1.5,0,2.1-1.1,2.1-2.1
			c0-1.2-0.9-1.6-2.1-2.2c-1.6-0.7-2.6-1.2-3.2-1.9c-0.5-0.6-0.6-1.3-0.6-1.9c0-2.3,1.6-3.6,3.8-3.6c0.7,0,2.5,0.1,3.6,2.3
			L341,140.1z"/>
		<path class="st0" d="M352.1,140.1c-0.3-0.8-1-1.3-1.8-1.3s-1.6,0.5-1.6,1.5c0,0.9,0.6,1.2,2.1,1.8c1.9,0.8,2.8,1.4,3.3,2
			c0.6,0.7,0.7,1.4,0.7,2.1c0,2.7-2,4.3-4.5,4.3c-0.5,0-3.4-0.1-4.5-3.3l1.9-0.8c0.3,0.7,1,2.1,2.6,2.1c1.5,0,2.1-1.1,2.1-2.1
			c0-1.2-0.9-1.6-2.1-2.2c-1.6-0.7-2.6-1.2-3.2-1.9c-0.5-0.6-0.6-1.3-0.6-1.9c0-2.3,1.6-3.6,3.8-3.6c0.7,0,2.5,0.1,3.6,2.3
			L352.1,140.1z"/>
		<path class="st0" d="M356.9,143.6c0-3.9,2.9-6.9,6.9-6.9s6.9,2.9,6.9,6.9c0,3.9-2.9,6.8-6.9,6.8
			C359.9,150.5,356.9,147.6,356.9,143.6z M359.2,143.6c0,3.2,2.3,4.8,4.6,4.8c2.3,0,4.6-1.7,4.6-4.8c0-3.2-2.2-4.9-4.6-4.9
			C361.4,138.8,359.2,140.5,359.2,143.6z"/>
		<path class="st0" d="M376.4,144.7c0,0.9,0,2,0.6,2.8c0.3,0.4,1,1,2.3,1s1.9-0.6,2.3-1c0.6-0.8,0.6-1.9,0.6-2.8v-7.6h2.3v7.8
			c0,1.6-0.2,2.8-1.2,3.9c-1.2,1.2-2.7,1.6-4,1.6s-2.8-0.4-4-1.6c-1-1.1-1.2-2.3-1.2-3.9v-7.8h2.3L376.4,144.7L376.4,144.7z"/>
		<path class="st0" d="M388.8,137.1h2.3v1.4c0.2-0.3,1.2-1.7,2.9-1.7c0.7,0,1.4,0.3,2,0.5l-1.1,2c-0.5-0.3-1-0.4-1.3-0.4
			c-0.9,0-1.5,0.4-1.8,0.8c-0.4,0.5-0.8,1.4-0.8,3.5v6.9h-2.3L388.8,137.1L388.8,137.1z"/>
		<path class="st0" d="M407.5,140.7c-1.2-1.5-2.9-1.9-4.1-1.9c-2.4,0-4.6,1.7-4.6,4.9c0,3.2,2.3,4.8,4.6,4.8c1.3,0,3-0.6,4.2-2v2.7
			c-1.4,1-2.9,1.3-4.1,1.3c-4,0-7-2.9-7-6.8c0-4,2.9-6.9,7-6.9c2.1,0,3.4,0.8,4,1.3L407.5,140.7L407.5,140.7z"/>
		<path class="st0" d="M422.5,146.8c-0.4,0.7-0.9,1.5-1.6,2.1c-1.2,1.1-2.7,1.6-4.3,1.6c-3.1,0-6.4-2-6.4-6.8c0-3.9,2.4-6.9,6.3-6.9
			c2.5,0,4.1,1.3,4.9,2.4c0.8,1.2,1.3,3.2,1.2,4.9h-10.1c0,2.7,1.9,4.4,4.1,4.4c1.1,0,1.9-0.3,2.7-0.9c0.6-0.5,1.1-1.2,1.3-1.8
			L422.5,146.8z M420.3,142.2c-0.4-2-1.9-3.4-3.8-3.4s-3.5,1.4-3.8,3.4H420.3z"/>
		<path class="st0" d="M426.1,137.1h2.3v1.5c0.4-0.5,1.6-1.8,3.7-1.8c1.5,0,2.9,0.6,3.7,1.8c0.7,1,0.8,2,0.8,3.5v8.1h-2.3v-8
			c0-0.8-0.1-1.7-0.6-2.4c-0.4-0.6-1.1-0.9-2.1-0.9c-0.8,0-1.6,0.2-2.3,1c-0.9,1-0.9,2.6-0.9,3.5v6.8h-2.3L426.1,137.1L426.1,137.1z
			"/>
		<path class="st0" d="M443.1,144.7c0,0.9,0,2,0.6,2.8c0.3,0.4,1,1,2.3,1s1.9-0.6,2.3-1c0.6-0.8,0.6-1.9,0.6-2.8v-7.6h2.3v7.8
			c0,1.6-0.2,2.8-1.2,3.9c-1.2,1.2-2.7,1.6-4,1.6s-2.8-0.4-4-1.6c-1-1.1-1.2-2.3-1.2-3.9v-7.8h2.3L443.1,144.7L443.1,144.7z"/>
		<path class="st0" d="M455.4,137.1h2.3v1.5c0.4-0.5,1.6-1.8,3.7-1.8c1.5,0,2.9,0.6,3.7,1.8c0.7,1,0.8,2,0.8,3.5v8.1h-2.3v-8
			c0-0.8-0.1-1.7-0.6-2.4c-0.4-0.6-1.1-0.9-2.1-0.9c-0.8,0-1.6,0.2-2.3,1c-0.9,1-0.9,2.6-0.9,3.5v6.8h-2.3L455.4,137.1L455.4,137.1z
			"/>
		<path class="st0" d="M471.2,130.6c0.9,0,1.6,0.7,1.6,1.6s-0.7,1.6-1.6,1.6c-0.9,0-1.6-0.7-1.6-1.6
			C469.6,131.3,470.4,130.6,471.2,130.6z M472.4,137.1v13h-2.3v-13H472.4z"/>
		<path class="st0" d="M477.3,137.1l3.9,8.8l3.9-8.8h2.5l-6.4,13.8l-6.4-13.8H477.3z"/>
		<path class="st0" d="M501.4,146.8c-0.4,0.7-0.9,1.5-1.6,2.1c-1.2,1.1-2.7,1.6-4.3,1.6c-3.1,0-6.4-2-6.4-6.8c0-3.9,2.4-6.9,6.3-6.9
			c2.5,0,4.1,1.3,4.9,2.4c0.8,1.2,1.3,3.2,1.2,4.9h-10.1c0,2.7,1.9,4.4,4.1,4.4c1.1,0,1.9-0.3,2.7-0.9c0.6-0.5,1.1-1.2,1.3-1.8
			L501.4,146.8z M499.2,142.2c-0.4-2-1.9-3.4-3.8-3.4c-1.9,0-3.5,1.4-3.8,3.4H499.2z"/>
		<path class="st0" d="M505,137.1h2.3v1.4c0.2-0.3,1.2-1.7,2.9-1.7c0.7,0,1.4,0.3,2,0.5l-1.1,2c-0.5-0.3-1-0.4-1.3-0.4
			c-0.9,0-1.5,0.4-1.8,0.8c-0.4,0.5-0.8,1.4-0.8,3.5v6.9h-2.3L505,137.1L505,137.1z"/>
		<path class="st0" d="M519.3,140.1c-0.3-0.8-1-1.3-1.8-1.3s-1.6,0.5-1.6,1.5c0,0.9,0.6,1.2,2.1,1.8c1.9,0.8,2.8,1.4,3.3,2
			c0.6,0.7,0.7,1.4,0.7,2.1c0,2.7-2,4.3-4.5,4.3c-0.5,0-3.4-0.1-4.5-3.3l1.9-0.8c0.3,0.7,1,2.1,2.6,2.1c1.5,0,2.1-1.1,2.1-2.1
			c0-1.2-0.9-1.6-2.1-2.2c-1.6-0.7-2.6-1.2-3.2-1.9c-0.5-0.6-0.6-1.3-0.6-1.9c0-2.3,1.6-3.6,3.8-3.6c0.7,0,2.5,0.1,3.6,2.3
			L519.3,140.1z"/>
		<path class="st0" d="M526.1,130.6c0.9,0,1.6,0.7,1.6,1.6s-0.7,1.6-1.6,1.6s-1.6-0.7-1.6-1.6C524.5,131.3,525.2,130.6,526.1,130.6z
			 M527.2,137.1v13h-2.3v-13H527.2z"/>
		<path class="st0" d="M533.8,139.2v10.9h-2.3v-10.9h-1.4v-2.1h1.4v-4.7h2.3v4.7h2.3v2.1H533.8z"/>
		<path class="st0" d="M548.1,137.1h2.3v13h-2.3v-1.8c-0.8,1-2.2,2.2-4.4,2.2c-3.3,0-6.3-2.3-6.3-6.9c0-4.5,3-6.8,6.3-6.8
			c2.5,0,3.9,1.4,4.4,2.2V137.1z M539.7,143.6c0,2.8,1.6,4.9,4.3,4.9c2.8,0,4.3-2.3,4.3-4.9c0-3.4-2.3-4.8-4.3-4.8
			C541.7,138.8,539.7,140.4,539.7,143.6z M541.7,131.3c0.8,0,1.6,0.7,1.6,1.6c0,0.8-0.7,1.6-1.6,1.6c-0.8,0-1.6-0.7-1.6-1.6
			C540.1,132,540.8,131.3,541.7,131.3z M547.1,131.3c0.8,0,1.6,0.7,1.6,1.6c0,0.8-0.7,1.6-1.6,1.6c-0.8,0-1.6-0.7-1.6-1.6
			C545.6,132,546.3,131.3,547.1,131.3z"/>
		<path class="st0" d="M557,139.2v10.9h-2.3v-10.9h-1.4v-2.1h1.4v-4.7h2.3v4.7h2.3v2.1H557z"/>
		<path class="st0" d="M562.8,147.3c0.8,0,1.6,0.7,1.6,1.6c0,0.8-0.7,1.6-1.6,1.6c-0.8,0-1.6-0.7-1.6-1.6S561.9,147.3,562.8,147.3z"
			/>
		<path class="st0" d="M266.7,165.2c-0.3-0.6-0.8-1.2-1.2-1.6c-0.4-0.3-1.2-0.7-2.3-0.7c-2.1,0-3.5,1.3-3.5,3.2
			c0,0.8,0.2,1.3,0.8,1.8c0.6,0.6,1.4,1,2.2,1.3l2,0.9c1.2,0.5,2.3,1.1,3.2,2c1.1,1.1,1.5,2.3,1.5,3.8c0,3.9-2.9,6.4-6.6,6.4
			c-1.4,0-3.1-0.3-4.5-1.7c-1-1-1.7-2.4-1.9-3.7l2.3-0.6c0.2,1.1,0.7,2,1.3,2.7c0.9,0.9,1.9,1.2,3,1.2c2.9,0,4.2-2,4.2-4.1
			c0-0.9-0.3-1.8-1-2.4c-0.6-0.6-1.4-0.9-2.5-1.4l-1.9-0.9c-0.8-0.4-1.8-0.8-2.8-1.7c-0.9-0.9-1.4-1.8-1.4-3.4
			c0-3.2,2.5-5.4,5.9-5.4c1.3,0,2.3,0.3,3.4,0.9c0.8,0.6,1.6,1.4,2,2.3L266.7,165.2z"/>
		<path class="st0" d="M284.6,178.6c-0.4,0.7-0.9,1.5-1.6,2.1c-1.2,1.1-2.7,1.6-4.3,1.6c-3.1,0-6.4-2-6.4-6.8c0-3.9,2.4-6.9,6.3-6.9
			c2.5,0,4.1,1.3,4.9,2.4c0.8,1.2,1.3,3.2,1.2,4.9h-10.1c0,2.7,1.9,4.4,4.1,4.4c1.1,0,1.9-0.3,2.7-0.9c0.6-0.5,1.1-1.2,1.3-1.8
			L284.6,178.6z M282.4,174c-0.4-2-1.9-3.4-3.8-3.4s-3.5,1.4-3.8,3.4H282.4z"/>
		<path class="st0" d="M289.3,162.4c0.9,0,1.6,0.7,1.6,1.6s-0.7,1.6-1.6,1.6s-1.6-0.7-1.6-1.6C287.7,163.1,288.4,162.4,289.3,162.4z
			 M290.4,168.9v13h-2.3v-13H290.4z"/>
		<path class="st0" d="M297,171v10.9h-2.3V171h-1.4v-2.1h1.4v-4.7h2.3v4.7h2.3v2.1H297z"/>
		<path class="st0" d="M314.9,163.2h-3.5l1.2-2.2h4.6v20.9h-2.3L314.9,163.2L314.9,163.2z"/>
		<path class="st0" d="M334.3,163.2h-11.4V161h15.3l-14,21.4l-1.8-1.2L334.3,163.2z"/>
		<path class="st0" d="M348.5,161.9l-4.8,6.7c0.6-0.2,1.2-0.3,1.8-0.3c4,0,6.8,3,6.8,6.9c0,4.2-3,7.2-7.2,7.2
			c-4.9,0-7.2-3.8-7.2-7.1c0-0.8,0.2-2.6,1.7-4.8l7.1-9.9L348.5,161.9z M350,175.2c0-2.8-2.1-4.8-4.9-4.8c-2.9,0-4.9,2.1-4.9,4.8
			c0,2.8,2,5,4.9,5S350,178,350,175.2z"/>
		<path class="st0" d="M369.1,163.2h-6.7l-1.3,4.5c0.4-0.1,0.8-0.1,1.3-0.1c4.2,0,6.9,3.2,6.9,7.2c0,4.7-3.5,7.5-7.6,7.5
			c-1.7,0-3.3-0.5-4.7-1.6c-0.7-0.6-1.3-1.3-1.8-2.1l1.8-1.3c0.3,0.7,0.8,1.2,1.4,1.7c0.9,0.7,1.9,1.3,3.4,1.3
			c2.9,0,5.1-2.4,5.1-5.4s-2.2-5.1-5.1-5.1c-0.8,0-2.2,0.1-4,1.4l3-10.1h8.3L369.1,163.2L369.1,163.2z"/>
		<path class="st0" d="M374.8,179.1c0.8,0,1.6,0.7,1.6,1.6c0,0.8-0.7,1.6-1.6,1.6c-0.8,0-1.6-0.7-1.6-1.6
			C373.2,179.8,373.9,179.1,374.8,179.1z"/>
	</g>
	<g>
		<path class="st0" d="M109.1,102.6l22.6-23.4l5.6,5.6l23.1,11.5l-11.5-23l-5.8-5.8l1.6-1.7l-5.4-5.4l-1.7,1.6l-13.5-13.5L112.5,60
			l13.3,13.3l-21.2,20.5V64.3h0.5c2.2,0,3.9-1.8,3.9-3.9l-0.4-11h-4.4l0.4,9.8c0,0.4-0.3,0.7-0.7,0.7h-3.1c-0.4,0-0.7-0.3-0.7-0.7
			l0.4-9.8h-4.4l-0.4,11c0,2.2,1.8,3.9,3.9,3.9h0.5v29.5L77,71.5c4.9-4.4,10.5-8.1,16.5-11L82.4,47.8c-14.8,8.1-27,20.3-35.1,35.1
			L60,94c2.9-6.1,6.6-11.6,11-16.6l24.4,25.3l-36.9,35.6c-0.9,0.9-1,2.3-0.1,3.2c1.6,1.8,3.3,3.5,5.1,5.1c0.9,0.8,2.4,0.8,3.2-0.1
			l31.8-33l-0.4,3v0.9l-0.2,5.8v0.3v0.9l-0.1,3.5l0,0l-0.1,3.6l-0.1,0.3v0.9l-0.7,22.5c0,0,0,0,0,0.1v0.1c0,0.6,0.2,1.1,0.6,1.5
			c0.4,0.4,0.9,0.6,1.5,0.6l0,0h0.1h6.1h0.1h0.1c0.6,0,1.1-0.2,1.5-0.6s0.6-0.9,0.6-1.5l-0.7-22.9v-0.8v-0.1l-0.3-7.8v-0.5v-0.1
			l-0.2-5.9v-1l-0.1-0.6l-0.3-2.3l31.8,32.9c0.9,0.9,2.3,1,3.2,0.1c1.8-1.6,3.5-3.3,5.1-5.1c0.8-0.9,0.8-2.4-0.1-3.2L109.1,102.6z
			 M99.5,62.6c-1.2,0-2.3-1-2.3-2.2l0.4-9.4h1.1l-0.3,8.1c0,1.3,1.1,2.4,2.4,2.4h3.1c1.3,0,2.4-1.1,2.4-2.4L106,51h1.1l0.4,9.3
			c0,1.2-1,2.3-2.3,2.3h-2.1v32.8l-0.7,0.6l-0.6-0.6V62.6L99.5,62.6L99.5,62.6z M104.7,116.7L104.7,116.7l0.4,11.2l0,0l0.3,10.6v0.1
			l0.5,16.6c0,0.2-0.1,0.3-0.2,0.4c-0.1,0.1-0.3,0.2-0.4,0.2h-6.1c-0.2,0-0.3-0.1-0.4-0.2c-0.1-0.1-0.2-0.3-0.2-0.4l0.5-15.9
			c0-0.1,0-0.1,0-0.2l0.2-6.9v-0.4v-0.1l0.1-4l0,0l0.1-3.9v-0.2v-0.2v-0.1l0.2-6.8l0,0c0,0,0.3-2.4,0.7-5.2l1.8-1.8l1.8,1.9
			C104.4,114.3,104.7,116.7,104.7,116.7z M144.6,140.7l-4.3,4.3c-0.6,0.6-1.5,0.6-2.1,0l-6.6-7.1l0,0l-8.8-9.4l0,0l-1.1-1.2l0,0
			l-7.8-8.3l-0.6-0.6l-7.6-10.5c0-0.1-0.1-0.1-0.1-0.2l-3.3-3.3l-3.3,3.3c0,0-0.1,0.1-0.1,0.2l-7.6,10.5l-0.6,0.6l-8.9,9.5l0,0
			l-8.8,9.4l0,0l-6.6,7.1c-0.6,0.6-1.5,0.6-2.1,0l-4.3-4.3c-0.6-0.6-0.6-1.5,0-2.1l16.4-15.4l0.4-0.3l9.2-8.6l0.6-0.6l10.5-7.6
			c0.1,0,0.1-0.1,0.2-0.1l3.3-3.3L95.9,98l-8.3-8.3L69.3,71.4l-4.2,4.2l-1.8-1.8l6-6l1.8,1.8l16.5,16.5l14.8,14.8l13.8-13.8l0,0
			l13-13l-1-1c-1.1-1.1-1.1-2.8,0-3.9l5.1-4.3c1.1-1,2.7-1,3.8,0.1l2.8,2.8c1,1,1.1,2.7,0.1,3.8l-4.3,5.1c-1.1,1.1-2.8,1.1-3.9,0
			l-0.7-0.7l-12.7,12.7l0,0l-14.1,14.1l3.3,3.3c0,0,0.1,0.1,0.2,0.1l10.5,7.6l0.6,0.6l9.2,8.7l0.3,0.2l16.4,15.4
			C145.2,139.2,145.2,140.1,144.6,140.7z"/>
		<path class="st0" d="M132.6,74.1c0.5,0.5,1.4,0.5,1.9,0l3.7-3.9c0.5-0.5,0.5-1.9,0-2.4l-1.2-1.2c-0.5-0.5-1.9-0.5-2.4,0l-3.9,3.7
			c-0.5,0.5-0.5,1.4,0,1.9L132.6,74.1z"/>
	</g>
</g>
</svg>
