<?xml version="1.0" encoding="UTF-8" standalone="no"?>
<!-- Created with Inkscape (http://www.inkscape.org/) -->

<svg
   width="218.63638mm"
   height="31.930161mm"
   viewBox="0 0 218.63638 31.930161"
   version="1.1"
   id="svg1"
   xmlns="http://www.w3.org/2000/svg"
   xmlns:svg="http://www.w3.org/2000/svg">
  <defs
     id="defs1" />
  <g
     id="layer1"
     transform="translate(-39.994542,-108.78918)">
    <path
       id="path1"
       d="m 160.88682,116.42896 c 0.70385,0 1.34274,-0.28226 1.80735,-0.74103 l 3.14605,-3.90905 c 0.21595,-0.27689 0.55017,-0.45565 0.92876,-0.45565 0.0622,0 0.12281,0.006 0.1819,0.0149 2.06361,0.30734 3.50985,2.04971 3.50985,4.15635 l 10e-4,21.01653 c 0,2.32393 -1.8844,4.20833 -4.20922,4.20833 h -21.0349 c -2.32348,0 -4.20788,-1.8844 -4.20788,-4.20833 l 0.001,-21.01653 c 0,-2.10664 1.44668,-3.84901 3.5085,-4.15635 0.0592,-0.009 0.12142,-0.0149 0.18324,-0.0149 0.37724,0 0.71148,0.17876 0.92742,0.45565 l 3.14784,3.90905 c 0.46416,0.45877 1.12366,0.74103 1.82841,0.74103 1.41801,0 2.54659,-1.14919 2.54659,-2.56765 l -0.001,-1.32974 0.003,-3.28494 c 0,-0.25314 0.19848,-0.45745 0.45117,-0.45745 2.63754,0.21775 4.68592,2.3768 4.68592,5.07213 0,1.41846 1.17608,2.56765 2.59453,2.56765 m -0.95116,20.10569 c -1.09901,0 -2.05152,0.61963 -2.58692,1.5999 -0.22446,0.39383 -0.64963,0.65996 -1.13619,0.65996 h -0.48924 c -0.48522,0 -0.91129,-0.26613 -1.19266,-0.73208 -0.4776,-0.90815 -1.43144,-1.52778 -2.53046,-1.52778 h -6.10123 c -0.36695,0 -0.67429,-0.29884 -0.67429,-0.66576 l 0.003,-8.20339 c 0,-0.3665 0.27062,-0.68459 0.63889,-0.68459 h 6.13395 c 1.09902,0 2.05286,0.61828 2.58691,1.59901 0.22492,0.39471 0.65099,0.65995 1.13621,0.65995 h 0.48924 c 0.48656,0 0.91173,-0.26524 1.19264,-0.73253 0.47895,-0.90815 1.43146,-1.52643 2.53047,-1.52643 l 5.66083,0.003 c 0.36649,0 0.65502,0.29749 0.65502,0.66532 l -0.008,8.2222 c 0,0.36738 -0.30869,0.66622 -0.67608,0.66622 z"
       style="fill:#92d400;fill-opacity:1;fill-rule:evenodd;stroke:none;stroke-width:0.448028" />
    <path
       id="path2"
       d="m 44.32697,131.58967 h -1.088707 v 2.86246 c 0,0.76299 -0.30466,1.34586 -1.211467,1.34586 -0.591845,0 -0.945339,-0.3154 -0.945339,-1.18323 v -3.02509 h -1.086915 v 3.12993 c 0,1.28807 0.553314,1.93637 1.841394,1.93637 0.544354,0 1.136198,-0.32393 1.402327,-0.82079 h 0.01926 v 0.68773 h 1.069443 z"
       style="fill:#adafaf;fill-opacity:1;fill-rule:evenodd;stroke:none;stroke-width:0.448028" />
    <path
       id="path3"
       d="m 45.280776,136.52282 h 1.087363 v -2.91084 c 0,-0.7249 0.467293,-1.29748 1.192201,-1.29748 0.640233,0 0.944892,0.33467 0.964157,1.10618 v 3.10214 h 1.088707 v -3.38753 c 0,-1.10753 -0.678762,-1.68011 -1.746861,-1.68011 -0.649192,0 -1.211467,0.33468 -1.536734,0.87859 l -0.01927,-0.0193 v -0.72491 h -1.029567 z"
       style="fill:#adafaf;fill-opacity:1;fill-rule:evenodd;stroke:none;stroke-width:0.448028" />
    <path
       id="path4"
       d="m 50.595549,130.73923 h 1.086916 v -1.02956 h -1.086916 z m 0,5.78359 h 1.086916 v -4.93324 h -1.086916 z"
       style="fill:#adafaf;fill-opacity:1;fill-rule:evenodd;stroke:none;stroke-width:0.448028" />
    <path
       id="path5"
       d="m 53.981027,136.52282 h 1.221772 l 1.764782,-4.93324 h -1.125894 l -1.202506,3.78808 h -0.01747 l -1.251342,-3.78808 h -1.183241 z"
       style="fill:#adafaf;fill-opacity:1;fill-rule:evenodd;stroke:none;stroke-width:0.448028" />
    <path
       id="path6"
       d="m 58.282362,133.62201 c 0.02957,-0.73521 0.544354,-1.30735 1.298385,-1.30735 0.733869,0 1.201162,0.61964 1.239693,1.30735 z m 3.626785,0.7164 c 0.180555,-1.47939 -0.773743,-2.88305 -2.3284,-2.88305 -1.469979,0 -2.385748,1.2025 -2.385748,2.60572 0,1.51613 0.868278,2.59453 2.413974,2.59453 1.078402,0 1.994172,-0.60035 2.233418,-1.67876 h -1.030912 c -0.19086,0.54435 -0.572132,0.82079 -1.202506,0.82079 -0.906808,0 -1.326611,-0.68773 -1.326611,-1.45923 z"
       style="fill:#adafaf;fill-opacity:1;fill-rule:evenodd;stroke:none;stroke-width:0.448028" />
    <path
       id="path7"
       d="M 62.546692,136.52282 H 63.6354 v -2.34721 c 0,-1.08736 0.591397,-1.68952 1.33557,-1.68952 0.151882,0 0.314964,0.0282 0.467294,0.0475 v -1.04885 c -0.09633,-0.0102 -0.162635,-0.0296 -0.409498,-0.0296 -0.668905,0 -1.318097,0.56363 -1.442202,1.08871 h -0.01927 v -0.9543 h -1.020608 z"
       style="fill:#adafaf;fill-opacity:1;fill-rule:evenodd;stroke:none;stroke-width:0.448028" />
    <path
       id="path8"
       d="m 65.445564,134.93851 c 0.01927,1.16442 0.943546,1.71729 2.184583,1.71729 1.020607,0 2.203848,-0.42921 2.203848,-1.60349 0,-0.97312 -0.801521,-1.25896 -1.592738,-1.4404 -0.801521,-0.18056 -1.603491,-0.25762 -1.603491,-0.79167 0,-0.42877 0.582883,-0.50539 0.897847,-0.50539 0.476254,0 0.905464,0.14338 1.001343,0.65771 h 1.136198 c -0.134856,-1.09721 -1.050177,-1.51701 -2.062272,-1.51701 -0.896056,0 -2.06048,0.33422 -2.06048,1.41217 0,1.00269 0.782705,1.28853 1.584675,1.46012 0.791216,0.1819 1.583777,0.24821 1.612003,0.82079 0.02823,0.56363 -0.68817,0.6492 -1.097667,0.6492 -0.582436,0 -1.05869,-0.22939 -1.116485,-0.85932 z"
       style="fill:#adafaf;fill-opacity:1;fill-rule:evenodd;stroke:none;stroke-width:0.448028" />
    <path
       id="path9"
       d="m 70.500079,130.73923 h 1.088707 v -1.02956 h -1.088707 z m 0,5.78359 h 1.088707 v -4.93324 h -1.088707 z"
       style="fill:#adafaf;fill-opacity:1;fill-rule:evenodd;stroke:none;stroke-width:0.448028" />
    <path
       id="path10"
       d="M 77.226857,129.70961 H 76.13815 v 2.51927 h -0.01927 c -0.332885,-0.54436 -1.020608,-0.77375 -1.640231,-0.77375 -1.078402,0 -2.137539,0.7827 -2.137539,2.56765 0,1.47938 0.753134,2.63306 2.309134,2.63306 0.619623,0 1.241037,-0.23791 1.526431,-0.80152 h 0.01927 v 0.66845 h 1.030912 z m -3.798379,4.39874 c 0,-0.8871 0.362454,-1.7939 1.384405,-1.7939 0.838708,0 1.363797,0.64964 1.363797,1.73656 0,0.85931 -0.409946,1.74686 -1.383061,1.74686 -0.945339,0 -1.365141,-0.84006 -1.365141,-1.68952"
       style="fill:#adafaf;fill-opacity:1;fill-rule:evenodd;stroke:none;stroke-width:0.448028" />
    <path
       id="path11"
       d="m 82.348981,132.88694 c 0,-1.03942 -1.010303,-1.43144 -1.974459,-1.43144 -1.087363,0 -2.165766,0.37275 -2.242827,1.64156 h 1.087364 c 0.04883,-0.53405 0.478045,-0.78226 1.088708,-0.78226 0.439515,0 1.020606,0.10478 1.020606,0.66847 0,0.63888 -0.696683,0.55285 -1.479387,0.69534 -0.915321,0.1049 -1.898742,0.306 -1.898742,1.53628 0,0.9646 0.801521,1.44086 1.689065,1.44086 0.582436,0 1.279566,-0.18055 1.70833,-0.60081 0.08602,0.44848 0.400985,0.60081 0.840052,0.60081 0.180554,0 0.525089,-0.0663 0.686379,-0.12408 v -0.75313 c -0.113805,0.0193 -0.199821,0.0193 -0.266129,0.0193 -0.201165,0 -0.25896,-0.10477 -0.25896,-0.37276 z m -1.087364,1.97446 c 0,0.68773 -0.743726,0.93638 -1.221324,0.93638 -0.381719,0 -1.00179,-0.14337 -1.00179,-0.62993 0,-0.57258 0.420251,-0.74373 0.887544,-0.82079 0.476253,-0.086 1.001341,-0.0757 1.33557,-0.2957 z"
       style="fill:#adafaf;fill-opacity:1;fill-rule:evenodd;stroke:none;stroke-width:0.448028" />
    <path
       id="path12"
       d="m 87.978409,129.70961 h -1.088707 v 2.51927 h -0.01791 c -0.33423,-0.54436 -1.021953,-0.77375 -1.641576,-0.77375 -1.078402,0 -2.137092,0.7827 -2.137092,2.56765 0,1.47938 0.754031,2.63306 2.308687,2.63306 0.619623,0 1.241037,-0.23791 1.526432,-0.80152 h 0.0193 v 0.66845 h 1.03091 z m -3.798379,4.39874 c 0,-0.8871 0.362454,-1.7939 1.384405,-1.7939 0.838708,0 1.363799,0.64964 1.363799,1.73656 0,0.85931 -0.409499,1.74686 -1.383063,1.74686 -0.945339,0 -1.365141,-0.84006 -1.365141,-1.68952"
       style="fill:#adafaf;fill-opacity:1;fill-rule:evenodd;stroke:none;stroke-width:0.448028" />
    <path
       id="path13"
       d="m 89.818411,133.62201 c 0.02959,-0.73521 0.544347,-1.30735 1.298384,-1.30735 0.73387,0 1.202957,0.61964 1.239698,1.30735 z m 3.626789,0.7164 c 0.180556,-1.47939 -0.773747,-2.88305 -2.328405,-2.88305 -1.469974,0 -2.385746,1.2025 -2.385746,2.60572 0,1.51613 0.868274,2.59453 2.413966,2.59453 1.078407,0 1.994179,-0.60035 2.233422,-1.67876 h -1.030466 c -0.190855,0.54435 -0.572579,0.82079 -1.202956,0.82079 -0.906806,0 -1.326604,-0.68773 -1.326604,-1.45923 z"
       style="fill:#adafaf;fill-opacity:1;fill-rule:evenodd;stroke:none;stroke-width:0.448028" />
    <path
       id="path14"
       d="m 101.18976,129.70961 h -1.08691 v 2.51927 h -0.0193 c -0.334225,-0.54436 -1.020609,-0.77375 -1.640229,-0.77375 -1.078395,0 -2.137537,0.7827 -2.137537,2.56765 0,1.47938 0.752691,2.63306 2.308682,2.63306 0.620078,0 1.239698,-0.23791 1.526434,-0.80152 h 0.0193 v 0.66845 h 1.02956 z m -3.797031,4.39874 c 0,-0.8871 0.362458,-1.7939 1.383055,-1.7939 0.840054,0 1.365146,0.64964 1.365146,1.73656 0,0.85931 -0.410842,1.74686 -1.382608,1.74686 -0.94535,0 -1.365593,-0.84006 -1.365593,-1.68952"
       style="fill:#adafaf;fill-opacity:1;fill-rule:evenodd;stroke:none;stroke-width:0.448028" />
    <path
       id="path15"
       d="m 103.03134,133.62201 c 0.0278,-0.73521 0.54435,-1.30735 1.29748,-1.30735 0.73477,0 1.20207,0.61964 1.2406,1.30735 z m 3.62544,0.7164 c 0.1819,-1.47939 -0.7724,-2.88305 -2.32796,-2.88305 -1.46907,0 -2.3844,1.2025 -2.3844,2.60572 0,1.51613 0.86783,2.59453 2.41352,2.59453 1.07841,0 1.99418,-0.60035 2.23208,-1.67876 h -1.03091 c -0.19086,0.54435 -0.57258,0.82079 -1.20117,0.82079 -0.9068,0 -1.3266,-0.68773 -1.3266,-1.45923 z"
       style="fill:#adafaf;fill-opacity:1;fill-rule:evenodd;stroke:none;stroke-width:0.448028" />
    <path
       id="path16"
       d="m 113.88812,132.88694 c 0,-1.03942 -1.01164,-1.43144 -1.97624,-1.43144 -1.08692,0 -2.16533,0.37275 -2.24239,1.64156 h 1.08871 c 0.0475,-0.53405 0.47626,-0.78226 1.08691,-0.78226 0.43952,0 1.02106,0.10478 1.02106,0.66847 0,0.63888 -0.69534,0.55285 -1.47804,0.69534 -0.91666,0.1049 -1.89874,0.306 -1.89874,1.53628 0,0.9646 0.80152,1.44086 1.68906,1.44086 0.58109,0 1.27777,-0.18055 1.70654,-0.60081 0.086,0.44848 0.40099,0.60081 0.8405,0.60081 0.18146,0 0.52509,-0.0663 0.68773,-0.12408 v -0.75313 c -0.11557,0.0193 -0.20117,0.0193 -0.26793,0.0193 -0.20116,0 -0.25717,-0.10477 -0.25717,-0.37276 z m -1.0887,1.97446 c 0,0.68773 -0.74417,0.93638 -1.22044,0.93638 -0.38305,0 -1.00267,-0.14337 -1.00267,-0.62993 0,-0.57258 0.4198,-0.74373 0.88754,-0.82079 0.47759,-0.086 1.00134,-0.0757 1.33557,-0.2957 z"
       style="fill:#adafaf;fill-opacity:1;fill-rule:evenodd;stroke:none;stroke-width:0.448028" />
    <path
       id="path17"
       d="m 116.17616,136.52282 h 1.22176 l 1.76479,-4.93324 h -1.12589 l -1.20251,3.78808 h -0.0175 l -1.25134,-3.78808 h -1.18324 z"
       style="fill:#adafaf;fill-opacity:1;fill-rule:evenodd;stroke:none;stroke-width:0.448028" />
    <path
       id="path18"
       d="m 120.47749,133.62201 c 0.0296,-0.73521 0.54435,-1.30735 1.29839,-1.30735 0.73387,0 1.20116,0.61964 1.2397,1.30735 z m 3.62679,0.7164 c 0.18056,-1.47939 -0.77374,-2.88305 -2.3284,-2.88305 -1.46998,0 -2.38575,1.2025 -2.38575,2.60572 0,1.51613 0.86828,2.59453 2.41397,2.59453 1.07841,0 1.99418,-0.60035 2.23342,-1.67876 h -1.03091 c -0.19086,0.54435 -0.57214,0.82079 -1.20251,0.82079 -0.90681,0 -1.32661,-0.68773 -1.32661,-1.45923 z"
       style="fill:#adafaf;fill-opacity:1;fill-rule:evenodd;stroke:none;stroke-width:0.448028" />
    <path
       id="path19"
       d="m 124.77148,130.73923 h 1.0869 v -1.02956 h -1.0869 z m 0,5.78359 h 1.0869 v -4.93324 h -1.0869 z"
       style="fill:#adafaf;fill-opacity:1;fill-rule:evenodd;stroke:none;stroke-width:0.448028" />
    <path
       id="path20"
       d="m 126.84943,136.52282 h 1.0887 v -2.34721 c 0,-1.08736 0.5914,-1.68952 1.33557,-1.68952 0.15233,0 0.31496,0.0282 0.4673,0.0475 v -1.04885 c -0.0959,-0.0102 -0.16264,-0.0296 -0.4095,-0.0296 -0.66891,0 -1.31809,0.56363 -1.44085,1.08871 h -0.0193 v -0.9543 h -1.02195 z"
       style="fill:#adafaf;fill-opacity:1;fill-rule:evenodd;stroke:none;stroke-width:0.448028" />
    <path
       id="path21"
       d="m 132.10475,136.65579 c 1.58422,0 2.49103,-1.08736 2.49103,-2.60439 0,-1.5076 -0.90681,-2.59587 -2.49103,-2.59587 -1.58422,0 -2.48924,1.08827 -2.48924,2.59587 0,1.51703 0.90502,2.60439 2.48924,2.60439 m 0,-0.85797 c -0.97311,0 -1.40232,-0.88754 -1.40232,-1.74642 0,-0.84945 0.42921,-1.73655 1.40232,-1.73655 0.97311,0 1.40367,0.8871 1.40367,1.73655 0,0.85888 -0.43056,1.74642 -1.40367,1.74642"
       style="fill:#adafaf;fill-opacity:1;fill-rule:evenodd;stroke:none;stroke-width:0.448028" />
    <path
       id="path22"
       d="m 178.42903,130.14761 h -0.6008 v 1.47939 h -0.85932 v 0.50583 h 0.85932 v 3.36782 c -0.0102,0.84005 0.26657,1.10797 1.06809,1.10797 0.18189,0 0.3535,-0.0193 0.5354,-0.0193 v -0.51478 c -0.17295,0.0179 -0.34454,0.0282 -0.51613,0.0282 -0.42876,-0.0282 -0.48656,-0.25762 -0.48656,-0.64964 v -3.32033 h 1.00269 v -0.50583 h -1.00269 z"
       style="fill:#adafaf;fill-opacity:1;fill-rule:evenodd;stroke:none;stroke-width:0.448028" />
    <path
       id="path23"
       d="m 180.09909,136.55083 h 0.60036 v -2.87231 c 0.0193,-0.96326 0.5914,-1.68951 1.5457,-1.68951 0.97311,0 1.24954,0.64068 1.24954,1.48969 v 3.07213 h 0.60216 v -3.16801 c 0,-1.17293 -0.42026,-1.89964 -1.80421,-1.89964 -0.69669,0 -1.35529,0.40099 -1.57393,0.99238 h -0.0193 v -2.73745 h -0.60036 z"
       style="fill:#adafaf;fill-opacity:1;fill-rule:evenodd;stroke:none;stroke-width:0.448028" />
    <path
       id="path24"
       d="m 185.39273,133.74496 c 0.0945,-0.8965 0.63889,-1.75582 1.62231,-1.75582 0.97356,0 1.53539,0.85036 1.56496,1.75582 z m 3.78762,0.50583 c 0.048,-1.38307 -0.58109,-2.76747 -2.16531,-2.76747 -1.56451,0 -2.22445,1.30734 -2.22445,2.60618 0,1.40188 0.65994,2.60484 2.22445,2.60484 1.23969,0 1.88888,-0.6492 2.1465,-1.76613 h -0.60081 c -0.19041,0.74552 -0.66845,1.2603 -1.54569,1.2603 -1.15501,0 -1.61334,-1.05914 -1.62231,-1.93772 z"
       style="fill:#adafaf;fill-opacity:1;fill-rule:evenodd;stroke:none;stroke-width:0.448028" />
    <path
       id="path25"
       d="m 191.87865,131.98914 c 1.15501,0 1.72715,1.05017 1.72715,2.0999 0,1.04883 -0.57214,2.09947 -1.72715,2.09947 -1.15367,0 -1.72625,-1.05064 -1.72625,-2.09947 0,-1.04973 0.57258,-2.0999 1.72625,-2.0999 m 0,-0.50583 c -1.50716,0 -2.32795,1.19355 -2.32795,2.60573 0,1.41174 0.82079,2.60528 2.32795,2.60528 1.5085,0 2.32794,-1.19354 2.32794,-2.60528 0,-1.41218 -0.81944,-2.60573 -2.32794,-2.60573"
       style="fill:#adafaf;fill-opacity:1;fill-rule:evenodd;stroke:none;stroke-width:0.448028" />
    <path
       id="path26"
       d="m 194.91202,136.55083 h 0.60079 v -2.62366 c 0,-1.02105 0.74553,-1.82258 1.83289,-1.76478 v -0.60214 c -0.88799,-0.0385 -1.55644,0.42876 -1.8611,1.22176 h -0.0193 V 131.627 h -0.55331 z"
       style="fill:#adafaf;fill-opacity:1;fill-rule:evenodd;stroke:none;stroke-width:0.448028" />
    <path
       id="path27"
       d="m 197.73592,130.7007 h 0.60216 v -0.96236 h -0.60216 z m 0,5.8499 h 0.60216 v -4.92383 h -0.60216 z"
       style="fill:#adafaf;fill-opacity:1;fill-rule:evenodd;stroke:none;stroke-width:0.448028" />
    <path
       id="path28"
       d="m 199.84207,133.13547 c 0.0193,-0.80153 0.57392,-1.14651 1.31765,-1.14651 0.70609,0 1.28853,0.20161 1.28853,1.01164 0,0.54436 -0.27824,0.61112 -0.77331,0.66891 -1.29748,0.15234 -2.64335,0.19982 -2.64335,1.58423 0,0.99193 0.74417,1.4404 1.65053,1.4404 0.94489,0 1.3741,-0.362 1.79435,-1.00133 h 0.0193 c 0,0.51479 0.0945,0.85796 0.70519,0.85796 0.16264,0 0.25762,-0.009 0.39204,-0.0385 v -0.50582 c -0.047,0.0193 -0.12408,0.0385 -0.19087,0.0385 -0.23969,0 -0.35349,-0.13352 -0.35349,-0.36202 v -2.61557 c 0,-1.31631 -0.94489,-1.58423 -1.81317,-1.58423 -1.12545,0 -1.93638,0.49731 -1.99416,1.65232 z m 2.60618,1.50716 c 0.009,0.96326 -0.80197,1.5457 -1.71909,1.5457 -0.56138,0 -1.09721,-0.37276 -1.09721,-0.97313 0,-0.9646 1.26926,-0.95384 2.29166,-1.13619 0.16083,-0.0278 0.42875,-0.0753 0.50537,-0.21864 h 0.0193 z"
       style="fill:#adafaf;fill-opacity:1;fill-rule:evenodd;stroke:none;stroke-width:0.448028" />
    <path
       id="path29"
       d="m 206.51871,138.37308 h 0.6008 v -2.75715 h 0.0193 c 0.25718,0.70564 0.97313,1.07839 1.70789,1.07839 1.49865,0 2.2146,-1.21146 2.2146,-2.60528 0,-1.39292 -0.71595,-2.60573 -2.2146,-2.60573 -0.79256,0 -1.47849,0.41129 -1.75582,1.07975 h -0.0193 v -0.93638 h -0.55287 z m 3.9404,-4.28404 c 0,1.02106 -0.46729,2.09947 -1.61245,2.09947 -1.27912,0 -1.72715,-1.07841 -1.72715,-2.09947 0,-1.11648 0.40054,-2.0999 1.72715,-2.0999 1.14516,0 1.61245,1.07795 1.61245,2.0999"
       style="fill:#adafaf;fill-opacity:1;fill-rule:evenodd;stroke:none;stroke-width:0.448028" />
    <path
       id="path30"
       d="m 213.88491,131.98914 c 1.15367,0 1.72715,1.05017 1.72715,2.0999 0,1.04883 -0.57348,2.09947 -1.72715,2.09947 -1.15545,0 -1.72759,-1.05064 -1.72759,-2.09947 0,-1.04973 0.57214,-2.0999 1.72759,-2.0999 m 0,-0.50583 c -1.50716,0 -2.3284,1.19355 -2.3284,2.60573 0,1.41174 0.82124,2.60528 2.3284,2.60528 1.50672,0 2.32795,-1.19354 2.32795,-2.60528 0,-1.41218 -0.82123,-2.60573 -2.32795,-2.60573"
       style="fill:#adafaf;fill-opacity:1;fill-rule:evenodd;stroke:none;stroke-width:0.448028" />
    <path
       id="path31"
       d="m 216.9272,130.7007 h 0.6008 v -0.96236 h -0.6008 z m 0,5.8499 h 0.6008 v -4.92383 h -0.6008 z"
       style="fill:#adafaf;fill-opacity:1;fill-rule:evenodd;stroke:none;stroke-width:0.448028" />
    <path
       id="path32"
       d="m 218.84256,133.74496 c 0.0964,-0.8965 0.63933,-1.75582 1.62276,-1.75582 0.97311,0 1.53539,0.85036 1.56495,1.75582 z m 3.78808,0.50583 c 0.0475,-1.38307 -0.5811,-2.76747 -2.16532,-2.76747 -1.56496,0 -2.22311,1.30734 -2.22311,2.60618 0,1.40188 0.65815,2.60484 2.22311,2.60484 1.2397,0 1.88888,-0.6492 2.14606,-1.76613 h -0.60037 c -0.19086,0.74552 -0.66845,1.2603 -1.54569,1.2603 -1.15502,0 -1.61246,-1.05914 -1.62276,-1.93772 z"
       style="fill:#adafaf;fill-opacity:1;fill-rule:evenodd;stroke:none;stroke-width:0.448028" />
    <path
       id="path33"
       d="m 226.799,133.06723 c -0.0385,-1.06765 -0.82079,-1.58378 -1.80287,-1.58378 -0.86872,0 -1.85214,0.38261 -1.85214,1.3844 0,0.84006 0.59184,1.10618 1.3741,1.31631 l 0.77375,0.1716 c 0.543,0.13485 1.07795,0.32571 1.07795,0.89785 0,0.68637 -0.78226,0.93502 -1.34588,0.93502 -0.80151,0 -1.40233,-0.4207 -1.45071,-1.23073 h -0.6008 c 0.0945,1.20206 0.87723,1.73656 2.02373,1.73656 0.91533,0 1.97446,-0.41129 1.97446,-1.47938 0,-0.85932 -0.71594,-1.26031 -1.40232,-1.36515 l -0.80153,-0.1801 c -0.41129,-0.10579 -1.02061,-0.29615 -1.02061,-0.8302 0,-0.64023 0.62859,-0.85035 1.16398,-0.85035 0.68593,0 1.25896,0.33422 1.28674,1.07795 z"
       style="fill:#adafaf;fill-opacity:1;fill-rule:evenodd;stroke:none;stroke-width:0.448028" />
    <path
       id="path34"
       d="m 227.65836,130.7007 h 0.60035 v -0.96236 h -0.60035 z m 0,5.8499 h 0.60035 v -4.92383 h -0.60035 z"
       style="fill:#adafaf;fill-opacity:1;fill-rule:evenodd;stroke:none;stroke-width:0.448028" />
    <path
       id="path35"
       d="m 232.76992,133.06723 c -0.0385,-1.06765 -0.82079,-1.58378 -1.80422,-1.58378 -0.86872,0 -1.85035,0.38261 -1.85035,1.3844 0,0.84006 0.5914,1.10618 1.37366,1.31631 l 0.7724,0.1716 c 0.54435,0.13485 1.07839,0.32571 1.07839,0.89785 0,0.68637 -0.7827,0.93502 -1.34452,0.93502 -0.80197,0 -1.40412,-0.4207 -1.45116,-1.23073 h -0.60036 c 0.0945,1.20206 0.87678,1.73656 2.02194,1.73656 0.91712,0 1.97581,-0.41129 1.97581,-1.47938 0,-0.85932 -0.71594,-1.26031 -1.40367,-1.36515 l -0.80018,-0.1801 c -0.41084,-0.10579 -1.02195,-0.29615 -1.02195,-0.8302 0,-0.64023 0.63037,-0.85035 1.16398,-0.85035 0.68771,0 1.26029,0.33422 1.28808,1.07795 z"
       style="fill:#adafaf;fill-opacity:1;fill-rule:evenodd;stroke:none;stroke-width:0.448028" />
    <path
       id="path36"
       d="m 236.07891,138.37308 h 0.60215 v -2.75715 h 0.0193 c 0.25718,0.70564 0.97313,1.07839 1.70654,1.07839 1.49821,0 2.2146,-1.21146 2.2146,-2.60528 0,-1.39292 -0.71639,-2.60573 -2.2146,-2.60573 -0.79121,0 -1.47759,0.41129 -1.75581,1.07975 h -0.0193 v -0.93638 h -0.55287 z m 3.94175,-4.28404 c 0,1.02106 -0.46729,2.09947 -1.6138,2.09947 -1.27777,0 -1.7258,-1.07841 -1.7258,-2.09947 0,-1.11648 0.40054,-2.0999 1.7258,-2.0999 1.14651,0 1.6138,1.07795 1.6138,2.0999"
       style="fill:#adafaf;fill-opacity:1;fill-rule:evenodd;stroke:none;stroke-width:0.448028" />
    <path
       id="path37"
       d="m 241.36515,136.55083 h 0.6008 v -2.62366 c 0,-1.02105 0.74507,-1.82258 1.83244,-1.76478 v -0.60214 c -0.88755,-0.0385 -1.556,0.42876 -1.86111,1.22176 h -0.0193 V 131.627 h -0.55287 z"
       style="fill:#adafaf;fill-opacity:1;fill-rule:evenodd;stroke:none;stroke-width:0.448028" />
    <path
       id="path38"
       d="m 244.72402,133.13547 c 0.0193,-0.80153 0.57258,-1.14651 1.3163,-1.14651 0.7061,0 1.28853,0.20161 1.28853,1.01164 0,0.54436 -0.27688,0.61112 -0.77329,0.66891 -1.29749,0.15234 -2.64336,0.19982 -2.64336,1.58423 0,0.99193 0.74417,1.4404 1.65053,1.4404 0.94489,0 1.3741,-0.362 1.79434,-1.00133 h 0.0193 c 0,0.51479 0.0964,0.85796 0.7052,0.85796 0.16263,0 0.25895,-0.009 0.39203,-0.0385 v -0.50582 c -0.047,0.0193 -0.12408,0.0385 -0.19087,0.0385 -0.2379,0 -0.35349,-0.13352 -0.35349,-0.36202 v -2.61557 c 0,-1.31631 -0.94355,-1.58423 -1.81317,-1.58423 -1.12545,0 -1.93637,0.49731 -1.99372,1.65232 z m 2.60483,1.50716 c 0.009,0.96326 -0.80196,1.5457 -1.71729,1.5457 -0.56317,0 -1.09766,-0.37276 -1.09766,-0.97313 0,-0.9646 1.26926,-0.95384 2.29032,-1.13619 0.16217,-0.0278 0.42876,-0.0753 0.50537,-0.21864 h 0.0193 z"
       style="fill:#adafaf;fill-opacity:1;fill-rule:evenodd;stroke:none;stroke-width:0.448028" />
    <path
       id="path39"
       d="m 248.37607,136.55083 h 0.74417 l 1.51747,-2.07079 1.5457,2.07079 h 0.763 l -1.91802,-2.56631 1.77465,-2.35752 h -0.7527 l -1.3741,1.87096 -1.40367,-1.87096 h -0.75313 l 1.76478,2.36648 z"
       style="fill:#adafaf;fill-opacity:1;fill-rule:evenodd;stroke:none;stroke-width:0.448028" />
    <path
       id="path40"
       d="m 253.34737,130.7007 h 0.60081 v -0.96236 h -0.60081 z m 0,5.8499 h 0.60081 v -4.92383 h -0.60081 z"
       style="fill:#adafaf;fill-opacity:1;fill-rule:evenodd;stroke:none;stroke-width:0.448028" />
    <path
       id="path41"
       d="m 258.45934,133.06723 c -0.0385,-1.06765 -0.82079,-1.58378 -1.80287,-1.58378 -0.86872,0 -1.85214,0.38261 -1.85214,1.3844 0,0.84006 0.59184,1.10618 1.3741,1.31631 l 0.77375,0.1716 c 0.54434,0.13485 1.07795,0.32571 1.07795,0.89785 0,0.68637 -0.78226,0.93502 -1.34589,0.93502 -0.80151,0 -1.40232,-0.4207 -1.44936,-1.23073 h -0.60214 c 0.0963,1.20206 0.87857,1.73656 2.02373,1.73656 0.91533,0 1.97446,-0.41129 1.97446,-1.47938 0,-0.85932 -0.71594,-1.26031 -1.40233,-1.36515 l -0.80152,-0.1801 c -0.40994,-0.10579 -1.02061,-0.29615 -1.02061,-0.8302 0,-0.64023 0.62993,-0.85035 1.16398,-0.85035 0.68593,0 1.25895,0.33422 1.28809,1.07795 z"
       style="fill:#adafaf;fill-opacity:1;fill-rule:evenodd;stroke:none;stroke-width:0.448028" />
  </g>
</svg>
