<?xml version="1.0" encoding="UTF-8"?>
<svg id="Layer_1" xmlns="http://www.w3.org/2000/svg" version="1.1" viewBox="0 0 343.3 143.2">
  <!-- Generator: Adobe Illustrator 30.0.0, SVG Export Plug-In . SVG Version: 2.1.1 Build 123)  -->
  <defs>
    <style>
      .st0 {
        fill: #231f20;
      }

      .st1 {
        fill: #1a5632;
      }
    </style>
  </defs>
  <path class="st0" d="M66.4,74.6h-6.1v-3.2h15.8v3.2h-6.1v16.2h-3.6v-16.2Z"/>
  <path class="st0" d="M78.4,71.4h3.4v7.1c.7-.8,1.4-1.4,2.2-1.8.8-.3,1.5-.5,2.4-.5,1.6,0,2.7.4,3.5,1.3.8.9,1.2,2.1,1.2,3.8v9.4h-3.4v-8.8c0-1-.2-1.8-.6-2.2-.4-.4-1-.7-1.8-.7s-.9,0-1.3.2c-.4.2-.8.4-1.2.8-.3.3-.6.6-.8,1s-.3.8-.3,1.4v8.3h-3.4v-19.4Z"/>
  <path class="st0" d="M93.9,83.8c0-1.6.3-3,.9-4.1.6-1.1,1.4-2,2.4-2.6,1-.6,2.2-.9,3.6-.9s2.7.3,3.6.9c1,.6,1.7,1.4,2.1,2.5.5,1,.7,2.3.7,3.7v1.3h-10c0,1.4.4,2.4,1,3.1.6.7,1.4,1.1,2.5,1.1s1.7-.2,2.1-.5c.5-.4.8-.9.9-1.5h3.2c-.2,1.4-.9,2.6-1.9,3.4-1,.8-2.5,1.2-4.4,1.2s-3.9-.6-5.1-1.9c-1.2-1.3-1.8-3.1-1.8-5.4ZM103.2,79.7c-.5-.6-1.3-1-2.4-1s-2,.3-2.5,1c-.5.7-.8,1.6-.9,2.7h6.7c0-1.2-.3-2.1-.8-2.7Z"/>
  <path class="st0" d="M116.1,82.9v-11.5h3.6v11.6c0,1.7.3,3,1,3.8.6.9,1.7,1.3,3.1,1.3s2.5-.4,3.1-1.3c.6-.8.9-2.1.9-3.8v-11.6h3.6v11.6c0,2.9-.7,5-2,6.3-1.3,1.3-3.2,2-5.7,2s-4.4-.7-5.7-2c-1.3-1.3-2-3.5-2-6.4Z"/>
  <path class="st0" d="M134.8,76.7h3.3v2c.7-.9,1.4-1.5,2.2-1.9s1.6-.5,2.4-.5c1.6,0,2.7.4,3.5,1.3s1.2,2.1,1.2,3.8v9.4h-3.4v-8.8c0-1-.2-1.8-.6-2.2s-1-.7-1.8-.7-.9,0-1.3.2c-.4.2-.8.4-1.2.8-.3.3-.6.6-.8,1-.2.4-.3.8-.3,1.4v8.3h-3.4v-14.1Z"/>
  <path class="st0" d="M150.7,71.4h3.4v3.1h-3.4v-3.1ZM150.7,76.7h3.4v14.1h-3.4v-14.1Z"/>
  <path class="st0" d="M163.3,87.3l3.6-10.6h3.6l-5.4,14.1h-3.6l-5.4-14.1h3.8l3.5,10.6Z"/>
  <g>
    <g>
      <path class="st1" d="M135.7,61.2c4.7,0,9.1-4.5,9.1-9s0-30.7,0-30.7h-13.8v24.6c0,1-1.1,3-3,3h-16.3c-1.9,0-3-2-3-3v-24.6h-13.8s0,29.7,0,30.7c0,4.5,4.4,9,9.1,9h31.8Z"/>
      <path class="st1" d="M179.7,21.5h-15.9l-21.8,39.7h16.2l3-6.2h21.1l3,6.2h16.2l-21.8-39.7ZM166.5,44.1l5.3-10.8,5.3,10.8h-10.5Z"/>
      <path class="st1" d="M202.3,21.5h35.7c8.1,0,11.7,3.6,11.7,9.9s-1.7,6.6-4.7,7.7h0c5.1,1.4,6.8,6.2,6.8,9.2,0,7.8-3.9,12.9-15.5,12.9h-33.9V21.5ZM217.7,36.3h11.8c3.2,0,3.9-1.1,3.9-2.6s-.7-2.5-3.9-2.5h-11.8v5.1ZM217.7,51.5h13.4c3.1,0,4.1-1.3,4.1-3.1s-.9-3.1-4.1-3.1h-13.4v6.2Z"/>
    </g>
    <path class="st0" d="M171.4,83.8c0-1.6.3-3,.9-4.1.6-1.1,1.4-2,2.4-2.6,1-.6,2.2-.9,3.6-.9s2.7.3,3.6.9c1,.6,1.7,1.4,2.1,2.5.5,1,.7,2.3.7,3.7v1.3h-10c0,1.4.4,2.4,1,3.1.6.7,1.4,1.1,2.5,1.1s1.7-.2,2.1-.5c.5-.4.8-.9,1-1.5h3.2c-.2,1.4-.9,2.6-1.9,3.4-1,.8-2.5,1.2-4.4,1.2s-3.9-.6-5.1-1.9c-1.2-1.3-1.8-3.1-1.8-5.4ZM180.7,79.7c-.5-.6-1.3-1-2.4-1s-2,.3-2.5,1c-.5.7-.8,1.6-.9,2.7h6.7c0-1.2-.3-2.1-.8-2.7Z"/>
    <path class="st0" d="M187.6,76.7h3.3v2c1-1.5,2.4-2.2,4-2.2s.5,0,.7,0c.2,0,.4,0,.6,0l-.4,3c-.4-.1-.8-.2-1.3-.2s-.9,0-1.3.2-.8.4-1.2.7c-.4.3-.6.6-.9,1.1-.2.4-.3.9-.3,1.5v8h-3.4v-14.1Z"/>
    <path class="st0" d="M206.7,86.9c0-.5-.1-.9-.4-1.2-.3-.3-.8-.6-1.7-.7l-1.7-.3c-1.7-.3-3-.7-3.8-1.4-.8-.6-1.3-1.6-1.3-2.9s.5-2.4,1.6-3.1c1.1-.8,2.5-1.1,4.3-1.1s2.4.2,3.2.5c.8.3,1.5.8,1.9,1.4s.7,1.3.9,2.1l-3.1.4c-.2-.7-.5-1.1-.9-1.5s-1.1-.5-2-.5-1.7.2-2.1.5c-.4.3-.6.7-.6,1.2s.1.8.4,1.1c.3.3.9.5,1.8.6l1.9.3c1.8.3,3,.8,3.8,1.5.7.7,1.1,1.6,1.1,2.9s-.5,2.4-1.5,3.1-2.5,1.2-4.5,1.2-3.4-.4-4.6-1.1c-1.2-.7-1.8-1.9-2-3.6h3.3c.1.8.5,1.4,1,1.7.5.3,1.3.5,2.2.5s1.6-.2,2.1-.5c.4-.3.6-.8.6-1.3Z"/>
    <path class="st0" d="M212.5,71.4h3.4v3.1h-3.4v-3.1ZM212.5,76.7h3.4v14.1h-3.4v-14.1Z"/>
    <path class="st0" d="M220.3,85.9v-6.5h-2.2v-2.7h2.2v-3.8h3.4v3.8h3.5v2.7h-3.5v6.9c0,.6.1,1.1.4,1.5.3.4.7.5,1.3.5s.7,0,.9,0c.3,0,.5-.1.8-.2l.5,2.6c-.5.1-.9.3-1.4.4-.5,0-1,.1-1.6.1-1.1,0-2-.2-2.6-.6-.6-.4-1.1-1-1.3-1.8-.3-.8-.4-1.7-.4-2.8Z"/>
    <path class="st0" d="M230.2,93.3c.6.2,1.1.3,1.6.3s1-.2,1.3-.5.6-.9.9-1.8l.5-1.3-5.9-13.4h3.8l3.7,9.8,3.4-9.8h3.6l-6,14.9c-.4,1.1-.9,2-1.3,2.7-.4.7-.9,1.2-1.4,1.5-.5.3-1.2.5-2.1.5s-1.8-.1-2.7-.4l.6-2.6Z"/>
    <path class="st0" d="M250.5,83.8c0-1.6.3-2.9.9-4,.6-1.1,1.4-2,2.5-2.6,1.1-.6,2.3-.9,3.8-.9,2.2,0,3.9.7,5.2,2,1.2,1.3,1.8,3.1,1.8,5.4s-.6,4.2-1.9,5.5-3,2-5.2,2-3.9-.7-5.2-2c-1.2-1.3-1.8-3.1-1.8-5.5ZM254,83.7c0,1.4.3,2.6.8,3.4s1.4,1.3,2.7,1.3,2.1-.4,2.7-1.3c.6-.9.8-2,.8-3.4s-.3-2.6-.8-3.4c-.6-.9-1.5-1.3-2.7-1.3s-2.1.4-2.7,1.3c-.6.8-.8,2-.8,3.4Z"/>
    <path class="st0" d="M268.5,79.6h-2.3v-2.7h2.3v-.9c0-1.6.4-2.8,1.3-3.6.9-.8,2-1.2,3.4-1.2s1.9.1,2.8.4l-.5,2.5c-.3,0-.6-.1-.8-.2-.3,0-.5,0-.8,0-.6,0-1.1.2-1.5.5-.4.3-.6.8-.6,1.6v1h3.4v2.7h-3.4v11.2h-3.4v-11.2Z"/>
    <g>
      <path class="st0" d="M22.8,119.2h-3.7l7.2-19.4h4.2l7.1,19.4h-3.8l-1.7-4.7h-7.7l-1.7,4.7ZM28.3,103.2l-2.9,8.3h5.8l-2.9-8.3Z"/>
      <path class="st0" d="M39.7,99.8h3.4v19.4h-3.4v-19.4Z"/>
      <path class="st0" d="M45.6,115.3c0-.9.2-1.7.6-2.3.4-.6.9-1.1,1.6-1.5.7-.4,1.4-.6,2.3-.8.9-.2,1.8-.2,2.7-.3h2.2v-.6c0-1-.2-1.7-.6-2.1-.4-.4-1.1-.7-2-.7s-1.6.2-2,.5c-.4.3-.7.8-.9,1.3l-3.1-.3c.3-1.4.9-2.4,1.9-3,1-.6,2.4-1,4.2-1s3.6.5,4.5,1.4c.9.9,1.3,2.3,1.3,4.1v9h-3.2v-1.7c-.5.6-1.2,1.1-1.9,1.5-.7.4-1.6.6-2.7.6s-2.6-.4-3.5-1.1c-.9-.7-1.3-1.8-1.3-3.2ZM48.9,115.1c0,.6.2,1,.5,1.4.4.4.9.5,1.8.5s2-.3,2.7-.9c.7-.6,1-1.4,1-2.4v-1.2h-2c-1.5.1-2.6.4-3.2.8s-.9,1-.9,1.8Z"/>
      <path class="st0" d="M64.7,119.2h-3.3v-19.4h3.4v6.9c.5-.7,1.2-1.2,1.9-1.5s1.5-.5,2.5-.5c2,0,3.4.7,4.4,2,1,1.3,1.5,3.1,1.5,5.3s-.2,2.9-.7,4.1c-.5,1.1-1.2,2-2.1,2.6-.9.6-2,.9-3.3.9s-1.6-.2-2.3-.5c-.7-.3-1.4-.9-1.9-1.6v1.7ZM64.8,111.7v.8c0,1.5.3,2.6.9,3.3.6.7,1.4,1.1,2.5,1.1s1.8-.4,2.4-1.1c.6-.7.9-2,.9-3.7s-.1-2.1-.4-2.8c-.3-.7-.7-1.2-1.2-1.5-.5-.3-1-.4-1.6-.4-1,0-1.9.4-2.5,1.1-.7.7-1,1.8-1,3.1Z"/>
      <path class="st0" d="M76.6,115.3c0-.9.2-1.7.6-2.3.4-.6.9-1.1,1.6-1.5.7-.4,1.4-.6,2.3-.8s1.8-.2,2.7-.3h2.2v-.6c0-1-.2-1.7-.6-2.1-.4-.4-1.1-.7-2-.7s-1.6.2-2,.5c-.4.3-.7.8-.9,1.3l-3.1-.3c.3-1.4.9-2.4,1.9-3,1-.6,2.4-1,4.2-1s3.6.5,4.5,1.4c.9.9,1.3,2.3,1.3,4.1v9h-3.2v-1.7c-.5.6-1.2,1.1-1.9,1.5-.7.4-1.6.6-2.7.6s-2.6-.4-3.5-1.1c-.9-.7-1.3-1.8-1.3-3.2ZM79.9,115.1c0,.6.2,1,.5,1.4.4.4.9.5,1.8.5s2-.3,2.7-.9c.7-.6,1-1.4,1-2.4v-1.2h-2c-1.5.1-2.6.4-3.2.8-.6.4-.9,1-.9,1.8Z"/>
      <path class="st0" d="M92.5,105.1h3.3v1.9c.6-.8,1.3-1.4,2-1.8s1.5-.6,2.3-.6,1.8.2,2.4.6c.7.4,1.1,1,1.5,1.8,1.2-1.6,2.7-2.4,4.6-2.4s2.5.4,3.2,1.2c.8.8,1.1,2,1.1,3.7v9.7h-3.4v-9.1c0-1-.2-1.7-.5-2-.3-.4-.8-.6-1.5-.6s-.7,0-1.1.2-.7.3-1.1.7c-.3.3-.5.6-.7.9-.2.3-.3.7-.3,1.2v8.8h-3.4v-9.1c0-1-.2-1.6-.5-2-.3-.4-.8-.6-1.5-.6s-1.5.3-2.2,1c-.2.2-.5.5-.7.9-.2.4-.3.8-.3,1.4v8.4h-3.4v-14.1Z"/>
      <path class="st0" d="M115.3,115.3c0-.9.2-1.7.6-2.3.4-.6.9-1.1,1.6-1.5.7-.4,1.4-.6,2.3-.8s1.8-.2,2.7-.3h2.2v-.6c0-1-.2-1.7-.6-2.1-.4-.4-1.1-.7-2-.7s-1.6.2-2,.5c-.4.3-.7.8-.9,1.3l-3.1-.3c.3-1.4.9-2.4,1.9-3,1-.6,2.4-1,4.2-1s3.6.5,4.5,1.4c.9.9,1.3,2.3,1.3,4.1v9h-3.2v-1.7c-.5.6-1.2,1.1-1.9,1.5-.7.4-1.6.6-2.7.6s-2.6-.4-3.5-1.1c-.9-.7-1.3-1.8-1.3-3.2ZM118.7,115.1c0,.6.2,1,.5,1.4.4.4.9.5,1.8.5s2-.3,2.7-.9c.7-.6,1-1.4,1-2.4v-1.2h-2c-1.5.1-2.6.4-3.2.8-.6.4-.9,1-.9,1.8Z"/>
      <path class="st0" d="M136.3,115.3c0-.9.2-1.7.6-2.3.4-.6.9-1.1,1.6-1.5.7-.4,1.4-.6,2.3-.8s1.8-.2,2.7-.3h2.2v-.6c0-1-.2-1.7-.6-2.1-.4-.4-1.1-.7-2-.7s-1.6.2-2,.5c-.4.3-.7.8-.9,1.3l-3.1-.3c.3-1.4.9-2.4,1.9-3,1-.6,2.4-1,4.2-1s3.6.5,4.5,1.4c.9.9,1.3,2.3,1.3,4.1v9h-3.2v-1.7c-.5.6-1.2,1.1-1.9,1.5-.7.4-1.6.6-2.7.6s-2.6-.4-3.5-1.1c-.9-.7-1.3-1.8-1.3-3.2ZM139.6,115.1c0,.6.2,1,.5,1.4.4.4.9.5,1.8.5s2-.3,2.7-.9c.7-.6,1-1.4,1-2.4v-1.2h-2c-1.5.1-2.6.4-3.2.8-.6.4-.9,1-.9,1.8Z"/>
      <path class="st0" d="M152.9,114.3v-6.5h-2.2v-2.7h2.2v-3.8h3.4v3.8h3.5v2.7h-3.5v6.9c0,.6.1,1.1.4,1.5.3.4.7.5,1.3.5s.7,0,.9,0c.3,0,.5-.1.8-.2l.5,2.6c-.5.1-.9.3-1.4.4-.5,0-1,.1-1.6.1-1.1,0-2-.2-2.6-.6-.6-.4-1.1-1-1.3-1.8-.3-.8-.4-1.7-.4-2.8Z"/>
      <path class="st0" d="M168.5,99.8h7.2c1.7,0,3.1.2,4.1.6,1,.4,1.7,1,2.1,1.8.4.7.6,1.6.6,2.6s-.2,1.7-.6,2.4-1.1,1.3-2,1.8c1.2.5,2,1.1,2.5,1.9.5.8.7,1.7.7,2.7s-.2,2.1-.7,2.9c-.5.8-1.3,1.5-2.3,2s-2.4.7-4.1.7h-7.5v-19.4ZM178.2,103.2c-.6-.4-1.5-.6-2.9-.6h-3.4v5.1h3.7c1.2,0,2.1-.2,2.6-.7.5-.4.8-1.1.8-2s-.3-1.5-.8-1.9ZM179.6,113.4c0-1-.3-1.7-.9-2.3-.6-.5-1.5-.8-2.9-.8h-4v5.9h3.8c1.5,0,2.5-.3,3.1-.8.5-.5.8-1.2.8-2.2Z"/>
      <path class="st0" d="M185.8,99.7h3.4v3.1h-3.4v-3.1ZM185.9,105.1h3.4v14.1h-3.4v-14.1Z"/>
      <path class="st0" d="M192.7,105.1h3.3v2c1-1.5,2.4-2.2,4-2.2s.5,0,.7,0c.2,0,.4,0,.6,0l-.4,3c-.4-.1-.8-.2-1.3-.2s-.9,0-1.3.2-.8.4-1.2.7c-.4.3-.6.6-.9,1.1-.2.4-.3.9-.3,1.5v8h-3.4v-14.1Z"/>
      <path class="st0" d="M203.4,105.1h3.3v1.9c.6-.8,1.3-1.4,2-1.8s1.5-.6,2.3-.6,1.8.2,2.4.6c.7.4,1.1,1,1.5,1.8,1.2-1.6,2.7-2.4,4.6-2.4s2.5.4,3.2,1.2c.8.8,1.1,2,1.1,3.7v9.7h-3.4v-9.1c0-1-.2-1.7-.5-2-.3-.4-.8-.6-1.5-.6s-.7,0-1.1.2-.7.3-1.1.7c-.3.3-.5.6-.7.9-.2.3-.3.7-.3,1.2v8.8h-3.4v-9.1c0-1-.2-1.6-.5-2-.3-.4-.8-.6-1.5-.6s-1.5.3-2.2,1c-.2.2-.5.5-.7.9-.2.4-.3.8-.3,1.4v8.4h-3.4v-14.1Z"/>
      <path class="st0" d="M227.1,99.7h3.4v3.1h-3.4v-3.1ZM227.1,105.1h3.4v14.1h-3.4v-14.1Z"/>
      <path class="st0" d="M234,105.1h3.3v2c.7-.9,1.4-1.5,2.2-1.9s1.6-.5,2.4-.5c1.6,0,2.7.4,3.5,1.3s1.2,2.1,1.2,3.8v9.4h-3.4v-8.8c0-1-.2-1.8-.6-2.2s-1-.7-1.8-.7-.9,0-1.3.2c-.4.2-.8.4-1.2.8-.3.3-.6.6-.8,1-.2.4-.3.8-.3,1.4v8.3h-3.4v-14.1Z"/>
      <path class="st0" d="M259.5,118v-1.4c-.5.7-1.1,1.2-1.9,1.6-.7.4-1.6.6-2.5.6s-2.4-.3-3.3-.9c-.9-.6-1.5-1.4-1.9-2.5-.4-1.1-.6-2.3-.6-3.6s.2-2.7.7-3.7c.5-1.1,1.2-1.9,2.1-2.5.9-.6,2-.9,3.2-.9s1.6.1,2.3.4c.7.3,1.4.8,2,1.6v-1.6h3.3v12c0,1.6-.2,3-.6,4.1-.4,1.1-1.1,2-2,2.6-1,.6-2.3.9-4,.9s-3.5-.4-4.6-1.1c-1.1-.7-1.7-1.9-1.9-3.5h3.3c.1.7.5,1.2.9,1.6s1.2.5,2.2.5,2.1-.4,2.5-1.1c.5-.7.7-1.8.7-3.2ZM258.7,108.5c-.5-.8-1.4-1.1-2.6-1.1s-1.8.3-2.4,1c-.6.7-1,1.8-1,3.3s.2,1.9.5,2.5.7,1.1,1.2,1.4c.5.3,1,.4,1.6.4,1.2,0,2-.4,2.6-1.1s.9-1.7.9-2.9v-.4c0-1.2-.3-2.2-.8-3Z"/>
      <path class="st0" d="M266,99.8h3.4v7.1c.7-.8,1.4-1.4,2.2-1.8.8-.3,1.5-.5,2.4-.5,1.6,0,2.7.4,3.5,1.3s1.2,2.1,1.2,3.8v9.4h-3.4v-8.8c0-1-.2-1.8-.6-2.2s-1-.7-1.8-.7-.9,0-1.3.2c-.4.2-.8.4-1.2.8-.3.3-.6.6-.8,1-.2.4-.3.8-.3,1.4v8.3h-3.4v-19.4Z"/>
      <path class="st0" d="M281.1,115.3c0-.9.2-1.7.6-2.3.4-.6.9-1.1,1.6-1.5.7-.4,1.4-.6,2.3-.8s1.8-.2,2.7-.3h2.2v-.6c0-1-.2-1.7-.6-2.1-.4-.4-1.1-.7-2-.7s-1.6.2-2,.5c-.4.3-.7.8-.9,1.3l-3.1-.3c.3-1.4.9-2.4,1.9-3,1-.6,2.4-1,4.2-1s3.6.5,4.5,1.4c.9.9,1.3,2.3,1.3,4.1v9h-3.2v-1.7c-.5.6-1.2,1.1-1.9,1.5-.7.4-1.6.6-2.7.6s-2.6-.4-3.5-1.1c-.9-.7-1.3-1.8-1.3-3.2ZM284.4,115.1c0,.6.2,1,.5,1.4.4.4.9.5,1.8.5s2-.3,2.7-.9c.7-.6,1-1.4,1-2.4v-1.2h-2c-1.5.1-2.6.4-3.2.8-.6.4-.9,1-.9,1.8Z"/>
      <path class="st0" d="M296.8,105.1h3.3v1.9c.6-.8,1.3-1.4,2-1.8s1.5-.6,2.3-.6,1.8.2,2.4.6c.7.4,1.1,1,1.5,1.8,1.2-1.6,2.7-2.4,4.6-2.4s2.5.4,3.2,1.2c.8.8,1.1,2,1.1,3.7v9.7h-3.4v-9.1c0-1-.2-1.7-.5-2-.3-.4-.8-.6-1.5-.6s-.7,0-1.1.2-.7.3-1.1.7c-.3.3-.5.6-.7.9-.2.3-.3.7-.3,1.2v8.8h-3.4v-9.1c0-1-.2-1.6-.5-2-.3-.4-.8-.6-1.5-.6s-1.5.3-2.2,1c-.2.2-.5.5-.7.9-.2.4-.3.8-.3,1.4v8.4h-3.4v-14.1Z"/>
    </g>
    <path class="st0" d="M322.2,115.5c1.1,0,2,.9,2,2s-.9,2-2,2-2-.9-2-2,.9-2,2-2ZM322.2,119.1c.9,0,1.7-.7,1.7-1.7s-.7-1.7-1.7-1.7-1.7.7-1.7,1.7.7,1.7,1.7,1.7ZM321.8,118.6h-.3v-2.3h.9c.5,0,.7.2.7.6s-.3.6-.6.6l.7,1h-.3l-.7-1h-.4v1ZM321.8,117.4h.4c.3,0,.6,0,.6-.4s-.3-.4-.5-.4h-.5v.8Z"/>
  </g>
</svg>