<?xml version="1.0" encoding="UTF-8" standalone="no"?>
<svg
   xmlns:dc="http://purl.org/dc/elements/1.1/"
   xmlns:cc="http://creativecommons.org/ns#"
   xmlns:rdf="http://www.w3.org/1999/02/22-rdf-syntax-ns#"
   xmlns:svg="http://www.w3.org/2000/svg"
   xmlns="http://www.w3.org/2000/svg"
   viewBox="0 0 382.66666 289.33334"
   height="274.97228798"
   width="363.673011323"
   xml:space="preserve"
   id="svg2"
   version="1.1"><metadata
     id="metadata8"><rdf:RDF><cc:Work
         rdf:about=""><dc:format>image/svg+xml</dc:format><dc:type
           rdf:resource="http://purl.org/dc/dcmitype/StillImage" /></cc:Work></rdf:RDF></metadata><defs
     id="defs6"><clipPath
       id="clipPath18"
       clipPathUnits="userSpaceOnUse"><path
         id="path16"
         d="M 0,217 H 287 V 0 H 0 Z" /></clipPath></defs><g
     transform="matrix(1.3333333,0,0,-1.3333333,0,289.33333)"
     id="g10"><g
       id="g12"><g
         clip-path="url(#clipPath18)"
         id="g14"><g
           transform="translate(10.5913,67.4902)"
           id="g20"><path
             id="path22"
             style="fill:#231f20;fill-opacity:1;fill-rule:nonzero;stroke:none"
             d="M 0,0 V 12.405 H 4.635 V 0.124 c 0,-3.537 1.713,-5.367 4.543,-5.367 2.827,0 4.543,1.769 4.543,5.212 v 12.436 h 4.634 V 0.157 c 0,-6.574 -3.584,-9.802 -9.238,-9.802 C 3.46,-9.645 0,-6.39 0,0" /></g><g
           transform="translate(35.4766,79.896)"
           id="g24"><path
             id="path26"
             style="fill:#231f20;fill-opacity:1;fill-rule:nonzero;stroke:none"
             d="m 0,0 h 4.272 l 9.869,-13.367 V 0 h 4.574 V -21.71 H 14.771 L 4.571,-7.909 V -21.71 H 0 Z" /></g><path
           id="path28"
           style="fill:#231f20;fill-opacity:1;fill-rule:nonzero;stroke:none"
           d="m 61.264,79.896 h 4.631 v -21.71 h -4.631 z" /><g
           transform="translate(71.1636,79.896)"
           id="g30"><path
             id="path32"
             style="fill:#231f20;fill-opacity:1;fill-rule:nonzero;stroke:none"
             d="M 0,0 H 5.113 L 10.62,-15.291 16.128,0 h 4.994 L 12.607,-21.865 H 8.515 Z" /></g><g
           transform="translate(97.3428,79.896)"
           id="g34"><path
             id="path36"
             style="fill:#231f20;fill-opacity:1;fill-rule:nonzero;stroke:none"
             d="M 0,0 H 15.885 V -4.248 H 4.602 v -4.407 h 9.929 v -4.248 H 4.602 v -4.559 H 16.034 V -21.71 L 0,-21.71 Z" /></g><g
           transform="translate(129.8403,69.3501)"
           id="g38"><path
             id="path40"
             style="fill:#231f20;fill-opacity:1;fill-rule:nonzero;stroke:none"
             d="m 0,0 c 2.255,0 3.548,1.244 3.548,3.07 v 0.064 c 0,2.048 -1.384,3.101 -3.639,3.101 H -4.695 V 0 Z m -9.33,10.546 h 9.631 c 2.675,0 4.751,-0.774 6.138,-2.203 C 7.611,7.133 8.244,5.428 8.244,3.38 V 3.322 c 0,-3.507 -1.838,-5.71 -4.514,-6.732 l 5.144,-7.755 H 3.46 l -4.516,6.951 h -0.061 -3.578 v -6.951 H -9.33 Z" /></g><g
           transform="translate(143.8306,61.3491)"
           id="g42"><path
             id="path44"
             style="fill:#231f20;fill-opacity:1;fill-rule:nonzero;stroke:none"
             d="m 0,0 2.736,3.38 c 1.899,-1.614 3.883,-2.634 6.29,-2.634 1.895,0 3.04,0.771 3.04,2.048 v 0.058 c 0,1.21 -0.722,1.832 -4.245,2.761 C 3.582,6.732 0.843,7.939 0.843,12.25 v 0.062 c 0,3.94 3.07,6.543 7.373,6.543 3.068,0 5.685,-0.989 7.821,-2.76 L 13.63,12.497 c -1.865,1.335 -3.7,2.141 -5.475,2.141 -1.774,0 -2.711,-0.834 -2.711,-1.89 v -0.063 c 0,-1.427 0.904,-1.891 4.544,-2.852 4.275,-1.15 6.682,-2.731 6.682,-6.517 V 3.258 c 0,-4.314 -3.19,-6.732 -7.732,-6.732 C 5.746,-3.474 2.526,-2.324 0,0" /></g><path
           id="path46"
           style="fill:#231f20;fill-opacity:1;fill-rule:nonzero;stroke:none"
           d="m 167.149,79.896 h 4.635 v -21.71 h -4.635 z" /><g
           transform="translate(183.7617,75.4932)"
           id="g48"><path
             id="path50"
             style="fill:#231f20;fill-opacity:1;fill-rule:nonzero;stroke:none"
             d="M 0,0 H -6.411 V 4.402 H 11.041 V 0 H 4.632 V -17.305 H 0 Z" /></g><g
           transform="translate(206.688,66.7451)"
           id="g52"><path
             id="path54"
             style="fill:#231f20;fill-opacity:1;fill-rule:nonzero;stroke:none"
             d="m 0,0 -8.094,13.152 h 5.416 l 5.024,-8.716 5.115,8.716 h 5.268 L 4.634,0.094 v -8.653 l -4.634,0 z" /></g><g
           transform="translate(251.7314,68.9771)"
           id="g56"><path
             id="path58"
             style="fill:#231f20;fill-opacity:1;fill-rule:nonzero;stroke:none"
             d="m 0,0 v 0.066 c 0,3.72 -2.645,6.821 -6.378,6.821 -3.731,0 -6.318,-3.04 -6.318,-6.763 V 0.066 c 0,-3.725 2.648,-6.826 6.379,-6.826 C -2.586,-6.76 0,-3.723 0,0 m -17.54,0 v 0.066 c 0,6.168 4.726,11.226 11.223,11.226 6.497,0 11.164,-4.994 11.164,-11.168 V 0.066 c 0,-6.176 -4.725,-11.228 -11.225,-11.228 -6.497,0 -11.162,4.991 -11.162,11.162" /></g><g
           transform="translate(261.7236,79.896)"
           id="g60"><path
             id="path62"
             style="fill:#231f20;fill-opacity:1;fill-rule:nonzero;stroke:none"
             d="m 0,0 h 16.034 v -4.344 h -11.4 v -4.618 h 10.049 v -4.344 H 4.634 V -21.71 H 0 Z" /></g><g
           transform="translate(28.2354,49.5054)"
           id="g64"><path
             id="path66"
             style="fill:#231f20;fill-opacity:1;fill-rule:nonzero;stroke:none"
             d="m 0,0 c -11.516,0 -20.199,-9.006 -20.199,-20.945 v -0.119 c 0,-5.66 2.017,-10.908 5.677,-14.776 3.694,-3.903 8.751,-6.05 14.24,-6.05 6.503,0 11.087,2.045 15.785,7.053 l -4.219,4.419 c -3.38,-3.239 -6.478,-5.243 -11.339,-5.243 -7.409,0 -13.213,6.464 -13.213,14.716 v 0.116 c 0,8.321 5.682,14.597 13.213,14.597 3.99,0 7.403,-1.545 11.046,-4.999 l 4.231,5.041 C 12.074,-3.109 7.788,0 0,0" /></g><g
           transform="translate(73.3374,24.1763)"
           id="g68"><path
             id="path70"
             style="fill:#231f20;fill-opacity:1;fill-rule:nonzero;stroke:none"
             d="m 0,0 h -14.133 l 7.036,16.979 z m 6.395,-15.863 h 7.273 l -17.23,40.782 h -6.826 l -17.231,-40.782 h 7.031 L -16.521,-6 H 2.388 Z" /></g><g
           transform="translate(188.8008,24.1763)"
           id="g72"><path
             id="path74"
             style="fill:#231f20;fill-opacity:1;fill-rule:nonzero;stroke:none"
             d="m 0,0 h -14.133 l 7.036,16.979 z m 6.398,-15.863 h 7.268 L -3.565,24.919 h -6.823 l -17.231,-40.782 h 7.034 L -16.521,-6 H 2.388 Z" /></g><g
           transform="translate(91.2925,8.3125)"
           id="g76"><path
             id="path78"
             style="fill:#231f20;fill-opacity:1;fill-rule:nonzero;stroke:none"
             d="M 0,0 H 27.865 V 6.176 H 7.097 V 40.491 H 0 Z" /></g><g
           transform="translate(140.4609,49.5054)"
           id="g80"><path
             id="path82"
             style="fill:#231f20;fill-opacity:1;fill-rule:nonzero;stroke:none"
             d="m 0,0 c -11.328,0 -20.616,-9.2 -20.616,-20.945 v -0.119 c 0,-12.265 8.769,-20.826 20.727,-20.826 7.575,0 13.041,3.394 16.943,6.262 v 16.894 H 0.832 v -5.884 h 9.216 v -7.917 l -0.066,-0.053 c -2.586,-1.987 -6.099,-3.128 -9.645,-3.128 -8.008,0 -13.608,6.074 -13.608,14.771 v 0.116 c 0,8.048 5.826,14.597 12.984,14.597 5.035,0 8.072,-1.716 11.043,-4.303 l 4.181,5.149 C 10.521,-1.562 6.179,0 0,0" /></g><g
           transform="translate(224.4155,28.5552)"
           id="g84"><path
             id="path86"
             style="fill:#231f20;fill-opacity:1;fill-rule:nonzero;stroke:none"
             d="m 0,0 h -10.339 v 14.075 h 10.281 c 5.314,0 8.359,-2.532 8.359,-6.95 V 7.005 C 8.301,2.75 5.041,0 0,0 m 8.329,-20.243 h 7.752 l -10.609,15.39 0.237,0.072 c 5.997,1.769 9.999,6.102 9.999,12.196 v 0.121 c 0,3.438 -1.819,6.439 -3.927,8.686 -2.604,2.633 -6.503,4.027 -11.276,4.027 h -17.891 v -40.492 h 7.047 V -6 h 8.963 z" /></g><g
           transform="translate(255.8384,8.3125)"
           id="g88"><path
             id="path90"
             style="fill:#231f20;fill-opacity:1;fill-rule:nonzero;stroke:none"
             d="m 0,0 h 7.575 v 15.575 l 15.55,24.916 H 15.301 L 4.032,22.247 -7.127,40.491 h -7.962 L 0,15.575 Z" /></g><g
           transform="translate(144.1421,209.3843)"
           id="g92"><path
             id="path94"
             style="fill:#231f20;fill-opacity:1;fill-rule:nonzero;stroke:none"
             d="m 0,0 c -32.104,0 -45.408,-10.775 -45.408,-10.775 v -48.293 c 0,-26.743 35.374,-54.491 45.408,-57.252 10.029,2.761 45.399,30.509 45.399,57.252 v 48.293 C 45.399,-10.775 32.107,0 0,0" /></g><g
           transform="translate(138.6011,149.5942)"
           id="g96"><path
             id="path98"
             style="fill:#ffce01;fill-opacity:1;fill-rule:nonzero;stroke:none"
             d="m 0,0 c 0.205,-0.263 0.348,-0.578 0.348,-0.934 0,-0.871 -0.719,-1.567 -1.603,-1.567 -0.89,0 -1.617,0.696 -1.617,1.567 0,0.464 0.219,0.868 0.542,1.155 -1.266,0.235 -2.584,0.879 -2.584,0.879 0.296,-0.915 0.959,-4.419 3.261,-4.668 2.844,-0.323 3.582,2.316 3.582,2.316 0,0 -0.475,0.846 -1.929,1.252" /></g><g
           transform="translate(152.1855,149.8145)"
           id="g100"><path
             id="path102"
             style="fill:#ffce01;fill-opacity:1;fill-rule:nonzero;stroke:none"
             d="m 0,0 c 0.329,-0.285 0.542,-0.69 0.542,-1.152 0,-0.873 -0.727,-1.57 -1.62,-1.57 -0.879,0 -1.6,0.697 -1.6,1.57 0,0.356 0.144,0.669 0.351,0.931 -1.456,-0.406 -1.931,-1.249 -1.931,-1.249 0,0 0.735,-2.639 3.581,-2.319 2.302,0.249 2.966,3.753 3.261,4.668 C 2.584,0.879 1.266,0.235 0,0" /></g><g
           transform="translate(154.8608,157.9507)"
           id="g104"><path
             id="path106"
             style="fill:#ffce01;fill-opacity:1;fill-rule:nonzero;stroke:none"
             d="m 0,0 c -0.931,0.771 -2.153,-0.194 -1.229,-1.238 0.771,-0.868 1.276,-1.429 0.942,-2.062 -0.456,-0.859 -4.792,-0.649 -10.344,-2.739 -5.555,2.09 -9.888,1.88 -10.347,2.739 -0.332,0.633 0.174,1.194 0.945,2.062 0.921,1.044 -0.298,2.009 -1.232,1.238 -0.782,-0.641 -2.216,-2.62 -1.703,-3.949 0.813,-2.114 5.757,-1.448 12.32,-4.168 v -0.011 c 0.006,0.003 0.011,0.003 0.017,0.006 0.003,-0.003 0.008,-0.003 0.014,-0.006 v 0.011 c 6.563,2.72 11.51,2.054 12.32,4.168 C 2.219,-2.62 0.782,-0.641 0,0" /></g><g
           transform="translate(149.0166,130.3569)"
           id="g108"><path
             id="path110"
             style="fill:#ffce01;fill-opacity:1;fill-rule:nonzero;stroke:none"
             d="m 0,0 c -0.848,0.334 -2.374,1.219 -2.805,2.758 -0.384,1.407 0.163,2.371 0.796,2.529 0.6,0.143 1.241,-0.255 0.984,-0.99 C -1.21,3.747 -1.802,3.468 -2.017,3.33 -2.379,3.114 -2.07,2.636 -1.614,2.725 c 1.001,0.196 1.581,1.288 1.539,2.061 -0.047,1.197 -1.409,1.479 -2.16,1.335 -1.172,-0.226 -2.023,-1.39 -1.543,-3.396 0.462,-1.896 2.139,-2.921 3.021,-3.322 -0.768,-0.32 -2.429,-0.583 -4.032,-0.683 -1.6,0.1 -3.264,0.363 -4.029,0.683 0.879,0.401 2.559,1.426 3.017,3.322 0.484,2.006 -0.367,3.17 -1.539,3.396 -0.751,0.144 -2.114,-0.138 -2.164,-1.335 -0.038,-0.773 0.542,-1.865 1.54,-2.061 0.456,-0.089 0.768,0.389 0.406,0.605 -0.216,0.138 -0.807,0.417 -0.992,0.967 -0.26,0.735 0.386,1.133 0.984,0.99 0.632,-0.158 1.18,-1.122 0.795,-2.529 C -7.202,1.219 -8.727,0.334 -9.578,0 c -0.724,-0.285 -0.829,-1.025 -0.376,-1.288 1.503,-0.854 3.703,-1.045 5.06,-1.064 v -0.002 c 0.03,0 0.072,0.002 0.105,0.002 0.036,0 0.077,-0.002 0.11,-0.002 v 0.002 c 1.357,0.019 3.557,0.21 5.058,1.064 C 0.832,-1.025 0.727,-0.285 0,0" /></g><g
           transform="translate(144.2598,194.0947)"
           id="g112"><path
             id="path114"
             style="fill:#ffce01;fill-opacity:1;fill-rule:nonzero;stroke:none"
             d="M 0,0 C 0.403,0.058 0.859,0.179 1.249,0.448 1.31,0.5 1.365,0.542 1.426,0.591 1.857,0.989 2.725,2.188 2.984,2.714 3.04,2.808 3.04,2.916 2.984,3.048 2.868,3.316 2.581,3.565 2.498,3.59 2.111,3.722 -2.128,3.733 -2.529,3.598 c 0,0 -0.022,-0.006 -0.069,-0.033 C -2.789,3.429 -3.153,3.034 -3.023,2.744 -2.777,2.241 -1.852,1 -1.413,0.6 -1.003,0.232 -0.47,0.085 0,0" /></g><g
           transform="translate(141.0103,192.0679)"
           id="g116"><path
             id="path118"
             style="fill:#ffce01;fill-opacity:1;fill-rule:nonzero;stroke:none"
             d="m 0,0 c 0.047,0.384 0.066,0.848 -0.066,1.279 -0.017,0.072 -0.044,0.133 -0.08,0.213 -0.26,0.517 -1.188,1.647 -1.617,2.051 -0.091,0.08 -0.202,0.11 -0.334,0.105 C -2.401,3.623 -2.73,3.43 -2.788,3.366 -3.034,3.048 -4.358,-0.837 -4.35,-1.235 c 0,0 0,-0.028 0.02,-0.08 0.069,-0.216 0.337,-0.678 0.683,-0.636 0.561,0.061 2.091,0.553 2.614,0.834 C -0.55,-0.862 -0.237,-0.415 0,0" /></g><g
           transform="translate(141.9902,188.4546)"
           id="g120"><path
             id="path122"
             style="fill:#ffce01;fill-opacity:1;fill-rule:nonzero;stroke:none"
             d="m 0,0 c -0.371,0.168 -0.804,0.34 -1.271,0.34 -0.078,0 -0.149,0 -0.227,-0.017 -0.603,-0.074 -2.017,-0.599 -2.553,-0.884 -0.097,-0.052 -0.163,-0.141 -0.197,-0.268 -0.074,-0.279 0.011,-0.638 0.053,-0.716 0.249,-0.326 3.662,-2.736 4.065,-2.863 h 0.077 c 0.233,0 0.788,0.111 0.854,0.431 0.1,0.531 0.1,2.112 -0.016,2.684 C 0.688,-0.768 0.337,-0.348 0,0" /></g><g
           transform="translate(145.8716,188.2485)"
           id="g124"><path
             id="path126"
             style="fill:#ffce01;fill-opacity:1;fill-rule:nonzero;stroke:none"
             d="m 0,0 c -0.284,-0.282 -0.591,-0.636 -0.738,-1.075 -0.025,-0.069 -0.038,-0.138 -0.052,-0.216 -0.116,-0.569 -0.039,-2.05 0.058,-2.63 0.03,-0.105 0.099,-0.194 0.207,-0.277 0.268,-0.155 0.644,-0.171 0.727,-0.157 0.412,0.116 3.836,2.506 4.079,2.849 0,0 0.016,0.008 0.022,0.055 0.089,0.222 0.144,0.76 -0.152,0.909 C 3.656,-0.268 2.106,0.232 1.518,0.315 0.957,0.387 0.439,0.196 0,0" /></g><g
           transform="translate(147.269,191.728)"
           id="g128"><path
             id="path130"
             style="fill:#ffce01;fill-opacity:1;fill-rule:nonzero;stroke:none"
             d="m 0,0 c 0.202,-0.348 0.445,-0.729 0.832,-1 0.049,-0.034 0.116,-0.078 0.196,-0.114 0.525,-0.276 2.006,-0.704 2.6,-0.782 0.114,-0.025 0.213,0.017 0.33,0.108 0.24,0.182 0.383,0.522 0.392,0.605 0.005,0.406 -1.293,4.287 -1.539,4.615 0,0 -0.017,0.023 -0.061,0.047 C 2.556,3.623 2.04,3.838 1.808,3.617 1.387,3.244 0.415,2.009 0.16,1.487 -0.088,1.009 -0.058,0.467 0,0" /></g><g
           transform="translate(145.2783,190.4849)"
           id="g132"><path
             id="path134"
             style="fill:#ffce01;fill-opacity:1;fill-rule:nonzero;stroke:none"
             d="M 0,0 C -0.251,0.063 -0.387,0.329 -0.312,0.572 -0.221,0.81 0.039,0.942 0.285,0.856 0.528,0.782 0.666,0.527 0.583,0.292 0.509,0.052 0.243,-0.069 0,0 M -0.981,1.398 C -1.196,1.542 -1.244,1.827 -1.086,2.034 -0.939,2.241 -0.649,2.28 -0.428,2.139 -0.221,1.984 -0.185,1.697 -0.337,1.503 -0.483,1.298 -0.782,1.246 -0.981,1.398 m 0.058,-2.611 c -0.26,0 -0.464,0.196 -0.464,0.453 0,0.246 0.204,0.453 0.464,0.453 0.263,0 0.473,-0.207 0.473,-0.453 0,-0.257 -0.21,-0.453 -0.473,-0.453 M -2.015,1.028 C -2.233,0.876 -2.526,0.934 -2.672,1.136 -2.833,1.343 -2.78,1.622 -2.578,1.766 -2.36,1.917 -2.078,1.865 -1.92,1.664 -1.76,1.462 -1.81,1.18 -2.015,1.028 m -0.259,-1.62 c -0.252,-0.077 -0.517,0.05 -0.594,0.285 -0.072,0.238 0.052,0.492 0.29,0.575 0.262,0.074 0.528,-0.047 0.594,-0.285 0.091,-0.246 -0.044,-0.497 -0.29,-0.575 M 1.318,0.934 C 1.213,1.133 1.042,1.293 0.849,1.42 0.874,1.567 0.89,1.713 0.86,1.859 0.804,2.219 0.611,2.523 0.31,2.75 -0.193,3.095 -0.881,3.048 -1.365,2.697 -1.829,2.918 -2.415,2.913 -2.844,2.611 -3.139,2.401 -3.347,2.089 -3.391,1.727 -3.44,1.498 -3.396,1.279 -3.322,1.072 -3.429,0.97 -3.532,0.862 -3.604,0.729 -3.775,0.4 -3.797,0.039 -3.684,-0.307 c 0.183,-0.569 0.73,-0.94 1.335,-0.94 0.014,0 0.028,0.006 0.041,0.006 0.23,-0.44 0.689,-0.749 1.244,-0.749 0.633,0 1.152,0.417 1.332,0.975 0.525,0.078 0.967,0.415 1.133,0.912 0.124,0.346 0.086,0.705 -0.083,1.037" /></g><g
           transform="translate(119.104,196.2573)"
           id="g136"><path
             id="path138"
             style="fill:#ffce01;fill-opacity:1;fill-rule:nonzero;stroke:none"
             d="m 0,0 c -1.307,1.224 -2.042,1.498 -2.421,1.498 -0.215,0 -0.486,-0.072 -0.934,-0.553 -0.11,-0.111 -0.224,-0.243 -0.334,-0.362 -0.622,-0.715 -1.393,-1.619 -2.742,-1.619 -0.5,0 -1.03,0.138 -1.603,0.406 v -10.325 c 0.523,-0.895 1.048,-1.409 1.49,-1.409 0.246,0 0.666,0.138 1.315,0.837 1.523,1.625 3.361,1.926 5.229,0.827 z" /></g><g
           transform="translate(127.314,195.2212)"
           id="g140"><path
             id="path142"
             style="fill:#ffce01;fill-opacity:1;fill-rule:nonzero;stroke:none"
             d="m 0,0 c -1.343,0 -2.128,0.906 -2.739,1.619 -0.113,0.119 -0.226,0.252 -0.334,0.362 -0.445,0.481 -0.721,0.553 -0.937,0.553 -0.387,0 -1.114,-0.274 -2.415,-1.498 v -10.7 c 0.729,0.436 1.459,0.652 2.186,0.652 1.097,0 2.111,-0.495 3.042,-1.479 0.641,-0.696 1.064,-0.837 1.304,-0.837 0.454,0 0.974,0.514 1.493,1.412 V 0.406 C 1.028,0.138 0.497,0 0,0" /></g><g
           transform="translate(169.2446,185.5581)"
           id="g144"><path
             id="path146"
             style="fill:#ffce01;fill-opacity:1;fill-rule:nonzero;stroke:none"
             d="m 0,0 c 1.871,1.1 3.706,0.798 5.229,-0.826 0.649,-0.699 1.069,-0.841 1.315,-0.841 0.445,0 0.967,0.515 1.49,1.413 V 10.067 C 7.464,9.799 6.931,9.664 6.434,9.664 5.082,9.664 4.311,10.568 3.692,11.281 3.579,11.402 3.468,11.532 3.355,11.646 2.907,12.124 2.637,12.198 2.424,12.198 2.042,12.198 1.31,11.924 0,10.7 Z" /></g><g
           transform="translate(161.0366,195.2212)"
           id="g148"><path
             id="path150"
             style="fill:#ffce01;fill-opacity:1;fill-rule:nonzero;stroke:none"
             d="M 0,0 C -0.495,0 -1.028,0.138 -1.6,0.406 V -9.916 c 0.519,-0.898 1.036,-1.412 1.492,-1.412 0.238,0 0.663,0.141 1.302,0.837 0.934,0.984 1.948,1.479 3.045,1.479 0.727,0 1.456,-0.216 2.183,-0.652 v 10.7 C 5.121,2.26 4.394,2.534 4.01,2.534 3.792,2.534 3.518,2.462 3.073,1.981 2.965,1.871 2.849,1.738 2.739,1.619 2.128,0.906 1.343,0 0,0" /></g><g
           transform="translate(133.5864,163.7974)"
           id="g152"><path
             id="path154"
             style="fill:#ffce01;fill-opacity:1;fill-rule:nonzero;stroke:none"
             d="m 0,0 c -3.327,1.158 -10.123,4.519 -12.997,12.519 -0.743,2.064 -1.829,1.76 -1.625,-0.439 0.534,-5.757 4.187,-12.757 11.845,-15.941 C 0.506,-5.22 2.349,-0.818 0,0" /></g><g
           transform="translate(154.8726,163.7974)"
           id="g156"><path
             id="path158"
             style="fill:#ffce01;fill-opacity:1;fill-rule:nonzero;stroke:none"
             d="m 0,0 c 3.327,1.158 10.123,4.519 12.997,12.519 0.743,2.064 1.829,1.76 1.625,-0.439 C 14.085,6.323 10.432,-0.677 2.777,-3.861 -0.506,-5.22 -2.349,-0.818 0,0" /></g><g
           transform="translate(152.7939,165.4175)"
           id="g160"><path
             id="path162"
             style="fill:#ffce01;fill-opacity:1;fill-rule:nonzero;stroke:none"
             d="M 0,0 C 0.451,0.097 1.1,0.268 1.843,0.511 3.896,1.285 7.547,3.134 10.35,6.834 3.905,8.091 -2.661,8.777 -8.542,8.777 c -5.925,0 -12.533,-0.696 -19.019,-1.979 2.924,-3.839 6.763,-5.676 8.747,-6.386 0.625,-0.185 1.186,-0.329 1.575,-0.412 0.923,-0.196 1.86,-0.346 3.015,0.616 1.155,0.967 1.365,1.542 5.604,1.542 4.24,0 4.453,-0.575 5.608,-1.542 C -1.86,-0.346 -0.923,-0.196 0,0" /></g><g
           transform="translate(174.897,155.084)"
           id="g164"><path
             id="path166"
             style="fill:#ffce01;fill-opacity:1;fill-rule:nonzero;stroke:none"
             d="M 0,0 -9.465,-15.622 C -5.897,-14.005 -0.556,-9.943 0,0" /></g><g
           transform="translate(122.9189,139.4634)"
           id="g168"><path
             id="path170"
             style="fill:#ffce01;fill-opacity:1;fill-rule:nonzero;stroke:none"
             d="M 0,0 -9.468,15.622 C -8.913,5.679 -3.57,1.614 0,0" /></g><g
           transform="translate(172.4268,127.4619)"
           id="g172"><path
             id="path174"
             style="fill:#ffce01;fill-opacity:1;fill-rule:nonzero;stroke:none"
             d="m 0,0 c -1.824,-1.462 -3.241,-2.468 -4.386,-3.27 -2.501,-1.754 -3.468,-2.544 -3.357,-3.852 l 0.439,-5.621 -3.283,1.52 c -2.589,1.15 -3.8,2.705 -4.024,5.221 -0.353,3.893 2.056,7.947 6.437,10.863 1.042,0.682 1.967,1.172 2.716,1.545 0.738,0.376 1.423,0.776 1.487,0.972 0.144,0.434 -0.683,1.142 -3.09,2.217 -0.249,0.111 -0.696,0.301 -1.105,0.472 L -28.251,-23.07 -48.337,10.067 c -0.409,-0.171 -0.859,-0.361 -1.102,-0.472 -2.413,-1.075 -3.237,-1.783 -3.096,-2.217 0.067,-0.196 0.752,-0.596 1.49,-0.972 0.749,-0.373 1.674,-0.863 2.716,-1.545 4.381,-2.916 6.79,-6.97 6.437,-10.863 -0.227,-2.516 -1.435,-4.071 -4.024,-5.221 l -3.283,-1.52 0.439,5.621 c 0.108,1.308 -0.856,2.098 -3.357,3.852 -1.145,0.802 -2.565,1.808 -4.386,3.27 -11.242,9.034 -11.61,20.417 -8.321,25.264 1.094,1.597 4.181,5.057 4.2,5.079 l -0.519,0.799 c -1.13,0.111 -2.018,1.05 -2.018,2.211 0,1.232 1.001,2.233 2.233,2.233 1.233,0 2.233,-1.001 2.233,-2.233 0,-0.24 -0.047,-0.467 -0.116,-0.683 0.019,-0.016 0.053,-0.024 0.042,-0.068 L -28.251,-18.48 2.266,32.602 c -0.014,0.044 0.023,0.052 0.042,0.068 -0.069,0.216 -0.119,0.443 -0.119,0.683 0,1.232 1,2.233 2.236,2.233 1.232,0 2.233,-1.001 2.233,-2.233 0,-1.161 -0.887,-2.1 -2.021,-2.211 L 4.121,30.343 C 4.14,30.321 7.227,26.861 8.324,25.264 11.61,20.417 11.242,9.034 0,0 m -1.981,43.095 c -1.302,-3.568 -3.673,-7.263 -7.409,-10.043 2.968,-0.94 6.704,-0.962 9.258,0.732 -0.868,-2.219 -3.582,-5.11 -5.547,-7.014 -0.356,0.238 -0.713,0.55 -0.973,0.827 -0.79,0.842 -1.503,0.099 -0.964,-0.6 0.188,-0.241 0.669,-0.929 0.95,-1.161 -0.585,-0.542 -1.011,-0.917 -1.138,-1.028 -0.398,0.24 -0.804,0.606 -1.092,0.912 -0.79,0.843 -1.503,0.102 -0.964,-0.597 0.191,-0.248 0.691,-0.967 0.97,-1.183 -0.481,-0.387 -1.014,-0.807 -1.484,-1.127 -0.987,1.249 -2.048,2.556 -3.648,1.738 -1.694,-0.868 -0.014,-2.006 -0.014,-3.703 0,-6.773 -4.261,-9.288 -5.314,-12.16 -1.064,-2.868 -2.062,-7.995 -2.904,-9.396 -0.829,-1.378 -4.372,-2.926 -5.997,-1.649 -1.625,-1.277 -5.202,0.251 -5.998,1.649 -0.795,1.401 -1.925,6.528 -2.989,9.396 -1.054,2.872 -5.232,5.387 -5.232,12.16 0,1.697 1.683,2.835 -0.011,3.703 -1.6,0.818 -2.661,-0.489 -3.65,-1.738 -0.471,0.32 -1.001,0.74 -1.482,1.127 0.28,0.216 0.78,0.935 0.97,1.183 0.539,0.699 -0.174,1.44 -0.964,0.597 -0.288,-0.306 -0.697,-0.672 -1.092,-0.912 -0.127,0.111 -0.555,0.486 -1.138,1.028 0.281,0.232 0.762,0.92 0.95,1.161 0.536,0.699 -0.176,1.442 -0.964,0.6 -0.26,-0.277 -0.617,-0.589 -0.973,-0.827 -1.965,1.904 -4.679,4.795 -5.549,7.014 2.658,-1.763 6.107,-1.678 9.125,-0.624 -3.64,2.755 -5.964,6.375 -7.252,9.879 -5.75,-1.586 -11.142,-3.64 -15.531,-6.126 V 22.484 c 0,-23.291 33.301,-50.219 41.851,-52.626 8.551,2.407 41.636,29.335 41.636,52.626 v 14.567 c -4.358,2.456 -9.717,4.482 -15.437,6.044" /></g><g
           transform="translate(179.7939,180.9502)"
           id="g176"><path
             id="path178"
             style="fill:#e32726;fill-opacity:1;fill-rule:nonzero;stroke:none"
             d="M 0,0 -9.954,2.114 V 1.183 h -1.487 -1.484 v 0.931 l -5.53,-0.832 c -0.069,-0.011 -0.135,-0.025 -0.204,-0.03 l -4.212,-0.633 v 14.685 l 0.744,0.208 v 2.446 l 1.425,-1.054 c 1.009,-0.759 1.614,-0.92 1.94,-0.92 0.49,0 0.843,0.379 1.385,1.003 0.13,0.138 0.252,0.283 0.37,0.418 0.705,0.743 1.429,1.105 2.258,1.105 0.976,0 2.028,-0.55 3.313,-1.68 1.283,1.13 2.336,1.68 3.309,1.68 0.823,0 1.55,-0.362 2.246,-1.105 0.128,-0.135 0.255,-0.28 0.376,-0.418 0.533,-0.624 0.904,-1.003 1.387,-1.003 0.324,0 0.929,0.161 1.935,0.92 l 1.437,1.054 V 15.512 L 0,15.304 Z m -26.088,7.1 c -0.146,-0.437 -0.721,-0.669 -1.445,-0.678 0.008,-0.414 -0.102,-0.82 -0.213,-0.984 -0.409,-0.541 -5.082,-3.791 -5.74,-3.993 -0.075,-0.019 -0.163,-0.022 -0.265,-0.022 -0.216,0 -0.448,0.033 -0.696,0.099 -0.219,-0.712 -0.647,-1.21 -1.142,-1.21 -0.481,0 -0.906,0.47 -1.127,1.161 -0.28,-0.102 -0.586,-0.155 -0.824,-0.155 -0.119,0 -0.204,0.008 -0.287,0.028 -0.655,0.207 -5.306,3.485 -5.699,4.034 -0.116,0.153 -0.212,0.498 -0.232,0.866 -0.735,0 -1.321,0.229 -1.467,0.671 -0.144,0.445 0.171,0.964 0.765,1.385 -0.315,0.348 -0.503,0.818 -0.503,1.022 -0.011,0.672 1.777,5.945 2.208,6.481 0.111,0.133 0.44,0.353 0.84,0.486 -0.207,0.655 -0.146,1.235 0.232,1.503 0.373,0.257 0.959,0.152 1.515,-0.226 0.254,0.39 0.644,0.702 0.851,0.765 0.431,0.144 2.36,0.158 3.178,0.158 1.261,0 3.493,-0.044 3.908,-0.174 0.199,-0.069 0.533,-0.34 0.776,-0.683 0.606,0.409 1.205,0.544 1.598,0.268 0.362,-0.249 0.442,-0.815 0.254,-1.443 0.442,-0.121 0.815,-0.376 0.923,-0.524 0.426,-0.531 2.183,-5.815 2.169,-6.497 0,-0.191 -0.149,-0.581 -0.411,-0.918 0.627,-0.429 0.992,-0.959 0.834,-1.42 m -22.277,-6.481 -4.214,0.633 c -0.069,0.005 -0.135,0.019 -0.205,0.03 l -5.529,0.832 V 1.183 h -1.484 -1.487 V 2.114 L -71.238,0 v 15.304 l 0.746,0.208 v 2.446 l 1.437,-1.054 c 1.009,-0.759 1.611,-0.92 1.934,-0.92 0.487,0 0.851,0.379 1.388,1.003 0.124,0.138 0.248,0.283 0.375,0.418 0.697,0.743 1.423,1.105 2.247,1.105 0.973,0 2.026,-0.55 3.308,-1.68 1.285,1.13 2.341,1.68 3.316,1.68 0.824,0 1.55,-0.362 2.256,-1.105 0.118,-0.135 0.243,-0.28 0.373,-0.418 0.538,-0.624 0.892,-1.003 1.379,-1.003 0.328,0 0.934,0.161 1.945,0.92 l 1.426,1.054 v -2.446 l 0.743,-0.208 z m 12.707,24.352 c -30.824,0 -41.74,-9.434 -41.74,-9.434 v -27.744 c 4.178,2.139 9.202,3.919 14.552,5.326 -0.099,0.547 -0.182,1.089 -0.229,1.605 -0.138,1.487 0.141,2.623 0.829,3.38 0.503,0.55 1.18,0.854 1.91,0.854 0.793,0 2.257,-0.37 3.148,-2.849 0.196,-0.55 0.419,-1.067 0.654,-1.567 7.13,1.423 14.373,2.191 20.876,2.191 6.489,0 13.834,-0.765 20.959,-2.186 0.232,0.501 0.453,1.015 0.649,1.562 0.89,2.479 2.355,2.849 3.148,2.849 0.73,0 1.406,-0.304 1.909,-0.854 0.689,-0.757 0.968,-1.893 0.829,-3.38 -0.046,-0.525 -0.132,-1.069 -0.232,-1.624 5.32,-1.402 10.322,-3.179 14.484,-5.307 v 27.744 c 0,0 -10.935,9.434 -41.746,9.434" /></g><g
           transform="translate(168.0464,138.2031)"
           id="g180"><path
             id="path182"
             style="fill:#e32726;fill-opacity:1;fill-rule:nonzero;stroke:none"
             d="m 0,0 c 1.382,-0.752 2.805,-1.86 2.805,-3.36 0,-1.6 -1.34,-2.283 -2.766,-3.015 -0.732,-0.376 -1.548,-0.788 -2.474,-1.413 -1.378,-0.912 -5.817,-4.228 -5.413,-8.754 0.146,-1.576 0.738,-2.413 2.305,-3.176 l -0.205,2.034 c -0.094,2.02 1.713,3.698 4.331,5.538 1.116,0.791 2.5,1.763 4.269,3.178 9.689,7.782 10.77,17.905 7.849,22.227 -0.393,0.575 -0.965,1.393 -1.548,2.203 C 8.288,6.641 3.794,2.205 0,0" /></g><g
           transform="translate(111.1494,153.665)"
           id="g184"><path
             id="path186"
             style="fill:#e32726;fill-opacity:1;fill-rule:nonzero;stroke:none"
             d="m 0,0 c -0.583,-0.81 -1.155,-1.627 -1.547,-2.203 -2.924,-4.322 -1.838,-14.444 7.848,-22.227 1.769,-1.415 3.153,-2.387 4.27,-3.178 2.617,-1.84 4.424,-3.517 4.33,-5.538 l -0.204,-2.034 c 1.569,0.763 2.158,1.6 2.307,3.176 0.404,4.526 -4.037,7.842 -5.416,8.754 -0.926,0.625 -1.741,1.037 -2.474,1.413 -1.428,0.732 -2.766,1.415 -2.766,3.015 0,1.5 1.426,2.609 2.805,3.36 C 5.359,-13.257 0.865,-8.821 0,0" /></g></g></g></g></svg>