<svg xmlns="http://www.w3.org/2000/svg" viewBox="0 0 458.5 168.9" class="sc-1i8vs00-0 VOEpM logo-animated-colour footer-logoarea__logo">
  <g fill="#007fb0">
    <path d="M135.1 85.5c-2.9 0-5.4-.6-7.5-1.7-2.1-1.2-3.8-2.8-5-4.9-1.2-2.1-1.8-4.5-1.8-7.3V48.7h6v22.9c0 2.5.8 4.5 2.3 6.1s3.6 2.3 6.1 2.3 4.6-.8 6.2-2.3c1.6-1.6 2.3-3.6 2.3-6.1V48.7h6v22.9c0 2.8-.6 5.2-1.8 7.3-1.2 2.1-2.9 3.7-5.1 4.9s-4.7 1.7-7.7 1.7ZM157 84.7V58.9h5.4l.3 3.6c1.8-2.8 4.4-4.2 7.8-4.2s5.5.9 7.2 2.8c1.7 1.9 2.6 4.9 2.6 9.1v14.6h-5.8V71.6c0-2.1-.2-3.7-.7-4.8-.5-1.1-1.1-1.9-2-2.4-.8-.4-1.8-.7-2.9-.7-2 0-3.5.6-4.5 1.9-1.1 1.3-1.6 3.2-1.6 5.6v13.5H157ZM189.7 54c-.9 0-1.7-.3-2.4-1s-1-1.5-1-2.4.3-1.7 1-2.4 1.5-1 2.4-1 1.7.3 2.4 1 1 1.5 1 2.4-.3 1.7-1 2.4-1.5 1-2.4 1Zm-2.9 30.7V58.9h5.7v25.8h-5.7ZM207.6 84.7l-10.7-25.8h5.9l7.6 19.5 7.6-19.5h6l-10.6 25.8h-5.8ZM238.8 85.4c-2.5 0-4.7-.6-6.7-1.7-1.9-1.2-3.5-2.7-4.6-4.8-1.1-2-1.7-4.4-1.7-7s.6-5 1.7-7 2.7-3.6 4.7-4.8c2-1.2 4.2-1.7 6.8-1.7s4.4.6 6.3 1.8c1.9 1.2 3.3 2.9 4.4 5.1 1.1 2.2 1.6 4.9 1.6 8h-19.5c.1 2.2.9 3.9 2.4 5.1s3.2 1.9 5.1 1.9 2.9-.4 3.9-1.1c1-.7 1.8-1.6 2.4-2.7l5.1 2.2c-1.1 2.1-2.6 3.8-4.6 5s-4.4 1.8-7.4 1.8Zm0-22.2c-1 0-1.9.2-2.9.6-1 .4-1.8 1-2.5 1.8s-1.1 1.9-1.3 3.1H245c-.2-1.9-.9-3.2-2.1-4.2-1.2-.9-2.6-1.4-4.1-1.4ZM256.1 84.7V58.9h5.8v4.7c1-1.7 2.4-2.9 4-3.6 1.6-.8 3.4-1.2 5.1-1.2v5.5c-1.6 0-3.1.2-4.5.6S264 66 263.1 67c-.9 1-1.3 2.2-1.3 3.8v13.9H256ZM284.5 85.4c-2.6 0-4.9-.6-6.8-1.7-1.9-1.2-3.3-2.7-4.1-4.6l5-2.2c.5 1 1.3 1.8 2.3 2.4 1 .7 2.1 1 3.4 1s2.4-.2 3.2-.7c.8-.4 1.2-1.1 1.2-2s-.3-1.4-1-1.8c-.6-.4-1.5-.8-2.6-1.1l-2.4-.7c-2.4-.6-4.4-1.6-5.7-3-1.4-1.4-2.1-2.9-2.1-4.7 0-2.6.8-4.6 2.5-6 1.7-1.4 4.1-2.1 7.2-2.1s4.4.5 6.2 1.5c1.8 1 3 2.4 3.6 4.1l-4.8 2.2c-.3-.9-1-1.5-2-2s-2-.7-3.2-.7-2.1.3-2.7.8c-.7.5-1 1.2-1 2.1s1.1 1.9 3.4 2.5l3 .7c2.5.7 4.4 1.8 5.5 3.3 1.2 1.6 1.8 3.2 1.8 4.8s-.4 3-1.3 4.1-2.1 2-3.6 2.7c-1.5.6-3.2 1-5.2 1ZM302.8 54c-.9 0-1.7-.3-2.4-1s-1-1.5-1-2.4.3-1.7 1-2.4 1.5-1 2.4-1 1.7.3 2.4 1 1 1.5 1 2.4-.3 1.7-1 2.4-1.5 1-2.4 1Zm-2.9 30.7V58.9h5.7v25.8h-5.7ZM323 85.4c-2.7 0-4.8-.7-6.2-2s-2.1-3.3-2.1-5.9V63.9h-4.3v-5h4.3v-8.1h5.7v8.1h7v5h-7v12.5c0 2.4 1.1 3.7 3.4 3.7s.7 0 1.1-.2c.4-.1.9-.4 1.4-.8l2.1 4.4c-1.8 1.3-3.6 1.9-5.4 1.9ZM337.5 95.7c-.8 0-1.8-.2-2.8-.5-1-.3-2-.7-2.9-1.2l2.1-4.7c.7.3 1.2.6 1.8.8.5.2 1 .3 1.4.3 1.6 0 2.8-.8 3.5-2.5l1.4-3.3L330.5 59h6.3l7.9 19.1 7.7-19.1h6.3l-12 28.6c-.7 1.7-1.5 3.1-2.2 4.4s-1.7 2.2-2.8 2.8c-1.1.7-2.5 1-4.2 1ZM387.1 85.4c-2.6 0-4.9-.6-6.9-1.7s-3.6-2.7-4.7-4.8c-1.1-2-1.7-4.4-1.7-7s.6-5 1.7-7 2.7-3.6 4.7-4.8 4.3-1.7 6.8-1.7 4.9.6 6.9 1.7c2 1.2 3.6 2.7 4.7 4.8 1.1 2 1.7 4.4 1.7 7s-.6 5-1.7 7-2.7 3.6-4.7 4.8-4.2 1.7-6.8 1.7Zm0-5.4c2.1 0 3.9-.8 5.2-2.3 1.4-1.5 2-3.5 2-5.9s-.7-4.4-2.1-5.9c-1.4-1.5-3.2-2.3-5.3-2.3s-3.9.8-5.3 2.3c-1.4 1.5-2.1 3.5-2.1 5.9s.7 4.4 2.1 5.9c1.4 1.5 3.2 2.3 5.4 2.3ZM408.1 84.7V63.6h-4.4v-4.8h4.4v-2.7c0-2.7.7-4.8 2-6.3 1.4-1.5 3.4-2.2 6.2-2.2s1.9.2 2.9.5 2 .7 2.9 1.1l-2.1 4.3c-1.3-.6-2.3-.9-3-.9-2 0-3 1.4-3 4.3v1.9h6.8v4.8H414v21.1h-5.8ZM121.3 136.4v-36.2h6v30.7h16.4v5.5h-22.4ZM156.3 137c-3.1 0-5.5-.7-7.2-2.1-1.7-1.4-2.6-3.3-2.6-5.8s.9-4.7 2.7-6.2c1.8-1.4 4.3-2.1 7.6-2.1h6.6c-.2-1.9-.7-3.3-1.6-4.3-.9-1-2.1-1.5-3.8-1.5-2.5 0-4.4 1.1-5.6 3.2l-5.1-1.9c.8-1.7 2-3.2 3.7-4.5 1.7-1.3 4-1.9 7-1.9s6.6 1.1 8.5 3.3c1.9 2.2 2.8 5.2 2.8 9l-.2 14.2h-5.3l-.2-3.2c-.7 1.2-1.7 2.2-2.9 2.8-1.2.7-2.7 1-4.4 1Zm.7-4.8c1.9 0 3.5-.6 4.7-1.9 1.2-1.3 1.8-2.8 1.8-4.6v-.4h-4.8c-2.3 0-3.9.3-4.9 1-.9.7-1.4 1.6-1.4 2.7s.4 1.8 1.2 2.4c.8.6 1.9.9 3.4.9ZM175.3 136.4v-25.8h5.4l.3 3.6c1.8-2.8 4.4-4.2 7.8-4.2s5.5.9 7.2 2.8c1.7 1.9 2.6 4.9 2.6 9.1v14.6h-5.8v-13.2c0-2.1-.2-3.7-.7-4.8-.5-1.1-1.1-1.9-2-2.4-.8-.4-1.8-.7-2.9-.7-2 0-3.5.6-4.5 1.9-1.1 1.3-1.6 3.2-1.6 5.6v13.5h-5.8ZM216.9 137c-2.7 0-5-.6-7-1.7s-3.6-2.7-4.8-4.8c-1.2-2-1.7-4.4-1.7-7s.6-5 1.7-7c1.2-2 2.7-3.6 4.8-4.8s4.3-1.7 7-1.7 4.8.6 6.9 1.8c2 1.2 3.6 3 4.6 5.2l-5.4 2.1c-.6-1.1-1.4-2-2.6-2.7-1.1-.7-2.4-1-3.8-1-2.1 0-3.9.8-5.2 2.3-1.4 1.5-2 3.5-2 5.9s.7 4.4 2.1 5.9c1.4 1.5 3.2 2.3 5.3 2.3s2.7-.4 3.9-1.1c1.1-.7 2-1.7 2.5-3l5.4 2.1c-1 2.3-2.5 4.2-4.6 5.5-2.1 1.3-4.4 2-7 2ZM241.5 137c-3.1 0-5.5-.7-7.2-2.1-1.7-1.4-2.6-3.3-2.6-5.8s.9-4.7 2.7-6.2c1.8-1.4 4.3-2.1 7.6-2.1h6.6c-.2-1.9-.7-3.3-1.6-4.3-.9-1-2.1-1.5-3.8-1.5-2.5 0-4.4 1.1-5.6 3.2l-5.1-1.9c.8-1.7 2-3.2 3.7-4.5 1.7-1.3 4-1.9 7-1.9s6.6 1.1 8.5 3.3c1.9 2.2 2.8 5.2 2.8 9l-.2 14.2H249l-.2-3.2c-.7 1.2-1.7 2.2-2.9 2.8-1.2.7-2.7 1-4.4 1Zm.8-4.8c1.9 0 3.5-.6 4.7-1.9 1.2-1.3 1.8-2.8 1.8-4.6v-.4H244c-2.3 0-3.9.3-4.9 1-.9.7-1.4 1.6-1.4 2.7s.4 1.8 1.2 2.4c.8.6 1.9.9 3.4.9ZM270 137c-2.6 0-4.9-.6-6.8-1.7-1.9-1.2-3.3-2.7-4.1-4.6l5-2.2c.5 1 1.3 1.8 2.3 2.4 1 .7 2.1 1 3.4 1s2.4-.2 3.2-.7c.8-.4 1.2-1.1 1.2-2s-.3-1.4-1-1.8c-.6-.4-1.5-.8-2.6-1.1l-2.4-.7c-2.4-.6-4.4-1.6-5.7-3-1.4-1.4-2.1-2.9-2.1-4.7 0-2.6.8-4.6 2.5-6 1.7-1.4 4.1-2.1 7.2-2.1s4.4.5 6.2 1.5c1.8 1 3 2.4 3.6 4.1l-4.8 2.2c-.3-.9-1-1.5-2-2s-2-.7-3.2-.7-2.1.3-2.7.8c-.7.5-1 1.2-1 2.1s1.1 1.9 3.4 2.5l3 .7c2.5.7 4.4 1.8 5.5 3.3 1.2 1.6 1.8 3.2 1.8 4.8s-.4 3-1.3 4.1-2.1 2-3.6 2.7c-1.5.6-3.2 1-5.2 1ZM285.1 136.4v-36.2h5.8V114c1.8-2.7 4.3-4.1 7.7-4.1s5.5.9 7.2 2.8c1.7 1.9 2.6 4.9 2.6 9.1v14.6h-5.8v-13.2c0-2.1-.2-3.7-.7-4.8-.5-1.1-1.1-1.9-2-2.4-.8-.4-1.8-.7-2.9-.7-2 0-3.5.6-4.5 1.9-1.1 1.3-1.6 3.2-1.6 5.6v13.5h-5.8ZM317.8 105.7c-.9 0-1.7-.3-2.4-1s-1-1.5-1-2.4.3-1.7 1-2.4 1.5-1 2.4-1 1.7.3 2.4 1 1 1.5 1 2.4-.3 1.7-1 2.4-1.5 1-2.4 1Zm-2.9 30.7v-25.8h5.7v25.8h-5.7ZM327.7 136.4v-25.8h5.8v4.7c1-1.7 2.4-2.9 4-3.6 1.6-.8 3.4-1.2 5.1-1.2v5.5c-1.6 0-3.1.2-4.5.6s-2.5 1.1-3.4 2.1c-.9 1-1.3 2.2-1.3 3.8v13.9h-5.8ZM358.3 137c-2.5 0-4.7-.6-6.7-1.7-1.9-1.2-3.5-2.7-4.6-4.8-1.1-2-1.7-4.4-1.7-7s.6-5 1.7-7 2.7-3.6 4.7-4.8c2-1.2 4.2-1.7 6.8-1.7s4.4.6 6.3 1.8c1.9 1.2 3.3 2.9 4.4 5.1 1.1 2.2 1.6 4.9 1.6 8h-19.5c.1 2.2.9 3.9 2.4 5.1s3.2 1.9 5.1 1.9 2.9-.4 3.9-1.1c1-.7 1.8-1.6 2.4-2.7l5.1 2.2c-1.1 2.1-2.6 3.8-4.6 5s-4.4 1.8-7.4 1.8Zm.1-22.1c-1 0-1.9.2-2.9.6-1 .4-1.8 1-2.5 1.8s-1.1 1.9-1.3 3.1h12.9c-.2-1.9-.9-3.2-2.1-4.2-1.2-.9-2.6-1.4-4.1-1.4Z"/>
  </g>
  <path d="m57.3 42.4 33.4-13.9.9 2.1-33.4 13.9-.9-2.1Zm-2.9-3.5L80 13.2l1.6 1.6L56 40.5l-1.6-1.6Zm-4-2.1L64.2 3.2l2.1.9-13.8 33.6-2.1-.9ZM45.9 0h2.3v36.4h-2.3V0ZM27.7 4.1l2.1-.9 13.8 33.6-2.1.9L27.7 4.1ZM12.5 14.9l1.6-1.6L39.7 39l-1.6 1.6-25.6-25.7ZM2.6 30.7l.9-2.1 33.4 13.9-.9 2.1L2.6 30.7ZM94.1 48.5H56.2c-2.6 0-5 1-6.8 2.9L47 54.1l-2.5-2.7c-1.8-1.8-4.2-2.8-6.7-2.8H0v71.1c0 10.1 7.8 21.4 23.3 33.7 7.2 5.7 14.9 10.8 23 15.3.2.1.5.2.8.2s.5 0 .8-.2c1.9-1 46.3-25.1 46.3-49.3V48.5h-.1Z" fill="#007fb0"/>
  <path d="M3.2 109.2v10.3c0 4.3 1.8 9.1 5.3 14.2 4.8 6.4 10.5 12.2 16.8 17 6.9 5.4 14.2 10.3 21.8 14.6 7.9-4.4 15.5-9.5 22.6-15.2 13.9-11.2 21.2-21.9 21.2-30.8v-10L47 84 3.2 109.2Zm26.9-30.5h-1.9V65l-2.9 2.4-1.1-1.4 4.3-3.5h1.7v16.2h-.1Zm4.5-12.2c0-.6 0-1.2.3-1.7s.6-1 1-1.4.9-.7 1.5-.9 1.2-.3 1.8-.3 1.2 0 1.8.3c.5.2 1 .5 1.5.9.4.4.7.9 1 1.4.2.5.4 1.1.3 1.7 0 .4 0 .8-.2 1.1 0 .4-.3.7-.5 1.1-.2.3-.5.6-.8.9-.3.2-.7.4-1.1.5.5 0 .9.3 1.4.5.4.2.7.5 1 .9s.5.8.6 1.2c.2.5.2 1 .2 1.5s0 1.4-.4 2c-.2.6-.6 1.1-1.1 1.5s-1 .7-1.6.9c-1.3.4-2.8.4-4.1 0-.6-.2-1.2-.5-1.6-.9-.5-.4-.8-.9-1.1-1.5s-.4-1.3-.4-2 0-1 .2-1.5c.2-.4.4-.9.6-1.2.3-.4.6-.7 1-.9.4-.3.9-.4 1.4-.5-.4 0-.8-.3-1.1-.5s-.6-.5-.8-.9c-.2-.3-.4-.7-.5-1.1s-.2-.8-.2-1.1m1.3 7.7c0 .5 0 .9.2 1.4.2.4.4.7.7 1s.6.5 1 .7c.8.3 1.7.3 2.5 0 .4-.2.7-.4 1-.7.3-.3.5-.7.6-1.1.3-.8.3-1.8 0-2.6-.2-.4-.4-.7-.7-1s-.6-.5-1-.7c-.8-.3-1.7-.3-2.5 0-.4.2-.7.4-1 .7-.3.3-.5.6-.7 1s-.3.9-.2 1.4m.6-7.7c0 1.4 1.3 2.5 2.7 2.5s2.5-1.3 2.4-2.7c0-.5-.2-1-.5-1.4s-.7-.7-1.2-.9c-.5-.2-1-.2-1.5 0-.5 0-.9.4-1.3.7-.5.5-.8 1.2-.7 1.9Zm10.4 10 6.1-5.9 1-1c.3-.3.5-.6.7-.9.4-.6.6-1.3.6-2s-.3-1.5-.8-2c-.3-.2-.6-.4-.9-.5-.4 0-.8-.2-1.1-.2-.7 0-1.5.2-2 .7s-.9 1.1-1 1.9l-2.1-.2c0-.6.3-1.2.6-1.8.3-.5.7-.9 1.1-1.3.5-.3 1-.6 1.5-.8 1.2-.4 2.5-.3 3.7 0 .6.2 1.1.4 1.6.8.4.4.8.8 1.1 1.4s.4 1.2.4 1.9 0 1.2-.3 1.7c-.2.5-.4.9-.7 1.4-.3.4-.6.9-1 1.2-.4.4-.8.8-1.2 1.1l-4.9 4.7h8.2v1.8H47.2v-2.1h-.3Zm13.4-10.1c0-.6 0-1.2.4-1.7.2-.5.5-1 1-1.4.4-.4.9-.7 1.5-.9s1.2-.3 1.8-.3 1.2 0 1.8.3c.5.2 1 .5 1.5.9.4.4.8.9 1 1.4s.3 1.1.3 1.7-.3 1.6-.7 2.2c-.2.3-.5.6-.8.9-.3.2-.7.4-1.1.5.5 0 .9.3 1.4.5.4.2.7.5 1 .9s.5.8.6 1.2c.2.5.2 1 .2 1.5s0 1.4-.4 2c-.2.6-.6 1.1-1.1 1.5s-1 .7-1.6.9c-1.3.4-2.8.4-4.1 0-.6-.2-1.2-.5-1.6-.9-.5-.4-.8-.9-1.1-1.5-.2-.6-.4-1.3-.3-1.9 0-.5 0-1 .2-1.5.2-.4.4-.9.6-1.2.3-.4.6-.7 1-.9.4-.3.9-.4 1.4-.5-.4 0-.8-.3-1.1-.5s-.6-.5-.8-.9c-.2-.3-.4-.7-.5-1.1s-.2-.8-.2-1.1m1.2 7.6c0 .5 0 .9.2 1.4.2.4.4.7.7 1s.6.5 1 .7c.6.2 1.2.3 1.9.2.6 0 1.2-.4 1.7-.8.3-.3.5-.6.7-1 .3-.8.3-1.8 0-2.6-.2-.4-.4-.7-.7-1-.3-.3-.6-.5-1-.7s-.8-.2-1.3-.2-.9 0-1.3.2-.7.4-1 .7c-.3.3-.5.6-.7 1s-.3.9-.2 1.4m.5-7.7c0 1.4 1.3 2.5 2.7 2.5s2.5-1.3 2.4-2.7c0-.5-.2-1-.5-1.4s-.7-.7-1.2-.9c-.5-.2-1-.2-1.5 0s-.9.4-1.3.7c-.5.5-.8 1.2-.7 1.9Z" fill="#fff"/>
  <path d="m30 142.9.5 3.6 3.6-.7c0-1.7.2-3.3.5-5-1.5.8-3 1.5-4.6 2Zm-6.4-29.6-3.3 1.6 1.7 3.2c1.6-.5 3.2-.9 4.9-1.1-1.2-1.1-2.3-2.4-3.3-3.7ZM44.5 98l2.5-2.6 2.5 2.6c-1 1.4-1.8 2.8-2.5 4.3-.7-1.5-1.5-3-2.5-4.3Zm26.1 15.3 3.3 1.6-1.8 3.2c-1.6-.5-3.2-.9-4.9-1.1 1.2-1.1 2.3-2.4 3.3-3.7m-6.4 29.6-.5 3.6-3.6-.7c0-1.7-.2-3.3-.5-5 1.5.8 3 1.5 4.6 2m-15.5-29.2c1.6.2 3.1.9 4.4 1.8 1.3.9 2.4 2.2 3.1 3.7l7.1-2c1.7-.5 3.1-1.5 4.1-3 1.1-1.9.6-4.4-1.2-5.8-1.5-1.4-4.5-1.7-7-1.1-.3-2.6-1.5-5.3-3.3-6.4-.9-.6-2-.9-3-.8-1.1 0-2.1.6-2.8 1.5-1.1 1.3-1.7 3-1.6 4.8l.2 7.4ZM31 117.1l7.1 2c.7-1.4 1.8-2.7 3.1-3.6s2.8-1.6 4.4-1.8l.3-7.4c0-1.7-.5-3.4-1.6-4.8-.7-.8-1.7-1.3-2.8-1.5-1.1 0-2.1.2-3 .8-1.8 1.1-3 3.8-3.3 6.4-2.5-.5-5.4-.2-7 1.1-1.8 1.3-2.3 3.8-1.1 5.8.9 1.5 2.4 2.5 4 3m20.6 15.6c-1.4.8-3 1.1-4.6 1.1s-3.2-.4-4.6-1.1l-4.5 5.8c-1.1 1.4-1.6 3.1-1.5 4.8.2 2.2 2.1 4 4.3 4 2 .2 4.6-1.4 6.4-3.2 1.7 1.9 4.3 3.4 6.4 3.2 2.2 0 4.1-1.7 4.3-4 0-1.7-.4-3.4-1.5-4.8l-4.6-5.8h-.1Zm17.2-13.2c-1.6-.6-3.4-.6-5 0l-6.9 2.6v1.6c0 2.7-1.1 5.3-3 7.2l4.1 6.1c1 1.4 2.4 2.5 4.1 2.9 2.2.5 4.4-.7 5.1-2.9.8-1.9.2-4.9-1.1-7.1 2.3-1.1 4.6-3.1 5-5.1.7-2.1-.4-4.5-2.4-5.3M37 123.7V122l-6.9-2.6c-1.6-.6-3.4-.6-5 0-1 .4-1.8 1.2-2.2 2.2-.5 1-.5 2.1-.2 3.1.5 2 2.7 4.1 5 5.1-1.3 2.2-1.9 5.2-1.1 7.1.3 1 1.1 1.9 2 2.4s2 .7 3.1.4c1.7-.4 3.1-1.4 4.1-2.9l4.1-6.1c-1-.9-1.7-2.1-2.2-3.3s-.8-2.6-.8-3.9m2.2.2c0-4.4 3.6-8 8-8s8 3.6 8 8-3.6 8-8 8-8-3.6-8-8Z" fill="#be1622"/>
</svg>
