<?xml version="1.0" encoding="UTF-8"?>
<svg id="Capa_1" data-name="Capa 1" xmlns="http://www.w3.org/2000/svg" version="1.1" viewBox="0 0 529.7 223">
  <defs>
    <style>
      .cls-1 {
        fill: #b71234;
        stroke-width: 0px;
      }
    </style>
  </defs>
  <path class="cls-1" d="M437.8,93.7v-56h-19.4l-19.4,32.4-19.3-32.4h-19.4v56h17.8v-31.9l16.7,31.9h8.7l16.6-31.9v31.9h17.8ZM299.4,93.7h49.4v-16h-29.9v-40h-19.5v56h0ZM248,66c0-9.3,5.1-15.9,17.8-15.9s20.4,4.5,20.4,4.5l-1.1-14.6s-10.6-3.1-22.5-3.1-33.6,1.3-33.6,29,20.3,28.7,33.6,28.7,24.9-3.9,24.9-3.9l.5-14.4s-13.9,5.1-22.1,5.1-17.9-5.9-17.9-15.3h0ZM212,89.4c4.4-3.4,5.7-9.3,5.7-13.6v-38.1h-18.4v32c0,1.8-.6,5.8-2.6,7.3-2.3,1.7-4.7,1.8-7.8,1.8s-6.5,0-8.3-2.3c-1.7-2-2.1-4.2-2.1-6.4v-32.5h-18.5v38.2c0,3.7,1,9.7,5.2,13.1,5.6,4.6,14.1,5.5,24,5.5s17.6-1,22.9-5h0Z"/>
  <path class="cls-1" d="M149,66.4c-4-13.9-14.9-24.9-28.6-28.8-13.7,4-24.5,15-28.4,28.8l8.4,8.4v-8.6c.5-10.8,9.3-19.2,20.1-19.2,11.1,0,20.1,9,20.1,20.1v7.7l8.4-8.4h0ZM105.6,66.3v.4s0,13.4,0,13.4l4.9,4.9v-4.8c0-1.7.7-3.3,2-4.4-1.2-1.7-1.9-3.8-1.9-5.9,0-5.5,4.5-10,10-10,5.5,0,10,4.5,10,10s-.7,4.2-1.9,5.9c1.2,1.1,1.9,2.7,1.9,4.3v4.8l4.9-4.9v-12.9c0-8.2-6.7-14.9-14.9-14.9-7.9,0-14.5,6.2-14.9,14.1h0ZM117.9,74.3v5.2h-1.6c-.4,0-.7.3-.7.7v8.6s4.9,4.9,4.9,4.9l4.9-4.9v-8.6c0-.4-.3-.7-.7-.7h-1.6v-5.1l.6-.5c1.2-1,1.9-2.4,1.9-4,0-2.8-2.3-5.1-5.1-5.1s-5.1,2.3-5.1,5.1.7,3,1.9,3.9l.6.5h0Z"/>
  <path class="cls-1" d="M186.4,114.5v24.7c0,3.5-1,6.3-3,8.3-2,2-4.8,3-8.4,3s-6.5-1-8.6-3c-2-2-3-4.9-3-8.5v-24.4h-2.7v24.3c0,4.4,1.2,7.8,3.7,10.3,2.5,2.5,5.9,3.7,10.2,3.7s8-1.2,10.5-3.7c2.5-2.4,3.8-5.8,3.8-10.2v-24.4h-2.6ZM221.1,152.3v-18.4c0-6.8-3.2-10.3-9.6-10.3s-7.9,1.5-9.7,4.4h-.2l-.5-3.9h-2.2v28.1h2.6v-15.5c0-3.8.8-6.6,2.3-8.3,1.6-1.7,4-2.5,7.4-2.5s4.3.6,5.5,1.9c1.2,1.3,1.8,3.3,1.8,6.2v18.2h2.5ZM233.1,124.2h-2.6v28.1h2.6v-28.1h0ZM231.8,118.9c.5,0,1-.2,1.3-.7.3-.4.5-1.1.5-1.8s-.2-1.4-.5-1.8c-.3-.4-.7-.6-1.3-.6-1.1,0-1.6.8-1.6,2.5s.5,2.5,1.6,2.5h0ZM251.6,152.3l10.9-28.1h-2.6l-7.3,19c-.7,2-1.5,4.1-2.2,6.5h-.2c-.5-1.8-1.2-4-2.2-6.4l-7.3-19.1h-2.6l10.9,28.1h2.6ZM283.2,152.4c1.3-.2,2.8-.7,4.4-1.4v-2.3c-1.9.7-3.4,1.2-4.6,1.4-1.2.2-2.6.3-4.2.3-3.3,0-5.8-1-7.6-3-1.8-2-2.7-5-2.7-8.8h20.2v-2.1c0-4-1-7.1-2.9-9.4-1.9-2.3-4.5-3.5-7.8-3.5s-6.7,1.3-8.9,4c-2.2,2.7-3.3,6.3-3.3,10.8s1.1,8.1,3.4,10.6c2.3,2.5,5.5,3.8,9.5,3.8s3.1-.1,4.4-.4h0ZM283.9,128.7c1.4,1.8,2.1,4.4,2.1,7.6h-17.4c.3-3.4,1.2-5.9,2.9-7.7,1.6-1.8,3.8-2.7,6.5-2.7s4.5.9,5.9,2.8h0ZM303.1,124.9c-1.3.8-2.5,2.3-3.7,4.4h-.2l-.3-5.1h-2.2v28.1h2.6v-15.5c0-3.1.8-5.7,2.3-7.7,1.5-2,3.5-3,5.9-3s2.5.1,3.6.4l.5-2.5c-1.4-.2-2.6-.4-3.8-.4-1.9,0-3.4.4-4.8,1.3h0ZM334.3,141.7c-.6-.9-1.4-1.8-2.6-2.5-1.2-.7-3-1.6-5.5-2.5-3-1.1-5.1-2.1-6.1-2.9-1-.9-1.6-2-1.6-3.5s.7-2.4,2-3.2c1.3-.8,3.2-1.1,5.5-1.1s4.9.6,7.7,1.7l1-2.3c-2.7-1.1-5.6-1.7-8.6-1.7s-5.6.6-7.4,1.8c-1.8,1.2-2.6,2.9-2.6,5s.3,2.5.9,3.4c.6.9,1.4,1.7,2.6,2.5,1.1.7,3.1,1.6,5.9,2.6,2.6.9,4.5,1.9,5.6,2.8,1.1,1,1.7,2.2,1.7,3.6s-.7,2.8-2.2,3.7c-1.4.9-3.5,1.4-6.3,1.4s-6.1-.7-8.9-2.1v2.8c2.2,1.2,5.2,1.7,8.9,1.7s6.2-.7,8.1-2c1.9-1.4,2.9-3.3,2.9-5.8s-.3-2.4-.9-3.3h0ZM345.3,124.2h-2.6v28.1h2.6v-28.1h0ZM344,118.9c.5,0,1-.2,1.3-.7.3-.4.5-1.1.5-1.8s-.2-1.4-.5-1.8c-.3-.4-.7-.6-1.3-.6-1.1,0-1.6.8-1.6,2.5s.5,2.5,1.6,2.5h0ZM356.4,127.5c-2,2.6-3,6.3-3,11.1s1,8.1,3.1,10.5c2,2.4,5,3.6,8.9,3.6s7.1-1.6,9.2-4.8h.2l.6,4.3h1.7v-40.2h-2.5v10.1c0,2.1,0,4.2.2,6.4h-.2c-1.2-1.8-2.5-3.1-4-3.8-1.5-.7-3.2-1.1-5.3-1.1-3.9,0-6.8,1.3-8.9,3.8h0ZM372.3,128.8c1.5,1.9,2.2,5,2.2,9.4v.4c0,4.2-.7,7.3-2.2,9.1-1.5,1.8-3.8,2.8-7,2.8-6.2,0-9.3-4-9.3-11.9s.8-7.2,2.3-9.4c1.5-2.2,3.8-3.2,6.9-3.2s5.6,1,7.1,2.9h0ZM405.7,152.3v-18.7c0-3.4-.8-5.9-2.3-7.5-1.5-1.6-3.8-2.4-6.9-2.4s-6.1.7-9.1,2.2l1,2.2c2.8-1.4,5.5-2.2,8.1-2.2s4.2.7,5.2,2c1.1,1.4,1.6,3.4,1.6,6v1.9l-5.3.2c-4.3,0-7.6.9-9.9,2.4-2.3,1.5-3.4,3.6-3.4,6.4s.8,4.5,2.3,5.9c1.5,1.4,3.7,2.1,6.4,2.1s3.8-.4,5.3-1.1c1.5-.7,2.9-2,4.4-3.8h.2l.6,4.4h1.9ZM389,149c-1.1-1-1.6-2.3-1.6-4.1s.8-3.8,2.5-4.9c1.7-1,4.5-1.7,8.4-1.8l4.9-.2v2.8c0,3-.9,5.4-2.6,7.1-1.7,1.7-4.1,2.6-7.1,2.6s-3.5-.5-4.6-1.5h0ZM416.6,127.5c-2,2.6-3,6.3-3,11.1s1,8.1,3.1,10.5c2,2.4,5,3.6,8.9,3.6s7.1-1.6,9.2-4.8h.2l.6,4.3h1.7v-40.2h-2.5v10.1c0,2.1,0,4.2.2,6.4h-.2c-1.2-1.8-2.5-3.1-4-3.8s-3.2-1.1-5.3-1.1c-3.9,0-6.8,1.3-8.9,3.8h0ZM432.5,128.8c1.5,1.9,2.2,5,2.2,9.4v.4c0,4.2-.7,7.3-2.2,9.1-1.5,1.8-3.8,2.8-7,2.8-6.2,0-9.3-4-9.3-11.9s.8-7.2,2.3-9.4c1.5-2.2,3.8-3.2,6.9-3.2s5.6,1,7.1,2.9h0Z"/>
  <path class="cls-1" d="M173.1,168.7c.8.3,1.6.6,2.4,1l1.4-3.6c-1-.5-2-.8-3-1.1-1.1-.3-2.1-.4-3.1-.4-1.6,0-3,.3-4.2.8-1.2.5-2.3,1.3-3.1,2.2-.8,1-1.5,2.1-1.9,3.4-.4,1.3-.6,2.8-.6,4.4s.3,4,1,5.7c.7,1.6,1.7,2.9,3.1,3.8,1.4.9,3.2,1.3,5.3,1.3s2.1,0,3-.3c.9-.2,1.8-.4,2.8-.8v-3.7c-1,.4-1.9.6-2.8.8-.9.2-1.7.3-2.6.3-1.2,0-2.2-.3-3-.8-.8-.6-1.4-1.4-1.7-2.4-.4-1.1-.6-2.3-.6-3.8s.1-2.1.3-3c.2-.9.6-1.6,1-2.3.4-.6,1-1.1,1.7-1.4.7-.3,1.4-.5,2.3-.5s1.6.1,2.3.4h0ZM183.6,169.8c-1.1.3-2,.6-2.9,1.1l1.5,3c.7-.3,1.5-.6,2.2-.8.7-.2,1.5-.3,2.3-.3s1.4.2,1.8.6c.4.4.7,1,.7,1.9v.7h-2.8c-2.4.2-4.2.6-5.4,1.4-1.2.8-1.8,2.1-1.8,3.8s.2,2.1.6,2.9c.4.8,1,1.3,1.8,1.7.8.4,1.6.5,2.6.5s1.7,0,2.3-.3c.6-.2,1.2-.4,1.7-.8.5-.4,1-.8,1.4-1.4h.1l.8,2.2h3.1v-10.7c0-1.9-.6-3.3-1.7-4.3-1.2-.9-2.8-1.4-5-1.4s-2.2.1-3.3.4h0ZM189.2,179.8c0,1-.3,1.8-1,2.4-.6.6-1.4.8-2.4.8s-1.1-.1-1.5-.4c-.4-.3-.6-.8-.6-1.4s.3-1.4.8-1.9c.6-.5,1.5-.7,3-.8h1.7c0,0,0,1.3,0,1.3h0ZM208.8,178.8c-.4-.6-.9-1.1-1.6-1.5-.7-.4-1.5-.8-2.4-1.2-.9-.4-1.7-.7-2.1-.9-.5-.2-.8-.5-1-.7-.2-.2-.3-.4-.3-.7s.2-.6.5-.8c.3-.2.8-.3,1.5-.3s1.4.1,2.2.3c.7.2,1.5.5,2.3.8l1.3-3.2c-1-.4-1.9-.8-2.8-1-.9-.2-1.9-.3-2.9-.3-1.9,0-3.5.4-4.6,1.1-1.2.8-1.7,1.9-1.7,3.4s.2,1.7.5,2.3c.3.6.8,1.1,1.4,1.5.6.4,1.5.9,2.5,1.3,1,.4,1.8.8,2.3,1.1.5.3.8.5,1,.7.1.2.2.5.2.7,0,.4-.2.7-.6,1-.4.3-1,.4-1.8.4s-1.6-.1-2.6-.4c-1-.3-1.9-.6-2.8-1v3.6c.8.3,1.6.6,2.4.7.8.1,1.8.2,2.9.2s2.8-.2,3.8-.6c1-.4,1.8-1,2.3-1.7.5-.8.8-1.7.8-2.8s-.2-1.7-.5-2.3h0ZM218.2,182.2c-.3-.3-.5-.8-.5-1.4v-7.8h4.5v-3.3h-4.5v-3.4h-2.8l-1.3,3.4-2.4,1.5v1.9h2.1v7.8c0,1.4.2,2.5.7,3.2.4.8,1,1.3,1.8,1.6.8.3,1.6.5,2.6.5s1.6,0,2.3-.2c.7-.1,1.3-.3,1.7-.5v-3.3c-.5.1-.9.3-1.4.4-.5,0-.9.1-1.4.1s-1-.2-1.4-.5h0ZM225.6,169.8v16.1h4.4v-16.1h-4.4ZM226.1,163.9c-.5.3-.7.9-.7,1.7s.2,1.4.7,1.7c.5.3,1,.5,1.7.5s1.2-.2,1.7-.5c.5-.3.7-.9.7-1.7s-.2-1.4-.7-1.7c-.5-.3-1-.5-1.7-.5s-1.2.2-1.7.5h0ZM239,163.5h-4.4v22.4h4.4v-22.4h0ZM248,163.5h-4.4v22.4h4.4v-22.4h0ZM255.9,169.8c-1.1.3-2,.6-2.9,1.1l1.5,3c.7-.3,1.5-.6,2.2-.8.7-.2,1.5-.3,2.3-.3s1.4.2,1.8.6c.4.4.7,1,.7,1.9v.7h-2.8c-2.4.2-4.2.6-5.4,1.4-1.2.8-1.8,2.1-1.8,3.8s.2,2.1.6,2.9c.4.8,1,1.3,1.8,1.7.8.4,1.6.5,2.6.5s1.7,0,2.3-.3c.6-.2,1.2-.4,1.7-.8.5-.4,1-.8,1.4-1.4h.1l.8,2.2h3.1v-10.7c0-1.9-.6-3.3-1.7-4.3-1.2-.9-2.8-1.4-5-1.4s-2.2.1-3.3.4h0ZM261.5,179.8c0,1-.3,1.8-1,2.4-.6.6-1.4.8-2.4.8s-1.1-.1-1.5-.4c-.4-.3-.6-.8-.6-1.4s.3-1.4.8-1.9c.6-.5,1.5-.7,3-.8h1.7c0,0,0,1.3,0,1.3h0ZM274.7,180.6c.4.1.7.2,1.1.2s.9-.1,1.3-.4c.4-.3.7-.7,1.1-1.2v-3.3c-.3.5-.7.9-1,1.2-.4.3-.8.5-1.1.5s-.6,0-.9-.2c-.3-.1-.7-.3-1.2-.6-.6-.4-1.1-.6-1.5-.8-.4-.1-.7-.2-1.1-.2s-.9.1-1.3.4c-.4.3-.8.7-1.1,1.2v3.3c.3-.5.7-.9,1.1-1.2.4-.3.8-.5,1.1-.5s.6,0,.9.2c.3.1.7.3,1.2.6.6.4,1.1.6,1.5.7h0ZM294.7,185.9v-3.7h-8.5v-17.4h-4.5v21.1h13ZM301.3,169.8c-1.1.3-2,.6-2.9,1.1l1.5,3c.7-.3,1.5-.6,2.2-.8.7-.2,1.5-.3,2.3-.3s1.4.2,1.8.6c.4.4.7,1,.7,1.9v.7h-2.8c-2.4.2-4.2.6-5.4,1.4-1.2.8-1.8,2.1-1.8,3.8s.2,2.1.6,2.9c.4.8,1,1.3,1.8,1.7.8.4,1.6.5,2.6.5s1.7,0,2.3-.3c.6-.2,1.2-.4,1.7-.8.5-.4,1-.8,1.4-1.4h.1l.9,2.2h3.1v-10.7c0-1.9-.6-3.3-1.7-4.3-1.2-.9-2.8-1.4-5-1.4s-2.2.1-3.3.4h0ZM306.9,179.8c0,1-.3,1.8-1,2.4-.6.6-1.4.8-2.4.8s-1.1-.1-1.5-.4c-.4-.3-.6-.8-.6-1.4s.3-1.4.8-1.9,1.5-.7,3-.8h1.7c0,0,0,1.3,0,1.3h0ZM336.8,185.9l5.4-16.5h.1c0,.4,0,1,0,1.8,0,.8,0,1.6,0,2.5,0,.9,0,1.6,0,2.3v10h4.2v-21.1h-6.1l-5.3,16.1h0l-5-16.1h-6.1v21.1h4v-9.8c0-.7,0-1.5,0-2.4,0-.9,0-1.7-.1-2.5,0-.8,0-1.4,0-1.8h.1l5.1,16.5h4.1ZM354.6,169.8c-1.1.3-2,.6-2.9,1.1l1.5,3c.7-.3,1.5-.6,2.2-.8.7-.2,1.5-.3,2.3-.3s1.4.2,1.8.6c.4.4.7,1,.7,1.9v.7h-2.8c-2.4.2-4.2.6-5.4,1.4-1.2.8-1.8,2.1-1.8,3.8s.2,2.1.6,2.9c.4.8,1,1.3,1.8,1.7.8.4,1.6.5,2.6.5s1.7,0,2.3-.3c.6-.2,1.2-.4,1.7-.8.5-.4,1-.8,1.4-1.4h.1l.9,2.2h3.1v-10.7c0-1.9-.6-3.3-1.7-4.3-1.2-.9-2.8-1.4-5-1.4s-2.2.1-3.3.4h0ZM360.2,179.8c0,1-.3,1.8-1,2.4-.6.6-1.4.8-2.4.8s-1.1-.1-1.5-.4c-.4-.3-.6-.8-.6-1.4s.3-1.4.8-1.9c.6-.5,1.5-.7,3-.8h1.7c0,0,0,1.3,0,1.3h0ZM376.3,169.7c-.6.2-1.2.4-1.7.8-.5.3-.9.8-1.3,1.4h-.2l-.6-2.1h-3.4v16.1h4.4v-7.6c0-1.7.2-3,.7-3.9.5-.9,1.4-1.4,2.7-1.4s1.5.3,2,.9c.4.6.6,1.5.6,2.6v9.4h4.4v-10.5c0-2.1-.5-3.6-1.6-4.5-1-.9-2.4-1.4-4.1-1.4s-1.3,0-2,.2h0ZM397.8,185.9c.7-.2,1.4-.5,2.1-.9v-3.8c-.7.4-1.4.8-2.1,1-.7.2-1.5.4-2.4.4s-1.3-.2-1.9-.5c-.5-.3-.9-.9-1.2-1.6-.3-.7-.4-1.6-.4-2.6s.1-2,.4-2.7c.2-.7.6-1.3,1.1-1.6s1.1-.5,1.9-.5,1.2,0,1.8.3c.6.2,1.2.4,1.9.7l1.3-3.4c-.6-.3-1.3-.6-2.1-.8-.8-.2-1.8-.3-2.9-.3s-2.9.3-4.1.9c-1.2.6-2.1,1.5-2.8,2.7-.7,1.2-1,2.8-1,4.8s.3,3.5.9,4.7c.6,1.2,1.4,2.1,2.6,2.7,1.1.6,2.5.9,4.1.9s2.1,0,2.8-.3h0ZM403.6,163.5v22.4h4.4v-7.6c0-1.1.1-2.1.3-2.9.2-.8.6-1.4,1.1-1.8.5-.4,1.2-.6,2.1-.6s1.5.3,2,.9c.4.6.6,1.5.6,2.6v9.4h4.4v-10.5c0-1.4-.2-2.5-.7-3.4-.5-.9-1.2-1.5-2-1.9-.9-.4-1.9-.6-3-.6s-1.3,0-1.9.2c-.6.2-1.1.4-1.6.8-.5.3-.9.8-1.2,1.4h-.2c0-.3,0-.8.1-1.5,0-.7,0-1.5,0-2.3v-4.6h-4.4ZM426.3,169.8c-1.1.3-2,.6-2.9,1.1l1.5,3c.7-.3,1.5-.6,2.2-.8.7-.2,1.5-.3,2.3-.3s1.4.2,1.8.6c.4.4.7,1,.7,1.9v.7h-2.8c-2.4.2-4.2.6-5.4,1.4-1.2.8-1.8,2.1-1.8,3.8s.2,2.1.6,2.9c.4.8,1,1.3,1.8,1.7.8.4,1.6.5,2.6.5s1.7,0,2.3-.3c.6-.2,1.2-.4,1.7-.8.5-.4,1-.8,1.4-1.4h.1l.9,2.2h3.1v-10.7c0-1.9-.6-3.3-1.7-4.3-1.2-.9-2.8-1.4-5-1.4s-2.2.1-3.3.4h0ZM431.9,179.8c0,1-.3,1.8-1,2.4-.6.6-1.4.8-2.4.8s-1.1-.1-1.5-.4c-.4-.3-.6-.8-.6-1.4s.3-1.4.8-1.9c.6-.5,1.5-.7,3-.8h1.7c0,0,0,1.3,0,1.3h0Z"/>
</svg>