<?xml version="1.0" encoding="utf-8"?>
<!-- Generator: Adobe Illustrator 25.0.1, SVG Export Plug-In . SVG Version: 6.00 Build 0)  -->
<svg version="1.1" id="Camada_1" xmlns="http://www.w3.org/2000/svg" xmlns:xlink="http://www.w3.org/1999/xlink" x="0px" y="0px"
	 viewBox="0 0 400 600" style="enable-background:new 0 0 400 600;" xml:space="preserve">
<style type="text/css">
	.st0{fill:#005D92;}
	.st1{fill:#641A18;}
	.st2{fill:#0B0B0B;}
	.st3{fill:#AA2D28;}
	.st4{fill:#80211E;}
	.st5{fill:#D0615D;}
	.st6{fill:#111111;}
	.st7{fill:#7D5453;}
	.st8{fill:#5E98BA;}
	.st9{fill:#B48887;}
	.st10{fill:#5E5E5E;}
	.st11{fill:#FDFDFD;}
	.st12{fill:#F5F6F7;}
</style>
<g>
	<path class="st0" d="M358.55,206.18c-2.86,1.95-4.25,4.73-4.9,7.92c0,0-0.11,0.14-0.11,0.14l0.08,0.16
		c-1.32,0.99-0.66,2.36-0.66,3.54c-0.04,41.23,0.09,82.45-0.15,123.68c-0.04,7.06-0.74,14.15-2.07,21.23
		c-1.25,6.68-2.47,13.36-4.03,19.98c-1.31,5.56-3.17,11-4.65,16.53c-1.78,6.65-4.13,13.13-6.49,19.59
		c-2.29,6.26-5.06,12.37-7.78,18.49c-2.09,4.71-4.3,9.39-6.68,13.97c-3.41,6.56-7.13,12.97-10.52,19.54
		c-4.97,9.61-11.19,18.52-16.98,27.67c-3.84,6.07-8.56,11.55-12.9,17.29c-4.78,6.33-10.12,12.21-15.39,18.15
		c-3.09,3.48-6.35,6.82-9.67,10.1c-7.17,7.1-14.23,14.3-21.69,21.12c-5.64,5.16-11.79,9.83-17.79,14.63
		c-4.46,3.58-8.99,7.08-13.59,10.5c-1.25,0.93-3.05,0.93-4.28,0.04c-5.11-3.7-10.2-7.43-15.1-11.38
		c-7.05-5.69-14.13-11.36-20.57-17.71c-4.7-4.64-9.53-9.16-14.17-13.85c-5.62-5.67-11.31-11.29-16.58-17.25
		c-6.49-7.35-12.68-14.94-18.56-22.78c-3.14-4.19-6.22-8.44-8.91-12.85c-3.91-6.41-8.45-12.46-11.84-19.17
		c-3.21-6.36-7.04-12.43-10.31-18.76c-2.12-4.1-4.24-8.2-6.08-12.44c-2.4-5.51-5.22-10.84-7.47-16.43
		c-2.47-6.13-4.66-12.33-6.87-18.54c-2.59-7.27-4.68-14.66-6.64-22.09c-2.37-8.98-4.21-18.03-5.62-27.22
		c-1.52-9.86-1.61-19.67-1.62-29.54c-0.04-37.71,0.04-75.42-0.09-113.13c-0.02-4.47-1.97-8.46-6.16-11.09c0-0.44,0-0.89-0.01-1.33
		c0.82-0.02,1.64-0.04,2.46-0.04c103.97,0,207.94,0,311.91,0c0.82,0,1.64,0.03,2.46,0.04C358.56,205.29,358.55,205.74,358.55,206.18
		z M200.42,214.6c-46.36,0-92.71,0.02-139.07-0.06c-2.61,0-3.15,0.65-3.15,3.04c0.09,37.81,0.02,75.62,0.1,113.43
		c0.02,7.34-0.11,14.65,1,22.03c1.34,8.88,2.8,17.71,4.94,26.43c2.17,8.83,4.5,17.64,7.09,26.36c1.05,3.52,1.99,7.13,3.42,10.51
		c3.32,7.89,6.71,15.75,10.24,23.57c5.16,11.41,11.5,22.21,17.43,33.22c2.55,4.73,6.03,9.01,8.65,13.71
		c3.7,6.67,8.35,12.78,12.94,18.8c6.83,8.97,14.4,17.47,21.89,25.98c7.08,8.05,14.88,15.41,22.56,22.89
		c6.51,6.34,13.75,12.01,20.57,18.07c2.92,2.59,6.28,4.62,9.33,7.03c1.44,1.14,3.04,1.05,4.35-0.19c3.9-3.71,8.35-6.85,12.49-10.27
		c6.56-5.43,12.59-11.37,19.06-16.88c5.09-4.34,9.85-9.04,14.34-14c6.61-7.3,13.3-14.55,19.5-22.16
		c5.21-6.39,10.24-12.92,14.94-19.7c5.69-8.21,11.34-16.45,16.3-25.05c6.2-10.76,12.09-21.71,17.2-33
		c3.34-7.37,6.65-14.74,9.48-22.3c2.93-7.85,5.01-15.94,7.3-23.97c1.72-6.03,3.36-12.09,4.54-18.25c0.47-2.44,0.66-4.95,1.35-7.32
		c2.21-7.53,3.14-15.35,3.22-22.97c0.41-41.91,0.16-83.83,0.26-125.74c0.01-2.7-0.75-3.3-3.51-3.29
		C292.93,214.62,246.68,214.6,200.42,214.6z"/>
	<path d="M169.85,146.96c-1.44,0.01-2.92-0.19-4.3,0.08c-6.55,1.28-10.95-1.71-14.33-6.51c-4.79-6.79-7.65-14.31-8.9-22.4
		c-0.41-2.65-1.26-5.27,0.24-7.85c1.38-0.6,2.76,0.47,4.14,0c1.87,2.55,1.71,5.89,3.88,8.41c2.61,3.05,5.79,4.72,10.63,5.38
		c-3.4-4.45-5.78-8.69-7.25-13.34c0.09-0.16,0.19-0.32,0.28-0.47c6.6,0.24,13.19-0.15,19.8,0.17c6.28,0.3,12.6-0.48,18.89-0.31
		c7.95,0.21,15.91,0.29,23.84-0.02c2.42-0.09,4.77,1.29,7.15,0.13c0.3,0,0.6-0.01,0.89-0.01c6.41,0.02,12.82,0.05,19.23,0.07
		c0.15,0.75-0.69,1.87,0.48,2.22c2.06,0.61,1.44-1.8,2.58-2.31c3.96-0.54,7.91,0.17,11.87,0.07c0.01,6.15-0.97,12.05-4.38,17.44
		c-3.54,5.58-6.95,11.24-10.4,16.87c-0.99,1.61-2.19,2.57-4.39,2.47c-3.89-0.18-7.8-0.04-11.7-0.06c-0.86,0-1.83,0.3-1.88-1.17
		c-0.15-4.7-2.38-8.63-5.65-11.98c-3.57-3.66-7.37-7.11-11.1-10.62c-0.82-0.77-1.61-2.06-3.03-1.22c-1.17,0.69-1.56,1.93-1.53,3.26
		c0.08,3.1,1.53,5.78,2.75,8.56c1.5,3.41,2.85,6.88,1.58,10.71c-0.53,1.61-1.19,2.59-3.33,2.53c-6.46-0.16-12.93-0.09-19.4-0.04
		c-3.68,0.03-6.43-1.69-8.97-3.96c-4.37-3.9-6.25-8.96-7.38-14.35c-0.18-0.84-0.1-1.76,0.02-2.63c0.09-0.65,1.23-1.39-0.08-1.87
		c-0.99-0.36-1.76,0.19-2.16,1.12c-1.5,3.48-2.24,6.99-1.63,10.85c0.58,3.66,2.95,6.51,4.15,9.85
		C169.85,146.14,169.81,146.53,169.85,146.96z"/>
	<path class="st1" d="M223.9,110.24c-2.38,1.16-4.73-0.23-7.15-0.13c-7.93,0.31-15.89,0.23-23.84,0.02
		c-6.29-0.17-12.62,0.61-18.89,0.31c-6.61-0.32-13.2,0.07-19.8-0.17c-0.23-0.03-0.46-0.06-0.69-0.09
		c-0.96-4.81-2.42-9.51-3.31-14.35c-0.46-2.51-0.01-4.98-0.51-7.43c0,0,0.1-0.15,0.1-0.15l-0.1-0.14c0.34-3.09-0.22-6.24,0.7-9.31
		c0.18-0.59,0.24-1.09,0.9-1.29c4.7,0.71,9.37-0.29,14.05-0.18c0.37-0.19,0.55,0.04,0.71,0.3c0,0.35,0.18,0.53,0.56,0.51
		c5.31,4.85,9.69,10.2,9.92,17.83c2.88-2.31,2.56-5.22,2.81-7.84c0.33-3.36,0.22-6.77,0.3-10.15c1.4-0.17,2.8-0.34,4.19-0.51
		c0.43,0.04,0.87,0.07,1.3,0.11c2.08,2.96,4.36,5.79,6.17,8.94c2.25,3.92,3.83,7.93,3.64,12.48c-0.1,2.25-0.3,4.56,1.14,6.9
		c6.9-7.71,11-16.13,10.35-26.27c0,0,0.1-0.15,0.1-0.15l-0.1-0.14c-0.09-0.63-0.18-1.25-0.27-1.88c3.41-0.04,6.87-0.08,10.22,0.2
		c2.86,0.24,5.79-0.87,8.57,0.38c0.07,7.01,0.43,14.04,0.03,21.02c-0.13,2.23-0.86,4.64-1.42,6.94c-0.3,1.25-0.41,2.44,0.26,4.37
		c3.54-5.95,10.09-8.99,12.41-15.3c0.4,0.02,0.8,0.04,1.19,0.05c3.72,4.47,5.97,9.52,6.59,15.21c-6.41-0.02-12.82-0.05-19.23-0.07
		C224.5,110.23,224.2,110.23,223.9,110.24z"/>
	<path d="M139.9,164.9c-0.26-0.07-0.51-0.13-0.77-0.2c0.03-0.33-0.08-0.51-0.46-0.38c-3.12-1.32-4.04-4.29-5.41-6.82
		c-1.19-2.19-0.09-3.5,2.56-3.5c4.31-0.01,8.62,0,12.94,0c38.6,0,77.21,0,115.81,0c3.57,0,4.09,0.6,2.89,3.86
		c-1.29,3.48-3.31,6.43-7.4,7.44c-5.13-0.78-10.37-0.68-15.48-0.69c-20.17-0.06-37.57,0.39-60.52,0.34
		c-7.95,0.45-15.95,0.1-23.93,0.48C153.39,165.75,146.62,165.68,139.9,164.9z"/>
	<path class="st2" d="M200.56,169.02c13.15,0,26.31,0.04,39.46-0.04c2.44-0.02,2.97,0.55,2.21,2.82c-2.24,6.7-7.07,9.11-13.1,9.17
		c-19.11,0.17-38.23,0.15-57.34,0.01c-5.72-0.04-10.65-2.5-12.94-8.85c-0.91-2.53-0.58-3.17,2.25-3.15
		C174.25,169.07,187.4,169.02,200.56,169.02z"/>
	<path class="st3" d="M198.61,58.71c-0.12-0.19-0.24-0.38-0.36-0.57c0,0-0.08-0.26-0.08-0.26c-4.23-5.99-6.89-12.51-7.45-19.75
		c4.12-0.87,8.31-0.65,12.44-0.42c3.11,0.17,6.48-1.29,9.36,0.98c2.75,6.75,7.94,12.46,9.41,19.76c-0.07,0.25-0.14,0.5-0.21,0.75
		c-2.9-0.01-5.81,0.08-8.7-0.05C208.21,58.92,203.38,59.76,198.61,58.71z"/>
	<path class="st4" d="M198.61,58.71c4.77,1.05,9.61,0.22,14.41,0.44c2.89,0.13,5.8,0.04,8.7,0.05c0.27,0.05,0.55,0.09,0.82,0.14
		c1.22,6.18,1.72,12.44,2.43,18.68c-2.77-1.25-5.7-0.14-8.57-0.38c-3.35-0.28-6.81-0.24-10.22-0.2c-1.11-5.46-3.1-10.58-6.29-15.29
		C199.23,61.16,198.33,60.08,198.61,58.71z"/>
	<path class="st1" d="M258.95,110.28c-3.96,0.1-7.91-0.61-11.87-0.07c1.65-6.18,2.37-12.44,2.06-18.82
		c-0.19-3.81-1.68-7.15-3.74-10.32c-0.63-0.98-1.47-1.87-1.1-3.16c1.59-0.13,3.19-0.26,4.78-0.38
		C256.01,87.45,259.67,98.27,258.95,110.28z"/>
	<path class="st5" d="M212.51,38.68c-2.87-2.27-6.25-0.81-9.36-0.98c-4.13-0.22-8.32-0.45-12.44,0.42
		c-1.39-9.4,0.78-17.92,7.22-25.24c1.69-1.92,4.09-3.19,7-2.71c-3,2.82-4.43,6.26-4.34,10.32c0.09,3.9-0.6,7.83,1.35,11.59
		c0.89,1.73,2.22,2.95,3.72,4.06c0.95,0.7,2.22,1.43,3.38,0.74c1.18-0.71-0.01-1.75-0.1-2.64c-0.2-2.1,0.33-4.01,1.97-6.49
		C211.03,31.91,211.83,35.28,212.51,38.68z"/>
	<path class="st4" d="M249.09,77.52c-1.59,0.13-3.19,0.26-4.78,0.38c-2.12-0.71-2.69-2.76-3.92-4.22c-1.25-1.49-2.29-1.47-2.7,0.28
		c-0.56,2.41-2.37,4.48-1.83,7.71c-1.5-2.03-1.91-4.02-2.04-5.53c-0.42-4.91-1.27-9.84-0.79-14.8c0.07-0.73,0.56-1.42,0.85-2.14
		c1.97,0,3.94,0,5.91,0c1.96,5.87,5.32,11.06,8.74,16.22C248.9,75.99,249.65,76.66,249.09,77.52z"/>
	<path d="M177.62,198.01c-6.3,0-6.3,0-6.3-5.98c0-5.4,0-5.4,5.99-5.4c6.6,0,6.6,0,6.6,5.98c0,5.4,0,5.4-5.68,5.4
		C178.03,198.01,177.83,198.01,177.62,198.01z"/>
	<path class="st6" d="M200.45,198.04c-6.33,0-6.33,0-6.33-5.72c0-5.72,0-5.72,6.02-5.72c6.64,0,6.64,0,6.64,6.02
		c0,5.43,0,5.43-5.71,5.43C200.86,198.04,200.65,198.04,200.45,198.04z"/>
	<path class="st4" d="M165.36,77.32c-4.69-0.1-9.36,0.89-14.05,0.18c-0.81-4.89,2.2-8.95,3.3-13.42c0.41-1.64,0.78-3.55,2.26-4.86
		c0.95,0.12,1.8-0.19,2.63-0.58C158.01,65.84,160.46,71.92,165.36,77.32z"/>
	<path class="st6" d="M222.14,198.04c-5.82,0-5.82,0-5.82-5.62c0-5.82,0-5.82,6.22-5.82c5.82,0,5.82,0,5.82,5.62
		C228.37,198.04,228.37,198.04,222.14,198.04z"/>
	<path class="st3" d="M239.8,59.21c-1.97,0-3.94,0-5.91,0c-0.27-4.29,1.09-8.16,3.39-11.79c0,0,0.19,0.05,0.19,0.05l0.19-0.04
		C239.08,51.24,238.96,55.31,239.8,59.21z"/>
	<path class="st1" d="M146.69,110.28c-1.38,0.48-2.76-0.6-4.14,0c-0.78-3.54,1.43-6.58,1.86-9.92c0.34,0,0.69,0,1.03-0.01
		C145.86,103.67,146.28,106.98,146.69,110.28z"/>
	<path class="st4" d="M183.86,77.45c-1.4,0.17-2.8,0.34-4.19,0.51c-1.68-1.34-0.47-3.13-0.81-4.68c0.43-0.13,0.87-0.26,1.3-0.38
		c1.48,1.2,3.29,2.14,3.76,4.17C183.83,77.18,183.82,77.31,183.86,77.45z"/>
	<path class="st3" d="M159.49,58.64c-0.83,0.39-1.67,0.7-2.63,0.58c0.83-1.99,1.65-3.97,2.48-5.96c0.29,0.03,0.58,0.06,0.87,0.09
		C159.97,55.11,159.73,56.87,159.49,58.64z"/>
	<path class="st7" d="M237.65,47.43l-0.19,0.04c0,0-0.19-0.05-0.19-0.05c-0.11-1.79,1.14-3.15,1.75-4.73
		C238.13,44.17,239.71,46.25,237.65,47.43z"/>
	<path class="st4" d="M180.15,72.89c-0.43,0.13-0.87,0.26-1.3,0.38c-2.14-0.35-1.37-2.36-2.18-3.47c0.11-0.08,0.23-0.16,0.34-0.23
		C178.32,70.46,179.78,71.21,180.15,72.89z"/>
	<path class="st8" d="M358.55,206.18c0-0.44,0-0.89,0-1.33c1.04-0.32,2.05-0.31,3.44,0.16C360.8,206.08,359.57,205.85,358.55,206.18
		z"/>
	<path class="st8" d="M41.72,204.85c0,0.44,0,0.89,0.01,1.33c-1.14-0.28-2.37-0.32-3.72-1.55
		C39.52,204.72,40.62,204.78,41.72,204.85z"/>
	<path class="st7" d="M145.45,100.36c-0.34,0-0.69,0-1.03,0.01c0.21-0.86,0.43-1.71,0.64-2.57
		C145.74,98.69,145.9,99.51,145.45,100.36z"/>
	<path class="st9" d="M160.21,53.34c-0.29-0.03-0.58-0.06-0.87-0.09c0.17-0.86,0.65-1.54,1.33-2.18
		C161.74,52.11,160.98,52.73,160.21,53.34z"/>
	<path class="st5" d="M237.44,95.09c-0.4-0.02-0.8-0.03-1.19-0.05c-0.17-0.48-0.65-1.19,0.12-1.31
		C236.83,93.65,237.65,94.22,237.44,95.09z"/>
	<path class="st7" d="M169.85,146.96c-0.04-0.44,0-0.83,0.57-0.93c0.66,0.05,1.01,0.39,1.08,1
		C170.95,147.01,170.4,146.99,169.85,146.96z"/>
	<path class="st4" d="M176.67,69.8c-0.41-0.17-0.72-0.56-0.34-0.81c0.42-0.28,0.5,0.31,0.68,0.58
		C176.89,69.65,176.78,69.72,176.67,69.8z"/>
	<path class="st5" d="M222.53,59.33c-0.27-0.05-0.55-0.09-0.82-0.14c0.07-0.25,0.14-0.5,0.21-0.75
		C222.26,58.65,222.82,58.73,222.53,59.33z"/>
	<path class="st9" d="M183.86,77.45c-0.04-0.14-0.02-0.27,0.06-0.39c0.57-0.18,1.17-0.44,1.25,0.5
		C184.72,77.52,184.29,77.48,183.86,77.45z"/>
	<path class="st9" d="M161.96,50.39c-0.14-0.06-0.28-0.13-0.42-0.2c0.07-0.06,0.15-0.19,0.2-0.17c0.16,0.04,0.3,0.13,0.45,0.21
		C162.11,50.28,162.03,50.33,161.96,50.39z"/>
	<path class="st8" d="M353.63,214.39l-0.08-0.16c0,0,0.11-0.14,0.11-0.14c0.14,0.1,0.27,0.19,0.41,0.29
		C353.92,214.39,353.77,214.39,353.63,214.39z"/>
	<path class="st10" d="M153.53,110.17c0.23,0.03,0.46,0.06,0.69,0.09c-0.09,0.16-0.19,0.32-0.28,0.47
		C153.48,110.76,153.26,110.63,153.53,110.17z"/>
	<path class="st9" d="M149.7,88.11l0.1,0.14c0,0-0.1,0.15-0.1,0.15c-0.23,0.05-0.49,0.15-0.46-0.23
		C149.25,88.13,149.54,88.12,149.7,88.11z"/>
	<path class="st9" d="M206.45,79.31c0,0,0.1,0.14,0.1,0.14s-0.1,0.15-0.1,0.15c-0.23,0.05-0.49,0.15-0.46-0.23
		C206,79.34,206.29,79.33,206.45,79.31z"/>
	<path class="st9" d="M166.63,78.12c-0.38,0.02-0.56-0.16-0.56-0.51C166.55,77.49,166.73,77.66,166.63,78.12z"/>
	<polygon class="st4" points="198.16,57.87 198.24,58.14 198.1,58.02 	"/>
	<path class="st11" d="M200.42,214.6c46.25,0,92.51,0.02,138.76-0.06c2.76-0.01,3.51,0.6,3.51,3.29
		c-0.1,41.91,0.14,83.83-0.26,125.74c-0.07,7.63-1.01,15.44-3.22,22.97c-0.69,2.37-0.88,4.88-1.35,7.32
		c-1.18,6.17-2.82,12.22-4.54,18.25c-2.29,8.03-4.37,16.12-7.3,23.97c-2.82,7.56-6.14,14.94-9.48,22.3c-5.11,11.29-11,22.24-17.2,33
		c-4.95,8.6-10.6,16.84-16.3,25.05c-4.7,6.78-9.73,13.31-14.94,19.7c-6.2,7.61-12.89,14.86-19.5,22.16
		c-4.49,4.96-9.26,9.66-14.34,14c-6.46,5.51-12.49,11.45-19.06,16.88c-4.14,3.42-8.59,6.56-12.49,10.27
		c-1.31,1.24-2.91,1.33-4.35,0.19c-3.05-2.41-6.42-4.44-9.33-7.03c-6.82-6.06-14.06-11.73-20.57-18.07
		c-7.67-7.48-15.48-14.84-22.56-22.89c-7.5-8.52-15.06-17.02-21.89-25.98c-4.59-6.02-9.24-12.14-12.94-18.8
		c-2.61-4.71-6.09-8.98-8.65-13.71c-5.93-11.01-12.27-21.8-17.43-33.22c-3.53-7.81-6.92-15.68-10.24-23.57
		c-1.43-3.38-2.37-6.99-3.42-10.51c-2.59-8.73-4.92-17.53-7.09-26.36c-2.14-8.72-3.6-17.55-4.94-26.43
		c-1.11-7.38-0.99-14.69-1-22.03c-0.08-37.81-0.01-75.62-0.1-113.43c-0.01-2.4,0.54-3.05,3.15-3.04
		C107.71,214.62,154.07,214.6,200.42,214.6z M197.72,310.27c0-1.39,0-1.84,0-2.3c0-24.23-0.12-48.46,0.13-72.69
		c0.04-3.7-1.95-5.22-4.64-6.44c-11.49-5.22-23.47-4.33-35.35-1.76c-7.01,1.51-13.79,4.01-20.71,5.94
		c-7.54,2.11-15.12,3.87-23.02,1.49c-1.96-0.59-2.29,0.52-2.28,2.21c0.06,24.33,0.06,48.65-0.01,72.98
		c-0.01,2.24,1.02,2.9,3.05,2.84c3.63-0.1,7.18-0.92,10.76-1.36c6.97-0.86,13.73-2.85,20.46-4.89c4.62-1.4,9.29-2.7,14.02-3.66
		c6.86-1.4,13.86-0.42,20.8-0.6c1.7-0.05,3.41,0.04,5.15,0.25C191.17,302.89,194.2,306.09,197.72,310.27z M287.78,234.67
		c-5.53,1.12-10.88,1.53-16.1,0.86c-6.95-0.89-13.55-3.39-20.21-5.44c-8.2-2.52-16.55-4.18-25.09-4.95
		c-7.3-0.66-14.07,1.56-20.54,4.37c-1.98,0.86-3.44,2.46-3.42,5.4c0.24,23.73,0.13,47.47,0.13,71.2c0,0.91,0,1.82,0,2.74
		c3.14-3.59,7.03-5.44,11.46-6.23c6.16-1.09,12.42-0.59,18.64-0.58c2.3,0.01,4.66,0.26,6.88,0.82c6.4,1.63,12.74,3.44,19.08,5.25
		c8.54,2.44,17.24,4.03,26.16,4.48c2.3,0.12,3.09-0.37,3.07-2.78c-0.14-14.45-0.07-28.91-0.07-43.37
		C287.78,255.92,287.78,245.37,287.78,234.67z M199.46,335.97c-10.69,0-21.38,0-32.07,0c-31.96,0-63.93,0.04-95.89-0.07
		c-2.91-0.01-3.55,0.81-3.43,3.37c0.19,3.95,0.83,7.84,1.26,11.75c0.47,4.28,0.33,4.37,4.64,4.28c44.77-1,89.6,2.15,134.32-1.75
		c7.88-0.69,15.49,1.79,23.32,1.77c17.06-0.03,34.12-0.01,51.18-0.01c14.7,0,29.39-0.05,44.09,0.06c2.01,0.01,2.76-0.45,3.12-2.34
		c0.91-4.7,0.78-9.43,0.98-14.16c0.11-2.55-0.79-2.96-3.25-2.96C284.98,335.99,242.22,335.97,199.46,335.97z M295.7,242.3
		c0,1.02,0,1.96,0,2.9c0,22.38-0.05,44.75,0.07,67.13c0.01,2.37-0.81,3.01-3.06,3.76c-7.9,2.61-15.68,0.16-23.45-0.27
		c-8.93-0.49-17.5-3.42-26.22-5.32c-10.37-2.27-20.62-2.76-30.98-0.37c-4.18,0.96-7.25,2.99-8.32,7.23
		c-0.48,1.91-1.55,4.03-3.8,3.74c-2.03-0.26-3.57-2.03-4.07-4.19c-0.79-3.41-3.05-5.61-6.43-6.75c-7.05-2.38-14.4-1.74-21.68-1.76
		c-6.47-0.02-12.63,1.94-18.81,3.33c-6.5,1.47-12.87,3.22-19.57,3.78c-2.94,0.25-5.97-0.02-8.78,0.6
		c-4.63,1.02-9.04,0.07-13.54-0.36c-2.08-0.2-2.56-1.17-2.55-3.14c0.1-22.57,0.06-45.14,0.06-67.71c0-1.03,0-2.05,0-3.87
		c-2.48,2.69-5.17,3.89-5.14,7.67c0.2,23.64,0.15,47.29,0.03,70.94c-0.01,2.49,0.68,2.97,3.19,2.97
		c64.97-0.07,129.93-0.08,194.9,0.02c2.91,0,3.22-0.88,3.21-3.25c-0.09-22.28-0.14-44.56,0.02-66.83
		C300.83,248.28,300.51,244.58,295.7,242.3z M182.9,360.71c-0.75-0.06-1.04-0.11-1.33-0.11c-35.95,0-71.9,0.03-107.85-0.06
		c-3.09-0.01-2.7,1.52-2.34,3.27c0.94,4.47,1.96,8.92,2.93,13.38c0.39,1.79,1.14,2.81,3.42,2.81c24.45-0.08,48.89-0.05,73.34-0.03
		c1.17,0,2.05-0.24,3-1.02c4.55-3.73,9.51-7,14.31-10.43C172.64,365.45,177.72,363.42,182.9,360.71z M240.62,360.59
		c2.64,0.79,4.33,2.7,6.48,3.81c8.07,4.14,15.21,9.6,22.86,14.33c1.3,0.8,2.39,1.22,3.85,1.22c15.93-0.02,31.86-0.12,47.79,0.07
		c3.4,0.04,3.99-1.46,4.42-4.02c0.72-4.32,1.48-8.65,2.7-12.85c0.69-2.36,0.01-2.6-2.14-2.59c-17.06,0.05-34.12,0.03-51.18,0.03
		C263.81,360.59,252.21,360.59,240.62,360.59z M122.07,484.31c4.83,6.22,9.34,11.9,13.66,17.7c1.04,1.39,2.13,1.67,3.73,1.67
		c20.22-0.04,40.44-0.02,60.66-0.05c0.73,0,1.61,0.4,2.27-0.4c-6.25-5.96-12.49-11.87-18.67-17.84c-0.89-0.86-1.77-1.1-2.96-1.1
		C161.47,484.32,142.17,484.31,122.07,484.31z M177.44,479.03c-5.44-5.33-10.79-10.05-15.43-15.33c-3.17-3.61-6.72-4.17-11.23-4.09
		c-12.64,0.23-25.28,0.06-37.92,0.1c-1.5,0-3.81-0.7-4.31,0.37c-0.66,1.41,0.77,3.14,1.59,4.64c0.05,0.08,0.16,0.14,0.2,0.22
		c2.12,4.11,4.94,7.82,7.35,11.75c1.03,1.68,1.95,2.42,4.09,2.41c17.47-0.1,34.94-0.06,52.41-0.06
		C175.17,479.03,176.16,479.03,177.44,479.03z M75.95,385.92c2.15,5.68,4.3,11.14,6.25,16.65c0.61,1.73,1.62,2.05,3.34,2.03
		c8.01-0.07,16.01-0.02,24.02-0.04c5.02-0.01,10.6,1.21,14.92-0.46c4.21-1.63,7.13-6.24,10.62-9.54c2.94-2.77,5.88-5.54,9.18-8.65
		C121.18,385.92,98.75,385.92,75.95,385.92z M164.87,533.63c0.26,0.62,0.31,0.91,0.47,1.11c4.99,6.15,11.35,11.05,16.88,16.71
		c0.82,0.84,1.71,0.88,2.75,0.88c9.66-0.01,19.32-0.04,28.99,0.03c1.49,0.01,2.42-0.55,3.45-1.44c2.68-2.3,4.72-5.13,7.38-7.46
		c3.43-3,6.47-6.41,9.87-9.83C211.23,533.63,188.23,533.63,164.87,533.63z M142.08,509.42c3.91,4.96,7.75,9.78,11.7,14.52
		c2.75,3.29,5.61,4.74,10.11,4.44c6.23-0.41,12.51-0.07,18.77-0.12c2.44-0.02,5.59,0.99,7.11-0.41c1.54-1.41,0.69-4.47,0.41-6.73
		c-0.49-3.96,0.99-6.7,4.46-8.72c0.54-0.32,0.78-1.09,1.31-1.46c0.62-0.44,1.83-0.57,1.57-1.46c-0.33-1.12-1.59-0.51-2.4-0.51
		c-16.93-0.04-33.86-0.03-50.8-0.02C143.66,508.95,142.91,508.69,142.08,509.42z M199.72,527.67c1.41,0.86,2.34,0.59,3.21,0.6
		c11.9,0.02,23.81-0.01,35.71,0.04c1.84,0.01,3.05-0.35,4.26-1.98c2.3-3.12,5.31-5.77,7.69-8.85c2.09-2.72,4.92-4.97,6.32-8.12
		c-0.27-0.22-0.34-0.32-0.41-0.32c-11.9-0.04-23.8-0.06-35.7-0.1c-0.75,0-1.36,0.11-1.93,0.64
		C212.57,515.55,206.25,521.5,199.72,527.67z M232.21,497.15c0-3.92-0.15-7.44,0.05-10.95c0.13-2.32-1.38-1.95-2.74-1.87
		c-1.22,0.07-2.97-0.76-2.9,1.7c0.14,5.27,0.09,10.55,0.01,15.82c-0.02,1.38,0.39,1.84,1.89,1.83c10.89-0.05,21.78-0.02,32.67-0.04
		c0.74,0,1.32,0.02,2.01-0.78c4.95-5.78,8.69-12.32,13.46-18.55c-10.11,0-19.77-0.01-29.43,0.01c-0.78,0-1.64-0.26-2.28,0.51
		C241.28,489.26,236.59,492.75,232.21,497.15z M276.46,385.81c0.64,0.7,0.89,0.98,1.14,1.25c4.84,5.47,10.22,10.55,13.82,16.93
		c0.55,0.98,1.43,0.55,2.15,0.55c7.19,0.04,14.38-0.05,21.56,0.08c1.73,0.03,2.26-0.72,2.6-1.98c1.32-4.95,2.49-9.93,3.99-14.83
		c0.54-1.77,0.28-2.05-1.56-2.04C305.8,385.83,291.42,385.81,276.46,385.81z M144.98,446.87c-2.15,1.45-3.76,3.44-5.22,5.38
		c-1.56,2.07-3,1.4-4.07,0.22c-4.71-5.22-10.26-9.66-15.18-14.68c-0.97-0.99-1.67-2.71-3.56-2.72c-7.11-0.02-14.22-0.01-21.3-0.01
		c1.35,5.67,4.37,10.42,6.59,15.47c1.05,2.38,2.67,4.1,6.34,4.01c13.76-0.34,27.54-0.13,41.3-0.16c0.82,0,1.81,0.45,2.56-0.43
		C149.95,451.58,147.48,449.23,144.98,446.87z M292.03,459.68c-5.48,0-10.59-0.02-15.71,0.01c-2.53,0.01-4.6,0-6.94,2.13
		c-5.99,5.43-11.71,11.07-17.62,16.65c0.5,0.32,0.65,0.5,0.8,0.51c8.93,0.03,17.86,0.02,26.8,0.08c1.38,0.01,1.96-0.61,2.46-1.68
		c0.4-0.85,0.72-1.72,1.24-2.55C286.13,469.92,288.98,464.9,292.03,459.68z M84.46,410.52c1.4,5.92,3.86,11.44,6.51,16.9
		c0.44,0.9,1.03,1.74,2.19,1.75c4.12,0.04,8.24,0.02,12.47,0.02c-0.73-1.78-4.11-2.58-1.38-4.52c1.31-0.93,2.22-2.12,3.33-3.14
		c3.76-3.47,7.34-7.12,11.3-11C107.08,410.52,95.83,410.52,84.46,410.52z M278.39,454.4c3.44,0,6.36-0.33,9.17,0.07
		c5.73,0.82,9.15-1.02,11.03-6.42c1.52-4.37,4.04-8.42,5.61-12.99c-3.01,0-5.68,0.01-8.34-0.01c-0.93-0.01-1.81-0.02-2.47,0.79
		C288.49,441.91,283.59,447.97,278.39,454.4z M299.11,429.28c3.4-0.85,7.84,1.95,9.99-3.11c2.01-4.73,3.82-9.52,5.14-14.46
		c0.11-0.41,1.03-1.29-0.52-1.28c-5.96,0.03-11.92,0.01-18.39,0.01c2.11,3.49,3.54,6.69,5.75,9.3c3.01,3.57,0.49,5.76-1.51,8.22
		C299.36,428.22,298.82,428.23,299.11,429.28z M228.63,479.62c3.22,0,5.99-0.01,8.76,0c1.23,0,1.99-0.37,3.02-1.29
		c4.47-3.97,8.55-8.3,12.96-12.32c2-1.82,4.57-3.46,5.9-6.33c-2.43,0-4.56,0.12-6.67-0.03c-2.29-0.17-3.98,0.41-5.65,2.05
		c-4.33,4.27-8.89,8.34-13.31,12.52C231.99,475.77,229.69,477.07,228.63,479.62z M210.63,558.39c-7.28,0-14.07,0-21.56,0
		c3.37,3.51,6.78,6.06,10.1,8.73c0.7,0.57,0.81,0.82,1.65,0.16C204.25,564.6,207.44,561.71,210.63,558.39z M254.79,454.2
		c11.73,0.84,11.73,0.84,11.31-9.15c0-0.08-0.07-0.15-0.21-0.41C261.62,447.03,258.85,450.91,254.79,454.2z M203.8,503.65
		c2.27,0,4.71,0,7.15,0c0.71,0,1.54,0.1,1.51-0.93c-0.09-2.54,0.31-5.11-0.07-6.95C209.64,498.29,206.75,500.94,203.8,503.65z"/>
	<path class="st5" d="M223.9,110.24c0.3,0,0.6-0.01,0.89-0.01C224.5,110.23,224.2,110.23,223.9,110.24z"/>
	<path d="M197.72,310.27c-3.52-4.18-6.55-7.39-11.66-7.98c-1.73-0.2-3.45-0.29-5.15-0.25c-6.94,0.18-13.94-0.8-20.8,0.6
		c-4.73,0.96-9.4,2.27-14.02,3.66c-6.72,2.04-13.49,4.03-20.46,4.89c-3.58,0.44-7.13,1.26-10.76,1.36c-2.03,0.06-3.06-0.6-3.05-2.84
		c0.07-24.33,0.06-48.65,0.01-72.98c0-1.7,0.32-2.8,2.28-2.21c7.9,2.37,15.48,0.61,23.02-1.49c6.92-1.93,13.69-4.43,20.71-5.94
		c11.88-2.56,23.86-3.46,35.35,1.76c2.69,1.22,4.68,2.74,4.64,6.44c-0.24,24.23-0.13,48.46-0.13,72.69
		C197.72,308.43,197.72,308.89,197.72,310.27z M156,239.36c-3.37,5.98-6.49,11.83-9.91,17.53c-4.88,8.15-9.91,16.22-14.45,24.55
		c-1.36,2.5-2.47,5.51-5.78,6.41c-1.01,0.28-1.68,0.26-1.56,1.48c0.13,1.36,1.18,0.83,1.84,0.84c4.72,0.05,9.45,0.07,14.17-0.01
		c0.87-0.02,2.46,0.85,2.43-1.14c-0.02-1.77-1.42-0.97-2.24-1.07c-3.16-0.37-3.87-1.46-2.45-4.08c1.18-2.18,2.51-4.29,3.67-6.48
		c0.52-0.98,1.15-1.3,2.32-1.29c6.16,0.07,12.32,0.04,18.48,0.03c0.93,0,1.67-0.05,2.12,1.08c0.8,2,2.04,3.85,2.82,5.86
		c1.37,3.56,0.89,4.27-3.07,4.83c-0.89,0.13-1.22,0.33-1.24,1.2c-0.03,0.98,0.48,1.11,1.31,1.11c6.88-0.01,13.76,0,20.64-0.01
		c0.69,0,1.43,0.16,1.45-0.94c0.02-0.99-0.32-1.21-1.36-1.39c-1.83-0.3-2.93-1.5-3.73-3.18c-2.51-5.31-5.52-10.38-8.35-15.53
		c-4.44-8.09-8.94-16.16-13.32-24.28C158.79,243.01,158.11,240.74,156,239.36z"/>
	<path d="M287.78,234.67c0,10.71,0,21.25,0,31.79c0,14.46-0.07,28.91,0.07,43.37c0.02,2.41-0.77,2.89-3.07,2.78
		c-8.93-0.45-17.62-2.03-26.16-4.48c-6.34-1.81-12.69-3.62-19.08-5.25c-2.21-0.56-4.58-0.82-6.88-0.82
		c-6.22-0.02-12.48-0.51-18.64,0.58c-4.43,0.78-8.31,2.63-11.46,6.23c0-0.91,0-1.82,0-2.74c0-23.73,0.1-47.47-0.13-71.2
		c-0.03-2.94,1.43-4.54,3.42-5.4c6.48-2.82,13.24-5.04,20.54-4.37c8.54,0.78,16.89,2.43,25.09,4.95c6.66,2.05,13.26,4.55,20.21,5.44
		C276.89,236.2,282.25,235.79,287.78,234.67z M229.69,290.2c3.29,0,6.58-0.07,9.86,0.03c1.46,0.04,1.97-0.35,1.91-1.78
		c-0.11-2.73-0.12-5.47-0.01-8.2c0.11-2.63,0.12-4.18-3.63-5.15c-6.44-1.66-10.14-6.59-10.52-14.44
		c-0.47-9.67,2.93-14.05,12.9-17.65c6.33-2.29,15.29,1.25,18.67,6.77c2.7,4.41,2.91,9.09,2.22,13.67
		c-0.8,5.36-5.27,11.87-12.68,12.14c-1.43,0.05-1.37,0.74-1.37,1.67c0.02,3.71,0.06,7.42-0.02,11.13c-0.03,1.33,0.27,1.87,1.83,1.85
		c6.57-0.08,13.15-0.08,19.73,0c1.52,0.02,1.9-0.45,1.86-1.83c-0.1-3.32-0.01-6.64-0.05-9.96c-0.01-0.67,0.42-1.59-0.99-1.68
		c-1.44-0.09-1.35,0.69-1.4,1.63c-0.14,2.25-1,3.51-3.64,4.45c-3.57,1.28-7.01,0.74-10.5,0.92c-0.86,0.05-2.47,0.85-2.55-1.03
		c-0.06-1.43-0.55-2.93,1.86-3.47c2.47-0.55,4.92-1.48,7.18-2.61c6.45-3.23,10.98-8,11.89-15.15c1.41-11.01-8.46-18.18-16.94-21.12
		c-4.35-1.51-8.8-1.06-13.23-1.13c-5.85-0.09-11.15,1.39-16,4.64c-8.15,5.46-10.79,11.91-8.71,21.29c0.43,1.94,1.32,3.71,2.49,4.96
		c4.26,4.57,9.55,7.86,15.95,9.05c2.43,0.45,1.96,1.94,1.99,3.4c0.05,1.96-1.53,1.14-2.43,1.18c-2.36,0.11-4.72,0.06-7.09,0.03
		c-4.46-0.05-6.76-1.67-7.78-5.68c-0.22-0.87-0.23-1.4-1.37-1.38c-1.39,0.02-1.05,0.92-1.05,1.62c-0.03,3.32,0.09,6.65-0.05,9.96
		c-0.07,1.65,0.6,1.93,2.11,1.89C223.32,290.14,226.51,290.2,229.69,290.2z"/>
	<path class="st0" d="M199.46,335.97c42.76,0,85.51,0.02,128.27-0.05c2.46,0,3.35,0.4,3.25,2.96c-0.2,4.73-0.06,9.46-0.98,14.16
		c-0.37,1.88-1.11,2.35-3.12,2.34c-14.7-0.11-29.39-0.06-44.09-0.06c-17.06,0-34.12-0.02-51.18,0.01
		c-7.83,0.01-15.43-2.46-23.32-1.77c-44.73,3.9-89.55,0.75-134.32,1.75c-4.3,0.1-4.17,0-4.64-4.28c-0.43-3.92-1.07-7.8-1.26-11.75
		c-0.12-2.57,0.52-3.39,3.43-3.37c31.96,0.11,63.93,0.07,95.89,0.07C178.09,335.97,188.78,335.97,199.46,335.97z"/>
	<path d="M295.7,242.3c4.82,2.28,5.14,5.98,5.11,10.22c-0.16,22.28-0.11,44.56-0.02,66.83c0.01,2.37-0.3,3.26-3.21,3.25
		c-64.97-0.1-129.93-0.09-194.9-0.02c-2.51,0-3.2-0.48-3.19-2.97c0.11-23.65,0.17-47.29-0.03-70.94c-0.03-3.78,2.66-4.98,5.14-7.67
		c0,1.82,0,2.85,0,3.87c0,22.57,0.03,45.14-0.06,67.71c-0.01,1.98,0.46,2.94,2.55,3.14c4.5,0.44,8.91,1.39,13.54,0.36
		c2.81-0.62,5.84-0.36,8.78-0.6c6.71-0.56,13.08-2.31,19.57-3.78c6.18-1.4,12.34-3.35,18.81-3.33c7.27,0.02,14.62-0.62,21.68,1.76
		c3.38,1.14,5.64,3.34,6.43,6.75c0.5,2.17,2.04,3.93,4.07,4.19c2.25,0.29,3.32-1.83,3.8-3.74c1.07-4.23,4.14-6.26,8.32-7.23
		c10.37-2.39,20.61-1.9,30.98,0.37c8.71,1.9,17.29,4.83,26.22,5.32c7.76,0.43,15.55,2.88,23.45,0.27c2.26-0.75,3.08-1.39,3.06-3.76
		c-0.12-22.38-0.07-44.75-0.07-67.13C295.7,244.26,295.7,243.32,295.7,242.3z"/>
	<path class="st0" d="M182.9,360.71c-5.18,2.72-10.26,4.74-14.52,7.79c-4.79,3.43-9.75,6.7-14.31,10.43c-0.96,0.78-1.83,1.02-3,1.02
		c-24.45-0.02-48.89-0.04-73.34,0.03c-2.28,0.01-3.04-1.01-3.42-2.81c-0.97-4.46-2-8.91-2.93-13.38c-0.37-1.75-0.76-3.28,2.34-3.27
		c35.95,0.09,71.9,0.06,107.85,0.06C181.85,360.6,182.15,360.64,182.9,360.71z"/>
	<path class="st0" d="M240.62,360.59c11.59,0,23.18,0,34.77,0c17.06,0,34.12,0.02,51.18-0.03c2.14-0.01,2.82,0.23,2.14,2.59
		c-1.22,4.2-1.98,8.54-2.7,12.85c-0.43,2.56-1.02,4.06-4.42,4.02c-15.93-0.19-31.86-0.09-47.79-0.07c-1.46,0-2.55-0.42-3.85-1.22
		c-7.65-4.73-14.79-10.19-22.86-14.33C244.96,363.3,243.27,361.39,240.62,360.59z"/>
	<path class="st0" d="M122.07,484.31c20.1,0,39.4,0.01,58.69-0.02c1.19,0,2.07,0.24,2.96,1.1c6.18,5.98,12.42,11.89,18.67,17.84
		c-0.66,0.8-1.54,0.4-2.27,0.4c-20.22,0.03-40.44,0.01-60.66,0.05c-1.6,0-2.69-0.27-3.73-1.67
		C131.42,496.2,126.9,490.53,122.07,484.31z"/>
	<path class="st0" d="M177.44,479.03c-1.29,0-2.27,0-3.25,0c-17.47,0-34.94-0.04-52.41,0.06c-2.14,0.01-3.06-0.72-4.09-2.41
		c-2.41-3.94-5.23-7.65-7.35-11.75c-0.04-0.08-0.16-0.14-0.2-0.22c-0.82-1.49-2.25-3.23-1.59-4.64c0.5-1.07,2.81-0.36,4.31-0.37
		c12.64-0.04,25.28,0.13,37.92-0.1c4.51-0.08,8.06,0.49,11.23,4.09C166.65,468.98,172.01,473.7,177.44,479.03z"/>
	<path class="st0" d="M75.95,385.92c22.8,0,45.23,0,68.33,0c-3.3,3.11-6.24,5.87-9.18,8.65c-3.49,3.3-6.42,7.92-10.62,9.54
		c-4.32,1.67-9.89,0.45-14.92,0.46c-8.01,0.02-16.01-0.04-24.02,0.04c-1.72,0.02-2.73-0.3-3.34-2.03
		C80.25,397.05,78.1,391.6,75.95,385.92z"/>
	<path class="st0" d="M164.87,533.63c23.36,0,46.37,0,69.79,0c-3.4,3.42-6.44,6.82-9.87,9.83c-2.66,2.33-4.7,5.16-7.38,7.46
		c-1.03,0.88-1.96,1.45-3.45,1.44c-9.66-0.07-19.32-0.04-28.99-0.03c-1.04,0-1.94-0.05-2.75-0.88
		c-5.53-5.65-11.88-10.56-16.88-16.71C165.18,534.54,165.13,534.25,164.87,533.63z"/>
	<path class="st0" d="M142.08,509.42c0.83-0.73,1.58-0.47,2.24-0.47c16.93-0.02,33.86-0.02,50.8,0.02c0.81,0,2.06-0.6,2.4,0.51
		c0.27,0.89-0.95,1.03-1.57,1.46c-0.53,0.37-0.76,1.15-1.31,1.46c-3.46,2.02-4.95,4.76-4.46,8.72c0.28,2.26,1.13,5.32-0.41,6.73
		c-1.52,1.4-4.68,0.39-7.11,0.41c-6.26,0.06-12.54-0.29-18.77,0.12c-4.5,0.3-7.36-1.15-10.11-4.44
		C149.83,519.2,145.99,514.38,142.08,509.42z"/>
	<path class="st0" d="M199.72,527.67c6.53-6.17,12.85-12.12,19.15-18.1c0.56-0.54,1.18-0.65,1.93-0.64c11.9,0.04,23.8,0.07,35.7,0.1
		c0.07,0,0.14,0.1,0.41,0.32c-1.4,3.16-4.23,5.4-6.32,8.12c-2.37,3.08-5.39,5.72-7.69,8.85c-1.2,1.63-2.42,1.99-4.26,1.98
		c-11.9-0.04-23.81-0.01-35.71-0.04C202.06,528.26,201.12,528.53,199.72,527.67z"/>
	<path class="st0" d="M232.21,497.15c4.38-4.39,9.07-7.89,12.75-12.32c0.64-0.77,1.5-0.51,2.28-0.51
		c9.66-0.02,19.31-0.01,29.43-0.01c-4.76,6.23-8.51,12.77-13.46,18.55c-0.69,0.81-1.27,0.78-2.01,0.78
		c-10.89,0.02-21.78-0.01-32.67,0.04c-1.5,0.01-1.91-0.45-1.89-1.83c0.07-5.27,0.12-10.55-0.01-15.82c-0.06-2.47,1.68-1.63,2.9-1.7
		c1.36-0.08,2.87-0.46,2.74,1.87C232.06,489.7,232.21,493.23,232.21,497.15z"/>
	<path class="st0" d="M276.46,385.81c14.96,0,29.33,0.03,43.7-0.03c1.85-0.01,2.11,0.27,1.56,2.04c-1.5,4.9-2.67,9.88-3.99,14.83
		c-0.34,1.26-0.87,2.01-2.6,1.98c-7.18-0.13-14.37-0.04-21.56-0.08c-0.72,0-1.6,0.43-2.15-0.55c-3.61-6.38-8.98-11.46-13.82-16.93
		C277.36,386.78,277.1,386.51,276.46,385.81z"/>
	<path class="st0" d="M144.98,446.87c2.49,2.36,4.96,4.71,7.47,7.08c-0.75,0.87-1.73,0.42-2.56,0.43
		c-13.77,0.03-27.54-0.18-41.3,0.16c-3.67,0.09-5.29-1.63-6.34-4.01c-2.23-5.05-5.24-9.8-6.59-15.47c7.07,0,14.18-0.01,21.3,0.01
		c1.88,0.01,2.58,1.73,3.56,2.72c4.93,5.02,10.47,9.46,15.18,14.68c1.07,1.18,2.51,1.85,4.07-0.22
		C141.22,450.31,142.83,448.32,144.98,446.87z"/>
	<path class="st0" d="M292.03,459.68c-3.06,5.22-5.9,10.24-8.96,15.13c-0.52,0.84-0.84,1.71-1.24,2.55
		c-0.51,1.07-1.08,1.69-2.46,1.68c-8.93-0.06-17.86-0.05-26.8-0.08c-0.15,0-0.3-0.18-0.8-0.51c5.91-5.58,11.63-11.22,17.62-16.65
		c2.34-2.13,4.42-2.11,6.94-2.13C281.44,459.66,286.56,459.68,292.03,459.68z"/>
	<path class="st0" d="M84.46,410.52c11.37,0,22.62,0,34.42,0c-3.96,3.89-7.54,7.53-11.3,11c-1.11,1.03-2.03,2.21-3.33,3.14
		c-2.73,1.95,0.65,2.75,1.38,4.52c-4.23,0-8.35,0.02-12.47-0.02c-1.16-0.01-1.75-0.86-2.19-1.75
		C88.32,421.96,85.87,416.44,84.46,410.52z"/>
	<path class="st0" d="M278.39,454.4c5.2-6.44,10.11-12.49,14.99-18.56c0.66-0.82,1.54-0.8,2.47-0.79c2.66,0.02,5.33,0.01,8.34,0.01
		c-1.57,4.57-4.09,8.62-5.61,12.99c-1.88,5.41-5.3,7.24-11.03,6.42C284.75,454.07,281.82,454.4,278.39,454.4z"/>
	<path class="st0" d="M299.11,429.28c-0.29-1.05,0.25-1.06,0.46-1.31c2-2.46,4.52-4.65,1.51-8.22c-2.2-2.62-3.64-5.82-5.75-9.3
		c6.47,0,12.43,0.02,18.39-0.01c1.54-0.01,0.62,0.88,0.52,1.28c-1.32,4.95-3.12,9.73-5.14,14.46
		C306.95,431.23,302.51,428.42,299.11,429.28z"/>
	<path class="st0" d="M228.63,479.62c1.06-2.54,3.37-3.84,5.01-5.39c4.42-4.18,8.98-8.25,13.31-12.52c1.67-1.65,3.36-2.22,5.65-2.05
		c2.11,0.16,4.25,0.03,6.67,0.03c-1.34,2.87-3.9,4.51-5.9,6.33c-4.41,4.02-8.49,8.35-12.96,12.32c-1.03,0.92-1.79,1.29-3.02,1.29
		C234.62,479.61,231.85,479.62,228.63,479.62z"/>
	<path class="st0" d="M210.63,558.39c-3.2,3.32-6.38,6.21-9.81,8.89c-0.84,0.66-0.95,0.41-1.65-0.16c-3.32-2.67-6.72-5.22-10.1-8.73
		C196.56,558.39,203.35,558.39,210.63,558.39z"/>
	<path class="st0" d="M254.79,454.2c4.06-3.29,6.83-7.17,11.1-9.57c0.13,0.26,0.2,0.34,0.21,0.41
		C266.52,455.04,266.52,455.04,254.79,454.2z"/>
	<path class="st0" d="M203.8,503.65c2.95-2.71,5.84-5.37,8.58-7.89c0.38,1.84-0.01,4.41,0.07,6.95c0.03,1.03-0.8,0.93-1.51,0.93
		C208.51,503.66,206.07,503.65,203.8,503.65z"/>
	<path class="st12" d="M156,239.36c2.12,1.38,2.79,3.65,3.8,5.51c4.38,8.12,8.88,16.19,13.32,24.28c2.83,5.15,5.84,10.23,8.35,15.53
		c0.8,1.68,1.9,2.88,3.73,3.18c1.04,0.17,1.38,0.4,1.36,1.39c-0.02,1.1-0.77,0.94-1.45,0.94c-6.88,0.01-13.76,0-20.64,0.01
		c-0.83,0-1.34-0.13-1.31-1.11c0.02-0.87,0.35-1.08,1.24-1.2c3.96-0.56,4.44-1.27,3.07-4.83c-0.77-2.01-2.02-3.85-2.82-5.86
		c-0.45-1.13-1.19-1.09-2.12-1.08c-6.16,0.01-12.32,0.04-18.48-0.03c-1.17-0.01-1.8,0.31-2.32,1.29c-1.16,2.19-2.49,4.3-3.67,6.48
		c-1.42,2.62-0.71,3.72,2.45,4.08c0.83,0.1,2.22-0.7,2.24,1.07c0.02,1.99-1.56,1.13-2.43,1.14c-4.72,0.08-9.45,0.06-14.17,0.01
		c-0.66-0.01-1.71,0.52-1.84-0.84c-0.12-1.22,0.55-1.2,1.56-1.48c3.31-0.9,4.42-3.91,5.78-6.41c4.54-8.33,9.57-16.4,14.45-24.55
		C149.5,251.2,152.63,245.34,156,239.36z M153.82,255.76c-2.72,4.74-5.08,8.85-7.43,12.97c-0.5,0.88-1.51,2.11,0.61,2.16
		c4.74,0.11,9.48,0.03,14.67,0.03C158.95,265.67,156.5,260.93,153.82,255.76z"/>
	<path class="st12" d="M229.69,290.2c-3.19,0-6.37-0.06-9.55,0.03c-1.51,0.04-2.19-0.24-2.11-1.89c0.14-3.31,0.03-6.64,0.05-9.96
		c0.01-0.69-0.34-1.6,1.05-1.62c1.14-0.02,1.15,0.51,1.37,1.38c1.02,4,3.32,5.62,7.78,5.68c2.36,0.03,4.73,0.08,7.09-0.03
		c0.9-0.04,2.48,0.79,2.43-1.18c-0.04-1.46,0.44-2.94-1.99-3.4c-6.41-1.2-11.7-4.48-15.95-9.05c-1.17-1.25-2.06-3.01-2.49-4.96
		c-2.08-9.38,0.56-15.82,8.71-21.29c4.85-3.25,10.15-4.73,16-4.64c4.44,0.07,8.88-0.38,13.23,1.13
		c8.47,2.94,18.35,10.11,16.94,21.12c-0.92,7.15-5.44,11.91-11.89,15.15c-2.26,1.13-4.7,2.06-7.18,2.61
		c-2.41,0.53-1.92,2.03-1.86,3.47c0.07,1.89,1.68,1.08,2.55,1.03c3.49-0.18,6.94,0.36,10.5-0.92c2.64-0.95,3.51-2.2,3.64-4.45
		c0.06-0.94-0.03-1.72,1.4-1.63c1.4,0.09,0.98,1.01,0.99,1.68c0.04,3.32-0.05,6.64,0.05,9.96c0.04,1.37-0.34,1.84-1.86,1.83
		c-6.57-0.08-13.15-0.08-19.73,0c-1.56,0.02-1.86-0.52-1.83-1.85c0.08-3.71,0.04-7.42,0.02-11.13c0-0.93-0.06-1.61,1.37-1.67
		c7.41-0.28,11.87-6.78,12.68-12.14c0.69-4.58,0.48-9.26-2.22-13.67c-3.39-5.52-12.35-9.05-18.67-6.77
		c-9.96,3.6-13.36,7.98-12.9,17.65c0.38,7.85,4.08,12.78,10.52,14.44c3.75,0.97,3.75,2.52,3.63,5.15c-0.12,2.73-0.11,5.47,0.01,8.2
		c0.06,1.43-0.44,1.83-1.91,1.78C236.27,290.13,232.98,290.2,229.69,290.2z"/>
	<path d="M153.82,255.76c2.68,5.17,5.14,9.91,7.86,15.16c-5.19,0-9.93,0.07-14.67-0.03c-2.12-0.05-1.12-1.28-0.61-2.16
		C148.74,264.61,151.1,260.5,153.82,255.76z"/>
</g>
</svg>
