<?xml version="1.0" encoding="UTF-8" standalone="no"?>
<svg
   xmlns:dc="http://purl.org/dc/elements/1.1/"
   xmlns:cc="http://creativecommons.org/ns#"
   xmlns:rdf="http://www.w3.org/1999/02/22-rdf-syntax-ns#"
   xmlns:svg="http://www.w3.org/2000/svg"
   xmlns="http://www.w3.org/2000/svg"
   xmlns:sodipodi="http://sodipodi.sourceforge.net/DTD/sodipodi-0.dtd"
   xmlns:inkscape="http://www.inkscape.org/namespaces/inkscape"
   inkscape:version="1.0 (4035a4fb49, 2020-05-01)"
   sodipodi:docname="Universidad_De_Guanajuato.svg"
   version="1.1"
   id="svg2"
   xml:space="preserve"
   width="934.19775"
   height="1080"
   viewBox="0 0 934.19774 1080"><sodipodi:namedview
     inkscape:current-layer="svg2"
     inkscape:window-maximized="1"
     inkscape:window-y="-8"
     inkscape:window-x="1352"
     inkscape:cy="460.31496"
     inkscape:cx="171.8788"
     inkscape:zoom="0.40391497"
     fit-margin-bottom="0"
     fit-margin-right="0"
     fit-margin-left="0"
     fit-margin-top="0"
     showgrid="false"
     id="namedview110"
     inkscape:window-height="1017"
     inkscape:window-width="1920"
     inkscape:pageshadow="2"
     inkscape:pageopacity="0"
     guidetolerance="10"
     gridtolerance="10"
     objecttolerance="10"
     borderopacity="1"
     bordercolor="#666666"
     pagecolor="#ffffff" /><metadata
     id="metadata8"><rdf:RDF><cc:Work
         rdf:about=""><dc:format>image/svg+xml</dc:format><dc:type
           rdf:resource="http://purl.org/dc/dcmitype/StillImage" /><dc:title></dc:title></cc:Work></rdf:RDF></metadata><defs
     id="defs6" /><g
     id="g10"
     transform="matrix(6.1451403,0,0,-6.1451403,-125.15684,1132.2532)"><g
       id="g12"
       transform="scale(0.1)"><path
         d="m 320.777,1367.69 -15.453,-14.04 V 524.379 l -0.019,-0.016 c 0,-0.425 -2.008,-147.933 132.687,-244.429 l 0.207,-0.149 -0.004,-0.008 C 548.156,201.082 669.352,179.598 742.27,166.668 c 16.992,-3.008 31.378,-5.563 42.742,-8.344 24.781,-6.066 35.379,-26.586 45.019,-39.625 16.418,-22.2185 19.684,-23.5076 35.805,-22.5974 5.293,0.2968 11.266,-1.0782 18.059,-1.7578 59.121,-5.9102 84.457,32.2342 84.566,32.3362 l 2.863,2.675 3.028,-2.5 c 0.14,-0.117 49.108,-41.2417 103.828,-23.656 26.91,8.649 38.27,22.645 48.71,35.52 11.67,14.394 22.31,27.511 49.8,31.906 h 0.01 l 0.09,0.012 v 0.004 c 7,1.117 17.11,2.894 29.69,5.336 12.56,2.433 27.31,5.484 43.43,9.117 83.41,18.816 207.37,54.09 271.24,104.89 h 0.01 l 0.04,0.032 v 0.007 c 12.34,9.821 23.52,20.446 33.61,31.657 10.08,11.207 19.08,23.011 27.08,35.207 41.19,62.832 55.79,136.031 55.79,192.562 v 791.891 l -8.48,16.66 -38.68,-38.68 9.39,-710.715 c 0.5,-5.281 11.09,-123.156 -39.56,-206.21 v 0 l -0.02,-0.032 -0.02,-0.035 c -7.26,-11.902 -15.87,-23.488 -25.55,-34.644 -9.64,-11.121 -20.38,-21.832 -31.94,-32.055 -59.2,-52.356 -140.15,-91.699 -208.3,-106.512 -93.77,-20.387 -176.85,-41.445 -177.09,-41.504 l -0.14,-0.035 -31.56,-6.941 -0.4,-0.082 h -0.55 -147.749 -0.121 l -119.004,3.605 -0.379,0.008 -0.23,0.043 c -0.711,0.117 -247.223,40.98 -358.227,131.43 -55.777,45.449 -86.265,95.07 -102.812,141.339 -16.535,46.243 -19.117,89.051 -19.117,121.008 0,57.45 5.339,720.782 5.586,751.052 l -21.95,38.65"
         style="fill:#f2aa18;fill-opacity:1;fill-rule:evenodd;stroke:none"
         id="path16" /><path
         d="m 320.777,1367.69 -15.453,-14.04 V 524.379 l -0.019,-0.016 c 0,-0.425 -2.008,-147.933 132.687,-244.429 l 0.207,-0.149 -0.004,-0.008 C 548.156,201.082 669.352,179.598 742.27,166.668 c 16.992,-3.008 31.378,-5.563 42.742,-8.344 46.269,-11.332 49.582,-59.0701 96.351,-63.7498 59.121,-5.9101 86.989,32.0038 87.098,32.1058 l 2.863,2.675 3.028,-2.5 c 0.14,-0.117 49.108,-41.2417 103.828,-23.656 26.91,8.649 38.27,22.645 48.71,35.52 11.67,14.394 22.31,27.511 49.8,31.906 h 0.01 l 0.09,0.012 v 0.004 c 7,1.117 17.11,2.894 29.69,5.336 12.56,2.433 27.31,5.484 43.43,9.117 83.41,18.816 207.37,54.09 271.24,104.89 h 0.01 l 0.04,0.032 v 0.007 c 12.34,9.821 23.52,20.446 33.61,31.657 10.08,11.207 19.08,23.011 27.08,35.207 41.19,62.832 55.79,136.031 55.79,192.562 v 791.891 l -8.48,16.66 -38.68,-38.68 9.39,-710.715 c 0.5,-5.281 11.09,-123.156 -39.56,-206.21 v 0 l -0.02,-0.032 -0.02,-0.035 c -7.26,-11.902 -15.87,-23.488 -25.55,-34.644 -9.64,-11.121 -20.38,-21.832 -31.94,-32.055 -59.2,-52.356 -140.15,-91.699 -208.3,-106.512 -93.77,-20.387 -176.85,-41.445 -177.09,-41.504 l -0.14,-0.035 -31.56,-6.941 -0.4,-0.082 h -0.55 -147.749 -0.121 l -119.004,3.605 -0.379,0.008 -0.23,0.043 c -0.711,0.117 -247.223,40.98 -358.227,131.43 -55.777,45.449 -86.265,95.07 -102.812,141.339 -16.535,46.243 -19.117,89.051 -19.117,121.008 0,57.45 5.339,720.782 5.586,751.052 z m -22.937,-8.76 21.055,19.12 4.128,3.75 2.762,-4.85 25.293,-44.54 0.586,-1.03 -0.008,-1.19 c -0.011,-1.97 -5.562,-684.526 -5.562,-752.202 0,-31.234 2.515,-73.031 18.594,-118 16.066,-44.949 45.722,-93.183 100.015,-137.422 107.258,-87.394 344.914,-128.011 353.785,-129.5 l 118.668,-3.597 h 147.074 l 31.18,6.851 v -0.004 c 3.73,0.946 85.5,21.602 177.23,41.543 66.83,14.528 146.22,53.114 204.27,104.454 11.25,9.945 21.7,20.378 31.1,31.207 9.36,10.789 17.67,21.972 24.68,33.46 h 0.01 l 0.01,0.032 0.02,0.031 c 50.18,82.301 38.32,200.59 38.29,200.934 l -0.02,0.363 -9.42,712.77 -0.03,1.9 1.33,1.32 44.35,44.35 4.35,4.36 2.8,-5.49 11.76,-23.11 0.49,-0.96 v -1.07 -792.961 c 0,-57.926 -14.98,-132.972 -57.26,-197.457 -8.23,-12.558 -17.51,-24.726 -27.92,-36.289 -10.4,-11.558 -21.94,-22.519 -34.7,-32.672 h -0.01 l -0.04,-0.031 0.01,-0.008 c -65.19,-51.847 -190.57,-87.59 -274.85,-106.601 -16.5,-3.727 -31.3,-6.789 -43.7,-9.192 -12.38,-2.402 -22.66,-4.203 -29.98,-5.371 h -0.01 l -0.08,-0.015 v 0 c -24.11,-3.856 -33.73,-15.715 -44.28,-28.727 -11.24,-13.859 -23.45,-28.918 -52.9,-38.3868 -51.16,-16.4375 -97.301,14.0308 -109.262,22.9258 -10.503,-8.684 -37.574,-37.2891 -91.16,-31.9297 -51.894,5.1875 -52.008,52.8007 -97.574,63.9567 -10.711,2.621 -25.141,5.184 -42.184,8.203 -73.664,13.059 -196.097,34.766 -307.722,114.653 h -0.02 l -0.207,0.152 C 294.609,371.645 296.379,523.32 296.391,524.379 h -0.02 v 831.241 1.97 l 1.469,1.34"
         style="fill:#231f20;fill-opacity:1;fill-rule:nonzero;stroke:none"
         id="path18" /><path
         d="M 1056.84,1353.2 H 602.633 V 941.773 h 318.375 l 51.797,-31.168 V 452.211 c 0,0 71.215,70.887 181.375,68.262 110.15,-2.621 171.81,-4.75 173.65,47.765 1.84,52.52 0,784.962 0,784.962 h -270.99"
         style="fill:#99def9;fill-opacity:1;fill-rule:evenodd;stroke:none"
         id="path20" /><g
         id="g22"><path
           d="m 604.113,940.289 h 318 c -0.664,-3.727 -1.105,-7.672 -1.105,-11.578 0,-15.641 4.977,-25.594 4.977,-25.594 0,0 -2.129,-17.066 0,-31.285 2.136,-14.223 6.402,-15.645 6.402,-15.645 0,0 -5.578,-15.531 -3.856,-30.16 1.723,-14.633 7.411,-21.035 7.411,-21.035 0,0 -4.981,-18.484 -4.266,-30.574 0.711,-12.086 5.687,-19.906 5.687,-19.906 0,0 -3.554,-14.223 -3.554,-24.176 0,-9.953 9.953,-18.488 9.953,-18.488 0,0 -5.688,-6.399 -5.688,-22.043 0,-15.641 3.555,-18.485 3.555,-18.485 0,0 -1.422,-12.09 -1.422,-24.886 0,-12.801 7.821,-22.043 7.821,-22.043 0,0 -2.133,-20.622 -1.422,-27.016 0.714,-6.402 2.843,-10.668 2.843,-10.668 0,0 -0.711,-11.375 -2.129,-24.176 -1.425,-12.797 -1.425,-39.816 -1.425,-45.508 0,-5.687 2.843,-45.504 4.98,-54.035 0.184,-0.734 0.422,-1.441 0.723,-2.133 -16.457,7.821 -51.649,22.872 -113.692,42.262 -92.566,28.926 -235.273,19.266 -235.273,19.266 v 417.355 z"
           style="fill:none;stroke:#231f20;stroke-width:8.95188;stroke-linecap:butt;stroke-linejoin:miter;stroke-miterlimit:2.6131;stroke-dasharray:none;stroke-opacity:1"
           id="path24" /></g><path
         d="m 604.113,940.289 h 318 c -0.664,-3.726 -1.105,-7.672 -1.105,-11.578 0,-15.641 4.976,-25.594 4.976,-25.594 0,0 -2.129,-17.066 0,-31.285 2.137,-14.223 6.403,-15.644 6.403,-15.644 0,0 -5.578,-15.532 -3.856,-30.161 1.723,-14.632 7.41,-21.035 7.41,-21.035 0,0 -4.98,-18.484 -4.265,-30.574 0.711,-12.086 5.687,-19.906 5.687,-19.906 0,0 -3.554,-14.223 -3.554,-24.176 0,-9.953 9.953,-18.488 9.953,-18.488 0,0 -5.688,-6.399 -5.688,-22.043 0,-15.641 3.555,-18.485 3.555,-18.485 0,0 -1.422,-12.09 -1.422,-24.886 0,-12.801 7.82,-22.043 7.82,-22.043 0,0 -2.132,-20.621 -1.422,-27.016 0.715,-6.402 2.844,-10.668 2.844,-10.668 0,0 -0.711,-11.375 -2.129,-24.176 -1.425,-12.797 -1.425,-39.816 -1.425,-45.508 0,-5.687 2.843,-45.503 4.98,-54.035 0.184,-0.734 0.422,-1.441 0.723,-2.133 -16.457,7.821 -51.649,22.872 -113.692,42.262 -92.566,28.926 -235.273,19.266 -235.273,19.266 v 417.355 l 1.48,0.551"
         style="fill:#f2aa18;fill-opacity:1;fill-rule:evenodd;stroke:none"
         id="path26" /><path
         d="m 713.531,1108.6 c -11.433,5.25 -19.051,12.42 -28.578,7.64 -9.523,-4.78 -19.523,-20.54 -23.336,-28.18 -3.808,-7.64 6.664,-10.03 14.289,-17.67 7.442,-7.46 13.071,-14.47 18.657,-15.68 -8.727,-6.95 -17.098,-15.39 -18.329,-24.02 -1.902,-13.39 1.43,-27.24 7.625,-32.026 6.2,-4.781 4.774,-6.219 20.977,-8.129 16.207,-1.91 44.328,-1.906 61.016,3.828 16.683,5.737 19.539,15.767 30.98,15.767 11.441,0 5.723,-20.071 16.688,-21.025 10.96,-0.96 26.687,-2.871 27.168,3.821 0.48,6.695 3.335,11.474 -1.43,11.474 -4.762,0 -11.438,-3.35 -15.25,3.35 -3.817,6.69 -1.906,12.42 8.101,11.46 10.012,-0.94 15.254,-6.21 16.684,0.97 1.43,7.17 7.145,10.51 0.953,10.51 -6.195,0 -20.976,-3.82 -22.402,0.48 -1.434,4.3 1.906,9.08 7.152,14.82 5.238,5.73 23.352,23.42 30.5,29.64 7.152,6.21 10.492,7.17 7.152,12.9 -3.335,5.74 -11.441,8.13 -17.16,13.87 -5.718,5.73 -8.578,14.81 -22.402,10.03 -13.824,-4.77 -20.02,-7.17 -28.125,-11.95 -7.625,-1.91 -15.731,-4.78 -15.731,-4.78 -42.644,0 -36.929,-4.69 -75.199,12.9"
         style="fill:#231f20;fill-opacity:1;fill-rule:evenodd;stroke:none"
         id="path28" /><path
         d="m 847.234,1385.61 19.235,-28.23 h 3.687 c -0.343,-0.63 26.676,-24.8 27.391,-51.11 0.711,-26.31 4.266,-69.68 4.266,-69.68 0,0 -1.426,-49.77 0.71,-65.41 2.133,-15.65 12.086,-22.76 12.086,-22.76 0,0 -7.82,-22.04 -7.109,-38.39 0.711,-16.36 15.641,-32 15.641,-32 0,0 -10.664,-21.33 -9.95,-31.28 0.707,-9.96 9.95,-23.47 9.95,-23.47 0,0 -1.418,-19.2 0,-34.128 1.425,-14.933 4.98,-28.441 4.98,-28.441 0,0 -7.113,-16.356 -7.113,-32 0,-15.641 4.976,-25.594 4.976,-25.594 0,0 -2.129,-17.066 0,-31.285 2.137,-14.223 6.403,-15.644 6.403,-15.644 0,0 -5.578,-15.532 -3.856,-30.161 1.723,-14.632 7.41,-21.035 7.41,-21.035 0,0 -4.98,-18.484 -4.265,-30.574 0.711,-12.086 5.687,-19.906 5.687,-19.906 0,0 -3.554,-14.223 -3.554,-24.176 0,-9.953 9.953,-18.488 9.953,-18.488 0,0 -5.688,-6.399 -5.688,-22.043 0,-15.641 3.555,-18.485 3.555,-18.485 0,0 -1.422,-12.09 -1.422,-24.886 0,-12.801 7.82,-22.043 7.82,-22.043 0,0 -2.132,-20.621 -1.422,-27.016 0.715,-6.402 2.844,-10.668 2.844,-10.668 0,0 -0.711,-11.375 -2.129,-24.176 -1.425,-12.797 -1.425,-39.816 -1.425,-45.508 0,-5.687 2.843,-45.503 4.98,-54.035 2.129,-8.535 12.797,-14.222 19.906,-12.797 7.11,1.418 14.934,4.262 16.352,22.039 1.426,17.778 7.82,111.633 7.82,125.145 0,13.508 4.27,31.992 4.981,46.215 0.706,14.223 2.136,19.91 2.136,33.422 0,13.504 2.84,130.828 2.84,142.203 0,11.375 2.85,73.949 6.4,123.008 3.56,49.062 9.24,83.907 6.4,91.727 -2.84,7.82 -3.56,12.8 -3.56,12.8 0,0 4.27,27.02 6.4,39.11 2.14,12.08 -2.13,27.01 -2.13,27.01 0,0 3.56,34.13 2.13,45.51 -1.42,11.37 -1.42,16.35 -1.42,16.35 0,0 12.8,30.57 12.09,43.38 -0.71,12.79 -0.71,14.93 -0.71,14.93 0,0 3.55,75.37 5.69,88.16 2.05,12.34 25.22,34.57 26.91,36.18 h 0.2 l 0.12,0.2 13.3,7 -8.45,1.4 10.92,18.93 -19.15,0.06 5.42,21.72 -57.95,38.21 c 0,0 -26.614,-5.24 -37.575,-4.71 -10.961,0.52 -17.23,0 -21.402,-0.53 -4.176,-0.52 -20.879,-0.52 -20.879,-0.52 l -8.351,3.66 -54.809,-37.68 6.941,-19.58 -24.211,0.07"
         style="fill:#583028;fill-opacity:1;fill-rule:evenodd;stroke:none"
         id="path30" /><path
         d="m 963.082,1842.02 c 482.798,-10.34 576.458,-147.32 576.738,-147.71 l 1.56,-2.15 -1.15,-2.4 -9.18,-19.17 c 11.09,-0.26 33.49,-1.23 53.93,-4.89 29.17,-5.2 65.06,-31.87 65.16,-31.94 l 3.93,-2.85 -3.18,-3.69 c -0.05,-0.06 -10.65,-12.63 -23.23,-28.87 9.45,-7.61 36.13,-30.33 57.7,-60.97 26.87,-38.17 37.19,-107.72 37.22,-107.92 l 1.31,-8.52 -7.73,3.86 c 0,0 -2.18,1.1 -26.77,27.25 -15.61,16.6 -32.74,14.56 -41.18,12.08 4.84,-6.13 13.02,-17.17 18.54,-28.23 8.85,-17.76 -5.55,-60.98 -5.59,-61.1 l -8.72,-27.34 v 28.68 c 0,0.02 -0.01,4.59 -13.9,26.89 -9.81,15.75 -24.54,16.62 -35.15,17.25 l -1.16,0.08 0.18,-0.12 c 3.7,-2.47 7.05,-5.15 9.96,-7.91 l 0.3,-0.28 0.02,-0.02 -0.01,-0.01 c 4.77,-4.61 8.92,-11.59 12.01,-19.83 4.41,-11.74 6.74,-26.26 5.7,-40.17 -1.07,-14.23 -5.66,-27.97 -15.14,-37.82 -4.45,-4.61 -9.96,-8.36 -16.66,-10.87 -26.64,-9.99 -42.96,-0.26 -51.89,9.46 1.43,-97.33 9.18,-628.251 9.18,-698.157 0,-7.238 0.05,-11.77 0.09,-16.41 0.74,-75.895 1.62,-167.426 -126.51,-249.348 -96.3,-61.562 -222.66,-97.934 -288.35,-113.598 -12.33,-2.937 -22.83,-5.211 -30.58,-6.773 1.06,-0.844 2.13,-1.785 3.18,-2.832 10.13,-10.106 18.79,-29.922 3.25,-65.832 -8.91,-20.586 -24.58,-32.621 -42.55,-37.738 -9.41,-2.684 -19.48,-3.442 -29.52,-2.52 -9.95,0.914 -19.89,3.5 -29.14,7.5 -20.797,8.996 -38.258,25.227 -45.082,45.969 -7.574,-19.012 -24.184,-33.891 -43.758,-42.363 -9.254,-4 -19.195,-6.586 -29.148,-7.5 -10.039,-0.922 -20.102,-0.165 -29.52,2.519 -17.969,5.117 -33.64,17.152 -42.551,37.738 -15.535,35.91 -6.878,55.727 3.254,65.832 1.055,1.051 2.118,1.989 3.176,2.832 -7.75,1.563 -18.246,3.836 -30.57,6.774 -65.696,15.664 -192.063,52.035 -288.36,113.601 -128.128,81.922 -127.242,173.45 -126.507,249.348 0.043,4.637 0.089,9.168 0.089,16.406 0,69.907 7.754,600.822 9.184,698.152 -8.934,-9.72 -25.254,-19.44 -51.894,-9.46 -6.696,2.52 -12.215,6.26 -16.661,10.88 -9.48,9.85 -14.07,23.58 -15.136,37.81 -1.043,13.92 1.293,28.43 5.699,40.18 3.09,8.24 7.234,15.21 12.004,19.83 l -0.008,0.01 0.023,0.02 0.305,0.27 c 2.902,2.76 6.254,5.45 9.961,7.91 3.785,2.54 7.945,4.85 12.371,6.82 0.664,0.3 1.34,0.59 2.012,0.87 l -1.953,0.02 c -17.641,0.22 -32.989,0.4 -36.653,-1.26 -8.691,-3.95 -39.636,-52.53 -39.726,-52.66 l -5.633,-8.77 -2.461,10.13 c -0.019,0.09 -8.449,33.8 0.086,60.35 5.121,15.93 10.602,28 14.051,34.93 -11.11,-0.34 -32.043,-2.4 -40.778,-12.88 -13.804,-16.56 -26.613,-28.46 -26.644,-28.49 l -11.254,-10.45 3.895,14.84 c 0.05,0.21 18.261,71.23 36.652,103.41 15.398,26.95 50.394,55.53 61.945,64.55 -13.101,14.79 -25.512,24.79 -25.566,24.84 l -3.856,3.12 3.508,3.5 c 0.078,0.09 28.207,28.21 61.387,32.95 22.347,3.2 43.062,3.77 53.574,3.84 l -9.441,19.7 -1.078,2.25 1.339,2.09 c 0.286,0.44 94,154.83 577.055,144.48 z m 25.176,-1602.551 -0.918,-1.145 c 0.301,0.383 0.605,0.766 0.918,1.145 z M 967,213.266 c -0.48,3.902 -1.289,7.636 -2.43,11.203 1.141,-3.567 1.95,-7.301 2.43,-11.203 z m -2.82,12.375 c -0.289,0.843 -0.598,1.668 -0.922,2.492 0.324,-0.824 0.633,-1.649 0.922,-2.492 z m 609.64,1197.509 c -3.18,0.06 -6.52,0.08 -9.92,0.08 -7.17,0 -14.53,-0.1 -20.9,-0.2 -8.66,-2.39 -17.21,-6.99 -25.09,-14.51 -11.64,-11.12 -17.2,-26.93 -19.61,-45.09 h 0.82 l -0.69,-10.87 -0.02,-0.32 c -1.09,-16.35 -0.29,-34.02 0.5,-51.53 l 0.01,-0.34 0.02,-0.34 c 0.36,-7.91 0.7,-15.8 0.89,-23.37 h 0.16 l 0.01,-10.23 V 549.246 c 0,-24.574 -7.79,-48.027 -19.51,-69.637 -11.3,-20.863 -26.43,-40.101 -41.66,-56.937 l 0.01,-0.012 -0.02,-0.015 -0.2,-0.2 c -2.51,-2.773 -4.91,-5.351 -7.19,-7.687 -2.5,-2.582 -5.06,-5.133 -7.66,-7.625 -13.57,-13.012 -29.41,-25.781 -47.82,-37.504 l -0.08,-0.082 -0.07,-0.035 -0.01,0.019 c -8.2,-5.207 -17.43,-10.32 -27.38,-15.281 -9.75,-4.859 -20.76,-9.848 -32.59,-14.84 -58.95,-24.902 -132.85,-47.097 -175.07,-56.957 l -0.22,-0.055 c -23.88,-5.57 -46.67,-9.355 -66.83,-12.703 -22.86,-3.793 -42.2,-7.011 -55.42,-11.652 l -0.05,-0.016 v 0.004 l -0.02,-0.011 -0.01,0.007 -8.89,-3.75 c -1.45,-0.718 -2.86,-1.476 -4.23,-2.281 l 0.01,-0.004 -0.03,-0.015 -0.08,-0.039 -1.68,-1 c -0.6,-0.383 -0.14,-0.133 -1.58,-1.09 l -0.01,0.027 c -2.651,-1.777 -5.151,-3.738 -7.456,-5.871 l -0.043,-0.039 -0.027,-0.024 -0.004,0.004 c -0.836,-0.777 -1.571,-1.496 -2.219,-2.16 -0.758,-0.785 -1.461,-1.543 -2.098,-2.273 h 0.004 l -0.644,-0.754 6.988,-5.684 -0.422,-0.527 -0.457,-0.574 -0.004,0.004 -0.035,-0.043 -7.039,5.625 c -2.742,-3.469 -5.047,-7.243 -6.875,-11.309 l -4.481,-9.945 0.227,-1.645 0.008,-0.027 0.019,-0.125 -0.754,-0.094 -0.257,-1.363 c 0.668,-6.461 0.515,-13.289 -0.504,-20.41 0.543,-4.754 1.527,-9.68 2.972,-14.746 5.454,-19.145 21.451,-34.235 40.691,-42.567 8.39,-3.629 17.39,-5.969 26.4,-6.793 8.93,-0.82 17.88,-0.148 26.25,2.235 15.52,4.421 29.06,14.828 36.77,32.628 13.54,31.293 6.8,47.762 -1.36,55.895 -2.16,2.164 -4.43,3.742 -6.4,4.844 -1.89,1.051 -3.46,1.648 -4.43,1.91 h -0.03 c -1.8,-0.059 -3.1,0.32 -3.91,1.047 -9.38,3.16 -48.79,14.386 -70.15,-11.61 -7.67,-9.328 -9.97,-19.363 -8.78,-28.293 0.76,-5.73 2.97,-11.031 6.1,-15.39 3.1,-4.305 7.09,-7.684 11.49,-9.645 5.2,-2.32 11.02,-2.629 16.57,-0.078 24.51,11.281 28.28,25.293 28.29,25.332 0.66,2.391 3.14,3.797 5.54,3.133 2.39,-0.66 3.79,-3.141 3.13,-5.535 -0.01,-0.051 -4.88,-18.078 -33.19,-31.106 -8.1,-3.726 -16.53,-3.304 -24.02,0.039 -5.84,2.61 -11.09,7.024 -15.1,12.61 -3.97,5.519 -6.76,12.226 -7.73,19.48 -1.49,11.196 1.33,23.692 10.76,35.16 26.32,32.028 74.22,16.504 81.45,13.918 1.47,0.211 5.29,0.903 11.25,2.098 7.22,1.449 17.63,3.703 30.82,6.848 65.19,15.543 190.49,51.586 285.61,112.398 123.93,79.231 123.07,168.051 122.35,241.699 -0.06,6.496 -0.12,12.946 -0.12,16.481 0,77.215 -9.04,689.967 -9.37,712.717 -1.87,6.18 -16.65,58.72 19.6,64.76 6.39,1.07 11.93,1.34 16.72,0.97 9.02,-0.69 15.53,-3.65 20.09,-7.92 4.62,-4.33 7.12,-9.92 8.11,-15.85 v 0 c 0.53,-3.22 0.63,-6.51 0.38,-9.71 -1.48,-19.26 -16.78,-23.1 -16.82,-23.11 -2.39,-0.68 -4.89,0.71 -5.57,3.1 -0.68,2.4 0.71,4.89 3.11,5.57 0.02,0.01 9.31,2.31 10.29,15.11 0.2,2.55 0.13,5.12 -0.27,7.56 v 0 0.01 c -0.68,4.1 -2.34,7.91 -5.4,10.77 -3.12,2.92 -7.82,4.96 -14.59,5.48 -4.12,0.32 -8.95,0.07 -14.57,-0.86 -27.21,-4.53 -13.29,-50.6 -12.35,-53.64 1.05,-2.5 13.83,-31.11 49.24,-17.84 5.35,2.01 9.75,5 13.31,8.69 7.87,8.18 11.71,19.93 12.63,32.25 0.95,12.63 -1.16,25.76 -5.13,36.36 -2.64,7.03 -6.06,12.86 -9.89,16.55 l -0.02,0.02 -0.04,0.04 -0.01,-0.01 -0.02,0.02 -0.14,0.15 c -2.54,2.42 -5.5,4.78 -8.74,6.95 -3.37,2.24 -7.08,4.3 -11.04,6.07 -3.96,1.77 -8.18,3.25 -12.55,4.31 z m -50.66,0.88 c -13.24,4.11 -28.8,17.84 -33.47,22.16 l -2.54,2.43 -0.79,6.58 -2.71,22.37 c -25.29,5.09 -78.85,25.48 -87.72,28.9 -6.43,3.17 -3.5,5.05 -3.26,8.52 l 11.78,45.72 c -27.19,15.08 -65.68,33.45 -116.84,51.25 -62.54,21.75 -167.09,29.53 -251.38,32.04 v 0.02 c 0.15,1.18 0.28,2.37 0.4,3.52 v 0.03 0.01 l 0.01,0.01 c 0.11,1.15 0.22,2.27 0.31,3.34 v 0.02 0.01 l 0.01,0.2 0.01,0.2 0.01,0.07 0.01,0.13 0.01,0.2 0.03,0.39 0.01,0.18 v 0.02 l 0.02,0.28 0.04,0.56 0.01,0.1 v 0.03 l 0.02,0.59 0.02,0.29 0.01,0.17 v 0.06 0.12 l 0.02,0.16 v 0.11 l 0.02,0.51 v 0.05 0.16 0.03 0.13 l 0.01,0.31 v 0.15 0.11 0.05 0.29 c 0,7 -20.63,29.04 -36.28,33.05 -15.649,4 -22.973,-11.02 -28.301,-15.36 -5.324,-4.34 -6.988,-4.67 -12.649,2.34 -5.66,7 -38.285,21.36 -53.601,19.02 -15.313,-2.33 -19.309,-21.36 -16.645,-27.04 2.668,-5.67 25.305,6.01 38.286,1.34 l 0.578,-0.23 0.027,-0.01 c 0.738,-0.33 1.387,-0.76 1.957,-1.27 l 0.09,-0.08 c 0.269,-0.25 0.519,-0.52 0.75,-0.8 l 0.012,-0.02 c 0.234,-0.29 0.449,-0.59 0.648,-0.92 l 0.047,-0.07 0.184,-0.33 0.121,-0.23 0.234,-0.49 0.012,-0.01 c 0.722,-1.61 1.097,-3.53 1.234,-5.6 l 0.02,-0.29 c 0.089,-1.68 0.027,-3.47 -0.149,-5.28 l -0.008,-0.05 -0.086,-0.78 -0.011,-0.13 -0.063,-0.48 -0.019,-0.18 -0.047,-0.3 -0.067,-0.48 v -0.01 c -0.257,-1.74 -0.593,-3.46 -0.972,-5.12 l -0.02,-0.09 -0.043,-0.2 -0.062,-0.26 -0.11,-0.45 -0.007,-0.03 -0.102,-0.42 -0.078,-0.32 -0.035,-0.13 c -18.067,-0.22 -28.848,-0.57 -29,-0.58 h -0.317 c -0.285,0.02 -99.008,5.13 -239.183,-23.93 -59.102,-12.26 -102.5,-30.83 -132.879,-48.16 v -28.78 -5.13 -3.89 l -0.281,-0.04 c -0.34,-3.05 -1.114,-7.51 -2.891,-12.02 -2.719,-6.9 -27.879,-15.16 -50.598,-21.28 -4.234,-1.14 -8.406,-2.23 -12.304,-3.21 -3.192,-0.81 -6.95,-1.73 -10.727,-2.64 l -0.035,-0.01 -0.125,-0.03 v 0.01 c -2.418,-0.58 -5.301,-1.43 -8.508,-2.46 0.332,-7.25 0.602,-24.18 -3.531,-30.98 -0.606,-5.07 -4.363,-21.16 -27.676,-27.2 l -0.035,-0.02 -0.082,-0.02 v 0.02 c -1.75,-0.46 -3.672,-0.84 -5.758,-1.17 7.875,-3.05 15.582,-7.83 22.82,-14.74 14.528,-13.86 20.657,-33.32 22.907,-55.21 h 0.761 407.731 l 4.125,-6.05 h 3.687 c -0.086,-0.16 1.547,-1.79 4.055,-4.56 l -0.352,0.38 H 454.613 c 0.828,-15.95 0.071,-32.88 -0.691,-49.66 -0.508,-11.23 -1.012,-22.39 -1.012,-33.5 h -0.019 V 552.852 c 0,-45.368 29.144,-87.348 58.679,-119.95 15.985,-17.644 35.926,-35.359 60.614,-51.074 55.093,-35.07 173.824,-72.215 232.035,-85.816 51.828,-12.117 97.668,-15.614 123.625,-24.754 l 0.051,-0.02 v 0.004 0 l 0.05,-0.015 0.02,-0.012 c 5.308,-1.871 10.269,-4.176 14.84,-6.863 4.617,-2.715 8.804,-5.805 12.511,-9.227 7.512,-6.934 13.172,-15.238 16.75,-24.68 3.586,7.965 8.731,15.039 15.274,21.075 3.707,3.421 7.89,6.511 12.512,9.226 4.568,2.688 9.528,4.988 14.838,6.863 l 0.02,0.008 0.05,0.02 v 0 -0.004 l 0.05,0.019 c 25.96,9.141 71.8,12.637 123.62,24.75 58.21,13.606 176.95,50.75 232.04,85.821 24.69,15.715 44.63,33.429 60.62,51.074 29.53,32.601 58.68,74.578 58.68,119.949 v 717.184 h -0.02 c 0,11.11 -0.51,22.28 -1.02,33.5 -0.81,18.05 -1.65,36.28 -0.49,53.27 H 1058.9 c -2.56,-2.61 -5.96,-6.19 -9.35,-10.16 6.34,7.43 12.7,13.52 13.56,14.34 h 0.2 l 0.12,0.2 11.12,5.85 h 413.69 0.97 c 2.55,20.42 8.77,38.51 22.5,51.61 3.7,3.53 7.53,6.52 11.45,8.99 z M 966.996,213.266 c -1.016,-6.453 -1.191,-13.286 -0.457,-20.45 -0.574,-3.679 -1.394,-7.457 -2.492,-11.316 -5.453,-19.145 -21.449,-34.234 -40.699,-42.566 -8.383,-3.629 -17.387,-5.965 -26.395,-6.793 -8.926,-0.821 -17.875,-0.145 -26.246,2.238 -15.523,4.418 -29.062,14.824 -36.769,32.629 -13.54,31.289 -6.801,47.758 1.351,55.89 2.168,2.165 4.43,3.743 6.41,4.844 1.887,1.051 3.449,1.649 4.422,1.914 h 0.027 c 1.809,-0.062 3.102,0.321 3.915,1.047 9.378,3.156 48.785,14.383 70.152,-11.613 7.668,-9.324 9.969,-19.363 8.777,-28.293 -0.758,-5.731 -2.961,-11.027 -6.097,-15.391 -3.094,-4.301 -7.09,-7.679 -11.485,-9.644 -5.199,-2.321 -11.023,-2.629 -16.582,-0.074 -24.5,11.281 -28.273,25.289 -28.285,25.328 -0.66,2.39 -3.141,3.797 -5.535,3.136 -2.395,-0.664 -3.797,-3.14 -3.137,-5.535 0.016,-0.054 4.887,-18.082 33.192,-31.109 8.101,-3.727 16.527,-3.305 24.015,0.039 5.844,2.609 11.098,7.023 15.11,12.609 3.968,5.52 6.757,12.227 7.722,19.481 1.492,11.195 -1.324,23.691 -10.75,35.16 -26.324,32.027 -74.226,16.504 -81.457,13.914 -1.465,0.215 -5.289,0.906 -11.242,2.102 -7.223,1.449 -17.637,3.703 -30.828,6.847 -65.184,15.543 -190.492,51.586 -285.61,112.399 -123.929,79.23 -123.066,168.05 -122.351,241.699 0.062,6.496 0.125,12.945 0.125,16.48 0,77.215 9.031,689.972 9.367,712.722 1.867,6.17 16.649,58.72 -19.601,64.76 -6.391,1.06 -11.934,1.33 -16.715,0.97 -9.02,-0.69 -15.539,-3.65 -20.094,-7.92 -4.621,-4.33 -7.121,-9.93 -8.106,-15.86 h -0.003 c -0.532,-3.21 -0.625,-6.5 -0.379,-9.71 1.48,-19.25 16.777,-23.09 16.82,-23.1 2.394,-0.69 4.887,0.7 5.566,3.1 0.68,2.39 -0.707,4.89 -3.101,5.57 -0.024,0 -9.317,2.3 -10.301,15.1 -0.195,2.56 -0.129,5.13 0.277,7.57 h -0.004 l 0.004,0.01 c 0.68,4.09 2.344,7.9 5.395,10.76 3.121,2.93 7.824,4.97 14.594,5.49 4.125,0.32 8.953,0.07 14.57,-0.86 27.207,-4.54 13.293,-50.61 12.344,-53.64 -1.039,-2.5 -13.825,-31.12 -49.231,-17.84 -5.351,2 -9.754,5 -13.312,8.69 -7.871,8.18 -11.711,19.93 -12.633,32.24 -0.949,12.64 1.16,25.77 5.137,36.37 2.632,7.03 6.05,12.86 9.879,16.54 l 0.023,0.02 0.039,0.05 0.012,-0.02 0.019,0.03 0.137,0.14 c 2.551,2.43 5.5,4.78 8.75,6.95 3.363,2.25 7.07,4.31 11.039,6.08 20.156,9 46.824,10.32 68.453,-10.33 12.406,-11.84 17.899,-29.03 20.047,-48.69 h -0.926 l 0.563,-10.75 c 0.402,-7.81 0.418,-15.78 0.246,-23.8 -0.168,-7.87 -0.555,-16.4 -0.938,-24.9 l -0.019,-0.34 c -0.356,-7.91 -0.715,-15.81 -0.902,-23.37 h -0.153 v -10.23 -717.188 c 0,-24.575 7.785,-48.028 19.504,-69.637 11.359,-20.945 26.555,-40.258 41.852,-57.149 11.968,-13.207 26,-26.406 42.355,-38.75 3.266,-2.464 6.559,-4.851 9.867,-7.152 2.903,-2.016 6.321,-4.289 10.27,-6.805 l -0.024,-0.027 0.024,-0.016 0.199,-0.078 c 40.606,-25.847 114.176,-52.558 174.102,-70.59 11.601,-3.492 22.73,-6.668 33.031,-9.457 10.312,-2.796 19.758,-5.191 27.996,-7.117 h 0.039 l 0.031,-0.008 v -0.007 c 23.953,-5.598 46.836,-9.399 67.047,-12.758 22.848,-3.793 42.203,-7.004 55.367,-11.617 l 0.012,-0.008 v -0.008 l 0.047,-0.016 v -0.004 l 0.047,-0.015 v 0.004 l 0.019,-0.012 0.004,0.008 8.684,-3.66 1.027,-0.508 c 0.438,-0.223 1.028,-0.543 1.746,-0.938 l 1.629,-0.906 h -0.004 l 0.039,-0.023 0.078,-0.039 c 2.84,-1.668 5.516,-3.524 7.989,-5.536 0.472,-0.382 0.945,-0.777 1.402,-1.175 0.219,-0.188 0.563,-0.5 1.024,-0.934 l 0.007,-0.004 0.016,-0.015 0.082,-0.075 0.035,-0.031 0.008,-0.012 0.047,-0.035 0.012,-0.015 0.097,-0.082 0.039,-0.032 c 4.555,-4.207 8.305,-9.008 11.16,-14.312 0.637,-1.192 1.172,-2.25 1.586,-3.153 0.332,-0.734 0.676,-1.55 1.02,-2.429 l -8.426,-3.223 0.395,-1.027 -0.043,-0.012 0.449,-1.254 8.578,3.059 0.402,-1.078 -8.711,-2.754 0.036,-0.117 0.019,-0.016 0.086,-0.285 0.023,-0.078 0.008,-0.036 0.242,-0.847 h 0.008 c 0.461,-1.61 0.864,-3.344 1.188,-5.188 0.156,-0.914 0.301,-1.855 0.422,-2.836 z m -10.57,1.593 v 0.004 -0.004"
         style="fill:#231f20;fill-opacity:1;fill-rule:nonzero;stroke:none"
         id="path32" /><path
         d="m 981.527,1648.8 c 81.803,-8.84 145.523,-78.14 145.523,-162.29 0,-48.15 -20.87,-91.43 -54.05,-121.31 l -4.72,0.78 10.92,18.93 -19.15,0.06 5.42,21.72 -57.95,38.21 c 0,0 -26.614,-5.24 -37.575,-4.71 -10.961,0.52 -17.23,0 -21.402,-0.53 -4.176,-0.52 -20.879,-0.52 -20.879,-0.52 l -8.351,3.66 -54.809,-37.68 6.941,-19.58 -24.211,0.07 19.235,-28.23 h 3.687 c -0.086,-0.15 1.403,-1.64 3.707,-4.18 h -4.304 c -41.758,29.57 -69.028,78.26 -69.028,133.31 0,81.55 59.828,149.15 137.969,161.31 -0.148,-0.57 -0.316,-1.14 -0.488,-1.72 -2.895,-9.78 -8.465,-21.46 -14.555,-34.24 -4.387,-9.19 -9.047,-18.97 -12.941,-28.42 l -0.004,0.01 -0.008,-0.02 -0.031,-0.09 c -8.043,-19.54 -13.598,-37.48 -15.297,-55.65 -1.696,-18.06 0.39,-36.53 7.558,-57.3 12.309,-35.64 51.547,-23.92 55.922,-22.49 1.114,0.49 2.387,0.61 3.657,0.3 0.054,-0.02 19.55,-5.07 44.597,3.76 10.91,3.85 15.45,12.38 17.27,22.01 1.96,10.44 0.89,23.36 0.89,32.97 h -0.02 v 0.06 h 0.02 c 0,13.71 -6.8,51.35 -15.5,78.11 -1.67,5.15 -3.4,9.85 -5.14,13.82 -1.66,3.78 -3.32,6.89 -4.91,9.06 l -0.024,0.03 c -6.07,8.21 -11.379,17.71 -14.586,26.18 -2.004,5.29 -3.23,10.33 -3.383,14.6 z m 83.343,-290.46 c -1.22,-0.97 -2.46,-1.91 -3.7,-2.84 1,0.99 1.7,1.64 1.94,1.88 h 0.2 l 0.12,0.2 z m -116.686,290.68 c 4.496,0.43 9.035,0.67 13.625,0.72 -5.602,-9.08 -12.09,-21.81 -14.071,-34.47 -3.867,-24.76 -4.644,-40.22 -4.644,-40.27 -0.172,-3.16 -2.883,-5.59 -6.043,-5.41 -3.164,0.17 -5.594,2.88 -5.418,6.04 0,0.05 0.793,15.91 4.777,41.4 1.781,11.41 6.715,22.75 11.774,31.99"
         style="fill:#f47216;fill-opacity:1;fill-rule:evenodd;stroke:none"
         id="path34" /><path
         d="m 1458.09,1535.74 c 22.16,53.15 49.05,110.37 72.9,155.38 -13.76,16.83 -124.09,132.47 -568.08,141.99 -446.062,9.55 -555.176,-120.59 -567.992,-138.39 l 74.988,-156.5 c 5.532,5.63 16.199,15.49 32.891,26.99 l 1.25,0.86 0.726,0.5 2.274,1.52 0.57,0.38 2.582,1.69 0.09,0.06 c 4.234,2.74 8.781,5.55 13.668,8.38 l 6.719,3.9 v -0.11 c 30.906,17.06 73.859,34.87 131.094,46.74 139.082,28.83 237.957,24.27 241.261,24.12 1.707,0.04 12.926,0.37 30.699,0.57 0.786,7.21 -0.117,14.13 -5.71,16.14 -12.981,4.67 -35.618,-7.01 -38.286,-1.34 -2.664,5.68 1.332,24.71 16.645,27.04 15.316,2.34 47.941,-12.02 53.601,-19.02 5.661,-7.01 7.325,-6.68 12.649,-2.34 5.328,4.34 12.652,19.36 28.301,15.36 15.65,-4.01 36.28,-26.05 36.28,-33.05 0,-1.07 -0.03,-2.34 -0.12,-3.74 84.87,-2.56 190.12,-10.46 253.45,-32.48 50.33,-17.51 88.67,-35.66 116.19,-50.79 l 0.01,0.04 5.06,-2.84 c 6.95,-3.92 13.14,-7.62 18.6,-11.01 l 0.44,-0.28 c 2.14,-1.33 4.16,-2.62 6.07,-3.85 l 0.68,-0.44 1.23,-0.8 19.27,-14.68"
         style="fill:#c4d7db;fill-opacity:1;fill-rule:nonzero;stroke:none"
         id="path36" /><path
         d="m 1454.09,1528.59 -0.29,0.24 -0.42,0.34 -0.51,0.39 c -5.65,4.42 -18.8,14.08 -40.4,26.56 l -10.07,-39.08 51.42,11.28 0.27,0.27"
         style="fill:#97a1a0;fill-opacity:1;fill-rule:nonzero;stroke:none"
         id="path38" /><path
         d="m 1496.33,1456.06 c 0.68,2.24 -2.25,19.13 -2.25,19.13 l 59.87,-9 c 0,0 -24.08,-7.65 -37.36,-9.46 -13.28,-1.8 -20.26,-0.67 -20.26,-0.67"
         style="fill:#97a1a0;fill-opacity:1;fill-rule:nonzero;stroke:none"
         id="path40" /><path
         d="m 1465.45,1528.65 0.38,-0.95 -1.53,-1.52 -2.53,-5.5 -0.97,-2.09 -2.29,-0.42 -45.76,-8.52 c 19.54,-7.26 53.53,-19.4 72,-23.2 l 3.71,-0.68 c 21.05,-3.37 55.97,-10.08 67.56,-12.33 3,9.21 11.18,33.7 20.87,57.25 l 0.06,0.14 c 3.09,8.2 6.62,15.94 10.29,23.08 3.47,7.08 6.97,13.43 10.35,18.42 l 1.57,2.3 c 9.65,15.12 17.9,24.7 18.83,25.77 9.64,12.57 18.49,23.42 23,28.88 -9.74,6.74 -35.95,23.75 -57.59,27.61 -22.8,4.07 -48.18,4.72 -56.54,4.82 l -61.41,-133.06"
         style="fill:#c4d7db;fill-opacity:1;fill-rule:nonzero;stroke:none"
         id="path42" /><path
         d="m 1606.61,1569.73 -43.73,-104.19 -2.33,-2.07 c -2.12,-1.95 -6.08,-5.07 -12.18,-7.96 -1.7,-0.91 -3.76,-1.74 -6.08,-2.49 -5.26,-1.86 -11.65,-3.39 -19.28,-4.1 l -0.8,-0.07 c -7.1,-0.97 -14.18,-1.6 -19.75,-1.99 7.8,-6.48 19.63,-15.06 27.59,-15.06 h 0.15 v -0.01 c 7.35,0 20.81,0.36 33.7,0.36 13.26,0 26.01,-0.4 31.53,-1.98 l 0.06,-0.02 h -0.01 c 2.03,-0.57 5.03,-0.75 8.44,-0.95 12.54,-0.75 29.94,-1.78 42.21,-21.45 4.64,-7.45 7.85,-13.29 10.1,-17.81 3.32,13 7.12,32.73 2.51,41.97 -7.77,15.59 -21.17,31.16 -21.21,31.2 l -3.82,4.3 5.11,2.64 c 0.09,0.04 30.69,16.18 57.07,-11.88 6.89,-7.33 11.81,-12.55 15.34,-16.26 -4.35,21.72 -14.71,64.09 -33.18,90.33 -20.84,29.6 -46.57,51.57 -55.81,59.02 -5.28,-6.98 -10.69,-14.35 -15.63,-21.53"
         style="fill:#c4d7db;fill-opacity:1;fill-rule:nonzero;stroke:none"
         id="path44" /><path
         d="m 480.984,1536.57 40.739,5.64 v 24.66 c -19.688,-12.05 -32.926,-23.02 -40.739,-30.3"
         style="fill:#97a1a0;fill-opacity:1;fill-rule:nonzero;stroke:none"
         id="path46" /><path
         d="m 463.477,1531.02 -63.997,133.55 c -7.71,0.07 -30.98,-0.09 -56.589,-3.75 -23.567,-3.37 -44.61,-19.97 -52.746,-27.13 5.238,-4.58 15.023,-13.59 24.898,-25.09 l 0.926,-1.05 c 0.015,-0.01 1.183,-1.29 3.16,-3.86 7.695,-9.53 15.074,-20.42 19.98,-31.75 2.614,-6.05 5.364,-13.25 8.125,-20.99 2.168,-5.72 4.293,-11.87 6.309,-18.49 l 0.105,-0.35 c 7.856,-24.01 14.895,-48.67 17.786,-59 7.679,3.38 23.519,10.25 37.117,15.52 l 0.847,0.33 c 10.196,4.08 20.653,8.08 29.418,11.05 l 0.153,0.06 5.707,2.19 0.019,-0.33 c 2.586,0.8 4.95,1.46 6.993,1.95 l 0.035,0.03 0.121,0.02 0.004,-0.01 c 2.57,0.62 6.047,1.48 10.586,2.63 3.843,0.97 7.964,2.04 12.164,3.17 20.621,5.57 43.203,12.4 44.582,15.91 1.058,2.67 1.668,5.32 2.031,7.5 l -50.156,-6.95 -4.7,-0.2 -2.878,5.04"
         style="fill:#c4d7db;fill-opacity:1;fill-rule:nonzero;stroke:none"
         id="path48" /><path
         d="m 345.098,1529.58 c -2.024,6.19 -4.098,12.31 -6.168,18.13 -10.5,27.73 -21.977,44.23 -27.02,50.71 -10.883,-8.47 -45.16,-36.31 -59.933,-62.15 -12.446,-21.79 -24.926,-62.41 -31.344,-85 4.16,4.39 9.055,9.79 14.074,15.82 15.012,18.01 55.117,16.1 55.231,16.09 l 7.199,-0.33 -3.492,-6.3 c -0.024,-0.04 -8.852,-15.04 -16.852,-39.93 -4.93,-15.33 -3.563,-33.56 -1.91,-44.84 9.922,14.94 29.293,42.93 37.472,46.65 5.407,2.46 21.704,2.27 40.426,2.04 21.414,-0.26 46.164,-0.56 58.914,2.71 l 0.016,0.02 0.082,0.02 0.004,-0.01 c 13.555,3.53 18.379,10.83 20.094,15.6 -15.911,0.34 -55.563,3.11 -62.598,3.6 -4.668,2.69 -4.098,2.94 -6.168,7.11 -1.996,6.87 -7.035,24 -18.027,60.06"
         style="fill:#c4d7db;fill-opacity:1;fill-rule:nonzero;stroke:none"
         id="path50" /><path
         d="m 410.555,1479.84 c -8.176,-3.3 -16.117,-6.62 -22.754,-9.43 l 48.887,-2.57 c 0.648,1.26 0.117,14.02 -0.27,21.81 -5.227,-1.93 -13.773,-5.11 -24.652,-9.34 l -1.211,-0.47"
         style="fill:#97a1a0;fill-opacity:1;fill-rule:nonzero;stroke:none"
         id="path52" /><path
         d="m 396.43,1333.2 c 0.949,3.03 14.863,49.1 -12.344,53.64 -5.617,0.93 -10.445,1.18 -14.57,0.86 -6.77,-0.52 -11.473,-2.56 -14.594,-5.49 -3.051,-2.86 -4.715,-6.67 -5.395,-10.76 l -0.004,-0.01 h 0.004 c -0.406,-2.44 -0.472,-5.01 -0.277,-7.57 0.984,-12.8 10.277,-15.1 10.301,-15.1 2.394,-0.68 3.781,-3.18 3.101,-5.57 -0.679,-2.4 -3.172,-3.79 -5.566,-3.1 -0.043,0.01 -15.34,3.85 -16.82,23.1 -0.246,3.21 -0.153,6.5 0.379,9.71 h 0.003 c 0.985,5.93 3.485,11.53 8.106,15.86 4.555,4.27 11.074,7.23 20.094,7.92 4.781,0.36 10.324,0.09 16.715,-0.97 36.25,-6.04 21.468,-58.59 19.601,-64.76 -0.336,-22.75 -9.367,-635.507 -9.367,-712.722 0,-3.535 -0.063,-9.984 -0.125,-16.48 -0.715,-73.649 -1.578,-162.469 122.351,-241.699 95.118,-60.813 220.426,-96.856 285.61,-112.399 13.191,-3.144 23.605,-5.398 30.828,-6.847 5.953,-1.196 9.777,-1.887 11.242,-2.102 7.231,2.59 55.133,18.113 81.457,-13.914 9.426,-11.469 12.242,-23.965 10.75,-35.16 -0.965,-7.254 -3.754,-13.961 -7.722,-19.481 -4.012,-5.586 -9.266,-10 -15.11,-12.609 -7.488,-3.344 -15.914,-3.766 -24.015,-0.039 -28.305,13.027 -33.176,31.055 -33.192,31.109 -0.66,2.395 0.742,4.871 3.137,5.535 2.394,0.661 4.875,-0.746 5.535,-3.136 0.012,-0.039 3.785,-14.047 28.285,-25.328 5.559,-2.555 11.383,-2.247 16.582,0.074 4.395,1.965 8.391,5.343 11.485,9.644 3.136,4.364 5.339,9.66 6.097,15.391 1.192,8.93 -1.109,18.969 -8.777,28.293 -21.367,25.996 -60.774,14.769 -70.152,11.613 -0.813,-0.726 -2.106,-1.109 -3.915,-1.047 h -0.027 c -0.973,-0.265 -2.535,-0.863 -4.422,-1.914 -1.98,-1.101 -4.242,-2.679 -6.41,-4.844 -8.152,-8.132 -14.891,-24.601 -1.351,-55.89 7.707,-17.805 21.246,-28.211 36.769,-32.629 8.371,-2.383 17.32,-3.059 26.246,-2.238 9.008,0.828 18.012,3.164 26.395,6.793 19.25,8.332 35.246,23.421 40.699,42.566 7.98,28.008 1.859,51.605 -14.824,67.004 -3.278,3.016 -6.946,5.73 -10.965,8.09 -4.02,2.363 -8.453,4.414 -13.27,6.117 l -0.144,0.051 -0.035,0.011 c -25.465,8.965 -71.09,12.411 -122.637,24.457 -64.356,15.043 -174.57,49.102 -233.285,86.059 -60.418,38.027 -124.985,107.281 -124.985,183.434 v 713.317 h -0.015 c 0,10.7 0.523,22.26 1.047,33.89 1.91,42.15 3.859,85.23 -20.192,108.19 -21.629,20.65 -48.297,19.33 -68.453,10.33 -3.969,-1.77 -7.676,-3.83 -11.039,-6.08 -3.25,-2.17 -6.199,-4.52 -8.75,-6.95 l -0.137,-0.14 -0.019,-0.03 -0.012,0.02 -0.039,-0.05 -0.023,-0.02 c -3.829,-3.68 -7.247,-9.51 -9.879,-16.54 -3.977,-10.6 -6.086,-23.73 -5.137,-36.37 0.922,-12.31 4.762,-24.06 12.633,-32.24 3.558,-3.69 7.961,-6.69 13.312,-8.69 35.406,-13.28 48.192,15.34 49.231,17.84"
         style="fill:#f2aa18;fill-opacity:1;fill-rule:nonzero;stroke:none"
         id="path54" /><path
         d="m 1546.22,1329.59 c -0.94,3.04 -14.86,49.11 12.35,53.64 5.62,0.93 10.45,1.18 14.57,0.86 6.77,-0.52 11.47,-2.56 14.59,-5.48 3.06,-2.86 4.72,-6.67 5.4,-10.77 v -0.01 0 c 0.4,-2.44 0.47,-5.01 0.27,-7.56 -0.98,-12.8 -10.27,-15.1 -10.29,-15.11 -2.4,-0.68 -3.79,-3.17 -3.11,-5.57 0.68,-2.39 3.18,-3.78 5.57,-3.1 0.04,0.01 15.34,3.85 16.82,23.11 0.25,3.2 0.15,6.49 -0.38,9.71 v 0 c -0.99,5.93 -3.49,11.52 -8.11,15.85 -4.56,4.27 -11.07,7.23 -20.09,7.92 -4.79,0.37 -10.33,0.1 -16.72,-0.97 -36.25,-6.04 -21.47,-58.58 -19.6,-64.76 0.33,-22.75 9.37,-635.502 9.37,-712.717 0,-3.535 0.06,-9.985 0.12,-16.481 0.72,-73.648 1.58,-162.468 -122.35,-241.699 -95.12,-60.812 -220.42,-96.855 -285.61,-112.398 -13.19,-3.145 -23.6,-5.399 -30.82,-6.848 -5.96,-1.195 -9.78,-1.887 -11.25,-2.098 -7.23,2.586 -55.13,18.11 -81.45,-13.918 -9.43,-11.468 -12.25,-23.964 -10.76,-35.16 0.97,-7.254 3.76,-13.961 7.73,-19.48 4.01,-5.586 9.26,-10 15.1,-12.61 7.49,-3.343 15.92,-3.765 24.02,-0.039 28.31,13.028 33.18,31.055 33.19,31.106 0.66,2.394 -0.74,4.875 -3.13,5.535 -2.4,0.664 -4.88,-0.742 -5.54,-3.133 -0.01,-0.039 -3.78,-14.051 -28.29,-25.332 -5.55,-2.551 -11.37,-2.242 -16.57,0.078 -4.4,1.961 -8.39,5.34 -11.49,9.645 -3.13,4.359 -5.34,9.66 -6.1,15.39 -1.19,8.93 1.11,18.965 8.78,28.293 21.36,25.996 60.77,14.77 70.15,11.61 0.81,-0.727 2.11,-1.106 3.91,-1.047 h 0.03 c 0.97,-0.262 2.54,-0.859 4.43,-1.91 1.97,-1.102 4.24,-2.68 6.4,-4.844 8.16,-8.133 14.9,-24.602 1.36,-55.895 -7.71,-17.8 -21.25,-28.207 -36.77,-32.628 -8.37,-2.383 -17.32,-3.055 -26.25,-2.235 -9.01,0.824 -18.01,3.164 -26.4,6.793 -19.24,8.332 -35.237,23.422 -40.691,42.567 -7.976,28.007 -1.859,51.605 14.829,67 3.273,3.019 6.942,5.73 10.962,8.093 4.02,2.364 8.45,4.414 13.27,6.117 l 0.14,0.051 0.04,0.012 c 25.46,8.965 71.08,12.406 122.63,24.457 64.36,15.043 174.57,49.102 233.29,86.059 60.42,38.027 124.98,107.281 124.98,183.433 v 713.313 h 0.02 c 0,10.71 -0.53,22.27 -1.05,33.89 -1.91,42.15 -3.86,85.24 20.19,108.2 21.63,20.64 48.3,19.32 68.46,10.32 3.96,-1.77 7.67,-3.83 11.04,-6.07 3.24,-2.17 6.2,-4.53 8.74,-6.95 l 0.14,-0.15 0.02,-0.02 0.01,0.01 0.04,-0.04 0.02,-0.02 c 3.83,-3.69 7.25,-9.52 9.89,-16.55 3.97,-10.6 6.08,-23.73 5.13,-36.36 -0.92,-12.32 -4.76,-24.07 -12.63,-32.25 -3.56,-3.69 -7.96,-6.68 -13.31,-8.69 -35.41,-13.27 -48.19,15.34 -49.24,17.84"
         style="fill:#f2aa18;fill-opacity:1;fill-rule:nonzero;stroke:none"
         id="path56" /><path
         d="m 961.156,1436.69 c -9.101,-2.73 -54.156,-13.74 -69.254,29.97 -7.742,22.43 -9.984,42.43 -8.144,62.06 1.828,19.52 7.668,38.49 16.105,58.99 l 0.063,0.15 c 4.222,10.25 8.824,19.89 13.148,28.95 5.922,12.42 11.332,23.78 13.926,32.53 2.34,7.9 2.336,13.34 -2.246,14.7 -9.352,2.76 -16.871,0.17 -22.5,-1.78 -8.438,-2.92 -14.316,-4.95 -19.316,3.6 h -0.012 c -2.438,4.18 -2.047,10.13 0.691,16.1 1.469,3.2 3.613,6.48 6.313,9.48 2.711,3 6.015,5.78 9.797,7.99 l 0.32,0.17 c 9.308,5.32 21.453,7.29 34.988,1.07 17.711,-8.14 27.153,-17.43 32.02,-23.98 8.965,10.72 27.761,28.83 45.495,18.19 12.34,-7.4 22.75,-24.19 26.44,-36.38 1.07,-3.54 1.63,-6.87 1.56,-9.69 -0.1,-4.03 -1.46,-7.24 -4.3,-9.18 -2.5,-1.71 -5.65,-2.12 -9.46,-0.88 l -0.23,0.07 c -6.16,2.05 -11.57,5.1 -16.58,7.92 -6.73,3.79 -12.605,7.1 -16.414,5.65 l -0.109,-0.05 -0.012,-0.01 c -0.382,-0.34 -0.515,-1.46 -0.453,-3.14 0.098,-2.93 1.071,-6.73 2.664,-10.94 2.852,-7.53 7.604,-16.01 13.054,-23.39 l 0.02,-0.02 c 2.14,-2.9 4.22,-6.77 6.22,-11.33 1.92,-4.38 3.78,-9.42 5.55,-14.85 9,-27.69 16.04,-67.1 16.04,-81.66 h 0.01 v -0.06 h -0.01 c 0,-10.01 1.28,-22.58 -1.08,-35.09 -2.51,-13.3 -8.98,-25.16 -24.73,-30.72 -23.906,-8.44 -43.867,-5.56 -49.574,-4.44 z m 9.668,226.04 -0.047,-0.05 v 0 l -0.011,-0.02 c -1.293,-1.61 -19.469,-24.61 -23.028,-47.39 -3.867,-24.76 -4.644,-40.22 -4.644,-40.27 -0.172,-3.16 -2.883,-5.59 -6.043,-5.41 -3.164,0.17 -5.594,2.88 -5.418,6.04 0,0.05 0.793,15.91 4.777,41.4 3.348,21.43 17.793,42.6 23.367,50.13 -2.515,4.47 -9.855,14.05 -29.507,23.08 -9.54,4.38 -18.004,3.08 -24.457,-0.57 l -0.286,-0.17 c -2.73,-1.6 -5.113,-3.61 -7.054,-5.75 -1.95,-2.16 -3.45,-4.43 -4.426,-6.56 -1.199,-2.61 -1.676,-4.69 -1.184,-5.53 l -0.011,-0.01 0.011,-0.01 c 0.239,-0.42 2.465,0.35 5.664,1.46 7.121,2.46 16.641,5.75 29.461,1.95 12.926,-3.83 14.36,-14.32 10.024,-28.95 -2.895,-9.78 -8.465,-21.46 -14.555,-34.24 -4.387,-9.19 -9.047,-18.97 -12.941,-28.42 l -0.004,0.01 -0.008,-0.02 -0.031,-0.09 c -8.043,-19.54 -13.598,-37.48 -15.297,-55.65 -1.696,-18.06 0.39,-36.53 7.558,-57.3 12.309,-35.64 51.547,-23.92 55.922,-22.49 1.114,0.49 2.387,0.61 3.657,0.3 0.054,-0.02 19.55,-5.07 44.597,3.76 10.91,3.85 15.45,12.38 17.27,22.01 1.96,10.44 0.89,23.36 0.89,32.97 h -0.02 v 0.06 h 0.02 c 0,13.71 -6.8,51.35 -15.5,78.11 -1.67,5.15 -3.4,9.85 -5.14,13.82 -1.66,3.78 -3.32,6.89 -4.91,9.06 l -0.024,0.03 c -6.07,8.21 -11.379,17.71 -14.586,26.18 -2.008,5.3 -3.234,10.35 -3.383,14.64 -0.183,5.37 1.286,9.75 4.86,12.54 l 0.281,0.22 c 0.848,0.62 1.797,1.14 2.852,1.54 8.824,3.34 16.87,-1.18 26.08,-6.37 4.23,-2.39 8.77,-4.95 13.44,-6.64 -0.11,1.37 -0.47,3.1 -1.06,5.05 -3.07,10.14 -11.5,23.96 -21.32,29.86 -14.871,8.92 -35.465,-21.81 -35.523,-21.9 -0.098,-0.14 -0.203,-0.28 -0.313,-0.41"
         style="fill:#583028;fill-opacity:1;fill-rule:nonzero;stroke:none"
         id="path58" /><path
         d="m 970.824,1662.73 -0.047,-0.05 v 0 l -0.011,-0.02 c -1.293,-1.61 -19.469,-24.61 -23.028,-47.39 -3.867,-24.76 -4.644,-40.22 -4.644,-40.27 -0.172,-3.16 -2.883,-5.59 -6.043,-5.41 -3.164,0.17 -5.594,2.88 -5.418,6.04 0,0.05 0.793,15.91 4.777,41.4 3.348,21.43 17.793,42.6 23.367,50.13 -2.515,4.47 -9.855,14.05 -29.507,23.08 -9.54,4.38 -18.004,3.08 -24.457,-0.57 l -0.286,-0.17 c -2.73,-1.6 -5.113,-3.61 -7.054,-5.75 -1.95,-2.16 -3.45,-4.43 -4.426,-6.56 -1.199,-2.61 -1.676,-4.69 -1.184,-5.53 l -0.011,-0.01 0.011,-0.01 c 0.239,-0.42 2.465,0.35 5.664,1.46 7.121,2.46 16.641,5.75 29.461,1.95 12.926,-3.83 14.36,-14.32 10.024,-28.95 -2.895,-9.78 -8.465,-21.46 -14.555,-34.24 -4.387,-9.19 -9.047,-18.97 -12.941,-28.42 l -0.004,0.01 -0.008,-0.02 -0.031,-0.09 c -8.043,-19.54 -13.598,-37.48 -15.297,-55.65 -1.696,-18.06 0.39,-36.53 7.558,-57.3 12.309,-35.64 51.547,-23.92 55.922,-22.49 1.114,0.49 2.387,0.61 3.657,0.3 0.054,-0.02 19.55,-5.07 44.597,3.76 10.91,3.85 15.45,12.38 17.27,22.01 1.96,10.44 0.89,23.36 0.89,32.97 h -0.02 v 0.06 h 0.02 c 0,13.71 -6.8,51.35 -15.5,78.11 -1.67,5.15 -3.4,9.85 -5.14,13.82 -1.66,3.78 -3.32,6.89 -4.91,9.06 l -0.024,0.03 c -6.07,8.21 -11.379,17.71 -14.586,26.18 -2.008,5.3 -3.234,10.35 -3.383,14.64 -0.183,5.37 1.286,9.75 4.86,12.54 l 0.281,0.22 c 0.848,0.62 1.797,1.14 2.852,1.54 8.824,3.34 16.87,-1.18 26.08,-6.37 4.23,-2.39 8.77,-4.95 13.44,-6.64 -0.11,1.37 -0.47,3.1 -1.06,5.05 -3.07,10.14 -11.5,23.96 -21.32,29.86 -14.871,8.92 -35.465,-21.81 -35.523,-21.9 -0.098,-0.14 -0.203,-0.28 -0.313,-0.41"
         style="fill:#ed1c24;fill-opacity:1;fill-rule:nonzero;stroke:none"
         id="path60" /><path
         d="m 1084.45,1363.43 c 31.33,31.12 50.74,74.24 50.74,121.88 0,68.42 -40.04,127.49 -97.94,155.11 1.04,0.95 1.82,2.12 2.37,3.47 6.13,-0.19 12.35,-0.41 18.66,-0.66 53.54,-32.23 89.37,-90.89 89.37,-157.92 0,-46.73 -17.42,-89.4 -46.1,-121.88 z m -259.192,0 c -28.676,32.48 -46.098,75.15 -46.098,121.88 0,67.95 36.824,127.31 91.582,159.24 13.496,0.24 23.043,0.06 28.02,-0.08 -62.821,-25.55 -107.141,-87.17 -107.141,-159.16 0,-47.64 19.41,-90.76 50.746,-121.88 h -17.109"
         style="fill:#f5db80;fill-opacity:1;fill-rule:evenodd;stroke:none"
         id="path62" /><path
         d="m 961.539,1649.29 c -0.898,-1.48 -1.82,-3.05 -2.742,-4.68 0.918,1.64 1.844,3.2 2.742,4.68"
         style="fill:#583028;fill-opacity:1;fill-rule:evenodd;stroke:none"
         id="path64" /><path
         d="m 937.594,1644.71 c -0.239,-0.76 -0.492,-1.53 -0.762,-2.31 0.266,0.78 0.523,1.55 0.762,2.31"
         style="fill:#583028;fill-opacity:1;fill-rule:evenodd;stroke:none"
         id="path66" /><path
         d="m 939.445,1651.78 c -0.113,-0.55 -0.23,-1.1 -0.359,-1.66 0.129,0.56 0.246,1.11 0.359,1.66"
         style="fill:#583028;fill-opacity:1;fill-rule:evenodd;stroke:none"
         id="path68" /><path
         d="m 853.613,1353.2 c -37.871,31.51 -61.992,79 -61.992,132.11 0,82.73 58.531,151.8 136.422,168.11 -0.258,-1.27 -0.613,-2.63 -1.043,-4.08 -0.883,-2.98 -2.082,-6.27 -3.527,-9.79 -68.653,-17.73 -119.391,-80.06 -119.391,-154.24 0,-54.99 27.871,-103.47 70.246,-132.11 h -20.715"
         style="fill:#583028;fill-opacity:1;fill-rule:evenodd;stroke:none"
         id="path70" /><path
         d="m 981.656,1652.24 c 0.059,0.57 0.141,1.12 0.258,1.66 h 0.016 c -0.117,-0.54 -0.211,-1.09 -0.274,-1.66"
         style="fill:#583028;fill-opacity:1;fill-rule:evenodd;stroke:none"
         id="path72" /><path
         d="m 982.18,1643.52 h -0.016 c -0.133,0.67 -0.238,1.32 -0.324,1.97 0.094,-0.65 0.211,-1.31 0.34,-1.97"
         style="fill:#583028;fill-opacity:1;fill-rule:evenodd;stroke:none"
         id="path74" /><path
         d="m 1052.48,1353.2 c 42.38,28.64 70.25,77.12 70.25,132.11 0,77.33 -55.13,141.78 -128.218,156.25 -0.903,2.89 -1.449,5.49 -1.52,7.63 -0.062,1.68 0.071,2.8 0.453,3.14 l 0.012,0.01 0.109,0.05 c 3.809,1.45 9.684,-1.86 16.414,-5.65 5.01,-2.82 10.42,-5.87 16.58,-7.92 l 0.23,-0.07 c 3.81,-1.24 6.96,-0.83 9.46,0.88 0.36,0.25 0.7,0.51 1,0.79 57.91,-27.62 97.94,-86.69 97.94,-155.11 0,-53.11 -24.12,-100.6 -61.99,-132.11 h -20.72"
         style="fill:#583028;fill-opacity:1;fill-rule:evenodd;stroke:none"
         id="path76" /><path
         d="m 835.012,1353.2 c -34.442,33.48 -55.852,80.3 -55.852,132.11 0,74.98 44.824,139.5 109.125,168.26 -7.262,0.06 -17.039,0 -29.074,-0.37 -56.059,-34.88 -93.398,-97.02 -93.398,-167.89 0,-50.79 19.179,-97.1 50.679,-132.11 h 18.52"
         style="fill:#231f20;fill-opacity:1;fill-rule:evenodd;stroke:none"
         id="path78" /><path
         d="m 1110.32,1353.2 c 31.5,35.01 50.68,81.32 50.68,132.11 0,69.8 -36.23,131.16 -90.89,166.32 -10.13,0.46 -20.1,0.83 -29.81,1.14 v -0.01 c 63.35,-29.14 107.35,-93.16 107.35,-167.45 0,-51.81 -21.41,-98.63 -55.85,-132.11 h 18.52"
         style="fill:#231f20;fill-opacity:1;fill-rule:evenodd;stroke:none"
         id="path80" /><path
         d="m 896.344,1410.98 h 132.586 l -36.414,29.88 -60.981,-2.46 -35.191,-27.42"
         style="fill:#be9755;fill-opacity:1;fill-rule:evenodd;stroke:none"
         id="path82" /><path
         d="m 879.715,1402.8 12.613,-17.09 h 151.352 l 8.18,17.77 -172.145,-0.68"
         style="fill:#be9755;fill-opacity:1;fill-rule:evenodd;stroke:none"
         id="path84" /><path
         d="m 882.777,1358.77 c 0,0 18.512,-28.36 19.696,-34.66 1.179,-6.3 3.937,-76.41 7.484,-79.96 3.543,-3.54 86.258,-2.36 98.473,-2.36 12.21,0 13.39,1.57 14.57,7.87 1.18,6.31 3.15,68.15 8.66,78.39 5.52,10.24 34.27,46.87 34.27,46.87 l -200.09,0.39 16.937,-16.54"
         style="fill:#bb6024;fill-opacity:1;fill-rule:evenodd;stroke:none"
         id="path86" /><path
         d="m 882.777,1358.77 c 0,0 0.817,-1.25 2.121,-3.3 h 166.072 c 7.84,10.38 14.96,19.45 14.96,19.45 l -200.09,0.39 16.937,-16.54"
         style="fill:#583028;fill-opacity:1;fill-rule:evenodd;stroke:none"
         id="path88" /><path
         d="m 922.469,1151.4 c 0,0 -16.41,11.89 -14.133,33.37 2.277,21.48 3.644,36.11 21.879,41.14 18.23,5.02 88.425,8.68 92.985,-6.41 4.56,-15.07 -8.2,-36.11 -23.7,-47.08 -15.496,-10.97 -44.215,-17.37 -54.703,-20.56 -10.481,-3.2 -22.328,-0.46 -22.328,-0.46 z m 41.394,-634.873 c 0,0 -9.933,1.418 -10.879,-10.882 -0.949,-12.305 4.731,-40.692 10.407,-47.317 5.679,-6.625 18.925,1.891 18.453,26.969 -0.473,25.078 2.367,30.758 -3.781,31.23 -6.153,0.473 -14.2,0 -14.2,0 z m 4.735,21.766 c -2.368,0 -13.723,0 -14.668,-6.152 -0.946,-6.149 15.613,-3.313 22.238,-3.313 6.625,0 17.035,8.52 8.516,10.414 -8.516,1.891 -16.086,-0.949 -16.086,-0.949 z m -1.895,6.625 c 0,0 -20.82,-1.422 -10.406,8.988 10.406,10.414 21.766,19.403 28.863,13.723 7.098,-5.676 6.621,-13.723 0,-17.508 -6.625,-3.785 -18.457,-5.203 -18.457,-5.203 z m -7.57,21.293 c 0,0 -10.883,7.098 -1.895,17.977 8.992,10.886 30.289,17.511 30.289,17.511 0,0 8.989,-8.519 -3.316,-19.402 -12.301,-10.879 -25.078,-16.086 -25.078,-16.086 z m -0.445,58.969 c 0,0 -5.411,-7.817 -5.411,-17.434 0,-9.617 16.227,-6.012 28.25,4.809 12.02,10.82 19.233,25.847 11.418,24.043 -7.812,-1.805 -34.257,-11.418 -34.257,-11.418 z m -0.602,43.273 c 0,0 -15.027,-6.012 -13.227,-18.031 1.809,-12.02 12.024,-16.832 25.246,-7.211 13.227,9.613 22.239,10.816 24.043,24.641 1.805,13.824 7.212,18.031 -2.406,13.824 -9.613,-4.207 -33.656,-13.223 -33.656,-13.223 z m 3.605,13.223 c 0,0 -16.23,-3.004 -15.023,13.824 1.199,16.828 19.832,16.828 30.648,22.84 10.821,6.012 20.438,10.82 16.832,-3.004 -3.605,-13.824 -10.816,-25.246 -16.832,-28.852 -6.007,-3.605 -15.625,-4.808 -15.625,-4.808 z m 35.528,88.496 c 0,0 3.641,-27.422 -11.852,-37.024 -15.496,-9.597 -29.625,-15.996 -36.922,-13.257 -7.293,2.746 -10.476,17.832 -4.554,27.886 5.922,10.055 23.703,10.969 32.363,15.539 8.656,4.571 20.965,6.856 20.965,6.856 z m -58.492,18.008 c -1.059,-3.965 -1.848,-8.641 -1.676,-13.434 0.453,-12.801 9.117,-15.082 18.234,-9.601 9.113,5.484 40.57,18.742 43.762,26.968 3.183,8.231 8.203,29.254 -2.281,26.055 -15.547,-4.742 -54.016,-14.863 -58.039,-29.988 z m 2.882,61.07 c 0,0 -10.48,-10.055 -7.746,-24.223 2.731,-14.172 7.746,-18.289 20.512,-14.629 12.762,3.657 42.387,15.997 46.485,32.454 4.11,16.457 7.3,30.625 0,26.972 -7.286,-3.66 -30.993,-18.289 -40.563,-19.199 -9.57,-0.914 -18.688,-1.375 -18.688,-1.375 z m -5.015,51.199 c 0,0 -6.836,-8.23 -6.379,-23.769 0.453,-15.543 22.789,-20.114 35.555,-16 12.761,4.117 41.94,24.683 41.94,38.851 0,14.172 0.45,33.828 -13.226,24.231 -13.675,-9.602 -38.289,-22.399 -44.671,-23.77 -6.379,-1.371 -13.219,0.457 -13.219,0.457 z m 12.308,57.594 c 0,0 -15.957,0.914 -18.687,-19.195 -2.735,-20.118 -0.91,-29.715 20.512,-27.43 21.421,2.285 48.769,21.941 53.783,30.168 5.02,8.227 8.2,37.941 2.74,38.852 -5.47,0.917 -28.266,-14.625 -36.012,-17.368 -7.746,-2.742 -22.336,-5.027 -22.336,-5.027 z m 11.852,10.512 c 0,0 -32.82,-5.028 -32.363,14.172 0.457,19.203 -1.364,34.283 20.511,34.743 21.879,0.46 40.571,15.99 50.145,19.2 9.563,3.19 20.513,0 13.213,-21.03 -7.29,-21.027 -28.26,-39.316 -33.276,-41.601 -5.011,-2.281 -18.23,-5.484 -18.23,-5.484 z m 11.394,117.935 c 0,0 -46.035,-13.26 -50.14,-21.03 -4.102,-7.77 -6.383,-29.71 10.937,-37.02 17.325,-7.31 51.512,9.14 64.731,23.77 13.214,14.62 21.874,39.31 16.864,43.88 -5.01,4.57 -42.392,-9.6 -42.392,-9.6 z m -35.097,0.46 c 0,0 -20.512,0 -19.598,20.11 0.91,20.11 5.473,35.2 20.965,35.65 15.5,0.46 42.391,10.52 55.156,14.63 12.766,4.11 27.806,12.34 25.526,-4.11 -2.28,-16.46 -23.702,-46.17 -36.467,-53.03 -12.762,-6.86 -45.582,-13.25 -45.582,-13.25"
         style="fill:#d07721;fill-opacity:1;fill-rule:evenodd;stroke:none"
         id="path90" /><path
         d="m 1300.62,964.527 h -260 c 0,0 -0.52,11.899 0,18.11 0.51,6.207 0.51,6.722 0.51,6.722 0,0 -3.09,17.591 -1.54,26.901 1.54,9.31 5.15,14.49 5.15,14.49 0,0 -6.19,8.27 1.03,19.66 7.23,11.38 9.8,17.07 9.8,17.07 0,0 -1.54,12.41 2.07,18.62 3.61,6.21 5.16,10.35 5.16,10.35 0,0 0.52,9.32 3.61,17.59 3.1,8.28 10.84,16.55 10.84,16.55 0,0 -1.04,12.93 3.09,19.14 4.12,6.21 11.86,13.46 11.86,13.46 0,0 0.01,13.45 5.68,22.24 5.67,8.8 13.41,14.49 13.41,14.49 0,0 7.74,16.03 13.93,20.69 6.19,4.66 19.6,15.52 41.79,13.97 22.18,-1.55 38.69,-13.45 45.39,-22.24 6.71,-8.8 8.26,-12.94 8.26,-12.94 0,0 15.99,-7.76 18.05,-15 2.07,-7.24 2.58,-19.66 2.58,-19.66 0,0 13.41,-4.66 14.96,-13.97 1.55,-9.31 3.61,-25.35 3.61,-25.35 0,0 12.39,-2.58 12.9,-14.49 0.52,-11.89 1.03,-25.34 1.03,-25.34 0,0 8.26,-5.18 8.26,-14.49 0,-9.31 0.51,-13.45 0.51,-13.45 0,0 9.29,-6.72 9.29,-15.52 0,-8.79 0,-20.69 0,-20.69 0,0 5.67,-4.14 8.25,-17.6 2.58,-13.442 0.52,-39.313 0.52,-39.313"
         style="fill:#f4e5a6;fill-opacity:1;fill-rule:evenodd;stroke:none"
         id="path92" /><path
         d="m 1300.62,960.051 h -264.15 l -0.31,4.144 c 0,0.032 -0.54,12.364 0,18.809 0.34,4.207 0.44,5.629 0.47,6.113 -0.45,2.723 -2.99,18.613 -1.45,27.863 1.08,6.49 3.1,11.23 4.45,13.86 -1.81,4.1 -3.79,12.26 2.37,21.96 5.36,8.45 8.03,13.52 9.01,15.48 -0.31,3.77 -0.74,14.03 2.77,20.06 2.63,4.52 4.08,7.83 4.62,9.14 0.18,2.31 1,10.54 3.83,18.11 2.56,6.85 7.93,13.62 10.46,16.59 -0.12,4.16 0.04,14.17 3.93,20.02 3.28,4.94 8.63,10.43 11.18,12.94 0.24,4.33 1.34,14.98 6.32,22.7 4.84,7.51 11.16,12.98 13.63,14.97 1.8,3.58 8.67,16.75 14.79,21.36 l -0.01,0.01 0.72,0.55 c 6.92,5.23 21.04,15.92 44.05,14.31 l 0.22,-0.02 h 0.02 c 3.26,-0.23 6.45,-0.69 9.52,-1.33 3.09,-0.64 6.02,-1.45 8.76,-2.38 14.29,-4.85 24.91,-13.41 30.13,-20.26 4.7,-6.16 7.04,-10.3 8.1,-12.39 4.25,-2.25 16.8,-9.41 18.97,-17.03 1.59,-5.6 2.3,-13.74 2.57,-17.9 4.71,-2.23 13.62,-7.53 15.07,-16.23 1.15,-6.95 2.59,-17.64 3.27,-22.72 4.63,-1.86 12.82,-6.66 13.29,-17.65 0.39,-9.05 0.78,-19.08 0.95,-23.26 2.96,-2.5 8.35,-8.21 8.35,-16.77 0,-5.83 0.18,-9.41 0.3,-11.19 3.01,-2.62 9.5,-9.24 9.5,-17.78 v -18.85 c 2.23,-2.48 6.16,-8.12 8.17,-18.6 2.7,-14.059 0.59,-40.375 0.59,-40.446 l -0.29,-4.183 z m -255.16,26.91 h 251.47 c -0.05,5.797 -0.38,11.652 -1.22,16.039 -2.26,11.82 -6.7,15 -6.71,15.01 l -1.63,1.36 v 2.07 4.18 h -240.34 c -1,-2.13 -2.28,-5.51 -3.04,-10.08 -1.41,-8.48 1.56,-25.485 1.56,-25.532 l 0.06,-0.356 v -0.289 c 0,-0.004 0.01,-0.308 -0.15,-2.402 z m 251.39,-8.426 H 1044.9 c -0.08,-3.187 -0.04,-6.812 0.03,-9.531 h 251.5 c 0.15,2.453 0.32,5.801 0.42,9.531 z m -248.92,55.515 h 239.44 v 8.08 c 0,6.48 -7.57,12.02 -7.59,12.04 l -1.3,1.04 -0.31,1.56 c 0,0.01 -0.13,1.04 -0.27,3.15 h -221.22 c -1.61,-2.9 -3.94,-6.89 -7.13,-11.91 -4.55,-7.17 -2.51,-12.32 -1.62,-13.96 z m 12.04,34.3 h 217.62 c -0.01,0.86 -0.02,1.79 -0.02,2.75 0,6.83 -6.25,10.75 -6.26,10.76 l -1.83,1.22 -0.14,2.21 -0.14,3.55 h -204.97 c -0.74,-1.45 -1.65,-3.13 -2.73,-4.98 -2.61,-4.5 -1.71,-13.87 -1.53,-15.51 z m 7.37,28.92 h 201.53 c -0.17,4.15 -0.37,8.92 -0.57,13.48 -0.36,8.41 -9.34,10.3 -9.36,10.3 l -3.16,0.68 -0.35,3.2 -0.02,0.13 h -177.04 c -2.3,-2.8 -5.96,-7.71 -7.78,-12.58 -2.21,-5.91 -3,-12.52 -3.25,-15.21 z m 14.27,36.22 h 172.68 c -0.72,5.21 -1.65,11.76 -2.45,16.55 -0.67,4.07 -4.89,7.04 -8.13,8.76 H 1094.1 c -2.17,-2.13 -7.11,-7.12 -10.04,-11.53 -2.28,-3.44 -2.51,-10.1 -2.45,-13.78 z m 15.32,33.74 h 139.75 c -0.27,3.97 -0.94,11.27 -2.27,15.95 -1.51,5.28 -15.71,12.21 -15.75,12.23 l -1.52,0.77 -0.12,0.28 h -102.84 l -0.41,-0.27 c -0.01,-0.01 -6.93,-5.11 -12.13,-13.17 -3.15,-4.89 -4.3,-11.57 -4.71,-15.79 z m 22.05,37.66 h 93.32 c -0.94,1.36 -2.08,2.94 -3.45,4.73 -4.39,5.76 -13.47,13.01 -25.9,17.23 -2.47,0.84 -5.03,1.55 -7.67,2.1 -2.65,0.54 -5.44,0.94 -8.37,1.16 l -0.2,0.01 c -19.69,1.38 -32.03,-7.96 -38.07,-12.53 l -0.73,-0.55 h -0.01 c -2.88,-2.16 -6.35,-7.61 -8.92,-12.15"
         style="fill:#231f20;fill-opacity:1;fill-rule:nonzero;stroke:none"
         id="path94" /><path
         d="m 1139.64,1030.71 h 54.62 v -46.503 h -54.62 v 46.503"
         style="fill:#231f20;fill-opacity:1;fill-rule:evenodd;stroke:none"
         id="path96" /><path
         d="m 1146.3,824.156 c 0,0 40.39,36.418 31.8,48.696 -8.6,12.273 -32.03,4.109 -44.31,-1.414 -12.27,-5.524 -20.76,-9.637 -20.76,-9.637 0,0 -4.3,4.91 -7.98,11.051 -3.69,6.136 -17.55,23.093 -16.44,24.121 l -3.36,-3.118 3.32,-23.078 -21.43,5.25 -3.83,-2.023 17.19,-15.274 c 0,0 3.89,-5.449 2.67,-10.972 -1.23,-5.524 -18.63,-20.945 -24.16,-27.086 -5.52,-6.137 -12.28,-30.692 9.82,-30.692 22.1,0 44.81,10.438 44.81,10.438 0,0 9.82,-2.457 18.42,-6.754 8.59,-4.297 18.14,-1.027 19.37,9.406 1.22,10.438 -5.13,21.086 -5.13,21.086"
         style="fill:#231f20;fill-opacity:1;fill-rule:evenodd;stroke:none"
         id="path98" /><path
         d="m 1131.11,825.039 c -9.17,12.871 -21.7,29.902 -25.79,32.738 -6.7,4.668 -20.11,2.043 -7.28,-16.91 12.82,-18.949 23.32,-30.906 31.19,-34.695 21.29,-10.25 4.18,15.652 1.88,18.867"
         style="fill:#fff200;fill-opacity:1;fill-rule:evenodd;stroke:none"
         id="path100" /><g
         id="g102"
         transform="rotate(-90)"><path
           d="m -825.039,1131.11 c -12.871,-9.17 -29.902,-21.7 -32.738,-25.79 -4.668,-6.7 -2.043,-20.11 16.91,-7.28 18.949,12.82 30.906,23.32 34.695,31.19 10.25,21.29 -15.652,4.18 -18.867,1.88 z"
           style="fill:none;stroke:#231f20;stroke-width:0.782646;stroke-linecap:butt;stroke-linejoin:miter;stroke-miterlimit:2.6131;stroke-dasharray:none;stroke-opacity:1"
           id="path104" /></g><path
         d="m 1131.11,825.039 -2.48,3.465 c -4.47,-2.645 -10.52,-5.453 -15.7,-7.695 1.39,-1.661 2.75,-3.196 4.06,-4.602 2.26,0.328 4.55,0.875 6.72,1.746 3.48,1.395 6.34,3.402 8.56,5.383 -0.51,0.781 -0.91,1.363 -1.16,1.703"
         style="fill:#231f20;fill-opacity:1;fill-rule:evenodd;stroke:none"
         id="path106" /><g
         id="g108"
         transform="rotate(-90)"><path
           d="m -825.039,1131.11 -3.465,-2.48 c 2.645,-4.47 5.453,-10.52 7.696,-15.7 1.66,1.39 3.195,2.75 4.601,4.06 -0.328,2.26 -0.875,4.55 -1.746,6.72 -1.395,3.48 -3.402,6.34 -5.383,8.56 -0.781,-0.51 -1.363,-0.91 -1.703,-1.16 z"
           style="fill:none;stroke:#231f20;stroke-width:0.782646;stroke-linecap:butt;stroke-linejoin:miter;stroke-miterlimit:2.6131;stroke-dasharray:none;stroke-opacity:1"
           id="path110" /></g><path
         d="m 1116.43,845.012 c -1.2,1.57 -2.37,3.058 -3.47,4.433 -4.41,-2.625 -10.58,-5.457 -15.57,-7.59 l 0.65,-0.988 1.98,-2.906 c 2.73,0.227 5.62,0.762 8.28,1.832 3.36,1.34 6.07,3.312 8.13,5.219"
         style="fill:#231f20;fill-opacity:1;fill-rule:evenodd;stroke:none"
         id="path112" /><g
         id="g114"
         transform="rotate(-90)"><path
           d="m -845.012,1116.43 c -1.57,-1.2 -3.058,-2.37 -4.433,-3.47 2.625,-4.41 5.457,-10.58 7.59,-15.57 l 0.988,0.65 2.906,1.98 c -0.226,2.73 -0.762,5.62 -1.832,8.28 -1.34,3.36 -3.312,6.07 -5.219,8.13 z"
           style="fill:none;stroke:#231f20;stroke-width:0.782646;stroke-linecap:butt;stroke-linejoin:miter;stroke-miterlimit:2.6131;stroke-dasharray:none;stroke-opacity:1"
           id="path116" /></g><path
         d="m 1148.27,842.09 -9.54,14.59 c 0,0 19.57,14.593 27.1,9.058 7.52,-5.535 -17.56,-23.898 -17.56,-23.648"
         style="fill:#ffffff;fill-opacity:1;fill-rule:evenodd;stroke:none"
         id="path118" /><g
         id="g120"
         transform="rotate(-90)"><path
           d="m -842.09,1148.27 -14.59,-9.54 c 0,0 -14.593,19.57 -9.058,27.1 5.535,7.52 23.898,-17.56 23.648,-17.56 z"
           style="fill:none;stroke:#231f20;stroke-width:0.782646;stroke-linecap:butt;stroke-linejoin:miter;stroke-miterlimit:2.6131;stroke-dasharray:none;stroke-opacity:1"
           id="path122" /></g><path
         d="m 1086.96,824.977 9.54,-14.59 c 0,0 -19.58,-14.59 -27.1,-9.055 -7.53,5.531 17.56,23.902 17.56,23.645"
         style="fill:#ffffff;fill-opacity:1;fill-rule:evenodd;stroke:none"
         id="path124" /><g
         id="g126"
         transform="rotate(90)"><path
           d="m 824.976,-1086.96 -14.589,-9.54 c 0,0 -14.59,19.58 -9.055,27.1 5.531,7.53 23.902,-17.56 23.644,-17.56 z"
           style="fill:none;stroke:#231f20;stroke-width:0.782646;stroke-linecap:butt;stroke-linejoin:miter;stroke-miterlimit:2.6131;stroke-dasharray:none;stroke-opacity:1"
           id="path128" /></g><path
         d="m 1258.31,714.008 c 0,0 54.17,4.902 54.65,19.875 0.49,14.976 -23.15,22.508 -36.29,25.453 -13.13,2.945 -22.39,4.75 -22.39,4.75 0,0 -0.49,6.504 0.25,13.625 0.73,7.121 -0.18,29.004 1.32,29.164 l -4.56,-0.477 -11.19,-20.457 -13.99,17.059 -4.29,0.68 4.59,-22.532 c 0,0 -0.15,-6.699 -4.45,-10.378 -4.29,-3.684 -27.46,-5.582 -35.57,-7.18 -8.1,-1.594 -28.24,-17.184 -10.56,-30.442 17.68,-13.261 42.11,-18.539 42.11,-18.539 0,0 6.38,-7.859 10.69,-16.449 4.29,-8.594 13.89,-11.707 21.13,-4.097 7.24,7.613 8.55,19.945 8.55,19.945"
         style="fill:#231f20;fill-opacity:1;fill-rule:evenodd;stroke:none"
         id="path130" /><path
         d="m 1246.69,723.828 c 0.39,15.797 0.58,36.942 -0.99,41.664 -2.56,7.754 -14.86,13.699 -15.97,-9.156 -1.11,-22.859 0.11,-38.723 4.14,-46.477 10.88,-20.972 12.72,10.02 12.82,13.969"
         style="fill:#fff200;fill-opacity:1;fill-rule:evenodd;stroke:none"
         id="path132" /><g
         id="g134"
         transform="matrix(0.885301,0.114699,-0.114699,0.885301,0,0)"><path
           d="m 1489.14,624.674 c 2.71,17.494 5.96,40.956 4.9,46.428 -1.73,8.982 -14.54,17.358 -19.06,-7.873 -4.52,-25.235 -5.45,-43.034 -2.09,-52.227 9.07,-24.865 15.58,9.299 16.25,13.672 z"
           style="fill:none;stroke:#231f20;stroke-width:0.876717;stroke-linecap:butt;stroke-linejoin:miter;stroke-miterlimit:2.6131;stroke-dasharray:none;stroke-opacity:1"
           id="path136" /></g><path
         d="m 1246.69,723.828 0.1,4.258 c -5.17,0.57 -11.69,1.953 -17.18,3.266 0.12,-2.161 0.28,-4.207 0.48,-6.118 2.01,-1.093 4.18,-2.035 6.43,-2.636 3.62,-0.969 7.11,-1.082 10.07,-0.825 0.07,0.926 0.09,1.637 0.1,2.055"
         style="fill:#231f20;fill-opacity:1;fill-rule:evenodd;stroke:none"
         id="path138" /><g
         id="g140"
         transform="matrix(0.885301,0.114699,-0.114699,0.885301,0,0)"><path
           d="m 1489.14,624.674 0.73,4.716 c -5.67,1.378 -12.71,3.853 -18.62,6.101 -0.18,-2.417 -0.3,-4.714 -0.34,-6.866 2.07,-1.504 4.34,-2.861 6.76,-3.854 3.88,-1.596 7.74,-2.225 11.07,-2.365 0.2,1.019 0.34,1.805 0.4,2.268 z"
           style="fill:none;stroke:#231f20;stroke-width:0.876717;stroke-linecap:butt;stroke-linejoin:miter;stroke-miterlimit:2.6131;stroke-dasharray:none;stroke-opacity:1"
           id="path142" /></g><path
         d="m 1246.93,748.609 c -0.02,1.981 -0.06,3.871 -0.12,5.637 -5.1,0.539 -11.74,1.984 -17.01,3.27 l -0.07,-1.18 -0.16,-3.523 c 2.32,-1.45 4.95,-2.758 7.73,-3.504 3.49,-0.934 6.84,-0.989 9.63,-0.7"
         style="fill:#231f20;fill-opacity:1;fill-rule:evenodd;stroke:none"
         id="path144" /><g
         id="g146"
         transform="matrix(0.885301,0.114699,-0.114699,0.885301,0,0)"><path
           d="m 1492.98,652.169 c 0.25,2.204 0.49,4.31 0.67,6.28 -5.58,1.332 -12.75,3.894 -18.42,6.08 l -0.25,-1.3 -0.68,-3.892 c 2.37,-1.943 5.1,-3.776 8.08,-5.004 3.74,-1.539 7.46,-2.083 10.6,-2.164 z"
           style="fill:none;stroke:#231f20;stroke-width:0.876717;stroke-linecap:butt;stroke-linejoin:miter;stroke-miterlimit:2.6131;stroke-dasharray:none;stroke-opacity:1"
           id="path148" /></g><path
         d="m 1270.65,727.176 1.12,17.39 c 0,0 24.42,-0.07 27.12,-9.011 2.7,-8.942 -28.4,-8.582 -28.24,-8.379"
         style="fill:#ffffff;fill-opacity:1;fill-rule:evenodd;stroke:none"
         id="path150" /><g
         id="g152"
         transform="matrix(0.885301,0.114699,-0.114699,0.885301,0,0)"><path
           d="m 1516.24,624.945 3.75,19.158 c 0,0 27.11,-3.592 28.83,-13.914 1.71,-10.321 -32.78,-5.447 -32.58,-5.244 z"
           style="fill:none;stroke:#231f20;stroke-width:0.876717;stroke-linecap:butt;stroke-linejoin:miter;stroke-miterlimit:2.6131;stroke-dasharray:none;stroke-opacity:1"
           id="path154" /></g><path
         d="m 1211.34,750.27 -1.13,-17.395 c 0,0 -24.42,0.07 -27.11,9.016 -2.7,8.937 28.39,8.582 28.24,8.379"
         style="fill:#ffffff;fill-opacity:1;fill-rule:evenodd;stroke:none"
         id="path156" /><g
         id="g158"
         transform="matrix(-0.885301,-0.114699,0.114699,-0.885301,0,0)"><path
           d="m -1453.67,-659.137 3.75,19.161 c 0,0 27.12,-3.592 28.82,-13.917 1.72,-10.317 -32.77,-5.448 -32.57,-5.244 z"
           style="fill:none;stroke:#231f20;stroke-width:0.876717;stroke-linecap:butt;stroke-linejoin:miter;stroke-miterlimit:2.6131;stroke-dasharray:none;stroke-opacity:1"
           id="path160" /></g><path
         d="m 1108.1,597.707 c 0,0 41.06,-35.664 52.19,-25.641 11.14,10.02 0.2,32.289 -6.78,43.805 -6.97,11.508 -12.09,19.434 -12.09,19.434 0,0 4.35,4.863 10,9.265 5.65,4.403 20.79,20.223 21.95,19.246 l -3.51,2.961 -22.5,-6.097 2.61,21.898 -2.48,3.567 -13.07,-18.918 c 0,0 -4.93,-4.532 -10.56,-3.985 -5.64,0.547 -23.06,15.949 -29.82,20.684 -6.77,4.738 -31.96,8.461 -29.27,-13.477 2.68,-21.933 15.8,-43.211 15.8,-43.211 0,0 -1.25,-10.047 -4.47,-19.097 -3.22,-9.055 1.19,-18.133 11.69,-18.082 10.51,0.05 20.31,7.648 20.31,7.648"
         style="fill:#231f20;fill-opacity:1;fill-rule:evenodd;stroke:none"
         id="path162" /><path
         d="m 1107.13,612.891 c 11.66,10.668 27.04,25.175 29.37,29.574 3.81,7.219 -0.43,20.219 -17.68,5.18 -17.25,-15.036 -27.84,-26.907 -30.64,-35.184 -7.59,-22.375 16.03,-2.234 18.95,0.43"
         style="fill:#fff200;fill-opacity:1;fill-rule:evenodd;stroke:none"
         id="path164" /><g
         id="g166"
         transform="matrix(-0.888734,-0.111266,0.111266,-0.888734,0,0)"><path
           d="m -1311.52,-525.425 c -14.4,-10.201 -33.45,-24.14 -36.63,-28.69 -5.23,-7.469 -2.34,-22.458 18.85,-8.189 21.2,14.263 34.58,25.945 38.84,34.726 11.51,23.735 -17.46,4.7 -21.06,2.153 z"
           style="fill:none;stroke:#231f20;stroke-width:0.873809;stroke-linecap:butt;stroke-linejoin:miter;stroke-miterlimit:2.6131;stroke-dasharray:none;stroke-opacity:1"
           id="path168" /></g><path
         d="m 1107.13,612.891 3.14,2.882 c -3.17,4.125 -6.69,9.782 -9.55,14.653 -1.47,-1.586 -2.84,-3.117 -4.07,-4.59 0.6,-2.207 1.42,-4.418 2.55,-6.461 1.8,-3.277 4.15,-5.875 6.38,-7.836 0.71,0.598 1.24,1.07 1.55,1.352"
         style="fill:#231f20;fill-opacity:1;fill-rule:evenodd;stroke:none"
         id="path170" /><g
         id="g172"
         transform="matrix(-0.888734,-0.111266,0.111266,-0.888734,0,0)"><path
           d="m -1311.52,-525.425 -3.88,-2.758 c 2.94,-5.01 6.06,-11.764 8.55,-17.557 1.85,1.553 3.58,3.06 5.15,4.52 -0.36,2.529 -0.97,5.092 -1.93,7.511 -1.55,3.882 -3.78,7.084 -5.99,9.567 -0.87,-0.564 -1.52,-1.014 -1.9,-1.283 z"
           style="fill:none;stroke:#231f20;stroke-width:0.873809;stroke-linecap:butt;stroke-linejoin:miter;stroke-miterlimit:2.6131;stroke-dasharray:none;stroke-opacity:1"
           id="path174" /></g><path
         d="m 1125.17,629.887 c 1.42,1.39 2.75,2.722 3.98,3.992 -3.14,4.051 -6.7,9.84 -9.42,14.531 l -0.91,-0.765 -2.64,-2.325 c 0.55,-2.679 1.44,-5.484 2.82,-8 1.74,-3.16 4.03,-5.621 6.17,-7.433"
         style="fill:#231f20;fill-opacity:1;fill-rule:evenodd;stroke:none"
         id="path176" /><g
         id="g178"
         transform="matrix(-0.888734,-0.111266,0.111266,-0.888734,0,0)"><path
           d="m -1333.86,-541.751 c -1.76,-1.345 -3.42,-2.636 -4.97,-3.871 2.92,-4.924 6.06,-11.831 8.43,-17.406 l 1.1,0.724 3.26,2.208 c -0.25,3.045 -0.83,6.275 -2.02,9.254 -1.49,3.742 -3.68,6.786 -5.8,9.091 z"
           style="fill:none;stroke:#231f20;stroke-width:0.873809;stroke-linecap:butt;stroke-linejoin:miter;stroke-miterlimit:2.6131;stroke-dasharray:none;stroke-opacity:1"
           id="path180" /></g><path
         d="m 1126.14,597.934 13.32,11.238 c 0,0 16.86,-17.656 12.29,-25.797 -4.58,-8.141 -25.86,14.531 -25.61,14.559"
         style="fill:#ffffff;fill-opacity:1;fill-rule:evenodd;stroke:none"
         id="path182" /><g
         id="g184"
         transform="matrix(-0.888734,-0.111266,0.111266,-0.888734,0,0)"><path
           d="m -1330.51,-506.218 -16.32,-10.602 c 0,0 -16.22,21.898 -10.02,30.281 6.2,8.384 26.63,-19.684 26.34,-19.679 z"
           style="fill:none;stroke:#231f20;stroke-width:0.873809;stroke-linecap:butt;stroke-linejoin:miter;stroke-miterlimit:2.6131;stroke-dasharray:none;stroke-opacity:1"
           id="path186" /></g><path
         d="m 1101.71,656.707 -13.33,-11.234 c 0,0 -16.86,17.652 -12.28,25.793 4.58,8.14 25.86,-14.528 25.61,-14.559"
         style="fill:#ffffff;fill-opacity:1;fill-rule:evenodd;stroke:none"
         id="path188" /><g
         id="g190"
         transform="matrix(0.888734,0.111266,-0.111266,0.888734,0,0)"><path
           d="m 1311.59,574.718 -16.32,-10.597 c 0,0 -16.23,21.894 -10.03,30.278 6.2,8.383 26.63,-19.681 26.35,-19.681 z"
           style="fill:none;stroke:#231f20;stroke-width:0.873809;stroke-linecap:butt;stroke-linejoin:miter;stroke-miterlimit:2.6131;stroke-dasharray:none;stroke-opacity:1"
           id="path192" /></g><path
         d="m 700.789,1020.13 c 0,0 -16.375,-2.98 1.488,14.14 17.864,17.11 49.121,37.21 64.754,43.91 15.629,6.7 36.469,-4.47 34.235,-17.86 -2.235,-13.4 -1.489,-26.05 -7.442,-31.27 -5.953,-5.2 -37.215,-31.999 -37.215,-31.999 0,0 29.774,21.589 37.215,23.079 7.442,1.48 18.606,-7.45 18.606,-7.45 0,0 -2.977,11.91 5.957,23.82 8.929,11.91 26.793,33.49 32,37.96 5.211,4.46 14.144,11.16 11.168,14.88 -2.977,3.73 -5.957,4.47 -11.91,8.19 -5.954,3.72 -2.977,10.42 -13.395,5.95 -10.422,-4.46 -32.75,-9.67 -40.195,-11.16 -7.442,-1.49 -40.934,-7.44 -49.121,-10.42 -8.184,-2.98 -46.891,-36.47 -52.098,-43.17 -5.211,-6.69 -11.164,-17.86 -5.953,-26.05 5.207,-8.18 17.113,-8.18 31.258,3.73 14.14,11.9 27.535,23.81 32.746,25.3 5.211,1.49 2.98,-9.67 -8.93,-18.61 -11.91,-8.93 -34.238,-26.049 -28.281,-28.28 5.953,-2.23 30.512,10.42 39.445,17.12 8.934,6.7 32.75,29.02 35.727,42.42 2.976,13.4 -10.422,22.33 -33.493,10.42 -23.074,-11.91 -44.656,-37.96 -49.867,-40.93 -5.211,-2.98 -6.699,-3.72 -6.699,-3.72 z m 42.274,66.5 c 0,0 -25.723,11.46 -33.817,15.76 -8.098,4.3 -12.387,7.16 -19.051,5.25 -6.668,-1.91 -17.617,-17.19 -18.097,-20.06 -0.481,-2.86 10,-6.2 12.382,-12.42 2.379,-6.21 7.618,-8.12 11.907,-9.07 4.285,-0.95 14.289,-3.82 14.289,-3.82 l 32.387,24.36"
         style="fill:#6ec72e;fill-opacity:1;fill-rule:evenodd;stroke:none"
         id="path194" /><g
         id="g196"><path
           d="m 622.676,940.289 h 62.203 v -14.086 -17.957 l -15.551,-8.977 -15.551,-8.98 -15.55,8.98 -15.551,8.977 v 17.957 z m 83.582,0 h 62.203 v -14.086 -17.957 l -15.551,-8.977 -15.55,-8.98 -15.551,8.98 -15.551,8.977 v 17.957 z m 83.586,0 h 62.199 v -14.086 -17.957 l -15.551,-8.977 -15.547,-8.98 -15.55,8.98 -15.551,8.977 v 17.957 z m 83.586,0 h 48.683 c -0.664,-3.727 -1.105,-7.672 -1.105,-11.578 0,-15.641 4.977,-25.594 4.977,-25.594 l -0.059,-0.476 -5.848,-3.372 -15.55,-8.98 -15.551,8.98 -15.547,8.977 v 17.957 z m 57.398,-125.09 c 2.274,-7.016 5.114,-10.207 5.114,-10.207 0,0 -4.981,-18.484 -4.266,-30.574 0.133,-2.317 0.422,-4.473 0.805,-6.449 l -6.571,-3.797 -15.55,-8.977 -15.551,8.977 -15.551,8.976 v 17.957 17.961 l 15.551,8.977 15.551,8.976 15.55,-8.976 z m 6.375,-61.324 c -0.679,-2.879 -3.394,-14.84 -3.394,-23.539 0,-9.953 9.953,-18.488 9.953,-18.488 0,0 -5.684,-6.391 -5.688,-22.016 l -9.246,5.336 -15.55,8.976 v 17.957 17.961 l 15.55,8.977 z m 2.223,-77.758 c 0.777,-2.98 1.672,-4.223 2.035,-4.625 v -1.676 c -0.375,-3.625 -1.254,-13.285 -1.254,-23.382 0,-2.715 0.348,-5.266 0.903,-7.61 l -15.2,-8.777 -15.55,-8.977 -15.551,8.977 -15.551,8.98 v 17.957 17.957 l 15.551,8.977 15.551,8.98 15.55,-8.98 z m 8.441,-53.266 c -0.476,-4.914 -1.855,-20.144 -1.261,-25.476 0.714,-6.402 2.843,-10.668 2.843,-10.668 0,0 -0.711,-11.375 -2.129,-24.176 -0.257,-2.324 -0.48,-5.121 -0.652,-8.172 l -2.289,-1.324 -15.551,8.981 -15.55,8.976 v 17.957 17.957 l 15.55,8.977 15.551,8.98 z M 602.633,560.684 v 56.535 l 13.238,7.644 15.551,-8.98 15.551,-8.977 v -17.957 -17.957 l -15.551,-8.976 -15.551,-8.981 z m 0,133.152 v 56.535 l 13.238,7.645 15.551,-8.977 15.551,-8.977 v -17.961 -17.957 l -15.551,-8.976 -15.551,-8.977 z m 0,135.094 v 56.535 l 13.238,7.644 15.551,-8.976 15.551,-8.977 v -17.961 -17.957 l -15.551,-8.976 -15.551,-8.977 z m 96.82,64.179 15.551,-8.976 15.551,-8.977 v -17.961 -17.957 l -15.551,-8.976 -15.551,-8.977 -15.551,8.977 -15.55,8.976 v 17.957 17.961 l 15.55,8.977 z m 83.582,0 15.551,-8.976 15.551,-8.977 v -17.961 -17.957 l -15.551,-8.976 -15.551,-8.977 -15.547,8.977 -15.55,8.976 v 17.957 17.961 l 15.55,8.977 z m 83.586,0 15.551,-8.976 15.551,-8.977 v -17.961 -17.957 l -15.551,-8.976 -15.551,-8.977 -15.551,8.977 -15.55,8.976 v 17.957 17.961 l 15.55,8.977 z m -123.429,-66.09 15.55,-8.976 15.551,-8.977 v -17.961 -17.957 l -15.551,-8.976 -15.55,-8.977 -15.551,8.977 -15.551,8.976 v 17.957 17.961 l 15.551,8.977 z m 83.585,0 15.551,-8.976 15.551,-8.977 v -17.961 -17.957 l -15.551,-8.976 -15.551,-8.977 -15.55,8.977 -15.555,8.976 v 17.957 17.961 l 15.555,8.977 z m -167.168,0 15.551,-8.976 15.551,-8.977 v -17.961 -17.957 l -15.551,-8.976 -15.551,-8.977 -15.55,8.977 -15.551,8.976 v 17.957 17.961 l 15.551,8.977 z m 39.844,-69.003 15.551,-8.977 15.551,-8.977 v -17.961 -17.957 l -15.551,-8.976 -15.551,-8.977 -15.551,8.977 -15.55,8.976 v 17.957 17.961 l 15.55,8.977 z m 83.582,0 15.551,-8.977 15.551,-8.977 v -17.961 -17.957 l -15.551,-8.976 -15.551,-8.977 -15.547,8.977 -15.55,8.976 v 17.957 17.961 l 15.55,8.977 z m 83.586,0 15.551,-8.977 15.551,-8.977 v -17.961 -17.957 l -15.551,-8.976 -15.551,-8.977 -15.551,8.977 -15.55,8.976 v 17.957 17.961 l 15.55,8.977 z m -167.168,-133.153 15.551,-8.98 15.551,-8.977 v -17.957 -17.957 l -15.551,-8.976 -15.551,-8.981 -15.551,8.981 -15.55,8.976 v 17.957 17.957 l 15.55,8.977 z m 83.582,0 15.551,-8.98 15.551,-8.977 v -17.957 -17.957 l -15.551,-8.976 -15.551,-8.981 -15.547,8.981 -15.55,8.976 v 17.957 17.957 l 15.55,8.977 z m 83.586,0 15.551,-8.98 15.551,-8.977 v -17.957 -17.957 l -15.551,-8.976 -15.551,-8.981 -15.551,8.981 -15.55,8.976 v 17.957 17.957 l 15.55,8.977 z m -123.429,68.035 15.55,-8.98 15.551,-8.977 v -17.957 -17.957 l -15.551,-8.98 -15.55,-8.977 -15.551,8.977 -15.551,8.98 v 17.957 17.957 l 15.551,8.977 z m 83.585,0 15.551,-8.98 15.551,-8.977 v -17.957 -17.957 l -15.551,-8.98 -15.551,-8.977 -15.55,8.977 -15.555,8.98 v 17.957 17.957 l 15.555,8.977 z m -167.168,0 15.551,-8.98 15.551,-8.977 v -17.957 -17.957 l -15.551,-8.98 -15.551,-8.977 -15.55,8.977 -15.551,8.98 v 17.957 17.957 l 15.551,8.977 z"
           style="fill:none;stroke:#231f20;stroke-width:8.95188;stroke-linecap:butt;stroke-linejoin:miter;stroke-miterlimit:2.6131;stroke-dasharray:none;stroke-opacity:1"
           id="path198" /></g><path
         d="m 622.676,940.289 h 62.203 v -32.043 l -15.551,-8.976 -15.551,-8.981 -15.55,8.981 -15.551,8.976 v 17.957 z m 83.582,0 h 62.203 v -32.043 l -15.551,-8.976 -15.551,-8.981 -15.55,8.981 -15.551,8.976 v 17.957 z m 83.586,0 h 62.199 v -32.043 l -15.551,-8.976 -15.547,-8.981 -15.55,8.981 -15.551,8.976 v 17.957 z m 83.586,0 h 48.683 c -0.664,-3.726 -1.105,-7.672 -1.105,-11.578 0,-15.641 4.976,-25.594 4.976,-25.594 l -0.058,-0.476 -5.848,-3.371 -15.551,-8.981 -15.55,8.981 -15.547,8.976 v 17.957 z m 57.398,-125.09 c 2.274,-7.015 5.113,-10.207 5.113,-10.207 0,0 -4.98,-18.484 -4.265,-30.574 0.133,-2.316 0.422,-4.473 0.804,-6.449 l -6.57,-3.797 -15.551,-8.977 -15.55,8.977 -15.551,8.976 v 17.957 17.961 l 15.551,8.977 15.55,8.977 15.551,-8.977 z m 6.375,-61.324 c -0.68,-2.879 -3.394,-14.84 -3.394,-23.539 0,-9.953 9.953,-18.488 9.953,-18.488 0,0 -5.684,-6.391 -5.688,-22.016 l -9.246,5.336 -15.551,8.977 v 17.957 17.961 l 15.551,8.976 z m 2.223,-77.758 c 0.777,-2.98 1.672,-4.222 2.035,-4.625 v -1.676 c -0.375,-3.625 -1.254,-13.285 -1.254,-23.382 0,-2.715 0.348,-5.266 0.902,-7.61 l -15.199,-8.777 -15.551,-8.977 -15.55,8.977 -15.551,8.98 v 17.957 17.957 l 15.551,8.977 15.55,8.98 15.551,-8.98 z m 8.441,-53.265 c -0.476,-4.914 -1.855,-20.145 -1.262,-25.477 0.715,-6.402 2.844,-10.668 2.844,-10.668 0,0 -0.711,-11.375 -2.129,-24.176 -0.257,-2.324 -0.48,-5.121 -0.652,-8.172 l -2.289,-1.324 -15.551,8.981 -15.551,8.976 v 17.957 17.957 l 15.551,8.977 15.551,8.98 z M 602.633,560.684 v 56.535 l 13.238,7.644 15.551,-8.98 15.551,-8.977 v -17.957 -17.957 l -15.551,-8.976 -15.551,-8.981 z m 0,133.152 v 56.535 l 13.238,7.645 15.551,-8.977 15.551,-8.976 v -17.961 -17.957 l -15.551,-8.977 -15.551,-8.977 z m 0,135.094 v 56.535 l 13.238,7.644 15.551,-8.976 15.551,-8.977 v -17.961 -17.957 l -15.551,-8.976 -15.551,-8.977 z m 96.82,64.179 15.551,-8.976 15.551,-8.977 v -35.918 l -15.551,-8.976 -15.551,-8.977 -15.551,8.977 -15.55,8.976 v 17.957 17.961 l 15.55,8.977 z m 83.582,0 15.551,-8.976 15.551,-8.977 v -35.918 l -15.551,-8.976 -15.551,-8.977 -15.547,8.977 -15.55,8.976 v 17.957 17.961 l 15.55,8.977 z m 83.586,0 15.551,-8.976 15.551,-8.977 v -35.918 l -15.551,-8.976 -15.551,-8.977 -15.551,8.977 -15.55,8.976 v 17.957 17.961 l 15.55,8.977 z m -123.43,-66.089 15.551,-8.977 15.551,-8.977 v -35.918 l -15.551,-8.976 -15.551,-8.977 -15.55,8.977 -15.551,8.976 v 17.957 17.961 l 15.551,8.977 z m 83.586,0 15.551,-8.977 15.551,-8.977 v -35.918 l -15.551,-8.976 -15.551,-8.977 -15.55,8.977 -15.555,8.976 v 17.957 17.961 l 15.555,8.977 z m -167.168,0 15.551,-8.977 15.551,-8.977 v -35.918 l -15.551,-8.976 -15.551,-8.977 -15.55,8.977 -15.551,8.976 v 17.957 17.961 l 15.551,8.977 z m 39.844,-69.004 15.551,-8.977 15.551,-8.976 v -35.918 l -15.551,-8.977 -15.551,-8.977 -15.551,8.977 -15.55,8.977 v 17.957 17.961 l 15.55,8.976 z m 83.582,0 15.551,-8.977 15.551,-8.976 v -35.918 l -15.551,-8.977 -15.551,-8.977 -15.547,8.977 -15.55,8.977 v 17.957 17.961 l 15.55,8.976 z m 83.586,0 15.551,-8.977 15.551,-8.976 v -35.918 l -15.551,-8.977 -15.551,-8.977 -15.551,8.977 -15.55,8.977 v 17.957 17.961 l 15.55,8.976 z m -167.168,-133.153 15.551,-8.98 15.551,-8.977 v -35.914 l -15.551,-8.976 -15.551,-8.981 -15.551,8.981 -15.55,8.976 v 17.957 17.957 l 15.55,8.977 z m 83.582,0 15.551,-8.98 15.551,-8.977 v -35.914 l -15.551,-8.976 -15.551,-8.981 -15.547,8.981 -15.55,8.976 v 17.957 17.957 l 15.55,8.977 z m 83.586,0 15.551,-8.98 15.551,-8.977 v -35.914 l -15.551,-8.976 -15.551,-8.981 -15.551,8.981 -15.55,8.976 v 17.957 17.957 l 15.55,8.977 z m -123.43,68.035 15.551,-8.98 15.551,-8.977 v -35.914 l -15.551,-8.98 -15.551,-8.977 -15.55,8.977 -15.551,8.98 v 17.957 17.957 l 15.551,8.977 z m 83.586,0 15.551,-8.98 15.551,-8.977 v -35.914 l -15.551,-8.98 -15.551,-8.977 -15.55,8.977 -15.555,8.98 v 17.957 17.957 l 15.555,8.977 z m -167.168,0 15.551,-8.98 15.551,-8.977 v -35.914 l -15.551,-8.98 -15.551,-8.977 -15.55,8.977 -15.551,8.98 v 17.957 17.957 l 15.551,8.977 15.55,8.98"
         style="fill:#f4f0aa;fill-opacity:1;fill-rule:evenodd;stroke:none"
         id="path200" /><g
         id="g202"><path
           d="m 1488.24,1353.2 c -1.16,-16.99 -0.32,-35.22 0.49,-53.27 0.51,-11.22 1.02,-22.39 1.02,-33.5 h 0.02 V 549.246 c 0,-45.371 -29.15,-87.348 -58.68,-119.949 -15.99,-17.645 -35.93,-35.36 -60.62,-51.074 -55.09,-35.071 -173.83,-72.215 -232.04,-85.821 -51.82,-12.113 -97.66,-15.609 -123.62,-24.75 l -0.05,-0.019 v 0.004 0 l -0.05,-0.02 -0.02,-0.008 c -5.31,-1.875 -10.27,-4.175 -14.838,-6.863 -4.621,-2.715 -8.805,-5.805 -12.512,-9.226 -6.543,-6.036 -11.687,-13.11 -15.273,-21.075 -3.579,9.442 -9.239,17.746 -16.75,24.68 -3.707,3.422 -7.895,6.512 -12.512,9.227 -4.57,2.687 -9.531,4.992 -14.84,6.863 l -0.02,0.012 -0.05,0.015 v 0 -0.004 l -0.051,0.02 c -25.957,9.14 -71.797,12.636 -123.625,24.754 -58.211,13.601 -176.942,50.746 -232.035,85.816 -24.688,15.715 -44.629,33.43 -60.614,51.074 -29.535,32.602 -58.679,74.582 -58.679,119.949 v 717.189 h 0.019 c 0,11.11 0.504,22.27 1.012,33.5 0.762,16.78 1.519,33.71 0.691,49.66 h 148.02 V 522.383 c 0,0 142.707,9.66 235.273,-19.266 62.067,-19.394 97.262,-34.449 113.711,-42.269 3.215,-7.317 12.668,-11.957 19.164,-10.657 6.52,1.301 13.645,3.813 15.879,17.926 35.99,19.145 107.12,52.356 167.52,52.356 84.85,0 175.49,-27.016 175.49,69.425 V 1353.2 Z"
           style="fill:none;stroke:#231f20;stroke-width:8.95188;stroke-linecap:butt;stroke-linejoin:miter;stroke-miterlimit:2.6131;stroke-dasharray:none;stroke-opacity:1"
           id="path204" /></g><path
         d="m 1488.24,1353.2 c -1.16,-16.99 -0.32,-35.22 0.49,-53.27 0.51,-11.22 1.02,-22.39 1.02,-33.5 h 0.02 V 549.246 c 0,-45.371 -29.15,-87.348 -58.68,-119.949 -15.99,-17.645 -35.93,-35.359 -60.62,-51.074 -55.09,-35.071 -173.83,-72.215 -232.04,-85.821 -51.82,-12.113 -97.66,-15.609 -123.62,-24.75 l -0.05,-0.019 v 0.004 0 l -0.05,-0.02 -0.02,-0.008 c -5.31,-1.875 -10.27,-4.175 -14.838,-6.863 -4.622,-2.715 -8.805,-5.805 -12.512,-9.226 -6.543,-6.036 -11.688,-13.11 -15.274,-21.075 -3.578,9.442 -9.238,17.746 -16.75,24.68 -3.707,3.422 -7.894,6.512 -12.511,9.227 -4.571,2.687 -9.532,4.992 -14.84,6.863 l -0.02,0.012 -0.05,0.015 v 0 -0.004 l -0.051,0.02 c -25.957,9.14 -71.797,12.637 -123.625,24.754 -58.211,13.601 -176.942,50.746 -232.035,85.816 -24.688,15.715 -44.629,33.43 -60.614,51.074 -29.535,32.602 -58.679,74.582 -58.679,119.95 v 717.188 h 0.019 c 0,11.11 0.504,22.27 1.012,33.5 0.762,16.78 1.519,33.71 0.691,49.66 h 148.02 V 522.383 c 0,0 142.707,9.66 235.273,-19.266 62.067,-19.394 97.262,-34.449 113.711,-42.269 3.215,-7.317 12.668,-11.957 19.164,-10.657 6.52,1.301 13.645,3.813 15.879,17.926 35.99,19.145 107.12,52.356 167.52,52.356 84.85,0 175.49,-27.016 175.49,69.425 V 1353.2 h 158.57"
         style="fill:#de8823;fill-opacity:1;fill-rule:evenodd;stroke:none"
         id="path206" /><g
         id="g208"><path
           d="m 1010.67,941.586 h 317.99"
           style="fill:none;stroke:#231f20;stroke-width:8.95188;stroke-linecap:butt;stroke-linejoin:miter;stroke-miterlimit:2.6131;stroke-dasharray:none;stroke-opacity:1"
           id="path210" /></g><g
         id="g212"><path
           d="M 606.848,941.586 H 924.832"
           style="fill:none;stroke:#231f20;stroke-width:8.95188;stroke-linecap:butt;stroke-linejoin:miter;stroke-miterlimit:2.6131;stroke-dasharray:none;stroke-opacity:1"
           id="path214" /></g><path
         d="m 480.137,1613.84 -23.621,75.81 11.23,5.71 19.598,-62.9 20.246,10.3 4.019,-12.9 z m 42.441,55.5 9.781,4.01 -13.043,30.59 z m -8.734,-37.98 -5.457,83.47 15.429,6.32 33.387,-72.02 -12.379,-5.08 -7.918,18.3 -13.226,-5.42 1.894,-20.76 z m 80.129,31.68 -30.172,74.23 12.484,4.21 22.172,-59.88 -4.426,65.88 12.317,4.17 2.972,-83.43 z m 35.918,12.73 -12.805,79.98 32.574,8.74 2.129,-13.3 -20.84,-5.59 2.957,-18.49 19.399,5.21 2.027,-12.68 -19.394,-5.2 3.523,-22.01 21.336,5.72 2.16,-13.51 z m 46.55,60.96 6.832,1.52 c 3.45,0.77 5.731,2.18 6.84,4.21 1.117,2.05 1.371,5.32 0.782,9.82 -0.524,4 -1.629,6.63 -3.297,7.92 -1.68,1.27 -4.45,1.49 -8.309,0.63 l -5.844,-1.31 z m -5.375,-49.05 -10.582,80.53 21.301,4.74 c 6.438,1.44 11.289,0.83 14.559,-1.84 3.254,-2.66 5.379,-7.73 6.359,-15.19 0.684,-5.21 0.465,-9.51 -0.652,-12.86 -1.133,-3.36 -3.137,-5.62 -6.02,-6.81 5.887,-0.62 9.621,-5.98 11.196,-16.08 0.058,-0.45 0.105,-0.79 0.132,-1.04 l 1.746,-10.59 c 0.512,-3.01 1.129,-5.38 1.868,-7.1 0.734,-1.71 1.718,-3.13 2.937,-4.22 l -14.086,-3.13 c -0.515,1.28 -0.969,2.83 -1.379,4.61 -0.41,1.8 -0.847,4.37 -1.343,7.69 l -1.282,8.39 -0.281,2.15 c -0.613,4.67 -1.824,7.7 -3.625,9.09 -1.801,1.4 -5.125,1.55 -9.945,0.48 l -4.059,-0.9 4.641,-35.36 z m 59.329,25.02 5.277,1.06 c 2.695,0.53 4.535,1.15 5.57,1.86 1.024,0.7 1.774,1.7 2.27,3.03 0.867,2.32 1.32,5.36 1.359,9.11 0.039,3.74 -0.406,9.65 -1.348,17.68 -0.918,7.83 -1.867,13.47 -2.839,16.93 -0.973,3.45 -2.223,5.97 -3.766,7.51 -0.805,0.77 -1.773,1.24 -2.91,1.37 -1.137,0.16 -2.875,0 -5.199,-0.46 l -5.106,-1.03 z m -10.278,-14.25 -9.469,80.77 19.149,3.83 c 3.91,0.79 7.066,0.99 9.476,0.61 2.411,-0.37 4.489,-1.35 6.2,-2.95 2.574,-2.3 4.558,-5.48 5.988,-9.5 1.418,-4.04 2.652,-10.48 3.695,-19.37 1.34,-11.46 1.981,-19.63 1.903,-24.5 -0.086,-4.85 -0.707,-9.11 -1.836,-12.73 -1.086,-3.61 -2.856,-6.34 -5.313,-8.17 -2.469,-1.84 -6.93,-3.41 -13.383,-4.7 z m 60.035,44.82 10.211,1.36 -7.699,33.42 z m -14.773,-34.93 8.41,83.25 16.098,2.14 20.738,-79.37 -12.914,-1.72 -4.723,20.02 -13.8,-1.84 -1.567,-20.85 z m 63.137,20.04 5.328,0.46 c 2.719,0.25 4.59,0.67 5.672,1.25 1.066,0.59 1.882,1.51 2.468,2.78 1.016,2.22 1.676,5.2 1.977,8.93 0.301,3.73 0.266,9.66 -0.117,17.78 -0.375,7.9 -0.938,13.64 -1.664,17.19 -0.727,3.55 -1.805,6.19 -3.231,7.9 -0.746,0.86 -1.679,1.43 -2.801,1.7 -1.117,0.27 -2.859,0.31 -5.207,0.1 l -5.152,-0.46 z m -11.211,-13.08 -3.856,81.58 19.324,1.71 c 3.95,0.35 7.102,0.21 9.473,-0.43 2.375,-0.64 4.367,-1.84 5.965,-3.63 2.406,-2.58 4.16,-5.96 5.305,-10.13 1.132,-4.19 1.918,-10.74 2.339,-19.72 0.551,-11.57 0.622,-19.79 0.204,-24.64 -0.414,-4.83 -1.329,-9 -2.7,-12.5 -1.328,-3.47 -3.281,-6 -5.851,-7.56 -2.586,-1.55 -7.133,-2.63 -13.645,-3.21 z m 83.008,47.9 c 0.074,-13.45 0.742,-21.9 2.007,-25.35 1.266,-3.47 3.571,-5.16 6.926,-5.08 3.297,0.07 5.555,1.82 6.75,5.28 1.203,3.43 1.754,11.94 1.676,25.53 -0.078,13.59 -0.742,22.12 -2,25.55 -1.25,3.43 -3.524,5.12 -6.852,5.04 -3.34,-0.07 -5.593,-1.86 -6.808,-5.35 -1.211,-3.49 -1.778,-12.03 -1.699,-25.62 z m -12.305,-0.28 c -0.047,8.66 0.226,15.61 0.844,20.81 0.613,5.19 1.597,9.11 2.957,11.77 1.855,3.75 4.074,6.45 6.664,8.1 2.597,1.65 6.023,2.53 10.281,2.63 4.242,0.09 7.672,-0.63 10.293,-2.17 2.601,-1.53 4.867,-4.13 6.801,-7.8 1.375,-2.67 2.398,-6.56 3.058,-11.73 0.664,-5.15 1.02,-12.03 1.067,-20.67 0.05,-8.61 -0.223,-15.5 -0.84,-20.7 -0.613,-5.2 -1.578,-9.15 -2.914,-11.88 -1.887,-3.76 -4.121,-6.46 -6.707,-8.11 -2.602,-1.65 -6.024,-2.53 -10.266,-2.62 -4.262,-0.09 -7.687,0.63 -10.305,2.16 -2.605,1.54 -4.859,4.14 -6.757,7.81 -1.391,2.6 -2.418,6.47 -3.094,11.64 -0.672,5.17 -1.031,12.1 -1.082,20.76 z m 50.207,-11.16 12.055,0.01 -0.043,-5.26 c -0.039,-5.02 0.437,-8.45 1.41,-10.26 0.972,-1.83 2.687,-2.73 5.129,-2.73 2.547,0 4.488,0.81 5.836,2.44 1.343,1.62 2.027,4.03 2.046,7.22 0.024,2.45 -0.418,4.53 -1.335,6.28 -0.903,1.74 -2.891,4.01 -5.954,6.77 l -6.117,5.52 c -5.285,4.67 -8.637,8.52 -10.058,11.56 -1.426,3.05 -2.11,6.87 -2.075,11.48 0.055,6.86 1.704,12.25 4.965,16.14 3.254,3.9 7.699,5.84 13.364,5.84 5.992,0 10.558,-2.06 13.722,-6.21 3.168,-4.13 4.711,-10.08 4.649,-17.83 -0.008,-0.78 -0.012,-1.38 -0.032,-1.8 -0.015,-0.43 -0.047,-0.8 -0.078,-1.13 h -11.426 l 0.02,2.18 c 0.035,4.42 -0.512,7.59 -1.648,9.5 -1.129,1.9 -3.016,2.86 -5.641,2.86 -1.934,0 -3.457,-0.73 -4.574,-2.16 -1.114,-1.43 -1.688,-3.41 -1.711,-5.96 -0.024,-3.43 2.422,-7.23 7.332,-11.4 l 0.129,-0.11 6.593,-5.69 c 4.7,-3.97 7.879,-7.7 9.532,-11.22 1.648,-3.53 2.457,-8 2.414,-13.46 -0.063,-7.43 -1.789,-13.16 -5.188,-17.2 -3.383,-4.04 -8.203,-6.05 -14.453,-6.05 -6.496,0 -11.324,2.11 -14.461,6.35 -3.148,4.26 -4.687,10.73 -4.617,19.45 0.012,0.9 0.078,2.42 0.211,4.55 z m 69.605,-29.5 4.04,81.66 11.95,-0.79 -1.59,-32.03 16.48,-1.09 1.58,32.03 11.95,-0.79 -4.05,-81.66 -11.95,0.79 1.84,37.02 -16.47,1.08 -1.83,-37 z m 66.4,27.78 10.2,-1.13 -2.5,34.73 z m -19.75,-30.8 20.8,79.86 16.1,-1.78 8.33,-83.07 -12.91,1.42 -1.61,20.83 -13.79,1.52 -4.68,-20.13 z m 67.49,39.4 6.88,-0.91 c 3.47,-0.46 5.96,0.1 7.47,1.67 1.51,1.58 2.47,4.65 2.88,9.19 0.37,4.04 -0.11,6.97 -1.43,8.79 -1.33,1.82 -3.94,2.98 -7.83,3.5 l -5.88,0.78 z m -15.85,-45.42 7.41,81.33 21.46,-2.85 c 6.47,-0.86 10.99,-3.14 13.54,-6.85 2.55,-3.69 3.47,-9.33 2.78,-16.87 -0.48,-5.26 -1.62,-9.32 -3.42,-12.16 -1.82,-2.84 -4.24,-4.33 -7.26,-4.47 5.51,-2.65 7.92,-9.12 7.22,-19.41 -0.04,-0.44 -0.07,-0.79 -0.09,-1.04 l -0.64,-10.83 c -0.17,-3.07 -0.09,-5.57 0.24,-7.49 0.33,-1.9 0.97,-3.61 1.9,-5.08 l -14.19,1.88 c -0.22,1.41 -0.31,3.07 -0.31,4.93 0,1.88 0.14,4.51 0.38,7.88 l 0.61,8.53 0.2,2.17 c 0.43,4.72 -0.07,8.07 -1.49,10.03 -1.43,1.97 -4.58,3.28 -9.43,3.93 l -4.09,0.54 -3.26,-35.7 z m 65.76,22.45 10.13,-1.8 -1.05,34.86 z m -20.99,-29.46 24.07,78.42 15.99,-2.85 4.88,-83.56 -12.83,2.28 -0.74,20.92 -13.7,2.43 -5.51,-19.8 z m 72.06,-13.54 12.99,80.27 11.81,-2.91 -10.78,-66.61 21.31,-5.24 -2.21,-13.66 z m 41.72,-10.83 14.09,79.99 11.77,-3.17 -14.09,-79.98 z m 35.67,1.56 4.8,-1.52 c 3.01,-0.95 5.32,-0.68 6.92,0.81 1.6,1.48 2.88,4.54 3.84,9.18 0.98,4.8 1,8.32 0.04,10.57 -0.95,2.22 -3.26,3.93 -6.92,5.09 l -3.5,1.1 z m 7.36,35.85 3.9,-1.23 c 2.93,-0.93 5.12,-0.75 6.56,0.51 1.44,1.27 2.61,4.06 3.5,8.4 0.79,3.87 0.77,6.7 -0.06,8.48 -0.84,1.77 -2.81,3.16 -5.92,4.15 l -3.58,1.13 z m -21.01,-43.57 16.28,79.35 18.74,-5.91 c 5.37,-1.7 9.04,-4.54 11,-8.53 1.97,-3.98 2.28,-9.27 0.93,-15.82 -1.08,-5.26 -2.55,-9.12 -4.43,-11.6 -1.89,-2.47 -4.17,-3.61 -6.87,-3.37 2.82,-1.44 4.73,-4 5.72,-7.71 0.98,-3.69 0.94,-8.14 -0.14,-13.36 -1.72,-8.43 -4.38,-14.16 -7.96,-17.24 -3.59,-3.08 -8.32,-3.69 -14.2,-1.83 z m 67.99,25.37 6.6,-2.57 c 3.34,-1.28 5.86,-1.33 7.58,-0.15 1.72,1.19 3.12,3.98 4.22,8.35 0.97,3.88 0.94,6.87 -0.08,8.98 -1.03,2.11 -3.41,3.89 -7.14,5.33 l -5.65,2.19 z m -22.38,-40.85 19.55,78.19 20.58,-7.97 c 6.22,-2.4 10.3,-5.74 12.23,-10.01 1.94,-4.24 2,-10.01 0.19,-17.25 -1.27,-5.06 -3,-8.78 -5.2,-11.14 -2.21,-2.36 -4.79,-3.24 -7.78,-2.65 5,-3.94 6.38,-10.88 4.15,-20.83 -0.11,-0.43 -0.19,-0.76 -0.25,-1 l -2.26,-10.5 c -0.63,-2.98 -0.93,-5.45 -0.9,-7.42 0.03,-1.96 0.4,-3.79 1.09,-5.47 l -13.61,5.28 c 0,1.45 0.16,3.09 0.44,4.92 0.28,1.85 0.81,4.4 1.57,7.67 l 1.87,8.24 0.52,2.08 c 1.14,4.54 1.16,7.96 0.06,10.23 -1.09,2.29 -3.99,4.33 -8.65,6.14 l -3.92,1.52 -8.58,-34.34 z m 46.58,-18.77 22.74,76.84 31.11,-14.36 -3.77,-12.77 -19.91,9.18 -5.26,-17.76 18.52,-8.55 -3.6,-12.18 -18.52,8.55 -6.26,-21.15 20.38,-9.41 -3.85,-12.97 z m 48.68,8.12 10.97,-6.19 -1.74,-4.8 c -1.65,-4.59 -2.32,-7.97 -2.01,-10.14 0.29,-2.18 1.56,-3.89 3.77,-5.15 2.32,-1.31 4.35,-1.56 6.1,-0.75 1.75,0.78 3.14,2.65 4.19,5.57 0.81,2.23 1.07,4.37 0.81,6.45 -0.27,2.07 -1.35,5.17 -3.25,9.27 l -3.78,8.22 c -3.3,7 -5.11,12.25 -5.43,15.77 -0.31,3.53 0.29,7.4 1.81,11.6 2.26,6.28 5.49,10.37 9.71,12.27 4.21,1.9 8.88,1.4 14.03,-1.51 5.45,-3.08 8.94,-7.33 10.48,-12.76 1.55,-5.42 1.04,-11.67 -1.51,-18.76 -0.26,-0.71 -0.45,-1.26 -0.61,-1.63 -0.15,-0.39 -0.3,-0.71 -0.43,-0.99 l -10.39,5.87 0.71,1.99 c 1.46,4.04 1.98,7.23 1.57,9.57 -0.42,2.32 -1.83,4.17 -4.21,5.51 -1.76,1 -3.38,1.12 -4.86,0.38 -1.47,-0.74 -2.63,-2.25 -3.47,-4.59 -1.13,-3.13 -0.13,-7.88 3,-14.23 l 0.08,-0.17 4.16,-8.61 c 3,-6.06 4.69,-11.12 5.06,-15.19 0.36,-4.09 -0.34,-8.62 -2.13,-13.6 -2.45,-6.79 -5.86,-11.16 -10.25,-13.12 -4.39,-1.97 -9.41,-1.34 -15.1,1.87 -5.9,3.34 -9.62,7.77 -11.1,13.27 -1.5,5.53 -0.81,12.26 2.06,20.22 0.3,0.83 0.85,2.19 1.65,4.07 l 0.11,0.29"
         style="fill:#231f20;fill-opacity:1;fill-rule:nonzero;stroke:none"
         id="path216" /><path
         d="m 810.676,377.172 c 0,0 11.047,-30.383 -8.289,-31.305 -19.336,-0.922 -35.91,19.336 -50.641,30.383 -14.734,11.051 -21.18,8.289 -27.625,7.367 -6.441,-0.922 -8.285,-0.922 -8.285,-0.922 l 1.844,27.625 c 0,0 32.222,-4.601 48.797,-24.859 16.574,-20.258 29.464,-18.418 29.464,-11.051 0,7.367 0,7.367 0,7.367 z m 326.864,-9.207 23.02,6.445 c 0,0 0,-17.496 11.98,-4.605 11.96,12.89 44.19,46.961 57.08,37.754 12.89,-9.207 4.61,-34.071 4.61,-34.071 0,0 -16.58,20.258 -24.87,12.891 -8.28,-7.363 -34.98,-38.668 -48.8,-40.512 -13.81,-1.844 -17.49,0 -20.25,7.367 -2.77,7.364 -2.77,14.731 -2.77,14.731 z m 225.72,915.365 c 0,10.03 3.99,18.1 11.99,24.19 9.47,7.16 23.96,10.75 43.46,10.75 18.72,0 32.86,-3.24 42.36,-9.74 8.89,-6.11 13.33,-14.64 13.33,-25.58 0,-7.68 -1.93,-13.84 -5.84,-18.52 -4.92,-5.98 -12.58,-10.33 -22.94,-13.03 -7.79,-2.03 -17.05,-3.05 -27.77,-3.05 -12.04,0 -22.33,1.54 -30.83,4.61 -15.63,5.56 -23.54,15.69 -23.76,30.37 z m 11.69,0 c 0,-11.39 14.35,-17.09 43.06,-17.09 7.68,0 14.04,0.31 19.12,0.9 5.07,0.61 9.62,1.59 13.61,2.96 7.99,2.73 11.98,7.16 11.98,13.29 0,5.59 -3.64,9.82 -10.93,12.68 -7.28,2.87 -18.11,4.31 -32.43,4.31 -14.52,0 -25.45,-1.34 -32.83,-4 -7.57,-2.76 -11.42,-7.11 -11.58,-13.05 z m -9.54,-121.43 v 67.95 h 14.04 c -0.52,-1.87 -0.79,-3.59 -0.79,-5.17 v -17.69 h 89.17 c 2.16,0.05 3.91,0.29 5.28,0.71 v -23.68 c -1.37,0.43 -3.12,0.67 -5.28,0.72 h -89.17 v -17.03 c 0,-1.82 0.27,-3.76 0.79,-5.81 z m 77.05,-59.94 25.64,-8.44 c 1.49,-0.48 2.72,-0.73 3.72,-0.73 0.27,0 0.7,0.03 1.27,0.08 v -13.73 c -1.43,1 -3.07,1.81 -4.99,2.44 l -98.05,32.42 c -1.53,0.48 -2.78,0.73 -3.72,0.73 -0.27,0 -0.56,0 -0.94,0 v 21.39 c 1.1,-0.05 2.59,0.23 4.41,0.81 l 98.3,33.23 c 1.81,0.63 3.45,1.53 4.99,2.72 v -28.92 c -0.49,0.05 -0.84,0.07 -1.11,0.07 -1.05,0 -2.34,-0.25 -3.88,-0.73 l -25.64,-8.21 z m -11.98,3.91 v 25.39 l -40.16,-12.7 z m -65.23,-33.7 c 1.48,-0.41 3.23,-0.65 5.28,-0.7 h 65.33 c 9.37,0 17.24,-1.94 23.68,-5.84 10.09,-6.19 15.13,-16.65 15.13,-31.39 0,-8.8 -1.83,-15.8 -5.52,-21.01 -6.9,-9.86 -18.15,-14.808 -33.77,-14.808 h -64.85 c -2.05,0 -3.8,-0.238 -5.28,-0.699 v 23.257 c 1.54,-0.46 3.29,-0.7 5.28,-0.7 h 66.36 c 6.78,0 12.2,1.29 16.26,3.85 5.74,3.59 8.6,8.99 8.6,16.21 0,6.83 -2.32,12.1 -6.98,15.8 -4.66,3.7 -11.34,5.54 -20.01,5.54 h -64.23 c -2.27,-0.05 -4.01,-0.29 -5.28,-0.71 z m -2.43,-121.709 v 30.371 c 1.04,-0.547 2.59,-0.859 4.71,-0.918 h 93.93 c 6.15,0 10.85,-1.48 14.09,-4.426 5.16,-4.742 7.73,-12.828 7.73,-24.285 0,-7.258 -1.34,-14.515 -4.01,-21.773 l -12.45,7.113 c 2.21,3.574 3.31,6.543 3.31,8.887 0,2.172 -0.63,3.718 -1.83,4.601 -1.22,0.883 -3.38,1.344 -6.47,1.344 h -94.3 c -1.87,-0.059 -3.44,-0.375 -4.71,-0.914 z m 79.84,-122.891 25.64,-9.246 c 1.47,-0.523 2.72,-0.801 3.72,-0.801 0.26,0 0.69,0.028 1.26,0.086 v -15.046 c -1.43,1.105 -3.07,1.988 -4.98,2.679 l -98.06,35.524 c -1.54,0.527 -2.78,0.8 -3.72,0.8 -0.27,0 -0.57,0 -0.94,0 v 23.438 c 1.1,-0.055 2.58,0.25 4.42,0.883 l 98.3,36.414 c 1.8,0.687 3.44,1.683 4.98,2.976 v -31.691 c -0.49,0.059 -0.84,0.086 -1.1,0.086 -1.06,0 -2.35,-0.274 -3.88,-0.801 l -25.64,-9 z m -11.98,4.278 v 27.828 l -40.16,-13.91 z m -33.86,-123.875 h 70.94 c 2.16,0.047 3.9,0.293 5.28,0.718 v -11.558 c -1.54,0.469 -3.29,0.715 -5.28,0.715 h -97.14 c -2.21,-0.043 -3.96,-0.293 -5.28,-0.715 v 19.906 c 1.16,0.227 2.69,0.902 4.58,2.047 l 71.31,43.621 h -70.61 c -2.1,-0.047 -3.85,-0.293 -5.28,-0.719 v 11.496 c 1,-0.429 2.77,-0.675 5.28,-0.718 h 97.31 c 1.99,0.043 3.68,0.312 5.11,0.785 V 754.02 c -1.06,-0.27 -2.64,-1.032 -4.74,-2.29 z m 45.64,-105.196 25.63,-8.531 c 1.48,-0.476 2.73,-0.738 3.72,-0.738 0.27,0 0.7,0.027 1.26,0.078 v -13.879 c -1.42,1.023 -3.07,1.836 -4.98,2.473 l -98.05,32.769 c -1.54,0.489 -2.78,0.739 -3.72,0.739 -0.27,0 -0.57,0 -0.94,0 v 21.617 c 1.1,-0.051 2.58,0.23 4.41,0.816 l 98.3,33.582 c 1.81,0.641 3.45,1.555 4.98,2.75 v -29.226 c -0.48,0.05 -0.83,0.074 -1.1,0.074 -1.05,0 -2.34,-0.254 -3.88,-0.738 l -25.63,-8.301 z m -11.99,3.946 v 25.668 l -40.16,-12.832 z m -60.66,-26.09 c 1.18,-0.992 2.67,-1.942 4.51,-2.828 l 59.41,-27.196 c 8.52,-3.902 14.86,-8.941 19.09,-15.164 6.59,-9.847 6.83,-21.437 0.69,-34.84 -3.66,-8.003 -8.24,-13.609 -13.76,-16.808 -10.37,-6.106 -22.67,-5.918 -36.87,0.586 l -58.97,27 c -1.86,0.847 -3.55,1.367 -5.09,1.555 l 9.68,21.148 c 1.21,-1.055 2.7,-2.008 4.5,-2.836 l 60.34,-27.617 c 6.18,-2.82 11.64,-3.906 16.4,-3.266 6.71,0.871 11.55,4.59 14.55,11.16 2.85,6.207 2.94,11.965 0.24,17.274 -2.69,5.289 -8,9.746 -15.89,13.355 l -58.4,26.739 c -2.08,0.902 -3.77,1.406 -5.09,1.562 z m -26.17,-68.184 10.48,-15.301 c -11.68,0.43 -21.49,-2.402 -29.44,-8.527 -7.67,-5.914 -11.86,-13.453 -12.6,-22.641 -0.39,-5.492 0.41,-11.089 2.41,-16.828 2.02,-5.718 5.36,-12.007 10.06,-18.871 8.38,-12.23 16.91,-19.879 25.56,-22.929 3.6,-1.278 7.32,-1.602 11.14,-0.911 3.84,0.668 7.33,2.227 10.54,4.696 3.09,2.383 5.41,5.551 6.94,9.488 l -23.84,34.809 c -1.34,1.863 -2.6,3.183 -3.79,3.996 l 22.33,17.215 c 0.46,-1.594 1.24,-3.282 2.4,-5.071 l 24.16,-35.273 c 1.72,-2.414 3.44,-4.238 5.12,-5.481 -6.22,-8.859 -11,-15.152 -14.37,-18.882 -3.37,-3.727 -7.88,-7.774 -13.53,-12.129 -9.11,-7.016 -17.6,-11.235 -25.51,-12.625 -10.02,-1.793 -19.47,-0.211 -28.36,4.722 -8.06,4.422 -15.35,11.414 -21.9,20.985 -11.19,16.339 -14.94,32.703 -11.25,49.039 3.01,13.445 11.2,25.304 24.56,35.597 8.21,6.332 17.85,11.325 28.89,14.922 z m -353.07,-95.98 h 70.96 v -14.524 c -1.9,0.551 -3.93,0.844 -6.02,0.844 h -33.28 v -43.504 h 32.54 c 2.77,0 5.01,0.262 6.76,0.742 v -14.972 c -1.63,0.484 -3.78,0.746 -6.48,0.746 h -32.82 v -44.153 h 32.21 c 2.73,0 5.12,0.29 7.09,0.84 v -15.656 h -70.96 c 0.645,1.723 0.981,3.797 0.981,6.258 v 117.023 c -0.063,2.723 -0.399,4.832 -0.981,6.356 z m -110.257,0 h 38.863 c 14.316,0 26.004,-3.762 35.047,-11.313 7.09,-5.871 12.277,-13.679 15.511,-23.441 2.973,-8.949 4.465,-18.539 4.465,-28.785 0,-16.012 -3.07,-29.66 -9.254,-40.942 -4.441,-8.172 -9.976,-14.394 -16.664,-18.703 -6.66,-4.308 -14.07,-6.453 -22.203,-6.453 h -45.765 c 0.562,1.848 0.855,3.957 0.855,6.359 v 116.922 c -0.055,2.723 -0.348,4.832 -0.855,6.356 z m 27.578,-114.43 h 9.496 c 8.289,0 14.738,3.465 19.34,10.434 6.285,9.433 9.414,22.757 9.414,39.972 0,17.801 -3.93,31.219 -11.77,40.266 -4.949,5.766 -11.234,8.652 -18.805,8.652 h -7.675 z m -304.02,215.066 30.359,-26.687 c 11.18,-9.828 18.051,-20.141 20.575,-30.934 2.011,-8.433 1.367,-16.746 -1.969,-24.894 -3.055,-7.477 -7.652,-14.332 -13.816,-20.559 -9.625,-9.73 -20.231,-15.906 -31.836,-18.523 -8.379,-1.91 -16.45,-1.891 -24.266,0.082 -7.793,1.953 -14.867,5.738 -21.223,11.324 l -35.75,31.426 c 1.551,0.734 3.051,1.816 4.493,3.273 l 70.285,71.043 c 1.593,1.692 2.629,3.176 3.148,4.449 z m -47.242,-88.464 7.418,-6.524 c 6.473,-5.695 13.598,-8.012 21.383,-6.933 10.582,1.414 21.035,7.359 31.379,17.816 10.699,10.816 15.695,21.672 15.007,32.547 -0.394,6.906 -3.57,12.976 -9.484,18.176 l -6,5.269 z m -53.422,114.324 -28.797,-1.16 c -1.664,-0.082 -2.996,-0.282 -3.98,-0.664 -0.266,-0.098 -0.68,-0.282 -1.219,-0.547 l -5.602,13.64 c 1.825,-0.476 3.778,-0.656 5.926,-0.574 l 110.219,4.313 c 1.711,0.097 3.039,0.312 3.969,0.664 0.261,0.097 0.558,0.207 0.929,0.347 l 8.735,-21.242 c -1.121,-0.359 -2.473,-1.179 -4.051,-2.445 l -83.684,-69.602 c -1.523,-1.293 -2.785,-2.808 -3.816,-4.55 l -11.793,28.714 c 0.5,0.145 0.855,0.235 1.125,0.34 1.035,0.387 2.211,1.121 3.539,2.164 l 22.008,17.707 z m 13.445,0.59 10.356,-25.219 34.543,27.559 z m 66.153,121.675 v -39.132 c 0,-14.407 -3.313,-26.176 -9.969,-35.282 -5.172,-7.132 -12.059,-12.359 -20.66,-15.617 -7.883,-2.992 -16.344,-4.496 -25.371,-4.496 -14.114,0 -26.141,3.098 -36.086,9.317 -7.196,4.468 -12.688,10.046 -16.485,16.777 -3.8,6.707 -5.683,14.168 -5.683,22.355 v 46.078 c 1.625,-0.566 3.484,-0.863 5.597,-0.863 h 103.059 c 2.395,0.055 4.254,0.352 5.598,0.863 z m -100.86,-27.765 v -9.563 c 0,-8.347 3.059,-14.839 9.203,-19.472 8.313,-6.328 20.059,-9.477 35.227,-9.477 15.688,0 27.52,3.957 35.484,11.852 5.09,4.98 7.637,11.304 7.637,18.929 v 7.731 z m 102.852,69.105 v -28.629 c -1.34,0.512 -3.203,0.809 -5.598,0.864 H 476.141 c -2.403,-0.055 -4.258,-0.352 -5.598,-0.864 v 28.629 c 1.512,-0.566 3.371,-0.863 5.598,-0.863 h 103.058 c 2.281,0 4.145,0.297 5.598,0.863 z m -109.047,94.641 18.172,-4.496 c -2.918,-3.317 -5.086,-5.981 -6.543,-7.973 -4.344,-5.902 -6.52,-12.066 -6.52,-18.527 0,-5.391 1.547,-9.617 4.606,-12.715 3.027,-2.988 6.711,-4.5 11.14,-4.5 5.059,0 9.114,2.023 12.114,6.09 1.461,1.937 4.203,7.246 8.203,15.918 4.312,9.32 8.941,15.808 13.914,19.414 5.512,4.016 11.883,6.004 19.055,6.004 6.886,0 13.062,-1.746 18.601,-5.274 10.77,-6.843 16.141,-18.179 16.141,-34.015 0,-9.266 -2.168,-18.582 -6.512,-27.926 l -16.828,4.008 c 6.914,9.051 10.371,17.023 10.371,23.918 0,4.039 -1.289,7.433 -3.855,10.129 -2.575,2.718 -5.774,4.062 -9.629,4.062 -4,0 -7.117,-1.262 -9.321,-3.824 -2.195,-2.559 -5.398,-8.508 -9.597,-17.879 -4.399,-9.996 -9.313,-16.781 -14.715,-20.363 -5.516,-3.688 -12.027,-5.524 -19.484,-5.524 -7.485,0 -14.231,1.7 -20.258,5.121 -12.059,6.84 -18.082,18.692 -18.082,35.524 0,5.949 0.652,11.308 1.996,16.133 1.344,4.816 3.687,10.394 7.031,16.695 z m 44.285,71.566 h -45.887 c -2.168,0 -4.027,-0.289 -5.597,-0.855 v 28.703 c 1.285,-0.508 3.14,-0.805 5.597,-0.859 h 103.059 c 2.055,0 3.914,0.297 5.598,0.859 v -43.004 c 0,-8.617 -2.168,-15.781 -6.543,-21.519 -5.91,-7.786 -14.285,-11.692 -25.114,-11.692 -7.398,0 -13.628,1.942 -18.656,5.848 -4.027,3.148 -7.574,8.887 -10.629,17.207 L 473.664,819.59 c -2.402,-1.399 -4.113,-2.692 -5.113,-3.852 v 32.426 c 1.828,0.274 3.597,0.785 5.281,1.59 z m 8.945,0.082 v -5.519 c 0,-4.09 1.254,-7.379 3.77,-9.856 3.969,-3.906 9.57,-5.843 16.828,-5.843 6.512,0 11.715,1.425 15.57,4.254 3.86,2.855 5.774,6.679 5.774,11.527 v 5.437 z m 53.825,114.786 v -62.239 h -12.801 c 0.488,1.672 0.746,3.449 0.746,5.278 v 29.195 h -38.348 v -28.547 c 0,-2.426 0.235,-4.391 0.661,-5.926 h -13.2 c 0.43,1.426 0.66,3.313 0.66,5.684 v 28.789 h -38.918 v -28.254 c 0,-2.395 0.258,-4.496 0.743,-6.219 h -13.797 v 62.239 c 1.512,-0.563 3.34,-0.864 5.508,-0.864 h 103.148 c 2.395,0.055 4.254,0.352 5.598,0.864 z m 0,112.325 v -30.46 c -0.828,0.21 -1.426,0.32 -1.77,0.32 -0.828,0 -2,-0.24 -3.512,-0.7 l -80.171,-24.08 80.336,-25.34 c 1.289,-0.4 2.378,-0.62 3.289,-0.62 0.375,0 1,0.09 1.828,0.25 v -14.68 c -1.571,1.05 -3.313,1.91 -5.282,2.53 l -103.777,32.18 c -1.629,0.49 -3.367,0.76 -5.195,0.81 v 25.07 c 1.57,0.06 3.285,0.35 5.195,0.87 l 103.375,31.34 c 1.715,0.51 3.629,1.35 5.684,2.51 z m 0,41.98 v -28.62 c -1.344,0.51 -3.203,0.81 -5.598,0.86 H 474.148 c -2.402,-0.05 -4.253,-0.35 -5.597,-0.86 v 28.62 c 1.512,-0.56 3.371,-0.86 5.597,-0.86 h 103.059 c 2.285,0 4.145,0.3 5.598,0.86 z m -33.399,82.93 h -75.261 c -2.286,-0.05 -4.141,-0.29 -5.598,-0.7 v 11.22 c 1.629,-0.45 3.488,-0.69 5.598,-0.69 h 103.058 c 2.348,0.04 4.199,0.28 5.602,0.69 v -19.33 c -1.231,-0.22 -2.86,-0.87 -4.856,-1.98 l -75.66,-42.34 h 74.914 c 2.231,0.04 4.086,0.28 5.602,0.7 v -11.16 c -1.055,0.41 -2.942,0.65 -5.602,0.69 H 473.977 c -2.118,-0.04 -3.914,-0.3 -5.43,-0.76 v 18.96 c 1.113,0.26 2.801,1 5.027,2.22 z m 33.399,29.1 c -1.571,0.4 -3.426,0.63 -5.602,0.68 h -69.312 c -9.942,0 -18.289,1.86 -25.114,5.6 -10.714,5.94 -16.054,15.98 -16.054,30.13 0,8.44 1.941,15.15 5.851,20.15 7.317,9.47 19.262,14.21 35.832,14.21 h 68.797 c 2.176,0 4.031,0.23 5.602,0.67 v -22.31 c -1.629,0.44 -3.489,0.67 -5.602,0.67 h -70.398 c -7.2,0 -12.942,-1.24 -17.254,-3.69 -6.086,-3.45 -9.113,-8.63 -9.113,-15.56 0,-6.55 2.453,-11.61 7.398,-15.16 4.937,-3.55 12.027,-5.31 21.227,-5.31 h 68.14 c 2.399,0.05 4.258,0.28 5.602,0.67 v -10.75"
         style="fill:#231f20;fill-opacity:1;fill-rule:evenodd;stroke:none"
         id="path218" /></g></g></svg>
