<svg xmlns:inkscape="http://www.inkscape.org/namespaces/inkscape" xmlns:sodipodi="http://sodipodi.sourceforge.net/DTD/sodipodi-0.dtd" xmlns="http://www.w3.org/2000/svg" xmlns:svg="http://www.w3.org/2000/svg" version="1.1" id="svg2" sodipodi:docname="UiB_Positiv2linjer_ENG.eps" viewBox="36.09 37.79 726.55 226.77">
  <defs id="defs6"/>
  <sodipodi:namedview id="namedview4" pagecolor="#ffffff" bordercolor="#000000" borderopacity="0.25" inkscape:showpageshadow="2" inkscape:pageopacity="0.0" inkscape:pagecheckerboard="0" inkscape:deskcolor="#d1d1d1"/>
  <g id="g8" inkscape:groupmode="layer" inkscape:label="ink_ext_XXXXXX" transform="matrix(1.3333333,0,0,-1.3333333,0,302.36)">
    <g id="g10" transform="scale(0.1)">
      <path d="m 1272.11,891.148 c -4.9,9.641 -12.93,12.391 -25.61,13.133 2.84,-7.883 4.43,-13.121 5.95,-22.281 0,0 8.33,1.34 7.81,-4.102 -0.46,-4.75 -4.78,-4.878 -6.86,-4.878 0.05,-5.141 0.85,-6.559 0.29,-13.379 0,0 11.98,2.668 20.24,-6.821 4.11,10.891 3.27,28.309 -1.82,38.328 z M 1268.24,840 c -2.34,8.02 -15.07,7.398 -15.07,7.398 0,0 2.34,-14.519 -2.12,-24.878 -3.36,-7.801 -10.27,-12.809 -11.07,-13.04 l 0.13,-0.402 c 2.91,-0.816 10.17,-0.637 17.46,4.934 6.91,5.277 12.46,16.547 10.67,25.988 z m -30.4,1.422 c 5.52,21.219 0.37,65.918 -14.4,74.43 -9.08,2.988 -17.8,2.789 -22.26,-0.743 9.29,-19.129 5.8,-35.449 5.8,-35.449 0,0 12.29,1.809 12.52,-3.539 0.16,-3.832 -4.08,-6.512 -8.72,-6.762 -4.65,-0.238 -6.76,-4.07 -6.76,-4.07 0,0 -2.09,-4.609 -3.96,-18.828 6.36,6.551 24.97,12.32 37.78,-5.039 z m -44.65,52.039 c -0.14,13.66 -8.06,18.641 -8.06,18.641 0,0 -5.61,-0.954 -8.42,-1.793 -2.63,-0.778 -2.45,-0.231 -12.76,-16.129 -11.52,-17.758 -18.28,-26.481 -11.89,-53.692 9.39,10.012 24.57,10.332 33.4,-1.367 0,0 2.93,13.777 3.22,22.969 -3.5,4.969 -7.62,6.808 -14.55,8.75 -6.29,1.75 -5.53,10.18 4.4,8.449 7.37,-1.289 12.77,-5.379 12.77,-5.379 0,0 2.03,5.879 1.89,19.551 z m -114.97,0.719 c -10.31,15.898 -10.13,15.351 -12.75,16.129 -2.81,0.839 -8.42,1.793 -8.42,1.793 0,0 -7.93,-4.981 -8.07,-18.641 -0.14,-13.672 1.89,-19.551 1.89,-19.551 0,0 5.4,4.09 12.77,5.379 9.93,1.731 10.7,-6.699 4.4,-8.449 -6.92,-1.942 -11.04,-3.781 -14.55,-8.75 0.3,-9.192 3.22,-22.969 3.22,-22.969 8.83,11.699 24.01,11.379 33.4,1.367 6.4,27.211 -0.36,35.934 -11.89,53.692 z m -36.1,-47.719 c -1.87,14.219 -3.96,18.828 -3.96,18.828 0,0 -2.12,3.832 -6.77,4.07 -4.64,0.25 -8.88,2.93 -8.71,6.762 0.22,5.348 12.51,3.539 12.51,3.539 0,0 -3.48,16.32 5.8,35.449 -4.45,3.532 -13.18,3.731 -22.25,0.743 -14.78,-8.512 -19.92,-53.211 -14.41,-74.43 12.82,17.359 31.42,11.59 37.79,5.039 z M 1002.2,809.48 c -0.8,0.239 -7.708,5.239 -11.075,13.04 -4.465,10.359 -2.121,24.878 -2.121,24.878 0,0 -12.727,0.622 -15.066,-7.398 -1.793,-9.441 3.757,-20.711 10.667,-25.988 7.297,-5.571 14.551,-5.75 17.455,-4.934 z m -33.95,43.34 c 8.254,9.489 20.23,6.821 20.23,6.821 -0.554,6.82 0.239,8.238 0.29,13.379 -2.071,0 -6.399,0.128 -6.848,4.878 -0.527,5.442 7.805,4.102 7.805,4.102 1.519,9.16 3.109,14.398 5.949,22.281 -12.688,-0.742 -20.719,-3.492 -25.613,-13.133 -5.094,-10.019 -5.926,-27.437 -1.813,-38.328 z m 259.34,-28.468 c 0.01,2.789 0.31,10.707 -9.54,13.91 -9.85,3.207 -14.77,-4.453 -14.77,-4.453 0,0 4.61,-6.52 4.89,-18.008 0.29,-12.082 -6.33,-18.531 -6.33,-18.531 l -0.12,-1.211 c 4.3,0.543 25.81,8.601 25.87,28.293 z m -45.28,-28.461 c 0,0 -7.38,5.937 -5.19,27.859 0.57,5.609 -5.39,13.441 -14.64,9.512 -6.26,-2.66 -7.97,-11.571 -5.16,-17.512 3.37,-7.121 14.37,-17.539 24.22,-20.359 z m -102.62,37.371 c -9.24,3.929 -15.21,-3.903 -14.64,-9.512 2.2,-21.922 -5.19,-27.859 -5.19,-27.859 l 0.77,-0.5 c 9.85,2.82 20.85,13.238 24.22,20.359 2.82,5.941 1.1,14.852 -5.16,17.512 z m -39.23,-37.203 -0.12,1.211 c 0,0 -6.63,6.449 -6.34,18.531 0.28,11.488 4.89,18.008 4.89,18.008 0,0 -4.92,7.66 -14.77,4.453 -9.85,-3.203 -9.54,-11.121 -9.54,-13.91 0.07,-19.692 21.58,-27.75 25.88,-28.293 z M 891.352,1220.46 c 2.558,-5.11 6.941,-5.26 7.597,-4.75 0,0 5.625,4.68 12.266,14.61 6.64,9.93 11.711,20.57 11.711,20.57 0,0 -0.438,1.02 -1.75,1.38 -1.317,0.37 -6.207,-1.31 -6.207,-1.31 0,0 -2.731,-2.54 -5.871,-5.97 -3.141,-3.43 -9.567,-9.27 -14.016,-12.48 -4.457,-3.22 -6.285,-6.94 -3.73,-12.05 z m 13.039,82.28 c 4.125,1.14 27.226,13.65 36.761,26.6 9.539,12.96 22.981,51.75 23.692,57.45 0.715,5.69 -4.129,3.69 -5.973,1.14 -1.855,-2.57 -10.832,-23.09 -22.078,-37.48 -11.246,-14.38 -39.805,-29.91 -39.805,-29.91 -1.425,-3.28 0.567,-13.39 7.403,-17.8 z m 12.836,56.02 c 0.609,-0.46 3.347,-0.61 8.378,1.83 5.028,2.43 4.719,4.87 4.719,4.87 0,0 -4.109,27.11 -4.414,30.62 -0.156,1.81 -0.472,4.28 -1.211,5.44 -0.902,-0.57 -3.328,-1.77 -4.109,-2.59 -3.094,-6.09 -3.707,-19.07 -4.277,-24.79 -0.61,-6.09 0.914,-15.38 0.914,-15.38 z m 12.886,151.87 c 0.489,-14.6 1.84,-32.14 8.516,-31.06 5.824,0.94 9.07,1.29 13.793,1.53 4.726,0.24 4.492,-8.03 -1.109,-9.15 -5.61,-1.11 -14.868,-3.28 -15.297,-8.51 -0.301,-3.67 0.875,-20.59 7.933,-30.35 1.961,-2.71 5.27,-2.09 5.27,-2.09 0,0 2.722,4.16 4.804,4.16 2.079,0 2.723,-1.28 0.481,-5.04 -2.242,-3.77 -4.008,-6.57 -0.805,-13.62 3.203,-7.04 10.254,-8.33 15.219,-12.41 4.965,-4.09 7.605,-4.16 9.773,0.24 2.157,4.4 7.762,16.42 13.129,21.78 5.368,5.37 8.49,3.52 5.688,-0.8 -2.805,-4.33 -15.602,-27.7 -7.485,-32.58 6.192,-3.71 9.692,-5.1 12.707,-5.28 4.77,-0.28 6.55,0.38 7.91,4.94 1.36,4.57 3.97,8.1 6.97,7.54 1.69,-0.33 0.1,-6.27 1.37,-10.43 1.29,-4.17 2.8,-6.56 8.24,-6.87 6.51,-0.38 14.93,-0.11 17.39,0.72 4.5,1.53 1.51,20.12 2.89,28.99 0.59,3.85 1.9,6.11 4.3,4.75 0.82,-15.37 13.85,-29.45 13.85,-29.45 0,0 6.31,0.53 13.3,6.48 4.66,3.97 1.91,11.9 1.91,11.9 0,0 -5.51,0.87 -10.32,5.28 -4.8,4.4 -9.69,12.97 -6.65,20.02 3.05,7.04 4.41,-5.29 10.65,-8.49 6.25,-3.2 6.33,1.2 3.69,5.12 -2.64,3.93 -10.49,17.54 -6.41,20.18 4.09,2.64 3.53,-2.08 6.09,-2.96 2.56,-0.88 2.16,16.9 2.16,16.9 0,0 -4.53,3.87 -9.42,-1.53 -4.8,-5.29 -9.55,-10.1 -18.85,-13.13 -3.06,-1 0,-14.33 -3.12,-14.89 -3.12,-0.57 -5.37,10.01 -10.49,9.61 -5.13,-0.4 -7.88,-34.95 -12.33,-34.2 -5.96,1.01 -1.03,36.28 -1.03,36.28 0,0 -4.34,3.12 -10.11,4.88 -5.76,1.77 -10.64,2.48 -10.64,2.48 0,0 -5.35,-1.31 -11.6,-9.98 -5.914,-8.2 -6.699,-12.14 -8.722,-11.23 -2.781,1.25 -0.34,12.84 8.863,22.02 4.301,4.29 2.848,5.93 2.848,5.93 0,0 -4.551,6.2 -9.918,5.08 -5.363,-1.12 -15.586,-9.38 -18.949,-15.05 -3.774,-6.34 -7.696,-5.1 -7.399,1.17 0.317,6.53 -0.039,8.31 7.352,13.82 7.476,5.57 10.734,6.98 12.086,9.7 0.761,1.53 0.652,16.69 -5.801,23.46 -2.215,2.31 -1.211,3.54 -14.735,5.54 -9.894,1.46 -19.785,-0.48 -19.375,3.44 0.356,3.45 11.188,10.48 35.954,5.05 2.75,-0.61 4.617,1.02 5.363,4.96 0.984,5.21 3.414,12.38 4.918,16.06 1.308,3.19 1.812,4.49 -3.18,8.25 -6.828,5.16 -9.879,9.59 -11.078,12.87 -1.207,3.29 1.246,10.85 5.891,6.68 4.644,-4.16 9.636,-8.6 15.777,-11.93 4.02,-2.18 15.415,2.53 12.695,6.38 -1.52,2.14 -6.843,8.17 -10.847,16.17 -4.008,8.02 -4.555,13 -8.149,16.3 -2.941,2.7 -20.699,7.77 -24.027,6.66 -3.793,-1.26 -11.469,-4.26 -12.43,-6.33 -1.941,-4.2 -4.359,-7.32 -2.457,-11.61 2.5,-5.63 11.606,-8.21 13.082,-11.6 0.696,-1.61 -1.183,-8.49 -2.625,-9.04 -1.441,-0.57 -6.008,2.78 -8.726,4.94 -2.727,2.16 -6.973,6.62 -9.008,3.36 -2.59,-4.17 -3.774,-11.79 0.5,-14.26 13.558,-7.85 12.621,-6.33 12.621,-9.13 0,-1.86 -2.195,-5.76 -4.828,-5.54 -4.75,0.4 -11.582,4.43 -13.457,3.38 -2.52,-1.4 -5.078,-12.29 -4.606,-26.46 z m 10.86,102 c 14.437,-10.53 32.121,-10.77 36.379,-10.77 5.671,0 11.863,-1.34 15.558,-6.77 3.348,-4.92 7.75,-12.75 10.63,-10.29 3.16,2.7 -2.77,10.53 -3.657,12.54 -0.899,2.02 -1.305,4.03 0.187,5.25 3.12,2.56 15.52,-10.42 17.65,-7.96 2.12,2.46 -19.474,19.26 -15.97,24.3 2.67,3.84 9.48,1.65 17.69,-6.18 11.96,-11.43 21.71,-12.56 24.37,-10.2 1.68,1.49 -10.94,9.45 -20.06,17.91 -7.3,6.77 -15.67,16.37 -34.695,18.72 -19.032,2.35 -26.766,-0.48 -37.051,2.07 -6.352,1.57 -14.711,6.34 -18.367,13.77 -4.66,9.48 -4.328,11.78 -6.321,8.8 -1.586,-2.38 -4.363,-11.64 -4.031,-19.7 0.336,-8.06 3.246,-20.98 17.688,-31.49 z m 104.457,6.73 c 3.71,-1.42 6.48,-1.47 7.68,1.57 5.53,14.05 17.34,15.38 25.87,11.35 4.5,-2.12 7.12,-1.81 8.92,2.33 -1.45,6.07 -13.08,16.34 -27.79,12.11 -14.98,-4.32 -17.5,-21.8 -14.68,-27.36 z m 24.56,1.48 c -10.81,-3.99 -12.09,-17.82 -8.84,-23.34 4.65,-2.21 7.35,-1.1 8.36,2.98 1.95,7.98 9.15,10.65 15.89,6.91 2.79,-1.55 6.45,-0.22 6.99,4.24 -2.14,5.73 -12.05,13.05 -22.4,9.21 z m 28.07,14.62 c 1.05,-5.54 5.14,-4.78 7.2,-2.19 3.55,4.48 8.75,7.46 15.95,7.46 7.21,0 12.4,-2.98 15.94,-7.46 2.06,-2.59 6.15,-3.35 7.2,2.19 -1.85,12.97 -14.07,18.21 -23.14,18.21 -9.07,0 -21.3,-5.24 -23.15,-18.21 z m 51.95,-23.83 c 0.55,-4.46 4.21,-5.79 7,-4.24 6.73,3.74 13.93,1.07 15.89,-6.91 1,-4.08 3.71,-5.19 8.36,-2.98 3.87,4.93 1.97,19.35 -8.84,23.34 -10.35,3.84 -20.27,-3.48 -22.41,-9.21 z m 4.49,22.98 c 1.8,-4.14 4.42,-4.45 8.92,-2.33 8.54,4.03 20.35,2.7 25.88,-11.35 1.19,-3.04 3.97,-2.99 7.68,-1.57 2.81,5.56 0.3,23.04 -14.69,27.36 -14.7,4.23 -26.34,-6.04 -27.79,-12.11 z m 44.06,-32.06 c 2.66,-2.36 12.42,-1.23 24.38,10.2 8.21,7.83 15.02,10.02 17.68,6.18 3.51,-5.04 -18.09,-21.84 -15.96,-24.3 2.13,-2.46 14.52,10.52 17.64,7.96 1.5,-1.22 1.09,-3.23 0.19,-5.25 -0.89,-2.01 -6.82,-9.84 -3.66,-12.54 2.88,-2.46 7.29,5.37 10.63,10.29 3.7,5.43 9.89,6.77 15.56,6.77 4.26,0 21.94,0.24 36.38,10.77 14.44,10.51 17.35,23.43 17.69,31.49 0.33,8.06 -2.45,17.32 -4.03,19.7 -1.99,2.98 -1.66,0.68 -6.32,-8.8 -3.66,-7.43 -12.02,-12.2 -18.37,-13.77 -10.29,-2.55 -18.02,0.28 -37.05,-2.07 -19.03,-2.35 -27.4,-11.95 -34.7,-18.72 -9.11,-8.46 -21.73,-16.42 -20.06,-17.91 z m 109.11,-65.46 c -1.87,1.04 -8.7,-2.98 -13.45,-3.38 -2.63,-0.22 -4.83,3.68 -4.83,5.54 0,2.8 -0.94,1.28 12.62,9.13 4.27,2.47 3.09,10.09 0.5,14.26 -2.03,3.26 -6.29,-1.2 -9.01,-3.36 -2.72,-2.16 -7.29,-5.51 -8.73,-4.94 -1.44,0.55 -3.32,7.43 -2.62,9.04 1.47,3.39 10.58,5.97 13.08,11.6 1.9,4.29 -0.51,7.41 -2.46,11.61 -0.95,2.07 -8.63,5.07 -12.43,6.33 -3.33,1.11 -21.09,-3.96 -24.03,-6.66 -3.58,-3.3 -4.14,-8.28 -8.14,-16.3 -4.01,-8 -9.33,-14.03 -10.85,-16.17 -2.72,-3.85 8.67,-8.56 12.69,-6.38 6.15,3.33 11.14,7.77 15.79,11.93 4.64,4.17 7.09,-3.39 5.89,-6.68 -1.21,-3.28 -4.26,-7.71 -11.09,-12.87 -4.99,-3.76 -4.48,-5.06 -3.17,-8.25 1.5,-3.68 3.93,-10.85 4.91,-16.06 0.74,-3.94 2.62,-5.57 5.37,-4.96 24.76,5.43 35.6,-1.6 35.95,-5.05 0.41,-3.92 -9.49,-1.98 -19.38,-3.44 -13.52,-2 -12.52,-3.23 -14.73,-5.54 -6.45,-6.77 -6.56,-21.93 -5.8,-23.46 1.35,-2.72 4.61,-4.14 12.09,-9.7 7.39,-5.51 7.03,-7.29 7.34,-13.82 0.3,-6.27 -3.62,-7.51 -7.39,-1.17 -3.37,5.67 -13.59,13.93 -18.95,15.05 -5.37,1.12 -9.92,-5.08 -9.92,-5.08 0,0 -1.45,-1.64 2.85,-5.93 9.2,-9.18 11.64,-20.77 8.87,-22.02 -2.03,-0.91 -2.82,3.03 -8.73,11.23 -6.25,8.67 -11.59,9.98 -11.59,9.98 0,0 -4.89,-0.71 -10.65,-2.48 -5.77,-1.76 -10.11,-4.88 -10.11,-4.88 0,0 4.94,-35.27 -1.02,-36.28 -4.46,-0.75 -7.21,33.8 -12.34,34.2 -5.12,0.4 -7.37,-10.18 -10.49,-9.61 -3.12,0.56 -0.05,13.89 -3.12,14.89 -9.3,3.03 -14.05,7.84 -18.85,13.13 -4.9,5.39 -9.42,1.53 -9.42,1.53 0,0 -0.4,-17.78 2.17,-16.9 2.56,0.88 1.99,5.6 6.08,2.96 4.08,-2.64 -3.76,-16.25 -6.4,-20.18 -2.65,-3.92 -2.57,-8.32 3.67,-5.12 6.25,3.2 7.62,15.53 10.66,8.49 3.04,-7.05 -1.84,-15.62 -6.65,-20.02 -4.8,-4.41 -10.33,-5.28 -10.33,-5.28 0,0 -2.74,-7.93 1.92,-11.9 6.99,-5.95 13.29,-6.48 13.29,-6.48 0,0 13.04,14.08 13.85,29.45 2.41,1.36 3.71,-0.9 4.31,-4.75 1.38,-8.87 -1.61,-27.46 2.9,-28.99 2.44,-0.83 10.88,-1.1 17.37,-0.72 5.45,0.31 6.96,2.7 8.24,6.87 1.29,4.16 -0.32,10.1 1.38,10.43 3,0.56 5.61,-2.97 6.97,-7.54 1.36,-4.56 3.14,-5.22 7.91,-4.94 3.02,0.18 6.52,1.57 12.71,5.28 8.11,4.88 -4.68,28.25 -7.48,32.58 -2.81,4.32 0.32,6.17 5.68,0.8 5.37,-5.36 10.97,-17.38 13.13,-21.78 2.16,-4.4 4.81,-4.33 9.77,-0.24 4.97,4.08 12.01,5.37 15.22,12.41 3.2,7.05 1.44,9.85 -0.8,13.62 -2.24,3.76 -1.6,5.04 0.48,5.04 2.08,0 4.81,-4.16 4.81,-4.16 0,0 3.3,-0.62 5.26,2.09 7.06,9.75 8.23,26.68 7.93,30.35 -0.42,5.23 -9.68,7.4 -15.29,8.51 -5.61,1.12 -5.84,9.39 -1.11,9.15 4.72,-0.24 7.96,-0.59 13.79,-1.53 6.68,-1.08 8.03,16.46 8.52,31.06 0.47,14.17 -2.09,25.06 -4.61,26.46 z m 8.81,-141.01 c -0.3,-3.51 -4.41,-30.62 -4.41,-30.62 0,0 -0.31,-2.44 4.72,-4.87 5.03,-2.44 7.77,-2.29 8.38,-1.83 0,0 1.52,9.29 0.91,15.38 -0.57,5.72 -1.18,18.7 -4.28,24.79 -0.78,0.82 -3.2,2.02 -4.11,2.59 -0.73,-1.16 -1.05,-3.63 -1.21,-5.44 z m -10.88,-45.63 c -11.25,14.39 -20.22,34.91 -22.08,37.48 -1.85,2.55 -6.68,4.55 -5.97,-1.14 0.71,-5.7 14.15,-44.49 23.69,-57.45 9.53,-12.95 32.63,-25.46 36.76,-26.6 6.83,4.41 8.82,14.52 7.4,17.8 0,0 -28.56,15.53 -39.8,29.91 z m 27.69,-105.46 c -3.13,3.43 -5.87,5.97 -5.87,5.97 0,0 -4.89,1.68 -6.21,1.31 -1.31,-0.36 -1.75,-1.38 -1.75,-1.38 0,0 5.07,-10.64 11.71,-20.57 6.65,-9.93 12.27,-14.61 12.27,-14.61 0.66,-0.51 5.04,-0.36 7.59,4.75 2.56,5.11 0.73,8.83 -3.72,12.05 -4.45,3.21 -10.88,9.05 -14.02,12.48 z m 0.53,-39.8 c -4.52,4.74 -11.11,15.94 -13.64,16.64 -2.54,0.69 -1.93,-1.43 -1.93,-1.43 -1.63,-17.63 -16.29,-188.67 -55.88,-303.849 3.24,-2.403 7.09,0.129 9.65,2.129 40.32,83.61 66.32,281.77 61.8,286.51 z M 1195.29,974.648 c -0.2,2.301 -4.13,6.524 -5.47,0.293 -1.34,-6.242 -6.05,-11.32 -12.66,-18.8 -6.62,-7.481 -24.36,-17.36 -32.89,-30.981 -8.54,-13.609 -5.28,-30.781 -5.28,-30.781 5.18,1.351 4.29,12.34 19.66,24.172 16.21,12.469 17.36,7.769 28.96,18.597 13.1,12.243 7.87,35.204 7.68,37.5 z m -61.1,-46.269 c 0,0 5.46,10.652 25.85,25.172 17.71,12.609 22.72,26.109 23.55,43.289 0.77,15.76 -5.26,21.34 -5.26,21.34 l -1.24,-0.96 c 0,0 1.84,-12.06 -10.3,-30.841 -8.96,-13.867 -20.5,-20.231 -25.17,-22.699 -4.68,-2.481 -8.94,-6.418 -9.9,-17.692 -0.97,-11.277 -0.97,-15.269 0.55,-18.019 1.51,-2.75 1.92,0.41 1.92,0.41 z m 10.52,74.971 c 1.19,8.72 -1.09,20.14 -5.04,29.13 -3.95,8.98 -11.43,14.29 -11.43,14.29 0,0 -3.23,-4.51 -3.28,-11.48 1.85,-5.11 7.67,-9.05 9.15,-18.28 1.12,-7.08 -2.02,-16.77 -10.58,-19.51 -2.14,-0.691 -3.3,0.43 -5.32,1.969 1.32,2.671 7.2,5.911 4.01,19.981 -4.85,0 -3.23,-13.21 -8.9,-13.48 -1.81,-0.09 -4.08,1.22 -4.52,4.17 2.34,3.42 7.11,13.79 6.82,25.38 -0.17,6.97 -1.46,11.25 -1.46,11.25 0,0 -7.04,-6.84 -10.98,-15.82 -3.95,-8.99 -6.69,-18.88 -5.49,-27.6 1.5,-10.881 11.64,-20.139 23.51,-20.139 11.86,0 22.01,9.258 23.51,20.139 z m -34.02,-57.362 c -0.97,11.274 -5.23,15.211 -9.91,17.692 -4.67,2.468 -16.2,8.832 -25.17,22.699 -12.14,18.781 -10.3,30.841 -10.3,30.841 l -1.24,0.96 c 0,0 -6.02,-5.58 -5.26,-21.34 0.83,-17.18 5.84,-30.68 23.55,-43.289 20.39,-14.52 25.85,-25.172 25.85,-25.172 0,0 0.41,-3.16 1.93,-0.41 1.51,2.75 1.51,6.742 0.55,18.019 z m -12.56,-20.828 c -8.54,13.621 -26.28,23.5 -32.9,30.981 -6.62,7.48 -11.31,12.558 -12.66,18.8 -1.34,6.231 -5.27,2.008 -5.47,-0.293 -0.19,-2.296 -5.42,-25.257 7.68,-37.5 11.6,-10.828 12.75,-6.128 28.96,-18.597 15.37,-11.832 14.48,-22.821 19.66,-24.172 0,0 3.26,17.172 -5.27,30.781 z m -137.622,410.8 c -0.145,3.7 -3.422,0.99 -4.418,-2.57 -0.996,-3.55 -3.649,-12.02 -12.496,-22.88 -12.528,-15.37 -40.219,-26.38 -40.219,-26.38 0,0 -0.746,-13.23 1.387,-17.64 2.136,-4.42 6.176,-2.41 6.176,-2.41 0,0 19.742,6.5 30.128,16.46 18.481,17.72 19.579,51.71 19.442,55.42 z m -17.156,-95.94 c 0.461,-28.1 22.304,-245.411 52.714,-318.149 1.164,-2.793 11.194,10.457 9.284,20.238 -0.68,3.539 -40.311,219.371 -30.709,359.841 0.07,1.01 -3.618,-1.93 -3.754,-2.27 -13.832,-33.96 -27.723,-48.29 -27.535,-59.66 z m 140.228,301.7 c 4.76,1 7.47,0.81 12.44,1.39 4.97,0.57 2.08,4.31 -0.1,5.2 -4.72,1.92 -11.17,3.9 -18.66,2.35 -5.49,-1.15 -15.52,-4.98 -13.44,-10.39 2.16,-5.63 11.87,-0.22 19.76,1.45 z m -88.017,-28.07 c -7.211,-21.33 1.871,-45.08 22.997,-52.22 21.12,-7.14 42.88,3.8 50.1,25.13 7.21,21.33 -0.66,45.63 -21.79,52.78 -21.12,7.14 -44.09,-4.36 -51.307,-25.69 z m 68.587,63.87 c -1.39,1.95 -6.98,8.57 -22.99,7.89 -6.62,-0.28 -32.68,-5.38 -27.49,-14.16 1.16,-1.97 7.6,-3.26 16.41,0.34 19.59,7.98 31.11,3.22 32.8,2.96 1.7,-0.25 2.54,1.19 1.27,2.97 z m -4.55,-10.19 c -8.5,-0.85 -15.72,-4.82 -27.66,-4.84 -5.4,-0.01 -1.94,-6.22 -0.46,-7.14 1.47,-0.92 7.25,-5.1 22.12,-0.23 13.11,4.28 15.23,4.04 22.95,3.27 5.16,-0.52 5.92,3.47 2.97,5.11 -3.33,1.85 -11.42,4.68 -19.92,3.83 z m 21.63,27.4 c -10.44,-6.1 -7.16,-17.59 -2.2,-21.41 3.49,-2.69 6.69,-0.3 6.85,1.7 -4.11,8.74 8.29,13.48 11.51,6.79 2.19,-1.15 4.5,1.32 3.92,4.94 -1.28,8.13 -11.85,12.8 -20.08,7.98 z m 60.48,18.03 c -0.74,6.99 -9.96,16.03 -20.5,16.03 -10.54,0 -19.77,-9.04 -20.51,-16.03 1.58,-2.22 3.64,-5.15 7.55,-2.23 2.92,2.18 6.41,5.76 12.96,5.76 6.55,0 10.03,-3.58 12.95,-5.76 3.92,-2.92 5.97,0.01 7.55,2.23 z m 19.42,-18 c -8.24,4.78 -18.8,0.06 -20.05,-8.06 -0.55,-3.63 1.77,-6.09 3.95,-4.93 3.19,6.7 15.61,2.02 11.53,-6.74 0.18,-2 3.39,-4.38 6.87,-1.67 4.94,3.84 8.16,15.34 -2.3,21.4 z m 1.72,-31.26 c -2.94,-1.64 -2.18,-5.63 2.98,-5.11 7.72,0.77 9.84,1.01 22.94,-3.27 14.88,-4.87 20.66,-0.69 22.13,0.23 1.48,0.92 4.94,7.13 -0.46,7.14 -11.94,0.02 -19.15,3.99 -27.66,4.84 -8.5,0.85 -16.58,-1.98 -19.93,-3.83 z m 38.37,21.91 c -16.01,0.68 -21.6,-5.94 -22.99,-7.89 -1.27,-1.78 -0.42,-3.22 1.27,-2.97 1.69,0.26 13.21,5.02 32.8,-2.96 8.81,-3.6 15.25,-2.31 16.41,-0.34 5.19,8.78 -20.87,13.88 -27.49,14.16 z m -27.48,-98.85 c 7.21,-21.33 28.96,-32.27 50.09,-25.13 21.12,7.14 30.21,30.89 22.99,52.22 -7.21,21.33 -30.18,32.83 -51.3,25.69 -21.13,-7.15 -29,-31.45 -21.78,-52.78 z m 4.82,53.71 c 2.08,5.41 -7.95,9.24 -13.45,10.39 -7.48,1.55 -13.93,-0.43 -18.65,-2.35 -2.18,-0.89 -5.07,-4.63 -0.1,-5.2 4.97,-0.58 7.68,-0.39 12.44,-1.39 7.89,-1.67 17.6,-7.08 19.76,-1.45 z m 59.36,-358.39 c -3.81,-1.23 -9.51,6.13 -13.58,13.08 -3.42,5.82 -7.55,15.44 -7.55,15.44 0,0 -7.95,-2.98 -5.36,-15.59 3.05,-14.84 17.49,-38.44 35.57,-30.42 10.06,4.46 7.65,20.63 1.92,33.33 -3.69,8.14 -8.83,15.16 -13.43,17.6 -3.57,-1.1 -2.93,-8.01 -2.43,-12.2 1.31,-11.03 8.67,-20.01 4.86,-21.24 z m -50.68,-14.9 c 14.91,2.72 18.58,16.16 12.26,28.81 -6.48,12.95 -10.01,11.19 -19.65,38.13 -1.91,5.35 -5.46,4.23 -5.46,4.23 0,0 -2.74,-12.53 1.55,-26.52 3.57,-11.65 9.27,-17.08 4.64,-19.3 -4.62,-2.22 -14.65,8.82 -18.79,18.37 -4.15,9.54 -7.22,25.79 -7.22,25.79 0,0 -5.03,-0.89 -5.79,-6.61 -1.19,-9.07 1.68,-69.62 38.46,-62.9 z m -54.16,-88.58 c -0.66,-13.19 14.5,-48.99 37.77,-39.45 21.63,8.88 1.76,44.94 -6.12,50.97 -5.49,4.2 -9.4,10.02 -9.4,10.02 0,0 -3.87,0.78 -5.55,-2.33 0.24,-16.11 14.78,-30.02 10.39,-31.86 -7.55,-3.18 -20.05,25.78 -20.05,25.78 0,0 -6.39,0.06 -7.04,-13.13 z m -11.88,21.76 c 20.73,0 31.82,28.28 30.79,51.26 -1.61,36.02 -11.51,34.84 -11.51,34.84 0,0 -1.43,-3.06 -1.13,-6.66 0.22,-2.63 3.23,-11.81 3.23,-20.6 0,-10.98 -4.37,-23.36 -7.18,-21.5 -1.67,1.11 -1.37,6.73 -1.27,11.58 0.11,6.17 0.24,11.29 -2.7,11.29 -3.17,0 -1.4,-7.84 -2.54,-20.33 -1.25,-13.71 -7.31,-21.76 -12.38,-17.63 0,0 3.21,5.3 3.01,19.06 -0.18,12.78 -2.35,25.78 -7.35,25.34 -7.41,-0.64 -1.76,-11.68 -4.88,-12.95 -3.12,-1.27 -5.94,1.37 -5.84,10.16 0.09,8.79 4.33,25.18 4.55,27.81 0.3,3.59 -2.32,6.99 -2.32,6.99 0,0 -11.67,-11.38 -13.28,-47.4 -1.03,-22.98 10.05,-51.26 30.8,-51.26 z m -49.67,-61.21 c 23.27,-9.54 38.43,26.26 37.77,39.45 -0.65,13.19 -7.04,13.13 -7.04,13.13 0,0 -12.5,-28.96 -20.05,-25.78 -4.39,1.84 10.15,15.75 10.39,31.86 -1.68,3.11 -5.56,2.33 -5.56,2.33 0,0 -3.9,-5.82 -9.39,-10.02 -7.88,-6.03 -27.75,-42.09 -6.12,-50.97 z m 16.03,224.6 c 4.13,-16.84 12.11,-33.26 33.63,-33.26 h 0.01 c 21.53,0 29.5,16.42 33.63,33.26 6.3,25.65 -1.8,65.46 -4.49,70.97 -2.71,5.51 -6.64,2.03 -6.64,2.03 0,0 5.86,-27.28 1.82,-43.61 -2.69,-10.93 -7.87,-14.74 -9.18,-8.29 -2.92,14.31 -1.78,27.38 -1.53,33.22 0.25,5.43 -3.54,11.14 -4.48,8.58 -3.94,-10.67 -10.29,-37.06 -5.87,-56.15 0.62,-2.67 1.56,-5.55 2.13,-8.13 0.62,-2.74 0.79,-5.15 -0.4,-6.64 -2.74,-3.41 -10.28,4.19 -12.15,10.9 -4.8,17.29 -0.12,34.22 -2.2,43.79 -0.58,2.67 -4.4,1.34 -4.45,-1.41 -0.11,-7.17 0.14,-14.28 -3.72,-14.51 -3.41,-0.2 -5.99,5.68 -7.01,15.09 -1.54,14.18 2.03,27.16 2.03,27.16 0,0 -3.93,3.48 -6.63,-2.03 -2.7,-5.51 -10.8,-45.32 -4.5,-70.97 z m 7.91,273.25 c -8.43,-5.05 -10.19,-10.46 -7.73,-12.19 7.42,-5.22 15.48,4.38 21.37,12.6 1.09,1.52 1.52,3.03 -0.14,3.92 -3.32,1.8 -10.77,-2.7 -13.5,-4.33 z m 25.73,68.5 c -9.37,0 -15.09,-8.71 -13.94,-15.58 1.14,-6.87 2.89,-8.75 4.26,-10.43 0.86,-1.05 3.33,0.08 2.85,1.6 -0.47,1.53 -1.57,11.2 6.83,11.2 8.38,0 7.29,-9.67 6.81,-11.2 -0.47,-1.52 2,-2.65 2.86,-1.6 1.36,1.68 3.12,3.56 4.26,10.43 1.14,6.87 -4.58,15.58 -13.93,15.58 z m 33.44,-80.69 c 2.46,1.73 0.7,7.14 -7.74,12.19 -2.72,1.63 -10.17,6.13 -13.5,4.33 -1.65,-0.89 -1.22,-2.4 -0.13,-3.92 5.89,-8.22 13.96,-17.82 21.37,-12.6 z m -39.88,-8.53 c 4.68,1.9 1.41,12.04 6.43,12.04 5.02,0 1.74,-10.14 6.43,-12.04 3.01,-1.21 5.5,1.33 5.29,4.58 -0.11,1.61 -2.65,17.39 -11.72,17.39 -9.08,0 -11.61,-15.78 -11.72,-17.39 -0.21,-3.25 2.29,-5.79 5.29,-4.58 z m -18.52,-42.06 c -8.63,-7.09 -3.86,-37.62 -0.77,-51.96 2.64,-12.31 11.59,-38.79 25.72,-48.63 14.13,9.84 23.08,36.32 25.72,48.63 3.09,14.34 7.87,44.87 -0.77,51.96 -8.63,7.09 -16.73,8.09 -17.12,6.47 -1.92,-8.04 -1.98,-22.09 -1.98,-46.92 0,-15.78 -3.81,-28.69 -5.85,-28.69 -2.04,0 -5.85,12.91 -5.85,28.69 0,24.83 -0.07,38.88 -1.98,46.92 -0.39,1.62 -8.49,0.62 -17.12,-6.47 z m -2.64,-244.14 c -0.75,5.72 -5.78,6.61 -5.78,6.61 0,0 -3.08,-16.25 -7.22,-25.79 -4.15,-9.55 -14.17,-20.59 -18.8,-18.37 -4.63,2.22 1.08,7.65 4.65,19.3 4.29,13.99 1.55,26.52 1.55,26.52 0,0 -3.56,1.12 -5.46,-4.23 -9.64,-26.94 -13.18,-25.18 -19.66,-38.13 -6.32,-12.65 -2.64,-26.09 12.27,-28.81 36.78,-6.72 39.65,53.83 38.45,62.9 z m -84.28,-26.76 c 0.5,4.19 1.14,11.1 -2.43,12.2 -4.6,-2.44 -9.742,-9.46 -13.421,-17.6 -5.742,-12.7 -8.149,-28.87 1.918,-33.33 18.073,-8.02 32.513,15.58 35.563,30.42 2.59,12.61 -5.36,15.59 -5.36,15.59 0,0 -4.13,-9.62 -7.55,-15.44 -4.07,-6.95 -9.77,-14.31 -13.58,-13.08 -3.81,1.23 3.56,10.21 4.86,21.24 z m 51.12,-53.02 c -0.34,0.2 -1.58,0.2 -1.58,0.2 -3.74,-2.04 -10.51,-12.26 -13.91,-15.47 -3.64,-3.42 -8.89,-13.29 -11.27,-15.57 -2.4,-2.28 -4.81,-0.07 -5.17,0.93 -0.36,1.02 4.24,9.53 6.84,13.58 2.59,4.04 8.25,24.08 8.25,24.08 -0.73,1.87 -3.11,0.94 -3.11,0.94 0,0 -7.05,-7.16 -18.98,-20.12 -20.81,-22.62 -25.295,-37.95 -11.2,-47.49 7.91,-5.35 21.71,-1.45 35.36,13.06 15.46,16.44 17.2,41.92 14.77,45.86 z m -34.13,-139.96 h -2.23 c -1.39,-7.85 -5.22,-40.968 -5.22,-52.519 0,-10.082 2.89,-16.641 7.45,-16.641 4.55,0 7.45,6.379 7.45,16.731 0,10.34 -7.45,52.429 -7.45,52.429 z m 14.51,30.81 c 6.73,8.25 10.42,18.09 10.8,19.19 1.32,3.84 1.1,5.11 -0.72,7.15 0,0 -14.97,-23.3 -20.19,-19.39 -5.23,3.9 11.88,29.25 11.88,29.25 -0.76,0.82 -1.66,2.34 -5.63,-0.3 -1.89,-1.26 -11.91,-7.72 -18.32,-16.14 -7,-9.19 -9.78,-20.9 -2.7,-27.98 7.04,-7.03 17.61,-0.68 24.88,8.22 z m 191.25,50.23 c 14.1,9.54 9.61,24.87 -11.2,47.49 -11.93,12.96 -18.98,20.12 -18.98,20.12 0,0 -2.38,0.93 -3.11,-0.94 0,0 5.66,-20.04 8.25,-24.08 2.59,-4.05 7.2,-12.56 6.84,-13.58 -0.36,-1 -2.77,-3.21 -5.17,-0.93 -2.38,2.28 -7.63,12.15 -11.27,15.57 -3.4,3.21 -10.17,13.43 -13.91,15.47 0,0 -1.24,0 -1.58,-0.2 -2.43,-3.94 -0.68,-29.42 14.77,-45.86 13.65,-14.51 27.45,-18.41 35.36,-13.06 z m -13.77,-81.04 h -2.23 c 0,0 -7.45,-42.089 -7.45,-52.429 0,-10.352 2.9,-16.731 7.45,-16.731 4.56,0 7.45,6.559 7.45,16.641 0,11.551 -3.83,44.669 -5.22,52.519 z m 8.14,22.59 c 7.08,7.08 4.29,18.79 -2.7,27.98 -6.41,8.42 -16.43,14.88 -18.32,16.14 -3.97,2.64 -4.87,1.12 -5.63,0.3 0,0 17.11,-25.35 11.89,-29.25 -5.23,-3.91 -20.2,19.39 -20.2,19.39 -1.82,-2.04 -2.04,-3.31 -0.71,-7.15 0.37,-1.1 4.06,-10.94 10.79,-19.19 7.27,-8.9 17.84,-15.25 24.88,-8.22 z m 74.88,247.81 c 10.4,-9.96 30.14,-16.46 30.14,-16.46 0,0 4.03,-2.01 6.17,2.41 2.13,4.41 1.39,17.63 1.39,17.63 0,0 -27.7,11.02 -40.23,26.39 -8.85,10.86 -11.5,19.33 -12.49,22.88 -1,3.56 -4.27,6.27 -4.42,2.57 -0.14,-3.71 0.96,-37.7 19.44,-55.42 z m -29.82,19.14 c -0.13,0.34 -3.82,3.28 -3.75,2.27 9.6,-140.47 -30.03,-356.302 -30.72,-359.841 -1.9,-9.781 8.13,-23.031 9.29,-20.238 30.41,72.738 52.26,290.049 52.72,318.149 0.18,11.37 -13.71,25.7 -27.54,59.66 z m -18.03,53.61 c -4.89,-2.26 -17.71,18.4 -17.71,18.4 0,0 -5.5,1.83 -4.1,-6.1 1.75,-9.86 16.57,-43.86 33.94,-36 16.84,7.62 -2.89,40.62 -6.55,44.2 -1.66,1.62 -5.4,4.01 -6.89,1.21 0,0 6.09,-19.48 1.31,-21.71 z m -20.06,-41.93 c 0,0 -3.26,-2.37 -9.11,9.89 -5.85,12.26 -7.87,22.5 -8.32,25.3 -0.45,2.82 -2.93,3.72 -3.83,1.24 -0.9,-2.47 -1.01,-26.54 8.32,-42.85 9,-15.72 18.56,-18.11 26.21,-13.38 7.65,4.72 -1.8,19.34 -4.83,24.4 -3.04,5.06 -3.83,11.48 -3.83,11.48 0,0 -6.3,8.43 -8.21,6.74 0,0 -1.24,-6.29 0.79,-12.82 2.02,-6.52 2.81,-10 2.81,-10 z m -13.68,-52.64 c -5.4,-0.12 -9.45,3.71 -16.87,11.69 -7.43,7.99 -16.31,20.36 -16.31,20.36 0,0 -2.36,0.34 -2.25,-3.71 0.11,-4.05 5.06,-27.67 19.12,-42.52 14.06,-14.84 28.39,-16 35.65,-10.23 11.48,9.11 8.17,25.78 -1.12,32.39 -11.7,8.32 -20.02,15.86 -23.06,21.37 -3.03,5.51 -6.07,3.15 -6.07,3.15 0,0 -0.22,-5.06 3.04,-14.17 3.26,-9.11 13.27,-18.22 7.87,-18.33 z m -36.78,76.88 c -11.28,-3.99 -22.95,26.49 -22.95,26.49 0,0 -4.38,0.04 -4.04,-4.01 2.89,-34.7 27.55,-47.35 36.32,-43.19 5.79,2.74 10.92,9.22 5.85,23.61 -3.34,9.51 -9.84,16.54 -14.33,19.66 -2.95,2.05 -4.93,1.73 -4.93,1.73 0,0 9.48,-22.38 4.08,-24.29 z m -119.43,24.29 c 0,0 -1.98,0.32 -4.93,-1.73 -4.49,-3.12 -11,-10.15 -14.33,-19.66 -5.06,-14.39 0.06,-20.87 5.84,-23.61 8.78,-4.16 33.44,8.49 36.33,43.19 0.34,4.05 -4.02,4.03 -4.02,4.03 0,0 -11.69,-30.5 -22.97,-26.51 -5.4,1.91 4.08,24.29 4.08,24.29 z m -32.98,-82.84 c 3.26,9.11 3.03,14.17 3.03,14.17 0,0 -3.03,2.36 -6.07,-3.15 -3.04,-5.51 -11.36,-13.05 -23.06,-21.37 -9.292,-6.61 -12.6,-23.28 -1.12,-32.39 7.26,-5.77 21.59,-4.61 35.65,10.23 14.06,14.85 19.01,38.47 19.12,42.52 0.11,4.05 -2.25,3.71 -2.25,3.71 0,0 -8.88,-12.37 -16.31,-20.36 -7.42,-7.98 -11.47,-11.81 -16.87,-11.69 -5.4,0.11 4.61,9.22 7.88,18.33 z m -21.56,34.31 c 0,0 0.79,3.48 2.81,10 2.03,6.53 0.79,12.82 0.79,12.82 -1.91,1.69 -8.21,-6.74 -8.21,-6.74 0,0 -0.79,-6.42 -3.83,-11.48 -3.032,-5.06 -12.477,-19.68 -4.829,-24.4 7.649,-4.73 17.209,-2.34 26.199,13.38 9.34,16.31 9.23,40.38 8.33,42.85 -0.9,2.48 -3.38,1.58 -3.82,-1.24 -0.45,-2.8 -2.48,-13.04 -8.33,-25.3 -5.85,-12.26 -9.11,-9.89 -9.11,-9.89 z M 990.227,1375 c -1.477,2.8 -5.227,0.41 -6.887,-1.21 -3.664,-3.58 -23.399,-36.58 -6.543,-44.2 17.359,-7.86 32.183,26.14 33.933,36 1.4,7.93 -4.1,6.1 -4.1,6.1 0,0 -12.821,-20.66 -17.708,-18.4 -4.781,2.23 1.305,21.71 1.305,21.71 z M 970.715,916.801 c 2.551,-1.992 6.058,-2.653 9.305,-0.25 -39.594,115.179 -54.247,286.219 -55.872,303.849 0,0 0.598,2.12 -1.937,1.43 -2.531,-0.7 -9.121,-11.9 -13.637,-16.64 -4.523,-4.74 21.199,-195.43 62.141,-288.389 z m -80.703,343.439 c 0.871,13.01 -0.692,26.89 -0.692,26.89 0,0 -10.062,12.66 -8.324,26.36 1.731,13.7 14.395,23.24 14.395,23.24 0,0 4.16,26.89 8.672,61.23 4.511,34.34 11.625,60.36 11.625,60.36 0,0 -3.836,22.47 -1.911,47.53 2.489,32.36 20.348,62.2 19.032,74.05 -2.274,20.47 -10.805,18.68 -15.571,53.96 -4.004,29.69 13.364,49.96 13.364,49.96 0,0 5.203,-25.15 17.519,-30.01 12.317,-4.86 17.344,-0.52 31.227,-1.39 6.75,-0.42 17.683,-1.21 32.082,-8.49 23.76,13.87 31.05,12.65 51.69,11.61 20.64,-1.04 22.03,0.35 39.89,4.69 2.19,0.52 10.81,2.63 18.18,2.4 7.38,0.23 16,-1.88 18.18,-2.4 17.87,-4.34 19.25,-5.73 39.89,-4.69 20.65,1.04 27.93,2.26 51.69,-11.61 14.4,7.28 25.34,8.07 32.09,8.49 13.88,0.87 18.91,-3.47 31.23,1.39 12.31,4.86 17.52,30.01 17.52,30.01 0,0 17.36,-20.27 13.36,-49.96 -4.77,-35.28 -13.3,-33.49 -15.57,-53.96 -1.32,-11.85 16.54,-41.69 19.03,-74.05 1.93,-25.06 -1.91,-47.53 -1.91,-47.53 0,0 7.11,-26.02 11.63,-60.36 4.5,-34.34 8.67,-61.23 8.67,-61.23 0,0 12.66,-9.54 14.39,-23.24 1.74,-13.7 -8.32,-26.36 -8.32,-26.36 0,0 -1.57,-13.88 -0.7,-26.89 0.87,-13.01 0,-15.61 2.95,-20.12 2.95,-4.51 9.72,-9.89 9.89,-18.39 0.18,-8.5 -11.89,-15.5 -14.19,-19.38 -6.06,-64.5 -39.48,-241.51 -70.57,-298.069 11.45,-16.48 12.95,-30.793 8.97,-56 5.08,-2.551 10.02,-5.511 14.71,-8.972 l 25.8,-18.989 c -15.07,-4.59 -29.5,-11.468 -42.35,-21.218 -17.05,-12.93 -67.45,-52.711 -67.45,-52.711 l -15.51,11.519 -65.31,48.07 c -2.05,3.571 -5.46,13.399 -5.64,22.079 6.89,14.742 8.68,37.222 6.32,40.64 -1.34,1.942 -7.99,-3.469 -13.3,-11.808 -4.25,-6.68 -5.5,-6.422 -5.5,-6.422 0,0 -1.24,-0.258 -5.49,6.422 -5.31,8.339 -11.96,13.75 -13.3,11.808 -2.36,-3.418 -0.57,-25.898 6.32,-40.64 -0.18,-8.668 -3.45,-16.957 -5.48,-21.34 l 157.61,-113.047 c -0.04,-0.024 -25.98,-17.141 -25.98,-17.141 0,0 0,0 -53.6,36.168 -21.24,14.332 -36.41,24.629 -59.83,24.629 -20.08,0 -39.36,-9.098 -56.35,-19.398 l -110.281,81.172 c -12.989,9.558 -27.278,16.628 -42.348,21.218 l 25.797,18.989 c 4.695,3.461 9.625,6.421 14.711,8.972 -3.977,25.207 -2.485,39.52 8.969,56 -31.09,56.559 -64.512,233.569 -70.571,298.069 -2.301,3.88 -14.363,10.88 -14.187,19.38 0.168,8.5 6.933,13.88 9.886,18.39 2.946,4.51 2.082,7.11 2.946,20.12 z m 44.644,374.43 c -0.765,1.47 -0.804,4.03 0.977,4.29 3.242,-2.94 5.73,-4.66 9.972,-6.23 6.586,-2.46 12.106,-3.45 21.325,-3.45 5.109,0 11.465,-0.48 16.207,-2.83 2.179,-1.08 5.758,-6.71 8.66,-10.77 2.285,-3.2 -0.371,-6.66 -1.168,-5.93 -4.891,4.46 -9.598,8.16 -29.285,8.05 -19.442,-0.12 -26.141,15.81 -26.688,16.87 z M 1188.9,1489.32 c -3.75,8.42 -0.76,14.35 1.55,9.16 5.11,-11.46 17.37,-16.59 28.22,-11.75 10.84,4.83 14.29,18.32 9.18,29.79 -1.27,2.83 4.04,0.4 6.56,-5.25 6.22,-13.95 2.03,-30.37 -11.17,-36.25 -13.21,-5.88 -28.12,0.35 -34.34,14.3 z m 61.69,126.36 c 2.91,4.06 6.48,9.69 8.66,10.77 4.75,2.35 11.1,2.83 16.21,2.83 9.22,0 14.74,0.99 21.33,3.45 4.23,1.57 6.73,3.29 9.97,6.23 1.78,-0.26 1.74,-2.82 0.97,-4.29 -0.54,-1.06 -7.24,-16.99 -26.68,-16.87 -19.69,0.11 -24.4,-3.59 -29.29,-8.05 -0.8,-0.73 -3.45,2.73 -1.17,5.93 z m -532.246,-894.5 79.711,56.582 c 42.039,30.937 98.191,29.34 141.359,0 C 1046.57,704.91 1046.57,704.91 1046.57,704.91 l -38.81,-28.558 -21.881,16.097 c -18.863,13.891 -41.215,21.223 -64.637,21.223 -23.422,0 -45.769,-7.332 -64.633,-21.223 -49.949,-36.75 -53.515,-39.379 -53.769,-39.57 -29.574,19.672 -57.383,41.992 -82.856,66.742 -0.543,0.527 -1.101,1.039 -1.64,1.559 z m 289.636,790.09 c 2.52,5.65 7.82,8.08 6.56,5.25 -5.11,-11.47 -1.66,-24.96 9.18,-29.79 10.85,-4.84 23.11,0.29 28.21,11.75 2.32,5.19 5.31,-0.74 1.56,-9.16 -6.22,-13.95 -21.13,-20.18 -34.34,-14.3 -13.2,5.88 -17.39,22.3 -11.17,36.25 z M 822.203,640.469 c 0.254,0.172 3.563,2.371 47.133,31.332 31.926,21.219 72.269,21.777 103.812,0 118.542,-81.852 154.592,-106.742 165.572,-114.332 -110.7,-3.981 -221.982,25.551 -316.517,83 z m 348.457,54.121 c 103.99,-71.129 138.25,-94.551 149.55,-102.289 -49.03,-17.813 -100.11,-29.071 -152.22,-33.223 -27.26,19.211 -113.82,83.102 -142.11,103.934 l 43.65,32.136 c 30.88,22.723 69.49,21.082 101.13,-0.558 z m 126.98,82.832 c 42.73,29.988 99.33,30.937 141.37,-0.012 l 84.82,-56.43 c -25.94,-25.3 -54.22,-48.179 -84.55,-68.269 -1.34,0.867 -9.31,6.078 -57.03,37.187 -21.25,13.864 -37.68,23.434 -61.1,23.434 -15.47,0 -30.45,-3.262 -44.28,-9.441 l -40.79,30.308 c 0,0 0,0 61.56,43.223 z m 66.03,-99.731 c 38.88,-23.211 53.68,-32.05 59.33,-35.421 -26.59,-16.29 -54.63,-30.84 -83.84,-42.5 -5.04,3.71 -76.12,56.031 -83.51,61.46 l 13.59,10.571 c 30.88,22.719 61.51,25.539 94.43,5.89 z m 590.81,456.169 c 0,-459.532 -373.86,-833.391 -833.39,-833.391 -459.535,0 -833.395,373.859 -833.395,833.391 0,459.53 373.86,833.39 833.395,833.39 459.53,0 833.39,-373.86 833.39,-833.39 z m 17,0 c 0,468.91 -381.48,850.39 -850.39,850.39 -468.91,0 -850.395,-381.48 -850.395,-850.39 0,-468.911 381.485,-850.391 850.395,-850.391 468.91,0 850.39,381.48 850.39,850.391 z M 1845.49,949.109 c -23.11,7.551 -42.15,-2.918 -56.64,-15.148 l -18.52,-15.492 c -8.53,-7.18 -22.56,-15.508 -36.68,-10.91 -11.19,3.652 -25.33,13.929 -17.54,37.769 7.62,23.352 25.58,24.762 38.29,24.113 1.85,0.739 2.4,4.868 1.25,6.321 -10.21,3.328 -24.55,5.59 -31.11,5.308 -0.63,-1.949 -2.23,-5.191 -4.24,-8.031 -3.76,-5.769 -8.08,-14.051 -10.54,-21.598 -10.34,-31.621 2.52,-55.742 25.63,-63.293 19.95,-6.519 38.43,3.071 50.43,12.614 l 22.63,18.187 c 17.23,14.02 29.86,12.321 40.57,8.821 14.6,-4.758 24.72,-19.11 18.05,-39.54 -9.22,-28.23 -36.32,-30.41 -49.92,-30.011 -1.77,-0.5 -2.48,-4.309 -1.17,-6.078 11.59,-3.243 29.89,-5.719 36.2,-4.551 4.19,3.75 14.72,14.57 21.4,35.012 10.32,31.617 -1.33,57.777 -28.09,66.507 z M 1742.46,713.43 c 22.67,-14.899 25.39,-17.301 18.58,-30.91 l -2.87,-5.77 c 0.44,-2.129 4.14,-3.949 5.63,-3.09 6.6,10.981 11.17,18.399 17.08,27.379 5.63,8.563 10.62,15.691 18.09,26.109 0.2,1.692 -3.37,4.653 -5.07,3.93 l -4.16,-4.93 c -9.79,-11.628 -13.07,-10.089 -35.74,4.821 l -76.14,50.082 c -22.68,14.91 -26.03,17.73 -18.8,31.051 l 3.09,5.628 c -0.01,1.84 -4.14,3.95 -5.63,3.09 -6.61,-10.968 -11.17,-18.379 -16.8,-26.941 -5.91,-8.981 -10.91,-16.117 -18.37,-26.527 -0.2,-1.711 3.37,-4.672 5.07,-3.954 l 3.94,5.063 c 9.37,11.918 13.29,9.961 35.96,-4.949 z m -89.12,-104.258 c -16.16,18.18 -37.88,18.719 -56.57,15.469 l -23.8,-4.039 c -10.99,-1.891 -27.32,-2.032 -37.18,9.07 -7.82,8.797 -14.86,24.797 3.89,41.469 18.36,16.32 34.58,8.488 45.23,1.507 1.98,-0.289 4.53,3 4.27,4.832 -7.14,8.04 -18.39,17.219 -24.19,20.282 -1.53,-1.371 -4.55,-3.371 -7.72,-4.813 -6.16,-3.078 -14.07,-8.051 -19.99,-13.328 -24.87,-22.109 -25.93,-49.422 -9.77,-67.59 13.94,-15.691 34.73,-16.722 49.9,-14.543 l 28.72,4.301 c 21.96,3.43 32.01,-4.418 39.49,-12.828 10.21,-11.481 11.72,-28.973 -4.35,-43.262 -22.19,-19.73 -46.7,-7.949 -58.24,-0.75 -1.78,0.473 -4.31,-2.461 -4.08,-4.66 8.38,-8.641 22.94,-20.008 28.97,-22.18 5.51,1.121 20.07,5.172 36.14,19.45 24.86,22.113 27.98,50.57 9.28,71.613 z M 1441.1,524.711 c -4.39,10.93 -16.69,40.187 -16.08,50.359 0.19,2.282 4.17,6.09 11.3,10.328 l 3.13,1.813 c 0.86,1.988 -0.48,5.32 -2.86,5.75 -7.88,-3.723 -13.96,-6.441 -24.18,-10.539 -9.02,-3.621 -17.19,-6.621 -28.31,-10.543 -1.61,-1.469 -0.32,-5.367 1.91,-6.129 l 4.23,1.148 c 9.98,2.633 14.35,2.731 16.63,1.161 7.38,-5.309 20.01,-36.098 24.49,-47.25 l 20.41,-50.84 c 2,-4.981 3.52,-8.778 3.05,-10.348 l -0.47,-0.191 c -15.74,6.922 -32.72,15.539 -56.45,27.261 l -33.44,16.641 c -11.36,5.629 -51.97,25.727 -61.59,35.949 -2.9,-1.722 -6.84,-3.582 -10.64,-5.101 -4.27,-1.719 -16.86,-6.782 -27.12,-10.071 -1.52,-1.711 -0.09,-5.269 1.91,-6.129 l 4.22,1.149 c 5.99,1.57 12.36,2.199 17.02,0.211 7.18,-3.461 9.42,-8.36 12.09,-15 l 27.55,-68.641 c 4.58,-11.41 16.45,-40.289 16.56,-50.179 -0.14,-3.079 -3.37,-6.032 -8.54,-8.942 l -6.13,-3.277 c -0.85,-2 0.72,-5.231 2.86,-5.75 8.12,3.808 14.44,6.621 24.42,10.629 8.78,3.519 17.19,6.621 28.07,10.441 1.18,1.859 0.28,4.801 -1.91,6.129 l -7.65,-2.238 c -6.13,-1.922 -11.45,-2.403 -13.92,-0.352 -6.9,5.5 -19.53,36.281 -24.02,47.449 l -20.78,51.782 c -2.86,7.121 -4.82,12.679 -5.01,15.91 l 0.47,0.187 c 7.09,-3.218 31.06,-16.207 40.43,-21 l 80.27,-40.59 c 30.11,-15.207 40.33,-20.757 44.8,-23.66 2.61,1.051 3.56,2.813 3.47,4.434 -3.19,5.887 -14.54,34.148 -17.4,41.277 z m -352.26,-142.09 c 0.43,-26.859 -0.78,-30.711 -15.35,-32.23 l -8.43,-0.903 c -1.51,-1.566 -0.93,-5.648 0.62,-6.386 15.08,0.75 23.78,1.148 34.78,1.32 l 23.03,0.379 c 22.77,0.371 45.54,0.488 68.58,0.347 3.21,6.954 9.29,26.762 10.93,35.75 -1.06,2.282 -4.65,2.993 -6.42,1.68 -6.44,-13.406 -13.2,-22.476 -17.76,-25.109 -5.59,-2.91 -12.99,-4.047 -32.69,-4.367 -22.52,-0.372 -27.93,2.359 -31.05,5.378 -4.17,4.29 -5.08,12.969 -5.3,26.54 l -0.58,36.058 c -0.11,6.66 0.65,6.934 8.33,7.051 l 14.84,0.25 c 9.98,0.16 16.12,0 19.72,-0.957 5.14,-1.211 6.99,-5.012 8.09,-9.602 l 2.46,-9.941 c 1.31,-1.52 5.66,-1.438 6.65,0.371 -0.09,5.609 -1.27,15.309 -1.42,24.52 -0.16,9.718 0.7,19.71 0.6,25.851 -1.05,1.801 -5.4,1.731 -6.65,0.168 l -1.88,-10.519 c -1.18,-6.418 -2.94,-7.981 -5.99,-9.051 -3.06,-1.071 -10.98,-1.719 -21.73,-1.891 l -14.84,-0.246 c -7.67,-0.121 -8.44,-0.133 -8.55,7.039 l -0.83,51.16 c -0.16,9.731 -0.17,10.239 7.5,10.36 l 18.43,0.3 c 11.25,0.18 19.44,0.059 24.84,-1.132 13.35,-3.118 15.8,-12.028 19.84,-23.989 1.3,-1.511 5.38,-0.941 6.38,0.61 -1.2,11.25 -3.04,29.64 -4.64,33.968 -3.06,-0.816 -18.15,-1.07 -34.53,-1.328 l -48.1,-0.781 c -10.49,-0.168 -19.19,-0.059 -30.2,0.281 -1.52,-0.8 -1.96,-5.41 -0.41,-6.41 l 4.1,-0.449 c 15.13,-1.539 15.7,-5.371 16.13,-31.981 z M 964.156,398.41 c 3.903,12.449 6.285,19.211 16.926,17.231 l 4.059,-0.743 c 2.168,0.934 3.07,4.672 1.668,6.18 -8.215,2.031 -16.594,4.383 -26.118,7.363 -14.41,4.508 -27.761,8.957 -34.691,11.661 -1.937,-0.18 -3.559,-4.5 -1.91,-6.09 l 10.363,-4.582 c 14.606,-6.45 14.879,-8.149 8.457,-28.66 L 939.852,391 c -2.446,-7.809 -5.039,-11.82 -6.797,-13.148 -3.989,-3.313 -14.016,-3.661 -29.16,1.078 -49.082,15.371 -61.715,59.808 -47.036,106.691 11.461,36.629 42.774,63.84 90.145,49.008 24.91,-7.801 40.629,-21.84 39.207,-50.348 1.008,-1.929 5.48,-3.062 6.824,-1.332 2.387,15.34 4.899,28.5 7.425,36.563 -3.089,0.429 -10.12,4.508 -14.456,6.929 -3.844,2.278 -15.945,9.008 -29.867,13.368 -36.875,11.55 -64.645,7.632 -86.36,-4.329 -20.183,-11.378 -33.593,-30.242 -40.093,-51 -6.723,-21.492 -4.95,-43.23 5.113,-62.468 12.844,-24.93 36.937,-41.332 66,-50.422 13.187,-4.129 31.687,-6.699 45.699,-7.328 5.024,-0.242 9.723,-0.641 12.652,-1.551 1.207,0.43 1.668,1.891 1.161,2.848 -3.86,3.089 -3.489,9.41 -0.43,19.179 z M 728.332,633.469 c 4.172,5.82 5.395,6.211 18.297,-3.02 23.101,-16.539 22.125,-39.449 10.355,-55.89 -10.129,-14.149 -20.129,-18.008 -28.879,-18.36 -9.308,-0.25 -17.812,4.571 -25.304,9.942 -10.613,7.597 -13.438,10.25 -13.617,11.32 -0.028,1.269 1.613,3.57 4.293,7.309 z m -84.098,-81.438 c -15.64,-21.851 -17.996,-24.261 -31.109,-17.07 l -5.648,3.098 c -2.289,-0.571 -4.11,-3.989 -3.309,-5.508 10.078,-6.582 17.723,-11.742 26.461,-17.992 8.324,-5.957 15.254,-11.227 24.316,-18.36 1.7,-0.258 4.649,2.981 4.141,4.91 l -3.922,3.762 c -10.879,10.301 -9.508,13.098 6.137,34.938 l 18.769,26.23 c 3.129,4.371 3.692,4.281 13.059,-2.418 8.32,-5.961 10.164,-10.43 10.008,-17.242 -0.25,-13.981 -1.996,-34.449 -2.102,-46.02 -0.265,-31.597 6.621,-44.398 24.313,-57.058 3.957,-2.832 7.582,-4.801 9.902,-5.52 1.637,0.09 2.621,1.91 1.879,3.071 -5.324,4.437 -8.891,10.449 -10.191,16.097 -5.661,21.992 -4.774,46.539 -2.208,85.301 0.153,2.41 0.602,5.238 2.536,5.738 13.386,-3.277 36.742,-3.636 50.894,16.141 10.426,14.57 9.844,29.152 3.578,41.5 -5.847,12.051 -17.383,21.891 -30.285,31.121 -20.394,14.602 -35.199,24.25 -47.601,31.551 -2.262,0.359 -4.645,-2.973 -3.934,-5.051 l 6.066,-5.602 c 7.789,-7.148 5.879,-11.128 -8.269,-30.898 z M 495.277,717.172 c -21.488,-16.141 -25.324,-17.422 -35.109,-6.524 l -5.688,6.293 c -2.148,0.309 -5.117,-2.562 -4.804,-4.25 9.472,-11.769 14.906,-18.57 21.512,-27.371 l 13.832,-18.422 c 13.683,-18.207 27.156,-36.578 40.578,-55.308 7.523,1.488 27.121,8.211 35.363,12.16 1.227,2.191 -0.313,5.52 -2.41,6.191 -14.637,-2.679 -25.949,-2.531 -30.766,-0.382 -5.629,2.812 -10.906,8.132 -22.742,23.89 -13.523,18.012 -14.5,24 -13.887,28.289 1.02,5.891 7.516,11.731 18.364,19.883 l 28.855,21.668 c 5.32,4 5.988,3.531 10.598,-2.609 l 8.914,-11.86 c 5.996,-7.988 9.476,-13.05 10.812,-16.531 2.047,-4.859 0.055,-8.598 -3.011,-12.18 l -6.598,-7.839 c -0.461,-1.95 2.148,-5.418 4.195,-5.168 4.508,3.378 11.668,10.039 19.035,15.57 7.778,5.84 16.371,11.008 21.285,14.699 0.817,1.899 -1.796,5.379 -3.792,5.488 l -9.618,-4.668 c -5.886,-2.82 -8.191,-2.312 -10.855,-0.472 -2.66,1.851 -7.836,7.883 -14.289,16.48 l -8.914,11.86 c -4.614,6.14 -5.074,6.761 0.656,11.07 l 40.934,30.73 c 7.777,5.84 8.187,6.153 12.793,0.012 l 11.07,-14.73 c 6.758,-9.012 11.473,-15.711 13.676,-20.782 5.332,-12.64 -0.446,-19.859 -7.758,-30.148 -0.461,-1.949 2.41,-4.922 4.25,-4.813 8.39,7.582 22.203,19.883 24.762,23.711 -2.457,1.993 -11.528,14.071 -21.364,27.172 l -28.894,38.481 c -6.301,8.386 -11.321,15.5 -17.52,24.609 -1.539,0.758 -5.531,-1.601 -5.426,-3.43 l 2.051,-3.589 c 7.637,-13.153 4.871,-15.872 -16.414,-31.852 z m 21.059,219.488 c 4.32,1.59 5.875,1.07 7.48,-1.07 1.754,-1.801 3.563,-5.238 5.5,-10.52 6.715,-18.25 4.278,-39.05 -19.261,-47.699 -22.575,-8.312 -34.637,2.25 -44.606,26.399 -4.984,12.07 -4.594,12.48 2.129,14.96 z m -68.93,-25.351 c 4.805,1.769 6.598,1.332 11.367,-11.629 14.043,-38.192 -4.519,-55.918 -23.492,-62.899 -24.019,-8.832 -39.629,3.969 -47.492,25.34 -2.648,7.207 -4.098,14.848 -0.25,21.449 3.606,6.5 15.676,11.489 24.32,14.668 z m -46.39,5.3 c -25.215,-9.281 -28.036,-9.769 -34.875,2.172 l -2.313,4.059 c -1.973,0.898 -5.637,-0.988 -5.828,-2.692 3.508,-8.796 6.992,-16.789 10.879,-27.347 3.711,-10.082 7.316,-22.121 9.875,-29.082 15.898,-43.239 42.226,-57.008 70.086,-46.758 25.699,9.449 30.644,33.07 28.273,46.93 -0.492,2.82 -0.476,5 1.926,5.89 12.024,-11.941 24.617,-18.761 41.91,-12.402 15.371,5.66 22.063,17.109 23.313,29.293 1.547,12.84 -2.551,27.687 -8.114,42.816 -8.214,22.34 -14.941,38.403 -20.914,50.934 -1.664,1.566 -5.355,0.488 -6.089,-1.973 l 2.105,-7.949 c 3.016,-11.16 -1.195,-13.789 -18.969,-20.328 z M 1783.83,1181.41 c 24.07,3.5 36.47,21.35 44.03,38.74 l 9.71,22.12 c 4.46,10.22 13.33,23.93 28.02,26.07 11.66,1.7 28.89,-1.22 32.51,-26.06 3.54,-24.31 -11.92,-33.55 -23.61,-38.61 -1.33,-1.49 0.02,-5.43 1.69,-6.22 10.64,1.55 24.49,5.9 30.24,9.06 -0.3,2.02 -0.31,5.65 0.23,9.08 0.81,6.85 1,16.19 -0.14,24.05 -4.8,32.92 -27.03,48.82 -51.1,45.32 -20.77,-3.03 -33.07,-19.82 -39.58,-33.7 l -12.2,-26.35 c -9.22,-20.23 -21.3,-24.32 -32.44,-25.94 -15.2,-2.21 -30.65,6.14 -33.74,27.42 -4.28,29.38 19.03,43.39 31.39,49.06 1.38,1.25 0.31,4.97 -1.64,5.98 -11.83,-2.24 -29.34,-8.16 -34.47,-12.01 -2.08,-5.22 -6.72,-19.6 -3.62,-40.88 4.8,-32.93 26.86,-51.19 54.72,-47.13 z m 4.12,287.26 c 8.13,0.83 14.77,1.21 16.26,1.08 l 0.22,-0.47 c -2.09,-2.72 -7.29,-7.81 -11.93,-12.33 l -31.47,-30.66 c -5.2,-5.09 -6.35,-5.08 -9.59,1.6 l -13.76,28.3 c -3.13,6.44 -3.01,6.79 3.18,7.52 z m -71.81,-85.82 c -4.63,-4.53 -8.21,-7.69 -10.74,-8.92 -2.3,-1.12 -5.25,1.44 -8.06,6.04 l -3.93,6.34 c -1.94,1.06 -5.5,-0.97 -5.53,-3.26 3.47,-6.58 8.18,-15.1 13.55,-26.14 5.03,-10.36 8.72,-18.53 12.84,-28.19 1.48,-0.68 5.39,0.65 5.76,2.82 l -2.33,6.55 c -3.66,10.45 -1.66,15.12 14.89,31.42 l 77.19,76.48 c 8.44,8.38 17.24,17.21 25.91,25.12 1.39,1.24 1.07,3.07 0.4,4.46 -4.22,1.07 -10.27,2.97 -14.56,7.71 -3.35,-2.48 -8.39,-3.23 -18.24,-4.03 l -73.55,-6.72 c -30.47,-2.86 -48.56,-3.68 -61.16,-4.69 -9.85,-0.8 -14.84,3.03 -17.99,8.34 l -4.38,7.25 c -1.82,0.82 -5.28,-1.43 -5.53,-3.26 3.25,-6.1 7.74,-14.17 11.43,-21.76 5.02,-10.93 8.49,-18.06 10.94,-24.27 1.93,-1.62 5.61,0.17 5.98,2.34 l -3,7.93 c -2.23,5.75 -1.41,7.57 1.35,8.91 2.54,1.23 9.53,2.64 21.57,4.22 l 28.08,3.69 c 5.61,0.74 6.97,-0.31 9.77,-6.06 l 16.89,-34.75 c 3.35,-6.9 3.11,-8.16 -1.17,-12.23 z m -24.35,270.41 c 6.17,5.76 6.18,6.12 11.42,0.51 l 12.4,-13.28 c 9.61,-10.29 14.76,-18.79 15.59,-26.06 0.57,-4.72 -5.13,-12.49 -9.28,-17.42 -0.25,-1.99 2.72,-5.17 4.91,-4.52 5.09,5.8 21.46,18.64 31.05,23.75 0.4,1.07 -1.34,3.3 -2.58,3.89 -7.49,-1.74 -9.43,-0.4 -18.87,9.69 l -70.74,75.74 c -8.03,8.6 -13.99,14.6 -9.05,21.32 0.04,1.08 -2.42,3.33 -3.32,3.55 -8.7,-5.68 -23.29,-14.05 -34.5,-18.92 -0.8,-2.15 0.71,-5.64 3.23,-6.09 6.6,2.31 12.46,4.29 20.77,3.64 8.66,-0.66 18.65,-10.59 26.16,-18.63 l 9.6,-10.29 c 5.25,-5.61 5.06,-5.78 -0.74,-11.2 l -83.6,-78.08 c -19.63,-18.34 -23.31,-20.03 -34.2,-10.24 l -6.85,6.2 c -2.33,0.63 -5.16,-2.71 -4.68,-4.36 11.56,-11.62 17.86,-18 24.84,-25.47 6.99,-7.48 12.74,-14.02 22.32,-25.03 1.61,-0.59 5.33,2.18 5.03,4 l -5.03,6.51 c -9.19,11.72 -6.74,14.71 12.9,33.06 z m -232.62,45.58 c -14.33,-23.04 -16.65,-25.81 -30.42,-19.36 l -5.84,2.73 c -2.11,-0.5 -3.84,-4.25 -2.94,-5.71 11.14,-6.32 18.66,-10.7 27.79,-16.37 8.69,-5.41 15.95,-10.22 26.54,-17.41 1.71,-0.16 4.58,3.48 3.81,5.16 l -5.03,4.03 c -11.87,9.49 -10.41,12.81 3.91,35.84 l 48.11,77.38 c 14.32,23.03 17.05,26.46 30.55,19.57 l 5.7,-2.94 c 1.85,0.06 3.84,4.24 2.95,5.7 -11.14,6.3 -18.66,10.68 -27.36,16.08 -9.12,5.68 -16.38,10.5 -26.98,17.68 -1.71,0.19 -4.57,-3.46 -3.81,-5.13 l 5.16,-3.82 c 12.15,-9.06 10.29,-13.02 -4.04,-36.06 z m -91.49,52.18 c 7.32,23.18 -3.35,42.12 -15.72,56.48 l -15.68,18.37 c -7.26,8.47 -15.74,22.42 -11.27,36.57 3.54,11.23 13.68,25.48 37.59,17.93 23.44,-7.39 25.02,-25.34 24.5,-38.06 0.76,-1.85 4.89,-2.35 6.33,-1.18 3.24,10.24 5.35,24.6 5,31.16 -1.95,0.62 -5.21,2.18 -8.08,4.16 -5.8,3.71 -14.13,7.94 -21.7,10.34 -31.73,10.01 -55.72,-3.09 -63.04,-26.28 -6.31,-20.01 3.45,-38.4 13.11,-50.3 l 18.42,-22.45 c 14.2,-17.09 12.62,-29.75 9.23,-40.49 -4.62,-14.64 -18.86,-24.91 -39.37,-18.44 -28.31,8.93 -30.77,36.01 -30.5,49.62 -0.52,1.76 -4.33,2.44 -6.09,1.11 -3.14,-11.62 -5.43,-29.95 -4.2,-36.25 3.79,-4.15 14.73,-14.58 35.23,-21.04 31.73,-10.02 57.77,1.89 66.24,28.75 z m -267.72,156.11 c 0.11,7.16 0.9,8.17 16.76,7.92 28.4,-0.47 40.62,-19.86 40.3,-40.07 -0.29,-17.39 -6.31,-26.26 -13.31,-31.52 -7.51,-5.5 -17.25,-6.37 -26.46,-6.22 -13.05,0.21 -16.88,0.78 -17.63,1.56 -0.76,1.04 -0.71,3.85 -0.63,8.46 z m -22.85,-114.79 c -0.44,-26.87 -1,-30.19 -15.87,-31.74 l -6.41,-0.66 c -1.56,-1.76 -1.12,-5.61 0.41,-6.41 12.03,0.32 21.25,0.43 31.99,0.25 10.24,-0.16 18.93,-0.56 30.44,-1.26 1.54,0.75 2.12,5.09 0.61,6.39 l -5.36,0.86 c -14.81,2.28 -15.27,5.36 -14.83,32.22 l 0.52,32.24 c 0.09,5.38 0.6,5.63 12.12,5.43 10.23,-0.16 14.29,-2.78 18.03,-8.48 7.74,-11.64 17.95,-29.46 24.45,-39.04 17.74,-26.13 30.69,-32.74 52.43,-33.09 4.87,-0.08 8.97,0.36 11.28,1.09 1.3,1.01 1.08,3.06 -0.2,3.59 -6.9,0.62 -13.25,3.54 -17.53,7.45 -17.16,14.87 -30.39,35.56 -50.33,68.89 -1.24,2.07 -2.48,4.65 -1.17,6.16 12.87,4.91 32.28,17.9 32.67,42.21 0.29,17.91 -8.48,29.57 -20.66,36.17 -11.66,6.58 -26.73,8.1 -42.59,8.36 -25.08,0.41 -42.74,-0.07 -57.09,-1.12 -2.07,-0.99 -2.13,-5.08 -0.36,-6.39 l 8.17,-1.16 c 10.47,-1.44 11.17,-5.81 10.77,-30.11 z m -184.805,-40.22 c 7.687,-25.75 7.558,-29.8 -6.051,-35.19 l -7.875,-3.16 c -1.031,-1.91 0.633,-5.68 2.32,-5.98 14.324,4.81 22.59,7.54 33.133,10.69 l 22.07,6.59 c 21.828,6.52 43.731,12.79 65.948,18.88 1.21,7.58 1.71,28.3 0.86,37.39 -1.64,1.92 -5.292,1.63 -6.644,-0.11 -2.574,-14.66 -6.632,-25.22 -10.312,-28.99 -4.59,-4.31 -11.41,-7.42 -30.293,-13.05 -21.578,-6.44 -27.535,-5.29 -31.356,-3.22 -5.171,2.99 -8.394,11.11 -12.277,24.12 l -10.32,34.57 c -1.906,6.38 -1.242,6.84 6.113,9.04 l 14.227,4.25 c 9.562,2.85 15.519,4.37 19.246,4.41 5.273,0.23 8.09,-2.93 10.386,-7.05 l 5.063,-8.9 c 1.664,-1.11 5.832,0.14 6.301,2.14 -1.61,5.38 -5.371,14.41 -8.004,23.24 -2.785,9.31 -4.66,19.17 -6.418,25.05 -1.492,1.45 -5.664,0.2 -6.449,-1.64 l 1.039,-10.64 c 0.605,-6.49 -0.668,-8.47 -3.324,-10.34 -2.649,-1.86 -10.106,-4.61 -20.407,-7.69 l -14.222,-4.24 c -7.356,-2.2 -8.09,-2.43 -10.141,4.44 l -14.645,49.06 c -2.785,9.31 -2.925,9.8 4.43,12 l 17.66,5.27 c 10.785,3.22 18.707,5.32 24.223,5.63 13.703,0.62 18.477,-7.31 25.598,-17.73 1.664,-1.11 5.441,0.56 5.98,2.32 -4.199,10.49 -10.945,27.72 -13.66,31.44 -2.723,-1.61 -17.195,-5.93 -32.891,-10.61 l -46.101,-13.77 c -10.055,-3 -18.469,-5.24 -29.16,-7.9 -1.25,-1.18 -0.426,-5.74 1.343,-6.28 l 4.071,0.68 c 14.976,2.61 16.57,-0.93 24.183,-26.43 z M 761.5,1675.68 c 9.41,-6.77 20,-14.93 28.113,-22.52 1.356,0.25 2.575,0.72 3.66,1.39 0.868,0.55 1.594,1.32 1.969,2.16 -3.551,13.8 -9.211,45.33 -13.109,70.72 l -5.098,34 c -4.18,28.22 -6.793,51.09 -7.148,65.09 -0.051,6.32 1.558,10.96 6.484,14.68 l 6.219,4.53 c 0.402,1.76 -1.781,5.22 -3.844,5.13 -6.871,-4.9 -13.449,-9.34 -20.594,-13.86 -8.226,-5.18 -16.593,-10.15 -22.925,-13.54 -0.973,-1.85 0.64,-5.37 2.976,-5.72 l 4.172,2.02 c 8.125,3.92 11.383,3.55 12.34,2.03 0.953,-1.51 2.238,-4.03 3.371,-9.68 2.191,-11.63 7.437,-42.5 10.441,-61.19 2.258,-14.62 7.223,-42.65 9.52,-61.17 -26.391,17.86 -52.047,36.47 -77.844,55.31 -17.086,12.23 -28.14,21.6 -29.937,23.49 -0.879,1.87 0.039,4.26 7.582,10.53 l 2.972,2.49 c 0.7,2.25 -1.781,5.22 -3.843,5.13 -8.821,-6.13 -16.262,-11.13 -25.793,-17.13 -9.309,-5.87 -16.375,-10.02 -22.926,-13.55 -1.047,-2.21 0.644,-5.37 2.98,-5.72 l 4.168,2.02 c 9.996,4.79 16.11,2.29 28.735,-6.69 z m -118.711,-89.52 c 19.406,-18.96 21.613,-21.83 12.348,-33.88 l -3.922,-5.11 c 0.023,-2.18 3.312,-4.67 4.933,-4.11 8.579,9.51 14.473,15.92 21.985,23.6 7.148,7.32 13.414,13.38 22.722,22.17 0.524,1.64 -2.414,5.22 -4.218,4.84 l -5.024,-4.04 c -11.832,-9.55 -14.75,-7.41 -34.16,11.55 l -65.18,63.66 c -19.41,18.95 -22.164,22.36 -12.527,34.06 l 4.102,4.93 c 0.34,1.81 -3.313,4.67 -4.934,4.11 -8.574,-9.52 -14.473,-15.93 -21.625,-23.25 -7.512,-7.69 -13.773,-13.74 -23.082,-22.53 -0.523,-1.63 2.414,-5.22 4.219,-4.84 l 4.84,4.22 c 11.464,9.91 14.933,7.24 34.339,-11.72 z m -121.062,-40.02 c -10.297,5.72 -38.293,20.67 -44.239,28.94 -1.293,1.89 -0.597,7.36 2.254,15.15 l 1.289,3.38 c -0.597,2.08 -3.73,3.82 -5.843,2.65 -3.774,-7.88 -6.778,-13.83 -12.118,-23.45 -4.718,-8.51 -9.164,-15.99 -15.324,-26.03 -0.32,-2.14 3.137,-4.35 5.344,-3.53 l 2.562,3.55 c 6.086,8.34 9.414,11.17 12.176,11.4 9.07,0.52 38.289,-15.39 48.809,-21.23 l 47.89,-26.57 c 4.7,-2.61 8.278,-4.6 8.903,-6.11 l -0.246,-0.45 c -16.582,-4.56 -35.196,-8.57 -60.996,-14.45 l -36.438,-8.18 c -12.379,-2.78 -56.574,-12.8 -70.473,-10.95 -1.164,-3.16 -3.054,-7.09 -5.039,-10.67 -2.234,-4.03 -8.816,-15.88 -14.703,-24.91 -0.097,-2.29 3.258,-4.14 5.348,-3.55 l 2.555,3.56 c 3.652,4.99 8.199,9.49 13.074,10.89 7.75,1.85 12.578,-0.54 18.84,-4.01 l 64.679,-35.9 c 10.742,-5.95 38.168,-20.88 44.489,-28.48 1.839,-2.49 1.195,-6.81 -0.989,-12.33 l -2.683,-6.42 c 0.597,-2.09 3.855,-3.6 5.843,-2.66 3.903,8.08 7.032,14.24 12.243,23.65 4.593,8.27 9.168,15.98 15.203,25.8 -0.25,2.2 -2.813,3.91 -5.348,3.57 l -4.523,-6.57 c -3.547,-5.34 -7.375,-9.08 -10.582,-9.06 -8.825,-0.07 -38.043,15.85 -48.563,21.68 l -48.785,27.07 c -6.715,3.72 -11.738,6.81 -13.93,9.19 l 0.254,0.45 c 7.528,1.97 34.324,7.01 44.613,9.2 l 87.891,19.13 c 32.961,7.18 44.395,9.32 49.688,9.9 1.367,2.46 0.992,4.42 -0.102,5.62 -6.191,2.55 -32.824,17.33 -39.535,21.06 z m -75.223,-235.76 c 38.348,-6.55 64.734,-25.34 58.48,-61.93 -6.597,-38.59 -35.492,-46.63 -76.113,-39.69 l -54.488,9.31 c -26.238,4.49 -30.442,5.72 -29.199,20.57 l 0.531,6.15 c -0.75,1.68 -5.125,1.91 -6.141,0.52 -1.613,-12.45 -2.781,-20.82 -4.551,-31.15 -1.722,-10.1 -3.441,-18.63 -6.101,-31.16 0.5,-1.64 4.699,-2.88 5.969,-1.54 l 1.582,6.22 c 3.761,14.42 8.136,14.19 34.375,9.7 l 59.535,-10.17 c 30.019,-5.13 49.515,-1.97 62.902,9.5 12.707,10.55 18.961,27.4 21.938,44.8 3.191,18.67 -0.176,38.46 -10.18,51.34 -12.723,16.71 -35.328,24.21 -57.277,27.96 l -28.504,4.87 c -14.129,2.42 -43.141,7.37 -50.86,12.34 -3.023,2.07 -4.472,7.25 -3.902,13.64 l 0.531,6.14 c -1.297,1.52 -4.535,2.34 -6.136,0.53 -1.051,-9.17 -1.965,-16.03 -3.778,-26.62 -1.679,-9.84 -3.523,-19.13 -5.668,-28.63 0.746,-1.68 3.942,-2.74 5.969,-1.53 l 1.582,6.22 c 1.582,6.22 4.125,10.45 7.453,11.7 8.301,2.99 37.399,-1.45 53.039,-4.13 l 29.012,-4.96" style="fill:#231f20;fill-opacity:1;fill-rule:nonzero;stroke:none" id="path12"/>
      <path d="m 2664.57,860.352 c 0,74.57 -32.99,155.018 -119.31,155.018 -47,0 -108.02,-32.081 -108.02,-131.061 0,-66.887 32.55,-153.668 121.58,-153.668 54.23,0 105.75,40.679 105.75,129.711 z m -272.52,9.5 c 0,90.386 67.79,159.528 160.89,159.528 104.4,0 156.83,-75.47 156.83,-155.009 0,-91.301 -69.6,-157.73 -156.83,-157.73 -100.33,0 -160.89,71.847 -160.89,153.211" style="fill:#231f20;fill-opacity:1;fill-rule:nonzero;stroke:none" id="path14"/>
      <path d="m 2902.23,894.699 c 0,-12.199 1.37,-12.199 14.93,-12.199 h 30.73 c 18.52,0 32.99,0.898 38.42,2.711 4.96,1.809 8.58,4.07 11.28,15.82 l 4.08,18.078 c 2.26,2.711 9.94,2.711 11.74,0 0,-10.847 -1.8,-28.929 -1.8,-45.648 0,-16.27 1.8,-33.441 1.8,-43.84 -1.8,-2.711 -8.58,-2.711 -11.74,0 l -4.52,17.629 c -2.26,8.129 -5.88,14.461 -14.47,17.172 -6.32,1.808 -17.62,2.258 -34.79,2.258 h -30.73 c -13.56,0 -14.93,-0.45 -14.93,-12.2 v -62.82 c 0,-47.461 0.91,-54.238 27.58,-56.5 l 15.36,-1.351 c 2.72,-1.809 1.81,-9.95 -0.91,-11.297 -26.66,0.898 -42.03,1.347 -60.11,1.347 -19.88,0 -35.25,-0.449 -56.48,-1.347 -2.72,1.347 -3.63,8.578 -0.91,11.297 l 11.3,1.351 c 26.21,3.172 27.12,9.039 27.12,56.5 v 162.699 c 0,47.451 -0.91,53.781 -27.12,56.951 l -7.24,0.9 c -2.7,1.81 -1.8,9.94 0.91,11.3 18.98,-0.91 34.36,-1.36 52.42,-1.36 h 83.17 c 28.92,0 55.13,0 61.02,1.36 0,-20.79 0.44,-42.479 1.35,-59.658 -1.35,-2.711 -7.68,-4.071 -10.85,-1.364 -3.61,20.34 -9.04,37.063 -31.64,42.942 -9.93,2.71 -24.86,2.71 -43.83,2.71 h -27.58 c -13.56,0 -13.56,-0.9 -13.56,-18.081 v -95.36" style="fill:#231f20;fill-opacity:1;fill-rule:nonzero;stroke:none" id="path16"/>
      <path d="m 3321.58,798.441 c 0,-16.269 0.91,-39.332 9.5,-49.269 8.58,-10.391 22.14,-12.652 35.7,-12.652 40.23,0 70.96,18.07 70.96,63.269 0,35.711 -18.08,77.281 -89.93,77.281 -24.41,0 -26.23,-2.699 -26.23,-11.742 z m 0,104.848 c 0,-12.66 0.46,-13.559 23.51,-12.66 46.1,1.812 70.96,15.371 70.96,57.851 0,44.29 -32.99,61.02 -67.35,61.02 -9.93,0 -16.71,-0.91 -20.78,-2.71 -4.52,-1.36 -6.34,-3.62 -6.34,-11.759 z m -37.05,60.109 c 0,33.442 -1.81,42.032 -22.15,43.842 l -14.46,1.35 c -3.62,2.72 -3.16,9.5 0.45,11.3 24.4,2.26 55.13,3.62 97.18,3.62 28.47,0 55.59,-2.26 75.91,-12.66 19.45,-9.49 34.36,-27.561 34.36,-56.491 0,-32.539 -18.98,-49.257 -46.1,-61.918 0,-4.519 3.61,-5.871 8.59,-6.781 24.4,-4.519 60.56,-27.109 60.56,-75.48 0,-52.418 -38.87,-87.668 -120.22,-87.668 -13.1,0 -35.25,1.347 -54.24,1.347 -19.88,0 -35.25,-0.898 -51.98,-1.347 -2.7,1.347 -3.61,8.578 -0.89,11.297 l 8.13,1.351 c 23.95,4.07 24.86,9.039 24.86,56.5 v 171.738" style="fill:#231f20;fill-opacity:1;fill-rule:nonzero;stroke:none" id="path18"/>
      <path d="m 3616.66,954.359 c 0,47.001 -0.9,53.781 -27.57,56.951 l -7.22,0.9 c -2.72,1.81 -1.82,9.94 0.9,11.3 19.43,-0.91 34.8,-1.36 53.33,-1.36 h 84.96 c 28.93,0 55.59,0 61.02,1.36 2.71,-7.68 5.42,-40.221 7.23,-60.112 -1.81,-2.707 -9.04,-3.617 -11.3,-0.91 -6.77,21.242 -10.85,37.063 -34.35,42.942 -9.49,2.26 -23.95,2.71 -43.83,2.71 h -32.55 c -13.56,0 -13.56,-0.9 -13.56,-18.081 v -90.387 c 0,-12.652 1.36,-12.652 14.92,-12.652 h 26.21 c 18.98,0 32.99,0.902 38.42,2.71 5.42,1.809 8.59,4.52 10.85,15.821 l 3.61,18.527 c 2.26,2.711 9.95,2.711 11.75,-0.457 0,-10.84 -1.8,-28.473 -1.8,-45.641 0,-16.269 1.8,-33.441 1.8,-43.39 -1.8,-3.16 -9.49,-3.16 -11.75,-0.449 l -4.07,17.629 c -1.8,8.128 -4.97,14.91 -14.01,17.171 -6.33,1.809 -17.17,2.258 -34.8,2.258 h -26.21 c -13.56,0 -14.92,-0.449 -14.92,-12.199 v -63.73 c 0,-23.95 1.36,-39.321 8.59,-47 5.42,-5.418 14.92,-10.399 54.69,-10.399 34.8,0 47.9,1.809 57.85,6.777 8.13,4.524 20.34,20.34 32.08,43.84 3.17,2.262 9.49,0.91 11.3,-3.16 -3.16,-15.816 -14.46,-50.617 -20.33,-62.816 -40.68,0.898 -80.9,1.347 -121.13,1.347 h -40.67 c -19.44,0 -34.8,-0.449 -61.47,-1.347 -2.71,1.347 -3.61,8.578 -0.9,11.297 l 14.92,1.351 c 25.75,2.262 28.01,9.039 28.01,56.5 v 162.699" style="fill:#231f20;fill-opacity:1;fill-rule:nonzero;stroke:none" id="path20"/>
      <path d="m 3987.66,889.281 c 0,-8.14 0,-13.109 1.37,-14.91 1.35,-1.359 8.13,-2.262 31.18,-2.262 16.26,0 33.45,1.801 46.55,11.743 12.2,9.5 22.6,25.308 22.6,56.046 0,35.704 -22.15,69.602 -72.32,69.602 -28.01,0 -29.38,-1.81 -29.38,-14.469 z m -37.05,64.629 c 0,42.93 -1.35,50.62 -19.89,52.88 l -14.47,1.8 c -3.15,2.26 -3.15,9.5 0.46,11.3 25.31,2.26 56.5,3.62 100.79,3.62 28.01,0 54.68,-2.26 75.47,-13.56 21.69,-11.302 37.51,-31.641 37.51,-63.27 0,-42.942 -33.9,-66.442 -56.49,-75.481 -2.26,-2.711 0,-7.23 2.26,-10.847 36.15,-58.301 60.11,-94.461 90.85,-120.223 7.67,-6.777 18.97,-11.75 31.18,-12.649 2.26,-0.902 2.7,-4.519 0.44,-6.332 -4.06,-1.347 -11.29,-2.257 -19.88,-2.257 -38.41,0 -61.46,11.3 -93.56,56.949 -11.74,16.719 -30.27,47.898 -44.29,68.238 -6.78,9.953 -14,14.473 -32.08,14.473 -20.34,0 -21.25,-0.461 -21.25,-9.949 V 791.66 c 0,-47.461 0.91,-52.879 27.12,-56.5 l 9.5,-1.351 c 2.71,-2.258 1.8,-9.95 -0.91,-11.297 -20.34,0.898 -35.71,1.347 -53.79,1.347 -18.97,0 -35.25,-0.449 -56.48,-1.347 -2.72,1.347 -3.63,8.129 -0.91,11.297 l 11.3,1.351 c 26.21,3.172 27.12,9.039 27.12,56.5 v 162.25" style="fill:#231f20;fill-opacity:1;fill-rule:nonzero;stroke:none" id="path22"/>
      <path d="m 4526.79,769.969 c 0,-18.078 2.72,-28.93 10.85,-32.098 1.36,-1.351 1.36,-4.062 -0.44,-5.422 -5.43,0 -13.56,-1.808 -22.15,-4.07 -23.96,-6.32 -56.5,-11.738 -80.9,-11.738 -53.79,0 -103.05,14.91 -137.85,50.16 -27.12,27.121 -41.57,62.82 -41.57,102.59 0,38.418 12.65,77.289 40.66,107.121 30.29,31.628 75.04,52.868 143.28,52.868 25.75,0 49.72,-4.97 57.39,-6.78 8.59,-1.8 22.6,-4.97 28.03,-4.06 0,-14.92 2.7,-38.419 6.78,-65.54 -1.36,-3.609 -9.49,-4.059 -12.21,-1.352 -12.65,48.812 -46.55,64.182 -92.64,64.182 -87.69,0 -126.11,-62.369 -126.11,-130.17 0,-86.769 44.75,-155.019 135.59,-155.019 28.03,0 44.74,5.879 49.72,13.558 2.26,3.172 4.52,11.301 4.52,25.77 v 18.07 c 0,37.961 -1.35,40.68 -29.38,43.84 l -19.89,2.262 c -3.61,1.808 -3.15,9.937 0,11.3 13.11,-0.902 37.97,-1.363 64.63,-1.363 17.63,0 32.99,0.461 47.92,1.363 3.15,-1.812 3.61,-8.589 0.44,-11.3 l -7.22,-0.903 c -18.99,-2.258 -19.45,-14.918 -19.45,-37.968 v -25.301" style="fill:#231f20;fill-opacity:1;fill-rule:nonzero;stroke:none" id="path24"/>
      <path d="m 4692.6,954.359 c 0,47.001 -0.91,53.781 -27.58,56.951 l -7.22,0.9 c -2.71,1.81 -1.82,9.94 0.9,11.3 19.43,-0.91 34.81,-1.36 53.33,-1.36 H 4797 c 28.92,0 55.59,0 61.02,1.36 2.7,-7.68 5.41,-40.221 7.22,-60.112 -1.81,-2.707 -9.04,-3.617 -11.3,-0.91 -6.77,21.242 -10.85,37.063 -34.34,42.942 -9.5,2.26 -23.95,2.71 -43.84,2.71 h -32.55 c -13.56,0 -13.56,-0.9 -13.56,-18.081 v -90.387 c 0,-12.652 1.37,-12.652 14.93,-12.652 h 26.21 c 18.97,0 32.99,0.902 38.42,2.71 5.41,1.809 8.58,4.52 10.84,15.821 l 3.61,18.527 c 2.26,2.711 9.95,2.711 11.76,-0.457 0,-10.84 -1.81,-28.473 -1.81,-45.641 0,-16.269 1.81,-33.441 1.81,-43.39 -1.81,-3.16 -9.5,-3.16 -11.76,-0.449 l -4.06,17.629 c -1.81,8.128 -4.98,14.91 -14.02,17.171 -6.32,1.809 -17.17,2.258 -34.79,2.258 h -26.21 c -13.56,0 -14.93,-0.449 -14.93,-12.199 v -63.73 c 0,-23.95 1.37,-39.321 8.59,-47 5.43,-5.418 14.92,-10.399 54.69,-10.399 34.8,0 47.9,1.809 57.85,6.777 8.13,4.524 20.34,20.34 32.08,43.84 3.17,2.262 9.5,0.91 11.3,-3.16 -3.15,-15.816 -14.45,-50.617 -20.32,-62.816 -40.68,0.898 -80.91,1.347 -121.13,1.347 h -40.68 c -19.43,0 -34.8,-0.449 -61.46,-1.347 -2.72,1.347 -3.61,8.578 -0.91,11.297 l 14.92,1.351 c 25.76,2.262 28.02,9.039 28.02,56.5 v 162.699" style="fill:#231f20;fill-opacity:1;fill-rule:nonzero;stroke:none" id="path26"/>
      <path d="m 5271.95,800.699 c 0,-13.558 0,-67.347 1.35,-79.097 -0.89,-2.711 -3.61,-4.961 -8.58,-4.961 -5.43,7.679 -18.54,23.488 -57.85,68.238 l -104.86,119.312 c -12.19,14.008 -42.93,51.071 -52.42,61.02 h -0.91 c -1.8,-5.43 -2.26,-15.82 -2.26,-29.379 v -98.531 c 0,-21.242 0.46,-79.992 8.14,-93.551 2.71,-4.969 11.75,-7.68 23.05,-8.59 l 14.01,-1.351 c 2.72,-3.618 2.26,-9.039 -0.91,-11.297 -20.33,0.898 -36.15,1.347 -52.87,1.347 -18.99,0 -31.19,-0.449 -47.01,-1.347 -3.16,2.258 -3.61,8.578 -0.9,11.297 l 12.2,1.351 c 10.4,1.36 17.63,4.07 19.89,9.039 6.32,16.27 5.87,71.41 5.87,93.102 v 130.621 c 0,12.648 -0.44,22.137 -9.94,32.538 -6.32,6.33 -17.17,9.49 -28.02,10.85 l -7.68,0.9 c -2.72,2.71 -2.72,9.49 0.91,11.3 18.97,-1.36 42.92,-1.36 51.07,-1.36 7.22,0 14.91,0.45 20.78,1.36 9.04,-23.05 62.37,-82.709 77.28,-99.432 l 43.85,-49.269 c 31.18,-34.789 53.33,-60.11 74.56,-81.797 h 0.91 c 1.81,2.258 1.81,9.488 1.81,18.988 v 96.711 c 0,21.238 -0.46,80 -9.04,93.559 -2.71,4.06 -9.94,6.78 -28.02,9.04 l -7.69,0.9 c -3.15,2.71 -2.71,9.94 0.91,11.3 20.78,-0.91 36.16,-1.36 53.33,-1.36 19.43,0 31.19,0.45 46.55,1.36 3.61,-2.26 3.61,-8.59 0.9,-11.3 l -6.33,-0.9 c -14.45,-2.26 -23.49,-5.88 -25.3,-9.5 -7.69,-16.259 -6.78,-72.31 -6.78,-93.099 V 800.699" style="fill:#231f20;fill-opacity:1;fill-rule:nonzero;stroke:none" id="path28"/>
      <path d="m 2633.51,1431.54 c 0,28.2 -0.9,80.51 -8.64,94.15 -3.19,5.46 -11.37,8.64 -22.74,9.55 l -11.38,0.91 c -2.73,3.19 -1.81,9.1 0.92,10.92 17.28,-0.91 34.11,-1.37 51.85,-1.37 19.1,0 31.39,0.46 47.75,1.37 3.65,-2.27 3.19,-8.19 0.92,-10.92 l -10.92,-0.91 c -11.37,-0.91 -20.01,-5 -22.74,-10.91 -6.37,-15.01 -6.37,-67.32 -6.37,-92.79 v -51.39 c 0,-39.58 -6.36,-81.42 -31.84,-108.7 -19.55,-21.38 -53.21,-33.21 -86.87,-33.21 -31.38,0 -62.77,5.91 -85.05,25.01 -24.1,20.02 -35.48,53.22 -35.48,107.34 v 107.34 c 0,47.3 -0.91,55.04 -27.29,57.31 l -11.37,0.91 c -2.73,1.82 -1.82,9.55 0.9,10.92 22.75,-0.91 38.21,-1.37 56.4,-1.37 18.66,0 33.66,0.46 55.95,1.37 2.73,-1.37 3.64,-9.1 0.91,-10.92 l -10.91,-0.91 c -26.38,-2.27 -27.29,-10.01 -27.29,-57.31 v -98.24 c 0,-73.22 22.74,-121.43 92.33,-121.43 65.94,0 90.96,51.84 90.96,120.98 v 52.3" style="fill:#231f20;fill-opacity:1;fill-rule:nonzero;stroke:none" id="path30"/>
      <path d="m 3082.36,1322.84 c 0,-13.65 0,-67.77 1.36,-79.6 -0.9,-2.73 -3.63,-5 -8.64,-5 -5.46,7.74 -18.65,23.65 -58.21,68.68 L 2911.34,1427 c -12.27,14.09 -43.21,51.39 -52.75,61.39 h -0.92 c -1.81,-5.45 -2.27,-15.91 -2.27,-29.56 v -99.15 c 0,-21.38 0.46,-80.5 8.18,-94.15 2.73,-5 11.83,-7.73 23.2,-8.64 l 14.11,-1.37 c 2.73,-3.64 2.27,-9.09 -0.92,-11.37 -20.47,0.91 -36.39,1.37 -53.21,1.37 -19.11,0 -31.38,-0.46 -47.3,-1.37 -3.19,2.28 -3.64,8.64 -0.92,11.37 l 12.29,1.37 c 10.45,1.37 17.74,4.09 20.01,9.1 6.37,16.37 5.91,71.86 5.91,93.69 v 131.45 c 0,12.73 -0.45,22.28 -10,32.74 -6.37,6.37 -17.28,9.56 -28.21,10.92 l -7.72,0.91 c -2.74,2.73 -2.74,9.55 0.91,11.37 19.1,-1.37 43.2,-1.37 51.4,-1.37 7.26,0 15,0.46 20.91,1.37 9.1,-23.2 62.77,-83.23 77.77,-100.06 l 44.13,-49.58 c 31.38,-35.02 53.67,-60.49 75.04,-82.32 h 0.91 c 1.82,2.27 1.82,9.55 1.82,19.1 v 97.33 c 0,21.38 -0.46,80.51 -9.1,94.15 -2.73,4.1 -10,6.83 -28.19,9.1 l -7.74,0.91 c -3.17,2.73 -2.73,10 0.92,11.37 20.91,-0.91 36.39,-1.37 53.67,-1.37 19.55,0 31.38,0.46 46.84,1.37 3.64,-2.27 3.64,-8.64 0.9,-11.37 l -6.36,-0.91 c -14.55,-2.27 -23.65,-5.91 -25.46,-9.56 -7.74,-16.37 -6.83,-72.77 -6.83,-93.69 v -108.7" style="fill:#231f20;fill-opacity:1;fill-rule:nonzero;stroke:none" id="path32"/>
      <path d="m 3266.49,1476.57 c 0,48.22 -0.91,55.95 -27.75,58.22 l -11.37,0.91 c -2.72,1.82 -1.82,10 0.92,11.37 22.74,-0.91 38.2,-1.37 57.3,-1.37 18.19,0 33.66,0.46 56.4,1.37 2.73,-1.37 3.65,-9.55 0.91,-11.37 l -11.37,-0.91 c -26.83,-2.27 -27.75,-10 -27.75,-58.22 v -161.92 c 0,-48.21 0.92,-54.58 27.75,-57.76 l 11.37,-1.37 c 2.74,-1.81 1.82,-10 -0.91,-11.37 -22.74,0.91 -38.21,1.37 -56.4,1.37 -19.1,0 -34.56,-0.46 -57.3,-1.37 -2.74,1.37 -3.64,8.64 -0.92,11.37 l 11.37,1.37 c 26.84,3.18 27.75,9.55 27.75,57.76 v 161.92" style="fill:#231f20;fill-opacity:1;fill-rule:nonzero;stroke:none" id="path34"/>
      <path d="m 3489.34,1497.49 c -10.47,25.47 -17.3,35.03 -36.85,37.3 l -8.18,0.91 c -3.19,2.73 -2.73,9.1 0.9,11.37 13.19,-0.91 27.75,-1.37 47.3,-1.37 20.02,0 35.94,0.46 55.05,1.37 3.17,-1.82 4.09,-8.64 0.9,-11.37 l -6.83,-0.91 c -17.28,-2.27 -20.91,-5 -21.37,-8.65 0.9,-4.55 8.64,-29.1 22.75,-63.67 20.91,-52.76 41.84,-105.06 64.58,-156.92 14.1,30.02 33.2,76.87 43.66,100.97 13.19,30.94 34.57,82.33 42.29,101.89 3.65,9.55 4.11,14.55 4.11,17.73 0,3.19 -4.55,6.83 -20.47,8.65 l -8.2,0.91 c -3.17,2.73 -2.27,9.55 0.92,11.37 12.73,-0.91 30.02,-1.37 47.3,-1.37 15.01,0 29.11,0.46 44.12,1.37 3.19,-1.82 3.19,-9.1 0.91,-11.37 l -13.64,-0.91 c -10.92,-0.91 -17.74,-6.37 -23.66,-15.92 -12.73,-21.38 -30.47,-58.22 -50.94,-104.61 l -24.56,-55.95 c -18.19,-41.84 -39.57,-94.6 -47.3,-118.71 -1.36,-0.91 -3.18,-1.36 -5,-1.36 -2.27,0 -4.55,0.45 -6.82,1.36 -5.01,19.11 -13.2,41.39 -20.93,60.49 l -80.04,197.4" style="fill:#231f20;fill-opacity:1;fill-rule:nonzero;stroke:none" id="path36"/>
      <path d="m 3891.33,1477.48 c 0,47.31 -0.91,54.12 -27.75,57.31 l -7.26,0.91 c -2.74,1.82 -1.84,10 0.9,11.37 19.55,-0.91 35.03,-1.37 53.67,-1.37 h 85.51 c 29.11,0 55.94,0 61.4,1.37 2.72,-7.73 5.45,-40.48 7.27,-60.49 -1.82,-2.73 -9.1,-3.64 -11.37,-0.92 -6.81,21.38 -10.92,37.3 -34.56,43.22 -9.56,2.27 -24.1,2.72 -44.11,2.72 h -32.76 c -13.65,0 -13.65,-0.91 -13.65,-18.19 v -90.96 c 0,-12.74 1.38,-12.74 15.02,-12.74 h 26.38 c 19.1,0 33.2,0.91 38.66,2.73 5.45,1.82 8.64,4.55 10.92,15.92 l 3.63,18.65 c 2.28,2.73 10.01,2.73 11.83,-0.46 0,-10.92 -1.82,-28.65 -1.82,-45.94 0,-16.37 1.82,-33.65 1.82,-43.66 -1.82,-3.18 -9.55,-3.18 -11.83,-0.45 l -4.09,17.73 c -1.82,8.19 -5.01,15.02 -14.1,17.29 -6.37,1.82 -17.28,2.27 -35.02,2.27 h -26.38 c -13.64,0 -15.02,-0.45 -15.02,-12.27 v -64.14 c 0,-24.11 1.38,-39.57 8.64,-47.3 5.47,-5.46 15.02,-10.47 55.04,-10.47 35.02,0 48.21,1.83 58.22,6.83 8.19,4.54 20.47,20.47 32.29,44.12 3.19,2.27 9.55,0.91 11.37,-3.18 -3.18,-15.93 -14.55,-50.95 -20.46,-63.23 -40.93,0.91 -81.42,1.37 -121.9,1.37 h -40.93 c -19.56,0 -35.02,-0.46 -61.86,-1.37 -2.73,1.37 -3.63,8.64 -0.91,11.37 l 15.02,1.37 c 25.92,2.27 28.19,9.1 28.19,56.85 v 163.74" style="fill:#231f20;fill-opacity:1;fill-rule:nonzero;stroke:none" id="path38"/>
      <path d="m 4266.98,1411.98 c 0,-8.18 0,-13.19 1.37,-15 1.36,-1.37 8.18,-2.28 31.38,-2.28 16.37,0 33.66,1.82 46.85,11.82 12.27,9.56 22.74,25.47 22.74,56.41 0,35.93 -22.28,70.04 -72.78,70.04 -28.19,0 -29.56,-1.82 -29.56,-14.56 z m -37.29,65.04 c 0,43.21 -1.36,50.95 -20.02,53.22 l -14.56,1.82 c -3.17,2.27 -3.17,9.55 0.46,11.37 25.48,2.27 56.86,3.64 101.43,3.64 28.19,0 55.03,-2.27 75.96,-13.64 21.82,-11.38 37.74,-31.84 37.74,-63.68 0,-43.21 -34.11,-66.86 -56.84,-75.96 -2.28,-2.73 0,-7.28 2.27,-10.91 36.38,-58.68 60.5,-95.06 91.42,-120.99 7.73,-6.82 19.1,-11.82 31.38,-12.73 2.28,-0.91 2.72,-4.55 0.45,-6.37 -4.09,-1.36 -11.36,-2.28 -20.01,-2.28 -38.65,0 -61.85,11.37 -94.15,57.31 -11.82,16.83 -30.47,48.21 -44.57,68.68 -6.83,10.01 -14.09,14.56 -32.29,14.56 -20.47,0 -21.38,-0.46 -21.38,-10.01 v -57.31 c 0,-47.75 0.91,-53.21 27.29,-56.85 l 9.55,-1.37 c 2.74,-2.27 1.82,-10 -0.91,-11.37 -20.47,0.91 -35.93,1.37 -54.13,1.37 -19.09,0 -35.47,-0.46 -56.84,-1.37 -2.74,1.37 -3.65,8.19 -0.92,11.37 l 11.37,1.37 c 26.38,3.18 27.3,9.1 27.3,56.85 v 163.28" style="fill:#231f20;fill-opacity:1;fill-rule:nonzero;stroke:none" id="path40"/>
      <path d="m 4648.52,1238.24 c -38.2,0 -62.31,11.83 -70.95,16.83 -5.45,10.01 -11.38,42.3 -12.28,63.68 2.28,3.18 9.1,4.09 10.92,1.36 6.82,-23.2 25.46,-67.77 78.23,-67.77 38.2,0 56.84,25.02 56.84,52.3 0,20.02 -4.09,42.3 -37.29,63.68 l -43.21,28.2 c -22.73,15.01 -49.12,40.94 -49.12,78.23 0,43.21 33.66,78.23 92.79,78.23 14.1,0 30.47,-2.73 42.3,-5.91 5.9,-1.82 12.28,-2.73 15.92,-2.73 4.09,-10.91 8.18,-36.38 8.18,-55.49 -1.82,-2.73 -9.1,-4.1 -11.37,-1.36 -5.91,21.83 -18.2,51.39 -61.85,51.39 -44.58,0 -54.13,-29.56 -54.13,-50.49 0,-26.37 21.83,-45.48 38.66,-55.94 l 36.39,-22.74 c 28.65,-17.74 56.85,-44.12 56.85,-87.33 0,-50.03 -37.75,-84.14 -96.88,-84.14" style="fill:#231f20;fill-opacity:1;fill-rule:nonzero;stroke:none" id="path42"/>
      <path d="m 4890.9,1476.57 c 0,48.22 -0.91,55.95 -27.75,58.22 l -11.37,0.91 c -2.72,1.82 -1.82,10 0.92,11.37 22.74,-0.91 38.2,-1.37 57.3,-1.37 18.19,0 33.66,0.46 56.4,1.37 2.73,-1.37 3.65,-9.55 0.91,-11.37 l -11.37,-0.91 c -26.83,-2.27 -27.75,-10 -27.75,-58.22 v -161.92 c 0,-48.21 0.92,-54.58 27.75,-57.76 l 11.37,-1.37 c 2.74,-1.81 1.82,-10 -0.91,-11.37 -22.74,0.91 -38.21,1.37 -56.4,1.37 -19.1,0 -34.56,-0.46 -57.3,-1.37 -2.74,1.37 -3.64,8.64 -0.92,11.37 l 11.37,1.37 c 26.84,3.18 27.75,9.55 27.75,57.76 v 161.92" style="fill:#231f20;fill-opacity:1;fill-rule:nonzero;stroke:none" id="path44"/>
      <path d="m 5221.97,1313.74 c 0,-47.75 0.92,-54.58 27.3,-56.85 l 14.56,-1.37 c 2.72,-1.81 1.81,-10 -0.92,-11.37 -25.92,0.91 -41.39,1.37 -59.58,1.37 -18.19,0 -34.11,-0.46 -63.22,-1.37 -2.73,1.37 -3.65,9.1 0,11.37 l 16.38,1.37 c 25.92,2.27 28.19,9.1 28.19,56.85 v 203.31 c 0,14.1 0,14.55 -13.64,14.55 h -25.02 c -19.56,0 -44.57,-0.91 -55.94,-11.37 -10.92,-10 -15.47,-20 -20.47,-31.38 -3.64,-2.73 -10,-0.46 -11.82,3.19 7.27,20.46 14.09,49.57 17.28,67.76 1.36,0.91 7.28,1.37 8.64,0 2.73,-14.55 17.74,-14.1 38.66,-14.1 h 184.2 c 24.57,0 28.66,0.91 35.49,12.74 2.27,0.91 7.26,0.45 8.18,-1.37 -5.01,-18.64 -8.18,-55.48 -6.82,-69.13 -1.82,-3.64 -9.56,-3.64 -11.83,-0.91 -1.36,11.37 -4.55,28.2 -11.37,33.2 -10.46,7.74 -27.74,11.37 -52.76,11.37 h -32.3 c -13.64,0 -13.19,-0.45 -13.19,-15.46 v -202.4" style="fill:#231f20;fill-opacity:1;fill-rule:nonzero;stroke:none" id="path46"/>
      <path d="m 5594.87,1314.65 c 0,-48.66 2.73,-55.94 27.3,-57.76 l 17.28,-1.37 c 2.73,-2.73 1.81,-10 -0.92,-11.37 -28.19,0.91 -43.66,1.37 -61.85,1.37 -19.11,0 -35.48,-0.46 -59.59,-1.37 -2.72,1.37 -3.64,8.64 -0.9,11.37 l 14.1,1.37 c 26.38,2.72 27.28,9.1 27.28,57.76 v 23.2 c 0,25.01 -1.36,30.93 -14.55,56.4 l -53.67,104.61 c -15.46,30.02 -22.28,32.29 -35.93,34.57 l -12.73,2.27 c -2.73,3.18 -2.28,9.55 0.9,11.37 14.56,-0.91 30.93,-1.37 52.77,-1.37 20.91,0 37.29,0.46 48.66,1.37 4.09,-1.37 4.09,-8.64 1.36,-11.37 l -5.91,-0.91 c -15.92,-2.27 -19.11,-4.55 -19.11,-8.19 0,-4.55 11.83,-30.47 14.11,-35.02 16.83,-33.66 33.65,-69.59 51.39,-100.97 14.1,24.1 29.11,50.48 42.76,76.87 12.73,23.65 29.56,54.57 29.56,60.03 0,2.73 -8.18,5.92 -19.11,7.28 l -8.18,0.91 c -3.18,3.18 -2.73,9.55 0.92,11.37 16.36,-0.91 29.56,-1.37 43.65,-1.37 14.11,0 26.84,0.46 42.3,1.37 3.65,-2.27 4.09,-8.64 0.91,-11.37 l -12.73,-2.27 c -23.66,-4.1 -37.3,-32.75 -60.04,-71.87 l -28.66,-49.58 c -20.01,-34.56 -21.37,-38.66 -21.37,-73.68 v -23.65" style="fill:#231f20;fill-opacity:1;fill-rule:nonzero;stroke:none" id="path48"/>
    </g>
  </g>
</svg>