<?xml version="1.0"?>
<svg xmlns="http://www.w3.org/2000/svg" viewBox="0 0 318.3 116" enable-background="new 0 0 318.3 116" xml:space="preserve">
 <path d="M55.5,87.6C38.9,80.6,27.6,66,27.6,49c0-16.9,11.6-31.8,28-38.8L55.5,87.6z"/>
 <path fill="#E30613" d="M52.2,103.1c0,0-3.2-6.1-9.4-6.1c-6.1,0-11.2,6.7-17.2,8.1c-6,1.4-10.7,0.6-14.4-0.8c-1-0.4-1.6-0.8-2.1-1
  l6.8-5.8c1.2,0.6,2.8,1.2,4.8,0.9c6.4-0.8,15.6-9.2,22.8-9c7.9,0.1,12.1,5.9,12.1,5.9s4.2-5.8,12.1-5.9c7.2-0.2,16.5,8.2,22.9,9
  c2,0.3,3.6-0.3,4.7-0.9l6.8,5.8c-0.4,0.3-1,0.6-2.1,1c-3.7,1.4-8.4,2.1-14.5,0.8c-6-1.3-11.1-8.1-17.2-8.1c-6.1,0-9.4,6.1-9.4,6.1 H52.2z"/>
 <path fill="#E30613" d="M68.9,28.9c-2.1-1.2-4.3-2.1-6.8-2.6l8.1-11L68.9,28.9z"/>
 <path fill="#F59C00" d="M86.9,28.4L78.2,39c-1.1-2.2-2.5-4.3-4.1-6L86.9,28.4z"/>
 <path fill="#FFDD00" d="M80.1,45.2l13.2,3.6l-13.2,3.6c0.2-1.2,0.3-2.3,0.3-3.6C80.4,47.6,80.3,46.4,80.1,45.2"/>
 <path fill="#009641" d="M78.3,58.7l8.8,10.5l-13-4.5C75.8,63,77.2,61,78.3,58.7"/>
 <path fill="#009FE3" d="M62.1,71.5c2.5-0.5,4.8-1.4,6.8-2.6l1.3,13.6L62.1,71.5z"/>
 <path d="M78.2,47.8c-0.2-3.4-1.1-6.5-2.7-9.2l-7.7,0.1c1,2.8,1.6,6,1.6,9.2H78.2z"/>
 <path d="M58.5,47.8h8.6c-0.1-3.2-0.7-6.4-1.7-9.2h-6.9V47.8z"/>
 <path d="M58.5,36.3h6c-1.5-3.2-3.5-6.1-6-8.2V36.3z"/>
 <path d="M62.2,28.6c1.9,2.2,3.5,4.8,4.7,7.7h7C71.2,32.7,67.1,29.8,62.2,28.6"/>
 <path d="M69.4,50c-0.1,3.2-0.6,6.4-1.6,9.2h7.7c1.6-2.7,2.5-5.8,2.7-9.2H69.4z"/>
 <path d="M58.5,59.2h6.9c1-2.8,1.6-6,1.7-9.2h-8.6V59.2z"/>
 <path d="M58.5,69.7c2.5-2.2,4.5-5,6-8.2h-6V69.7z"/>
 <path d="M74,61.5h-7c-1.2,2.9-2.9,5.4-4.7,7.6C67.1,68,71.2,65.1,74,61.5"/>
 <rect x="39.4" y="32.4" fill="#E30613" width="11.2" height="3.4"/>
 <rect x="39.4" y="39.9" fill="#F59C00" width="11.2" height="3.4"/>
 <rect x="39.4" y="47.8" fill="#FFDD00" width="11.2" height="3.4"/>
 <rect x="39.4" y="55.7" fill="#009641" width="11.2" height="3.4"/>
 <rect x="39.4" y="63.4" fill="#009FE3" width="11.2" height="3.4"/>
 <rect x="108.7" y="57.3" fill="#E30613" width="200.5" height="1.3"/>
 <rect x="174.4" y="66.9" width="2.1" height="11.4"/>
 <polygon points="188.7,78.3 188.7,66.9 186.6,66.9 186.6,75.2 186.5,75.2 181.8,66.9 179.4,66.9 179.4,78.3 181.5,78.3 181.5,70 181.5,70 186.3,78.3"/>
 <polygon points="196.3,78.3 196.3,74.1 200,66.9 197.7,66.9 195.2,72.2 192.7,66.9 190.4,66.9 194.1,74.1 194.1,78.3"/>
 <path d="M209.7,74.2v-7.3h-2.1v7.3c0,1.3-0.4,2.4-2,2.4c-1.5,0-2-1.1-2-2.4v-7.3h-2.1v7.3c0,0.9,0.1,2,0.7,2.8
  c0.8,1.1,2.1,1.6,3.4,1.6c1.3,0,2.6-0.6,3.4-1.7C209.6,76.1,209.7,75.1,209.7,74.2z"/>
 <polygon points="219.8,66.9 216.7,75.6 216.7,75.6 213.6,66.9 211.4,66.9 215.8,78.3 217.6,78.3 222,66.9"/>
 <polygon points="223.7,78.3 229.8,78.3 229.8,76.4 225.8,76.4 225.8,73.7 229.7,73.7 229.7,71.7 225.8,71.7 225.8,68.9 229.8,68.9 229.8,66.9 223.7,66.9"/>
 <path d="M236.1,71.4c-0.8-0.3-1.9-0.5-1.9-1.6c0-0.7,0.5-1.2,1.2-1.2c0.8,0,1.2,0.5,1.3,1.3h2.2c-0.1-1.9-1.5-3.3-3.4-3.3
  c-1.9,0-3.4,1.4-3.4,3.3c0,1.3,0.5,2.3,1.7,2.9c0.3,0.2,0.7,0.3,1,0.4c1,0.4,2.2,0.6,2.2,1.9c0,0.9-0.8,1.4-1.6,1.4
  c-0.9,0-1.4-0.7-1.5-1.5h-2.2c0.1,2,1.7,3.5,3.7,3.5c2.1,0,3.7-1.5,3.7-3.6C239.1,72.9,237.8,72,236.1,71.4z"/>
 <rect x="241.3" y="66.9" width="2.1" height="11.4"/>
 <polygon points="118.3,83.6 115,90.5 111.7,83.6 108.7,83.6 113.6,93.1 113.6,98.7 116.4,98.7 116.4,93.1 121.4,83.6"/>
 <path d="M125.8,83.6l-6.3,15h3.1l1.6-3.9h5.4l1.6,3.9h3.1l-6.3-15H125.8z M125.2,92.2l1.7-4.6h0l1.7,4.6H125.2z"/>
 <polygon points="144.7,83.6 140,90.1 139.9,90.1 139.9,83.6 137.1,83.6 137.1,98.7 139.9,98.7 139.9,92.1 140,92.1 144.7,98.7 147.9,98.7 142.3,91 147.9,83.6"/>
 <polygon points="164.2,83.6 161.6,94.1 161.6,94.1 159.1,83.6 157,83.6 154.5,94.1 154.4,94.1 151.8,83.6 149,83.6 153.4,98.7 155.6,98.7 158,88.7 158.1,88.7 160.5,98.7 162.7,98.7 167.1,83.6"/>
 <path d="M172.5,83.6l-6.3,15h3.1l1.6-3.9h5.4l1.6,3.9h3.1l-6.3-15H172.5z M171.8,92.2l1.7-4.6h0l1.7,4.6H171.8z"/>
 <polygon points="191.4,86 191.4,83.6 182.7,83.6 182.7,86.2 188.2,86.2 182.4,96.4 182.4,98.7 191.8,98.7 191.8,96.1 185.7,96.1"/>
 <path d="M202.2,93.2c0,1.7-0.6,3.2-2.6,3.2c-2,0-2.6-1.4-2.6-3.2v-9.5h-2.8v9.5c0,1.2,0.2,2.6,0.9,3.6c1,1.4,2.8,2.2,4.5,2.2
  c1.7,0,3.5-0.8,4.5-2.2c0.7-1,0.9-2.3,0.9-3.6v-9.5h-2.8V93.2z"/>
 <polygon points="211.2,83.6 208.4,83.6 208.4,98.7 215.8,98.7 215.8,96.1 211.2,96.1"/>
 <path d="M225.9,93.2c0,1.7-0.6,3.2-2.6,3.2c-2,0-2.6-1.4-2.6-3.2v-9.5h-2.8v9.5c0,1.2,0.2,2.6,0.9,3.6c1,1.4,2.8,2.2,4.5,2.2 c1.7,0,3.5-0.8,4.5-2.2c0.7-1,0.9-2.3,0.9-3.6v-9.5h-2.8V93.2z"/>
 <rect x="232.1" y="91.6" width="5.6" height="2.4"/>
 <polygon points="251,94.6 250.9,94.6 244.7,83.6 241.5,83.6 241.5,98.7 244.3,98.7 244.3,87.7 244.4,87.7 250.6,98.7 253.7,98.7 253.7,83.6 251,83.6"/>
 <path d="M262.4,83.6l-6.3,15h3.1l1.6-3.9h5.4l1.6,3.9h3.1l-6.3-15H262.4z M261.8,92.2l1.7-4.6h0l1.7,4.6H261.8z"/>
 <polygon points="279,83.6 270.6,83.6 270.6,86.2 273.4,86.2 273.4,98.7 276.2,98.7 276.2,86.2 279,86.2"/>
 <path d="M284.9,83.6l-6.3,15h3.1l1.6-3.9h5.4l1.6,3.9h3.1l-6.3-15H284.9z M284.2,92.2l1.7-4.6h0l1.7,4.6H284.2z"/>
 <polygon points="298.7,83.6 295.9,83.6 295.9,98.7 303.3,98.7 303.3,96.1 298.7,96.1"/>
 <rect x="306.3" y="83.5" width="2.8" height="15.2"/>
 <polygon points="133.4,33.8 128.6,40.4 128.6,33.8 125.8,33.8 125.8,48.9 128.6,48.9 128.6,42.3 133.4,48.9 136.8,48.9 131,41.2 136.8,33.8"/>
 <polygon points="144.7,48.9 147.2,38.9 149.7,48.9 152,48.9 156.5,33.8 153.5,33.8 150.8,44.4 148.3,33.8 146.2,33.8 143.5,44.4 140.9,33.8 138,33.8 142.5,48.9"/>
 <path d="M162.8,33.8h-1.1l-6.4,15.1h3.1l1.7-3.9h2.7h2.7l1.7,3.9h3.2l-6.5-15.1H162.8z M162.8,42.3h-1.7l1.7-4.6l1.6,4.6H162.8z"/>
 <polygon points="181,46.2 174.8,46.2 180.6,36.4 180.6,33.8 171.8,33.8 171.8,36.5 177.3,36.5 171.4,46.5 171.4,48.9 181,48.9"/>
 <path d="M186.5,45.2c-0.3-0.6-0.3-1.3-0.3-2v-9.4h-2.8v9.4c0,1.6,0.1,3,1.2,4.3c1,1,2.5,1.8,3.9,1.8c1.5,0,3.1-0.8,4-2
  c1-1.2,1.1-2.6,1.1-4.1v-9.4h-2.9v9.4c0,0.8,0.1,1.6-0.4,2.3c-0.4,0.6-1.2,1-1.9,1C187.7,46.5,187,46.1,186.5,45.2z"/>
 <polygon points="204.8,46.2 200.1,46.2 200.1,33.8 197.3,33.8 197.3,48.9 204.8,48.9"/>
 <path d="M207,33.8v9.4c0,1.6,0.1,3,1.2,4.3c0.9,1,2.4,1.8,3.9,1.8c1.6,0,3.1-0.8,4-2c1-1.2,1.1-2.6,1.1-4.1v-9.4h-2.9v9.4
  c0,0.8,0.1,1.6-0.4,2.3c-0.4,0.6-1.2,1-1.9,1c-0.9,0-1.6-0.5-2-1.3c-0.3-0.6-0.3-1.3-0.3-2v-9.4H207z"/>
 <rect x="221" y="40.2" width="5.7" height="2.4"/>
 <polygon points="242.5,33.7 239.8,33.7 239.8,44.6 239.7,44.6 233.5,33.7 230.3,33.7 230.3,48.7 233.1,48.7 233.1,37.8 233.1,37.8 239.4,48.7 242.5,48.7"/>
 <path d="M259.7,48.7l-6.3-15h-2.2l-6.3,15h3.1l1.6-3.9h5.4l1.6,3.9H259.7z M250.6,42.2l1.7-4.6h0l1.7,4.6H250.6z"/>
 <polygon points="262.2,48.7 265,48.7 265,36.3 267.8,36.3 267.8,33.7 259.4,33.7 259.4,36.3 262.2,36.3"/>
 <path d="M270.5,48.7l1.6-3.9h5.4l1.6,3.9h3.1l-6.3-15h-2.2l-6.3,15H270.5z M274.7,37.6L274.7,37.6l1.7,4.6H273L274.7,37.6z"/>
 <polygon points="292,46.1 287.4,46.1 287.4,33.7 284.7,33.7 284.7,48.7 292,48.7"/>
 <path d="M154.5,28.9c1.1,0,2.3-0.6,3-1.5c0.7-0.9,0.8-1.9,0.8-3.1v-7h-2.1v7c0,0.6,0,1.2-0.3,1.7c-0.3,0.5-0.9,0.8-1.4,0.8
  c-0.7,0-1.2-0.4-1.5-1c-0.2-0.5-0.2-1-0.2-1.5v-7h-2.1v7c0,1.2,0.1,2.2,0.9,3.1C152.3,28.3,153.4,28.9,154.5,28.9z"/>
 <polygon points="163.6,20.4 168.4,28.6 170.7,28.6 170.7,17.3 168.6,17.3 168.6,25.5 163.9,17.3 161.5,17.3 161.5,28.6 163.6,28.6"/>
 <rect x="173.9" y="17.3" width="2.1" height="11.3"/>
 <polygon points="184.4,28.6 188.8,17.3 186.6,17.3 183.6,25.9 180.5,17.3 178.3,17.3 182.7,28.6"/>
 <polygon points="197.1,26.5 193.1,26.5 193.1,23.9 196.9,23.9 196.9,21.9 193.1,21.9 193.1,19.3 197.1,19.3 197.1,17.3 191,17.3 191,28.6 197.1,28.6"/>
 <path d="M202.1,24.3l3,4.3h2.6l-3.1-4.2c0.8-0.2,1.5-0.5,2-1.1c0.5-0.6,0.9-1.6,0.9-2.5c0-1.1-0.5-2.1-1.3-2.8
  c-0.9-0.7-1.9-0.8-2.9-0.8H200v11.3h2.1V24.3z M202.1,19.3h1.2c0.6,0,1.1,0,1.6,0.4c0.4,0.3,0.6,0.8,0.6,1.3
  c0,0.5-0.2,0.9-0.5,1.2c-0.4,0.4-1.1,0.5-1.7,0.5h-1.1V19.3z"/>
 <path d="M212.9,26.8c-0.8,0-1.6-0.5-1.6-1.4h-2.2c0,2,1.7,3.5,3.7,3.5c2,0,3.7-1.6,3.7-3.6c0-1.1-0.4-1.9-1.2-2.6
  c-0.6-0.5-1.4-0.8-2.2-1c-0.7-0.2-1.4-0.5-1.4-1.4c0-0.7,0.4-1.2,1.1-1.2c0.7,0,1.2,0.5,1.3,1.2h2.2c0-1.8-1.6-3.2-3.3-3.2
  c-1.8,0-3.3,1.4-3.3,3.2c0,0.8,0.3,1.6,0.9,2.2c0.6,0.6,1.2,0.8,2,1c0.9,0.3,2,0.7,2,1.9C214.4,26.2,213.7,26.8,212.9,26.8z"/>
 <rect x="219" y="17.3" width="2.1" height="11.3"/>
 <polygon points="225.5,28.6 227.6,28.6 227.6,19.3 229.7,19.3 229.7,17.3 223.4,17.3 223.4,19.3 225.5,19.3"/>
 <polygon points="234.5,28.6 236.6,28.6 236.6,24.4 240.3,17.3 238,17.3 235.6,22.5 233.1,17.3 230.8,17.3 234.5,24.4"/>
 <path d="M253.3,28.9c3.2,0,5.9-2.6,5.9-5.9c0-3.3-2.6-5.9-5.9-5.9c-3.3,0-5.9,2.6-5.9,5.9C247.4,26.3,250.1,28.9,253.3,28.9z
   M253.3,19.1c2.1,0,3.8,1.7,3.8,3.8c0,2.1-1.7,3.9-3.8,3.9c-2.1,0-3.8-1.8-3.8-3.9C249.5,20.8,251.2,19.1,253.3,19.1z"/>
 <polygon points="263.4,23.9 266.9,23.9 266.9,21.9 263.4,21.9 263.4,19.3 267.1,19.3 267.1,17.3 261.3,17.3 261.3,28.6 263.4,28.6"/>
 <polygon points="300,23 301,23 301,18.2 302.1,18.2 302.1,17.2 298.9,17.2 298.9,18.2 300,18.2"/>
 <polygon points="307.7,23 308.8,23 308.8,17.2 307.3,17.2 305.7,21.6 304.2,17.2 302.7,17.2 302.7,23 303.8,23 303.8,18.6 305.3,23 306.2,23 307.7,18.6"/>
</svg>