<?xml version="1.0" encoding="UTF-8" ?>
<!DOCTYPE svg PUBLIC "-//W3C//DTD SVG 1.1//EN" "http://www.w3.org/Graphics/SVG/1.1/DTD/svg11.dtd">
<svg width="581pt" height="253pt" viewBox="0 0 581 253" version="1.1" xmlns="http://www.w3.org/2000/svg">
<g id="#02e400ff">
<path fill="#02e400" opacity="1.00" d=" M 2.68 4.22 C 49.98 4.14 97.30 4.08 144.60 4.25 C 166.68 42.56 188.79 80.86 210.73 119.25 C 212.35 121.77 214.29 124.13 215.18 127.05 L 214.44 126.61 C 144.09 85.94 73.83 45.10 3.37 4.63 L 2.68 4.22 Z" />
</g>
<g id="#00ad1dff">
<path fill="#00ad1d" opacity="1.00" d=" M 3.37 4.63 C 73.83 45.10 144.09 85.94 214.44 126.61 C 213.13 129.78 211.53 132.83 209.73 135.75 C 189.44 170.81 169.24 205.92 148.98 241.00 C 147.43 243.53 146.52 246.45 144.64 248.77 C 144.24 248.81 143.45 248.88 143.05 248.91 C 134.89 235.65 127.46 221.93 119.47 208.56 C 108.38 189.02 96.96 169.69 85.80 150.19 C 81.51 142.76 76.90 135.48 73.18 127.75 C 71.92 124.27 69.97 121.13 68.10 117.96 C 55.41 95.65 42.73 73.35 29.91 51.12 C 21.03 35.65 11.90 20.29 3.37 4.63 Z" />
</g>
<g id="#012f87ff">
<path fill="#012f87" opacity="1.00" d=" M 274.15 47.15 C 286.38 47.17 298.62 47.16 310.85 47.15 C 310.89 67.46 310.71 87.76 310.93 108.07 C 327.49 108.35 344.07 107.99 360.63 108.23 C 364.05 115.90 368.70 122.94 372.57 130.38 C 373.55 132.44 374.43 134.59 375.96 136.32 C 376.42 106.61 376.05 76.87 376.14 47.14 C 388.38 47.17 400.62 47.17 412.85 47.15 C 412.83 100.38 412.83 153.62 412.86 206.85 C 400.62 206.83 388.38 206.82 376.14 206.86 C 376.11 184.88 376.29 162.90 376.07 140.93 C 354.36 140.77 332.64 140.78 310.93 140.93 C 310.71 162.90 310.89 184.88 310.85 206.85 C 298.62 206.84 286.38 206.83 274.15 206.86 C 274.18 153.62 274.17 100.38 274.15 47.15 Z" />
<path fill="#012f87" opacity="1.00" d=" M 442.14 47.15 C 467.10 47.17 492.05 47.18 517.00 47.14 C 523.82 46.83 530.87 47.84 536.96 51.07 C 541.27 53.24 545.79 55.29 549.19 58.81 C 552.66 62.34 556.19 65.81 559.67 69.32 C 562.80 72.42 564.47 76.55 566.73 80.25 C 571.89 88.53 574.55 98.08 576.28 107.60 C 577.04 112.04 578.10 116.47 577.89 121.00 C 577.58 128.63 578.57 136.37 576.73 143.87 C 574.55 158.85 568.62 173.31 559.15 185.15 C 553.78 190.46 548.85 196.42 542.14 200.10 C 535.89 204.30 528.47 206.30 521.03 206.85 C 494.74 206.83 468.44 206.82 442.15 206.85 C 442.17 153.62 442.18 100.38 442.14 47.15 M 478.94 74.93 C 478.77 109.97 478.77 145.02 478.93 180.07 C 488.29 180.32 497.65 180.06 507.01 180.21 C 513.69 180.31 520.65 178.26 525.51 173.51 C 534.06 164.95 538.42 153.15 540.61 141.46 C 541.52 137.56 540.77 133.50 541.74 129.61 C 542.58 126.74 541.09 123.92 541.18 121.04 C 541.31 112.78 538.68 104.79 535.98 97.09 C 534.10 91.50 530.26 86.92 526.49 82.51 C 521.63 77.07 514.16 74.66 507.01 74.79 C 497.65 74.95 488.29 74.68 478.94 74.93 Z" />
</g>
<g id="#008231ff">
<path fill="#008231" opacity="1.00" d=" M 67.29 137.26 C 69.15 134.03 70.73 130.60 73.18 127.75 C 76.90 135.48 81.51 142.76 85.80 150.19 C 96.96 169.69 108.38 189.02 119.47 208.56 C 127.46 221.93 134.89 235.65 143.05 248.91 C 96.40 248.80 49.75 248.75 3.10 248.93 C 10.62 234.70 19.17 221.05 27.01 206.99 C 40.42 183.74 53.89 160.52 67.29 137.26 Z" />
</g>
</svg>
