<?xml version="1.0" encoding="UTF-8" standalone="no"?>
<!-- Generator: Adobe Illustrator 19.1.0, SVG Export Plug-In . SVG Version: 6.00 Build 0)  -->

<svg
   xmlns:dc="http://purl.org/dc/elements/1.1/"
   xmlns:cc="http://creativecommons.org/ns#"
   xmlns:rdf="http://www.w3.org/1999/02/22-rdf-syntax-ns#"
   xmlns:svg="http://www.w3.org/2000/svg"
   xmlns="http://www.w3.org/2000/svg"
   xmlns:sodipodi="http://sodipodi.sourceforge.net/DTD/sodipodi-0.dtd"
   xmlns:inkscape="http://www.inkscape.org/namespaces/inkscape"
   version="1.1"
   id="UM_LOGO"
   x="0px"
   y="0px"
   viewBox="0 0 249.99999 81.601372"
   xml:space="preserve"
   sodipodi:docname="logo.svg"
   width="250"
   height="81.601372"
   inkscape:version="0.92.2 (5c3e80d, 2017-08-06)"><metadata
     id="metadata95"><rdf:RDF><cc:Work
         rdf:about=""><dc:format>image/svg+xml</dc:format><dc:type
           rdf:resource="http://purl.org/dc/dcmitype/StillImage" /><dc:title></dc:title></cc:Work></rdf:RDF></metadata><defs
     id="defs93" /><sodipodi:namedview
     pagecolor="#ffffff"
     bordercolor="#666666"
     borderopacity="1"
     objecttolerance="10"
     gridtolerance="10"
     guidetolerance="10"
     inkscape:pageopacity="0"
     inkscape:pageshadow="2"
     inkscape:window-width="1920"
     inkscape:window-height="1005"
     id="namedview91"
     showgrid="false"
     inkscape:zoom="3.4110166"
     inkscape:cx="127.68532"
     inkscape:cy="34.555802"
     inkscape:window-x="-9"
     inkscape:window-y="-9"
     inkscape:window-maximized="1"
     inkscape:current-layer="UM_LOGO"
     fit-margin-top="0"
     fit-margin-left="-2.7755576e-017"
     fit-margin-right="0"
     fit-margin-bottom="0" /><style
     type="text/css"
     id="style2">
	.st0{fill:#BA0C2F;}
</style><g
     id="g990"
     transform="matrix(0.44469414,0,0,0.44469414,-0.00704758,0)"><g
       id="g44"><path
         id="path4"
         d="m 215.5,69.4 h 20.3 v 6.4 H 208.4 V 31.5 h 7.1 z"
         class="st0"
         inkscape:connector-curvature="0"
         style="fill:#ba0c2f" /><path
         id="path6"
         d="m 254.9,57.5 h -16.5 v -6 h 16.5 z"
         class="st0"
         inkscape:connector-curvature="0"
         style="fill:#ba0c2f" /><path
         id="path8"
         d="m 299.4,57.9 c 0,11.8 -7.8,18.7 -18.1,18.7 C 270.8,76.6 263,69.8 263,57.9 V 31.5 h 7.1 v 26.8 c 0,7.8 4.9,11.7 11.1,11.7 6.2,0 11,-3.9 11,-11.7 V 31.5 h 7.1 v 26.4 z"
         class="st0"
         inkscape:connector-curvature="0"
         style="fill:#ba0c2f" /><path
         id="path10"
         d="m 337.8,55.2 v 20.6 h -7 V 56.1 c 0,-4.5 -2.8,-7.7 -7.2,-7.7 -4.4,0 -7.5,3.2 -7.5,7.7 v 19.7 h -7 v -33 h 6.6 V 46 c 2.3,-2.5 5.7,-4 9.9,-4 7.6,0.1 12.2,5.5 12.2,13.2 z"
         class="st0"
         inkscape:connector-curvature="0"
         style="fill:#ba0c2f" /><path
         id="path12"
         d="m 355.7,30.6 c 0,2.6 -2.2,4.6 -4.8,4.6 -2.7,0 -4.8,-2 -4.8,-4.6 0,-2.6 2.1,-4.7 4.8,-4.7 2.6,0 4.8,2 4.8,4.7 z m -1.4,45.2 h -7 v -33 h 7 z"
         class="st0"
         inkscape:connector-curvature="0"
         style="fill:#ba0c2f" /><path
         id="path14"
         d="m 394.7,42.8 -15.9,33.7 h -2.4 l -16,-33.7 h 7.5 l 9.7,21.8 9.6,-21.8 z"
         class="st0"
         inkscape:connector-curvature="0"
         style="fill:#ba0c2f" /><path
         id="path16"
         d="m 429.1,61.6 h -24.6 c 0.9,5.4 5.1,8.7 10.7,8.7 3.8,0 6.8,-1.5 9.6,-3.9 l 3.4,4.8 c -3.5,3.3 -7.9,5.3 -13.2,5.3 -10.2,0 -17.7,-7.4 -17.7,-17.2 0,-9.7 7.4,-17.2 17,-17.2 8.8,0 15.2,6.4 15.2,15.1 0.2,1.8 -0.1,3.5 -0.4,4.4 z m -24.4,-5.5 h 17.9 c -0.1,-5.2 -4,-8.1 -8.5,-8.1 -4.5,0.1 -8.3,3.2 -9.4,8.1 z"
         class="st0"
         inkscape:connector-curvature="0"
         style="fill:#ba0c2f" /><path
         id="path18"
         d="M 456.3,42.8 V 49 h -2.1 c -5.2,0 -9.7,3 -9.7,9.1 v 17.6 h -7 V 42.8 h 6.6 v 4.3 c 2.3,-3 5.8,-4.6 9.6,-4.6 1.1,0 1.9,0.1 2.6,0.3 z"
         class="st0"
         inkscape:connector-curvature="0"
         style="fill:#ba0c2f" /><path
         id="path20"
         d="m 484.3,47.2 -3.8,4.4 c -2.1,-2.1 -4.8,-3.4 -7.7,-3.4 -2.6,0 -4.5,1 -4.5,3.2 0,1.8 1.3,2.7 4.4,3.9 l 3.2,1.3 c 6,2.5 9,5.1 9,9.9 0,6.6 -5.6,10.1 -12.2,10.1 -5.8,0 -10.5,-2.7 -13.3,-6.4 l 4,-4.4 c 2.6,2.8 5.5,4.7 9.3,4.7 2.9,0 5.3,-1.2 5.3,-3.7 0,-2.1 -1.9,-3 -4.6,-4.1 L 470,61.3 c -5.3,-2.2 -8.6,-4.6 -8.6,-9.6 0,-6.1 5.1,-9.5 11.6,-9.5 4.7,-0.1 8.6,1.7 11.3,5 z"
         class="st0"
         inkscape:connector-curvature="0"
         style="fill:#ba0c2f" /><path
         id="path22"
         d="m 501,30.6 c 0,2.6 -2.2,4.6 -4.8,4.6 -2.7,0 -4.8,-2 -4.8,-4.6 0,-2.6 2.1,-4.7 4.8,-4.7 2.6,0 4.8,2 4.8,4.7 z m -1.3,45.2 h -7 v -33 h 7 z"
         class="st0"
         inkscape:connector-curvature="0"
         style="fill:#ba0c2f" /><path
         id="path24"
         d="m 529.2,69.8 v 6 c -1.8,0.4 -3.6,0.7 -5.8,0.7 -7.3,0 -12.1,-3.5 -12.1,-11.5 V 48.9 h -5.4 v -6.1 h 5.4 v -8.7 h 7.1 v 8.7 h 9.8 v 6.1 h -9.8 v 15.5 c 0,4.4 2.4,5.7 6.5,5.7 1.1,0 2.5,-0.1 4.3,-0.3 z"
         class="st0"
         inkscape:connector-curvature="0"
         style="fill:#ba0c2f" /><path
         id="path26"
         d="m 562.2,55.9 v 19.9 h -6.6 v -3.7 c -2.3,2.8 -6,4.4 -10.5,4.4 -6.9,0 -11.5,-3.8 -11.5,-9.5 0,-5.8 4.8,-9.4 12.1,-9.4 h 9.3 v -2.1 c 0,-4.6 -2.6,-7 -7,-7 -3.8,0 -6.5,1.8 -9.1,4.9 l -4.1,-4.2 c 3.4,-4.8 8.3,-7 13.9,-7 7.9,-0.1 13.5,4.5 13.5,13.7 z M 546.1,37.7 538.8,27.4 v -1.3 h 8.2 l 4.3,11.6 z m 9,25.6 v -0.6 h -8.5 c -3.8,0 -5.8,1.3 -5.8,4 0,2.9 2.6,4.4 5.8,4.4 4.6,0 8.5,-3.3 8.5,-7.8 z"
         class="st0"
         inkscape:connector-curvature="0"
         style="fill:#ba0c2f" /><path
         id="path28"
         d="m 227.5,134.9 v 6 c -1.8,0.4 -3.6,0.7 -5.8,0.7 -7.3,0 -12.1,-3.5 -12.1,-11.5 V 114 h -5.4 v -6.1 h 5.4 v -8.7 h 7.1 v 8.7 h 9.8 v 6.1 h -9.8 v 15.5 c 0,4.4 2.4,5.7 6.5,5.7 1.2,0 2.6,-0.1 4.3,-0.3 z"
         class="st0"
         inkscape:connector-curvature="0"
         style="fill:#ba0c2f" /><path
         id="path30"
         d="m 260.5,120.9 v 19.9 h -6.6 v -3.7 c -2.3,2.8 -6,4.4 -10.5,4.4 -6.9,0 -11.5,-3.8 -11.5,-9.5 0,-5.8 4.8,-9.4 12.1,-9.4 h 9.3 v -2.1 c 0,-4.6 -2.5,-7 -7,-7 -3.8,0 -6.5,1.8 -9.1,4.9 l -4.1,-4.2 c 3.4,-4.8 8.3,-7 13.9,-7 8,0 13.5,4.6 13.5,13.7 z m -7.1,7.5 v -0.6 H 245 c -3.8,0 -5.8,1.3 -5.8,4 0,2.9 2.6,4.4 5.8,4.4 4.5,0 8.4,-3.3 8.4,-7.8 z"
         class="st0"
         inkscape:connector-curvature="0"
         style="fill:#ba0c2f" /><path
         id="path32"
         d="m 275.7,114.6 h -5.4 l 0.6,-18 h 8.1 z"
         class="st0"
         inkscape:connector-curvature="0"
         style="fill:#ba0c2f" /><path
         id="path34"
         d="m 349.7,95.8 v 45 h -7.1 V 113 l -12.7,16.6 h -2.4 L 314.7,113 v 27.8 h -7.1 v -45 h 2.5 l 18.6,24.8 18.6,-24.8 z"
         class="st0"
         inkscape:connector-curvature="0"
         style="fill:#ba0c2f" /><path
         id="path36"
         d="m 385.9,120.9 v 19.9 h -6.6 v -3.7 c -2.3,2.8 -6,4.4 -10.5,4.4 -6.9,0 -11.5,-3.8 -11.5,-9.5 0,-5.8 4.8,-9.4 12.1,-9.4 h 9.3 v -2.1 c 0,-4.6 -2.6,-7 -7,-7 -3.8,0 -6.5,1.8 -9.1,4.9 l -4.1,-4.2 c 3.4,-4.8 8.3,-7 13.9,-7 8,0 13.5,4.6 13.5,13.7 z m -7.1,7.5 v -0.6 h -8.5 c -3.8,0 -5.8,1.3 -5.8,4 0,2.9 2.6,4.4 5.8,4.4 4.6,0 8.5,-3.3 8.5,-7.8 z"
         class="st0"
         inkscape:connector-curvature="0"
         style="fill:#ba0c2f" /><path
         id="path38"
         d="m 402.5,140.9 h -7 V 90.5 h 7 z"
         class="st0"
         inkscape:connector-curvature="0"
         style="fill:#ba0c2f" /><path
         id="path40"
         d="m 432,134.9 v 6 c -1.8,0.4 -3.6,0.7 -5.8,0.7 -7.3,0 -12.1,-3.5 -12.1,-11.5 V 114 h -5.4 v -6.1 h 5.4 v -8.7 h 7.1 v 8.7 h 9.8 v 6.1 h -9.8 v 15.5 c 0,4.4 2.4,5.7 6.5,5.7 1.2,0 2.6,-0.1 4.3,-0.3 z"
         class="st0"
         inkscape:connector-curvature="0"
         style="fill:#ba0c2f" /><path
         id="path42"
         d="m 465,120.9 v 19.9 h -6.6 v -3.7 c -2.3,2.8 -6,4.4 -10.5,4.4 -6.9,0 -11.5,-3.8 -11.5,-9.5 0,-5.8 4.8,-9.4 12.1,-9.4 h 9.3 v -2.1 c 0,-4.6 -2.6,-7 -7,-7 -3.8,0 -6.5,1.8 -9.1,4.9 l -4.1,-4.2 c 3.4,-4.8 8.3,-7 13.9,-7 8,0 13.5,4.6 13.5,13.7 z m -7.1,7.5 v -0.6 h -8.5 c -3.8,0 -5.8,1.3 -5.8,4 0,2.9 2.6,4.4 5.8,4.4 4.6,0 8.5,-3.3 8.5,-7.8 z"
         class="st0"
         inkscape:connector-curvature="0"
         style="fill:#ba0c2f" /></g><path
       id="path46"
       d="M 83.6,86.2 V 72.9 c 0,-0.1 0.1,-0.1 0.1,-0.1 H 144 c 0.1,0 0.1,0 0.1,0.1 1.5,5.6 4.9,11.4 8.2,15.1 0,0 0,0.1 0,0.1 -0.2,0.6 -2.7,7 -3.3,8.6 0,0 0,0 0,0.1 2.9,6 6.7,18 4.7,29 -2.3,12.6 -4.6,16.1 -11.7,20.5 -5.6,3.5 -10.7,5 -15.7,4.4 -6.7,-0.8 -8.2,-4.4 -18.5,0.3 -3.2,1.5 -3.7,1.6 -8.5,3.7 -4.2,1.8 -7.4,3.5 -11.4,6.6 -1,0.8 -2.6,2.2 -3.7,3.3 -0.3,0.3 -0.8,0.1 -0.8,-0.4 v -24.1 c 0.1,-0.1 6.8,-6.8 16.4,-3.5 21,7.3 25.9,4.8 25.9,4.8 0,-4.6 0.1,-48.7 0,-48.7 -1.1,0.3 -9.5,0.3 -23,-7.1 -6.6,-3.6 -14.4,0.6 -18.4,3 -0.5,0 -0.7,-0.1 -1,-0.1 z"
       class="st0"
       inkscape:connector-curvature="0"
       style="fill:#ba0c2f" /><path
       id="path48"
       d="m 40.4,146 c -1.6,0 -3.1,-0.1 -4.3,-0.4 l -1.5,-0.4 V 88.9 l 2.3,0.3 c 0.1,0 8.2,0.8 24.2,-7.1 10.6,-5.2 23.1,3.4 23.7,3.8 v 0.6 58.6 l -0.2,-0.8 -2.1,-1.6 c -0.3,-0.2 -7.1,-5.2 -16.9,-1.8 -7.8,2.5 -18,5.1 -25.2,5.1 z m -1.8,-4.1 c 5.3,0.5 15.2,-1.4 25.5,-4.9 7.7,-2.7 13.9,-1 17.5,0.6 v -49 C 78.9,86.9 70,82.2 62.9,85.7 50.4,91.9 42.3,93.1 38.6,93.2 Z"
       class="st0"
       inkscape:connector-curvature="0"
       style="fill:#ba0c2f" /><rect
       id="rect50"
       height="12.1"
       width="29.299999"
       class="st0"
       y="58.799999"
       x="83.599998"
       style="fill:#ba0c2f" /><rect
       id="rect52"
       height="10.2"
       width="29.299999"
       class="st0"
       y="42.799999"
       x="83.599998"
       style="fill:#ba0c2f" /><rect
       id="rect54"
       height="10.2"
       width="30.200001"
       class="st0"
       y="32.5"
       x="53.400002"
       style="fill:#ba0c2f" /><path
       id="path56"
       d="M 83.6,26.8 H 53.4 V 16.1 c 0,0 2.8,-1.4 5.5,-2.7 3.5,-1.7 6.1,-3.1 8.4,-3.3 1.9,-0.1 5.4,0.6 6.4,0.8 2.7,0.6 9.8,0.9 9.8,0.9 z"
       class="st0"
       inkscape:connector-curvature="0"
       style="fill:#ba0c2f" /><path
       id="path58"
       d="M 47.8,26.8 H 14.5 L 20.2,18 c 0,0 7,3.2 13.9,3 8,-0.2 13.6,-2.7 13.6,-2.7 v 8.5 z"
       class="st0"
       inkscape:connector-curvature="0"
       style="fill:#ba0c2f" /><path
       id="path60"
       d="M 47.8,42.8 H 22.9 c 0,0 -1,-2.8 -2.1,-4.8 -1.5,-2.8 -3.7,-5.5 -3.7,-5.5 h 30.7 z"
       class="st0"
       inkscape:connector-curvature="0"
       style="fill:#ba0c2f" /><path
       id="path62"
       d="M 142.1,53 H 118.8 V 42.8 h 25.4 c 0,0 -0.9,2.7 -1.4,5.1 -0.5,2.2 -0.7,5.1 -0.7,5.1 z"
       class="st0"
       inkscape:connector-curvature="0"
       style="fill:#ba0c2f" /><path
       id="path64"
       d="M 143.2,70.9 H 118.8 V 58.8 H 142 c 0,0 -0.1,1.7 0.4,6.4 0.4,4.6 0.8,5.7 0.8,5.7 z"
       class="st0"
       inkscape:connector-curvature="0"
       style="fill:#ba0c2f" /><path
       id="path66"
       d="m 110.2,28.4 c 0,-1.8 0.9,-3.4 2.3,-4.4 -0.3,0.5 -0.5,1.1 -0.5,1.8 0,2.2 1.8,3.9 4.1,3.9 2.3,0 4.1,-1.7 4.1,-3.9 0,-0.6 -0.2,-1.2 -0.5,-1.8 1.4,1 2.3,2.6 2.3,4.4 0,3.1 -2.7,5.6 -5.9,5.6 -3.3,0.1 -5.9,-2.5 -5.9,-5.6 z"
       class="st0"
       inkscape:connector-curvature="0"
       style="fill:#ba0c2f" /><path
       id="path68"
       d="m 92.2,18.5 c 0,-1.3 0.7,-2.5 1.7,-3.3 -0.2,0.4 -0.3,0.9 -0.3,1.3 0,1.6 1.4,2.9 3.1,2.9 1.7,0 3.1,-1.3 3.1,-2.9 0,-0.5 -0.1,-0.9 -0.3,-1.3 1,0.8 1.7,2 1.7,3.3 0,2.3 -2,4.2 -4.5,4.2 -2.5,0 -4.5,-1.9 -4.5,-4.2 z"
       class="st0"
       inkscape:connector-curvature="0"
       style="fill:#ba0c2f" /><path
       id="path70"
       d="m 92.2,36.2 c 0,-1.3 0.7,-2.5 1.7,-3.3 -0.2,0.4 -0.3,0.9 -0.3,1.3 0,1.6 1.4,2.9 3.1,2.9 1.7,0 3.1,-1.3 3.1,-2.9 0,-0.5 -0.1,-0.9 -0.3,-1.3 1,0.8 1.7,2 1.7,3.3 0,2.3 -2,4.2 -4.5,4.2 -2.5,0 -4.5,-1.9 -4.5,-4.2 z"
       class="st0"
       inkscape:connector-curvature="0"
       style="fill:#ba0c2f" /><path
       id="path72"
       d="m 131.4,23.8 c 0,-1.3 0.7,-2.5 1.7,-3.3 -0.2,0.4 -0.3,0.9 -0.3,1.3 0,1.6 1.4,2.9 3.1,2.9 1.7,0 3.1,-1.3 3.1,-2.9 0,-0.5 -0.1,-0.9 -0.3,-1.3 1,0.8 1.7,2 1.7,3.3 0,2.3 -2,4.2 -4.5,4.2 -2.5,0 -4.5,-1.9 -4.5,-4.2 z"
       class="st0"
       inkscape:connector-curvature="0"
       style="fill:#ba0c2f" /><path
       id="path74"
       d="m 131.4,36.2 c 0,-1.3 0.7,-2.5 1.7,-3.3 -0.2,0.4 -0.3,0.9 -0.3,1.3 0,1.6 1.4,2.9 3.1,2.9 1.7,0 3.1,-1.3 3.1,-2.9 0,-0.5 -0.1,-0.9 -0.3,-1.3 1,0.8 1.7,2 1.7,3.3 0,2.3 -2,4.2 -4.5,4.2 -2.5,0 -4.5,-1.9 -4.5,-4.2 z"
       class="st0"
       inkscape:connector-curvature="0"
       style="fill:#ba0c2f" /><path
       id="path76"
       d="m 44.9,55.2 c 0,-1.8 0.9,-3.4 2.3,-4.4 -0.3,0.5 -0.5,1.1 -0.5,1.8 0,2.2 1.8,3.9 4.1,3.9 2.3,0 4.1,-1.7 4.1,-3.9 0,-0.6 -0.2,-1.2 -0.5,-1.8 1.4,1 2.3,2.6 2.3,4.4 0,3.1 -2.7,5.6 -5.9,5.6 -3.2,0 -5.9,-2.5 -5.9,-5.6 z"
       class="st0"
       inkscape:connector-curvature="0"
       style="fill:#ba0c2f" /><path
       id="path78"
       d="m 26.9,49.1 c 0,-1.3 0.7,-2.5 1.7,-3.3 -0.2,0.4 -0.3,0.9 -0.3,1.3 0,1.6 1.4,2.9 3.1,2.9 1.7,0 3.1,-1.3 3.1,-2.9 0,-0.5 -0.1,-0.9 -0.3,-1.3 1,0.8 1.7,2 1.7,3.3 0,2.3 -2,4.2 -4.5,4.2 -2.5,0 -4.5,-1.9 -4.5,-4.2 z"
       class="st0"
       inkscape:connector-curvature="0"
       style="fill:#ba0c2f" /><path
       id="path80"
       d="m 26.9,61.5 c 0,-1.3 0.7,-2.5 1.7,-3.3 -0.2,0.4 -0.3,0.9 -0.3,1.3 0,1.6 1.4,2.9 3.1,2.9 1.7,0 3.1,-1.3 3.1,-2.9 0,-0.5 -0.1,-0.9 -0.3,-1.3 1,0.8 1.7,2 1.7,3.3 0,2.3 -2,4.2 -4.5,4.2 -2.5,0 -4.5,-1.8 -4.5,-4.2 z"
       class="st0"
       inkscape:connector-curvature="0"
       style="fill:#ba0c2f" /><path
       id="path82"
       d="m 66.2,49.1 c 0,-1.3 0.7,-2.5 1.7,-3.3 -0.2,0.4 -0.3,0.9 -0.3,1.3 0,1.6 1.4,2.9 3.1,2.9 1.7,0 3.1,-1.3 3.1,-2.9 0,-0.5 -0.1,-0.9 -0.3,-1.3 1,0.8 1.7,2 1.7,3.3 0,2.3 -2,4.2 -4.5,4.2 -2.5,0 -4.5,-1.9 -4.5,-4.2 z"
       class="st0"
       inkscape:connector-curvature="0"
       style="fill:#ba0c2f" /><path
       id="path84"
       d="m 66.2,61.5 c 0,-1.3 0.7,-2.5 1.7,-3.3 -0.2,0.4 -0.3,0.9 -0.3,1.3 0,1.6 1.4,2.9 3.1,2.9 1.7,0 3.1,-1.3 3.1,-2.9 0,-0.5 -0.1,-0.9 -0.3,-1.3 1,0.8 1.7,2 1.7,3.3 0,2.3 -2,4.2 -4.5,4.2 -2.5,0 -4.5,-1.8 -4.5,-4.2 z"
       class="st0"
       inkscape:connector-curvature="0"
       style="fill:#ba0c2f" /><polygon
       id="polygon86"
       points="83.6,70.9 23.8,70.9 22.9,72.8 83.6,72.8 "
       class="st0"
       style="fill:#ba0c2f" /><path
       id="path88"
       d="m 83.6,183.5 c 3.5,-10 13.4,-16.4 16.9,-18.2 3.1,-1.6 15.3,-6.6 16,-6.7 0.7,-0.1 4.1,1.3 6.6,1.8 15.6,2.7 27,-6.1 32.3,-11.5 7.6,-7.7 10.3,-21.2 9.2,-34.5 -1,-9.2 -3.5,-15.3 -4.4,-17.8 0,-0.1 0,-0.2 0,-0.4 l 3.6,-9.5 0.7,-1.9 c 0,0 0,0 0,0 l -1.8,-1.1 c 0,0 -2.6,-1.8 -5.3,-5.8 -3.2,-4.8 -5.1,-7.9 -5.6,-24.3 0.6,-10.3 7.1,-16.8 10.6,-18.7 2.6,-1.2 5.7,-2.5 4.3,-4.9 -2.8,-4 -14.5,-22 -14.5,-22 0,0 -2.2,-4 -6.5,-0.7 0,0 0,0 0,0 -2.8,1.8 -8.6,4.5 -15.3,3.6 C 123.8,10 117.2,6.7 112.1,4.1 111.7,3.9 111.4,3.7 111,3.5 108.4,2.2 103.8,0 100.1,0 98.1,0 97.6,1.1 91.5,1.3 87.6,1.4 87.1,1.6 83.9,1.7 H 83.6 83.3 C 80.1,1.6 79.5,1.5 75.7,1.3 69.5,1.1 69,0 67,0 63.4,0 58.7,2.2 56.1,3.5 55.7,3.7 55.4,3.9 55,4.1 50,6.7 43.3,10 36.8,10.9 30.1,11.8 24.4,9.1 21.5,7.3 c 0,0 0,0 0,0 C 17.2,4 14.9,8 14.9,8 14.9,8 3.2,26 0.4,30.1 c -1.5,2.4 1.7,3.7 4.3,4.9 3.6,1.9 10,8.5 10.6,18.7 C 14.8,70.1 12.9,73.2 9.7,78 7,82 4.5,83.8 4.4,83.8 l -1.8,1.1 c 0,0 0,0 0,0 l 0.7,1.9 3.7,9.5 c 0,0.1 0,0.2 0,0.4 -1,2.5 -3.5,8.6 -4.4,17.8 -1.1,13.2 1.6,26.7 9.2,34.5 5.3,5.3 16.7,14.2 32.3,11.5 2.5,-0.5 5.9,-1.9 6.6,-1.8 0.7,0.1 12.8,5.1 16,6.7 3.5,1.7 13.4,8.1 16.9,18.1 z m 0,-176.8 c 0,0 4.1,-0.1 8.4,-0.7 4.3,-0.6 7.3,-1.1 8.5,-0.9 1.2,0.2 1.8,0.3 3.6,1 1.8,0.7 5.1,2.2 5.7,2.5 5.4,2.8 12.6,6.3 20,7.3 8.4,1.2 15.4,-2.2 18.8,-4.4 l 12.3,18.7 c -1.6,0.8 -3.6,2.1 -5.5,4 -3.8,3.7 -8.3,10.7 -8.2,22.8 0.1,18 7.8,26.7 11.3,29.8 l -3,7.9 -0.7,1.9 c 0,0 4.5,10.5 4.9,18.6 0.3,8.1 -1.4,16.8 -2.9,21.1 -1.5,4.3 -4.4,10.7 -15.1,16.2 0,0 -8.3,4.3 -15.3,3.3 -0.7,-0.1 -1.3,-0.3 -2,-0.4 -0.5,-0.1 -1,-0.2 -1.6,-0.3 -0.4,-0.1 -0.8,-0.2 -1.2,-0.3 -0.3,-0.1 -0.6,-0.1 -0.9,-0.2 -0.2,-0.1 -0.4,-0.1 -0.6,-0.2 -3.2,-1.1 -6.3,-0.2 -6.9,0.1 -0.3,0.2 -10.8,4.3 -14.7,6.4 -2.1,1.1 -11.9,6.7 -14.2,12.2 -0.1,0.2 -0.2,0.3 -0.4,0.3 h -0.2 c -0.2,0 -0.3,-0.1 -0.4,-0.3 C 81,167.6 71.2,162 69.1,160.9 c -3.9,-2.1 -14.3,-6.2 -14.7,-6.4 -0.6,-0.3 -3.6,-1.2 -6.9,-0.1 -0.2,0.1 -0.4,0.1 -0.6,0.2 -0.3,0.1 -0.6,0.2 -0.9,0.2 -0.4,0.1 -0.8,0.2 -1.2,0.3 -0.5,0.1 -1,0.2 -1.6,0.3 -0.7,0.1 -1.3,0.3 -2,0.4 -7,1.1 -15.3,-3.3 -15.3,-3.3 C 14.9,147 12,140.6 10.5,136.3 9,132 7.3,123.3 7.6,115.2 7.9,107.1 12.5,96.6 12.5,96.6 l -0.7,-1.9 -3,-7.9 C 12.3,83.8 20,75.1 20.1,57 20.2,44.9 15.7,37.9 11.9,34.2 9.9,32.3 8,31 6.4,30.2 L 18.7,11.5 c 3.4,2.2 10.4,5.5 18.8,4.4 7.4,-1 14.5,-4.5 20,-7.3 0.5,-0.3 3.9,-1.8 5.7,-2.5 1.8,-0.7 2.4,-0.8 3.6,-1 1.2,-0.2 4.3,0.3 8.5,0.9 4.1,0.6 8.3,0.7 8.3,0.7 z"
       class="st0"
       inkscape:connector-curvature="0"
       style="fill:#ba0c2f" /></g></svg>