<svg xmlns="http://www.w3.org/2000/svg" width="216" height="64" fill="none" viewBox="0 0 113 42"><path fill="#008571" d="M6.246 31.956H8.21v8.927H6.277l-3.314-5.277v5.277H1v-8.928h1.994l3.283 5.185v-5.184h-.03Zm18.101-.215v-8.928h-2.362l-2.087 5.614-2.055-5.614h-2.454v8.928h1.963v-5.062l1.81 4.939h1.442l1.81-4.878v5h1.933ZM48.707 1v5.43c0 .829-.277 1.81-1.565 1.81-1.289 0-1.565-.981-1.565-1.81V1h-1.994v5.46c0 2.24 1.35 3.652 3.559 3.652 2.24 0 3.558-1.35 3.558-3.651V1h-1.994ZM35.452 14.53c.613.43.982 1.135.982 1.932 0 .89-.338 1.596-.951 2.087-.706.552-1.565.613-2.393.613H29.5v-8.958h3.59c.89 0 1.564.153 2.086.49.675.43 1.074 1.228 1.074 2.025.03.614-.215 1.35-.798 1.81Zm-3.958-.86h1.718c.951 0 1.043-.46 1.043-.828 0-.552-.368-.859-1.073-.859h-1.688v1.688Zm2.945 2.762c0-.246 0-1.013-1.227-1.013h-1.718v1.902h1.688c.46 0 1.258-.122 1.258-.89Zm9.665 9.94H33.459v-3.559h-1.933v3.559h-3.559v1.933h3.559V38.95h-18.99v1.933h20.186a.746.746 0 0 0 .737-.736V28.305H45.3a.747.747 0 0 0 .736-.737V13.333h-1.932v13.039Zm-25.28-7.21h1.933v-3.59h3.589V13.64h-3.59V2.994h18.5V1.061H19.561a.747.747 0 0 0-.736.737V13.64H6.982a.747.747 0 0 0-.736.736v13.929H8.18V15.573h10.646v3.59Z"></path><path fill="#000" d="M66.313 13.15 63.46 8.762v4.388h-.982V7.382h1.258l2.639 4.11v-4.11h.981v5.768h-1.043ZM72.51 11.155c0 1.227-.86 2.117-2.056 2.117-1.166 0-2.056-.89-2.056-2.117 0-1.227.86-2.117 2.056-2.117 1.197.03 2.056.92 2.056 2.117Zm-.952 0c0-.828-.521-1.258-1.104-1.258-.583 0-1.104.43-1.104 1.258 0 .828.521 1.258 1.104 1.258.583 0 1.104-.43 1.104-1.258ZM75.853 10.112c-.123-.03-.215-.03-.307-.03-.736 0-1.074.429-1.074 1.165v1.902h-.95V9.192h.92v.644c.184-.43.613-.675 1.135-.675.123 0 .215.03.245.03v.921h.031ZM80.057 9.191l.92 2.73.798-2.73h.951L81.47 13.15h-.951l-.982-2.853-.951 2.853h-.982l-1.288-3.958h1.012l.797 2.73.92-2.73h1.013ZM86.992 12.014c-.215.705-.829 1.257-1.78 1.257-1.073 0-2.025-.767-2.025-2.116 0-1.258.92-2.087 1.933-2.087 1.227 0 1.933.798 1.933 2.056 0 .153 0 .276-.03.307h-2.915c.03.613.49 1.043 1.074 1.043.583 0 .859-.307.981-.706l.829.246Zm-.92-1.289c-.031-.46-.338-.89-.982-.89a.975.975 0 0 0-.982.89h1.963ZM88.618 13.148a.97.97 0 0 0 .982.86c.736 0 1.135-.369 1.135-1.197v-.43c-.184.307-.583.583-1.166.583-1.043 0-1.84-.828-1.84-1.933 0-1.073.736-1.932 1.84-1.932.614 0 1.013.245 1.166.583V9.19h.92v3.59c0 1.073-.552 2.055-2.024 2.055-1.043 0-1.78-.645-1.903-1.442l.89-.246Zm2.148-2.117c0-.675-.43-1.104-1.013-1.104-.613 0-1.043.43-1.043 1.104 0 .706.4 1.136 1.043 1.136.614 0 1.013-.46 1.013-1.136ZM93.405 7.166c.337 0 .613.276.613.614a.615.615 0 0 1-.613.613.615.615 0 0 1-.614-.613c0-.338.276-.614.614-.614Zm-.46 5.982V9.192h.95v3.957h-.95ZM96.165 10.878l1.012-.153c.215-.03.307-.153.307-.276 0-.338-.215-.614-.736-.614-.491 0-.767.307-.829.706l-.859-.184c.061-.675.706-1.289 1.657-1.289 1.227 0 1.687.706 1.687 1.473v1.963c0 .369.03.583.062.645h-.89c0-.031-.03-.184-.03-.491-.185.307-.584.613-1.228.613-.828 0-1.35-.583-1.35-1.196-.03-.706.491-1.104 1.197-1.197Zm1.288.614v-.184l-1.043.153c-.276.062-.522.215-.522.553 0 .276.215.521.583.521.522 0 .982-.276.982-1.043ZM100.586 13.149h-.951V9.19h.92v.522c.246-.46.736-.645 1.166-.645.982 0 1.442.706 1.442 1.565v2.516h-.951v-2.332c0-.49-.215-.89-.829-.89-.552 0-.828.43-.828.951v2.27h.031ZM62.418 22.075v-3.773h.982v3.712c0 .828.46 1.258 1.166 1.258.736 0 1.196-.46 1.196-1.258v-3.712h.982v3.773c0 1.38-.951 2.148-2.148 2.148-1.227 0-2.178-.736-2.178-2.148ZM68.953 24.102h-.951v-3.958h.92v.522c.246-.46.737-.645 1.166-.645.982 0 1.442.706 1.442 1.565v2.516h-.951V21.77c0-.49-.215-.89-.798-.89-.552 0-.828.43-.828.952v2.27ZM73.278 18.12c.337 0 .613.275.613.613a.615.615 0 0 1-.613.613.615.615 0 0 1-.614-.613c0-.338.276-.614.614-.614Zm-.491 5.982v-3.958h.95v3.958h-.95ZM77.081 24.102h-.951l-1.626-3.957h1.043l1.043 2.822 1.013-2.822h.981l-1.503 3.957ZM82.82 22.967c-.215.705-.828 1.258-1.78 1.258-1.073 0-2.024-.767-2.024-2.117 0-1.258.92-2.087 1.932-2.087 1.228 0 1.933.798 1.933 2.056 0 .153 0 .276-.03.307h-2.915c.03.613.49 1.043 1.074 1.043.583 0 .859-.307.981-.706l.829.246Zm-.89-1.289c-.03-.46-.337-.89-.982-.89a.975.975 0 0 0-.981.89h1.963ZM86.195 21.062c-.123-.03-.215-.03-.307-.03-.736 0-1.074.43-1.074 1.166V24.1h-.95v-3.958h.92v.644c.184-.43.613-.675 1.135-.675.123 0 .215.031.245.031v.92h.03ZM87.574 22.781c.031.368.307.675.798.675.399 0 .583-.215.583-.46 0-.215-.153-.368-.46-.43l-.583-.122c-.706-.154-1.074-.614-1.074-1.166 0-.706.644-1.289 1.473-1.289 1.104 0 1.472.706 1.534 1.105l-.798.214c-.03-.214-.215-.582-.736-.582-.338 0-.583.214-.583.46 0 .215.153.368.399.43l.613.122c.737.153 1.135.614 1.135 1.197 0 .613-.49 1.257-1.503 1.257-1.135 0-1.595-.736-1.626-1.196l.828-.215ZM91.38 18.12c.337 0 .613.275.613.613a.615.615 0 0 1-.614.613.615.615 0 0 1-.613-.613c0-.338.276-.614.613-.614Zm-.461 5.982v-3.958h.951v3.958h-.951ZM94.383 20.113h.828v.828h-.828v1.84c0 .338.153.492.49.492.123 0 .277-.031.338-.031v.767c-.061.03-.245.092-.583.092-.736 0-1.196-.43-1.196-1.166v-1.994h-.737v-.828h.215c.43 0 .614-.277.614-.614v-.583h.859v1.197ZM96.537 25.695l.951-2.086-1.687-3.498h1.074l1.135 2.516 1.073-2.516h1.013l-2.516 5.584h-1.043ZM106.777 22.106c0 1.227-.859 2.117-2.055 2.117-1.166 0-2.056-.89-2.056-2.117 0-1.227.859-2.117 2.056-2.117 1.165 0 2.055.89 2.055 2.117Zm-.951 0c0-.828-.522-1.258-1.104-1.258-.583 0-1.105.43-1.105 1.258 0 .828.522 1.258 1.105 1.258.582 0 1.104-.43 1.104-1.258ZM108.961 19.591v.522h.921v.828h-.921v3.13h-.951v-3.13h-.705v-.828h.705v-.552c0-.89.583-1.412 1.381-1.412.245 0 .429.062.491.092v.798c-.062-.03-.154-.03-.338-.03-.245 0-.583.091-.583.582ZM62.478 35.024v-5.768h.982v4.847H66.1v.92h-3.62ZM67.477 29.04c.337 0 .614.276.614.614a.615.615 0 0 1-.614.613.615.615 0 0 1-.614-.613c0-.338.276-.614.614-.614Zm-.46 5.983v-3.958h.95v3.957h-.95ZM70.456 30.544v.522h.92v.828h-.92v3.13h-.952v-3.13H68.8v-.828h.705v-.552c0-.89.583-1.412 1.381-1.412.245 0 .43.062.49.093v.797c-.06 0-.153-.03-.337-.03-.276-.031-.582.092-.582.582ZM75.61 33.888c-.214.705-.828 1.257-1.778 1.257-1.074 0-2.025-.767-2.025-2.116 0-1.258.92-2.087 1.932-2.087 1.228 0 1.933.798 1.933 2.056 0 .153 0 .276-.03.307h-2.915c.03.613.49 1.043 1.074 1.043.583 0 .859-.307.981-.706l.829.246Zm-.92-1.258c-.03-.46-.337-.89-.981-.89a.975.975 0 0 0-.982.89h1.963ZM81.78 30.881c-.062-.368-.369-.89-1.136-.89-.582 0-.981.4-.981.83 0 .367.215.643.675.735l.828.185c1.012.214 1.565.859 1.565 1.656 0 .89-.737 1.749-2.056 1.749-1.472 0-2.147-.951-2.24-1.78l.92-.245c.062.614.492 1.166 1.32 1.166.706 0 1.043-.337 1.043-.798 0-.368-.276-.675-.767-.767l-.828-.184c-.89-.184-1.473-.767-1.473-1.626 0-.982.89-1.78 1.964-1.78 1.35 0 1.902.83 2.025 1.473l-.86.276ZM84.353 33.06c0 .797.522 1.257 1.105 1.257.614 0 .89-.43.982-.736l.828.307c-.184.613-.767 1.288-1.81 1.288-1.166 0-2.056-.89-2.056-2.117 0-1.227.89-2.117 2.025-2.117 1.074 0 1.657.675 1.81 1.289l-.859.307c-.092-.338-.368-.737-.95-.737-.584.031-1.075.46-1.075 1.258ZM88.678 29.04c.338 0 .614.276.614.614a.615.615 0 0 1-.614.613.615.615 0 0 1-.614-.613c0-.338.277-.614.614-.614Zm-.46 5.983v-3.958h.95v3.957h-.95ZM93.99 33.888c-.215.705-.828 1.257-1.78 1.257-1.073 0-2.024-.767-2.024-2.116 0-1.258.92-2.087 1.932-2.087 1.228 0 1.933.798 1.933 2.056 0 .153 0 .276-.03.307h-2.915c.03.613.49 1.043 1.074 1.043.583 0 .859-.307.981-.706l.829.246Zm-.92-1.258c-.031-.46-.338-.89-.982-.89a.976.976 0 0 0-.982.89h1.963ZM95.984 35.023h-.95v-3.958h.92v.522c.245-.46.736-.645 1.165-.645.982 0 1.442.706 1.442 1.565v2.516h-.95V32.69c0-.49-.216-.89-.83-.89-.551 0-.827.43-.827.951v2.27h.03ZM100.461 33.06c0 .797.521 1.257 1.104 1.257.614 0 .89-.43.982-.736l.828.307c-.184.613-.767 1.288-1.81 1.288-1.166 0-2.055-.89-2.055-2.117 0-1.227.889-2.117 2.025-2.117 1.073 0 1.656.675 1.81 1.289l-.859.307c-.092-.338-.368-.737-.951-.737-.583.031-1.074.46-1.074 1.258ZM107.794 33.888c-.214.705-.828 1.257-1.779 1.257-1.074 0-2.025-.767-2.025-2.116 0-1.258.921-2.087 1.933-2.087 1.227 0 1.933.798 1.933 2.056 0 .153 0 .276-.031.307h-2.914c.03.613.49 1.043 1.073 1.043s.859-.307.982-.706l.828.246Zm-.889-1.258c-.031-.46-.338-.89-.982-.89a.976.976 0 0 0-.982.89h1.964ZM109.324 33.734c.031.368.307.675.798.675.399 0 .583-.215.583-.46 0-.215-.153-.368-.46-.43l-.583-.122c-.706-.154-1.074-.614-1.074-1.166 0-.706.644-1.289 1.473-1.289 1.104 0 1.472.706 1.534 1.105l-.798.215c-.031-.215-.215-.583-.736-.583-.338 0-.583.214-.583.46 0 .215.153.368.399.399l.613.122c.737.154 1.135.614 1.135 1.197 0 .614-.49 1.258-1.503 1.258-1.135 0-1.595-.736-1.626-1.197l.828-.184Z"></path></svg>