<svg id="Layer_1" data-name="Layer 1" xmlns="http://www.w3.org/2000/svg" viewBox="0 0 1440 360"><defs><style>.cls-1{fill:#70002e;}</style></defs><title>UM-horizontal-white</title><path class="cls-1" d="M773.71,132.08c0,9.23-3.68,22-20.25,22s-20.25-12.82-20.25-22V97.36h5.63v34.09c0,16,10.39,17.52,14.62,17.52s14.62-1.57,14.62-17.52V97.36h5.63Z"/><path class="cls-1" d="M834.85,144.28H835V97.36h5.63v55.36h-7l-33-47.38h-.15v47.38h-5.63V97.36h7Z"/><path class="cls-1" d="M868.24,152.72h-5.63V97.36h5.63Z"/><path class="cls-1" d="M906.39,144.28h.16l18.14-46.92h6.1l-21.58,55.36h-5.63l-21-55.36h6.26Z"/><path class="cls-1" d="M950.72,147.56h29.64v5.16H945.09V97.36h34.33v5.16h-28.7v18.85h26.82v5.16H950.72Z"/><path class="cls-1" d="M1004.12,152.72h-5.63V97.36h17c11.26,0,18.22,4.85,18.22,14.78,0,7.66-5.09,13.53-14.16,14.31l16,26.27h-6.89L1013.51,127h-9.39Zm0-30.88h10c10.09,0,13.53-4.38,13.53-9.7s-3.44-9.62-13.53-9.62h-10Z"/><path class="cls-1" d="M1078.09,106.51c-2.43-3.6-6-5.4-10.71-5.4-5.79,0-11.81,3-11.81,10,0,14.94,28.38,7,28.38,27,0,10.09-9.46,16-18.22,16-6.72,0-13.21-2.42-17.43-8.21l5.08-3.68c2.34,4.07,6.8,6.73,12.59,6.73,5.55,0,11.88-3.6,11.88-10.09,0-15.64-28.38-7-28.38-27.21,0-10.71,8.91-15.72,17.91-15.72,6.25,0,11.25,1.72,15.63,6.73Z"/><path class="cls-1" d="M1108,152.72h-5.63V97.36H1108Z"/><path class="cls-1" d="M1147.75,152.72h-5.63v-50.2h-18.53V97.36h42.69v5.16h-18.53Z"/><path class="cls-1" d="M1199.67,152.72H1194V128.87l-20.72-31.51h7l16.5,26.12,16.5-26.12h7l-20.72,31.51Z"/><path class="cls-1" d="M1287.63,154.13c-16.5,0-28.86-12.28-28.86-29.09S1271.13,96,1287.63,96s28.85,12.28,28.85,29.09S1304.13,154.13,1287.63,154.13Zm0-53c-14.23,0-22.76,11.19-22.76,23.93S1273.4,149,1287.63,149s22.75-11.18,22.75-23.93S1301.86,101.11,1287.63,101.11Z"/><path class="cls-1" d="M1340.4,152.72h-5.63V97.36h33.39v5.16H1340.4v18.85h25.81v5.16H1340.4Z"/><path class="cls-1" d="M386.8,177.84h44.25L461.62,258H462l30.76-80.15h44.06V300.67H507.56V206.46h-.37l-34.88,94.21H450l-33.57-94.21h-.37v94.21H386.8Z"/><path class="cls-1" d="M632.08,174.71c41.44,0,71.63,25.16,71.63,64.54s-30.19,64.54-71.63,64.54-71.63-25.16-71.63-64.54S590.64,174.71,632.08,174.71Zm0,104.1c24.94,0,41.25-16.66,41.25-39.56S657,199.7,632.08,199.7s-41.26,16.65-41.26,39.55S607.14,278.81,632.08,278.81Z"/><path class="cls-1" d="M727.34,177.84H767.1l56.44,85.35h.38V177.84h29.25V300.67H814.92L757,213.23h-.37v87.44H727.34Z"/><path class="cls-1" d="M909.62,201.78H871.74V177.84h105v23.94H938.87v98.89H909.62Z"/><path class="cls-1" d="M1022,177.84h24.19l57.76,122.83h-33l-11.44-26h-51.57l-11.06,26H964.57Zm11.25,35.73-16.13,38.17h32.44Z"/><path class="cls-1" d="M1120.78,177.84h39.75L1217,263.19h.37V177.84h29.25V300.67h-38.25l-57.95-87.44H1150v87.44h-29.25Z"/><path class="cls-1" d="M1321.05,177.84h24.19L1403,300.67h-33l-11.44-26H1307l-11.06,26h-32.26Zm11.25,35.73-16.12,38.17h32.44Z"/><path class="cls-1" d="M635.85,115.63c-52.31-24.49-61.48-28.2-66.5-28.2-5.63,0-8.94,1.74-24,6.35-15.76,4.83-21.64,6.61-23.56,6.75-2.2.16-12.44-3.21-25.62-9.55s-63.7-29.37-63.7-29.37-10.62-4.61-15-4.9-5.92-.62-30,8.06c-28.05,10.12-72,32.3-88.46,41.8S225.79,150.48,202,167c-10.34,7.19-54.69,40.35-69.7,52.55s-37.22,30.5-64,55.93C61.21,282.27,44,300.36,44,300.36H155.36c.69,0,63.79-109.42,159.2-176.4,40.33-28.32,87.93-46.74,93.06-48.75s9.51-4.61,17.94-.86,38.8,18.71,46.49,22.45L495.12,108s16.74,8.19,18.67,8.93a17,17,0,0,0,12.45.58c6.23-2,37.16-14.33,43.81-14.33,17.54,0,102.24,35.56,134.63,54.45,1.58.92,3,1.8,3.42,1.36s.08-1.1-1.54-2.41c-3.23-2.62-30.81-22.29-70.71-41"/></svg>