<?xml version="1.0" encoding="UTF-8" standalone="no"?>
<!-- Created with Inkscape (http://www.inkscape.org/) -->
<svg xmlns="http://www.w3.org/2000/svg" height="54.83" width="237.23" version="1.1">
  <g>
    <rect style="fill:#456bbd" height="54.834" width="237.237" y="0" x="0"/>
    <g style="fill:#fff">
      <path d="m10.862192 47.331848h-0.74997l-0.4375456-2.03743c-0.075027-0.341794-0.143755-0.604309-0.2061844-0.787544-0.0624383-0.18323-0.1561526-0.368624-0.2811432-0.556183-0.1249989-0.187552-0.291701-0.320939-0.5001068-0.400162-0.2084131-0.079214-0.4751237-0.118823-0.8001327-0.118827h-1.0372162v3.900146h-0.7499695v-8.62503h1.8123627c0.8249881 0.000008 1.4916694 0.170843 2.0000458 0.512504 0.5083669 0.341678 0.7625519 0.90835 0.7625579 1.70002-0.000006 1.008357-0.404236 1.675038-1.2126922 2.000046-0.1167341 0.0501-0.2917014 0.100076-0.5249024 0.149917v0.02518c0.2166707 0.04985 0.4020648 0.122711 0.5561829 0.218583 0.1541091 0.09588 0.2749077 0.187559 0.3623962 0.275039 0.087479 0.08749 0.1666335 0.222909 0.2374645 0.406266 0.07082 0.183362 0.120858 0.331309 0.150109 0.44384 0.02924 0.112536 0.07298 0.302063 0.131225 0.56858zm-0.9372714-6.412506c-0.000005-0.583387-0.1916933-0.983422-0.5750657-1.200104-0.383381-0.216667-0.8876199-0.325004-1.5127182-0.325012h-0.9872436v3.350067h0.6748199c0.441739 0.000005 0.8313464-0.04997 1.1688233-0.149917 0.3374695-0.09994 0.6270683-0.291629 0.8687973-0.575066 0.2417198-0.283426 0.362582-0.650082 0.362587-1.099968z"/>
      <path d="m16.762269 43.694534h-3.487396c-0.0084 0.133264-0.01259 0.33735-0.01259 0.612259-0.000001 0.783287 0.187491 1.406226 0.562477 1.86882 0.374983 0.462597 0.949921 0.693894 1.724816 0.693894 0.375108 0 0.737631-0.05417 1.08757-0.162506v0.612259c-0.424962 0.09994-0.858311 0.149917-1.300049 0.149917-0.958254 0-1.668614-0.297864-2.131081-0.893593-0.462469-0.595727-0.693703-1.389501-0.693702-2.381324-0.000001-0.408169 0.03751-0.778958 0.112533-1.112366 0.07502-0.3334 0.193786-0.643853 0.356293-0.931358 0.162505-0.287496 0.395837-0.510401 0.699997-0.668717 0.304157-0.158304 0.668714-0.237459 1.093674-0.237465 0.624844 0.000006 1.112298 0.197925 1.462364 0.593758 0.350057 0.395843 0.525088 0.910382 0.525093 1.543617zm-0.749969-0.600052c-0.000005-0.358322-0.118769-0.65625-0.356293-0.893783-0.237532-0.237523-0.53546-0.356287-0.893784-0.356293-0.774894 0.000006-1.245754 0.416697-1.412582 1.250076z"/>
      <path d="m22.499804 47.181931c-0.000005 1.766711-0.829193 2.650067-2.487565 2.65007-0.424959-0.000003-0.941596-0.06676-1.549911-0.200272v-0.637436c0.499978 0.158435 0.945789 0.237654 1.337433 0.237656 0.733436-0.000002 1.262598-0.154179 1.587486-0.462532 0.324881-0.308356 0.487323-0.825056 0.487328-1.550102v-1.124955h-0.0248c-0.09156 0.383251-0.28528 0.685311-0.581169 0.906182-0.295897 0.220871-0.64386 0.331306-1.043892 0.331306-1.408387 0-2.11258-0.999958-2.112579-2.999878-0.000001-0.491838 0.05836-0.956468 0.175094-1.39389 0.116729-0.437414 0.339698-0.829056 0.668908-1.174927 0.329206-0.34586 0.7438-0.518793 1.243782-0.518799 0.408169 0.000006 0.758104 0.108344 1.049804 0.325012 0.291693 0.216681 0.491711 0.520839 0.600052 0.912476h0.0248v-1.100159h0.625229zm-0.787735-1.83754c0.100195-0.349933 0.150294-0.704063 0.150299-1.062393-0.000005-0.358324-0.04794-0.712518-0.143814-1.062584-0.09588-0.350058-0.270911-0.666741-0.525094-0.950051-0.254189-0.283299-0.564641-0.424951-0.931358-0.424957-0.274915 0.000006-0.510281 0.09168-0.7061 0.27504-0.195823 0.183365-0.339574 0.420829-0.431252 0.712395-0.09168 0.291574-0.158375 0.568648-0.200081 0.831222-0.04171 0.262582-0.06256 0.523062-0.06256 0.781441-0.000001 1.524863 0.462594 2.287293 1.387787 2.287292 0.366462 0.000001 0.676788-0.14375 0.930977-0.431251 0.254182-0.2875 0.431247-0.606218 0.531197-0.956154z"/>
      <path d="m25.637278 39.719238h-0.925064v-1.01242h0.925064zm-0.149918 7.61261h-0.625229v-5.950165h0.625229z"/>
      <path d="m32.274813 44.369354c-0.000006 0.875094-0.195827 1.610503-0.587464 2.20623-0.391646 0.595729-1.004159 0.893593-1.837539 0.893593-0.833387 0-1.450096-0.297864-1.850129-0.893593-0.400035-0.595727-0.600052-1.331136-0.600051-2.20623-0.000001-0.883225 0.200016-1.624865 0.600051-2.224922 0.400033-0.600046 1.016742-0.900072 1.850129-0.900078 0.566606 0.000006 1.039501 0.156282 1.418686 0.468827 0.379176 0.312556 0.64169 0.693834 0.787544 1.143837 0.145843 0.450011 0.218767 0.954122 0.218773 1.512336zm-0.74997 0.07515c-0.000004-0.433347-0.03961-0.829185-0.118828-1.187515-0.07922-0.358323-0.254254-0.683335-0.525093-0.975037-0.270847-0.291692-0.627012-0.43754-1.068496-0.437546-1.108553 0.000006-1.662828 0.866704-1.662827 2.600098-0.000001 1.61667 0.554274 2.425003 1.662827 2.425003 1.141607 0 1.712413-0.808333 1.712417-2.425003z"/>
      <path d="m38.299667 47.331848h-0.624847v-3.749847c-0.000005-0.183356-0.0042-0.341729-0.01259-0.475121-0.0084-0.133383-0.03135-0.285462-0.06885-0.456238-0.03751-0.170766-0.09168-0.31032-0.162506-0.418663-0.07083-0.108332-0.174972-0.200012-0.312424-0.275039-0.13746-0.07502-0.302064-0.112528-0.493812-0.112534-0.424961 0.000006-0.783287 0.200023-1.074982 0.600052-0.291699 0.400039-0.499982 0.841653-0.624847 1.324844-0.116732 0.424961-0.175097 0.854114-0.175095 1.287461v2.275085h-0.624847v-5.950165h0.624847v1.462555h0.02518c0.174966-0.533289 0.41243-0.93326 0.712395-1.199913 0.299959-0.266641 0.720784-0.399965 1.262474-0.399971 0.191748 0.000006 0.391765 0.04171 0.600052 0.125122 0.633235 0.258134 0.949854 0.778967 0.949859 1.5625z"/>
      <path d="m44.112236 47.331848h-0.624847v-0.837326h-0.02518c-0.449884 0.64977-1.066593 0.974655-1.850129 0.974655-0.474804 0-0.845592-0.145785-1.112365-0.437355-0.266775-0.291569-0.400163-0.674882-0.400162-1.14994-0.000001-0.325011 0.07922-0.610413 0.237656-0.856209 0.158436-0.245791 0.350124-0.431185 0.575065-0.556183 0.224939-0.124992 0.504111-0.227099 0.837517-0.30632 0.333402-0.07921 0.627133-0.129252 0.881195-0.150108 0.254056-0.02085 0.539522-0.03547 0.8564-0.04387-0.000004-0.04984-0.000004-0.120669 0-0.212479-0.000004-0.258124-0.0021-0.451783-0.0063-0.580979-0.0042-0.129186-0.02715-0.295888-0.06885-0.500106-0.04171-0.204209-0.106307-0.354254-0.193787-0.450135-0.08749-0.09587-0.216614-0.183354-0.387382-0.262451-0.170774-0.07909-0.381155-0.118631-0.631142-0.118637-0.366722 0.000006-0.647992 0.07496-0.843811 0.224877-0.195822 0.149922-0.327175 0.395779-0.394058 0.737571h-0.762176c-0.000001-0.516759 0.206247-0.906366 0.618743-1.168823 0.412495-0.262445 0.889586-0.393671 1.431275-0.393677 0.699866 0.000006 1.185222 0.162512 1.45607 0.487519 0.270839 0.325017 0.40626 0.837458 0.406265 1.537323zm-0.624847-2.762604h-0.625229c-0.325015 0.000003-0.627076 0.03542-0.906182 0.10624-0.27911 0.07083-0.533233 0.212481-0.762367 0.424957-0.229137 0.212481-0.343705 0.481226-0.343704 0.806236-0.000001 0.241853 0.08538 0.437738 0.256157 0.587654 0.170769 0.149919 0.38115 0.224877 0.631142 0.224877 0.291694 0 0.572964-0.07496 0.843811-0.224877 0.27084-0.149916 0.481284-0.34987 0.631332-0.599861 0.183356-0.300088 0.275036-0.741829 0.27504-1.325226z"/>
      <path d="m47.08709 47.331848h-0.624848v-8.62503h0.624848z"/>
      <path d="m53.212273 43.694534h-3.487397c-0.0084 0.133264-0.01259 0.33735-0.01259 0.612259-0.000001 0.783287 0.187491 1.406226 0.562477 1.86882 0.374983 0.462597 0.94992 0.693894 1.724815 0.693894 0.375108 0 0.737631-0.05417 1.087571-0.162506v0.612259c-0.424962 0.09994-0.858311 0.149917-1.300049 0.149917-0.958255 0-1.668614-0.297864-2.131081-0.893593-0.462469-0.595727-0.693703-1.389501-0.693703-2.381324 0-0.408169 0.03751-0.778958 0.112534-1.112366 0.07502-0.3334 0.193786-0.643853 0.356293-0.931358 0.162505-0.287496 0.395837-0.510401 0.699997-0.668717 0.304156-0.158304 0.668714-0.237459 1.093673-0.237465 0.624844 0.000006 1.112299 0.197925 1.462365 0.593758 0.350057 0.395843 0.525088 0.910382 0.525093 1.543617zm-0.74997-0.600052c-0.000004-0.358322-0.118768-0.65625-0.356293-0.893783-0.237532-0.237523-0.535459-0.356287-0.893783-0.356293-0.774894 0.000006-1.245755 0.416697-1.412583 1.250076z"/>
      <path d="m58.287155 45.669403c-0.000004 0.633241-0.210384 1.091513-0.631142 1.374817-0.420764 0.283305-0.968745 0.424957-1.643943 0.424957-0.541689 0-1.062522-0.08329-1.5625-0.249862v-0.637436c0.55847 0.191752 1.079303 0.287628 1.5625 0.287628 0.425209 0 0.785697-0.08755 1.081466-0.262642 0.295763-0.175094 0.443646-0.462658 0.44365-0.862694-0.000004-0.266518-0.104145-0.495591-0.312424-0.687218-0.208286-0.191622-0.462471-0.349932-0.762558-0.474929-0.300092-0.124992-0.600117-0.254183-0.900078-0.387574-0.299963-0.133384-0.554086-0.316743-0.762367-0.550079-0.208283-0.233328-0.312424-0.508304-0.312424-0.824928 0-0.550075 0.181261-0.950109 0.543785-1.200104 0.362522-0.249984 0.835354-0.374979 1.418495-0.374985 0.400032 0.000006 0.883354 0.06664 1.449967 0.19989v0.650025c-0.499983-0.16657-0.966647-0.249857-1.399994-0.249863-0.325014 0.000006-0.616648 0.06873-0.874901 0.206185-0.258256 0.137461-0.387384 0.352037-0.387382 0.64373-0.000002 0.09995 0.01875 0.193664 0.05627 0.281143 0.03751 0.08749 0.07915 0.160412 0.124932 0.218773 0.04577 0.05837 0.118699 0.120866 0.218773 0.187492 0.10007 0.06663 0.177191 0.112474 0.231361 0.13752 0.05417 0.02505 0.143749 0.06676 0.268746 0.125122 0.124992 0.05837 0.204147 0.09582 0.237464 0.112343l0.512314 0.250244c0.258379 0.124871 0.445871 0.220683 0.562477 0.287437 0.116599 0.06676 0.254119 0.166769 0.41256 0.300026 0.158433 0.133263 0.268868 0.285342 0.331306 0.456238 0.06243 0.170901 0.09365 0.377148 0.09365 0.618744z"/>
      <path d="m67.987167 47.331848h-0.749969l-0.437546-2.03743c-0.07503-0.341794-0.143755-0.604309-0.206184-0.787544-0.06244-0.18323-0.156153-0.368624-0.281143-0.556183-0.124999-0.187552-0.291702-0.320939-0.500107-0.400162-0.208413-0.07921-0.475124-0.118823-0.800133-0.118827h-1.037216v3.900146h-0.74997v-8.62503h1.812363c0.824988 0.000008 1.491669 0.170843 2.000046 0.512504 0.508366 0.341678 0.762552 0.90835 0.762558 1.70002-0.000006 1.008357-0.404236 1.675038-1.212693 2.000046-0.116734 0.0501-0.291701 0.100076-0.524902 0.149917v0.02518c0.216671 0.04985 0.402065 0.122711 0.556183 0.218583 0.154109 0.09588 0.274908 0.187559 0.362396 0.275039 0.08748 0.08749 0.166634 0.222909 0.237465 0.406266 0.07082 0.183362 0.120857 0.331309 0.150108 0.44384 0.02924 0.112536 0.07298 0.302063 0.131226 0.56858zm-0.937271-6.412506c-0.000005-0.583387-0.191693-0.983422-0.575065-1.200104-0.383381-0.216667-0.88762-0.325004-1.512719-0.325012h-0.987243v3.350067h0.67482c0.441739 0.000005 0.831346-0.04997 1.168823-0.149917 0.337469-0.09994 0.627068-0.291629 0.868797-0.575066 0.24172-0.283426 0.362582-0.650082 0.362587-1.099968z"/>
      <path d="m73.887283 43.694534h-3.487396c-0.0084 0.133264-0.01259 0.33735-0.01259 0.612259-0.000002 0.783287 0.18749 1.406226 0.562477 1.86882 0.374982 0.462597 0.94992 0.693894 1.724815 0.693894 0.375108 0 0.737631-0.05417 1.08757-0.162506v0.612259c-0.424961 0.09994-0.85831 0.149917-1.300049 0.149917-0.958254 0-1.668613-0.297864-2.13108-0.893593-0.462469-0.595727-0.693703-1.389501-0.693703-2.381324 0-0.408169 0.03751-0.778958 0.112534-1.112366 0.07502-0.3334 0.193785-0.643853 0.356292-0.931358 0.162505-0.287496 0.395837-0.510401 0.699997-0.668717 0.304157-0.158304 0.668714-0.237459 1.093674-0.237465 0.624844 0.000006 1.112298 0.197925 1.462364 0.593758 0.350058 0.395843 0.525089 0.910382 0.525093 1.543617zm-0.749969-0.600052c-0.000004-0.358322-0.118768-0.65625-0.356293-0.893783-0.237532-0.237523-0.535459-0.356287-0.893783-0.356293-0.774895 0.000006-1.245755 0.416697-1.412583 1.250076z"/>
      <path d="m79.387123 43.094482h-0.81253c-0.000004-0.358322-0.09582-0.65625-0.287438-0.893783-0.191628-0.237523-0.462408-0.356287-0.81234-0.356293-0.375114 0.000006-0.679336 0.133329-0.912666 0.399971-0.233334 0.266652-0.387511 0.562482-0.462532 0.887489-0.07502 0.325017-0.112535 0.670882-0.112534 1.037598-0.000001 0.816602 0.181261 1.470758 0.543786 1.962471 0.362521 0.491715 0.935424 0.737572 1.718711 0.737572 0.308478 0 0.616833-0.03751 0.925064-0.112534v0.600052c-0.291701 0.07477-0.63337 0.112152-1.025009 0.112152-0.975039 0-1.704217-0.285403-2.187538-0.856209-0.483323-0.570804-0.724984-1.35199-0.724983-2.343559-0.000001-0.408423 0.03541-0.781373 0.106239-1.118851 0.07083-0.337469 0.187492-0.656186 0.349999-0.956153 0.162505-0.299957 0.395837-0.533289 0.699997-0.699997 0.304156-0.166697 0.668841-0.250048 1.094055-0.250054 0.591529 0.000006 1.056031 0.162512 1.393509 0.487519 0.337469 0.325017 0.506205 0.77922 0.50621 1.362609z"/>
      <path d="m85.224754 47.331848h-0.624847v-3.749847c-0.000005-0.241848-0.01043-0.444027-0.03128-0.606537-0.02086-0.162502-0.06256-0.341665-0.125122-0.537491-0.06257-0.195816-0.170902-0.343699-0.325012-0.443649-0.154118-0.09994-0.347904-0.149912-0.58136-0.149918-0.42496 0.000006-0.783287 0.200023-1.074981 0.600052-0.2917 0.400039-0.499982 0.841653-0.624848 1.324844-0.116731 0.424961-0.175096 0.854114-0.175094 1.287461v2.275085h-0.624848v-8.62503h0.624848v4.13742h0.02518c0.174965-0.533289 0.41243-0.93326 0.712394-1.199913 0.29996-0.266641 0.720784-0.399965 1.262474-0.399971 0.191749 0.000006 0.391766 0.04171 0.600052 0.125122 0.641627 0.258134 0.962443 0.778967 0.962448 1.5625z"/>
      <path d="m91.299774 43.694534h-3.487396c-0.0084 0.133264-0.01259 0.33735-0.01259 0.612259-0.000001 0.783287 0.187491 1.406226 0.562478 1.86882 0.374982 0.462597 0.94992 0.693894 1.724815 0.693894 0.375108 0 0.737631-0.05417 1.08757-0.162506v0.612259c-0.424961 0.09994-0.858311 0.149917-1.300049 0.149917-0.958254 0-1.668614-0.297864-2.13108-0.893593-0.46247-0.595727-0.693704-1.389501-0.693703-2.381324-0.000001-0.408169 0.03751-0.778958 0.112534-1.112366 0.07502-0.3334 0.193785-0.643853 0.356292-0.931358 0.162505-0.287496 0.395837-0.510401 0.699997-0.668717 0.304157-0.158304 0.668714-0.237459 1.093674-0.237465 0.624844 0.000006 1.112298 0.197925 1.462364 0.593758 0.350058 0.395843 0.525088 0.910382 0.525093 1.543617zm-0.749969-0.600052c-0.000004-0.358322-0.118768-0.65625-0.356293-0.893783-0.237532-0.237523-0.53546-0.356287-0.893784-0.356293-0.774894 0.000006-1.245754 0.416697-1.412582 1.250076z"/>
      <path d="m97.28717 47.331848h-0.624847v-3.749847c-0.000005-0.183356-0.0042-0.341729-0.01259-0.475121-0.0084-0.133383-0.03135-0.285462-0.06885-0.456238-0.03751-0.170766-0.09168-0.31032-0.162506-0.418663-0.07083-0.108332-0.174972-0.200012-0.312424-0.275039-0.13746-0.07502-0.302064-0.112528-0.493812-0.112534-0.424961 0.000006-0.783287 0.200023-1.074982 0.600052-0.291699 0.400039-0.499981 0.841653-0.624847 1.324844-0.116732 0.424961-0.175097 0.854114-0.175095 1.287461v2.275085h-0.624847v-5.950165h0.624847v1.462555h0.02518c0.174966-0.533289 0.41243-0.93326 0.712395-1.199913 0.29996-0.266641 0.720784-0.399965 1.262474-0.399971 0.191748 0.000006 0.391765 0.04171 0.600052 0.125122 0.633235 0.258134 0.949854 0.778967 0.949859 1.5625z"/>
      <path d="m103.06236 47.331848h-4.18778v-0.600052l3.2753-4.750061h-3.037644v-0.600052h3.837584v0.637818l-3.250121 4.712295h3.362661z"/>
      <path d="m108.48727 43.694534h-3.48739c-0.008 0.133264-0.0126 0.33735-0.0126 0.612259 0 0.783287 0.18749 1.406226 0.56248 1.86882 0.37498 0.462597 0.94992 0.693894 1.72481 0.693894 0.37511 0 0.73763-0.05417 1.08757-0.162506v0.612259c-0.42496 0.09994-0.85831 0.149917-1.30005 0.149917-0.95825 0-1.66861-0.297864-2.13108-0.893593-0.46247-0.595727-0.6937-1.389501-0.6937-2.381324 0-0.408169 0.0375-0.778958 0.11253-1.112366 0.075-0.3334 0.19379-0.643853 0.3563-0.931358 0.1625-0.287496 0.39583-0.510401 0.69999-0.668717 0.30416-0.158304 0.66872-0.237459 1.09368-0.237465 0.62484 0.000006 1.1123 0.197925 1.46236 0.593758 0.35006 0.395843 0.52509 0.910382 0.52509 1.543617zm-0.74997-0.600052c0-0.358322-0.11876-0.65625-0.35629-0.893783-0.23753-0.237523-0.53546-0.356287-0.89378-0.356293-0.7749 0.000006-1.24576 0.416697-1.41258 1.250076z"/>
      <path d="m114.47467 47.331848h-0.62485v-3.749847c0-0.183356-0.004-0.341729-0.0126-0.475121-0.008-0.133383-0.0313-0.285462-0.0689-0.456238-0.0375-0.170766-0.0917-0.31032-0.16251-0.418663-0.0708-0.108332-0.17497-0.200012-0.31242-0.275039-0.13746-0.07502-0.30206-0.112528-0.49381-0.112534-0.42496 0.000006-0.78329 0.200023-1.07498 0.600052-0.2917 0.400039-0.49999 0.841653-0.62485 1.324844-0.11673 0.424961-0.1751 0.854114-0.1751 1.287461v2.275085h-0.62484v-5.950165h0.62484v1.462555h0.0252c0.17497-0.533289 0.41243-0.93326 0.71239-1.199913 0.29996-0.266641 0.72079-0.399965 1.26248-0.399971 0.19175 0.000006 0.39176 0.04171 0.60005 0.125122 0.63324 0.258134 0.94986 0.778967 0.94986 1.5625z"/>
      <path d="m119.41216 47.419205c-0.19151 0.03332-0.40398 0.04997-0.63744 0.04997-0.5333 0-0.92914-0.116666-1.18752-0.349998s-0.38757-0.604057-0.38757-1.112175v-4.025269h-0.94986v-0.600052h0.94986v-1.374817l0.62523-0.412368v1.787185h1.5873v0.600052h-1.5873v3.824997c0 0.358329 0.0729 0.625039 0.21877 0.800133 0.14585 0.175095 0.39794 0.262642 0.75627 0.262642 0.17496 0 0.37905-0.03751 0.61226-0.112534z"/>
      <path d="m123.53709 41.919174c-0.36646 0.000006-0.68308 0.09588-0.94986 0.287628-0.26677 0.191757-0.46679 0.445943-0.60005 0.762558-0.13326 0.316624-0.22697 0.635342-0.28114 0.956154-0.0542 0.320819-0.0813 0.656322-0.0812 1.006508v2.399826h-0.62485v-5.950165h0.62485v1.212693h0.0248c0.31687-0.900009 0.94604-1.350016 1.88751-1.350022z"/>
      <path d="m129.36225 47.331848h-0.62485v-1.462555h-0.0252c-0.17497 0.533296-0.41454 0.933266-0.71869 1.199913-0.30416 0.266648-0.72709 0.399971-1.26877 0.399971-0.19989 0-0.39571-0.04158-0.58746-0.12474-0.64164-0.258382-0.96245-0.779215-0.96245-1.5625v-4.400254h0.62485v3.750229c-0.00001 0.183362 0.004 0.341672 0.0126 0.47493 0.008 0.133262 0.0313 0.285341 0.0689 0.456238 0.0375 0.170899 0.0917 0.310517 0.16251 0.418854 0.0708 0.108338 0.17496 0.200018 0.31242 0.275039 0.13745 0.07502 0.30206 0.112534 0.49381 0.112534 0.41656 0 0.77279-0.197919 1.06869-0.593758 0.29589-0.395837 0.51046-0.839676 0.64373-1.33152 0.11672-0.424954 0.17509-0.854107 0.17509-1.28746v-2.275086h0.62485z"/>
      <path d="m138.87469 47.331848h-0.62484v-3.749847c-0.00001-0.233456-0.008-0.425208-0.025-0.575257-0.0167-0.15004-0.0521-0.327105-0.10624-0.531196-0.0542-0.204081-0.15208-0.360293-0.29373-0.468636-0.14166-0.108332-0.32082-0.1625-0.53749-0.162506-0.38351 0.000006-0.70859 0.195827-0.97523 0.587464-0.26665 0.391646-0.45834 0.816603-0.57506 1.274871-0.1 0.400038-0.14993 0.812534-0.14992 1.237488v2.387619h-0.62485v-3.749847c0-0.233456-0.004-0.410585-0.0126-0.531388-0.008-0.120794-0.0334-0.295761-0.075-0.524902-0.0416-0.229131-0.12074-0.399966-0.23746-0.512505-0.11673-0.112528-0.26678-0.168794-0.45014-0.1688-0.43335 0.000006-0.79791 0.204155-1.09367 0.61245-0.29577 0.408304-0.51041 0.862443-0.64392 1.362419-0.1 0.400038-0.14992 0.812533-0.14992 1.237488v2.275085h-0.62484v-5.950165h0.62484v1.462555h0.0252c0.15818-0.524897 0.38102-0.92277 0.66853-1.193618 0.28749-0.270838 0.69382-0.40626 1.21898-0.406266 0.43335 0.000006 0.77502 0.13333 1.02501 0.399971 0.24999 0.266653 0.37498 0.616651 0.37499 1.049996h0.0248c0.12512-0.424953 0.33346-0.772853 0.62504-1.043701 0.29156-0.270838 0.64576-0.40626 1.06258-0.406266 1.03327 0.000006 1.54991 0.562546 1.54991 1.687622z"/>
      <path d="m147.57484 39.394226c-0.39164-0.08315-0.62497-0.124732-0.69999-0.124741-0.16684 0.000009-0.31478 0.0083-0.44384 0.02499-0.12907 0.01667-0.23944 0.05208-0.33112 0.106239-0.0917 0.05418-0.1709 0.102051-0.23765 0.143623-0.0668 0.04159-0.12093 0.114513-0.16251 0.218773-0.0416 0.104276-0.0749 0.183495-0.0999 0.237656-0.0251 0.05418-0.0417 0.156219-0.05 0.306129-0.008 0.149925-0.0145 0.256164-0.0187 0.318718-0.004 0.06257-0.004 0.187563 0 0.374985 0.004 0.187435 0.006 0.314464 0.006 0.381088h1.72501v0.600052h-1.72501v5.350113h-0.62522v-5.350113h-1.02501v-0.600052h1.02501v-0.937271c-0.00001-0.550072 0.1604-0.983421 0.48122-1.300049 0.32081-0.316611 0.75206-0.474921 1.29375-0.474929 0.32501 0.000008 0.62091 0.03332 0.88768 0.09994z"/>
      <path d="m152.2121 40.206757h-0.92469v-0.975037h0.92469zm-2.05002 0h-0.92468v-0.975037h0.92468zm2.66266 7.125091h-0.62485v-1.462555h-0.0252c-0.17497 0.533296-0.41453 0.933266-0.71869 1.199913-0.30416 0.266648-0.72708 0.399971-1.26876 0.399971-0.1999 0-0.39572-0.04158-0.58747-0.12474-0.64163-0.258382-0.96245-0.779215-0.96245-1.5625v-4.400254h0.62485v3.750229c0 0.183362 0.004 0.341672 0.0126 0.47493 0.008 0.133262 0.0313 0.285341 0.0689 0.456238 0.0375 0.170899 0.0917 0.310517 0.1625 0.418854 0.0708 0.108338 0.17497 0.200018 0.31243 0.275039 0.13745 0.07502 0.30205 0.112534 0.49381 0.112534 0.41656 0 0.77279-0.197919 1.06869-0.593758 0.29588-0.395837 0.51046-0.839676 0.64373-1.33152 0.11672-0.424954 0.17509-0.854107 0.17509-1.28746v-2.275086h0.62485z"/>
      <path d="m157.6871 41.919174c-0.36647 0.000006-0.68308 0.09588-0.94986 0.287628-0.26677 0.191757-0.46679 0.445943-0.60005 0.762558-0.13326 0.316624-0.22697 0.635342-0.28114 0.956154-0.0542 0.320819-0.0813 0.656322-0.0813 1.006508v2.399826h-0.62485v-5.950165h0.62485v1.212693h0.0248c0.31687-0.900009 0.94604-1.350016 1.88751-1.350022z"/>
      <path d="m168.09959 47.331848h-1.07498l-3.59993-7.512665h-0.0248v7.512665h-0.74997v-8.62503h1.01242l3.66249 7.712555h0.0248v-7.712555h0.74997z"/>
      <path d="m171.2748 39.719238h-0.92507v-1.01242h0.92507zm-0.14992 7.61261h-0.62523v-5.950165h0.62523z"/>
      <path d="m177.2623 43.694534h-3.4874c-0.008 0.133264-0.0126 0.33735-0.0126 0.612259 0 0.783287 0.18749 1.406226 0.56248 1.86882 0.37498 0.462597 0.94992 0.693894 1.72482 0.693894 0.3751 0 0.73763-0.05417 1.08757-0.162506v0.612259c-0.42497 0.09994-0.85831 0.149917-1.30005 0.149917-0.95826 0-1.66862-0.297864-2.13108-0.893593-0.46247-0.595727-0.69371-1.389501-0.69371-2.381324 0-0.408169 0.0375-0.778958 0.11254-1.112366 0.075-0.3334 0.19378-0.643853 0.35629-0.931358 0.16251-0.287496 0.39584-0.510401 0.7-0.668717 0.30415-0.158304 0.66871-0.237459 1.09367-0.237465 0.62485 0.000006 1.1123 0.197925 1.46237 0.593758 0.35005 0.395843 0.52508 0.910382 0.52509 1.543617zm-0.74997-0.600052c0-0.358322-0.11877-0.65625-0.35629-0.893783-0.23754-0.237523-0.53546-0.356287-0.89379-0.356293-0.77489 0.000006-1.24575 0.416697-1.41258 1.250076z"/>
      <path d="m183.01234 47.331848h-0.62522v-1.112366h-0.0248c-0.10834 0.400036-0.31255 0.708327-0.61264 0.924874s-0.66262 0.324821-1.08757 0.324821c-1.36668 0-2.05002-1.033273-2.05002-3.099823 0-0.366716 0.0354-0.72091 0.10624-1.062584 0.0708-0.341665 0.18336-0.672908 0.3376-0.993728 0.15424-0.320811 0.37511-0.579129 0.66261-0.774956 0.2875-0.195815 0.62707-0.293726 1.01872-0.293732 0.39164 0.000006 0.73744 0.112476 1.03741 0.33741 0.29995 0.224946 0.49584 0.524971 0.58765 0.900078h0.0248v-3.775024h0.62522zm-0.62522-2.92511c-0.00001-0.274909-0.0271-0.549885-0.0813-0.824928-0.0542-0.275036-0.13956-0.547977-0.25615-0.818825-0.11661-0.270838-0.28745-0.491646-0.51251-0.662422-0.22507-0.170766-0.48345-0.256151-0.77515-0.256157-0.26652 0.000006-0.49769 0.08959-0.69351 0.268746-0.19582 0.179168-0.34167 0.410402-0.43754 0.693702-0.0959 0.283309-0.16467 0.556187-0.20638 0.818634-0.0417 0.262455-0.0626 0.518802-0.0626 0.769043 0 1.649985 0.46259 2.474976 1.38779 2.474976 0.5249 0 0.929-0.26671 1.21231-0.800133 0.2833-0.53342 0.42495-1.087631 0.42496-1.662636z"/>
      <path d="m189.09976 43.694534h-3.48739c-0.008 0.133264-0.0126 0.33735-0.0126 0.612259 0 0.783287 0.18749 1.406226 0.56247 1.86882 0.37499 0.462597 0.94992 0.693894 1.72482 0.693894 0.37511 0 0.73763-0.05417 1.08757-0.162506v0.612259c-0.42496 0.09994-0.85831 0.149917-1.30005 0.149917-0.95825 0-1.66861-0.297864-2.13108-0.893593-0.46247-0.595727-0.6937-1.389501-0.6937-2.381324 0-0.408169 0.0375-0.778958 0.11253-1.112366 0.075-0.3334 0.19379-0.643853 0.35629-0.931358 0.16251-0.287496 0.39584-0.510401 0.7-0.668717 0.30416-0.158304 0.66872-0.237459 1.09367-0.237465 0.62485 0.000006 1.1123 0.197925 1.46237 0.593758 0.35006 0.395843 0.52509 0.910382 0.52509 1.543617zm-0.74997-0.600052c0-0.358322-0.11877-0.65625-0.35629-0.893783-0.23753-0.237523-0.53546-0.356287-0.89378-0.356293-0.7749 0.000006-1.24576 0.416697-1.41259 1.250076z"/>
      <path d="m193.4621 41.919174c-0.36647 0.000006-0.68309 0.09588-0.94986 0.287628-0.26678 0.191757-0.4668 0.445943-0.60005 0.762558-0.13327 0.316624-0.22698 0.635342-0.28115 0.956154-0.0542 0.320819-0.0813 0.656322-0.0813 1.006508v2.399826h-0.62485v-5.950165h0.62485v1.212693h0.0248c0.31688-0.900009 0.94605-1.350016 1.88752-1.350022z"/>
      <path d="m198.36215 45.669403c0 0.633241-0.21038 1.091513-0.63114 1.374817-0.42076 0.283305-0.96874 0.424957-1.64394 0.424957-0.54169 0-1.06252-0.08329-1.5625-0.249862v-0.637436c0.55847 0.191752 1.0793 0.287628 1.5625 0.287628 0.42521 0 0.78569-0.08755 1.08146-0.262642 0.29577-0.175094 0.44365-0.462658 0.44365-0.862694 0-0.266518-0.10414-0.495591-0.31242-0.687218-0.20829-0.191622-0.46247-0.349932-0.76256-0.474929-0.30009-0.124992-0.60012-0.254183-0.90008-0.387574-0.29996-0.133384-0.55408-0.316743-0.76236-0.550079-0.20829-0.233328-0.31243-0.508304-0.31243-0.824928 0-0.550075 0.18126-0.950109 0.54379-1.200104 0.36252-0.249984 0.83535-0.374979 1.41849-0.374985 0.40003 0.000006 0.88336 0.06664 1.44997 0.19989v0.650025c-0.49998-0.16657-0.96665-0.249857-1.4-0.249863-0.32501 0.000006-0.61664 0.06873-0.8749 0.206185-0.25825 0.137461-0.38738 0.352037-0.38738 0.64373 0 0.09995 0.0188 0.193664 0.0563 0.281143 0.0375 0.08749 0.0791 0.160412 0.12493 0.218773 0.0458 0.05837 0.1187 0.120866 0.21877 0.187492 0.10007 0.06663 0.17719 0.112474 0.23136 0.13752 0.0542 0.02505 0.14375 0.06676 0.26875 0.125122 0.12499 0.05837 0.20415 0.09582 0.23746 0.112343l0.51232 0.250244c0.25838 0.124871 0.44587 0.220683 0.56248 0.287437 0.11659 0.06676 0.25411 0.166769 0.41255 0.300026 0.15844 0.133263 0.26887 0.285342 0.33131 0.456238 0.0624 0.170901 0.0937 0.377148 0.0937 0.618744z"/>
      <path d="m203.46225 47.331848h-0.62485v-0.837326h-0.0252c-0.44989 0.64977-1.0666 0.974655-1.85013 0.974655-0.47481 0-0.8456-0.145785-1.11237-0.437355-0.26677-0.291569-0.40016-0.674882-0.40016-1.14994 0-0.325011 0.0792-0.610413 0.23766-0.856209 0.15843-0.245791 0.35012-0.431185 0.57506-0.556183 0.22494-0.124992 0.50411-0.227099 0.83752-0.30632 0.3334-0.07921 0.62713-0.129252 0.88119-0.150108 0.25406-0.02085 0.53952-0.03547 0.8564-0.04387v-0.212479c0-0.258124-0.002-0.451783-0.006-0.580979-0.004-0.129186-0.0272-0.295888-0.0689-0.500106-0.0417-0.204209-0.1063-0.354254-0.19378-0.450135-0.0875-0.09587-0.21662-0.183354-0.38739-0.262451-0.17077-0.07909-0.38115-0.118631-0.63114-0.118637-0.36672 0.000006-0.64799 0.07496-0.84381 0.224877-0.19582 0.149922-0.32717 0.395779-0.39406 0.737571h-0.76217c0-0.516759 0.20624-0.906366 0.61874-1.168823 0.41249-0.262445 0.88959-0.393671 1.43127-0.393677 0.69987 0.000006 1.18523 0.162512 1.45607 0.487519 0.27084 0.325017 0.40627 0.837458 0.40627 1.537323zm-0.62485-2.762604h-0.62523c-0.32501 0.000003-0.62707 0.03542-0.90618 0.10624-0.27911 0.07083-0.53323 0.212481-0.76237 0.424957-0.22913 0.212481-0.3437 0.481226-0.3437 0.806236 0 0.241853 0.0854 0.437738 0.25616 0.587654 0.17077 0.149919 0.38115 0.224877 0.63114 0.224877 0.29169 0 0.57296-0.07496 0.84381-0.224877 0.27084-0.149916 0.48128-0.34987 0.63133-0.599861 0.18336-0.300088 0.27504-0.741829 0.27504-1.325226z"/>
      <path d="m209.46216 43.094482h-0.81253c-0.00001-0.358322-0.0958-0.65625-0.28744-0.893783-0.19163-0.237523-0.46241-0.356287-0.81234-0.356293-0.37511 0.000006-0.67934 0.133329-0.91267 0.399971-0.23333 0.266652-0.38751 0.562482-0.46253 0.887489-0.075 0.325017-0.11253 0.670882-0.11253 1.037598 0 0.816602 0.18126 1.470758 0.54378 1.962471 0.36252 0.491715 0.93543 0.737572 1.71872 0.737572 0.30847 0 0.61683-0.03751 0.92506-0.112534v0.600052c-0.2917 0.07477-0.63337 0.112152-1.02501 0.112152-0.97504 0-1.70422-0.285403-2.18754-0.856209-0.48332-0.570804-0.72498-1.35199-0.72498-2.343559 0-0.408423 0.0354-0.781373 0.10624-1.118851 0.0708-0.337469 0.18749-0.656186 0.35-0.956153 0.1625-0.299957 0.39583-0.533289 0.69999-0.699997 0.30416-0.166697 0.66884-0.250048 1.09406-0.250054 0.59153 0.000006 1.05603 0.162512 1.39351 0.487519 0.33747 0.325017 0.5062 0.77922 0.50621 1.362609z"/>
      <path d="m215.29971 47.331848h-0.62484v-3.749847c-0.00001-0.241848-0.0104-0.444027-0.0313-0.606537-0.0209-0.162502-0.0626-0.341665-0.12513-0.537491-0.0626-0.195816-0.1709-0.343699-0.32501-0.443649-0.15412-0.09994-0.3479-0.149912-0.58136-0.149918-0.42496 0.000006-0.78329 0.200023-1.07498 0.600052-0.2917 0.400039-0.49998 0.841653-0.62485 1.324844-0.11673 0.424961-0.17509 0.854114-0.17509 1.287461v2.275085h-0.62485v-8.62503h0.62485v4.13742h0.0252c0.17497-0.533289 0.41243-0.93326 0.7124-1.199913 0.29996-0.266641 0.72078-0.399965 1.26247-0.399971 0.19175 0.000006 0.39177 0.04171 0.60006 0.125122 0.64162 0.258134 0.96244 0.778967 0.96244 1.5625z"/>
      <path d="m220.87466 45.669403c0 0.633241-0.21038 1.091513-0.63114 1.374817-0.42076 0.283305-0.96874 0.424957-1.64394 0.424957-0.54169 0-1.06252-0.08329-1.5625-0.249862v-0.637436c0.55847 0.191752 1.0793 0.287628 1.5625 0.287628 0.42521 0 0.7857-0.08755 1.08147-0.262642 0.29576-0.175094 0.44364-0.462658 0.44364-0.862694 0-0.266518-0.10414-0.495591-0.31242-0.687218-0.20828-0.191622-0.46247-0.349932-0.76256-0.474929-0.30009-0.124992-0.60011-0.254183-0.90007-0.387574-0.29997-0.133384-0.55409-0.316743-0.76237-0.550079-0.20829-0.233328-0.31243-0.508304-0.31243-0.824928 0-0.550075 0.18127-0.950109 0.54379-1.200104 0.36252-0.249984 0.83535-0.374979 1.41849-0.374985 0.40004 0.000006 0.88336 0.06664 1.44997 0.19989v0.650025c-0.49998-0.16657-0.96665-0.249857-1.39999-0.249863-0.32502 0.000006-0.61665 0.06873-0.8749 0.206185-0.25826 0.137461-0.38739 0.352037-0.38739 0.64373 0 0.09995 0.0188 0.193664 0.0563 0.281143 0.0375 0.08749 0.0791 0.160412 0.12493 0.218773 0.0458 0.05837 0.1187 0.120866 0.21877 0.187492 0.10008 0.06663 0.1772 0.112474 0.23137 0.13752 0.0542 0.02505 0.14374 0.06676 0.26874 0.125122 0.12499 0.05837 0.20415 0.09582 0.23747 0.112343l0.51231 0.250244c0.25838 0.124871 0.44587 0.220683 0.56248 0.287437 0.1166 0.06676 0.25412 0.166769 0.41256 0.300026 0.15843 0.133263 0.26887 0.285342 0.3313 0.456238 0.0624 0.170901 0.0936 0.377148 0.0936 0.618744z"/>
      <path d="m226.2498 43.694534h-3.48739c-0.008 0.133264-0.0126 0.33735-0.0126 0.612259 0 0.783287 0.18749 1.406226 0.56247 1.86882 0.37499 0.462597 0.94992 0.693894 1.72482 0.693894 0.37511 0 0.73763-0.05417 1.08757-0.162506v0.612259c-0.42496 0.09994-0.85831 0.149917-1.30005 0.149917-0.95825 0-1.66861-0.297864-2.13108-0.893593-0.46247-0.595727-0.6937-1.389501-0.6937-2.381324 0-0.408169 0.0375-0.778958 0.11253-1.112366 0.075-0.3334 0.19379-0.643853 0.35629-0.931358 0.16251-0.287496 0.39584-0.510401 0.7-0.668717 0.30416-0.158304 0.66871-0.237459 1.09367-0.237465 0.62485 0.000006 1.1123 0.197925 1.46237 0.593758 0.35006 0.395843 0.52509 0.910382 0.52509 1.543617zm-0.74997-0.600052c0-0.358322-0.11877-0.65625-0.35629-0.893783-0.23753-0.237523-0.53546-0.356287-0.89378-0.356293-0.7749 0.000006-1.24576 0.416697-1.41259 1.250076z"/>
      <path d="m232.23712 47.331848h-0.62485v-3.749847c0-0.183356-0.004-0.341729-0.0126-0.475121-0.008-0.133383-0.0314-0.285462-0.0689-0.456238-0.0375-0.170766-0.0917-0.31032-0.16251-0.418663-0.0708-0.108332-0.17497-0.200012-0.31242-0.275039-0.13746-0.07502-0.30206-0.112528-0.49381-0.112534-0.42496 0.000006-0.78329 0.200023-1.07498 0.600052-0.2917 0.400039-0.49999 0.841653-0.62485 1.324844-0.11673 0.424961-0.1751 0.854114-0.1751 1.287461v2.275085h-0.62484v-5.950165h0.62484v1.462555h0.0252c0.17497-0.533289 0.41243-0.93326 0.7124-1.199913 0.29996-0.266641 0.72078-0.399965 1.26247-0.399971 0.19175 0.000006 0.39177 0.04171 0.60005 0.125122 0.63324 0.258134 0.94986 0.778967 0.94986 1.5625z"/>
    </g>
    <g style="fill:#fff">
      <path d="m10.24 10.665104h-2.3075v5.71625h1.15375c2.05625 0 3.73625-0.525 3.73625-2.93375 0-1.6775-0.82625-2.7825-2.5825-2.7825m3.28375 15.22-0.80125-3.73625c-0.525-2.50875-0.7775-3.68625-3.63625-3.68625h-1.15375v7.4225h-2.9325v-17.3h5.24c3.1075 0 5.56875 1.0525 5.56875 4.53625 0 2.38375-1.2325 3.48625-3.43875 4.0125v0.05125c2.28 0.50125 2.63375 1.80375 3.08625 3.835l1.0525 4.865h-2.985z"/>
      <path d="m23.22875 4.9976h1.2275v25.5025h-1.2275v-25.5025z"/>
      <path d="m37.5475 10.665104h-2.30875v5.71625h1.1525c2.06 0 3.7375-0.525 3.7375-2.93375 0-1.6775-0.8275-2.7825-2.58125-2.7825m3.28375 15.22-0.80125-3.73625c-0.52625-2.50875-0.77875-3.68625-3.63875-3.68625h-1.1525v7.4225h-2.93375v-17.3h5.2425c3.11 0 5.56375 1.0525 5.56375 4.53625 0 2.38375-1.2275 3.48625-3.43375 4.0125v0.05125c2.2825 0.50125 2.6325 1.80375 3.08375 3.835l1.055 4.865h-2.985z"/>
      <path d="m50.53375 4.9976h1.23v25.5025h-1.23v-25.5025z"/>
      <path d="m58.232488 25.885097v-2.2325l7.89875-12.83625h-7.47125v-2.23125h10.88375v2.23125l-7.9 12.83625h8.275v2.2325h-11.68625z"/>
      <path d="m76.43625 4.9976h1.2325v25.5025h-1.2325v-25.5025z"/>
      <path d="m95.29375 25.885097-6.99625-13.365h-0.04875v13.365h-2.685v-17.3h3.6125l6.66875 12.7375h0.05125v-12.7375h2.68125v17.3h-3.28375z"/>
      <path d="m106.5275 4.9976h1.2275v25.5025h-1.2275v-25.5025z"/>
    </g>
  </g>
</svg>
