<?xml version="1.0" encoding="UTF-8" standalone="no"?>
<svg
   xmlns:svg="http://www.w3.org/2000/svg"
   xmlns="http://www.w3.org/2000/svg"
   version="1.1"
   width="168.838"
   height="114.526"
   id="svg3239">
  <defs
     id="defs3241" />
  <g
     transform="translate(-265.581,-475.09918)"
     id="layer1">
    <path
       d="m 424.917,579.22418 h 2.645 v 1.41 h 0.059 c 0.705,-1.136 1.92,-1.685 3.095,-1.685 2.958,0 3.703,1.665 3.703,4.172 v 6.229 h -2.782 v -5.72 c 0,-1.665 -0.489,-2.488 -1.782,-2.488 -1.509,0 -2.155,0.843 -2.155,2.899 v 5.309 h -2.781 v -10.126 z m -4.388,-3.86 h 2.781 v 13.986 h -2.781 v -13.986 z m -6.542,3.585 c 3.192,0 5.249,2.115 5.249,5.348 0,3.212 -2.057,5.328 -5.249,5.328 -3.174,0 -5.23,-2.116 -5.23,-5.328 0,-3.233 2.056,-5.348 5.23,-5.348 z m -3.33,-3.585 h 2.645 v 2.292 h -2.645 v -2.292 z m 3.33,12.165 c 1.899,0 2.468,-1.626 2.468,-3.232 0,-1.626 -0.568,-3.252 -2.468,-3.252 -1.881,0 -2.449,1.626 -2.449,3.252 0,1.606 0.568,3.232 2.449,3.232 z m 0.705,-12.165 h 2.645 v 2.292 h -2.645 v -2.292 z m -16.023,0 h 2.781 v 7.503 l 3.507,-3.644 h 3.291 l -3.82,3.722 4.251,6.405 h -3.369 l -2.782,-4.525 -1.077,1.039 v 3.486 h -2.781 v -13.986 z m -12.107,9.599 c 0.078,1.763 0.94,2.566 2.487,2.566 1.117,0 2.019,-0.687 2.194,-1.313 h 2.448 c -0.783,2.39 -2.448,3.408 -4.74,3.408 -3.192,0 -5.171,-2.194 -5.171,-5.328 0,-3.036 2.096,-5.348 5.171,-5.348 3.447,0 5.112,2.899 4.917,6.014 h -7.306 z m 4.526,-1.763 c -0.255,-1.411 -0.862,-2.155 -2.214,-2.155 -1.763,0 -2.272,1.371 -2.312,2.155 h 4.526 z m -11.205,-7.836 h 2.781 v 13.986 h -2.781 v -13.986 z m -1.606,13.986 h -2.645 v -1.41 h -0.06 c -0.705,1.136 -1.919,1.685 -3.095,1.685 -2.958,0 -3.702,-1.665 -3.702,-4.173 v -6.229 h 2.781 v 5.72 c 0,1.665 0.49,2.487 1.783,2.487 1.508,0 2.154,-0.842 2.154,-2.898 v -5.309 h 2.782 v 10.127 z m -20.529,-13.986 h 2.782 v 5.27 h 0.059 c 0.705,-1.136 1.92,-1.685 2.958,-1.685 2.958,0 3.702,1.665 3.702,4.172 v 6.229 h -2.782 v -5.72 c 0,-1.665 -0.489,-2.488 -1.782,-2.488 -1.508,0 -2.154,0.843 -2.154,2.899 v 5.309 h -2.782 v -13.986 z m -3.761,7.424 c -0.176,-1.136 -0.901,-1.743 -2.057,-1.743 -1.783,0 -2.37,1.803 -2.37,3.291 0,1.449 0.568,3.193 2.312,3.193 1.293,0 2.037,-0.823 2.213,-2.058 h 2.684 c -0.353,2.684 -2.213,4.153 -4.877,4.153 -3.056,0 -5.113,-2.155 -5.113,-5.191 0,-3.153 1.881,-5.484 5.171,-5.484 2.39,0 4.584,1.254 4.76,3.839 h -2.723 z m -14.671,3.271 c 0.02,1.215 1.038,1.704 2.135,1.704 0.803,0 1.822,-0.313 1.822,-1.293 0,-0.842 -1.156,-1.136 -3.154,-1.566 -1.606,-0.353 -3.212,-0.921 -3.212,-2.703 0,-2.586 2.233,-3.252 4.407,-3.252 2.213,0 4.25,0.744 4.466,3.232 h -2.645 c -0.079,-1.078 -0.901,-1.372 -1.9,-1.372 -0.627,0 -1.548,0.118 -1.548,0.94 0,0.999 1.567,1.137 3.154,1.509 1.626,0.372 3.212,0.96 3.212,2.84 0,2.664 -2.311,3.526 -4.623,3.526 -2.351,0 -4.643,-0.882 -4.76,-3.565 h 2.646 z m -19.236,-6.835 h 2.625 v 1.371 h 0.039 c 0.725,-1.038 1.783,-1.646 3.095,-1.646 1.273,0 2.409,0.47 2.958,1.685 0.588,-0.882 1.646,-1.685 3.056,-1.685 2.154,0 3.702,0.999 3.702,3.624 v 6.777 h -2.782 v -5.739 c 0,-1.352 -0.118,-2.469 -1.704,-2.469 -1.567,0 -1.861,1.293 -1.861,2.566 v 5.642 h -2.782 v -5.681 c 0,-1.176 0.079,-2.527 -1.685,-2.527 -0.548,0 -1.88,0.353 -1.88,2.331 v 5.877 h -2.782 v -10.126 z m -4.466,-3.86 h 2.781 v 13.986 h -2.781 v -13.986 z m -1.684,2.292 h -2.782 v -2.292 h 2.782 v 2.292 z m -2.782,1.568 h 2.782 v 10.127 h -2.782 v -10.127 z m -5.406,1.86 h -1.665 v -1.86 h 1.665 v -0.784 c 0,-1.782 1.117,-3.075 3.389,-3.075 0.49,0 0.999,0.059 1.469,0.078 v 2.077 c -0.333,-0.04 -0.666,-0.06 -1.019,-0.06 -0.745,0 -1.058,0.313 -1.058,1.156 v 0.607 h 1.919 v 1.86 h -1.919 v 8.267 h -2.782 v -8.266 z m 111.515,-15.709 c 0.079,1.763 0.94,2.566 2.488,2.566 1.116,0 2.018,-0.687 2.193,-1.313 h 2.449 c -0.784,2.39 -2.449,3.408 -4.741,3.408 -3.192,0 -5.171,-2.194 -5.171,-5.328 0,-3.036 2.096,-5.348 5.171,-5.348 3.448,0 5.113,2.899 4.917,6.014 h -7.306 z m 4.525,-1.763 c -0.255,-1.411 -0.862,-2.155 -2.214,-2.155 -1.763,0 -2.272,1.371 -2.312,2.155 h 4.526 z m -11.205,-7.836 h 2.782 v 13.986 h -2.782 v -13.986 z m -10.851,6.974 c 0.157,-2.605 2.487,-3.389 4.76,-3.389 2.018,0 4.447,0.45 4.447,2.88 v 5.269 c 0,0.921 0.098,1.842 0.353,2.253 h -2.821 c -0.098,-0.313 -0.176,-0.646 -0.195,-0.979 -0.882,0.921 -2.175,1.254 -3.409,1.254 -1.919,0 -3.447,-0.96 -3.447,-3.036 0,-2.292 1.724,-2.841 3.447,-3.075 1.705,-0.255 3.291,-0.196 3.291,-1.332 0,-1.195 -0.822,-1.372 -1.802,-1.372 -1.058,0 -1.743,0.432 -1.842,1.528 h -2.782 z m 6.424,2.057 c -0.47,0.411 -1.449,0.431 -2.312,0.588 -0.861,0.176 -1.646,0.47 -1.646,1.488 0,1.038 0.804,1.293 1.705,1.293 2.174,0 2.252,-1.724 2.252,-2.331 v -1.038 z m -17.335,-5.171 h 2.645 v 1.41 h 0.059 c 0.705,-1.136 1.919,-1.685 3.095,-1.685 2.958,0 3.702,1.665 3.702,4.172 v 6.229 h -2.781 v -5.72 c 0,-1.665 -0.49,-2.488 -1.783,-2.488 -1.508,0 -2.154,0.843 -2.154,2.899 v 5.309 h -2.781 v -10.126 z m -6.464,-0.275 c 3.193,0 5.25,2.115 5.25,5.348 0,3.212 -2.057,5.328 -5.25,5.328 -3.173,0 -5.229,-2.116 -5.229,-5.328 -0.001,-3.233 2.056,-5.348 5.229,-5.348 z m 0,8.58 c 1.9,0 2.469,-1.626 2.469,-3.232 0,-1.626 -0.568,-3.252 -2.469,-3.252 -1.88,0 -2.448,1.626 -2.448,3.252 -0.001,1.606 0.568,3.232 2.448,3.232 z m -6.523,-9.873 h -2.781 v -2.292 h 2.781 v 2.292 z m -2.781,1.568 h 2.781 v 10.127 h -2.781 v -10.127 z m -2.861,0 h 2.037 v 1.86 h -2.037 v 5.015 c 0,0.94 0.235,1.176 1.176,1.176 0.294,0 0.567,-0.02 0.861,-0.078 v 2.174 c -0.47,0.078 -1.077,0.098 -1.626,0.098 -1.704,0 -3.192,-0.392 -3.192,-2.409 v -5.975 h -1.685 v -1.86 h 1.685 v -3.038 h 2.781 v 3.037 z m -14.299,3.114 c 0.157,-2.605 2.488,-3.389 4.76,-3.389 2.018,0 4.446,0.45 4.446,2.88 v 5.269 c 0,0.921 0.098,1.842 0.353,2.253 h -2.82 c -0.099,-0.313 -0.177,-0.646 -0.196,-0.979 -0.881,0.921 -2.174,1.254 -3.408,1.254 -1.92,0 -3.448,-0.96 -3.448,-3.036 0,-2.292 1.724,-2.841 3.448,-3.075 1.704,-0.255 3.291,-0.196 3.291,-1.332 0,-1.195 -0.823,-1.372 -1.803,-1.372 -1.058,0 -1.743,0.432 -1.841,1.528 h -2.782 z m 6.425,2.057 c -0.471,0.411 -1.45,0.431 -2.312,0.588 -0.862,0.176 -1.646,0.47 -1.646,1.488 0,1.038 0.803,1.293 1.704,1.293 2.175,0 2.253,-1.724 2.253,-2.331 v -1.038 z m -17.335,-5.171 h 2.645 v 1.41 h 0.059 c 0.706,-1.136 1.92,-1.685 3.095,-1.685 2.958,0 3.702,1.665 3.702,4.172 v 6.229 h -2.782 v -5.72 c 0,-1.665 -0.489,-2.488 -1.782,-2.488 -1.508,0 -2.155,0.843 -2.155,2.899 v 5.309 h -2.782 v -10.126 z m -7.385,0 h 2.645 v 1.88 h 0.039 c 0.509,-1.272 1.881,-2.154 3.232,-2.154 0.196,0 0.431,0.039 0.607,0.098 v 2.586 c -0.254,-0.059 -0.666,-0.098 -0.999,-0.098 -2.037,0 -2.742,1.469 -2.742,3.251 v 4.564 h -2.782 v -10.127 z m -8.364,5.739 c 0.078,1.763 0.94,2.566 2.487,2.566 1.117,0 2.018,-0.687 2.194,-1.313 h 2.448 c -0.784,2.39 -2.448,3.408 -4.74,3.408 -3.193,0 -5.171,-2.194 -5.171,-5.328 0,-3.036 2.096,-5.348 5.171,-5.348 3.447,0 5.112,2.899 4.917,6.014 h -7.306 z m 4.525,-1.763 c -0.255,-1.411 -0.862,-2.155 -2.214,-2.155 -1.763,0 -2.272,1.371 -2.311,2.155 h 4.525 z m -9.598,-3.976 h 2.037 v 1.86 h -2.037 v 5.015 c 0,0.94 0.235,1.176 1.175,1.176 0.293,0 0.568,-0.02 0.862,-0.078 v 2.174 c -0.47,0.078 -1.078,0.098 -1.626,0.098 -1.704,0 -3.193,-0.392 -3.193,-2.409 v -5.975 h -1.685 v -1.86 h 1.685 v -3.038 h 2.782 v 3.037 z m -14.554,0 h 2.645 v 1.41 h 0.059 c 0.705,-1.136 1.92,-1.685 3.095,-1.685 2.958,0 3.702,1.665 3.702,4.172 v 6.229 h -2.782 v -5.72 c 0,-1.665 -0.49,-2.488 -1.783,-2.488 -1.508,0 -2.154,0.843 -2.154,2.899 v 5.309 h -2.782 v -10.126 z m -1.607,-1.568 h -2.781 v -2.292 h 2.781 v 2.292 z m -2.781,1.568 h 2.781 v 10.127 h -2.781 v -10.127 z"
       id="path75" />
    <path
       d="m 322.73725,491.03668 c -3.995,0 -7.054,0.409 -9.125,1.25 -2.072,0.841 -3.6655,1.92925 -4.8125,3.28125 -1.148,1.352 -1.92575,3.09775 -2.34375,5.21875 -0.418,2.119 -0.625,4.07175 -0.625,5.84375 l 0,1.96875 -6.28125,0 -0.5625,0 -17.65625,0 0,34.53125 18.21875,0 0,-22.375 6.28125,0 0,22.375 18.1875,0 0,-22.375 7.125,0 -0.0312,0.34375 c 0,2.608 0.86225,4.93175 2.53125,6.96875 1.698,2.039 3.7435,3.506 6.1875,4.375 2.472,0.843 6.8705,1.77625 13.1875,2.78125 4.231,0.679 6.86175,1.2265 7.84375,1.6875 1.371,0.653 2.03125,1.58725 2.03125,2.78125 -0.002,1.062 -0.57625,1.8905 -1.53125,2.6875 0,0 -0.73325,0.55 -1.03125,0.75 l 18.0625,0 c 0.783,-1.65 1.1875,-3.5995 1.1875,-5.3125 -0.002,-2.472 -0.797,-4.7475 -2.375,-6.8125 -1.55,-2.064 -3.801,-3.636 -6.75,-4.75 -2.951,-1.113 -7.453,-2 -13.5,-2.625 -3.993,-0.434 -6.59025,-0.92475 -7.78125,-1.46875 -1.193,-0.542 -1.78125,-1.34625 -1.78125,-2.40625 0,-0.949 0.451,-1.75425 1.375,-2.40625 0.953,-0.679 2.47525,-1 4.53125,-1 2.026,10e-4 3.7575,0.4435 5.1875,1.3125 1.042,0.652 1.77275,1.64525 2.21875,3.03125 l 17.25,-1.53125 c -1.193,-2.824 -2.684,-5.06075 -4.5,-6.71875 -1.789,-1.656 -4.039,-2.8995 -6.75,-3.6875 -2.683,-0.787 -6.87025,-1.1875 -12.53125,-1.1875 -5.365,0.001 -9.6255,0.5315 -12.8125,1.5625 -3.188,1.005 -5.683,2.52975 -7.5,4.59375 -0.418,0.475 -0.803,0.983 -1.125,1.5 l 0,-6.625 -8.71875,0 c 0,-1.94 0.099,-3.2055 0.25,-3.8125 0.299,-1.121 0.78,-1.9365 1.5,-2.4375 0.717,-0.501 1.9165,-0.75 3.5625,-0.75 1.347,0 3.09825,0.16675 5.28125,0.46875 l 2.03125,-10 c -6.083,-0.686 -10.71625,-1.03125 -13.90625,-1.03125 z m -41.40625,1.09375 0,11.34375 18.21875,0 0,-11.34375 -18.21875,0 z m 65.84375,46.4375 -18.0625,1.5625 c 0.266,1.064 0.6235,2.061 1.0625,3 l 20.78125,0 c -0.226,-0.108 -0.45125,-0.246 -0.65625,-0.375 -1.342,-0.842 -2.381,-2.2305 -3.125,-4.1875 z"
       id="polygon79"
       style="fill:#d2293f" />
    <path
       d="m 274.081,475.09918 c -4.697,0 -8.5,3.803 -8.5,8.5 l 0,8.5 8.5,0 0,-8.5 25.53125,0 0,-8.5 -25.53125,0 z m 85.1875,0 0,8.5 25.5,0 0,8.5 8.5,0 0,-8.5 c 0,-4.697 -3.805,-8.5 -8.5,-8.5 l -25.5,0 z m -93.6875,72.03125 0,8.5 c 0,4.697 3.803,8.5 8.5,8.5 l 25.53125,0 0,-8.5 -25.53125,0 0,-8.5 -8.5,0 z"
       id="path87"
       style="fill:#929699;fill-opacity:1" />
  </g>
</svg>
