<?xml version="1.0" encoding="UTF-8" standalone="no"?>
<svg
   xmlns:dc="http://purl.org/dc/elements/1.1/"
   xmlns:cc="http://creativecommons.org/ns#"
   xmlns:rdf="http://www.w3.org/1999/02/22-rdf-syntax-ns#"
   xmlns:svg="http://www.w3.org/2000/svg"
   xmlns="http://www.w3.org/2000/svg"
   xmlns:xlink="http://www.w3.org/1999/xlink"
   xmlns:sodipodi="http://sodipodi.sourceforge.net/DTD/sodipodi-0.dtd"
   xmlns:inkscape="http://www.inkscape.org/namespaces/inkscape"
   width="413.4"
   height="468.6"
   id="svg2"
   version="1.1"
   inkscape:version="0.48.4 r9939"
   sodipodi:docname="Coat_of_arms_of_Split.svg">
  <metadata
     id="metadata53">
    <rdf:RDF>
      <cc:Work
         rdf:about="">
        <dc:format>image/svg+xml</dc:format>
        <dc:type
           rdf:resource="http://purl.org/dc/dcmitype/StillImage" />
      </cc:Work>
    </rdf:RDF>
  </metadata>
  <defs
     id="defs51" />
  <sodipodi:namedview
     pagecolor="#ffffff"
     bordercolor="#666666"
     borderopacity="1"
     objecttolerance="10"
     gridtolerance="10"
     guidetolerance="10"
     inkscape:pageopacity="0"
     inkscape:pageshadow="2"
     inkscape:window-width="1680"
     inkscape:window-height="973"
     id="namedview49"
     showgrid="false"
     inkscape:zoom="1.0072556"
     inkscape:cx="137.40815"
     inkscape:cy="264.37028"
     inkscape:window-x="-9"
     inkscape:window-y="-9"
     inkscape:window-maximized="1"
     inkscape:current-layer="a" />
  <rect
     width="413.4"
     height="468.6"
     fill="#fff"
     id="rect4" />
  <path
     d="m 360.2 134.8 c 0 25.1 -20.43 45.3 -45.5 45.3 -24.88 0 -45.5 -20.43 -45.5 -45.3 v -54.3 h 91 v 54.3 z m -58.72 -22.2 c 8.28 10.37 16.56 10.25 24.84 0.56 0.26 -0.32 0.77 -0.3 0.93 0.07 l 2.61 3.71 c 0.23 0.55 -0.07 1.08 -0.43 1.43 -4 3.16 -7.99 5.86 -12.29 8.14 -0.41 0.22 -0.6 0.59 -0.65 0.93 l -0.62 40.72 c 0.05 0.67 -0.29 0.87 -0.8 0.86 h -3.8 c -0.55 -0.02 -0.74 -0.31 -0.73 -0.87 l 0.25 -40.83 c 0 -0.24 -0.07 -0.59 -0.28 -0.78 -3.97 -2.51 -7.93 -5.29 -10.83 -8.42 0.18 -0.31 0.33 -0.63 0.54 -0.87 0.13 -0.16 0.26 -0.33 0.42 -0.46 0.21 -0.18 0.41 -0.18 0.66 -0.06 0.55 0.27 1.22 1.19 1.57 1.36 0.29 0.14 0.38 0.14 0.65 -0.11 0.31 -0.3 0.21 -0.52 0.05 -0.63 -0.19 -0.13 -0.51 -0.34 -0.78 -0.56 -0.4 -0.31 -0.76 -0.73 -1.08 -0.97 -0.03 -0.02 -0.09 -0.22 -0.06 -0.26 0.15 -0.18 0.63 -0.48 0.68 -0.71 0.05 -0.22 -0.04 -0.24 -0.05 -0.28 -0.03 -0.18 -0.28 -0.28 -0.49 -0.48 -0.18 -0.17 -0.36 0.09 -0.45 0.25 -0.14 0.24 -0.26 0.27 -0.45 0.48 -0.04 0.05 -0.08 0.09 -0.12 0.05 -0.27 -0.33 -0.3 -0.2 -0.63 -0.66 -0.11 -0.15 -0.51 -0.26 -0.62 -0.13 -0.06 0.08 -0.1 0.62 -0.05 0.71 0.14 0.27 0.72 0.67 0.71 0.94 0 0.19 -0.16 0.37 -0.28 0.56 -0.08 0.13 -0.51 0.52 -1.12 0.81 -0.11 -0.13 -0.22 -0.26 -0.32 -0.39 -0.64 -0.6 -0.79 -1.58 -0.41 -1.98 0.94 -1.03 0.99 -1 1.93 -2.02 0.44 -0.41 0.94 -0.38 1.5 -0.11 z m 7.47 58 c 0.74 0 0.84 0.61 0.84 1.25 0 0.65 -0.29 1 -0.84 1 -0.56 0 -0.88 -0.35 -0.88 -1 0 -0.65 0.14 -1.25 0.88 -1.25 m 2.22 -0.42 c 0.18 0 0.38 0.02 0.48 0.17 0.21 0.33 0.15 1.02 0.15 1.46 0 0.65 -0.16 1.05 -0.72 1.05 -0.35 0 -0.46 -0.35 -0.58 -0.75 -0.07 -0.24 -0.11 -0.48 -0.11 -0.92 0 -0.44 0.2 -1.03 0.78 -1 m 1.69 0.22 c 0.74 0 0.67 0.75 0.67 1.39 0 0.65 -0.16 1.03 -0.72 1.03 -0.56 0 -0.63 -0.34 -0.63 -0.98 0 -0.65 -0.07 -1.44 0.67 -1.44 m 1.91 -0.17 c 0.74 0 0.77 0.84 0.77 1.49 0 0.65 -0.24 1.03 -0.8 1.03 -0.56 0 -0.63 -0.34 -0.63 -0.98 0 -0.65 -0.08 -1.53 0.66 -1.53 m 2.8 0.55 c 0.49 0.03 0.83 0.51 0.83 1.16 0 0.65 -0.8 0.75 -1.36 0.75 -0.56 0 -0.72 -0.28 -0.72 -0.92 0 -0.65 0.76 -1.02 1.25 -0.99 m 8.3 2.45 c 0.34 0.04 0.66 0.33 0.67 0.97 0.001 0.36 -0.02 0.48 -0.3 0.74 -0.14 0.13 -0.44 0.15 -0.69 0.15 -0.46 0 -1.33 -0.47 -1.78 -0.92 -0.29 -0.29 -0.86 -0.25 -0.84 -0.57 0 -0.05 0.07 -0.32 0.17 -0.33 0.46 -0.06 2.41 -0.08 2.76 -0.04 z m -5.69 1.24 c -0.25 0.22 -0.59 0.31 -0.8 0.47 -0.16 0.13 -0.2 0.26 -0.2 0.38 0 0.11 0.13 0.23 0.34 0.37 0.29 0.19 0.99 0.21 1.67 0.2 0.65 0 1.28 -0.001 1.52 -0.09 0.21 -0.07 0.55 -0.2 0.71 -0.36 0.14 -0.14 0.12 -0.31 0.11 -0.46 -0.001 -0.15 -0.2 -0.2 -0.46 -0.31 -0.23 -0.1 -0.49 -0.26 -0.84 -0.31 -0.46 -0.07 -1.08 -0.06 -1.45 -0.04 -0.29 0.02 -0.5 0.07 -0.6 0.15 z m -3.06 -0.66 c -0.37 0.05 -0.66 0.33 -0.67 0.97 -0.001 0.37 0.02 0.48 0.3 0.74 0.14 0.13 0.44 0.15 0.69 0.15 0.35 0 0.99 -0.44 1.51 -0.9 0.31 -0.27 0.68 -0.43 0.66 -0.75 0 -0.05 -0.05 -0.23 -0.15 -0.24 -0.46 -0.06 -2 -0.001 -2.33 0.03 z m -2.64 -0.03 c -0.42 0 -0.8 0.001 -1 0.13 -0.37 0.22 -0.25 0.66 -0.25 1.06 0 0.32 0.15 0.53 0.38 0.69 0.2 0.14 0.45 0.25 0.87 0.25 0.52 0 0.82 -0.16 1.06 -0.37 0.17 -0.16 0.35 -0.32 0.35 -0.58 0 -0.33 0.03 -0.76 -0.23 -0.98 -0.21 -0.19 -0.64 -0.2 -1.18 -0.2 z m -3.22 0 c 0.42 0 0.8 0.001 1 0.13 0.37 0.22 0.25 0.66 0.25 1.06 0 0.32 -0.15 0.53 -0.38 0.69 -0.2 0.14 -0.45 0.25 -0.87 0.25 -0.52 0 -0.82 -0.16 -1.06 -0.37 -0.17 -0.16 -0.35 -0.32 -0.35 -0.58 0 -0.33 -0.03 -0.76 0.23 -0.98 0.21 -0.19 0.64 -0.2 1.18 -0.2 z m -2.83 0.03 c 0.37 0.05 0.66 0.33 0.67 0.97 0.001 0.37 -0.02 0.48 -0.3 0.74 -0.14 0.13 -0.44 0.15 -0.69 0.15 -0.35 0 -0.99 -0.44 -1.51 -0.9 -0.31 -0.27 -0.68 -0.43 -0.66 -0.75 0 -0.05 0.05 -0.23 0.15 -0.24 0.46 -0.06 2 -0.001 2.33 0.03 z m -9.38 -0.58 c -0.34 0.04 -0.66 0.33 -0.67 0.97 -0.001 0.36 0.02 0.48 0.3 0.74 0.14 0.13 0.44 0.15 0.69 0.15 0.46 0 1.33 -0.47 1.78 -0.92 0.29 -0.29 0.86 -0.25 0.84 -0.57 0 -0.05 -0.07 -0.32 -0.17 -0.33 -0.46 -0.06 -2.41 -0.08 -2.76 -0.04 z m 5.79 1.24 c 0.25 0.22 0.59 0.31 0.8 0.47 0.16 0.13 0.2 0.26 0.2 0.38 0 0.11 -0.13 0.23 -0.34 0.37 -0.29 0.19 -0.99 0.21 -1.67 0.2 -0.65 0 -1.28 -0.001 -1.52 -0.09 -0.21 -0.07 -0.55 -0.2 -0.71 -0.36 -0.14 -0.14 -0.12 -0.31 -0.11 -0.46 0.001 -0.15 0.2 -0.2 0.46 -0.31 0.23 -0.1 0.49 -0.26 0.84 -0.31 0.46 -0.07 1.08 -0.06 1.45 -0.04 0.29 0.02 0.5 0.07 0.6 0.15 z m -11.1 -37.95 c 0.1 -0.77 0.52 -1.14 1.39 -0.91 1.05 0.1 2 0.12 3.05 0.22 0.95 0.28 1.04 1.56 1 2.99 -0.73 8 -1.65 15.92 -3.65 23.47 -0.35 1.33 -0.72 1.03 -0.79 0 -0.63 -8.52 -0.61 -17.23 -0.99 -25.77 m 6.7 16.23 c 0.41 2.77 0.55 9.74 1.31 11.64 0.89 2.24 2.27 4.53 3.64 5.57 0.34 0.25 0.21 0.45 0.14 0.58 -0.17 0.29 -0.35 0.68 -0.28 1.01 0.12 0.57 0.67 0.45 1.06 0.67 0.32 0.17 0.14 0.37 -0.09 0.41 -1.51 0.23 -6.82 -0.36 -9 -0.31 -0.71 0.001 -1.14 -0.21 -1.15 -0.52 -0.02 -0.61 0.18 -1.38 0.35 -2.19 0.77 -3.54 1.9 -8.68 2.93 -15.64 0.04 -0.29 0.09 -1.14 0.32 -1.64 0.24 -0.52 0.64 -0.68 0.8 0.44 z m -2.84 17.24 c 0.37 0 0.66 0.3 0.66 0.66 0 0.37 -0.3 0.66 -0.66 0.66 -0.37 0 -0.66 -0.3 -0.66 -0.66 0 -0.37 0.3 -0.66 0.66 -0.66 m 2.65 0.43 c 0.37 0 0.66 0.3 0.66 0.66 0 0.37 -0.3 0.66 -0.66 0.66 -0.37 0 -0.66 -0.3 -0.66 -0.66 0 -0.37 0.3 -0.66 0.66 -0.66 m 2.6 0.26 c 0.37 0 0.66 0.3 0.66 0.66 0 0.37 -0.3 0.66 -0.66 0.66 -0.37 0 -0.66 -0.3 -0.66 -0.66 0 -0.37 0.3 -0.66 0.66 -0.66 m 23.32 -22.6 c -0.62 7.52 -0.78 13.4 -3.56 19.37 -0.74 1.58 -1.1 3 -1.73 3.37 -0.37 0.21 -0.57 1.47 -0.31 1.57 0.24 0.09 0.97 0.06 1.65 0.02 2.12 -0.1 5.33 -0.33 7 -0.19 0.71 0.06 1.14 -0.21 1.15 -0.52 0.02 -0.61 -0.31 -1.36 -0.35 -2.19 -0.26 -4.88 -1.74 -13.38 -2.76 -20.33 -0.04 -0.29 -0.02 -1.15 -0.24 -1.65 -0.23 -0.52 -0.74 -0.58 -0.84 0.55 z m 1.94 21.85 c 0.37 0 0.66 0.3 0.66 0.66 0 0.37 -0.3 0.66 -0.66 0.66 -0.37 0 -0.66 -0.3 -0.66 -0.66 0 -0.37 0.3 -0.66 0.66 -0.66 m -2.78 0.19 c 0.37 0 0.66 0.3 0.66 0.66 0 0.37 -0.3 0.66 -0.66 0.66 -0.37 0 -0.66 -0.3 -0.66 -0.66 0 -0.37 0.3 -0.66 0.66 -0.66 m -2.85 0.17 c 0.37 0 0.66 0.3 0.66 0.66 0 0.37 -0.3 0.66 -0.66 0.66 -0.37 0 -0.66 -0.3 -0.66 -0.66 0 -0.37 0.3 -0.66 0.66 -0.66 m -26.99 -52.94 c 0.77 -0.2 1.98 -0.36 2.11 0.22 0.29 1.27 2.34 3.66 3.68 4.81 2.29 1.96 3.85 3.66 6.31 5.44 0.25 0.18 0.58 0.33 0.62 1.08 -0.09 6 0.51 11.81 0.46 17.71 -0.06 7.28 -1.06 14.82 -0.87 21.94 0.001 0.29 -0.45 0.4 -0.68 0.24 -2.09 -1.42 -3.31 -4.28 -3.56 -8.33 -0.63 -7.88 -1.13 -14.1 -1.41 -22 -0.06 -1.78 -0.66 -3.78 -1.53 -5.3 -1.48 -2.58 -4.15 -5.6 -5.69 -8.19 -0.23 -0.66 -0.75 -1.46 -0.65 -2.45 0.09 -0.88 0.35 -1.82 0.39 -2.65 0.06 -1.53 0.24 -2.28 0.83 -2.48 z m 51.6 -3.3 c -0.18 0.92 -0.97 0.81 -1.29 0.56 -0.36 -0.28 -0.39 -0.73 -0.26 -1.16 0.18 -0.58 1.05 -1.11 1.53 -1.23 0.2 -0.05 0.53 0.21 0.56 0.37 0.06 0.36 -0.4 0.77 -0.54 1.46 z m -0.77 50.3 c -0.11 0.37 -2.46 3.21 -2.49 1.9 -0.001 -0.56 -1.03 -32.92 -0.82 -37.98 0.02 -0.4 0.3 -0.71 0.33 -0.73 0.56 -0.51 1.47 -0.51 1.46 -1.8 0 -0.92 -0.23 -2.04 -0.6 -2.99 -0.47 -1.22 -1.16 -2.15 -1.22 -2.2 -0.28 -0.22 -0.18 -2.98 -0.02 -3.5 0.08 -0.25 0.41 -0.33 0.59 -0.79 0.23 -0.6 0.21 -1.59 0.51 -1.63 0.21 -0.03 1.99 1.24 1.9 1.59 -0.09 0.35 0.56 47.5 0.37 48.1 z m -13.43 -27.1 c 0.04 0.21 -0.08 4.31 -0.07 4.51 0.001 0.84 -0.3 15.55 -1.35 15.8 -1.03 0.25 -2.76 -14 -2.53 -15 0.07 -0.34 0.06 -1.78 -0.07 -1.96 -0.12 -0.16 -0.2 -0.31 -0.21 -0.44 -0.05 -0.53 -0.06 -1.07 -0.07 -1.57 -0.001 -0.44 -0.03 -0.85 0.11 -1.19 0.11 -0.29 0.68 -0.23 1.37 -0.25 0.84 -0.03 1.82 -0.16 2.38 -0.11 0.25 0.02 0.45 0.22 0.46 0.24 z m -2.27 -17 c 0.62 0.28 1.39 0.81 1.74 1.05 0.35 0.24 0.3 0.76 0.31 0.86 0.04 0.28 -0.35 1.42 -1.12 2.87 -0.82 1.54 -2.06 3.44 -2.97 5.25 -1.29 2.57 -2.06 4.94 -2.24 5.29 -1.07 2.12 -2.15 5.37 -2.38 8.8 -0.32 4.74 -0.69 9.68 -1.36 13.73 -0.14 0.83 -0.52 1.57 -0.62 2.22 -0.38 2.49 -1.89 6.29 -3 7.88 -0.26 0.37 -0.52 0.14 -0.59 0 -0.19 -0.38 0.04 -21.29 0.26 -32.1 0.02 -1.03 -0.07 -1.99 -0.06 -2.81 0.02 -0.95 0.18 -1.74 0.2 -2.33 0.02 -0.71 0.13 -1.18 0.15 -1.23 0.38 -0.89 1.57 -2.22 3.57 -3.76 1.12 -0.86 2.58 -1.8 4.08 -2.76 1.09 -0.7 2.72 -2.57 3.29 -2.87 0.38 -0.2 0.67 -0.13 0.78 -0.08 z m 10.72 0.75 c 0.06 0 0.24 -0.19 0.44 -0.16 0.2 0.03 0.43 0.28 0.49 0.36 0.5 0.67 1.02 1.59 1.22 2.51 0.05 0.21 0.29 0.99 0.3 1.19 0.001 0.93 -0.48 1 -0.84 1.15 -0.2 0.09 -0.44 0.05 -0.67 -0.18 -0.25 -0.26 -0.63 -0.64 -0.91 -1.19 -0.26 -0.5 -0.99 -1.22 -0.84 -1.81 0.24 -0.92 0.38 -1.19 0.8 -1.87 z m -6.32 -2.42 c 2.33 0.03 2.82 3.39 4.15 6.25 0.77 1.66 2.15 2.79 2.29 3.14 0.1 0.26 -0.57 0.99 -1.26 1.93 -1.51 2.07 -3.93 5 -4.35 5.33 -0.53 0.38 -2.43 0.36 -3.28 0.26 -0.8 -0.1 -2.19 0.03 -2.99 -0.07 -1.4 -0.18 3.25 -5.63 3.69 -7.93 0.17 -0.85 0.27 -4.56 0.54 -6.76 0.02 -0.2 0.53 -0.96 0.61 -1.29 0.1 -0.43 0.08 -0.78 0.6 -0.86 z m 1.48 -3.21 c 0.56 -0.07 1.44 0.61 2.62 1.26 1.14 0.62 2.27 1.21 2.28 1.5 0.04 1.22 -1.46 4 -1.78 2.87 -0.29 -0.56 -0.56 -1.43 -1.39 -2.53 -0.69 -0.9 -1.83 -1.24 -2.27 -1.92 -0.38 -0.57 0.44 -1.19 0.54 -1.19 m 4.45 -6.39 c 0.2 -0.001 0.69 0.04 0.9 0.26 0.39 0.41 0.59 1.14 1.38 1.19 0.63 0.04 1.7 -0.15 2.55 -0.47 0.27 -0.1 1.5 0.35 1.09 0.95 -0.39 0.57 -1.95 1.04 -3.32 2.47 -0.41 0.42 -0.6 1.6 -0.62 1.76 -0.11 0.78 -0.55 1.42 -0.95 1.43 -0.5 0.03 -1.19 -0.45 -1.97 -0.85 -0.88 -0.45 -1.85 -0.83 -2.31 -0.99 -1.28 -0.28 -0.41 -1.3 0.41 -2.68 0.92 -1.53 2.2 -3.08 2.84 -3.07 z m 1.75 -2.9 c 1.22 -0.04 2.41 0 3.64 0.03 0.55 0.05 1.02 0.82 1 1.23 -0.03 0.69 -0.72 1.35 -1.12 1.36 -1.44 0.1 -3.15 0.06 -3.52 0.001 -2.7 -0.58 -1.21 -2.66 0 -2.64 z m -3 -7.67 c 0.56 -0.9 2.29 -0.49 2.83 0.33 0.53 0.79 0.49 1.8 0.23 2.69 -0.39 1.38 -1.81 2.12 -3.21 2.14 -2.42 0.04 -4.13 -1.28 -4.52 -3.72 -0.99 -6.08 6.88 -8.25 10.6 -4.17 1.97 2.16 2.25 4.68 0.78 9.33 -0.34 0.07 -1.96 0.05 -2.81 -0.13 -0.33 -0.07 -0.5 -0.28 -0.43 -0.53 0.58 -0.83 1.13 -1.67 1.34 -2.42 1.76 -6.38 -4.99 -7.28 -6.72 -4.5 -0.7 1.13 -0.84 3.34 1.14 4.13 1.53 0.49 2.14 -0.05 1.69 -1.18 -0.06 -0.15 -0.33 -0.001 -0.67 -0.21 -0.51 -0.31 -0.75 -0.91 -0.25 -1.76 z m -57.5 20.61 c 0 0 -0.1 0.5 -0.04 0.73 0.12 0.44 0.53 1.1 0.77 1.9 0.44 1.42 0.93 3.23 1.49 4.98 1.06 3.3 1.6 5.61 2.44 5.5 0.23 -0.03 2.23 0.3 4.32 0.72 0.95 0.19 1.74 0.55 2.72 0.64 1.09 0.1 2.13 0.11 2.96 -0.06 0.44 -0.09 -0.19 -0.66 -0.51 -1.28 -0.49 -0.95 -1.5 -2 -2.38 -3.35 -1.09 -1.68 -2 -3.69 -2.1 -4.97 -0.31 -4.34 0.16 -4.37 1.36 -5.77 0.25 -0.29 0.64 -0.52 0.51 -1.03 -0.24 -0.94 -0.29 -1.56 -0.58 -1.94 -0.23 -0.29 -0.66 -0.44 -0.95 -0.12 -0.39 0.43 -0.91 1 -1.59 1.35 -0.41 0.2 -0.96 0.19 -1.38 0.46 -0.27 0.17 -0.93 0.65 -1.52 0.92 -0.95 0.44 -2.43 0.83 -3.38 0.86 -0.89 0.03 -1.7 -0.23 -2.14 0.44 m 5.31 2.05 c 0 0 -1 0.07 -1.66 0.86 -0.49 0.57 -0.51 1.38 -0.32 2.07 0.25 0.92 0.85 1.67 0.98 1.7 0.04 0.001 -0.44 -0.9 -0.63 -1.7 -0.07 -0.29 -0.04 -0.67 0 -0.85 0.02 -0.17 0.13 -0.65 0.56 -0.95 0.31 -0.22 1.07 -0.24 1.15 -0.36 0.09 -0.12 0.07 -0.66 -0.06 -0.77 z m -1.68 -10 c -0.08 0 -0.68 -0.03 -0.69 0.47 -0.02 0.87 0.38 1.85 0.53 2.72 0.09 0.54 0.13 0.95 0.24 1.66 0.05 0.33 6.2 -3.07 6.35 -3.47 0.03 -0.07 -0.04 -0.51 -0.06 -0.94 -0.001 -0.38 0.03 -0.76 -0.13 -0.83 -0.08 -0.03 -1.63 0.15 -3.17 0.25 -1.49 0.11 -2.97 0.14 -3.06 0.13 m -1.63 2.89 c -0.31 -0.02 -0.8 0.51 -1.24 0.89 -0.47 0.41 -0.93 0.78 -1.03 0.93 -0.03 0.05 -0.08 0.42 -0.07 0.47 0.04 0.37 0.23 0.65 0.58 0.65 0.4 0 0.81 -0.17 1.23 -0.22 0.78 -0.11 1.49 -0.29 1.97 -0.64 0.04 -0.03 -0.37 -0.08 -0.59 -0.45 -0.22 -0.36 -0.16 -0.83 -0.3 -1.21 -0.05 -0.14 -0.13 -0.3 -0.25 -0.36 -0.15 -0.08 -0.11 -0.05 -0.3 -0.06 z m 0.54 -9.68 c -0.18 -0.24 -0.45 -0.83 -0.77 -1.22 -0.09 -0.11 -0.42 -0.12 -0.5 -0.09 -0.21 0.07 -0.18 0.88 -0.16 1.24 0.001 0.17 0.28 1.88 0.36 2.33 0.11 0.61 0.22 2.29 0.77 3.06 0.16 0.23 0.43 0.39 0.7 0.43 0.04 0.001 0.08 0.001 0.11 0.001 0.16 0.001 1.53 -0.11 3.81 -0.46 0.75 -0.12 1.42 -0.11 1.98 -0.13 0.22 -0.001 0.75 0.15 1 -0.26 0.43 -0.68 0.57 -1.98 0.6 -2.03 0.06 -0.18 0.2 -0.29 0.27 -0.4 0.2 -0.38 0.21 -1.09 0.16 -1.62 -0.07 -0.75 -0.46 -1.17 -0.85 -1.9 -0.31 -0.57 -0.36 -1.27 -0.87 -1.77 -0.42 -0.41 -0.82 -0.57 -1.17 -0.81 -0.39 -0.28 -0.65 -0.55 -0.73 -0.61 -0.09 -0.06 -0.28 -0.07 -0.28 0.11 0.001 0.38 0.001 0.86 0.16 1.19 0.33 0.73 0.82 0.76 0.88 1.43 0.05 0.51 -0.32 1.3 -0.43 1.79 -0.21 0.94 -0.36 1.55 -0.34 2.03 0.001 0.36 -0.08 0.64 -0.18 0.64 -0.13 -0.001 -0.42 0.05 -0.6 -0.24 -0.26 -0.42 -0.38 -1.31 -0.4 -1.37 -0.04 -0.09 -0.18 -0.12 -0.32 -0.22 -0.15 -0.1 -0.36 -0.07 -0.52 -0.08 -0.06 0 -0.5 0.15 -0.61 0.18 -0.3 0.07 -0.81 0.12 -1.19 0.07 -0.33 -0.05 -0.38 -0.55 -0.86 -1.29 z m 0.83 -3.68 c -0.38 -0.23 -0.83 -0.31 -1.16 -0.2 -0.22 0.07 -0.44 0.67 -0.42 1.03 0.001 0.17 0.27 0.4 0.53 0.78 0.33 0.48 0.64 1.17 1.03 2.04 0.13 0.29 0.51 0.43 0.81 0.44 0.3 0.02 0.51 -0.07 0.53 -0.41 0.05 -1 -0.39 -1.76 -0.65 -2.4 -0.25 -0.6 -0.28 -1.03 -0.66 -1.28 z m 1.86 -2 c -0.38 -0.23 -0.89 -0.21 -1.22 -0.1 -0.22 0.07 -0.23 0.47 -0.19 0.83 0.05 0.44 0.67 0.92 0.89 1.87 0.21 0.45 0.62 1.58 0.82 2.37 0.15 0.61 0.45 0.76 0.71 0.57 0.15 -0.13 0.41 -0.27 0.42 -0.5 0.07 -1.93 -0.65 -4.52 -1.43 -5 z m 3.83 -3.16 c -0.88 -0.32 -1.8 0.18 -0.59 3 0.07 0.23 -0.23 0.92 0.14 1.59 0.25 0.44 1.6 0.86 1.94 2.25 0.02 0.1 0.23 0.02 0.25 -0.08 0.08 -0.65 -0.001 -1.6 -0.19 -2.07 -0.3 -1.79 -0.35 -4.1 -1.56 -4.72 z m -3.06 -1.37 c -1.29 0.05 -0.98 1.47 -0.83 2.91 0.15 0.48 0.41 1.11 1.15 1.84 0.08 0.08 0.31 0.09 0.4 0.08 0.72 -0.39 0.93 -0.78 0.54 -1.21 -0.3 -1.79 0.3 -3.58 -1.26 -3.62 m 26.71 -11.66 h -0.001 h -0.001 c -1.27 0.04 -2.66 1.83 -4.26 3.51 -1.7 1.78 -3.22 2.47 -3.69 3.94 -0.12 1.04 -0.36 2.27 -0.3 2.94 0.03 0.53 1.03 0.39 1.23 0.26 2.31 -1.5 4.94 -1.7 6.91 -1.73 1.97 0.03 5.17 1.12 6.35 2.84 0.2 0.13 0.94 0.25 0.98 -0.29 0.09 -0.67 0.13 -1.93 0.08 -3.19 -0.22 -1.66 -1.62 -2.52 -3.13 -4.38 -1.29 -1.97 -2.5 -3.91 -4.14 -3.89 z m -7.74 12.66 c 0.39 -1.37 2.59 -2.2 7.68 -2.56 3.81 0.23 6.11 2.2 6.86 3.92 0.13 0.32 0.18 0.95 0.12 1.35 -0.07 0.4 -0.35 0.56 -0.3 0.96 0.07 0.51 0.51 0.81 0.64 1.26 0.1 0.35 -0.04 0.84 -0.24 1.26 -0.39 0.89 -0.4 0.65 -0.95 1.31 -0.07 0.08 -0.51 0.69 -0.84 0.72 -0.11 0 -0.22 -0.22 -0.29 -0.31 -0.16 -0.22 -0.47 -0.56 -0.62 -0.97 -0.11 -0.29 0.03 -0.69 -0.08 -0.96 -0.1 -0.26 -0.48 -0.44 -0.77 -0.67 -0.33 -0.26 -0.68 -0.47 -0.99 -0.66 -1.2 -0.74 -1.71 -0.82 -1.83 -0.15 -0.001 0.04 -0.03 -0.001 -0.02 0.03 0.06 0.62 1.41 0.99 2.43 2.23 0.25 0.31 0.35 0.69 0.51 1.03 0.2 0.44 0.56 0.8 0.65 1.14 0.14 0.54 0.05 1.71 -0.36 2.36 -0.14 0.22 -0.82 -0.03 -0.95 -0.17 0 0 -0.16 -0.18 -0.15 -0.4 0.001 -0.32 0.17 -0.77 0.1 -1.17 -0.05 -0.31 -0.21 -0.39 -0.3 -0.72 -0.15 -0.55 -0.37 -0.96 -0.67 -1.3 -0.4 -0.46 -1.21 -0.56 -1.79 -0.46 -0.45 0.08 -0.3 0.24 -0.98 0.29 -0.18 0.001 -0.54 0.001 -0.68 -0.07 -0.3 -0.18 -0.38 -0.42 -0.74 -0.32 -0.34 0.09 -0.82 0.08 -1.1 0.36 -0.11 0.11 -0.52 0.3 -0.59 0.55 -0.11 0.43 -0.06 0.83 -0.14 1.21 -0.15 0.63 -0.53 0.49 -0.63 0.65 -0.1 0.16 0.03 0.47 0.05 0.5 0.02 0.05 0.2 0.56 0.6 0.52 0.61 -0.06 0.94 -0.2 1.14 -0.78 0.19 -0.53 -0.06 -1.46 0.16 -1.71 0.16 -0.19 0.42 -0.16 0.69 -0.14 0.22 0.02 0.23 0.15 0.38 0.18 0.09 0.02 0.38 0.02 0.81 0.02 0.23 0 0.49 0.1 0.79 -0.14 0.18 -0.15 0.76 -0.04 1 0.1 0.32 0.18 0.6 0.41 0.73 0.85 0.08 0.28 0.2 0.63 0.24 0.98 0.04 0.39 -0.02 0.77 0.09 1.03 0.14 0.36 0.39 0.46 0.56 0.65 0.26 0.3 0.41 0.59 0.41 0.6 0.04 0.24 0.03 0.48 -0.02 0.72 -0.04 0.18 -0.11 0.42 -0.21 0.6 -0.05 0.08 -0.06 0.31 -0.15 0.47 -0.24 0.43 -0.61 0.62 -0.97 1.04 -0.43 0.51 -0.96 0.75 -1.47 0.98 -0.6 0.27 -0.97 0.37 -1.64 0.33 -0.55 -0.04 -1.09 -0.12 -1.59 -0.45 -0.34 -0.23 -0.61 -0.67 -1.03 -1.02 -0.46 -0.38 -0.7 -1.28 -0.9 -2.09 -0.15 -0.63 -0.44 -0.59 -0.62 -0.86 -0.2 -0.29 -0.23 -0.88 -0.33 -1.46 -0.001 -0.06 -0.26 -0.78 -0.1 -1.25 0.17 -0.53 0.3 -0.94 0.49 -1.72 0.41 -1.72 1.3 -1.57 2.19 -1.98 0.35 -0.16 0.58 -0.44 0.86 -0.72 0.3 -0.29 0.25 -0.77 0.22 -0.83 -0.08 -0.14 -0.33 -0.34 -0.68 -0.26 -0.2 0.05 -0.44 0.34 -0.7 0.42 -0.53 0.15 -1.16 0.22 -1.56 0.65 -0.34 0.36 -0.39 0.86 -0.55 1.29 -0.17 0.5 -0.42 0.92 -0.53 1 -0.32 0.27 -0.9 0.49 -1.1 0.29 -0.2 -0.21 -0.23 -0.56 -0.47 -0.86 -0.19 -0.23 -0.5 -0.97 -0.3 -1.88 0.04 -0.32 0.25 -0.52 0.48 -0.61 0.16 -0.07 0.36 0.001 0.44 -0.14 0.03 -0.05 0.001 -0.21 0.02 -0.3 0.03 -0.42 -0.16 -0.51 -0.29 -1.1 -0.08 -0.38 -0.2 -0.88 -0.24 -1.37 -0.03 -0.49 0.02 -1.02 0.15 -1.32 m -1.36 7.36 c -0.03 0.1 -0.27 0.22 -0.28 0.32 -0.05 0.46 -0.12 0.95 -0.3 1.45 -0.16 0.45 -0.41 0.91 -0.57 1.4 -0.13 0.37 0.001 0.95 -0.26 1.32 -0.45 0.61 -0.55 1.16 -0.64 1.73 -0.02 0.14 0.001 0.34 0.31 0.33 0.24 -0.04 0.4 -0.09 0.62 -0.19 0.27 -0.12 0.46 -0.33 0.72 -0.47 0.77 -0.4 1.17 -0.61 2.03 -0.93 0.86 -0.11 0.43 -1.8 0.43 -2.63 -0.41 -0.46 -0.64 -0.86 -1.05 -1.32 -0.28 -0.32 -0.47 -1.08 -1.02 -1.02 m 16.36 0.75 c 0.17 0.04 0.39 -0.02 0.46 0.4 0.18 0.98 0.22 2 0.47 2.92 0.26 0.98 0.81 1.77 0.92 2.81 0.001 0.14 -0.26 0.42 -0.56 0.41 -0.4 -0.09 -0.68 -0.3 -1.18 -0.56 -0.77 -0.39 -0.99 -0.47 -1.73 -0.87 -0.88 -0.11 -0.57 -0.97 -0.57 -1.8 0.09 -0.54 0.45 -0.45 0.61 -0.89 0.17 -0.44 0.13 -1.31 0.45 -1.53 0.36 -0.24 0.63 -0.91 1.12 -0.89 m -19.32 8.4 c -0.08 -0.69 2.42 -1.22 4.36 -2.11 0.16 -0.08 0.75 -0.08 0.91 -0.13 1.95 4.88 6.66 5.44 9.85 2.11 0.49 -0.51 0.85 -1.52 1.35 -1.49 0.72 0.14 4.87 1.19 3.51 2.91 -0.77 0.98 -2 2.07 -3.34 3.09 -0.8 0.61 -1.54 1.32 -2.46 1.6 -5.76 1.72 -12.1 -2.44 -14.16 -5.97 z m 6.48 -15.58 c -0.36 -0.11 -0.57 -0.02 -0.59 -0.22 -0.03 -0.33 0.16 -0.8 1.2 -1.47 0.26 -0.17 1.2 -0.18 1.49 -0.19 0.67 0 0.79 0.36 1.11 0.64 0.31 0.28 0.64 0.85 0.54 1.25 -0.001 0.21 -0.26 0.4 -0.44 0.65 -0.18 0.25 -0.29 0.56 -0.46 0.73 -0.13 0.13 -0.24 0.31 -0.42 0.39 -0.3 0.14 -0.68 0.16 -0.87 0.17 -0.13 -0.02 -0.25 0.05 -0.35 0.04 -0.43 -0.05 -0.58 -0.11 -0.51 -0.31 -0.02 -0.44 0.66 -0.17 0.57 -0.31 -0.08 -0.13 0.001 -0.42 -0.14 -0.39 -0.27 0 -0.45 0.03 -0.53 -0.06 -0.05 -0.06 -0.05 -0.2 -0.05 -0.31 0 -0.18 -0.1 -0.53 0.06 -0.69 0.05 -0.05 0.28 -0.07 0.37 -0.1 0.29 -0.07 0.42 -0.03 1 -0.11 0.06 -0.001 0.06 -0.08 0.07 -0.16 0 -0.05 0.05 -0.09 0 -0.17 -0.2 -0.11 -0.17 -0.17 -0.36 -0.27 -0.18 -0.17 -0.7 -0.04 -0.87 -0.03 -0.13 0.001 -0.17 0.1 -0.25 0.2 -0.2 0.22 -0.39 0.55 -0.55 0.71 m 9.97 -0.05 c 0.1 0.02 0.23 0.16 0.3 0.17 0.22 0.02 0.29 -0.25 0.34 -0.38 0.13 -0.34 -0.29 -0.76 -1.6 -1.38 -0.07 -0.03 -0.41 -0.04 -0.54 -0.1 -0.13 -0.05 -0.06 -0.15 -0.2 -0.19 -0.28 -0.06 -0.56 -0.04 -0.7 -0.04 0.12 0.02 0.28 0.21 -0.83 0.34 -0.27 0.03 -0.04 0.36 -0.23 0.41 -0.55 0.13 -0.94 0.79 -0.63 1.25 0.1 0.09 0.42 0.25 0.51 0.63 0.07 0.3 0.38 0.49 0.56 0.66 0.13 0.13 0.25 0.34 0.44 0.39 1.05 0.29 0.38 -0.98 0.76 -0.71 0.44 -0.06 1.57 0.13 1.57 -0.57 0 -0.18 -0.46 -0.35 -0.62 -0.5 -0.05 -0.05 -0.25 -0.12 -0.34 -0.15 -0.29 -0.07 -0.3 0.06 -0.88 -0.02 -0.06 -0.001 -0.2 -0.12 -0.2 -0.2 0 -0.05 0.02 -0.18 0.07 -0.25 0.2 -0.11 -0.06 -0.001 0.14 -0.11 0.18 -0.17 0.63 0.07 0.8 0.08 0.13 0.001 0.37 -0.05 0.48 0.02 0.35 0.21 0.68 0.5 0.84 0.67 z m -6.49 3.9 c 0.17 -0.05 0.52 -0.2 0.68 -0.48 0.05 -0.03 0.31 -0.06 0.55 -0.05 0.21 0.001 0.53 0.06 0.56 0.09 0.25 0.29 0.32 0.28 0.54 0.43 0.07 0.09 0.06 0.4 0.02 0.43 -0.04 0.04 -0.13 0.06 -0.18 0.11 -0.05 0.04 -0.03 0.13 -0.09 0.16 -0.11 0.04 -0.3 0.03 -0.43 0.05 -0.18 0.03 -0.33 0.04 -0.49 0.03 -0.19 -0.001 -0.38 -0.04 -0.6 -0.08 -0.22 -0.04 -0.29 -0.21 -0.57 -0.24 -0.09 -0.001 -0.09 -0.22 0 -0.44 z m -5 -9.24 c 0.33 0 0.61 0.27 0.61 0.61 0 0.33 -0.27 0.61 -0.61 0.61 -0.33 0 -0.61 -0.27 -0.61 -0.61 0 -0.33 0.27 -0.61 0.61 -0.61 m 1.92 -0.88 c 0.33 0 0.61 0.27 0.61 0.61 0 0.33 -0.27 0.61 -0.61 0.61 -0.33 0 -0.61 -0.27 -0.61 -0.61 0 -0.33 0.27 -0.61 0.61 -0.61 m 2.21 -0.65 c 0.33 0 0.61 0.27 0.61 0.61 0 0.33 -0.27 0.61 -0.61 0.61 -0.33 0 -0.61 -0.27 -0.61 -0.61 0 -0.33 0.27 -0.61 0.61 -0.61 m 2.36 -0.08 c 0.33 0 0.61 0.27 0.61 0.61 0 0.33 -0.27 0.61 -0.61 0.61 -0.33 0 -0.61 -0.27 -0.61 -0.61 0 -0.33 0.27 -0.61 0.61 -0.61 m 2.48 0.5 c 0.33 0 0.61 0.27 0.61 0.61 0 0.33 -0.27 0.61 -0.61 0.61 -0.33 0 -0.61 -0.27 -0.61 -0.61 0 -0.33 0.27 -0.61 0.61 -0.61 m 2.23 0.82 c 0.33 0 0.61 0.27 0.61 0.61 0 0.33 -0.27 0.61 -0.61 0.61 -0.33 0 -0.61 -0.27 -0.61 -0.61 0 -0.33 0.27 -0.61 0.61 -0.61 m 2 1.05 c 0.33 0 0.61 0.27 0.61 0.61 0 0.33 -0.27 0.61 -0.61 0.61 -0.33 0 -0.61 -0.27 -0.61 -0.61 0 -0.33 0.27 -0.61 0.61 -0.61 m -6.57 -4.63 c 0.33 0 0.61 0.27 0.61 0.61 0 0.33 -0.27 0.61 -0.61 0.61 -0.33 0 -0.61 -0.27 -0.61 -0.61 0 -0.33 0.27 -0.61 0.61 -0.61 m 0.11 -1.8 c 0.33 0 0.61 0.27 0.61 0.61 0 0.33 -0.27 0.61 -0.61 0.61 -0.33 0 -0.61 -0.27 -0.61 -0.61 0 -0.33 0.27 -0.61 0.61 -0.61 m 0 -1.78 c 0.33 0 0.61 0.27 0.61 0.61 0 0.33 -0.27 0.61 -0.61 0.61 -0.33 0 -0.61 -0.27 -0.61 -0.61 0 -0.33 0.27 -0.61 0.61 -0.61 m -3.78 39.84 c 0.94 0.24 1.65 0.97 2.38 1.1 0.09 0.02 0.1 -0.09 0.1 -0.19 0 -0.49 -0.33 -1.66 -0.42 -2.14 -0.06 -0.33 -0.04 -0.65 0.39 -0.64 0.5 0.02 0.95 0 1.27 0 0.3 -0.001 0.45 0.1 0.41 0.51 -0.04 0.4 -0.51 1.95 -0.51 2.35 0 0.09 0.08 0.13 0.15 0.13 1.34 -0.07 1.85 -0.61 3.09 -0.85 0.17 -0.001 0.14 0.49 0.15 0.96 0.001 0.48 0.07 0.93 -0.15 0.9 -1 0 -3.18 -0.44 -3.38 0.09 0.04 1.8 0.19 3.62 0.53 5.42 0.02 0.28 -0.09 0.42 -0.32 0.44 -0.51 -0.02 -0.86 -0.02 -1.37 -0.04 -0.1 0 -0.25 -0.23 -0.25 -0.37 0.28 -1.22 0.49 -3.51 0.49 -5.5 -0.001 -0.5 -2.37 0.19 -3.05 -0.1 -0.13 -0.05 -0.15 -0.2 -0.15 -0.33 0.001 -0.5 0.03 -0.92 0.001 -1.46 -0.001 -0.28 0.31 -0.35 0.63 -0.27 z m 14.93 -7.28 c 0.1 0.05 0.37 0.33 0.6 0.28 0.88 -0.38 1.32 -0.29 1.3 0.15 -0.001 0.23 -0.62 0.64 -0.55 0.86 0.02 0.07 0.03 0.2 0.06 0.26 0.12 0.27 0.36 0.37 0.68 0.6 0.16 0.11 0.22 0.44 -0.02 0.61 -0.08 0.06 -0.18 0.23 -0.26 0.23 -0.35 0.03 -0.69 -0.49 -1.06 -0.65 -0.26 -0.11 -0.51 -0.11 -0.75 0.03 -0.49 0.27 -1.41 1.98 -1.75 1.74 -0.47 -0.47 -0.71 -1 0.16 -1.58 0.15 -0.1 1.44 -1.01 1.44 -1.3 0.001 -0.27 -0.46 -0.5 -0.59 -0.77 -0.1 -0.19 -0.06 -0.48 0.09 -0.55 0.23 -0.1 0.4 -0.001 0.64 0.09"
     fill="#003d8f"
     fill-rule="evenodd"
     id="path6"
     style="fill:#095298;fill-opacity:1" />
  <path
     d="m 139.4 134.7 c 0 24.32 -19.84 43.98 -44.2 43.98 -24.2 0 -44.2 -19.84 -44.2 -43.98 v -52.7 h 88.3 v 52.7 z"
     fill="none"
     stroke="#e30016"
     stroke-width="2.83"
     id="path8" />
  <path
     d="m 121 171.1 c 4.55 -3.22 8.47 -7.25 11.56 -11.89 h -11.56 v 11.89 m -51.3 0 c -4.55 -3.22 -8.48 -7.25 -11.56 -11.89 h 11.56 v 11.89 m 17.1 -11.89 h 17.1 v 18.98 h -17.1 v -18.98 m 17.1 -18.98 h 17.1 v 18.98 h -17.1 v -18.98 m -34.2 0 h 17.1 v 18.98 h -17.1 v -18.98 m 51.3 -18.99 h 17.1 v 18.98 h -17.1 v -18.98 m -34.2 0 h 17.1 v 18.98 h -17.1 v -18.98 m -34.2 0 h 17.1 v 18.98 h -17.1 v -18.98 m 51.3 -19 h 17.1 v 18.98 l -17.1 0.04 v -19 m -34.2 0 h 17.1 v 18.98 h -17.1 v -18.98 m 51.3 -18.97 h 17.1 v 18.98 h -17.1 v -18.98 m -34.2 0 h 17.1 v 18.98 h -17.1 v -18.98 m -34.2 0 h 17.1 v 18.98 h -17.1 v -18.98"
     fill="#e30016"
     id="path10" />
  <path
     d="m 212.5 46.1 h 13.1 v 12.98 h -13.1"
     fill="none"
     stroke="#003d8f"
     stroke-width="4.25"
     id="path12" />
  <g
     id="a">
    <g
       fill="#003d8f"
       id="g15"
       style="fill:#095298;fill-opacity:1">
      <path
         d="m 220.5 13.78 h -27.56 v 13.78 h 27.56 v -13.78"
         id="path17"
         style="fill:#095298;fill-opacity:1" />
      <path
         d="m 193.1 454.8 h 27.56 v -13.78 h -27.56 v 13.78"
         id="path19"
         style="fill:#095298;fill-opacity:1" />
      <path
         d="m 0 0 v 27.56 h 13.77 v -13.79 h 13.79 v -13.77 z m 55.1 0 v 13.77 h 27.51 v 13.79 h 27.56 v -13.79 h -27.51 v -13.77 z m 0 13.77 h -27.56 v 13.79 h 27.56 z m 55.1 -13.77 v 13.77 h 27.56 v -13.77 z m 55.1 0 v 13.77 h -27.5 v 13.79 h 27.56 v -13.79 h 27.5 v -13.77 z m -151.6 27.57 v 27.56 h 13.79 v -27.56 z m 0 27.56 h -13.77 v 27.56 h 13.77 v 27.51 h 13.79 v -27.56 h -13.79 z m -13.77 55.1 v 27.56 h 13.77 v -27.56 z m 13.77 27.6 v 27.5 h -13.77 v 27.56 h 13.77 v -27.5 h 13.79 v -27.56 z m 0 55.1 v 27.56 h 13.79 v -27.56 z m -13.77 27.6 v 27.56 h 13.77 v 27.5 h 13.79 v -27.56 h -13.79 v -27.5 z m 0 55.1 v 27.56 h 13.77 v 27.5 h 13.79 v -27.56 h -13.79 v -27.5 z m 0 55.1 v 27.56 h 13.77 v -27.56 z m 13.77 27.6 v 27.5 h -13.77 v 27.56 h 13.77 v -27.5 h 13.79 v -27.56 z m 0 55.1 v 27.56 h 13.79 v -27.56 z m 13.79 27.58 v 13.8 h 27.56 v -13.8 z m 55.1 0 v 13.8 h 27.56 v -13.8 z m 55.1 0 v 13.8 h 27.56 v -13.8 z m -137.8 0.02 v 27.56 h 27.56 v -13.78 h -13.79 v -13.78 z m 55.1 13.78 v 13.78 h 27.56 v -13.78 z m 55.1 0 v 13.78 h 27.56 v -13.78 z m 55.2 0 v 13.78 h 27.56 v -13.78 z"
         id="path21"
         style="fill:#095298;fill-opacity:1" />
      <g
         id="b"
         style="fill:#095298;fill-opacity:1">
        <path
           d="m 44.5 289.7 v 19.41 h 14.64 v -19.41 c 0 -4 -3.29 -7.32 -7.32 -7.32 -4 0 -7.32 3.29 -7.32 7.32"
           id="d"
           style="fill:#095298;fill-opacity:1" />
        <use
           transform="translate(21.65)"
           xlink:href="#d"
           id="use25"
           style="fill:#095298;fill-opacity:1" />
      </g>
      <use
         transform="translate(0 59.82)"
         xlink:href="#b"
         id="use27"
         style="fill:#095298;fill-opacity:1" />
      <g
         id="f"
         style="fill:#095298;fill-opacity:1">
        <path
           d="m 135.2 281.1 v 17.2 h 12.66 v -17.2 c 0 -3.55 -2.85 -6.47 -6.33 -6.47 -3.49 0 -6.33 2.9 -6.33 6.47"
           id="path30"
           style="fill:#095298;fill-opacity:1" />
        <path
           d="m 120.2 284.6 v 17.2 l 4.45 -1.46 v -17.2 c 0 -3.34 -0.9 -5.96 -2.11 -5.77 -1.3 0.21 -2.34 3.67 -2.34 7.23"
           id="e"
           style="fill:#095298;fill-opacity:1" />
        <use
           transform="matrix(-1 0 0 1 283.1 0)"
           xlink:href="#e"
           id="use33"
           style="fill:#095298;fill-opacity:1" />
      </g>
      <use
         transform="translate(0 51.55)"
         xlink:href="#f"
         id="use35"
         style="fill:#095298;fill-opacity:1" />
      <path
         d="m 62.6 387.7 c -7 0 -12.77 5.74 -12.77 12.77 v 23.81 h 25.54 v -23.82 c 0 -7 -5.75 -12.76 -12.77 -12.76"
         id="path37"
         style="fill:#095298;fill-opacity:1" />
      <path
         d="m 134.8 403 v 20.64 h 13.54 v -20.64 c 0 -4.28 -3.05 -7.78 -6.77 -7.78 -3.73 0 -6.77 3.5 -6.77 7.78"
         id="path39"
         style="fill:#095298;fill-opacity:1" />
    </g>
    <g
       fill="none"
       stroke="#003d8f"
       stroke-width="4.25"
       id="g41"
       style="stroke:#095298;stroke-opacity:1">
      <path
         d="m 171.6 363.5 l -3.32 7.98 l -12.91 -5.24 h -25.6 l -15.38 5.94 l -3.61 -7.98 l 18.98 -5.94 h 25.6 z m 3.73 -52.89 l -7.1 12.38 v 38.9 m -60.6 -51.3 l 7.1 12.38 v 38.9 m 14.42 -47.58 v 44.2 m 24.71 -44.2 v 44.2 m 34.4 -38.81 v 19.49 m -19.28 -0.19 h 74.2 m -36.52 -19.31 v 19.49 m 0.1 2.67 c -21.1 0 -38.5 17.2 -38.5 38.2 m 38.5 -24.51 c -12.71 0 -23.2 10.36 -23.2 23.1 v 42.47 h 26.37 m -36.66 9.1 h 33.66 m -116.1 -91.2 h 22.49 m -22.2 18 h 22.49 m -22.76 18.2 h 22.49 m -22.49 17.77 h 22.49 m -21.93 17.5 h 21.66 m -14.48 -0.18 v 19.49 m 7.41 -37.66 v 19.49 m -7 -37.1 v 19.49 m 0.54 -55.71 v 19.49 m 5.66 -1.18 v 19.49 m 1.48 -56.4 v 19.49 m -16.1 -20.72 l 26.3 0.05 l 12.85 -4.96 h 25.6 l 12.17 4.96 l 76.1 -0.05 m -152.7 -7.91 l 22.43 -0.001 l 16.45 -4.96 h 25.6 l 15.49 4.96 h 72.97 m -48.55 -31.1 v 19.31 m 12.1 -16.7 l -12.1 -3.7 l -11.4 3.5 l -11.4 -3.5 v 21.6 l 67.4 -0.001 m -146.5 -2.91 v -17.2 l 8.62 3.51 l 8.95 -3.51 v 17.32 m 58 -45.58 h 75.5 m -76.5 9.47 h 77.5 m -18.9 -10.26 v -11.38 c 0 -10.94 -8.92 -19.87 -19.87 -19.87 -10.94 0 -19.87 8.92 -19.87 19.87 v 11.69 m -18.83 -39.75 v 48.83 m -6.29 -60 v 6.1 l 4.58 4.58 h 80.6 l 4.79 -4.79 v -5.84 z m -7.81 66.7 v 38.1 m -24.71 -38.1 v 38.1 m 24.71 -56.64 v 8.44 m 1.41 -19.22 v 11.52 m -26.1 -0.75 v 8.44 m -1.41 -19.22 v 11.52 m 15.1 -18.1 l -9.32 7.81 l -5.13 -3 l -7.59 8.58 l -5.78 -2.24 v 20.1 m 25.2 -31.3 l 9.21 7.85 l 5.13 -3 l 7.59 8.58 l 5.78 -2.24 v 19.28 m -26.46 -27.37 v 12.76 m -33.84 15.22 l 7.1 12.38 v 35.75 m 60.6 -48.1 l -7.1 12.38 v 35.49 m -54.86 -38.67 l 16.32 -6.26 h 25.6 l 14.63 6.12 m -60.2 -7.83 l 19.92 -6.26 h 25.6 l 17.95 6.12 m -83.4 167.1 h 20 m 44 -63.4 v 64.1 m -24.71 -64.1 v 64.1 m -14.39 -59.3 v 52.3 m 53.5 -52.3 v 52.2 m 4.9 7.18 l -4.9 -7.19 l -12.91 7.14 h -25.6 l -15.38 -7.84 l -5 7 l 20.41 8.79 h 25.6 l 17.82 -7.93 z m -83.6 -195.7 l -9.12 3.68 l -8.88 -3.65 l -9.1 3.65 l -8.91 -3.69 l -9.1 3.51 l -8.74 -3.51 v 21.6 h 53.8 z m -53.8 30.1 v 62.5 m 53.8 -0.001 v -62.5 m -60.3 -8.51 v 4.54 l 3.43 3.43 h 59.84 l 3.59 -3.59 v -4.38 z m 42.4 -21.4 v 12.66 m -18 -12.66 v 12.66 m -24.43 79.3 v 4.54 l 3.43 3.43 h 59.84 l 3.59 -3.59 v -4.38 z m 6.53 8.2 v 94.4 m 53.8 -0.001 v -94.4 m -60.3 103.8 l 6.21 -9.29 l 54.4 0.15 l 5.49 9.14 z"
         id="path43"
         style="stroke:#095298;stroke-opacity:1" />
      <path
         d="m 160.2 111.6 c 3.95 0.02 8.18 -1.39 9.38 -4.54 4.88 -12.37 11.99 -31.64 31.1 -44.49 0.68 -0.46 1.25 -1.21 1.2 -1.56 v -14.88 h 10.59 m -44.5 76.7 v 76.3 m 22.25 -68.7 c -5.15 0 -9.35 4.09 -9.35 9.1 v 48.63 h 18.7 v -48.63 c 0 -5 -4.21 -9.1 -9.35 -9.1 z m -28.47 -18.67 v 6.1 l 4.58 4.58 h 80.6 l 4.79 -4.79 v -5.84 z"
         id="path45"
         style="stroke:#095298;stroke-opacity:1" />
    </g>
  </g>
  <use
     transform="matrix(-1 0 0 1 413.4 0)"
     xlink:href="#a"
     id="use47" />
</svg>
