<?xml version="1.0" encoding="UTF-8"?>
<!-- Created with Inkscape (http://www.inkscape.org/) -->
<svg width="182.93mm" height="61.744mm" version="1.1" viewBox="0 0 182.93 61.744" xml:space="preserve" xmlns="http://www.w3.org/2000/svg"><g transform="translate(-14.523 -113.16)" fill="#00853e" stroke-width=".1"><path d="m14.523 122.82 3.5611-9.6548h17.117v37.373c0.06361 5.3215 2.5833 12.766 13.181 12.766 10.135 0 12.028-7.474 12.028-12.766v-27.718h-5.8896l3.5704-9.6548h21.325l-3.4513 9.6548h-4.3718v26.006c0 17.281-10.448 26.083-24.523 26.083-14.82 0-25.27-8.6242-25.27-26.083v-26.006z" style="paint-order:stroke fill markers"/><path d="m78.906 122.82 3.5054-9.6548h12.904l33.928 35.557h0.25183v-25.903h-6.3614l3.444-9.6548h21.865l-3.4424 9.6548h-4.484v50.967h-7.2164l-35.013-36.927h-0.29408v27.448h6.4355l-3.4673 9.4791h-21.301l3.3691-9.4791h3.6344v-41.488z" style="paint-order:stroke fill markers"/><path d="m145.6 128.73 5.7045-15.57h46.147l-5.6604 15.57h-5.7339v-5.9156h-9.4786v41.305h6.3671l-3.5276 9.662h-23.133l3.5484-9.662h4.3691v-41.305h-8.0873l-2.091 5.9156z" style="paint-order:stroke fill markers"/></g></svg>
