<?xml version="1.0" encoding="utf-8"?>
<!-- Generator: Adobe Illustrator 24.1.3, SVG Export Plug-In . SVG Version: 6.00 Build 0)  -->
<svg version="1.1" id="Layer_1" xmlns="http://www.w3.org/2000/svg" xmlns:xlink="http://www.w3.org/1999/xlink" width="153px" height="240px" x="0px" y="0px"
	 viewBox="0 0 39.3 61.5" style="enable-background:new 0 0 39.3 61.5;" xml:space="preserve">
<style type="text/css">
	.st0{fill-rule:evenodd;clip-rule:evenodd;fill:#3281C1;}
</style>
<g>
	<path class="st0" d="M31.8,3.2c-0.1,0.2-0.2,0.2-0.4,0.1C31.4,3.1,31.6,3.1,31.8,3.2z"/>
	<path class="st0" d="M33.4,3.9c0.1,0,0.1,0,0.2,0.1C33.6,4,33.3,4,33.4,3.9z"/>
	<path class="st0" d="M16.7,3.8C16.9,3.9,16.8,4,17,3.9c0.1,0.3,0.4,0.4,0.6,0.7C18,5.2,18.1,6.1,18.2,7c-0.2-0.3-0.2-0.9-0.4-1.1
		c-0.1-0.7-0.4-1.2-0.8-1.6C16.9,4.1,16.7,4,16.7,3.8z"/>
	<path class="st0" d="M18.4,9.6C17.9,9.7,18,9.3,18,9.1c-0.1-0.2-0.1-0.4-0.2-0.7c-0.1-0.6-0.3-1.3-0.6-2c-0.3-0.9-0.9-1.6-1.2-2.3
		c0.1,0,0.2-0.1,0.4-0.1c0.1,0,0.1,0.2,0.2,0.3c0.8,0.5,1.1,1.6,1.4,2.7C18.1,7.8,18.4,8.8,18.4,9.6z"/>
	<path class="st0" d="M21.1,4.4C21.1,4.4,21.2,4.4,21.1,4.4C21.2,4.8,21,5,21,5.2c-0.1,0.4-0.1,0.8-0.4,1C20.7,5.6,20.9,5,21.1,4.4z
		"/>
	<path class="st0" d="M17.4,9.7c-0.2,0-0.2,0.1-0.3,0.1c-0.5-1.5-1.1-2.7-2-3.8c-0.3-0.4-0.8-0.7-1.1-1.1c0.4-0.3,0.8,0,1.1,0.2
		C16.2,6.2,17,7.8,17.4,9.7z"/>
	<path class="st0" d="M19.4,5.2c0.1,0,0.1,0.4-0.1,0.4C19.4,5.4,19.3,5.3,19.4,5.2z"/>
	<path class="st0" d="M22.1,5.5c0.1,0,0.1,0.2,0,0.1C22.1,5.7,22.1,5.6,22.1,5.5C22.1,5.6,22.1,5.6,22.1,5.5z"/>
	<path class="st0" d="M22.4,5.6c0.1,0.1,0,0.5-0.2,0.4C22.3,5.9,22.4,5.8,22.4,5.6z"/>
	<path class="st0" d="M19.3,5.6C19.4,5.6,19.4,5.7,19.3,5.6C19.4,5.8,19.3,5.7,19.3,5.6z"/>
	<path class="st0" d="M16.4,10c-0.1,0-0.2,0.2-0.4,0.2c-0.2-1-0.9-1.6-1.3-2.5c-0.3-0.3-0.7-0.6-1-0.9c-0.6-0.2-1-0.7-1.6-0.9
		c0.1-0.2,0.4-0.2,0.5-0.3C14.4,6.5,15.6,8.1,16.4,10z"/>
	<path class="st0" d="M19.3,5.9c0-0.1,0.2,0.4-0.1,0.3C19.3,6.1,19.3,6,19.3,5.9z"/>
	<path class="st0" d="M16.2,6c0.1,0.1,0.2,0.1,0.2,0.2C16.2,6.2,16.2,6.1,16.2,6z"/>
	<path class="st0" d="M22.2,6.3c0.2,0.1,0,0.6-0.2,0.6C21.8,6.7,22.1,6.5,22.2,6.3z"/>
	<path class="st0" d="M27.4,6.7c-1.4,1.3-3,2.5-4.1,4.3c-0.2,0-0.4,0-0.6,0.1c0.3-0.8,0.8-1.4,1.4-1.9c0.5-0.5,0.9-1,1.5-1.4
		c0.2-0.2,0.5-0.3,0.7-0.5c0.1,0,0.2,0,0.2-0.1c0.1,0,0-0.1,0.1-0.2c0.1-0.1,0.3-0.1,0.4-0.3C27.2,6.7,27.2,6.8,27.4,6.7z"/>
	<path class="st0" d="M15.7,10.4c-0.2,0.1-0.3,0.3-0.5,0.3c-0.1-0.9-0.6-1.3-1.1-1.9C13.3,8,12.2,7.4,11,6.9c0-0.2,0.3-0.5,0.5-0.5
		c0.2,0,1.1,0.5,1.4,0.7c0.1,0.1,0.2,0.2,0.3,0.3c0.1,0.1,0.3,0.1,0.4,0.2C14.3,8.4,15,9.7,15.7,10.4z"/>
	<path class="st0" d="M15.3,7.1c0.1,0,0.1,0,0.1,0c0.3,0.4,0.6,1,0.9,1.6c0.2,0.4,0.5,0.8,0.5,1.2c-0.3-0.1-0.3-0.5-0.3-0.7
		C16.1,8.4,15.6,7.8,15.3,7.1z"/>
	<path class="st0" d="M16.9,7.1c0.1,0,0.1,0,0.1,0c0.3,0.7,0.7,1.6,0.7,2.4c-0.4,0.1-0.4-0.6-0.4-1C17.3,8.1,17.1,7.6,16.9,7.1z"/>
	<path class="st0" d="M6.4,7.3c0.1,0,0.2,0.1,0.3,0.2C6.6,7.6,6.4,7.4,6.4,7.3z"/>
	<path class="st0" d="M15.1,10.9c-0.1,0.1-0.2,0.2-0.2,0.4c-0.2,0-0.2-0.2-0.4-0.3c-0.4-0.5-1-0.8-1.5-1.2c0.8,0,1.1,0.7,1.7,1
		c0.2-0.2,0-0.6-0.3-0.6c-0.1-0.1-0.2-0.2-0.3-0.4c-1.1-0.7-2.3-1.4-3.8-1.6C10.5,7.7,11,7.9,11.5,8c0.2,0,0.4,0,0.5,0.1
		c0.5,0.1,0.8,0.5,1.2,0.5C13.9,9.3,14.9,9.7,15.1,10.9z"/>
	<path class="st0" d="M5.5,8.3c0.1,0,0.1,0.1,0.1,0.1C5.6,8.5,5.6,8.4,5.5,8.3C5.5,8.4,5.5,8.4,5.5,8.3z"/>
	<path class="st0" d="M28.8,9.5c0.2,0-0.1,0.2-0.2,0.3c-0.1,0.1-0.2,0.3-0.4,0.3C28.4,9.7,28.7,9.7,28.8,9.5z"/>
	<path class="st0" d="M14.7,11.4c-0.4,0-0.5-0.4-0.8-0.6c-0.3-0.2-0.8-0.3-1.1-0.6c-0.9-0.1-2-0.3-3-0.3c-0.2,0.1-0.3,0.2-0.6,0.2
		C9.2,10,9.3,9.7,9.4,9.6c0.3,0,0.4,0.1,0.7,0c0.2,0,0.4-0.2,0.6-0.2c0.4,0,1,0.1,1.4,0.2c0.5,0.2,1,0.5,1.5,0.8
		C14,10.7,14.6,10.9,14.7,11.4z"/>
	<path class="st0" d="M28.7,10.2c0.1,0,0.1,0,0.1,0.1C28.8,10.3,28.7,10.3,28.7,10.2C28.7,10.2,28.7,10.2,28.7,10.2z"/>
	<path class="st0" d="M21.2,10.8c-0.6,0-1.4,0-2.2-0.1c-0.1,0-0.2-0.1-0.3-0.1c-0.2,0-0.5,0.1-0.7,0.1c-0.8,0-1.8,0.3-2.4,0.9
		c-0.2,0.2-0.4,0.3-0.5,0.6c-0.2-0.1,0.1-0.4,0-0.7c-0.3,0.9-0.3,1.4-0.4,2.3c0,0.1-0.1,0.1-0.2,0.1c-0.2,0.9,0.2,1.6,0.6,2.2
		c0.3,0.4,0.6,0.8,0.9,1c-0.4,0.5-0.9,0.8-1.2,1.4c-0.1,0-0.2,0.1-0.3,0.2c-0.1,0.7-0.5,1.5-0.6,2.3c-0.1,0.9,0.1,1.7,0,2.6
		c-0.2-0.1-0.1-0.3-0.2-0.5c-0.4-0.2-0.3-0.9-0.4-1.5c0-0.1-0.2-0.1-0.3-0.2c0-0.6-0.2-1.1-0.1-1.9s0.7-1.5,1.2-2
		c0.2-0.3,0.7-0.4,0.7-0.8c-0.2-0.2-0.3,0.5-0.5,0.2c-0.2,0,0-0.1,0-0.2c-0.1-0.4-0.5-0.7-0.6-1.2c-0.1-0.6-0.1-1.2,0-1.7
		c0.1-0.6,0.2-1.1,0.3-1.5c0.3-0.2,0.5-0.5,0.6-0.9c0.5-0.4,0.8-0.9,1.5-1.2c0.2,0,0.3,0,0.4,0.1c0.3-0.4,0.7-0.3,1.4-0.4
		c0.2,0,0.7-0.1,1.1-0.1c0.4,0.1,0.7,0.3,1.1,0.4C20.6,10.5,21,10.6,21.2,10.8z"/>
	<path class="st0" d="M14.5,11.6c0,0.2-0.2,0.2-0.2,0.5c-0.2,0-0.3-0.2-0.4-0.3c-0.5-0.2-1.2-0.2-1.6-0.5c-0.5,0.3-1.1,0.3-1.6,0.6
		c-0.2,0.1-0.5,0.3-0.8,0.4c-0.1,0.2-0.4,0.4-0.6,0.6C9.2,13,9,13.3,8.8,13.4c0-0.5,0-1,0.3-1.3c0.1,0,0.2-0.1,0.3,0
		c0.7-0.3,1.3-0.9,2.2-1.1C12.5,10.9,13.6,11,14.5,11.6z"/>
	<path class="st0" d="M22,11.3C22,11.3,22,11.3,22,11.3c0.1,0.1,0,0.1,0,0.1c0,0-0.1,0-0.1,0C21.9,11.3,22,11.3,22,11.3z"/>
	<path class="st0" d="M29.9,12C29.9,12,30,12,29.9,12C30,12.1,30,12.1,29.9,12C30,12.1,29.9,12.1,29.9,12
		C29.9,12.1,29.9,12.1,29.9,12z"/>
	<path class="st0" d="M26,12c0.2,0,0.1,0.3,0.2,0.4C26,12.4,25.9,12.2,26,12z"/>
	<path class="st0" d="M26.7,16.7c-0.5,0-0.7-0.7-0.9-1.2c-0.1-0.2-0.2-0.5-0.3-0.7c-0.2-0.4-0.3-0.6-0.4-1.1
		c-0.2-0.2-0.5-0.4-0.6-0.8c-0.2-0.1-0.4-0.3-0.6-0.4c-1.2-0.1-1.4,0.9-1.9,1.5c-0.2,0-0.4,0.1-0.6,0c0.4,0,0.2-0.4,0.5-0.5
		c0.2-1,1-1.5,1.9-1.5c1.6,0.6,1.9,2.4,2.4,4C26.5,16.3,26.6,16.4,26.7,16.7z"/>
	<path class="st0" d="M13.9,12.6c-0.1,0.4-0.6,0.2-0.9,0.2c-0.2,0-0.3,0.2-0.6,0.3c-0.3,0.1-0.6,0.1-0.8,0.2
		c-0.2,0.1-0.3,0.3-0.5,0.4c-0.2,0.1-0.4,0.2-0.6,0.3c-0.4,0.3-0.7,0.9-1.1,1.1c-0.2,0.6-0.4,1.1-0.5,1.6c-0.1-0.1-0.1-0.4-0.1-0.6
		c0-0.2-0.1-0.5,0-0.6c0-0.2,0.3-0.4,0.4-0.6c0.4-0.7,0.7-1.1,1.4-1.5C11.4,12.9,12.8,12.2,13.9,12.6z"/>
	<path class="st0" d="M21.8,13.7c-0.1-0.1-0.2-0.1-0.3-0.3c0.1,0,0.3,0,0.3-0.1C21.9,13.4,21.7,13.5,21.8,13.7z"/>
	<path class="st0" d="M13.7,13.3c0,0.5-0.6,0.3-0.9,0.4c-0.7,0.2-1.1,0.7-1.5,1.2c-0.1,0-0.1,0.1-0.2,0.1c-0.2,0.2-0.3,0.5-0.6,0.6
		c-0.2,0.4-0.3,0.9-0.7,1.1C10.5,14.8,11.7,13.4,13.7,13.3z"/>
	<path class="st0" d="M13.4,14.2c0,0.1-0.1,0.1-0.2,0.1C13.2,14.1,13.3,14.2,13.4,14.2z"/>
	<path class="st0" d="M12.9,14.2c0.2,0-0.1,0.2-0.1,0.3c-0.1,0.1-0.1,0.2-0.2,0.4c-0.3,0.3-0.6,0.5-0.8,1c-0.1,0-0.1,0.1-0.2,0.1
		c-0.2,0.5-0.6,1-0.9,1.5c-0.1,0.3-0.2,0.5-0.3,0.8c-0.1,0.2-0.3,0.5-0.4,0.8c-0.2,0.5-0.1,1.1-0.3,1.7c-0.2-0.6-0.2-1.2-0.3-1.8
		c0.2-0.2,0.2-0.5,0.4-0.8c0-0.1,0.1-0.1,0.2-0.2c0.2-0.5,0.3-1,0.6-1.4c0.1-0.2,0.3-0.4,0.4-0.6c0.3-0.5,0.6-0.7,1.1-1.1
		C12.3,14.6,12.5,14.4,12.9,14.2C12.8,14.2,12.9,14.2,12.9,14.2z"/>
	<path class="st0" d="M28.6,15.1c0.1,0,0.2,0.1,0.3,0.1C28.9,15.3,28.6,15.3,28.6,15.1z"/>
	<path class="st0" d="M13.7,15.2c0,0.1,0,0.4,0.1,0.7c-0.3,0.1-0.6,0.4-0.8,0.6c-0.1,0.3-0.4,0.5-0.6,0.8c-0.1,0.2-0.1,0.4-0.2,0.7
		c-0.1,0.2-0.2,0.4-0.3,0.6c-0.1,0.2-0.1,0.5-0.1,0.7c-0.1,0.5-0.3,0.9-0.4,1.4c-0.1,0.2,0,0.5-0.3,0.5c-0.3-0.1-0.1-0.5-0.1-0.7
		c0.1-0.6,0.1-1.5,0.4-2.2c0.2-0.6,0.6-1.2,1-1.7C12.7,16,13.1,15.6,13.7,15.2z"/>
	<path class="st0" d="M21.2,15.5c0.1-0.1,0.2,0,0.2,0.1C21.3,15.7,21.2,15.6,21.2,15.5z"/>
	<path class="st0" d="M28.2,16.7c0.2-0.1,0.2,0.1,0.3,0.1C28.3,17,28.1,16.9,28.2,16.7z"/>
	<path class="st0" d="M32.3,17.3c0-0.1,0.2-0.1,0.1,0C32.4,17.3,32.4,17.3,32.3,17.3C32.4,17.3,32.4,17.3,32.3,17.3z"/>
	<path class="st0" d="M9.6,16.8C9.6,16.8,9.6,16.7,9.6,16.8C9.9,16.7,9.4,17,9.6,16.8z"/>
	<path class="st0" d="M32.7,17.6c0-0.1,0.3-0.1,0.3,0.1C32.8,17.7,32.8,17.6,32.7,17.6z"/>
	<path class="st0" d="M30.5,17.6c0,0,0.2,0,0.1,0.1C30.6,17.7,30.5,17.7,30.5,17.6z"/>
	<path class="st0" d="M9,17.2C9.1,17.1,9.1,17.2,9,17.2c0,0.1,0,0.1,0,0.1C9,17.3,9,17.2,9,17.2z"/>
	<path class="st0" d="M33.4,18c0.3,0,0.3,0.1,0.4,0.1C33.7,18.2,33.3,18.1,33.4,18z"/>
	<path class="st0" d="M16.2,17.5c-0.1,0.1-0.2,0.3-0.4,0.3C15.9,17.7,16,17.5,16.2,17.5z"/>
	<path class="st0" d="M21.7,17.8c0,0.1-0.2,0.1-0.2,0C21.5,17.8,21.6,17.7,21.7,17.8z"/>
	<path class="st0" d="M36.9,19.7c0.1,0,0.1,0,0.2,0.1c0,0.1-0.1,0.1-0.1,0.2C36.9,19.9,36.9,19.8,36.9,19.7z"/>
	<path class="st0" d="M5.3,19C5.4,18.8,5.4,19.1,5.3,19C5.3,19.1,5.3,19,5.3,19z"/>
	<path class="st0" d="M28.9,19.8c0.1,0.1-0.1,0.2-0.1,0.4c-0.1,0-0.1-0.1-0.2-0.1C28.7,19.9,28.9,19.9,28.9,19.8z"/>
	<path class="st0" d="M31.5,20.2c-0.2,0.1-0.3-0.1-0.4-0.1C31.1,19.9,31.5,20,31.5,20.2z"/>
	<path class="st0" d="M10.6,19.5C10.6,19.5,10.7,19.5,10.6,19.5c0,0.4,0,1-0.1,1.4c0,0.1,0,0.3-0.1,0.5c0,0.1-0.1,0.2-0.1,0.3
		c0,0.5,0.1,0.9,0,1.4c0.3-0.2,0.3-0.5,0.3-0.8c0.1-0.3,0.2-0.6,0.2-0.9c0.2,0.1,0.1,0.6,0,0.9c0,0.1-0.1,0.3-0.1,0.4
		c0,0.2,0,0.3,0,0.5c-0.1,0.5-0.6,0.9-0.7,1.3c-0.1-0.6-0.1-1.1-0.2-1.6c0-0.1-0.1-0.4-0.1-0.5c0-0.4,0.4-0.8,0.5-1.2
		c0-0.1,0-0.3,0.1-0.4C10.4,20.3,10.5,19.9,10.6,19.5z"/>
	<path class="st0" d="M1.2,19.6C1.3,19.6,1.3,19.6,1.2,19.6C1.3,19.6,1.3,19.7,1.2,19.6C1.3,19.7,1.3,19.7,1.2,19.6
		C1.2,19.7,1.2,19.6,1.2,19.6z"/>
	<path class="st0" d="M30.9,20.9c0.2-0.1,0.2,0.2,0.4,0.2C31.1,21.3,31,21,30.9,20.9z"/>
	<path class="st0" d="M24.2,20.8c0.1,0,0.1,0,0.1,0.1C24.2,20.9,24.2,20.9,24.2,20.8z"/>
	<path class="st0" d="M31.3,21.3c0.1,0,0.1,0.1,0.1,0.1C31.3,21.4,31.3,21.4,31.3,21.3z"/>
	<path class="st0" d="M23.8,21.3c0.1,0,0.2,0,0.2,0.1C24.1,21.5,23.7,21.5,23.8,21.3z"/>
	<path class="st0" d="M6.2,20.8c0,0.1-0.1,0.5-0.3,0.5C5.9,21.1,6.1,21,6.2,20.8z"/>
	<path class="st0" d="M24.6,21.5C24.7,21.5,24.7,21.5,24.6,21.5C24.7,21.5,24.7,21.6,24.6,21.5C24.7,21.6,24.7,21.6,24.6,21.5
		C24.6,21.6,24.6,21.5,24.6,21.5z"/>
	<path class="st0" d="M21.2,22c-0.5,0.4-1.1,0.6-1.4,1.1c-0.1-0.1-0.2-0.2-0.3-0.3c0.2-0.2,0.5-0.4,0.8-0.6
		C20.6,21.9,20.8,21.8,21.2,22z"/>
	<path class="st0" d="M22.2,22.9c-0.5,0.3-0.9,0.7-1.5,0.9c-0.5,0.3-0.8,0.8-1.2,1.2c0,0.2-0.1,0.3-0.1,0.4c-0.1,0.7-0.1,1.6,0,2.5
		c-0.1-0.2-0.2-0.4-0.3-0.6c-0.3-0.9-0.3-2.3,0.2-3.1c0,0,0-0.1,0-0.1c0.6-0.8,1.8-0.8,2.4-1.7C21.9,22.5,22.1,22.7,22.2,22.9z"/>
	<path class="st0" d="M14.2,22.3c0,0,0.1,0,0.1,0c0,0.1,0,0.1-0.1,0.1c0,0-0.1,0-0.1,0C14.2,22.4,14.2,22.3,14.2,22.3z"/>
	<path class="st0" d="M37.5,23.3c0.2,0,0.1,0.2,0.2,0.2C37.6,23.6,37.5,23.4,37.5,23.3z"/>
	<path class="st0" d="M19.4,22.9c0,0.1-0.1,0.1-0.2,0.1C19.2,22.9,19.2,22.9,19.4,22.9z"/>
	<path class="st0" d="M5.4,22.5c0.1,0.2-0.1,0.3-0.2,0.4C5.1,22.8,5.4,22.7,5.4,22.5z"/>
	<path class="st0" d="M19.7,23.2c0,0.1-0.1,0.1-0.1,0.1C19.5,23.2,19.6,23.2,19.7,23.2z"/>
	<path class="st0" d="M13.5,23.4c0.1,0,0.1,0.2,0.1,0.3C13.4,23.7,13.5,23.5,13.5,23.4z"/>
	<path class="st0" d="M13.5,23.8c0.1,0.1,0.2,0.5,0,0.5C13.5,24.1,13.4,23.9,13.5,23.8z"/>
	<path class="st0" d="M14,23.9c0.1,0.1,0.1,0.2,0,0.2C13.9,24.1,14,24.1,14,23.9z"/>
	<path class="st0" d="M14.8,32.7c0.3-0.3,1-0.3,1.3-0.7c0.2-0.1,0,0.2,0.1,0.1c0.1-0.2,0.1-0.5,0.4-0.4c0-0.2-0.1-0.4,0-0.6
		c-0.4-1-1.3-1.5-1.8-2.4c-0.1-0.4-0.2-0.8-0.4-1.1c0,1,0.5,1.9,1.1,2.5c0,0.2,0.2,0.4,0.3,0.6c0.1,0.2,0.2,0.5,0.2,0.6
		c-0.1,0.7-1.4,0.8-2.1,0.7c-0.1-0.2,0.1-0.2,0.1-0.4c0.7,0.1,0.9-0.3,1.3-0.5c0-0.3-0.2-0.3-0.2-0.8c-0.3-0.5-0.7-0.9-1-1.4
		c0.1-0.3,0.2-0.6,0.3-0.9c-0.4,0.3-0.4,0.9-0.8,1.1c0,0.3-0.3,0.9-0.3,1.4c0,0.3,0.1,0.7-0.3,0.8c-0.3-0.7-0.5-1.7,0-2.3
		c0.1-0.1,0.2-0.1,0.3-0.3c0.1-0.1,0.2-0.4,0.3-0.6c0.2-0.3,0.4-0.4,0.4-0.9c0.1-0.1,0.1-0.2,0.2-0.3c0-0.2,0.1-0.4,0.1-0.7
		c0-0.6-0.1-1.3-0.3-1.9c0.3,0.3,0.3,0.7,0.4,1.2c0.2,0.7,0.6,1.3,0.7,2c0.1,0.1,0.1,0.3,0.2,0.3c0,0.4,0.1,0.6,0.4,0.9
		c0.1,0.1,0.3,0.2,0.4,0.4c0,0,0,0.1,0,0.2c0.1,0.1,0.2,0.1,0.3,0.2c0.2,0.2,0.6,1,0.7,1.3c0.1,0.4-0.3,1-0.7,1.2
		C16.1,32.5,15.4,32.6,14.8,32.7z"/>
	<path class="st0" d="M33.8,25.1c0,0.2-0.3,0.1-0.4,0C33.5,25.1,33.7,25.1,33.8,25.1z"/>
	<path class="st0" d="M13.6,26.6c0-0.1-0.1,0-0.1,0c0.1-0.4,0.3-1,0.3-1.5c0-0.2-0.2-0.6,0.1-0.7c0.1,0.8,0.3,1.5,0.1,2.3
		c-0.2,0.7-0.6,1.3-1,1.8c-0.1,0-0.2,0.1-0.3,0.1c-0.4,0.8-0.3,2.3-0.3,3.3c0.1,0.1,0.3,0.2,0.3,0.4c-0.2,0.1-0.3-0.2-0.4-0.4
		c-0.1-0.2-0.2-0.4-0.3-0.6c0-0.2,0-0.4,0-0.5c0-0.2-0.1-0.4-0.2-0.6c0-0.4,0.1-0.8,0.1-1.1c0.2-0.8,0.8-1.4,1.3-1.9
		c0-0.1,0-0.2,0-0.3C13.5,26.9,13.5,26.7,13.6,26.6C13.5,26.6,13.6,26.6,13.6,26.6z"/>
	<path class="st0" d="M25.8,24.9c0.7,0.2,1.6,0.6,2.3,0.4c0.4,0.3,0.9,0.4,1.2,0.8C28.2,26,27,25.5,26,25.6
		C25.9,25.4,25.8,25.1,25.8,24.9z"/>
	<path class="st0" d="M4.3,24.3C4.3,24.3,4.3,24.3,4.3,24.3c-0.2,0.4-0.6,0.8-0.9,1.2c-0.3,0.4-0.6,0.9-0.9,1.3
		c-0.1,0.2-0.3,0.3-0.4,0.4c-0.3,0.4-0.5,0.9-0.9,1.3c0-0.3,0-0.6-0.1-0.9c0.2,0,0.2-0.2,0.4-0.2c0.5-0.7,1.2-1.2,1.6-1.9
		C3.6,25.2,3.9,24.7,4.3,24.3z"/>
	<path class="st0" d="M0.9,25.1c0,0,0.1,0,0.1,0c0,0.1,0,0.2-0.1,0.2C0.9,25.4,0.9,25.3,0.9,25.1z"/>
	<path class="st0" d="M13.5,25.6c0.1,0.1,0,0.4,0,0.5c-0.1,0.3-0.3,0.7-0.4,0.8C13.2,26.5,13.4,26.1,13.5,25.6z"/>
	<path class="st0" d="M29.6,26.6c-0.1,0.1-0.2,0.2-0.2,0.4c-0.2-0.1-0.3,0-0.6,0C28.8,26.5,29.1,26.5,29.6,26.6z"/>
	<path class="st0" d="M11.5,26C11.6,26,11.6,26,11.5,26c-0.3,1.8-1.5,2.9-2.1,4.7c0-0.4,0.2-0.9,0.4-1.3c0.5-1.1,1.2-2.2,1.7-3.3
		C11.5,26.1,11.5,26,11.5,26z"/>
	<path class="st0" d="M29.1,27.2C29.2,27.2,29.2,27.2,29.1,27.2c-0.3,0.6-0.6,1-1,1.4c-0.2-0.1-0.2,0.1-0.5,0
		c-0.2-0.2-0.4-0.7-0.3-1C27.5,27,28.5,27.3,29.1,27.2z M27.6,28.2c0.1,0.1,0.2,0,0.3,0.1c0.2-0.4,0.8-0.4,0.8-0.9
		C28,27.4,27.6,27.6,27.6,28.2z"/>
	<path class="st0" d="M15.2,26.8C15.4,26.9,15.2,27.1,15.2,26.8L15.2,26.8z"/>
	<path class="st0" d="M16.9,27.1c0-0.1,0,0.1,0,0.1C16.9,27.3,16.8,27.3,16.9,27.1z"/>
	<path class="st0" d="M15.3,27.1c0.1,0,0.2,0.1,0.1,0.2C15.3,27.3,15.3,27.2,15.3,27.1z"/>
	<path class="st0" d="M19.5,27.9c0.3,0,0.3,0.3,0.3,0.5C19.5,28.4,19.5,28.1,19.5,27.9z"/>
	<path class="st0" d="M28.9,28.9c0.1,0,0,0.3-0.1,0.2C28.8,29,28.9,28.9,28.9,28.9z"/>
	<path class="st0" d="M16.1,28.7C16.3,28.7,16.1,29,16.1,28.7L16.1,28.7z"/>
	<path class="st0" d="M25.4,29.2c0.1,0,0.2,0.2,0.1,0.3C25.3,29.5,25.4,29.3,25.4,29.2z"/>
	<path class="st0" d="M35,29.7c0.2,0,0,0.2,0,0.3C35,29.9,35,29.8,35,29.7z"/>
	<path class="st0" d="M8.1,29C8.1,29,8.2,29,8.1,29C8.2,29,8.2,29,8.1,29C8.2,29.1,8.1,29.1,8.1,29C8.1,29,8.1,29,8.1,29z"/>
	<path class="st0" d="M1.2,29c0,0,0.1,0,0.1,0c0,0,0,0.1,0,0.1C1.2,29.1,1.2,29.1,1.2,29z"/>
	<path class="st0" d="M1.8,29C1.9,29.3,1.6,29.3,1.8,29L1.8,29z"/>
	<path class="st0" d="M30.5,30.4c-0.2,0.2-0.3,0.5-0.6,0.7C29.9,30.7,30.3,30.5,30.5,30.4z"/>
	<path class="st0" d="M1.3,29.5c0.1,0,0.1,0.1,0.1,0.2C1.3,29.7,1.3,29.6,1.3,29.5z"/>
	<path class="st0" d="M7.8,29.7c0.1,0,0,0.5-0.2,0.5C7.7,30,7.8,29.9,7.8,29.7z"/>
	<path class="st0" d="M25.5,30.4c0,0.1-0.1,0.1-0.1,0.1C25.3,30.4,25.4,30.4,25.5,30.4z"/>
	<path class="st0" d="M1.4,30.2c0.1,0,0.1,0.1,0.1,0.1C1.5,30.4,1.5,30.3,1.4,30.2C1.4,30.3,1.4,30.3,1.4,30.2z"/>
	<path class="st0" d="M24.6,31c0,0.2-0.1,0.4-0.1,0.6c-0.3-0.1-0.7-0.1-1.1-0.1C23.7,31.2,24.2,31.1,24.6,31z"/>
	<path class="st0" d="M9.4,30.7c0.1-0.2,0.1,0.2,0,0.2C9.2,30.9,9.5,30.7,9.4,30.7z"/>
	<path class="st0" d="M9.4,31c0.1,0.4,0,1,0.1,1.5C9.2,32.2,9.3,31.4,9.4,31z"/>
	<path class="st0" d="M24.5,32.1c-0.4-0.1-1.3,0-1.6-0.5c0,0,0.1,0,0.1-0.1c0.3,0,0.7,0.2,1.1,0.3C24.3,31.9,24.6,31.8,24.5,32.1z"
		/>
	<path class="st0" d="M24.6,32c0.2,0.1,0.4,0,0.5,0.1c-0.1,0.1-0.3,0.1-0.5,0.1C24.6,32.1,24.6,32,24.6,32z"/>
	<path class="st0" d="M15.5,32.7c0,0.1-0.1,0.2-0.3,0.2C15.2,32.8,15.3,32.8,15.5,32.7z"/>
	<path class="st0" d="M9.6,34.2c0.1,0.1,0.2,0.1,0.2,0.2C9.6,34.4,9.6,34.3,9.6,34.2z"/>
	<path class="st0" d="M13.6,34.3c0,0.1-0.1,0.1-0.1,0.2C13.3,34.5,13.5,34.3,13.6,34.3z"/>
	<path class="st0" d="M23.7,35.5c0.1,0,0.1,0.1,0,0.2C23.7,35.7,23.7,35.6,23.7,35.5z"/>
	<path class="st0" d="M24.3,35.9c0.1,0,0.1,0.1,0.1,0.1C24.3,36,24.3,36,24.3,35.9C24.3,35.9,24.3,35.9,24.3,35.9z"/>
	<path class="st0" d="M24.6,36.1c0.1,0,0.1,0,0.2,0c0,0.1,0,0.1,0,0.2C24.7,36.3,24.6,36.2,24.6,36.1z"/>
	<path class="st0" d="M25.1,36.2c0.3,0,1.2,0.4,1.1,1C26,36.7,25.6,36.5,25.1,36.2z"/>
	<path class="st0" d="M26.2,36.4C26.2,36.4,26.2,36.4,26.2,36.4C26.3,36.5,26.3,36.5,26.2,36.4C26.2,36.5,26.2,36.5,26.2,36.4
		C26.2,36.5,26.2,36.5,26.2,36.4z"/>
	<path class="st0" d="M11,36.2c0.1,0,0,0.2,0,0.3C10.9,36.5,10.9,36.3,11,36.2z"/>
	<path class="st0" d="M15.7,36.6C15.7,36.6,15.8,36.6,15.7,36.6C15.8,36.7,15.8,36.7,15.7,36.6C15.8,36.7,15.7,36.7,15.7,36.6
		C15.7,36.7,15.7,36.7,15.7,36.6z"/>
	<path class="st0" d="M8.4,37.3c0.1,0.2,0.4,0.3,0.5,0.6c-0.1,0.1-0.2,0.1-0.3,0c0.1,0.3-0.1,0.3-0.1,0.4
		C8.4,38.1,8.4,37.5,8.4,37.3z"/>
	<path class="st0" d="M21.3,37.8c0.2,0.4,0.2,1,0.3,1.5C21.3,38.8,21.2,38.3,21.3,37.8z"/>
	<path class="st0" d="M21.6,37.9C21.6,37.9,21.7,37.9,21.6,37.9C21.7,37.9,21.7,38,21.6,37.9C21.7,38,21.6,38,21.6,37.9
		C21.6,38,21.6,37.9,21.6,37.9z"/>
	<path class="st0" d="M21.7,37.9C21.8,37.9,21.8,37.9,21.7,37.9C21.8,37.9,21.8,38,21.7,37.9C21.8,38,21.8,38,21.7,37.9
		C21.7,38,21.7,37.9,21.7,37.9z"/>
	<path class="st0" d="M21.6,38.2c0.4,0,0.8,0.2,1.1,0c-0.1,0.2,0.1,0.2,0.1,0.5c-0.1-0.1-0.1,0-0.2,0c0-0.1,0-0.1,0-0.2
		c-0.4,0.1-0.5,0.1-0.9,0.1C21.6,38.5,21.7,38.3,21.6,38.2z"/>
	<path class="st0" d="M22.2,38.8c-0.1,0.1-0.1,0.3-0.1,0.4c-0.1,0-0.1,0-0.2,0c0-0.1-0.1-0.2-0.1-0.3C21.9,38.9,22,38.8,22.2,38.8z"
		/>
	<path class="st0" d="M13.6,38.9c0.2,0,0.1,0.2,0,0.2C13.5,39,13.5,39,13.6,38.9z"/>
	<path class="st0" d="M22.9,39.7c-0.4,0-0.6,0.1-1,0.1c0-0.1,0-0.2,0-0.3C22.3,39.5,22.7,39.2,22.9,39.7z"/>
	<path class="st0" d="M23.1,40c0.1,0.3-0.2,0.2-0.4,0.3C22.7,40,22.8,39.9,23.1,40z"/>
	<path class="st0" d="M15.4,39.9c0,0.2-0.3,0.2-0.5,0.2C15,39.9,15.2,39.9,15.4,39.9z"/>
	<path class="st0" d="M16.1,41.1c0.2,0,0.4,0.1,0.4,0.3C16.4,41.2,16.1,41.3,16.1,41.1z"/>
	<path class="st0" d="M15.7,41.7c0.2,0.1,0.4,0.5,0.3,0.6c0,0-0.1-0.1-0.1,0C15.8,42.1,15.7,42,15.7,41.7z"/>
	<path class="st0" d="M18,42.2c0.2-0.1,0.1,0.1,0.2,0.2C18.2,42.5,18,42.3,18,42.2z"/>
	<path class="st0" d="M13.1,42.4c0.1-0.1,0.4,0,0.4,0.1C13.3,42.5,13.2,42.5,13.1,42.4z"/>
	<path class="st0" d="M22.9,44.7c0.3,0.1,0.7,0.2,0.8,0.4C23.5,45.1,23.1,44.9,22.9,44.7z"/>
	<path class="st0" d="M14.5,46c0.1,0.1,0.4,0,0.6,0.1C15,46.2,14.5,46.3,14.5,46z"/>
	<path class="st0" d="M9.9,46.5c0.2,0.2,0.1,0.9,0.3,1.1c-0.1,0.2-0.2,0.4-0.2,0.6C9.9,47.7,9.9,47.1,9.9,46.5z"/>
	<path class="st0" d="M15.2,48c0,0,0.1,0,0.1,0c0,0.2,0,0.2,0,0.5C15.1,48.4,15.3,48.1,15.2,48z"/>
	<path class="st0" d="M16.9,48.2C17,48.2,17,48.3,16.9,48.2c0.2,0.7,0.5,1.8,0,2.3C16.8,50.2,17,50,17,49.7
		C17.1,49.2,16.9,48.7,16.9,48.2z"/>
	<path class="st0" d="M19.9,48.8c0,0,0.1,0,0.1,0c0.1,0.1,0.1,0.3,0.1,0.4c0.1,0.5,0,0.9,0.2,1.4c0.1,0.2,0.3,0.5,0.4,0.8
		c0.1,0.1,0.1,0.3,0.2,0.4c0.1,0.2,0.3,0.4,0.4,0.6c0.3,0.4,0.7,0.8,0.9,1.2c0,0.1,0,0.2,0,0.4c0,0.2,0.2,0.6,0.2,0.9
		c0,0.3-0.4,0.9-0.7,0.9c0-0.3,0.2-0.4,0.3-0.6c0.1-0.3-0.2-0.6-0.1-1c0.2,0,0.1,0.3,0.3,0.2c0.1-0.1,0-0.2,0-0.2
		c-0.2-0.6-0.8-1.2-1.3-1.6c-0.2-1-1-1.5-1-2.5C19.8,49.7,19.9,49.3,19.9,48.8z"/>
	<path class="st0" d="M10.9,49.3c0.2,0.1,0.1,0.5-0.1,0.6C10.9,49.6,10.9,49.4,10.9,49.3z"/>
	<path class="st0" d="M13,49.4C13,49.4,13,49.4,13,49.4C13.1,49.5,13.1,49.5,13,49.4C13,49.5,13,49.5,13,49.4
		C13,49.5,13,49.5,13,49.4z"/>
	<path class="st0" d="M8.2,50.8c0.1,0,0.1,0.2,0,0.1C8.2,50.9,8.2,50.8,8.2,50.8C8.2,50.8,8.2,50.8,8.2,50.8z"/>
	<path class="st0" d="M14.1,51.9c0.1,0,0.1,0.1,0,0.1c0,0-0.1,0-0.1,0C14.1,52,14.1,52,14.1,51.9z"/>
	<path class="st0" d="M12.1,52.5c0,0.2-0.3,0.2-0.4,0.2C11.8,52.5,12,52.5,12.1,52.5z"/>
	<path class="st0" d="M18.8,53c-0.1,0-0.2-0.1-0.2-0.3C18.8,52.6,18.9,52.8,18.8,53z"/>
	<path class="st0" d="M21,52.9C21.1,52.9,21.1,52.9,21,52.9C21.1,52.9,21.1,52.9,21,52.9C21.1,53,21.1,53,21,52.9
		C21,52.9,21,52.9,21,52.9z"/>
	<path class="st0" d="M28.6,53.4c0,0,0.1,0,0.1,0c0,0,0,0.1,0,0.1C28.7,53.5,28.6,53.5,28.6,53.4z"/>
	<path class="st0" d="M7.6,52.9c0.1,0.1,0,0.3-0.1,0.4C7.4,53.2,7.6,53,7.6,52.9z"/>
	<path class="st0" d="M25,53.8C25,53.8,25,53.8,25,53.8C25.1,53.9,25.1,53.9,25,53.8C25,53.9,25,53.9,25,53.8
		C25,53.9,25,53.9,25,53.8z"/>
	<path class="st0" d="M8.6,53.5c0.1,0,0.1,0,0.1,0.1C8.7,53.6,8.6,53.6,8.6,53.5C8.6,53.6,8.6,53.5,8.6,53.5z"/>
	<path class="st0" d="M14.9,54.2c0.1-0.1,0.1,0.1,0.2,0.1C15,54.4,14.9,54.2,14.9,54.2z"/>
	<path class="st0" d="M32.3,54.7c0.1,0.1,0.2,0.3,0.2,0.4C32.3,55.1,32.2,55,32.3,54.7z"/>
	<path class="st0" d="M6,54.5c0.2,0.1,0,0.2,0,0.4C5.8,54.8,6,54.6,6,54.5z"/>
	<path class="st0" d="M27.9,55.5c0.1,0.1,0.1,0.2,0.3,0.2C28.2,55.9,27.8,55.7,27.9,55.5z"/>
	<path class="st0" d="M27.8,55.8c0.1,0,0.2,0,0.2,0.1C27.9,56,27.8,55.9,27.8,55.8z"/>
	<path class="st0" d="M29.1,55.9c0.2,0.1,0.5,0.1,0.5,0.3C29.4,56.1,29.1,56.1,29.1,55.9z"/>
	<path class="st0" d="M28.1,55.9c0.2,0.1,0.4,0.1,0.4,0.3C28.4,56.1,28.1,56.1,28.1,55.9z"/>
	<path class="st0" d="M5.6,55.2C5.6,55.2,5.7,55.2,5.6,55.2c0.1,0.6-0.4,0.9-0.3,1.4c-0.2,0-0.2,0.1-0.3,0
		C5.1,56.2,5.5,55.7,5.6,55.2z"/>
	<path class="st0" d="M27.7,56c0.1,0,0.2,0.1,0.3,0.2C27.8,56.3,27.5,56.1,27.7,56z"/>
	<path class="st0" d="M31.5,56.2c0.1-0.1,0.3,0,0.4,0.1C31.8,56.3,31.5,56.4,31.5,56.2z"/>
	<path class="st0" d="M28.8,56.2C28.6,56.3,28.6,56,28.8,56.2L28.8,56.2z"/>
	<path class="st0" d="M33.4,56.5c0,0.1-0.1,0.1,0,0.1c0,0.1-0.2,0-0.2-0.1C33.3,56.4,33.3,56.4,33.4,56.5z"/>
	<path class="st0" d="M27.3,56.7c-0.2,0-0.2-0.1-0.4-0.1C27.1,56.4,27.3,56.6,27.3,56.7z"/>
	<path class="st0" d="M22.9,56.9C23.1,56.9,22.8,57.2,22.9,56.9L22.9,56.9z"/>
	<path class="st0" d="M3.5,56.7c0,0.1-0.1,0.1-0.1,0.1C3.2,56.8,3.4,56.5,3.5,56.7z"/>
	<path class="st0" d="M13.7,57C13.8,57,13.8,57,13.7,57C13.8,57,13.8,57,13.7,57C13.8,57.1,13.8,57.1,13.7,57
		C13.7,57,13.7,57,13.7,57z"/>
	<path class="st0" d="M15.2,57.2c-0.1,0.2-0.4,0.2-0.5,0.1C14.8,57.1,15,57.2,15.2,57.2z"/>
	<path class="st0" d="M21.1,57.4c0,0.2,0,0.4-0.1,0.6c-0.1,0.1-0.3,0.2-0.4,0.3c-0.2,0.2-0.4,0.4-0.7,0.5c-0.4,0.2-0.8,0.4-1.4,0.3
		c0.5-0.4,1.3-0.6,1.8-1C20.6,57.9,20.8,57.6,21.1,57.4z"/>
	<path class="st0" d="M19.6,57.6c0.1,0,0.1,0.1,0.1,0.1c-0.3,0.2-0.7,0.3-1.1,0.5c-0.4,0.2-0.6,0.6-1.1,0.8
		C18,58.2,18.8,58,19.6,57.6C19.6,57.6,19.6,57.6,19.6,57.6z"/>
	<path class="st0" d="M12.9,58c0.2,0.1,0.4,0.1,0.5,0.3c-0.1-0.1-0.4,0-0.6,0C12.8,58.2,12.9,58.2,12.9,58z"/>
	<path class="st0" d="M28.5,59C28.3,59.2,28.3,58.9,28.5,59L28.5,59z"/>
	<path class="st0" d="M32.4,59.9c0,0.1-0.2,0.1-0.3,0.1c-0.1,0,0.1,0.1,0,0.2c-0.1,0-0.3,0-0.3-0.1C31.9,59.9,32.2,59.7,32.4,59.9z"
		/>
	<path class="st0" d="M22.9,61.5c-0.1,0-0.2,0-0.3-0.1C22.6,61.2,22.9,61.1,22.9,61.5z"/>
	<path class="st0" d="M21.3,49.1c-0.5-0.2-1.2-0.5-1.7-0.5c0,0.5-0.1,1-0.1,1.5c-0.1,1.3,0.7,2.4,1.3,3.2c0,0.1,0.1,0.2,0,0.3
		c0,0.2,0.2-0.1,0.1,0c0.1,0.9-0.4,1.9-0.9,2.5c-0.1-0.8,0.4-1.6,0-2.3c-0.3-0.3-0.3-0.8-0.6-1c-0.2-0.7-0.5-1.4-0.7-2.1
		c0-0.3,0.1-0.7,0-1c0-0.4-0.2-0.7-0.3-1.1c-0.1-0.1,0-0.2,0.1-0.1c-0.1-0.1-0.2-0.1-0.4-0.1c-0.1,0.3,0.2,0.7,0.2,1.1
		c0,0.3-0.2,0.5-0.1,0.8c-0.3,0.4-0.3,1.2-0.7,1.6c0,1.4,1,1.9,1.3,3.1c-0.3,0.7-0.4,1.4-0.8,1.9c-0.1,0.2-0.3,0.3-0.5,0.4
		c-0.5,0.4-1,0.8-1.7,1c-1.2,0.1-2.4,0.1-3.5-0.4c-0.1,0.2-0.1,0.4-0.2,0.6c0.4,0.1,0.9,0,1.3,0.1c0.7,0.1,1.7,0.1,2.3,0
		c1.1-0.1,1.8-0.6,2.6-1.1c0-0.1,0.1-0.3,0.1-0.4c0.2-0.1,0.3-0.4,0.4-0.6c0.2-0.5,0.2-0.8,0.2-1.3c0-0.2,0-0.5-0.1-0.7
		C19.3,54,19,53.6,19,53.1c0.2,0.1,0.2,0.3,0.3,0.4c0.2,0.3,0.6,0.9,0.7,1.4c0.1,0.5-0.1,1.1-0.2,1.7c-0.2,0.2-0.4,0.4-0.6,0.7
		c0.2,0,0.3-0.2,0.5-0.4c0.4-0.4,0.7-0.8,1.1-1.4c0.2-0.3,0.5-1.3,0.4-2c0-0.2-0.2-0.3-0.2-0.5c0.5,0.2,0.3,0.9,0.3,1.5
		c0,0.3,0.1,0.7,0.1,1.1c-0.1,0.8-0.7,1.2-1.2,1.6c-0.3,0.2-0.7,0.3-1,0.4c-0.7,0.3-1.2,0.8-1.7,1.3c-1.1,0.1-2.2,0.3-3.3,0.3
		c-0.2,0-0.3-0.1-0.4-0.1c-0.2,0-0.5,0.1-0.7,0c-0.2,0-0.3-0.2-0.4-0.2c-0.5-0.1-1.2,0.2-1.5,0.4c-0.3-0.1-0.6-0.2-0.9-0.3
		c1-0.4,2.1-0.7,2.3-1.9c-0.5,0.4-0.6,1.3-1.8,1.2c-0.3,0.2-0.4,0.5-0.7,0.7c-0.6-0.1-0.9-0.3-1.3-0.5c-0.2-0.1-0.3-0.1-0.6-0.2
		c-0.4-0.2-0.7-0.5-1.2-0.6c-0.1,0.1,0.1,0.1,0.1,0.2c-0.4,0-0.6-0.2-0.8-0.3c0-0.2,0.2,0.1,0.4,0C6.4,57,6,56.9,5.6,56.7
		c0.1-0.5,0.4-0.9,0.5-1.3c0,0,0-0.1,0-0.1c0,0,0.1,0,0.1,0c0,0-0.1-0.1,0-0.2c0.1-0.2,0.4-0.6,0.5-0.9c0-0.1,0.1-0.3,0.1-0.4
		c0.1-0.4,0.2-1,0.4-1.6c0-0.7,0.2-1.2,0.3-2c0.1-0.9-0.1-2-0.1-3c0-0.2,0-0.4,0-0.6c-0.1-1.4-0.3-2.8-0.6-4.1
		c0-1.2-0.5-2.5-0.3-3.8c0.1-1,0.5-2.1,0.7-3.1c-0.3,0.1-0.3,0.5-0.4,0.8c-0.1,0.3-0.1,0.6-0.2,0.9c-0.1,0.6-0.3,1.2-0.4,1.8
		C6,39.9,6,40.8,5.8,41.6c0,0.2,0.2,0.6,0,0.8c0.1,0.2,0.1,0.6,0.1,0.9c0,0.5-0.1,1.1,0,1.6c0,0.4,0.1,0.8,0.2,1.3
		c0.1,1.1,0.1,2.5,0,3.7C6,50.2,6,50.5,5.9,51c0,0,0,0.2-0.1,0.2c0,1-0.4,1.8-0.5,2.7c-0.2-0.1-0.3-0.1-0.5-0.2
		c0.1,0.2,0.4,0.1,0.5,0.3C5.1,54.5,5,55,4.9,55.4c-0.1,0.1-0.2,0.3-0.2,0.4c-0.1,0.2,0,0.5-0.1,0.7c-0.1,0.2-0.2,0.4-0.3,0.5
		c0.2,0.3,0.1,0.6,0,0.8c-0.2,0-0.5-0.2-0.8-0.3C3.6,56.6,4,55.7,4.3,55c0.3-0.7,0.5-1.8,0.6-2.7c0.1-0.6,0.2-1.3,0.3-1.7
		c0.1-0.6,0.3-1.2,0.2-1.8c0.2-0.6,0.1-1.6,0.1-2.2c0-0.3,0.1-0.6,0.1-0.9c0-0.4-0.1-0.8-0.1-1.1c0-1.3,0-2.6,0.1-4
		c0.2-2,0.8-3.8,1.2-5.7c-0.3,0.2-0.3,0.6-0.4,0.9c-0.3,0.9-0.8,2-1,3c-0.1,0.5-0.1,0.9-0.2,1.5C5,40.5,4.9,40.8,5,41.4
		c0,0.6-0.1,1.2,0,1.8c0,0.5,0.2,1.1,0.2,1.7c0,0.7,0,1.3-0.1,2c0,0.7-0.2,1.5-0.1,2.1c0,0-0.1,0.1,0,0.1c0.1,0.1,0,0,0,0.2
		c0,0.3-0.1,0.6-0.1,0.9c-0.2,0.4-0.3,0.8-0.4,1.3c-0.1,0.4-0.3,0.8-0.4,1.3c-0.1,0.2,0,0.4-0.1,0.6c-0.1,0.2-0.2,0.3-0.2,0.4
		c-0.1,0.3-0.1,0.7-0.2,1.1c0,0.1-0.1,0.2-0.1,0.3c-0.1,0.2-0.1,0.4-0.1,0.6C3.1,56,3.1,56.2,3,56.4C3,56.7,3.1,57,3,57.3
		c-0.3,0.1-0.5-0.2-0.8-0.2c0-0.4,0.2-0.7,0.3-1c0.1-0.3,0.2-0.7,0.3-1c0.1-0.1,0.2-0.2,0.3-0.4c0.1-0.2,0.1-0.4,0.1-0.6
		c0-0.2,0.1-0.3,0.1-0.4c0.1-0.4,0.2-0.9,0.4-1.3c0.1-1,0.3-1.9,0.4-2.9c0-0.3,0-0.6,0-0.9c0-0.1,0.1-0.2,0.1-0.4
		c0.1-0.8-0.1-2,0-3.2c0.1-0.7,0-1.5-0.1-2.3c0-0.2,0-0.4,0-0.5c0-0.1,0-0.3-0.1-0.5c0.1-1.4,0.4-2.9,0.9-4.3
		c0.1-0.2,0.1-0.3,0.2-0.5c0.1-0.3,0.2-0.7,0.3-1c0.1-0.2,0.1-0.4,0.2-0.5c0-0.1,0.2-0.2,0.2-0.3c0.2-0.6,0.3-1.3,0.4-2
		c-0.8,1.5-1.3,3.3-1.9,5c-0.4,1.5-0.8,3-0.5,4.8c-0.1,0.1-0.1,0.3-0.1,0.4c0,0.1,0.1,0.1,0.1,0.1c0,0.8,0,1.8,0,2.6
		c0.1,2.3-0.3,4.1-0.6,6.2c0,0.1-0.1,0.2-0.1,0.4c-0.1,0.4-0.2,0.7-0.3,1.2c0,0.2-0.1,0.8-0.3,1.2c-0.1,0.5-0.4,0.8-0.4,1.4
		c-0.2,0-0.1-0.2-0.2-0.4c-0.1-0.2-0.2-0.3-0.1-0.7c0.1-0.4,0.4-1,0.6-1.5c0-0.1,0-0.3,0.1-0.4c0,0,0.1,0,0.1,0
		c0.1-0.2,0.1-0.5,0.1-0.8c0-0.3,0-0.6,0.1-0.8c0,0,0.1,0.1,0.1,0.1c0-0.6,0.1-1.3,0.3-1.9c-0.1-0.2,0-0.4,0-0.6
		c0.1-0.9,0.1-1.9,0.1-2.6c0-0.7,0.2-1.6,0.2-2.6c0-1.2-0.1-2.5-0.1-3.6c0.1-0.8,0.3-1.6,0.5-2.5c0.1-0.4,0.2-0.8,0.3-1.3
		c0.2-0.7,0.5-1.4,0.7-2.2c0.2-0.6,0.4-1.2,0.6-1.8c0.2-0.5,0.3-0.9,0.5-1.4c-0.4,0.3-0.5,0.8-0.7,1.2c-0.1,0.2-0.2,0.4-0.3,0.6
		c-0.1,0.2-0.1,0.5-0.2,0.8c-0.3,0.9-0.8,1.9-1,2.8C4,37,4,37.2,4,37.4c-0.1,0.5-0.4,1-0.5,1.6c-0.2,0.9-0.4,1.9-0.4,3
		c0,0.6-0.1,1.6,0,2.3c0,0.2,0.1,0.3,0.2,0.5c0.1,0.6,0,1.5,0.1,2.2c0.1,1-0.1,2.1-0.2,3c-0.1,1-0.3,1.9-0.5,2.7
		c-0.2,0.3-0.3,0.7-0.4,1.1c0,0-0.1,0-0.1,0.1c-0.1,0.3-0.2,0.7-0.3,1c-0.1-0.2-0.2-0.5-0.2-0.8c0-0.3,0-0.7,0-0.9
		c0.1-0.7,0.3-1.4,0.6-2c0-1.2,0.4-2.4,0.3-3.9c0-0.2-0.1-0.3-0.1-0.5c-0.1-1-0.1-2.1-0.2-3.1c-0.1-1.4-0.3-2.8-0.5-4.3
		c0-0.4,0-0.8,0-1.3c-0.1-0.5-0.2-1.1-0.3-1.7c-0.1-0.5-0.1-1.1-0.2-1.6c-0.2-0.9-0.4-2.3-0.5-3.3c-0.1-0.3-0.1-0.6-0.2-1
		c-0.1-0.2,0-0.4-0.1-0.7c-0.1-0.9-0.2-1.8-0.3-2.8c0-0.6,0-1.2,0-1.8C0.1,25,0,24.8,0,24.6c0-0.4,0.1-0.9,0.1-1.4
		c0.1-1.2,0-2.5,0.2-3.8c0.1-0.7,0.2-1.5,0.3-2.2C0.7,16.5,1,15.7,1.1,15c0.2-0.7,0.3-1.4,0.6-2c0.3-0.6,0.5-1.2,0.8-1.7
		c0.6-1.1,1.2-2.1,1.9-3.2C4.6,8,4.7,7.8,4.8,7.6c0.3-0.3,0.5-0.6,0.8-1c0.3-0.4,0.6-0.8,1-1.1c0.2-0.2,0.5-0.4,0.8-0.6
		c0.2-0.2,0.3-0.4,0.5-0.5C8.1,4.2,8.4,4,8.4,3.8C8.8,3.7,9,3.4,9.2,3.1c0.7-0.3,1.3-0.7,2.1-1c0.3-0.1,0.6-0.2,0.9-0.4
		c0.1-0.1,0.2-0.2,0.4-0.3c0.7-0.3,1.5-0.5,2.1-0.9c0.1,0-0.1,0.1-0.1,0.1c0.2,0.1,0.5-0.1,0.7-0.2c-0.1-0.1-0.3,0.1-0.4,0.1
		c0.2-0.2,0.4-0.3,0.8-0.3c0,0.1-0.1,0.2-0.3,0.1C16.7,0.4,18,0,19.5,0c0.8,0,1.8,0,2.4,0C22,0,22,0.1,22.1,0.1c0,0,0-0.1,0.1-0.1
		c0.6,0,1.3,0.2,1.9,0.2c2.1,0.2,4.2,0.6,6,1.3c1.4,0.5,2.6,1.1,4,1.6c0.4,0.2,0.8,0.4,1.2,0.7c0.4,0.2,0.7,0.5,1.1,0.8
		c0.3,0.3,0.7,0.5,1,0.8c0.2,0.2,0.3,0.4,0.4,0.6c0.2,0.3,0.6,0.5,0.8,0.8c0.4,0.6,0.6,1.6,0.7,2.4c-0.1,0.1-0.4,0.1-0.5,0
		c-0.3,0.2-0.6,0.1-1,0.1c-0.5,0.1-1.1,0.1-1.7,0.2c-0.6,0.1-1.2,0.1-1.7,0.2c-0.1,0-0.2,0.1-0.4,0.2c-0.1,0-0.3,0-0.5,0.1
		c-0.2,0.1-0.3,0.2-0.5,0.3c-0.3,0.1-0.6,0.1-0.8,0.2c-0.3,0,0-0.3-0.2-0.4c-0.3,0.1,0,0.4-0.2,0.5c0,0.1,0.1,0.1,0.1,0.2
		c-0.2,0.5,0,1.4-0.5,1.7c-0.3,0-0.2-0.2-0.5-0.2c-0.3,0.1-0.2,0.4-0.4,0.6c-0.1,0.1-0.2,0-0.3,0.1c-0.1,0.2-0.3,0.5-0.5,0.6
		c-0.6-0.1-1.1-0.2-1.4-0.5c-0.6,0.1-0.8,0.7-0.9,1.4c0.3,0.5,0.7,0.9,1.2,1.2c0.2,0.1,0.2,0,0.3,0c0.4,0.2,0.8,0.5,1.3,0.7
		c0.1,0.1,0.3,0,0.4,0.1c0.1,0.1,0.3,0.2,0.4,0.3c0.6,0.3,1,0.7,1.6,1.1c0.8,0.6,1.3,1,1.6,2c0.5,0,1.3,0.6,1.7,0.1
		c0-0.1,0-0.2,0-0.3c-0.1-0.3-0.4-0.2-0.8-0.3c-0.3-0.1-0.4-0.3-0.8-0.3c-0.2-0.3-0.5-0.5-0.6-0.9c1.1,0.3,2.1,0.8,2.9,1.4
		c0,0.5-0.5,0.6-0.8,0.9c0.3,0.2,0.5,0.4,0.9,0.6c0.1,0.1,0.3,0.2,0.5,0.2c0.4,0.2,0.8,0.4,1,0.9c0.2,0.4,0.4,1.6,0.4,2
		c0,0.6-0.3,1-0.5,1.4c-0.2,0-0.1-0.2-0.2-0.2c-0.1,0.3,0,0.6-0.2,0.8c-0.3,0.6-1.2,0.8-1.4,1.5c0,0.1,0.2,0,0.2,0.1
		c-0.1,1.3,0.1,2.1,0.4,3.1c0.4,1.1,0.8,2.2,1.1,3.5c0.2,0.6,0.6,1.5-0.1,1.9c-0.1,0.1-0.5,0.2-0.7,0.2c-0.6,0-1.3-0.3-1.7-0.1
		c-0.1,0.5,0.2,1,0,1.5c0.1,0.2,0.2,0,0.4,0.1c0.2,0.2,0.4,0.4,0.3,0.7c0,0.3-0.4,0.5-0.6,0.7c0.2,0.4,0.5,0.8,0.5,1.2
		c-0.1,0.6-0.8,0.5-1,1c0.1,0.3,0.1,0.5,0.2,0.7c0.1,0.4,0.5,0.9,0.6,1.5c0.1,0.6-0.1,1.2-0.6,1.7c-0.2,0.2-0.5,0.4-0.7,0.6
		c-0.1,0.1-0.2,0.2-0.3,0.3c-0.3,0.1-0.7,0.3-1.1,0.4c-0.2,0-0.4,0.1-0.5,0.2c-0.3,0.1-0.5,0.1-0.8,0.1c-0.8,0.3-1.4,0.5-2.4,0.4
		c-0.2,0.4,0.2,0.8,0.2,1.3c0.4,0.5,0.1,1.2,0.6,1.6c0.7-0.2,1.5,0.1,1.5,1c0.5,0.2,1.1,0.3,1.4,0.8c0.3,0.4,0.9,0.8,1.2,1.3
		c0.3,0.1,0.6,0.4,0.9,0.6c0.2,0.2,0.3,0.5,0.2,1c0,0.2-0.3,0.3-0.5,0.4c0.2,0.1,0.5,0,0.9,0.1c0.2,0.3,0.5,0.6,0.6,0.9
		c0,0.3-0.1,0.8-0.4,1.1c0.1,0.1,0.1,0.3,0.2,0.4c-0.1,0.6-0.5,0.9-0.8,1.2c-0.3,0-0.5,0.1-0.6,0.3c-0.1,0-0.2,0-0.1-0.1
		c-0.1,0.1-0.1,0.2-0.3,0.1c-0.2,0-0.1,0.3-0.2,0.4c-0.6-0.1-1.7,0.2-2.3-0.2c-0.3,0.1-0.6,0.3-0.7,0.6c-0.3,0.1-0.4,0.1-0.6,0.1
		c-0.1,0-0.2,0.1-0.3,0.1c-0.1,0-0.3-0.1-0.4-0.1c-0.5,0-0.8,0.5-1.3,0.6c-0.1,0-0.1-0.1-0.3-0.1c-0.1,0,0,0.1,0,0.1
		c0,0-0.4,0-0.5,0c-0.1,0-0.2-0.1-0.4-0.1c-0.4-0.1-0.9-0.1-1.3,0c-0.3,0-0.6,0.3-1,0.3c-0.2,0-0.4-0.1-0.6,0
		c-0.2,0-0.2-0.2-0.3-0.2c-0.4,0.2-0.7,0.7-1.3,0.7c0.2-0.3,0.5-0.6,0.7-0.9c0-1.2-0.2-2.1-0.7-2.9c0.1-0.8,0-1.4,0.2-2
		c0.1-0.2,0.3-0.3,0.3-0.6c-0.3,0.4-0.9,0.9-1.1,1.6c0.1,0.3,0,0.8,0.2,1.2c0.6,0.6,1,2.2,0.2,2.8c-0.3,0.2-0.8,0.3-1.2,0.5
		c0.1-0.3,0.5-0.3,0.6-0.6c0.1-0.1,0.1-0.2,0.1-0.3c-0.1-0.1,0.1-0.1,0.1-0.2c0.1-1.3-0.6-1.8-0.7-2.9c0-0.6,0.2-0.9,0.4-1.3
		c0.1-0.1,0.2-0.3,0.2-0.4c0.3-0.4,0.9-0.8,0.7-1.6c-0.1-0.2-0.1-0.4-0.2-0.6c-0.3-0.6-1-1.1-1.3-1.7C21.4,51,21.4,50.3,21.3,49.1z
		 M21.9,0.5C21.9,0.5,21.9,0.5,21.9,0.5C22,0.4,22,0.4,21.9,0.5C22,0.4,21.9,0.4,21.9,0.5C21.9,0.4,21.9,0.4,21.9,0.5z M22.1,0.5
		c-1.4,0-3,0.1-4.2,0.3c-1.2,0.2-2.2,0.4-3.3,0.7c-0.1,0.1-0.1,0.1-0.2,0.2c-0.1-0.2-0.5,0.1-0.8,0.2c-0.3,0.1-0.6,0.1-0.7,0.2
		c-0.1,0,0,0.1,0,0.1c-0.1,0.1-0.4,0.2-0.4,0.3c0.3,0.5,0.6,1,1.1,1.3c0-0.8-0.5-1-0.7-1.6c0.2,0,0.3-0.1,0.5-0.2
		c0,0.2,0.1,0.2,0.1,0.4c0.4,0.3,0.6,0.9,1.1,1.1c0-0.8-0.6-1.1-0.8-1.6C14,2,14.4,1.7,14.6,1.7c0,0.1,0,0.3,0,0.4
		c0.1,0.1,0.3,0.3,0.4,0.6c0.1,0.2,0.1,0.6,0.3,0.6c0,0,0.2-0.2,0.2,0c0.1-0.2-0.1-0.4-0.2-0.6c-0.1-0.4-0.2-0.8-0.4-1.1
		c0.2-0.1,0.5-0.1,0.8-0.3c0,0.2,0,0.3,0,0.4C16,2.1,16,2.7,16.3,3.1c-0.1-0.2,0.1-0.3,0.1-0.5c0.1-0.5-0.1-1-0.3-1.4
		c0.3,0.1,0.5-0.1,0.7,0c0.1,0.6,0,1.4,0.3,1.9c0.1-0.4,0.3-0.8,0.3-1.2c0-0.2-0.1-0.5-0.1-0.7C17.6,1,18,1,18.2,0.9
		c0,0.6-0.3,1.1-0.2,1.8c0-0.2,0.2-0.1,0.3-0.2c0.1-0.1,0.1-0.4,0.2-0.6c0.1-0.3,0.3-0.9,0.4-1.1C19,1,19.2,0.7,19.4,0.8
		C19.3,1,19.1,1.4,19,1.7c-0.1,0.3-0.2,0.7-0.1,0.9c0.1-0.2,0.2-0.3,0.4-0.4c0.3-0.5,0.4-0.9,0.6-1.4c0.2,0,0.4-0.1,0.5,0.1
		c-0.2,0.5-0.5,1.2-0.6,1.7c0.2,0,0.1-0.2,0.2-0.3c0.5-0.3,0.6-1,0.9-1.4c0.2,0.1,0.5-0.1,0.6,0c-0.3,0.6-0.6,1-0.7,1.7
		c0.2,0,0.2-0.2,0.2-0.4c0.1,0,0.1,0.1,0.1,0.1c0.3-0.5,0.6-1,0.9-1.5c0.2,0.1,0.5,0,0.6,0.1c-0.4,0.6-0.8,1.1-1,1.8
		c0.3,0.2,0.4-0.2,0.5-0.3c0.1-0.2,0.3-0.4,0.4-0.6c0.3-0.1,0.2-0.4,0.5-0.5c0-0.1,0-0.3,0.1-0.4c0.3,0.1,0.5,0,0.7,0.1
		c-0.4,0.7-0.9,1.2-1.2,2c0.2,0,0.1-0.3,0.4-0.2c0.4-0.7,1-1.1,1.4-1.8c0.2,0.1,0.3,0.1,0.6,0.1c-0.5,0.6-0.8,1.3-1.1,2.1
		c0.5,0,0.6-0.5,0.8-0.8c0.4-0.6,1.1-0.8,1.1-1.4c-0.9-0.1-1.7-0.3-2.7-0.4c0-0.1-0.2-0.1-0.1-0.2C22.8,0.9,22.2,0.8,22.1,0.5z
		 M28.1,5.6c0.6-0.3,0.9-0.8,1.4-1.1c0.7-0.5,1.7-0.8,2.6-1c0.1,0.2,0.4,0.1,0.5,0.2c-1.2,0.5-2.4,1.1-3.4,1.8
		c-0.1,0.3-0.5,0.4-0.5,0.7c0.5-0.4,0.7-0.7,1.3-0.9c-0.3,0.4-0.8,0.5-1,1c0.4,0.1,0.6-0.3,1-0.4C30,6,29.5,6,29.7,6.3
		c0.9-1.2,2.6-1.6,4.2-2.1c0.1,0,0.2,0.1,0.3,0.1C34.1,4,33.8,4,33.5,3.8c-0.2-0.1-0.3-0.2-0.4-0.2c-0.7-0.4-1.8-0.8-2.8-0.9
		c0-0.1-0.1-0.1-0.1-0.2c-0.4,0-0.7-0.2-1-0.3c0.1-0.2,0.4-0.2,0.4-0.4c-0.3,0-0.4,0.3-0.7,0.3c-0.3,0-0.8-0.2-1.3-0.3
		c-0.6-0.1-1.1-0.3-1.6-0.4c0,0.3,0.4,0.2,0.7,0.3c-0.3,0.4-0.7,0.6-1.1,1c-0.2,0.2-0.3,0.4-0.4,0.6c-0.2,0.2-0.4,0.3-0.4,0.6
		c0.5,0.1,0.8-0.4,1.1-0.6c0.5-0.3,1-0.7,1.4-1c0-0.1,0-0.3,0.1-0.4C27.6,1.9,28,2,28.2,2c-0.8,0.7-1.9,1.1-2.2,2.3
		c0.2,0,0.1-0.2,0.2-0.2c0.2,0,0.2-0.1,0.3-0.1c0.6-0.7,1.4-1.1,2.2-1.5c0.1,0,0-0.2,0.1-0.2c0.2,0,0.5,0,0.5,0.2
		c-0.7,0.7-1.8,1.2-2.3,2.1c0.2-0.1,0.4-0.2,0.4-0.4c0.4-0.1,0.5-0.5,1-0.5C28,4,27.4,4.3,27.2,4.9c0.9-0.8,1.9-1.5,3-2.2
		c0.1,0.2,0.5,0.1,0.6,0.2c-0.7,0.6-1.7,1-2.4,1.6c-0.3,0.2-0.5,0.4-0.5,0.7C28.1,5,28.3,5,28.5,4.9c0.1-0.2,0.5-0.4,0.6-0.4
		C28.8,4.8,28.4,5.1,28.1,5.6z M12.2,2.6c-0.8,0.2-0.3,1.1,0.3,1.2c0.1,0.1,0.3,0.4,0.5,0.3C12.8,3.5,12.5,3.1,12.2,2.6z M11.3,3
		c-0.1,0-0.2,0-0.2,0c-0.3,0.2-0.7,0.5-1.1,0.7C9.9,3.8,9.7,3.8,9.6,3.9C9.4,4,9.2,4.2,9.1,4.4C8.8,4.5,8.6,4.7,8.4,4.8
		C8.2,5,8.1,5.3,7.8,5.5c0,0-0.1,0-0.2,0C7.4,5.7,7.2,6,7,6.3c-0.5,0.5-0.9,1-1.4,1.5C5.4,8.1,5.1,8.3,4.9,8.6
		C4.9,8.7,4.9,8.8,4.8,8.9C4.6,9.3,4.3,9.5,4.2,9.9c-0.1,0-0.1,0-0.2,0c-0.2,0.7-0.6,1.1-0.8,1.9c-0.1,0-0.1,0.1-0.2,0.1
		c0,0.5-0.4,0.5-0.4,0.9c0.4,0.1,0.9,0.1,1.3,0c0.6-0.1,1.2-0.3,1.6-0.5c0.4-0.2,1.3-0.5,1.6-0.7c0,0,0.2,0,0.2-0.1
		c-0.4-0.2-0.8,0.2-1.2,0.4c-0.8,0.2-1.7,0.1-2.6,0.1c0.2-0.2,0.2-0.5,0.4-0.6c1.3,0.1,2.9-0.2,3.6-0.8c-0.2-0.1-0.4,0-0.6,0.1
		c-0.1,0-0.1-0.1-0.2-0.1c0,0-0.1,0.1-0.1,0.1c-0.4,0.1-1,0.1-1.4,0.1c-0.2,0-0.5,0-0.7,0.2c0-0.2-0.5,0-0.5-0.2
		c0.1-0.1,0.1-0.3,0.2-0.4c0.3,0,0.6,0,1,0c0.4,0,0.8,0,1.1-0.1c0.1,0,0.1-0.1,0.2-0.1C6.8,10,7,10,7.2,9.9c0.1,0,0,0.1,0.1,0.1
		c0.1,0,0.1-0.3,0.1-0.4c0.1,0.1-0.1,0.1,0,0.2c0.1-0.2,0.1-0.2,0.3-0.3c-0.4-0.1-0.6,0.1-1,0.2C6.2,9.8,5.5,9.7,4.7,9.6
		c0-0.1,0.1-0.2,0.1-0.2c0.8,0.1,1.4,0,2.1,0c0.4,0,0.7,0.1,0.8-0.2C7,9.2,5.9,9.1,5.3,8.7c0.1,0,0.1-0.1,0.2-0.1C6.1,8.7,7,9,7.6,9
		c0.2,0,0.4,0,0.6-0.1C8.2,8.9,8.1,8.8,8.1,8.7c-0.2,0-0.3,0.1-0.5,0C7,8.5,6.2,8.4,5.7,8.1C5.9,8,6,7.7,6.2,7.6
		C6.2,7.8,6.5,7.9,6.8,8C7.4,8.2,8,8.4,8.6,8.2C8.2,8.1,7.9,8,7.6,7.9C7.2,7.8,6.9,7.8,6.7,7.5c0.4,0.1,0.9,0.3,1.4,0.4
		c0.2,0,0.5,0.1,0.6-0.1C8.1,7.7,7.6,7.5,7,7.3C7,7.2,6.8,7.2,6.8,7C6.7,7,6.6,7,6.6,6.9C6.8,6.8,7,6.7,7.1,6.5
		C7.2,6.7,7.5,6.8,7.9,7c0.3,0.1,0.5,0.3,0.7,0.3c0.2,0,0.4-0.1,0.5-0.1C9,7.1,9,7.1,8.7,7.1C8.3,6.8,7.9,6.4,7.4,6.1
		C7.6,6,7.6,5.7,7.8,5.7C8.1,5.7,8,5.9,8.1,6c0.5,0.3,1.3,0.7,1.7,0.7c0.1-0.2-0.1-0.3-0.1-0.4C9.5,6.2,9.2,6.2,9.1,5.8
		C8.8,5.8,8.6,5.5,8.3,5.4c-0.1,0-0.2,0.1-0.3,0c0.1-0.1,0.2-0.2,0.4-0.2c0.2-0.3,0.5-0.7,0.8-0.9c0,0.1,0.1,0.2,0,0.3
		C9.1,4.7,9,4.7,9,4.8c0,0.1,0.1,0.1,0,0.3c0.3,0.1,0.6,0.2,0.9,0.4c0.3,0.1,0.5,0.5,0.8,0.3c-0.3-0.7-0.9-1-1.2-1.7
		c0.3,0.1,0.4-0.4,0.6-0.3c0,0.2,0,0.3,0,0.4c0.4,0.3,0.7,0.7,1.1,1c0-0.3-0.1-0.3,0-0.5c-0.3-0.4-0.5-0.8-0.8-1.1
		c0.2,0,0.3-0.2,0.5-0.2C11.1,4,11.6,4.3,12,4.8c0.1-0.7-0.4-1.1-0.7-1.5c0-0.2,0.5-0.2,0.2-0.4C11.4,2.9,11.3,3,11.3,3z M24.7,10.5
		c0,0,0-0.1,0-0.1c0,0,0.1-0.1,0.1-0.1c0.4-0.4,1-0.8,1.4-1.2c0.2-0.1,0.3-0.3,0.4-0.4c0,0,0.1,0.1,0.1,0c0.1-0.1,0.1-0.2,0.1-0.2
		c0.1-0.1,0.4-0.2,0.6-0.3c0.4-0.2,0.7-0.5,1-0.6C28.4,7.2,28.2,7,27.9,7c0-0.2-0.2-0.1-0.1-0.3c-0.9-0.4-1.6-1.2-2.5-1.6
		c-0.9-0.5-1.9-0.8-2.9-1.2c-0.1-0.1-0.1-0.1-0.2-0.2c-0.4,0-0.8-0.1-1.2-0.2c-0.1,0-0.2-0.1-0.3-0.1c0,0-0.1,0.1-0.1,0.1
		c-0.1,0-0.5,0-0.6-0.1c-1.4-0.2-2.7,0.1-4,0.5c-0.1,0-0.2,0-0.4,0c-0.4,0.3-1.1,0.3-1.4,0.7c-0.2-0.1-0.4,0.1-0.5,0.2
		c-0.5,0.2-0.9,0.4-1.4,0.7c-0.3,0.2-0.7,0.4-0.9,0.6c-0.2,0.2-0.2,0.1-0.3,0.3c-0.2,0.3-0.6,0.5-0.7,0.8c-0.1,0-0.2,0.1-0.3,0.1
		c-0.1,0.3-0.4,0.5-0.6,0.8C9.5,8.4,9.5,8.8,9.2,9C9.1,9,9.1,8.9,9.1,8.9C9,9.2,8.7,9.7,8.6,10c0,0.2,0.1,0.1,0.1,0.2
		c-0.1,0.5-0.1,0.9-0.2,1.4c0,0.1-0.1,0-0.1,0.1c0.1,0.2,0,0.3-0.1,0.6c0,0.7,0.2,1.5,0.2,2.4c0.1,1.5,0.1,3,0.4,4.2
		c0,0.2-0.1,0.2-0.1,0.4c0.1,0,0.2,0,0.2,0.1c0.2,1.6,0.6,3.6,0.6,5.3c0,0.5-0.1,0.8-0.3,1.2c0.1,0.4-0.1,0.6-0.2,0.9
		C9,27.4,8.5,28,8.2,28.5c-0.2,0.3-0.3,0.7-0.4,1.1c-0.3,0.7-0.4,1.3-0.3,2.3c0.2,0.3,0.4,0.6,0.5,0.8C8,32.9,8,33,8.1,33.1
		c0.3,0.4,0.8,0.8,1.3,1.2c0.4,0.3,0.6,0.8,1.1,1c0-0.2-0.2-0.4-0.3-0.6c-0.1-0.2-0.3-0.4-0.4-0.7c-0.1-0.2-0.1-0.4-0.1-0.6
		c0-0.2-0.1-0.4-0.1-0.6c0-0.3,0.1-0.6,0.1-0.9c0-0.3,0-0.7,0-1c0.1-0.8,0.8-1.4,0.9-2c0.9-1.2,1.6-2.6,1.7-4.5
		c0.3-0.5,0.4-1.4,0.4-2.1c0-0.7,0.2-1.4,0-1.8c-0.1,0.3-0.1,0.6-0.1,0.9c0,0.5,0,1.3-0.1,1.6c-0.1,0.2-0.3,0.3-0.4,0.4
		c-0.1,0.2-0.2,0.4-0.3,0.6c-0.1,0.1-0.3,0.3-0.5,0.3c-0.5,0.6-0.8,1.3-0.8,2.1c0.2-0.1,0.2-0.3,0.2-0.5c0.1-0.2,0.1-0.5,0.2-0.6
		c0.3-0.6,0.9-1,1.2-1.5c0,0.5,0.1,1.2-0.1,1.5c-0.1,0.2,0,0.6-0.2,0.6c0.1-0.2,0-0.4,0.1-0.6c0-0.2,0.3-0.5,0-0.7
		c-0.2,0.2-0.3,0.5-0.4,0.9c-0.1,0.1-0.2,0.2-0.4,0.3c-0.1,0.5-0.4,0.9-0.6,1.2c-0.2,0.4-0.4,0.8-0.6,1.2c-0.1,0.3-0.2,0.5-0.3,0.8
		c-0.1,0.3-0.3,0.5-0.4,0.8c-0.1,0.4,0,0.9-0.4,1.1c0.2,0.4,0,0.9,0.1,1.3c0,0.1,0.1,0.3,0.2,0.4c0,0.2,0,0.4,0.1,0.5
		c0.1,0.4,0.5,0.6,0.6,1c-0.3-0.5-0.7-0.6-0.9-1c0-0.1,0-0.3,0-0.4c-0.1-0.2-0.2-0.4-0.2-0.5c0-0.1,0-0.3,0.1-0.4
		c0.2-1.6,0.7-2.8,1.1-4c0.1-0.4,0.4-0.6,0.4-0.9c0-0.1-0.1-0.3-0.1-0.5c0-0.5,0.4-1,0.2-1.5c0.4-0.9,1.5-1.1,1.7-2.2
		c-0.3,0-0.4,0.6-0.6,0.5c0.3-0.4,0.4-1,0.5-1.6c0.1-0.2,0.1-0.4,0.2-0.6c0.1-0.2,0.1-0.4,0.1-0.6c0.2-0.7,0.5-1.5,0.7-2.1
		c0.1-0.2,0.1-0.2,0.2-0.4c0.3-0.5,0.4-1,0.6-1.4c0.1-0.1,0.2-0.1,0.2-0.2c0.1-0.1,0-0.3,0.1-0.3c0,0.3,0.3,0.5,0.4,0.9
		c-0.6,1-1.3,1.9-1.6,3.2c0,0.1,0.2,0,0.1,0.1c0,0.2,0.1,0.2-0.1,0.3c0.1,0.8,0.2,1.6,0.6,2.2c0.1,0.8,0.1,1.9,0,2.5
		c-0.1,0.7-0.2,1.2-0.5,1.7c-0.5,0.7-1.4,1.1-1.4,2.1c0.4-0.8,1.1-1.5,1.6-2c-0.3,0.6-0.7,1.1-1.2,1.6c-0.2,0.4-0.2,0.8-0.2,1.3
		c0,0.5-0.1,1-0.1,1.4c0,0.3,0.1,0.7,0.2,1c0.1,0.3,0.2,0.7,0.1,0.9c-0.8-0.4-0.7-1.8-0.9-2.8c-0.1,0.6-0.1,1.3-0.1,1.8
		c0,0.8,0.6,1.3,0.4,2c-0.2-0.4-0.5-0.9-0.8-1.3c0-0.3-0.1-0.8-0.3-1.2c-0.3,0.3-0.1,1.1-0.1,1.6c0.3,0.4,0.5,1,0.9,1.3
		c0.1,0.1,0.1,0,0.1,0.1c-0.1,0.2-0.2,0.3-0.2,0.5c0.3-0.1,0.3-0.5,0.4-0.8c0.3-0.6,0.7-1.1,1.2-1.4c0.1-0.1,0.2-0.3,0.4-0.1
		c0,0.3-0.2,0.3-0.3,0.6c-0.1,0-0.2,0-0.2,0.1c-0.4,0.5-0.7,1-1,1.7c-0.1,0.2-0.2,0.5-0.3,0.7c-0.1,0.2,0,0.5-0.2,0.7
		c-0.7-0.6-1.3-1.4-2.1-2c-0.2-0.4-0.4-0.7-0.6-1.1c-0.2-0.4-0.3-0.8-0.6-1.1c0,0.7,0.3,1,0.4,1.5c1,0.9,1.9,2.2,3.1,2.8
		c-0.2,0.1,0.4,0.4,0.5,0.4c-0.1-0.1-0.2-0.2-0.2-0.4c0-0.2,0.2-0.7,0.3-0.8c0,0.3-0.2,0.6-0.1,0.8c0.4-0.7,0.6-1.5,0.9-2.3
		c0.5-0.4,0.9-1,1.6-1.2c0.1-0.6-0.3-0.7-0.7-0.8c0.2,0,0.4-0.2,0.7-0.1c0.2,0,0.2,0.2,0.4,0.3c0.2-0.1,0.4,0,0.6-0.1
		c-0.1,0.3,0.2,0.2,0.3,0.3c-0.1,0-0.2,0-0.2,0.2c0.6,0.2,1.1-0.2,1.7-0.4c0.5-0.5,1.1-1,1.3-1.9c-0.7-0.8-1.1-1.8-1.7-2.7
		c0-0.2-0.2,0.1-0.1,0c0-0.4-0.3-0.5-0.4-0.8c0.1-0.1,0.5-0.3,0.4-0.5c-0.3-0.2-0.3,0.2-0.5,0.3c-0.4-0.5-0.5-1.2-0.7-1.9
		c-0.1-0.3-0.2-0.5-0.3-0.7c-0.1-0.3,0.1-0.6-0.1-0.8c0,0.2-0.2,0.4-0.4,0.2c0.1-0.3,0.3-0.6,0.2-1c0.7-0.1,1.1-0.6,1.4-1.1
		c-0.2,0,0-0.1-0.1-0.4c-0.7-0.1-0.9,0.6-1.4,0.6c0-0.2,0-0.4,0-0.6c0.4-0.2,1.1-0.2,1.5-0.1c0.1-0.2,0.2-0.4,0.2-0.7
		c-0.2,0.1-0.5-0.2-0.9-0.2c-0.3,0-0.5,0.2-0.7,0.2c0.1-0.3,0.1-0.6,0.3-0.9c-0.1,0.2,0.2,0.2,0.3,0.2c0.1,0.1,0.3,0.1,0.4,0.1
		c-0.2-0.4-0.5-0.6-0.5-1.1c0.3-0.3,0.6-0.5,1.1-0.7c0,0.1,0.1,0.1,0.2,0.2c-0.3,0.4-1,1.5-0.2,1.8c0-0.3-0.1-0.5-0.2-0.8
		c0.3-0.3,0.5-0.8,0.9-1.1c0.1,0.1,0.2,0.1,0.3,0.1c0.4-0.2,0.5-0.6,0.9-0.7c0.2-0.4,0.5-0.7,1-0.7c0.2,0.2,0.5,0.3,0.8,0.4
		c0.1,0.2,0.2,0.2,0.4,0.3c0.1-0.2,0.1-0.4,0.4-0.4c0.4,0.2,0.6,0.5,1,0.7c0,0.1,0,0.1,0,0.3c0.2,0.2,0.6,0.3,0.8,0.5
		c0.2,0.2,0.3,0.5,0.6,0.6c0.1,0.1,0.2-0.2,0.3-0.2c0.1-0.1,0.4,0,0.4-0.2c-0.1-0.5-0.7-0.6-0.7-1.2c-0.2-0.1-0.3-0.2-0.4-0.4
		c-0.7-0.2-1.2-0.6-1.9-0.9C20,16,19.4,15.8,19,15.6c-0.5-0.2-0.9-0.6-1.3-0.9c-0.1-0.5-0.1-0.8,0-1.4c0.2-0.2,0.5-0.6,0.5-0.9
		c-0.2,0.2-0.4,0.2-0.7,0.3c-0.2,0.3-0.5,0.5-0.6,0.9c0,0.2,0.1,0.3,0.2,0.5c0,0.2,0,0.4,0,0.5c0,0.1,0.1,0.4,0.2,0.5
		c0.2,0.4,0.5,0.9,0.6,1.3c-0.1,0-0.1,0.1-0.2,0.1c-0.6-0.9-1.5-1.5-1.6-2.9c0.5-1.7,2.5-2.2,4.1-1.8c0.1-0.1,0.4-0.3,0.5-0.1
		c0,0.1-0.2,0.1-0.4,0.1c-0.2,0.5-1,0.5-1.3,0.9c0.8,0.2,1.5-0.3,2.2,0c-0.1-0.3,0.2-0.1,0.2-0.3c0.1-0.5,0.7-1.1,1.3-1.2
		c0.3,0,0.6,0.1,0.9,0c0.1-0.1-0.1-0.2-0.1-0.4c0.5-0.4,0.9-0.9,1.2-1.4c0.5-0.3,0.9-0.7,1.3-1c0.5-0.3,0.9-0.7,1.4-1
		c0.2-0.1,0.4-0.2,0.6-0.2c-0.1,0.2-0.2,0-0.3,0.1c-0.1,0.1-0.2,0.3-0.3,0.4c-0.1,0-0.2,0-0.3,0c-0.8,0.8-1.9,1.4-2.6,2.3
		c-0.2,0.3-0.5,0.6-0.5,1.1C24.2,11,24.4,10.7,24.7,10.5z M13.7,3.7c0.1,0,0.1,0.1,0.2,0.1c0.1-0.1,0-0.1,0.1-0.3
		C13.8,3.4,13.8,3.6,13.7,3.7z M34.6,4.7c-0.2,0.2-0.5,0.1-0.8,0.2c-0.1,0-0.4,0.1-0.6,0.2c-1,0.4-2.1,0.8-2.6,1.4
		c-0.1,0.1-0.3,0.3-0.2,0.5c1.3-1,3-1.5,5-1.7c0.1,0.1,0.3,0.1,0.3,0.3c-1.2,0.6-3,0.7-3.9,1.7C31.4,7.3,31,7.4,31,7.6
		c0.6-0.3,1.2-0.4,1.8-0.7c0.8-0.3,1.7-0.6,2.5-0.8c0.4-0.1,1,0,1.2-0.5c-0.8-0.2-1-1-1.9-1.2C34.6,4.6,34.6,4.6,34.6,4.7z
		 M37.4,6.3C37.4,6,37.1,6.2,37.4,6.3L37.4,6.3z M36.7,6.2c-0.1,0.2-0.2,0.2-0.4,0.3c-1.1,0.4-2.7,0.6-3.6,1.2c-0.1,0-0.1,0.1-0.2,0
		C32.4,8,31.9,7.9,32,8.2c0.6-0.2,1.2-0.3,1.8-0.5c0.6-0.2,1.2-0.4,1.8-0.5c0.5-0.1,1.1-0.1,1.6-0.3c0.1-0.2-0.3-0.3,0-0.5
		C37,6.3,36.9,6.1,36.7,6.2z M37.6,7.4c-1.7,0.3-3.7,0.4-4.9,1.3c-0.1,0-0.1-0.1-0.2,0c0.4,0.5,0.9,0.3,1.6,0.2
		c0.4-0.1,0.7-0.1,1-0.1c0.2,0,0.3-0.1,0.5-0.2c0.9-0.1,1.7,0,2.5-0.2C38.4,7.9,37.9,7.6,37.6,7.4z M38.1,7.4c0,0.1-0.1,0.1,0,0.2
		C38.1,7.5,38.1,7.5,38.1,7.4C38.1,7.4,38,7.4,38.1,7.4C38,7.4,38,7.4,38.1,7.4z M30.3,8.7c0-0.1,0-0.2-0.1-0.2
		c-0.1,0-0.2,0.2-0.3,0.2c-0.1,0-0.2,0-0.2,0c-0.3,0.1-0.5,0.4-0.8,0.6c-0.4,0.3-0.6,0.5-0.6,1c0.3,0,0.3,0.3,0.5,0.3
		c0.1,0,0.2-0.1,0.4-0.1c0.1-0.1-0.1-0.1,0.1-0.2c0.5-0.2,1-0.6,1.4-0.9c0.1-0.1,0.3-0.1,0.4-0.3C31,8.8,30.6,8.8,30.3,8.7z
		 M38.2,8.8c0.1,0,0.2,0,0.2-0.1C38.3,8.7,38.2,8.7,38.2,8.8z M30.6,9.7c-0.5,0.4-1,0.8-1.5,1c0,0.1,0.1,0.2,0,0.3
		c0.3,0.1,0.5-0.1,0.7-0.3c0.5-0.4,1-0.7,1.6-0.9c-0.1-0.2,0.1-0.2,0.1-0.4C31.2,9.2,30.9,9.5,30.6,9.7z M31.4,10.5
		c0.1,0.2,0,0.7-0.3,0.8c-0.1,0-0.2-0.2-0.4-0.1c0-0.1,0-0.2,0-0.3c-0.6,0-1,0.6-1.4,0.7c-0.3,0-0.6-0.3-1-0.3
		c0,0.2-0.1,0.2-0.2,0.3c0,0.1,0.1,0.2,0.1,0.3c-0.2,0.4,0.2,1,0.3,1.2c0,0-0.1,0.1,0,0.1c0.5,0.2,1.3,0.5,1.6-0.2
		c0-0.1-0.2-0.1-0.2-0.2c0.1-0.1,0.1-0.3,0.1-0.4c0.2,0,0.1,0.3,0.3,0.2c0-0.2,0.2-0.3,0.4-0.3c0-0.2,0.1-0.2,0.2-0.3
		c0.1,0.1,0.3,0.2,0.5,0.2c0.2-0.3,0.2-0.9,0.2-1.3c0-0.3,0.2-0.6,0.1-0.8C31.7,10.2,31.6,10.3,31.4,10.5z M32.9,20.7
		c-0.1,0.1-0.4,0.2-0.5,0.4c0.1,0.1,0.4,0,0.6,0c0.5,0.2,1.1,0.3,1.5,0.5c0,0.2,0.4,0.3,0.3,0.5c-0.3,0-0.4-0.2-0.5-0.3
		c-0.5,0-0.9-0.2-1.3-0.1c0.1,0.4,0.5,0.4,0.9,0.5c0.4,0.1,0.7,0.5,1.1,0.5c0,0.2,0,0.4,0.2,0.4c0.5-0.2,0.1-1.1,0.1-1.7
		c-0.2-0.4-0.8-0.4-1.1-0.7c-0.3,0-0.7,0.1-0.9,0.2c-0.1-0.1-0.2-0.2-0.3-0.3c0.3-0.1,0.6,0.1,0.8-0.2c0-0.4-0.4-0.5-0.7-0.8
		c0-0.1,0.1-0.2,0.1-0.4c-0.3-0.6-1-0.9-1.4-1.4c-0.4,0-0.7-0.4-0.9-0.5c-0.1-0.1-0.2,0-0.4-0.1c-0.2-0.1-0.4-0.3-0.6-0.4
		c-0.3-0.2-0.6-0.3-0.8-0.4c-0.1-0.1-0.3-0.2-0.5-0.3c-0.2-0.1-0.5-0.4-0.8-0.4c0.1,0.3,0.4,0.9,0.2,1.1c-0.5-0.2-0.5-0.7-0.6-1.1
		c-0.1-0.3-0.2-0.5-0.2-0.7c0-0.1,0.1-0.2,0.1-0.3c0,0-0.1-0.1-0.1-0.1c0-0.1-0.1-0.3-0.1-0.3c0-0.2,0-0.3,0-0.5
		c0-0.2-0.2-0.3-0.2-0.5c-0.1-0.6-0.2-1-0.4-1.5c0.2-0.4,1.1-0.4,1.1-0.9c0-0.2-0.2-0.1-0.3-0.2c-0.1-0.1,0-0.3-0.3-0.3
		c-0.6,0.4-1.1,1-1.5,1.5c0.9,0.9,1.4,2.3,1.5,3.8c0,0.1,0.3,0.1,0.3,0.2c0,0.2,0.1,0.2,0.1,0.5c0.1,0.1,0.3,0.1,0.3,0.3
		c-0.3,0-0.5-0.3-0.7-0.6c-0.3-0.4-0.6-0.8-0.5-1.4c-0.2-0.4-0.3-0.8-0.5-1.2c-0.2-0.4-0.6-0.8-0.9-1.1c-0.1-0.1-0.1-0.2-0.1-0.3
		c-0.1-0.1-0.2-0.1-0.4-0.2c-0.2-0.1-0.3-0.1-0.5-0.1c-0.3-0.1-0.5-0.1-0.9-0.1c-0.3,0.2-0.8,0.3-1,0.6C22,12.7,22,13,21.8,13.2
		c-0.2,0-0.1,0-0.3,0c-0.4,0.4-1.2,0.1-1.7,0.4c-0.1,0-0.1-0.1-0.1-0.1c-0.2,0.3-0.6,0.3-1,0.5c-0.1,0.3,0,0.4,0,0.7
		c0.2,0.1,0.4,0.2,0.5,0.5c0.1,0,0.2,0,0.3,0.1c0.2,0.2,0.4,0.3,0.6,0.5c0.5,0.3,1.1,0.8,1.6,1.1c0.5,0.3,0.7,0.6,1,1.1
		c0.3,0.4,0.7,1.1,1,0.4c-0.6-1.3-1.5-2.2-2.2-3.3c-0.1,0-0.2,0.1-0.4,0.2c-0.2-0.2-0.1-0.4-0.2-0.5c-0.1,0.1-0.1,0.2-0.2,0.3
		c-0.3,0-0.6,0.4-0.8,0.1c0.1-0.3,0.4-0.5,0.6-0.7c0.7-0.1,1.1,0.3,1.6,0.5c0-0.1,0-0.2,0.1-0.3c0.1,0.1,0.1,0,0-0.1
		c0.6-0.3,1.5-1.1,2-0.3c0,1,0.5,1.8,0.9,2.6c0.2,0.1,0.4,0.1,0.5,0.3c0.7,0.1,1.4,0.4,2.1,0.4c0.6,0.1,1.1,0.3,1.5,0.4
		c0.2,0,0.4,0,0.5,0.1c0.5,0.2,0.9,0.5,1.4,0.8c0.1,0,0.2,0,0.2,0c0.2,0.1,0.5,0.3,0.7,0.4c0.2,0.1,0.5,0.3,0.6,0.4
		c-0.4-0.1-0.7,0.2-1.1,0.2c-0.1,0-0.2-0.1-0.3-0.1c-0.5,0.1-1.1,0.7-1.2,1c-0.1,0.3,0.2,0.4,0.4,0.6c0.1,0.2,0.3,0.4,0.4,0.5
		c0.4,0.6,0.8,1.2,0.4,1.7c0.1,0,0,0.1,0,0.2c0.3,0.3,0.6-0.1,1,0c0.1,0,0.4,0.2,0.5,0.2c0.4,0.2,0.7,0.5,0.9,1
		c-0.1,0-0.3,0.1-0.4,0.1c-0.3-0.4-0.7-0.8-1.3-0.9c-0.1,0.1-0.2,0.1-0.2,0.3c0.1,0.2,0.3,0.3,0.5,0.5c0,0.2,0.3,0.5,0.1,0.6
		c-0.2,0-0.1-0.3-0.4-0.3c-0.1,0-0.4,0.1-0.6-0.1c-0.3,0.2-0.3,0.6-0.6,0.7c-0.4-0.2-0.6-0.5-1-0.7c-0.1,0.1-0.2,0.2-0.2,0.4
		c0.3,0.3,0.7,0.4,1,0.6c-0.8,0.6-1.1-0.2-1.5-0.5c-0.2-0.2-0.5-0.2-0.5-0.4c0.2-0.1,0.4-0.1,0.6-0.2c0.2-0.1,0.3-0.3,0.5-0.3
		c0.4-0.1,0.8,0.3,1-0.1C30.6,24.3,30.3,24,30,24c-0.6,0-1,0.7-1.7,0.8c-0.1,0-0.4,0-0.5,0c-0.3,0-0.9-0.1-1.3-0.1
		c-0.4,0-0.6-0.1-0.7-0.2c-0.1-0.5-0.3-0.9-0.4-1.4c0.6-0.5,1.5-0.6,2.4-0.7c0.5,0.3,0.5,1.1,1,1.4c0.4-0.3,0.3-0.5,0.1-0.9
		c-0.2-0.2-0.3-0.4-0.4-0.6c-0.3-0.3-0.7-0.4-1-0.6c-1,0-1.7,0.5-2.2,1c-0.4-0.1-0.8-0.5-1.2-0.4c0,0.3,0.3,0.3,0.4,0.5
		c0.2,0.1,0.3,0.3,0.5,0.4c0,0.3,0.2,0.6,0.2,0.8c-0.2-0.1-0.3-0.4-0.5-0.5c-0.2-0.2-0.6-0.5-0.8-0.3c0.1,0.3,0.4,0.5,0.6,0.7
		c0.2,0.3,0.4,0.5,0.6,0.8c0.1,0.3,0.3,0.6,0.4,1c0,0.1-0.2,0.1-0.2,0.2c0.8,0.4,1.9,0.5,2.8,0.7c-0.4,0.2-0.8,0.4-1.1,0.5
		c-0.2-0.1-0.4,0-0.5,0.1c0.1,0.3-0.2,0.4-0.2,0.7c-0.1,0.6,0.6,1.2,0.9,1.7c0.7,0.2,1,0,1.5-0.2c-0.6,0.5-1.2,1.1-2.2,1.2
		c-0.2-0.2-1.1-0.2-1.4-0.1c-0.4,0.1-0.3,0.6-0.7,0.7c-0.1-0.2-0.1-0.2-0.1-0.4c-0.9-0.2-1.7,0.2-2,0.9c0.7,0.1,0.7,0.9,1.5,0.9
		c0.1,0.1,0.2,0.2,0.3,0.4c0-0.1,0-0.2,0.1-0.2c0.6,0.2,1.1-0.1,1.5-0.3c0.7,0.5,0.5,1.6,0.6,2.4c0.6,0.4,1.7,0.2,2.2,0.8
		c0.1-0.2,0.1-0.4,0-0.5c0.1-0.1,0-0.1,0.1-0.3c-0.1-0.5-0.8-0.5-0.9-1c-0.1,0-0.3,0-0.4,0c-0.1-0.2-0.3-0.5-0.3-0.8
		c-0.1-0.7,0.2-1.1,0.4-1.5c-0.2-0.1-0.2,0.1-0.4,0.1c-0.6,0.1-1.2-0.2-1.7,0c0.3,0.1,0.9,0.1,1,0.2c0,0.2,0.1,0.5,0,0.6
		c-0.2-0.2-0.3-0.4-0.5-0.6c-0.2,0.1-0.7,0-0.9-0.1c0-0.3,0.1-0.5,0.2-0.7c0.6,0,1.3,0.2,1.9,0c0.6-0.4,1.5-0.7,1.9-1.1
		c-0.1,0.5-0.3,0.9-0.3,1.4c0,0.1,0.1,0.2,0.2,0.4c0.1,0.2,0.1,0.4,0.2,0.5c0,0.2,0.2,0.4,0,0.6c-0.3-0.5-0.5-1-0.7-1.6
		c0.1-0.2,0.2-0.5,0-0.6c-0.1,0.1-0.1,0.2-0.1,0.4c-0.1,0-0.1-0.1-0.2,0c-0.1,1,0.6,1.8,0.9,2.4c-0.3-0.2-0.7-0.4-0.9-0.8
		c-0.1-0.3-0.2-0.6-0.2-1c0-0.3,0.1-0.6-0.1-0.7c-0.1,0.2,0,0.6-0.1,0.9c-0.1,0.5,0,1,0.2,1.3c0.4,0.2,0.8,0.4,1.1,0.8
		c0.1,0,0.1-0.1,0.2,0c0.8,0.9,0.1,2.4-0.9,2.5c-0.2,0-0.3-0.1-0.6,0c0,0.4,0.2,0.9,0,1.3c-0.2,0.5-1.1,0.8-1.6,0.7
		c-0.3-0.1-0.5-0.4-0.9-0.4c-0.2,0-0.4,0.1-0.5,0.1c-0.3,0-0.6-0.1-0.7,0.2c0.6,0,1.4-0.3,1.7,0.2c-0.3,0-0.6,0-0.8,0
		c-0.1,0.2-0.6,0.1-0.6,0.5c0.6-0.2,1.4-0.1,2.1-0.1c0.2,0,0.6-0.1,0.7,0.2c-0.5-0.1-1,0.1-1.5,0.2c-0.4,0.1-0.8,0-1,0.2
		c1.1,0.1,2.2,0.1,3.1,0.1c-0.6,0.2-1.5,0.3-2.1,0.3c-0.3,0-0.7,0-0.9,0.2c0.1,0.1,0.4,0,0.6,0c0.7,0,1.6,0.1,2.3,0
		c-0.7,0.5-1.9,0.4-2.7,0.7c0.7,0.2,1.5,0.1,2.1,0.1c0.2,0,0.5,0.1,0.7,0.1c0.2,0,0.4-0.1,0.5,0c-0.8,0.3-1.8,0.5-2.7,0.6
		c-0.2,0-0.4-0.1-0.5,0.1c0.7,0.1,1.4,0.1,2.1,0c0.2,0,0.5,0,0.7,0c0.4-0.1,0.8-0.3,1.1-0.1c-0.7,0.2-1.5,0.5-2.1,0.7
		c-0.6,0.2-1.2,0.1-1.7,0.3c1,0,2.5-0.1,3.4-0.1c0.2-0.1,0.7-0.2,0.8-0.1c-0.3,0.1-0.6,0.1-0.8,0.2c-0.4,0.1-0.6,0.4-1,0.4
		c0,0-0.1-0.1-0.2-0.1c-0.1,0-0.1,0.1-0.1,0.1c-0.1,0-0.1,0-0.2,0c-0.2,0-0.3,0.1-0.5,0.1c-0.4,0.1-1.1,0.2-1.5,0.3
		c0-0.1-0.3-0.1-0.3,0c0.3,0.1,0.5-0.1,0.6-0.1c-0.1,0,0,0.1,0.1,0.1c0.5,0,0.9-0.1,1.4,0c0.6-0.2,1.3-0.1,1.9-0.2
		c0.4-0.1,0.9-0.4,1.2-0.2c-1.1,0.5-2.7,1.2-4.1,1.2c-0.2,0-0.4-0.1-0.5,0c0.2,0.1,0.6,0.1,0.9,0.1c0.9,0,1.8-0.2,2.8-0.4
		c0.4-0.1,0.9-0.1,1.3-0.2c0.2-0.1,0.3-0.3,0.5-0.1c-0.3,0.3-0.9,0.3-1.2,0.7c0-0.1-0.1,0-0.2,0c-0.8,0.5-1.9,0.4-2.9,0.7
		c1.4,0.1,2.9-0.2,4.3-0.5c0-0.2,0.4-0.4,0.5-0.2c-0.1,0.2-0.4,0.3-0.6,0.3c-0.2,0.1-0.5,0.3-0.7,0.2c-0.4,0.4-1.4,0.3-2,0.6
		c0.5,0.1,1,0.1,1.4,0c0.8-0.1,1.6-0.4,2.2-0.5c0.2,0,0.5-0.1,0.7,0c-0.2,0.1-0.4,0.2-0.6,0.3c-0.2,0.1-0.5,0.2-0.7,0.3
		c-0.6,0.2-1.3,0.4-1.8,0.5c0.1,0,0.3,0.1,0.4,0.2c0.3-0.1,0.6-0.1,0.9-0.2c0.7-0.2,1.5-0.3,2.1-0.5c0.2-0.1,0.5-0.2,0.8-0.1
		c-0.2,0.3-0.6,0.4-1,0.6c-0.2,0.1-0.3,0.2-0.5,0.3c-0.4,0.2-0.8,0.3-1.3,0.3c-0.1,0.3,0.4,0.1,0.4,0.1c0.6,0.1,1.3-0.2,1.9-0.4
		c0.3-0.1,0.6-0.2,0.8-0.2c0.1,0,0.2-0.2,0.3-0.3c0.1-0.1,0.3-0.1,0.5-0.2c0.5-0.2,1-0.6,1.2-1c0.3-0.4,0.1-1,0.2-1.6
		c-0.4-0.2-1.2-1.3-0.5-1.8c-0.2-0.3-0.6-0.2-0.8-0.4c-0.3-0.3-0.4-0.7-0.4-1.2c0.2,0,0.3-0.1,0.5,0c0.1,0.7,0.4,1,1,1.2
		c0.1-0.2,0.4,0,0.5-0.3c0.2-0.5-0.3-0.8-0.4-1.2c-0.8,0-1.7-0.1-2.3,0.3c0-0.2-0.2-0.4-0.2-0.6c0.3-0.2,0.6-0.1,0.9-0.2
		c0.3-0.1,0.5-0.4,0.8-0.5c0.4-0.1,0.7,0,1.1-0.2c-0.3-0.4-0.2-1.1-0.4-1.5c-0.6-0.1-0.8-1.1-0.5-1.7c0.2-0.5,1-0.7,1.4-0.7
		c-0.2,0.3-0.9,0.5-1,1c0,0.3,0.3,0.5,0.3,0.8c0.3,0.1,0.5-0.1,0.8-0.2c0.5-0.1,1,0.1,1.4,0.1c0.1-0.2,0.2-0.4,0.3-0.6
		c-0.2-0.4-0.1-0.9-0.3-1.4c-0.1-0.1-0.2-0.2-0.3-0.3c-0.2-0.5-0.4-1.2-0.6-1.8c-0.5-1.4-0.8-2.8-0.7-4.3c-0.1-0.1-0.3-0.3-0.1-0.5
		c0.2-0.1,0.2,0.4,0.2,0.1c0-0.4-0.6-0.5-0.8-0.8c-0.4,0-0.7-0.3-1.1-0.3c-0.5,0-1.2,0.3-1.7,0.4c-0.2,0-0.3,0-0.5,0
		c-0.5,0.1-1,0.4-1.3,0.7c-1,0.5-2,2.1-3.2,2.3c-0.6,0.1-1-1-1-1.5c0.3-0.5,0.7-0.8,1.2-1c0.2-0.1,0.4-0.3,0.7-0.3
		c-0.3,0.4-0.8,0.6-1.2,0.9c-0.2,0.5-0.3,1.1,0.1,1.4c0.7,0.2,1.3-0.2,1.6-0.5c0.2-0.3,0.4-0.7,0.6-0.9c0.1-0.1,0.2-0.1,0.3-0.2
		c0.3-0.3,0.6-0.7,1-0.6c0.3-0.4,1.1-0.6,1.6-0.7c0.3-0.1,0.7,0,1.1-0.1c0.1,0,0.1-0.1,0.2-0.1c1.1-0.2,2,0.2,2.6,0.9
		c0,0.2,0.2,0.3,0.4,0.4c0.1-0.3,0.1-0.6,0.3-0.7c-0.1-0.5,0.5-0.9,0-1.1c-0.2,0.1-0.2,0.3-0.2,0.4c-0.3,0-0.2,0.3-0.4,0.3
		c-0.1-0.1-0.3-0.1-0.3-0.3c0.3-0.6,0.2-1.1,0-1.5c0-0.1-0.1,0-0.1,0c0,0,0.1-0.1,0-0.1c-0.3-0.3-0.6-0.6-0.9-0.6
		c0.2,0.5,0.7,0.9,0.7,1.6c0,0.2-0.2,0.4-0.1,0.6c-0.6-0.4-0.5-1.6-1.2-1.9c0-0.2,0-0.1-0.1-0.3c-0.3-0.1-0.7-0.2-1-0.3
		c0,0.2,0.1,0.3,0.1,0.4c0-0.1,0.1,0,0.1,0c0.2,0.3,0.4,0.7,0.6,1c0.1,0.2,0.4,0.4,0.4,0.6c-0.6-0.1-0.6-0.6-0.9-0.9
		c0,0-0.2-0.1-0.2-0.1c-0.2-0.1-0.3-0.3-0.4-0.4c-0.1-0.1-0.3,0-0.4-0.1c0.1-0.8-0.3-1.7-0.8-2.2c0.2-0.2,0.4-0.3,0.7-0.4
		C32.8,20.6,32.8,20.7,32.9,20.7z M27.1,11.9c0,0.7,0.2,1.1,0.3,1.5c0.2-0.1,0.3-0.3,0.5-0.4c0-0.5,0-0.9-0.1-1.3
		C27.5,11.8,27.2,11.8,27.1,11.9z M30.9,12.3c0,0.1,0,0.2,0,0.2c0-0.1,0-0.1,0.1,0C31,12.4,31.1,12.3,30.9,12.3
		C31,12.3,30.9,12.3,30.9,12.3z M6,12.8c-0.3,0.2-0.6,0.4-1,0.6c-0.7,0.3-1.6,0.3-2.5,0.4c0-0.1,0.1-0.1,0.1-0.3
		c-0.6,0.4-0.4,1.3-0.8,1.9c0.1,0.4-0.3,0.9-0.1,1.4c0.2,0,0.1-0.2,0.1-0.3c1.5-0.8,2.8-1.7,4.2-2.6c0.2-0.5,0.9-0.4,0.8-0.9
		c-1.5,0.8-2.7,1.8-4.8,2.1c0.2-0.1,0.1-0.5,0.2-0.6c0.6,0,0.9-0.1,1.5-0.3c0.9-0.4,1.9-0.8,2.5-1.5c0.2,0.1,0.5-0.2,0.7-0.4
		C6.6,12.4,6.3,12.6,6,12.8z M24.2,15.9c-0.1-0.2-0.3-0.8-0.3-1c0-0.4,0-0.7-0.5-0.7c-0.2,0.2-0.5,0.3-0.6,0.7
		c-0.1,0.5,0.4,0.8,0.7,1.2c0.2,0.3,0.4,0.7,0.6,1c0.1,0.1,0.2,0.2,0.4,0.3c0.3,0.3,0.4,0.5,0.7,0.6c0.1,0,0.1-0.1,0.2,0
		c0.2,0.1,0.4,0.4,0.7,0.5c0-0.2-0.3-0.3-0.2-0.4c1.3,0,2.7,0.5,3.8,0.8c-0.1,0.4-0.4,0.6-0.6,0.9c-0.1-0.1,0.1-0.3-0.2-0.3
		c-0.3,0.2-0.8,0.3-0.8,0.7c0,0.1,0.2,0.1,0.3,0.2c0.3,0.4,0.6,0.8,0.8,1.3c0.2,0.5,0.3,1.1,0.5,1.6c0.4-0.2,0.1-0.7,0.1-1.1
		c0.4,0.2,0.1,1,0.5,1.3c0.3-0.2,0.2-0.5,0.2-0.8c-0.1-0.5-0.5-1.1-0.7-1.4c-0.1-0.2-0.3-0.3-0.4-0.5c-0.6-1.2,0.7-1.3,1.1-2
		c0-0.1-0.1-0.1-0.1-0.3c-1.4-0.6-3.2-1-5-1C25.1,17,24.5,16.5,24.2,15.9z M2,19.8c0.2-0.4,0.7-0.7,1.1-1c0.1-0.1,0.3-0.3,0.4-0.3
		c0.8-0.7,1.6-1.4,2.3-2.1c-0.3,0-0.5,0.5-0.8,0.6c0.5-0.4,0.9-0.9,1.4-1.3c-0.1-0.3,0.4-0.4,0.3-0.7c-0.3,0.1-0.7,0.4-1,0.8
		c-0.6,0.2-0.8,0.8-1.3,1c-0.7,0.9-2,1.5-2.9,2.1c0.1-0.2,0.1-0.5,0.2-0.7c0.2-0.3,0.6-0.3,0.8-0.4c0.7-0.3,1.1-0.9,1.6-1.3
		c0.3-0.3,0.6-0.4,0.9-0.6c0.2-0.2,0.3-0.4,0.5-0.6c0.4-0.4,0.9-0.6,1.1-1.1c0.1,0,0.3-0.1,0.2-0.2c-0.4,0.1-0.6,0.6-1,0.7
		c-0.8,0.8-1.8,1.3-2.7,2c-0.1,0.1-0.1,0-0.2,0c-0.1,0.2-0.4,0.4-0.6,0.5c-0.1,0.2-0.2,0.4-0.5,0.4c-0.1,0,0.1-0.3-0.1-0.3
		c-0.3,0.2-0.2,0.4-0.2,0.7c-0.1,0.5-0.2,0.9-0.2,1.4c0,0.4-0.1,0.7,0.1,1C1.2,20,1.5,20,1.7,20C2,19.8,1.7,19.6,2,19.8z M16.7,14.3
		c0,0.1,0,0.1,0,0.2c0.1,0,0.1-0.1,0.1-0.2C16.9,14.3,16.8,14.3,16.7,14.3z M6.8,18.2c-0.1,0.1-0.2,0.2-0.2,0.4
		c-0.7,1.1-1.4,2.3-2.2,3.1c-0.6,0.7-1.3,1.5-1.9,2c-0.3,0.2-0.5,0.4-0.7,0.7c-0.3,0.1-0.4,0.4-0.7,0.4c0.1-0.3,0-0.3,0.1-0.6
		C1.2,24.1,1.3,24,1.6,24c0.1-0.2,0.3-0.4,0.4-0.6c0.5-0.5,1-0.9,1.5-1.4c0.5-0.5,0.8-1.1,1.3-1.7c0.2-0.3,0.5-0.5,0.7-0.8
		c0.2-0.3,0.3-0.7,0.5-1c0.3-0.6,0.7-1.3,1.1-1.9c-0.5,0.5-0.9,1.1-1.3,1.8c-0.6,0.6-1.1,1.4-1.8,2c-0.7,0.7-1.4,1.7-2.3,2.2
		C1.5,22.7,1.2,23,1,23.1c-0.1-0.3,0-0.7,0.4-0.8c0-0.1,0.1-0.1,0.1-0.3c0.2-0.1,0.3-0.3,0.5-0.5C2.2,21.3,2.3,21,2.5,21
		c0-0.2,0.2-0.3,0.3-0.4c0.4-0.4,0.8-0.7,1-1.2c0.9-0.8,1.6-1.8,2.3-2.8c0.1-0.1,0.3-0.3,0.2-0.5c-1.1,1.1-2.1,2.5-3.3,3.5
		c-0.5,0.5-1.2,0.7-1.7,1.3c-0.2,0-0.2,0-0.3,0.1c-0.1,0.2,0,0.4-0.1,0.5c-0.1,0.1-0.2-0.3-0.2-0.1c0.1,0.4,0.1,0.9-0.3,1
		c0.5,0.2,0.3,1,0.4,1.6c0,0.1,0.1,0.3,0.1,0.4c0,0.4,0,0.9,0,1.2c0,0.1,0.2,0.3,0.2,0.4c0.3-0.1,0.4-0.2,0.6-0.5
		c0.4-0.5,0.8-1,1.2-1.3c1.1-1.6,2.2-3.1,3.2-4.9c0-0.1,0-0.3,0.1-0.4c0,0.1-0.1,0.2,0,0.2c0.4-0.8,0.8-1.4,1.1-2.3
		C7,17.3,7,17.8,6.8,18.2z M18.1,18.6c0.5,0,0.7-0.4,1-0.6c-0.1-0.3-0.6-0.3-0.9-0.3C18.1,17.9,17.9,18.3,18.1,18.6z M20.4,17.7
		c-0.4,0.1-0.5,0.4-0.6,0.8c0.2,0.4,0.8,0.1,0.9-0.2C20.6,18.1,20.5,17.9,20.4,17.7z M26.3,18.6c-1.4,0.1-2.5,0.7-3.5,1.2
		c0-0.1,0.3-0.2,0.1-0.2c-0.2,0-0.4,0.5-0.6,0.7c0.2,0.1,0.5-0.1,0.8,0c0.4-0.3,0.9-0.5,1.5-0.7c0.5-0.2,1.1-0.4,1.7-0.5
		c0.7-0.1,1.5-0.1,2.2-0.5C27.7,18.5,27,18.6,26.3,18.6z M6.2,20.4c-0.4,0.8-0.9,1.4-1.4,2.1c-1.2,1.7-2.4,3.3-3.8,4.7
		c-0.1-0.2,0-0.4-0.2-0.5c0.1,1.6,0.4,3.5,0.7,5c0.1,0.3,0,0.7,0.2,0.7c-0.1-0.5-0.2-1.3-0.3-1.9c0.1,0,0,0.2,0.2,0.1
		c0.7-1,1.1-2.2,1.9-3c0.5-1,1.3-1.7,1.8-2.6c0.4-0.7,0.8-1.5,1.1-2.2c0.1-0.3,0.2-0.6,0.3-0.8c0.1-0.2,0.4-0.6,0.2-0.7
		c-0.2,0.1-0.3,0.3-0.4,0.5c-0.3,0.7-0.5,1.5-0.9,2.1c-0.3,0.5-0.8,0.9-1.1,1.4c-0.1,0.1-0.2,0.2-0.2,0.3c-0.1,0.2-0.2,0.4-0.4,0.6
		c-0.2,0.2-0.4,0.3-0.6,0.5c-0.1,0.1-0.1,0.2-0.1,0.3C3,27.3,2.7,27.7,2.4,28c-0.2,0.3-0.3,0.6-0.6,0.8c0.2-0.9,1-1.4,1.3-2.3
		c1.1-1.5,2.3-3,3-4.8c0.2-0.4,0.3-0.9,0.6-1.3c0-0.7,0.2-1.1,0.5-1.6c0.1-0.3,0.3-0.6,0.3-0.8C7,18.8,6.6,19.6,6.2,20.4z M19.6,19
		c-0.1-0.2-0.2-0.5-0.4-0.5c-0.3,0-0.7,0.5-0.6,0.7c0.4,0.2,0.8,0.6,1.3,0.4C20,19.3,19.7,19.2,19.6,19z M25.9,19.9
		c0,0-0.1,0.1-0.1,0.1c0,0.1,0.1,0.1,0.2,0.2c0.1,0.3,0.1,0.2,0.3,0.5c0.1,0.2,0.2,0.2,0.3,0.3c0,0,0,0.2,0,0.2
		c0.4-0.1,0.7,0.1,1,0.3c0.4,0.2,0.7,0.4,1.2,0.4c0-0.2,0-0.4-0.2-0.6c0,0-0.2,0-0.2-0.1c-0.1,0-0.1-0.2-0.2-0.3
		c-0.2-0.2-0.6-0.6-0.7-0.7c-0.4-0.6,1-0.7,1.3-0.9c-0.2-0.4-0.8-0.4-1.1-0.3c-0.5,0.1-1.2,0.5-1.7,0.4c-0.1,0-0.1,0.2-0.2,0.2
		c0-0.1,0-0.1,0-0.1C25.7,19.7,25.9,19.8,25.9,19.9z M17,19.8c0.1,0,0.1,0.2,0.2,0.2c0.5,0.1,1.3,0.3,1.5-0.2
		c-0.1-0.2-0.3-0.2-0.4-0.4c0,0.2-0.2,0-0.3,0c-0.2-0.3-0.4-0.6-0.8-0.7C16.9,19,17.3,19.5,17,19.8z M21.2,18.9
		c-0.2,0.1-0.4,0.5-0.4,0.6c0,0.5,0.9,0.3,1.2,0.1c0-0.2-0.1-0.3,0-0.5C21.7,19,21.4,18.8,21.2,18.9z M35.2,20.7
		c0.3,0.4,0.4,0.8,0.7,1.2c0.1,0,0.2-0.1,0.3,0c0.7,0.2,1.2,0.5,1.6,0.9c0.1,0.1,0.3,0.4,0.5,0.3c-0.1-0.2-0.4-0.2-0.3-0.6
		c-0.4-0.1-0.5-0.5-0.7-0.7c-0.4-0.3-1-0.2-1.4-0.5c-0.2-0.1-0.2-0.3-0.3-0.5c0.1,0,0.2,0,0.2-0.1c-0.3-0.1-0.4,0-0.9-0.1
		C34.9,20.6,35.1,20.6,35.2,20.7z M19.3,20.3c0,0.6-0.7,0.6-0.8,1.1c0.3,0,0.4-0.1,0.6-0.1c0.2-0.4,0.7-0.5,0.8-1
		C19.7,20.1,19.5,20.2,19.3,20.3z M19.9,21.1c0.4-0.1,0.9-0.1,0.9-0.7C20.3,20.1,19.8,20.7,19.9,21.1z M20.8,21.1
		c0.6,0.1,1.1-0.1,0.7-0.7c-0.1,0-0.2-0.1-0.3-0.1C21,20.6,20.9,20.8,20.8,21.1z M23.8,20.8c-0.2,0.2-0.4,0.5-0.3,0.7
		c0.3,0.4,1,0.4,1.5,0.6c0-0.2,0-0.1,0.1-0.1c0-0.6-0.7-0.9-0.8-1.5C24,20.4,24,20.6,23.8,20.8z M18,21.1c0.2-0.1,0.5-0.4,0.3-0.5
		c-0.3,0.1-0.6-0.1-1-0.1C17.3,20.8,17.9,20.7,18,21.1z M7.1,21.1c0.2-0.3,0.2-0.6,0.4-0.9C7.2,20.4,7.2,20.8,7.1,21.1
		C7,21,7,20.9,7,20.9C7,21,7,21.2,7.1,21.1z M16.8,20.7c-0.4,0-0.6,0.8-0.2,0.9c0.1,0-0.1-0.1,0.1-0.1c0,0.1,0.2,0.1,0.3,0.2
		c0.1-0.3,0.3-0.5,0.3-0.8C17,20.9,16.9,20.7,16.8,20.7z M21.5,21.5c0.1,0.1,0.2,0.1,0.2,0.3c0.4,0,0.7,0,0.7-0.4
		C22.1,21.1,21.6,21.1,21.5,21.5z M16.9,23.4c-0.1,1.6,0.4,2.7,0.9,3.8c0.1,0.1,0.2,0.1,0.2,0.1c0.1,0.3,0.3,0.5,0.5,0.7
		c0.2,0.3,0.3,0.7,0.6,0.8c0.1,0,0.4,0.1,0.5,0.2c0.1-0.1,0.1-0.2,0.3-0.1c0.8,0.2,1.3-0.5,1.3-1.1c0-0.2-0.2-0.5-0.3-0.8
		c-0.3-0.8-0.5-1.5-0.7-2.2c0-0.1-0.3,0-0.3-0.1c0.2-0.2,0.4-0.4,0.7-0.6c0.4-0.2,0.8-0.4,1.3-0.5c0.2,0,0.3,0.2,0.4,0.1
		c0-0.2-0.3-0.1-0.3-0.3c0.5-0.1,0.8-0.4,1.3-0.4c0-0.2,0.3-0.1,0.4-0.3c-0.1-0.1-0.2,0-0.4,0c0-0.1,0-0.3-0.2-0.3
		c-0.2,0.1-0.4,0.2-0.6,0.2c-0.2-0.1-0.3-0.4-0.6-0.6c0,0-0.1,0-0.2-0.1c-0.1-0.1-0.2-0.2-0.3-0.3c-0.4-0.3-1.1-0.5-1.7-0.3
		c-0.1,0-0.4,0.1-0.5,0.3c0.3,0,0.7-0.1,0.9-0.1c-0.2,0.1-0.4,0.4-0.8,0.3c0.1,0.2,0,0.3-0.2,0.4c-0.1-0.2-0.1-0.5-0.3-0.6
		c-0.2,0-0.2,0.1-0.3,0.2c0.1,0.6,0.3,1.1,0.7,1.4c-0.3,0.6-0.8,1.3-1,2.1c0,0.2-0.1,0.4-0.1,0.6c-0.1,0.7,0.1,1.1,0.2,1.6
		c-0.1-0.2-0.3-0.3-0.3-0.5c0-0.1,0-0.2,0-0.3c-0.1-0.4-0.2-0.8-0.2-1.2c0-0.1,0-0.2,0-0.3c0-0.3,0.1-0.5,0.2-0.7
		c0-0.1,0-0.2,0.1-0.3c0.1-0.2,0.5-0.4,0.5-0.7c0-0.1-0.1-0.1-0.2-0.2c-0.8,0-0.9,1.4-1,2.3c-0.1-0.4-0.3-1-0.3-1.5
		c0-0.7,0.4-1.1,0.6-1.5c-0.2,0-0.2-0.2-0.4-0.2C17.2,22.7,17.1,23.2,16.9,23.4z M22.3,22c0,0.1,0,0.3,0,0.5
		c0.3,0.2,0.7-0.1,0.7-0.4C22.9,21.8,22.6,21.9,22.3,22z M36.1,22.5c0.9,0.4,1.5,1.1,1.7,2.1c0,0.1,0,0.3,0.2,0.4
		c0-0.3,0.2-0.5,0.2-0.8c0-0.2-0.2-0.5-0.3-0.8c-0.1-0.2-0.3-0.6-0.4-0.7c-0.4-0.3-1-0.2-1.4-0.5C36,22.4,36.1,22.4,36.1,22.5z
		 M7.5,24.3c-0.2,0.4-0.6,0.7-0.6,1.2c-0.1-0.1-0.1,0.1-0.2,0.1c-0.5,0.9-1.1,1.7-1.6,2.6c-0.1,0.1,0.1,0,0,0.2
		c-0.1-0.1-0.1,0-0.2,0c-0.4,0.6-0.7,1.3-1.1,1.9c-0.1,0.2-0.3,0.4-0.4,0.6c-0.2,0.4-0.4,0.8-0.6,1.2c-0.2,0.4-0.4,0.8-0.7,1
		c0-0.3,0-0.5-0.1-0.7c0.3-0.3,0.4-0.7,0.5-1.1c0.2-0.5,0.4-0.7,0.6-1.2c0.3-0.6,0.6-1.3,0.9-1.8c0.2-0.4,0.5-0.7,0.8-1
		c0.3-0.5,0.8-1,0.9-1.5c0.3-0.4,0.6-0.9,0.8-1.4c0.4-1,0.9-1.9,1.2-2.8c-0.4,0.5-0.5,1.1-0.9,1.7c-0.2,0.3-0.5,0.6-0.7,1
		c-0.1,0.2-0.2,0.4-0.3,0.6c-0.1,0.2-0.3,0.3-0.4,0.5c-0.5,0.6-0.9,1.4-1.4,2c-0.4,0.6-0.8,1.4-1.2,2.2c-0.2,0.3-0.4,0.7-0.6,1.2
		C2,31,1.8,31.5,1.8,31.8c0,0.2,0.1,0.4,0.1,0.5c0,0.6-0.1,1.2,0,1.8c0,0.1,0.1,0.3,0.1,0.4c0,0.2-0.2,0.3,0,0.5
		c0.2-0.3,0.3-0.5,0.4-0.8c0.2-0.3,0.3-0.8,0.4-1.1c0.5-1.1,1-2.2,1.7-3c0.2-0.5,0.4-0.9,0.7-1.4C5.4,28.4,5.8,28,6,27.6
		c0.5-0.9,0.9-1.8,1.4-2.7c0-0.5,0.4-0.8,0.4-1.2C7.6,23.9,7.6,24.1,7.5,24.3z M16,22c-0.2,0.1,0,0.5-0.3,0.5c0,0.1,0.1,0.2,0,0.3
		c0.2,0,0.4,0,0.4,0.1c0.1-0.2,0.3-0.1,0.6-0.1C16.9,22.3,16.5,22,16,22z M27.3,22.6c-0.4,0.2-0.9,0.2-1.2,0.5c0.1,0.3,0,0.6,0.1,1
		c0.4-0.1,0.7,0.1,1.1,0.2c0.2-0.1,0.3-0.3,0.6-0.3C28.1,23.4,27.7,22.9,27.3,22.6z M15.5,24.2c0.2,0,0-0.3,0.2-0.2
		c1,0.3,0.6-0.8-0.1-0.7C15.4,23.6,15.3,23.8,15.5,24.2z M24.3,25.3c-0.8-0.1-0.8-0.9-1.3-1.3c-0.1,0.1-0.1,0.2-0.1,0.3
		c0.3,0,0.3,0.4,0.3,0.6c0.1,0.1,0.2,0.2,0.3,0.3c-0.3-0.1-0.5-0.4-0.9-0.5c-0.1-0.1-0.2-0.3-0.3-0.2c0.3,0.5,0.5,1.1,1,1.2
		c0.2,0,0.3-0.1,0.5-0.1c0,0,0.2,0.1,0.2,0.1c0,0,0-0.1,0.1-0.1c0,0,0,0.1,0,0.1c0.2,0,0.4-0.1,0.6,0c0-0.3,0.1-0.1,0.2-0.2
		c-0.2-0.7-0.6-1.2-1.1-1.7c0,0,0-0.1-0.1,0C23.8,24.5,24.2,24.8,24.3,25.3z M21.9,27c-0.1-0.3-0.2-0.6-0.3-0.9
		c-0.1-0.3-0.5-1.6-0.8-1.6c-0.2,0-0.3,0.2-0.3,0.3c0,0.2,0.2,0.5,0.3,0.8c0.1,0.3,0.2,0.6,0.3,0.8c0.2,0.5,0.6,1.1,0.6,1.6
		c0,0.5-0.5,1.1-0.9,1.3c-0.4,0.3-0.9,0.3-1.4,0.5c0,0.2,0.1,0.4,0.2,0.5c0.5-0.1,0.9-0.2,1.3-0.5c0.8-0.2,1.5-0.6,2.2-1
		c0.2-0.1,0.5-0.2,0.7-0.4c0-0.3-0.2-0.3-0.3-0.5c-0.4,0.2-0.8,0.7-1.3,0.8c0-0.2,0.2-0.2,0.1-0.4C22.3,27.8,22.1,27.5,21.9,27z
		 M15.4,24.7c-0.2,0.5,0.3,0.9,0.2,1.4c0.2,0.1,0.2,0.3,0.3,0.5c0.2,0,0.4-0.2,0.7-0.1c0-0.3-0.1-0.6-0.4-0.8
		c-0.2,0-0.3,0.1-0.5,0.1c-0.1-0.1-0.1-0.3-0.1-0.5c0.2-0.1,0.4-0.1,0.6-0.1c0.1-0.2-0.1-0.5-0.2-0.7C15.9,24.5,15.6,24.5,15.4,24.7
		z M24.3,26.4c-0.6,0-1.5-0.1-1.9,0.3c0.3,0.3,0.8,0.2,1.2,0.3c0.4,0,0.9,0,1.4,0.1c0.3,0,0.4,0.2,0.6,0.2c0.1-0.1,0.2-0.1,0.2-0.4
		C25.5,26.4,24.9,26.4,24.3,26.4z M7,27.1c-0.3,0.4-0.7,0.8-1,1.2c-0.3,0.4-0.5,0.9-0.8,1.4c-0.6,0.9-1.4,1.6-1.8,2.6
		c-0.7,0.6-0.8,1.9-1.1,2.9c0,0.8-0.1,2.1-0.1,2.9c0,0.3-0.1,0.7,0.1,0.9c0.2-0.9,0.1-1.7,0.2-2.5c0.2-1.6,1-2.8,1.6-4.1
		c0.3-0.7,0.6-1.3,1-1.9c0.4-0.6,0.9-1.1,1.2-1.7c0-0.3,0.1-0.4,0.2-0.6c0.3-0.7,0.8-1.3,0.9-2C7.2,26.6,7.2,27,7,27.1z M16.2,27
		c-0.1,0.3,0.1,0.4,0.3,0.6c0-0.3,0.5-0.1,0.6-0.4c0-0.1-0.2,0-0.2-0.2c-0.1,0-0.4,0.1-0.2,0C16.5,26.9,16.5,27.1,16.2,27z
		 M24.3,27.4c-0.2,0-0.4-0.1-0.6-0.2c-0.3,0-0.6,0-0.8,0.2c0.8,0.1,1.5,0.2,1.6,1.2c-0.2,0.1-0.2,0.3-0.5,0.3c-0.4,0.8-1.4,1-2,1.6
		c0.7-0.3,1.5-0.6,2.2-0.9c0.2-0.5,0.8-0.6,1-1.1c0,0.5,0.1,1-0.2,1.3c0.3,0.1,0.6,0,0.9,0.1c0,0,0.2,0.1,0.2,0.1
		c0.4,0.2,0.6,0,1-0.1c-0.2-0.3-0.4-0.3-0.6-0.5c-0.3-0.6-0.7-1-0.8-1.8C25.4,27.4,24.8,27.5,24.3,27.4z M17,28
		c0-0.1-0.1-0.1-0.2-0.1c0,0.2,0.2,0.6,0.6,0.7c0-0.4,0.3-0.3,0.4-0.5C17.6,27.7,17.3,27.7,17,28z M17.9,28.7c-0.2,0-0.2-0.1-0.3,0
		c-0.1,0.3,0.1,0.7,0.5,0.8c-0.1-0.2,0.1-0.3,0.2-0.4C18.2,28.9,18,28.4,17.9,28.7z M18.1,29.8c0,0.1,0.1,0.2,0,0.3
		c0.3,0.1,0.3,0.5,0.6,0.6c0.1-0.2,0.2-0.4,0-0.5c0.2-0.1-0.1-0.7-0.2-0.7C18.4,29.6,18.4,29.8,18.1,29.8z M6.2,30
		c-0.1,0.3-0.3,0.5-0.6,0.6c-0.2,0.4-0.5,0.8-0.8,1.2c-0.1,0.1-0.2,0.3-0.3,0.4c-0.3,0.5-0.4,1.1-0.6,1.7c-0.2,0.4-0.3,0.9-0.5,1.3
		c-0.1,0.4-0.2,0.7-0.3,1.1c-0.1,0.2-0.2,0.4-0.2,0.6c-0.1,0.4-0.1,0.9-0.3,1.3c-0.1,0.2-0.1,0.4-0.2,0.5c0,0.1-0.2,0.4-0.1,0.5
		c0-0.1,0-0.2,0.1-0.2c0,0.9,0.1,2.1,0.2,3.1c0,0.4,0,0.8,0.2,1C3,42,2.7,40.7,2.8,39.4C2.8,39,3,38.5,3.1,38
		c0.1-0.3,0.2-0.6,0.3-0.9c0.2-0.5,0.4-1.1,0.6-1.6c0.5-1.4,1-2.9,1.7-4C5.8,31.3,5.9,31,6,30.8c0.1-0.2,0.3-0.3,0.4-0.4
		c0.2-0.2,0.2-0.5,0.3-0.7c0-0.1,0-0.1-0.1-0.1C6.6,29.8,6.4,29.9,6.2,30z M25.5,31.2c-0.1,0-0.1-0.2-0.3-0.2
		C25.2,31.2,25.4,31.3,25.5,31.2z M21.5,31.4c0,0,0-0.1,0-0.1c-0.4-0.7-1.9-0.2-2.6,0c-0.4,0.6-0.8,0.9-0.9,1.5c0,0,0.1,0,0.1,0
		c0,0.1-0.1,0.1-0.1,0.1c0.1,0.6,0.5,0.9,0.6,1.5c0.1,0.1,0.2,0.2,0.3,0.3c0.2,0.7,0.8,1.2,1.2,1.9c0.2,0,0.2,0,0.3,0.1
		c0.2,0.1,0.4,0.3,0.7,0.4c0.5,0.2,1,0.4,1.4,0c-0.2-0.4-0.7-0.3-0.9-0.3c-0.5-0.1-0.7-0.4-1-0.6c-0.2-0.1-0.4-0.2-0.5-0.4
		c-0.1-0.1-0.1-0.3-0.2-0.4c-0.1-0.2-0.4-0.3-0.5-0.5c-0.1-0.1-0.2-0.5-0.3-0.8c-0.2-0.5-0.5-1.2-0.3-1.8c0.4-0.5,0.9-1,1.7-0.9
		c0.3,0,0.6,0.2,0.8,0.3c0.3,0.2,0.3,0.8,0.7,0.7C22.1,31.9,21.6,31.6,21.5,31.4z M20,33.7c-0.1-0.2-0.2-0.7-0.1-1
		c0.1-0.2,0.3-0.2,0.3-0.4c-0.1-0.4-0.4-0.1-0.8-0.2c0,0.3-0.4,0.4-0.4,0.7c0,0.1,0.1,0.2,0.2,0.5c0.1,0.1,0.1,0.3,0.1,0.4
		c0,0.1,0.1,0.2,0.2,0.3c0.2,0.3,0.4,0.8,0.6,1c0.2,0.2,0.4,0.2,0.6,0.3c0.1,0.1,0.1,0.2,0.3,0.2c0.3,0.1,0.6,0.2,0.9,0.3
		c0.1,0,0.2,0.2,0.4,0.1c0-0.6-0.7-0.5-1.1-0.8c-0.1-0.4-0.6-0.4-0.6-0.9c-0.1-0.7,0.5-1.3,0.8-1.5c0-0.2-0.2-0.3-0.3-0.4
		c-0.7,0.2-1,1-0.9,1.8C20,34.1,20.1,33.8,20,33.7z M25.3,33.1c-0.1,0.3-0.2,0.7-0.4,0.7c0,0.4-0.2,0.7-0.4,0.8
		c-0.2,0.2-0.6,0.3-0.8,0.5c0,0-0.1,0.2-0.1,0.3c-0.2,0.5,0.1,0.7,0.5,0.8c0.2,0.1,0.4,0.1,0.6,0.2c0.7,0.2,1.5,0.6,1.2,1.4
		c0.3,0.2,0.5,0,0.6-0.1c0.3-0.1,0.4-0.5,0.3-0.8c-0.1-0.3-0.4-0.5-0.6-0.7c-0.5-0.1-0.9-0.2-1.2-0.4c0-0.5,0.2-0.8,0.4-1
		c0.1,0,0.1,0.1,0.2,0.1c0.2-0.2-0.2-0.4-0.2-0.7c-0.1-0.4,0.2-0.7,0.1-1c-0.1,0-0.1-0.1-0.1-0.1C25.4,33.1,25.4,33.1,25.3,33.1z
		 M22.3,33.8c0.1-0.2,0.3-0.1,0.4-0.2c0-0.3-0.1-0.5-0.2-0.7C22,32.9,22.1,33.7,22.3,33.8z M16.9,33.5c-0.4,0-1.1-0.2-1,0.2
		c0,0.3,0.4,0.2,0.6,0.4c0.1,0.1,0.2,0.3,0.3,0.4c-0.2,0.1-0.4,0-0.6,0.1c-0.9,0.4-1.5,1.1-1.8,2.2c-0.1,0.1-0.3,0.3-0.1,0.4
		c0.6-1,1.3-1.9,2.7-2.1c0-0.1,0.2-0.1,0.2-0.1c0.1-0.1,0.1-0.3,0.2-0.3c-0.1-0.3,0.1-0.5,0.1-0.7C17.2,33.9,17.1,33.7,16.9,33.5z
		 M14.3,33.6c-0.4,0.1-1.1,0.8-1.3,1.1c-0.3,0.5-0.5,1.2-0.6,1.8c0.6-1.2,1.1-2.5,2.8-2.4c0-0.2-0.3-0.2-0.3-0.3
		c-0.2,0.1-0.3,0.1-0.5,0c-0.1,0.1-0.3,0.3-0.5,0.2c0.2-0.1,0.4-0.3,0.6-0.3C14.5,33.5,14.3,33.6,14.3,33.6z M15.8,34.1
		c-1.1,0.4-2.2,1.1-2.2,2.5c0.3-1.1,1.3-1.9,2.5-2.2c0.1,0,0.2,0.1,0.3,0.1C16.3,34.1,16,34.1,15.8,34.1z M17.7,35.7
		c0.3,0.5,0.6,1,0.8,1.6c0.1,0.3,0.4,0.7,0.3,1c-0.5-0.7-0.7-1.7-1.2-2.3c0,0.4,0.2,0.7,0.4,1c0.4,0.9,0.8,1.7,1.1,2.6
		c0.2,0.4,0.4,0.7,0.5,1.1c0,0.1,0,0.2,0,0.3c0.1,0.3,0.2,0.4,0.1,0.6c0.6,1.7,1.1,3.3,1.2,5.4c-2.5-0.6-5.3-1-8.2-1.2
		c-0.2,0,0,0.2-0.1,0.2c-0.2,0-0.3,0.1-0.3,0.3c0,0.1,0.1,0.1,0.1,0.1c0.1,0,0.1,0.1,0.2,0.1c0.3,0.1,1,0,1.3,0.1c0,0,0,0.1,0.1,0.1
		c0.1,0,0.3,0,0.4,0c1.8,0.3,3.5,0.5,5.2,0.8c0.1,0,0.3,0,0.4,0.1c0,0,0,0.1,0,0.1c0,0,0.1,0,0.1,0c0.9,0.2,1.6,0.8,2.5,0.5
		c-0.1-0.3-0.1-0.7-0.1-1c0-0.4-0.2-0.8-0.3-1.2c-0.1-0.6-0.1-1.1-0.3-1.6c-0.2-0.7-0.5-1.6-0.8-2.2c-0.1-0.3-0.2-0.7-0.3-0.9
		c0-0.1,0-0.1,0-0.2c-0.2-0.7-0.3-1.4-0.6-1.9c-0.2-0.5-0.4-0.8-0.5-1.2c-0.1-0.2-0.1-0.4-0.2-0.5c0-0.1-0.1-0.1-0.2-0.2
		c-0.3-0.4-0.5-0.8-0.6-1.2c-0.5-0.3-0.6-1-1.1-1.3C17.4,34.9,18,35.3,17.7,35.7z M25.5,35.4c-0.1,0.4,0.3,0.1,0.6,0.3
		c0-0.1,0-0.2,0-0.2C26,35.4,25.7,35.3,25.5,35.4z M27.9,35.6c-0.3-0.2-0.7,0-1-0.2C27,35.8,27.7,36,27.9,35.6z M16.2,35.8
		c-0.4,0.4-0.8,0.8-1,1.5c0.2,0,0.1-0.2,0.3-0.2c0.6,0.1,0.7-0.6,1.1-1c-0.1,0,0-0.1,0-0.2C16.3,36,16.3,35.8,16.2,35.8z M16.1,37.2
		c-0.3,0-0.4,0.2-0.7,0.3c-0.2,0.1-0.6,0-0.7,0.2c0.1,0,0.3-0.1,0.2,0.1c-0.4,0.3-0.6-0.2-1-0.2c-0.3,0-0.6,0.6-0.9,0.8
		c-0.2,0.2-0.6,0.3-0.7,0.6c-0.1,0.1,0,0.3-0.1,0.4c0.4-0.1,0.9,0.1,1.1-0.2c0,0.2-0.1,0.2-0.1,0.3c0.4-0.2,0.3-0.7,0.7-0.9
		c0.4-0.2,0.9-0.1,1.4,0.1c0-0.5,0.3-0.9,0.6-1.3c0.7,0,1,0.4,1.5,0.7c-0.1-0.5-0.5-0.7-1-0.9c0.2-0.1,0.4-0.5,0.5-0.4
		c0.1,0,0.2,0.4,0.3,0.6c0.1,0.2,0.3,0.5,0.4,0.7c0.3,0.8,0.7,1.6,1,2.3c0.3,0.8,0.5,1.8,0.7,2.6c0.2,0.9,0.5,2,0.5,2.7
		c-0.6-0.2-1.4-0.3-2.1-0.5c-0.5-0.1-1.1-0.2-1.6-0.3C16,45.1,16,45,15.8,45c-0.6-0.1-1.2-0.1-2-0.1c-0.5,0-1.2-0.1-1.5,0.2
		c0.9,0.3,2,0,3.1,0.2c1.6,0.3,3.3,0.8,4.7,1.1c0.1-0.4,0.1-0.7,0-0.9c0-0.1,0.1-0.2,0.1-0.3c0-0.4-0.2-0.9-0.4-1.4
		c-0.1-0.4-0.1-0.7-0.2-1c0-0.1-0.1-0.1-0.1-0.2c0-0.1,0-0.2,0-0.3c-0.3-1.5-0.8-2.6-1.4-3.8c-0.2-0.5-0.4-1.1-0.7-1.5
		c-0.2-0.2-0.4-0.3-0.5-0.6C16.6,36.6,16.5,37,16.1,37.2z M25.5,37.5c0-0.1-0.2-0.1-0.1-0.2c-0.7-0.4-1.3-0.5-2.1-0.5
		c0.2,0.4,1,0.3,1.3,0.6c0,0,0,0.2-0.1,0.1c0,0,0-0.1,0,0C24.7,37.6,25.2,37.6,25.5,37.5z M7.3,36.6C7.2,37.2,7,37.8,7,38.5
		c0,0.7,0.1,1.3,0.1,2c0,0.2,0,0.5,0,0.7c0,0.6,0.5,1.4,0.3,2.2c0.2,0,0,0.3,0.2,0.4C7.7,45,8,46.5,8,47.9c0,0.6,0.1,1.3,0,1.9
		c-0.1,0.5-0.2,1.1-0.3,1.6c-0.1,0.5-0.2,1-0.3,1.4C7.3,53.2,7,53.6,6.9,54c0,0.1,0,0.2-0.1,0.4c-0.1,0.2-0.5,0.4-0.4,0.8
		c0.5-0.4,0.8-1.3,1.3-1.8c0.1-0.8,0.5-1.6,0.7-2.5c0.1-0.9,0.2-1.9,0.2-2.8c0-0.8,0-1.7,0-2.3c0-0.1-0.1-0.2-0.1-0.3
		c0-0.1,0.1-0.2,0.1-0.3c0-0.3-0.2-0.7-0.2-1.1c-0.2-1.1-0.6-2-0.8-3.1c-0.3-1.5-0.3-2.9,0-4.5c0,0-0.1,0-0.1,0
		C7.3,36.5,7.3,36.5,7.3,36.6z M22.9,38.1c-0.3-0.2-0.9-0.3-1.3-0.4c0-0.2-0.1-0.2-0.4-0.2c-0.2,0.4-0.2,0.9-0.1,1.3
		c0.1,0.6,0.4,1.1,0.4,1.7c0.2,0.2,0.2,0.5,0.3,0.7c0,0.1-0.1,0.1-0.1,0.2c0.1,0,0.2,0.1,0.3,0.3c0,0.1,0,0.2,0,0.3
		c0.4,0.5,0.4,1.4,1.1,1.6c0.1-0.3-0.3-0.3-0.3-0.5c0.1-0.2,0.3-0.3,0.6-0.3c0,0.2-0.2,0.8,0,0.8c0.1,0,0.1-0.2,0.1-0.2
		c0.1-0.3,0.1-0.6,0.1-0.9c0.1-0.6-0.1-0.9-0.1-1.4c0-0.3,0-0.6-0.1-0.9c-0.1-0.6-0.5-1.2-0.6-1.8c0.1,0,0.3,0,0.4-0.3
		C23.1,38,23,38.1,22.9,38.1z M8.2,38.9c0,1.1,0.4,2.1,0.6,3c0.1,0.5,0.2,0.9,0.4,1.4c0.1,0.5,0.3,0.9,0.4,1.4
		c0.2,1,0.1,2.1,0.1,3.2c0,0.7-0.1,1.3-0.1,1.8c0,0.1-0.2,0.3,0,0.4c0.1,0,0.1-0.1,0.1-0.2c0.1-0.4,0.2-0.8,0.5-1
		c0-0.4,0.2-0.6,0.3-0.9c0.7-0.7,0.7-1.7,0.8-2.9c0-0.4,0-0.8,0-1.2c0-0.3,0.2-0.6,0.2-0.9c0-0.4-0.1-0.9-0.1-1.4c0-0.5-0.1-1,0-1.4
		c-0.1-0.3-0.2-0.7-0.2-1.1c-0.2,0-0.3,0.1-0.5,0c-0.1,0-0.3-0.1-0.4-0.2C10,38.7,9.7,38.3,9.3,38c-0.4-0.4-0.7-0.8-1-0.9
		C8.2,37.5,8.2,38.3,8.2,38.9z M16.2,39.5c0.4,0.1,0.8,0.2,1.1-0.1c-0.1-0.2,0-0.3,0.1-0.4c-0.3-0.2-0.2-1.3-0.9-1.2
		C16.2,38.4,16,38.8,16.2,39.5z M14.9,39c-0.3,0.2-0.6,0.1-0.8,0.3c0,0.2-0.1,0.3-0.1,0.5c0.1,0.2,0.4,0.3,0.5,0.5
		c0.3-0.1,0.7-0.2,1.1-0.2C15.7,39.6,15.3,39.2,14.9,39z M17,40.5c0,0.5,0.4,0.5,0.4,1c0.2,0.1,0.5-0.2,0.7-0.1
		c0.1-0.5-0.2-0.8-0.4-1.2C17.6,40.4,17.3,40.5,17,40.5z M12.5,40.3c0,0.3-0.2,0.4-0.2,0.7c0.7,0.4,1.3-0.1,1.3-0.8
		C13.3,40.1,12.8,40.1,12.5,40.3z M15,40.9c-0.3,0-0.5-0.2-0.7-0.1c-0.3,0.1-0.3,0.4-0.6,0.5c0,0.2-0.1,0.4,0,0.6
		c0.3,0.1,0.7,0,0.9,0c0.1-0.3,0.3-0.5,0.4-0.8c0.2-0.1,0.5,0,0.5-0.3C15.4,40.7,15.3,40.9,15,40.9z M16.2,40.8
		c-0.2,0.1-0.4,0.1-0.5,0.2c-0.3,0.4-0.2,1.3,0.3,1.5c0.2,0.1,0.4-0.1,0.7-0.2C16.9,41.7,16.7,41,16.2,40.8z M4.4,40.8
		C4.5,40.8,4.5,40.8,4.4,40.8C4.5,40.7,4.5,40.7,4.4,40.8C4.5,40.7,4.5,40.7,4.4,40.8C4.4,40.7,4.4,40.7,4.4,40.8z M17.4,42.3
		c-0.1,0.6,0.4,0.7,0.6,1c0.1-0.1,0.3,0.2,0.5,0.2c0.1,0,0.1-0.2,0.2-0.2c-0.1-0.4-0.1-0.9-0.4-1.1c0.1-0.1,0-0.2,0-0.3
		C17.9,42,17.6,42.1,17.4,42.3z M12.6,42.6c-0.3,0.1-0.5,0.3-0.4,0.7c0.3,0.3,1,0.3,1.3,0.5c-0.2,0.2-0.7,0-0.9,0.2
		c0.4,0.1,0.9,0,1.3,0c-0.4-0.3-0.5-1.1,0-1.4C13.7,42.1,12.3,42.1,12.6,42.6z M15,42.7c-0.4-0.2-0.9,0.3-0.8,0.7
		c0.1,0.6,0.8,0.6,1.3,0.8C15.7,43.5,15.5,42.9,15,42.7z M16.6,43.2c-0.1,0.1-0.2,0-0.3,0.1c0.1,0.3-0.3,0.5-0.3,0.8
		c0,0.3,0.3,0.3,0.6,0.3c0.4,0,0.7,0.2,0.8-0.1c0-0.3,0-0.6-0.1-0.9C16.9,43.5,16.7,43.4,16.6,43.2z M18.3,44
		c-0.2,0.2-0.4,0.3-0.4,0.7c0.4,0,0.5,0.2,0.7,0.3c0.1-0.1,0.3,0.1,0.4,0.1c0,0.2,0.1,0.5,0.3,0.4c-0.2-0.3-0.1-0.5-0.1-0.9
		c-0.2-0.1-0.2-0.5-0.4-0.6C18.8,44.2,18.5,43.9,18.3,44z M23.6,45.2c0.2,0.1,0.5,0,0.6,0.2c-0.3,0-0.8,0.1-1.3,0
		c0.1,0.2,0.5,0.2,0.6,0.3c0.3,0.1,1,0.1,1.4,0.3c-0.3,0.2-1.2,0.2-1.6,0.2c-0.1,0.1-0.1,0-0.3,0c0.1,0.2,0.3,0.1,0.5,0.2
		c0.2,0.1,0.7,0.2,0.8,0.3c0.2,0,0.6,0,0.7,0.2c-0.7,0.1-1.5,0.1-2,0.3c0.8,0.3,1.6,0.3,2.5,0.4c-0.1,0.2-0.4,0.1-0.6,0.2
		c-0.5,0-1.1,0.1-1.5,0C23.3,48,23.2,48.1,23,48c0.1,0.2,0.5,0.2,0.7,0.2c0.5,0.1,1.2,0.2,1.8,0.2c-0.6,0.3-1.5,0.1-2,0.2
		c-0.1,0-0.1-0.1-0.2-0.1c-0.1,0.1-0.5,0-0.5,0.2c0.5,0.1,1,0.3,1.7,0.4c0.4,0.1,0.9-0.1,1.1,0.2c-0.8,0-1.8,0-2.6,0
		c0-0.1-0.4-0.2-0.5,0.1c0.2,0.1,0.4,0.1,0.6,0.1c0.2,0,0.5,0.2,0.8,0.2c0.4,0.1,0.9,0,1.3,0.2c-0.8,0.2-1.6,0-2.3,0.4
		c0.6,0,0.9-0.1,1.3,0.1c0.1,0.1,0.1,0.3,0.3,0.4c0.1,0,0.1,0.1,0.2,0.1c0-0.1-0.1-0.1,0-0.3c0.3,0,0.2-0.3,0.4-0.3
		c0.3,0,0.5-0.2,0.8-0.1c0.2,0.1,0.3,0.4,0.6,0.4c0.2,0,0.2-0.2,0.4-0.3c0.8-0.3,1,0.3,1.5,0.5c0.3-0.2,0.5-0.4,0.8-0.6
		c0.1,0,0.1,0.2,0.2,0.2c0.2-0.3-0.1-0.5-0.2-0.7c-0.1-0.2-0.2-0.6-0.2-0.9c0-0.1,0.1-0.1,0-0.1c0-0.2-0.2-0.5-0.2-0.7
		c0-0.1,0.1-0.1,0-0.2c0-0.2-0.2-0.4-0.2-0.6c0-0.1,0.1-0.1,0.1-0.3c-0.1-0.1-0.2-0.2-0.4-0.3c0,0.1-0.1,0.1-0.2,0.1
		c-1.9-0.5-3.1-1.5-4.5-2.4c-0.3,0.3-0.9,0-1.2,0.1C22.8,44.9,23.2,45.1,23.6,45.2z M12.9,47.3c-0.3,0.1-0.2,0.3-0.4,0.5
		c-0.1,0.1-0.2,0.1-0.2,0.2c-0.2,0.3-0.2,0.6-0.2,1c0.1,0.3,0.5,0.5,0.4,0.7c-0.5,0-0.8-0.3-0.8-0.6c-0.1-0.4,0.3-1.3,0.6-1.5
		c-0.2-0.3-0.5-0.2-0.8-0.3c-0.2,0.9-0.8,1.7-0.7,2.6c0.2-0.1,0.4,0.1,0.6,0.1c1,0.1,2.1-0.1,2.7-0.6c0.2-0.4,0.4-0.9,0.4-1.5
		c-0.1-0.1-0.2-0.1-0.1-0.3c-0.5,0-0.6-0.2-1.1-0.1c-0.1,0.4-0.5,0.6-0.4,1.2c0.2,0.1,0.2,0.3,0.4,0.3c0.2-0.5,0.4-0.9,0.7-1.2
		c0,0.4-0.2,0.7-0.3,1.2c-0.4,0-0.3,0.3-0.6,0.3c-0.2,0-0.6-0.3-0.6-0.7c0,0,0-0.1,0.1-0.2c0.1-0.4,0.1-0.8,0.3-1.1
		C13,47.3,13,47.2,12.9,47.3z M10.4,51.1c1.6,0.6,3.4,0,3.9-1.2c0.1-0.1,0.2-0.2,0.3-0.3c0-0.2,0.1-0.4,0.1-0.4
		c0-0.2,0.1-0.4,0.2-0.6c0-0.2-0.1-0.5,0.2-0.7c0,0.8,0.2,1.3,0,1.9c-0.1,0.6-0.7,1.2-1,1.7c-0.1,0.2-0.3,0.4-0.4,0.5
		c-0.2,0.4,0,0.8,0.1,1.1c0.4,0.7,1,1.2,1.6,1.8c0.2,0,0.1,0.1,0.3,0.1c0.1,0.1-0.1,0.1,0,0.2c0.2,0,0.4-0.2,0.4-0.5
		c0-0.3-0.4-0.4-0.6-0.6c-0.2-0.2-0.7-0.7-0.7-0.9c-0.1-0.4-0.1-0.9-0.1-1.2c0.1-0.5,0.2-1,0.4-1.5c0.2,0.3,0,0.8-0.1,1.1
		c-0.1,0.6,0,1.1,0.3,1.5c0.3,0.6,0.9,1.2,1.3,1.7c0.1,0.5-0.3,0.8-0.7,1c-0.3,0-0.6,0.1-0.8,0.2c0.4,0,0.9-0.2,1.2-0.4
		c0.8-0.6,0-1.6-0.3-2.2C16,53.3,16,53.1,15.9,53c-0.2-0.4-0.4-0.6-0.5-0.9c-0.2-1,0.3-1.7,0.4-2.4c0-0.2-0.1-0.5,0.1-0.8
		c-0.1-0.3-0.1-0.6-0.2-1c-0.2-0.1-0.6-0.2-0.8-0.2c0,0.4-0.1,0.8-0.2,1.2c-0.4,0.8-1.2,1.4-2.3,1.5c-0.5,0.1-1,0-1.5,0
		c-0.1,0.2-0.2,0.3-0.3,0.3c-0.1,0.1-0.4,0-0.3,0.2C10.4,51.3,10.2,51,10.4,51.1z M16.5,48c-0.1,0.3,0.2,0.1,0.2,0.3
		c-0.1,0.5,0,0.9-0.1,1.3c-0.1,0.3-0.2,0.5-0.3,0.8c-0.4,0.8,0.2,2.4,0.5,2.9c0.1,0.1,0.1,0.3,0.2,0.4c0.1,0.2,0.3,0.4,0.5,0.6
		c0.3,0.5,0.5,1.2,0.2,1.8c-0.3,0.1-0.5,0.5-0.9,0.7c-0.2,0.1-0.5,0.1-0.8,0.2c-0.7,0.1-0.9,0.1-1.5,0c-0.6-0.1-1.1-0.2-1.1-0.7
		c0-0.4,0.5-0.6,0.8-0.7c0.3-0.1,0.7-0.2,0.9-0.3c0.1,0,0.3,0.1,0.3-0.1c0-0.2-0.4-0.2-0.8-0.3c-0.3,0-0.5,0-0.7-0.1
		c-0.6,0.1-1.3,0.6-1.3,1.4c0,0.4,0.3,0.7,0.5,1.1c0.7,0.4,1.6,0.6,2.9,0.6c0.4-0.2,0.8-0.5,1.3-0.6c0.1-0.1-0.1-0.2,0-0.2
		c0.1-0.2,0.4-0.2,0.5-0.3c0.2-0.2,0.2-0.4,0.4-0.7c0.1-0.2,0.2-0.3,0.2-0.4c0.2-0.5-0.1-0.9-0.2-1.3C18,54,18,53.8,17.8,53.6
		c-0.2-0.3-0.5-0.7-0.5-1.1c0-0.1,0-0.3,0-0.5c0-0.3-0.1-0.6-0.1-0.8c0.1-0.5,0.5-0.8,0.6-1.4c0.1-0.7-0.1-1.1-0.3-1.8
		C17.2,48,16.8,48.1,16.5,48z M22.7,50.8c0.2,0.1,0.3-0.2,0.6-0.2c0-0.1,0-0.2-0.1-0.2C23.1,50.6,22.8,50.6,22.7,50.8z M30.5,51.2
		c0.3,0.2,0.5,0.3,0.8,0.1c0-0.5-0.3-0.5-0.8-0.5C30.5,51,30.5,51.1,30.5,51.2z M26.8,51.3c0.1,0.2,0.5,0.1,0.8,0.3
		c0.1-0.1,0.2-0.2,0.2-0.4C27.5,50.8,26.9,50.9,26.8,51.3z M29.5,51.2c-0.1-0.1-0.2-0.2-0.4-0.2c-0.2,0.1-0.5,0.2-0.6,0.5
		c0.2,0.3,0.5,0.1,0.8,0.1C29.5,51.3,29.4,51.3,29.5,51.2z M23.1,51.2c0.4,0.1,0.7,0.3,0.9,0.1C24,50.7,23.2,50.7,23.1,51.2z
		 M25,51.1c0,0.4,0.6,0.3,1,0.3c0.1-0.2,0-0.3-0.1-0.5C25.5,51,25.3,51,25,51.1z M22.8,51.8c0.2,0.2,0.4,0.3,0.6,0.5
		c0.1,0.1,0.3,0.2,0.3,0.4c0,0-0.1,0-0.1,0c0,0,0.2,0,0.2,0c0.1,0.1,0.2,0.4,0.3,0.5c0.1,0.2,0.2,0.4,0.3,0.6
		c0.1,0.1,0.1,0.3,0.3,0.3c-0.2-0.4-0.3-0.7-0.6-1c0-0.4-0.4-0.4-0.4-0.8c-0.5-0.3-0.9-0.6-1.1-1.2c0,0-0.1,0-0.1,0
		C22.4,51.5,22.7,51.7,22.8,51.8z M32.5,52.1c0-0.3-0.3-0.4-0.7-0.4C32,51.9,32.2,52,32.5,52.1z M30.1,52c-0.2,0.2-0.7,0.1-0.7,0.4
		c0.2,0.3,0.5,0.4,1,0.4C30.6,52.4,30.4,52.1,30.1,52z M12.6,52.3C12.6,52.4,12.6,52.4,12.6,52.3c0.4-0.1,0.7-0.4,0.9-0.6
		c0,0,0.3,0,0.1-0.2C13.2,51.7,13,52,12.5,52c-0.6,0.1-1.4-0.2-2-0.2c-0.4,0-0.7,0.3-1,0.4c-0.3,0.2-0.4,0.2-0.4,0.4
		c0-0.1,0.1,0,0.1-0.1c1,0.4,2.4,0.5,3.1-0.1c-0.1-0.1-0.1,0.1-0.1,0C12.5,52.4,12.5,52.5,12.6,52.3z M23.7,52.5
		c0.3,0,0.6,0.5,0.9,0.3c0-0.1,0.1-0.5-0.1-0.5c-0.2,0.1-0.4-0.2-0.7-0.2C23.9,52.3,24,52.4,23.7,52.5z M25.2,52.2
		c0.1,0.2-0.2,0-0.1,0.1c0.2,0.2,0.4,0.3,0.7,0.5c0.2-0.1,0.3-0.3,0.4-0.4c0-0.5-0.5-0.3-0.8-0.3C25.3,52.2,25.4,52.3,25.2,52.2z
		 M27.5,52.2c-0.3,0.1-0.7,0-0.8,0.3c0.2,0.2,0.3,0.4,0.7,0.4C27.6,52.7,27.6,52.4,27.5,52.2z M28,52.4c0.2,0.2,0.4,0.5,0.8,0.5
		c0.2-0.1,0.2-0.4,0.2-0.7C28.6,52.2,28.2,52.1,28,52.4z M31.7,52.7c0.3,0.2,0.4,0.5,0.7,0.7c0-0.2,0.2-0.2,0.2-0.4
		C32.5,52.5,31.8,52.1,31.7,52.7z M33,52.8c0.1,0.1,0.2-0.1,0.5,0C33.5,52.6,33,52.6,33,52.8z M27.1,53c-0.3,0-0.7-0.2-0.9-0.2
		c-0.3,0.3-0.8,0.3-1.2,0.1c-0.2,0.2-0.5,0.1-0.6,0.3c0.8-0.2,1.2,0.4,1.6,0.3c-0.1-0.4,0.5-0.4,0.7-0.7c0,0.1-0.1,0.1-0.1,0.2
		c0.4,0.1,0.6,0.4,1,0.6c0.1-0.2-0.1-0.1-0.1-0.3c0.5-0.5,1,0.2,1.4,0.3c0-0.1,0-0.2,0-0.3c0.4-0.4,0.9,0.2,1.2,0.2
		c0-0.2-0.2-0.1-0.2-0.3c0-0.1,0.2-0.1,0.3-0.3c-0.2,0-0.4,0-0.6-0.1c-0.2,0.3-0.4,0.2-0.7,0.2c-0.2,0-0.3,0.1-0.5,0.1
		c-0.2,0-0.4-0.2-0.6-0.2c-0.2,0-0.3,0.2-0.4,0.2C27.2,53.2,27.3,53,27.1,53z M33.5,53.3c0,0.3,0.4,0.4,0.6,0.6
		c0.1-0.1,0.2-0.2,0.2-0.4C34.1,53.3,33.7,53.1,33.5,53.3z M8.8,53.9c0.4,0.2,0.9,0.2,1.3,0.4c0.1,0,0.1,0.1,0.2,0.1
		c0.5,0,1.7-0.5,2.1-0.8c0.1,0,0.2-0.1,0.2-0.1c0.3-0.2,0.3-0.5,0.5-0.7c0,0-0.1,0-0.1,0c-0.1,0.1-0.4,0.1-0.6,0.2
		c-0.2,0.1-0.4,0.3-0.6,0.3c-0.2,0.1-0.5,0.1-0.8,0.2c-0.8,0-1.2-0.3-2-0.2c-0.4,0.1-0.7,0.4-1,0.5c0.1,0.1,0.2,0.3,0.3,0.4
		C8.5,54,8.6,53.9,8.8,53.9z M30.9,54.6c0.3,0.2,0.6,0.2,0.7-0.1c0-0.2-0.3-0.5-0.4-0.6c-0.1-0.1-0.2-0.2-0.2-0.3
		c-0.1,0-0.2,0-0.2,0c-0.2-0.1-0.3-0.3-0.4-0.2C30.3,53.7,30.7,54.3,30.9,54.6z M33.4,54.6c0.1-0.1,0.2-0.1,0.3-0.3
		c-0.1-0.1-0.1-0.3-0.2-0.4c-0.3-0.1-0.6-0.1-0.8-0.1C33,54.1,33.3,54.2,33.4,54.6z M27.4,55.3c0.1-0.2-0.1-0.3,0-0.6
		c-0.3-0.4-0.3-0.9-0.9-1.1c0,0.1-0.1,0.1-0.1,0.2C26.4,54.4,26.8,56,27.4,55.3z M33.2,54.5c-0.1-0.3-0.3-0.6-0.6-0.7
		C32.7,54.1,32.9,54.4,33.2,54.5z M26,55.6c0.1-0.1,0.2-0.2,0.3-0.4c-0.3-0.7-0.7-1.3-1.4-1.6C24.9,54.4,25.4,55.2,26,55.6z
		 M29.4,54.8c0.1,0.3,0.7,0.8,0.8,0.2c0-0.1-0.1-0.2-0.2-0.4c0-0.1,0-0.2,0-0.2c0,0-0.1-0.2-0.2-0.3c-0.1-0.2-0.5-0.2-0.6-0.3
		C29.3,54.1,29.3,54.5,29.4,54.8z M28,54.7c0.3,0.2,0.3,0.7,0.7,0.8c0.4-0.7-0.1-1.5-0.8-1.7C28,54.1,28.1,54.4,28,54.7z M32,55.5
		c-0.6,0-0.8-0.4-1.3-0.5c-0.1,0,0-0.3-0.1-0.2c-0.3,0.2-0.1,0.9-0.4,1.2c0.2,0,0.2-0.2,0.3-0.1c0.1,0.4-0.2,0.1-0.3,0.1
		c-0.1,0-0.1,0.1-0.2,0c-0.3-0.1-0.6-0.3-0.8-0.4c0.1-0.1,0.1-0.2,0-0.3c-0.3,0.1-0.1,0.6-0.4,0.7c-0.3-0.3-0.8-0.3-0.9-0.7
		c-0.3,0.1-0.3,0.5-0.5,0.7c-0.3,0-0.7-0.1-1-0.2c-0.1,0.2,0.2,0.1,0.1,0.2c-0.2,0-0.2,0.1-0.4,0c0.1,0.4,0.6,0.5,0.9,0.7
		c0.7,0.4,1.3,0.8,2,1.1c0.8,0.4,1.7,0.9,2.5,1c0.6,0.3,1.5,0.4,2.2,0.5c0.1-0.2,0.2-0.5,0.2-0.8c0-0.5-0.2-1.1-0.4-1.5
		c-0.1-0.2-0.1-0.4-0.2-0.5c0,0-0.1-0.1-0.1-0.1c-0.1-0.2-0.2-0.4-0.3-0.5c-0.1-0.2-0.2-0.5-0.3-0.7c-0.2-0.3-0.5-0.6-0.6-1
		c-0.1,0-0.1-0.1-0.1,0C31.9,54.5,32.2,55,32,55.5z M12.8,53.6c0,0.1-0.1,0.1-0.1,0.2c0.2,0.2,0.5,0.4,0.8,0.3
		C13.7,53.7,13.3,53.4,12.8,53.6z M35.2,54.7c-0.1-0.4-0.6-0.5-0.8-0.4C34.5,54.6,34.9,55,35.2,54.7z M33.8,55.2
		c-0.1,0.5,0.3,0.9,0.8,0.7c0-0.1-0.1-0.1-0.1-0.2c0.1,0,0.2,0,0.2,0C34.7,55.2,34.1,55.1,33.8,55.2z M11.9,54.4
		C11,55,9.5,54.6,8.5,54.9c-0.6,0.2-0.9,0.4-1.2,0.8c-0.1,0.1-0.2,0.1-0.1,0.2c0.2,0,0.2-0.1,0.4-0.2c0.2-0.1,0.5-0.1,0.7-0.1
		c1.2-0.1,2.4-0.1,3.3-0.2C11.8,55.1,12.1,54.8,11.9,54.4C11.9,54.4,11.9,54.4,11.9,54.4z M12.2,55.2c0.1,0,0.1,0.1,0.3,0.1
		c0.1-0.3,0.2-0.4,0.4-0.6C12.5,54.6,12.3,54.9,12.2,55.2z M16.1,55.2c-0.6,0.5-1.7,0.4-2.3,0.9c-0.1,0.3,0,0.7,0.4,0.6
		c0-0.2-0.2-0.2-0.2-0.5c0.4-0.7,2-0.2,2.2-1C16.2,55.2,16.2,55.2,16.1,55.2z M15.9,56.3c-0.4,0.1-0.8-0.1-1.2,0
		c0.7,0.3,1.7,0.1,2.2-0.2c0.1-0.2,0.5-0.6,0.4-0.8C16.8,55.7,16.5,56.2,15.9,56.3z M35.8,56.8c0.2,0,0.2-0.1,0.4-0.1
		c0-0.5-0.2-0.8-0.6-0.9C35.3,56.3,35.8,56.4,35.8,56.8z M24.2,56.5c0,0.2,0.2,0.4,0.3,0.5c0.1-0.2-0.1-0.3-0.1-0.5
		c0-0.3,0.2-0.7,0.1-0.9C24.5,55.9,24.2,56.3,24.2,56.5z M11.5,55.9c0.1-0.1,0.5,0,0.5-0.2C11.8,55.7,11.4,55.7,11.5,55.9z
		 M24.8,56.2c-0.2,0.3,0,0.9,0.6,0.8C25.7,56.6,25.4,56.1,24.8,56.2z M34.5,56.8c-0.1-0.1-0.1-0.2-0.3-0.3c0,0.4,0.3,0.8,0.8,0.9
		c0.2-0.5-0.2-0.8-0.6-0.9C34.3,56.6,34.6,56.7,34.5,56.8z M7.7,56.2c-0.2,0.3-0.6,0.6-0.6,1c0.3,0.1,0.5-0.3,0.9-0.3
		c0.1,0,0.3,0,0.4,0c0.8,0,1.6,0,2.2-0.2c0.1-0.2,0.3-0.4,0.6-0.5c0-0.1,0.1-0.3,0.1-0.4c-0.4,0.1-1.1,0.2-1.5,0.1
		c0,0,0.2,0,0.1-0.1C9.2,56,8.4,56,7.7,56.2z M25.7,57.5c0.2,0,0,0.3,0.2,0.3c0.1,0,0-0.3,0.1-0.4c0.2,0,0.3,0,0.5,0
		C26.4,57.1,25.7,57.2,25.7,57.5z M24,58.1c0.1,0.2,0.2,0.4,0.4,0.5c0-0.5-0.4-0.7-0.2-1.2c-0.1,0-0.1,0-0.1,0
		C24,57.6,23.9,57.9,24,58.1z M25.1,58.4c0.1,0,0.4-0.2,0.4-0.5c0-0.3-0.4-0.5-0.5-0.5C24.3,57.4,24.6,58.4,25.1,58.4z M11.6,57.2
		c-0.2-0.3-0.8-0.1-1,0.2c0.3,0.2,0.8,0.5,1.1,0.1C11.6,57.4,11.7,57.3,11.6,57.2z M26.5,57.5c-0.3,0.4-0.7,0.7-0.9,1.2
		c0.3-0.2,0.6-0.1,0.8-0.2c-0.1,0-0.2-0.1-0.3-0.2c0.1-0.1,0.1-0.3,0.3-0.3c-0.1,0.6,0.7,0.7,0.8,0.3c-0.1-0.3-0.4-0.4-0.7-0.5
		c0-0.1,0.1-0.1,0.3-0.1C26.9,57.5,26.6,57.5,26.5,57.5z M8.8,57.4c-0.2-0.1-0.4,0.1-0.4,0.3c0.1,0.2,0.3,0.2,0.5,0.3
		C9.1,57.9,8.9,57.6,8.8,57.4z M9.4,57.6c0.1,0.4,0.3,0.7,0.8,0.7c0.2-0.3,0-0.6,0-0.8C9.8,57.5,9.5,57.4,9.4,57.6z M34.7,58.3
		c0,0.3,0.3,0.4,0.6,0.4c0.1-0.2,0-0.2,0-0.4C35,58.3,34.9,58.2,34.7,58.3z M27.6,58.6c0.2,0,0.3,0,0.5,0
		C28.1,58.2,27.6,58.3,27.6,58.6z M27.9,58.9c0.1,0.1,0.1,0.4,0.3,0.5c0.3,0,0.5,0,0.6-0.2c-0.1-0.1-0.2,0-0.2-0.1
		c0-0.1,0.2-0.2,0.1-0.3C28.5,58.5,28,58.7,27.9,58.9z M27.1,58.9c0.1,0.2,0.2,0.5,0.4,0.6C27.6,59.2,27.3,58.8,27.1,58.9z
		 M25.6,59.3c0.1,0.3,0.7,0.3,0.9,0.1C26.8,58.7,25.6,58.6,25.6,59.3z M24.5,58.8c-0.2,0.2,0,0.5,0.1,0.8c0.2,0,0.2-0.2,0.5-0.1
		c0.1-0.1,0.1-0.3,0.1-0.5C25,58.9,24.8,58.8,24.5,58.8z M29.1,59.1c0.3,0,0.6,0.3,0.8,0.1C29.7,59.1,29.4,58.9,29.1,59.1z
		 M11.5,58.9C11.7,58.9,11.5,58.7,11.5,58.9L11.5,58.9z M28.8,59.5c-0.1,0.2,0.1,0.1,0.1,0.3c-0.1,0.1-0.3,0.1-0.4,0.2
		c0.1,0.3-0.4,0.4-0.2,0.8c0.2-0.2,0.3-0.6,0.6-0.8c0.1,0.2,0.1,0.4,0.3,0.4c0.2-0.2,0.5-0.2,0.6-0.5c-0.1-0.1-0.1-0.3-0.3-0.4
		C29.3,59.7,29,59.4,28.8,59.5z M30.1,59.8c0.2,0.2,0.5,0.1,0.8,0.3c0.1,0,0.2-0.3,0.1-0.5C30.7,59.4,30.2,59.5,30.1,59.8z
		 M26.5,59.9c-0.4,0.1-0.7,0-1-0.1c0,0.2,0.4,0.3,0.7,0.3c0.4,0,0.7-0.2,0.9-0.6C26.7,59.5,26.7,59.8,26.5,59.9z M25.2,59.8
		c0.1,0,0.1,0,0.2,0c0-0.2-0.1-0.2-0.2-0.2C25.1,59.7,25.2,59.7,25.2,59.8z M27.1,59.9c0.1,0.3,0.6,0.6,1,0.3
		C28.1,59.7,27.3,59.6,27.1,59.9z M24.6,59.9c0.1,0,0.2,0.1,0.4,0.1c0-0.2,0-0.2,0-0.3C24.9,59.8,24.6,59.7,24.6,59.9z M25.6,60.2
		c-0.2-0.1-0.4,0-0.5-0.1c-0.1,0.1-0.6,0.2-0.4,0.3c0,0,0-0.1,0-0.1c0.1,0.3,0.9,0.6,1,0.1C25.7,60.4,25.7,60.2,25.6,60.2z"/>
	<path class="st0" d="M19,3.6c0,0.1-0.1,0.6-0.2,0.7c0.1,0.9-0.1,1.9-0.1,2.8c0,0.8,0.1,1.6,0,2.4c-0.3,0-0.1-0.3-0.2-0.5
		c-0.1-0.7-0.2-1.5-0.2-2.5c0-1.1,0.1-2.1,0.1-3C18.7,3.6,18.8,3.8,19,3.6z"/>
	<path class="st0" d="M22.1,10.3c0.2-0.1,0.2-0.4,0.3-0.6c0.3-0.6,0.7-1.2,0.9-1.8c0.6-0.8,1-1.9,1.7-2.5c0.1,0,0.1,0.1,0.3,0.1
		c-0.3,0.5-0.7,0.9-1,1.5c-0.1,0.2-0.3,0.5-0.5,0.8c-0.1,0.2-0.4,0.5-0.5,0.7c-0.1,0.2-0.1,0.4-0.2,0.5c-0.1,0.3-0.3,0.5-0.4,0.8
		c-0.1,0.3-0.2,0.6-0.3,1c0.4-0.5,0.4-1.4,0.9-1.7c0.5-1.3,1.5-2.2,2.2-3.4c0.1,0,0.2,0.1,0.4,0.1c0,0.2-0.2,0.1-0.3,0.2
		c-0.5,0.7-1.2,1.6-1.7,2.6c-0.4,0.6-0.7,1.2-1.1,2c-0.1,0.2-0.3,0.6-0.6,0.6c-0.1,0-0.5-0.2-0.3-0.5c-0.1,0-0.2,0-0.4,0
		c-0.1-0.2-0.5-0.2-0.6-0.4c0.2,0,0.2,0.1,0.4,0.1c-0.2-0.3-0.8-0.3-1-0.5c-0.6,0-0.8-0.2-1.3-0.3c-0.1-0.9,0.1-2.2,0.2-2.9
		c0-0.1-0.1-0.4,0.1-0.4c-0.1,1.1-0.1,2.3-0.1,3.3c0.2-0.1,0.1-0.4,0.1-0.6c0.1-1.6,0.4-3.5,0.8-5.2c0.3,0.1,0.5,0,0.6,0
		c-0.5,1.5-0.9,3.1-1.1,4.9c0,0.4,0.1,0.6,0,0.9C20,9.4,20,9.1,20,8.9c0.2-1,0.3-1.9,0.6-2.7c-0.1,1-0.2,2.1-0.3,3.1
		c0.2-0.1,0.4-0.7,0.4-1.2c0.1-0.6,0.1-1,0.3-1.5c0.3-0.9,0.6-1.9,1-2.7c0.2,0,0.3,0.1,0.4,0.2c-0.2,0.3-0.3,0.8-0.6,1.1
		c0,0.2-0.1,0.2-0.1,0.4c-0.2,0.3-0.3,0.6-0.4,0.9c-0.1,0.4-0.2,0.8-0.3,1.3c-0.1,0.5-0.4,1.1-0.1,1.6c0.2-0.1,0.1-0.4,0.1-0.6
		c0.1-0.5,0.3-1.1,0.5-1.6c0.1-0.1,0-0.4,0.3-0.4c-0.2,0.9-0.6,1.6-0.6,2.6c0.3-0.2,0.2-0.6,0.3-0.9c0.1-0.5,0.4-1,0.6-1.6
		c0.4-0.8,0.8-1.6,1.3-2.4c0.1,0,0.1,0.1,0.3,0.1c-0.8,1.6-1.7,3.1-2.1,5.1c0.2-0.1,0.3-0.4,0.4-0.6c0.3-0.6,0.8-1.4,1.1-2.1
		c-0.1,0.2-0.1,0.6-0.3,0.8c0,0.1-0.1,0.1-0.2,0.2c-0.1,0.3-0.2,0.7-0.4,1.1C22.2,9.6,22.1,10,22.1,10.3z"/>
	<path class="st0" d="M22.5,4.8c0.1,0.3-0.2,0.4-0.3,0.7c-0.2-0.1,0-0.3,0.1-0.3C22.4,5,22.5,4.9,22.5,4.8z"/>
	<path class="st0" d="M19.5,4.9c0,0.1-0.1,0.1-0.1,0.2C19.4,5.2,19.4,4.9,19.5,4.9z"/>
	<path class="st0" d="M13.8,7.7c0.5,0.2,0.9,0.8,1.4,1.3c0.3,0.4,0.6,0.6,0.7,1.1c0,0.1,0.2,0.2,0,0.3c-0.4-0.3-0.5-0.8-0.7-1.2
		C15,9,14.8,8.8,14.7,8.6C14.4,8.2,14.1,8,13.8,7.7z"/>
	<path class="st0" d="M5.1,19.2c0.1,0-0.1,0.1-0.1,0.2C5,19.4,5.1,19.3,5.1,19.2z"/>
	<path class="st0" d="M15.7,28.4c0,0.1-0.1,0.2-0.2,0.1C15.6,28.5,15.6,28.4,15.7,28.4z"/>
	<path class="st0" d="M15.7,27.9c0.1-0.1,0.1,0.2,0.2,0.2C15.8,28.2,15.8,27.9,15.7,27.9z"/>
	<path class="st0" d="M15.9,28.2c0.1,0,0.2,0.1,0.2,0.2C15.9,28.4,15.9,28.2,15.9,28.2z"/>
	<path class="st0" d="M34.7,30.5c0.4,0.4,0.2,0.7,0,1.1c-0.2,0.4-0.5,0.7-0.9,1c-0.5-0.1-1.1,0.1-1.4-0.2c0.2-0.2,0.4,0,0.7-0.1
		c0.3,0,0.7-0.1,0.8-0.3c-0.2-0.1-0.4,0-0.7,0c-0.6,0-1.1-0.2-1.6-0.4c0.1-0.2,0.5-0.2,0.8-0.2c0.3,0,0.6-0.1,0.8-0.1
		c0.1,0,0.1,0.1,0.2,0.1c0.1,0,0.2-0.1,0.4-0.1c0.1-0.1,0.2-0.3,0.2-0.4c-0.1-0.2-0.4-0.1-0.5,0c-0.2,0-0.5,0-0.7,0
		c-0.3,0-0.6,0-0.9,0c-0.3-0.1-0.6-0.3-0.8-0.3c-0.3,0-0.5,0.3-0.6,0.6c0,0.1,0.2,0,0.2,0.2c-0.2,0.1-0.5,0-0.6-0.2
		c0-0.2,0.3-0.4,0.5-0.6c0.2-0.2,0.4-0.4,0.5-0.6c0.2-0.1,0.3-0.2,0.4-0.3c0.7-0.4,1.4-0.6,2.2-0.6c0.3,0,0.5,0.1,0.8-0.1
		c0-0.3-0.3-0.3-0.4-0.4c-1.5,0-2.4,0.4-3.4,1.1c-0.1,0.1-0.3,0.2-0.4,0.3c-0.2,0.2-0.4,0.5-0.7,0.6c0.7-1.3,2-2,3.7-2.3
		c0.1,0.1,0.3,0,0.4,0.1c0.5-0.2,0.8-0.1,1.4,0c0-0.3-0.1-0.4-0.3-0.5c-2.5-0.3-3.8,0.8-5.6,1.6c0.3-0.6,0.9-0.9,1.5-1.3
		c0.6-0.4,1.1-0.6,1.9-0.7c0.9-0.2,2.1-0.3,2.9,0.2c0.2,0.3-0.1,0.9-0.3,1.3c-0.1,0.3-0.4,0.5-0.5,0.8C34.8,30,35,30.2,34.7,30.5z
		 M31.5,30.4c0.5-0.2,1,0.2,1.6,0.2c-0.1-0.3-0.1-0.7,0-1C32.3,29.5,31.8,29.9,31.5,30.4z"/>
	<path class="st0" d="M17.5,31.2c0.1,0.1-0.1,0.3-0.1,0.4C17.3,31.5,17.4,31.3,17.5,31.2z"/>
	<path class="st0" d="M2.3,34.2c-0.2-0.1-0.1-0.2,0-0.3C2.3,33.8,2.2,34,2.3,34.2z"/>
	<path class="st0" d="M22.4,38.7c0.2-0.1,0.3,0.4-0.1,0.4C22.3,38.9,22.5,38.8,22.4,38.7z"/>
	<path class="st0" d="M14.4,40c0.1,0,0.3-0.1,0.5-0.1C14.8,40.2,14.5,40.2,14.4,40z"/>
	<path class="st0" d="M22,41c0-0.3-0.1-0.5-0.1-0.9c0.2,0,0.4-0.2,0.5-0.1c0,0.3-0.2,0.3-0.3,0.4c0,0.1,0,0.2,0,0.3
		c0.4,0,0.7-0.4,1-0.2c0.1,0.3-0.2,0.3-0.3,0.4c0,0.1,0.1,0.1,0,0.2c0.1,0,0.2,0,0.2-0.1c0.1,0,0.1,0.2,0.1,0.3
		c0,0.2-0.2,0.1-0.1,0.3c0,0,0,0.1,0,0.1c0.1,0,0.1-0.1,0.2,0c0.2,0.3,0.1,0.6,0.2,0.8c-0.3-0.1-0.6,0.1-1,0.1
		c-0.1-0.2-0.2-0.4-0.3-0.6c0.1-0.3,0.4-0.3,0.6-0.4c0-0.1-0.1-0.1-0.1-0.2c-0.2,0.1-0.4,0.1-0.6,0.2c0-0.1,0.1-0.3,0-0.3
		c0.1-0.2,0.3-0.2,0.5-0.3c-0.1,0,0-0.2,0-0.1C22.6,40.7,22.3,41.1,22,41z M22.9,42.4c0.1-0.2,0.4-0.2,0.6-0.3c-0.1,0,0-0.2-0.1-0.2
		c-0.3,0-0.3,0.1-0.6,0.1C22.6,42.5,22.9,42.2,22.9,42.4z"/>
	<path class="st0" d="M11.5,59.3c1.5-0.4,3.1,0.5,4.7,0c0.2-0.1,0.4-0.2,0.6-0.2c0.7-0.1,1.4,0.3,2,0.3c0.9,0,1.4-0.5,2.1-0.9
		c0.1,0.8,0.2,1.8-0.1,2.5c0.3,0,0.3-0.4,0.5-0.5c0-0.3,0.1-0.5,0.2-0.7c0-0.9-0.4-1.4-0.3-2.5c0.2-0.3,0.2-0.7,0.6-0.8
		c0,0.4-0.1,0.8-0.2,1.1c-0.1,0.8,0.3,1.6,0.1,2.3c-0.1,0.5-0.3,0.7-0.6,1.2c0.2,0.1,0.3-0.2,0.4-0.3c0.2,0,0.2-0.2,0.4-0.2
		c0.4-0.6,0.1-1.6,0.1-2.1c0.3,0.6,0.6,1.5,0.1,2.2c-0.2,0.2-0.6,0.5-0.9,0.6c-0.5,0.2-1.8-0.1-2.3-0.2c-1.9-0.2-4-0.8-5.6-1
		c0-0.1-0.1-0.1-0.2-0.1c-0.2,0-0.5-0.1-0.8-0.2C12.1,59.5,11.7,59.5,11.5,59.3z M17.7,59.9c0.8,0.4,1.9,0.3,2.5-0.2
		c0-0.1,0.1-0.1,0-0.1C19.7,60,18.6,60,17.7,59.9z M20,60.8c0.2,0,0.5-0.4,0.2-0.6C20.2,60.3,20,60.5,20,60.8z"/>
	<path class="st0" d="M3.5,56.2c0.1,0-0.1,0.2-0.1,0.4C3.3,56.5,3.5,56.3,3.5,56.2z"/>
	<path class="st0" d="M18.3,59.1c-0.1,0-0.2-0.1-0.3-0.1c0.3-0.5,0.9-0.7,1.3-1c0.2,0,0.2,0,0.4,0c-0.2,0.3-0.5,0.4-0.7,0.7
		c0.2,0.1,0.2,0.2-0.1,0.1C18.6,58.8,18.4,58.9,18.3,59.1z"/>
	<path class="st0" d="M18.1,57.3c-0.1,0.3-0.4,0.3-0.6,0.5c0-0.1,0.2-0.3,0.4-0.3C18,57.4,17.9,57.3,18.1,57.3z"/>
	<path class="st0" d="M20.5,11.3c-0.2,0,0.1,0,0,0.1c-0.5,0-1.1,0.1-1.6,0.1c-0.2,0-0.3-0.1-0.5-0.1c-0.1,0-0.2,0.1-0.4,0.1
		c-0.2,0.1-0.5,0-0.7,0.1c-0.3,0.1-0.5,0.3-0.8,0.3c-0.3,0.6-0.9,1-1,1.6c0,0.1,0,0.4,0,0.6c0,0.1,0.1,0.2,0.2,0.4
		c0,0.2,0,0.4,0.1,0.5c0.2,0.6,0.7,1.1,0.9,1.6c-0.1,0.1-0.1,0.2-0.2,0.2c-0.7-0.5-1.3-1.1-1.6-2.1c0-0.2,0-0.2,0-0.5
		c0-0.2-0.1-0.2,0-0.5c0.2-1.1,0.7-2,1.5-2.3c-0.1,0.1-0.2,0.2-0.3,0.4c0.2-0.1,0.4-0.3,0.4-0.4c1-0.4,2.6-0.5,3.8-0.3
		c0.1,0,0-0.1,0-0.1c0.2,0,0,0.2,0.1,0.2c0.3,0,0.4,0,0.6,0.1c0.2,0,0.2-0.3,0.4-0.2C21.5,11.4,20.8,11.6,20.5,11.3z"/>
	<path class="st0" d="M6.4,41.2c0.1,0.5,0.2,1,0.2,1.5c0.2,1.4,0.4,3,0.4,4.5c0,0.7-0.1,1.4-0.1,2c0,0.4,0,1.2-0.1,1.8
		c0,0.4,0,0.9-0.1,1.3c-0.1,0.8-0.5,1.5-0.6,2.1c-0.2-0.2,0-0.6,0-0.9c0.2-1.1,0.4-2.1,0.4-3.1c0-1.3,0.2-2.9,0.1-4.6
		C6.5,44.4,6.2,43,6.4,41.2z"/>
</g>
</svg>
