<?xml version="1.0" encoding="utf-8"?>
<!-- Generator: Adobe Illustrator 21.1.0, SVG Export Plug-In . SVG Version: 6.00 Build 0)  -->
<svg version="1.1" id="Layer_1" xmlns="http://www.w3.org/2000/svg" xmlns:xlink="http://www.w3.org/1999/xlink" width="300" height="77.3"
	 viewBox="0 0 300 77.3" enable-background="new 0 0 300 77.3" xml:space="preserve">
<g>
	<g>
		<path fill="#001A56" d="M179.4,51.8c-12.6-12.2-12.9-37.8-24.7-37.2c-0.3,0-0.6,0-0.9,0.1c0.7,27.8,13.7,40,18.8,40
			C175.4,54.7,177.6,53.6,179.4,51.8 M150.4,15.7c0-1.1-0.1-2.1-0.1-3.2l0-0.5c0.2-7.3,5.8-12,12.5-12h31.8
			c6.9,0,12.5,5.5,12.5,12.5l0,0.5c0,0,0,1.5-0.1,3.6c-0.7,12.5-4.4,26.4-11.3,38c-0.6,1.1-1.4,2.3-2.1,3.4
			c-1.3-0.1-2.4-0.2-3.6-0.5c-1.2-0.3-2.3-0.6-3.4-1c-1.7-0.7-3.3-1.5-4.7-2.6c-2.4,2.5-5.4,4.1-9.4,4.1
			C164.4,58.1,151.4,43.1,150.4,15.7 M153.8,11.3l0.7,0c1.4-0.1,2.6,0.1,3.8,0.4c11.5,3.5,12.3,26.6,23.2,37.5c0,0-0.5,1-2.1,2.7
			c1,1,2.2,1.9,2.6,2.2c0.8-0.8,1.4-1.7,2.1-2.7c1.9,1.4,4.1,2.4,6.7,2.9l0.4,0.1l0.8,0.1c7.5-11.3,11.2-25.2,11.7-38.5
			c0-1.1,0.1-2.3,0.1-3.4c0-5.1-4.1-9.2-9.1-9.2h-31.8C158.2,3.4,154.4,6.4,153.8,11.3"/>
		<path fill="#A9112C" d="M179.4,51.8c1.5-1.6,2.1-2.8,2.1-2.8c7.2-11.5,7.1-36.5,22.2-36.5c0,1.1,0,2.3-0.1,3.4
			c-12,0.1-11.9,23.5-19.6,35.4c-0.6,1-1.3,1.9-2.1,2.7C181.1,53.4,180.2,52.6,179.4,51.8 M150.4,15.7c-4.4,2.4-5.9,8.4-5.3,16
			c1.3,17.3,12.7,32.9,27.4,41.4c7.1-3.8,12.9-9.2,17.5-15.6c1.1,0.2,2.3,0.4,3.6,0.5c0,0,1.4-2.1,2.1-3.4
			c13.8-1.9,20.5-26.7,14.2-35.6c-0.8-1.1-1.7-1.9-2.9-2.5c0.1-2.1,0.1-3.6,0.1-3.6c14.7,4.4,9.7,38.8-8.8,44.5
			c-1.7,0.5-2.9,0.6-2.9,0.6c-0.6,0-1.2,0-1.8-0.1c-5.4,8.1-12.5,14.9-21.2,18.9c-16.1-8.4-29.4-26.6-30.7-45
			c-0.6-8.2,1-17.3,8.6-19.9l0,0.5L150.4,15.7z"/>
		<path fill="#001A56" d="M261.6,66.7l-7.6-23h3.1l7.3,22.1c0.3,1,1.3,1.6,2.4,1.6c1.1,0,2.1-0.7,2.4-1.6l7.3-22.1h3.1l-7.6,23
			c-0.7,2.1-2.8,3.5-5.1,3.6C264.4,70.2,262.3,68.8,261.6,66.7 M274.4,17.3v2.9h-16.7v12.4h-2.9V13.7c0-4,3.2-7.2,7.2-7.2h12.4v2.9
			h-12.4c-2.4,0-4.3,1.9-4.3,4.3v3.6H274.4z M237.6,33.1c-6,0-10.9-4.8-10.9-10.7V6.5h3v15.9c0,4.3,3.5,7.8,7.9,7.8
			c4.4,0,7.9-3.5,7.9-7.8V6.5h3v15.9C248.5,28.3,243.6,33.1,237.6,33.1 M237.7,70.3c-6,0-10.9-4.8-10.9-10.7V43.6h3v15.9
			c0,4.3,3.5,7.8,7.9,7.8c4.4,0,7.9-3.5,7.9-7.8V43.6h3v15.9C248.6,65.4,243.7,70.3,237.7,70.3 M297.1,25.7c0-1.6-1.1-3.1-2.6-3.7
			l-11.7-3.9c-2.1-1-3.7-3.1-3.7-5.6c0-3.4,2.7-6.1,6.1-6.1h13v2.9h-13c-1.7,0-3.2,1.4-3.2,3.2c0,1.2,0.7,2.3,1.8,2.9l11.7,3.9
			c2.6,1,4.5,3.5,4.5,6.4c0,3.8-3.1,6.8-6.8,6.8h-14.6v-2.9h14.6C295.3,29.7,297.1,27.9,297.1,25.7"/>
	</g>
	<polygon points="69.8,69 69.8,77.1 71.2,77.1 71.2,73.7 74,73.7 74,72.5 71.2,72.5 71.2,70.3 74.4,70.3 74.4,69 	"/>
	<g>
		<path d="M77.9,70.3h1.2c0.7,0,1.2,0.3,1.2,1.2c0,1-0.6,1.2-1.3,1.2h-1.1V70.3z M81.8,71.5c0-1.3-0.7-2.4-2.4-2.4h-2.9v8.1h1.4
			v-3.2h0.9l1.6,3.2h1.7l-1.9-3.4C81.3,73.5,81.8,72.6,81.8,71.5"/>
	</g>
	<polygon points="84.2,69 84.2,77.1 89,77.1 89,75.9 85.6,75.9 85.6,73.6 88.4,73.6 88.4,72.4 85.6,72.4 85.6,70.3 88.9,70.3 
		88.9,69 	"/>
	<rect x="91.3" y="69" width="1.4" height="8.1"/>
	<g>
		<path d="M97.1,76c-0.6,0-1.5-0.1-2.2-0.3v1.2c0.6,0.2,1.5,0.3,2.2,0.3c1.5,0,2.7-0.7,2.7-2.3c0-1.1-0.5-1.8-2-2.5
			c-0.9-0.4-1.4-0.7-1.4-1.4c0-0.6,0.6-0.9,1.1-0.9c0.6,0,1.4,0.1,2,0.3v-1.2c-0.6-0.2-1.4-0.3-2-0.3c-1.1,0-2.5,0.6-2.5,2.1
			c0,1.2,0.7,1.9,1.9,2.5c0.8,0.4,1.4,0.8,1.4,1.6C98.3,75.8,97.9,76,97.1,76"/>
	</g>
	<polygon points="101.8,69 101.8,70.3 103.7,70.3 103.7,77.1 105.1,77.1 105.1,70.3 107,70.3 107,69 	"/>
	<path d="M110.3,69l-2.3,8.2h1.6l0.5-2h2.3l0.5,2h1.6l-2.3-8.2H110.3z M111.2,70.9L111.2,70.9l0.8,3.1h-1.7L111.2,70.9z"/>
	<polygon points="115.4,69 115.4,70.3 117.3,70.3 117.3,77.1 118.7,77.1 118.7,70.3 120.6,70.3 120.6,69 	"/>
	<path d="M124,69l-2.3,8.2h1.6l0.5-2h2.3l0.5,2h1.6l-2.3-8.2H124z M124.9,70.9L124.9,70.9l0.8,3.1H124L124.9,70.9z"/>
	<polygon points="41,61.7 43.3,56.6 42.1,56.6 40.5,60.6 40.5,60.6 38.9,56.6 37.7,56.6 40,61.7 40,64.7 41,64.7 	"/>
	<g>
		<path d="M45.7,62.1c0,1.8,0.9,2.7,2.7,2.7c1.8,0,2.7-0.9,2.7-2.7v-5.5h-1v5.5c0,1.2-0.5,1.9-1.7,1.9c-1.3,0-1.7-0.9-1.7-1.9v-5.5
			h-1V62.1z"/>
	</g>
	<polygon points="59.3,64.7 59.3,56.6 58.3,56.6 58.3,62.8 58.3,62.8 55.1,56.6 53.9,56.6 53.9,64.7 54.9,64.7 54.9,58.5 55,58.5 
		58.2,64.7 	"/>
	<rect x="62.3" y="56.6" width="1" height="8.1"/>
	<polygon points="69.4,64.7 71.8,56.6 70.7,56.6 68.8,63.4 68.8,63.4 66.9,56.6 65.8,56.6 68.2,64.7 	"/>
	<polygon points="78.6,56.6 74.3,56.6 74.3,64.7 78.7,64.7 78.7,63.8 75.3,63.8 75.3,61 78.1,61 78.1,60.1 75.3,60.1 75.3,57.5 
		78.6,57.5 	"/>
	<g>
		<path d="M83.2,63.9c-0.7,0-1.4-0.1-2.1-0.3v0.9c0.6,0.2,1.4,0.3,2.1,0.3c1.4,0,2.5-0.7,2.5-2.2c0-1.1-0.5-1.9-2-2.5
			c-0.9-0.4-1.4-0.8-1.4-1.6c0-0.7,0.6-1.2,1.3-1.2c0.7,0,1.4,0.1,2,0.3v-0.9c-0.6-0.2-1.3-0.3-2-0.3c-1.1,0-2.3,0.6-2.3,2
			c0,1.2,0.7,1.9,1.9,2.4c0.8,0.4,1.5,0.8,1.5,1.7C84.5,63.4,84,64,83.2,63.9"/>
	</g>
	<rect x="88.3" y="56.6" width="1" height="8.1"/>
	<polygon points="93.7,57.5 93.7,64.7 94.8,64.7 94.8,57.5 96.7,57.5 96.7,56.6 91.8,56.6 91.8,57.5 	"/>
	<polygon points="100.2,61 103.5,61 103.5,64.7 104.5,64.7 104.5,56.6 103.5,56.6 103.5,60.1 100.2,60.1 100.2,56.6 99.2,56.6 
		99.2,64.7 100.2,64.7 	"/>
	<rect x="107.5" y="56.6" width="1" height="8.1"/>
	<polygon points="118.2,61.7 120.5,56.6 119.3,56.6 117.7,60.6 117.7,60.6 116.1,56.6 114.9,56.6 117.2,61.7 117.2,64.7 118.2,64.7 
			"/>
	<path d="M124.9,57.9L124.9,57.9l1,3.6h-2.1L124.9,57.9z M124.3,56.5l-2.4,8.2h1.1l0.7-2.3h2.5l0.6,2.3h1.1l-2.4-8.2H124.3z"/>
	<polygon points="74.7,52.3 77,44.1 75.5,44.1 73.9,50.4 73.9,50.4 72.2,44.1 70.6,44.1 72.9,52.3 	"/>
	<g>
		<path d="M80.6,45.3h1.2c0.7,0,1.2,0.3,1.2,1.2c0,1-0.6,1.2-1.3,1.2h-1.1V45.3z M84.4,46.6c0-1.3-0.7-2.4-2.4-2.4h-2.9v8.1h1.4V49
			h0.9l1.6,3.2h1.7l-1.9-3.4C84,48.6,84.4,47.7,84.4,46.6"/>
	</g>
	<polygon points="90.2,49.4 92.4,44.1 90.8,44.1 89.5,47.9 89.4,47.9 88.1,44.1 86.5,44.1 88.7,49.4 88.7,52.2 90.2,52.2 	"/>
	<g>
		<path d="M96.5,51.1c-0.6,0-1.5-0.1-2.2-0.3V52c0.6,0.2,1.5,0.3,2.2,0.3c1.5,0,2.7-0.7,2.7-2.3c0-1.1-0.5-1.8-2-2.5
			c-0.9-0.4-1.4-0.7-1.4-1.4c0-0.6,0.6-0.9,1.1-0.9c0.6,0,1.4,0.1,2,0.3v-1.2c-0.6-0.2-1.4-0.3-2-0.3c-1.1,0-2.5,0.6-2.5,2.1
			c0,1.2,0.7,1.9,1.8,2.5c0.8,0.4,1.4,0.8,1.4,1.6C97.6,50.8,97.2,51.1,96.5,51.1"/>
	</g>
	<polygon points="103,45.3 103,52.2 104.4,52.2 104.4,45.3 106.3,45.3 106.3,44.1 101.1,44.1 101.1,45.3 	"/>
	<path d="M110.5,46L110.5,46l0.8,3.1h-1.7L110.5,46z M109.6,44.1l-2.3,8.2h1.6l0.5-2h2.3l0.5,2h1.6l-2.3-8.2H109.6z"/>
	<path d="M118.6,46L118.6,46l0.8,3.1h-1.7L118.6,46z M117.7,44.1l-2.3,8.2h1.6l0.5-2h2.3l0.5,2h1.6l-2.3-8.2H117.7z"/>
	<polygon points="124.7,45.3 124.7,52.2 126.1,52.2 126.1,45.3 128,45.3 128,44.1 122.8,44.1 122.8,45.3 	"/>
	<g>
		<path d="M0,37.1c0,1.8,1,2.7,2.7,2.7c1.8,0,2.7-0.9,2.7-2.7v-5.5h-1v5.5c0,1.2-0.5,1.9-1.7,1.9C1.5,39,1,38.1,1,37.1v-5.5H0V37.1z
			"/>
	</g>
	<polygon points="13.7,39.7 13.7,31.6 12.7,31.6 12.7,37.9 12.6,37.9 9.5,31.6 8.3,31.6 8.3,39.7 9.3,39.7 9.3,33.5 9.3,33.5 
		12.5,39.7 	"/>
	<rect x="16.6" y="31.6" width="1" height="8.1"/>
	<polygon points="23.8,39.8 26.2,31.6 25.1,31.6 23.2,38.5 23.1,38.5 21.2,31.6 20.1,31.6 22.5,39.8 	"/>
	<polygon points="32.9,31.6 28.6,31.6 28.6,39.7 33.1,39.7 33.1,38.9 29.7,38.9 29.7,36.1 32.5,36.1 32.5,35.2 29.7,35.2 29.7,32.5 
		32.9,32.5 	"/>
	<g>
		<path d="M36.7,32.5h1.5c0.9,0,1.4,0.5,1.4,1.4c0,1-0.6,1.4-1.4,1.4h-1.5V32.5z M40.6,34c0-1.3-0.7-2.3-2.3-2.3h-2.7v8.1h1v-3.5
			h1.1l1.8,3.5h1.2l-2-3.5C40.1,36,40.6,35.1,40.6,34"/>
		<path d="M45.3,39c-0.7,0-1.4-0.1-2.1-0.3v0.9c0.6,0.2,1.4,0.3,2.1,0.3c1.4,0,2.5-0.7,2.5-2.2c0-1.1-0.5-1.9-2-2.5
			c-0.9-0.4-1.4-0.8-1.4-1.6c0-0.7,0.6-1.2,1.3-1.2c0.7,0,1.4,0.1,2,0.3v-0.9c-0.6-0.2-1.3-0.3-2-0.3c-1.1,0-2.3,0.6-2.3,2
			c0,1.2,0.7,1.9,1.9,2.4c0.8,0.4,1.5,0.8,1.5,1.7C46.6,38.5,46.1,39,45.3,39"/>
	</g>
	<rect x="50.4" y="31.6" width="1" height="8.1"/>
	<polygon points="55.8,32.5 55.8,39.7 56.8,39.7 56.8,32.5 58.8,32.5 58.8,31.6 53.9,31.6 53.9,32.5 	"/>
	<polygon points="65.6,31.6 61.3,31.6 61.3,39.7 65.7,39.7 65.7,38.9 62.3,38.9 62.3,36.1 65.1,36.1 65.1,35.2 62.3,35.2 62.3,32.5 
		65.6,32.5 	"/>
	<rect x="68.3" y="31.6" width="1" height="8.1"/>
	<polygon points="73.8,32.5 73.8,39.7 74.8,39.7 74.8,32.5 76.8,32.5 76.8,31.6 71.8,31.6 71.8,32.5 	"/>
	<polygon points="86.4,39.8 88.8,31.6 87.7,31.6 85.8,38.5 85.8,38.5 83.8,31.6 82.7,31.6 85.1,39.8 	"/>
	<path d="M93.4,33L93.4,33l1,3.6h-2.1L93.4,33z M92.8,31.6l-2.4,8.2h1.1l0.7-2.3h2.5l0.6,2.3h1.1L94,31.6H92.8z"/>
	<polygon points="104.3,39.7 104.3,31.6 103.3,31.6 103.3,37.9 103.3,37.9 100.1,31.6 98.9,31.6 98.9,39.7 99.9,39.7 99.9,33.5 
		99.9,33.5 103.1,39.7 	"/>
	<g>
		<path d="M113.4,32.5c1.5,0,2.2,1.3,2.2,3.2c0,1.9-0.7,3.2-2.2,3.2h-1.3v-6.4H113.4z M111.2,31.6v8.1h2.3c2.4,0,3.3-1.9,3.3-4.1
			c0-2.2-0.9-4-3.3-4H111.2z"/>
	</g>
	<rect x="119.4" y="31.6" width="1" height="8.1"/>
	<polygon points="127.6,31.6 123.3,31.6 123.3,39.7 127.7,39.7 127.7,38.9 124.3,38.9 124.3,36.1 127.2,36.1 127.2,35.2 124.3,35.2 
		124.3,32.5 127.6,32.5 	"/>
	<polygon points="67.7,19.2 63,19.2 63,27.3 64.5,27.3 64.5,23.9 67.2,23.9 67.2,22.6 64.5,22.6 64.5,20.4 67.7,20.4 	"/>
	<g>
		<path d="M71.2,20.4h1.2c0.7,0,1.2,0.3,1.2,1.2c0,1-0.6,1.2-1.3,1.2h-1.1V20.4z M75.1,21.6c0-1.3-0.7-2.4-2.4-2.4h-2.9v8.1h1.4
			v-3.2H72l1.6,3.2h1.7l-1.9-3.4C74.6,23.6,75.1,22.7,75.1,21.6"/>
	</g>
	<polygon points="82.2,19.2 77.5,19.2 77.5,27.3 82.3,27.3 82.3,26.1 78.9,26.1 78.9,23.8 81.7,23.8 81.7,22.5 78.9,22.5 78.9,20.4 
		82.2,20.4 	"/>
	<polygon points="89.2,19.2 84.6,19.2 84.6,27.3 89.3,27.3 89.3,26.1 86,26.1 86,23.8 88.8,23.8 88.8,22.5 86,22.5 86,20.4 
		89.2,20.4 	"/>
	<g>
		<path d="M97.5,26.2c-0.6,0-1.5-0.1-2.2-0.3V27c0.6,0.2,1.5,0.3,2.2,0.3c1.5,0,2.7-0.7,2.7-2.3c0-1.1-0.5-1.8-2-2.5
			c-0.9-0.4-1.4-0.7-1.4-1.4c0-0.6,0.6-0.9,1.1-0.9c0.6,0,1.4,0.1,2,0.3v-1.2c-0.6-0.2-1.4-0.3-2-0.3c-1.1,0-2.5,0.6-2.5,2.1
			c0,1.2,0.7,1.9,1.9,2.5c0.8,0.4,1.4,0.8,1.4,1.6C98.7,25.9,98.2,26.2,97.5,26.2"/>
	</g>
	<polygon points="104,20.4 104,27.3 105.4,27.3 105.4,20.4 107.3,20.4 107.3,19.2 102.1,19.2 102.1,20.4 	"/>
	<path d="M111.6,21L111.6,21l0.8,3.1h-1.7L111.6,21z M110.7,19.1l-2.3,8.2h1.6l0.5-2h2.3l0.5,2h1.6l-2.3-8.2H110.7z"/>
	<polygon points="117.7,20.4 117.7,27.3 119.1,27.3 119.1,20.4 121,20.4 121,19.2 115.8,19.2 115.8,20.4 	"/>
	<polygon points="127.8,19.2 123.1,19.2 123.1,27.3 127.9,27.3 127.9,26.1 124.5,26.1 124.5,23.8 127.3,23.8 127.3,22.5 124.5,22.5 
		124.5,20.4 127.8,20.4 	"/>
	<g>
		<path d="M16.1,12.2c0,1.8,1,2.7,2.7,2.7c1.8,0,2.7-0.9,2.7-2.7V6.7h-1v5.5c0,1.2-0.5,1.9-1.7,1.9c-1.3,0-1.7-0.9-1.7-1.9V6.7h-1
			V12.2z"/>
	</g>
	<polygon points="29.8,14.8 29.8,6.7 28.8,6.7 28.8,12.9 28.8,12.9 25.6,6.7 24.4,6.7 24.4,14.8 25.4,14.8 25.4,8.6 25.5,8.6 
		28.6,14.8 	"/>
	<rect x="32.8" y="6.7" width="1" height="8.1"/>
	<polygon points="39.9,14.9 42.3,6.7 41.2,6.7 39.3,13.5 39.3,13.5 37.4,6.7 36.2,6.7 38.7,14.9 	"/>
	<polygon points="49.1,6.7 44.8,6.7 44.8,14.8 49.2,14.8 49.2,13.9 45.8,13.9 45.8,11.1 48.6,11.1 48.6,10.2 45.8,10.2 45.8,7.6 
		49.1,7.6 	"/>
	<g>
		<path d="M52.9,7.6h1.5c0.9,0,1.4,0.5,1.4,1.4c0,1-0.6,1.4-1.4,1.4h-1.5V7.6z M56.8,9c0-1.3-0.7-2.3-2.3-2.3h-2.7v8.1h1v-3.5H54
			l1.8,3.5H57l-2-3.5C56.2,11.1,56.8,10.2,56.8,9"/>
		<path d="M61.4,14.1c-0.7,0-1.4-0.1-2.1-0.3v0.9c0.6,0.2,1.4,0.3,2.1,0.3c1.4,0,2.5-0.7,2.5-2.2c0-1.1-0.5-1.9-2-2.5
			c-0.9-0.4-1.4-0.8-1.4-1.6c0-0.7,0.6-1.2,1.3-1.2c0.7,0,1.4,0.1,2,0.3V6.9c-0.6-0.2-1.3-0.3-2-0.3c-1.1,0-2.3,0.6-2.3,2
			c0,1.2,0.7,1.9,1.9,2.4c0.8,0.4,1.5,0.8,1.5,1.7C62.8,13.5,62.2,14.1,61.4,14.1"/>
	</g>
	<rect x="66.5" y="6.7" width="1" height="8.1"/>
	<polygon points="72,7.6 72,14.8 73,14.8 73,7.6 75,7.6 75,6.7 70,6.7 70,7.6 	"/>
	<polygon points="80.3,11.9 82.6,6.7 81.4,6.7 79.8,10.7 79.8,10.7 78.2,6.7 77,6.7 79.3,11.9 79.3,14.8 80.3,14.8 	"/>
	<g>
		<path d="M91.8,6.6c-2.2,0-3.1,1.9-3.1,4.2c0,2.3,0.8,4.2,3.1,4.2c2.2,0,3-1.8,3-4.2C94.8,8.5,94,6.6,91.8,6.6 M91.8,7.5
			c1.6,0,2,1.5,2,3.3c0,1.8-0.4,3.3-2,3.3c-1.6,0-2-1.5-2-3.3C89.8,9,90.1,7.5,91.8,7.5"/>
	</g>
	<polygon points="101.8,6.7 97.4,6.7 97.4,14.8 98.5,14.8 98.5,11.2 101.3,11.2 101.3,10.4 98.5,10.4 98.5,7.6 101.8,7.6 	"/>
	<polygon points="109.6,7.6 109.6,14.8 110.6,14.8 110.6,7.6 112.6,7.6 112.6,6.7 107.6,6.7 107.6,7.6 	"/>
	<polygon points="116,11.1 119.4,11.1 119.4,14.8 120.4,14.8 120.4,6.7 119.4,6.7 119.4,10.2 116,10.2 116,6.7 115,6.7 115,14.8 
		116,14.8 	"/>
	<polygon points="127.6,6.7 123.3,6.7 123.3,14.8 127.7,14.8 127.7,13.9 124.3,13.9 124.3,11.1 127.2,11.1 127.2,10.2 124.3,10.2 
		124.3,7.6 127.6,7.6 	"/>
</g>
</svg>
