<svg xmlns="http://www.w3.org/2000/svg" xmlns:xlink="http://www.w3.org/1999/xlink" width="72" height="94" viewBox="0 0 19.05 24.871" xmlns:v="https://vecta.io/nano"><path d="M18.904 1.72l-.355-.155C15.364.17 11.482.02 9.96.02l-.436.005L9.09.02C7.568.02 3.687.17.502 1.565l-.356.155L0 1.784v12.778c0 1.738.284 3.645 2.346 5.82 1.585 1.67 5.04 3.55 6.846 4.34l.337.15.098-.043.238-.106c1.806-.794 5.26-2.674 6.84-4.34 2.062-2.175 2.346-4.083 2.346-5.82V1.784z" fill="#fff"/><g transform="matrix(.725797 0 0 .725797 138.178974 -156.275737)"><g fill="#001641"><path d="M-186.832 221.7c.23-.216.607-.192.73-.15s.26.115.276.158c-.213.001-.458.143-.722.217-.28.1-.553.106-.55.032l.268-.255m1.208-1.765c.013-.052.046-.05.05.01.022.27.224.506.332.718.137.27.06.563.06.563-.013.023-.23-.158-.362-.345-.267-.38-.116-.8-.08-.948m.37 3.393c-.2.24-.337.277-.485.534-.113.196-.285.217-.282.187.01-.102.006-.374.253-.696s.642-.4.642-.4-.05.297-.128.385m.514-1.56c.283-.23.632-.27.78-.1s.04.516-.242.747-.63.272-.78.1-.04-.517.24-.748m1.153-1.48c.226-.308.498-.36.582-.42.07-.048.045.217-.135.418s-.217.27-.292.444c-.1.2-.448.295-.46.267 0 0 .08-.4.306-.708m-.134 2.57c-.196.188-.37.205-.62.2-.18-.004-.323-.056-.33-.07-.01-.023.06-.038.145-.06.236-.065.7-.245.906-.72.047-.115.063-.2.08-.194s.05.137.052.2c.004.162.005.416-.233.645m-3.648-.688c.216.1.196.3.7.575.285.153.752.097.95.015.242-.1.3.03.096.153-.388.232-.577.66-.574 1.13.001.188-.163.35-.032.482.062.062.158-.014.3-.033.237-.03.745.114 1.203-.236.292-.222.304-.616.36-.747.073-.167.13-.147.163-.058s.317.502.994.532c.4.018.48-.001.674.1s.386-.038.23-.228c-.173-.207-.006-.302-.178-.94-.06-.217-.343-.66-.75-.778-.147-.043-.13-.12 0-.184.486-.234.997-1.04.675-1.902-.096-.255.01-.416-.097-.487-.077-.05-.204-.02-.275.067-.177.2-.914.173-1.15.862-.08.232-.033.475-.17.507-.096.022-.1-.145-.097-.25a1.19 1.19 0 0 0-.489-.93c-.23-.132-.48-.185-.634-.317-.12-.102-.3-.118-.28.165.013.298-.43.9.084 1.57.03.05.126.114.108.185-.004.015-.066.095-.128.07-.142-.057-.347-.267-.773-.173s-.697.5-.9.556c-.13.035-.18.212 0 .303m4.808-.075c.5.332.605 1.02.58 1.473-.002.047.197.04.307.012.153-.04 1.3.515 1.93 1.143.064.056.214-.046.05-.297-.516-.794-1.152-1.082-1.484-1.355s-.324-.374-.458-.672c-.208-.462-.465-.72-.664-.725-.025-.001-.065.12-.242.25-.073.054-.134.106-.02.17m11.1-2.224c.084.06.357.1.582.42s.307.708.307.708a.56.56 0 0 1-.46-.266 1.29 1.29 0 0 0-.292-.445c-.18-.2-.205-.466-.136-.418m.954 1.8c.15-.18.498-.14.78.1s.4.566.242.748-.498.14-.78-.1-.4-.567-.242-.748m1.8 1.674c.247.322.24.594.253.696.003.03-.17.01-.282-.187-.148-.257-.275-.294-.485-.534-.077-.088-.127-.385-.127-.385s.396.088.642.4m-.527-2.688c.108-.212.3-.448.33-.718.005-.06.037-.064.05-.012.037.14.188.57-.08.948-.132.186-.35.367-.362.345 0 0-.078-.293.06-.563m-.9 2.393c-.25.005-.423-.012-.62-.2-.238-.23-.237-.483-.233-.645.001-.062.036-.202.053-.2s.032.08.08.194c.197.475.67.655.907.72.084.023.155.038.144.06-.006.013-.15.065-.33.07m1.76-1.508c.123-.04.5-.064.73.15l.268.255c.002.074-.272.058-.55-.032-.265-.073-.5-.215-.722-.216.018-.043.153-.117.276-.158m-2.87.395c.132.063.147.14 0 .184-.406.118-.7.56-.75.778-.172.64-.005.734-.178.94-.157.2.036.315.23.228s.265-.07.673-.088c.678-.03.962-.442.994-.532s.1-.1.163.057c.058.13.07.525.36.747.458.35.965.207 1.203.236.152.018.248.095.3.033.13-.13-.033-.295-.032-.482.004-.472-.186-.9-.574-1.13-.205-.122-.146-.254.096-.153.198.082.665.138.95-.015.492-.264.473-.466.7-.575.18-.1.13-.267 0-.302-.213-.057-.484-.462-.9-.556s-.63.116-.773.173c-.062.025-.124-.055-.128-.07-.02-.072.077-.135.107-.185.513-.668.07-1.27.084-1.57.012-.283-.16-.267-.28-.165-.154.132-.405.185-.634.317-.26.15-.5.595-.5.93.004.104-.001.27-.097.25-.14-.032-.092-.274-.17-.507-.235-.7-.973-.65-1.15-.862-.072-.085-.2-.117-.275-.067-.1.07-.002.232-.098.487-.322.86.2 1.67.675 1.902m-3.54 2.5c-.163.252-.013.353.05.297.64-.628 1.776-1.183 1.93-1.143.1.028.3.035.307-.012-.025-.454.1-1.14.58-1.473.115-.065.054-.117-.02-.17-.177-.132-.217-.25-.243-.25-.2.004-.456.263-.664.725-.134.3-.126.398-.458.672s-.97.56-1.484 1.355"/><path d="M-176.612 219.483c.082-.144.277-.356.493-.433.228-.08.4-.067.462-.065.073.002.054.017-.006.04-.4.27-.546.72-.7.95-.12.17-.37.205-.38.164a1.4 1.4 0 0 1 .14-.656m-.566 3.237h-.04c-.758-.006-1.022-.68-.88-.74 0 0 .18.323.837.355l.035-.001h.007l.028.001c.666-.03.877-.354.877-.354.14.06-.123.733-.862.74m-1.623-3.695c-.055-.033-.078-.03-.006-.04s.225-.016.453.065a1.05 1.05 0 0 1 .493.433c.104.183.172.546.15.656-.008.04-.3-.074-.42-.246-.172-.245-.347-.67-.67-.868m1.567 1.8h.005c.334.007.603.22.603.484s-.268.477-.603.484h0-.004c-.334-.007-.603-.22-.603-.484s.27-.477.603-.484m1.752.147c.127-.072.416-.224.753-.07.134.06.332.187.465.247.157.07.238.07.335.1.025.008-.006.034-.037.04-.138.03-.3.228-.985-.005-.2-.073-.395-.238-.518-.247-.05-.003-.058-.04-.014-.066m-3.53.073c-.122.01-.312.17-.52.246-.514.2-.773.06-.98.006-.03-.008-.043-.038-.018-.047.096-.03.178-.03.335-.1.133-.06.33-.186.465-.247.338-.154.626-.002.753.07.044.025.017.07-.033.073m1.8-.862c-.007.005-.015.01-.025.01v-.002l-.004.002c-.01-.002-.018-.005-.025-.01-.038-.03-.026-.128-.057-.3-.144-.8-.6-1.24-1.45-1.284-.428-.02-.46-.188-.615-.127-.14.054-.025.185-.05.445-.048.5-.001.954.513 1.433.198.17.168.354.078.326-.065-.02-.192-.084-.322-.13-.577-.2-1.015.178-1.257.348-.1.07-.17.17-.335.212-.233.06-.224.27-.007.347.253.1.247.3.552.647.454.534 1.135.474 1.55.4.22-.057.258.02.268.047.05.14-.375.624.224 1.3.302.34.627.48.734.685.062.118.066.18.177.194v.001l.02.001h.008l.02-.002c.1-.013.115-.077.177-.194.107-.206.432-.344.734-.685.598-.677.173-1.16.224-1.3.01-.027.047-.104.267-.047.415.084 1.095.144 1.55-.4.306-.358.3-.558.552-.647.216-.076.225-.3-.008-.347-.165-.04-.235-.14-.334-.212-.24-.17-.68-.557-1.257-.348l-.322.13c-.1.028-.12-.157.078-.326.513-.48.56-.922.513-1.433-.025-.26.1-.4-.05-.445-.156-.06-.187.105-.615.127-.86.043-1.307.474-1.45 1.284-.03.17-.018.268-.057.3m11.566 15.186c0 2.084-.342 4.372-2.82 6.986-1.985 2.094-6.385 4.498-8.8 5.577-4.417-1.957-7.74-4.452-8.806-5.577-2.48-2.614-2.82-4.902-2.82-6.986v-16.623c4.787-2.017 11.015-1.922 11.582-1.9.013.001.028.001.042.001s.028 0 .04-.001c.568-.013 6.796-.108 11.583 1.9zm-11.624-19.225c-.514-.016-7.044-.164-12.1 2.056l-.208.1v17.078c0 2.227.365 4.673 3 7.464 2.1 2.215 6.74 4.732 9.172 5.797l.14.06.14-.062c2.432-1.07 7.07-3.587 9.164-5.796 2.646-2.8 3-5.237 3-7.464V218.3l-.208-.1c-5.067-2.22-11.597-2.072-12.1-2.056"/><path d="M-164.47 235.38c0 2.324-.38 4.876-3.14 7.787-2.14 2.26-6.85 4.82-9.315 5.903l-.328.145-.33-.145c-2.463-1.08-7.173-3.636-9.323-5.903-2.76-2.91-3.14-5.463-3.14-7.787v-17.386l.5-.214c4.33-1.898 9.623-2.103 11.697-2.103l.6.007a22.09 22.09 0 0 1 .599-.007c2.075 0 7.37.205 11.7 2.103l.49.214zm.135-17.694l-.49-.214c-4.39-1.923-9.738-2.13-11.835-2.13-.308 0-.516-.003-.6 0-.084-.003-.292 0-.6 0-2.096 0-7.443.207-11.83 2.13l-.5.214-.2.088v17.605c0 2.393.39 5.022 3.232 8.018 2.183 2.303 6.943 4.9 9.432 5.98l.465.205.464-.205c2.488-1.093 7.248-3.684 9.424-5.98 2.84-2.996 3.232-5.625 3.232-8.018v-17.605z"/></g><g fill="#231f20"><path d="M-175.626 234.902c.018 0 .037-.002.06-.007a2.92 2.92 0 0 1 .468-.037c.4 0 .87.074 1.368.22a4.99 4.99 0 0 0 1.043.176l.001-.016a7.15 7.15 0 0 1-.956-.303 4.95 4.95 0 0 0-1.276-.332l-.2-.006c-.154 0-.305.01-.467.037a1.86 1.86 0 0 0-.27.07c.001.002.043.195.22.195m.01-.954c.018 0 .037-.002.06-.007a2.89 2.89 0 0 1 .468-.037c.4 0 .868.074 1.368.22a4.97 4.97 0 0 0 1.043.176l.001-.016c-.306-.072-.628-.174-.956-.303-.455-.18-.885-.3-1.276-.332l-.2-.006a2.92 2.92 0 0 0-.467.036 1.78 1.78 0 0 0-.272.072c.001.002.043.195.22.195"/><path d="M-175.626 232.988c.02 0 .038-.002.06-.007.154-.025.308-.037.47-.037.4 0 .87.075 1.368.222a5.33 5.33 0 0 0 1.043.175l.001-.016c-.306-.072-.628-.174-.956-.303-.455-.18-.885-.3-1.276-.332l-.2-.006a2.87 2.87 0 0 0-.467.036c-.087.016-.2.045-.272.072.001.002.043.195.22.195m.01 2.873c.018 0 .037-.002.06-.007a2.91 2.91 0 0 1 .468-.037c.4 0 .868.074 1.368.22a5.01 5.01 0 0 0 1.043.176l.001-.016a7.07 7.07 0 0 1-.956-.303c-.455-.18-.884-.3-1.276-.332l-.2-.005a2.9 2.9 0 0 0-.467.036 1.63 1.63 0 0 0-.27.072c.001.002.043.195.22.195"/><use xlink:href="#B"/><path d="M-173.73 236.994a5.29 5.29 0 0 0 1.043.176l.001-.016c-.306-.073-.628-.174-.956-.303a4.97 4.97 0 0 0-1.276-.332l-.2-.005a2.89 2.89 0 0 0-.467.037 1.63 1.63 0 0 0-.27.072c0 .002.043.195.22.195a.25.25 0 0 0 .062-.008c.153-.024.306-.036.467-.036.4 0 .87.075 1.368.222m-8.895-6.48a1.78 1.78 0 0 0 .37.04l.026.001.072.002.032-.001c.764-.035 1-.294 1-.298l-.012-.005c-.162.037-.33.054-.393.06-.2.028-.4.042-.596.042-.402 0-.64-.066-.745-.105l-.03-.008-.01.002c-.003.012.03.222.296.272m-3.72 3.265c.033.042.052.095.052.15 0 .14-.117.254-.262.254s-.255-.107-.262-.242a.33.33 0 0 0-.037.153c0 .193.16.35.36.35s.36-.156.36-.35c0-.14-.086-.26-.2-.316"/><use xlink:href="#C"/><path d="M-175.626 232.03c.02 0 .037-.002.06-.007a2.95 2.95 0 0 1 .47-.037c.41 0 .87.074 1.368.222.3.088.65.147 1.043.175l.001-.016c-.306-.072-.628-.174-.956-.303a4.98 4.98 0 0 0-1.276-.332l-.2-.006a2.93 2.93 0 0 0-.467.036 1.76 1.76 0 0 0-.272.072c.001.002.043.195.22.195"/><use xlink:href="#C" y="-6.595"/><path d="M-175.625 229.158a.29.29 0 0 0 .058-.006 2.93 2.93 0 0 1 .47-.037c.4 0 .87.075 1.368.222a4.9 4.9 0 0 0 1.043.176l.001-.016a7.11 7.11 0 0 1-.956-.303c-.455-.18-.885-.3-1.276-.332l-.2-.005a3.24 3.24 0 0 0-.43.03l-.017.002-.02.005a1.63 1.63 0 0 0-.27.072c0 .002.043.195.22.195m.008 1.912c.02 0 .037-.002.06-.007a2.95 2.95 0 0 1 .47-.037c.4 0 .87.074 1.368.222.398.117.75.154 1.043.175l.001-.016c-.306-.072-.628-.174-.956-.303-.454-.18-.884-.3-1.276-.332l-.2-.005a3.2 3.2 0 0 0-.427.029l-.016.002c-.006 0-.013.001-.024.005a1.77 1.77 0 0 0-.272.072c.001.002.043.195.22.195"/><path d="M-175.625 230.115a.27.27 0 0 0 .059-.007c.155-.025.308-.037.47-.037.4 0 .87.075 1.368.222a5.05 5.05 0 0 0 1.043.175l.001-.016a6.86 6.86 0 0 1-.956-.303c-.455-.18-.885-.3-1.276-.332l-.2-.005a3.19 3.19 0 0 0-.428.03l-.016.002-.023.005a1.63 1.63 0 0 0-.27.072c0 .002.043.195.22.195m-6.603 7.227l.072.002.032-.001c.765-.035.992-.295 1-.298l-.012-.005a3.06 3.06 0 0 1-.393.06 4.56 4.56 0 0 1-.596.042c-.4 0-.64-.066-.745-.105l-.03-.01h-.01c-.003.012.03.222.296.272a1.74 1.74 0 0 0 .37.039z"/><path d="M-182.633 234.394a1.78 1.78 0 0 0 .37.04l.026.001.072.002.032-.001c.764-.035 1-.295 1-.298l-.012-.005a3.05 3.05 0 0 1-.393.059c-.2.027-.4.042-.596.042-.402 0-.64-.066-.745-.105l-.03-.008-.01.002c-.003.012.03.222.296.272m0 1.938a1.78 1.78 0 0 0 .37.04l.026.001.072.002.032-.001c.764-.035 1-.294 1-.298l-.012-.005a3.05 3.05 0 0 1-.393.059c-.2.027-.4.042-.596.042-.402 0-.64-.066-.745-.105l-.03-.008h-.01c-.003.012.03.222.296.272"/><use xlink:href="#B" y="1.94"/><path d="M-182.633 235.363c.144.028.17.03.37.04l.026.001.072.002.032-.001c.764-.035 1-.295 1-.298l-.012-.005a2.94 2.94 0 0 1-.393.06c-.2.028-.4.042-.596.042-.402 0-.64-.066-.745-.105l-.03-.01h-.01c-.003.012.03.22.296.272m0-1.937c.144.028.17.03.37.04l.026.001.072.002h.032c.764-.035 1-.295 1-.298l-.012-.005a3 3 0 0 1-.393.06c-.2.027-.4.042-.596.042-.402 0-.64-.066-.745-.105l-.03-.01-.01.002c-.003.012.03.22.296.272m0-.97c.144.028.17.03.37.04l.026.001.072.002h.032c.764-.035 1-.295 1-.298l-.012-.005a3 3 0 0 1-.393.06c-.2.027-.4.042-.596.042-.402 0-.64-.066-.745-.105l-.03-.008-.01.002c-.003.012.03.222.296.272"/></g><path d="M-167.388 231.814h-.822v-.5h.005l.448-.39h-1.03v-.46h.577v-.53h.822zm0 3.318h-.822v-.51h.005l.448-.39h-1.03v-.46h.577v-.53h.822zm0 3.318h-.822v-.51h.005l.448-.388h-1.03v-.46h.577v-.53h.822zm-1.69 1.472h-6.242c-.167.01-.333-.004-.575.183-.202.186-.6.45-1.256.482-.768.037-1.254-.3-1.477-.505a.77.77 0 0 0-.464-.15h-6.12v-10.66h.96l-.038.045v9.403l-.275.343v-9.415l-.284.34.016 9.5h5.967c.296.012.425.154.538.246.185.16.526.334 1.097.334.47 0 .78-.137.976-.278.01-.002.02-.007.034-.014.123-.074.232-.25.53-.288h6.23l-.003-9.442-.3-.388v9.405l-.276-.343V229.3l-.022-.03h.982zm-14.902-11.017l.276-.343v9.43l-.276.343zm.6-.48c1.14.572 2.66-.2 3.998-.323 1.058-.096 1.618.363 1.82.577v.602c-.138-.103-.33-.198-.588-.29-.073-.02-.298-.084-.508-.084a1.44 1.44 0 0 0-.158.01c.053.013.153.032.28.074l.013.005c.52.2.817.48.963.658v.578c-.115-.083-.294-.177-.59-.277-.07-.02-.287-.077-.494-.077-.062 0-.12.005-.17.012.06.017.153.03.274.07l.013.004a2.15 2.15 0 0 1 .964.646v.577c-.134-.095-.326-.182-.593-.268-.075-.02-.275-.07-.478-.07a1.29 1.29 0 0 0-.174.012l.262.067.044.014c.52.195.803.46.938.62v.575c-.132-.1-.322-.172-.592-.256-.065-.016-.264-.065-.462-.065-.073 0-.14.007-.196.016.055.016.148.026.272.063l.06.02c.495.174.78.44.918.6v.575c-.132-.087-.322-.166-.592-.247-.063-.014-.254-.058-.444-.058a1.18 1.18 0 0 0-.216.019c.004.008.014.01.025.01.055.006.138.015.25.047l.012.004c.153.058.63.258.964.618v.56c-.13-.085-.32-.162-.59-.24-.067-.014-.244-.052-.428-.052-.087 0-.166.008-.234.02.053.01.15.02.276.054l.013.003c.392.114.73.325.963.593v.574c-.13-.084-.32-.16-.593-.232-.1-.02-.25-.047-.4-.047-.092 0-.175.01-.247.023.052.01.15.02.272.05l.013.004c.14.037.586.19.965.603v.552c-.13-.084-.32-.156-.59-.226-.095-.018-.238-.04-.39-.04-.102 0-.19.01-.266.027-.01.002-.02.007-.006.007.044.001.145.006.278.038l.013.003c.17.03.7.278.963.55v.592c-.132-.086-.323-.157-.597-.225-.057-.01-.208-.036-.37-.036a1.25 1.25 0 0 0-.282.03c.058.01.15.014.268.042l.013.002c.444.095.79.373.968.568v.704c-.426-.3-1.26-.787-3.062-.21-1.41.45-2.553.22-2.756.05zm6.51.267c.216-.208.84-.688 1.918-.6 1.338.122 2.86.895 3.998.323v9.402c-.202.17-1.347.4-2.756-.05-1.95-.624-2.77-.001-3.16.282zm6.25-.13l.275.343v9.43l-.275-.343zm-14.903 2.616h-.505v.37c-.025.244-.285.41-.512.41-.13 0-.245-.052-.324-.144-.16-.187-.013-.506.044-.6-.095.03-.182.045-.262.045-.15 0-.405-.06-.425-.467.02-.413.275-.474.426-.474.08 0 .167.015.262.045-.057-.094-.203-.413-.044-.6.08-.093.194-.144.324-.144.227 0 .487.165.512.41a3.89 3.89 0 0 1 .002.381h.505zm0 3.297h-.505v.37c-.025.245-.285.41-.512.41-.13 0-.245-.05-.324-.144-.16-.187-.013-.506.044-.6-.095.03-.182.044-.262.044-.15 0-.405-.06-.425-.467.02-.413.275-.474.426-.474.08 0 .167.015.262.045-.057-.094-.203-.413-.043-.6.08-.093.194-.144.324-.144.227 0 .487.164.512.41a4.09 4.09 0 0 1 .002.381h.505zm0 3.297h-.505v.37c-.025.245-.285.41-.512.41-.13 0-.245-.05-.324-.144-.16-.187-.013-.506.044-.6-.095.03-.182.045-.262.045-.15 0-.406-.06-.426-.468.02-.392.242-.474.425-.474.08 0 .168.015.262.045-.057-.094-.203-.413-.043-.6.08-.093.194-.144.324-.144.227 0 .487.164.512.41.01.086.006.282.002.38h.505zm17.685-12.436c-.96.01-1.717.233-2.45.45-.663.197-1.348.4-2.177.427-.635.022-1.208-.144-1.873-.334l-.008-.003c-.788-.226-1.68-.482-2.878-.482h-.066c-.9 0-1.655.2-2.456.41-.717.188-1.458.382-2.298.4-.68.022-1.363-.158-2.085-.348l-.006-.002c-.815-.215-1.658-.438-2.657-.44h-.027c-.622 0-1.15.07-1.595.156v9.802c0 1.986.326 4.168 2.69 6.662 1.018 1.075 4.202 3.468 8.464 5.386 2.366-1.08 6.588-3.4 8.46-5.386 2.366-2.494 2.69-4.676 2.69-6.662v-9.836c-.498-.117-1.065-.21-1.712-.21z" fill="#001641"/></g><defs ><path id="B" d="M-182.633 229.545c.144.028.17.03.37.04l.026.001.072.002.032-.001c.764-.035.99-.295.99-.298l-.012-.005a3 3 0 0 1-.393.06 4.64 4.64 0 0 1-.596.042c-.402 0-.64-.066-.745-.105l-.03-.01-.01.002c-.003.012.03.22.296.272"/><path id="C" d="M-186.352 237.08c.033.042.052.095.052.15 0 .14-.117.254-.262.254s-.255-.107-.262-.242c-.024.046-.037.098-.037.153 0 .192.16.35.36.35s.36-.156.36-.35c0-.14-.086-.262-.21-.317"/></defs></svg>