<?xml version="1.0" encoding="UTF-8" ?>
<!DOCTYPE svg PUBLIC "-//W3C//DTD SVG 1.1//EN" "http://www.w3.org/Graphics/SVG/1.1/DTD/svg11.dtd">
<svg width="2000pt" height="77pt" viewBox="0 0 2000 77" version="1.1" xmlns="http://www.w3.org/2000/svg">
<g id="f00000ff">
<path fill="#000000" opacity="1.00" d=" M 486.51 9.37 C 492.76 7.08 498.91 10.31 504.97 11.47 C 506.46 10.43 507.75 9.15 509.14 7.99 C 509.93 14.71 510.74 21.44 511.11 28.20 C 507.63 25.54 507.40 20.68 504.46 17.57 C 500.26 12.89 492.50 10.12 486.92 14.03 C 482.70 17.03 483.17 23.78 486.94 26.96 C 493.73 33.10 502.82 36.18 509.19 42.85 C 513.80 47.80 514.46 55.99 510.55 61.54 C 506.19 67.95 497.66 70.19 490.33 68.67 C 486.97 68.07 483.84 66.51 480.43 66.17 C 479.00 67.18 477.79 68.45 476.46 69.58 C 475.34 63.19 474.59 56.74 473.66 50.32 C 474.14 50.31 475.10 50.27 475.58 50.25 C 477.85 55.29 480.46 60.64 485.42 63.54 C 490.10 66.36 496.84 66.96 501.14 63.12 C 505.25 59.46 505.06 52.46 501.31 48.60 C 494.69 42.00 485.02 39.29 478.88 32.13 C 472.71 24.57 477.19 11.85 486.51 9.37 Z" />
<path fill="#000000" opacity="1.00" d=" M 813.28 9.18 C 821.36 7.66 830.25 9.07 836.83 14.20 C 843.37 19.06 847.38 26.89 848.00 34.96 C 848.94 43.98 846.81 53.76 840.33 60.40 C 830.20 71.53 810.93 72.20 800.04 61.84 C 787.65 50.34 787.45 28.24 799.48 16.42 C 803.25 12.74 808.10 10.18 813.28 9.18 M 815.25 12.29 C 808.70 13.97 803.92 19.83 802.21 26.19 C 800.28 33.29 800.25 40.82 801.39 48.06 C 802.34 54.07 805.27 60.09 810.55 63.42 C 816.83 67.59 825.89 66.59 831.16 61.21 C 836.88 55.79 838.06 47.45 838.21 39.96 C 838.22 32.50 837.60 24.33 832.73 18.29 C 828.69 13.13 821.63 10.55 815.25 12.29 Z" />
<path fill="#000000" opacity="1.00" d=" M 1949.73 28.16 C 1946.92 20.03 1952.57 10.34 1961.11 8.96 C 1966.92 7.45 1972.39 10.54 1978.00 11.45 C 1979.47 10.43 1980.73 9.15 1982.13 7.99 C 1982.93 14.71 1983.73 21.44 1984.11 28.21 C 1980.62 25.53 1980.39 20.67 1977.44 17.56 C 1973.38 13.07 1966.16 10.33 1960.58 13.60 C 1955.98 16.13 1955.85 23.05 1959.48 26.48 C 1966.25 33.00 1975.71 36.00 1982.21 42.88 C 1986.65 47.68 1987.42 55.50 1983.89 61.03 C 1980.73 66.04 1974.86 68.90 1969.03 69.08 C 1964.06 69.52 1959.44 67.46 1954.73 66.33 C 1952.40 65.67 1951.19 68.54 1949.46 69.58 C 1948.34 63.19 1947.59 56.74 1946.66 50.32 C 1947.14 50.31 1948.10 50.27 1948.58 50.26 C 1950.77 55.08 1953.21 60.19 1957.82 63.17 C 1962.39 66.19 1969.05 67.05 1973.61 63.57 C 1978.20 60.09 1978.24 52.68 1974.36 48.65 C 1970.81 45.02 1966.19 42.70 1961.98 39.97 C 1957.17 36.98 1951.65 33.85 1949.73 28.16 Z" />
<path fill="#000000" opacity="1.00" d=" M 10.23 9.78 C 18.89 9.93 27.56 9.44 36.21 10.09 C 33.63 11.31 30.80 11.97 28.31 13.38 C 26.99 15.68 27.14 18.44 27.07 21.01 C 27.13 29.70 27.04 38.39 27.11 47.08 C 27.26 52.09 27.64 57.75 31.42 61.49 C 35.70 65.57 42.22 65.75 47.71 64.67 C 52.64 63.75 56.87 59.87 57.93 54.92 C 59.53 47.74 58.67 40.33 58.89 33.04 C 58.71 27.37 59.42 21.59 58.20 16.00 C 57.58 12.42 53.39 12.13 50.61 11.19 C 50.62 10.84 50.64 10.13 50.66 9.78 C 57.76 9.90 64.88 9.48 71.96 10.08 C 68.89 12.08 63.54 12.34 63.21 16.88 C 62.26 24.88 62.96 32.98 62.77 41.01 C 62.72 48.17 63.09 56.26 58.27 62.13 C 53.56 68.16 45.27 69.54 38.06 69.08 C 32.38 68.82 26.35 66.92 22.70 62.32 C 19.18 58.05 18.42 52.31 18.21 46.96 C 18.02 37.64 18.26 28.32 18.13 19.00 C 17.97 17.06 18.06 14.84 16.74 13.25 C 14.84 11.86 12.35 11.77 10.14 11.17 C 10.16 10.82 10.20 10.13 10.23 9.78 Z" />
<path fill="#000000" opacity="1.00" d=" M 94.98 9.78 C 100.01 9.78 105.04 9.78 110.07 9.78 C 121.37 23.90 132.66 38.02 143.97 52.14 C 143.95 42.07 144.03 32.00 143.95 21.93 C 143.76 18.97 143.80 15.60 141.73 13.23 C 139.89 11.94 137.56 11.74 135.46 11.13 L 135.64 9.78 C 142.84 9.85 150.04 9.60 157.23 9.96 C 154.83 11.41 152.04 12.11 149.75 13.74 C 148.01 15.68 148.11 18.52 147.90 20.96 C 147.62 37.24 148.18 53.53 147.61 69.80 C 144.17 66.76 141.49 63.01 138.61 59.47 C 128.22 46.57 117.82 33.68 107.41 20.79 C 107.42 32.22 107.39 43.65 107.41 55.08 C 107.57 58.24 107.46 61.82 109.53 64.43 C 111.75 65.85 114.42 66.31 116.81 67.35 C 109.28 68.53 101.55 68.11 93.97 67.62 C 96.55 66.26 99.51 65.70 101.91 64.00 C 103.42 61.67 103.38 58.75 103.52 56.08 C 103.59 42.72 103.49 29.36 103.56 16.00 C 101.34 13.40 98.46 11.52 95.00 11.09 C 95.00 10.76 94.98 10.11 94.98 9.78 Z" />
<path fill="#000000" opacity="1.00" d=" M 180.32 10.56 C 189.24 8.95 198.37 10.15 207.38 9.78 L 207.55 11.16 C 204.49 11.87 199.51 11.70 199.23 15.90 C 198.47 28.89 199.15 41.95 198.88 54.96 C 199.08 58.18 198.37 61.90 200.36 64.68 C 202.97 66.02 205.95 66.29 208.71 67.19 C 204.59 68.38 200.24 67.96 196.00 68.01 C 190.76 67.92 185.47 68.31 180.26 67.53 C 182.99 66.37 185.99 65.93 188.63 64.56 C 189.96 62.68 189.85 60.25 189.97 58.05 C 189.99 45.69 189.93 33.34 190.00 20.98 C 189.86 18.41 190.15 15.52 188.60 13.30 C 186.16 11.66 183.01 11.62 180.32 10.56 Z" />
<path fill="#000000" opacity="1.00" d=" M 230.47 9.78 C 238.24 9.79 246.02 9.78 253.80 9.78 C 253.83 10.12 253.89 10.79 253.92 11.12 C 251.68 11.79 248.00 11.26 247.30 14.15 C 247.27 16.49 248.40 18.64 249.26 20.76 C 254.37 32.09 259.44 43.43 264.54 54.76 C 268.75 43.56 272.99 32.36 277.20 21.15 C 277.92 18.67 279.37 15.88 278.09 13.34 C 276.65 11.66 274.18 11.72 272.21 11.07 C 272.23 10.75 272.27 10.11 272.29 9.78 C 278.55 9.81 284.82 9.66 291.09 9.92 C 288.02 11.83 284.39 13.50 283.16 17.21 C 276.20 34.13 269.85 51.30 262.93 68.23 C 262.64 70.28 260.80 68.35 260.65 67.40 C 252.99 50.66 245.70 33.74 237.93 17.05 C 236.72 13.68 233.68 11.82 230.40 10.86 L 230.47 9.78 Z" />
<path fill="#000000" opacity="1.00" d=" M 312.98 10.08 C 328.88 9.39 344.82 9.97 360.73 9.78 C 360.84 14.35 361.20 18.95 360.55 23.50 C 357.56 20.27 357.44 13.91 352.01 13.63 C 345.15 12.84 338.13 12.88 331.27 13.47 C 330.01 20.80 331.02 28.32 330.70 35.73 C 335.49 35.70 340.27 35.82 345.06 35.70 C 347.16 35.57 349.47 35.51 351.23 34.20 C 352.87 31.62 353.77 28.64 355.40 26.04 C 356.52 33.20 355.77 40.48 355.95 47.70 C 355.49 47.67 354.58 47.62 354.12 47.60 C 352.97 44.78 352.70 40.42 349.05 39.73 C 343.00 38.66 336.81 39.44 330.70 39.22 C 330.86 46.78 330.38 54.38 330.92 61.93 C 331.01 64.53 334.17 64.28 336.01 64.47 C 342.52 64.54 349.40 65.08 355.54 62.50 C 360.25 60.48 361.01 54.45 365.48 52.17 C 364.60 57.55 362.91 62.73 361.56 68.00 C 345.36 67.76 329.13 68.50 312.96 67.61 C 315.39 66.37 318.12 65.81 320.46 64.41 C 321.72 62.57 321.62 60.21 321.73 58.08 C 321.73 45.70 321.69 33.31 321.75 20.92 C 321.69 18.41 321.77 15.75 320.57 13.46 C 318.19 12.02 315.47 11.30 312.98 10.08 Z" />
<path fill="#000000" opacity="1.00" d=" M 389.00 10.05 C 395.32 9.53 401.66 9.87 408.00 9.77 C 414.89 9.83 422.14 9.48 428.55 12.47 C 436.45 15.58 439.01 26.52 434.23 33.23 C 430.96 37.32 425.64 38.73 420.79 39.95 C 426.83 47.31 432.76 54.76 438.83 62.10 C 441.00 65.00 444.58 66.02 447.69 67.55 C 442.60 68.25 437.45 67.98 432.34 67.99 C 425.35 58.96 418.37 49.93 411.37 40.92 C 409.74 41.00 408.11 41.07 406.49 41.15 C 406.52 46.77 406.44 52.40 406.48 58.03 C 406.59 60.16 406.52 62.47 407.68 64.37 C 410.09 66.01 413.12 66.25 415.79 67.32 C 406.95 68.59 397.88 68.05 388.98 67.65 C 391.35 66.36 394.10 65.84 396.35 64.32 C 397.58 62.10 397.45 59.46 397.56 57.00 C 397.56 44.99 397.53 32.98 397.57 20.96 C 397.50 18.48 397.63 15.84 396.44 13.57 C 394.14 12.05 391.43 11.33 389.00 10.05 M 406.74 13.58 C 406.24 21.69 406.59 29.81 406.50 37.93 C 411.46 37.48 416.73 37.57 421.28 35.25 C 428.98 31.53 429.05 18.42 421.16 14.89 C 416.66 12.81 411.54 13.02 406.74 13.58 Z" />
<path fill="#000000" opacity="1.00" d=" M 541.32 10.56 C 550.23 8.95 559.36 10.14 568.38 9.78 L 568.55 11.17 C 565.48 11.87 560.51 11.70 560.23 15.90 C 559.49 25.24 560.11 34.64 559.91 44.00 C 560.06 50.03 559.53 56.09 560.24 62.08 C 560.58 66.20 565.59 65.85 568.57 66.63 C 568.53 66.98 568.45 67.66 568.41 68.00 C 559.36 67.76 550.26 68.53 541.25 67.53 C 543.97 66.35 546.98 65.94 549.62 64.57 C 551.15 62.37 550.85 59.51 550.99 56.97 C 550.94 44.64 550.98 32.32 550.99 19.99 C 550.77 17.62 551.13 14.61 549.11 12.92 C 546.63 11.78 543.87 11.45 541.32 10.56 Z" />
<path fill="#000000" opacity="1.00" d=" M 592.72 9.78 C 609.29 9.78 625.86 9.78 642.44 9.78 C 642.59 14.79 642.76 19.79 642.88 24.79 C 642.39 24.77 641.41 24.72 640.91 24.69 C 639.72 21.32 639.19 17.11 635.97 14.99 C 631.60 12.94 626.61 13.57 621.94 13.40 C 621.95 28.27 621.93 43.14 621.94 58.01 C 622.10 60.24 621.84 62.87 623.43 64.66 C 626.03 65.99 629.00 66.34 631.68 67.51 C 622.42 68.33 613.03 68.25 603.77 67.56 C 607.01 65.77 613.06 66.20 612.93 61.15 C 613.49 45.25 613.01 29.32 613.17 13.40 C 608.47 13.56 603.47 12.95 599.11 15.06 C 595.82 17.11 595.32 21.35 594.21 24.73 C 593.71 24.74 592.71 24.75 592.21 24.75 C 592.36 19.76 592.55 14.77 592.72 9.78 Z" />
<path fill="#000000" opacity="1.00" d=" M 662.01 9.93 C 670.88 9.96 679.87 9.05 688.66 10.55 C 686.27 11.26 683.81 11.78 681.51 12.73 C 681.00 15.42 682.71 17.73 684.06 19.87 C 688.00 25.71 691.90 31.58 695.80 37.45 C 699.65 31.39 703.51 25.34 707.38 19.30 C 708.52 17.32 710.11 15.20 709.40 12.78 C 707.51 11.91 705.46 11.51 703.46 11.03 L 703.62 9.78 C 710.34 9.84 717.06 9.63 723.78 9.95 C 720.53 11.95 716.75 13.32 714.38 16.47 C 709.59 22.43 705.85 29.15 701.49 35.42 C 699.90 38.07 697.37 40.57 697.65 43.90 C 697.75 49.92 697.30 55.99 697.98 61.98 C 698.60 66.74 704.61 65.69 707.91 67.49 C 702.98 68.31 697.98 67.94 693.03 68.00 C 688.26 67.95 683.46 68.31 678.75 67.49 C 681.57 66.26 684.77 66.03 687.44 64.43 C 689.44 59.91 688.41 54.79 688.70 50.00 C 688.48 46.61 689.48 42.73 687.15 39.87 C 681.67 32.04 676.56 23.95 670.75 16.36 C 668.58 13.32 665.02 11.92 662.01 9.93 Z" />
<path fill="#000000" opacity="1.00" d=" M 872.99 10.10 C 888.93 9.38 904.91 9.98 920.87 9.78 C 920.97 14.30 921.15 18.82 921.04 23.34 C 917.15 21.08 918.06 14.45 912.92 13.84 C 905.79 12.68 898.43 12.93 891.27 13.48 C 890.01 20.81 891.02 28.33 890.71 35.73 C 896.46 35.54 902.29 36.22 908.00 35.27 C 911.91 34.69 912.20 30.08 913.38 27.11 C 913.83 27.17 914.72 27.29 915.16 27.35 C 915.14 34.09 915.15 40.84 915.15 47.58 C 914.71 47.63 913.83 47.72 913.38 47.76 C 912.17 44.83 911.85 40.25 907.98 39.67 C 902.28 38.72 896.45 39.40 890.70 39.22 C 890.90 46.83 890.28 54.48 891.04 62.05 C 891.58 66.27 896.87 65.82 899.80 67.57 C 890.89 68.28 881.87 68.24 872.96 67.61 C 875.38 66.37 878.10 65.81 880.45 64.41 C 881.79 62.21 881.61 59.50 881.73 57.02 C 881.73 44.99 881.70 32.96 881.74 20.92 C 881.69 18.41 881.76 15.75 880.57 13.46 C 878.19 12.02 875.48 11.30 872.99 10.10 Z" />
<path fill="#000000" opacity="1.00" d=" M 988.72 9.78 C 1005.29 9.78 1021.86 9.78 1038.44 9.78 C 1038.59 14.78 1038.76 19.78 1038.89 24.78 C 1038.40 24.76 1037.41 24.72 1036.92 24.70 C 1035.71 21.33 1035.19 17.11 1031.96 14.98 C 1027.60 12.94 1022.61 13.57 1017.94 13.40 C 1017.93 27.94 1017.96 42.47 1017.92 57.01 C 1018.10 59.56 1017.65 62.59 1019.45 64.67 C 1022.04 65.97 1024.98 66.37 1027.64 67.53 C 1022.13 68.34 1016.55 67.90 1011.01 68.00 C 1007.30 67.96 1003.47 68.42 999.90 67.22 C 1003.16 65.73 1009.12 66.21 1008.93 61.17 C 1009.49 45.27 1009.01 29.32 1009.17 13.40 C 1004.46 13.57 999.41 12.94 995.05 15.10 C 991.82 17.18 991.31 21.37 990.21 24.73 C 989.71 24.74 988.71 24.75 988.21 24.75 C 988.36 19.76 988.54 14.77 988.72 9.78 Z" />
<path fill="#000000" opacity="1.00" d=" M 1062.30 11.12 C 1062.36 10.79 1062.47 10.11 1062.52 9.78 C 1070.62 9.78 1078.72 9.78 1086.82 9.78 C 1086.86 10.12 1086.92 10.81 1086.95 11.15 C 1084.73 11.79 1082.17 11.84 1080.35 13.39 C 1079.11 15.34 1079.16 17.75 1079.08 19.98 C 1079.05 25.47 1079.11 30.97 1079.09 36.46 C 1087.98 36.46 1096.88 36.46 1105.77 36.46 C 1105.70 30.32 1105.90 24.18 1105.71 18.04 C 1105.52 16.29 1105.49 14.13 1104.01 12.93 C 1102.16 11.91 1100.00 11.68 1097.99 11.17 C 1098.01 10.82 1098.04 10.13 1098.06 9.78 C 1106.54 10.08 1115.12 9.07 1123.53 10.48 C 1120.24 11.89 1114.55 12.00 1114.92 16.93 C 1114.66 31.64 1114.61 46.39 1114.95 61.09 C 1114.71 66.00 1120.57 65.84 1123.76 67.39 C 1114.90 68.48 1105.87 68.15 1096.99 67.61 C 1099.41 66.36 1102.16 65.84 1104.52 64.44 C 1105.67 62.54 1105.65 60.22 1105.76 58.07 C 1105.83 52.16 1105.74 46.24 1105.77 40.33 C 1096.88 40.33 1087.98 40.33 1079.09 40.33 C 1079.31 47.61 1078.61 54.95 1079.46 62.19 C 1079.98 66.30 1085.18 65.76 1088.00 67.33 C 1083.72 68.31 1079.31 67.98 1074.97 68.01 C 1070.35 67.95 1065.69 68.31 1061.13 67.39 C 1063.57 66.37 1066.25 65.88 1068.61 64.64 C 1070.26 62.93 1069.89 60.21 1070.14 58.02 C 1070.19 46.01 1070.10 34.00 1070.18 21.99 C 1070.00 19.09 1070.53 15.76 1068.76 13.25 C 1066.91 11.85 1064.45 11.75 1062.30 11.12 Z" />
<path fill="#000000" opacity="1.00" d=" M 1146.99 10.09 C 1162.88 9.38 1178.82 9.97 1194.73 9.78 C 1194.83 14.35 1195.20 18.95 1194.54 23.50 C 1191.57 20.26 1191.43 13.91 1186.01 13.63 C 1179.14 12.85 1172.11 12.87 1165.24 13.49 C 1164.05 20.82 1165.00 28.33 1164.70 35.73 C 1170.51 35.58 1176.36 36.11 1182.15 35.40 C 1186.96 35.00 1186.95 29.15 1189.40 26.05 C 1190.52 33.21 1189.77 40.50 1189.94 47.72 C 1189.48 47.69 1188.57 47.62 1188.12 47.59 C 1186.96 44.76 1186.69 40.40 1183.03 39.73 C 1176.99 38.66 1170.80 39.44 1164.71 39.22 C 1164.76 46.16 1164.61 53.10 1164.73 60.04 C 1164.73 61.64 1164.91 64.06 1167.04 64.15 C 1174.24 64.77 1181.82 65.14 1188.77 62.84 C 1194.04 61.14 1194.83 54.61 1199.48 52.17 C 1198.60 57.55 1196.91 62.73 1195.56 68.00 C 1179.36 67.76 1163.13 68.49 1146.96 67.62 C 1149.40 66.36 1152.15 65.80 1154.51 64.38 C 1156.13 61.55 1155.60 58.12 1155.75 55.00 C 1155.54 42.19 1156.02 29.35 1155.52 16.55 C 1155.54 11.92 1150.05 11.92 1146.99 10.09 Z" />
<path fill="#000000" opacity="1.00" d=" M 1267.30 11.11 C 1267.36 10.78 1267.47 10.11 1267.52 9.78 C 1275.32 9.82 1283.12 9.72 1290.93 9.81 C 1297.19 9.92 1303.97 10.85 1308.87 15.11 C 1316.08 21.06 1314.89 34.15 1306.73 38.71 C 1299.84 42.91 1291.48 42.73 1283.71 42.49 C 1283.78 48.34 1283.54 54.19 1283.79 60.03 C 1283.97 61.61 1283.95 63.53 1285.27 64.66 C 1287.74 65.95 1290.55 66.40 1293.09 67.57 C 1284.20 68.31 1275.21 68.20 1266.32 67.62 C 1269.28 65.84 1274.55 65.92 1274.66 61.47 C 1275.31 49.34 1274.73 37.16 1274.95 25.02 C 1274.79 21.13 1275.49 16.91 1273.58 13.34 C 1271.80 11.91 1269.39 11.77 1267.30 11.11 M 1284.27 13.46 C 1282.99 21.90 1284.03 30.55 1283.72 39.08 C 1288.10 39.15 1292.68 39.41 1296.86 37.78 C 1306.01 34.42 1306.68 19.06 1297.72 15.06 C 1293.56 13.15 1288.75 12.67 1284.27 13.46 Z" />
<path fill="#000000" opacity="1.00" d=" M 1335.30 11.12 C 1335.35 10.79 1335.47 10.11 1335.53 9.78 C 1343.62 9.79 1351.73 9.78 1359.83 9.78 C 1359.86 10.12 1359.92 10.81 1359.95 11.15 C 1357.72 11.78 1355.20 11.86 1353.36 13.36 C 1352.12 15.30 1352.15 17.70 1352.08 19.92 C 1352.04 25.43 1352.11 30.95 1352.09 36.46 C 1360.98 36.46 1369.87 36.46 1378.77 36.46 C 1378.58 29.58 1379.20 22.64 1378.45 15.79 C 1378.23 11.94 1373.78 11.92 1370.99 11.17 C 1371.01 10.82 1371.05 10.13 1371.06 9.78 C 1379.55 10.08 1388.12 9.07 1396.54 10.48 C 1393.63 11.98 1388.30 11.64 1388.06 15.96 C 1387.34 28.27 1387.98 40.65 1387.74 53.00 C 1387.91 56.70 1387.18 60.73 1388.85 64.17 C 1391.00 66.09 1394.21 66.15 1396.76 67.39 C 1387.91 68.48 1378.87 68.14 1369.99 67.61 C 1372.41 66.35 1375.17 65.84 1377.54 64.42 C 1378.65 62.52 1378.65 60.22 1378.76 58.08 C 1378.83 52.16 1378.74 46.25 1378.77 40.33 C 1369.87 40.33 1360.98 40.33 1352.09 40.33 C 1352.11 46.24 1352.04 52.15 1352.08 58.06 C 1352.18 60.22 1352.10 62.62 1353.42 64.47 C 1355.75 65.90 1358.51 66.37 1360.95 67.61 C 1352.05 68.14 1343.00 68.49 1334.14 67.39 C 1336.68 66.17 1339.81 65.99 1342.07 64.21 C 1343.18 61.98 1343.03 59.39 1343.16 56.98 C 1343.14 44.65 1343.15 32.32 1343.16 19.99 C 1342.98 17.73 1343.23 15.13 1341.75 13.25 C 1339.90 11.85 1337.44 11.75 1335.30 11.12 Z" />
<path fill="#000000" opacity="1.00" d=" M 1420.32 10.56 C 1429.24 8.95 1438.37 10.14 1447.39 9.78 L 1447.54 11.17 C 1444.47 11.87 1439.51 11.70 1439.23 15.90 C 1438.47 29.23 1439.15 42.64 1438.88 56.00 C 1439.08 58.88 1438.45 62.30 1440.44 64.69 C 1443.03 66.00 1445.99 66.34 1448.66 67.51 C 1439.24 68.32 1429.67 68.29 1420.26 67.53 C 1423.66 65.75 1429.90 66.31 1429.79 61.08 C 1430.24 48.08 1429.79 35.06 1430.01 22.05 C 1429.84 19.15 1430.30 15.90 1428.63 13.36 C 1426.23 11.63 1423.00 11.65 1420.32 10.56 Z" />
<path fill="#000000" opacity="1.00" d=" M 1470.99 10.09 C 1479.58 9.43 1488.21 9.94 1496.82 9.78 C 1496.86 10.12 1496.92 10.81 1496.96 11.16 C 1494.21 11.92 1490.00 11.65 1489.23 15.14 C 1488.11 22.35 1488.96 29.71 1488.71 36.98 C 1488.96 46.01 1488.10 55.10 1489.27 64.08 C 1495.17 64.76 1501.15 64.70 1507.06 64.09 C 1509.92 63.73 1513.00 63.25 1515.30 61.35 C 1518.61 58.65 1519.84 54.14 1523.49 51.78 C 1522.66 57.32 1520.76 62.60 1519.34 68.00 C 1503.22 67.76 1487.06 68.50 1470.97 67.61 C 1473.39 66.37 1476.12 65.81 1478.48 64.40 C 1479.70 62.55 1479.62 60.22 1479.73 58.09 C 1479.73 45.73 1479.69 33.36 1479.74 21.00 C 1479.68 18.46 1479.78 15.77 1478.58 13.46 C 1476.19 12.02 1473.47 11.30 1470.99 10.09 Z" />
<path fill="#000000" opacity="1.00" d=" M 1543.32 10.56 C 1552.24 8.95 1561.37 10.14 1570.39 9.78 L 1570.55 11.17 C 1567.46 11.86 1562.49 11.71 1562.22 15.92 C 1561.47 28.92 1562.15 41.99 1561.88 55.01 C 1562.07 58.20 1561.38 61.87 1563.34 64.64 C 1565.95 65.97 1568.94 66.34 1571.64 67.52 C 1562.23 68.31 1552.67 68.28 1543.26 67.53 C 1546.68 65.75 1552.93 66.29 1552.79 61.05 C 1553.23 48.07 1552.81 35.06 1553.00 22.07 C 1552.83 19.15 1553.31 15.88 1551.61 13.32 C 1549.17 11.65 1546.00 11.63 1543.32 10.56 Z" />
<path fill="#000000" opacity="1.00" d=" M 1596.29 11.11 C 1596.35 10.78 1596.47 10.11 1596.54 9.78 C 1604.65 9.83 1612.77 9.68 1620.89 9.84 C 1626.85 10.01 1633.25 11.08 1637.90 15.14 C 1645.08 21.10 1643.87 34.17 1635.72 38.72 C 1628.83 42.91 1620.47 42.73 1612.71 42.50 C 1612.75 48.01 1612.60 53.53 1612.73 59.04 C 1612.89 60.96 1612.79 63.25 1614.27 64.72 C 1616.28 65.99 1618.75 66.07 1621.04 66.60 C 1621.04 66.95 1621.04 67.65 1621.04 68.00 C 1612.46 67.82 1603.86 68.42 1595.31 67.61 C 1597.68 66.45 1600.29 65.82 1602.59 64.47 C 1604.00 62.29 1603.81 59.54 1603.95 57.05 C 1603.94 45.01 1603.93 32.96 1603.95 20.91 C 1603.85 18.35 1603.93 15.60 1602.57 13.33 C 1600.79 11.91 1598.38 11.77 1596.29 11.11 M 1613.30 13.43 C 1611.95 21.87 1613.05 30.54 1612.72 39.07 C 1617.09 39.15 1621.66 39.41 1625.83 37.79 C 1634.97 34.48 1635.70 19.16 1626.81 15.10 C 1622.64 13.15 1617.80 12.68 1613.30 13.43 Z" />
<path fill="#000000" opacity="1.00" d=" M 1663.30 11.12 C 1663.36 10.78 1663.46 10.11 1663.52 9.78 C 1671.66 9.83 1679.81 9.68 1687.95 9.84 C 1694.33 10.01 1701.30 11.30 1705.91 16.10 C 1710.23 20.48 1710.50 27.55 1708.09 32.94 C 1706.21 37.04 1702.10 39.52 1697.98 40.88 C 1692.11 42.92 1685.81 42.61 1679.71 42.49 C 1679.75 48.00 1679.60 53.50 1679.73 59.01 C 1679.88 60.93 1679.79 63.19 1681.23 64.69 C 1683.23 65.99 1685.74 66.06 1688.04 66.61 C 1688.04 66.95 1688.04 67.65 1688.04 68.00 C 1679.45 67.66 1670.74 68.76 1662.24 67.33 C 1664.65 66.35 1667.31 65.86 1669.60 64.54 C 1670.95 62.29 1670.84 59.56 1670.95 57.03 C 1670.93 45.01 1670.93 32.99 1670.95 20.98 C 1670.86 18.39 1670.94 15.61 1669.56 13.31 C 1667.76 11.92 1665.38 11.76 1663.30 11.12 M 1680.31 13.42 C 1678.94 21.87 1680.05 30.54 1679.72 39.08 C 1684.09 39.15 1688.66 39.41 1692.84 37.79 C 1701.02 34.79 1702.47 22.25 1696.25 16.68 C 1691.81 13.21 1685.71 12.63 1680.31 13.42 Z" />
<path fill="#000000" opacity="1.00" d=" M 1730.32 10.56 C 1739.24 8.95 1748.37 10.15 1757.39 9.78 L 1757.55 11.17 C 1754.45 11.86 1749.47 11.71 1749.22 15.94 C 1748.48 28.93 1749.14 41.99 1748.88 55.00 C 1749.07 58.19 1748.38 61.86 1750.33 64.63 C 1752.95 65.99 1755.96 66.32 1758.67 67.50 C 1749.24 68.32 1739.67 68.29 1730.24 67.52 C 1732.95 66.34 1735.96 65.95 1738.61 64.58 C 1740.15 62.39 1739.83 59.53 1739.99 56.99 C 1739.94 44.65 1739.98 32.32 1739.98 19.98 C 1739.76 17.61 1740.12 14.59 1738.09 12.91 C 1735.61 11.79 1732.86 11.45 1730.32 10.56 Z" />
<path fill="#000000" opacity="1.00" d=" M 1781.03 9.95 C 1786.36 9.67 1791.72 9.79 1797.08 9.79 C 1808.38 23.90 1819.66 38.03 1830.97 52.14 C 1830.96 42.40 1830.99 32.67 1830.97 22.94 C 1830.77 19.67 1830.99 15.92 1828.76 13.26 C 1826.52 11.92 1823.87 11.48 1821.52 10.48 C 1829.01 9.19 1836.67 9.86 1844.24 9.96 C 1840.75 12.04 1834.99 12.75 1835.15 17.96 C 1834.29 35.21 1835.34 52.54 1834.61 69.80 C 1829.18 64.71 1825.06 58.44 1820.24 52.80 C 1811.63 42.13 1803.03 31.45 1794.41 20.79 C 1794.42 32.22 1794.38 43.66 1794.41 55.10 C 1794.56 58.26 1794.44 61.86 1796.56 64.45 C 1798.77 65.85 1801.40 66.32 1803.81 67.35 C 1796.27 68.53 1788.54 68.10 1780.97 67.62 C 1783.54 66.24 1786.57 65.72 1788.95 63.94 C 1790.41 61.60 1790.37 58.69 1790.52 56.02 C 1790.58 42.67 1790.48 29.32 1790.56 15.97 C 1788.04 13.00 1784.42 11.59 1781.03 9.95 Z" />
<path fill="#000000" opacity="1.00" d=" M 1866.99 10.09 C 1882.88 9.38 1898.82 9.98 1914.74 9.78 C 1914.83 14.35 1915.20 18.95 1914.54 23.50 C 1911.56 20.27 1911.45 13.93 1906.04 13.64 C 1899.19 12.83 1892.19 12.91 1885.33 13.44 C 1883.91 20.75 1885.07 28.32 1884.71 35.73 C 1891.31 35.31 1898.26 36.80 1904.63 34.61 C 1907.00 32.35 1907.50 28.72 1909.40 26.05 C 1910.52 33.21 1909.77 40.49 1909.94 47.71 C 1909.49 47.68 1908.58 47.62 1908.12 47.59 C 1906.96 44.76 1906.68 40.40 1903.02 39.73 C 1896.98 38.67 1890.79 39.43 1884.71 39.22 C 1884.76 46.15 1884.60 53.09 1884.73 60.03 C 1884.73 61.62 1884.89 64.04 1887.01 64.15 C 1893.69 64.82 1900.60 64.92 1907.20 63.39 C 1912.30 62.24 1914.94 57.34 1917.25 53.12 C 1917.82 53.12 1918.97 53.13 1919.55 53.13 C 1918.21 58.09 1916.88 63.04 1915.56 68.00 C 1899.36 67.76 1883.13 68.49 1866.97 67.61 C 1869.39 66.36 1872.13 65.80 1874.50 64.39 C 1875.86 62.21 1875.62 59.50 1875.74 57.03 C 1875.71 44.99 1875.71 32.95 1875.74 20.91 C 1875.67 18.40 1875.77 15.73 1874.56 13.45 C 1872.17 12.02 1869.47 11.29 1866.99 10.09 Z" />
</g>
</svg>
