<?xml version="1.0" encoding="UTF-8" standalone="no"?>
<!-- Created with Inkscape (http://www.inkscape.org/) -->

<svg
   xmlns:dc="http://purl.org/dc/elements/1.1/"
   xmlns:cc="http://creativecommons.org/ns#"
   xmlns:rdf="http://www.w3.org/1999/02/22-rdf-syntax-ns#"
   xmlns:svg="http://www.w3.org/2000/svg"
   xmlns="http://www.w3.org/2000/svg"
   version="1.1"
   width="538.58264"
   height="286.65353"
   id="svg14803">
  <defs
     id="defs14805" />
  <metadata
     id="metadata14808">
    <rdf:RDF>
      <cc:Work
         rdf:about="">
        <dc:format>image/svg+xml</dc:format>
        <dc:type
           rdf:resource="http://purl.org/dc/dcmitype/StillImage" />
        <dc:title></dc:title>
      </cc:Work>
    </rdf:RDF>
  </metadata>
  <g
     transform="translate(-125.31506,-414.97599)"
     id="layer1">
    <g
       transform="matrix(5.0032224,0,0,5.0032224,-1097.8153,-2539.8212)"
       id="g14896">
      <g
         transform="matrix(1.25,0,0,-1.25,312.34072,625.44871)"
         id="g14573">
        <path
           d="m 0,0 c 0,-1.352 -0.804,-2.244 -2.433,-2.244 -1.157,0 -2.282,0.655 -2.282,2.163 l 0,3.434 0.787,0 0,-3.264 c 0,-0.622 0.082,-0.884 0.33,-1.134 0.313,-0.316 0.706,-0.47 1.182,-0.47 0.601,0 1.035,0.196 1.282,0.446 0.282,0.283 0.346,0.69 0.346,1.206 l 0,3.216 L 0,3.353 0,0 z"
           id="path14575"
           style="fill:#8f8b8d;fill-opacity:1;fill-rule:nonzero;stroke:none" />
      </g>
      <g
         transform="matrix(1.25,0,0,-1.25,314.95047,624.21284)"
         id="g14577">
        <path
           d="m 0,0 0.015,0 c 0.273,0.347 0.675,0.549 1.076,0.549 0.684,0 1.228,-0.468 1.228,-1.464 l 0,-2.245 -0.715,0 0,2.253 c 0,0.533 -0.271,0.883 -0.706,0.883 -0.313,0 -0.559,-0.147 -0.898,-0.529 l 0,-2.607 -0.715,0 0,3.638 L 0,0.478 0,0 z"
           id="path14579"
           style="fill:#8f8b8d;fill-opacity:1;fill-rule:nonzero;stroke:none" />
      </g>
      <g
         transform="matrix(1.25,0,0,-1.25,320.0696,622.77609)"
         id="g14581">
        <path
           d="M 0,0 C -0.234,0 -0.427,0.194 -0.427,0.432 -0.427,0.665 -0.234,0.86 0,0.86 0.234,0.86 0.425,0.665 0.425,0.432 0.425,0.194 0.234,0 0,0 m 0.353,-4.31 -0.713,0 0,3.639 0.713,0 0,-3.639 z"
           id="path14583"
           style="fill:#8f8b8d;fill-opacity:1;fill-rule:nonzero;stroke:none" />
      </g>
      <g
         transform="matrix(1.25,0,0,-1.25,321.69547,623.61521)"
         id="g14585">
        <path
           d="M 0,0 0.779,0 1.749,-2.237 2.698,0 3.462,0 1.87,-3.71 1.631,-3.71 0,0 z"
           id="path14587"
           style="fill:#8f8b8d;fill-opacity:1;fill-rule:nonzero;stroke:none" />
      </g>
      <g
         transform="matrix(1.25,0,0,-1.25,330.95822,627.71621)"
         id="g14589">
        <path
           d="m 0,0 c -0.431,-0.291 -0.826,-0.43 -1.438,-0.43 -1.123,0 -1.75,0.932 -1.75,1.935 0,1.104 0.693,1.847 1.688,1.847 0.956,0 1.568,-0.655 1.568,-2 l -2.541,0 c 0.113,-0.72 0.522,-1.095 1.214,-1.095 0.433,0 0.842,0.164 1.259,0.438 L 0,0 m -0.639,1.829 c -0.025,0.552 -0.339,0.9 -0.844,0.9 -0.548,0 -0.877,-0.325 -0.973,-0.9 l 1.817,0 z"
           id="path14591"
           style="fill:#8f8b8d;fill-opacity:1;fill-rule:nonzero;stroke:none" />
      </g>
      <g
         transform="matrix(1.25,0,0,-1.25,333.46059,623.61521)"
         id="g14593">
        <path
           d="m 0,0 0,-0.835 0.017,0 c 0.359,0.641 0.706,0.906 1.043,0.906 0.29,0 0.561,-0.136 0.858,-0.42 L 1.541,-0.973 C 1.323,-0.761 1.045,-0.617 0.873,-0.617 0.385,-0.617 0,-1.109 0,-1.733 l 0,-1.905 -0.715,0 0,3.638 L 0,0 z"
           id="path14595"
           style="fill:#8f8b8d;fill-opacity:1;fill-rule:nonzero;stroke:none" />
      </g>
      <g
         transform="matrix(1.25,0,0,-1.25,337.5036,627.35184)"
         id="g14597">
        <path
           d="m 0,0 1.929,0 0,-0.649 -3.165,0 1.912,2.989 -1.83,0 0,0.649 3.074,0 L 0,0 z"
           id="path14599"
           style="fill:#8f8b8d;fill-opacity:1;fill-rule:nonzero;stroke:none" />
      </g>
      <g
         transform="matrix(1.25,0,0,-1.25,341.6406,622.77609)"
         id="g14601">
        <path
           d="M 0,0 C -0.234,0 -0.427,0.194 -0.427,0.432 -0.427,0.665 -0.234,0.86 0,0.86 0.234,0.86 0.425,0.665 0.425,0.432 0.425,0.194 0.234,0 0,0 m 0.354,-4.31 -0.715,0 0,3.639 0.715,0 0,-3.639 z"
           id="path14603"
           style="fill:#8f8b8d;fill-opacity:1;fill-rule:nonzero;stroke:none" />
      </g>
      <g
         transform="matrix(1.25,0,0,-1.25,345.01222,623.61521)"
         id="g14605">
        <path
           d="m 0,0 1.143,0 0,-0.649 -1.143,0 0,-1.863 c 0,-0.428 0.306,-0.551 0.515,-0.551 0.257,0 0.522,0.091 0.81,0.268 l 0,-0.674 C 1.077,-3.605 0.69,-3.71 0.46,-3.71 c -0.78,0 -1.175,0.483 -1.175,1.141 l 0,1.92 -0.625,0 0,0.08 L 0,0.753 0,0 z"
           id="path14607"
           style="fill:#8f8b8d;fill-opacity:1;fill-rule:nonzero;stroke:none" />
      </g>
      <g
         transform="matrix(1.25,0,0,-1.25,351.40747,627.89683)"
         id="g14609">
        <path
           d="m 0,0 c -0.33,-0.222 -0.466,-0.285 -0.69,-0.285 -0.315,0 -0.481,0.114 -0.547,0.371 -0.314,-0.25 -0.642,-0.371 -0.971,-0.371 -0.53,0 -0.885,0.42 -0.885,0.892 0,0.72 0.652,0.938 1.23,1.148 l 0.634,0.228 0,0.196 c 0,0.453 -0.218,0.641 -0.65,0.641 -0.395,0 -0.796,-0.188 -1.14,-0.603 l 0,0.786 c 0.281,0.331 0.673,0.493 1.196,0.493 0.732,0 1.308,-0.37 1.308,-1.197 l 0,-1.872 c 0,-0.137 0.049,-0.187 0.137,-0.187 0.071,0 0.218,0.074 0.378,0.196 L 0,0 M -1.229,1.587 C -1.84,1.376 -2.37,1.163 -2.37,0.735 c 0,-0.299 0.218,-0.51 0.515,-0.51 0.224,0 0.432,0.115 0.626,0.299 l 0,1.063 z"
           id="path14611"
           style="fill:#8f8b8d;fill-opacity:1;fill-rule:nonzero;stroke:none" />
      </g>
      <g
         transform="matrix(1.25,0,0,-1.25,308.67734,632.23034)"
         id="g14613">
        <path
           d="m 0,0 c 1.196,0 1.743,-0.715 1.743,-1.589 0,-0.869 -0.58,-1.547 -1.847,-1.547 l -0.819,0 0,-2.391 -0.789,0 0,5.527 L 0,0 m -0.923,-2.424 0.891,0 c 0.585,0 0.964,0.316 0.964,0.869 0,0.404 -0.217,0.84 -0.932,0.84 l -0.923,0 0,-1.709 z"
           id="path14615"
           style="fill:#8f8b8d;fill-opacity:1;fill-rule:nonzero;stroke:none" />
      </g>
      <g
         transform="matrix(1.25,0,0,-1.25,315.58222,638.87534)"
         id="g14617">
        <path
           d="m 0,0 c -0.33,-0.219 -0.467,-0.282 -0.689,-0.282 -0.314,0 -0.484,0.111 -0.548,0.371 -0.313,-0.251 -0.643,-0.371 -0.972,-0.371 -0.528,0 -0.882,0.419 -0.882,0.89 0,0.72 0.65,0.94 1.228,1.148 l 0.635,0.23 0,0.194 c 0,0.453 -0.217,0.641 -0.652,0.641 -0.393,0 -0.793,-0.188 -1.14,-0.599 l 0,0.782 c 0.283,0.333 0.676,0.495 1.199,0.495 0.73,0 1.308,-0.371 1.308,-1.199 l 0,-1.87 c 0,-0.139 0.046,-0.187 0.137,-0.187 0.071,0 0.217,0.074 0.376,0.195 L 0,0 m -1.228,1.588 c -0.61,-0.211 -1.14,-0.421 -1.14,-0.85 0,-0.3 0.215,-0.511 0.513,-0.511 0.225,0 0.434,0.113 0.627,0.298 l 0,1.063 z"
           id="path14619"
           style="fill:#8f8b8d;fill-opacity:1;fill-rule:nonzero;stroke:none" />
      </g>
      <g
         transform="matrix(1.25,0,0,-1.25,317.82772,634.58996)"
         id="g14621">
        <path
           d="m 0,0 0,-0.835 0.017,0 c 0.364,0.639 0.707,0.906 1.045,0.906 0.29,0 0.563,-0.137 0.859,-0.421 L 1.542,-0.974 C 1.33,-0.763 1.045,-0.616 0.878,-0.616 0.388,-0.616 0,-1.111 0,-1.735 l 0,-1.904 -0.713,0 0,3.639 L 0,0 z"
           id="path14623"
           style="fill:#8f8b8d;fill-opacity:1;fill-rule:nonzero;stroke:none" />
      </g>
      <g
         transform="matrix(1.25,0,0,-1.25,324.74784,639.13896)"
         id="g14625">
        <path
           d="m 0,0 -1.519,0 c -1.076,0 -1.752,0.736 -1.752,1.904 0,1.054 0.749,1.806 1.8,1.806 0.243,0 0.465,-0.039 0.756,-0.147 l 0,1.964 L 0,5.527 0,0 m -0.715,2.924 c -0.242,0.099 -0.425,0.138 -0.667,0.138 -0.69,0 -1.157,-0.501 -1.157,-1.263 0,-0.681 0.274,-1.191 1.101,-1.191 l 0.723,0 0,2.316 z"
           id="path14627"
           style="fill:#8f8b8d;fill-opacity:1;fill-rule:nonzero;stroke:none" />
      </g>
      <g
         transform="matrix(1.25,0,0,-1.25,329.33472,639.13896)"
         id="g14629">
        <path
           d="m 0,0 0,0.462 c -0.297,-0.325 -0.715,-0.533 -1.069,-0.533 -0.732,0 -1.246,0.525 -1.246,1.448 l 0,2.262 0.717,0 0,-2.309 c 0,-0.511 0.248,-0.802 0.737,-0.802 0.322,0 0.627,0.178 0.861,0.507 l 0,2.604 0.713,0 L 0.713,0 0,0 z"
           id="path14631"
           style="fill:#8f8b8d;fill-opacity:1;fill-rule:nonzero;stroke:none" />
      </g>
      <g
         transform="matrix(1.25,0,0,-1.25,332.85035,634.91708)"
         id="g14633">
        <path
           d="m 0,0 c 0.313,0.228 0.631,0.333 0.993,0.333 0.899,0 1.558,-0.769 1.558,-1.814 0,-1.231 -0.723,-1.968 -1.926,-1.968 -0.476,0 -0.989,0.104 -1.34,0.275 l 0,5.323 L 0,2.149 0,0 m 0,-2.655 c 0.208,-0.066 0.513,-0.114 0.723,-0.114 0.638,0 1.098,0.493 1.098,1.183 0,0.769 -0.402,1.27 -1.004,1.27 -0.296,0 -0.514,-0.096 -0.817,-0.372 l 0,-1.967 z"
           id="path14635"
           style="fill:#8f8b8d;fill-opacity:1;fill-rule:nonzero;stroke:none" />
      </g>
      <g
         transform="matrix(1.25,0,0,-1.25,337.98822,633.75196)"
         id="g14637">
        <path
           d="M 0,0 C -0.234,0 -0.427,0.195 -0.427,0.431 -0.427,0.664 -0.234,0.86 0,0.86 0.229,0.86 0.426,0.664 0.426,0.431 0.426,0.195 0.229,0 0,0 m 0.352,-4.31 -0.715,0 0,3.64 0.715,0 0,-3.64 z"
           id="path14639"
           style="fill:#8f8b8d;fill-opacity:1;fill-rule:nonzero;stroke:none" />
      </g>
      <g
         transform="matrix(1.25,0,0,-1.25,343.53022,635.77646)"
         id="g14641">
        <path
           d="m 0,0 c -0.41,0.276 -0.685,0.357 -0.999,0.357 -0.648,0 -1.099,-0.494 -1.099,-1.233 0,-0.752 0.481,-1.206 1.221,-1.206 0.304,0 0.593,0.082 0.957,0.244 l 0,-0.715 c -0.244,-0.113 -0.7,-0.208 -1.079,-0.208 -1.074,0 -1.83,0.753 -1.83,1.821 0,1.199 0.69,1.96 1.784,1.96 0.417,0 0.697,-0.095 1.045,-0.249 L 0,0 z"
           id="path14643"
           style="fill:#8f8b8d;fill-opacity:1;fill-rule:nonzero;stroke:none" />
      </g>
      <g
         transform="matrix(1.25,0,0,-1.25,348.87809,638.69221)"
         id="g14645">
        <path
           d="m 0,0 c -0.435,-0.292 -0.827,-0.429 -1.438,-0.429 -1.125,0 -1.75,0.931 -1.75,1.934 0,1.103 0.69,1.848 1.687,1.848 0.954,0 1.564,-0.657 1.564,-2 l -2.536,0 C -2.36,0.631 -1.95,0.259 -1.262,0.259 -0.827,0.259 -0.418,0.42 0,0.695 L 0,0 M -0.644,1.83 C -0.667,2.383 -0.981,2.729 -1.487,2.729 -2.03,2.729 -2.36,2.405 -2.458,1.83 l 1.814,0 z"
           id="path14647"
           style="fill:#8f8b8d;fill-opacity:1;fill-rule:nonzero;stroke:none" />
      </g>
      <g
         transform="matrix(1.25,0,0,-1.25,273.10172,591.30446)"
         id="g14649">
        <path
           d="m 0,0 c -5.356,0 -10.268,-1.888 -14.116,-5.029 l 0,-10.606 c 0,-2.73 1.977,-4.372 4.708,-4.372 2.507,0 4.819,1.309 4.819,4.708 l 0,10.584 4.735,0 0,-10.78 c 0,-6.295 -4.29,-8.468 -9.499,-8.468 -5.515,0 -9.498,2.563 -9.498,8.441 l 0,5.138 c -2.198,-3.459 -3.489,-7.55 -3.489,-11.953 0,-12.336 10.001,-22.337 22.34,-22.337 12.337,0 22.337,10.001 22.337,22.337 C 22.337,-9.999 12.337,0 0,0 m 10.917,-38.394 c -1.481,0 -2.682,1.2 -2.682,2.679 0,1.48 1.201,2.68 2.682,2.68 1.477,0 2.679,-1.2 2.679,-2.68 0,-1.479 -1.202,-2.679 -2.679,-2.679 m 0,9.12 c -1.481,0 -2.682,1.199 -2.682,2.679 0,1.478 1.201,2.678 2.682,2.678 1.477,0 2.679,-1.2 2.679,-2.678 0,-1.48 -1.202,-2.679 -2.679,-2.679 z"
           id="path14651"
           style="fill:#ed1c24;fill-opacity:1;fill-rule:nonzero;stroke:none" />
      </g>
    </g>
  </g>
</svg>
