<?xml version="1.0" encoding="UTF-8" standalone="no"?>
<!-- Created with Inkscape (http://www.inkscape.org/) -->

<svg
   xmlns:dc="http://purl.org/dc/elements/1.1/"
   xmlns:cc="http://creativecommons.org/ns#"
   xmlns:rdf="http://www.w3.org/1999/02/22-rdf-syntax-ns#"
   xmlns:svg="http://www.w3.org/2000/svg"
   xmlns="http://www.w3.org/2000/svg"
   version="1.1"
   width="360.27924"
   height="490.1774"
   id="svg3160">
  <defs
     id="defs3162" />
  <g
     transform="translate(-211.79957,-350.68454)"
     id="layer1">
    <g
       transform="matrix(1.25,0,0,-1.25,-51.426875,1057.8053)"
       id="g3176">
      <g
         transform="matrix(3.7500936,0,0,3.7500936,224.09022,210.71186)"
         id="g3188">
        <path
           d="m 0,0 c 0.094,0.094 0,0.188 0,0.188 l -0.471,0.283 c -0.094,0.094 -0.094,0.188 -0.094,0.282 0,0.094 0.094,0.094 0.283,0 L 1.694,0.094 C 1.788,0 1.883,-0.094 1.788,-0.094 1.788,-0.188 1.694,-0.282 1.6,-0.282 l -0.47,0.094 c -0.095,0 -0.095,-0.094 -0.189,-0.189 L -0.471,-4.33 c -0.282,-0.753 0.283,-1.506 1.224,-1.882 0.941,-0.377 1.788,-0.094 2.071,0.753 l 1.412,3.953 c 0.094,0.094 0,0.188 0,0.188 l -0.377,0.283 c -0.094,0.094 -0.188,0.094 -0.094,0.188 0,0.094 0.094,0.188 0.188,0.094 l 1.883,-0.659 c 0.094,0 0.188,-0.094 0.094,-0.188 0,-0.094 -0.094,-0.094 -0.188,-0.094 l -0.471,0 c -0.094,0 -0.188,0 -0.282,-0.094 L 3.671,-5.648 C 3.2,-6.965 1.694,-7.154 0.471,-6.683 c -1.224,0.377 -2.259,1.412 -1.789,2.824"
           id="path3190"
           style="fill:#005983;fill-opacity:1;fill-rule:evenodd;stroke:none" />
      </g>
      <g
         transform="matrix(3.7500936,0,0,3.7500936,253.74217,201.17912)"
         id="g3192">
        <path
           d="m 0,0 c 0,0.094 -0.094,0.188 -0.094,0.188 l -0.471,0.189 c -0.188,0.094 -0.188,0.188 -0.188,0.282 0,0.094 0.094,0.094 0.282,0.094 l 1.318,-0.282 3.012,-5.742 0.753,4.518 c 0.094,0.094 0,0.094 0,0.188 l -0.376,0.188 c -0.189,0 -0.189,0.095 -0.189,0.189 0,0.094 0.095,0.188 0.189,0.094 l 1.882,-0.283 c 0.094,0 0.188,-0.094 0.188,-0.188 C 6.212,-0.659 6.212,-0.659 6.024,-0.753 l -0.471,0 c -0.094,0 -0.188,-0.094 -0.188,-0.188 l -0.941,-5.93 -0.659,0.094 -3.106,5.93 -0.094,0 -0.753,-4.612 c 0,-0.094 0,-0.189 0.094,-0.189 l 0.376,-0.188 c 0.094,-0.094 0.189,-0.094 0.189,-0.282 0,0 -0.095,-0.094 -0.189,-0.094 L -1.6,-5.836 c -0.094,0 -0.188,0.094 -0.188,0.094 0,0.094 0.094,0.189 0.188,0.189 l 0.471,0.094 c 0.094,0 0.188,0 0.188,0.094"
           id="path3194"
           style="fill:#005983;fill-opacity:1;fill-rule:evenodd;stroke:none" />
      </g>
      <g
         transform="matrix(3.7500936,0,0,3.7500936,286.21423,196.94526)"
         id="g3196">
        <path
           d="m 0,0 c 0,0.188 -0.094,0.188 -0.188,0.282 l -0.377,0.095 c -0.188,0 -0.188,0.094 -0.188,0.188 0,0.094 0.094,0.094 0.282,0.094 l 1.977,0 C 1.694,0.659 1.788,0.565 1.788,0.471 1.788,0.377 1.694,0.282 1.6,0.282 L 1.13,0.188 C 1.035,0.188 1.035,0.094 0.941,0 L 0.847,-5.365 c 0,-0.188 0,-0.188 0.094,-0.188 l 0.471,-0.189 c 0.094,0 0.188,-0.094 0.188,-0.188 0,-0.094 -0.188,-0.094 -0.282,-0.094 l -2.071,0 c -0.094,0 -0.282,0.094 -0.282,0.188 0,0.094 0.094,0.189 0.282,0.189 l 0.377,0.094 c 0.094,0 0.188,0.094 0.188,0.282"
           id="path3198"
           style="fill:#005983;fill-opacity:1;fill-rule:evenodd;stroke:none" />
      </g>
      <g
         transform="matrix(3.7500936,0,0,3.7500936,301.03839,196.2365)"
         id="g3200">
        <path
           d="m 0,0 c -0.094,0.282 -0.188,0.282 -0.377,0.377 l -0.282,0 c -0.188,0.094 -0.282,0.094 -0.282,0.188 0,0.094 0.094,0.188 0.188,0.188 L 1.412,0.941 C 1.506,0.941 1.6,0.847 1.6,0.847 1.6,0.753 1.6,0.659 1.506,0.659 L 1.318,0.565 C 1.035,0.471 0.941,0.377 0.941,0.282 1.035,0.188 1.035,0.188 1.035,0.094 l 2.071,-4.33 0.094,0 1.224,4.707 c 0.094,0.094 0.094,0.094 0.094,0.188 0,0 -0.094,0.094 -0.282,0.188 l -0.283,0 c -0.094,0 -0.188,0.094 -0.188,0.188 0,0 0.094,0.095 0.188,0.095 l 1.883,0.188 c 0.094,0 0.188,0 0.188,-0.094 C 6.024,1.13 5.93,1.035 5.742,0.941 L 5.459,0.847 C 5.365,0.847 5.271,0.753 5.271,0.659 L 3.483,-5.648 2.824,-5.742"
           id="path3202"
           style="fill:#005983;fill-opacity:1;fill-rule:evenodd;stroke:none" />
      </g>
      <g
         transform="matrix(3.7500936,0,0,3.7500936,331.04285,200.4741)"
         id="g3204">
        <path
           d="m 0,0 c 0,0.094 -0.094,0.188 -0.188,0.188 l -0.471,0 c -0.094,0 -0.188,0 -0.282,0.094 0,0.094 0.094,0.189 0.282,0.283 L 3.671,1.6 3.953,0.753 C 4.047,0.659 4.047,0.565 4.047,0.471 c 0,-0.095 0,-0.189 -0.188,-0.283 -0.094,0 -0.188,0 -0.282,0.188 L 3.2,0.753 C 3.2,0.847 3.106,0.847 3.012,0.847 L 0.941,0.376 1.506,-1.977 3.294,-1.6 c 0.094,0.094 0.189,0.094 0.189,0.282 l 0,0.377 c 0.094,0.094 0.094,0.188 0.188,0.188 0.188,0 0.282,0 0.282,-0.188 L 4.33,-2.447 c 0,-0.094 0,-0.189 -0.188,-0.189 -0.095,-0.094 -0.189,0 -0.189,0.095 L 3.765,-2.259 C 3.671,-2.071 3.577,-2.071 3.388,-2.165 L 1.694,-2.541 2.259,-4.895 c 0,-0.094 0.094,-0.188 0.188,-0.094 l 1.883,0.471 c 0.094,0 0.188,0.094 0.188,0.188 l 0.377,0.847 c 0,0.094 0.094,0.094 0.188,0.189 0.094,0 0.282,-0.095 0.282,-0.189 l 0,-1.412 -4.424,-1.035 c -0.188,-0.094 -0.282,-0.094 -0.376,0.094 0,0.094 0.094,0.094 0.188,0.188 l 0.471,0.189 c 0,0.094 0.094,0.094 0,0.282"
           id="path3206"
           style="fill:#005983;fill-opacity:1;fill-rule:evenodd;stroke:none" />
      </g>
      <g
         transform="matrix(3.7500936,0,0,3.7500936,362.45738,200.12159)"
         id="g3208">
        <path
           d="M 0,0 0.565,0.282 C 1.318,0.565 1.882,1.224 1.506,2.071 1.224,2.824 0.659,3.106 -0.282,2.73 L -0.941,2.447 0,0 z m -1.883,1.977 c 0,0.094 -0.094,0.188 -0.188,0.094 l -0.659,0 c 0,0.188 0.094,0.282 0.189,0.282 l 2.164,0.941 C 1.035,3.859 1.977,3.577 2.447,2.447 2.73,1.788 2.447,0.941 1.788,0.376 l 2.259,-1.882 0.659,0 c 0.189,0 0.283,0 0.283,-0.094 0.094,-0.094 0,-0.188 -0.094,-0.188 L 3.577,-2.353 0.941,-0.188 0.188,-0.471 1.035,-2.636 C 1.129,-2.73 1.224,-2.824 1.318,-2.73 l 0.376,0 c 0.094,0 0.188,0 0.283,-0.094 0,-0.094 0,-0.188 -0.095,-0.188 l -1.976,-0.753 c -0.094,-0.094 -0.283,-0.094 -0.283,0 -0.094,0.094 0,0.188 0.095,0.282 l 0.376,0.189 c 0.094,0.094 0.094,0.188 0.094,0.282"
           id="path3210"
           style="fill:#005983;fill-opacity:1;fill-rule:evenodd;stroke:none" />
      </g>
      <g
         transform="matrix(3.7500936,0,0,3.7500936,388.93304,224.4747)"
         id="g3212">
        <path
           d="m 0,0 -1.694,-1.035 c -0.094,0 -0.188,-0.095 -0.188,-0.283 l -0.095,-0.753 c 0,-0.094 0,-0.188 -0.094,-0.188 -0.188,-0.094 -0.282,-0.094 -0.376,0 l 0,0.188 -0.377,1.036 L 0.941,1.13 0.659,-6.212 2.73,-4.989 C 2.824,-4.895 2.824,-4.8 2.824,-4.8 l 0.094,0.847 c 0,0.188 0,0.282 0.188,0.376 0.094,0.094 0.188,0.094 0.283,0 0,-0.094 0.094,-0.282 0.094,-0.376 l 0.282,-1.036 -4.047,-2.353"
           id="path3214"
           style="fill:#005983;fill-opacity:1;fill-rule:evenodd;stroke:none" />
      </g>
      <g
         transform="matrix(3.7500936,0,0,3.7500936,409.7611,223.06467)"
         id="g3216">
        <path
           d="M 0,0 1.6,1.318 -0.847,2.824 0,0 z m -1.883,3.765 0.565,0.377 5.554,-3.389 0.282,0 0.377,0.188 0.282,0 c 0.094,-0.094 0,-0.188 -0.094,-0.282 l -1.6,-1.224 C 3.389,-0.659 3.294,-0.659 3.2,-0.659 c 0,0.094 0,0.188 0.094,0.377 L 3.483,0 l 0,0.094 c 0,0.094 -0.094,0.094 -0.094,0.094 l -1.13,0.753 -2.071,-1.6 0.377,-1.224 c 0,0 0.094,-0.094 0.094,-0.188 0,0 0.094,-0.094 0.188,0 l 0.283,0.094 c 0.188,0.094 0.282,0.094 0.282,0 0.094,-0.094 0.094,-0.188 0,-0.282 l -1.506,-1.13 c -0.094,-0.094 -0.188,-0.094 -0.282,0 0,0.095 0,0.189 0.094,0.283 L 0,-2.73 c 0,0 0,0.189 -0.094,0.377"
           id="path3218"
           style="fill:#005983;fill-opacity:1;fill-rule:evenodd;stroke:none" />
      </g>
      <g
         transform="matrix(3.7500936,0,0,3.7500936,427.76151,256.95051)"
         id="g3220">
        <path
           d="m 0,0 c 0,0.094 -0.188,0 -0.188,0 l -0.377,-0.282 c -0.094,-0.095 -0.282,-0.095 -0.282,0 -0.094,0 -0.094,0.094 0,0.188 L 0,0.941 l 6.495,0 -3.577,2.824 -0.188,0 -0.377,-0.282 c -0.094,-0.094 -0.188,-0.094 -0.282,0 0,0 -0.094,0.094 0,0.188 l 1.223,1.506 c 0,0.094 0.095,0.188 0.189,0.094 0.094,0 0.094,-0.094 0,-0.282 L 3.294,4.612 c 0,-0.094 0,-0.188 0.095,-0.282 L 8.189,0.659 7.812,0.094 1.13,0.094 4.8,-2.73 c 0.095,-0.094 0.095,-0.094 0.189,0 l 0.376,0.189 c 0.094,0.094 0.188,0.188 0.283,0.094 l 0,-0.189 -1.224,-1.506 C 4.33,-4.236 4.33,-4.33 4.236,-4.236 c -0.094,0 -0.094,0.094 -0.094,0.283 l 0.188,0.376 c 0.094,0.094 0.094,0.188 0,0.283"
           id="path3222"
           style="fill:#005983;fill-opacity:1;fill-rule:evenodd;stroke:none" />
      </g>
      <g
         transform="matrix(3.7500936,0,0,3.7500936,458.46731,277.42227)"
         id="g3224">
        <path
           d="m 0,0 1.035,1.788 -2.918,0.565 0,-0.094 L 0,0 z M -3.106,2.73 -2.73,3.388 3.671,2.353 c 0.094,0 0.188,0 0.188,0.094 L 4.142,2.635 C 4.33,2.824 4.424,2.824 4.424,2.824 4.518,2.73 4.518,2.635 4.518,2.541 L 3.483,0.753 C 3.389,0.659 3.294,0.565 3.2,0.659 l 0,0.376 0.094,0.283 c 0,0.094 0,0.094 -0.094,0.094 0,0 -0.094,0.094 -0.188,0.094 L 1.788,1.694 0.471,-0.565 1.224,-1.506 c 0.094,0 0.188,-0.094 0.188,-0.094 0,-0.094 0.094,-0.094 0.188,0 l 0.283,0.188 c 0.094,0.188 0.188,0.188 0.188,0.094 0.094,0 0.094,-0.094 0.094,-0.188 l -0.941,-1.6 C 1.13,-3.294 1.035,-3.294 1.035,-3.2 c -0.094,0 -0.094,0.094 -0.094,0.282 l 0.094,0.377 c 0,0.094 0,0.188 -0.188,0.376"
           id="path3226"
           style="fill:#005983;fill-opacity:1;fill-rule:evenodd;stroke:none" />
      </g>
      <g
         transform="matrix(3.7500936,0,0,3.7500936,474.70518,318.36954)"
         id="g3228">
        <path
           d="m 0,0 0.282,0.847 c 0.283,0.847 0,1.412 -0.941,1.694 -0.753,0.189 -1.318,0 -1.6,-0.941 L -2.541,0.847 0,0 z m -2.73,-0.188 c -0.094,0.094 -0.188,0 -0.282,-0.094 L -3.2,-0.659 c -0.094,-0.094 -0.189,-0.188 -0.189,-0.094 -0.188,0 -0.188,0.188 -0.094,0.282 l 0.753,2.636 c 0.377,1.129 1.224,1.694 2.354,1.318 1.223,-0.377 1.6,-1.695 1.223,-2.824 L 0.565,-0.188 2.73,-0.847 c 0.094,0 0.188,0 0.188,0.094 l 0.188,0.282 c 0.094,0.189 0.188,0.189 0.283,0.189 0.094,0 0.094,-0.095 0.094,-0.189 L 2.824,-2.447 C 2.824,-2.636 2.73,-2.73 2.636,-2.73 2.541,-2.636 2.541,-2.541 2.541,-2.447 l 0,0.47 c 0,0.094 0,0.189 -0.188,0.189"
           id="path3230"
           style="fill:#005983;fill-opacity:1;fill-rule:evenodd;stroke:none" />
      </g>
      <g
         transform="matrix(3.7500936,0,0,3.7500936,481.06159,344.13644)"
         id="g3232">
        <path
           d="M 0,0 0.094,0.565 C 0.282,1.412 0,2.165 -0.941,2.353 -1.694,2.447 -2.259,2.165 -2.447,1.13 L -2.541,0.377 0,0 z m -2.635,-0.565 c -0.095,0 -0.189,-0.094 -0.189,-0.188 L -3.012,-1.13 C -3.106,-1.224 -3.2,-1.318 -3.2,-1.318 c -0.189,0 -0.189,0.188 -0.189,0.283 l 0.377,2.447 c 0.282,1.412 1.035,2.071 2.165,1.882 0.753,-0.094 1.412,-0.847 1.506,-1.6 l 2.73,0.942 C 3.483,2.73 3.577,2.73 3.577,2.824 L 3.765,3.2 C 3.859,3.389 3.859,3.389 4.047,3.389 4.142,3.389 4.142,3.294 4.142,3.2 L 3.859,1.788 0.659,0.659 0.565,-0.094 2.824,-0.471 c 0.094,0 0.188,0 0.188,0.095 L 3.2,0 c 0.094,0.094 0.189,0.188 0.283,0.094 0.094,0 0.094,0 0.094,-0.188 L 3.2,-2.071 c 0,-0.188 -0.094,-0.282 -0.188,-0.282 -0.094,0 -0.094,0.094 -0.094,0.282 l -0.094,0.377 c 0,0.094 0,0.188 -0.188,0.188"
           id="path3234"
           style="fill:#005983;fill-opacity:1;fill-rule:evenodd;stroke:none" />
      </g>
      <g
         transform="matrix(3.7500936,0,0,3.7500936,474.70518,368.49329)"
         id="g3236">
        <path
           d="m 0,0 c -0.188,0 -0.282,-0.094 -0.282,-0.188 l -0.094,-0.377 c -0.095,-0.188 -0.095,-0.282 -0.189,-0.282 -0.188,0.094 -0.188,0.188 -0.188,0.376 l 0.094,1.883 c 0,0.188 0.094,0.282 0.188,0.282 0.095,0 0.095,-0.094 0.189,-0.188 l 0.094,-0.471 c 0,-0.094 0,-0.188 0.188,-0.188 L 5.271,0.659 c 0.188,0 0.282,0 0.282,0.094 l 0.189,0.471 c 0,0.094 0,0.188 0.094,0.188 0.188,0 0.188,-0.094 0.188,-0.282 L 5.93,-0.847 c 0,-0.094 -0.094,-0.283 -0.188,-0.283 -0.094,0 -0.094,0.095 -0.094,0.283 l -0.095,0.376 c -0.094,0.094 -0.094,0.189 -0.282,0.189"
           id="path3238"
           style="fill:#005983;fill-opacity:1;fill-rule:evenodd;stroke:none" />
      </g>
      <g
         transform="matrix(3.7500936,0,0,3.7500936,476.47151,385.43622)"
         id="g3240">
        <path
           d="m 0,0 -0.376,0 c -0.189,0 -0.189,-0.094 -0.283,-0.282 l 0,-0.189 c 0,-0.188 -0.094,-0.282 -0.188,-0.282 0,0 -0.094,0.094 -0.188,0.188 l -0.095,1.6 5.083,2.636 -5.553,1.694 -0.188,1.6 c 0,0.189 0.094,0.283 0.094,0.283 0.094,0 0.188,-0.094 0.282,-0.283 l 0,-0.188 c 0.094,-0.188 0.188,-0.282 0.282,-0.282 0.189,0 0.283,0 0.377,0.094 L 4.236,7.53 C 4.33,7.624 4.424,7.624 4.424,7.718 l 0.094,0.377 c 0,0.188 0,0.282 0.094,0.282 C 4.706,8.377 4.8,8.283 4.8,8.189 L 5.083,6.024 C 5.083,5.93 4.989,5.836 4.895,5.836 4.8,5.836 4.8,5.836 4.706,6.024 L 4.518,6.401 c 0,0.094 -0.094,0.188 -0.282,0.188 0,0 -0.189,-0.094 -0.283,-0.094 l -4.518,-0.753 5.836,-1.695 0,-0.564 -5.177,-2.73 4.518,0.094 0.377,0 c 0.094,0 0.094,0 0.094,0.188 L 5.177,1.412 C 5.271,1.6 5.271,1.6 5.365,1.6 5.459,1.694 5.553,1.506 5.553,1.412 l 0.189,-1.883 c 0,-0.094 0,-0.188 -0.189,-0.188 0,0 -0.094,0 -0.188,0.188 L 5.271,-0.188 C 5.177,-0.094 5.177,0 5.083,0"
           id="path3242"
           style="fill:#005983;fill-opacity:1;fill-rule:evenodd;stroke:none" />
      </g>
      <g
         transform="matrix(3.7500936,0,0,3.7500936,486.35297,438.38379)"
         id="g3244">
        <path
           d="m 0,0 c -0.282,1.13 -1.6,1.883 -3.389,1.318 -1.788,-0.565 -2.541,-1.695 -2.07,-3.106 0.376,-1.13 1.6,-1.883 3.482,-1.318 C -0.188,-2.541 0.471,-1.318 0,0 m -6.024,-1.882 c -0.659,2.07 0.471,3.765 2.259,4.329 1.788,0.565 3.765,-0.376 4.33,-2.259 0.659,-2.07 -0.377,-3.765 -2.259,-4.33 -1.789,-0.564 -3.765,0.283 -4.33,2.26"
           id="path3246"
           style="fill:#005983;fill-opacity:1;fill-rule:evenodd;stroke:none" />
      </g>
      <g
         transform="matrix(3.7500936,0,0,3.7500936,465.17623,460.62184)"
         id="g3248">
        <path
           d="M 0,0 -0.282,0.565 C -0.565,1.318 -1.318,1.788 -2.165,1.412 -2.824,1.035 -3.106,0.471 -2.636,-0.471 L -2.259,-1.13 0,0 z m -1.694,-1.977 c -0.189,-0.094 -0.189,-0.188 -0.189,-0.282 l 0.095,-0.376 c 0,-0.189 0.094,-0.283 0,-0.283 -0.189,-0.094 -0.283,0 -0.283,0.188 L -3.2,-0.565 c -0.659,1.318 -0.471,2.259 0.659,2.824 0.564,0.282 1.506,0.094 2.07,-0.471 l 1.695,2.448 0,0.564 c -0.094,0.283 -0.094,0.283 0,0.377 0.094,0 0.188,0 0.188,-0.094 L 2.071,3.765 0.188,0.941 0.565,0.282 2.541,1.318 C 2.73,1.412 2.73,1.412 2.73,1.506 L 2.636,1.883 c 0,0.188 0,0.282 0.094,0.282 0.094,0.094 0.188,0.094 0.188,-0.094 L 3.859,0.282 c 0.094,-0.188 0.094,-0.282 0,-0.376 -0.094,0 -0.188,0 -0.282,0.188 L 3.294,0.377 c 0,0.094 -0.094,0.094 -0.282,0"
           id="path3250"
           style="fill:#005983;fill-opacity:1;fill-rule:evenodd;stroke:none" />
      </g>
      <g
         transform="matrix(3.7500936,0,0,3.7500936,461.64736,483.91742)"
         id="g3252">
        <path
           d="m 0,0 c 0,-0.094 -0.094,-0.094 -0.188,-0.094 -0.094,-0.094 -0.188,-0.094 -0.283,0 -0.094,0.094 0,0.188 0,0.376 l 0.377,0.753 C 0.094,1.318 0.094,1.6 -0.282,2.071 -0.659,2.73 -1.506,3.012 -2.071,2.541 -2.447,2.353 -2.541,1.788 -2.541,1.412 l 0.188,-1.6 c 0.094,-0.753 -0.094,-1.412 -0.659,-1.789 -1.035,-0.753 -2.165,-0.094 -2.73,0.753 -0.282,0.471 -0.564,1.036 -0.659,1.601 l 0.753,0.564 c 0,0.094 0.095,0.094 0.095,0.094 0.188,0.189 0.282,0.095 0.376,0 0.094,-0.094 0.094,-0.282 0,-0.376 L -5.459,0.188 c -0.189,-0.282 -0.094,-0.659 0.188,-1.035 0.376,-0.565 1.035,-0.847 1.506,-0.471 0.376,0.188 0.471,0.659 0.471,1.13 l -0.189,1.6 c -0.094,0.753 0.094,1.412 0.659,1.882 0.847,0.565 2.259,0.189 3.012,-0.847 0.283,-0.47 0.659,-1.129 0.659,-1.694"
           id="path3254"
           style="fill:#005983;fill-opacity:1;fill-rule:evenodd;stroke:none" />
      </g>
      <g
         transform="matrix(3.7500936,0,0,3.7500936,432.34788,494.8602)"
         id="g3256">
        <path
           d="m 0,0 c -0.094,-0.094 -0.094,-0.188 -0.094,-0.282 l 0.188,-0.377 c 0.094,-0.094 0.094,-0.188 0.094,-0.282 -0.094,-0.094 -0.282,0 -0.376,0.094 L -1.506,0.659 C -1.6,0.753 -1.694,0.941 -1.6,1.035 c 0.094,0 0.188,0 0.282,-0.094 l 0.377,-0.282 c 0.094,0 0.188,0 0.282,0.094 L 1.13,2.447 -2.071,2.353 c -0.094,0 -0.188,-0.094 -0.188,-0.094 -0.094,-0.094 -0.094,-0.094 0,-0.188 l 0.094,-0.283 c 0.094,-0.094 0.094,-0.188 0,-0.188 -0.094,-0.094 -0.188,-0.094 -0.282,0 l -1.224,1.412 c -0.094,0.094 -0.188,0.188 -0.094,0.282 0.094,0 0.188,0 0.282,-0.094 l 0.377,-0.188 c 0.094,-0.094 0.188,-0.094 0.282,-0.094 l 3.106,0.188 0.565,4.048 c 0,0 0,0.094 -0.094,0.188 L 0.659,7.718 C 0.565,7.812 0.471,7.907 0.565,8.001 c 0.094,0.094 0.188,0 0.282,0 L 2.353,6.306 c 0.094,-0.094 0.094,-0.188 0,-0.188 0,-0.094 -0.188,-0.094 -0.282,0 L 1.977,6.212 C 1.883,6.306 1.788,6.306 1.788,6.212 1.694,6.212 1.694,6.118 1.694,6.024 L 1.13,2.447 3.2,4.33 C 3.389,4.424 3.294,4.518 3.294,4.612 L 3.106,4.989 C 3.012,5.177 3.012,5.271 3.012,5.271 3.2,5.365 3.294,5.271 3.389,5.177 L 4.8,3.671 c 0.095,-0.094 0.095,-0.188 0,-0.282 0,-0.095 -0.094,0 -0.282,0 L 4.142,3.671 c 0,0 -0.095,0.094 -0.283,-0.094"
           id="path3258"
           style="fill:#005983;fill-opacity:1;fill-rule:evenodd;stroke:none" />
      </g>
      <g
         transform="matrix(3.7500936,0,0,3.7500936,412.22862,515.33196)"
         id="g3260">
        <path
           d="M 0,0 C -0.094,-0.188 -0.094,-0.282 0,-0.282 L 0.188,-0.659 C 0.282,-0.753 0.376,-0.847 0.282,-0.941 0.188,-1.035 0.094,-0.941 0,-0.847 l -3.483,2.729 0.471,0.754 c 0,0.094 0.094,0.188 0.094,0.188 0.094,0.094 0.282,0.188 0.377,0.094 0,-0.094 0.094,-0.188 0.094,-0.282 L -2.636,2.071 c 0,-0.094 0,-0.189 0.095,-0.283 l 1.694,-1.317 1.506,1.882 -1.412,1.13 C -0.847,3.577 -0.941,3.671 -1.13,3.577 L -1.412,3.389 c -0.094,-0.095 -0.188,-0.095 -0.282,0 -0.094,0.094 -0.094,0.094 0,0.282 l 0.941,1.224 c 0.094,0.094 0.188,0.094 0.282,0 C -0.376,4.8 -0.376,4.706 -0.376,4.612 L -0.471,4.236 c -0.094,-0.094 0,-0.189 0.095,-0.283 L 1.035,2.824 2.447,4.706 c 0.094,0.094 0.094,0.189 0,0.283 L 0.941,6.118 C 0.847,6.212 0.753,6.212 0.659,6.212 L -0.188,5.93 c -0.094,0 -0.188,0 -0.283,0.094 -0.094,0.094 -0.094,0.188 -0.094,0.282 0.094,0.095 0.189,0.095 0.283,0.189 L 0.659,7.154 4.142,4.33 C 4.236,4.236 4.33,4.142 4.236,4.047 c 0,-0.094 -0.094,-0.094 -0.283,0 L 3.577,4.236 c -0.094,0 -0.188,0 -0.283,-0.094"
           id="path3262"
           style="fill:#005983;fill-opacity:1;fill-rule:evenodd;stroke:none" />
      </g>
      <g
         transform="matrix(3.7500936,0,0,3.7500936,391.75686,532.27488)"
         id="g3264">
        <path
           d="m 0,0 -0.282,-0.282 c -0.094,-0.095 0,-0.189 0.094,-0.377 L 0,-0.753 C 0.188,-0.941 0.188,-0.941 0.188,-1.035 0.094,-1.13 0,-1.13 -0.094,-1.035 l -1.412,0.658 0.753,5.836 -4.612,-3.671 -1.318,0.753 c -0.188,0.095 -0.282,0.189 -0.188,0.189 0,0.094 0.094,0.188 0.282,0.094 L -6.306,2.73 c 0.094,0 0.282,0 0.376,0.094 0,0.094 0.094,0.282 0.094,0.376 l 2.071,4.612 c 0,0.095 0,0.189 -0.094,0.283 l -0.283,0.282 c -0.094,0.094 -0.188,0.188 -0.094,0.188 0,0.095 0.094,0.189 0.283,0.095 L -2.071,7.624 C -1.977,7.53 -1.977,7.436 -1.977,7.436 -2.071,7.342 -2.165,7.342 -2.353,7.342 L -2.73,7.436 c -0.094,0 -0.188,0 -0.282,-0.094 0,-0.094 0,-0.188 -0.094,-0.283 l -1.883,-4.141 0,-0.094 4.707,3.859 0.47,-0.282 -0.847,-5.836 0.094,0 2.542,3.765 c 0.094,0.094 0.094,0.188 0.188,0.282 0,0.094 0,0.094 -0.094,0.188 L 1.788,5.083 C 1.694,5.271 1.6,5.271 1.694,5.365 c 0,0.094 0.189,0.094 0.283,0 L 3.671,4.518 C 3.765,4.424 3.765,4.33 3.765,4.236 3.671,4.142 3.671,4.142 3.483,4.236 l -0.377,0 c -0.094,0.094 -0.188,0 -0.282,0"
           id="path3266"
           style="fill:#005983;fill-opacity:1;fill-rule:evenodd;stroke:none" />
      </g>
      <g
         transform="matrix(3.7500936,0,0,3.7500936,239.97558,248.83156)"
         id="g3268">
        <path
           d="m 0,0 c 0,0.094 0,0.188 -0.094,0.282 l -0.377,0.189 c -0.094,0.094 -0.094,0.188 -0.094,0.282 0.094,0.094 0.188,0.094 0.283,0.094 L 1.506,0.188 C 1.6,0.094 1.694,0 1.6,0 1.6,-0.188 1.506,-0.188 1.412,-0.188 l -0.377,0 c -0.094,0 -0.188,0 -0.188,-0.094 l -1.506,-3.954 c -0.282,-0.753 0.188,-1.506 1.035,-1.882 0.848,-0.283 1.695,0 1.977,0.847 l 1.412,3.859 c 0.094,0.188 0.094,0.188 0,0.282 l -0.282,0.189 c -0.094,0.094 -0.189,0.188 -0.094,0.282 0,0.094 0.094,0.094 0.188,0.094 l 1.694,-0.659 c 0.094,0 0.094,-0.094 0.094,-0.188 0,-0.094 -0.094,-0.094 -0.282,-0.094 l -0.377,0 c -0.094,0 -0.188,0 -0.188,-0.094 L 3.106,-5.459 c -0.565,-1.412 -1.882,-1.506 -3.012,-1.13 -1.129,0.377 -1.977,1.412 -1.506,2.824"
           id="path3270"
           style="fill:#c2b9b5;fill-opacity:1;fill-rule:evenodd;stroke:none" />
      </g>
      <g
         transform="matrix(3.7500936,0,0,3.7500936,263.6237,240.71261)"
         id="g3272">
        <path
           d="m 0,0 c 0,0.188 -0.094,0.188 -0.094,0.282 l -0.377,0.189 c -0.188,0 -0.188,0.094 -0.188,0.188 0,0.094 0.094,0.094 0.188,0.094 l 1.224,-0.188 2.73,-5.742 0.753,4.518 c 0,0.094 0,0.188 -0.094,0.188 l -0.377,0.189 c -0.094,0 -0.094,0.094 -0.094,0.188 C 3.671,0 3.765,0.094 3.859,0 l 1.694,-0.282 c 0.095,0 0.189,-0.094 0.189,-0.094 C 5.648,-0.471 5.648,-0.565 5.459,-0.565 L 5.083,-0.659 c -0.094,0 -0.188,0 -0.188,-0.094 l -1.036,-6.024 -0.565,0.094 -2.729,5.836 -0.094,0 -0.753,-4.518 c 0,-0.188 0,-0.188 0.094,-0.283 l 0.376,-0.094 c 0.094,-0.094 0.094,-0.188 0.094,-0.282 0,-0.094 -0.094,-0.094 -0.188,-0.094 L -1.6,-5.836 c -0.094,0 -0.188,0.094 -0.188,0.188 0.094,0.095 0.094,0.189 0.282,0.189 l 0.376,0 c 0.095,0 0.189,0.094 0.189,0.188"
           id="path3274"
           style="fill:#c2b9b5;fill-opacity:1;fill-rule:evenodd;stroke:none" />
      </g>
      <g
         transform="matrix(3.7500936,0,0,3.7500936,290.09933,237.18377)"
         id="g3276">
        <path
           d="m 0,0 c 0,0.188 -0.094,0.282 -0.188,0.282 l -0.377,0.095 c -0.094,0.094 -0.188,0.094 -0.188,0.188 0,0.094 0.094,0.188 0.282,0.188 L 1.318,0.659 C 1.506,0.659 1.6,0.565 1.6,0.471 1.6,0.377 1.506,0.377 1.412,0.282 L 1.035,0.188 C 0.941,0.188 0.847,0.188 0.847,0 L 0.659,-5.271 c 0,-0.188 0.094,-0.282 0.188,-0.282 l 0.377,-0.095 c 0.094,-0.094 0.188,-0.094 0.188,-0.188 0,-0.188 -0.094,-0.188 -0.282,-0.188 l -1.883,0.094 c -0.094,0 -0.188,0 -0.188,0.188 0,0.094 0.094,0.094 0.188,0.094 l 0.377,0.095 c 0.094,0.094 0.188,0.094 0.188,0.282"
           id="path3278"
           style="fill:#c2b9b5;fill-opacity:1;fill-rule:evenodd;stroke:none" />
      </g>
      <g
         transform="matrix(3.7500936,0,0,3.7500936,300.33333,236.47875)"
         id="g3280">
        <path
           d="m 0,0 c -0.094,0.282 -0.188,0.282 -0.377,0.376 l -0.188,0 c -0.188,0.095 -0.282,0.095 -0.282,0.189 0,0.094 0.094,0.188 0.188,0.188 l 1.883,0.188 c 0.188,0 0.188,-0.094 0.188,-0.094 0.094,-0.188 0,-0.188 -0.094,-0.188 L 1.13,0.565 C 0.941,0.471 0.847,0.376 0.941,0.282 l 0,-0.188 1.977,-4.424 1.129,4.801 0,0.188 c 0,0 0,0.094 -0.188,0.094 L 3.577,0.847 c -0.094,0 -0.094,0 -0.094,0.094 0,0.094 0,0.189 0.094,0.189 L 5.271,1.318 C 5.365,1.318 5.459,1.224 5.459,1.13 5.459,1.035 5.365,1.035 5.271,0.941 L 4.895,0.753 4.8,0.659 3.2,-5.648 2.635,-5.742"
           id="path3282"
           style="fill:#c2b9b5;fill-opacity:1;fill-rule:evenodd;stroke:none" />
      </g>
      <g
         transform="matrix(3.7500936,0,0,3.7500936,324.69023,239.65508)"
         id="g3284">
        <path
           d="m 0,0 c -0.094,0.188 -0.188,0.282 -0.188,0.282 l -0.471,0 c -0.094,0 -0.188,0 -0.188,0.095 -0.094,0.094 0.094,0.188 0.188,0.188 L 3.294,1.6 3.577,0.753 c 0,-0.094 0.094,-0.188 0.094,-0.282 0,-0.094 -0.094,-0.189 -0.188,-0.283 -0.094,0 -0.094,0 -0.189,0.189 L 2.918,0.753 C 2.824,0.847 2.824,0.847 2.73,0.847 L 0.847,0.377 1.412,-1.977 3.012,-1.6 C 3.106,-1.506 3.2,-1.506 3.2,-1.318 l 0,0.377 c 0,0.094 0.094,0.188 0.189,0.188 0.094,0 0.188,0 0.188,-0.188 l 0.376,-1.506 c 0.094,-0.094 0,-0.189 -0.094,-0.189 -0.094,-0.094 -0.188,0 -0.282,0.095 l -0.188,0.282 c 0,0.188 -0.189,0.188 -0.283,0.094 L 1.506,-2.541 2.071,-4.8 c 0.094,-0.095 0.188,-0.189 0.282,-0.189 l 1.694,0.471 c 0.095,0 0.095,0.094 0.189,0.188 l 0.282,0.753 c 0,0.094 0.094,0.188 0.188,0.283 0.094,0 0.189,-0.095 0.189,-0.189 0.094,-0.094 0.094,-0.188 0.094,-0.282 l 0,-1.13 -4.048,-1.035 c -0.094,0 -0.282,0 -0.282,0.188 0,0 0,0.094 0.188,0.189 l 0.283,0.188 c 0.094,0 0.188,0.094 0.094,0.282"
           id="path3286"
           style="fill:#c2b9b5;fill-opacity:1;fill-rule:evenodd;stroke:none" />
      </g>
      <g
         transform="matrix(3.7500936,0,0,3.7500936,350.80959,237.88879)"
         id="g3288">
        <path
           d="M 0,0 0.565,0.282 C 1.129,0.565 1.6,1.13 1.224,2.071 1.035,2.73 0.471,3.106 -0.376,2.73 L -1.035,2.447 0,0 z m -1.788,1.977 c -0.095,0.188 -0.189,0.188 -0.189,0.188 l -0.47,-0.094 c -0.094,0 -0.189,0 -0.189,0.094 -0.094,0.094 0,0.188 0.189,0.282 l 1.976,0.847 C 0.753,3.765 1.6,3.483 2.071,2.353 2.353,1.694 2.071,0.847 1.506,0.282 L 3.765,-1.506 C 3.765,-1.6 3.859,-1.6 3.953,-1.6 l 0.283,0 c 0.282,0 0.282,0 0.376,-0.094 0,-0.094 -0.094,-0.189 -0.094,-0.189 l -1.224,-0.47 -2.447,2.165 -0.659,-0.283 0.847,-2.07 c 0,-0.189 0.094,-0.189 0.189,-0.189 l 0.282,0 c 0.188,0 0.282,0 0.282,-0.094 0,-0.094 0,-0.188 -0.094,-0.188 l -1.6,-0.753 c -0.188,0 -0.282,0 -0.376,0.094 0,0.094 0.094,0.094 0.188,0.188 L 0.188,-3.2 c 0.094,0 0.094,0.094 0.094,0.282"
           id="path3290"
           style="fill:#c2b9b5;fill-opacity:1;fill-rule:evenodd;stroke:none" />
      </g>
      <g
         transform="matrix(3.7500936,0,0,3.7500936,369.51884,237.88879)"
         id="g3292">
        <path
           d="m 0,0 c -0.094,0 -0.094,0.094 -0.188,0.188 0,0.094 0,0.189 0.094,0.283 0.094,0.094 0.188,0 0.376,-0.094 L 0.847,-0.094 C 1.129,-0.282 1.412,-0.282 1.977,0 2.541,0.377 2.824,1.13 2.447,1.788 2.165,2.071 1.694,2.259 1.412,2.259 l -1.6,0 c -0.659,0 -1.224,0.282 -1.6,0.941 -0.659,1.036 0,1.977 0.753,2.448 0.47,0.282 1.035,0.47 1.506,0.47 L 1.035,5.459 C 1.035,5.365 1.129,5.271 1.129,5.271 1.224,5.083 1.129,4.989 1.035,4.895 0.941,4.8 0.847,4.895 0.659,4.989 L 0.282,5.365 C 0,5.459 -0.282,5.459 -0.659,5.177 -1.224,4.895 -1.506,4.33 -1.224,3.765 -1.035,3.483 -0.565,3.2 -0.094,3.2 L 1.412,3.294 C 2.071,3.294 2.73,3.012 3.106,2.353 3.577,1.506 3.294,0.188 2.259,-0.471 1.788,-0.659 1.224,-0.941 0.659,-0.941"
           id="path3294"
           style="fill:#c2b9b5;fill-opacity:1;fill-rule:evenodd;stroke:none" />
      </g>
      <g
         transform="matrix(3.7500936,0,0,3.7500936,377.99027,263.65568)"
         id="g3296">
        <path
           d="M 0,0 C -0.094,0.094 -0.188,0.094 -0.282,0.094 L -0.659,0 c -0.094,-0.094 -0.188,-0.094 -0.188,0 -0.094,0.094 0,0.188 0.094,0.282 l 1.412,1.13 c 0.188,0 0.282,0.094 0.376,0 0,-0.094 0,-0.188 -0.094,-0.282 L 0.753,0.847 C 0.659,0.753 0.659,0.659 0.753,0.565 l 3.106,-4.236 c 0.188,-0.188 0.188,-0.188 0.283,-0.188 l 0.376,0.188 0.282,0 c 0.095,-0.094 0,-0.282 -0.094,-0.282 L 3.2,-5.083 c -0.094,-0.094 -0.188,-0.094 -0.282,0 -0.094,0 0,0.094 0,0.188 L 3.2,-4.518 c 0.094,0 0.094,0.094 0,0.282"
           id="path3298"
           style="fill:#c2b9b5;fill-opacity:1;fill-rule:evenodd;stroke:none" />
      </g>
      <g
         transform="matrix(3.7500936,0,0,3.7500936,390.69562,274.59845)"
         id="g3300">
        <path
           d="m 0,0 -0.847,-0.753 c -0.094,-0.094 -0.094,-0.188 0,-0.282 L -0.659,-1.6 c 0,-0.188 0,-0.283 -0.094,-0.377 -0.094,-0.094 -0.282,-0.094 -0.377,0 -0.094,0.094 -0.094,0.189 -0.188,0.283 L -1.788,-0.941 1.6,2.353 2.353,1.788 C 2.447,1.694 2.541,1.6 2.636,1.506 2.73,1.412 2.73,1.318 2.636,1.224 2.541,1.13 2.353,1.13 2.259,1.13 L 1.6,1.412 c -0.094,0 -0.094,0 -0.188,-0.094 L 0.659,0.565 4.33,-3.389 c 0.094,-0.094 0.188,-0.094 0.282,0 l 0.377,0.189 0.282,0 c 0.094,-0.094 0,-0.189 -0.094,-0.283 L 3.859,-4.8 c -0.094,-0.095 -0.282,-0.095 -0.376,0 0,0 0,0.094 0.094,0.188 l 0.188,0.376 c 0,0.094 0,0.189 -0.094,0.283"
           id="path3302"
           style="fill:#c2b9b5;fill-opacity:1;fill-rule:evenodd;stroke:none" />
      </g>
      <g
         transform="matrix(3.7500936,0,0,3.7500936,439.40934,307.07426)"
         id="g3304">
        <path
           d="M 0,0 C 0.188,0 0.282,0 0.282,0.188 L 0.659,0.847 C 1.13,2.071 0.377,3.294 -1.035,3.953 -2.824,4.706 -4.047,4.047 -4.518,3.012 L -4.895,2.259 0,0 z m -5.083,1.318 c -0.188,0.094 -0.282,0.094 -0.282,0 L -5.648,1.035 C -5.742,0.941 -5.836,0.847 -5.836,0.847 -6.024,0.941 -6.024,1.035 -5.93,1.224 l 0.941,2.07 c 0.847,1.883 2.824,2.259 4.33,1.601 C 1.13,4.047 1.883,2.259 1.13,0.565 L 0.188,-1.506 C 0.094,-1.694 0,-1.788 -0.094,-1.694 c -0.094,0 -0.094,0.094 -0.094,0.282 l 0.094,0.377 c 0,0.094 0,0.188 -0.188,0.188"
           id="path3306"
           style="fill:#c2b9b5;fill-opacity:1;fill-rule:evenodd;stroke:none" />
      </g>
      <g
         transform="matrix(3.7500936,0,0,3.7500936,429.88031,335.66498)"
         id="g3308">
        <path
           d="m 0,0 c -0.188,0 -0.282,0 -0.282,-0.094 l -0.189,-0.377 c -0.094,-0.094 -0.188,-0.188 -0.282,-0.188 -0.094,0.094 -0.094,0.188 -0.094,0.377 L 0.188,3.577 1.13,3.483 c 0.094,0 0.094,-0.094 0.188,-0.094 0.094,0 0.188,-0.095 0.188,-0.189 0,-0.094 -0.094,-0.188 -0.188,-0.188 L 0.753,2.918 C 0.659,2.918 0.565,2.824 0.565,2.73 L 0.094,0.847 2.447,0.282 2.824,1.788 c 0,0.189 0,0.283 -0.094,0.377 L 2.353,2.353 C 2.259,2.353 2.259,2.447 2.259,2.541 2.353,2.73 2.353,2.73 2.541,2.73 L 4.047,2.353 C 4.236,2.259 4.236,2.165 4.142,2.071 4.142,1.977 4.047,1.883 3.953,1.883 l -0.376,0 C 3.483,1.883 3.388,1.788 3.388,1.694 l -0.47,-1.6 2.353,-0.565 c 0.094,0 0.188,0 0.188,0.095 L 5.93,1.318 c 0,0.094 0,0.188 -0.094,0.282 L 5.271,2.259 C 5.177,2.353 5.177,2.447 5.177,2.541 c 0,0.095 0.188,0.095 0.282,0.095 0,0 0.094,-0.095 0.283,-0.095 L 6.683,1.977 5.648,-1.977 c 0,-0.188 -0.095,-0.282 -0.283,-0.188 0,0 -0.094,0.094 -0.094,0.188 l 0,0.377 c 0,0.094 0,0.188 -0.188,0.188"
           id="path3310"
           style="fill:#c2b9b5;fill-opacity:1;fill-rule:evenodd;stroke:none" />
      </g>
      <g
         transform="matrix(3.7500936,0,0,3.7500936,434.11417,355.43172)"
         id="g3312">
        <path
           d="m 0,0 c -0.094,0 -0.188,-0.094 -0.188,-0.094 l -0.188,-0.377 c -0.095,-0.188 -0.095,-0.188 -0.189,-0.188 -0.094,0 -0.188,0.094 -0.094,0.282 l 0.188,1.789 c 0,0.188 0.095,0.282 0.189,0.282 0.094,0 0.094,-0.094 0.094,-0.282 L -0.094,1.035 C -0.094,0.941 0,0.941 0.188,0.847 L 5.365,0.282 c 0.094,0 0.188,0.094 0.188,0.189 l 0.189,1.6 c 0,0.094 -0.094,0.188 -0.094,0.282 L 4.989,2.918 C 4.895,2.918 4.8,3.012 4.8,3.106 4.895,3.2 4.989,3.294 5.083,3.294 c 0.094,0 0.188,0 0.282,-0.094 L 6.401,2.824 5.93,-1.13 c 0,-0.188 -0.094,-0.282 -0.188,-0.282 -0.094,0 -0.094,0.094 -0.094,0.188 l -0.095,0.471 c 0,0 -0.094,0.094 -0.282,0.094"
           id="path3314"
           style="fill:#c2b9b5;fill-opacity:1;fill-rule:evenodd;stroke:none" />
      </g>
      <g
         transform="matrix(3.7500936,0,0,3.7500936,435.52799,385.08371)"
         id="g3316">
        <path
           d="m 0,0 c -0.094,-0.094 -0.188,-0.094 -0.188,-0.188 l -0.094,-0.377 c 0,-0.188 0,-0.282 -0.094,-0.282 -0.189,0 -0.189,0.094 -0.283,0.282 l -0.094,1.789 c -0.094,0.188 0,0.282 0.094,0.282 0.094,0 0.188,0 0.188,-0.188 l 0.189,-0.377 c 0,0 0.094,-0.094 0.188,-0.094 l 5.271,0.565 c 0.094,0 0.188,0.094 0.188,0.188 L 5.177,3.2 c 0,0.094 -0.094,0.189 -0.188,0.189 l -0.753,0.47 c -0.094,0 -0.189,0.094 -0.189,0.188 0,0.095 0.095,0.189 0.189,0.189 l 0.282,0 1.13,-0.189 0.376,-3.953 c 0,-0.188 0,-0.282 -0.094,-0.282 -0.094,0 -0.188,0.094 -0.188,0.188 L 5.553,0.377 c 0,0.094 -0.094,0.094 -0.282,0.094"
           id="path3318"
           style="fill:#c2b9b5;fill-opacity:1;fill-rule:evenodd;stroke:none" />
      </g>
      <g
         transform="matrix(3.7500936,0,0,3.7500936,433.05668,404.14543)"
         id="g3320">
        <path
           d="m 0,0 c -0.188,0 -0.188,-0.094 -0.188,-0.188 l 0,-0.377 c -0.094,-0.188 -0.094,-0.282 -0.188,-0.282 -0.095,0 -0.189,0.094 -0.189,0.282 l -0.376,1.789 c -0.094,0.094 0,0.188 0.094,0.282 0.094,0 0.094,-0.094 0.188,-0.188 l 0.188,-0.377 c 0.095,-0.094 0.095,-0.094 0.283,-0.094 l 5.177,1.13 c 0.188,0 0.188,0.094 0.188,0.188 l 0.094,0.376 c 0,0.189 0,0.283 0.094,0.283 0.094,0 0.188,-0.094 0.188,-0.283 L 5.93,0.753 C 6.024,0.659 5.93,0.565 5.836,0.471 5.742,0.471 5.742,0.565 5.648,0.659 L 5.459,1.035 C 5.459,1.13 5.365,1.13 5.177,1.13"
           id="path3322"
           style="fill:#c2b9b5;fill-opacity:1;fill-rule:evenodd;stroke:none" />
      </g>
      <g
         transform="matrix(3.7500936,0,0,3.7500936,428.46657,420.02708)"
         id="g3324">
        <path
           d="M 0,0 0.282,-1.035 C 0.376,-1.13 0.376,-1.13 0.471,-1.224 l 0.658,-0.094 c 0.189,0 0.283,0 0.283,-0.188 0.094,-0.094 0,-0.188 -0.094,-0.282 -0.094,0 -0.283,0 -0.377,-0.094 l -0.847,-0.095 -1.6,4.424 0.847,0.471 c 0.094,0 0.188,0.094 0.282,0.094 0.189,0.094 0.283,0 0.283,-0.094 C 0,2.73 -0.094,2.636 -0.188,2.541 l -0.471,-0.47 0,-0.188 0.377,-1.036 5.082,1.789 c 0.189,0 0.189,0.094 0.189,0.188 l 0,0.376 c 0,0.189 0,0.189 0.094,0.283 0.094,0 0.188,-0.094 0.282,-0.189 L 5.93,1.506 c 0,-0.094 0,-0.282 -0.094,-0.282 -0.094,0 -0.094,0 -0.188,0.094 L 5.365,1.694 c 0,0.094 -0.094,0.094 -0.282,0.094"
           id="path3326"
           style="fill:#c2b9b5;fill-opacity:1;fill-rule:evenodd;stroke:none" />
      </g>
      <g
         transform="matrix(3.7500936,0,0,3.7500936,436.93799,453.56042)"
         id="g3328">
        <path
           d="m 0,0 c -0.565,0.941 -1.883,1.318 -3.577,0.471 -1.6,-0.942 -2.071,-2.165 -1.506,-3.295 0.565,-0.941 1.883,-1.412 3.577,-0.47 C 0.094,-2.353 0.565,-1.13 0,0 m -5.553,-3.106 c -0.942,1.788 -0.189,3.482 1.506,4.424 1.6,0.941 3.67,0.47 4.518,-1.13 0.941,-1.694 0.188,-3.482 -1.506,-4.33 -1.601,-0.941 -3.671,-0.564 -4.518,1.036"
           id="path3330"
           style="fill:#c2b9b5;fill-opacity:1;fill-rule:evenodd;stroke:none" />
      </g>
      <g
         transform="matrix(3.7500936,0,0,3.7500936,414.69993,466.62199)"
         id="g3332">
        <path
           d="m 0,0 -0.377,0.471 c -0.47,0.564 -1.129,0.847 -1.882,0.282 -0.659,-0.565 -0.753,-1.13 -0.188,-1.788 L -2.071,-1.6 0,0 z m -1.412,-2.259 c -0.094,-0.094 -0.094,-0.188 -0.094,-0.282 l 0.188,-0.377 c 0.094,-0.094 0.094,-0.188 0,-0.188 C -1.412,-3.2 -1.506,-3.2 -1.6,-3.012 l -1.412,1.694 c -0.847,1.036 -0.753,1.977 0.188,2.73 0.565,0.47 1.506,0.47 2.071,0.094 l 1.224,2.636 c 0.094,0 0.094,0.094 0,0.188 L 0.376,4.612 c -0.094,0.283 -0.094,0.283 0,0.377 0.095,0 0.189,0 0.189,-0.094 L 1.412,3.859 0,0.847 0.471,0.376 2.259,1.788 C 2.353,1.882 2.353,1.882 2.353,1.977 L 2.259,2.353 c -0.094,0.094 -0.094,0.188 0,0.282 0.094,0 0.094,0 0.188,-0.094 L 3.577,1.129 C 3.671,1.035 3.765,0.847 3.671,0.753 c -0.094,0 -0.188,0 -0.282,0.094 L 3.106,1.129 c -0.094,0 -0.188,0 -0.282,-0.094"
           id="path3334"
           style="fill:#c2b9b5;fill-opacity:1;fill-rule:evenodd;stroke:none" />
      </g>
      <g
         transform="matrix(3.7500936,0,0,3.7500936,401.99087,486.03623)"
         id="g3336">
        <path
           d="m 0,0 -1.412,1.318 -1.224,-2.73 0.095,0 L 0,0 z m -3.294,-2.447 -0.471,0.376 2.541,5.93 0,0.188 -0.188,0.377 c -0.094,0.094 -0.094,0.188 0,0.282 0,0.094 0.094,0 0.188,0 L 0.188,3.389 C 0.282,3.294 0.282,3.2 0.188,3.2 c 0,-0.094 -0.094,-0.094 -0.282,0 l -0.282,0.094 -0.095,0 C -0.565,3.2 -0.565,3.2 -0.565,3.106 L -1.13,1.977 0.659,0.376 1.694,0.941 c 0.094,0 0.094,0.094 0.189,0.094 l 0,0.189 -0.189,0.282 0,0.282 c 0.094,0.094 0.189,0.094 0.283,0 L 3.2,0.659 C 3.294,0.565 3.294,0.471 3.2,0.376 l -0.282,0 -0.377,0.189 c 0,0 -0.094,0 -0.376,-0.094"
           id="path3338"
           style="fill:#c2b9b5;fill-opacity:1;fill-rule:evenodd;stroke:none" />
      </g>
      <g
         transform="matrix(3.7500936,0,0,3.7500936,378.34278,489.56507)"
         id="g3340">
        <path
           d="m 0,0 c -0.094,-0.188 -0.094,-0.282 0,-0.282 l 0.282,-0.283 c 0,-0.094 0.094,-0.188 0,-0.282 0,-0.094 -0.188,-0.094 -0.282,0 l -1.506,1.035 c -0.188,0.094 -0.188,0.188 -0.188,0.283 0.094,0.094 0.188,0.094 0.282,0 l 0.377,-0.095 c 0.094,0 0.188,0 0.282,0.095 L 2.165,4.8 c 0.094,0.095 0,0.283 -0.094,0.283 l -1.318,0.941 -0.282,0 -0.753,-0.282 c -0.095,-0.094 -0.189,-0.094 -0.283,0 -0.094,0 -0.094,0.188 -0.094,0.188 0.094,0.094 0.094,0.188 0.188,0.282 L 0.376,6.965 3.765,4.706 C 3.859,4.612 3.953,4.518 3.859,4.424 3.765,4.33 3.671,4.33 3.577,4.424 L 3.2,4.518 c -0.094,0 -0.188,0 -0.282,-0.094"
           id="path3342"
           style="fill:#c2b9b5;fill-opacity:1;fill-rule:evenodd;stroke:none" />
      </g>
      <g
         transform="matrix(3.7500936,0,0,3.7500936,362.10487,499.80282)"
         id="g3344">
        <path
           d="m 0,0 c 0,-0.188 0,-0.282 0.094,-0.282 l 0.282,-0.283 c 0.095,-0.094 0.095,-0.188 0.095,-0.282 -0.095,-0.094 -0.189,-0.094 -0.283,0 l -3.577,1.788 0.283,0.847 c 0,0.095 0.094,0.095 0.094,0.189 0.094,0.094 0.188,0.188 0.282,0.094 0.094,0 0.094,-0.094 0.094,-0.188 l 0,-0.565 c 0,-0.094 0.095,-0.188 0.189,-0.188 l 1.6,-0.848 1.035,2.165 -1.412,0.659 C -1.412,3.2 -1.506,3.2 -1.6,3.106 L -1.788,2.824 C -1.883,2.73 -1.977,2.73 -1.977,2.73 -2.071,2.824 -2.165,2.918 -2.071,3.012 l 0.565,1.412 c 0.094,0.188 0.188,0.188 0.282,0.094 C -1.13,4.424 -1.13,4.424 -1.13,4.33 l 0,-0.377 c -0.094,-0.188 0,-0.282 0.095,-0.282 L 0.471,2.918 1.506,5.083 c 0,0.094 0,0.188 -0.094,0.282 l -1.6,0.753 c -0.094,0 -0.188,0 -0.283,-0.094 L -1.224,5.648 c 0,-0.095 -0.094,-0.095 -0.282,-0.095 0,0.095 -0.094,0.189 0,0.283 0,0.094 0.094,0.188 0.188,0.282 L -0.659,6.965 3.012,5.177 C 3.2,5.083 3.294,4.989 3.2,4.895 3.2,4.8 3.106,4.8 3.012,4.8 L 2.541,4.895 c -0.094,0 -0.094,0 -0.188,-0.189"
           id="path3346"
           style="fill:#c2b9b5;fill-opacity:1;fill-rule:evenodd;stroke:none" />
      </g>
      <g
         transform="matrix(3.7500936,0,0,3.7500936,402.34713,292.95516)"
         id="g3348">
        <path
           d="M 0,0 C 0.094,0 0.094,-0.094 0.094,-0.188 0.094,-0.282 0,-0.282 -0.094,-0.282 L -1.883,0 -1.977,0 c -0.188,0.094 -0.282,0.282 -0.282,0.471 0.094,0.188 0.282,0.282 0.471,0.282 C -1.694,0.659 -1.6,0.659 -1.6,0.659 L 0,0 z m 2.824,-3.765 -1.6,2.447 0,0.094 2.729,-1.035 -1.129,-1.506 z m 4.518,1.788 c -0.094,0 -0.094,0 -0.283,-0.094 l -0.282,-0.188 -0.188,0 -6.118,2.165 -0.377,-0.565 3.295,-5.271 c 0.188,-0.188 0.188,-0.376 0.188,-0.376 l -0.188,-0.377 0,-0.282 c 0.094,0 0.188,0 0.282,0.094 l 1.035,1.318 c 0.094,0.094 0.094,0.188 0,0.188 -0.094,0.094 -0.188,0.094 -0.282,0 l -0.282,-0.188 -0.189,0 c 0,0 -0.094,0.094 -0.094,0.188 L 3.2,-4.33 l 1.506,1.789 1.13,-0.377 c 0.094,-0.094 0.188,-0.094 0.188,-0.094 0,-0.094 0.094,-0.094 0,-0.188 l -0.094,-0.283 0,-0.282 c 0.094,-0.094 0.188,0 0.282,0.094 l 1.13,1.412 c 0.094,0.094 0.094,0.188 0,0.282"
           id="path3350"
           style="fill:#c2b9b5;fill-opacity:1;fill-rule:evenodd;stroke:none" />
      </g>
      <g
         transform="matrix(3.7500936,0,0,3.7500936,286.56674,321.54587)"
         id="g3352">
        <path
           d="m 0,0 c -0.941,0 -1.788,0 -2.636,0.094 l 0,-1.976 c 0,-0.942 -0.188,-1.224 -1.035,-1.412 l -2.635,-0.565 c -0.848,-0.188 -1.13,-0.471 -1.13,-0.847 0,-0.565 0.471,-0.847 1.788,-0.847 l 12.143,0 c 1.035,0 1.6,0.282 1.6,0.847 0,0.376 -0.283,0.564 -0.847,0.753 L 4.8,-3.389 c -1.035,0.283 -1.223,0.471 -1.223,1.507 l 0,2.07 C 2.447,0.094 1.224,0 0,0"
           id="path3354"
           style="fill:#005983;fill-opacity:1;fill-rule:evenodd;stroke:none" />
      </g>
      <g
         transform="matrix(3.7500936,0,0,3.7500936,261.50486,420.73585)"
         id="g3356">
        <path
           d="M 0,0 2.824,-0.565 C 3.671,-0.753 4.047,-1.13 4.047,-1.977 l 0,-21.46 c 0.848,-0.189 1.883,-0.283 2.918,-0.283 1.13,0 2.259,0.094 3.295,0.283 l 0,6.118 5.647,0 c 0.377,0 0.659,0.094 1.036,0.094 1.694,0 3.294,0.282 4.8,0.659 5.836,1.412 9.883,4.988 9.883,9.318 0,3.012 -1.882,5.93 -4.894,7.436 -1.412,0.753 -2.824,1.13 -4.895,1.318 l 0,-3.294 c 2.259,-1.036 3.483,-3.201 3.483,-5.742 0,-2.636 -1.224,-4.706 -3.483,-5.836 -1.317,-0.659 -3.012,-1.035 -4.894,-1.13 l -6.683,0 0,13.461 6.683,0 0,2.729 -16.19,0 C -0.471,1.694 -0.941,1.506 -0.941,0.941 -0.941,0.471 -0.565,0.188 0,0"
           id="path3358"
           style="fill:#005983;fill-opacity:1;fill-rule:evenodd;stroke:none" />
      </g>
      <g
         transform="matrix(3.7500936,0,0,3.7500936,311.98112,443.67892)"
         id="g3360">
        <path
           d="m 0,0 2.353,-0.659 c 0.941,-0.282 1.13,-0.565 1.13,-1.412 l 0,-18.543 c 1.882,0.094 3.576,0.471 4.894,1.13 l 0,17.601 c 0,0.848 0.188,1.036 0.942,1.318 l 2.259,0.471 c 0.753,0.188 1.035,0.47 1.035,0.941 0,0.565 -0.471,0.847 -1.318,0.847 l -10.636,0 c -1.13,0 -1.6,-0.282 -1.6,-0.847 C -0.941,0.471 -0.565,0.094 0,0"
           id="path3362"
           style="fill:#c2b9b5;fill-opacity:1;fill-rule:evenodd;stroke:none" />
      </g>
      <g
         transform="matrix(3.7500936,0,0,3.7500936,325.04274,356.14049)"
         id="g3364">
        <path
           d="m 0,0 c -0.188,-1.318 -0.565,-2.259 -1.318,-3.2 -1.129,-1.506 -3.012,-2.448 -5.365,-3.012 -1.035,-0.189 -2.165,-0.283 -3.294,-0.283 -1.036,0 -2.071,0.094 -2.918,0.283 -2.918,0.47 -5.177,1.694 -6.213,3.388 -0.564,1.036 -0.753,2.071 -0.753,3.859 l 0,20.332 c 0,1.035 0.094,1.129 1.13,1.412 l 2.071,0.47 c 0.753,0.188 1.129,0.471 1.129,0.941 0,0.659 -0.376,0.848 -1.694,0.848 l -11.86,0 c -0.753,0 -1.224,-0.283 -1.224,-0.753 0,-0.471 0.283,-0.659 0.942,-0.848 l 2.541,-0.658 c 0.941,-0.283 1.13,-0.565 1.13,-1.506 l 0,-20.049 c 0,-5.742 4.894,-9.601 12.801,-10.354 0.847,-0.094 1.694,-0.094 2.635,-0.094 1.224,0 2.448,0.094 3.577,0.188 4.047,0.565 7.248,1.977 9.318,4.33 1.507,1.6 2.071,2.823 2.165,5.365 C 3.294,0.282 1.694,0 0,0"
           id="path3366"
           style="fill:#c2b9b5;fill-opacity:1;fill-rule:evenodd;stroke:none" />
      </g>
    </g>
  </g>
</svg>
