<?xml version="1.0" encoding="UTF-8" standalone="no"?>
<svg
   width="561.37201"
   height="177.996"
   viewBox="0 0 561.37201 177.996"
   fill="none"
   version="1.1"
   id="svg120"
   xmlns="http://www.w3.org/2000/svg"
   xmlns:svg="http://www.w3.org/2000/svg">
  <defs
     id="defs120" />
  <path
     fill-rule="evenodd"
     clip-rule="evenodd"
     d="m 57.62176,59.071053 c -0.58602,-1.173404 0.19511,-2.933853 0.19511,-2.933853 0.97692,-0.391249 2.53952,-0.195796 3.12554,0.977951 0.58602,1.3692 0,2.347151 -1.5626,3.325102 0,0 -0.78147,-0.390906 -1.75805,-1.3692 z"
     fill="#111111"
     id="path1"
     style="stroke-width:3.423" />
  <path
     fill-rule="evenodd"
     clip-rule="evenodd"
     d="m 100.98432,133.3991 -8.98503,7.23725 V 66.504098 h 8.98503 z"
     fill="#111111"
     id="path2"
     style="stroke-width:3.423" />
  <path
     fill-rule="evenodd"
     clip-rule="evenodd"
     d="M 106.84415,126.94435 V 66.504098 h 7.42278 v 46.161552 c -1.36749,4.30305 -3.71122,8.9977 -7.42278,14.2787 z"
     fill="#111111"
     id="path3"
     style="stroke-width:3.423" />
  <path
     fill-rule="evenodd"
     clip-rule="evenodd"
     d="m 77.34987,133.98615 8.98504,7.2369 V 66.504098 h -8.98504 z"
     fill="#111111"
     id="path4"
     style="stroke-width:3.423" />
  <path
     fill-rule="evenodd"
     clip-rule="evenodd"
     d="M 72.27117,129.09605 V 66.504098 H 64.26272 V 115.7953 c 0.19545,3.3251 6.05528,11.73575 8.00845,13.30075 z"
     fill="#111111"
     id="path5"
     style="stroke-width:3.423" />
  <path
     d="m 88.87409,150.80745 c -33.98697,0 -61.72354,-27.7749 -61.72354,-61.80945 0,-34.23 27.54112,-61.80959 61.72354,-61.80959 33.98696,0 61.72353,27.775043 61.72353,61.80959 0,34.03455 -27.73657,61.80945 -61.72353,61.80945 v 2.1517 c 35.159,0 63.87215,-28.7532 63.87215,-63.96115 0,-35.207951 -28.71315,-63.961185 -63.87215,-63.961185 -35.159,0 -63.87212,28.753234 -63.87212,63.961185 0,35.20795 28.71312,63.96115 63.87212,63.96115 z"
     fill="#111111"
     id="path6"
     style="stroke-width:3.423" />
  <path
     d="m 88.87409,175.06215 c -47.46469,0 -85.94417,-38.5334 -85.94417,-86.06415 0,-47.530751 38.47948,-86.064 85.94417,-86.064 47.46468,0 85.94434,38.533249 85.94434,86.064 0,47.3353 -38.67511,86.06415 -85.94434,86.06415 v 2.7384 c 49.02728,0 88.87408,-39.9026 88.87408,-88.998003 C 177.55306,39.902253 137.70592,0 88.87409,0 39.8468,0 0,39.902253 0,88.998 c 0,49.09575 39.8468,88.998 88.87409,88.998 z"
     fill="#111111"
     id="path7"
     style="stroke-width:3.423" />
  <path
     fill-rule="evenodd"
     clip-rule="evenodd"
     d="m 15.6262,114.03485 c 1.9533,1.9559 2.92992,3.12965 3.90657,5.67225 0.97665,2.1517 1.17196,3.71635 1.36728,6.06385 l 4.29723,-1.95625 c -1.56263,-1.76045 -2.53928,-2.93385 -3.5159,-5.08555 -1.17196,-2.5426 -1.56263,-4.1076 -1.75795,-6.6502 z"
     fill="#111111"
     id="path8"
     style="stroke-width:3.423" />
  <path
     fill-rule="evenodd"
     clip-rule="evenodd"
     d="m 15.23557,123.8147 c 1.95326,-1.9559 3.12523,-2.93385 5.66448,-3.9118 2.14862,-0.97795 3.71125,-1.17375 6.05519,-1.3692 l -1.95327,-4.3034 c -1.75799,1.565 -2.92995,2.54295 -5.07854,3.5209 -2.34393,0.97795 -3.90656,1.3692 -6.64116,1.56465 z"
     fill="#111111"
     id="path9"
     style="stroke-width:3.423" />
  <path
     fill-rule="evenodd"
     clip-rule="evenodd"
     d="m 161.92673,114.03485 c -1.95317,1.9559 -2.93009,3.12965 -3.90667,5.67225 -0.97659,2.1517 -1.17204,3.71635 -1.36715,6.06385 l -4.49269,-1.95625 c 1.5626,-1.76045 2.53953,-2.93385 3.51611,-5.08555 0.97658,-2.5426 1.5626,-4.1076 1.5626,-6.6502 z"
     fill="#111111"
     id="path10"
     style="stroke-width:3.423" />
  <path
     fill-rule="evenodd"
     clip-rule="evenodd"
     d="m 162.12218,123.8147 c -1.95351,-1.9559 -3.1252,-2.93385 -5.66472,-3.9118 -2.14862,-0.97795 -3.71122,-1.17375 -6.05495,-1.3692 l 1.95317,-4.3034 c 1.75805,1.565 2.93008,2.54295 5.0787,3.5209 2.53918,1.17375 4.10178,1.3692 6.64096,1.76045 z"
     fill="#111111"
     id="path11"
     style="stroke-width:3.423" />
  <path
     fill-rule="evenodd"
     clip-rule="evenodd"
     d="m 54.10565,150.612 c 1.17203,-0.5867 1.75805,0 1.95351,-0.39125 0.19511,-0.19545 0,-0.39125 -0.39091,-0.5867 -0.39057,-0.39125 -0.97658,-0.5867 -1.36715,-0.97795 -0.39056,-0.39125 -0.78147,-0.7825 -1.17203,-1.17375 -0.19511,-0.19545 -0.58602,-0.5867 -0.78113,-0.19545 -0.39091,0.5867 1.5626,1.1734 0.39056,2.7384 -0.19545,0.19545 -0.58601,0.7825 -1.95316,1.56465 l -5.85983,3.32545 c -0.19546,0 -0.39091,0.19545 -0.39091,0.19545 -0.19511,0 0,-0.39125 0,-0.5867 l 2.14862,-6.65055 c 0.3909,-1.3692 0.78147,-2.1517 1.17203,-2.7384 0.58602,-0.5867 1.17204,0.1958 1.5626,-0.19545 0.19545,-0.1958 0.19545,-0.39125 -0.39056,-0.7825 -0.19546,-0.1958 -0.78147,-0.39125 -1.75806,-1.17375 -0.58601,-0.39125 -0.97658,-0.97795 -1.5626,-1.3692 -0.19511,-0.19545 -0.58601,-0.78215 -0.97658,-0.39125 0,0.1958 0,0.39125 0,0.39125 0.58602,0.58705 0.58602,0.9783 0.39057,1.76045 l -3.51577,12.3228 c -0.19545,0.97795 -0.19545,1.17375 0,1.3692 0.19511,0.1958 0.39057,0.1958 0.78113,-0.19545 z"
     fill="#111111"
     id="path12"
     style="stroke-width:3.423" />
  <path
     fill-rule="evenodd"
     clip-rule="evenodd"
     d="m 69.53653,156.8713 c 0.39091,-1.565 1.56295,-0.39125 1.75806,-1.17375 0,-0.19545 0,-0.19545 -0.39057,-0.39125 -0.19545,0 -0.58602,0 -2.14862,-0.39125 -0.78147,-0.19545 -1.75805,-0.5867 -2.53918,-0.78215 -0.3909,0 -0.58601,0 -0.78147,0.19545 -0.19511,0.7825 2.14862,0.7825 1.75806,2.34715 l -2.34407,9.38895 c -0.58602,2.34715 -1.75772,0.97795 -1.95317,1.9559 0,0.1958 0,0.1958 0.39057,0.39125 0.97658,0.1958 1.75805,0.39125 2.34407,0.5867 0.97658,0.1958 1.95316,0.58705 4.88325,1.3692 1.5626,0.39125 3.1252,-0.97795 3.51576,-2.5426 0,-0.39125 0,-0.39125 -0.19545,-0.39125 -0.78113,-0.19545 -1.1717,2.54295 -5.85984,1.3692 -1.36714,-0.39125 -1.17169,-0.97795 -0.78112,-2.34715 z"
     fill="#111111"
     id="path13"
     style="stroke-width:3.423" />
  <path
     fill-rule="evenodd"
     clip-rule="evenodd"
     d="m 80.67053,159.21845 c 0.19511,-1.3692 0.19511,-1.3692 2.53918,-1.17375 3.71121,0.1958 2.14861,2.54295 2.92974,2.54295 0.39091,0 0.39091,-0.5867 0.39091,-0.97795 v -1.9559 c 0,-0.1958 -0.19545,-0.39125 -0.39091,-0.39125 -1.75771,-0.1958 -3.1252,-0.1958 -4.49234,-0.1958 -2.93009,-0.19545 -4.29724,-0.39125 -5.07871,-0.39125 -0.19511,0 -0.39056,0.1958 -0.39056,0.39125 0,0.7825 2.14862,0.39125 1.95316,2.1517 l -0.58602,9.5844 c -0.19511,2.5426 -1.5626,1.3692 -1.5626,2.1517 0,0.19545 0.19546,0.19545 0.39091,0.19545 0.97658,0 1.95317,0 2.53918,0 0.97658,0 2.14862,0.19545 5.07837,0.39125 1.5626,0.19545 2.93008,-1.565 2.93008,-3.12965 0,-0.39125 -0.19545,-0.39125 -0.19545,-0.39125 -0.78113,0 -0.58602,2.54295 -5.46927,2.34715 -1.36715,-0.19545 -1.17169,-0.78215 -1.17169,-2.15135 l 0.19511,-2.54295 c 0,-1.17375 0,-1.3692 0.97658,-1.3692 h 1.36749 c 1.95316,0.1958 1.36715,2.34715 1.95316,2.34715 0.39091,0 0.39091,-0.7825 0.39091,-0.97795 l 0.19511,-3.71635 c 0,-0.5867 -0.19511,-0.5867 -0.39056,-0.5867 -0.39057,0 -0.58602,1.76045 -2.14862,1.76045 h -1.17204 c -0.78112,0 -0.78112,-0.1958 -0.78112,-1.17375 z"
     fill="#111111"
     id="path14"
     style="stroke-width:3.423" />
  <path
     fill-rule="evenodd"
     clip-rule="evenodd"
     d="m 91.0227,169.1941 c 0.19546,2.15135 -1.75805,1.9559 -1.56259,2.7384 0,0.39125 0.39056,0.19545 0.58601,0.19545 0.58602,0 0.97658,-0.19545 1.5626,-0.19545 0.58602,0 1.36715,0 2.34407,-0.1958 0.19511,0 0.78113,0 0.78113,-0.39125 0,-0.97795 -2.34373,0.58705 -2.73463,-3.3251 l -0.58602,-6.846 c 0,-0.19545 0,-0.39125 0.19545,-0.39125 0,0 0.19546,0 0.39057,0.1958 l 10.15706,9.77985 c 0.19546,0.1958 0.19546,0.1958 0.58602,0.1958 0.19545,0 0.19545,-0.1958 0.19545,-0.58705 l -0.97658,-11.34485 c -0.19545,-2.15135 1.5626,-1.76045 1.36715,-2.34715 0,0 0,-0.19545 -0.39057,-0.19545 -0.19545,0 -0.78147,0.19545 -2.14861,0.19545 -1.36749,0.1958 -1.953508,0 -2.14862,0.1958 -0.19545,0 -0.39056,0.19545 -0.19545,0.39125 0,0.5867 2.34407,0.19545 2.53918,1.9559 l 0.58602,6.846 c 0,0.5867 0,0.7825 0,0.7825 -0.19511,0 -0.39057,-0.1958 -0.58602,-0.39125 l -8.59413,-8.2152 c -0.3909,-0.39125 -0.19545,-0.58705 -0.78147,-0.39125 -0.97658,0 -1.5626,0.19545 -1.95316,0.19545 -0.39091,0 -0.78147,0 -1.17204,0 -0.19545,0 -0.39056,0.1958 -0.39056,0.39125 0,0.97795 2.14862,-0.5867 2.53918,3.3251 z"
     fill="#111111"
     id="path15"
     style="stroke-width:3.423" />
  <path
     fill-rule="evenodd"
     clip-rule="evenodd"
     d="m 115.04806,153.54585 c 0,-0.19545 -0.19546,0 -0.19546,0 -0.19511,0 0,0.7825 -0.39056,0.7825 -0.58602,0.1958 -2.34407,-0.5867 -4.49269,0.1958 -4.6878,1.3692 -5.27381,6.25895 -4.29723,9.5844 0.3909,1.56465 2.73463,6.25929 8.2039,4.6943 3.90667,-1.17375 5.07871,-4.6943 4.6878,-5.4768 0,-0.19545 -0.19511,-0.19545 -0.39056,-0.19545 -0.58602,0.19545 -0.97659,3.1293 -3.90667,3.9118 -3.51577,1.17375 -6.2504,-2.34715 -7.03153,-5.08555 -0.78147,-2.54295 -0.19545,-5.86805 2.53918,-6.65055 2.14862,-0.5867 4.29723,0.58705 5.85983,2.1517 0.19546,0.19545 0.39057,0.5867 0.78113,0.5867 0.39091,-0.19545 0.19546,-0.5867 0,-0.78215 z"
     fill="#111111"
     id="path16"
     style="stroke-width:3.423" />
  <path
     fill-rule="evenodd"
     clip-rule="evenodd"
     d="m 120.71244,152.177 c -0.97659,-1.76045 0.78147,-1.76045 0.3909,-2.3475 -0.19545,-0.19545 -0.19545,-0.19545 -0.78147,0 -0.97658,0.58705 -1.5626,0.97795 -2.14861,1.17375 -0.58602,0.39125 -1.36715,0.5867 -1.95317,0.97795 -0.19545,0 -0.58602,0.19545 -0.39056,0.5867 0.39056,0.58705 1.95316,-0.97795 2.92974,0.7825 l 4.6878,8.60645 c 0.97658,1.76045 -0.58602,1.9559 -0.19511,2.5426 0,0 0.19511,0.1958 0.39056,0.1958 0.39057,-0.1958 1.17204,-0.7825 1.95317,-1.17375 1.36749,-0.78215 1.9535,-0.97795 2.73463,-1.3692 0.39057,-0.19545 0.58602,-0.39125 0.39057,-0.5867 -0.39057,-0.5867 -1.75771,1.3692 -2.92975,-0.97795 z"
     fill="#111111"
     id="path17"
     style="stroke-width:3.423" />
  <path
     fill-rule="evenodd"
     clip-rule="evenodd"
     d="M 9.7664,80.587347 C 8.59443,80.000302 8.78975,79.4136 8.39912,79.218147 c -0.39067,0 -0.39067,0.195453 -0.39067,0.586702 0,0.391249 0,0.977951 0,1.3692 0,0.391249 -0.19532,0.977951 -0.19532,1.3692 0,0.195453 -0.19535,0.586702 0.19532,0.782498 0.7813,0 0.19532,-1.564996 1.95327,-1.564996 0.39066,0 0.97665,0.195796 2.34393,0.782498 l 6.05519,2.933853 c 0.19531,0 0.39063,0.195796 0.39063,0.195796 0,0.195453 -0.39063,0.195453 -0.39063,0.195453 l -6.83649,1.564996 c -1.36728,0.195453 -2.34393,0.390906 -2.92992,0.390906 -0.7813,0 -0.39066,-0.977951 -0.97665,-1.173404 -0.39063,0 -0.39063,0 -0.39063,0.586702 0,0.195796 0,0.782498 0,1.760449 0,0.586702 -0.19535,1.173747 -0.19535,1.564653 0,0.195796 -0.19532,0.782498 0.19535,0.782498 0.19532,0 0.19532,-0.195453 0.39063,-0.195453 C 7.81313,90.562653 8.20377,90.3672 8.9851,90.171747 l 12.30562,-2.934196 c 0.97665,-0.195453 1.17196,-0.391249 1.17196,-0.586702 0,-0.195796 0,-0.195796 -0.58594,-0.586702 z"
     fill="#111111"
     id="path18"
     style="stroke-width:3.423" />
  <path
     fill-rule="evenodd"
     clip-rule="evenodd"
     d="m 19.33745,79.218147 c 1.95327,0.390906 1.36728,1.955902 2.14862,2.151355 0.39063,0 0.39063,-0.195453 0.39063,-0.391249 0.19535,-0.390906 0.19535,-0.977951 0.19535,-1.3692 0.19532,-0.586702 0.39063,-1.173404 0.58599,-1.760106 0,-0.195796 0.19531,-0.587045 -0.19536,-0.587045 -0.97661,-0.195453 0,2.151698 -3.90653,1.173747 l -6.83648,-1.564996 c -0.19532,0 -0.39067,-0.195453 -0.39067,-0.195453 0,0 0.19535,-0.195453 0.39067,-0.195453 L 23.83,71.1984 c 0.19532,0 0.39063,-0.195453 0.39063,-0.391249 0,-0.195453 -0.19531,-0.195453 -0.58598,-0.391249 L 12.50097,67.873298 c -2.14859,-0.391249 -1.36729,-1.760449 -1.95327,-1.956245 0,0 -0.19532,0 -0.39067,0.195796 0,0.195453 0,0.782498 -0.39063,1.760449 -0.19535,1.173404 -0.39067,1.564653 -0.58598,1.760449 0,0.195453 0.19531,0.390906 0.19531,0.390906 0.58599,0.195796 0.7813,-1.955902 2.53925,-1.3692 l 6.64117,1.564996 c 0.58598,0.195453 0.7813,0.195453 0.7813,0.195453 0,0.195796 -0.39067,0.195796 -0.58598,0.391249 L 8.59443,75.110547 c -0.39066,0.195453 -0.58598,0 -0.58598,0.586702 -0.19535,0.782498 -0.19535,1.3692 -0.39067,1.760449 0.19532,0.195453 0.19532,0.391249 0,0.782155 0,0.195796 0.19532,0.391249 0.19532,0.391249 0.97665,0.195796 0,-1.955902 3.90657,-0.977951 z"
     fill="#111111"
     id="path19"
     style="stroke-width:3.423" />
  <path
     fill-rule="evenodd"
     clip-rule="evenodd"
     d="M 14.0636,62.200702 C 12.30565,61.614 13.28227,60.636049 12.69628,60.440596 c -0.19531,0 -0.39063,0 -0.39063,0.390906 -0.19535,0.978294 -0.39067,1.564996 -0.58598,1.956245 -0.19535,0.586702 -0.39067,1.173404 -0.58599,1.760106 0,0.195796 -0.19535,0.587045 0.19532,0.587045 0.58598,0.195453 0.7813,-1.760449 2.53925,-1.173747 l 9.37573,3.129649 c 1.75795,0.586702 0.97665,1.564653 1.56264,1.760449 0.19531,0 0.19531,0 0.19531,-0.195796 0.19535,-0.390906 0.19535,-1.173404 0.58599,-1.760106 0.39066,-1.173747 0.58598,-1.760449 0.78133,-2.347494 0.19532,-0.390906 0,-0.586702 -0.19535,-0.586702 -0.58598,-0.195453 -0.19532,1.760449 -2.73457,0.977951 z"
     fill="#111111"
     id="path20"
     style="stroke-width:3.423" />
  <path
     fill-rule="evenodd"
     clip-rule="evenodd"
     d="m 18.75147,50.464947 c -0.97665,-0.978294 -0.58599,-1.3692 -0.97665,-1.564996 -0.39067,-0.195453 -0.39067,0.195796 -0.58599,0.391249 -0.19531,0.391249 -0.39066,0.782498 -0.39066,1.3692 -0.19532,0.391249 -0.39064,0.782498 -0.58599,1.173747 0,0.195453 -0.39063,0.586702 0,0.782155 0.58599,0.391249 0.58599,-1.564653 2.34394,-0.782155 0.39066,0.195453 0.97665,0.390906 1.9533,1.3692 l 4.68786,4.498506 c 0.19532,0.195796 0.39067,0.195796 0.39067,0.391249 H 25.19728 L 18.3608,57.310947 c -1.36728,-0.195796 -2.34393,-0.391249 -2.7346,-0.587045 -0.7813,-0.391249 -0.19532,-1.173404 -0.58598,-1.3692 -0.39064,-0.195453 -0.39064,0 -0.58599,0.391249 -0.39063,0.586702 -0.39063,0.977951 -0.7813,1.955902 -0.19531,0.587045 -0.58598,0.978294 -0.7813,1.564996 0,0.195453 -0.39066,0.586702 0,0.782498 0.19532,0 0.39064,0 0.39064,-0.195796 0.39066,-0.586702 0.78133,-0.586702 1.56263,-0.586702 l 12.50097,1.173404 c 0.97665,0 1.17196,0 1.17196,-0.195453 0,-0.195453 0,-0.195453 -0.39063,-0.586702 z"
     fill="#111111"
     id="path21"
     style="stroke-width:3.423" />
  <path
     fill-rule="evenodd"
     clip-rule="evenodd"
     d="m 22.07205,46.357347 c -1.17197,-0.782498 -1.17197,-0.782498 0,-2.542947 1.75795,-2.7384 2.92992,-0.195453 3.5159,-0.977951 0.19532,-0.391249 -0.39067,-0.586702 -0.58598,-0.782498 L 23.24402,41.076 c -0.19535,-0.195453 -0.39067,-0.195453 -0.58598,0 -0.78134,1.173747 -1.36732,2.151698 -1.95331,3.129649 -1.36728,2.151698 -2.14858,2.933853 -2.34393,3.520898 -0.19532,0.195453 0,0.390906 0.19535,0.586702 0.39063,0.586702 0.97662,-1.3692 2.53925,-0.391249 l 8.00845,5.281004 c 2.14858,1.3692 0.39063,1.760449 1.36729,2.347494 0.19531,0 0.19531,0 0.39066,-0.195796 0.58599,-0.782498 0.7813,-1.3692 1.17197,-1.760449 C 32.4244,52.812098 33.01039,52.0296 34.37753,50.073698 35.159,48.899951 34.18235,47.139502 32.81507,46.357347 32.4244,46.161551 32.4244,46.161551 32.4244,46.161551 32.03377,46.748253 34.37753,47.922 32.22909,51.442898 31.6431,52.420849 31.05712,52.0296 29.88515,51.247102 l -2.14862,-1.3692 c -0.97661,-0.586702 -1.17196,-0.782498 -0.78129,-1.3692 l 0.58598,-0.977951 c 0.97665,-1.3692 2.53925,0.195796 2.7346,-0.391249 0.19532,-0.391249 -0.39067,-0.586702 -0.58598,-0.782155 l -3.12527,-1.956245 c -0.39063,-0.195453 -0.58599,-0.195453 -0.58599,0 -0.19531,0.195796 1.36732,1.3692 0.58599,2.542947 l -0.58599,0.782498 c -0.39063,0.586702 -0.58598,0.586702 -1.17196,0 z"
     fill="#111111"
     id="path22"
     style="stroke-width:3.423" />
  <path
     fill-rule="evenodd"
     clip-rule="evenodd"
     d="m 42.58144,38.3376 c 0.39056,0.391249 0.39056,0.391249 0.78147,0.195453 0.97658,-0.390906 1.75771,-0.586702 2.53918,-1.173404 1.5626,-1.3692 1.5626,-3.716454 -0.19546,-5.868049 -1.75805,-1.956005 -3.12519,-1.956005 -5.07836,-1.564824 -2.53952,0.586804 -3.32065,0.782429 -4.10212,-0.195591 -0.97658,-0.977985 -0.78113,-2.151595 0,-2.7384 2.14862,-1.76038 4.68814,0.97802 5.0787,0.782395 0.19546,-0.19559 0.19546,-0.39118 -0.19545,-0.782395 L 39.45624,25.03678 c -0.39057,-0.39118 -0.39057,-0.58677 -0.58602,-0.39118 -0.19545,0.19559 -0.19545,0.586805 -0.39057,0.782395 -0.3909,0.391215 -1.36748,0.19559 -2.34407,0.977985 -1.5626,1.17361 -1.36714,3.325205 0.19546,5.08562 1.36714,1.56479 2.53918,1.56479 4.10178,1.3692 2.93009,-0.586805 3.90667,-0.97802 5.0787,0.19559 0.97659,1.17361 0.97659,2.54281 0,3.520761 -1.36749,1.173747 -3.32065,0.391249 -5.0787,-0.782498 C 40.23737,35.5992 40.04225,35.5992 39.8468,35.5992 c -0.39056,0.195453 0.19545,0.586702 0.39057,0.782498 z"
     fill="#111111"
     id="path23"
     style="stroke-width:3.423" />
  <path
     fill-rule="evenodd"
     clip-rule="evenodd"
     d="m 44.73005,22.885185 c -1.17203,-1.56479 0.39057,-1.76038 0,-2.347185 -0.19545,-0.195624 -0.19545,-0.19559 -0.58602,0.19559 -0.78112,0.586805 -1.17203,0.97802 -1.75805,1.3692 -0.39056,0.391215 -0.97658,0.586805 -1.5626,0.97802 -0.19511,0 -0.39056,0.19559 -0.19511,0.58677 0.39057,0.586805 1.5626,-0.977985 2.73464,0.586805 l 5.66438,8.01961 c 1.17203,1.564825 -0.19546,1.760415 0.19545,2.347254 l 0.19511,0.195453 c 0.39057,-0.195453 0.97658,-0.782292 1.36749,-1.173507 0.97658,-0.782395 1.5626,-0.977985 2.14862,-1.3692 0.39056,-0.19559 0.39056,-0.39118 0.19511,-0.586805 -0.39057,-0.58677 -1.36715,1.3692 -2.73464,-0.782395 z"
     fill="#111111"
     id="path24"
     style="stroke-width:3.423" />
  <path
     fill-rule="evenodd"
     clip-rule="evenodd"
     d="m 101.37523,10.56242 c 0.19511,-0.977986 0.58601,-1.17361 1.17169,-1.17361 2.53952,0.391214 2.14862,3.325205 1.9535,3.91201 -0.19545,0.586804 -0.58601,2.7384 -2.53918,2.347185 -0.3909,0 -0.58601,-0.19559 -0.78147,-0.19559 -0.19545,0 -0.19545,0.195624 -0.19545,0.391214 0,0 0,0.586805 1.5626,0.782395 1.95351,0.391215 3.71121,-0.978019 4.10212,-3.520795 0.58602,-2.934024 -1.36749,-4.30319 -3.32065,-4.694405 -1.17204,-0.19559 -2.34407,-0.391214 -2.53918,-0.391214 -1.172037,0 -2.14862,-0.19559 -2.14862,-0.19559 -0.39056,0 -0.58602,0.19559 -0.58602,0.391214 -0.19545,0.782395 1.758056,0.19559 1.36715,2.347186 l -1.5626,8.802004 c -0.39056,2.54281 -1.5626,1.760415 -1.75771,2.347186 0,0.391214 0.19511,0.391214 0.19511,0.391214 0.19545,0 1.36749,0.195591 1.95351,0.195591 0.39056,0 0.976579,0.19559 2.14861,0.391214 0.19511,0 0.39057,0.195591 0.39057,-0.195624 0.19511,-0.782395 -1.562601,-0.19559 -1.172037,-2.738366 z"
     fill="#111111"
     id="path25"
     style="stroke-width:3.423" />
  <path
     fill-rule="evenodd"
     clip-rule="evenodd"
     d="m 115.04806,11.540439 c -3.71122,-1.17361 -6.83642,1.173576 -8.39902,5.4768 -1.36749,3.911976 -0.19545,7.237181 2.92975,8.41079 4.88325,1.760381 7.42243,-2.7384 8.39935,-5.4768 1.36715,-4.30319 0,-7.432805 -2.93008,-8.41079 z m 0.78147,8.41079 c -1.17204,3.129581 -2.93009,5.4768 -5.46927,4.694405 -2.73464,-0.978019 -2.34407,-5.28121 -1.36749,-8.01961 0.97692,-2.7384 2.73463,-5.281209 5.27416,-4.30319 1.95316,0.391181 3.1252,3.325205 1.5626,7.628395 z"
     fill="#111111"
     id="path26"
     style="stroke-width:3.423" />
  <path
     fill-rule="evenodd"
     clip-rule="evenodd"
     d="m 124.03309,17.408385 c 0.78147,-1.3692 1.36749,-0.19559 1.75805,-0.977985 0.19511,-0.195624 0,-0.195624 -0.19545,-0.391215 -0.19511,-0.19559 -0.39057,-0.19559 -1.75771,-0.782395 -0.58602,-0.19559 -1.36749,-0.782395 -1.95351,-1.17361 -0.39056,-0.19559 -0.58602,-0.19559 -0.58602,0 -0.39056,0.586805 1.5626,0.97802 0.78148,2.54281 l -4.49269,8.802005 c -1.1717,2.151595 -1.75771,0.586805 -2.14862,1.56479 0,0.195591 0,0.195591 0.19545,0.391215 0.78147,0.39118 1.36715,0.586805 1.95317,0.977985 0.78147,0.391215 1.5626,0.97802 3.71121,1.956005 1.17204,0.586805 2.73464,-0.391214 3.51611,-1.956005 0.19511,-0.39118 0.19511,-0.39118 0,-0.39118 -0.58602,-0.195625 -1.5626,2.151595 -5.07871,0.39118 -0.97658,-0.586805 -0.58601,-1.173609 0,-2.347185 z"
     fill="#111111"
     id="path27"
     style="stroke-width:3.423" />
  <path
     fill-rule="evenodd"
     clip-rule="evenodd"
     d="m 132.82301,22.88522 c 1.17169,-1.564825 1.75771,-0.391215 2.14862,-0.97802 0.19511,-0.19559 0,-0.19559 -0.39091,-0.586805 -0.78113,-0.586805 -1.36714,-0.782395 -1.75771,-1.173575 -0.39091,-0.391215 -0.97692,-0.78243 -1.56294,-1.17361 -0.19511,0 -0.39057,-0.391215 -0.58568,0 -0.3909,0.586805 1.36715,1.17361 0.39057,2.7384 l -5.46927,8.2152 c -1.17204,1.56479 -1.75805,0.586805 -2.14862,1.17361 0,0 -0.19511,0.19559 0,0.39118 0.39057,0.195624 0.97658,0.586805 1.5626,0.97802 0.97658,0.782395 1.5626,1.173609 1.95351,1.3692 0.39056,0.19559 0.39056,0.19559 0.58567,0 0.39091,-0.586805 -1.75771,-0.782396 -0.19511,-2.933991 z"
     fill="#111111"
     id="path28"
     style="stroke-width:3.423" />
  <path
     fill-rule="evenodd"
     clip-rule="evenodd"
     d="m 132.23699,34.425453 c -1.5626,1.956245 -2.34407,0 -2.93008,0.587045 -0.19512,0.391249 0,0.586702 0.19545,0.782155 0.58602,0.391249 0.97658,0.587045 1.75805,1.3692 0.78113,0.587045 1.17169,0.978294 1.75771,1.564996 0.39091,0.195453 0.58602,0.586702 0.97658,0.195453 0.39091,-0.391249 -1.5626,-1.173404 -0.19511,-3.325102 l 5.66438,-7.23718 c 0.58602,-0.78243 0.78147,-0.78243 1.36749,-0.391215 l 1.17169,0.782395 c 1.56295,1.17361 -0.19511,2.54281 0.19546,2.93399 0.39056,0.195625 0.58602,-0.39118 0.78147,-0.782395 l 0.97658,-1.56479 c 0.19511,-0.19559 0.19511,-0.391215 0.19511,-0.586805 -1.17169,-0.977985 -2.14862,-1.56479 -3.90633,-2.93399 -1.9535,-1.56479 -2.73463,-2.151595 -3.90667,-3.129615 -0.19545,-0.19559 -0.39056,0 -0.58601,0.195625 l -1.95317,1.95597 c -0.19545,0.195625 -0.58601,0.586805 -0.19545,0.78243 0.58602,0.39118 1.75805,-1.956005 3.32065,-0.78243 l 1.17204,0.78243 c 0.58601,0.39118 0.58601,0.58677 0,1.3692 z"
     fill="#111111"
     id="path29"
     style="stroke-width:3.423" />
  <path
     fill-rule="evenodd"
     clip-rule="evenodd"
     d="m 146.30039,34.425453 c 0.97658,-0.977848 1.17203,-0.977848 2.34407,0.587045 2.14862,2.347151 -0.39057,2.933853 0,3.520555 0.19545,0.195796 0.78113,-0.195453 0.97658,-0.390906 l 1.36749,-1.3692 c 0.19511,-0.195796 0.19511,-0.391249 0,-0.587045 -0.97692,-0.977951 -1.75805,-1.760449 -2.53952,-2.738297 -1.75771,-1.760415 -2.34373,-2.7384 -2.92975,-3.325205 -0.19545,-0.19559 -0.39091,-0.19559 -0.58602,0 -0.58602,0.586805 1.17204,1.3692 -0.19545,2.7384 l -7.03187,6.454751 c -1.75771,1.760449 -1.95316,0 -2.53918,0.586702 0,0 -0.19511,0.195796 0,0.391249 0.58602,0.587045 1.17203,1.173747 1.5626,1.564996 0.58602,0.586702 1.17203,1.3692 2.93009,3.129649 0.97658,0.977951 2.73463,0.586702 3.90632,-0.587045 0.19546,-0.195453 0.19546,-0.391249 0.19546,-0.391249 -0.39057,-0.390906 -2.14862,1.564996 -5.07837,-1.3692 -0.78147,-0.782155 -0.19545,-1.3692 0.78113,-2.151355 l 1.95351,-1.760449 c 0.78113,-0.782498 0.97658,-0.977951 1.5626,-0.391249 l 0.78113,0.977951 c 1.17203,1.173747 -0.78113,2.347151 -0.39057,2.7384 0.19511,0.195796 0.78113,-0.195453 0.97658,-0.391249 l 2.53919,-2.542604 c 0.39056,-0.391249 0.19545,-0.587045 0.19545,-0.587045 -0.19545,-0.195453 -1.5626,0.978294 -2.53918,0 l -0.78147,-0.782155 c -0.39057,-0.587045 -0.39057,-0.587045 0.19545,-1.173747 z"
     fill="#111111"
     id="path30"
     style="stroke-width:3.423" />
  <path
     fill-rule="evenodd"
     clip-rule="evenodd"
     d="m 158.41096,47.139502 v -0.195453 c -0.19545,-0.195796 -0.78147,0.195453 -0.78147,0 -0.19545,-0.391249 0,-2.151698 -0.97658,-3.716351 -2.34407,-3.325445 -7.03187,-2.347151 -9.7665,-0.391249 -1.36715,0.977951 -5.27382,4.498849 -2.53919,8.410653 1.95317,2.934196 5.46927,2.542947 6.05529,2.151698 0.19511,0 0.19511,-0.195453 0,-0.391249 -0.19545,-0.391249 -3.12554,0.195796 -4.49269,-1.955902 -1.75805,-2.542947 0.78148,-5.868049 3.32066,-7.628498 2.34372,-1.564653 5.46927,-1.955902 6.64096,0 0.97692,1.564996 0.39091,3.716351 -0.78113,5.4768 -0.19545,0.195796 -0.39056,0.586702 -0.39056,0.782498 0.19511,0.195453 0.58567,0 0.58567,-0.195796 z"
     fill="#111111"
     id="path31"
     style="stroke-width:3.423" />
  <path
     fill-rule="evenodd"
     clip-rule="evenodd"
     d="m 150.20706,55.354702 c -1.95317,0.978294 -2.14862,-0.782155 -2.93009,-0.390906 -0.39056,0.195453 0,0.390906 0,0.586702 0.19545,0.391249 0.39091,0.782498 0.58602,1.173404 0.19545,0.587045 0.3909,0.978294 0.78147,1.760449 0,0.195796 0.19511,0.587045 0.58602,0.391249 0.78113,-0.391249 -1.36749,-1.760449 2.34372,-3.325102 l 6.25075,-2.934196 c 0.19511,0 0.39056,-0.195453 0.39056,0 0,0 0,0.195796 -0.19545,0.391249 l -6.44586,11.540645 c 0,0.195453 -0.19511,0.390906 0,0.586702 0,0.195453 0.19546,0.195453 0.58602,0 L 162.51274,60.2448 c 1.95317,-0.977951 2.14862,0.586702 2.73464,0.391249 0,0 0.19511,-0.195453 0.19511,-0.391249 0,-0.195453 -0.39056,-0.586702 -0.78113,-1.564653 -0.39056,-0.977951 -0.58602,-1.564996 -0.78147,-1.760449 0,-0.195796 -0.39056,-0.195796 -0.39056,0 -0.58602,0.195453 0.58601,1.955902 -1.17204,2.7384 l -6.2504,2.933853 c -0.39056,0 -0.58602,0 -0.78147,0 0,0 0.19545,-0.391249 0.19545,-0.782155 l 5.46927,-9.780196 c 0.19512,-0.391249 0.39057,-0.391249 0.19512,-0.782498 -0.39057,-0.782155 -0.58568,-1.173404 -0.78113,-1.564653 0,-0.195796 -0.19546,-0.391249 -0.19546,-0.782498 0,-0.195453 -0.19511,-0.195453 -0.39056,-0.195453 -0.97658,0.391249 1.17203,1.564653 -2.53918,3.129649 z"
     fill="#111111"
     id="path32"
     style="stroke-width:3.423" />
  <path
     fill-rule="evenodd"
     clip-rule="evenodd"
     d="m 164.85647,66.112849 c 1.75805,-0.586702 1.56294,0.782498 2.14862,0.586702 0.19545,0 0.19545,-0.195453 0.19545,-0.586702 -0.19545,-0.977951 -0.58602,-1.3692 -0.78113,-1.955902 -0.19545,-0.587045 -0.19545,-1.173747 -0.58601,-1.760449 0,-0.195796 -0.19546,-0.587045 -0.39091,-0.391249 -0.58602,0.195453 0.39091,1.760449 -1.36715,2.347151 l -9.37559,2.933853 c -1.75806,0.587045 -1.75806,-0.782155 -2.34407,-0.390906 -0.19546,0 -0.19546,0.195453 -0.19546,0.195453 0.19546,0.391249 0.39091,0.977951 0.58602,1.760449 0.39056,1.173404 0.58602,1.760449 0.78147,2.347151 0.19511,0.391249 0.19511,0.391249 0.39057,0.391249 0.58601,-0.195796 -0.78148,-1.564996 1.56259,-2.347151 z"
     fill="#111111"
     id="path33"
     style="stroke-width:3.423" />
  <path
     fill-rule="evenodd"
     clip-rule="evenodd"
     d="m 169.15371,78.239853 c 0.19545,0 0.19545,-0.195453 0,-0.195453 0,-0.195453 -0.78113,-0.195453 -0.78113,-0.391249 0,-0.586702 0.97658,-1.955902 0.58601,-3.911804 -0.78147,-4.1076 -5.46926,-4.890098 -8.78992,-4.303396 -1.5626,0.195796 -6.64096,1.956245 -5.85983,6.650547 0.58602,3.520555 3.90667,4.694302 4.68814,4.498849 0.19511,0 0.19511,-0.195796 0.19511,-0.195796 0,-0.391249 -2.92974,-0.977951 -3.32065,-3.520898 -0.58602,-3.129306 3.12554,-5.085551 6.05529,-5.476457 2.73463,-0.391249 5.66438,0.390906 6.25039,2.7384 0.39091,1.955902 -1.17169,3.520555 -2.92974,4.694302 -0.19545,0.195453 -0.58602,0.391249 -0.58602,0.586702 0,0.195453 0.58602,0.195453 0.78113,0 z"
     fill="#111111"
     id="path34"
     style="stroke-width:3.423" />
  <path
     fill-rule="evenodd"
     clip-rule="evenodd"
     d="m 52.34794,129.68275 c -0.58602,0.39125 -0.58602,0.39125 -1.17204,-0.39125 -0.97658,-1.3692 0.39057,-1.56465 0,-1.76045 -0.19545,-0.19545 -0.39056,0 -0.39056,0.1958 l -0.78147,0.5867 c 0,0 -0.19545,0.1958 0,0.1958 0.39056,0.5867 0.78147,0.97795 1.17203,1.56465 0.78113,0.97795 1.17204,1.56465 1.36715,1.76045 0,0.19545 0.19545,0.19545 0.19545,0 0.39057,-0.1958 -0.58601,-0.7825 0.19546,-1.3692 l 3.51576,-2.7384 c 0.97658,-0.7825 0.97658,0.19545 1.17204,-0.1958 v -0.19545 c -0.19546,-0.39125 -0.58602,-0.5867 -0.78148,-0.7825 -0.19511,-0.39125 -0.58601,-0.78215 -1.36714,-1.76045 -0.39057,-0.5867 -1.36749,-0.5867 -1.95317,0 -0.19545,0.1958 -0.19545,0.1958 -0.19545,0.1958 0.19545,0.19545 1.17204,-0.5867 2.34373,1.1734 0.39091,0.58705 0,0.58705 -0.39057,0.9783 l -0.58601,0.78215 c -0.39057,0.39125 -0.58602,0.39125 -0.78113,0.1958 l -0.39057,-0.58705 c -0.58601,-0.78215 0.39057,-1.1734 0.19512,-1.3692 -0.19512,-0.19545 -0.39057,0 -0.39057,0.1958 l -1.36749,0.97795 c -0.19511,0.19545 -0.19511,0.19545 0,0.19545 0.19546,0.1958 0.78147,-0.3909 1.17204,0.1958 l 0.3909,0.39125 c 0.19512,0.19545 0.19512,0.39125 -0.19545,0.5867 z"
     fill="#111111"
     id="path35"
     style="stroke-width:3.423" />
  <path
     fill-rule="evenodd"
     clip-rule="evenodd"
     d="m 53.91054,123.8147 c 0.58602,0 0.97658,0.39125 0.97658,0.1958 0.19545,0 0,-0.1958 -0.19545,-0.39125 -0.19511,-0.1958 -0.39057,-0.39125 -0.58602,-0.5867 -0.19511,-0.1958 -0.19511,-0.39125 -0.58568,-0.7825 -0.19545,-0.1958 -0.19545,-0.1958 -0.19545,-0.1958 -0.19545,0.1958 0.39057,0.58705 0,0.9783 -0.19545,0 -0.39056,0.19545 -0.78147,0.19545 h -1.17169 c -0.19546,0 -0.39091,0 -0.39091,0 0,0 0,-0.19545 0.19545,-0.39125 l 0.58602,-1.3692 c 0,-0.19545 0.19511,-0.39125 0.39057,-0.5867 0.19545,-0.1958 0.39056,0.19545 0.78147,0 0.19511,0 0,-0.1958 0,-0.1958 -0.19546,-0.19545 -0.39091,-0.3909 -0.58602,-0.78215 -0.19545,-0.39125 -0.39091,-0.58705 -0.39091,-0.58705 -0.39056,0 -0.58567,0 -0.58567,0 -0.19546,0.1958 0.19511,0.39125 -0.19546,1.3692 l -0.78147,2.3475 c -0.19511,0.19545 -0.19511,0.3909 -0.19511,0.3909 0,0 -0.3909,0 -0.58602,0 h -1.75805 c -1.17203,0 -1.36714,-0.5867 -1.5626,-0.3909 0,0 -0.19545,0.19545 0,0.19545 0.19546,0.39125 0.39057,0.5867 0.58602,0.7825 0.19545,0.19545 0.19545,0.39125 0.58602,0.78215 0,0 0,0.1958 0.19545,0 0.19511,-0.19545 -0.19545,-0.5867 0,-0.78215 0.19511,-0.1958 0.39056,-0.1958 0.78113,-0.1958 h 1.17203 c 0.19512,0 0.19512,0 0.39057,0 v 0.1958 l -0.78113,1.56465 c 0,0.1958 -0.19545,0.1958 -0.19545,0.1958 -0.19546,0.19545 -0.58602,-0.1958 -0.78147,0 0,0 -0.19512,0 0,0.19545 0.19545,0.19545 0.19545,0.39125 0.78147,0.7825 0.39056,0.5867 0.58601,0.78215 0.58601,0.97795 0,0.19545 0.19512,0.19545 0.19512,0 0.19545,-0.1958 -0.39057,-0.39125 0.3909,-1.9559 l 0.78113,-1.76045 c 0,-0.1958 0.19545,-0.39125 0.19545,-0.58705 0,0 0.19546,0 0.39057,0 z"
     fill="#111111"
     id="path36"
     style="stroke-width:3.423" />
  <path
     fill-rule="evenodd"
     clip-rule="evenodd"
     d="m 79.6936,36.381698 c 0.97693,0 1.95351,0.782155 1.95351,1.955902 0,0.977951 -0.78147,1.955902 -1.95351,1.955902 -0.97658,0 -1.95316,-0.782155 -1.95316,-1.955902 0,-1.173747 0.97658,-1.955902 1.95316,-1.955902 z"
     fill="#111111"
     id="path37"
     style="stroke-width:3.423" />
  <path
     fill-rule="evenodd"
     clip-rule="evenodd"
     d="m 62.30955,40.293502 c 0.97659,0 1.95317,0.782498 1.95317,1.956245 0,0.977951 -0.78113,1.955902 -1.95317,1.955902 -0.97658,0 -1.95316,-0.782498 -1.95316,-1.955902 0.19511,-1.173747 0.97658,-1.956245 1.95316,-1.956245 z"
     fill="#111111"
     id="path38"
     style="stroke-width:3.423" />
  <path
     d="m 119.54074,47.530751 c -0.3909,1.173747 -0.97692,1.3692 -2.73463,0.977951 -1.5626,-0.195453 -1.5626,-2.347151 -1.36749,-3.129649 l -2.53918,-0.782155 c -1.17204,2.151355 -2.34407,2.347151 -3.51576,2.151355 -1.75806,-0.195453 -1.95351,-3.325102 -1.75806,-5.085551 L 104.89099,41.076 c -1.36715,3.716351 -1.95317,4.1076 -3.51576,4.498849 -0.97659,0.195453 -1.562604,-0.391249 -1.95351,-0.782498 -0.586018,-0.586702 -0.97658,-1.3692 -0.97658,-2.151698 0,-0.390906 0.19545,-0.782155 0.19545,-1.173404 L 96.10141,41.076 c -0.19545,0.391249 -0.19545,0.977951 -0.19545,1.3692 -0.19546,0.977951 -0.78147,1.955902 -1.36715,2.347151 -0.39091,0.391249 -0.97692,0.391249 -1.36749,0.195796 -1.36714,-0.391249 -2.92974,-1.3692 -2.92974,-6.455094 h -2.73464 c 0,0.195796 0,0.391249 0,0.391249 0,3.716351 -0.97658,5.4768 -2.93009,6.063845 -0.58601,0.195453 -0.97658,0 -1.5626,-0.391249 -0.58601,-0.587045 -1.17203,-1.564996 -1.36714,-2.542947 0,-0.391249 0,-0.782498 0,-1.173404 L 78.91247,41.076 c 0,0.391249 0,0.782498 0,1.173747 0,0.977951 -0.39056,1.955902 -1.17203,2.542604 -0.58602,0.586702 -1.17204,0.782498 -1.75806,0.586702 -1.56259,-0.390906 -2.34372,-0.977951 -3.71121,-4.694302 l -2.53918,0.586702 c 0.19545,1.956245 0,5.085894 -1.75806,5.281347 -0.97658,0.195453 -2.14861,0 -3.32031,-2.542947 l -2.53952,0.978294 c 0.19545,1.760106 -0.58602,3.325102 -1.5626,3.716351 -1.75771,0.391249 -1.75771,0.391249 -2.53918,-0.977951 l -0.19545,-0.391249 -2.34373,1.3692 0.19511,0.391249 c 1.17203,2.151355 2.14862,3.129306 5.46927,2.151355 1.5626,-0.391249 2.53918,-1.564653 3.1252,-2.933853 1.17203,0.977951 2.53952,1.3692 4.10212,1.173404 1.36715,-0.195453 2.73464,-0.977951 3.51576,-3.325102 0.97659,0.977951 1.95317,1.760449 3.51577,1.955902 1.56294,0.195796 2.93009,-0.195453 4.10212,-1.3692 0.19511,-0.195453 0.58602,-0.586702 0.78113,-0.977951 0.19545,0.391249 0.58602,0.587045 0.78147,0.782498 1.17204,0.977951 2.53918,1.173747 3.90633,0.782498 1.75805,-0.587045 2.93009,-1.564996 3.71156,-2.7384 0.78113,1.3692 1.95316,2.347151 3.51576,2.7384 1.36715,0.391249 2.53918,0.195453 3.71122,-0.782498 0.39056,-0.195453 0.58601,-0.586702 0.97658,-0.977951 0.19545,0.195453 0.39056,0.391249 0.39056,0.586702 1.17204,1.3692 2.73464,1.955902 4.49269,1.564996 1.5626,-0.195796 2.53918,-0.978294 3.51576,-1.956245 0.78147,2.347151 2.53953,2.934196 3.71122,3.129649 1.17203,0.195796 2.73463,0 4.10212,-0.977951 0.58602,1.3692 1.75771,2.347151 3.1252,2.7384 1.36715,0.195453 4.29724,0.782498 5.85984,-2.542947 z"
     fill="#111111"
     id="path39"
     style="stroke-width:3.423" />
  <path
     fill-rule="evenodd"
     clip-rule="evenodd"
     d="m 97.46856,36.381698 c 0.97658,0 1.95316,0.782155 1.95316,1.955902 0,0.977951 -0.78113,1.955902 -1.95316,1.955902 -0.97659,0 -1.95317,-0.782155 -1.95317,-1.955902 0,-0.977951 0.78113,-1.955902 1.95317,-1.955902 z"
     fill="#111111"
     id="path40"
     style="stroke-width:3.423" />
  <path
     fill-rule="evenodd"
     clip-rule="evenodd"
     d="m 115.04806,39.902253 c 0.97658,0 1.95316,0.782498 1.95316,1.956245 0,1.173404 -0.78113,1.955902 -1.95316,1.955902 -0.97659,0 -1.95317,-0.782498 -1.95317,-1.955902 0,-1.173747 0.78113,-1.956245 1.95317,-1.956245 z"
     fill="#111111"
     id="path41"
     style="stroke-width:3.423" />
  <path
     fill-rule="evenodd"
     clip-rule="evenodd"
     d="m 62.50501,57.115151 1.95316,-1.955902 2.53918,0.977951 -1.95316,1.955902 z"
     fill="#111111"
     id="path42"
     style="stroke-width:3.423" />
  <path
     d="M 58.01232,55.550498 C 69.73199,51.834147 76.5684,50.6604 88.87409,50.855853 c 12.50114,0 19.33755,1.173747 31.05722,4.694645 0,0 0.97658,0.195453 1.36715,-0.977951 0.3909,-1.173747 -0.58602,-1.564996 -0.58602,-1.564996 -11.71967,-3.716351 -19.1421,-4.890098 -31.83835,-4.890098 -12.5008,0 -19.92323,1.173747 -31.6429,4.890098 0,0 -0.97692,0.391249 -0.58602,1.564996 0.19511,1.173404 1.36715,0.977951 1.36715,0.977951 z"
     fill="#111111"
     id="path43"
     style="stroke-width:3.423" />
  <path
     d="m 60.35639,62.9832 c 0.97658,-0.195453 2.14862,-0.391249 3.32031,-0.782498 5.85983,-1.3692 12.8917,-2.933853 25.00228,-2.933853 9.96161,0 16.79803,1.3692 25.39249,3.129649 l 3.1252,0.586702 c 0,0 0.97659,0.195453 1.17204,-0.977951 0.19511,-1.173747 -0.78147,-1.564996 -0.78147,-1.564996 l -3.1252,-0.586702 c -8.78958,-1.760449 -15.626338,-3.129649 -25.97852,-3.129649 -12.30568,0 -19.72812,1.760449 -25.58795,3.129649 -1.17203,0.195796 -2.14862,0.586702 -3.32065,0.782498 0,0 -0.97658,0.391249 -0.78113,1.564653 0.58568,0.977951 1.5626,0.782498 1.5626,0.782498 z"
     fill="#111111"
     id="path44"
     style="stroke-width:3.423" />
  <path
     fill-rule="evenodd"
     clip-rule="evenodd"
     d="m 78.131,54.181298 2.34407,-1.760449 2.53918,1.3692 -2.34372,1.564653 z"
     fill="#111111"
     id="path45"
     style="stroke-width:3.423" />
  <path
     fill-rule="evenodd"
     clip-rule="evenodd"
     d="m 119.93131,58.8756 c 0.58602,-1.173747 -0.19546,-2.933853 -0.19546,-2.933853 -0.97658,-0.195796 -2.73463,-0.195796 -3.12519,1.173404 -0.39057,1.3692 0,2.347151 1.5626,3.325102 -0.19546,-0.195453 0.78147,-0.390906 1.75805,-1.564653 z"
     fill="#111111"
     id="path46"
     style="stroke-width:3.423" />
  <path
     fill-rule="evenodd"
     clip-rule="evenodd"
     d="m 115.04806,57.115151 -1.95317,-1.955902 -2.53952,0.977951 1.9535,1.955902 z"
     fill="#111111"
     id="path47"
     style="stroke-width:3.423" />
  <path
     fill-rule="evenodd"
     clip-rule="evenodd"
     d="m 99.226609,54.181298 -2.148619,-1.760449 -2.53952,1.3692 2.34407,1.564653 z"
     fill="#111111"
     id="path48"
     style="stroke-width:3.423" />
  <path
     fill-rule="evenodd"
     clip-rule="evenodd"
     d="m 108.79766,55.550498 c 0.19511,-1.3692 -1.36749,-2.347151 -3.32065,-2.7384 -1.95317,-0.391249 -3.90667,0.195453 -4.10178,1.564653 -0.19546,1.3692 1.17203,2.347151 3.32031,2.7384 1.9535,0.195796 3.90667,-0.195453 4.10212,-1.564653 z"
     fill="#111111"
     id="path49"
     style="stroke-width:3.423" />
  <path
     fill-rule="evenodd"
     clip-rule="evenodd"
     d="m 134.19016,62.200702 c 0.39056,-0.195453 0.58601,-0.195453 0.78147,0.195796 0.78113,1.173404 -0.58602,1.955902 -0.78147,2.151355 -0.19546,0.195796 -1.17204,0.587045 -1.75806,-0.195453 -0.19511,-0.195453 -0.19511,-0.391249 -0.19511,-0.391249 h -0.19545 c 0,0 -0.19545,0.195796 0.19545,0.977951 0.58602,0.782498 1.5626,1.173747 2.73464,0.587045 1.17169,-0.782498 1.17169,-1.956245 0.58602,-2.934196 -0.39091,-0.586702 -0.58602,-0.977951 -0.78148,-1.173404 -0.39056,-0.587045 -0.58601,-0.978294 -0.58601,-0.978294 C 133.9947,60.2448 133.9947,60.2448 133.9947,60.2448 c -0.39056,0.195453 0.58602,0.782498 -0.39056,1.3692 l -3.71122,2.347151 c -1.17203,0.586702 -1.17203,0 -1.5626,0.195796 -0.19511,0 0,0.195453 0,0.195453 0,0 0.39057,0.586702 0.58602,0.977951 0.19545,0.195796 0.19545,0.586702 0.58602,0.977951 0,0.195796 0,0.195796 0.19545,0.195796 0.39057,-0.195796 -0.3909,-0.782498 0.58568,-1.3692 z"
     fill="#111111"
     id="path50"
     style="stroke-width:3.423" />
  <path
     fill-rule="evenodd"
     clip-rule="evenodd"
     d="m 142.19861,83.5212 c 0.19545,0 0.39056,0 0.39056,-0.195453 0,-0.195796 -0.19511,-0.195796 -0.39056,-0.195796 0,-0.195453 0.58602,-0.977951 0.39056,-2.151355 -0.19511,-2.151698 -2.53918,-2.7384 -4.29723,-2.542947 -0.78113,0.195453 -3.32031,0.782498 -2.92975,3.325102 0.19511,0.977951 0.78113,1.760449 1.36715,2.542947 h 0.19545 c 0.19511,0 0.39057,0 0.78113,-0.195796 1.36749,-0.195453 0.78147,0.391249 1.17204,0.391249 0.19545,0 0.19545,0 0.19545,-0.195453 0,-0.195796 -0.19545,-0.586702 -0.19545,-0.977951 0,-0.391249 0,-0.782498 -0.19512,-1.173747 0,-0.195453 0,-0.391249 -0.19545,-0.391249 -0.39056,0 0.39057,0.977951 -1.17203,1.173747 -0.58602,0 -1.36715,0.195453 -1.5626,-1.3692 -0.19546,-1.3692 1.5626,-2.151698 2.93008,-2.347151 2.53919,-0.391249 3.32031,0.586702 3.32031,1.3692 0.39091,2.151355 -1.95316,2.542604 -1.75771,2.7384 0,0.195453 0,0.195453 0.19512,0.195453 z"
     fill="#111111"
     id="path51"
     style="stroke-width:3.423" />
  <path
     fill-rule="evenodd"
     clip-rule="evenodd"
     d="m 141.41748,93.1056 c 0.78113,0 0.78113,0.195796 0.58567,1.173747 -0.19511,1.564653 -1.36714,0.782155 -1.36714,1.173404 0,0.195796 0.39056,0.195796 0.39056,0.195796 h 0.97658 c 0,0 0.19546,0 0.19546,-0.195796 0,-0.782498 0.19545,-1.3692 0.19545,-1.955902 0.19511,-1.3692 0.19511,-1.955902 0.19511,-2.151698 0,-0.195453 0,-0.195453 -0.19511,-0.195453 -0.39091,0 -0.19545,0.977951 -1.17203,0.782498 l -4.6878,-0.587045 c -1.17204,-0.195453 -0.58602,-0.782155 -0.97693,-0.782155 0,0 -0.19511,0 -0.19511,0.195453 0,0.391249 0,0.782498 0,1.173747 0,0.390906 -0.19545,0.977951 -0.19545,2.151355 0,0.782498 0.78147,1.3692 1.5626,1.3692 0.19545,0 0.19545,0 0.19545,0 0,-0.391249 -1.36749,-0.391249 -0.97658,-2.542604 0,-0.587045 0.39056,-0.587045 0.97658,-0.391249 l 1.36715,0.195453 c 0.58602,0 0.78147,0 0.58602,0.391249 v 0.586702 c 0,0.978294 -1.17204,0.587045 -1.17204,0.782498 0,0.195453 0.39091,0.195796 0.39091,0.195796 l 1.75771,0.195453 c 0.19545,0 0.19545,0 0.19545,-0.195453 0,-0.195796 -0.97658,-0.391249 -0.78113,-0.978294 V 93.1056 c 0,-0.391249 0.19511,-0.391249 0.58568,-0.391249 z"
     fill="#111111"
     id="path52"
     style="stroke-width:3.423" />
  <path
     fill-rule="evenodd"
     clip-rule="evenodd"
     d="m 135.75276,96.039453 c -0.19511,0 -0.39057,0 -0.39057,0.195796 -0.19545,0.391249 -0.58602,0.782498 -0.58602,1.3692 -0.19545,1.173404 0.58602,1.955902 1.75806,2.347151 1.17203,0.19545 1.75771,-0.195453 2.34373,-0.977951 0.78147,-0.977951 0.97658,-1.3692 1.75805,-1.3692 0.58602,0.195453 0.97658,0.586702 0.78147,1.173404 -0.19545,1.369197 -2.14862,1.173747 -2.14862,1.369197 0,0.1958 0,0.1958 0.39057,0.1958 l 1.36714,0.19545 c 0.19546,0 0.39091,0 0.39091,0 0,-0.19545 -0.19545,-0.39125 0,-0.39125 0,-0.19545 0.58567,-0.586699 0.58567,-1.173401 0.19546,-0.977951 -0.58567,-1.760449 -1.56259,-1.955902 -0.97659,-0.195796 -1.5626,0.195453 -1.95317,0.782155 -0.97658,1.173747 -1.17203,1.760449 -1.95316,1.564996 -0.78147,-0.195796 -1.17204,-0.782498 -0.97658,-1.3692 0.19511,-0.977951 1.17169,-1.173747 2.14861,-1.3692 0.19511,0 0.19511,0 0.19511,-0.195796 0,-0.195453 -0.19511,-0.195453 -0.39056,-0.195453 h -1.75805 z"
     fill="#111111"
     id="path53"
     style="stroke-width:3.423" />
  <path
     fill-rule="evenodd"
     clip-rule="evenodd"
     d="m 134.77617,100.34285 c -0.19545,0 -0.39056,0 -0.39056,0.19545 -0.19545,0.39125 -0.58602,0.7825 -0.78147,1.17375 -0.39056,0.97795 0.19545,2.1517 1.5626,2.5426 1.17203,0.39125 1.75805,0 2.53952,-0.78215 0.97658,-0.97795 1.1717,-1.3692 1.75771,-1.17375 0.58602,0.1958 0.97659,0.7825 0.78147,1.17375 -0.3909,1.3692 -2.34407,0.97795 -2.34407,1.1734 0,0.1958 0,0.1958 0.19546,0.1958 l 1.36714,0.39125 c 0.19546,0 0.39057,0.19545 0.39057,0 0,-0.1958 0,-0.39125 0,-0.39125 0,-0.1958 0.58602,-0.39125 0.78147,-1.17375 0.39056,-0.97795 -0.19545,-1.76045 -1.36715,-2.15135 -0.97692,-0.39125 -1.56294,0 -2.14861,0.5867 -1.17204,1.1734 -1.36749,1.56465 -2.14862,1.3692 -0.78147,-0.1958 -0.97693,-0.97795 -0.78147,-1.565 0.39056,-0.97795 1.36749,-1.1734 2.34407,-1.1734 0.19511,0 0.19511,0 0.19511,-0.1958 0,-0.19545 -0.19511,-0.19545 -0.39057,-0.19545 z"
     fill="#111111"
     id="path54"
     style="stroke-width:3.423" />
  <path
     fill-rule="evenodd"
     clip-rule="evenodd"
     d="m 137.90137,107.5801 c 0.97659,0.39125 0.39057,0.78215 0.58602,0.97795 0.19545,0 0.19545,0 0.19545,-0.1958 0.19512,-0.3909 0.19512,-0.78215 0.39057,-0.97795 0.19511,-0.19545 0.19511,-0.5867 0.39056,-0.97795 0,0 0.19546,-0.19545 0,-0.39125 -0.39056,-0.19545 -0.39056,0.7825 -1.17203,0.58705 l -4.49235,-1.565 c -0.97658,-0.39125 -0.39056,-0.7825 -0.78147,-0.97795 h -0.19511 c 0,0.19545 -0.19545,0.5867 -0.19545,0.97795 -0.19546,0.5867 -0.39057,0.97795 -0.39057,1.17375 0,0.19545 0,0.19545 0,0.39125 0.39057,0.19545 0.19511,-0.9783 1.36715,-0.58705 z"
     fill="#111111"
     id="path55"
     style="stroke-width:3.423" />
  <path
     fill-rule="evenodd"
     clip-rule="evenodd"
     d="m 135.16674,107.5801 c -1.95316,-0.7825 -3.51576,0 -4.10178,1.56465 -0.97658,2.54295 1.17203,3.91215 2.53918,4.3034 1.95316,0.78215 3.71122,0 4.29723,-1.565 0.39057,-1.9559 -0.78147,-3.71635 -2.73463,-4.30305 z m 2.14862,3.9118 c -0.39057,0.97795 -1.75806,1.565 -3.90633,0.7825 -1.56294,-0.5867 -2.73464,-1.56465 -2.14862,-2.93385 0.58568,-1.3692 2.73429,-1.17375 4.10178,-0.7825 1.36715,0.5867 2.53918,1.56465 1.95317,2.93385 z"
     fill="#111111"
     id="path56"
     style="stroke-width:3.423" />
  <path
     d="m 61.52843,129.68275 c -0.19546,-0.7825 -0.39091,-1.3692 -0.97693,-2.34715 -0.97658,-1.56465 -1.36715,-2.1517 -2.92974,-4.1076 -0.19546,-0.19545 -0.19546,-0.1958 -0.39057,-0.39125 l 1.5626,-1.76045 0.19511,-0.19545 0.39091,-0.1958 v -0.19545 l -0.78147,-1.3692 c -0.97658,-1.56465 -1.75806,-2.7384 -2.73464,-4.6943 -1.36714,-2.9342 -1.95316,-4.69465 -2.73463,-7.8243 l -0.97658,0.1958 -2.73464,0.7825 C 45.31607,97.017404 44.14403,87.824253 45.90209,79.4136 l 5.85983,2.542947 0.78113,0.390906 0.19545,-0.782155 2.73464,-10.366898 0.19545,-0.391249 h -0.19545 l -0.39057,-0.391249 -2.53952,-1.3692 1.17204,-4.890098 0.39056,-0.390906 -0.58568,-0.391249 -11.3291,-7.237249 -0.39056,0.586702 -0.58602,-0.391249 C 34.96355,65.134898 31.44779,75.892702 31.25247,87.042098 30.8618,98.5824 33.98704,109.536 40.23737,118.9246 l 0.3909,0.58705 0.58602,-0.39125 3.51576,-2.1517 c 0.19546,0.5867 0.78147,1.565 1.17204,2.1517 0.19511,0.39125 0.39056,0.5867 0.58602,0.97795 l -3.32066,2.1517 0.39057,0.5867 H 42.972 l 0.39091,0.5867 c 2.14861,3.7167 7.42243,12.71405 12.69625,10.9536 1.5626,-0.5867 2.53918,-1.3692 3.51576,-2.15135 0.58602,-0.58705 1.17203,-0.97795 1.95351,-1.565 l 0.39056,-0.19545 -0.19545,-0.5867 z m -5.07871,-8.0194 c -0.78113,-0.9783 -1.5626,-2.1517 -2.14862,-3.32545 l 3.1252,2.1517 z m -5.07836,-13.3011 -0.58602,2.34715 c -0.19545,-0.5867 -0.58602,-1.1734 -0.78147,-1.7601 z M 51.76192,80.391551 46.29265,78.0444 c 0,-0.391249 0.19546,-0.782498 0.39057,-1.173747 l 3.32065,0.391249 h 0.39056 l 0.19546,-0.195453 2.93008,-3.716351 z m -4.6878,-4.694302 c 1.1717,-3.129649 2.53918,-6.259298 4.6878,-9.193151 l -2.14862,9.388604 z m 6.83642,-4.498849 -2.53918,3.129649 0.78113,-3.912147 z M 40.82338,117.35995 C 34.96355,108.36225 32.03377,97.799902 32.42444,86.846302 32.61975,76.283951 36.13558,65.917053 41.80031,57.5064 l 10.15672,6.454751 C 41.80031,76.870653 41.21429,92.518898 49.80876,111.88315 Z m 4.88325,-1.3692 5.27382,-3.3251 0.39091,-0.39125 0.78113,-3.3251 c 0.58601,1.9559 1.17203,3.52055 2.14861,5.86805 0.58602,1.3692 1.17204,2.34715 1.95317,3.52055 l -3.71122,-2.5426 h 0.19545 l -0.58601,0.39125 -4.6878,3.1293 c -0.19546,-0.3909 -0.39057,-0.5867 -0.58602,-0.97795 -0.39056,-0.7825 -0.97658,-1.9559 -1.17204,-2.34715 z m 12.89171,15.257 c -0.97658,0.78215 -1.75806,1.3692 -3.1252,1.9559 -4.29724,1.3692 -9.37594,-7.0418 -11.32911,-10.3669 l 8.00846,-5.28135 c 1.17203,2.1517 2.93008,4.69465 4.29723,6.4551 1.5626,1.9559 1.95316,2.5426 2.93009,3.9118 0.58567,0.7825 0.58567,1.17375 0.97658,1.95625 -0.58602,0.5867 -1.17204,0.97795 -1.75805,1.3692 z m 87.70205,-44.401448 c -0.19511,-10.9536 -3.90633,-21.9072 -9.96162,-30.709102 l -0.58601,0.391249 -0.39057,-0.587045 -11.3291,7.237249 -0.58602,0.391249 0.39091,0.391249 1.17169,4.890098 -2.73463,1.564653 -0.58568,0.195796 h -0.19545 l 0.19545,0.390906 2.73429,10.366898 0.19546,0.782498 0.58601,-0.391249 5.85984,-2.542947 c 1.75805,8.410996 0.78113,17.604147 -3.32065,28.166496 l -2.53919,-0.5867 -0.97658,-0.1958 c -0.78147,2.9342 -1.36749,4.69465 -2.73463,7.8243 -0.97658,1.9559 -1.75806,3.12965 -2.73464,4.6943 l -0.78113,1.3692 0.58568,0.5867 1.5626,1.76045 c 0,0.19545 -0.19511,0.1958 -0.19511,0.39125 -1.36749,1.56465 -1.5626,1.9559 -2.53918,2.93385 l -0.78147,0.7825 c -1.17204,0.7825 -1.75806,1.9559 -1.75806,2.9342 0,0.5867 0.39091,0.97795 0.97693,1.1734 1.36714,0.5867 1.75771,0.5867 1.95316,0.7825 0.19545,0 0.39057,0 0.58602,0.19545 l 1.36714,0.1958 c 2.14862,0.39125 2.34408,0.39125 5.07871,-0.39125 4.88325,-1.565 7.813,-7.82395 7.813,-8.2152 l -0.58602,-0.1958 0.39056,-0.5867 -2.34372,-1.3692 c 0.39056,-0.5867 1.17203,-1.76045 1.5626,-2.54295 0.39056,-0.78215 0.97658,-1.7601 1.17203,-2.15135 l 3.51576,2.15135 0.58602,0.39125 0.39057,-0.5867 c 6.05528,-9.38895 9.18048,-20.342203 8.98503,-31.882848 z m -21.09527,-16.4304 0.78113,3.912147 -2.34373,-2.934196 z m 0.39057,-3.911804 c 1.9535,2.933853 3.5161,6.063502 4.6878,9.193151 l -2.53918,0.391249 z m 0,13.887453 -1.75771,-6.846 2.92974,3.716351 0.19546,0.195796 h 0.39056 l 3.32065,-0.391249 c 0.19511,0.391249 0.19511,0.782155 0.39057,1.173404 z m 1.75805,28.361949 c -0.19545,0.5867 -0.58602,1.17375 -0.78147,1.76045 l -0.58602,-2.1517 z m -7.42243,12.12735 2.34373,-1.3692 c -0.58568,0.97795 -0.97659,1.56465 -1.5626,2.34715 z m 11.3291,2.7384 c -0.78147,1.56465 -3.32065,5.86805 -6.83676,6.846 -2.34372,0.78215 -2.53918,0.7825 -4.49234,0.39125 l -1.17204,-0.1958 c -0.39056,-0.19545 -0.58601,-0.19545 -0.58601,-0.19545 -0.19512,0 -0.58602,-0.1958 -1.75806,-0.5867 -0.19511,0 -0.19511,-0.1958 -0.19511,-0.1958 0,-0.39125 0.39057,-1.1734 1.17204,-1.76045 l 0.78113,-0.78215 c 0.97658,-0.9783 1.36748,-1.3692 2.73463,-2.9342 1.17204,-1.56465 2.14862,-2.5426 3.32065,-4.6943 z m -0.78147,-5.28135 c -0.39056,0.7825 -1.17203,1.76045 -1.5626,2.54295 l -4.6878,-2.9342 -0.58602,-0.39125 -3.32065,1.76045 c 0.78147,-1.3692 1.5626,-2.5426 2.34407,-4.30305 0.97658,-2.34715 1.5626,-3.91215 2.14862,-5.86805 l 0.78113,3.3251 0.58602,0.39125 5.27381,3.32545 c 0,0.19545 -0.39056,1.36885 -0.97658,2.15135 z m 6.05529,-0.97795 -8.98504,-5.4768 c 8.59413,-19.364252 8.00811,-35.012497 -2.14861,-47.921999 L 135.55765,57.5064 c 5.85983,8.410653 9.18014,18.777551 9.37559,29.339902 0.39057,11.149396 -2.53918,21.515948 -8.39901,30.513648 z"
     fill="#111111"
     id="path57"
     style="stroke-width:3.423" />
  <path
     fill-rule="evenodd"
     clip-rule="evenodd"
     d="m 92.5853,53.790049 c 0,-1.3692 -1.5626,-2.151698 -3.71121,-2.151698 -2.14862,0 -3.71122,0.782498 -3.90633,2.151698 0,1.3692 1.5626,2.151698 3.71122,2.151698 2.14861,-0.195796 3.90632,-0.782498 3.90632,-2.151698 z"
     fill="#111111"
     id="path58"
     style="stroke-width:3.423" />
  <path
     fill-rule="evenodd"
     clip-rule="evenodd"
     d="m 68.55995,55.550498 c -0.19511,-1.3692 1.36749,-2.347151 3.32065,-2.7384 1.95317,-0.391249 3.90667,0.195453 4.10178,1.564653 0.19546,1.3692 -1.17169,2.347151 -3.32031,2.7384 -2.14861,0.195796 -3.90667,-0.195453 -4.10212,-1.564653 z"
     fill="#111111"
     id="path59"
     style="stroke-width:3.423" />
  <path
     fill-rule="evenodd"
     clip-rule="evenodd"
     d="m 44.5346,108.1668 c 0.97692,-0.5867 0.97692,0.5867 1.36749,0.39125 0.19511,0 0.19511,-0.1958 0,-0.39125 -0.19546,-0.39125 -0.39057,-0.5867 -0.58602,-0.97795 -0.19545,-0.5867 -0.39056,-0.7825 -0.58602,-1.17375 -0.19545,-0.19545 -0.19545,-0.39125 -0.39056,-0.19545 -0.19546,0.19545 0.58602,0.97795 -0.58602,1.56465 l -3.90667,1.95625 c -0.39056,0.19545 -0.58602,0.19545 -0.58602,-0.1958 l -0.39056,-0.5867 c -0.39057,-0.7825 0.58602,-1.17375 0.39056,-1.3692 -0.19511,-0.1958 -0.39056,0 -0.58601,0.19545 l -0.19512,0.1958 -0.19545,0.19545 c 0.39057,0.7825 0.58602,1.17375 1.17204,2.34715 0.58601,1.17375 0.78113,1.565 1.17203,2.34715 0,0.1958 0.19511,0 0.19511,0 l 1.17204,-0.3909 c 0.19545,0 0.39056,0 0.19545,-0.1958 -0.19545,-0.39125 -1.17203,0.39125 -1.5626,-0.39125 l -0.3909,-0.5867 c -0.19512,-0.39125 -0.19512,-0.39125 0.19545,-0.5867 z"
     fill="#111111"
     id="path60"
     style="stroke-width:3.423" />
  <path
     fill-rule="evenodd"
     clip-rule="evenodd"
     d="m 37.89364,103.66795 c -0.58602,0.1958 -0.58602,0.1958 -0.97658,-0.7825 -0.39091,-1.56465 0.78112,-1.1734 0.58601,-1.56465 0,-0.19545 -0.3909,0 -0.3909,0 l -0.97659,0.19545 -0.19511,0.1958 c 0.19511,0.7825 0.39057,1.3692 0.58568,1.9559 0.39091,1.17375 0.58602,1.9559 0.58602,2.1517 0,0.19545 0.19545,0.19545 0.19545,0.19545 0.39056,-0.19545 -0.19545,-0.97795 0.58602,-1.1734 l 4.29723,-1.17375 c 1.17204,-0.39125 0.78113,0.39125 1.17204,0.39125 0,0 0,0 0,-0.19545 -0.19546,-0.39125 -0.19546,-0.7825 -0.39091,-0.9783 -0.19511,-0.3909 -0.19511,-0.97795 -0.58602,-2.15135 -0.19511,-0.58705 -1.17169,-0.977953 -1.75771,-0.7825 -0.19545,0 -0.19545,0.19545 -0.19545,0.19545 0,0.39125 1.17203,-0.19545 1.75805,1.95625 0.19511,0.5867 -0.19545,0.5867 -0.78147,0.78215 l -1.17203,0.39125 c -0.58568,0.1958 -0.58568,0.1958 -0.78113,-0.19545 l -0.19546,-0.5867 c -0.19511,-0.7825 0.78147,-0.9783 0.78147,-1.17375 0,-0.19545 -0.39056,0 -0.58601,0 l -1.5626,0.5867 c -0.19546,0 -0.19546,0.1958 -0.19546,0.1958 0,0.19545 0.97659,0 1.17204,0.5867 l 0.19545,0.5867 c 0.19511,0.39125 0,0.39125 -0.3909,0.58705 z"
     fill="#111111"
     id="path61"
     style="stroke-width:3.423" />
  <path
     fill-rule="evenodd"
     clip-rule="evenodd"
     d="m 37.69818,98.973649 c 0.97659,-0.195796 1.75806,-0.977951 1.5626,-1.955902 -0.19511,-0.782498 -0.97658,-1.564996 -1.17169,-1.3692 -0.19545,0 -0.19545,0 -0.19545,0.195453 0,0.195453 0.58601,0.391249 0.58601,0.977951 0.19512,0.782498 -0.78147,1.3692 -1.75805,1.564996 -0.58602,0 -1.36714,0 -1.36714,-0.587045 0,-0.391249 0.19511,-0.586702 0.58601,-0.782155 0,0 0.19511,0 0.19511,-0.195796 0,-0.195453 -0.58601,-0.586702 -0.58601,-0.586702 -0.58602,0 -0.58602,0.977951 -0.58602,1.173404 0.39091,1.173747 1.5626,1.760449 2.73463,1.564996 z"
     fill="#111111"
     id="path62"
     style="stroke-width:3.423" />
  <path
     fill-rule="evenodd"
     clip-rule="evenodd"
     d="m 35.74502,88.215502 c -0.97658,0 -0.58602,-0.586702 -0.97658,-0.586702 0,0 -0.19546,0 -0.19546,0.195453 0,0.391249 0,0.782498 0,1.173747 0,0.586702 0,0.782498 0,1.173747 0,0.195453 0,0.195453 0.19546,0.195453 0.19511,0 0,-0.977951 0.97658,-0.977951 h 1.36715 c 0.19545,0 0.3909,0 0.3909,0.195453 v 2.542947 c 0,0.195453 -0.19545,0.195453 -0.3909,0.195453 h -1.5626 c -0.78113,0 -0.58602,-0.586702 -0.78113,-0.586702 0,0 -0.19546,0 -0.19546,0.195453 0,0.195796 0,0.587045 0,1.173747 0,0.391249 0,0.782498 0,0.977951 0,0.195796 0,0.391249 0.19546,0.391249 0.39056,0 0,-0.977951 0.97658,-0.977951 h 4.29723 c 1.17204,0 0.78113,0.782498 1.17204,0.782498 0.19511,0 0.19511,0 0.19511,-0.195796 0,-0.391249 0,-0.782155 0,-1.173404 0,-0.587045 0,-0.977951 0,-1.173747 0,-0.195453 0,-0.195453 -0.19511,-0.195453 -0.39091,0 0,0.977951 -1.17204,0.977951 h -1.5626 c -0.3909,0 -0.58601,0 -0.58601,-0.391249 v -2.347151 c 0,-0.391249 0.19511,-0.391249 0.58601,-0.391249 h 1.75772 c 0.97692,0 0.58601,0.586702 0.97692,0.586702 0,0 0.19511,0 0.19511,-0.195453 0,-0.391249 0,-0.782498 0,-1.173747 0,-0.391249 0,-0.782498 0,-1.173404 0,-0.195796 0,-0.195796 -0.19511,-0.195796 -0.39091,0 0,0.977951 -1.17204,0.977951 z"
     fill="#111111"
     id="path63"
     style="stroke-width:3.423" />
  <path
     fill-rule="evenodd"
     clip-rule="evenodd"
     d="m 40.23737,85.672898 c 0.97692,0.195453 0.78147,0.977951 1.17203,0.977951 0.19545,0 0.19545,-0.195796 0.19545,-0.195796 0,-0.195453 0,-0.391249 0,-0.782155 0,-0.391249 0,-0.587045 0.19546,-0.978294 0,-0.195453 0,-0.390906 0,-0.390906 -0.39091,0 0,1.173404 -1.75806,0.977951 L 36.7216,84.8904 h -0.19545 c 0,0 0,0 0.19545,-0.195796 l 5.27382,-3.520555 0.19545,-0.195796 c 0,-0.195453 0,-0.195453 -0.19545,-0.195453 L 36.52615,80.196098 C 35.54957,80.000302 35.74502,79.4136 35.54957,79.4136 c 0,0 -0.19511,0 -0.19511,0.195453 0,0 0,0.391249 0,0.978294 0,0.586702 -0.19546,0.782155 -0.19546,0.977951 0,0.195453 0,0.195453 0.19546,0.195453 0.39056,0 0.19511,-0.977951 1.17169,-0.977951 l 3.12554,0.391249 c 0.19511,0 0.39056,0 0.39056,0.195453 l -0.19545,0.195796 -4.6878,2.7384 c -0.19545,0.195453 -0.19545,0 -0.19545,0.195453 0,0.391249 0,0.782498 0,0.977951 0,0.195796 0,0.391249 0,0.391249 0,0.195453 0,0.195453 0.19545,0.195453 0.39057,0 0,-0.977951 1.75806,-0.782155 z"
     fill="#111111"
     id="path64"
     style="stroke-width:3.423" />
  <path
     fill-rule="evenodd"
     clip-rule="evenodd"
     d="m 37.11217,75.892702 c -0.97659,-0.195453 -0.39057,-0.782155 -0.78113,-0.782155 -0.19546,0 -0.19546,0 -0.19546,0.195453 -0.19545,0.391249 -0.19545,0.782498 -0.19545,1.173747 0,0.390906 -0.19511,0.586702 -0.19511,0.977951 0,0 0,0.195453 0,0.391249 0.39056,0 0.19511,-0.978294 1.17204,-0.782498 L 41.4094,78.0444 c 0.97658,0.195453 0.58602,0.782498 0.78147,0.782498 h 0.19511 c 0,-0.195796 0,-0.587045 0.19546,-0.977951 0.19545,-0.587045 0.19545,-0.978294 0.39056,-1.3692 0,-0.195796 0,-0.195796 0,-0.391249 -0.39056,0 0,0.977951 -1.17204,0.782155 z"
     fill="#111111"
     id="path65"
     style="stroke-width:3.423" />
  <path
     fill-rule="evenodd"
     clip-rule="evenodd"
     d="m 39.06567,67.873298 c 0,0 0,0.195453 0,0 -0.19545,0.195453 0.19511,0.391249 0.19511,0.391249 0,0.195453 -0.78113,0.586702 -1.17169,1.564653 -0.78147,1.955902 0.78113,3.520898 2.34373,4.1076 0.78147,0.195796 3.1252,0.782498 4.10178,-1.564653 0.58602,-1.760449 -0.39057,-3.129649 -0.78113,-3.129649 h -0.19545 c 0,0.195453 0.78147,1.173404 0.39056,2.347151 -0.58567,1.564653 -2.53918,1.564653 -3.90633,0.977951 -1.17203,-0.391249 -2.14861,-1.564653 -1.75805,-2.7384 0.39057,-0.977951 1.36749,-1.3692 2.34407,-1.3692 0.19511,0 0.39057,0 0.39057,-0.195453 0,-0.195796 -0.19546,-0.195796 -0.19546,-0.195796 z"
     fill="#111111"
     id="path66"
     style="stroke-width:3.423" />
  <path
     fill-rule="evenodd"
     clip-rule="evenodd"
     d="m 60.16094,151.78575 c 0,-0.58705 0,-0.7825 -0.19546,-0.7825 -0.19511,-0.1958 -0.39056,0.19545 -0.78113,0.39125 l -10.35252,8.60645 c -0.97658,0.78215 -1.75771,0.19545 -1.95316,0.5867 -0.19545,0.19545 0.19545,0.39125 0.39056,0.39125 0.58602,0.19545 0.97659,0.39125 1.5626,0.78215 0.58602,0.1958 0.97693,0.58705 1.5626,0.9783 0.39091,0.19545 0.78147,0.5867 0.97693,0.19545 0.19511,-0.5867 -1.75806,-1.17375 -1.17204,-2.54295 0.19511,-0.3909 0.78113,-0.97795 1.17204,-1.1734 0.97658,-0.97795 1.36714,-0.97795 1.75771,-0.7825 l 3.32065,1.76045 c 0.39056,0.19545 0.39056,0.39125 0.19545,2.1517 0,0.5867 -0.19545,0.97795 -0.3909,1.3692 -0.58568,1.1734 -1.75771,0.19545 -1.95317,0.78215 -0.19545,0.1958 0.19546,0.39125 0.39057,0.58705 0.58601,0.19545 1.17203,0.5867 1.9535,0.97795 1.1717,0.5867 1.5626,0.97795 2.14862,1.1734 0.39056,0.1958 0.58602,0.39125 0.78113,0 0.39056,-0.5867 -0.97658,-0.3909 -0.97658,-1.9559 z m -2.73464,6.6502 c 0,0.1958 0,0.5867 -0.19511,0.7825 -0.19545,0.19545 -0.39091,0 -0.58602,-0.1958 l -2.34407,-1.1734 c -0.39056,-0.1958 -0.58601,-0.1958 -0.39056,-0.39125 0.19511,-0.19545 0.39056,-0.39125 0.58602,-0.5867 l 2.92974,-2.54295 c 0.19546,-0.19545 0.19546,-0.19545 0.39057,-0.19545 0,0 0,0 0,0.19545 z"
     fill="#111111"
     id="path67"
     style="stroke-width:3.423" />
  <path
     fill-rule="evenodd"
     clip-rule="evenodd"
     d="m 142.00315,151.78575 c -0.39056,-0.58705 -0.78112,0.78215 -2.14827,0 l -11.71967,-6.65055 c -0.58602,-0.39125 -0.58602,-0.39125 -0.78147,-0.1958 -0.19545,0.1958 0,0.58705 0,0.7825 l 3.51576,12.90985 c 0.39091,1.1734 -0.58567,1.7601 -0.19511,2.15135 0.19511,0.1958 0.39057,0 0.58602,-0.19545 0.39057,-0.39125 0.78113,-0.7825 1.36715,-1.17375 0.58602,-0.39125 0.97658,-0.5867 1.5626,-0.97795 0.39056,-0.19545 0.97658,-0.5867 0.58601,-0.7825 -0.39056,-0.3909 -1.75805,1.17375 -2.73463,0 -0.39056,-0.3909 -0.58602,-1.1734 -0.58602,-1.56465 -0.39056,-1.3692 -0.19511,-1.56465 0,-1.9559 l 2.93009,-2.34715 c 0.39056,-0.39125 0.58602,-0.1958 2.14862,0.5867 0.58602,0.39125 0.78113,0.5867 1.17203,0.7825 0.78113,0.97795 -0.3909,1.56465 0,2.15135 0.19511,0.1958 0.39057,0 0.58568,-0.19545 0.3909,-0.39125 0.97692,-0.7825 1.56294,-1.3692 0.97658,-0.7825 1.5626,-0.97795 1.95316,-1.565 0.19511,-0.19545 0.39057,-0.19545 0.19511,-0.3909 z m -8.98503,-0.39125 -2.14862,1.56465 c -0.19511,0.19545 -0.39056,0.39125 -0.58567,0.1958 -0.19545,-0.1958 -0.19545,-0.39125 -0.19545,-0.7825 l -0.97659,-3.71635 c 0,-0.1958 0,-0.39125 0,-0.39125 0,0 0,0 0.19512,0 l 3.5161,1.9559 c 0.19511,0.1958 0.39057,0.1958 0.58602,0.39125 0.19511,0.39125 0,0.39125 -0.39091,0.7825 z"
     fill="#111111"
     id="path68"
     style="stroke-width:3.423" />
  <path
     fill-rule="evenodd"
     clip-rule="evenodd"
     d="m 75.98238,37.750898 -0.39056,-1.956245 c -0.19545,-0.782155 -0.97658,-1.173404 -1.75805,-1.173404 l -1.5626,0.586702 -0.39057,-1.760346 c -0.19545,-0.782395 -0.97658,-1.3692 -1.75805,-1.17361 l -1.95316,0.391215 c -0.78147,0.19559 -1.36715,0.977985 -1.17204,1.760243 l 0.39057,1.760449 -1.5626,0.391249 c -0.78113,0.195796 -1.36715,0.977951 -1.1717,1.760449 l 0.39057,1.955902 c 0.19545,0.782498 0.97658,1.173747 1.75805,1.173747 L 74.81069,39.7068 c 0.78113,-0.391249 1.36715,-1.173747 1.17169,-1.955902 z m -5.07836,2.542604 c -1.17203,0.195796 -2.14862,-0.391249 -2.53918,-1.564653 -0.19545,-1.173747 0.39056,-2.151698 1.5626,-2.542947 1.17169,-0.195453 2.14862,0.391249 2.53918,1.564996 0.19545,1.173404 -0.39056,2.151355 -1.5626,2.542604 z"
     fill="#111111"
     id="path69"
     style="stroke-width:3.423" />
  <path
     fill-rule="evenodd"
     clip-rule="evenodd"
     d="m 92.78076,32.8608 h -1.5626 v -1.760415 c 0,-0.782395 -0.58602,-1.3692 -1.36749,-1.3692 h -1.95316 c -0.78148,0 -1.36715,0.586805 -1.36715,1.3692 V 32.8608 h -1.75805 c -0.78147,0 -1.36749,0.586805 -1.36749,1.3692 v 1.955902 c 0,0.782498 0.58602,1.3692 1.36749,1.3692 h 8.20356 c 0.78147,0 1.36749,-0.586702 1.36749,-1.3692 V 34.23 c -0.19546,-0.782395 -0.78147,-1.3692 -1.5626,-1.3692 z m -4.10178,4.694302 c -1.17204,0 -2.14862,-0.977951 -2.14862,-2.151355 0,-1.173747 0.97658,-2.151732 2.14862,-2.151732 1.17169,0 2.14827,0.977985 2.14827,2.151732 -0.19511,1.173404 -0.97658,2.151355 -2.14827,2.151355 z"
     fill="#111111"
     id="path70"
     style="stroke-width:3.423" />
  <path
     fill-rule="evenodd"
     clip-rule="evenodd"
     d="m 111.53229,36.577151 -1.5626,-0.391249 0.39057,-1.760449 c 0.19511,-0.782258 -0.39057,-1.564653 -1.17204,-1.760243 l -1.95316,-0.391215 c -0.78147,-0.19559 -1.5626,0.391215 -1.75805,1.17361 l -0.39057,1.760346 -1.5626,-0.391249 c -0.78147,-0.195453 -1.5626,0.391249 -1.75805,1.173747 l -0.39056,1.955902 c -0.19546,0.782498 0.39056,1.564996 1.17169,1.760449 l 8.00845,1.760449 c 0.78147,0.195453 1.56294,-0.391249 1.75805,-1.173747 l 0.39057,-1.955902 c 0,-0.977951 -0.39057,-1.564653 -1.1717,-1.760449 z m -2.53952,2.151698 c -0.19511,1.173404 -1.36715,1.760449 -2.53918,1.564653 -1.17204,-0.195453 -1.75805,-1.3692 -1.5626,-2.542604 0.19545,-1.173747 1.36749,-1.760449 2.53918,-1.564996 0.97658,0.195796 1.75805,1.3692 1.5626,2.542947 z"
     fill="#111111"
     id="path71"
     style="stroke-width:3.423" />
  <path
     fill-rule="evenodd"
     clip-rule="evenodd"
     d="m 125.20512,40.098049 c -0.58601,-0.391249 -1.5626,-0.195796 -1.95316,0.586702 l -0.97692,1.564996 -1.36715,-0.782498 c -0.58602,-0.391249 -1.5626,-0.195796 -1.95316,0.586702 l -0.97659,1.760449 c -0.3909,0.586702 -0.19545,1.564653 0.58568,1.955902 l 3.12554,1.956245 c 0.58568,0.390906 1.5626,0.195453 1.95316,-0.587045 l 0.97659,-1.564653 c 0.39056,-0.782498 0.78147,-1.3692 0.78147,-1.3692 l 1.5626,-2.7384 z m -3.32065,6.846 c -0.97658,-0.586702 -1.36714,-1.760449 -0.78113,-2.7384 0.58602,-0.977951 1.75771,-1.3692 2.73464,-0.782498 z"
     fill="#111111"
     id="path72"
     style="stroke-width:3.423" />
  <path
     fill-rule="evenodd"
     clip-rule="evenodd"
     d="M 59.57492,43.423151 58.59834,41.662702 C 58.20777,41.076 57.23119,40.684751 56.64517,41.076 L 55.27768,41.858498 54.3011,40.293502 C 53.91054,39.7068 52.93396,39.315551 52.34794,39.7068 l -1.75805,1.3692 1.5626,2.7384 c 0,0 0.39056,0.586702 0.78147,1.3692 l 0.97658,1.564996 c 0.39056,0.586702 1.36714,0.977951 1.95316,0.586702 l 3.1252,-1.955902 c 0.78147,-0.391249 0.97658,-1.3692 0.58602,-1.956245 z m -3.90667,3.520898 -2.14862,-3.520898 c 0.97693,-0.586702 2.14862,-0.195453 2.73464,0.782498 0.58601,0.977951 0.3909,2.151698 -0.58602,2.7384 z"
     fill="#111111"
     id="path73"
     style="stroke-width:3.423" />
  <path
     fill-rule="evenodd"
     clip-rule="evenodd"
     d="m 41.80031,38.924302 c -0.19546,-0.195453 -0.19546,-0.195453 -0.39091,0 -0.19511,0.195796 -0.19511,0.391249 -0.19511,0.391249 0,0.195796 -0.19545,0.391249 -0.58602,0.195796 -2.73463,-0.782498 -5.85983,-1.760449 -5.85983,-1.760449 -0.19546,-0.195796 0,-0.587045 0,-1.3692 0,-0.587045 -0.39091,-1.564996 -1.36739,-2.347322 -0.7813,-0.586805 -3.12523,-2.347186 -5.46916,0.391077 -0.78134,0.782498 -1.36732,1.760449 -2.14862,2.542947 -0.58599,0.782498 -0.7813,0.782498 -1.36728,1.3692 -0.19536,0.195453 -0.19536,0.391249 0,0.391249 0.58598,0.391249 1.17196,-1.3692 2.92991,0.195453 l 6.83645,5.868049 c 1.95323,1.760449 0.58609,2.151698 0.97665,2.7384 0.39057,0.195796 0.39057,0 0.58602,-0.195453 0.58602,-0.587045 0.97658,-1.3692 1.5626,-1.956245 0.39056,-0.586702 0.78113,-0.782155 0.97658,-0.977951 0.19545,-0.195453 0.19545,-0.391249 0.19545,-0.586702 -0.58601,-0.586702 -0.97658,1.3692 -2.53918,-0.195453 L 33.20574,41.662702 C 32.61975,41.271453 32.4244,41.076 33.01039,40.489298 33.59637,39.902253 33.79172,39.7068 34.76844,40.098049 l 3.32031,1.173404 c 1.17203,0.391249 2.53952,0.782498 3.32065,-0.195453 0.58602,-0.586702 0.97658,-1.564653 0.39091,-2.151698 z M 32.61975,39.7068 c -0.39066,0.391249 -0.78133,0.782498 -1.17196,0.586702 l -3.12527,-2.7384 c -0.97662,-0.782155 -0.58599,-1.173404 -0.19532,-1.564653 1.17197,-1.173747 2.7346,-0.977951 4.2972,0.391249 0.97665,0.586702 1.75795,1.3692 0.19535,3.325102 z"
     fill="#111111"
     id="path74"
     style="stroke-width:3.423" />
  <path
     fill-rule="evenodd"
     clip-rule="evenodd"
     d="M 74.41979,22.689595 C 74.22467,22.10279 73.63866,23.080776 72.66207,21.9072 L 64.65362,11.34478 c -0.3909,-0.586804 -0.3909,-0.586804 -0.58601,-0.586804 -0.19546,0 -0.19546,0.391214 -0.19546,0.782395 L 63.48159,24.6456 c 0,1.173576 -0.78147,1.3692 -0.78147,1.76038 0,0.195591 0.3909,0.195591 0.58602,0 0.39056,-0.19559 0.97658,-0.39118 1.36748,-0.586804 0.58568,-0.195591 0.97659,-0.195591 1.5626,-0.391181 0.39057,-0.195624 0.78113,-0.195624 0.78113,-0.586805 -0.19511,-0.586805 -1.75805,0.391181 -2.14861,-0.978019 -0.39057,-0.195591 -0.39057,-0.977986 -0.39057,-1.3692 0,-1.3692 0.19545,-1.564791 0.58602,-1.760381 l 3.1252,-0.978019 c 0.39056,-0.195591 0.58601,0 1.5626,1.3692 0.39056,0.391214 0.58601,0.782429 0.78147,1.173609 0.39056,1.17361 -0.78147,1.3692 -0.58602,1.956005 0,0.195591 0.19511,0.195591 0.58602,0 0.39056,-0.19559 0.97658,-0.39118 1.75771,-0.586805 0.97658,-0.39118 1.5626,-0.39118 1.9535,-0.586804 0.19512,0 0.39057,0 0.19512,-0.391181 z m -7.22698,-3.716419 -2.14862,0.586804 c -0.19545,0 -0.58602,0.195591 -0.58602,0 0,-0.19559 0,-0.586804 0,-0.782395 v -3.912009 c 0,-0.195591 0,-0.195591 0,-0.391181 0,0 0,0 0.19545,0.19559 l 2.34373,3.129615 c 0.19546,0.19559 0.39057,0.39118 0.39057,0.586771 0.3909,0.391214 0.19545,0.391214 -0.19511,0.586805 z"
     fill="#111111"
     id="path75"
     style="stroke-width:3.423" />
  <path
     fill-rule="evenodd"
     clip-rule="evenodd"
     d="m 170.52119,85.281649 c 0,-0.195796 -0.39056,-0.195796 -0.78147,-0.391249 l -12.69625,-3.129649 c -1.17203,-0.391249 -1.17203,-1.173404 -1.5626,-1.173404 -0.19545,0 -0.19545,0.195453 -0.19545,0.586702 0,0.391249 0.19545,0.977951 0.19545,1.3692 0,0.586702 0,0.977951 0,1.564653 0,0.391249 0,0.782498 0.39057,0.782498 0.58602,0 0,-1.760449 1.5626,-1.955902 0.39091,0 1.17203,0.195453 1.5626,0.195453 1.36749,0.195796 1.56294,0.586702 1.56294,0.782498 l 0.39056,3.129649 c 0,0.391249 -0.19545,0.586702 -1.75805,1.173404 -0.58602,0.195796 -0.97658,0.391249 -1.36714,0.391249 -1.17204,0.195796 -1.17204,-0.977951 -1.75806,-0.977951 -0.39056,0 -0.19545,0.195453 -0.19545,0.586702 0,0.391249 0.19545,0.977951 0.19545,1.760449 0.19546,1.173747 0,1.564996 0.19546,2.151698 0,0.391249 0,0.586702 0.39056,0.586702 0.58602,0 -0.19545,-0.782498 1.17204,-1.564653 l 12.11023,-5.672596 c 0.58601,0 0.58601,-0.195453 0.58601,-0.195453 z m -4.10178,-0.195796 -3.5161,1.760449 c -0.19511,0.195796 -0.39057,0.195796 -0.78113,0.195796 -0.19545,0 -0.19545,-0.195796 -0.19545,-0.587045 l -0.19546,-2.151355 c 0,-0.391249 0,-0.587045 0.19546,-0.587045 0.19545,0 0.58601,0 0.78147,0.195796 l 3.71121,0.977951 c 0.19511,0 0.19511,0 0,0.195453 0.19511,0 0.19511,0 0,0 z"
     fill="#111111"
     id="path76"
     style="stroke-width:3.423" />
  <path
     fill-rule="evenodd"
     clip-rule="evenodd"
     d="m 141.02657,73.741347 c -0.58601,-1.956245 -2.53918,-2.542947 -4.6878,-1.760449 -1.95316,0.586702 -2.93008,2.151355 -2.34407,3.716351 0.78147,2.542604 3.32066,2.347151 4.68814,1.955902 2.14862,-0.586702 2.92975,-2.347151 2.34373,-3.911804 z m -2.92974,3.129306 c -1.5626,0.587045 -2.93009,0.391249 -3.51611,-0.977951 -0.58602,-1.3692 1.36749,-2.542604 2.73464,-3.129649 1.36748,-0.391249 2.73463,-0.391249 3.32065,0.978294 0.39056,0.977951 -0.39057,2.347151 -2.53918,3.129306 z"
     fill="#111111"
     id="path77"
     style="stroke-width:3.423" />
  <path
     fill-rule="evenodd"
     clip-rule="evenodd"
     d="m 138.29194,67.286253 c -0.19511,-0.586702 -0.58568,-0.977951 -0.78113,-1.564653 -0.19545,-0.586702 -0.19545,-0.586702 -0.39056,-0.977951 0,-0.195796 -0.19546,-0.195796 -0.19546,-0.195796 -0.39056,0.195796 0.39057,0.782498 -0.58602,1.3692 l -4.10178,1.956245 c -1.17203,0.586702 -1.17203,-0.195796 -1.36749,0 -0.19511,0 0,0.195453 0,0.391249 0.19546,0.390906 0.39091,0.782155 0.58602,1.173404 0.19546,0.391249 0.19546,0.586702 0.19546,0.586702 0,0.195796 0.19545,0.195796 0.19545,0.195796 0.39056,-0.195453 -0.39091,-0.782498 0.58567,-1.173747 l 1.5626,-0.782155 c 0.39091,-0.195796 0.39091,-0.195796 0.58602,0.195453 0.19545,0.391249 0.19545,0.586702 -0.19511,0.977951 l -1.17203,1.3692 c -0.39057,0.391249 -0.78148,0.977951 -0.58602,1.564996 0.19545,0.391249 0.58602,0.782155 0.78147,0.586702 0,0 0.19511,-0.195453 0,-0.195453 L 133.21358,72.5676 c 0,0 -0.19546,-0.195453 0,-0.391249 0.97658,-1.173404 1.95316,-2.347151 1.95316,-2.347151 0,0 0.19545,0.195453 0.58602,0.195453 0.39056,0.195796 0.78147,0.195796 1.36749,0 0.78112,-0.195453 1.95316,-0.977951 1.17169,-2.7384 z m -1.5626,1.956245 c -0.58602,0.195453 -0.97658,0.391249 -1.5626,-0.782498 -0.19511,-0.195453 -0.19511,-0.586702 0,-0.586702 l 1.75805,-0.782498 c 0.58602,-0.195453 0.58602,0 0.78147,0.195453 0.39057,0.782498 0,1.564996 -0.97692,1.956245 z"
     fill="#111111"
     id="path78"
     style="stroke-width:3.423" />
  <path
     fill-rule="evenodd"
     clip-rule="evenodd"
     d="m 143.17519,85.672898 c -0.39056,0 0,0.977951 -1.17204,0.782155 l -4.49234,-0.391249 c -1.17204,-0.195453 -0.78147,-0.782155 -1.17204,-0.782155 -0.19545,0 -0.19545,0.195453 -0.19545,0.195453 0,0.391249 0,0.782498 0,1.3692 0,0.391249 -0.19511,0.586702 -0.19511,0.782498 0,0.195453 0,0.195453 0.19511,0.195453 0.39091,0 0,-0.782155 1.17204,-0.782155 l 1.75805,0.195453 c 0.39056,0 0.39056,0 0.39056,0.391249 0,0.391249 -0.19511,0.586702 -0.58601,0.782498 L 137.12025,88.998 c -0.58602,0.195453 -1.36749,0.391249 -1.36749,1.173404 0,0.391249 0.19545,0.978294 0.39056,0.978294 0,0 0.19545,0 0.19545,-0.195796 v -0.195453 c 0,0 0,-0.195796 0.19546,-0.391249 1.36714,-0.586702 2.92974,-0.977951 2.92974,-0.977951 0.19546,0 0.19546,0.195453 0.39057,0.586702 0.19545,0.195453 0.58602,0.586702 1.17203,0.586702 0.39057,0 1.95351,0 2.14862,-1.760449 0,-0.586702 0,-1.173404 0.19545,-1.760106 -0.19545,-0.782498 -0.19545,-0.782498 -0.19545,-1.3692 z m -0.58602,2.347151 c 0,0.782155 -0.78113,1.173404 -1.95316,1.173404 -0.58602,0 -1.17204,-0.195453 -0.97658,-1.3692 0,-0.195453 0,-0.586702 0.39056,-0.586702 l 1.95316,0.195453 c 0.58602,0.195796 0.58602,0.391249 0.58602,0.587045 z"
     fill="#111111"
     id="path79"
     style="stroke-width:3.423" />
  <path
     fill-rule="evenodd"
     clip-rule="evenodd"
     d="m 48.83183,63.569902 c -0.19511,-0.195453 -0.19511,0.391249 -0.97658,0.391249 l -6.2504,-0.782498 c -0.39056,0 -0.39056,0 -0.39056,0 0,0 0,0.195796 0.19511,0.391249 L 45.31607,68.46 c 0.39056,0.391249 0.19545,0.782498 0.19545,0.977951 0.19511,0 0.19511,0 0.19511,-0.195453 0.19546,-0.195796 0.19546,-0.391249 0.39057,-0.587045 0.19545,-0.195453 0.19545,-0.390906 0.39091,-0.586702 0,-0.195453 0.19511,-0.391249 0,-0.391249 C 46.29265,67.482049 45.90209,68.46 45.31607,68.068751 45.12062,67.873298 44.92551,67.677502 44.73005,67.482049 44.33949,67.0908 44.33949,66.895347 44.33949,66.699551 l 0.78113,-1.564653 c 0.19545,-0.195796 0.19545,-0.195796 0.97658,0 0.19545,0 0.39091,0 0.58602,0.195453 0.58601,0.195796 0.19545,0.782498 0.3909,0.977951 0.19511,0 0.19511,0 0.19511,-0.195453 0.19546,-0.195796 0.19546,-0.586702 0.39057,-0.782498 0.19545,-0.586702 0.3909,-0.586702 0.58602,-0.977951 0.78147,-0.586702 0.78147,-0.586702 0.58601,-0.782498 z m -3.90632,1.3692 -0.58602,0.977951 c 0,0.195796 -0.19546,0.195796 -0.19546,0.195796 -0.19545,0 -0.19545,-0.195796 -0.19545,-0.195796 l -1.17169,-1.3692 c 0,-0.195453 0,-0.195453 0,-0.195453 0,0 0,0 0.19511,0 l 1.75805,0.195453 c 0.19546,0 0.19546,0 0.39057,0 0,0.195796 0,0.195796 -0.19511,0.391249 z"
     fill="#111111"
     id="path80"
     style="stroke-width:3.423" />
  <path
     d="m 117.19667,62.9832 h -0.58601 -58.20778 v 32.078302 c 0,14.278698 0.78147,26.014798 11.71967,36.968398 6.44585,6.45475 10.74309,9.5844 17.97041,14.4745 l 0.39056,0.39125 0.78113,0.5867 0.78147,-0.5867 c 2.14862,-1.76045 4.10178,-3.32545 6.05529,-4.69465 3.90633,-2.7384 7.22698,-5.281 11.52421,-10.36655 10.35218,-12.3228 12.11023,-21.71175 12.11023,-36.772948 V 62.9832 Z m -11.71966,67.28625 c -4.10178,4.8901 -7.22698,7.23725 -10.9382,9.7802 -1.95351,1.3692 -3.12554,2.15135 -5.46927,4.1076 C 82.23313,139.4626 77.93589,136.52875 71.8806,130.26945 61.72354,119.9029 60.94241,109.14475 60.94241,95.061502 V 65.526147 h 56.25426 v 29.535355 c 0,14.865748 -1.75805,23.472198 -11.71966,35.207948 z"
     fill="#111111"
     id="path81"
     style="stroke-width:3.423" />
  <path
     fill-rule="evenodd"
     clip-rule="evenodd"
     d="m 150.79308,31.4916 -0.97659,-1.760415 -0.97658,2.934025 0.58568,1.17361 z"
     fill="#111111"
     id="path82"
     style="stroke-width:3.423" />
  <path
     fill-rule="evenodd"
     clip-rule="evenodd"
     d="m 77.74044,19.755605 c 0.58602,2.347219 -1.5626,1.760415 -1.36715,2.54281 0,0.39118 0.39057,0.391214 0.58602,0.391214 0.58567,-0.195624 1.17169,-0.391214 2.14827,-0.586805 1.17204,-0.195624 1.56295,-0.195624 2.34407,-0.391214 0.39057,-0.19559 0.78148,-0.19559 0.78148,-0.586805 C 82.03767,20.538 80.27962,21.51602 79.6936,19.1688 l -1.95316,-8.997595 c -0.19546,-0.977985 0,-1.173576 0.58602,-1.173576 L 79.6936,8.802005 c 1.75805,-0.391181 1.75805,1.956005 2.34407,1.760415 0.39057,0 0,-0.782396 0,-0.97802 L 81.45165,7.82402 c 0,-0.195591 -0.19545,-0.391215 -0.39056,-0.391215 -1.5626,0.391215 -2.53918,0.586805 -4.88325,1.17361 -2.34407,0.586805 -3.51577,0.586805 -4.88325,0.977985 -0.19511,0 -0.19511,0.391215 -0.19511,0.586805 l 0.39056,2.7384 c 0,0.195624 0,0.782395 0.39056,0.586805 0.78147,-0.19559 -0.39056,-2.7384 1.5626,-3.129581 l 1.36749,-0.391214 c 0.58568,-0.195591 0.78113,0 0.97658,0.977985 z"
     fill="#111111"
     id="path83"
     style="stroke-width:3.423" />
  <path
     fill-rule="evenodd"
     clip-rule="evenodd"
     d="m 56.25427,27.384 c 1.17203,2.151629 -0.97659,2.151629 -0.58602,2.934024 0.19545,0.391181 0.39091,0.195591 0.78147,0.195591 0.58602,-0.391215 0.97658,-0.586805 1.95316,-1.17361 0.97659,-0.586805 1.5626,-0.586805 2.14862,-0.977985 0.39091,-0.195591 0.78147,-0.391215 0.58602,-0.782396 -0.19511,-0.586804 -1.75805,0.977986 -2.92975,-1.173609 l -4.29723,-8.2152 c -0.39057,-0.782395 -0.39057,-0.977986 0.19511,-1.3692 l 1.17203,-0.586805 c 1.5626,-0.977986 2.14862,1.3692 2.73464,0.978019 0.39056,-0.195624 -0.19545,-0.782429 -0.39056,-0.978019 l -0.97659,-1.56479 c -0.19545,-0.195591 -0.19545,-0.391215 -0.3909,-0.391215 -1.36715,0.782395 -2.34373,1.3692 -4.49235,2.347219 -2.14862,1.173576 -3.1252,1.564791 -4.49269,2.151596 -0.19511,0.19559 0,0.39118 0,0.586804 l 0.97659,2.542776 c 0,0.195624 0.19545,0.782429 0.58601,0.586805 0.58602,-0.391181 -0.97658,-2.542776 0.58602,-3.325205 l 1.17204,-0.586771 c 0.58601,-0.391214 0.78147,-0.391214 1.17203,0.586771 z"
     fill="#111111"
     id="path84"
     style="stroke-width:3.423" />
  <path
     fill-rule="evenodd"
     clip-rule="evenodd"
     d="m 80.47507,154.52415 -1.95316,0.19545 2.14827,2.1517 1.36749,-0.1958 z"
     fill="#111111"
     id="path85"
     style="stroke-width:3.423" />
  <path
     d="m 236.1514,15.648005 c 0.78113,0.19559 1.36715,0.19559 2.14862,0.19559 0.58601,0 1.17203,-0.19559 1.5626,-0.19559 -0.39057,5.085585 -0.78147,14.474395 -0.97659,22.298346 -0.19545,9.5844 -5.66472,15.452449 -15.23577,15.452449 -10.54763,0 -15.43088,-4.890098 -15.43088,-15.452449 0,-3.325102 0.19545,-5.867946 0.19545,-8.410756 0,-5.868015 -0.19545,-10.75801 -0.39056,-13.88759 0.78113,0.19559 1.95316,0.19559 2.73429,0.19559 0.78147,0 1.5626,-0.19559 2.34407,-0.19559 -0.39056,3.12958 -0.58602,10.562385 -0.58602,18.386405 0,7.237043 0,16.821443 11.91512,16.821443 11.71967,0 11.71967,-10.9536 11.71967,-17.799463 0.19511,-10.171205 0.19511,-15.25679 0,-17.408385 z"
     fill="#111111"
     id="path86"
     style="stroke-width:3.423" />
  <path
     d="m 283.8112,53.3988 c -8.20356,-9.5844 -17.97007,-19.951229 -27.15055,-29.73122 0,1.956005 -0.19511,5.28121 -0.19511,10.953669 0,4.694302 0.19511,16.039151 0.39056,18.190849 -0.58602,-0.195796 -1.17203,-0.195796 -1.95316,-0.195796 -0.58602,0 -1.36749,0.195796 -1.95351,0.195796 0.39056,-2.542947 1.17204,-16.234947 1.17204,-23.276537 0,-6.846 0,-11.931585 -0.19546,-14.474395 h 0.78147 c 8.78958,9.5844 20.7047,22.493936 27.15055,29.144483 0,-9.5844 0,-20.146888 -0.39056,-28.362054 0.58568,0.19559 1.17169,0.19559 1.75771,0.19559 0.58602,0 1.17204,-0.19559 1.75805,-0.19559 -0.39056,3.129581 -0.78147,13.88759 -0.78147,17.99519 0,5.476766 0.19546,17.408317 0.19546,19.755468 h -0.58602 z"
     fill="#111111"
     id="path87"
     style="stroke-width:3.423" />
  <path
     d="m 299.43754,29.535595 c 0,-4.694405 -0.19546,-9.193185 -0.39057,-13.88759 0.97658,0.19559 1.75771,0.19559 2.53918,0.19559 0.78113,0 1.75806,-0.19559 2.53918,-0.19559 -0.19545,4.694405 -0.39056,9.388775 -0.39056,13.88759 v 9.193254 c 0,4.694302 0.19511,9.193151 0.39056,13.887453 -0.97658,-0.195453 -1.75805,-0.195453 -2.53918,-0.195453 -0.78147,0 -1.75805,0.195453 -2.53918,0.195453 0.19511,-4.694302 0.39057,-9.193151 0.39057,-13.887453 z"
     fill="#111111"
     id="path88"
     style="stroke-width:3.423" />
  <path
     d="m 313.30582,15.648005 c 0.97658,0.19559 1.95316,0.19559 2.73464,0.19559 0.97658,0 1.95316,-0.19559 2.73463,-0.19559 3.1252,9.5844 7.813,20.929146 12.30569,31.687293 3.90632,-8.606449 9.96161,-24.645703 12.1092,-31.687293 0.58533,0.19559 1.3692,0.19559 1.95453,0.19559 0.58534,0 1.36578,-0.19559 1.95454,-0.19559 -5.6661,12.3228 -10.74446,24.645497 -15.43226,37.164093 -0.58601,-0.195796 -1.17203,-0.195796 -1.75805,-0.195796 -0.58602,0 -1.36715,0.195796 -1.75805,0.195796 -2.92975,-8.997698 -9.57105,-24.841293 -14.84487,-37.164093 z"
     fill="#111111"
     id="path89"
     style="stroke-width:3.423" />
  <path
     d="m 356.66975,29.535595 c 0,-4.694405 -0.19511,-9.193185 -0.39364,-13.88759 3.1252,0.19559 6.44893,0.19559 9.57413,0.19559 3.1252,0 6.44551,-0.19559 9.57071,-0.19559 -0.19511,0.586805 -0.19511,1.173575 -0.19511,1.56479 0,0.586805 0,0.977985 0.19511,1.56479 -4.4944,-0.39118 -7.22938,-0.782395 -14.06511,-0.782395 0,2.34722 -0.19511,4.1076 -0.19511,6.846 0,2.7384 0,5.67239 0,7.04159 6.2504,0 9.96093,-0.19559 13.08613,-0.58677 -0.19511,0.58677 -0.19511,1.173575 -0.19511,1.76038 0,0.586805 0,0.97802 0.19511,1.564859 C 370.53633,34.23 363.7006,34.23 361.16073,34.23 c 0,1.3692 0,2.542947 0,7.823951 0,4.1076 0,6.650547 0.19511,8.019747 4.68951,0 11.13502,0 14.45533,-0.782498 -0.19511,0.586702 -0.19511,1.173747 -0.19511,1.760449 0,0.391249 0,0.977951 0.19511,1.564653 -3.1252,-0.195453 -6.44551,-0.195453 -9.57071,-0.195453 -3.32031,0 -6.44551,0.195453 -9.76582,0.195453 0.19511,-4.694302 0.39022,-9.388604 0.39022,-13.887453 v -9.193254 z"
     fill="#111111"
     id="path90"
     style="stroke-width:3.423" />
  <path
     d="m 386.94277,29.535595 c 0,-4.694405 -0.19512,-9.193185 -0.39023,-13.88759 1.95454,0.19559 4.10418,0.19559 6.05529,0.19559 1.95453,0 4.10418,-0.19559 6.05529,-0.19559 6.05528,0 11.13502,2.151595 11.13502,8.41079 0,6.846 -6.83573,9.77999 -10.93991,10.171205 2.53986,3.325102 11.52524,14.865747 14.65044,18.386302 -0.97556,-0.195453 -2.14965,-0.195453 -3.32031,-0.195453 -0.97556,0 -2.14965,0.195453 -3.1252,0.195453 -2.14964,-3.325102 -9.3756,-13.104955 -13.86657,-17.7996 h -1.95454 v 3.912147 c 0,4.694302 0.19512,9.193151 0.39023,13.887453 -0.97556,-0.195453 -1.75943,-0.195453 -2.53987,-0.195453 -0.78044,0 -1.756,0.195453 -2.53987,0.195453 0.19511,-4.694302 0.39023,-9.193151 0.39023,-13.887453 z m 4.29928,3.129615 c 0.97556,0.19559 2.14965,0.19559 3.51542,0.19559 4.49098,0 10.15605,-1.760415 10.15605,-8.2152 0,-5.67239 -4.68609,-7.04159 -8.39662,-7.04159 -2.53987,0 -4.10418,0.19559 -5.27485,0.19559 -0.19511,3.91201 -0.39022,7.823985 -0.39022,11.735995 v 3.129615 z"
     fill="#111111"
     id="path91"
     style="stroke-width:3.423" />
  <path
     d="m 422.10382,45.574849 c 1.17067,2.542604 3.90564,5.672253 8.40004,5.672253 4.68609,0 7.61618,-3.520898 7.61618,-7.823951 0,-9.97558 -16.99177,-5.672253 -16.99177,-18.19078 0,-6.063605 4.49097,-10.171205 11.71693,-10.171205 3.32031,0 5.86017,0.782429 8.00982,2.54281 -0.58534,1.173609 -0.97556,2.542809 -1.3692,4.498814 h -0.58534 c -0.78044,-1.956005 -2.34133,-5.085619 -6.44551,-5.085619 -4.10075,0 -6.83573,2.7384 -6.83573,6.650409 0,9.975581 16.79666,5.867981 16.79666,17.799669 0,6.650204 -4.88119,12.127004 -13.08613,12.127004 -4.49097,0 -7.03084,-1.564653 -8.79026,-3.129649 0.58876,-1.564653 0.78387,-2.7384 0.97898,-4.694302 h 0.58533 z"
     fill="#111111"
     id="path92"
     style="stroke-width:3.423" />
  <path
     d="m 454.52648,29.535595 c 0,-4.694405 -0.19511,-9.193185 -0.39022,-13.88759 0.97897,0.19559 1.75942,0.19559 2.53986,0.19559 0.78045,0 1.75942,-0.19559 2.53987,-0.19559 -0.19511,4.694405 -0.39022,9.388775 -0.39022,13.88759 v 9.193254 c 0,4.694302 0.19511,9.193151 0.39022,13.887453 -0.97556,-0.195453 -1.75942,-0.195453 -2.53987,-0.195453 -0.78044,0 -1.75942,0.195453 -2.53986,0.195453 0.19511,-4.694302 0.39022,-9.193151 0.39022,-13.887453 z"
     fill="#111111"
     id="path93"
     style="stroke-width:3.423" />
  <path
     d="m 208.21938,84.499151 c 0,-4.694302 -0.19545,-9.193151 -0.39057,-13.887453 1.75771,0.195453 3.51577,0.195453 5.27382,0.195453 1.75771,0 5.07836,-0.195453 6.64096,-0.195453 3.12554,0 11.71967,0.195453 11.71967,8.997355 0,9.388947 -9.3756,11.344849 -14.4543,11.344849 -1.5626,0 -2.92975,0 -4.29689,-0.195453 v 2.933853 c 0,4.694645 0.19511,9.193148 0.39056,13.887798 -0.97658,-0.1958 -1.75805,-0.1958 -2.53918,-0.1958 -0.78147,0 -1.75805,0.1958 -2.53952,0.1958 0.19545,-4.69465 0.3909,-9.193153 0.3909,-13.887798 v -9.193151 z m 4.49269,3.912147 c 1.17169,0.195453 2.53918,0.391249 3.90632,0.391249 4.29724,0 9.96196,-1.760449 9.96196,-8.997698 0,-6.063502 -3.51611,-7.432702 -8.98538,-7.432702 h -4.8829 z"
     fill="#111111"
     id="path94"
     style="stroke-width:3.423" />
  <path
     d="m 257.44212,69.8292 c 11.91478,0 20.11868,7.041453 20.11868,19.1688 0,12.12735 -8.2039,19.1688 -20.11868,19.1688 -11.71967,0 -20.11868,-7.04145 -20.11868,-19.1688 0.19511,-12.127347 8.39901,-19.1688 20.11868,-19.1688 z m 0,1.955902 c -8.39902,0 -14.84487,5.281347 -14.84487,17.212898 0,11.93155 6.44585,17.2129 14.84487,17.2129 8.39901,0 14.84486,-5.28135 14.84486,-17.2129 0,-11.931551 -6.25039,-17.212898 -14.84486,-17.212898 z"
     fill="#111111"
     id="path95"
     style="stroke-width:3.423" />
  <path
     d="m 286.54583,84.499151 c 0,-4.694302 -0.19545,-9.193151 -0.39056,-13.887453 0.97658,0.195453 1.75771,0.195453 2.53918,0.195453 0.78113,0 1.75805,-0.195453 2.53918,-0.195453 -0.19511,4.694302 -0.39056,9.388604 -0.39056,13.887453 0,8.997698 0.19545,15.452449 0.19545,20.733799 5.07836,0 9.3756,0 14.84487,-0.7825 -0.19546,0.5867 -0.19546,1.1734 -0.19546,1.56465 0,0.58705 0.19546,1.17375 0.19546,1.565 -3.32065,-0.1958 -6.64131,-0.1958 -9.96196,-0.1958 -3.32031,0 -6.64096,0.1958 -9.96161,0.1958 0.19545,-4.69465 0.39056,-9.193153 0.39056,-13.887798 v -9.193151 z"
     fill="#111111"
     id="path96"
     style="stroke-width:3.423" />
  <path
     d="m 315.64989,84.499151 c 0,-4.694302 -0.19545,-9.193151 -0.39091,-13.887453 0.97659,0.195453 1.75806,0.195453 2.53919,0.195453 0.78147,0 1.75805,-0.195453 2.53952,-0.195453 -0.19545,4.694302 -0.39091,9.388604 -0.39091,13.887453 v 9.193151 c 0,4.694645 0.19546,9.193148 0.39091,13.887798 -0.97658,-0.1958 -1.75805,-0.1958 -2.53952,-0.1958 -0.78113,0 -1.75771,0.1958 -2.53919,0.1958 0.19546,-4.69465 0.39091,-9.193153 0.39091,-13.887798 z"
     fill="#111111"
     id="path97"
     style="stroke-width:3.423" />
  <path
     d="m 340.84694,84.499151 c 0,-3.716351 0,-7.432702 -0.19546,-11.149053 -3.71121,0 -8.39901,0.195453 -11.52421,0.586702 0.19545,-0.586702 0.19545,-1.173747 0.19545,-1.760449 0,-0.586702 -0.19545,-0.977951 -0.19545,-1.760449 4.6878,0.195796 9.18049,0.195796 13.8676,0.195796 4.68951,0 9.18048,-0.195796 13.86999,-0.195796 -0.19511,0.587045 -0.19511,1.173747 -0.19511,1.760449 0,0.586702 0.19511,1.173747 0.19511,1.760449 -2.93008,-0.391249 -7.8147,-0.586702 -11.52524,-0.586702 -0.19511,3.716351 -0.19511,7.432702 -0.19511,11.149053 v 9.193151 c 0,4.694645 0.19511,9.193148 0.39022,13.887798 -0.97555,-0.1958 -1.75942,-0.1958 -2.53986,-0.1958 -0.78045,0 -1.75737,0.1958 -2.5385,0.1958 0.19546,-4.69465 0.39057,-9.193153 0.39057,-13.887798 z"
     fill="#111111"
     id="path98"
     style="stroke-width:3.423" />
  <path
     d="m 422.29893,105.23295 c -1.3692,1.1734 -5.86017,3.12965 -11.13502,3.12965 -11.3267,0 -19.53163,-7.0418 -19.53163,-19.168804 0,-12.127347 8.20493,-19.1688 20.11697,-19.1688 4.68951,0 8.79026,1.173404 11.72035,2.542604 -0.58533,0.977951 -0.97556,3.129649 -1.17067,4.1076 l -0.39022,0.195796 c -1.56431,-1.564996 -5.07973,-4.694645 -10.15946,-4.694645 -8.39662,0 -14.84213,5.281347 -14.84213,17.212898 0,11.931551 6.44551,17.212901 14.84213,17.212901 5.07973,0 8.79026,-2.9342 10.9399,-4.49885 l 0.19512,0.19545 z"
     fill="#111111"
     id="path99"
     style="stroke-width:3.423" />
  <path
     d="m 462.92652,108.1668 c -8.20493,-9.5844 -17.97075,-19.951298 -27.15124,-29.731151 0,1.955902 -0.19511,5.281004 -0.19511,10.9536 0,4.694302 0.19511,16.039151 0.39022,18.190851 -0.58533,-0.1958 -1.17066,-0.1958 -1.95111,-0.1958 -0.58533,0 -1.3692,0 -1.95453,0.1958 0.39022,-2.54295 1.17067,-16.234949 1.17067,-23.276402 0,-6.846 0,-11.931551 -0.19511,-14.474498 h 0.78386 c 8.78684,9.5844 20.70231,22.493902 27.14782,29.144449 0,-9.5844 0,-20.146751 -0.39023,-28.361951 0.58876,0.195453 1.17409,0.195453 1.75943,0.195453 0.58533,0 1.17066,-0.195453 1.756,-0.195453 -0.39023,3.129306 -0.78045,13.887453 -0.78045,17.995053 0,5.4768 0.19511,17.408349 0.19511,19.755499 h -0.58533 z"
     fill="#111111"
     id="path100"
     style="stroke-width:3.423" />
  <path
     d="m 476.01265,84.499151 c 0,-4.694302 -0.19511,-9.193151 -0.39022,-13.887453 0.97898,0.195453 1.75942,0.195453 2.53986,0.195453 0.78045,0 1.75943,-0.195453 2.53987,-0.195453 -0.19511,4.694302 -0.39022,9.388604 -0.39022,13.887453 v 9.193151 c 0,4.694645 0.19511,9.193148 0.39022,13.887798 -0.97556,-0.1958 -1.75942,-0.1958 -2.53987,-0.1958 -0.78044,0 -1.75942,0.1958 -2.53986,0.1958 0.19511,-4.69465 0.39022,-9.193153 0.39022,-13.887798 z"
     fill="#111111"
     id="path101"
     style="stroke-width:3.423" />
  <path
     d="m 521.13464,105.23295 c -1.36578,1.1734 -5.86018,3.12965 -11.13502,3.12965 -11.32671,0 -19.53164,-7.0418 -19.53164,-19.168804 0,-12.127347 8.20493,-19.1688 20.12039,-19.1688 4.68609,0 8.78684,1.173404 11.71693,2.542604 -0.58533,0.977951 -0.97555,3.129649 -1.17066,4.1076 l -0.39023,0.195796 c -1.56431,-1.564996 -5.07973,-4.694645 -10.15604,-4.694645 -8.40004,0 -14.84555,5.281347 -14.84555,17.212898 0,11.931551 6.44551,17.212901 14.84555,17.212901 5.07631,0 8.78684,-2.9342 10.93649,-4.49885 l 0.19511,0.19545 z"
     fill="#111111"
     id="path102"
     style="stroke-width:3.423" />
  <path
     d="m 208.8054,139.26715 c 0,-4.6943 -0.19546,-9.3886 -0.39057,-13.88745 2.73429,0.19545 5.46893,0.19545 8.00845,0.19545 2.73429,0 5.46893,-0.19545 8.00845,-0.19545 12.5008,0 17.77461,6.6502 17.77461,17.7996 0,14.2787 -11.13364,19.36425 -19.53266,19.36425 -2.34407,0 -4.6878,-0.19545 -7.22732,-0.19545 -2.34373,0 -4.6878,0.19545 -7.22698,0.19545 0.19545,-4.6943 0.39056,-9.19315 0.39056,-13.88745 v -9.38895 z m 4.29723,9.19315 c 0,3.71635 0.19511,7.6285 0.39056,11.34485 1.5626,0.39125 4.29724,0.5867 7.03187,0.5867 7.813,0 16.40747,-3.1293 16.40747,-17.21255 0,-12.5186 -6.44585,-15.45245 -15.23543,-15.45245 -3.1252,0 -6.05529,0.19545 -8.20391,0.5867 -0.19545,3.5209 -0.39056,7.23725 -0.39056,11.1494 z"
     fill="#111111"
     id="path103"
     style="stroke-width:3.423" />
  <path
     d="m 248.84765,139.0717 c 0,-4.6943 -0.19545,-9.38895 -0.39056,-13.8878 3.32031,0.1958 6.4455,0.1958 9.57105,0.1958 3.32031,0 6.4455,-0.1958 9.5707,-0.1958 -0.19511,0.58705 -0.19511,1.17375 -0.19511,1.565 0,0.5867 0,1.1734 0.19511,1.56465 -4.49234,-0.39125 -7.22698,-0.78215 -14.06339,-0.78215 0,2.34715 -0.19546,4.1076 -0.19546,6.846 0,2.7384 0,5.67225 0,7.04145 6.25075,0 9.96196,-0.19545 13.08716,-0.5867 -0.19545,0.5867 -0.19545,1.1734 -0.19545,1.76045 0,0.5867 0,1.1734 0.19545,1.56465 -3.71122,-0.39125 -10.54763,-0.5867 -13.08716,-0.5867 0,1.3692 0,2.5426 0,7.82395 0,4.1076 0,6.6502 0.19546,8.0194 4.6878,0 11.13365,0 14.4543,-0.78215 -0.19545,0.3909 -0.19545,1.1734 -0.19545,1.56465 0,0.5867 0,1.17375 0.19545,1.56465 -3.1252,-0.19545 -6.44585,-0.19545 -9.57105,-0.19545 -3.32065,0 -6.44585,0.19545 -9.7665,0.19545 0.19545,-4.6943 0.39056,-9.3886 0.39056,-13.88745 v -8.8019 z"
     fill="#111111"
     id="path104"
     style="stroke-width:3.423" />
  <path
     d="m 302.75819,125.3797 c 0.97658,0.19545 1.95316,0.19545 2.73463,0.19545 0.97659,0 1.95317,-0.19545 2.7343,-0.19545 3.12554,9.5844 7.61788,20.92925 12.30568,31.68705 3.90667,-8.60645 9.96162,-24.6456 12.11023,-31.68705 0.58602,0.19545 1.36749,0.19545 1.95351,0.19545 0.58602,0 1.36714,-0.19545 1.95316,-0.19545 -5.66438,12.3228 -10.74308,24.6456 -15.43088,37.16385 -0.58602,-0.19545 -1.17204,-0.19545 -1.75805,-0.19545 -0.58568,0 -1.36715,0 -1.75772,0.19545 -3.12519,-8.9977 -9.7665,-24.84105 -14.84486,-37.16385 z"
     fill="#111111"
     id="path105"
     style="stroke-width:3.423" />
  <path
     d="m 377.56717,139.26715 c 0,-4.6943 -0.19511,-9.3886 -0.39022,-13.88745 0.97897,0.19545 1.75942,0.19545 2.53986,0.19545 0.78045,0 1.75942,-0.19545 2.53987,-0.19545 -0.19511,4.6943 -0.39022,9.3886 -0.39022,13.88745 0,8.9977 0.19511,15.45245 0.19511,20.7338 5.07973,0 9.3756,0 14.84555,-0.7825 -0.19511,0.5867 -0.19511,0.97795 -0.19511,1.56465 0,0.5867 0.19511,1.17375 0.19511,1.565 -3.32031,-0.1958 -6.64062,-0.1958 -9.96435,-0.1958 -3.32031,0 -6.64062,0.1958 -9.96093,0.1958 0.19511,-4.69465 0.39022,-9.19315 0.39022,-13.8878 v -9.19315 z"
     fill="#111111"
     id="path106"
     style="stroke-width:3.423" />
  <path
     d="m 465.07616,163.1306 c -8.20493,-9.5844 -17.97075,-19.9513 -27.15123,-29.7315 0,1.95625 -0.19511,5.28135 -0.19511,10.9536 0,4.69465 0.19511,16.0395 0.39022,18.19085 -0.58533,-0.19545 -1.17067,-0.19545 -1.95453,-0.19545 -0.58534,0 -1.36578,0.19545 -1.95111,0.19545 0.39022,-2.5426 1.17066,-16.2346 1.17066,-23.2764 0,-6.846 0,-11.93155 -0.19511,-14.47415 h 0.78044 c 8.79027,9.5844 20.70573,22.4939 27.15124,29.1441 0,-9.5844 0,-20.14675 -0.39022,-28.36195 0.58533,0.1958 1.17066,0.1958 1.75942,0.1958 0.58533,0 1.17067,-0.1958 1.756,-0.1958 -0.39022,3.12965 -0.78044,13.8878 -0.78044,17.9954 0,5.4768 0.19511,17.40835 0.19511,19.7555 h -0.58534 z"
     fill="#111111"
     id="path107"
     style="stroke-width:3.423" />
  <path
     d="m 505.11842,160.00095 c -1.3692,0.97795 -5.86018,3.1293 -11.13502,3.1293 -11.33013,0 -19.53164,-7.04145 -19.53164,-19.1688 0,-12.127 8.20151,-19.16845 20.11697,-19.16845 4.68951,0 8.79027,1.1734 11.72035,2.5426 -0.58533,0.97795 -0.97555,3.12965 -1.17066,4.1076 l -0.39022,0.1958 c -1.56432,-1.76045 -5.07974,-4.69465 -10.15947,-4.69465 -8.39662,0 -14.84213,5.28135 -14.84213,17.2129 0,11.93155 6.44551,17.2129 14.84213,17.2129 5.07973,0 8.79027,-2.9342 10.93991,-4.49885 l 0.19511,0.19545 z"
     fill="#111111"
     id="path108"
     style="stroke-width:3.423" />
  <path
     d="m 514.49401,139.26715 c 0,-4.6943 -0.19511,-9.3886 -0.39022,-13.88745 0.97556,0.19545 1.756,0.19545 2.53987,0.19545 0.78044,0 1.756,-0.19545 2.53644,-0.19545 -0.19511,4.6943 -0.39022,9.3886 -0.39022,13.88745 v 9.19315 c 0,4.69465 0.19511,9.19315 0.39022,13.8878 -0.97555,-0.1958 -1.756,-0.1958 -2.53644,-0.1958 -0.78387,0 -1.75942,0.1958 -2.53987,0.1958 0.19511,-4.69465 0.39022,-9.19315 0.39022,-13.8878 z"
     fill="#111111"
     id="path109"
     style="stroke-width:3.423" />
  <path
     d="m 535.19974,102.88545 c 0,-2.34715 1.95111,-4.30305 4.29587,-4.30305 2.34475,0 4.29586,1.9559 4.29586,4.30305 0,2.3475 -1.95111,4.3034 -4.29586,4.3034 -2.34476,0 -4.29587,-1.9559 -4.29587,-4.3034 z"
     fill="#111111"
     id="path110"
     style="stroke-width:3.423" />
  <path
     d="M 549.84676,92.714351 543.20614,76.6752 536.37041,92.714351 c -2.34476,5.4768 -4.29587,10.953599 -5.27485,14.474499 -0.78044,-0.1958 -1.36577,-0.1958 -1.9511,-0.1958 -0.58876,0 -1.36921,0.1958 -1.95454,0.1958 5.66507,-12.518597 11.33013,-25.03685 16.79666,-37.750899 h 0.97898 c 5.27142,12.518596 13.28124,32.078299 16.21133,37.750899 -0.97556,-0.1958 -1.95453,-0.1958 -2.73498,-0.1958 -0.97555,0 -1.95453,0.1958 -2.93009,0.1958 -1.17066,-3.71635 -3.71053,-9.780197 -5.66506,-14.474499 z"
     fill="#111111"
     id="path111"
     style="stroke-width:3.423" />
  <path
     d="m 535.39485,157.84925 c 0,-2.34715 1.95111,-4.3034 4.29587,-4.3034 2.34475,0 4.29586,1.95625 4.29586,4.3034 0,2.34715 -1.95111,4.30305 -4.29586,4.30305 -2.34476,-0.19545 -4.29587,-1.9559 -4.29587,-4.30305 z"
     fill="#111111"
     id="path112"
     style="stroke-width:3.423" />
  <path
     d="m 550.04187,147.48235 -6.64062,-16.03915 -6.83573,16.03915 c -2.34476,5.4768 -4.29587,10.9536 -5.27484,14.4745 -0.78045,-0.19545 -1.36578,-0.19545 -1.95111,-0.19545 -0.58876,0 -1.3692,0.19545 -1.95454,0.19545 5.66507,-12.51825 11.33013,-25.03685 16.79666,-37.7509 h 0.97898 c 5.27142,12.5186 13.28124,32.07865 16.21133,37.7509 -0.97556,-0.19545 -1.95453,-0.19545 -2.93009,-0.19545 -0.97555,0 -1.95453,0.19545 -2.93009,0.19545 -0.97555,-3.71635 -3.71053,-9.5844 -5.46995,-14.4745 z"
     fill="#111111"
     id="path113"
     style="stroke-width:3.423" />
  <path
     d="m 344.55918,157.84925 c 0,-2.34715 1.95111,-4.3034 4.29586,-4.3034 2.34476,0 4.29929,1.95625 4.29929,4.3034 0,2.34715 -1.95453,4.30305 -4.29929,4.30305 -2.34475,-0.19545 -4.29586,-1.9559 -4.29586,-4.30305 z"
     fill="#111111"
     id="path114"
     style="stroke-width:3.423" />
  <path
     d="m 359.2062,147.48235 -6.64062,-16.03915 -6.83573,16.03915 c -2.34476,5.4768 -4.2969,10.9536 -5.27348,14.4745 -0.78113,-0.19545 -1.36714,-0.19545 -1.95316,-0.19545 -0.58602,0 -1.36749,0.19545 -1.95351,0.19545 5.66472,-12.51825 11.32979,-25.03685 16.79974,-37.7509 h 0.97556 c 5.27484,12.5186 13.28124,32.07865 16.21133,37.7509 -0.97556,-0.19545 -1.95111,-0.19545 -2.93009,-0.19545 -0.97556,0 -1.95111,0.19545 -2.93009,0.19545 -0.97555,-3.71635 -3.51542,-9.5844 -5.46995,-14.4745 z"
     fill="#111111"
     id="path115"
     style="stroke-width:3.423" />
  <path
     d="m 480.11683,30.1224 c 0,-3.716385 0,-7.432805 -0.19511,-11.14919 -3.71396,0 -8.40005,0.19559 -11.52525,0.586805 0.19511,-0.586805 0.19511,-1.17361 0.19511,-1.760415 0,-0.586805 -0.19511,-0.977985 -0.19511,-1.760415 4.68609,0.195625 9.18049,0.195625 13.86658,0.195625 4.68951,0 9.18048,-0.195625 13.86999,-0.195625 -0.19511,0.586805 -0.19511,1.17361 -0.19511,1.760415 0,0.586805 0.19511,1.17361 0.19511,1.760415 -2.93009,-0.391215 -7.81471,-0.586805 -11.52524,-0.586805 -0.19511,3.716385 -0.19511,7.432805 -0.19511,11.14919 v 9.193151 c 0,4.694302 0.19511,9.193151 0.39022,13.887796 -0.97555,-0.195796 -1.756,-0.195796 -2.53986,-0.195796 -0.78045,0 -1.756,0.195796 -2.53645,0.195796 0.19512,-4.694645 0.39023,-9.388947 0.39023,-13.887796 z"
     fill="#111111"
     id="path116"
     style="stroke-width:3.423" />
  <path
     d="m 544.96556,30.1224 c 0,-3.716385 0,-7.432805 -0.19511,-11.14919 -3.71396,0 -8.40004,0.19559 -11.52524,0.586805 0.19511,-0.586805 0.19511,-1.17361 0.19511,-1.760415 0,-0.586805 -0.19511,-0.977985 -0.19511,-1.760415 4.68609,0.195625 9.18048,0.195625 13.86657,0.195625 4.68951,0 9.18049,-0.195625 13.87,-0.195625 -0.19511,0.586805 -0.19511,1.17361 -0.19511,1.760415 0,0.586805 0.19511,1.17361 0.19511,1.760415 -2.93009,-0.391215 -7.81471,-0.586805 -11.52524,-0.586805 -0.19511,3.716385 -0.19511,7.432805 -0.19511,11.14919 v 9.193151 c 0,4.694302 0.19511,9.193151 0.39022,13.887796 -0.97556,-0.195796 -1.756,-0.195796 -2.53987,-0.195796 -0.78044,0 -1.756,0.195796 -2.53644,0.195796 0.19511,-4.694645 0.39022,-9.388947 0.39022,-13.887796 z"
     fill="#111111"
     id="path117"
     style="stroke-width:3.423" />
  <path
     fill-rule="evenodd"
     clip-rule="evenodd"
     d="m 419.56396,122.25005 -6.83574,-6.846 c -0.58533,-0.5867 -1.3692,-1.3692 -2.14964,-1.9559 -0.19511,-0.1958 -0.39022,-0.1958 -0.78044,-0.39125 -0.97556,-0.1958 -1.95454,0.19545 -2.14965,1.1734 -0.19511,0.58705 -0.19511,0.97795 0,1.3692 0.39022,0.58705 0.78045,0.7825 1.3692,1.17375 l 8.59173,5.281 h 1.95454 z m -9.18049,5.67225 h 4.10075 l 5.46996,0.1958 c 1.56431,0.19545 3.32031,0.19545 4.88462,0.5867 0,-0.5867 -0.19511,-1.17375 -0.19511,-1.56465 0,-0.58705 0.19511,-0.9783 0.19511,-1.565 h -19.33995 v 36.9684 h 19.73017 c 0,-0.5867 -0.19511,-1.1734 -0.19511,-1.56465 0,-0.58705 0.19511,-0.97795 0.19511,-1.565 -1.75942,0.1958 -3.32031,0.39125 -5.07973,0.58705 -3.32031,0.19545 -6.44551,0.3909 -9.76582,0.19545 v -15.8437 h 8.40004 c 1.56089,0 3.1252,0.1958 4.8812,0.1958 0,-0.58705 -0.19511,-1.17375 -0.19511,-1.565 0,-0.5867 0.19511,-0.97795 0.19511,-1.3692 -1.56089,0 -3.1252,0.1958 -4.8812,0.1958 h -8.40004 z"
     fill="#111111"
     id="path118"
     style="stroke-width:3.423" />
  <path
     fill-rule="evenodd"
     clip-rule="evenodd"
     d="m 378.54615,67.677502 -6.83573,-6.846 c -0.58876,-0.586702 -1.3692,-1.3692 -2.14965,-1.955902 -0.19511,-0.195453 -0.39022,-0.195453 -0.78044,-0.391249 -0.97898,-0.195453 -1.95454,0.195796 -2.14965,1.173747 -0.19511,0.586702 -0.19511,0.977951 0,1.564653 0.39023,0.586702 0.78045,0.782498 1.36578,1.173747 l 8.59515,5.281004 z m -8.98538,5.672596 h 4.10076 l 5.46995,0.195453 c 1.56089,0 3.32031,0.195796 4.88462,0.586702 0,-0.586702 -0.19853,-1.173404 -0.19853,-1.564653 0,-0.586702 0.19853,-0.977951 0.19853,-1.564653 H 364.67615 V 107.5801 h 19.53506 c 0,-0.58705 -0.19511,-1.17375 -0.19511,-1.565 0,-0.5867 0.19511,-0.97795 0.19511,-1.56465 -1.75942,0.19545 -3.32373,0.39125 -5.07973,0.39125 -3.32031,0.19545 -6.44551,0.39125 -9.76582,0.19545 V 89.193453 h 8.39662 c 1.56431,0 3.32373,0.195796 4.88462,0.195796 0,-0.586702 -0.19511,-1.173747 -0.19511,-1.564996 0,-0.586702 0.19511,-0.977951 0.19511,-1.3692 -1.56089,0 -3.1252,0.195796 -4.88462,0.195796 h -8.39662 V 73.350098 Z"
     fill="#111111"
     id="path119"
     style="stroke-width:3.423" />
  <path
     d="m 506.28908,48.313249 c 0,-2.347151 1.95454,-4.303396 4.29929,-4.303396 2.34133,0 4.29587,1.956245 4.29587,4.303396 0,2.347151 -1.95454,4.303053 -4.29587,4.303053 -2.53986,-0.195453 -4.29929,-1.955902 -4.29929,-4.303053 z m 7.81471,-33.252083 h 1.17067 l 15.43088,35.794687 0.97556,1.956245 c -0.97556,-0.195796 -1.95111,-0.195796 -2.73498,-0.195796 -0.97555,0 -1.95111,0 -2.92666,0.195796 l -0.39365,-1.564996 -2.53644,-6.454751 -2.73498,-6.454751 -6.83915,-16.23481 -7.03085,16.23481 c -1.95111,4.694302 -3.90564,9.5844 -5.27484,14.474498 -0.58533,-0.195796 -1.17066,-0.195796 -1.95111,-0.195796 -0.58533,0 -1.3692,0 -1.95453,0.195796 z"
     fill="#111111"
     id="path120"
     style="stroke-width:3.423" />
</svg>
