<?xml version="1.0" encoding="UTF-8" standalone="no"?>
<svg
   version="1.1"
   viewBox="0 0 199.96852 232.34061"
   width="199.96852"
   height="232.34062"
   id="svg88"
   xmlns="http://www.w3.org/2000/svg"
   xmlns:svg="http://www.w3.org/2000/svg"
   xmlns:rdf="http://www.w3.org/1999/02/22-rdf-syntax-ns#"
   xmlns:cc="http://creativecommons.org/ns#"
   xmlns:dc="http://purl.org/dc/elements/1.1/">
  <title
     id="title1">University of Southern Queensland</title>
  <defs
     id="defs1">
    <clipPath
       id="clipPath13631"
       clipPathUnits="userSpaceOnUse">
      <path
         d="m 240.3,39.685 h 84.272 v 52.41 H 240.3 Z"
         id="path1" />
    </clipPath>
  </defs>
  <g
     transform="translate(-250.77236,-142.52206)"
     id="g88">
    <g
       transform="matrix(6.2957056,0,0,-6.2957056,-1262.0857,659.18422)"
       id="g87">
      <g
         clip-path="url(#clipPath13631)"
         id="g86">
        <g
           transform="translate(268.91789,60.698807)"
           id="g5">
          <path
             d="m 0,0 c -0.262,-3.242 -1.711,-5.23 -3.301,-6.84 -1.931,-1.771 -4.476,-2.642 -7.002,-3.34 l -2.48,-0.566 -2.576,0.599 c -2.461,0.678 -4.969,1.587 -6.827,3.293 -2.181,2.135 -3.38,5.124 -3.167,8.444 l -0.046,13.589 v 6.188 H -18.91 -1.209 0 V 13.412 L -0.004,1.596"
             fill-rule="nonzero"
             fill="#000000"
             id="path5" />
        </g>
        <g
           transform="translate(268.25011,81.423904)"
           id="g6">
          <path
             d="m 0,0 v -4.261 c -2.256,-0.103 -3.49,-2.652 -5.918,-1.945 -1.299,0.591 -2.867,1.074 -4.377,0.624 -0.717,-0.154 -1.369,-0.713 -2.154,-0.465 -1.178,0.497 -2.578,0.892 -3.918,0.465 -0.967,-0.2 -1.754,-0.875 -2.838,-0.768 -1.856,0.195 -2.926,1.991 -4.843,2.065 l -0.022,0.033 0.008,4.164 L -24.038,0 H -0.201 C -0.135,0.032 -0.07,-0.015 0,0"
             fill-rule="nonzero"
             fill="#003876"
             id="path6" />
        </g>
        <g
           transform="translate(261.0255,80.488297)"
           id="g7">
          <path
             d="M 0,0 C 0.283,0.033 0.576,0.103 0.859,0.168 V 0.135 C 0.684,-0.083 0.51,-0.27 0.348,-0.502 c 0.148,-0.269 0.271,-0.526 0.423,-0.781 -0.255,0.074 -0.543,0.195 -0.814,0.301 -0.223,-0.237 -0.395,-0.506 -0.627,-0.715 0.027,0.288 0.043,0.581 0.078,0.902 l -0.056,0.046 c -0.274,0.098 -0.534,0.21 -0.805,0.326 l 0.861,0.256 0.033,0.042 0.024,0.939 h 0.023 z"
             fill-rule="nonzero"
             fill="#000000"
             id="path7" />
        </g>
        <g
           transform="translate(257.17191,80.5439)"
           id="g8">
          <path
             d="m 0,0 c 0.328,0.059 0.658,0.136 1.029,0.2 l -0.67,-0.692 v -0.089 c 0.121,-0.241 0.297,-0.507 0.414,-0.758 -0.289,0.102 -0.562,0.26 -0.861,0.359 -0.223,-0.219 -0.373,-0.48 -0.6,-0.685 0.004,0.298 0.069,0.596 0.075,0.908 -0.262,0.144 -0.545,0.24 -0.815,0.376 l 0.838,0.238 0.047,0.065 c 0.023,0.265 0.037,0.534 0.078,0.79 h 0.02 z"
             fill-rule="nonzero"
             fill="#000000"
             id="path8" />
        </g>
        <g
           transform="translate(257.6367,79.4785)"
           id="g9">
          <path
             d="m 0,0 -0.604,0.238 c -0.154,-0.112 -0.248,-0.316 -0.39,-0.424 l 0.054,0.549 c -0.181,0.121 -0.376,0.198 -0.562,0.305 0.192,0.078 0.387,0.077 0.582,0.161 0.051,0.176 0.076,0.567 0.076,0.567 0.131,-0.159 0.221,-0.314 0.35,-0.476 0.199,0.037 0.396,0.078 0.601,0.1 C 0,0.862 -0.162,0.745 -0.293,0.564"
             fill-rule="nonzero"
             fill="#ffffff"
             id="path9" />
        </g>
        <g
           transform="translate(260.54491,79.1875)"
           id="g10">
          <path
             d="M 0,0 0.023,0.585 C -0.143,0.664 -0.334,0.743 -0.512,0.822 H -0.525 V 0.855 L 0.033,1.031 0.08,1.646 C 0.213,1.473 0.299,1.317 0.424,1.144 L 0.988,1.24 C 0.891,1.085 0.754,0.959 0.67,0.808 0.68,0.757 0.709,0.729 0.74,0.688 0.787,0.524 0.922,0.403 0.963,0.241 0.764,0.282 0.586,0.38 0.406,0.449 L 0.35,0.441"
             fill-rule="nonzero"
             fill="#ffffff"
             id="path10" />
        </g>
        <g
           transform="translate(259.9863,77.944397)"
           id="g11">
          <path
             d="M 0,0 C 0.336,0.032 0.656,0.148 0.996,0.199 0.801,-0.061 0.559,-0.252 0.326,-0.517 0.438,-0.801 0.629,-1.052 0.75,-1.33 c -0.273,0.11 -0.576,0.218 -0.861,0.344 -0.213,-0.219 -0.401,-0.485 -0.6,-0.69 h -0.023 c 0.033,0.303 0.064,0.611 0.097,0.912 -0.256,0.145 -0.529,0.251 -0.801,0.373 v 0.033 c 0.276,0.092 0.579,0.121 0.848,0.232 l 0.024,0.032 c 0.013,0.271 0.05,0.535 0.097,0.796 h 0.024 z"
             fill-rule="nonzero"
             fill="#000000"
             id="path11" />
        </g>
        <g
           transform="translate(252.00391,78.3535)"
           id="g12">
          <path
             d="m 0,0 c 0.145,-0.219 0.266,-0.47 0.424,-0.656 0.334,0.065 0.586,0.133 0.916,0.209 V -0.479 C 1.145,-0.698 0.926,-0.939 0.74,-1.149 V -1.215 C 0.889,-1.461 1.033,-1.68 1.173,-1.931 0.912,-1.843 0.6,-1.754 0.326,-1.638 0.237,-1.68 0.186,-1.782 0.126,-1.843 l -0.392,-0.423 -0.023,0.033 c 0.038,0.27 0.019,0.582 0.057,0.837 -0.293,0.167 -0.62,0.251 -0.916,0.405 l 0.939,0.176 c 0.074,0.13 0.032,0.312 0.074,0.462 -0.01,0.167 0.035,0.316 0.039,0.479 C -0.045,0.121 -0.032,0.032 0,0"
             fill-rule="nonzero"
             fill="#000000"
             id="path12" />
        </g>
        <g
           transform="translate(259.9648,77.762802)"
           id="g13">
          <path
             d="M 0,0 0.58,0.135 V 0.102 l -0.4,-0.415 c 0.043,-0.194 0.173,-0.352 0.232,-0.534 -0.166,0.037 -0.361,0.13 -0.543,0.2 -0.154,-0.126 -0.269,-0.318 -0.404,-0.439 0.019,0.194 0.045,0.396 0.055,0.583 -0.182,0.103 -0.387,0.154 -0.569,0.256 0.203,0.072 0.387,0.131 0.61,0.198 C -0.4,0.106 -0.41,0.372 -0.373,0.535 -0.246,0.369 -0.119,0.164 0,0"
             fill-rule="nonzero"
             fill="#ffffff"
             id="path13" />
        </g>
        <g
           transform="translate(257.60941,77.720795)"
           id="g14">
          <path
             d="M 0,0 C 0.229,0.005 0.433,0.065 0.66,0.074 0.535,-0.079 0.34,-0.237 0.201,-0.405 0.262,-0.591 0.359,-0.763 0.447,-0.94 L 0.424,-0.963 c -0.182,0.079 -0.354,0.219 -0.545,0.256 l -0.414,-0.377 c -0.032,0.018 -0.043,-0.012 -0.02,0.021 0.03,0.213 0.11,0.574 0.082,0.558 -0.142,0.065 -0.429,0.244 -0.564,0.323 0.181,0.061 0.414,0.061 0.613,0.112 0.053,0.161 0.08,0.386 0.121,0.582 C -0.182,0.357 -0.135,0.143 0,0"
             fill-rule="nonzero"
             fill="#000000"
             id="path14" />
        </g>
        <g
           transform="translate(251.9248,77.427704)"
           id="g15">
          <path
             d="m 0,0 -0.52,-0.089 v 0.01 l -0.097,-0.032 c 0.116,-0.068 0.46,-0.187 0.591,-0.252 l -0.03,-0.611 c 0.108,0.108 0.28,0.323 0.405,0.415 0.205,-0.064 0.459,-0.192 0.652,-0.24 -0.088,0.191 -0.27,0.404 -0.35,0.599 0.14,0.148 0.301,0.299 0.418,0.458 C 0.878,0.211 0.633,0.135 0.446,0.111 0.355,0.274 0.212,0.491 0.095,0.626"
             fill-rule="nonzero"
             fill="#ffffff"
             id="path15" />
        </g>
        <g
           transform="translate(257.54491,77.562607)"
           id="g16">
          <path
             d="M 0,0 C 0.098,0.01 0.344,0.045 0.344,0.045 0.266,-0.071 0.172,-0.124 0.131,-0.227 0.16,-0.333 0.207,-0.41 0.227,-0.518 c -0.096,0.049 -0.292,0.146 -0.292,0.146 -0.054,-0.047 -0.177,-0.191 -0.251,-0.219 -0.004,0.098 0.039,0.19 0.048,0.297 -0.07,0.061 -0.246,0.147 -0.33,0.203 0.098,0.029 0.282,0.048 0.35,0.067 0.029,0.127 0.053,0.214 0.066,0.303 0,0 0.164,-0.265 0.182,-0.279"
             fill-rule="nonzero"
             fill="#ffffff"
             id="path16" />
        </g>
        <g
           transform="translate(268.2402,67.233902)"
           id="g17">
          <path
             d="m 0,0 -0.018,-6.195 c -0.046,-2.745 -1.17,-4.864 -2.884,-6.621 -2.498,-2.178 -5.873,-3.149 -9.18,-3.819 -3.289,0.67 -6.564,1.59 -9.123,3.805 -0.837,0.81 -1.475,1.795 -1.986,2.848 -0.549,1.218 -0.861,2.548 -0.879,3.962 V 5.908 l 0.009,3.313 0.033,0.024 c 2.032,-0.201 3.219,-2.284 5.447,-1.964 1.489,0.297 2.88,1.233 4.522,0.758 0.921,-0.152 1.791,-0.865 2.782,-0.414 1.056,0.428 2.359,0.741 3.55,0.381 1.098,-0.291 2.125,-0.967 3.381,-0.668 1.647,0.293 2.629,1.804 4.356,1.92 z"
             fill-rule="nonzero"
             fill="#ffd520"
             id="path17" />
        </g>
        <g
           transform="translate(247.1152,74.747604)"
           id="g18">
          <path
             d="M 0,0 C 1.516,-2.205 3.148,-4.209 5.368,-5.783 6.023,-6.416 6.467,-7.383 6.173,-8.359 6.015,-9.1 5.535,-9.672 5.047,-10.225 4.852,-10.49 4.88,-10.928 5.023,-11.207 c 0.182,-0.303 0.415,-0.559 0.75,-0.67 0.274,-0.041 0.543,0.006 0.768,0.131 -0.006,0.205 -0.158,-0.014 -0.256,0.023 -0.08,0.028 -0.219,-0.013 -0.247,0.078 0.187,0.135 0.512,0.192 0.437,0.495 0.009,0.027 -0.018,0.046 -0.032,0.064 -0.21,-0.141 -0.443,-0.228 -0.693,-0.269 -0.02,0.019 -0.01,0.046 -0.01,0.07 0.34,0.152 0.6,0.414 0.735,0.734 -0.065,0.028 -0.176,0 -0.256,0.024 -0.107,0.013 -0.227,0.088 -0.255,0.191 l 0.009,0.055 c 0.181,-0.033 0.423,-0.051 0.548,0.097 l 0.098,0.293 c -0.055,0.034 -0.135,0.024 -0.199,0.043 -0.037,0.028 -0.108,0.065 -0.112,0.112 0.061,0.054 0.159,0.027 0.223,0.07 0.214,0.055 0.307,0.293 0.438,0.469 -0.15,0.047 -0.33,0.029 -0.448,0.144 l 0.034,0.033 c 0.363,-0.023 0.678,0.129 0.869,0.401 -0.149,0.045 -0.302,0.096 -0.414,0.203 0,0.047 -0.024,0.103 0.033,0.111 0.205,-0.097 0.498,-0.148 0.717,-0.047 0.232,0.211 0.539,0.313 0.724,0.559 -0.007,0.037 0.024,0.061 0.01,0.104 -0.349,0.152 -0.748,0.191 -1.148,0.232 -0.219,0.051 -0.289,0.297 -0.535,0.312 -0.331,0.2 -0.419,0.59 -0.401,0.961 0.111,-0.007 0.168,-0.101 0.266,-0.148 0.31,-0.166 0.687,-0.031 1.037,-0.041 -0.057,0.125 -0.108,0.26 -0.242,0.32 C 7.309,-6.057 7.154,-6.15 7.057,-6.262 L 7.001,-6.373 c -0.103,0.041 -0.173,0.135 -0.224,0.246 -0.064,0.27 0.089,0.502 0.233,0.68 0.252,0.236 0.577,0.334 0.917,0.381 0.051,0.08 0.116,0.168 0.214,0.187 0.917,0.092 1.693,-0.316 2.42,-0.726 0.33,-0.118 0.724,-0.034 1.003,0.101 h 0.024 c -0.125,-0.246 -0.317,-0.482 -0.6,-0.557 0.145,-0.298 0.324,-0.666 0.701,-0.736 l 0.057,-0.068 c -0.088,-0.084 -0.275,-0.033 -0.39,0 -0.034,-0.485 0.212,-0.895 0.423,-1.272 -0.191,-0.013 -0.33,0.112 -0.457,0.256 l -0.037,-0.023 c -0.074,-0.61 -0.869,-1.293 -0.176,-1.842 V -9.77 c -0.252,-0.013 -0.41,0.21 -0.511,0.415 l -0.047,0.191 c -0.158,-0.188 -0.36,-0.424 -0.246,-0.717 0.037,-0.172 0.148,-0.256 0.256,-0.367 l -0.01,-0.047 c -0.164,-0.014 -0.317,0.107 -0.424,0.205 -0.057,-0.238 0.023,-0.488 0.199,-0.652 0.104,-0.088 0.229,-0.129 0.36,-0.168 0,-0.051 -0.071,-0.061 -0.112,-0.074 -0.201,-0.028 -0.377,0.029 -0.517,0.121 0.009,-0.158 0.037,-0.33 0.093,-0.479 0.196,-0.222 0.465,-0.488 0.815,-0.461 v -0.031 c -0.154,-0.029 -0.313,-0.037 -0.481,-0.033 0.016,-0.084 0.141,-0.117 0.211,-0.176 0.641,-0.373 1.479,-0.113 2,0.32 0.313,0.27 0.619,0.576 0.567,1.028 -0.031,0.619 -0.608,0.861 -0.86,1.363 -0.488,0.777 -0.683,2.014 -0.121,2.824 0.512,0.959 1.516,1.25 2.188,2.02 1.506,1.343 2.73,2.982 3.865,4.623 0.088,0.088 0.209,0.185 0.357,0.144 0.448,-0.242 0.512,-0.791 0.489,-1.283 -0.172,-0.932 -0.791,-1.726 -1.26,-2.49 0.516,0.555 1.055,1.219 1.33,1.965 0.139,0.091 0.266,-0.061 0.391,-0.121 0.363,-0.276 0.48,-0.774 0.4,-1.252 -0.168,-0.784 -0.73,-1.418 -1.195,-2.01 l -0.424,-0.512 c 0.316,0.121 0.566,0.408 0.883,0.613 0.308,0.256 0.582,0.526 0.816,0.872 0.102,-0.024 0.143,-0.108 0.209,-0.178 0.199,-0.33 0.217,-0.819 0.055,-1.172 -0.354,-0.68 -0.926,-1.172 -1.492,-1.656 h 0.078 c 0.357,0.144 0.851,0.424 1.215,0.091 0.185,-0.189 0.293,-0.488 0.199,-0.771 -0.326,-0.814 -1.242,-1.098 -1.93,-1.516 -0.256,-0.125 -0.518,-0.242 -0.768,-0.382 l 0.032,-0.022 c 0.578,0 1.131,-0.07 1.675,-0.154 0.229,-0.074 0.452,-0.176 0.502,-0.438 0.085,-0.293 -0.017,-0.619 -0.222,-0.804 -0.418,-0.364 -1.047,-0.321 -1.633,-0.334 l 0.047,-0.067 c 0.459,-0.363 1.041,-0.642 1.273,-1.195 0.006,-0.149 -0.004,-0.297 -0.078,-0.414 -0.256,-0.274 -0.717,-0.182 -1.051,-0.121 -0.279,0.092 -0.568,0.168 -0.847,0.265 0.343,-0.396 0.967,-0.652 0.933,-1.293 -0.045,-0.103 -0.115,-0.248 -0.23,-0.302 -0.643,-0.141 -1.182,0.263 -1.74,0.422 0.226,-0.241 0.525,-0.6 0.39,-0.981 -0.041,-0.107 -0.135,-0.172 -0.224,-0.223 -0.647,-0.14 -1.078,0.446 -1.577,0.645 0.088,-0.189 0.169,-0.418 0.102,-0.645 0.34,0.022 0.723,0.014 1.061,-0.033 0.023,-0.019 0.037,-0.047 0.033,-0.078 -0.196,-0.141 -0.344,-0.299 -0.492,-0.504 0.687,0.051 1.25,-0.203 1.753,-0.592 0.409,-0.22 1.01,-0.218 1.409,0.034 0.131,0.033 0.154,0.265 0.312,0.224 0.094,-0.545 -0.293,-1.033 -0.726,-1.285 -0.428,-0.232 -0.995,-0.264 -1.498,-0.145 0.033,-0.078 0.136,-0.138 0.191,-0.212 0.15,-0.168 0.275,-0.313 0.383,-0.512 0,-0.067 -0.033,-0.141 -0.113,-0.158 -0.489,0.287 -1.215,0.404 -1.754,0.158 -0.539,-0.182 -1.186,-0.1 -1.698,0.057 0.368,-0.522 0.856,-1.016 1.586,-0.918 0.201,0.023 0.395,0.08 0.559,0.168 v -0.112 c -0.195,-0.441 -0.629,-0.787 -1.117,-0.824 -0.364,-0.051 -0.721,0.023 -1.028,0.111 0.186,-0.33 0.303,-0.724 0.233,-1.14 -0.028,-0.069 -0.08,-0.008 -0.121,-0.014 -0.19,0.434 -0.512,0.852 -0.916,1.131 0.004,-0.18 0.125,-0.344 0.111,-0.549 0.004,-0.344 -0.098,-0.67 -0.344,-0.893 l -0.047,0.014 c -0.074,0.447 -0.414,0.838 -0.824,1.016 0.074,-0.373 0.182,-0.768 0.121,-1.198 -0.01,-0.05 -0.068,-0.04 -0.111,-0.04 -0.256,0.46 -0.606,0.855 -1.014,1.191 0.078,-0.266 0.125,-0.615 0.088,-0.902 -0.064,-0.276 -0.168,-0.545 -0.326,-0.774 -0.064,-0.051 -0.148,-0.041 -0.223,-0.01 -0.168,0.303 -0.283,0.666 -0.545,0.895 C 9.76,-21.516 9.639,-22.01 9.648,-22.531 9.605,-22.563 9.596,-22.613 9.537,-22.596 9.326,-22.283 9.16,-21.93 9.09,-21.549 H 9.053 C 8.95,-21.898 8.83,-22.246 8.643,-22.563 8.611,-22.592 8.564,-22.609 8.531,-22.586 l -0.047,0.055 c 0.01,0.535 -0.111,1.023 -0.334,1.461 -0.084,-0.069 -0.195,-0.205 -0.247,-0.311 -0.13,-0.195 -0.186,-0.443 -0.335,-0.615 -0.293,-0.055 -0.297,0.299 -0.423,0.471 -0.163,0.353 -0.126,0.875 0.009,1.228 -0.39,-0.299 -0.762,-0.683 -0.99,-1.15 -0.028,-0.047 -0.084,-0.055 -0.126,-0.031 l -0.032,0.04 c -0.024,0.424 0.027,0.821 0.143,1.188 -0.422,-0.145 -0.758,-0.549 -0.837,-1.006 -0.102,-0.047 -0.144,0.111 -0.209,0.154 -0.265,0.362 -0.209,0.87 -0.056,1.26 -0.391,-0.25 -0.731,-0.627 -0.907,-1.078 -0.037,-0.033 -0.083,-0.084 -0.13,-0.047 -0.079,0.135 -0.042,0.303 -0.037,0.445 0.037,0.262 0.138,0.495 0.259,0.717 -0.175,-0.004 -0.343,-0.101 -0.525,-0.111 -0.637,-0.084 -1.246,0.149 -1.539,0.67 -0.023,0.088 -0.154,0.201 -0.057,0.279 0.405,-0.26 1.066,-0.246 1.461,0.032 0.27,0.191 0.442,0.462 0.67,0.705 -0.135,0 -0.26,-0.086 -0.4,-0.104 -0.544,-0.102 -1.168,-0.07 -1.643,0.149 -0.488,0.103 -0.994,-0.014 -1.394,-0.247 -0.061,0 -0.117,0.034 -0.145,0.088 -0.005,0.131 0.111,0.229 0.167,0.313 0.126,0.172 0.279,0.324 0.423,0.468 -0.553,-0.134 -1.213,-0.068 -1.674,0.247 -0.336,0.265 -0.651,0.685 -0.582,1.16 0.02,0.041 0.089,0.064 0.121,0.023 0.252,-0.34 0.684,-0.457 1.117,-0.4 0.521,0.01 0.819,0.478 1.266,0.599 0.297,0.118 0.66,0.155 0.99,0.135 v 0.047 c -0.144,0.178 -0.297,0.34 -0.469,0.457 v 0.078 c 0.362,0.061 0.698,0.074 1.075,0.033 -0.015,0.227 0.009,0.465 0.111,0.661 -0.488,-0.209 -0.935,-0.797 -1.586,-0.647 -0.121,0.061 -0.173,0.152 -0.233,0.266 -0.061,0.398 0.195,0.724 0.432,0.947 -0.535,-0.176 -1.07,-0.535 -1.707,-0.455 -0.111,0.051 -0.215,0.131 -0.27,0.246 -0.12,0.307 0.102,0.572 0.27,0.781 0.219,0.178 0.452,0.401 0.67,0.592 -0.215,-0.033 -0.424,-0.154 -0.646,-0.201 -0.34,-0.098 -0.731,-0.194 -1.094,-0.092 -0.145,0.074 -0.274,0.219 -0.27,0.404 0.019,0.461 0.415,0.698 0.717,0.936 0.219,0.158 0.418,0.32 0.633,0.484 -0.689,0.018 -1.513,-0.043 -1.844,0.614 -0.068,0.236 -0.064,0.558 0.094,0.757 0.367,0.336 0.953,0.252 1.451,0.346 0.219,0.014 0.448,0.014 0.656,0.047 -0.794,0.408 -1.642,0.775 -2.344,1.348 -0.251,0.306 -0.517,0.689 -0.312,1.093 0.088,0.203 0.26,0.358 0.493,0.371 0.363,0.051 0.638,-0.168 0.958,-0.246 v 0.034 c -0.576,0.539 -1.377,1.064 -1.572,1.919 -0.088,0.411 0.028,0.821 0.321,1.071 0.13,-0.018 0.158,-0.176 0.238,-0.266 0.418,-0.502 0.929,-0.865 1.483,-1.226 l -0.032,0.074 c -0.53,0.656 -1.14,1.289 -1.475,2.103 -0.154,0.391 -0.154,0.926 0.041,1.293 0.136,0.205 0.34,0.414 0.606,0.469 0.158,-0.068 0.148,-0.279 0.232,-0.414 0.293,-0.594 0.713,-1.084 1.131,-1.586 v 0.055 c -0.562,0.996 -1.549,1.992 -1.131,3.271 0.125,0.192 0.229,0.414 0.461,0.471 C -0.229,0.309 -0.094,0.162 0,0"
             fill-rule="nonzero"
             fill="#000000"
             id="path18" />
        </g>
        <g
           transform="translate(255.3672,68.8629)"
           id="g19">
          <path
             d="m 0,0 c -0.037,-0.492 0.488,-0.629 0.791,-0.855 -0.297,0.212 -0.889,0.04 -1.116,0.445 -0.107,0.201 -0.177,0.488 -0.48,0.457 C -1,0.051 -1.162,-0.07 -1.283,-0.186 c -0.057,0.168 0.032,0.34 0.144,0.456 0.088,0.08 0.181,0.164 0.302,0.224 C -0.637,0.246 -0.386,-0.033 0,0"
             fill-rule="nonzero"
             fill="#f58220"
             id="path19" />
        </g>
        <g
           transform="translate(256.1582,69.067795)"
           id="g20">
          <path
             d="m 0,0 c -0.037,-0.037 -0.107,-0.064 -0.135,-0.127 0.005,-0.068 -0.009,-0.148 0.047,-0.199 0.056,-0.051 0.139,-0.07 0.209,-0.047 0.07,0.023 0.084,0.08 0.125,0.135 l -0.014,0.135 c 0.01,-0.014 0.024,-0.01 0.038,-0.01 0.043,-0.119 -0.014,-0.26 -0.125,-0.301 -0.071,-0.043 -0.163,-0.014 -0.233,0.01 -0.088,0.068 -0.14,0.195 -0.102,0.31 C -0.135,-0.037 -0.088,0.074 0,0"
             fill-rule="nonzero"
             fill="#ffffff"
             id="path20" />
        </g>
        <g
           transform="translate(256.6133,67.491806)"
           id="g21">
          <path
             d="m 0,0 c 0.019,-0.1 -0.027,-0.178 -0.088,-0.234 -0.423,-0.317 -0.897,0.05 -1.316,0.154 -0.284,0.162 -0.763,-0.027 -0.916,0.334 0.326,-0.297 0.861,-0.098 1.228,-0.297 0.27,-0.111 0.576,-0.457 0.869,-0.182 0.08,0.108 0.09,0.243 0.08,0.381 C -0.209,0.277 -0.27,0.408 -0.39,0.469 -0.209,0.361 -0.061,0.203 0,0"
             fill-rule="nonzero"
             fill="#f58220"
             id="path21" />
        </g>
        <g
           transform="translate(255.3672,58.2379)"
           id="g22">
          <path
             d="M 0,0 C 0.057,-0.08 0.098,0.037 0.131,0.057 0.48,0.432 0.475,1.084 0.266,1.525 0.629,1.228 0.787,0.674 0.646,0.166 0.646,0.088 0.68,0.027 0.759,0.008 0.842,0.027 0.959,-0.043 1.006,0.074 0.908,0.59 0.982,1.154 1.373,1.484 1.195,1.064 1.178,0.465 1.494,0.074 L 1.605,-0.039 C 1.902,0.185 1.976,0.605 2.107,0.949 2.215,1.508 2.219,2.148 1.973,2.642 2.541,2.094 2.713,1.232 2.666,0.4 2.723,0.348 2.797,0.283 2.867,0.344 c 0.125,0.185 0.045,0.447 0.069,0.67 0.07,0.455 0.33,0.804 0.712,1.07 l 0.014,-0.01 0.01,0.01 C 3.535,1.795 3.504,1.381 3.615,1.07 3.713,0.996 3.76,1.107 3.838,1.148 4.158,1.451 4.332,1.926 4.443,2.353 4.642,1.738 4.41,1.139 4.039,0.68 3.535,0.353 3.113,-0.08 2.848,-0.639 c 0,-0.041 0.027,-0.107 0.088,-0.111 l 0.097,0.033 C 3.424,-0.178 3.936,0.279 4.564,0.52 5.123,0.879 5.49,1.484 5.545,2.176 5.723,1.666 5.555,1.061 5.178,0.688 5.107,0.6 4.908,0.529 4.979,0.377 5.053,0.229 5.211,0.273 5.305,0.353 L 5.537,0.559 C 5.726,0.404 5.816,0.711 5.975,0.758 6.383,1.07 6.941,1.148 7.49,1.135 7.285,0.98 7.123,0.822 6.965,0.613 6.379,0.478 6.086,0.017 5.639,-0.35 5.322,-0.582 4.941,-0.666 4.564,-0.75 4.541,-0.787 4.5,-0.828 4.531,-0.875 l 0.08,-0.057 c 0.721,0.043 1.297,0.387 1.731,0.94 0.492,0.439 1.316,0.535 1.953,0.303 0.289,-0.122 0.59,-0.284 0.814,-0.479 0.283,-0.125 0.6,-0.242 0.95,-0.191 0.007,0.039 0.023,0.056 0.054,0.08 -0.008,-0.024 -0.008,-0.041 -0.031,-0.057 0.051,-0.033 0.135,0.006 0.201,0.01 C 9.894,-0.834 9.146,-0.986 8.494,-0.807 7.877,-0.648 7.262,-0.316 6.564,-0.525 6.352,-0.588 6.15,-0.67 5.961,-0.781 5.932,-0.834 5.904,-0.885 5.918,-0.949 c 0.172,-0.219 0.391,0.056 0.592,0.064 0.738,0.205 1.506,-0.023 2.064,-0.478 -0.432,0.131 -0.99,0.105 -1.373,-0.112 -0.849,-0.164 -1.66,0.092 -2.357,0.469 -0.202,0 -0.461,0.154 -0.615,-0.023 -0.004,-0.266 0.33,-0.129 0.478,-0.237 L 4.898,-1.363 C 4.891,-1.42 4.814,-1.48 4.844,-1.563 4.959,-1.76 5.225,-1.773 5.379,-1.898 5.769,-2.15 5.936,-2.666 6.43,-2.816 6.668,-2.898 6.928,-2.941 7.201,-2.904 6.644,-3.268 5.816,-3.1 5.289,-2.791 5.238,-2.74 5.133,-2.605 5.025,-2.68 4.807,-2.922 5.221,-3.023 5.281,-3.207 5.355,-3.322 5.439,-3.461 5.49,-3.588 c -0.322,0.34 -0.67,0.684 -1.148,0.861 -0.053,0 -0.127,-0.037 -0.154,-0.103 -0.01,-0.203 0.214,-0.348 0.289,-0.535 0.101,-0.18 0.138,-0.405 0.165,-0.6 L 4.619,-3.988 C 4.373,-3.602 3.902,-3.461 3.494,-3.332 3.35,-3.104 3.154,-2.904 2.945,-2.76 2.852,-2.736 2.75,-2.787 2.713,-2.885 v -0.098 c 0.26,-0.296 0.566,-0.548 0.725,-0.949 -0.358,0.284 -0.739,0.539 -1.116,0.75 -0.09,0.008 -0.168,-0.07 -0.191,-0.15 0.051,-0.209 0.228,-0.367 0.269,-0.576 0.121,-0.303 0.061,-0.694 -0.037,-0.987 -0.101,0.313 -0.279,0.616 -0.488,0.862 0.084,0.347 0.135,0.765 0,1.105 C 1.828,-2.861 1.74,-2.861 1.676,-2.885 1.484,-3.201 1.713,-3.527 1.605,-3.875 1.559,-4.178 1.494,-4.471 1.359,-4.736 1.303,-4.992 1.201,-5.221 1.191,-5.494 L 1.172,-5.486 C 1,-5.123 0.953,-4.703 0.912,-4.289 0.889,-4.23 0.796,-4.215 0.744,-4.258 0.666,-4.514 0.684,-4.816 0.601,-5.07 0.555,-5.217 0.521,-5.369 0.457,-5.508 l -0.01,0.014 c -0.027,0.596 -0.41,1.058 -0.428,1.674 -0.046,0.283 0.041,0.558 0.014,0.837 -0.033,0.042 -0.056,0.085 -0.111,0.098 -0.084,0 -0.187,-0.027 -0.201,-0.121 -0.092,-0.334 -0.028,-0.721 0.033,-1.053 -0.2,-0.23 -0.4,-0.523 -0.493,-0.836 -0.21,0.498 -0.066,1.104 0.237,1.498 0.019,0.075 -0.037,0.118 -0.056,0.169 -0.042,0.04 -0.112,0.031 -0.167,0.031 -0.373,-0.219 -0.782,-0.489 -1.084,-0.725 0.159,0.357 0.484,0.66 0.735,0.939 0.004,0.065 -0.004,0.125 -0.042,0.176 -0.056,0.043 -0.117,0.071 -0.191,0.057 -0.237,-0.172 -0.395,-0.371 -0.572,-0.582 -0.414,-0.121 -0.865,-0.297 -1.126,-0.646 -0.015,0.419 0.204,0.74 0.456,1.06 0.028,0.074 -0.033,0.131 -0.074,0.168 -0.047,0.02 -0.117,0.043 -0.158,0 -0.428,-0.191 -0.782,-0.484 -1.084,-0.838 0.125,0.299 0.316,0.518 0.525,0.74 0.024,0.088 -0.032,0.172 -0.111,0.188 -0.121,-0.047 -0.209,-0.127 -0.313,-0.188 -0.511,-0.289 -1.306,-0.373 -1.818,-0.056 0.591,-0.065 1.163,0.168 1.461,0.656 0.195,0.295 0.525,0.424 0.828,0.582 0.088,0.041 0.084,0.158 0.074,0.232 l -0.042,0.057 c 0.144,0.145 0.4,0.176 0.624,0.213 0.046,0.033 0.065,0.08 0.055,0.135 -0.051,0.08 -0.148,0.127 -0.246,0.089 -0.606,-0.046 -1.061,-0.451 -1.651,-0.535 -0.564,-0.103 -1.164,-0.027 -1.652,0.19 -0.284,0.043 -0.559,-0.024 -0.814,-0.078 0.567,0.461 1.498,0.767 2.275,0.423 0.106,-0.033 0.195,-0.134 0.325,-0.08 0.075,0.042 0.075,0.127 0.056,0.192 -0.093,0.107 -0.237,0.185 -0.381,0.223 -0.484,0.201 -1.15,0.191 -1.629,-0.024 -0.451,-0.125 -0.898,-0.316 -1.404,-0.223 -0.377,0.061 -0.75,0.25 -0.973,0.536 0.377,-0.098 0.791,-0.024 1.126,0.111 0.601,0.525 1.48,0.814 2.288,0.539 0.364,-0.145 0.698,-0.404 0.908,-0.693 0.377,-0.338 0.852,-0.539 1.381,-0.559 0.033,0.01 0.074,0.029 0.089,0.066 -0.005,0.204 -0.27,0.116 -0.4,0.19 -0.564,0.141 -0.954,0.471 -1.34,0.918 -0.2,0.185 -0.48,0.254 -0.702,0.377 -0.163,0.185 -0.326,0.347 -0.526,0.515 0.707,0.057 1.354,-0.168 1.832,-0.628 0.052,-0.012 0.084,0.023 0.122,0.046 0.14,-0.097 0.26,-0.275 0.456,-0.277 0.065,0.059 0.168,0.096 0.126,0.213 -0.461,0.353 -0.787,0.93 -0.629,1.564 l 0.047,0.12 c 0.05,-0.708 0.484,-1.442 1.117,-1.721 0.539,-0.242 1.004,-0.633 1.33,-1.104 0.047,-0.045 0.084,-0.097 0.154,-0.101 0.046,0.01 0.111,0.043 0.102,0.101 -0.233,0.537 -0.67,0.996 -1.172,1.309 -0.397,0.441 -0.61,1.098 -0.414,1.707 0.092,-0.512 0.34,-1 0.734,-1.316 0.047,-0.014 0.08,0.013 0.103,0.041 0.075,0.316 0.061,0.707 -0.066,0.996 0.532,-0.299 0.842,-0.95 0.727,-1.643 0.017,-0.055 0.06,-0.094 0.111,-0.121 0.298,0.019 0.079,0.363 0.145,0.535 0.027,0.68 0.273,1.34 0.711,1.787 C -0.693,1.818 -0.558,0.701 0,0"
             fill-rule="nonzero"
             fill="#f58220"
             id="path22" />
        </g>
        <g
           transform="translate(255.1631,69.3647)"
           id="g23">
          <path
             d="M 0,0 C 0.111,-0.092 0.284,-0.088 0.429,-0.129 0.345,-0.301 0.083,-0.223 -0.066,-0.209 -0.21,-0.152 -0.325,-0.064 -0.423,0.057 -0.288,0.09 -0.069,0.205 0,0"
             fill-rule="nonzero"
             fill="#ed1c2e"
             id="path23" />
        </g>
        <g
           transform="translate(246.8027,74.558105)"
           id="g24">
          <path
             d="M 0,0 C 1.498,-2.197 3.029,-4.16 5.16,-5.639 5.801,-6.184 6.262,-6.978 6.15,-7.891 6.058,-8.711 5.527,-9.338 5.002,-9.867 4.811,-10.156 4.801,-10.576 4.881,-10.92 c 0.172,-0.557 0.619,-1.152 1.227,-1.228 0.298,-0.055 0.55,0.089 0.8,0.181 0.121,-0.353 -0.083,-0.693 -0.297,-0.949 0.098,-0.074 0.237,0.014 0.321,0.066 l 0.134,0.102 c 0.173,-0.475 0.313,-0.99 0.592,-1.418 -0.07,-0.201 -0.186,-0.377 -0.247,-0.582 -0.2,0.398 -0.591,0.687 -1.037,0.814 -0.028,0.004 -0.061,-0.005 -0.065,-0.033 0.079,-0.256 0.171,-0.521 0.134,-0.814 -0.302,0.326 -0.469,0.777 -0.539,1.252 H 5.83 c -0.434,-0.498 -0.461,-1.225 -0.191,-1.811 -0.135,0.047 -0.229,0.182 -0.349,0.289 -0.316,0.358 -0.446,0.832 -0.479,1.33 L 5.16,-13.6 c 0.06,-0.045 0.055,-0.148 0.13,-0.191 0.265,-0.041 0.382,0.258 0.525,0.416 0,0.022 0.009,0.051 -0.008,0.068 -0.155,-0.078 -0.242,-0.273 -0.448,-0.269 -0.125,0.117 -0.079,0.312 -0.167,0.437 -0.046,-0.093 -0.046,-0.218 -0.046,-0.316 -0.298,-0.057 -0.628,-0.229 -0.935,-0.065 -0.15,0.331 0.158,0.604 0.167,0.917 -0.288,-0.061 -0.596,0.037 -0.837,0.175 -0.182,0.266 0.055,0.535 0.199,0.74 v 0.055 c -0.069,0.02 -0.13,-0.068 -0.181,-0.109 -0.223,-0.006 -0.489,-0.063 -0.679,0.088 -0.093,0.068 -0.107,0.181 -0.144,0.279 0.051,0.242 0.246,0.447 0.423,0.58 0.103,0.02 0.279,-0.055 0.312,0.067 -0.103,0.064 -0.256,0.007 -0.367,0.054 -0.164,0.051 -0.313,0.145 -0.368,0.313 -0.037,0.447 0.4,0.613 0.67,0.814 0.014,0.047 -0.023,0.051 -0.047,0.08 L 3.168,-9.523 c -0.088,0.31 -0.418,0.66 -0.199,0.97 0.172,0.11 0.409,0.08 0.613,0.067 0.014,0.037 0.065,0.023 0.057,0.07 -0.071,0.064 -0.172,0.064 -0.266,0.078 -0.144,0.223 -0.596,0.377 -0.437,0.735 0.087,0.117 0.171,0.228 0.326,0.255 0.236,0.034 0.424,-0.05 0.623,-0.097 0.033,0.006 0.037,0.033 0.055,0.056 -0.037,0.131 -0.204,0.088 -0.301,0.145 -0.121,0.178 -0.308,0.344 -0.322,0.568 0.083,0.092 0.228,0.012 0.345,0.022 l 0.334,-0.112 c 0.052,0.024 0.02,0.057 0.01,0.09 -0.261,0.102 -0.517,0.26 -0.824,0.213 -0.116,0.07 -0.172,0.219 -0.144,0.358 0.126,0.197 0.372,0.248 0.591,0.201 0.084,0 0.14,-0.098 0.232,-0.047 0.02,0.017 0.01,0.047 0.014,0.07 -0.279,0.139 -0.595,0.33 -0.939,0.223 -1.061,1.168 -1.945,2.252 -2.745,3.629 -0.312,0.576 -0.615,1.265 -0.359,1.963 C -0.148,-0.006 -0.047,0.082 0,0"
             fill-rule="nonzero"
             fill="#ed1c2e"
             id="path24" />
        </g>
        <g
           transform="translate(265.80659,74.446793)"
           id="g25">
          <path
             d="m 0,0 c 0.353,-1.332 -0.656,-2.295 -1.252,-3.328 -0.576,-0.785 -1.232,-1.549 -1.865,-2.242 -0.348,0.103 -0.627,-0.098 -0.916,-0.2 -0.024,-0.023 -0.037,-0.046 -0.033,-0.08 0.131,-0.084 0.248,0.061 0.392,0.034 0.19,0.019 0.367,-0.094 0.455,-0.233 0.024,-0.144 -0.056,-0.252 -0.154,-0.336 -0.301,0.067 -0.529,-0.115 -0.795,-0.179 -0.014,-0.03 -0.055,-0.053 -0.055,-0.09 0.176,-0.047 0.334,0.09 0.516,0.101 0.055,0.006 0.148,0.033 0.189,-0.021 C -3.494,-6.709 -3.6,-6.789 -3.629,-6.9 -3.75,-7.055 -3.855,-7.227 -4.074,-7.236 -4.113,-7.25 -4.154,-7.297 -4.121,-7.334 l 0.033,-0.037 c 0.256,0.066 0.604,0.225 0.836,0 0.127,-0.092 0.154,-0.264 0.135,-0.408 -0.135,-0.192 -0.287,-0.336 -0.479,-0.485 -0.088,-0.013 -0.205,0 -0.236,-0.097 0.18,-0.088 0.404,0.033 0.58,-0.071 0.09,-0.037 0.145,-0.088 0.168,-0.185 0.033,-0.33 -0.223,-0.535 -0.303,-0.819 -0.078,-0.009 -0.158,0.121 -0.222,0.014 0.064,-0.178 0.312,-0.195 0.427,-0.324 0.135,-0.141 0.289,-0.319 0.223,-0.561 -0.111,-0.24 -0.408,-0.316 -0.684,-0.302 l -0.041,-0.041 c 0.065,-0.108 0.229,-0.028 0.334,-0.071 0.182,-0.185 0.498,-0.427 0.354,-0.724 -0.082,-0.125 -0.227,-0.215 -0.399,-0.225 -0.15,-0.023 -0.271,0.053 -0.4,0.024 -0.037,0.042 -0.08,0.125 -0.148,0.113 -0.02,-0.155 0.158,-0.225 0.189,-0.369 0.018,-0.112 0.102,-0.209 0.057,-0.334 -0.151,-0.246 -0.494,-0.26 -0.782,-0.289 -0.052,-0.028 -0.099,0.07 -0.123,-0.014 0.039,-0.289 0.243,-0.506 0.211,-0.822 -0.224,-0.248 -0.591,-0.057 -0.871,-0.039 -0.218,-0.004 -0.037,0.265 -0.152,0.359 -0.066,-0.098 -0.061,-0.232 -0.094,-0.346 -0.027,-0.101 -0.131,-0.101 -0.209,-0.068 -0.111,0.078 -0.187,0.162 -0.303,0.246 -0.003,-0.162 0.145,-0.283 0.247,-0.391 0.066,-0.07 0.154,-0.125 0.246,-0.097 0.123,0.013 0.07,0.293 0.234,0.168 0.092,-0.024 0.162,-0.094 0.27,-0.094 -0.024,-0.66 -0.327,-1.246 -0.838,-1.637 0.259,0.543 0.256,1.352 -0.182,1.819 -0.014,0.027 -0.041,0.023 -0.064,0.023 -0.104,-0.451 -0.215,-0.893 -0.526,-1.252 -0.01,0 -0.019,-0.004 -0.023,-0.014 -0.057,0.274 0.041,0.577 0.135,0.819 -0.104,0.07 -0.219,-0.033 -0.327,-0.055 -0.326,-0.15 -0.591,-0.428 -0.781,-0.727 -0.056,0.018 -0.014,0.079 -0.043,0.112 -0.172,0.531 -0.525,0.996 -0.98,1.316 -0.037,0.01 -0.071,-0.013 -0.08,-0.045 0,-0.08 0.066,-0.14 0.089,-0.211 0.278,-0.66 0.172,-1.548 -0.167,-2.144 -0.047,0.051 -0.085,0.191 -0.09,0.303 -0.008,0.296 -0.008,0.609 0.144,0.871 0.006,0.035 -0.004,0.078 -0.045,0.088 -0.349,-0.149 -0.601,-0.434 -0.801,-0.75 -0.191,0.326 -0.488,0.628 -0.837,0.75 -0.041,-0.03 -0.018,-0.088 -0.014,-0.122 0.074,-0.121 0.102,-0.265 0.135,-0.404 -0.014,-0.252 0.042,-0.517 -0.088,-0.736 -0.079,0.094 -0.103,0.242 -0.168,0.359 -0.219,0.604 -0.237,1.451 0.097,2.01 0,0.018 -0.027,0.031 -0.041,0.055 -0.228,-0.125 -0.447,-0.321 -0.591,-0.526 h -0.038 c -0.501,0.977 -0.716,2.075 -0.799,3.225 0.046,1.195 0.949,2.213 1.851,2.791 0.066,0.07 0.107,0.142 0.089,0.246 0.283,-0.111 0.701,-0.189 0.94,0.07 0.125,0.145 0.171,0.368 0.134,0.545 -0.191,0.422 -0.679,0.604 -1.05,0.813 -0.118,0.107 -0.28,0.234 -0.248,0.414 -0.008,0.15 0.089,0.283 0.181,0.359 l 0.067,-0.01 c -0.076,-0.125 -0.094,-0.289 -0.067,-0.437 0.075,-0.172 0.229,-0.307 0.424,-0.311 0.139,0.004 0.266,0.065 0.357,0.153 0.047,0.07 0.08,0.144 0.098,0.224 0.195,-0.099 0.322,-0.322 0.504,-0.457 0.041,0.004 0.074,0.033 0.088,0.065 -0.043,0.349 -0.391,0.488 -0.633,0.683 -0.372,0.215 -0.786,0.309 -1.209,0.391 -0.047,0.039 -0.117,0.08 -0.089,0.154 0.187,0.141 0.438,0.03 0.648,0.014 0.58,-0.168 1.115,-0.428 1.599,-0.781 0.573,-0.535 0.778,-1.442 0.512,-2.223 -0.186,-0.609 -0.764,-0.918 -1.027,-1.494 -0.471,-0.768 -0.336,-1.828 0.142,-2.535 0.36,-0.414 0.94,-0.688 1.578,-0.582 0.893,0.215 1.828,0.74 1.997,1.73 0.04,0.367 0.003,0.736 -0.225,0.996 -0.758,0.674 -1.334,1.764 -0.957,2.865 0.25,0.657 0.73,1.192 1.316,1.532 1.879,1.408 3.41,3.396 4.758,5.359 C -0.102,0.148 -0.023,0.059 0,0"
             fill-rule="nonzero"
             fill="#ed1c2e"
             id="path25" />
        </g>
        <g
           transform="translate(245.8965,72.960403)"
           id="g26">
          <path
             d="M 0,0 C 0.278,-0.832 0.916,-1.516 1.475,-2.143 2.13,-2.897 2.973,-3.484 3.628,-4.297 3.488,-4.762 3.99,-4.855 4.065,-5.223 L 4.298,-5.559 C 4.074,-5.512 3.801,-5.484 3.619,-5.623 H 3.572 c -1.353,1.232 -2.646,2.461 -3.582,4.029 -0.261,0.436 -0.373,1.153 -0.033,1.586 C -0.023,-0.018 -0.015,0.006 0,0"
             fill-rule="nonzero"
             fill="#ed1c2e"
             id="path26" />
        </g>
        <g
           transform="translate(266.709,72.659607)"
           id="g27">
          <path
             d="m 0,0 c 0.242,-0.736 -0.195,-1.369 -0.549,-1.932 -0.967,-1.306 -2,-2.343 -3.256,-3.427 -0.181,0.162 -0.447,0.121 -0.67,0.078 0.075,0.172 0.242,0.32 0.297,0.535 0.211,0.162 0.434,0.424 0.373,0.726 0.641,0.795 1.498,1.401 2.139,2.145 0.56,0.643 1.211,1.297 1.476,2.145 C -0.074,0.233 -0.051,0.098 0,0"
             fill-rule="nonzero"
             fill="#ed1c2e"
             id="path27" />
        </g>
        <g
           transform="translate(247.68159,68.472198)"
           id="g28">
          <path
             d="M 0,0 C 0.535,-0.568 1.07,-1.057 1.676,-1.582 1.745,-1.875 2.09,-1.986 2.248,-2.232 2.113,-2.223 2.01,-2.283 1.889,-2.309 c -1.512,0.844 -2.869,1.69 -4.02,2.936 -0.26,0.332 -0.428,0.75 -0.367,1.215 0.057,0 0.088,-0.115 0.154,-0.153 C -1.665,1.014 -0.837,0.521 0,0"
             fill-rule="nonzero"
             fill="#ed1c2e"
             id="path28" />
        </g>
        <g
           transform="translate(266.3419,68.518997)"
           id="g29">
          <path
             d="m 0,0 c -1.047,-0.875 -2.275,-1.75 -3.494,-2.377 l -0.371,0.078 c 0.158,0.215 0.492,0.354 0.595,0.67 0.61,0.535 1.2,1.061 1.741,1.629 0.855,0.498 1.738,1.051 2.4,1.777 C 1,1.047 0.475,0.432 0,0"
             fill-rule="nonzero"
             fill="#ed1c2e"
             id="path29" />
        </g>
        <g
           transform="translate(254.03709,68.071793)"
           id="g30">
          <path
             d="M 0,0 C -0.042,-0.064 -0.014,-0.162 -0.023,-0.246 -0.162,-0.178 -0.256,-0.037 -0.289,0.111 -0.177,0.094 -0.143,0 0,0"
             fill-rule="nonzero"
             fill="#ed1c2e"
             id="path30" />
        </g>
        <g
           transform="translate(255.8887,67.893997)"
           id="g31">
          <path
             d="M 0,0 C 0.125,-0.064 0.266,-0.135 0.303,-0.277 0.316,-0.338 0.344,-0.473 0.237,-0.459 0,-0.445 -0.172,-0.277 -0.391,-0.213 c -0.377,0.172 -0.935,0.037 -1.191,0.381 0.404,0.145 0.865,0.023 1.238,-0.111 z"
             fill-rule="nonzero"
             fill="#ed1c2e"
             id="path31" />
        </g>
        <g
           transform="translate(246.6582,67.378403)"
           id="g32">
          <path
             d="M 0,0 0.559,-0.176 C 1.266,-0.721 2.015,-1.139 2.792,-1.619 2.848,-1.906 3.039,-2.154 3.201,-2.377 V -2.4 L 2.945,-2.545 c -1.41,0.488 -2.861,1.057 -4.029,1.965 -0.121,0.125 -0.228,0.236 -0.246,0.428 0.01,0.179 0.079,0.357 0.256,0.422 C -0.664,0.367 -0.349,0.113 0,0"
             fill-rule="nonzero"
             fill="#ed1c2e"
             id="path32" />
        </g>
        <g
           transform="translate(267.0117,67.458496)"
           id="g33">
          <path
             d="M 0,0 C 0.023,-0.131 0.098,-0.285 0.023,-0.414 -0.32,-0.945 -0.949,-1.168 -1.508,-1.518 -2.387,-1.963 -3.289,-2.353 -4.234,-2.648 L -4.48,-2.49 c 0.191,0.224 0.363,0.488 0.437,0.783 0.805,0.469 1.545,0.93 2.279,1.451 0.448,0.088 0.829,0.334 1.272,0.445 C -0.307,0.186 -0.098,0.176 0,0"
             fill-rule="nonzero"
             fill="#ed1c2e"
             id="path33" />
        </g>
        <g
           transform="translate(248.3203,64.944794)"
           id="g34">
          <path
             d="M 0,0 C 0.311,-0.166 0.66,-0.25 0.98,-0.4 0.92,-0.549 0.911,-0.744 0.972,-0.893 c -0.87,-0.185 -1.783,-0.339 -2.736,-0.255 -0.386,0.046 -0.787,0.209 -0.902,0.599 -0.023,0.114 0.018,0.201 0.098,0.272 0.279,0.119 0.581,0.175 0.892,0.213 C -1.131,-0.01 -0.563,0.061 0,0"
             fill-rule="nonzero"
             fill="#ed1c2e"
             id="path34" />
        </g>
        <g
           transform="translate(266.4765,64.722198)"
           id="g35">
          <path
             d="m 0,0 c 0.104,-0.018 0.172,-0.088 0.233,-0.168 0.08,-0.176 -0.051,-0.33 -0.135,-0.455 -0.512,-0.455 -1.34,-0.344 -2.033,-0.316 -0.483,0.064 -0.971,0.134 -1.438,0.246 0.08,0.14 0.043,0.339 -0.014,0.48 0.33,0.162 0.694,0.264 1.03,0.426 C -1.535,0.26 -0.754,0.154 0,0"
             fill-rule="nonzero"
             fill="#ed1c2e"
             id="path35" />
        </g>
        <g
           transform="translate(249.7617,63.763306)"
           id="g36">
          <path
             d="m 0,0 c -0.019,-0.068 -0.111,-0.111 -0.168,-0.166 -0.135,-0.172 -0.334,-0.359 -0.269,-0.629 -0.674,-0.391 -1.387,-0.697 -2.131,-0.926 -0.266,-0.041 -0.535,-0.152 -0.805,-0.078 -0.088,0.078 -0.111,0.233 -0.064,0.35 0.338,0.539 0.906,0.869 1.427,1.213 0.586,0.037 1.14,0.177 1.684,0.31 C -0.209,0.066 -0.125,-0.014 0,0"
             fill-rule="nonzero"
             fill="#ed1c2e"
             id="path36" />
        </g>
        <g
           transform="translate(264.69141,63.493698)"
           id="g37">
          <path
             d="M 0,0 C 0.492,-0.395 1.111,-0.684 1.381,-1.26 1.395,-1.363 1.371,-1.447 1.316,-1.516 1.189,-1.596 1.047,-1.557 0.902,-1.553 c -0.908,0.168 -1.717,0.563 -2.513,0.994 0.06,0.346 -0.246,0.602 -0.455,0.791 0.088,0.034 0.199,0.03 0.279,0.094 C -1.195,0.215 -0.625,0.043 0,0"
             fill-rule="nonzero"
             fill="#ed1c2e"
             id="path37" />
        </g>
        <g
           transform="translate(250.2637,62.704697)"
           id="g38">
          <path
             d="m 0,0 c -0.083,-0.191 -0.26,-0.373 -0.19,-0.615 0.046,-0.094 0.153,-0.168 0.247,-0.215 -0.768,-0.512 -1.606,-0.912 -2.471,-1.205 -0.172,-0.041 -0.4,-0.131 -0.535,0.033 -0.084,0.191 0.047,0.377 0.144,0.535 0.576,0.559 1.298,1.051 2.024,1.467 0.223,-0.154 0.539,-0.053 0.781,0"
             fill-rule="nonzero"
             fill="#ed1c2e"
             id="path38" />
        </g>
        <g
           transform="translate(264.9707,61.149994)"
           id="g39">
          <path
             d="m 0,0 c 0.082,-0.131 0.166,-0.297 0.098,-0.447 -0.141,-0.18 -0.373,-0.078 -0.545,-0.047 -0.866,0.299 -1.707,0.689 -2.457,1.211 0.127,0.041 0.209,0.119 0.265,0.242 0,0.219 -0.09,0.404 -0.209,0.557 0.223,0.009 0.53,-0.166 0.745,0.023 C -1.336,1.144 -0.568,0.627 0,0"
             fill-rule="nonzero"
             fill="#ed1c2e"
             id="path39" />
        </g>
        <g
           transform="translate(251.0312,61.796402)"
           id="g40">
          <path
             d="m 0,0 c -0.074,-0.299 -0.307,-0.559 -0.232,-0.893 -0.452,-0.377 -0.903,-0.67 -1.442,-0.972 -0.154,-0.014 -0.363,-0.174 -0.488,0.013 -0.112,0.289 0.125,0.559 0.265,0.75 0.372,0.53 1.023,0.721 1.52,1.079 C -0.256,-0.029 -0.125,-0.01 0,0"
             fill-rule="nonzero"
             fill="#ed1c2e"
             id="path40" />
        </g>
        <g
           transform="translate(262.1875,61.493698)"
           id="g41">
          <path
             d="M 0,0 C 0.191,-0.139 0.432,-0.27 0.623,-0.391 0.879,-0.67 1.225,-0.908 1.34,-1.285 1.35,-1.391 1.377,-1.535 1.275,-1.605 1.07,-1.717 0.848,-1.559 0.66,-1.484 0.199,-1.205 -0.205,-0.926 -0.603,-0.6 -0.535,-0.266 -0.748,-0.014 -0.828,0.279 -0.475,0.35 -0.256,0.141 0,0"
             fill-rule="nonzero"
             fill="#ed1c2e"
             id="path41" />
        </g>
        <g
           transform="translate(251.43649,60.806198)"
           id="g42">
          <path
             d="m 0,0 c -0.224,-0.293 -0.4,-0.639 -0.391,-1.043 0.019,-0.182 0.042,-0.363 0.112,-0.521 -0.201,0.117 -0.41,0.214 -0.638,0.265 -0.186,0.256 0,0.559 0.103,0.797 l 0.153,0.277 0.256,0.202 c 0.14,0 0.279,-0.006 0.405,0.023"
             fill-rule="nonzero"
             fill="#ed1c2e"
             id="path42" />
        </g>
        <g
           transform="translate(261.32809,60.767197)"
           id="g43">
          <path
             d="M 0,0 C 0.385,-0.166 0.529,-0.631 0.613,-1.021 0.59,-1.102 0.604,-1.195 0.549,-1.26 0.311,-1.301 0.111,-1.428 -0.1,-1.539 c 0.211,0.521 0.081,1.172 -0.277,1.562 z"
             fill-rule="nonzero"
             fill="#ed1c2e"
             id="path43" />
        </g>
        <g
           transform="translate(271.86909,58.403793)"
           id="g44">
          <path
             d="m 0,0 c 0.232,-0.418 0.283,-1.055 0,-1.465 -0.154,-0.804 -0.154,-1.67 0,-2.478 v -0.235 c -0.693,-0.804 -1.773,-1.33 -2.791,-1.674 -0.188,-0.087 -0.377,-0.171 -0.559,-0.279 0.284,-0.482 -0.101,-0.943 -0.101,-1.441 -0.033,-0.754 -0.033,-1.522 -0.303,-2.178 -1.262,-0.842 -2.867,-1.041 -4.396,-1.34 -1.397,-0.117 -2.639,-0.609 -3.83,-1.215 -1.25,-0.595 -2.604,-1.017 -4.112,-0.925 -2.41,0.052 -4.154,1.716 -6.463,2.019 -1.431,0.168 -2.808,0.471 -4.131,0.902 -0.334,0.149 -0.669,0.307 -0.962,0.526 -0.102,0.279 -0.159,0.582 -0.209,0.885 -0.047,0.753 -0.066,1.548 -0.27,2.255 -0.121,0.215 0.256,0.479 -0.065,0.569 -0.867,0.394 -1.815,0.646 -2.559,1.26 -0.214,0.154 -0.47,0.423 -0.638,0.605 0.037,0.693 0.168,1.385 0.103,2.121 0.032,0.455 -0.261,0.781 -0.288,1.215 -0.006,0.566 0.222,1.129 0.679,1.387 0.358,0.23 0.925,0.23 1.284,0 0.269,-0.178 0.502,-0.444 0.511,-0.791 0.028,-0.346 -0.176,-0.586 -0.232,-0.895 -0.117,-0.357 -0.229,-0.711 -0.289,-1.084 0.326,-0.32 0.713,-0.492 1.094,-0.758 l 2.033,-1.14 c 0.404,-0.213 0.814,-0.516 1.172,-0.758 0.214,-0.182 0.343,-0.488 0.256,-0.795 -0.335,-0.652 -0.628,-1.326 -0.94,-1.986 1.276,-0.535 2.805,-0.452 4.154,-0.805 1.768,-0.397 3.434,-1.029 5.114,-1.629 0.855,-0.215 1.861,-0.154 2.646,0.176 2.307,0.861 4.629,1.689 7.211,1.877 0.502,0.105 0.996,0.236 1.475,0.39 0.074,0.041 -0.024,0.12 -0.024,0.18 -0.297,0.625 -0.609,1.238 -0.892,1.867 -0.033,0.264 0.037,0.549 0.236,0.701 1.369,1.04 2.979,1.649 4.332,2.69 -0.101,0.558 -0.275,1.084 -0.478,1.596 -0.09,0.316 -0.061,0.74 0.199,0.963 0.283,0.32 0.74,0.447 1.195,0.367 C -0.479,0.572 -0.154,0.369 0,0"
             fill-rule="nonzero"
             fill="#000000"
             id="path44" />
        </g>
        <g
           transform="translate(271.59959,58.214401)"
           id="g45">
          <path
             d="m 0,0 c 0.102,-0.238 0.148,-0.564 0.023,-0.805 -0.066,-0.06 -0.093,-0.172 -0.177,-0.215 -0.018,0.223 -0.018,0.508 -0.047,0.75 -0.051,0.051 -0.121,0.088 -0.192,0.055 -0.125,-0.176 -0.185,-0.424 -0.422,-0.512 -0.154,-0.084 -0.359,-0.031 -0.511,0 -0.225,0.108 -0.35,0.346 -0.373,0.592 -0.004,0.215 0.107,0.418 0.271,0.535 0.264,0.166 0.688,0.213 0.981,0.045 C -0.242,0.358 -0.121,0.189 0,0"
             fill-rule="nonzero"
             fill="#bb9208"
             id="path45" />
        </g>
        <g
           transform="translate(242.4258,58.3022)"
           id="g46">
          <path
             d="m 0,0 c 0.088,-0.242 -0.006,-0.498 -0.136,-0.68 -0.148,-0.148 -0.395,-0.277 -0.646,-0.191 -0.242,0.06 -0.382,0.281 -0.446,0.504 -0.051,0.041 -0.126,0.054 -0.192,0.031 l -0.056,-0.045 c -0.028,-0.242 -0.037,-0.498 -0.032,-0.758 -0.251,0.153 -0.298,0.502 -0.232,0.795 0.088,0.34 0.34,0.684 0.711,0.744 C -0.647,0.498 -0.168,0.396 0,0"
             fill-rule="nonzero"
             fill="#bb9208"
             id="path46" />
        </g>
        <g
           transform="translate(271.1113,56.915604)"
           id="g47">
          <path
             d="M 0,0 -0.717,-0.557 C -0.834,-0.283 -0.844,0.027 -0.973,0.293 -0.643,0.15 -0.242,0.248 0.018,0.471 0.008,0.316 0.037,0.145 0,0"
             fill-rule="nonzero"
             fill="#ffd520"
             id="path47" />
        </g>
        <g
           transform="translate(242.2012,57.185104)"
           id="g48">
          <path
             d="m 0,0 c -0.018,-0.213 -0.135,-0.381 -0.157,-0.59 l -0.066,-0.246 -0.079,0.022 c -0.227,0.167 -0.466,0.359 -0.67,0.537 L -0.98,0.168 C -0.711,-0.021 -0.325,-0.176 0,0"
             fill-rule="nonzero"
             fill="#ffd520"
             id="path48" />
        </g>
        <g
           transform="translate(271.502,56.794403)"
           id="g49">
          <path
             d="M 0,0 C -0.043,-0.809 -0.08,-1.576 0.033,-2.367 L 0.018,-2.432 c -0.614,-0.703 -1.543,-1.171 -2.442,-1.453 l -0.797,-0.381 c -0.603,0.334 -1.441,0.215 -2.129,0.145 -0.168,0.023 -0.255,0.148 -0.289,0.303 0.034,0.334 0.446,0.455 0.67,0.646 0.246,0.199 0.59,0.303 0.869,0.494 1.438,0.762 2.862,1.682 4.1,2.678"
             fill-rule="nonzero"
             fill="#ffd520"
             id="path49" />
        </g>
        <g
           transform="translate(245.5742,53.7574)"
           id="g50">
          <path
             d="M 0,0 C 0.279,-0.176 0.572,-0.35 0.838,-0.566 0.902,-0.637 0.894,-0.74 0.926,-0.824 0.889,-0.949 0.833,-1.043 0.713,-1.094 -0.009,-1.084 -0.865,-0.889 -1.498,-1.26 -2.33,-0.75 -3.345,-0.656 -4.107,-0.01 -4.33,0.172 -4.545,0.326 -4.735,0.559 -4.764,0.935 -4.68,1.313 -4.68,1.697 -4.676,2.141 -4.684,2.586 -4.712,3.006 -3.27,1.815 -1.66,0.875 0,0"
             fill-rule="nonzero"
             fill="#ffd520"
             id="path50" />
        </g>
        <g
           transform="translate(268.18359,52.216293)"
           id="g51">
          <path
             d="M 0,0 C 0.08,-0.092 0.127,-0.24 0.088,-0.381 -0.162,-0.916 -0.832,-1.105 -1.353,-1.33 -1.58,-0.832 -1.836,-0.353 -2.031,0.158 -1.381,0.271 -0.566,0.356 0,0"
             fill-rule="nonzero"
             fill="#bb9208"
             id="path51" />
        </g>
        <g
           transform="translate(246.2119,52.352997)"
           id="g52">
          <path
             d="m 0,0 c -0.069,-0.211 -0.177,-0.404 -0.27,-0.605 -0.139,-0.313 -0.27,-0.6 -0.437,-0.903 -0.497,0.266 -1.182,0.377 -1.429,0.973 -0.023,0.121 -0.013,0.264 0.08,0.344 0.385,0.306 0.963,0.296 1.498,0.269 z"
             fill-rule="nonzero"
             fill="#bb9208"
             id="path52" />
        </g>
        <g
           transform="translate(268.03909,49.7379)"
           id="g53">
          <path
             d="m 0,0 c -0.055,-0.27 -0.068,-0.559 -0.158,-0.815 -1.213,-0.818 -2.768,-0.966 -4.233,-1.251 -1.302,-0.125 -2.49,-0.563 -3.605,-1.125 -1,-0.411 -1.983,-0.856 -3.104,-0.983 -1.181,-0.098 -2.335,0.014 -3.326,0.457 -1.381,0.436 -2.591,1.289 -4.066,1.506 -1.455,0.211 -2.93,0.434 -4.283,0.926 -0.289,0.099 -0.559,0.289 -0.797,0.437 -0.153,0.481 -0.162,1.034 -0.167,1.565 0,0.232 -0.083,0.431 -0.098,0.656 1.112,-0.676 2.326,-1.094 3.661,-1.238 2.452,-0.2 4.671,-0.953 6.834,-1.852 1.047,-0.349 2.406,-0.283 3.393,0.154 2.107,0.911 4.326,1.559 6.722,1.764 1.196,0.203 2.327,0.594 3.34,1.217 C 0.023,0.967 0,0.488 0,0"
             fill-rule="nonzero"
             fill="#ffd520"
             id="path53" />
        </g>
        <g
           transform="translate(246.3555,49.624603)"
           id="g54">
          <path
             d="m 0,0 c -0.014,-0.152 -0.083,-0.334 -0.246,-0.375 -0.186,-0.043 -0.386,0.004 -0.502,0.131 -0.094,-0.131 -0.088,-0.305 -0.135,-0.457 0.024,-0.033 0.084,-0.014 0.078,-0.065 -0.148,0.024 -0.31,0.075 -0.468,0.121 v 0.024 c 0.171,0.004 0.115,0.217 0.189,0.32 0.09,0.246 0.145,0.506 0.215,0.762 l -0.07,0.057 0.023,0.019 C -0.6,0.393 -0.041,0.467 0,0"
             fill-rule="nonzero"
             fill="#000000"
             id="path54" />
        </g>
        <g
           transform="translate(267.123,48.9879)"
           id="g55">
          <path
             d="m 0,0 c 0.024,-0.018 0.057,-0.018 0.09,-0.031 v -0.034 c -0.154,-0.033 -0.316,-0.064 -0.457,-0.101 0.014,0.037 0.098,0.051 0.066,0.125 l -0.16,0.223 -0.334,-0.069 c -0.06,-0.088 -0.07,-0.228 -0.033,-0.336 0.019,-0.047 0.084,0.006 0.09,-0.041 -0.113,-0.056 -0.242,-0.074 -0.369,-0.103 -0.014,0.004 0.006,0.056 0.033,0.056 0.037,0.395 0.121,0.782 0.103,1.186 -0.023,0.01 -0.039,0.023 -0.066,0.02 v 0.037 c 0.121,0.019 0.275,0.097 0.377,0.041 z"
             fill-rule="nonzero"
             fill="#000000"
             id="path55" />
        </g>
        <g
           transform="translate(246.04491,49.727997)"
           id="g56">
          <path
             d="m 0,0 c 0.027,-0.107 0.004,-0.223 -0.07,-0.303 -0.112,-0.082 -0.237,-0.031 -0.358,0 0.014,0.164 0.098,0.295 0.135,0.448 C -0.182,0.131 -0.057,0.098 0,0"
             fill-rule="nonzero"
             fill="#ffd520"
             id="path56" />
        </g>
        <g
           transform="translate(265.9043,49.849197)"
           id="g57">
          <path
             d="m 0,0 c 0.023,-0.051 -0.041,-0.074 -0.064,-0.121 -0.041,-0.404 -0.098,-0.805 -0.168,-1.195 -0.061,-0.047 -0.186,-0.057 -0.256,-0.034 -0.227,0.354 -0.442,0.68 -0.67,1.006 -0.028,0.018 -0.088,0 -0.078,0.057 0.166,0.035 0.347,0.068 0.502,0.111 0,-0.052 -0.108,-0.049 -0.071,-0.127 0.127,-0.226 0.266,-0.461 0.414,-0.67 l 0.034,0.047 c 0.037,0.256 0.07,0.512 0.07,0.781 -0.029,0.034 -0.104,-0.003 -0.104,0.057 C -0.26,-0.051 -0.125,-0.041 0,0"
             fill-rule="nonzero"
             fill="#000000"
             id="path57" />
        </g>
        <g
           transform="translate(247.40331,49.583603)"
           id="g58">
          <path
             d="m 0,0 c 0.042,-0.098 -0.042,-0.186 -0.032,-0.293 h -0.033 c -0.034,0.033 0.018,0.103 -0.047,0.127 -0.139,0.068 -0.321,0.088 -0.479,0.088 -0.042,-0.071 -0.052,-0.155 -0.065,-0.238 -0.029,-0.061 0.046,-0.069 0.079,-0.088 0.098,0 0.269,-0.104 0.312,0.046 -0.009,-0.097 -0.023,-0.238 -0.056,-0.349 -0.061,0.023 -0.056,0.137 -0.145,0.127 -0.088,-0.006 -0.199,0.055 -0.26,-0.016 0.004,-0.111 -0.046,-0.209 -0.043,-0.32 0.155,-0.051 0.317,-0.088 0.481,-0.111 0.102,0.013 0.092,0.121 0.167,0.154 0.009,-0.113 -0.052,-0.225 -0.079,-0.336 -0.335,0.014 -0.653,0.125 -0.982,0.182 -0.023,0.064 0.066,0.009 0.079,0.056 0.093,0.348 0.182,0.698 0.223,1.069 0.005,0.046 -0.047,0.046 -0.07,0.07 l 0.023,0.02 C -0.61,0.141 -0.308,0.06 0,0"
             fill-rule="nonzero"
             fill="#000000"
             id="path58" />
        </g>
        <g
           transform="translate(266.54289,49.3237)"
           id="g59">
          <path
             d="M 0,0 C -0.066,-0.029 -0.15,-0.029 -0.225,-0.043 -0.238,0.084 -0.201,0.195 -0.191,0.316 -0.125,0.209 -0.039,0.115 0,0"
             fill-rule="nonzero"
             fill="#ffd520"
             id="path59" />
        </g>
        <g
           transform="translate(248.6133,49.0914)"
           id="g60">
          <path
             d="m 0,0 c 0.014,-0.149 -0.098,-0.248 -0.205,-0.313 -0.051,-0.027 -0.158,0.016 -0.154,-0.078 l 0.247,-0.504 c 0.018,-0.021 0.074,-0.017 0.055,-0.064 l -0.38,0.057 c -0.098,0.209 -0.172,0.431 -0.29,0.632 l -0.037,-0.019 -0.064,-0.469 0.088,-0.07 -0.024,-0.02 c -0.148,0.043 -0.312,0.051 -0.464,0.076 0.003,0.055 0.083,0.028 0.111,0.092 0.07,0.344 0.125,0.698 0.168,1.061 C -0.973,0.414 -1.038,0.4 -1.02,0.455 -0.68,0.334 -0.061,0.478 0,0"
             fill-rule="nonzero"
             fill="#000000"
             id="path60" />
        </g>
        <g
           transform="translate(264.73241,49.179306)"
           id="g61">
          <path
             d="m 0,0 c 0.131,-0.242 0.111,-0.549 -0.033,-0.781 -0.162,-0.164 -0.422,-0.303 -0.694,-0.209 -0.283,0.084 -0.394,0.4 -0.431,0.67 0.014,0.226 0.111,0.451 0.334,0.566 0.14,0.074 0.33,0.084 0.488,0.047 C -0.195,0.238 -0.084,0.115 0,0"
             fill-rule="nonzero"
             fill="#000000"
             id="path61" />
        </g>
        <g
           transform="translate(263.33791,49.313995)"
           id="g62">
          <path
             d="M 0,0 C -0.07,-0.023 -0.053,-0.121 -0.043,-0.191 0.031,-0.52 0.119,-0.848 0.189,-1.182 0.111,-1.209 0.014,-1.279 -0.066,-1.205 c -0.256,0.252 -0.53,0.475 -0.782,0.713 l -0.023,-0.02 c 0.051,-0.275 0.117,-0.539 0.199,-0.795 0.033,-0.033 0.076,-0.037 0.127,-0.033 v -0.031 c -0.135,-0.02 -0.266,-0.053 -0.391,-0.08 0,0.037 0.061,0.037 0.065,0.08 -0.07,0.334 -0.125,0.674 -0.213,1.004 -0.006,0.068 -0.113,0.084 -0.121,0.121 l 0.391,0.088 c 0.236,-0.213 0.464,-0.418 0.714,-0.647 l 0.02,0.034 c -0.051,0.236 -0.108,0.472 -0.209,0.691 h -0.08 v 0.025 c 0.117,0.041 0.262,0.051 0.369,0.078 z"
             fill-rule="nonzero"
             fill="#000000"
             id="path62" />
        </g>
        <g
           transform="translate(248.25391,49.202698)"
           id="g63">
          <path
             d="m 0,0 c 0.061,-0.047 0.023,-0.135 0.033,-0.199 -0.028,-0.1 -0.107,-0.131 -0.2,-0.145 -0.074,-0.019 -0.135,0.031 -0.2,0 -0.01,0.125 0.051,0.287 0.074,0.432 C -0.186,0.078 -0.078,0.074 0,0"
             fill-rule="nonzero"
             fill="#ffd520"
             id="path63" />
        </g>
        <g
           transform="translate(264.3652,49.202698)"
           id="g64">
          <path
             d="M 0,0 C 0.135,-0.178 0.205,-0.408 0.158,-0.637 0.131,-0.707 0.074,-0.785 0,-0.814 c -0.135,-0.041 -0.285,0.009 -0.359,0.111 -0.12,0.168 -0.19,0.4 -0.12,0.601 0.055,0.079 0.083,0.143 0.19,0.18 C -0.178,0.092 -0.08,0.064 0,0"
             fill-rule="nonzero"
             fill="#ffd520"
             id="path64" />
        </g>
        <g
           transform="translate(250.3761,49.013199)"
           id="g65">
          <path
             d="m 0,0 c -0.005,-0.123 -0.038,-0.234 -0.056,-0.346 -0.028,-0.013 -0.042,0.014 -0.047,0.033 0.014,0.163 -0.134,0.213 -0.246,0.288 -0.093,0.009 -0.228,0.046 -0.299,-0.032 -0.041,-0.027 -0.037,-0.084 -0.037,-0.134 0.178,-0.243 0.727,-0.252 0.596,-0.69 -0.047,-0.129 -0.148,-0.203 -0.279,-0.246 -0.265,-0.055 -0.521,0.037 -0.739,0.154 -0.029,0.139 0.045,0.26 0.069,0.391 h 0.019 c -0.009,-0.111 0.056,-0.205 0.112,-0.279 0.125,-0.09 0.306,-0.155 0.461,-0.077 0.054,0.016 0.05,0.077 0.064,0.122 -0.014,0.103 -0.111,0.168 -0.199,0.201 -0.121,0.107 -0.331,0.135 -0.392,0.326 -0.009,0.135 0.005,0.26 0.103,0.357 C -0.619,0.254 -0.237,0.156 0,0"
             fill-rule="nonzero"
             fill="#000000"
             id="path65" />
        </g>
        <g
           transform="translate(251.5898,48.700699)"
           id="g66">
          <path
             d="m 0,0 c -0.027,-0.111 -0.023,-0.283 -0.098,-0.367 -0.013,0.105 -0.009,0.219 -0.125,0.256 -0.056,-0.006 -0.088,0.05 -0.154,0.031 -0.121,-0.301 -0.214,-0.613 -0.279,-0.936 l 0.089,-0.101 c -0.089,-0.031 -0.154,0.07 -0.247,0.064 -0.092,0.037 -0.223,0.024 -0.28,0.104 0.076,0.004 0.173,0.023 0.182,0.111 0.047,0.289 0.173,0.545 0.232,0.828 -0.088,0.065 -0.209,0.104 -0.31,0.065 -0.057,-0.037 -0.047,-0.131 -0.126,-0.121 L -0.99,0.279 C -0.66,0.186 -0.32,0.107 0,0"
             fill-rule="nonzero"
             fill="#000000"
             id="path66" />
        </g>
        <g
           transform="translate(261.34959,48.589401)"
           id="g67">
          <path
             d="m 0,0 0.033,-0.113 c -0.088,0.037 -0.172,0.131 -0.289,0.136 -0.152,-0.005 -0.316,-0.056 -0.381,-0.201 0.024,-0.064 0.041,-0.125 0.112,-0.148 0.242,-0.033 0.65,0.101 0.773,-0.201 0.055,-0.159 0.004,-0.338 -0.113,-0.448 -0.209,-0.148 -0.465,-0.216 -0.725,-0.199 -0.019,0.131 -0.094,0.242 -0.111,0.369 0.051,0.004 0.06,-0.07 0.111,-0.099 0.084,-0.078 0.205,-0.112 0.321,-0.078 0.107,0.041 0.242,0.07 0.279,0.199 -0.084,0.359 -0.545,0.043 -0.768,0.234 -0.078,0.055 -0.125,0.156 -0.135,0.26 -0.003,0.236 0.205,0.363 0.391,0.445 C -0.33,0.182 0.02,0.334 0,0"
             fill-rule="nonzero"
             fill="#000000"
             id="path67" />
        </g>
        <g
           transform="translate(252.1855,48.4449)"
           id="g68">
          <path
             d="m 0,0 c -0.079,0.027 -0.121,-0.043 -0.148,-0.09 -0.075,-0.287 -0.256,-0.543 -0.233,-0.859 0.078,-0.098 0.204,-0.155 0.334,-0.112 0.172,0.186 0.205,0.469 0.313,0.702 0.013,0.08 0.121,0.191 0,0.256 V -0.07 L 0.703,-0.223 C 0.689,-0.256 0.609,-0.242 0.6,-0.303 0.433,-0.619 0.461,-1.07 0.111,-1.262 c -0.293,-0.041 -0.586,0.067 -0.748,0.266 -0.121,0.414 0.196,0.726 0.233,1.117 -0.029,0.004 -0.057,0.047 -0.034,0.069 L 0,0.031 Z"
             fill-rule="nonzero"
             fill="#000000"
             id="path68" />
        </g>
        <g
           transform="translate(260.21091,48.499603)"
           id="g69">
          <path
             d="m 0,0 c -0.023,-0.018 -0.037,-0.051 -0.057,-0.078 0.118,-0.373 0.289,-0.721 0.424,-1.084 -0.051,-0.053 -0.125,-0.053 -0.185,-0.08 -0.336,0.177 -0.616,0.414 -0.95,0.582 0.041,-0.246 0.166,-0.489 0.28,-0.727 0.027,-0.054 0.111,-0.078 0.152,-0.064 -0.115,-0.031 -0.227,-0.131 -0.357,-0.158 l -0.01,0.013 c 0.07,0.02 0.047,0.117 0.033,0.168 -0.127,0.313 -0.248,0.633 -0.4,0.936 l -0.088,0.013 c 0.111,0.055 0.24,0.112 0.367,0.168 0.289,-0.168 0.535,-0.377 0.824,-0.517 l 0.014,0.013 c -0.113,0.206 -0.184,0.43 -0.293,0.635 -0.029,0.051 -0.09,0 -0.121,0.022 0.105,0.07 0.23,0.14 0.367,0.158"
             fill-rule="nonzero"
             fill="#000000"
             id="path69" />
        </g>
        <g
           transform="translate(254.0273,47.462494)"
           id="g70">
          <path
             d="m 0,0 c 0.02,-0.293 -0.125,-0.553 -0.381,-0.67 -0.363,-0.125 -0.707,0.07 -1.028,0.178 v 0.033 c 0.075,-0.025 0.102,0.045 0.135,0.088 l 0.335,0.906 C -0.906,0.605 -1,0.629 -0.972,0.68 -0.6,0.521 -0.078,0.467 0,0"
             fill-rule="nonzero"
             fill="#000000"
             id="path70" />
        </g>
        <g
           transform="translate(258.9492,47.815903)"
           id="g71">
          <path
             d="m 0,0 c 0.02,-0.045 0.051,-0.088 0.057,-0.145 -0.061,0.006 -0.145,0.141 -0.233,0.057 l -0.359,-0.144 c 0.014,-0.094 0.053,-0.204 0.097,-0.303 0.122,0.047 0.332,0.037 0.327,0.215 h 0.033 c 0.031,-0.112 0.07,-0.215 0.101,-0.326 -0.125,0.111 -0.283,-0.01 -0.404,-0.065 0.027,-0.127 0.074,-0.242 0.149,-0.35 0.172,0.061 0.357,0.084 0.501,0.215 v 0.166 h 0.034 l 0.088,-0.343 c -0.311,-0.122 -0.62,-0.247 -0.94,-0.336 0.117,0.113 -0.019,0.279 -0.055,0.41 l -0.242,0.685 c -0.027,0.036 -0.07,0.051 -0.113,0.041 v 0.022 c 0.295,0.14 0.605,0.228 0.912,0.328 z"
             fill-rule="nonzero"
             fill="#000000"
             id="path71" />
        </g>
        <g
           transform="translate(253.6465,47.663498)"
           id="g72">
          <path
             d="m 0,0 c 0.098,-0.111 0.064,-0.283 0.056,-0.424 -0.046,-0.168 -0.164,-0.228 -0.312,-0.293 -0.131,-0.01 -0.252,0.004 -0.349,0.078 0.093,0.27 0.186,0.545 0.302,0.791 C -0.182,0.148 -0.079,0.078 0,0"
             fill-rule="nonzero"
             fill="#ffd520"
             id="path72" />
        </g>
        <g
           transform="translate(254.7402,47.526901)"
           id="g73">
          <path
             d="m 0,0 c -0.121,-0.017 -0.127,-0.156 -0.178,-0.246 -0.101,-0.277 -0.199,-0.559 -0.279,-0.846 0.037,-0.006 0.037,-0.047 0.057,-0.07 -0.141,0.041 -0.298,0.098 -0.448,0.148 v 0.02 c 0.071,-0.02 0.098,0.031 0.135,0.078 0.094,0.33 0.215,0.646 0.321,0.973 l -0.055,0.088 0.023,0.013 z"
             fill-rule="nonzero"
             fill="#000000"
             id="path73" />
        </g>
        <g
           transform="translate(257.834,47.495606)"
           id="g74">
          <path
             d="M 0,0 C -0.039,-0.006 -0.023,-0.047 -0.047,-0.07 0.041,-0.414 0.135,-0.76 0.246,-1.094 L 0.344,-1.15 c -0.145,-0.069 -0.336,-0.041 -0.479,-0.112 0,0.047 0.055,0.047 0.078,0.076 -0.017,0.274 -0.107,0.522 -0.199,0.749 -0.047,-0.29 -0.09,-0.583 -0.137,-0.872 C -0.43,-1.34 -0.494,-1.34 -0.549,-1.353 l -0.49,0.748 H -1.07 c 0.06,-0.247 0.045,-0.526 0.142,-0.758 0.03,-0.047 0.09,-0.006 0.123,-0.033 -0.117,-0.047 -0.279,-0.069 -0.4,-0.088 l 0.078,0.088 c -0.041,0.363 -0.098,0.722 -0.168,1.07 -0.023,0.033 -0.074,0.014 -0.101,0.033 0.023,0.055 0.087,0.037 0.134,0.055 0.104,-0.004 0.201,0.066 0.289,0.023 0.153,-0.232 0.293,-0.488 0.469,-0.693 0.053,0.271 0.074,0.555 0.111,0.828 0.114,0.09 0.266,0.06 0.393,0.111 z"
             fill-rule="nonzero"
             fill="#000000"
             id="path74" />
        </g>
        <g
           transform="translate(255.4883,47.2397)"
           id="g75">
          <path
             d="m 0,0 c 0.006,-0.406 0.121,-0.758 0.145,-1.154 0.018,-0.014 0.033,-0.041 0.056,-0.041 v -0.033 c -0.159,0.013 -0.293,0.097 -0.457,0.097 -0.004,0.047 0.084,0.043 0.098,0.088 -0.004,0.148 0,0.377 -0.209,0.35 -0.205,0.115 -0.266,-0.098 -0.335,-0.223 C -0.73,-0.977 -0.637,-1 -0.637,-1.043 l -0.39,0.094 c 0,0.027 0.054,0.027 0.078,0.041 0.195,0.312 0.442,0.646 0.624,0.982 L -0.367,0.168 C -0.251,0.094 -0.01,0.186 0,0"
             fill-rule="nonzero"
             fill="#000000"
             id="path75" />
        </g>
        <g
           transform="translate(255.26559,46.690903)"
           id="g76">
          <path
             d="M 0,0 C -0.061,-0.006 -0.141,0.004 -0.2,0.031 -0.195,0.148 -0.089,0.26 -0.033,0.357 0.009,0.25 -0.02,0.115 0,0"
             fill-rule="nonzero"
             fill="#ffd520"
             id="path76" />
        </g>
      </g>
    </g>
  </g>
  <metadata
     id="metadata88">
    <rdf:RDF>
      <cc:Work
         rdf:about="">
        <dc:title>University of Southern Queensland</dc:title>
      </cc:Work>
    </rdf:RDF>
  </metadata>
</svg>
