<?xml version="1.0" encoding="UTF-8"?>
<svg xmlns="http://www.w3.org/2000/svg" version="1.1" viewBox="0 0 400 400">
  <defs>
    <style>
      .cls-1 {
        fill: #487629;
      }

      .cls-2 {
        fill: #1d1c1a;
      }

      .cls-3 {
        fill: #fae345;
      }

      .cls-4 {
        fill: #fff;
      }

      .cls-5 {
        fill: #f3c300;
      }

      .cls-6 {
        fill: #e1251b;
      }
    </style>
  </defs>
  <!-- Generator: Adobe Illustrator 28.6.0, SVG Export Plug-In . SVG Version: 1.2.0 Build 709)  -->
  <g>
    <g id="Layer_1">
      <g id="Layer_1-2" data-name="Layer_1">
        <g>
          <path class="cls-4" d="M200,8C94.1,8,8,94.1,8,200s86.2,192,192,192,192-86.2,192-192S305.9,8,200,8Z"/>
          <g>
            <path class="cls-1" d="M346.5,304.4c-23.6,30.1-52.3,46.2-55,43.1-1.3-1.5,8.4-13.6,13-19.1,9.7-11.6,19.3-23.3,28.4-35.5,4.1-5.5,21.7-31.4,27.5-26.8,7.1,5.5-1.3,22.5-13.8,38.4h0Z"/>
            <path class="cls-2" d="M292.6,349.2c-1,0-1.7-.3-2.2-.9-.8-.9-2.3-2.7,12.9-20.9,9.3-11.1,19.1-23.1,28.3-35.5.5-.6,1-1.4,1.7-2.4,9.1-12.7,18.5-24.6,24.5-25.5,1.2-.2,2.3.1,3.2.8,10.4,8.2-7.7,32.9-13.5,40.3h0c-21.2,27-47.6,43.9-54.9,44h-.1ZM358.6,266.8h-.3c-5.7.8-18,17.9-22.6,24.3-.7,1-1.3,1.8-1.8,2.5-9.2,12.4-19.1,24.4-28.4,35.6-6.5,7.8-11.6,14.9-12.6,17.3,4.8-.3,30.3-14.7,52.5-43h0c13.8-17.6,19.4-32.2,14-36.4-.2-.1-.4-.3-.8-.3h0Z"/>
          </g>
          <g>
            <path class="cls-1" d="M330.6,297.5c-24,29.8-53.5,44.9-56.1,41.7-1.2-1.5,8.7-13.4,13.4-18.8,10-11.4,19.9-22.8,29.2-34.8,4.2-5.4,22.4-30.8,28.2-26.1,6.9,5.7-3.4,24-14.7,38h0Z"/>
            <path class="cls-2" d="M275.8,341c-1.1,0-1.8-.3-2.4-.9-.8-1-2.2-2.7,13.5-20.6,9.5-10.9,19.7-22.6,29.2-34.7.5-.6,1.1-1.4,1.8-2.4,9.5-12.5,19.1-24.1,25.1-24.8,1.2-.2,2.3.2,3.1.9,10.1,8.3-10.4,34.7-14.6,40h0c-21.2,26.4-48.3,42.6-55.9,42.6h0ZM275.9,338.2h0c4.9,0,31-13.5,53.6-41.6,11.3-14,20.8-31.3,14.9-36.1-.2-.2-.5-.3-1.1-.3-5.7.7-18.5,17.4-23.3,23.8-.8,1-1.4,1.8-1.8,2.4-9.5,12.2-19.8,23.9-29.3,34.8-6.7,7.6-12.1,14.6-13,17h0Z"/>
          </g>
          <g>
            <g>
              <path class="cls-5" d="M377.2,236.6c-4.6,17.4-14.6,39.6-19.4,38.3s-2.6-25.4,2-42.9c4.6-17.4,9.9-21.7,14.7-20.4,4.8,1.3,7.3,7.5,2.8,25h0Z"/>
              <path class="cls-2" d="M358.3,276.3c-.4,0-.7,0-.9-.1-1.1-.3-4.6-1.2-3.6-16.8.5-8.6,2.3-18.9,4.6-27.8,2.2-8.4,4.7-14.3,7.5-17.8,2.7-3.3,5.6-4.5,8.9-3.6,3.2.9,5.2,3.4,5.9,7.5.8,4.5,0,10.7-2.2,19.1h0c-2.3,8.8-6,18.7-9.7,26.4-5.6,11.4-8.9,13-10.6,13h.1ZM372.9,212.7c-1.6,0-3.2.9-4.8,2.9-2.6,3.1-4.9,8.8-7,16.7-2.3,8.5-4,19-4.5,27.2-.7,10.9.9,13.8,1.5,14,.6.2,3.4-1.5,8.2-11.4,3.6-7.4,7.3-17.4,9.5-25.9h0c2.1-8,2.8-14,2.2-18-.5-3-1.8-4.8-3.9-5.3-.4-.1-.8-.2-1.2-.2h0Z"/>
            </g>
            <g>
              <path class="cls-5" d="M378.7,181.1c.7,16.4-2.2,38.2-6.7,38.4-4.5.2-9-21.3-9.7-37.7-.7-16.4,2.8-21.4,7.3-21.6,4.5-.2,8.4,4.6,9,20.9h0Z"/>
              <path class="cls-2" d="M371.9,220.8c-6.6,0-10.5-25.8-11-39.1-.3-8,.3-13.7,1.8-17.4,1.8-4.5,4.7-5.5,6.8-5.6,2.1-.1,5.1.7,7.2,5,1.8,3.7,2.9,9.3,3.2,17.2.5,13.3-1.3,39.5-8,39.8h-.1,0ZM369.9,161.5h-.2c-1.9,0-3.4,1.3-4.4,3.8-1.4,3.4-1.9,8.9-1.6,16.3.8,19.7,6,36.4,8.3,36.4h0c2.3-.1,6.2-17.2,5.4-36.9-.3-7.4-1.3-12.8-2.9-16.1-1.2-2.4-2.7-3.5-4.5-3.5h0Z"/>
            </g>
            <g>
              <path class="cls-5" d="M365.4,127.4c5.9,15.3,10.3,36.8,6.1,38.5-4.2,1.6-15.4-17.3-21.3-32.6-5.9-15.3-4.3-21.2,0-22.8,4.2-1.6,9.4,1.6,15.3,16.9h0Z"/>
              <path class="cls-2" d="M371,167.3c-6.5,0-17.7-21.7-22.2-33.5-2.9-7.4-4.2-13-3.9-17.1.3-4.8,2.7-6.7,4.7-7.5,1.9-.8,5.1-1,8.5,2.4,2.9,2.9,5.7,7.9,8.6,15.3,3,7.7,5.5,16.9,6.9,24.6,2.5,14.1-.6,15.2-1.6,15.7-.3.1-.6.2-.9.2h0ZM352,111.5c-.5,0-1,.1-1.5.3-1.8.7-2.8,2.4-2.9,5.1-.2,3.6,1,9,3.7,16,7.1,18.4,17.5,32.6,19.6,31.8.4-.2,1.6-2.8-.1-12.6-1.3-7.4-3.9-16.6-6.8-24.1h0c-2.7-6.9-5.3-11.8-8-14.3-1.4-1.4-2.8-2.1-4.1-2.1h0Z"/>
            </g>
            <g>
              <path class="cls-5" d="M335.5,79.3c11.2,14.2,22.7,35.5,18.8,38.6s-21.9-13.2-33-27.4c-11.2-14.2-11.3-20.9-7.4-24,3.9-3.1,10.5-1.3,21.6,12.9h0Z"/>
              <path class="cls-2" d="M353.1,119.5c-7.4,0-24.8-17.9-32.9-28.3-5.4-6.9-8.5-12.3-9.6-16.7-1-4.1-.2-7.2,2.5-9.3,2.6-2.1,5.9-2.1,9.6-.2,4,2.1,8.6,6.4,14,13.3,5.6,7.2,11.3,16,15.2,23.7,7.1,13.9,4.3,16.1,3.4,16.8-.6.4-1.2.6-2,.6h-.1ZM317.6,66.5c-1.1,0-2,.3-2.9,1-1.7,1.3-2.2,3.4-1.5,6.4,1,4,4.1,9.2,9.1,15.7,13.7,17.4,29,28.8,31.1,27.2.5-.4.8-3.7-4.1-13.4-3.7-7.4-9.5-16.3-14.9-23.2-5.1-6.5-9.5-10.7-13.1-12.5-1.4-.7-2.6-1.1-3.7-1.1h0Z"/>
            </g>
          </g>
          <g>
            <g>
              <path class="cls-5" d="M358.7,236.6c-4.6,17.4-14.6,39.6-19.4,38.3s-2.6-25.4,2-42.9c4.6-17.4,9.9-21.7,14.7-20.4,4.8,1.3,7.3,7.5,2.8,25h0Z"/>
              <path class="cls-2" d="M339.7,276.3c-.4,0-.7,0-.9-.1-7-1.8-2.8-30.4,1-44.6,2.2-8.4,4.7-14.2,7.5-17.8,2.7-3.2,5.6-4.5,8.9-3.6,3.2.9,5.2,3.4,5.9,7.5.8,4.5,0,10.7-2.2,19.1-2.3,8.8-6,18.7-9.7,26.4-5.6,11.4-8.9,13-10.6,13h.1ZM354.4,212.7c-1.6,0-3.2.9-4.8,2.9-2.6,3.1-4.9,8.8-7,16.7-5.7,21.4-5.4,40.5-3,41.2.6.2,3.4-1.5,8.2-11.4,3.6-7.4,7.3-17.4,9.5-25.9h0c2.1-8,2.8-14,2.2-18-.5-3-1.8-4.8-3.9-5.3-.4-.1-.8-.2-1.2-.2h0Z"/>
            </g>
            <g>
              <path class="cls-5" d="M360.1,181.1c.7,16.4-2.2,38.2-6.7,38.4-4.5.2-9-21.3-9.7-37.7-.7-16.4,2.8-21.4,7.3-21.6,4.5-.2,8.4,4.6,9,20.9h0Z"/>
              <path class="cls-2" d="M353.3,220.8c-6.6,0-10.5-25.8-11-39.1-.3-8,.3-13.7,1.8-17.4,1.8-4.5,4.7-5.5,6.8-5.6,6.5-.3,9.9,7,10.5,22.3h0c.5,13.3-1.3,39.5-8,39.8h-.1ZM351.2,161.5h-.2c-1.9,0-3.4,1.3-4.4,3.8-1.4,3.4-1.9,8.9-1.6,16.3.8,19.7,6,36.4,8.3,36.4h0c2.3-.1,6.2-17.2,5.4-36.9h0c-.4-9-1.9-19.7-7.4-19.7h0Z"/>
            </g>
            <g>
              <path class="cls-5" d="M346.8,127.4c5.9,15.3,10.3,36.8,6.1,38.5-4.2,1.6-15.4-17.3-21.3-32.6s-4.3-21.2,0-22.8c4.2-1.6,9.4,1.6,15.3,16.9h0Z"/>
              <path class="cls-2" d="M352.4,167.3c-6.5,0-17.7-21.7-22.2-33.5-2.9-7.4-4.2-13-3.9-17.1.3-4.8,2.7-6.7,4.7-7.5,2-.8,5.1-1,8.5,2.4,2.9,2.9,5.7,7.9,8.6,15.3h0c4.8,12.4,11.5,37.9,5.3,40.3-.3.1-.6.2-.9.2h0ZM333.5,111.5c-.5,0-1,.1-1.5.3-1.8.7-2.8,2.4-2.9,5.1-.2,3.6,1,9,3.7,16,7.1,18.4,17.4,32.6,19.6,31.8,2.1-.8.3-18.3-6.9-36.7-2.7-6.9-5.3-11.8-8-14.3-1.4-1.4-2.8-2.1-4.1-2.1h0Z"/>
            </g>
            <g>
              <path class="cls-5" d="M316.8,79.3c11.2,14.2,22.7,35.5,18.8,38.6s-21.9-13.2-33-27.4c-11.2-14.2-11.3-20.9-7.4-24,3.9-3.1,10.5-1.3,21.6,12.9h0Z"/>
              <path class="cls-2" d="M334.5,119.5c-7.5,0-24.8-17.9-32.9-28.3-10.3-13.1-12.7-21.7-7.2-26,2.6-2.1,5.9-2.1,9.6-.2,4,2.1,8.6,6.4,14,13.3,9,11.5,24.3,36,18.6,40.5-.6.4-1.2.6-2,.6ZM298.9,66.5c-1.1,0-2,.3-2.9,1-5,3.9,1.4,14.2,7.6,22.1,13.7,17.4,29,28.8,31.1,27.2s-5.3-19.2-19-36.6h0c-5.1-6.5-9.5-10.7-13.1-12.5-1.4-.7-2.6-1.1-3.7-1.1h0Z"/>
            </g>
          </g>
          <g>
            <path class="cls-5" d="M317.2,286.9c-10.8,14.5-28.3,31.3-32.3,28.3-4-3,7.1-24.5,17.9-39,10.8-14.5,17.2-16.4,21.2-13.4,4,3,4,9.7-6.8,24.2h0Z"/>
            <path class="cls-2" d="M286,316.8c-.7,0-1.4-.2-1.9-.6-.9-.7-3.7-2.8,3-16.9,3.7-7.7,9.2-16.7,14.6-24.1,10-13.4,17.6-17.9,23.1-13.8,2.7,2,3.5,5.1,2.7,9.2-1,4.4-4,10-9.2,16.9-8,10.7-24.9,29.1-32.3,29.1h0ZM320.5,262.9c-5,0-11.5,7.3-16.6,14.1-5.3,7.1-10.8,16.1-14.4,23.6-4.7,9.9-4.3,13.1-3.8,13.5,2.1,1.5,17.1-10.2,30.3-28,4.9-6.6,7.9-11.9,8.7-15.9.7-3,.2-5.1-1.6-6.4-.8-.6-1.7-.9-2.7-.9h0Z"/>
          </g>
          <g>
            <g>
              <path class="cls-5" d="M339.5,237.2c-4.6,17.4-14.6,39.6-19.4,38.3s-2.6-25.4,2-42.9c4.6-17.4,9.9-21.7,14.7-20.4,4.8,1.3,7.3,7.5,2.8,25h0Z"/>
              <path class="cls-2" d="M320.5,276.9c-.4,0-.7,0-.9-.1-1.1-.3-4.6-1.2-3.6-16.8.5-8.6,2.3-18.9,4.6-27.8,2.2-8.4,4.7-14.3,7.5-17.8,2.7-3.3,5.6-4.5,8.9-3.6,3.2.9,5.2,3.4,5.9,7.5.8,4.5,0,10.7-2.2,19.1h0c-2.3,8.8-6,18.7-9.8,26.4-5.6,11.4-8.9,13-10.6,13h.1ZM335.2,213.3c-1.6,0-3.2.9-4.8,2.9-2.6,3.1-4.9,8.8-7,16.7-2.3,8.5-4,19-4.5,27.2-.7,10.9.9,13.8,1.5,14,.6.2,3.4-1.5,8.2-11.4,3.6-7.4,7.3-17.4,9.5-25.9h0c2.1-8,2.8-14,2.2-18-.5-3-1.8-4.8-3.9-5.3-.4-.1-.8-.2-1.2-.2h0Z"/>
            </g>
            <g>
              <path class="cls-5" d="M340.9,181.7c.7,16.4-2.2,38.2-6.7,38.4-4.5.2-9-21.3-9.7-37.7-.7-16.4,2.8-21.4,7.3-21.6,4.5-.2,8.4,4.6,9,20.9h0Z"/>
              <path class="cls-2" d="M334.2,221.4c-6.6,0-10.5-25.8-11-39.1-.6-15.2,2.3-22.8,8.7-23,2.1-.1,5.1.7,7.2,5,1.8,3.7,2.9,9.3,3.2,17.2.3,8.3-.2,17.8-1.4,25.6-2.2,14.1-5.5,14.2-6.6,14.3h-.1,0ZM332.1,162.1h-.2c-5.6.2-6.4,11.1-6.1,20.2.8,19.7,6,36.4,8.3,36.4.5,0,2.4-2.1,4-12,1.2-7.4,1.7-17,1.4-25-.3-7.4-1.3-12.8-2.9-16.1-1.2-2.4-2.7-3.5-4.5-3.5h0Z"/>
            </g>
            <g>
              <path class="cls-5" d="M327.7,128c5.9,15.3,10.3,36.8,6.1,38.5-4.2,1.6-15.4-17.3-21.3-32.6s-4.3-21.2,0-22.8c4.2-1.6,9.4,1.6,15.3,16.9h0Z"/>
              <path class="cls-2" d="M333.2,167.9c-1.6,0-4.8-1.4-10.6-10.7-4.2-6.6-8.5-15.1-11.4-22.9-2.9-7.4-4.2-13-3.9-17.1.3-4.8,2.7-6.7,4.7-7.5,6-2.3,11.6,3.5,17.1,17.7h0c3,7.7,5.5,16.9,6.9,24.6,2.5,14.1-.6,15.2-1.6,15.7-.3.1-.6.2-1.1.2ZM314.3,112c-.5,0-1,.1-1.4.3-1.8.7-2.8,2.4-2.9,5.1-.2,3.6,1,9,3.7,16,2.9,7.4,7.2,16.1,11.2,22.4,5.3,8.4,8,9.5,8.4,9.4.4-.2,1.6-2.8-.1-12.6-1.3-7.4-3.9-16.6-6.8-24.1h0c-3-7.7-7.4-16.4-12.1-16.4h0Z"/>
            </g>
            <g>
              <path class="cls-5" d="M297.7,79.8c11.2,14.2,22.7,35.5,18.8,38.6s-21.9-13.2-33-27.4c-11.2-14.2-11.3-20.9-7.4-24,3.9-3.1,10.5-1.3,21.6,12.9h0Z"/>
              <path class="cls-2" d="M315.4,120.2c-2.1,0-5.9-1.4-13.5-8-6.5-5.6-13.8-13.2-19.4-20.4-10.3-13.1-12.7-21.7-7.2-26,5.5-4.3,13.2,0,23.6,13.1h0c5.6,7.2,11.3,16,15.2,23.7,7.1,13.9,4.3,16.1,3.4,16.8-.3.3-.9.7-2.1.7h0ZM279.8,67.1c-1,0-2,.3-2.8,1-5,3.9,1.4,14.2,7.6,22.1,5.4,6.9,12.7,14.6,19,20,8.3,7.1,11.5,7.6,12.1,7.2s.8-3.7-4.1-13.4c-3.7-7.4-9.5-16.3-14.9-23.2-5.2-6.6-11.9-13.6-16.8-13.6h0Z"/>
            </g>
          </g>
          <g>
            <path class="cls-1" d="M201.7,349.9s25.7,4,47.5-10.2l-4.8-2.8s16.7-1.3,28.6-11.1l-4.4-2s7.9-2.5,13.1-10.7l-3.1-1s7.5-5.5,7.5-21.4c0,0-11.1-.3-23.3,6.2l1.2-2.9s-15.5,3.5-24.9,10.8l.5-4.3s-14,3.4-27.2,14.2c-13.2,10.7-17.3,19.5-17.3,19.5,0,0-5.6,10.4,6.7,15.9h0Z"/>
            <path class="cls-2" d="M287.6,289.4h-1.3c-.4,0-9.7-.2-20.7,4.7l.9-2.1-2.6.6c-.6.2-13.4,3.1-22.9,9.2l.4-3.2-1.9.5c-.6.2-14.5,3.6-27.8,14.4-13.3,10.8-17.5,19.6-17.6,19.9-.1.2-2.5,4.8-.8,9.8,1.2,3.4,3.9,6.1,8.2,8h.4c.4.2,3.7.7,8.9.7,9.5,0,25.2-1.7,39.6-10.9l1.9-1.2-3.3-1.9c5.8-1,16.7-3.8,25.3-10.9l1.7-1.4-3.6-1.6c2.9-1.5,7.4-4.6,10.9-10l1-1.5-2.6-.8c2.4-2.8,6.3-9.1,6.3-20.8v-1.3h-.2ZM279.6,313.9c-4.8,6.5-11.3,8.6-11.3,8.7l-3.4,1.1,5.5,2.5c-11.2,8.2-25.9,9.4-26.1,9.4l-4.4.4,6.7,3.9c-19.8,11.7-42.2,9.1-44.4,8.8-3.4-1.5-5.6-3.6-6.5-6.2-1.3-3.8.6-7.6.7-7.7,0-.1,4.1-8.6,16.9-19,10-8.1,20.5-12,24.8-13.3l-.6,5.4,2.6-1.9c6.8-5.2,17-8.5,21.8-9.9l-1.6,3.8,3.3-1.7c7.9-4.1,15.3-5.4,19.4-5.8-6.6,7.1-14.1,13.1-21.8,18.2.3-.7.6-1.4.9-2.2.7-1.4,1.5-2.9,2.4-4.2.1-.2.1-.4,0-.5-.2-.2-.5-.2-.6,0-1.1,1.2-2.2,2.5-3.2,3.8-.5.7-1,1.4-1.4,2.1-.5.7-.9,1.4-1.3,2.3h0l-.4,1.1c-4.7,2.9-9.4,5.5-14.1,7.8.7-1.5,1.5-3,2.3-4.4,1.3-2.2,2.7-4.4,4.2-6.5.2-.2.1-.5-.1-.7s-.6-.2-.8,0c-1.7,1.9-3.4,4-4.9,6.2s-3,4.3-4.3,6.7h0l-.4.7c-21.4,9.9-39.6,13.3-39.9,13.3l.5,2.7c.3,0,19.8-3.7,42.2-14.4.6.2,1.1.3,1.6.4,1.1.2,2.3.4,3.4.5,2.3.3,4.5.4,6.7.5.2,0,.5-.2.5-.4s-.2-.5-.4-.6c-2.2-.4-4.4-.8-6.5-1.3-.7-.2-1.4-.4-2.1-.6,5-2.5,10.1-5.3,15.1-8.5.2,0,.5.2.7.2.9.2,1.8.4,2.7.5,1.8.3,3.6.4,5.4.3.3,0,.5-.2.6-.5,0-.3-.2-.6-.5-.7-1.7-.2-3.4-.6-5-1-.4-.2-.8-.3-1.3-.5,7.6-5.1,15-11.1,21.7-18.1-1,12.1-6.8,16.5-6.8,16.6l-2.2,1.6,3.9,1.2h.2Z"/>
          </g>
          <g>
            <path class="cls-1" d="M141.3,368.4s-24.4.9-42.6-15.6l4.9-2.2s-15.3-3.2-24.9-14.4l4.4-1.5s-6.9-3.4-10.6-12.2l3.7-.8s-6.5-5.5-3.3-22.5c0,0,8.7,3.5,19.2,11.2l-.4-4.9s13.9,5.3,21.6,13.6l.2-4.3s12.5,5,23.2,17.2c10.7,12.2,13.2,21.3,13.2,21.3,0,0,3.7,11-8.5,14.9h0Z"/>
            <path class="cls-2" d="M151.1,353.1c-.1-.4-2.7-9.6-13.5-21.9-10.8-12.3-23.2-17.4-23.8-17.6l-1.8-.7-.2,3.1c-8-7.1-19.3-11.5-19.9-11.8l-2.1-.8.4,4.1c-9.3-6.6-16.7-9.5-17-9.6l-1.5-.6-.3,1.6c-2.3,12.3.4,18.9,2.2,21.9l-3.2.7.7,1.5c2.5,5.8,6.3,9.3,8.7,11.2l-3.6,1.2,1.3,1.5c7,8.1,16.7,12.1,22,13.8l-3.3,1.5,1.5,1.4c16.7,15.1,37.9,16,42.7,16s.9,0,.9,0h.4c4.2-1.4,7-3.7,8.6-6.8,2.4-4.8.8-9.7.7-9.9h.1ZM147.9,361.7c-1.2,2.4-3.5,4.2-6.8,5.3-2.2,0-23.3,0-39.9-13.9l6.7-3.1-4.1-.9c-.2,0-13.5-2.9-22.8-12.4l5.5-1.8-3-1.5c0,0-5.7-2.9-9.3-9.9l4.8-1-2.1-1.8c0,0-4.9-4.6-3.4-17.7,5,7.5,10.8,14.3,16.9,20.2-.1,0-.2,0-.3,0-.7.2-1.5.4-2.3.5-1.5.4-3.1.5-4.8.8h0c-.2,0-.4.2-.5.4-.1.3.1.7.4.8.8.3,1.7.5,2.6.6.9.2,1.7.2,2.6.2s1.7-.1,2.7-.3c.8-.2,1.4-.3,2.2-.6,7.1,6.5,14.4,11.9,21.3,16.3-1,.2-2,.4-3,.5-2.1.3-4.1.5-6.2.6-.2,0-.4.2-.5.4,0,.3.2.5.4.5,2.1.2,4.2.3,6.3.3s2.1,0,3.2-.1c.9-.1,1.7-.2,2.7-.4,15,9.2,27,13.5,27.2,13.6l.9-2.6c-.3-.1-12.1-4.3-26.9-13.4-.8-2.3-1.7-4.4-2.8-6.5-1.1-2.3-2.4-4.5-3.7-6.7-.2-.2-.5-.3-.7-.2-.3.2-.4.5-.3.7,1.1,2.3,2.1,4.6,2.9,6.9.4,1.2.8,2.4,1.2,3.6-13-8.5-27.8-20.5-38.8-36.7,3.5,1.8,8.8,4.7,14.6,9l2.5,1.8-.5-5.6c4.1,1.8,13.4,6.3,19,12.4l2.3,2.4.3-5.5c3.8,1.8,12.9,6.9,20.9,16,10.4,11.8,12.9,20.7,13,20.9,0,0,1.3,4.1-.6,7.8h-.2Z"/>
          </g>
          <g>
            <path class="cls-1" d="M158,356.7s-24.3.7-42.7-15.4l4.8-2.1s-15.3-3.3-25-14.1l4.3-1.3s-7-3.3-10.7-11.8l3.7-.7s-6.5-5.3-3.6-21.7c0,0,8.7,3.4,19.2,11l.8-7.4s12.7,8,20.4,16l.2-4.1s12.5,5,23.3,16.8c10.8,11.8,13.4,20.6,13.4,20.6,0,0,3.8,10.6-8.3,14.2h0Z"/>
            <path class="cls-2" d="M167.6,342.1c-.1-.4-2.8-9.3-13.8-21.2s-23.3-16.9-23.9-17.1l-1.8-.7v2.9c-7.8-7.2-18.1-13.6-18.5-14l-1.8-1.2-.8,7.2c-9.6-6.6-17.3-9.6-17.6-9.8l-1.5-.6-.3,1.6c-2.1,11.6.5,18.1,2.4,21l-3.2.6.7,1.6c2.5,5.5,6.2,9,8.7,10.8l-3.5,1.1,1.4,1.6c7,7.8,16.6,11.8,21.9,13.4l-3.3,1.4,1.6,1.4c17.3,15.1,39.3,15.8,43.1,15.8s.5,0,.6,0h.4c4.2-1.3,7.1-3.5,8.6-6.6,2.3-4.6.7-9.3.6-9.4h-.1ZM164.5,350.3c-1.2,2.3-3.4,4-6.7,5-2.2,0-23.2-.3-39.9-13.7l6.8-2.9-4.2-.9c-.2,0-13.4-3-22.8-12.1l5.5-1.7-3.1-1.5c0,0-5.7-2.8-9.3-9.5l4.8-.9-2.2-1.9c0,0-4.9-4.4-3.6-16.9,6.8,9.9,15.1,18.2,23.6,25.2l-2,.3c-1.5.3-3.1.4-4.8.8-.2,0-.4.2-.5.4-.1.3,0,.7.4.8,1.6.6,3.4.8,5.1.8.9,0,1.7-.1,2.6-.4.6-.2,1.2-.4,1.7-.6,5,4,10.1,7.4,14.8,10.4-.9.2-1.9.4-2.8.5-2.1.3-4.1.4-6.2.5-.2,0-.4.2-.5.4,0,.3.2.5.4.5,2.1.2,4.2.4,6.3.4h3.2c.9,0,1.7-.1,2.7-.3,15.1,9,27,13.2,27.3,13.3l.9-2.6c-.3-.1-12.1-4.3-27-13.2-.9-2.2-1.8-4.2-2.9-6.3-1.1-2.2-2.4-4.4-3.7-6.5-.2-.2-.5-.3-.7-.2-.3.2-.4.5-.3.7,1.1,2.2,2.1,4.4,2.9,6.7.4,1.1.8,2.2,1.2,3.3-13-8.2-27.8-19.9-38.9-35.5,3.5,1.7,8.7,4.6,14.5,8.8l1.9,1.4.8-7.5c3.8,2.5,12.5,8.5,18.3,14.5l2.3,2.3.2-5.3c3.8,1.8,13,6.8,21,15.7,10.5,11.4,13.1,20,13.1,20.2,0,0,1.3,3.9-.5,7.4v.2Z"/>
          </g>
          <g>
            <path class="cls-1" d="M173.1,329.9s-21.5,2.9-39.2-10l4.1-2.4s-13.9-1.5-23.4-10.4l3.7-1.6-1-1c-7.9-7.3-13.8-13.6-13-24.4v-.5s9.7-1.8,19.7,4l-.8-4.2s12.8,3.4,20.4,10l-.2-3.7s11.5,3.3,22.2,13c10.6,9.6,13.7,17.4,13.7,17.4,0,0,4.3,9.2-6.1,13.6h0Z"/>
            <path class="cls-2" d="M180.4,315.8c-.2-.3-3.3-8.2-14.1-17.9-10.7-9.8-22.2-13.1-22.7-13.3l-1.9-.6.2,2.7c-7.7-5.4-18-8.2-18.5-8.4l-2.2-.6.7,3.5c-9.3-4.4-17.7-2.9-18.1-2.8l-1,.2v1.5c-.9,11.1,5.2,18,12.8,25l-3.7,1.6,1.5,1.4c6.7,6.3,15.4,9,20.4,10.1l-2.7,1.5,1.7,1.2c12.5,9.1,26.7,10.5,34.4,10.5s5.5-.3,5.7-.3h.4c3.6-1.6,6-3.9,7.1-6.8,1.7-4.4-.2-8.6-.3-8.7h0ZM178.1,323.5c-.8,2.2-2.7,3.8-5.4,5.1-2,.2-20.4,1.9-36.3-8.5l5.9-3.4-4.2-.5c-.1,0-12-1.4-21-8.6l3.6-1.6-2.6-2.4c-6.7-6.2-12-11.7-12.6-20,6.7,7.8,14.5,14,22.4,18.9-.5.2-1,.3-1.4.4-1.3.4-2.7.7-4.2,1.2h0c-.2,0-.4.2-.4.4-.1.3.1.7.4.8.8.2,1.5.3,2.3.4.8,0,1.5,0,2.4,0,.8-.1,1.5-.3,2.3-.5.6-.2,1.1-.5,1.7-.8,21.9,12.7,43.7,15.9,44,15.9l.4-2.7c-.5,0-43.3-6.4-68.5-36.6,3.4-.1,9.8.3,16.3,4.1l2.7,1.5-1-5c3.9,1.3,12.3,4.4,17.7,9l2.5,2.2-.3-4.9c3.6,1.3,12,5,19.8,12.1,10.2,9.3,13.3,16.8,13.4,16.9,0,0,1.5,3.4.2,6.7h.1Z"/>
          </g>
          <g>
            <g>
              <path class="cls-1" d="M210.9,356.2s-24.6,8.2-48.5-2.1l4.3-3.6s-16.7,1.5-30.1-6.2l4-2.7s-8.2-1.1-14.7-8.4l3.6-1.8s-8.4-3.3-10.6-20.4c0,0,10,.7,23.2,4.9l-2-4.5s15.9.9,26.4,6.5l1.5-2.6s11.7-.5,26.5,7.9c14.8,8.4,20.3,16.3,20.3,16.3,0,0,7.2,9.3-3.9,16.7h0Z"/>
              <path class="cls-2" d="M188.9,360.7c-8.1,0-17.6-1.2-27.1-5.3l-2.1-.9,2.9-2.5c-5.9,0-17.1-.9-26.8-6.5l-1.9-1.1,3.3-2.2c-3.1-1-8.1-3.3-12.4-8l-1.2-1.3,3.1-1.6c-2.9-2.3-7.6-7.8-9.1-20.1l-.2-1.6h1.7c.4.1,8.9.8,20.6,4.2l-1.7-3.8h2.3c.6.1,15.2,1,25.8,6.1l1.3-2.1h.7c.5,0,12.3-.5,27.2,8,14.9,8.4,20.5,16.4,20.7,16.7.1.1,3.3,4.3,2.4,9.5-.6,3.5-2.8,6.6-6.7,9.2l-.3.2c-.6.2-9.9,3.2-22.4,3.2h0ZM165,353.7c21.4,8.2,43.2,1.9,45.3,1.2,3.1-2.1,4.9-4.5,5.3-7.2.7-4.1-1.9-7.4-1.9-7.4-.1-.2-5.5-7.9-19.9-16-12.2-6.9-22.3-7.6-25-7.6l-1.8,3-1.1-.6c-7.7-4.1-18.8-5.6-23.6-6.1l2.3,5.2-2.9-.9c-9.7-3.1-17.8-4.3-21.1-4.7,2.4,14.5,9.4,17.6,9.4,17.6l2.8,1.1-4.6,2.4c5.9,5.6,12.6,6.6,12.6,6.6l3.5.5-5.1,3.4c12.5,6.2,27.1,5,27.2,5l4.4-.4-5.9,4.9h0Z"/>
            </g>
            <path class="cls-2" d="M210.8,344.7c-.6,0-54.9-1.9-92.8-32.7l1.7-2.2c37.2,30.1,90.6,32,91.2,32.1v2.8Z"/>
            <path class="cls-2" d="M168.3,326.6c2.1,1.6,4,3.4,5.8,5.2,1.9,1.8,3.6,3.7,5.3,5.9h0l.9,1.1-1.2.7c-1.2.8-2.2,1.1-3.3,1.5-1.1.4-2.2.7-3.2,1-2.2.6-4.4,1.1-6.5,1.6-.3,0-.5-.1-.6-.4,0-.3.1-.5.3-.5,2.1-.7,4.2-1.5,6.2-2.4,1-.5,2-.9,2.9-1.4.9-.5,1.9-1.1,2.5-1.6l-.3,1.8h0c-1.3-2.1-2.9-4.2-4.5-6.2-1.6-2-3.3-3.9-5.2-5.7-.2-.2-.2-.6,0-.8s.5-.2.7,0h.1Z"/>
            <path class="cls-2" d="M148.6,321.5c1.7,1.3,3.3,2.9,4.7,4.5,1.4,1.6,2.8,3.3,4.1,5.2h0l.7,1.1-1,.7c-.9.6-1.7,1-2.6,1.4-.9.4-1.7.7-2.6,1-1.7.6-3.5.9-5.3,1.2-.3,0-.6-.2-.7-.5,0-.3.2-.6.4-.7,1.6-.5,3.3-1.1,4.8-1.8.8-.4,1.5-.8,2.2-1.2.7-.4,1.4-1,1.9-1.4l-.3,1.7h0c-.9-1.8-1.9-3.7-3.1-5.4-1.1-1.7-2.4-3.4-3.8-5-.2-.2-.2-.4,0-.6.2-.2.4-.2.6,0Z"/>
          </g>
          <g>
            <g>
              <path class="cls-1" d="M193.9,371.8s-24.1,10.2-48.6.2l4.1-4.2s-16.6,2.5-30.4-5.3l3.8-3.1s-8.3-.8-15.2-8.4l3.5-2.2s-8.6-3.2-11.8-21.8c0,0,10,.3,23.5,4.2l-2.3-4.8s16,.2,26.7,5.7l-1.4-4.5s14.4.4,29.8,8.8,21.3,16.8,21.3,16.8c0,0,7.8,9.9-2.9,18.5h0Z"/>
              <path class="cls-2" d="M197.9,352.5c-.3-.4-6.3-8.8-21.8-17.2-15.4-8.5-29.8-9-30.4-9h-1.9c0,0,1.1,3.3,1.1,3.3-10.6-4.4-23.9-4.6-24.5-4.6h-2.2l1.9,4.1c-12-3.2-20.5-3.4-20.9-3.4h-1.7l.3,1.6c2.4,13.6,7.6,19.3,10.6,21.6l-3,1.9,1.1,1.2c4.7,5.1,10,7.3,13.2,8.2l-3.2,2.6,1.7,1c10.2,5.7,21.7,6.1,27.5,5.7l-2.9,2.9,1.9.8c8.3,3.4,16.5,4.6,23.8,4.6,14.4,0,25.2-4.5,25.9-4.8l.3-.2c11.6-9.4,3.2-20.3,3.1-20.4h0ZM193.2,370.6c-2.2.9-23.5,8.9-45.5.9l5.5-5.6-4.1.6c-.2,0-14.8,2.2-27.7-4.2l4.8-4-3.3-.4c0,0-6.9-.8-13.2-6.8l4.3-2.8-2.5-1c0,0-6.8-2.9-10.2-17.2,10.8,8.1,22.6,13.9,34,18.1,0,0-.1.1-.2.2-.7.5-1.4,1-2.1,1.4-1.5.9-3.1,1.6-4.7,2.3-.3.1-.4.4-.4.7,0,.3.4.5.7.5,1.8-.4,3.5-.9,5.2-1.6.9-.4,1.7-.8,2.5-1.2.6-.4,1.2-.7,1.7-1.1,6.6,2.3,13.1,4.1,19.1,5.4-.1,0-.2.1-.3.2-.9.6-1.8,1.1-2.8,1.6-1.9,1.1-4,2-6,2.9-.2.1-.3.3-.3.6s.3.4.6.3c2.2-.6,4.3-1.3,6.5-2.1s2.1-.8,3.2-1.3c.9-.5,1.7-.8,2.6-1.4,16.8,3.4,29.5,3.6,32,3.6s.4,0,.4,0v-2.8c-.3,0-13.8.2-32.1-3.5-1.7-2-3.4-3.8-5.2-5.6-2-1.9-4.1-3.7-6.2-5.5-.2-.2-.5-.2-.7,0-.2.2-.2.6,0,.8,1.9,1.9,3.8,3.9,5.5,6,.9,1.1,1.8,2.3,2.8,3.5-5.8-1.3-12.1-3-18.5-5.3-.4-.6-.9-1.1-1.3-1.6-.6-.7-1.2-1.3-1.9-1.9-1.3-1.2-2.7-2.4-4.1-3.4-.2-.1-.4-.1-.6,0-.2.2-.2.4,0,.6,1.2,1.3,2.3,2.6,3.2,4,.2.3.4.6.6.9-10.4-4-21-9.3-30.8-16.5,4.2.5,10.7,1.5,18.5,3.8l2.9.9-2.6-5.5c4.7.3,15.9,1.3,23.9,5.5l2.9,1.5-1.8-5.7c4.4.5,15.6,2.2,27.2,8.5,14.8,8.1,20.8,16.3,20.9,16.5.3.4,6.7,8.8-2.5,16.4v.2Z"/>
            </g>
            <g>
              <path class="cls-1" d="M206.1,371.8s24.1,10.2,48.6.2l-4.1-4.2s16.6,2.5,30.4-5.3l-3.8-3.1s8.3-.8,15.2-8.4l-3.5-2.2s8.6-3.2,11.8-21.8c0,0-9,0-22.4,3.9l4.4-5.2s-19.1.9-29.9,6.4l1.4-4.5s-14.4.4-29.8,8.8c-15.3,8.4-21.3,16.8-21.3,16.8,0,0-7.8,9.9,2.9,18.5h0Z"/>
              <path class="cls-2" d="M302.2,327.3l.3-1.6h-1.6c-.4,0-7.5,0-18.5,2.8l3.6-4.2-3.2.2c-.7,0-16.6.8-27.6,5.2l1.1-3.4h-1.9c-.6,0-14.9.6-30.4,9-15.4,8.5-21.5,16.9-21.7,17.2-.1.1-8.5,11,3.1,20.4l.3.2c.7.3,11.4,4.8,25.9,4.8s15.5-1.1,23.8-4.6l1.9-.8-2.9-2.9c5.8.3,17.3,0,27.5-5.7l1.7-1-3.2-2.6c3.2-.9,8.5-3.1,13.2-8.2l1.1-1.2-3-1.9c3-2.2,8.2-8,10.6-21.6h0ZM288.5,347.5l-2.6,1,4.4,2.8c-6.3,6-13.1,6.8-13.2,6.8l-3.3.4,4.8,3.9c-12.9,6.3-27.6,4.2-27.7,4.2l-4.1-.6,5.5,5.6c-22,8-43.3,0-45.5-.9-9.2-7.6-2.8-16.1-2.5-16.5,0-.1,6-8.3,20.8-16.4,11.6-6.4,22.8-8.1,27.2-8.5l-1.8,5.7,2.9-1.5c7.8-4,20.3-5.5,26.1-6l-5.3,6.3,4.4-1.3c7.5-2.3,13.7-3.2,17.6-3.6-9.9,7.2-20.6,12.6-30.9,16.6.2-.3.4-.6.6-.9,1-1.4,2.1-2.7,3.2-4,.2-.2.2-.4,0-.6-.2-.2-.4-.2-.6-.1-1.4,1-2.8,2.2-4.1,3.4-.7.6-1.3,1.2-1.9,1.9-.5.5-.9,1-1.3,1.6-6.4,2.3-12.7,4-18.5,5.3.9-1.2,1.8-2.4,2.8-3.5,1.7-2.1,3.6-4.1,5.5-6,.2-.2.2-.5,0-.7s-.5-.3-.8-.1c-2.2,1.7-4.3,3.5-6.2,5.5-1.8,1.8-3.5,3.6-5.2,5.6-18.3,3.7-31.8,3.5-32,3.5v2.8h.4c2.5,0,15.2-.2,32-3.6.9.6,1.7,1,2.6,1.4,1,.5,2.1.9,3.2,1.3,2.1.8,4.3,1.5,6.5,2.1.2,0,.5,0,.6-.3.1-.3,0-.5-.3-.6-2.1-.9-4.1-1.8-6-2.9-1-.5-1.9-1.1-2.8-1.6,0,0-.2-.1-.3-.2,6.1-1.3,12.5-3.1,19.1-5.4.6.4,1.1.8,1.7,1.1.8.5,1.6.9,2.5,1.2,1.7.7,3.5,1.2,5.2,1.6.3,0,.6-.1.7-.4.1-.3,0-.7-.4-.8-1.6-.6-3.2-1.4-4.7-2.3-.7-.5-1.4-.9-2.1-1.4,0,0-.1-.1-.2-.2,11.4-4.2,23.1-10,34-18.1-3.4,14.3-10.1,17.1-10.2,17.2h.1Z"/>
            </g>
          </g>
          <path class="cls-2" d="M200,83.4c-64.3,0-116.6,52.3-116.6,116.6s52.3,116.6,116.6,116.6,116.6-52.3,116.6-116.6-52.3-116.6-116.6-116.6Z"/>
          <circle class="cls-5" cx="200" cy="200" r="75.3"/>
          <path class="cls-2" d="M200,395c-107.5,0-195-87.5-195-195S92.5,5,200,5s195,87.5,195,195-87.5,195-195,195ZM200,8C94.1,8,8,94.1,8,200s86.2,192,192,192,192-86.2,192-192S305.9,8,200,8Z"/>
          <g>
            <g>
              <ellipse class="cls-4" cx="215.3" cy="34.1" rx="17.4" ry="18.5" transform="translate(123.9 232) rotate(-74.2)"/>
              <path class="cls-2" d="M215.9,53c-1.8,0-3.8-.3-5.7-.8-5.1-1.4-9.3-4.7-12-9.1-2.7-4.4-3.4-9.5-2-14.4s4.7-8.8,9.2-11.2,9.9-2.9,14.9-1.4,9.3,4.7,12,9.1c2.7,4.4,3.4,9.5,2,14.4-2.3,8.2-10,13.4-18.5,13.4h0ZM214.7,18c-2.8,0-5.5.7-8,2-3.9,2.1-6.7,5.4-7.9,9.5-1.2,4.1-.6,8.4,1.7,12.2,2.3,3.8,6,6.6,10.4,7.9,9.1,2.6,18.4-2.3,20.8-10.7,1.2-4.1.6-8.4-1.7-12.2-2.3-3.8-6-6.6-10.4-7.9-1.6-.5-3.3-.7-5-.7h0Z"/>
            </g>
            <g>
              <ellipse class="cls-4" cx="184.6" cy="34.2" rx="18.5" ry="17.4" transform="translate(-2.3 51.6) rotate(-15.8)"/>
              <path class="cls-2" d="M184.1,53c-8.5,0-16.2-5.3-18.5-13.4h0c-2.8-10,3.4-20.5,14-23.5,10.5-3,21.4,2.7,24.2,12.7,2.8,10-3.4,20.5-14,23.5-1.9.5-3.8.8-5.7.8ZM168.2,38.8c2.4,8.5,11.8,13.3,20.8,10.7,9.1-2.6,14.5-11.5,12.1-20.1-2.4-8.5-11.8-13.3-20.8-10.7-9.1,2.6-14.5,11.5-12.1,20.1h0Z"/>
            </g>
          </g>
          <g>
            <circle class="cls-4" cx="200" cy="41.6" r="17.3"/>
            <path class="cls-2" d="M200,60.3c-10.3,0-18.7-8.4-18.7-18.7s8.4-18.7,18.7-18.7,18.7,8.4,18.7,18.7-8.4,18.7-18.7,18.7h0ZM200,25.7c-8.8,0-15.9,7.1-15.9,15.9s7.1,15.9,15.9,15.9,15.9-7.1,15.9-15.9-7.1-15.9-15.9-15.9Z"/>
          </g>
          <g>
            <g>
              <g>
                <path class="cls-1" d="M207.7,51.8s27.4-41.5,74.8-4.6c0,0-40.5,18.1-74.8,4.6Z"/>
                <path class="cls-2" d="M236,58.1c-9.4,0-19.3-1.3-28.7-5.1l-.7-2.1c.5-.7,11.2-16.6,31-19.9,14.5-2.4,29.9,2.7,45.7,15l-.3,2.4c-.3.2-22,9.7-47.1,9.7ZM210,51.1c28.5,10.3,61.2-.9,69.8-4.3-14.5-10.8-28.5-15.1-41.7-13-15.3,2.5-25.1,13.4-28.2,17.3h0Z"/>
              </g>
              <g>
                <path class="cls-1" d="M212.6,66.4s5.8,16.3,26.2,19.9c20.4,3.6,36.7-.1,48.3,8.7,0,0-18.7-44.5-74.5-28.6h0Z"/>
                <path class="cls-2" d="M290.4,99.3l-4.1-3.1c-7.1-5.4-16.5-5.9-27.3-6.5-6.1-.3-13-.7-20.4-2-20.9-3.7-27-20.1-27.2-20.8l-.5-1.4,1.4-.4c29.4-8.4,48.5.1,59.4,8.6,11.8,9.2,16.6,20.3,16.8,20.8l2,4.8h0ZM214.5,67.3c1.8,3.9,8.4,14.8,24.5,17.7,7.2,1.3,13.8,1.6,20.1,1.9,9.3.5,17.5.9,24.5,4.4-6.3-10.5-26.1-35.5-69.1-23.9h0Z"/>
              </g>
              <g>
                <path class="cls-1" d="M212.6,66.4s8.9-9.7,23.7-16.5c22.4-10.2,55.5-24.7,95.1,24.5,0,0-7.7-8.8-31.7-7.4-13,.8-21,1.5-37.2,0-17.6-1.6-29.9-6.4-49.9-.6h0Z"/>
                <path class="cls-2" d="M330.4,75.3c0,0-7.8-8.3-30.6-6.9l-3.3.2c-11.1.7-19.2,1.2-34.1-.2-4.5-.4-8.6-1-12.6-1.6-11.9-1.7-22.1-3.3-36.8,1l-1.4-2.3c.4-.4,9.3-10,24.2-16.8,21-9.6,56.1-25.7,96.7,24.8l-2.1,1.8ZM304.8,65.5c9.2,0,15.8,1.6,20.1,3.3-36.8-41-67.4-27-88-17.7-8.9,4.1-15.6,9.2-19.5,12.6,12.7-2.7,22.5-1.3,32.8.3,4,.6,8.1,1.2,12.5,1.6,14.6,1.3,22.6.9,33.6.2l3.3-.2c1.8-.1,3.5-.2,5.1-.2h0Z"/>
              </g>
            </g>
            <g>
              <g>
                <path class="cls-1" d="M191.7,51.8s-27.4-41.5-74.8-4.6c0,0,40.5,18.1,74.8,4.6h0Z"/>
                <path class="cls-2" d="M163.5,58.1c-25,0-46.8-9.5-47.1-9.7l-.3-2.4c15.9-12.3,31.3-17.4,45.7-15,19.9,3.3,30.6,19.2,31,19.9l-.7,2.1c-9.4,3.7-19.3,5.1-28.7,5.1ZM119.7,46.8c8.7,3.4,41.4,14.6,69.8,4.3-3.1-3.9-12.9-14.8-28.2-17.3-13.1-2.2-27.1,2.2-41.7,13h0Z"/>
              </g>
              <g>
                <path class="cls-1" d="M186.9,66.4s-5.8,16.3-26.2,19.9c-20.4,3.6-36.7-.1-48.3,8.7,0,0,18.7-44.5,74.5-28.6h0Z"/>
                <path class="cls-2" d="M109.1,99.3l2-4.8c.2-.5,19.9-45.4,76.2-29.5l1.4.4-.5,1.4c-.3.7-6.3,17.1-27.2,20.8-7.3,1.3-14.3,1.7-20.4,2-10.8.6-20.2,1.1-27.3,6.5l-4.1,3.1h0ZM163.9,64.3c-13.1,0-24.6,3.8-34.4,11.5-6.8,5.3-11.2,11.3-13.6,15.3,6.9-3.4,15.1-3.8,24.4-4.3,6.3-.4,12.9-.7,20.1-1.9,16.1-2.9,22.7-13.8,24.5-17.7-7.4-2-14.4-3-21-3h0Z"/>
              </g>
              <g>
                <path class="cls-1" d="M186.9,66.4s-8.9-9.7-23.7-16.5c-22.4-10.2-55.5-24.7-95.1,24.5,0,0,7.7-8.8,31.7-7.4,13,.8,21,1.5,37.2,0,17.6-1.6,29.9-6.4,49.9-.6h0Z"/>
                <path class="cls-2" d="M68.1,75.8c-.3,0-.6-.1-.9-.3-.6-.5-.7-1.3-.2-1.9,40.6-50.5,75.7-34.4,96.7-24.8,14.9,6.8,23.8,16.4,24.2,16.8.4.5.5,1.1.2,1.6s-1,.8-1.5.6c-14.7-4.3-24.9-2.7-36.8-1-4,.6-8.2,1.2-12.6,1.6-14.8,1.3-22.9.9-34.1.2l-3.3-.2c-22.8-1.3-30.5,6.8-30.6,6.9-.3.3-.7.5-1,.5h0ZM126.4,41.1c-15.2,0-32.6,6.5-51.7,27.7,5.1-2.1,13.2-3.9,25.2-3.2l3.3.2c11,.7,19,1.1,33.6-.2,4.4-.4,8.5-1,12.5-1.6,10.3-1.5,20.1-3,32.8-.3-3.9-3.4-10.7-8.6-19.5-12.6-9.9-4.5-22.1-10.1-36.2-10.1h0Z"/>
              </g>
            </g>
          </g>
          <g>
            <polygon class="cls-5" points="200 27.2 207.9 51.4 233.4 51.4 212.7 66.4 220.6 90.6 200 75.7 179.4 90.6 187.3 66.4 166.6 51.4 192.1 51.4 200 27.2"/>
            <path class="cls-2" d="M223.2,94.2l-23.2-16.9-23.2,16.9,8.9-27.3-23.2-16.9h28.7l8.9-27.3,8.9,27.3h28.7l-23.2,16.9,8.9,27.3ZM170.9,52.8l18,13.1-6.9,21.1,18-13.1,18,13.1-6.9-21.1,18-13.1h-22.2l-6.9-21.1-6.9,21.1h-22.2.1Z"/>
          </g>
          <g>
            <path class="cls-2" d="M199.9,206.5c-.4,0-.8,0-1.1-.1-1.7-.3-3.1-1.2-4.1-2.6s-1.3-3.1-1.1-4.8c.3-1.7,1.2-3.1,2.6-4.1s3.1-1.3,4.8-1.1c1.7.3,3.1,1.2,4.1,2.6s1.3,3.1,1.1,4.8h0c-.3,1.7-1.2,3.1-2.6,4.1-1.1.8-2.4,1.2-3.6,1.2h0ZM199.9,196.5c-.7,0-1.4.2-2.1.7-.8.6-1.3,1.4-1.5,2.4s0,1.9.6,2.7c.6.8,1.4,1.3,2.4,1.5.9.2,1.9,0,2.7-.6.8-.6,1.3-1.4,1.5-2.4h0c.2-1,0-1.9-.6-2.7-.6-.8-1.4-1.3-2.4-1.5-.2,0-.4,0-.6,0h0Z"/>
            <g>
              <g>
                <rect class="cls-2" x="187.6" y="209" width="20.9" height="2.8" transform="translate(-43.5 369) rotate(-80)"/>
                <rect class="cls-2" x="205.5" y="197.4" width="2.8" height="21" transform="translate(-85.8 189.3) rotate(-41.5)"/>
                <rect class="cls-2" x="199.9" y="198.2" width="21" height="2.8" transform="translate(-9.8 10.9) rotate(-2.9)"/>
                <rect class="cls-2" x="195.6" y="190.3" width="21" height="2.8" transform="translate(-69.9 247.2) rotate(-54.3)"/>
                <rect class="cls-2" x="195.8" y="179.4" width="2.8" height="21" transform="translate(-44.3 60.9) rotate(-15.8)"/>
                <rect class="cls-2" x="188.8" y="185.5" width="2.8" height="21" transform="translate(-64.2 295.4) rotate(-67.2)"/>
                <rect class="cls-2" x="180.2" y="203.8" width="21" height="2.8" transform="translate(-75 116.3) rotate(-28.6)"/>
              </g>
              <g>
                <path class="cls-4" d="M198.8,203.3c.2,2.3.9,7.3,4.9,12.5s7.1,3.7,8.9,1.2c.3-.4.7-.8,1.1-1.2,2.1-1.9,5-3.5,5.2-5.7.2-2.7-.8-4.5-2.5-4.5s-11.2-3.1-12.7-5-4.9,2.7-4.9,2.7h0Z"/>
                <path class="cls-2" d="M208.9,220.7c-2.1,0-4.2-1.3-6.3-4.1-4.2-5.4-5-10.7-5.1-13.3v-.5l.3-.4c.6-.9,2.9-3.7,5.1-3.7s1.5.3,2.1,1c1.1,1.4,10,4.5,11.6,4.5h0c1,0,1.8.4,2.5,1.1,1,1.1,1.5,2.8,1.3,4.9-.2,2.3-2.1,3.8-4,5.3-.6.5-1.1.9-1.6,1.3-.4.4-.7.7-1,1-1.3,1.8-3,2.8-4.8,2.8h0ZM200.3,203.7c.2,2.5,1.1,6.7,4.6,11.2,1.5,1.9,2.9,3,4.1,3h0c1.1,0,2-.9,2.6-1.7.4-.5.8-.9,1.3-1.4s1.2-1,1.8-1.5c1.4-1.1,2.9-2.3,3-3.3.1-1.5-.2-2.4-.6-2.8-.2-.2-.4-.2-.5-.2-1.8,0-12-3.1-13.8-5.5-.3,0-1.5,1.1-2.4,2.3h0Z"/>
              </g>
              <g>
                <path class="cls-4" d="M201.7,202.9c1.9,1.3,6.3,3.8,12.8,4,6.6.2,7.3-3.2,6.5-6.2-.2-.5-.2-1.1-.3-1.6-.2-2.8.4-6.1-1.2-7.6-1.9-1.8-4.1-2.2-5.1-.9-1,1.3-9.4,6.8-11.8,6.8s-1,5.5-1,5.5h0Z"/>
                <path class="cls-2" d="M214.9,208.3h-.4c-6.8-.2-11.4-2.7-13.6-4.3l-.4-.3v-.5c-.4-1-1.2-4.6.2-6.3.5-.6,1.2-1,2.1-1h0c1.7,0,9.7-5.1,10.7-6.3.6-.8,1.4-1.2,2.5-1.3,1.5-.1,3.1.6,4.6,2.1,1.6,1.5,1.6,4,1.6,6.4v2.2c0,.6.1,1,.2,1.4.6,2.2.4,4.1-.8,5.5-1.2,1.6-3.5,2.4-6.7,2.4h0ZM202.9,202.1c2.1,1.3,6,3.3,11.6,3.4,2.5,0,4.1-.4,4.9-1.3.7-.9.5-2.2.3-3.1-.2-.6-.3-1.2-.3-1.9v-2.3c0-1.8,0-3.6-.8-4.4-1.1-1-2-1.3-2.5-1.3-.2,0-.4.1-.5.3-1.2,1.5-9.9,7.3-12.9,7.3h0c-.2.3,0,1.8.3,3.3h0Z"/>
              </g>
              <g>
                <path class="cls-4" d="M203.2,200.5c2.3-.7,6.9-2.5,11.1-7.5,4.2-5.1,2-7.7-.8-8.9-.5-.2-1-.5-1.5-.8-2.3-1.6-4.5-4.1-6.7-3.8-2.7.4-4.3,1.8-3.8,3.4.4,1.6-.5,11.6-2,13.5-1.5,1.9,3.7,4.2,3.7,4.2h0Z"/>
                <path class="cls-2" d="M203.1,201.9l-.5-.2c-1-.4-4.2-2-4.8-4.1-.2-.8,0-1.6.5-2.2,1.1-1.4,2.1-10.8,1.7-12.3-.3-1,0-1.9.5-2.8.8-1.2,2.4-2.1,4.5-2.4,2.2-.3,4.2,1.2,6,2.7.6.5,1.1.9,1.7,1.3.5.3.9.6,1.2.7,2.1.9,3.4,2.3,3.8,4,.5,2.1-.4,4.5-2.5,7.1-4.4,5.2-9.3,7.2-11.8,8l-.5.2h0ZM205.7,180.8h-.2c-1.5.2-2.3.7-2.6,1.2-.1.2-.2.4-.1.6.5,1.8-.4,12.3-2.3,14.7.2.3,1.4,1.2,2.8,1.8,2.3-.8,6.3-2.6,10-6.9,1.5-1.9,2.3-3.5,1.9-4.7-.3-1.1-1.3-1.7-2.3-2.1-.5-.2-1.1-.6-1.7-1s-1.2-.9-1.8-1.4c-1.3-1.1-2.7-2.2-3.7-2.2h.1Z"/>
              </g>
              <g>
                <path class="cls-4" d="M202.2,197.8c.9-2.2,2.4-6.9,1-13.4-1.3-6.5-4.8-6.4-7.5-5-.5.3-1,.5-1.6.6-2.7.8-6.1,1-7.2,2.9-1.4,2.4-1.2,4.4.3,5.1,1.5.7,8.7,7.6,9.3,10s5.6-.3,5.6-.3h.1Z"/>
                <path class="cls-2" d="M198.1,200.4c-.5,0-1-.1-1.4-.3-.7-.4-1.2-1-1.4-1.7-.4-1.7-7.1-8.4-8.5-9-.9-.4-1.5-1.1-1.8-2.1-.5-1.4-.1-3.2,1-5,1.1-1.9,3.5-2.5,5.9-3,.7-.2,1.4-.3,2.1-.5.5-.2,1-.3,1.3-.5,2-1.1,3.9-1.2,5.5-.5,1.9.9,3.2,3,4,6.4,1.4,6.7-.1,11.8-1.1,14.2l-.2.5-.5.3c-.7.4-2.9,1.4-4.7,1.4h0ZM198.6,180c-.8,0-1.5.3-2.1.6-.5.3-1.1.5-1.8.7s-1.5.4-2.3.6c-1.7.4-3.6.8-4.1,1.7-.8,1.3-.9,2.3-.7,2.8,0,.2.2.4.4.4,1.7.8,9.4,8,10.1,10.9.3,0,1.8-.4,3.2-1,.9-2.3,1.9-6.6.8-12.1-.5-2.4-1.3-4-2.4-4.5-.3-.2-.6-.2-1-.2h0Z"/>
              </g>
              <g>
                <path class="cls-4" d="M199.5,196.9c-1.1-2.1-4-6.2-9.8-9.2-5.8-3-8-.3-8.5,2.8-.1.5-.3,1.1-.5,1.6-1,2.6-3,5.3-2.2,7.4,1,2.5,2.7,3.7,4.2,3s11.4-2.1,13.6-1c2.2,1.1,3.3-4.6,3.3-4.6h0Z"/>
                <path class="cls-2" d="M181.7,204.1c-.4,0-.9-.1-1.3-.3-1.4-.5-2.6-1.9-3.3-3.8-.8-2.1.3-4.3,1.3-6.5.3-.7.6-1.3.9-1.9.2-.5.4-1,.4-1.3.4-2.3,1.5-3.8,3.1-4.6,1.9-.9,4.4-.7,7.4.9,6.1,3.1,9.1,7.4,10.4,9.8l.3.5v.5c-.3,1.1-1.1,4.6-3.1,5.5-.7.4-1.5.4-2.3,0-1.6-.8-11,.3-12.4,1-.5.3-1,.4-1.5.4h0ZM185.3,187.8c-.5,0-.9.1-1.2.3-1,.5-1.4,1.7-1.6,2.7-.1.6-.3,1.2-.6,1.9-.3.7-.6,1.4-1,2.1-.8,1.6-1.6,3.3-1.2,4.3.5,1.4,1.2,2.1,1.7,2.3.2.1.4,0,.6,0,1.7-.8,12.1-2.4,14.8-1,.3-.2.9-1.6,1.2-3.1-1.2-2.1-4-5.6-9-8.2-1.5-.8-2.8-1.1-3.7-1.1h0Z"/>
              </g>
              <g>
                <path class="cls-4" d="M197.1,198.4c-2.3-.4-7.3-.8-13.3,1.9-6,2.7-5.2,6.1-3.2,8.4.4.4.7.9,1,1.4,1.4,2.4,2.3,5.6,4.4,6.4,2.6.8,4.6.3,4.9-1.4.4-1.6,5.5-10.2,7.7-11.3s-1.5-5.4-1.5-5.4h0Z"/>
                <path class="cls-2" d="M188.1,218.2c-.8,0-1.7-.2-2.6-.5-2.2-.7-3.2-2.9-4.3-5.1-.3-.7-.6-1.3-1-1.9-.3-.5-.6-.9-.8-1.2-1.5-1.7-2.1-3.5-1.7-5.3.5-2.1,2.3-3.8,5.3-5.3,6.2-2.8,11.5-2.5,14.1-2.1h.5c0,.1.3.5.3.5.7.8,2.9,3.6,2.5,5.7-.2.8-.7,1.4-1.4,1.8-1.6.8-6.6,8.8-6.9,10.3-.2,1-.8,1.7-1.6,2.3-.7.4-1.5.6-2.5.6h0ZM193.7,199.5c-2.5,0-5.7.5-9.4,2.1-2.2,1-3.5,2.2-3.8,3.3-.3,1.1.5,2.2,1.1,2.9.4.4.7,1,1.1,1.6.4.7.7,1.4,1.1,2.1.8,1.6,1.6,3.3,2.6,3.6,1.4.5,2.4.4,2.8.1.2-.1.3-.3.4-.5.4-1.8,5.7-10.9,8.4-12.2,0-.3-.8-1.7-1.7-2.9-.7-.1-1.6-.2-2.6-.2h0Z"/>
              </g>
              <g>
                <path class="cls-4" d="M196.8,201.3c-1.7,1.5-5.1,5.2-6.8,11.6-1.6,6.4,1.5,7.9,4.6,7.7.5,0,1.1,0,1.7.1,2.7.4,5.8,1.7,7.7.5,2.3-1.5,3-3.4,2-4.7-1.1-1.3-4.6-10.7-4.1-13,.6-2.4-5.2-2.2-5.2-2.2h0Z"/>
                <path class="cls-2" d="M202,223.1c-1.2,0-2.6-.3-3.8-.6-.7-.2-1.4-.3-2.1-.4-.6-.1-1-.1-1.4-.1-2.3.1-4.1-.6-5.2-1.9-1.3-1.6-1.6-4.2-.8-7.4,1.6-6.6,5.2-10.6,7.2-12.3l.4-.3h.5c1.1,0,4.7,0,6.1,1.6.5.6.7,1.4.5,2.2-.4,1.7,2.8,10.6,3.7,11.9.6.8.9,1.7.7,2.7-.2,1.4-1.3,2.9-3,4.1-.8.6-1.8.8-2.8.8h0ZM194.9,219.2c.5,0,1,0,1.6.2.8.1,1.5.3,2.3.5,1.7.4,3.6.8,4.5.3,1.2-.8,1.7-1.6,1.8-2.2,0-.2,0-.4-.2-.6-1.2-1.4-5-11.3-4.3-14.2-.3-.2-1.8-.5-3.3-.5-1.8,1.7-4.6,5.1-6,10.6-.6,2.4-.5,4.1.3,5,.7.9,2,1,2.9.9h.3,0Z"/>
              </g>
              <g>
                <path class="cls-4" d="M199.9,202c-.7.7-1.1,1.3-1.1,1.3.2,2.3.9,7.3,4.9,12.5,4,5.2,7.1,3.7,8.9,1.2.3-.4.7-.8,1.1-1.2"/>
                <path class="cls-2" d="M208.9,220.7c-2.1,0-4.2-1.3-6.3-4.1-4.2-5.4-5-10.7-5.1-13.3v-.5l.3-.4s.5-.7,1.2-1.4l2,1.9c-.3.3-.5.6-.7.8.2,2.5,1.1,6.7,4.6,11.2,1.5,1.9,2.9,3,4.1,3h0c1.1,0,2-.9,2.6-1.7.4-.5.8-.9,1.3-1.4l1.8,2.1c-.4.4-.7.7-1,1-1.3,1.8-3,2.8-4.8,2.8h0,0Z"/>
              </g>
              <g>
                <circle class="cls-3" cx="199.9" cy="200.2" r="6.3"/>
                <path class="cls-2" d="M199.9,207.9c-.5,0-.9,0-1.3-.1-4.2-.7-7-4.7-6.2-8.9.7-4.2,4.7-7,8.9-6.2,2,.4,3.8,1.5,5,3.1,1.2,1.7,1.6,3.7,1.3,5.7h0c-.7,3.7-3.9,6.4-7.5,6.4h0ZM199.9,195.2c-1,0-1.9.3-2.8.9-1.1.8-1.8,1.9-2,3.2-.5,2.7,1.3,5.2,4,5.7,2.7.5,5.2-1.3,5.7-4h0c.2-1.3,0-2.6-.8-3.7s-1.9-1.8-3.2-2c-.3,0-.6,0-.9,0h0Z"/>
              </g>
            </g>
          </g>
          <path class="cls-2" d="M60.3,240.1c-.4-.4-.9-.6-1.3-.8-.8-.5-1.7-.7-2.6-.5-1.1.4-1.9,1.2-2.2,2.2-.8.9-1.4,1.8-1.7,3.1-.4,1.3.3,3,1.5,3.6.5.3,1.1.4,1.6.5.5,0,1.1-.2,1.6-.4.3,0,.6,0,.8-.1.9-.3,1.4-.8,2-1.5.4-.6.7-1.2.8-2,.9-1.2.8-3.1-.4-4.2h0Z"/>
          <path class="cls-2" d="M54.4,184.3c-.8-1.3-2.6-2.1-4.1-1.3-1.5-.1-3,.9-3.4,2.4-.4,1.7.5,3.5,2.3,4,1.3.4,2.9.2,4.1-.6.7-.5,1.2-1.1,1.5-1.9.2-.8.1-1.8-.3-2.5h0Z"/>
          <path class="cls-2" d="M70.6,129.9c-.3-.8-.7-1.5-1.5-1.9-.7-.4-1.7-.6-2.5-.3-.2,0-.4.2-.5.2-.1,0-.3,0-.4,0-1.6.5-2.8,2.3-2.3,4,.6,1.9,2.6,3,4.5,2.5,1.8-.5,3.2-2.6,2.6-4.5h0Z"/>
          <g>
            <g>
              <path class="cls-2" d="M64.6,280.2c-3.6,0-6.9-2.4-7.8-6-1.1-4.3,1.5-8.7,5.7-9.8,4.3-1.1,8.7,1.5,9.8,5.7h0c1.1,4.3-1.5,8.7-5.7,9.8-.7.2-1.3.3-2,.3h0ZM64.6,266.8c-.5,0-.9,0-1.3.2-2.8.7-4.5,3.6-3.8,6.5.7,2.8,3.6,4.5,6.5,3.8,2.8-.7,4.5-3.6,3.8-6.5h0c-.6-2.4-2.8-4-5.1-4Z"/>
              <g>
                <rect class="cls-2" x="66.5" y="271.8" width="2.8" height="27.9" transform="translate(-69.4 26.1) rotate(-14.5)"/>
                <rect class="cls-2" x="76" y="263.7" width="2.8" height="27.9" transform="translate(-207.8 235.4) rotate(-66)"/>
                <rect class="cls-2" x="63" y="264.5" width="27.9" height="2.8" transform="translate(-113.7 65.2) rotate(-27.4)"/>
                <rect class="cls-2" x="53.4" y="257" width="27.9" height="2.8" transform="translate(-199.2 274.2) rotate(-78.8)"/>
                <rect class="cls-2" x="54.3" y="247.4" width="2.8" height="27.9" transform="translate(-155.8 98) rotate(-40.3)"/>
                <rect class="cls-2" x="36.8" y="271.1" width="27.9" height="2.8" transform="translate(-8.1 1.6) rotate(-1.7)"/>
                <rect class="cls-2" x="42.3" y="281.8" width="27.9" height="2.8" transform="translate(-204 158.2) rotate(-53.1)"/>
              </g>
              <path class="cls-4" d="M65.1,276.5c1.4,2.7,5.1,8.3,12.8,12.5s10.6.5,11.4-3.4c.2-.7.4-1.4.7-2.2,1.4-3.4,4.2-7,3.1-9.8-1.2-3.4-3.4-5-5.5-4.1-2,1-15.2,2.5-18.1,1-2.9-1.5-4.5,6-4.5,6h0Z"/>
              <path class="cls-2" d="M83.8,292.2c-1.9,0-4.1-.7-6.6-2-7.9-4.2-11.8-10-13.4-13l-.3-.5v-.5c.3-1,1.4-5.8,4-7,.8-.4,1.7-.4,2.6,0,2.4,1.2,15.1-.2,16.9-1,1.1-.5,2.3-.5,3.3,0,1.7.7,3.1,2.5,4,5,.9,2.6-.5,5.5-1.9,8.2-.5.9-.9,1.7-1.2,2.6-.3.7-.5,1.3-.6,1.9-.6,2.8-1.9,4.8-4,5.7-.9.4-1.8.6-2.9.6h0ZM66.5,276.3c1.6,2.9,5.1,7.7,12,11.4,3,1.6,5.4,2.1,7,1.3,1.5-.7,2.2-2.5,2.4-3.8.2-.7.4-1.5.8-2.4.4-.9.9-1.8,1.3-2.8,1.1-2.2,2.3-4.5,1.7-6-.6-1.7-1.5-2.9-2.5-3.3-.4-.2-.8-.2-1.1,0-2.3,1.1-15.9,2.7-19.3,1-.9.4-1.9,2.6-2.4,4.6h0Z"/>
              <path class="cls-4" d="M68.3,274.5c3,.6,9.7,1.2,17.8-2.2,8.1-3.4,7-8,4.5-11.1-.5-.6-.9-1.2-1.2-1.9-1.7-3.2-2.9-7.6-5.7-8.6-3.4-1.2-6.1-.5-6.6,1.7s-7.6,13.4-10.5,14.8,1.9,7.2,1.9,7.2h0Z"/>
              <path class="cls-2" d="M73.4,276.4c-2.2,0-4-.3-5.3-.5h-.5c0-.1-.3-.5-.3-.5-.6-.8-3.7-4.7-3.1-7.3.2-.9.8-1.6,1.7-2,2.4-1.1,9.3-11.9,9.8-13.9.3-1.2,1-2.1,2.1-2.7,1.6-.9,3.8-.9,6.4,0,2.7.9,4,3.8,5.2,6.6.4.9.8,1.8,1.2,2.6.4.7.7,1.2,1.1,1.6,1.8,2.2,2.6,4.5,2,6.7-.6,2.6-3,4.8-7,6.5-5.1,2.2-9.6,2.8-13.2,2.8h0ZM69.1,273.2c3.2.6,9.3.8,16.4-2.2,3.1-1.3,5-2.9,5.4-4.6.4-1.6-.6-3.2-1.5-4.3-.5-.6-.9-1.3-1.4-2.1-.5-.9-.9-1.8-1.3-2.8-1-2.3-2.1-4.6-3.6-5.1-1.7-.6-3.3-.6-4.2-.2-.4.2-.6.5-.7.9-.6,2.4-7.8,14.1-11.3,15.7-.3.9.8,3.1,2.1,4.7h0Z"/>
              <path class="cls-4" d="M68.8,270.7c2.4-2,7-6.8,9.3-15.2s-1.8-10.5-5.8-10.4c-.7,0-1.4,0-2.3-.2-3.6-.7-7.7-2.5-10.3-.9-3,1.9-4.2,4.5-2.8,6.3,1.4,1.7,5.8,14.3,5,17.4-.8,3.1,6.8,3,6.8,3h0Z"/>
              <path class="cls-2" d="M68.6,272.1c-1.3,0-5.8-.2-7.4-2.2-.6-.7-.8-1.6-.5-2.6.7-2.6-3.5-14.7-4.7-16.3-.7-.9-1-2.1-.8-3.2.3-1.8,1.7-3.6,4-5,2.4-1.5,5.4-.7,8.4,0,.9.3,1.9.5,2.8.7.8.2,1.4.2,2,.2,2.9,0,5.1.8,6.5,2.6,1.6,2.1,1.9,5.3.8,9.5-2.4,8.6-7.1,13.7-9.8,16l-.4.3h-.7,0ZM62.3,244.7c-.7,0-1.3.1-1.8.4-1.5,1-2.5,2.2-2.7,3.1,0,.4,0,.8.3,1.1,1.5,1.9,6.2,14.9,5.2,18.6.5.8,2.9,1.3,5,1.3,2.5-2.2,6.4-6.7,8.5-14.2.9-3.3.8-5.7-.3-7.1-1-1.3-2.9-1.5-4.3-1.5s-1.5,0-2.5-.2c-1-.2-2-.4-3-.7-1.6-.4-3.2-.8-4.5-.8h0Z"/>
              <path class="cls-4" d="M66.1,267.9c-.1-3.1-1-9.7-6.1-16.8-5.2-7.1-9.3-5.1-11.8-1.9-.4.6-1,1.1-1.5,1.6-2.8,2.4-6.8,4.5-7.1,7.4-.4,3.6.9,6.1,3.1,6.1s14.8,4.4,16.7,7c2,2.6,6.6-3.4,6.6-3.4h0Z"/>
              <path class="cls-2" d="M60.7,273.4h0c-.9,0-1.7-.4-2.3-1.2-1.6-2.1-13.7-6.4-15.7-6.4s-2.3-.5-3-1.4c-1.2-1.4-1.7-3.6-1.4-6.2.3-2.8,2.8-4.7,5.3-6.6.8-.6,1.5-1.2,2.3-1.8.6-.5,1-1,1.4-1.4,1.7-2.3,3.8-3.5,6-3.5h0c2.7,0,5.3,1.8,7.9,5.4,5.3,7.2,6.3,14.1,6.4,17.6v.5l-.3.4c-.6.8-3.7,4.6-6.5,4.6h0ZM53.1,247.8c-1.6,0-3,1.3-3.8,2.4-.5.6-1,1.2-1.7,1.8-.7.7-1.6,1.3-2.4,1.9-2,1.5-4.1,3.1-4.2,4.7-.2,1.8.1,3.3.8,4.1.3.3.6.5,1,.5,2.5,0,15.5,4.4,17.9,7.5,1,0,2.8-1.5,4.1-3.1-.2-3.3-1.2-9.2-5.8-15.5-2-2.8-4-4.2-5.7-4.2h0Z"/>
              <path class="cls-4" d="M62.3,268.4c-2.5-1.8-8.2-5.3-16.9-5.7-8.8-.4-9.8,4.1-8.8,8.1.2.7.3,1.4.3,2.2.2,3.7-.7,8.1,1.4,10.2,2.6,2.5,5.3,3,6.7,1.3,1.4-1.7,12.7-8.8,15.9-8.8,3.2,0,1.4-7.3,1.4-7.3h0Z"/>
              <path class="cls-2" d="M42.8,286.8c-1.7,0-3.7-1-5.5-2.7-2-1.9-1.9-5.1-1.8-8.2v-2.9c0-.8-.1-1.4-.3-1.9-.7-2.8-.4-5.2,1.1-6.9,1.7-2.1,4.7-3,9.1-2.9,8.9.4,14.9,3.9,17.7,6l.4.3v.5c.4,1,1.4,5.8-.3,8-.6.7-1.3,1.1-2.4,1.1h0c-2.7,0-13.5,6.7-14.8,8.3-.8.9-1.8,1.4-3,1.5h-.3ZM44.4,264c-2.9,0-5,.6-6,1.8-1,1.3-.9,3.1-.5,4.5.2.7.3,1.5.4,2.5v3.1c0,2.5-.1,5.1,1,6.2,1.3,1.3,2.6,1.9,3.7,1.9s.7-.2,1-.5c1.5-1.9,13.2-9.3,17-9.2.7-.7.6-3.1.2-5.1-2.7-1.9-8-4.8-15.8-5.1h-1Z"/>
              <path class="cls-4" d="M60.3,271.6c-3,.8-9.2,3.1-15,9.7-5.7,6.6-2.9,10.2.8,11.9.7.3,1.3.7,1.9,1.2,3,2.2,5.9,5.6,8.8,5.2,3.6-.4,5.7-2.3,5.2-4.4-.5-2.2,1-15.4,3.1-17.9s-4.8-5.7-4.8-5.7h0Z"/>
              <path class="cls-2" d="M56.4,301c-2.5,0-4.8-1.9-7-3.7-.7-.6-1.5-1.2-2.3-1.8-.6-.5-1.2-.8-1.7-1-2.6-1.2-4.3-3-4.7-5.1-.6-2.6.6-5.6,3.5-8.9,5.9-6.8,12.4-9.2,15.7-10.1h.5c0-.1.5.1.5.1.9.4,5.3,2.6,6,5.3.2.9,0,1.8-.6,2.5-1.7,2.1-3.2,14.8-2.8,16.7.3,1.2,0,2.3-.7,3.3-1.1,1.5-3.1,2.5-5.7,2.8h-.7ZM60.1,273.1c-3.1.9-8.7,3.2-13.9,9.1-2.3,2.6-3.2,4.8-2.9,6.5.4,1.6,1.9,2.7,3.2,3.2.7.3,1.4.7,2.2,1.3.8.6,1.6,1.2,2.4,1.9,1.9,1.6,3.9,3.2,5.5,3.1,1.8-.2,3.2-.8,3.8-1.6.3-.4.3-.7.3-1.1-.5-2.4.9-16.1,3.4-19-.1-1-2.1-2.4-3.9-3.3h0Z"/>
              <path class="cls-4" d="M61.5,275.2c-1.2,2.8-3.3,9.2-1.7,17.8s6.2,8.6,9.8,6.8c.6-.3,1.3-.6,2.1-.8,3.5-1,8.1-1.1,9.6-3.6,1.9-3.1,1.8-5.9-.2-6.8-2-1-11.4-10.4-12.1-13.5s-7.5.3-7.5.3h0Z"/>
              <path class="cls-2" d="M65.9,302.2c-1,0-1.9-.2-2.8-.6-2.4-1.2-4-4-4.8-8.3-1.6-8.8.5-15.4,1.8-18.6l.2-.5.5-.2c.9-.5,5.4-2.6,7.9-1.3.8.4,1.4,1.1,1.6,2.1.5,2.6,9.5,11.7,11.3,12.6,1.1.5,1.8,1.4,2.2,2.6.5,1.7,0,4-1.4,6.2-1.5,2.4-4.6,3-7.6,3.6-1,.2-1.9.4-2.8.6-.8.2-1.3.4-1.8.7-1.5.8-2.9,1.1-4.2,1.1h0ZM62.5,276.3c-1.2,3-2.9,8.8-1.5,16.5.6,3.3,1.7,5.5,3.3,6.3,1.5.7,3.3.2,4.5-.5.7-.4,1.4-.6,2.4-.9,1-.3,2-.5,3-.7,2.5-.5,5-1,5.8-2.4,1-1.5,1.3-3,1.1-4-.1-.4-.4-.7-.7-.9-2.2-1.1-12-10.7-12.8-14.5-.8-.5-3.2.2-5,1h0Z"/>
              <g>
                <path class="cls-4" d="M65.7,274.4c-.4,1.2-.6,2.2-.6,2.2,1.4,2.7,5.1,8.3,12.8,12.5,7.7,4.2,10.6.5,11.4-3.4.2-.7.4-1.4.7-2.2"/>
                <path class="cls-2" d="M83.8,292.2c-1.9,0-4.1-.7-6.6-2-7.9-4.2-11.8-10-13.4-13l-.3-.5v-.5c.1,0,.4-1.1.8-2.4l2.6.9c-.2.6-.4,1.2-.5,1.5,1.6,2.9,5.1,7.7,12,11.4,3,1.6,5.4,2.1,7,1.3,1.5-.7,2.2-2.5,2.4-3.8.2-.7.4-1.5.8-2.4l2.6,1.1c-.3.7-.5,1.3-.6,1.8-.6,2.8-1.9,4.8-4,5.7-.9.4-1.8.6-2.9.6h0Z"/>
              </g>
              <circle class="cls-3" cx="64.6" cy="272.1" r="8.4"/>
              <path class="cls-2" d="M64.6,281.9c-1.7,0-3.4-.5-4.9-1.3-2.3-1.3-3.8-3.4-4.5-6-.7-2.5-.3-5.1,1-7.4s3.4-3.8,6-4.5c5.2-1.3,10.5,1.8,11.9,7h0c1.3,5.2-1.8,10.5-7,11.9-.8.2-1.6.3-2.5.3h0ZM64.6,265.1c-.6,0-1.2,0-1.7.2-1.8.5-3.3,1.6-4.3,3.2-.9,1.6-1.2,3.5-.7,5.3.5,1.8,1.6,3.3,3.2,4.3,1.6.9,3.5,1.2,5.3.7,3.7-1,6-4.8,5-8.5-.5-1.8-1.6-3.3-3.2-4.3-1.1-.6-2.3-1-3.5-1h0Z"/>
            </g>
            <g>
              <path class="cls-2" d="M47.2,223.9c-.4,0-.7,0-1,0-2.1-.3-4-1.3-5.3-3-1.3-1.7-1.9-3.8-1.6-5.9.6-4.4,4.6-7.4,8.9-6.9,4.4.6,7.4,4.6,6.9,8.9h0c-.5,4-4,7-7.9,7h0ZM47.2,210.6c-2.6,0-4.8,1.9-5.2,4.6-.2,1.4.2,2.8,1,3.8.9,1.1,2.1,1.8,3.5,2,2.9.4,5.5-1.6,5.8-4.5s-1.6-5.5-4.5-5.9h-.7,0Z"/>
              <g>
                <g>
                  <rect class="cls-2" x="31.6" y="228" width="27.6" height="2.8" transform="translate(-187.8 245.7) rotate(-82.8)"/>
                  <rect class="cls-2" x="55.5" y="212" width="2.8" height="27.6" transform="translate(-141.3 103.6) rotate(-44.2)"/>
                  <rect class="cls-2" x="47" y="213.2" width="27.6" height="2.8" transform="translate(-20.7 7) rotate(-5.6)"/>
                  <rect class="cls-2" x="40.9" y="202.9" width="27.6" height="2.8" transform="translate(-146.4 138.9) rotate(-57)"/>
                  <rect class="cls-2" x="41.6" y="188.9" width="2.8" height="27.6" transform="translate(-62.1 24.1) rotate(-18.5)"/>
                  <rect class="cls-2" x="32.8" y="197.3" width="2.8" height="27.6" transform="translate(-175.8 170.7) rotate(-69.9)"/>
                  <rect class="cls-2" x="21.6" y="221.7" width="27.6" height="2.8" transform="translate(-110.7 50.9) rotate(-31.3)"/>
                </g>
                <g>
                  <path class="cls-4" d="M46,220.1c.3,3,1.6,9.5,7.2,16.2,5.6,6.6,9.5,4.4,11.8,1,.4-.6.9-1.1,1.4-1.7,2.6-2.6,6.4-4.9,6.5-7.9.1-3.6-1.3-5.9-3.5-5.8-2.2.2-14.9-3.3-17-5.7-2.1-2.4-6.3,3.8-6.3,3.8h0Z"/>
                  <path class="cls-2" d="M60,241.9c-2.6,0-5.2-1.6-7.9-4.8-5.7-6.8-7.2-13.5-7.5-16.9v-.5c0,0,.2-.4.2-.4.6-.8,3.4-4.8,6.1-5,.9,0,1.7.3,2.4,1,1.7,1.9,14,5.4,15.9,5.3,1.2,0,2.3.3,3.1,1.2,1.3,1.3,2,3.4,1.9,6.1-.1,2.8-2.5,4.9-4.8,6.9-.7.6-1.4,1.3-2.1,1.9-.6.6-1,1-1.2,1.5-1.6,2.4-3.5,3.7-5.7,3.8h-.5ZM47.4,220.4c.4,3.2,1.8,9,6.8,14.9,2.2,2.6,4.2,3.8,6,3.8,1.6-.1,2.9-1.5,3.6-2.6.4-.6.9-1.2,1.6-1.9.7-.7,1.5-1.4,2.3-2.1,1.8-1.6,3.8-3.3,3.8-4.9,0-1.8-.3-3.3-1-4-.3-.3-.6-.4-1-.4h-.2c-2.8,0-15.5-3.4-18-6.2h0c-.9,0-2.7,1.7-3.8,3.3h0Z"/>
                </g>
                <g>
                  <path class="cls-4" d="M49.7,219.4c2.6,1.6,8.5,4.7,17.1,4.5,8.7-.2,9.4-4.7,8.2-8.5-.2-.7-.4-1.4-.5-2.2-.4-3.6.2-8.1-2.1-10-2.7-2.3-5.4-2.7-6.7-.9s-11.9,9.5-15.1,9.7c-3.2.2-.9,7.3-.9,7.3h0Z"/>
                  <path class="cls-2" d="M66,225.3c-8.4,0-14.2-2.9-17-4.7l-.4-.3-.2-.5c-.3-.9-1.7-5.6-.1-7.9.5-.8,1.3-1.2,2.3-1.2,2.6-.1,12.9-7.5,14.1-9.1.7-1,1.6-1.5,2.9-1.7,1.8-.2,3.9.6,5.9,2.3,2.1,1.8,2.3,5,2.4,8,0,1,.1,1.9.2,2.8.1.8.2,1.4.4,1.9.9,2.7.7,5.1-.6,6.9-1.5,2.2-4.5,3.3-8.8,3.4h-1ZM50.9,218.5c2.8,1.7,8.2,4.2,15.9,4,3.4-.1,5.7-.9,6.7-2.3.9-1.3.7-3.2.2-4.5-.2-.7-.4-1.5-.5-2.5-.1-1-.2-2-.2-3-.1-2.5-.2-5-1.4-6.1-1.3-1.2-2.8-1.8-3.7-1.6-.4,0-.7.2-.9.6-1.4,2-12.3,10.1-16.2,10.3-.6.7-.4,3.1.2,5.1h0Z"/>
                </g>
                <g>
                  <path class="cls-4" d="M51.6,216.1c2.9-1,8.9-3.7,14.2-10.6,5.2-6.9,2.2-10.3-1.6-11.7-.7-.3-1.3-.6-2-1-3.1-1.9-6.2-5.1-9.1-4.6-3.5.7-5.5,2.6-4.9,4.7s0,15.3-1.8,17.9c-1.9,2.6,5.2,5.3,5.2,5.3h0Z"/>
                  <path class="cls-2" d="M51.5,217.6l-.5-.2c-.9-.4-5.5-2.2-6.3-4.8s-.1-1.8.5-2.6c1.5-2.1,2.2-14.8,1.6-16.7-.4-1.1-.2-2.3.5-3.3.9-1.5,2.9-2.7,5.5-3.2,2.7-.5,5.3,1.3,7.7,3.1.8.6,1.5,1.1,2.3,1.6.7.4,1.2.7,1.7.9,2.7,1,4.4,2.7,5,4.8.7,2.6-.2,5.6-2.8,9.1-5.3,7.1-11.6,10-14.8,11.1l-.5.2h0ZM53.8,189.5h-.4c-1.7.4-3.1,1-3.6,1.9-.2.4-.3.7-.2,1.1.7,2.4.2,16-2.1,19.1.2.9,2.2,2.2,4.1,3,3-1.1,8.4-3.8,13-10,2.1-2.7,2.9-5,2.4-6.6-.5-1.6-2.1-2.5-3.3-2.9-.7-.3-1.4-.6-2.2-1.1-.8-.5-1.7-1.1-2.5-1.7-1.8-1.3-3.7-2.7-5.2-2.7h0Z"/>
                </g>
                <g>
                  <path class="cls-4" d="M50.1,212.6c1-2.9,2.7-9.3.6-17.7-2.2-8.4-6.7-8.1-10.2-6.1-.6.4-1.3.7-2,.9-3.4,1.2-7.9,1.6-9.2,4.3-1.7,3.2-1.4,5.9.7,6.7s12,9.5,12.8,12.6,7.4-.7,7.4-.7h0Z"/>
                  <path class="cls-2" d="M44.6,215.9c-.5,0-1,0-1.4-.3-.9-.4-1.5-1-1.7-1.9-.7-2.5-10.2-10.9-12-11.6-1.1-.5-1.9-1.3-2.3-2.4-.6-1.7-.3-4,.9-6.3,1.3-2.5,4.4-3.3,7.3-4.1.9-.3,1.8-.5,2.7-.8.7-.3,1.3-.5,1.8-.8,2.5-1.5,4.8-1.8,6.9-1,2.5,1,4.3,3.6,5.3,7.9,2.2,8.6.6,15.3-.6,18.5l-.2.5-.4.3c-.7.4-3.7,2.1-6.3,2.1h-.1ZM44.4,189c-1.1,0-2.3.5-3.1,1-.6.4-1.4.7-2.3,1-.9.3-1.9.6-2.9.9-2.4.7-4.8,1.3-5.6,2.7-.8,1.6-1.1,3.1-.8,4,.2.4.4.7.8.8,2.3.9,12.6,9.8,13.7,13.5.9.4,3.1-.4,4.9-1.3,1-3.1,2.3-8.9.4-16.4-.8-3.3-2.1-5.3-3.7-6-.4-.2-.8-.3-1.3-.3h0Z"/>
                </g>
                <g>
                  <path class="cls-4" d="M46.5,211.5c-1.6-2.6-5.6-7.9-13.5-11.4-7.9-3.5-10.5.2-11,4.2-.1.7-.3,1.4-.6,2.2-1.2,3.4-3.6,7.2-2.4,9.9,1.4,3.3,3.7,4.8,5.7,3.7,1.9-1.1,14.9-3.4,17.8-2.2,2.9,1.2,4-6.2,4-6.2h0Z"/>
                  <path class="cls-2" d="M23.3,221.7c-.5,0-.9,0-1.3-.2-1.7-.6-3.2-2.2-4.3-4.6-1.1-2.6.1-5.4,1.3-8.3.4-.9.8-1.7,1.1-2.6.3-.7.4-1.3.5-1.9.4-2.8,1.6-4.9,3.5-6,2.3-1.3,5.5-1,9.4.7,8.1,3.6,12.3,9.1,14.1,12l.3.4v.5c-.2,1-1,5.9-3.4,7.2-.8.5-1.7.5-2.6.1-2.4-1-14.9,1.2-16.6,2.2-.6.4-1.3.5-2,.5h0ZM27.5,200.1c-.8,0-1.5.2-2.1.5-1.4.8-2,2.6-2.1,3.9-.1.7-.3,1.5-.6,2.4-.3.9-.7,1.9-1.1,2.8-1,2.3-2,4.6-1.3,6.1.7,1.6,1.7,2.8,2.7,3.1.4.2.7.1,1.1-.1,2.2-1.2,15.5-3.8,19-2.3.9-.4,1.7-2.7,2.1-4.7-1.7-2.7-5.6-7.3-12.6-10.5-2-.9-3.6-1.3-4.9-1.3h0Z"/>
                </g>
                <g>
                  <path class="cls-4" d="M43.4,213.8c-3-.4-9.6-.6-17.3,3.4-7.7,4-6.4,8.4-3.6,11.2.5.5.9,1.1,1.3,1.7,2,3.1,3.4,7.3,6.2,8.1,3.4.9,6.1,0,6.4-2.2s6.6-13.8,9.4-15.3c2.8-1.5-2.4-7-2.4-7h0Z"/>
                  <path class="cls-2" d="M32.5,240c-.9,0-1.8-.2-2.9-.4-2.7-.7-4.2-3.5-5.6-6.2-.5-.8-.9-1.7-1.4-2.5-.4-.7-.8-1.2-1.2-1.5-2-2.1-2.8-4.3-2.5-6.5.5-2.6,2.6-5,6.5-6.9,7.9-4.1,14.8-4,18.2-3.5h.5c0,0,.4.4.4.4.7.7,4,4.4,3.5,7.1-.2.9-.7,1.6-1.5,2.1-2.3,1.2-8.4,12.4-8.7,14.3-.2,1.2-.8,2.1-1.8,2.8-.9.6-2.1.9-3.4.9h0ZM40.3,214.9c-3.4,0-8.3.7-13.7,3.4-3,1.5-4.7,3.2-5,4.9-.3,1.6.8,3.1,1.7,4.1.5.5,1,1.2,1.5,2,.5.8,1,1.7,1.5,2.7,1.2,2.2,2.4,4.4,3.9,4.8,1.7.5,3.2.4,4.1-.2.4-.2.6-.5.6-.9.4-2.4,6.7-14.5,10.1-16.3.3-.9-1-3-2.4-4.5-.7,0-1.5-.1-2.4-.1h0Z"/>
                </g>
                <g>
                  <path class="cls-4" d="M43.2,217.6c-2.2,2.2-6.5,7.2-8.2,15.7-1.7,8.5,2.5,10.2,6.5,9.9.7,0,1.4,0,2.2,0,3.6.4,7.8,1.9,10.2.2,2.9-2.2,3.8-4.7,2.3-6.4s-6.7-13.8-6.1-16.9c.6-3.1-7-2.5-7-2.5h0Z"/>
                  <path class="cls-2" d="M50.9,245.5c-1.4,0-3-.3-4.5-.6-.9-.2-1.9-.4-2.8-.5-.8-.1-1.4-.1-2,0-2.8.3-5.1-.5-6.6-2.1-1.8-2-2.3-5.1-1.4-9.4,1.7-8.7,6.1-14,8.6-16.4l.4-.4h.5c1-.1,5.9-.4,7.7,1.6.6.7.9,1.6.7,2.5-.5,2.6,4.5,14.3,5.8,15.7.8.9,1.1,1.9,1,3.2-.2,1.8-1.4,3.6-3.5,5.2-1.1.8-2.4,1.1-3.8,1.1h0ZM42.3,241.7c.5,0,1,0,1.6.1,1,.1,2,.3,3,.5,2.4.5,4.9.9,6.2,0,1.4-1.1,2.4-2.3,2.5-3.3,0-.4,0-.7-.3-1-1.6-1.8-7.1-14.3-6.5-18.1-.6-.8-3-1-5-.9-2.3,2.3-5.9,7.1-7.4,14.6-.7,3.3-.4,5.7.7,7,1.1,1.2,2.9,1.3,4.3,1.2h.9,0Z"/>
                </g>
                <g>
                  <path class="cls-4" d="M47.4,218.3c-.8.9-1.4,1.8-1.4,1.8.3,3,1.6,9.5,7.2,16.2s9.5,4.4,11.8,1c.4-.6.9-1.1,1.4-1.7"/>
                  <path class="cls-2" d="M60,241.9c-2.6,0-5.2-1.6-7.9-4.8-5.7-6.8-7.2-13.5-7.5-16.9v-.5c0,0,.2-.4.2-.4,0,0,.6-.9,1.5-1.9l2.1,1.8c-.4.5-.8.9-1,1.2.4,3.2,1.8,9,6.8,14.9,2.2,2.6,4.2,3.8,6,3.8,1.6-.1,2.9-1.5,3.6-2.6.4-.6.9-1.2,1.6-1.9l2,1.9c-.6.6-1,1-1.2,1.5-1.6,2.4-3.5,3.7-5.7,3.8h-.4Z"/>
                </g>
                <g>
                  <circle class="cls-3" cx="47.2" cy="215.9" r="8.3"/>
                  <path class="cls-2" d="M47.2,225.6c-.4,0-.8,0-1.2-.1-2.6-.3-4.8-1.6-6.4-3.7s-2.3-4.6-2-7.1c.3-2.6,1.6-4.8,3.7-6.4s4.6-2.3,7.1-1.9c2.6.3,4.8,1.6,6.4,3.7s2.3,4.6,2,7.1c-.3,2.6-1.6,4.8-3.7,6.4-1.7,1.3-3.7,2-5.9,2h0ZM47.2,208.9c-1.5,0-3,.5-4.2,1.4-1.4,1.1-2.4,2.8-2.6,4.6-.3,1.8.3,3.6,1.4,5.1,1.1,1.4,2.8,2.4,4.6,2.6,1.8.3,3.6-.3,5.1-1.4,1.4-1.1,2.4-2.8,2.6-4.6.3-1.8-.3-3.6-1.4-5.1-1.1-1.4-2.8-2.4-4.6-2.6-.3,0-.6,0-.9,0Z"/>
                </g>
              </g>
            </g>
            <g>
              <path class="cls-2" d="M52.3,165.6c-1.1,0-2.3-.3-3.3-.7-2-.9-3.4-2.5-4.2-4.5-1.5-4.1.6-8.7,4.7-10.3s8.7.6,10.3,4.7c.8,2,.7,4.2-.2,6.1s-2.5,3.4-4.5,4.2c-.9.4-1.8.5-2.8.5h0ZM52.3,152.4c-.6,0-1.2.1-1.8.3-2.7,1-4.1,4-3.1,6.7.5,1.3,1.4,2.4,2.7,2.9s2.7.6,4,.2c1.3-.5,2.4-1.4,2.9-2.7.6-1.3.6-2.7.2-4-.8-2.1-2.8-3.4-4.9-3.4h0Z"/>
              <g>
                <g>
                  <rect class="cls-2" x="55.9" y="156.7" width="2.8" height="27.6" transform="translate(-56.1 30.8) rotate(-20.5)"/>
                  <rect class="cls-2" x="64.1" y="148.2" width="2.8" height="27.6" transform="translate(-108.9 173.9) rotate(-71.9)"/>
                  <rect class="cls-2" x="50" y="148.7" width="27.6" height="2.8" transform="translate(-71.9 59.7) rotate(-33.3)"/>
                  <rect class="cls-2" x="39.8" y="142.6" width="27.6" height="2.8" transform="translate(-94.7 184.1) rotate(-84.7)"/>
                  <rect class="cls-2" x="40.9" y="134.3" width="2.8" height="27.6" transform="translate(-93.9 76.1) rotate(-46.2)"/>
                  <rect class="cls-2" x="24.6" y="158.2" width="27.6" height="2.8" transform="translate(-20.8 6.5) rotate(-7.6)"/>
                  <rect class="cls-2" x="31.3" y="168.1" width="27.6" height="2.8" transform="translate(-123.4 120.9) rotate(-59)"/>
                </g>
                <g>
                  <path class="cls-4" d="M53.2,161.9c1.7,2.6,5.8,7.7,13.9,11,8.1,3.3,10.5-.6,10.9-4.5,0-.7.3-1.4.5-2.2,1.1-3.5,3.4-7.3,2.1-10-1.5-3.2-3.9-4.6-5.8-3.5s-14.8,4-17.8,2.8c-3-1.1-3.8,6.4-3.8,6.4h0Z"/>
                  <path class="cls-2" d="M72.4,175.5c-1.7,0-3.6-.5-5.8-1.3-8.2-3.3-12.6-8.6-14.5-11.5l-.3-.4v-.5c.2-1,.8-5.8,3.1-7.3.8-.5,1.7-.6,2.6-.2,2.5.9,14.9-1.7,16.5-2.7,1-.6,2.2-.8,3.3-.4,1.7.5,3.3,2.1,4.5,4.5,1.2,2.5,0,5.4-1,8.3-.4.9-.7,1.8-1,2.7-.2.7-.4,1.3-.4,1.9-.3,2.8-1.4,4.9-3.3,6.1-1,.6-2.3.9-3.7.9h0ZM54.6,161.6c1.8,2.7,5.8,7.1,13,10.1,3.1,1.3,5.5,1.5,7,.6,1.4-.9,1.8-2.6,2-4,0-.7.3-1.5.5-2.5.3-.9.7-1.9,1-2.9.9-2.3,1.8-4.7,1.1-6.1-.8-1.6-1.8-2.7-2.8-3-.4-.1-.7-.1-1.1.2-2.1,1.3-15.3,4.3-18.9,2.9-.8.4-1.6,2.7-1.8,4.7h0Z"/>
                </g>
                <g>
                  <path class="cls-4" d="M56.2,159.6c3,.3,9.6.2,17.2-4,7.6-4.2,6.1-8.6,3.2-11.3-.5-.5-1-1.1-1.4-1.7-2.1-3-3.6-7.2-6.5-7.9-3.5-.8-6.1.2-6.4,2.4-.3,2.2-6.1,14-8.9,15.7-2.8,1.6,2.6,6.9,2.6,6.9h0Z"/>
                  <path class="cls-2" d="M58.3,161.1c-.9,0-1.6,0-2.3-.1h-.5l-.4-.4c-.7-.7-4.1-4.2-3.8-6.9.1-.9.6-1.7,1.4-2.2,2.3-1.3,8-12.7,8.2-14.6.2-1.2.8-2.2,1.7-2.8,1.5-1,3.7-1.3,6.3-.7,2.7.6,4.3,3.3,5.9,6,.5.8,1,1.6,1.5,2.4.4.6.8,1.1,1.2,1.5,2.1,2,3,4.2,2.7,6.4-.4,2.6-2.5,5-6.2,7.2-6.3,3.5-12,4.3-15.8,4.3h0ZM56.8,158.3c3.2.2,9.2-.1,16-3.9,2.9-1.6,4.6-3.4,4.8-5.1.2-1.6-.9-3.1-1.9-4.1-.5-.5-1-1.1-1.6-1.9-.6-.8-1.1-1.7-1.6-2.6-1.2-2.2-2.5-4.3-4.1-4.7-1.7-.4-3.3-.3-4.1.3-.4.3-.5.5-.6.9-.3,2.4-6.2,14.7-9.5,16.6-.2.9,1.1,2.9,2.5,4.4h0Z"/>
                </g>
                <g>
                  <path class="cls-4" d="M56.3,155.8c2.1-2.2,6.2-7.4,7.6-16,1.4-8.6-2.9-10.1-6.8-9.6-.7.1-1.4.1-2.2,0-3.6-.3-7.9-1.6-10.2.2-2.8,2.2-3.6,4.9-2.1,6.4,1.5,1.6,7.1,13.5,6.7,16.7-.5,3.2,7,2.3,7,2.3h0Z"/>
                  <path class="cls-2" d="M54.1,157.3c-1.8,0-4.3-.3-5.5-1.5-.7-.7-.9-1.5-.8-2.5.4-2.6-5-14.1-6.3-15.5-.8-.9-1.2-1.9-1.1-3.1.1-1.8,1.3-3.7,3.4-5.3,2.2-1.7,5.3-1.3,8.3-.8,1,.2,1.9.3,2.8.4.8,0,1.4,0,2,0,2.8-.4,5.1.3,6.7,1.9,1.8,1.9,2.4,5.1,1.7,9.3-1.4,8.8-5.6,14.2-8,16.7l-.4.4h-.5c-.4.1-1.2.2-2.3.2v-.2ZM48,130.9c-1,0-1.9.2-2.5.6-1.4,1.1-2.3,2.4-2.4,3.4,0,.4.1.7.4,1,1.7,1.7,7.6,14,7.1,17.8.6.7,3,.9,5,.8,2.2-2.4,5.6-7.3,6.9-14.9.6-3.3.2-5.7-1-7-1.1-1.2-3-1.2-4.3-1.1-.7.1-1.5.1-2.5,0-1,0-2-.2-3-.4-1.3-.2-2.6-.4-3.7-.4h0Z"/>
                </g>
                <g>
                  <path class="cls-4" d="M53.3,153.4c-.4-3-2-9.4-7.7-15.9-5.8-6.5-9.7-4.1-11.8-.7-.4.6-.8,1.2-1.4,1.7-2.5,2.7-6.2,5.1-6.2,8.1s1.5,5.8,3.7,5.6,15,2.8,17.2,5.1c2.2,2.3,6.2-4.1,6.2-4.1h0Z"/>
                  <path class="cls-2" d="M48.3,159.4c-.8,0-1.5-.3-2.1-.9-1.8-1.9-14.2-4.9-16.1-4.7-1.2.1-2.3-.3-3.1-1.1-1.3-1.2-2.1-3.3-2.1-6s2.3-4.9,4.6-7c.7-.7,1.4-1.3,2.1-2,.5-.6.9-1.1,1.2-1.5,1.5-2.5,3.4-3.8,5.6-4.1,2.7-.3,5.5,1.3,8.4,4.5,6,6.6,7.6,13.2,8.1,16.6v.5c0,0-.2.4-.2.4-.5.8-3.2,5-5.9,5.2h-.4ZM30.1,150.9c3.1,0,15.5,2.9,18,5.6.9,0,2.6-1.7,3.7-3.4-.5-3.2-2.2-8.9-7.3-14.7-2.3-2.5-4.3-3.7-6.1-3.6-1.6.2-2.8,1.6-3.5,2.7-.4.6-.9,1.3-1.5,1.9-.7.7-1.4,1.4-2.2,2.2-1.8,1.7-3.6,3.4-3.6,5s.5,3.2,1.2,3.9c.3.3.6.4,1,.4h.3,0Z"/>
                </g>
                <g>
                  <path class="cls-4" d="M49.6,154.2c-2.6-1.5-8.6-4.4-17.3-3.8-8.7.5-9.2,5.1-7.9,8.8.3.7.4,1.4.5,2.2.6,3.6.2,8.1,2.5,9.9,2.8,2.3,5.5,2.5,6.7.6,1.2-1.8,11.5-10,14.8-10.3,3.2-.3.7-7.4.7-7.4h0Z"/>
                  <path class="cls-2" d="M31.8,174.4c-1.6,0-3.4-.8-5.2-2.2-2.2-1.7-2.4-4.9-2.7-8,0-1-.2-1.9-.3-2.8-.1-.8-.3-1.4-.5-1.9-1-2.7-.9-5.1.4-6.9,1.4-2.2,4.4-3.5,8.7-3.7,8.8-.6,15.1,2.3,18.1,4.1l.4.3.2.5c.3.9,1.9,5.6.4,7.9-.5.8-1.3,1.2-2.3,1.3-2.6.2-12.7,8-13.7,9.6-.7,1-1.6,1.6-2.8,1.8-.3,0-.5,0-.8,0h0ZM34.5,151.6c-.7,0-1.3,0-2,0-3.3.2-5.6,1.1-6.6,2.5-.9,1.4-.5,3.2,0,4.5.3.7.5,1.5.6,2.4.2,1,.3,2,.3,3,.2,2.5.4,5,1.6,6,1.4,1.1,2.8,1.7,3.8,1.5.4,0,.7-.3.9-.6,1.3-2.1,12-10.6,15.8-10.9.6-.8.3-3.1-.4-5.1-2.6-1.4-7.4-3.5-14-3.5h0Z"/>
                </g>
                <g>
                  <path class="cls-4" d="M47.9,157.6c-2.9,1.1-8.8,4-13.8,11.1-5,7.1-1.8,10.4,2,11.6.7.2,1.3.6,2,.9,3.2,1.8,6.4,4.9,9.2,4.3,3.5-.8,5.4-2.8,4.7-4.9s-.6-15.3,1.2-17.9c1.8-2.7-5.3-5.1-5.3-5.1h0Z"/>
                  <path class="cls-2" d="M46.6,187c-2.3,0-4.6-1.5-6.7-3-.8-.5-1.6-1.1-2.4-1.5-.7-.4-1.2-.7-1.7-.8-2.7-.9-4.5-2.5-5.2-4.6-.8-2.5,0-5.6,2.5-9.1,5.1-7.2,11.2-10.4,14.4-11.6l.5-.2.5.2c.9.3,5.5,2,6.4,4.6.3.9.2,1.8-.4,2.6-1.4,2.2-1.6,14.9-1,16.7.4,1.1.3,2.3-.3,3.3-.9,1.6-2.8,2.8-5.3,3.3-.4.1-.8.1-1.1.1h0ZM47.9,159.1c-3,1.2-8.3,4.1-12.7,10.4-2,2.8-2.7,5.1-2.2,6.7.5,1.5,2.2,2.4,3.4,2.8.7.3,1.4.6,2.3,1,.9.5,1.7,1.1,2.6,1.6,2.1,1.4,4.2,2.8,5.7,2.5,1.7-.4,3.1-1.1,3.5-2,.2-.4.3-.7.1-1.1-.8-2.3-.8-16,1.4-19.1-.2-.9-2.3-2.2-4.2-2.9h0Z"/>
                </g>
                <g>
                  <path class="cls-4" d="M49.5,161c-.9,2.9-2.4,9.4.1,17.7s7,7.9,10.4,5.7c.6-.4,1.3-.7,2-1,3.4-1.3,7.8-1.9,9.1-4.6,1.5-3.2,1.2-6-.9-6.7-2.1-.8-12.3-9.1-13.3-12.1s-7.3,1-7.3,1h0Z"/>
                  <path class="cls-2" d="M56,187.1c-.7,0-1.4-.1-2.1-.4-2.5-.9-4.4-3.5-5.6-7.6-2.5-8.5-1.1-15.2,0-18.5l.2-.5.4-.3c.8-.5,5-3.1,7.6-2.2.9.3,1.5,1,1.8,1.9.8,2.5,10.6,10.6,12.4,11.2,1.1.4,2,1.2,2.4,2.3.7,1.7.4,3.9-.7,6.3-1.2,2.5-4.2,3.4-7.1,4.4-.9.3-1.8.6-2.7.9-.7.3-1.3.6-1.7.9-1.6,1-3.2,1.6-4.7,1.6h0ZM50.7,161.9c-.9,3.1-2,9,.3,16.4.9,3.2,2.3,5.2,3.9,5.8,1.5.6,3.2-.2,4.4-.9.6-.4,1.3-.8,2.2-1.1.9-.4,1.9-.7,2.9-1,2.4-.7,4.8-1.5,5.5-2.9.8-1.6,1-3.1.7-4.1-.2-.4-.4-.6-.8-.8-2.3-.8-12.9-9.3-14.1-13-.9-.4-3.1.5-4.9,1.5h0Z"/>
                </g>
                <g>
                  <path class="cls-4" d="M53.5,159.7c-.3,1.2-.4,2.2-.4,2.2,1.7,2.6,5.8,7.7,13.9,11,8.1,3.3,10.5-.6,10.9-4.5,0-.7.3-1.4.5-2.2"/>
                  <path class="cls-2" d="M72.4,175.5c-1.7,0-3.6-.5-5.8-1.3-8.2-3.3-12.6-8.6-14.5-11.5l-.3-.4v-.5c0,0,.2-1.1.5-2.4l2.7.6c-.2.6-.3,1.2-.3,1.5,1.8,2.7,5.8,7.1,13,10.1,3.1,1.3,5.5,1.5,7,.6,1.4-.9,1.8-2.6,2-4,0-.7.3-1.5.5-2.5l2.6.8c-.2.7-.4,1.3-.4,1.9-.3,2.8-1.4,4.9-3.3,6.1-1,.6-2.3.9-3.7.9h0Z"/>
                </g>
                <g>
                  <circle class="cls-3" cx="52.3" cy="157.7" r="8.3"/>
                  <path class="cls-2" d="M52.3,167.3c-1.4,0-2.7-.3-4-.9-2.4-1.1-4.2-3-5-5.4-.9-2.4-.8-5,.3-7.4s3-4.2,5.4-5c2.4-.9,5-.8,7.4.3,2.4,1.1,4.2,3,5,5.4.9,2.4.8,5-.3,7.4s-3,4.2-5.4,5c-1.1.4-2.3.6-3.4.6h0ZM52.3,150.7c-.8,0-1.6.2-2.4.5-3.6,1.3-5.4,5.3-4.1,8.9.7,1.7,2,3.1,3.6,3.8,1.7.8,3.5.8,5.3.2,3.6-1.3,5.4-5.3,4.1-8.9-1-2.8-3.7-4.5-6.5-4.5Z"/>
                </g>
              </g>
            </g>
            <g>
              <path class="cls-2" d="M79,113.5h-.4c-2.2-.1-4.1-1-5.6-2.6-1.4-1.6-2.2-3.6-2.1-5.8.1-2.2,1-4.1,2.6-5.6,1.6-1.4,3.6-2.2,5.8-2.1,4.4.2,7.9,4,7.7,8.4h0c-.1,2.2-1,4.1-2.6,5.6-1.5,1.4-3.4,2.1-5.4,2.1h0ZM79,100.2c-1.3,0-2.6.5-3.6,1.4-1,1-1.6,2.3-1.7,3.6s.4,2.8,1.4,3.8,2.3,1.6,3.7,1.7c1.4,0,2.8-.4,3.8-1.4,1-1,1.6-2.3,1.7-3.6.1-2.9-2.2-5.4-5.1-5.5h-.2Z"/>
              <g>
                <g>
                  <rect class="cls-2" x="64.6" y="118.2" width="27.9" height="2.8" transform="translate(-44.2 193) rotate(-87.6)"/>
                  <rect class="cls-2" x="88.2" y="100.5" width="2.8" height="27.9" transform="translate(-55.6 107.2) rotate(-49.1)"/>
                  <rect class="cls-2" x="78.8" y="101.5" width="27.9" height="2.8" transform="translate(-17.2 18.6) rotate(-10.5)"/>
                  <rect class="cls-2" x="71.7" y="91.8" width="27.9" height="2.8" transform="translate(-36.9 124.8) rotate(-61.9)"/>
                  <rect class="cls-2" x="72.1" y="78.8" width="2.8" height="27.9" transform="translate(-30.7 36.6) rotate(-23.3)"/>
                  <rect class="cls-2" x="64.1" y="87.8" width="2.8" height="27.9" transform="translate(-49.8 138.3) rotate(-74.8)"/>
                  <rect class="cls-2" x="53.8" y="112.4" width="27.9" height="2.8" transform="translate(-54.1 62) rotate(-36.2)"/>
                </g>
                <g>
                  <path class="cls-4" d="M78.2,109.8c.6,3,2.4,9.4,8.6,15.7,6.2,6.2,10,3.6,11.9,0,.4-.6.8-1.2,1.3-1.8,2.4-2.8,6-5.5,5.8-8.5-.2-3.6-1.8-5.8-4.1-5.5-2.2.3-15.3-2.1-17.6-4.3-2.3-2.3-6,4.4-6,4.4Z"/>
                  <path class="cls-2" d="M93.6,130.6c-2.4,0-5-1.4-7.8-4.2-6.3-6.4-8.4-13-9-16.4v-.5c-.1,0,.2-.5.2-.5.5-.9,3-5.1,5.7-5.5.9-.2,1.8.2,2.5.8,1.9,1.8,14.5,4.2,16.5,4,1.2-.2,2.3.2,3.2.9,1.4,1.2,2.3,3.2,2.4,5.9.2,2.8-2.1,5.1-4.2,7.3-.7.7-1.3,1.4-1.9,2.1-.5.6-.9,1.1-1.1,1.6-1.4,2.5-3.3,4.1-5.4,4.4-.3,0-.6,0-.9,0h0ZM79.6,110c.7,3.2,2.6,8.9,8.2,14.4,2.4,2.4,4.6,3.5,6.3,3.3,1.6-.3,2.8-1.7,3.4-2.9.4-.7.8-1.3,1.4-2.1.6-.8,1.4-1.5,2.1-2.3,1.7-1.8,3.5-3.6,3.4-5.2-.1-1.8-.6-3.3-1.4-3.9-.3-.3-.7-.4-1.1-.3-2.4.4-16-2-18.8-4.7-1,0-2.6,1.9-3.6,3.7h0Z"/>
                </g>
                <g>
                  <path class="cls-4" d="M81.9,108.9c2.7,1.4,8.9,4,17.6,3,8.7-1,9-5.5,7.5-9.3-.3-.7-.5-1.4-.6-2.2-.7-3.6-.6-8.1-3-9.9-2.9-2.1-5.7-2.2-6.8-.3-1.1,1.9-11.2,10.6-14.4,11.1-3.2.4-.3,7.5-.3,7.5h0Z"/>
                  <path class="cls-2" d="M95.7,113.5c-6.9,0-11.9-2.1-14.5-3.4l-.5-.3-.2-.5c-.4-.9-2.2-5.5-.8-8,.5-.8,1.2-1.3,2.2-1.4,2.6-.4,12.4-8.7,13.3-10.4.6-1,1.5-1.7,2.7-1.9,1.8-.4,4,.3,6.1,1.8,2.3,1.6,2.7,4.8,3.1,7.9.1,1,.3,1.9.4,2.8.2.8.4,1.4.6,1.9,1.1,2.7,1.1,5.1,0,7-1.3,2.3-4.3,3.7-8.6,4.2-1.4.2-2.7.2-4,.2h0ZM82.9,107.9c2.9,1.5,8.6,3.5,16.4,2.7,3.4-.4,5.6-1.4,6.5-2.9.8-1.4.4-3.2-.2-4.5-.3-.7-.5-1.5-.7-2.4-.2-1-.3-2-.5-3-.3-2.5-.7-5-1.9-6-1.5-1.1-2.9-1.6-3.9-1.3-.4.1-.7.3-.9.7-1.2,2.2-11.5,11.2-15.4,11.8-.6.8-.1,3.2.6,5.1h0Z"/>
                </g>
                <g>
                  <path class="cls-4" d="M83.4,105.4c2.8-1.2,8.7-4.5,13.3-11.9,4.7-7.4,1.3-10.6-2.6-11.6-.7-.2-1.4-.5-2.1-.9-3.3-1.7-6.7-4.6-9.5-3.8-3.5,1-5.3,3.1-4.5,5.2.8,2.1,1.3,15.4-.3,18.2s5.6,4.9,5.6,4.9h0Z"/>
                  <path class="cls-2" d="M83.5,106.8l-.5-.2c-.9-.3-5.7-1.7-6.7-4.3-.4-.9-.3-1.8.3-2.6,1.4-2.3.9-15.1.2-16.9-.4-1.1-.4-2.3.2-3.3.8-1.6,2.7-2.9,5.2-3.6,2.7-.8,5.4.9,8.1,2.5.8.5,1.6,1,2.5,1.4.7.4,1.3.6,1.8.8,2.8.8,4.7,2.3,5.4,4.4,1,2.5.3,5.6-2.1,9.3-4.8,7.6-10.8,11-14,12.4l-.5.2h0ZM83.6,78.4c-.2,0-.5,0-.6.1-1.7.5-3,1.3-3.5,2.2-.2.4-.2.7,0,1.1.9,2.3,1.6,16-.4,19.3.3.9,2.4,2.1,4.4,2.7,3-1.4,8.1-4.6,12.3-11.1,1.8-2.9,2.5-5.3,1.8-6.9-.6-1.5-2.3-2.3-3.6-2.7-.7-.2-1.5-.5-2.3-.9-.9-.5-1.8-1-2.7-1.5-1.8-1.1-3.7-2.3-5.2-2.3h0Z"/>
                </g>
                <g>
                  <path class="cls-4" d="M81.7,101.9c.8-3,1.9-9.5-1-17.9-2.9-8.3-7.4-7.6-10.7-5.2-.6.4-1.2.8-2,1.1-3.3,1.5-7.8,2.4-8.9,5.1-1.4,3.3-.9,6.1,1.2,6.7,2.1.7,12.9,8.5,14,11.5,1.1,3,7.3-1.4,7.3-1.4h0Z"/>
                  <path class="cls-2" d="M76,105.8c-.4,0-.7,0-1.1-.2-.9-.3-1.5-.9-1.9-1.8-.9-2.5-11.2-10.1-13.1-10.7-1.1-.4-2-1.1-2.5-2.2-.8-1.6-.6-3.9.4-6.4,1.1-2.6,4.1-3.7,7-4.8.9-.4,1.8-.7,2.7-1.1.7-.3,1.3-.6,1.7-1,2.4-1.7,4.7-2.2,6.8-1.5,2.6.8,4.6,3.3,6,7.4,2.9,8.5,1.9,15.3,1,18.7l-.2.5-.4.3c-.7.5-4,2.7-6.5,2.7h.1ZM74.2,78.7c-1.3,0-2.5.7-3.4,1.3-.6.4-1.3.8-2.2,1.2-.9.4-1.9.8-2.9,1.1-2.4.9-4.8,1.7-5.4,3.2-.7,1.6-.9,3.2-.5,4.1.2.4.5.6.8.7,2.4.7,13.5,8.8,14.9,12.4.9.4,3.1-.6,4.8-1.7.8-3.2,1.5-9.2-1.1-16.5-1.1-3.2-2.6-5.2-4.3-5.7-.3-.1-.7-.2-1-.2h.1Z"/>
                </g>
                <g>
                  <path class="cls-4" d="M77.9,101.2c-1.8-2.5-6.3-7.4-14.6-10.4-8.3-2.9-10.6,1.1-10.8,5.1,0,.7-.2,1.4-.4,2.2-.9,3.6-3,7.5-1.6,10.2,1.7,3.2,4.2,4.5,6.1,3.2,1.8-1.2,14.7-4.8,17.8-3.7s3.5-6.6,3.5-6.6h0Z"/>
                  <path class="cls-2" d="M55.1,113.4c-.4,0-.7,0-1-.1-1.8-.4-3.4-1.9-4.7-4.3-1.3-2.5-.4-5.5.6-8.4.3-.9.6-1.8.8-2.7.2-.8.3-1.4.3-1.9.2-2.9,1.2-5,3-6.3,2.2-1.5,5.4-1.5,9.6,0,8.5,3,13.1,8.1,15.2,10.8l.3.4v.5c-.1,1-.5,6-2.8,7.5s-1.7.7-2.6.4c-2.5-.8-14.9,2.5-16.6,3.6-.7.5-1.5.7-2.3.7h0ZM58.4,91.3c-1.1,0-2,.2-2.6.7-1.4.9-1.7,2.8-1.8,4.2,0,.7-.2,1.5-.4,2.5-.3,1-.6,1.9-.9,2.9-.8,2.4-1.6,4.8-.8,6.2.9,1.6,2,2.7,2.9,2.9.4.1.8,0,1.1-.2,2.1-1.4,15.3-5.1,18.9-3.9.9-.5,1.5-2.8,1.6-4.9-2-2.6-6.3-6.9-13.6-9.5-1.7-.6-3.2-.9-4.5-.9h0Z"/>
                </g>
                <g>
                  <path class="cls-4" d="M75,103.7c-3.1-.1-9.7.3-17.2,4.9s-5.7,8.9-2.7,11.6c.5.5,1,1,1.5,1.6,2.2,2.9,4,7.1,6.9,7.6,3.5.6,6.1-.5,6.3-2.7s5.4-14.4,8.2-16.2c2.7-1.8-3-6.9-3-6.9h0Z"/>
                  <path class="cls-2" d="M65.4,131c-.7,0-1.4,0-2.1-.2-2.8-.5-4.5-3.2-6.2-5.7-.5-.8-1.1-1.6-1.6-2.4-.5-.6-.9-1.1-1.3-1.5-2.2-1.9-3.2-4.1-3-6.3.2-2.7,2.2-5.2,5.9-7.5,7.6-4.8,14.5-5.2,18-5.1h.5l.4.4c.7.7,4.4,4.1,4.2,6.8,0,.9-.5,1.7-1.3,2.3-2.2,1.4-7.4,13.2-7.5,15.2-.1,1.2-.7,2.2-1.6,2.9-1,.8-2.5,1.2-4.2,1.2ZM74.1,105.1c-3.3,0-9.2.7-15.6,4.7-2.9,1.8-4.5,3.7-4.6,5.4-.2,1.6,1.1,3.1,2.1,4,.6.5,1.1,1.1,1.7,1.8.6.8,1.2,1.6,1.7,2.5,1.4,2.1,2.8,4.3,4.4,4.5,1.8.3,3.3.2,4.1-.5.4-.3.5-.6.6-1,.2-2.5,5.5-15.1,8.8-17.2.2-1-1.3-2.9-2.8-4.4h-.4Z"/>
                </g>
                <g>
                  <path class="cls-4" d="M75.1,107.5c-2,2.4-5.8,7.8-6.9,16.5-1,8.7,3.4,10.1,7.4,9.3.7-.1,1.4-.2,2.3-.2,3.7.1,8,1.3,10.3-.7,2.7-2.4,3.4-5.1,1.8-6.6s-7.9-13.2-7.6-16.5c.3-3.2-7.2-1.9-7.2-1.9h0Z"/>
                  <path class="cls-2" d="M84.1,135.1c-1.1,0-2.3-.1-3.4-.2-1-.1-1.9-.2-2.9-.2s-1.4,0-1.9.1c-2.8.5-5.2,0-6.8-1.5-2-1.8-2.7-5-2.2-9.3,1-8.9,4.9-14.6,7.2-17.2l.3-.4h.5c1-.3,5.9-1,7.9.9.7.6,1,1.5.9,2.5-.3,2.6,5.7,14,7.2,15.3.9.8,1.3,1.9,1.3,3.1,0,1.8-1.1,3.8-3.1,5.5-1.3,1.2-3,1.5-4.9,1.5h0ZM77.5,131.9h.4c1,0,2.1.1,3.1.2,2.5.3,5,.5,6.3-.6,1.3-1.2,2.2-2.5,2.2-3.5,0-.4-.2-.8-.4-1-1.8-1.7-8.4-13.8-8-17.6-.7-.7-3.1-.8-5.1-.5-2.1,2.5-5.3,7.6-6.2,15.4-.4,3.4.1,5.8,1.3,7,1.2,1.1,3.1,1.1,4.4.9.6-.1,1.3-.2,2.1-.2h0Z"/>
                </g>
                <g>
                  <path class="cls-4" d="M79.4,107.9c-.7,1-1.2,1.9-1.2,1.9.6,3,2.4,9.4,8.6,15.7,6.2,6.2,10,3.6,11.9,0,.4-.6.8-1.2,1.3-1.8"/>
                  <path class="cls-2" d="M93.6,130.6c-2.4,0-5-1.4-7.8-4.2-6.3-6.4-8.4-13-9-16.4v-.5c-.1,0,.2-.5.2-.5,0,0,.6-1,1.3-2.1l2.3,1.6c-.4.5-.7,1-.9,1.3.7,3.2,2.6,8.9,8.2,14.4,2.4,2.4,4.6,3.5,6.3,3.3,1.6-.3,2.8-1.7,3.4-2.9.4-.7.8-1.3,1.4-2.1l2.1,1.7c-.5.6-.9,1.1-1.1,1.6-1.4,2.5-3.3,4.1-5.4,4.4-.3,0-.6,0-.9,0h-.1Z"/>
                </g>
                <g>
                  <circle class="cls-3" cx="79" cy="105.5" r="8.4"/>
                  <path class="cls-2" d="M79,115.2h-.4c-2.6-.1-5-1.2-6.8-3.1s-2.7-4.4-2.6-7c.2-5.4,4.8-9.5,10.2-9.3,2.6.1,5,1.2,6.8,3.1,1.7,1.9,2.7,4.4,2.6,7h-1.4c0,0,1.4,0,1.4,0-.1,2.6-1.2,5-3.1,6.8-1.8,1.7-4.2,2.6-6.6,2.6h0ZM79,98.5c-3.7,0-6.8,2.9-7,6.7-.1,1.8.6,3.6,1.8,5,1.3,1.4,3,2.2,4.9,2.3,1.8,0,3.6-.6,5-1.8,1.4-1.3,2.2-3,2.3-4.9h0c.1-1.8-.6-3.6-1.8-5-1.3-1.4-3-2.2-4.9-2.3h-.3,0Z"/>
                </g>
              </g>
            </g>
          </g>
          <path class="cls-2" d="M200.3,166.4c-1.6,0-3.1-.2-4.6-.6-1.5-.4-2.9-1-4.2-1.8-1.2-.8-2.3-1.8-3.1-3-.8-1.2-1.3-2.6-1.5-4.2h6.6c.2,1,.6,1.8,1.3,2.5.6.7,1.4,1.2,2.4,1.5.9.4,2,.5,3.1.5s2.3-.2,3.2-.5,1.7-.7,2.3-1.3.9-1.3.9-2.3-.3-1.5-.7-2-1.1-.9-1.9-1.3c-.8-.3-1.7-.6-2.8-.8l-5.5-1.1c-2.4-.5-4.3-1.4-5.7-2.9-1.4-1.5-2.2-3.4-2.2-5.8,0-2,.5-3.7,1.6-5.2,1.1-1.5,2.6-2.6,4.4-3.4s4-1.2,6.3-1.2,5.1.4,6.9,1.3c1.9.9,3.3,2,4.3,3.5,1,1.5,1.5,3.1,1.5,4.9h-6.5c-.1-1.1-.5-2-1-2.7-.6-.7-1.3-1.1-2.2-1.4-.9-.3-1.8-.5-3-.5s-1.6.1-2.3.3c-.7.2-1.3.5-1.8.8-.5.4-.9.8-1.1,1.2s-.4,1-.4,1.6c0,.9.3,1.7.9,2.3.6.6,1.8,1,3.5,1.4l5.5,1.1c1.9.4,3.5,1,4.7,1.7,1.2.8,2,1.6,2.6,2.5.6.9,1,1.9,1.1,2.9.2,1,.3,1.9.3,2.7,0,1.7-.6,3.3-1.6,4.7-1.1,1.4-2.6,2.5-4.5,3.3s-4.2,1.2-6.8,1.2h.1Z"/>
          <path class="cls-2" d="M168,225.1c0,2.6-.4,4.8-1.3,6.7-.8,1.9-2.2,3.3-4.1,4.4-1.9,1-4.4,1.5-7.4,1.5s-5.6-.5-7.5-1.5c-1.8-1-3.2-2.5-4.1-4.4-.8-1.9-1.2-4.2-1.2-6.8v-19.6h6.6v20c0,2.4.6,4.1,1.7,5.2,1.1,1.1,2.6,1.6,4.5,1.6s2.3-.3,3.2-.7,1.7-1.2,2.2-2.2c.5-1,.8-2.3.8-3.9v-20h6.5v19.8h0Z"/>
          <path class="cls-2" d="M258.2,225.1c0,2.6-.4,4.8-1.3,6.7-.8,1.9-2.2,3.3-4.1,4.4-1.9,1-4.4,1.5-7.4,1.5s-5.6-.5-7.5-1.5c-1.8-1-3.2-2.5-4.1-4.4-.8-1.9-1.2-4.2-1.2-6.8v-19.6h6.6v20c0,2.4.6,4.1,1.7,5.2,1.1,1.1,2.6,1.6,4.5,1.6s2.3-.3,3.2-.7,1.7-1.2,2.2-2.2c.5-1,.8-2.3.8-3.9v-20h6.5v19.8h0Z"/>
          <path class="cls-2" d="M200,255.6c-11.6,0-22.8-3.5-32.2-10.3-.8-.6-1-1.7-.4-2.6.6-.8,1.7-1,2.6-.4,8.8,6.3,19.2,9.6,30.1,9.6s21.2-3.3,30.1-9.6c.8-.6,2-.4,2.6.4s.4,2-.4,2.6c-9.4,6.7-20.6,10.3-32.2,10.3h0Z"/>
          <path class="cls-2" d="M253.6,197.9c-1,0-1.7-.7-1.8-1.7-1.4-19.7-13.6-36.6-31.9-44.2-.9-.4-1.4-1.5-1-2.4.4-.9,1.5-1.4,2.4-1,19.6,8.1,32.6,26.2,34.1,47.3,0,1-.7,1.9-1.7,1.9h-.2Z"/>
          <path class="cls-2" d="M146.4,197.9h-.2c-1,0-1.8-1-1.7-1.9,1.5-20.9,14.5-39,33.8-47.2l.3-.2c.9-.4,2,0,2.4,1,.4.9,0,2-1,2.4h-.3c-18.1,7.7-30.2,24.6-31.6,44.2,0,1-.9,1.7-1.8,1.7h0Z"/>
          <g>
            <g>
              <path class="cls-4" d="M200,315.3c-11.8,0-23.1-1.7-33.8-5h0v52.1s12.4,12.4,33.8,21.1h0c21.3-8.8,33.8-21.1,33.8-21.1v-52.1h0c-10.7,3.3-22,5-33.8,5Z"/>
              <path class="cls-6" d="M200,383.6h0c21.3-8.8,33.8-21.1,33.8-21.1h-67.5s12.4,12.4,33.8,21.1h0Z"/>
              <g>
                <path class="cls-1" d="M217.5,364c-2.8-1.1-5.7-1.6-8.7-1.6h-7.4v-2.8c1.6.8,4.2,1.1,7,.2,3.7-1.1,6.8-3.2,9.1-6.5-3-1.2-7.4-1.5-11.2-.4-2.3.7-3.8,1.7-4.9,2.9v-5.2c1.6.8,4.2,1.1,7,.2,3.7-1.1,6.8-3.2,9.1-6.5-3-1.2-7.4-1.5-11.2-.4-2.3.7-3.8,1.7-4.9,2.9v-5.2c1.6.8,4.2,1.1,7,.2,3.7-1.1,6.8-3.2,9.1-6.5-3-1.2-7.4-1.5-11.2-.4-2.3.7-3.8,1.7-4.9,2.9v-4.2h-2.8v4.2c-1.1-1.2-2.7-2.3-4.9-2.9-3.7-1.1-8.1-.8-11.2.4,2.3,3.3,5.3,5.4,9.1,6.5,2.8.8,5.3.6,7-.2v5.2c-1.1-1.2-2.7-2.3-4.9-2.9-3.7-1.1-8.1-.8-11.2.4,2.3,3.3,5.3,5.4,9.1,6.5,2.8.8,5.3.6,7-.2v5.2c-1.1-1.2-2.7-2.3-4.9-2.9-3.7-1.1-8.1-.8-11.2.4,2.3,3.3,5.3,5.4,9.1,6.5,2.8.8,5.3.6,7-.2v2.8h-7.1c-3,0-5.9.6-8.7,1.6l-.4.2c3.5,2,7.5,3,11.6,3h12c4.1,0,8.1-1,11.6-3l-.4-.2h.4Z"/>
                <path class="cls-6" d="M200,317.8c-3.3,1.8-5.6,6.3-5.6,10.3s1.3,5.1,3.4,7c1.2,1.1,3.1,1.1,4.4,0,2.1-1.9,3.4-3.9,3.4-7s-2.3-8.5-5.6-10.3h0Z"/>
              </g>
            </g>
            <path class="cls-2" d="M200,385l-.5-.2c-21.4-8.8-33.7-20.9-34.2-21.4l-.4-.4v-54.1h1.8c21.6,6.7,45.1,6.7,66.7,0h.4c0,0,1.4,0,1.4,0v54.1l-.4.4c-.5.5-12.8,12.7-34.2,21.4l-.5.2h0ZM167.6,361.8c2.3,2.1,14,12.6,32.4,20.3,18.5-7.7,30.1-18.1,32.4-20.3v-49.7c-21,6.1-43.8,6.1-64.8,0v49.7h0Z"/>
          </g>
          <polygon class="cls-2" points="309.3 320.8 300.8 332.7 302.4 325.1 309.3 320.8"/>
          <polygon class="cls-2" points="284.1 306.6 280 312 283.5 313.1 284.1 306.6"/>
          <path class="cls-2" d="M334.7,106.2l1.7,6,2.4-.7s-.8-4.4-4.2-5.3h0Z"/>
          <path class="cls-2" d="M292.3,68.4c0,0-.2-.1-.2-.1h0c0,0,0-.1,0-.2-.6-1-2.1-1.5-3.1-.8-1.1.7-1.4,2-.8,3.1.5.8,1.2,1.5,2,2,1.1.6,2.6.3,3.1-.8.6-1.1.3-2.6-.8-3.1h0Z"/>
          <path class="cls-2" d="M310.2,66.2h-.5c-1.2,0-2.4,1.1-2.3,2.3s1,2.3,2.3,2.3h.5c1.2,0,2.4-1.1,2.3-2.3s-1-2.3-2.3-2.3Z"/>
          <g>
            <g>
              <path class="cls-4" d="M121.5,149.6c1.2.7,2.2,1.4,2.8,2.3s1,1.9,1,3.1-.4,2.5-1.2,4c-.8,1.5-1.7,2.5-2.7,3.1-1,.6-2.1.9-3.1.8-1.1-.1-2.3-.5-3.5-1.2l-8.7-4.8,1.9-3.5,8.9,4.9c1,.6,1.9.7,2.7.5.7-.3,1.3-.7,1.7-1.4.3-.5.4-1,.4-1.5s-.2-1-.4-1.4c-.3-.5-.8-.9-1.5-1.3l-8.9-4.9,1.9-3.4,8.7,4.8h0Z"/>
              <path class="cls-4" d="M127.1,127.3l2.7-2.8,12.1,11.4-2.4,2.6-12.8-1.9,7.7,7.3-2.7,2.8-12.1-11.4,2.7-2.8,12.2,1.8-7.3-7h0Z"/>
              <path class="cls-4" d="M138.5,117.6l3.2-2.3,9.6,13.5-3.2,2.3-9.6-13.5Z"/>
              <path class="cls-4" d="M163.9,103.6l1.7,17.4-4,1.8-12-12.7,3.4-1.5,8.7,9.2-1.2-12.6,3.4-1.5h0Z"/>
              <path class="cls-4" d="M176.9,117l-3.3-16.3,11.6-2.4.6,3.2-7.7,1.5.7,3.3,6.6-1.3.6,3.1-6.6,1.3.7,3.4,7.8-1.6.7,3.2-11.6,2.4h0Z"/>
              <path class="cls-4" d="M209,114.4h-4c0-.1-2.4-6.2-2.4-6.2h-2.8c0,0-.2,6-.2,6h-3.9c0-.1.5-16.7.5-16.7l7.2.2c1.4,0,2.5.3,3.3.8s1.4,1.1,1.8,1.9c.4.8.6,1.7.5,2.7,0,.9-.2,1.6-.4,2.2-.3.6-.6,1.1-1,1.5s-.9.7-1.4,1l2.8,6.8h0ZM202.7,105.2c.7,0,1.3-.2,1.8-.7s.7-1,.7-1.6-.2-1.2-.7-1.7-1-.7-1.6-.7h-2.9c0-.1-.1,4.6-.1,4.6h2.8Z"/>
              <path class="cls-4" d="M221.9,117.3c-.8-.2-1.6-.5-2.3-.9s-1.4-.9-1.9-1.5c-.6-.6-.9-1.2-1.2-1.9-.3-.7-.3-1.5-.2-2.4l3.8,1c0,.5,0,.9.3,1.2.2.4.5.7.9,1,.4.3.8.5,1.4.6.5.2,1,.2,1.5.2s.9-.1,1.2-.3.6-.5.7-.9c.1-.4,0-.7-.2-1-.2-.3-.5-.6-.8-.8-.4-.3-.8-.5-1.2-.7l-2.5-1.2c-1.2-.5-2-1.3-2.6-2.2-.5-1-.6-2.1-.3-3.4.3-1,.8-1.8,1.5-2.5.8-.6,1.7-1,2.8-1.1,1.1-.2,2.2,0,3.4.3,1.4.4,2.6.9,3.4,1.6.9.7,1.4,1.5,1.7,2.4.3.9.4,1.8.1,2.8l-3.7-1c0-.5,0-.9-.2-1.3s-.4-.7-.8-.9c-.4-.3-.8-.4-1.3-.6-.4-.1-.8-.2-1.1-.2s-.6,0-.9.2c-.3.1-.5.2-.6.4-.2.2-.3.4-.3.6-.1.4,0,.8.2,1.1.2.3.7.7,1.4,1l2.5,1.2c1,.5,1.8,1,2.3,1.5s.9,1.1,1,1.7c.2.6.3,1.1.2,1.6,0,.5-.1,1-.3,1.4-.3.9-.7,1.6-1.5,2.2s-1.7.9-2.8,1.1c-1.1.2-2.3,0-3.6-.3v-.2Z"/>
              <path class="cls-4" d="M242.3,106.8l3.5,1.7-7.1,15-3.5-1.7,7.1-15Z"/>
              <path class="cls-4" d="M252.2,115.6l2-2.8,11,7.9-2,2.8-3.9-2.8-7.6,10.7-3.2-2.3,7.6-10.7-4-2.8Z"/>
              <path class="cls-4" d="M258.3,136.5l16.2-6.8,2.7,3-8.3,15.5-2.6-2.9,1.8-3.3-3.7-4.2-3.4,1.4-2.6-2.9h0ZM267.4,136.3l2.6,2.8,3.1-5.4-5.7,2.6h0Z"/>
              <path class="cls-4" d="M275.3,159c-.4-.7-.7-1.5-.9-2.3-.2-.8-.3-1.6-.3-2.4,0-.8.3-1.5.6-2.3.4-.7.9-1.3,1.6-1.8l1.9,3.5c-.4.3-.6.7-.7,1.1-.2.4-.2.8-.1,1.3s.3.9.5,1.4c.3.5.6.9.9,1.2.3.4.7.6,1,.7.4.1.7,0,1.1-.2.3-.2.5-.5.6-.8,0-.3,0-.7,0-1.1-.1-.4-.2-.9-.4-1.3l-.9-2.6c-.4-1.2-.5-2.4-.2-3.4.3-1,1.1-1.9,2.2-2.6.9-.5,1.9-.7,2.9-.6,1,.2,1.8.6,2.7,1.2s1.6,1.5,2.2,2.6c.7,1.3,1.1,2.5,1.2,3.6.1,1.1,0,2.1-.5,2.9-.4.8-1.1,1.5-1.9,2l-1.9-3.4c.4-.3.7-.6.8-1,.2-.4.2-.8.1-1.2-.1-.4-.3-.9-.5-1.3-.2-.4-.5-.7-.7-.9-.3-.3-.5-.4-.7-.5s-.5-.2-.7-.2-.5,0-.6.2c-.4.2-.6.5-.7.9s0,.9.2,1.7l.9,2.6c.4,1.1.5,1.9.5,2.7s-.2,1.4-.5,1.9-.7,1-1.1,1.3-.8.6-1.2.8c-.8.5-1.6.6-2.6.4-.9-.2-1.8-.6-2.7-1.3-.9-.7-1.6-1.6-2.3-2.8v-.2Z"/>
            </g>
            <g>
              <path class="cls-4" d="M97.9,219.7c-.2-.8-.2-1.6-.2-2.5,0-.8.3-1.6.5-2.4.3-.7.7-1.4,1.3-1.9s1.2-.9,2.1-1.2l.7,3.9c-.4.2-.8.4-1,.8-.3.3-.4.7-.5,1.2-.1.5,0,1,0,1.5.1.5.3,1,.5,1.4s.5.8.8,1,.7.3,1.1.2c.4,0,.6-.3.8-.5.2-.3.3-.7.4-1.1s.1-.9.1-1.4v-2.8c0-1.3.3-2.4,1-3.2.6-.9,1.6-1.4,2.9-1.7,1.1-.2,2-.1,2.9.4s1.6,1.1,2.2,2.1c.6.9,1,1.9,1.2,3.2.3,1.4.3,2.7,0,3.8-.3,1.1-.7,1.9-1.4,2.6-.7.7-1.5,1.1-2.5,1.3l-.7-3.8c.5-.2.9-.4,1.1-.7s.4-.7.5-1.1,0-.9,0-1.4c-.1-.4-.2-.8-.4-1.1-.2-.3-.3-.6-.5-.7-.2-.2-.4-.3-.6-.4-.2,0-.4-.1-.7,0-.4.1-.7.3-.9.6-.2.3-.3.9-.4,1.7v2.7c0,1.1-.2,2-.5,2.7-.3.7-.7,1.2-1.1,1.6-.5.4-.9.7-1.4.9s-1,.3-1.4.4c-.9.2-1.7,0-2.6-.4-.8-.5-1.5-1.1-2.2-2.1-.6-.9-1-2.1-1.3-3.4h.2Z"/>
              <path class="cls-4" d="M113.7,245.7c-1.3.6-2.5.8-3.5.8s-2.1-.4-3-1.1c-.9-.7-1.7-1.8-2.4-3.4-.7-1.5-.9-2.9-.8-4.1.1-1.1.6-2.2,1.3-2.9.8-.8,1.8-1.5,3.1-2.1l9.1-4,1.6,3.6-9.3,4.1c-1.1.5-1.7,1.1-2,1.8s-.2,1.5.1,2.2c.2.5.5.9.9,1.2.4.3.9.5,1.4.6.6,0,1.2-.1,1.9-.4l9.3-4.1,1.6,3.6-9.2,4h-.2Z"/>
              <path class="cls-4" d="M112.9,257.5l13-10.3,3.5,4.5-6.6,9.3,10.6-4.2,3.5,4.5-13,10.3-2.4-3.1,9.7-7.6-12,4.8-1.8-2.3,7.4-10.5-9.7,7.6-2.4-3.1h0Z"/>
              <path class="cls-4" d="M130.8,278.2l14.7-9.6,3.2,2.5-5.3,16.8-3.1-2.4,1.2-3.5-4.5-3.4-3.1,2.1-3.1-2.4h0ZM139.7,276.3l3.1,2.4,2.1-5.9-5.1,3.5Z"/>
              <path class="cls-4" d="M154.2,279l1.5-3.1,12.2,6-1.5,3.1-4.3-2.1-5.7,11.8-3.5-1.7,5.7-11.8-4.4-2.1h0Z"/>
              <path class="cls-4" d="M169,299.6l4.1-16.1,11.4,2.9-.8,3.1-7.6-1.9-.8,3.3,6.5,1.6-.8,3.1-6.5-1.6-.9,3.3,7.7,1.9-.8,3.2-11.5-2.9h0Z"/>
              <path class="cls-4" d="M203.5,304.3h-4c0-.1-2.4-6.2-2.4-6.2h-2.8c0-.1-.2,6-.2,6h-3.9c0-.1.5-16.7.5-16.7l7.2.2c1.4,0,2.5.3,3.3.8s1.4,1.1,1.8,1.9c.4.8.6,1.7.5,2.7,0,.9-.2,1.6-.4,2.2s-.6,1.1-1,1.5c-.4.4-.9.7-1.4,1l2.8,6.8h0ZM197.2,295.1c.7,0,1.3-.2,1.8-.7.5-.5.7-1,.7-1.6s-.2-1.2-.6-1.7c-.5-.5-1-.7-1.6-.7h-2.9c0-.1-.2,4.6-.2,4.6h2.8q0,.1,0,.1Z"/>
              <path class="cls-4" d="M212.3,303.7l2.5-17.4,4-.8,9,15.1-3.8.8-1.9-3.2-5.5,1.1-.5,3.7-3.8.8h0ZM216.8,295.7l3.8-.8-3-5.4-.7,6.2h0Z"/>
              <path class="cls-4" d="M254.5,280.9c.7,1.2,1.1,2.3,1.2,3.4.2,1.1-.1,2.2-.7,3.1-.6,1-1.6,1.9-3.1,2.8s-2.8,1.3-4,1.3-2.2-.3-3.1-1c-.9-.7-1.7-1.6-2.4-2.8l-5-8.6,3.4-2,5.1,8.8c.6,1,1.3,1.6,2.1,1.8s1.5,0,2.2-.4c.5-.3.9-.6,1.1-1s.4-.9.4-1.5c0-.6-.3-1.2-.6-1.8l-5.1-8.8,3.4-2,5,8.6h0Z"/>
              <path class="cls-4" d="M256,271.6l-2.4-2.5,10-9.2,2.4,2.5-3.5,3.3,8.9,9.6-2.9,2.7-8.9-9.6-3.5,3.3h0Z"/>
              <path class="cls-4" d="M278.8,267.7l-10-14.5,2.4-3.3,16.9,4.9-2.3,3.1-3.6-1.1-3.3,4.5,2.1,3.1-2.3,3.2h.1ZM276.8,258.8l2.3-3.1-6-1.9,3.7,5h0Z"/>
              <path class="cls-4" d="M297.6,234.7l-1.6,3.7h-6.6l-1.1,2.6,5.6,2.4-1.5,3.6-15.2-6.5,2.8-6.7c.6-1.3,1.2-2.2,1.9-2.8s1.5-.9,2.4-1c.9,0,1.7.1,2.7.5.8.4,1.4.7,1.9,1.2.5.5.8,1,1,1.5.2.6.4,1.1.4,1.7l7.3-.2h0ZM286.8,237.3c.3-.7.3-1.3,0-1.9-.3-.6-.7-1-1.3-1.3s-1.2-.3-1.8,0-1,.7-1.2,1.3l-1.1,2.7,4.3,1.8,1.1-2.6h0Z"/>
              <path class="cls-4" d="M300.2,226.2l-15.3-8.6.7-4,17.3-3-.7,3.8-3.7.6-1,5.5,3.3,1.8-.7,3.8h0ZM294.5,219.1l.7-3.8-6.2.9,5.5,2.9h0Z"/>
            </g>
          </g>
        </g>
      </g>
    </g>
  </g>
</svg>