<?xml version="1.0" encoding="UTF-8" standalone="no"?>
<!-- Generator: Adobe Illustrator 19.2.1, SVG Export Plug-In . SVG Version: 6.00 Build 0)  -->

<svg
   version="1.1"
   id="layer"
   x="0px"
   y="0px"
   viewBox="0 0 600.09998 257"
   xml:space="preserve"
   width="600.09998"
   height="257"
   xmlns="http://www.w3.org/2000/svg"
   xmlns:svg="http://www.w3.org/2000/svg"><defs
   id="defs4" />
<style
   type="text/css"
   id="style1">
	.st0{fill:#FFFFFF;}
	.st1{fill:#F58022;}
	.st2{fill:#0865B1;}
</style>
<path
   d="m 24,184.7 c -0.4,-2.1 -0.9,-3.3 -1.4,-4 -0.8,-1 -1.4,-1.3 -4.7,-1.3 H 14.7 V 201 c 0,3.5 0.4,3.9 4.7,4.2 v 1.5 h -13 v -1.5 c 4.2,-0.3 4.5,-0.6 4.5,-4.2 V 179.4 H 8 c -3.5,0 -4.4,0.4 -5,1.3 -0.6,0.8 -0.9,2.1 -1.5,4.1 H 0 c 0.2,-2.8 0.4,-5.7 0.5,-8.2 h 1 c 0.7,1 1.2,1.1 2.5,1.1 h 17.6 c 1.2,0 1.6,-0.3 2.3,-1.1 H 25 c 0,2.1 0.2,5.4 0.4,8 z m 36.8,-6.9 H 48.9 v 1.5 c 3.6,0.3 3.9,0.5 3.9,4.1 v 7 H 37.6 v -7 c 0,-3.7 0.4,-3.9 3.9,-4.1 v -1.5 H 29.6 v 1.5 c 3.8,0.3 4.1,0.4 4.1,4.1 v 17.7 c 0,3.7 -0.4,3.9 -4,4.1 v 1.5 h 12 v -1.5 c -3.7,-0.3 -4.1,-0.5 -4.1,-4.1 v -8.7 h 15.2 v 8.7 c 0,3.7 -0.4,3.9 -4.3,4.1 v 1.5 h 12.2 v -1.5 c -3.7,-0.3 -4.1,-0.4 -4.1,-4.1 v -17.7 c 0,-3.7 0.4,-3.9 4.1,-4.1 v -1.5 z m 26.1,21.6 c -0.6,1.8 -1.5,3.3 -2.2,4.2 -1,1.2 -2.4,1.5 -5.6,1.5 -2.2,0 -3.8,0 -4.7,-0.6 -0.8,-0.5 -1.1,-1.5 -1.1,-3.6 v -8.2 h 4.2 c 3.9,0 4.2,0.2 4.8,3.4 h 1.5 v -8.7 h -1.5 c -0.6,3 -0.8,3.3 -4.8,3.3 h -4.2 v -9.9 c 0,-1.3 0.1,-1.4 1.5,-1.4 h 3.6 c 3.1,0 4.3,0.3 4.9,1.2 0.6,1 1,2 1.4,3.8 l 1.5,-0.2 c -0.2,-2.5 -0.4,-5.6 -0.4,-6.6 H 65.5 v 1.4 c 3.5,0.3 3.9,0.4 3.9,4.4 V 201 c 0,3.6 -0.4,4 -4.5,4.3 v 1.4 h 21.9 c 0.4,-1.3 1.3,-5.7 1.6,-7.2 z m 47.9,-21.6 h -11 v 1.5 c 3.2,0.2 4.2,0.8 4.5,2.4 0.2,1.4 0.3,3.2 0.3,7.4 v 3.2 c 0,7.7 -2.3,12.6 -8.4,12.6 -5.2,0 -8.4,-3.6 -8.4,-11.2 v -10 c 0,-3.9 0.4,-4.1 3.9,-4.4 v -1.5 h -11.8 v 1.5 c 3.6,0.3 4,0.5 4,4.4 v 10.9 c 0,5.3 1.3,8.6 3.9,10.7 2.1,1.5 4.6,2.1 7.3,2.1 2.9,0 6,-0.9 8.1,-3.1 2.6,-2.7 3.4,-6.5 3.4,-11.9 V 189 c 0,-4.2 0.1,-6.1 0.3,-7.3 0.2,-1.7 1.3,-2.3 3.9,-2.5 z m 34.6,-0.1 h -11 v 1.4 c 3.1,0.2 4.2,0.7 4.5,2.7 0.1,1.2 0.3,3.3 0.3,7.5 v 10.6 h -0.1 l -18.5,-22.1 h -6.7 v 1.4 c 2.1,0.2 3.1,0.5 4,1.6 0.8,1.1 0.9,1.2 0.9,4.4 v 9.7 c 0,4 -0.1,6.1 -0.3,7.6 -0.2,2.1 -1.4,2.7 -4,2.8 v 1.5 h 10.9 v -1.5 c -3.1,-0.2 -4.1,-0.7 -4.4,-2.9 -0.1,-1.3 -0.3,-3.4 -0.3,-7.4 v -10.9 h 0.1 l 18.9,23.2 h 1.6 v -17.8 c 0,-4.2 0.1,-6.2 0.3,-7.6 0.2,-1.8 1.3,-2.4 3.9,-2.5 v -1.7 z m 15.9,29 v -1.5 c -3.7,-0.3 -4.1,-0.4 -4.1,-4.2 v -17.5 c 0,-3.8 0.4,-4 4.1,-4.3 v -1.5 h -12 v 1.5 c 3.7,0.3 4.1,0.5 4.1,4.3 V 201 c 0,3.7 -0.4,4 -4.1,4.2 v 1.5 z m 34,-28.9 h -10.2 v 1.5 c 3.7,0.4 3.9,0.8 3,3.3 -1.2,3.8 -4.6,12.4 -7,18.4 H 205 c -2.9,-7.4 -6.2,-16 -7.4,-19.2 -0.7,-1.9 -0.6,-2.2 2.6,-2.5 v -1.5 h -11.1 v 1.5 c 2.7,0.3 3.4,0.6 4.7,3.8 2.4,6.1 6.3,16 9.3,24.1 h 1.6 c 3.4,-9.1 8.1,-20.4 9.3,-23.2 1.7,-4 2.3,-4.4 5.3,-4.7 z m 25.2,21.6 c -0.6,1.8 -1.5,3.3 -2.2,4.2 -1,1.2 -2.4,1.5 -5.6,1.5 -2.2,0 -3.8,0 -4.7,-0.6 -0.8,-0.5 -1.1,-1.5 -1.1,-3.6 v -8.2 h 4.2 c 3.9,0 4.2,0.2 4.8,3.4 h 1.5 v -8.7 h -1.5 c -0.6,3 -0.8,3.3 -4.8,3.3 h -4.2 v -9.9 c 0,-1.3 0.1,-1.4 1.5,-1.4 h 3.6 c 3.1,0 4.3,0.3 4.9,1.2 0.6,1 1,2 1.4,3.8 l 1.5,-0.2 c -0.2,-2.5 -0.4,-5.6 -0.4,-6.6 h -20.2 v 1.4 c 3.5,0.3 3.9,0.4 3.9,4.4 V 201 c 0,3.6 -0.4,4 -4.5,4.3 v 1.4 h 21.9 c 0.4,-1.3 1.3,-5.7 1.6,-7.2 z m 32.2,6.4 c -1,-0.3 -2.1,-0.8 -3.3,-2.1 -1.1,-1.2 -1.9,-2.2 -3.6,-4.6 -1.3,-2 -3.2,-5 -4,-6.4 3.3,-1.4 5.7,-3.8 5.7,-7.6 0,-2.7 -1.2,-4.7 -3,-5.8 -1.7,-1.1 -3.9,-1.5 -7.1,-1.5 h -11.3 v 1.5 c 3.5,0.3 3.9,0.4 3.9,4.2 V 201 c 0,3.8 -0.4,4 -4.1,4.3 v 1.5 h 11.9 v -1.5 c -3.6,-0.3 -4,-0.5 -4,-4.3 v -6.8 h 1.5 c 2.4,0 3.1,0.5 3.9,1.7 1.3,2.1 2.9,4.9 4.5,7.1 2.1,2.9 4,3.9 7.2,4.1 0.6,0 1.1,0 1.7,0 z m -18.9,-13.3 v -10.7 c 0,-1.2 0.1,-1.7 0.5,-2 0.4,-0.3 1.1,-0.4 2.4,-0.4 3.3,0 6.6,1.7 6.6,6.4 0,2.4 -0.7,4.1 -2.5,5.4 -1.1,0.9 -2.6,1.3 -4.9,1.3 z m 38.2,-8.1 c -0.4,-2.9 -0.6,-4.7 -0.8,-6.2 -1.9,-0.6 -3.8,-1.1 -5.7,-1.1 -5.8,0 -9.3,3.7 -9.3,8 0,5 4.4,7.2 7.4,8.7 3.3,1.7 5.8,3.3 5.8,6.6 0,3.2 -2,5.2 -5.3,5.2 -4.5,0 -6.5,-4.5 -7.2,-7.2 l -1.5,0.4 c 0.3,2.4 0.9,6 1.3,7 0.4,0.2 1.1,0.5 2.2,0.9 1.1,0.4 2.6,0.7 4.4,0.7 6,0 10,-3.7 10,-8.5 0,-5 -4.3,-7.1 -7.8,-8.9 -3.5,-1.7 -5.7,-3.3 -5.7,-6.5 0,-2.3 1.5,-4.8 4.9,-4.8 3.9,0 5,3.1 5.8,5.9 z m 17.4,22.3 v -1.5 c -3.7,-0.3 -4.1,-0.4 -4.1,-4.2 v -17.5 c 0,-3.8 0.4,-4 4.1,-4.3 v -1.5 h -12 v 1.5 c 3.7,0.3 4.1,0.5 4.1,4.3 V 201 c 0,3.7 -0.4,4 -4.1,4.2 v 1.5 z m 29.7,-22.1 c -0.2,-2.6 -0.4,-5.9 -0.4,-8 h -1.1 c -0.7,0.8 -1,1.1 -2.3,1.1 h -17.6 c -1.3,0 -1.8,-0.1 -2.5,-1.1 h -1 c -0.1,2.5 -0.3,5.4 -0.5,8.2 h 1.5 c 0.5,-2 0.9,-3.3 1.5,-4.1 0.6,-0.9 1.5,-1.3 4.9,-1.3 h 2.9 V 201 c 0,3.6 -0.4,3.9 -4.5,4.2 v 1.5 h 13.1 v -1.5 c -4.3,-0.3 -4.7,-0.7 -4.7,-4.2 v -21.6 h 3.2 c 3.3,0 3.9,0.3 4.7,1.3 0.5,0.7 1,1.8 1.4,4 z m 31.6,-6.8 h -10.2 v 1.5 c 3.5,0.4 3.6,0.7 2.6,2.9 -1.2,2.7 -3.6,6.8 -5.2,9.8 -2,-3.3 -4.1,-6.8 -5.9,-10.2 -0.8,-1.6 -1,-2.1 2.2,-2.5 v -1.5 h -10.9 v 1.5 c 2.7,0.3 3.3,0.8 5,3.7 2.4,4 4,6.8 5.7,9.7 0.8,1.3 0.9,1.7 0.9,2.6 v 5.8 c 0,3.7 -0.4,4 -4.4,4.2 v 1.4 h 12.9 v -1.4 c -4.2,-0.3 -4.6,-0.6 -4.6,-4.2 v -5.9 c 0,-1.2 0.1,-1.6 0.7,-2.7 2.2,-3.9 3.7,-6.4 5.6,-9.5 1.8,-2.9 2.4,-3.4 5.5,-3.7 v -1.5 z m 31,-0.7 c -9.4,0 -15.1,7.4 -15.1,15.5 0,8.6 6.6,14.8 14.6,14.8 8.2,0 15.1,-5.8 15.1,-15.5 -0.1,-9 -7,-14.8 -14.6,-14.8 z m -1,1.8 c 5.8,0 10.8,4.8 10.8,14.2 0,8.5 -4.5,12.5 -9.4,12.5 -6.2,0 -10.9,-6.1 -10.9,-14.3 0,-8.3 4.6,-12.4 9.5,-12.4 z m 40.7,5.5 c -0.2,-2.2 -0.4,-5 -0.5,-6.7 h -20 v 1.4 c 3.5,0.3 3.9,0.5 3.9,4.3 V 201 c 0,3.8 -0.4,4 -4,4.3 v 1.5 h 12.4 v -1.5 c -4.1,-0.3 -4.5,-0.5 -4.5,-4.3 v -7.8 h 4.5 c 4.1,0 4.2,0.4 4.8,3.6 h 1.5 V 188 H 442 c -0.6,2.9 -0.8,3.3 -4.8,3.3 h -4.5 V 181 c 0,-1.3 0.1,-1.4 1.5,-1.4 h 3.6 c 3.2,0 4.1,0.4 4.9,1.5 0.6,0.9 0.8,1.8 1.2,3.7 z m 41.4,0.2 c -0.2,-2.6 -0.4,-5.9 -0.4,-8 h -1.1 c -0.7,0.8 -1,1.1 -2.3,1.1 h -17.6 c -1.3,0 -1.8,-0.1 -2.5,-1.1 h -1 c -0.1,2.5 -0.3,5.4 -0.5,8.2 h 1.5 c 0.5,-2 0.9,-3.3 1.5,-4.1 0.6,-0.9 1.5,-1.3 4.9,-1.3 h 2.9 V 201 c 0,3.6 -0.4,3.9 -4.5,4.2 v 1.5 h 13.1 v -1.5 c -4.3,-0.3 -4.7,-0.7 -4.7,-4.2 v -21.6 h 3.2 c 3.3,0 3.9,0.3 4.7,1.3 0.5,0.7 1,1.8 1.4,4 z m 25.6,14.8 c -0.6,1.8 -1.5,3.3 -2.2,4.2 -1,1.2 -2.4,1.5 -5.6,1.5 -2.2,0 -3.8,0 -4.7,-0.6 -0.8,-0.5 -1.1,-1.5 -1.1,-3.6 v -8.2 h 4.2 c 3.9,0 4.2,0.2 4.8,3.4 h 1.5 v -8.7 h -1.5 c -0.6,3 -0.8,3.3 -4.8,3.3 h -4.2 v -9.9 c 0,-1.3 0.1,-1.4 1.5,-1.4 h 3.6 c 3.1,0 4.3,0.3 4.9,1.2 0.6,1 1,2 1.4,3.8 l 1.5,-0.2 c -0.2,-2.5 -0.4,-5.6 -0.4,-6.6 h -20.2 v 1.4 c 3.5,0.3 3.9,0.4 3.9,4.4 V 201 c 0,3.6 -0.4,4 -4.5,4.3 v 1.4 h 21.9 c 0.4,-1.3 1.3,-5.7 1.6,-7.2 z m 33.3,7.3 v -1.5 c -3.1,-0.3 -4.3,-1 -6.3,-4.1 -2.1,-3.2 -4.5,-6.9 -7,-10.8 3.1,-4.6 4.5,-6.6 5.4,-7.7 2,-2.6 3,-3.1 6.3,-3.4 v -1.5 h -10.3 v 1.5 c 2.8,0.3 3,0.8 2,2.7 -1.2,2.2 -2.6,4.4 -4.3,7 -1.9,-2.9 -3.6,-5.4 -5,-7.8 -0.7,-1.2 -0.6,-1.6 2.1,-1.9 v -1.5 h -11.3 v 1.5 c 3.3,0.3 4,0.8 5.9,3.8 1.5,2.3 3.5,5.5 5.8,9.2 -3.8,5.8 -6.2,9.2 -7.3,10.5 -1.2,1.6 -2.7,2.2 -5.3,2.5 v 1.5 h 10.4 v -1.5 c -2.9,-0.3 -3.1,-0.8 -2.1,-2.6 1.5,-2.6 3.3,-5.7 5.3,-8.7 2.8,4.4 4.7,7.5 5.8,9.2 0.8,1.4 0.6,1.8 -2.1,2.1 v 1.5 z m 32.7,0 v -1.5 c -2.9,-0.3 -3.6,-0.7 -4.9,-4.5 -2.8,-7.5 -5.8,-16.1 -8.6,-23.7 l -1.6,0.4 -9.2,23.1 c -1.6,4 -2.2,4.2 -5.1,4.6 v 1.5 h 10 v -1.5 c -3.4,-0.4 -3.7,-0.8 -2.8,-3.5 0.6,-1.8 1.2,-3.6 1.8,-5.3 h 9.7 c 0.9,2.4 1.7,4.7 2.3,6.5 0.5,1.7 0.2,2.1 -2.7,2.4 v 1.5 z M 567,194.3 h -8.2 c 1.3,-3.7 2.7,-7.5 4.1,-11.3 h 0.1 z m 31.8,-9.9 c -0.4,-2.9 -0.6,-4.7 -0.8,-6.2 -1.9,-0.6 -3.8,-1.1 -5.7,-1.1 -5.8,0 -9.3,3.7 -9.3,8 0,5 4.4,7.2 7.4,8.7 3.3,1.7 5.8,3.3 5.8,6.6 0,3.2 -2,5.2 -5.3,5.2 -4.5,0 -6.5,-4.5 -7.2,-7.2 l -1.5,0.4 c 0.3,2.4 0.9,6 1.3,7 0.4,0.2 1.1,0.5 2.2,0.9 1.1,0.4 2.6,0.7 4.4,0.7 6,0 10,-3.7 10,-8.5 0,-5 -4.3,-7.1 -7.8,-8.9 -3.5,-1.7 -5.7,-3.3 -5.7,-6.5 0,-2.3 1.5,-4.8 4.9,-4.8 3.9,0 5,3.1 5.8,5.9 z m -437.9,72 v -1.5 c -2.9,-0.3 -3.6,-0.7 -4.9,-4.5 -2.8,-7.5 -5.8,-16.1 -8.6,-23.7 l -1.6,0.4 -9.2,23.1 c -1.6,4 -2.2,4.2 -5.1,4.6 v 1.5 h 10 v -1.5 c -3.4,-0.4 -3.7,-0.8 -2.8,-3.5 0.6,-1.8 1.2,-3.6 1.8,-5.3 h 9.7 c 0.9,2.5 1.7,4.7 2.3,6.5 0.5,1.7 0.2,2.1 -2.7,2.4 v 1.5 z M 149.4,244 h -8.1 c 1.3,-3.7 2.7,-7.5 4.1,-11.3 h 0.1 z m 37.3,-9.7 c -0.2,-2.6 -0.4,-5.9 -0.4,-8 h -1.1 c -0.7,0.8 -1,1.1 -2.3,1.1 h -17.6 c -1.3,0 -1.8,-0.1 -2.5,-1.1 h -1 c -0.1,2.5 -0.3,5.4 -0.5,8.2 h 1.5 c 0.5,-2 0.9,-3.3 1.5,-4.1 0.6,-0.9 1.5,-1.3 5,-1.3 h 2.9 v 21.6 c 0,3.6 -0.4,3.9 -4.5,4.2 v 1.5 h 13.1 v -1.5 c -4.3,-0.3 -4.7,-0.7 -4.7,-4.2 v -21.6 h 3.2 c 3.3,0 3.9,0.3 4.7,1.3 0.5,0.7 1,1.8 1.4,4 z m 44.6,22.1 v -1.5 c -2.9,-0.3 -3.6,-0.7 -4.9,-4.5 -2.8,-7.5 -5.8,-16.1 -8.6,-23.7 l -1.6,0.4 -9.2,23.1 c -1.6,4 -2.2,4.2 -5.1,4.6 v 1.5 h 10 v -1.5 c -3.4,-0.4 -3.7,-0.8 -2.8,-3.5 0.6,-1.8 1.2,-3.6 1.8,-5.3 h 9.7 c 0.9,2.5 1.7,4.7 2.3,6.5 0.5,1.7 0.2,2.1 -2.7,2.4 v 1.5 z M 219.9,244 h -8.2 c 1.3,-3.7 2.7,-7.5 4.1,-11.3 h 0.1 z m 41.9,11.4 c -1,-0.3 -2.1,-0.8 -3.3,-2.1 -1.1,-1.2 -1.9,-2.2 -3.6,-4.6 -1.3,-2 -3.2,-5 -4,-6.4 3.3,-1.4 5.7,-3.8 5.7,-7.6 0,-2.7 -1.2,-4.7 -3,-5.8 -1.7,-1.1 -3.9,-1.5 -7.1,-1.5 h -11.2 v 1.5 c 3.5,0.3 3.9,0.4 3.9,4.2 v 17.6 c 0,3.8 -0.4,4 -4.1,4.3 v 1.5 H 247 V 255 c -3.6,-0.3 -4,-0.5 -4,-4.3 v -6.8 h 1.5 c 2.4,0 3.1,0.5 3.9,1.7 1.3,2.1 2.9,4.9 4.5,7.1 2.1,2.9 4,3.9 7.2,4.1 0.6,0 1.1,0 1.7,0 z M 243,242.2 v -10.7 c 0,-1.2 0.1,-1.7 0.5,-2 0.4,-0.3 1.1,-0.4 2.4,-0.4 3.3,0 6.6,1.7 6.6,6.4 0,2.4 -0.7,4.1 -2.5,5.4 -1.1,0.9 -2.6,1.3 -4.9,1.3 z m 41.8,6.8 c -0.7,2.1 -1.5,3.5 -2.3,4.4 -1,1.1 -2.5,1.3 -4.9,1.3 -1.8,0 -3.4,-0.1 -4.3,-0.6 -0.8,-0.4 -1.1,-1.3 -1.1,-3.7 v -17.3 c 0,-3.8 0.4,-4 4.1,-4.2 v -1.5 h -11.9 v 1.5 c 3.7,0.3 4,0.5 4,4.2 v 17.5 c 0,3.7 -0.4,4 -4.1,4.3 v 1.5 h 20.5 c 0.4,-1.3 1.4,-5.7 1.6,-7.1 z m 17.1,7.4 v -1.5 c -3.7,-0.3 -4.1,-0.4 -4.1,-4.2 v -17.5 c 0,-3.8 0.4,-4 4.1,-4.3 v -1.5 h -12 v 1.5 c 3.7,0.3 4.1,0.5 4.1,4.3 v 17.5 c 0,3.7 -0.4,4 -4.1,4.2 v 1.5 z m 35.5,-29 h -11 v 1.4 c 3.1,0.2 4.2,0.7 4.5,2.7 0.1,1.2 0.3,3.3 0.3,7.5 v 10.6 h -0.1 l -18.5,-22.1 h -6.7 v 1.4 c 2.1,0.2 3.1,0.5 4,1.6 0.8,1.1 0.9,1.2 0.9,4.4 v 9.7 c 0,4 -0.1,6.1 -0.3,7.6 -0.2,2.1 -1.4,2.7 -4,2.8 v 1.5 h 10.8 V 255 c -3.1,-0.2 -4.1,-0.7 -4.4,-2.9 -0.1,-1.3 -0.3,-3.4 -0.3,-7.4 v -10.9 h 0.1 l 18.9,23.2 h 1.6 v -18 c 0,-4.2 0.1,-6.2 0.3,-7.6 0.2,-1.8 1.3,-2.4 3.9,-2.5 z m 33.1,15.4 H 359 v 1.5 c 4.5,0.4 4.8,0.6 4.8,3.8 v 3.5 c 0,1.9 -0.5,2.4 -1.4,2.9 -1,0.5 -2.4,0.8 -3.9,0.8 -8.6,0 -12.4,-7.4 -12.4,-13.8 0,-8.2 5,-13.1 11.8,-13.1 4.1,0 7.5,1.4 8.6,7 l 1.5,-0.3 c -0.4,-3 -0.6,-5.6 -0.7,-7.1 -1.5,-0.3 -5,-1.3 -8.8,-1.3 -8.7,0 -17.1,4.9 -17.1,15.3 0,8.8 6.5,15 16.4,15 3.5,0 7.3,-1 10.1,-1.6 -0.3,-1.2 -0.3,-2.7 -0.3,-4.2 v -3.8 c 0,-2.6 0.2,-2.8 2.9,-3.2 z m 29,-8.5 c -0.2,-2.6 -0.4,-5.9 -0.4,-8 H 398 c -0.7,0.8 -1,1.1 -2.3,1.1 h -17.6 c -1.3,0 -1.8,-0.1 -2.5,-1.1 h -1 c -0.1,2.5 -0.3,5.4 -0.5,8.2 h 1.5 c 0.5,-2 0.9,-3.3 1.5,-4.1 0.6,-0.9 1.5,-1.3 4.9,-1.3 h 2.9 v 21.6 c 0,3.6 -0.4,3.9 -4.5,4.2 v 1.5 h 13.1 v -1.5 c -4.3,-0.3 -4.7,-0.7 -4.7,-4.2 v -21.6 h 3.2 c 3.3,0 3.9,0.3 4.7,1.3 0.5,0.7 1,1.8 1.4,4 z m 19.3,-7.6 c -9.5,0 -15.1,7.4 -15.1,15.5 0,8.6 6.5,14.8 14.6,14.8 8.2,0 15.1,-5.8 15.1,-15.5 -0.1,-8.9 -7,-14.8 -14.6,-14.8 z m -1,1.8 c 5.7,0 10.8,4.8 10.8,14.2 0,8.5 -4.5,12.5 -9.4,12.5 -6.2,0 -10.9,-6.1 -10.9,-14.3 0,-8.2 4.6,-12.4 9.5,-12.4 z m 50.9,-1.1 h -11 v 1.4 c 3.1,0.2 4.2,0.7 4.5,2.7 0.1,1.2 0.3,3.3 0.3,7.5 v 10.6 h -0.2 l -18.5,-22.1 h -6.7 v 1.4 c 2,0.2 3.1,0.5 4,1.6 0.8,1.1 0.9,1.2 0.9,4.4 v 9.7 c 0,4 -0.1,6.1 -0.3,7.6 -0.2,2.1 -1.4,2.7 -4,2.8 v 1.5 h 10.9 V 255 c -3.1,-0.2 -4.1,-0.7 -4.4,-2.9 -0.1,-1.3 -0.3,-3.4 -0.3,-7.4 v -10.9 h 0.1 l 18.9,23.2 h 1.6 v -18 c 0,-4.2 0.1,-6.2 0.3,-7.6 0.2,-1.8 1.3,-2.4 3.9,-2.5 z"
   id="path1" />
<path
   class="st0"
   d="M 445.8,80.3 410.4,92 418.6,81.1 Z m -35.6,-25.7 0.1,37.3 -7.9,-11.2 z m -35.3,25.9 35.5,11.4 -13.1,4 z m 35.2,25.1 -21.6,16.6 21.8,-30.2 z m 22.3,16.4 -22,-30.1 12.9,4.4 z"
   id="path2" />
<path
   class="st1"
   d="m 448.5,79.5 h -29.1 l -9,-27.7 -9,27.7 h -29.2 l 23.6,17.1 -9,27.7 23.6,-17.1 23.6,17.1 -9,-27.7 z m -2.7,0.8 -35.4,11.7 8.2,-10.9 z m -35.6,-25.7 0.1,37.3 -7.9,-11.2 z m -35.3,25.9 35.5,11.4 -13.1,4 z m 35.2,25.1 -21.6,16.6 21.8,-30.2 z m 22.3,16.4 -22,-30.1 12.9,4.4 z"
   id="path3" />
<path
   class="st2"
   d="m 327.2,147.2 h 45.1 l 15.9,-47.8 -31.4,-24 z m 136.7,-71.8 -31.4,24 15.8,47.8 h 45.3 z M 432.9,0 H 388 l -30.5,73.7 h 39.2 l 13.6,-41 13.6,41 h 39.4 z M 233.4,89.8 c 0,39.6 -25.7,57.4 -63.4,57.4 -37.7,0 -63.4,-17.8 -63.4,-57.4 V 0 h 39.2 v 83.3 c 0,19.1 4.5,24.6 24.2,24.6 19.7,0 24.2,-5.5 24.2,-24.6 V 0 h 39.2 z M 278.8,39.2 H 242.5 V 0 H 354.3 V 39.1 H 318 v 108 h -39.2 z"
   id="path4" />
</svg>
