<?xml version="1.0" encoding="UTF-8" standalone="no"?>
<svg height="228.95139" viewBox="0 0 399.99999 228.95138" width="400" xmlns="http://www.w3.org/2000/svg">
   <g transform="matrix(.48463114 0 0 .48463114 -4.0030532 -9.5074937)">
      <path d="m52.639 386.292l-1.151 4.32c-.473 1.38-1.291 2.37-2.38 2.981-1.64.591-5.438 1.254-11.365 1.982l-6.538.588-1.999.1-2.75.098h-2.704l-6.836.242-.103-1.319-.046-1.663v-1.018c0-.712.072-1.213.221-1.514l.401-1.467c.206-.612.494-.99.817-1.115l1.665.403 2.128.252h2.205c3.978 0 8.018-.288 12.125-.892l2.493-.35 1.676-.191 1.665-.375 1.634-.249 1.83-.303 2.236-.409 1.516-.391c0-2.166-.15-4.084-.427-5.814l-.205-2.002-.345-1.933-1.105-5.459-.936-4.824-.894-5.099-.935-6.788-.334-2.632c-.216-.149-.653-.776-1.357-1.927-.401-1.128-.596-2.256-.596-3.395 0-1.064.422-2.292 1.223-3.695.827-1.381 1.47-2.105 1.927-2.105.267 0 .37.226.37.678l-.046.763-.036.588c0 .149.216.599.612 1.301l2.812 2.159.19 1.627v.45l-.113.802c0 .303-.103.827-.345 1.552-.298 1.077-.688 1.969-1.136 2.709l2.149 13.426 1.254 6.651.704 3.172.411 2.377.288 2.156v1.477zm-17.347-21.723c1.568.265 2.339.99 2.339 2.118-.473 2.082-.874 3.482-1.274 4.184-.427.928-1.429 2.38-2.981 4.384-.977.727-2.128 1.252-3.486 1.581-1.012.236-2.225.385-3.582.501l-4.996.172-.062-.673.072-.627c.103-.177.277-.301.54-.378 3.521-1.152 5.571-1.853 6.152-2.131l4.009-1.789c-1.933-.64-3.094-1.116-3.449-1.452-.391-.368-.56-.99-.56-1.917v-1.354c0-1.63.951-3.971 2.955-6.914l2.91-3.958.853.424c.072.077.134.427.134 1.077 0 .553-.237 1.228-.663 1.992l-2.18 3.948zm58.247 30.091c-.863 0-1.588-.064-2.143-.138l-.997-.288c-.37-.075-.658-.201-.863-.398-2.462-1.231-4.477-4.472-6.045-9.684-1.367-4.374-1.989-8.717-1.989-12.976 0-.879-.052-1.858-.226-2.945-.164-1.318-.267-2.004-.349-2.079l-.478-2.318c-.175-1.028-.524-2.48-1.1-4.287l-.123 12.73c0 3.832-.555 7.466-1.593 10.874-.478 1.514-.977 2.716-1.542 3.655-.504 1.005-1.203 2.03-2.056 3.107-.802 1.077-2.19 2.331-4.097 3.76-2.287 1.565-4.944 2.981-7.962 4.297-3.017 1.291-5.654 2.167-7.92 2.568l-2.2.275c-.169 0-.319 0-.365 0l-.129-.075.427-.439 1.218-.889 3.891-2.442c2.637-1.73 5.238-3.695 7.818-5.875 2.585-2.18 4.21-3.758 4.888-4.775-.324-1.964-.853-3.845-1.588-5.698-.792-1.84-1.619-3.508-2.554-4.983l-1.095-1.63-1.331-1.779-4.502-4.585c-.165.349-.38.576-.607.725l-.673.201c-.216 0-.468-.023-.663-.123l-.627-.427-.766-.352-1.003-.586-1.475-.99-.689-1.342-.781-1.64-.211-1.519-.123-1.84c0-1.002.02-1.555.087-1.63l.247-1.128c.149-.563.54-.851 1.105-.851l.915.377c3.768 2.193 6.852 4.608 9.293 7.291 1.08 1.187 2.082 2.542 3.058 4.156.946 1.58 1.927 3.508 2.904 5.775l1.439 4.259.427 2.344.663 4.297c1.593-1.881 3.032-4.621 4.312-8.384.766-3.014 1.151-5.081 1.151-6.111l.416-9.568v-1.254-1.426c0-2.884.108-4.686.314-5.413.159-.953.473-2.254.977-4.019l.91-.44c.586 0 1.115.751 1.589 2.303l.73 3.284.941 5.197 2.231 15.071c.236 1.879.653 3.706 1.254 5.448.786 2.442 1.747 4.385 2.868 5.813 1.403 1.817 3.002 2.73 4.796 2.73v6.789zm19.728-17.024c.678 1.955 1.002 3.734 1.002 5.41 0 .666-.062 1.342-.252 2.007-.164.663-.473 1.352-.91 2.015-.74 1.491-1.568 2.393-2.524 2.758l-2.061-.191c-3.187-.385-5.613-1.3-7.33-2.703-.401.298-1.316 1.753-2.704 4.333-.956 1.717-2.632 2.868-4.976 3.359v-6.79c2.431-.327 4.343-1.355 5.623-3.084 1.203-1.588 2.282-2.768 3.254-3.544h.755c.602-1.927 1.419-3.544 2.56-4.821 1.1-1.326 2.241-1.982 3.393-1.982 1.841 0 3.271 1.066 4.17 3.233zm-3.156 5.962l-.273-1.527c-.103-.516-.201-.866-.277-1.028-.391-.853-1.07-1.277-2.005-1.277l-.478.023c-.545.103-1.074.378-1.552.828l-.7.953c.823.602 1.614 1.038 2.354 1.326zm35.554 11.062c-3.038 0-5.422-.825-7.196-2.516-1.275-1.18-2.452-3.433-3.542-6.702-.488-1.941-1.038-5.21-1.706-9.836l-.802-6.06c-.149-1.529-.236-2.806-.236-3.821v-1.691-2.156l-.349-6.26.051-4.485c0-1.529.046-2.583.149-3.094 0-1.215.149-2.619.473-4.245.154-.678.499-1.755 1.131-3.259.987-2.341 2.38-3.693 4.21-4.058l.175.738.139.817.123 1.727-.011 1.342-.056.989c-1.095.828-1.851 1.653-2.277 2.503-1.013 2.156-1.501 4.976-1.501 8.482v2.256 2.041l.303 7.527v1.843l.16 2.48v1.152l.416 2.37.52 3.567c.504 3.459 1.711 6.302 3.588 8.568 1.753 1.979 3.845 2.994 6.24 2.994v6.787zm18.412-.065c-.802 0-1.727-.213-2.76-.673-1.727-.617-3.053-1.342-3.927-2.182-.329-.275-.827-1.025-1.516-2.243l-.853-1.84c-1.943 2.871-3.326 4.585-4.061 5.189-1.604 1.187-3.372 1.75-5.346 1.75v-6.726l1.352-.062h.75l.56-.152 1.784-.427 1.023-.488c1.07-.398 2.319-1.992 3.845-4.783.678-1.166 1.321-1.768 1.794-1.768.211 0 .463.077.668.226l-.067 1.054-.072 1.552c.072.627.961 1.578 2.637 2.868 1.706 1.293 3.1 1.917 4.189 1.917zm-10.497 19.019c.093.424-.103 1.313-.575 2.727-.504 1.393-.966 2.108-1.383 2.108-.334 0-.663-.077-1.09-.301l-1.83-1.013c-1.177-.743-1.886-1.416-2.128-2.043-.098-.242.242-1.105.976-2.555.725-1.455 1.193-2.308 1.414-2.531l1.028.501 1.208.912.925.766zm5.66-4.272c.674.486 1.177 1.128 1.527 1.84 0 .288-.072.653-.175 1.128-.082.437-.298.928-.54 1.44-.534 1.354-1.197 2.218-1.937 2.516-.453-.074-1.228-.547-2.38-1.426-1.115-.902-1.866-1.665-2.257-2.303l.453-1.215.848-1.704c.653-1.241 1.182-1.994 1.578-2.207.364-.001 1.377.639 2.883 1.931zm50.985-14.682l-1.203-.213c-.612-.087-1.316-.288-2.153-.612-1.059-.465-1.794-1.028-2.211-1.668l-2.478-4.259c-1.002 2.28-1.737 3.734-2.205 4.333-1.1 1.241-2.755 1.891-4.986 1.891-.725 0-1.763-.298-3.13-.889-.874-.45-1.665-1.002-2.405-1.665-1.429 1.002-2.765 1.791-3.958 2.38-.966.314-2.416.488-4.307.488-2.807 0-4.786-.301-6.004-.928-1.213-.612-1.809-1.491-1.809-2.591-1.033 1.187-2.909 2.267-5.752 3.205l-1.943.314-1.604.149v-6.726c1.624 0 2.981-.198 4.03-.537.756-.162 2.169-.753 4.235-1.755.437-.136 1.532-.976 3.233-2.454.226-.164.761-.452 1.562-.837.463-.065.694.111.694.612l-.38 1.352-.889 1.732c.092.201.679.524 1.716 1.025l1.619.275 1.661.126c2.709 0 4.59-.126 5.567-.401 1.557-.426 2.683-1.354 3.444-2.868.103-.239.242-.516.509-.776.277-.303.843-.691 1.655-1.215l.843-.188c.365 0 .488.162.488.437l-.674 2.182c-.175.563-.252 1.025-.252 1.326l1.275.676c.452.201 1.058.252 1.753.252 2.03 0 3.459-.725 4.236-2.156 1.115-2.419 2.169-3.984 3.079-4.709l.453-.301c.175 0 .277.249.277.699 0 .954-.221 2.156-.73 3.711l1.028 1.203 1.496 1.2c1.013.588 2.405 1.028 4.22 1.391zm18.452-.065c-.843 0-1.753-.213-2.745-.673-1.757-.617-3.058-1.342-3.932-2.182-.329-.275-.853-1.025-1.578-2.243l-.817-1.84c-1.943 2.871-3.305 4.585-4.071 5.189-1.589 1.187-3.331 1.75-5.31 1.75v-6.726l1.352-.062h.725l.55-.152 1.784-.427 1.058-.488c1.033-.398 2.323-1.992 3.834-4.783.689-1.166 1.306-1.768 1.83-1.768.18 0 .401.077.643.226l-.077 1.054-.072 1.552c.072.627.946 1.578 2.648 2.868 1.681 1.293 3.084 1.917 4.179 1.917v6.788zm-10.486 19.019c.103.424-.128 1.313-.627 2.727-.488 1.393-.925 2.108-1.367 2.108-.288 0-.663-.077-1.09-.301l-1.773-1.013c-1.208-.743-1.907-1.416-2.185-2.043-.072-.242.278-1.105.977-2.555.725-1.455 1.229-2.308 1.45-2.531l1.002.501 1.198.912.951.766zm5.66-4.272c.678.486 1.177 1.128 1.491 1.84 0 .288-.036.653-.138 1.128-.149.437-.298.928-.545 1.44-.566 1.354-1.208 2.218-1.959 2.516-.447-.074-1.254-.547-2.354-1.426-1.131-.902-1.902-1.665-2.282-2.303l.488-1.215.838-1.704c.653-1.241 1.182-1.994 1.532-2.207.436-.001 1.376.639 2.929 1.931zm19.516-14.682c-2.076-.336-3.731-1.215-4.986-2.619-1.249-1.388-2.529-3.984-3.86-7.793 0 2.231-.632 4.536-1.979 6.841-1.326 2.354-2.626 3.505-3.881 3.505v-6.726c1.203 0 2.154-.288 2.765-.853.653-.563.992-1.463.992-2.716 0-1.802-.267-4.207-.802-7.301l-1.491-11.062-1.09-8.568-.273-3.758-.103-4.384c0-1.766.175-3.359.663-4.76.452-1.403.889-2.105 1.316-2.105.128 0 .303.175.375.553l.179 1.802.093 3.343.427 3.873 1.357 9.167c.447 2.958 1.023 6.178 1.804 9.696.761 3.508 1.578 6.512 2.431 8.993.391 1.329.827 2.496 1.377 3.485.524.974 1.049 1.802 1.604 2.455.812 1.012 1.84 1.714 3.079 2.141v6.791zm19.78-17.024c.699 1.955 1.028 3.734 1.028 5.41 0 .666-.087 1.342-.293 2.007-.149.663-.463 1.352-.874 2.015-.751 1.491-1.604 2.393-2.503 2.758l-2.117-.191c-3.172-.385-5.624-1.3-7.304-2.703-.401.298-1.301 1.753-2.719 4.333-.951 1.717-2.642 2.868-4.971 3.359v-6.79c2.452-.327 4.333-1.355 5.639-3.084 1.187-1.588 2.256-2.768 3.228-3.544h.792c.55-1.927 1.413-3.544 2.529-4.821 1.105-1.326 2.266-1.982 3.398-1.982 1.848 0 3.231 1.066 4.167 3.233zm-3.131 5.962l-.288-1.527c-.103-.516-.2-.866-.303-1.028-.375-.853-1.038-1.277-2-1.277l-.452.023c-.576.103-1.105.378-1.552.828l-.725.953c.848.602 1.624 1.038 2.349 1.326zm47.813 10.997c-.987 0-2.128-.375-3.392-1.226-.843-.614-1.578-1.477-2.221-2.629l.324 7.464.149 5.512.057.676c0 2.942-1.264 5.739-3.737 8.419-3.079 3.331-7.139 5.009-12.295 5.009-3.983 0-7.021-1.103-9.103-3.269-2.097-2.192-3.13-5.173-3.13-9.057 0-1.228.653-3.806 1.943-7.728 1.316-3.922 2.37-5.85 3.12-5.85l.164.075.262.249.206.65-.252.778-.704 1.841-1.003 2.871c-.426 1.904-.627 3.13-.627 3.683 0 2.503.848 4.682 2.585 6.438 1.599 1.403 3.778 2.105 6.538 2.105 2.775 0 5.397-.563 7.787-1.717 2.385-1.151 4.359-2.868 5.86-5.173 0-4.623-.324-10.007-.977-16.083-.221-2.768-.622-5.713-1.1-8.856l-1.177-7.829c-.046-.591-.103-1.115-.149-1.552-.052-.478-.154-1.054-.34-1.768l-.663-3.698-.941-5.886-.287-2.655-.154-2.48c0-.815.082-1.305.118-1.403l.298-1.552.411-2.506c0-.275.103-.362.252-.362l.267.236.437.488.751 1.727c.324 1.066.678 2.845 1.105 5.225l.673 4.584.627 4.508c.9 7.895 1.804 13.043 2.658 15.508 1.347 5.05 3.254 7.867 5.659 8.445v6.788zm99.877 0c-2.884 0-4.95-.185-6.168-.524-2.225-.576-3.398-1.806-3.619-3.734v-.511-.779c0-.201.113-.488.314-.915l.53-1.575-1.069.023h-.838l-.694.201-3.028.326-16.906 2.516-14.032 1.917-14.094 1.542c-1.29 0-2.267.062-3.018.162l-2.75.426c-1.912 0-3.588.062-5.017.201-1.429.177-2.909.314-4.42.488h-2.37l-5.258.213-6.204.177h-5.747l-5.49-.09v-6.851l9.694-.049 7.895-.103h7.114c5.546 0 11.02-.273 16.556-.825l2.333-.028 2.467-.273 9.782-1.552 16.412-2.256 11.149-1.403c4.631-.563 7.402-.954 8.291-1.152 0-1.329-.966-2.431-2.858-3.331l-1.675-.73-1.753-.624c-1.079-.326-2.082-.476-3.048-.476l-10.579 1.378-7.921.925-7.314.815-6.79.692c-9.483.9-17.265 1.352-23.351 1.352l-2.806.101h-3.007l-6.06-.101-2.606-.149h-.463l-.688-.103-1.702-.324c-1.727-.228-3.084-.776-4.112-1.552-1.023-.804-1.526-1.755-1.526-2.883 0-1.041.951-2.992 2.878-5.788l1.506-2.128 1.85-2.28c1.429-1.653 2.786-3.056 4.061-4.197 4.662-3.243 8.841-5.901 12.465-8.031 2.765-1.565 5.263-2.778 7.505-3.793l4.549-1.691c.494-.162.823-.275 1.059-.275l.205.126.232.311-.108.563-.73 1.44-1.187 1.542c-.576.678-.915 1.105-1.038 1.329l-5.351 2.606-3.198 1.629-3.531 2.002-6.687 4.11-2.858 1.866-2.806 1.992-.9.666-1.301 1.162-2.405 2.107c.046.401.175.776.349 1.116.627.663 3.783 1.375 9.447 2.128h5.294 8.101 9.9l2.807-.062 2.632-.126 7.725-.478h.817.54l.55-.087 2.642-.363 7.243-1.151 14.551-1.927c1.784-.265 3.208-.404 4.328-.404 1.475 0 2.817.175 3.942.501l2.303.738c2.21.817 3.871 1.742 5.012 2.773 1.552 1.301 2.256 2.83 2.256 4.534v.851l-.247.976c-.231.802-.71 1.915-1.367 3.359-.889 1.727-1.783 2.681-2.719 2.94l-.93.265c0 .928.751 1.503 2.282 1.755l1.675.162 1.578-.013h.602.426l.494-.149v6.832zm18.423 0c-.827 0-1.727-.213-2.755-.673-1.732-.617-3.033-1.342-3.907-2.182-.324-.275-.879-1.025-1.578-2.243l-.802-1.84c-1.969 2.871-3.305 4.585-4.076 5.189-1.614 1.187-3.362 1.75-5.32 1.75v-6.726l1.326-.062h.766l.565-.152 1.763-.427 1.038-.488c1.033-.398 2.333-1.992 3.834-4.783.699-1.166 1.305-1.768 1.83-1.768.191 0 .401.077.653.226l-.093 1.054-.057 1.552c.057.627.921 1.578 2.658 2.868 1.671 1.293 3.053 1.917 4.153 1.917v6.788zm-10.471 19.019c.087.424-.149 1.313-.627 2.727-.488 1.393-.951 2.108-1.388 2.108-.277 0-.632-.077-1.059-.301l-1.784-1.013c-1.234-.743-1.943-1.416-2.159-2.043-.123-.242.216-1.105.977-2.555.73-1.455 1.218-2.308 1.434-2.531l1.003.501 1.172.912.956.766zm5.649-4.272c.668.486 1.177 1.128 1.516 1.84 0 .288-.077.653-.18 1.128-.093.437-.273.928-.519 1.44-.54 1.354-1.208 2.218-1.969 2.516-.426-.074-1.228-.547-2.344-1.426-1.141-.902-1.892-1.665-2.303-2.303l.494-1.215.874-1.704c.632-1.241 1.151-1.994 1.485-2.207.453-.001 1.404.639 2.946 1.931zm21.532-14.682c-.751 0-2.154-.501-4.21-1.516l-2.405-1.115-1.578-.385-.787.097-3.243 1.704c-1.454.802-2.853 1.215-4.256 1.215v-6.913c1.876-.391 3.202-.741 4.051-1.08l3.387-1.689h.745c1.059 0 2.534.501 4.415 1.439l2.405 1.09c.124 0 .36.075.761.175.416.077.627.152.714.152v6.826zm-6.178-29.952l-.807 2.532c-.226.702-.576 1.326-1.08 1.904-.128.097-.278.126-.53.126-.751 0-1.727-.226-2.801-.704-1.882-.624-2.781-1.339-2.781-2.105l.221-.663 1.403-2.943c.504-1.177 1.054-1.778 1.578-1.778l.607.1 2.991 1.391c.853.488 1.29 1.015 1.29 1.64zm106.086 29.887c-2.889 0-4.935-.185-6.168-.524-2.221-.576-3.397-1.806-3.598-3.734v-.511-.779c0-.201.097-.488.272-.915l.555-1.575-1.054.023h-.827l-.715.201-3.002.326-16.952 2.516-14.027 1.917-14.079 1.542c-1.275 0-2.282.062-3.022.162l-2.719.426c-1.917 0-3.603.062-5.038.201-1.429.177-2.914.314-4.42.488h-2.405l-5.248.213-6.173.177h-5.751l-5.5-.09v-6.851l9.699-.049 7.941-.103h7.104c5.49 0 10.969-.273 16.526-.825l2.359-.028 2.431-.273 9.802-1.552 16.402-2.256 11.138-1.403c4.626-.563 7.402-.954 8.307-1.152 0-1.329-.951-2.431-2.884-3.331l-1.671-.73-1.747-.624c-1.064-.326-2.082-.476-3.028-.476l-10.588 1.378-7.906.925-7.325.815-6.79.692c-9.494.9-17.286 1.352-23.351 1.352l-2.806.101h-3.028l-6.066-.101-2.595-.149h-.473l-.678-.103-1.701-.324c-1.717-.228-3.1-.776-4.086-1.552-1.049-.804-1.552-1.755-1.552-2.883 0-1.041.951-2.992 2.848-5.788l1.522-2.128 1.845-2.28c1.44-1.653 2.806-3.056 4.071-4.197 4.698-3.243 8.897-5.901 12.501-8.031 2.714-1.565 5.258-2.778 7.468-3.793l4.554-1.691c.504-.162.853-.275 1.058-.275l.195.126.242.311-.103.563-.714 1.44-1.228 1.542c-.55.678-.91 1.105-1.023 1.329l-5.34 2.606-3.176 1.629-3.536 2.002-6.687 4.11-2.884 1.866-2.775 1.992-.91.666-1.3 1.162-2.426 2.107c.077.401.201.776.375 1.116.622.663 3.799 1.375 9.443 2.128h5.299 8.08 9.9l2.853-.062 2.606-.126 7.731-.478h.781.555l.539-.087 2.668-.363 7.217-1.151 14.582-1.927c1.747-.265 3.177-.404 4.318-.404 1.48 0 2.816.175 3.948.501l2.307.738c2.226.817 3.871 1.742 4.997 2.773 1.552 1.301 2.292 2.83 2.292 4.534l-.036.851-.242.976c-.252.802-.699 1.915-1.347 3.359-.884 1.727-1.83 2.681-2.74 2.94l-.946.265c0 .928.776 1.503 2.303 1.755l1.681.162 1.578-.013h.596.453l.447-.149v6.832zm18.447 0c-.853 0-1.747-.213-2.75-.673-1.737-.617-3.069-1.342-3.922-2.182-.334-.275-.853-1.025-1.578-2.243l-.796-1.84c-2.005 2.871-3.336 4.585-4.107 5.189-1.578 1.187-3.362 1.75-5.315 1.75v-6.726l1.357-.062h.735l.565-.152 1.763-.427 1.043-.488c1.049-.398 2.349-1.992 3.881-4.783.699-1.166 1.254-1.768 1.779-1.768.211 0 .416.077.673.226l-.097 1.054-.077 1.552c.077.627.966 1.578 2.658 2.868 1.691 1.293 3.074 1.917 4.189 1.917v6.788zm-10.475 19.019c.072.424-.139 1.313-.627 2.727-.499 1.393-.936 2.108-1.393 2.108-.314 0-.658-.077-1.059-.301l-1.809-1.013c-1.172-.743-1.923-1.416-2.164-2.043-.077-.242.242-1.105.992-2.555.725-1.455 1.198-2.308 1.424-2.531l1.039.501 1.177.912.915.766zm5.608-4.272c.704.486 1.219 1.128 1.532 1.84 0 .288-.036.653-.175 1.128-.103.437-.277.928-.529 1.44-.524 1.354-1.187 2.218-1.953 2.516-.416-.074-1.198-.547-2.339-1.426-1.131-.902-1.896-1.665-2.282-2.303l.488-1.215.827-1.704c.622-1.241 1.162-1.994 1.552-2.207.401-.001 1.362.639 2.879 1.931zm5.752-50.321c.118.326-.098 1.228-.586 2.706-.504 1.465-1.003 2.203-1.506 2.203-.401 0-1.264-.424-2.632-1.288-1.352-.876-2.143-1.542-2.339-2.015-.093-.254.103-.879.54-1.904.576-1.228 1.177-2.331 1.851-3.31.277.077.54.242.802.452l1.378.99 1.429 1.141zm6.44 25.906v1.814l-.164.941-.175 1.152-.139.478-.201.627-.463 1.29-.524 1.339c-.401.802-1.254 1.416-2.56 1.814l-1.362.277h-1.768v-6.738c.745 0 1.506-.162 2.37-.478.837-.336 1.439-.835 1.804-1.514l-.288-.776-.411-.766c-.267-.488-.591-1.064-1.105-1.727-.473-.74-.89-1.768-1.265-3.107l.735-2.066c.318-.979.688-1.83 1.115-2.629l.381-.103c.596 0 1.29.714 1.999 2.143.777 1.378 1.456 4.058 2.021 8.029zm1.516-28.949c0 .539-.201 1.391-.627 2.593-.602 1.354-1.249 2.192-2.031 2.529-.473 0-1.223-.45-2.303-1.352-1.049-.863-1.809-1.665-2.231-2.405l.19-.825.36-.827.74-1.29c.674-1.29 1.177-2.017 1.563-2.092.277 0 1.023.424 2.231 1.378 1.209.888 1.934 1.677 2.108 2.291zm60.175 38.617c-2.231 0-4.384-.463-6.502-1.452l-1.727-1.115c-.663-.488-1.342-1.1-2.041-1.789-1.254-1.228-2.421-2.131-3.583-2.758-.643-.252-2.359.753-5.022 2.981-2.817 2.382-4.245 4.384-4.245 6.065l.231 1.025c.293.55 1.218 1.051 2.945 1.604l2.719.599c.992.103 1.645.177 2.015.177.355.026.755.051 1.208.051h2.154 1.151.504l.864.149c.966.1 1.599.277 1.963.601.54.326.982.915 1.326 1.753l.426 1.63c0 1.426-.175 2.58-.539 3.534-.314.99-1.002 1.951-2.005 2.955-3.762 3.945-8.239 7.039-13.441 9.371-4.405 1.951-8.342 2.93-11.843 2.93-4.174 0-7.597-1.48-10.208-4.41-2.246-2.816-3.372-6.587-3.372-11.323 0-1.003.159-2.329.499-4.009l.627-2.303.391-1.226.535-1.341c1.229-3.246 2.344-5.374 3.31-6.266l.976-.45c.247 0 .375.1.375.414 0 .226-.072.398-.164.612l-1.229 2.632-1.316 3.059c-.689 2.038-1.074 4.019-1.074 5.823 0 .864.164 1.904.385 3.13.494 2.056 1.532 3.873 3.074 5.49 2.102 1.927 5.037 2.906 8.789 2.906 1.933 0 3.834-.228 5.737-.655 1.907-.426 3.932-1.151 6.163-2.164 4.96-1.956 8.841-4.336 11.555-7.129l-.941-.375-1.177-.177h-1.552c-4.338 0-7.407-.224-9.298-.75-2.991-.828-4.477-2.432-4.477-4.834 0-3.257 1.321-7.016 3.938-11.35 2.981-4.61 6.363-6.941 10.049-6.941l5.885 4.462c1.856 1.377 3.86 2.079 5.962 2.079zm-26.903 35.377c.899.676 1.763 1.416 2.519 2.256.139.45-.067 1.352-.555 2.755-.514 1.364-.987 2.066-1.47 2.066-.299 0-.648-.087-1.059-.287l-1.804-1.018c-1.188-.737-1.917-1.401-2.154-2.038-.067-.165.113-.73.561-1.655l1.83-3.469zm4.308-63.485c.673.527 1.526 1.28 2.554 2.254.098.442-.072 1.352-.576 2.758-.498 1.378-.982 2.105-1.444 2.105-.262 0-.586-.126-1.033-.252-.483-.175-1.095-.55-1.83-1.077-1.301-.876-2.005-1.526-2.185-2.043-.072-.185.124-.761.596-1.689l1.84-3.433c.484.177 1.209.626 2.078 1.377zm3.885 60.28c1.187.9 2 1.691 2.38 2.452 0 .327-.067.702-.18 1.105-.072.498-.211.977-.524 1.478-.581 1.352-1.229 2.202-2.01 2.542-.668-.113-1.496-.591-2.473-1.442-.982-.825-1.66-1.601-2.071-2.342l.565-1.313.756-1.555c.596-1.103 1.095-1.868 1.475-2.231.226.126.473.213.663.35.186.116.705.427 1.419.956zm5.223-62.912c.91.753 1.429 1.354 1.486 1.881 0 .501-.226 1.365-.689 2.503-.658 1.642-1.301 2.48-2.015 2.583-.689-.074-1.527-.576-2.555-1.491l-.874-.966-1.069-1.287.493-1.328c.175-.514.422-1.054.782-1.643.406-1.051.92-1.765 1.46-2.166.462-.001 1.449.637 2.981 1.914zm31.915 30.74c-.817 0-1.737-.213-2.771-.673-1.701-.617-3.017-1.342-3.881-2.182-.334-.275-.853-1.025-1.552-2.243l-.843-1.84c-1.943 2.871-3.315 4.585-4.081 5.189-1.568 1.187-3.341 1.75-5.3 1.75v-6.726l1.326-.062h.771l.55-.152 1.737-.427 1.074-.488c1.059-.398 2.313-1.992 3.85-4.783.684-1.166 1.27-1.768 1.825-1.768.17 0 .354.077.642.226l-.087 1.054-.087 1.552c.087.627.992 1.578 2.683 2.868 1.681 1.293 3.053 1.917 4.143 1.917v6.788zm-10.46 19.019c.077.424-.123 1.313-.622 2.727-.467 1.393-.956 2.108-1.383 2.108-.298 0-.663-.077-1.048-.301l-1.82-1.013c-1.203-.743-1.943-1.416-2.169-2.043-.072-.242.226-1.105.966-2.555.756-1.455 1.244-2.308 1.414-2.531l1.058.501 1.172.912.982.766zm5.638-4.272c.678.486 1.198 1.128 1.516 1.84 0 .288-.067.653-.18 1.128-.108.437-.288.928-.509 1.44-.53 1.354-1.208 2.218-1.979 2.516-.437-.074-1.207-.547-2.333-1.426-1.141-.902-1.876-1.665-2.277-2.303l.504-1.215.827-1.704c.632-1.241 1.151-1.994 1.511-2.207.448-.001 1.389.639 2.92 1.931zm47.351-29.979c0 2.557-.514 5.05-1.578 7.533-1.29 2.691-3.063 4.032-5.274 4.032-.92 0-2.154-.401-3.773-1.241l-2.179-1.365c-.55 1.29-1.928 2.442-4.081 3.431-2.143 1.002-4.462 1.491-6.841 1.491-.977 0-1.953-.064-2.827-.198-.931-.126-1.578-.252-1.943-.34-.349-.103-.766-.265-1.244-.488l-2.981 1.025-2.529.601-2.092.375-2.806.326-2.38.113v-6.79c2.246 0 4.487-.213 6.687-.64 2.246-.426 4.04-.974 5.387-1.676 1.691-.878 2.899-1.904 3.547-3.055l.951-2.606c.36-.64.627-.954.828-.954.201 0 .313.363.313 1.051l-.138 1.594-1.115 4.068.941.203h.751 1.454c3.485 0 6.086-.576 7.777-1.717 1.218-.815 2.092-1.992 2.595-3.619.628-2.03 1.054-3.135 1.249-3.333.288-.452.632-.776.956-.976l.709-.414c.216 0 .329.237.329.712l-.138 1.267-.191.915-.673 2.881c.802.751 1.563 1.326 2.267 1.753l2.806.476 1.655-.689c0-.766-.128-1.388-.391-1.866l-.211-.627.185-.828c.082-.375.232-.851.498-1.387.391-.915.771-2.146 1.172-3.647l.37-.565c.319 0 .745.617 1.228 1.945.504 1.301.73 2.355.73 3.229zm47.926 8.769c0 1.002-.165 1.904-.478 2.832-.324.876-.704 1.328-1.151 1.328-.201 0-.324-.051-.381-.074l-1.424-1.077-1.151-.753c-1.352-.802-2.961-1.18-4.688-1.18-4.569 0-9.041 2.395-13.513 7.152l-10.311 13.343c-3.732 4.796-7.016 7.201-9.818 7.201-1.629 0-2.909-.964-3.86-2.868-.729-1.604-1.1-3.619-1.1-6.025 0-1.927.586-4.598 1.727-8.016l1.048-2.82.74-1.555.478-.964.473-.789 1.105-1.804c.211-.401.55-.676.966-.815.334 0 .55.213.55.665l-.123.398-1.152 2.532-1.229 3.447-.729 3.017c-.149 1.002-.252 1.879-.252 2.704 0 1.57.252 2.809.704 3.724.576 1.238 1.429 1.879 2.565 1.879 1.568 0 3.593-1.241 6.101-3.721l7.016-8.957c3.043-3.893 6.399-7.479 9.992-10.758l1.897-1.432c.612-.426 1.398-.912 2.364-1.388 2.632-1.442 4.76-2.156 6.338-2.156 1.557 0 3.156.637 4.811 1.943.751.563 1.403 1.313 1.83 2.192.185.488.38.915.488 1.365.1.405.167.906.167 1.43zm24.724 6.528h-1.84c0 .676-.185 1.414-.55 2.192-.359.802-.843 1.779-1.491 2.933-1.413 2.629-3.104 4.983-5.083 6.988-2.431 2.532-4.903 4.2-7.443 5.011l-2.606-.287c-.874-.077-1.403-.139-1.517-.175-.488-.113-.817-.201-.976-.24-1.511-.249-3.315-.627-5.31-1.228-3.644-.902-5.474-1.565-5.474-2.03 0-.172.385-.249 1.125-.249l3.382.049 1.552.028 1.532.046c2.529 0 4.559-.273 6.138-.774 1.079-.303 2.303-.879 3.66-1.678 1.346-.828 2.878-2.005 4.58-3.419 3.372-2.773 5.438-5.176 6.168-7.168h-1.234-1.275c-2.452 0-4.297-.336-5.516-.99-1.84-.976-2.703-2.881-2.703-5.687 0-1.277.689-3.257 2.082-5.973 1.362-2.732 2.868-4.235 4.41-4.5.796-.149 2.015.879 3.593 3.056 1.691 2.282 2.842 4.713 3.449 7.304h1.346v6.791zm-14.881-29.175l5.212 5.224-6.523 5.248-4.924-6.238zm7.839 22.246c0-.789-.242-1.526-.668-2.251-.427-.804-1.003-1.18-1.83-1.18-.437 0-.992.375-1.532 1.128l-.298 1.138c.483.439 1.048.766 1.701 1.003l1.83.301h.473zm25.505 6.864c-.796 0-1.753-.213-2.74-.673-1.753-.617-3.074-1.342-3.937-2.182-.308-.275-.838-1.025-1.589-2.243l-.761-1.84c-1.994 2.871-3.347 4.585-4.096 5.189-1.619 1.187-3.362 1.75-5.341 1.75v-6.726l1.383-.062h.715l.575-.152 1.763-.427 1.054-.488c1.028-.398 2.359-1.992 3.855-4.783.668-1.166 1.254-1.768 1.784-1.768.195 0 .401.077.658.226l-.093 1.054-.067 1.552c.067.627.977 1.578 2.658 2.868 1.701 1.293 3.094 1.917 4.179 1.917zm-10.465 19.019c.046.424-.139 1.313-.633 2.727-.473 1.393-.951 2.108-1.377 2.108-.314 0-.647-.077-1.074-.301l-1.784-1.013c-1.198-.743-1.953-1.416-2.164-2.043-.087-.242.211-1.105.977-2.555.73-1.455 1.213-2.308 1.393-2.531l1.039.501 1.188.912.956.766zm5.608-4.272c.725.486 1.203 1.128 1.542 1.84 0 .288-.052.653-.165 1.128-.113.437-.273.928-.54 1.44-.56 1.354-1.198 2.218-1.969 2.516-.447-.074-1.223-.547-2.349-1.426-1.115-.902-1.881-1.665-2.266-2.303l.483-1.215.817-1.704c.663-1.241 1.187-1.994 1.567-2.207.402-.001 1.404.639 2.88 1.931zm8.342-57.122l-.853 2.542c-.308.902-.673 1.529-1.125 1.881-.093.097-.252.149-.453.149-.725 0-1.655-.252-2.74-.727-1.871-.627-2.806-1.326-2.806-2.079 0-.265.062-.501.211-.65l1.357-2.997c.473-1.226 1.013-1.791 1.573-1.791.201 0 .381.028.581.152l3.038 1.403c.843.475 1.295 1.028 1.295 1.653zm1.727 24.54c1.002 1.902 1.732 4.61 2.082 8.142v1.205.9l-.195 1.09-.154.737-.087.478-.216.627-.314 1.038-.565 1.339c-.437.766-1.275 1.429-2.601 2.007-1.028.223-2.082.336-3.186.336v-6.79c.982 0 1.886-.188 2.709-.514.802-.311 1.29-.876 1.455-1.601-.329-.879-.931-1.917-1.769-3.145-.483-.738-.935-1.766-1.264-3.069l.699-2.082c.355-.962.704-1.825 1.105-2.601.703-.315 1.494.311 2.301 1.903zm29.288 8.028c0 1.216-.036 2.218-.149 2.943v.851l-.201.627-.349 1.768c-.211 1.252-.478 2.467-.807 3.647-.324 1.213-.725 2.503-1.187 3.883l-2.344 3.608-2.303 3.354c-1.429 1.804-3.156 3.357-5.181 4.662-2.061 1.329-4.277 1.951-6.708 1.951-1.115 0-2.73-.098-4.821-.349-2.076-.262-4.606-.751-7.587-1.401-.54-.103-.827-.365-.827-.776 0-.252.123-.501.344-.743l.781-.311h1.501l1.48.064 1.979-.138h.452c.17 0 .345 0 .447-.075l1.13-.277c1.265-.252 2.401-.576 3.495-1.029 1.264-.449 2.37-.902 3.315-1.387 1.84-.879 3.762-2.146 5.855-3.822 3.793-3.033 6.538-6.664 8.347-10.861l.093-.853c0-.627-.052-1.113-.185-1.439l-.252-.776-.314-.802c-.493 1.526-.956 2.683-1.342 3.382-.74 1.19-1.804 1.827-3.156 1.827-1.475 0-2.935-.673-4.364-2.076-1.084-1.254-1.599-2.544-1.599-3.896l.026-.404c.252-2.341.961-4.734 2.231-7.124 1.198-2.357 2.694-4.009 4.457-4.886 1.732 0 3.459 1.226 5.161 3.706 1.729 2.48 2.582 4.862 2.582 7.152zm-6.615-.951c-.221-.653-.586-1.08-1.074-1.242-.478-.2-1.002-.275-1.594-.275l-.462.65-.278.866c0 .313.381.624 1.059.912l1.048.229c.226 0 .427-.103.643-.316zm21.151 5.775v1.403l-.195 1.504-.113.614-.421 1.013c-.273.663-.581 1.028-.905 1.102-.175 0-.576-.925-1.177-2.768l-1.126-8.482-1.177-11.485-.514-4.623-.262-2.38-.288-1.753-.853-5.939c-.262-1.876-.381-3.153-.381-3.832 0-1.478.093-2.681.288-3.706.206-.979.529-1.781.92-2.382l.689-.812c.277 0 .509.598.751 1.814.226 1.203.565 3.433.976 6.674l.715 6.078.863 6.69 1.028 9.494.756 7.24v1.481l.175 1.013z" fill="#24428d"/>
      <rect fill="#d1d2d3" height="26.454" width="484.68399" x="348.34399" y="301"/>
      <rect fill="#d1d2d3" height="26.455999" width="484.68399" x="348.34399" y="61.667"/>
      <rect fill="#24428d" height="212.864" width="484.68399" x="348.34399" y="88.010002"/>
      <path d="m454.728 112.95h15.569v90.468c0 15.169-1.367 27.61-4.081 37.33-2.693 9.72-7.576 17.374-14.711 23.023-7.135 5.638-16.181 8.429-27.181 8.429-15.482 0-27.129-5.058-34.809-15.168-7.705-10.098-11.585-27.959-11.585-53.614v-90.468h15.559v90.342c0 14.179 1.003 24.451 3.028 30.792 2.005 6.335 5.31 11.146 9.9 14.454 4.59 3.308 10.172 4.973 16.757 4.973 11.072 0 19.116-3.418 24.102-10.26 4.96-6.839 7.453-20.141 7.453-39.959v-90.342z" fill="#fff"/>
      <path d="m387.048 258.913c-8.445-11.174-12.166-29.566-12.177-55.495v0-93.537h21.696v93.411c-.026 14.03 1.054 24.099 2.873 29.841v0c1.886 5.836 4.821 10.021 8.8 12.873v0c4.019 2.935 8.866 4.374 14.932 4.384v0c10.496-.049 17.26-3.092 21.568-8.967v0c4.277-5.636 6.97-18.589 6.919-38.132v0-90.341-3.069h21.722v93.537c0 15.346-1.377 28.024-4.163 38.158v0c-2.827 10.231-8.147 18.563-15.806 24.6v0c-7.741 6.137-17.589 9.118-29.088 9.108v0c-.097 0-.159 0-.247 0v0c-16.011 0-28.738-5.449-37.029-16.371zm-6.014-55.496c-.026 25.33 3.932 42.691 10.938 51.748v0c7.099 9.255 17.497 13.881 32.352 13.942v0c10.486-.026 18.746-2.658 25.258-7.767v0c6.585-5.212 11.097-12.228 13.673-21.409v0c2.596-9.332 3.938-21.56 3.938-36.515v0-87.361h-9.345v87.235c-.103 20.07-2.36 33.773-8.07 41.776v0c-5.639 7.803-14.927 11.589-26.605 11.537v0c-7.088 0-13.364-1.83-18.54-5.561v0c-5.212-3.732-8.918-9.193-11.082-16.035v0c-2.179-6.952-3.145-17.386-3.171-31.717v0-87.235h-9.345v87.362z" fill="#fff"/>
      <path d="m388.051 258.347c-8.167-10.8-11.992-29.088-11.992-54.93v0-92.519h19.306v92.393c0 14.081 1.038 24.202 2.935 30.113v0c1.912 5.965 4.94 10.35 9.165 13.405v0c4.246 3.056 9.412 4.611 15.708 4.657v0c10.773-.046 18.077-3.28 22.626-9.507v0c4.457-6.024 7.098-19.052 7.063-38.669v0-90.34-2.051h19.316v92.519c0 15.295-1.383 27.934-4.158 37.932v0c-2.796 10.072-7.998 18.214-15.41 24.089v0c-7.525 5.921-17.023 8.828-28.286 8.818v0c-.046 0-.072 0-.097 0v0c-15.775-.001-28.065-5.262-36.176-15.91zm-8.209-54.93c-.01 25.405 3.886 42.892 11.119 52.285v0c7.283 9.545 18.206 14.408 33.364 14.431v0c10.702 0 19.306-2.732 26.045-8.054v0c6.8-5.374 11.436-12.604 14.042-21.959v0c2.632-9.422 3.958-21.671 3.958-36.703v0-88.399h-11.75v88.273c-.026 19.993-2.385 33.621-7.865 41.236v0c-5.443 7.468-14.181 11.049-25.582 11.025v0c-6.837.023-12.825-1.73-17.785-5.289v0c-4.966-3.557-8.548-8.815-10.651-15.508v0c-2.169-6.785-3.12-17.16-3.13-31.465v0-88.273l-11.766-.01v88.41z" fill="#fff"/>
      <path d="m424.381 277.36h-.057c-.046 0-.072 0-.097 0v0c-16.438.041-29.915-5.61-38.607-17.147v0l2.431-1.866-2.431 1.866c-8.908-11.848-12.603-30.666-12.65-56.796v0-95.626h25.479v95.575c0 .051 0 .103 0 .103v0c0 13.788 1.074 23.699 2.775 28.985v0c1.784 5.5 4.421 9.219 8.045 11.851v0c3.67 2.629 8.106 4.032 13.904 4.032v0c10.198-.049 16.237-2.958 20.138-8.229v0c3.676-4.747 6.528-17.309 6.456-36.366v0c0-.075-.01-.237 0-.512v0-90.28-5.146h25.49v95.613c0 15.495-1.377 28.335-4.23 38.733v0c-2.961 10.645-8.497 19.404-16.515 25.703v0c-7.793 6.163-17.507 9.219-28.646 9.471v0 .036h-1.316c-.036 0-.067 0-.087 0v0c-.036 0-.061 0-.082 0zm-41.465-73.891c0 .062 0 .123 0 .149v0c-.025 25.004 4.014 41.915 10.481 50.206v0c6.724 8.692 16.412 13.151 30.928 13.179v0c10.198 0 18.011-2.509 24.153-7.353v0c6.24-4.95 10.486-11.526 12.953-20.342v0c2.529-9.024 3.886-21.046 3.886-35.891v0-85.317h-5.592v85.215c-.082 20.208-2.256 34.274-8.471 43.043v0c-6.045 8.343-15.882 12.29-27.705 12.303v0 0h-.375-.036c-7.355 0-14.042-1.93-19.553-5.876v0c-5.561-3.996-9.551-9.91-11.817-17.114v0c-2.293-7.35-3.243-17.913-3.259-32.38v0-85.191h-5.592v85.317h-3.084z" fill="#fff"/>
      <path d="m533.998 272.089v-140.324h-40.796v-18.777h98.124v18.777h-40.961v140.324z" fill="#fff"/>
      <path d="m533.998 275.168v-3.079h3.064-3.064v3.079h-3.12v-140.319h-40.761v-24.955h104.318v24.955h-40.987v140.319zm13.262-6.186v-140.296h40.992v-12.601h-91.951v12.601h40.761v140.296z" fill="#fff"/>
      <path d="m533.998 274.156v-2.066h1.964-1.964v2.066h-1.989v-140.309h-40.776v-22.963h102.072v22.963h-40.982v140.309zm14.351-4.198v-140.298h40.998v-14.567h-94.146v14.567h40.761v140.298z" fill="#fff"/>
      <path d="m533.998 277.263v0 0h-3.12v0h-1.979v-140.312h-40.761v-29.16h108.261v29.16h-40.972v140.311h-21.429zm14.351-7.305v-3.081zm-50.054-143.377h40.771l-.026 140.296h6.24v-140.322h40.961v-8.394h-87.947v8.42z" fill="#fff"/>
      <path d="m644.767 234.559l16.232 2.432c-2.714 12.123-7.638 21.244-14.674 27.43-7.099 6.14-15.862 9.221-26.343 9.221-13.169 0-23.83-4.999-31.982-14.993-8.147-9.995-12.233-24.467-12.233-43.331 0-19.592 4.117-34.498 12.346-44.806 8.204-10.285 18.633-15.446 31.226-15.446 12.023 0 22.072 5.086 30.116 15.184 8.065 10.095 12.059 24.726 12.059 43.891l-.087 5.137h-69.448c.658 12.74 3.598 22.372 8.887 28.823 5.269 6.502 11.684 9.733 19.198 9.733 11.827-.001 20.056-7.768 24.703-23.275zm-51.822-31.077h51.92c-.714-9.836-2.832-17.176-6.297-22.023-5.073-7.027-11.509-10.561-19.322-10.561-7.047 0-13.076 2.955-18.073 8.818-4.959 5.863-7.714 13.781-8.228 23.766z" fill="#fff"/>
      <path d="m585.595 260.588c-8.769-10.774-12.943-25.981-12.943-45.271v0c0-19.98 4.194-35.665 13.025-46.724v0c8.661-10.923 20.185-16.659 33.662-16.584v0c12.928-.075 24.097 5.61 32.542 16.309v0c8.646 10.897 12.732 26.266 12.753 45.896v0l-.185 8.142h-69.15c.915 10.696 3.706 18.592 7.983 23.827v0c4.837 5.876 10.167 8.517 16.783 8.543v0c5.248-.026 9.345-1.63 12.928-4.986v0c3.582-3.343 6.6-8.666 8.82-16.083v0l .751-2.568 22.174 3.343-.73 3.259c-2.801 12.526-7.957 22.331-15.682 29.036v0c-7.638 6.687-17.26 10.018-28.342 9.995v0c-.067 0-.139 0-.195 0v0c-13.881.001-25.605-5.512-34.194-16.134zm4.903-88.134c-7.613 9.494-11.648 23.699-11.648 42.863v0c0 18.44 3.984 32.12 11.555 41.362v0c7.664 9.322 17.183 13.829 29.576 13.881v0c9.864-.052 17.769-2.855 24.282-8.494v0c5.865-5.086 10.223-12.475 12.891-22.511v0l-10.254-1.565c-2.359 6.877-5.536 12.352-9.689 16.261v0c-4.595 4.41-10.557 6.713-17.147 6.664v0c-8.44.064-15.929-3.786-21.604-10.848v0c-5.865-7.242-8.882-17.512-9.54-30.64v0l-.195-3.256h69.659l.036-2.03c0-18.751-3.932-32.645-11.395-41.964v0c-7.618-9.494-16.546-13.953-27.685-14.004v0c-11.725.05-21.044 4.607-28.842 14.281zm2.447 34.12h-3.254l.185-3.282c.504-10.422 3.408-19.087 8.944-25.59v0c5.407-6.451 12.475-9.948 20.426-9.897v0c8.769-.062 16.387 4.184 21.84 11.848v0c3.984 5.6 6.112 13.467 6.862 23.588v0l .252 3.333zm48.512-6.199c-.864-7.805-2.776-13.518-5.423-17.114v0c-4.672-6.4-9.931-9.206-16.788-9.281v0c-6.219.026-11.128 2.416-15.718 7.715v0c-3.906 4.611-6.389 10.748-7.211 18.679v0h45.14z" fill="#fff"/>
      <path d="m586.396 259.912c-8.568-10.498-12.701-25.454-12.701-44.595v0c0-19.841 4.169-35.274 12.799-46.096v0c8.517-10.686 19.676-16.235 32.845-16.199v0c12.624-.036 23.398 5.426 31.714 15.95v0c8.471 10.645 12.557 25.765 12.557 45.22v0l-.169 7.14h-69.258c.838 11.387 3.68 19.866 8.245 25.479v0c5.012 6.088 10.717 8.892 17.636 8.967v0c10.774-.098 18.088-6.716 22.724-21.82v0l .498-1.704 20.211 3.032-.494 2.151c-2.776 12.403-7.839 22-15.354 28.502v0c-7.484 6.525-16.813 9.768-27.669 9.768v0c-.041 0-.093 0-.139 0v0c-13.635.001-25.005-5.347-33.445-15.795zm3.331-88.098c-7.828 9.756-11.899 24.199-11.899 43.503v0c0 18.605 4.014 32.532 11.771 42.002v0c7.818 9.558 17.723 14.217 30.383 14.243v0c10.059-.013 18.273-2.906 24.96-8.72v0c6.266-5.436 10.799-13.413 13.503-24.125v0l-12.223-1.856c-4.786 14.835-13.729 23.1-26.158 23.025v0c-8.142.025-15.271-3.609-20.807-10.473v0c-5.665-6.988-8.63-17.034-9.304-30.038v0l-.123-2.164h69.581l.036-3.071c0-18.877-3.958-33.02-11.601-42.589v0c-7.777-9.709-17.08-14.356-28.507-14.392v0c-12.028.036-21.696 4.793-29.612 14.655zm3.218 33.708h-2.17l.113-2.156c.514-10.283 3.372-18.702 8.707-25.015v0c5.274-6.25 11.997-9.545 19.651-9.535v0c8.435-.036 15.672 3.986 20.987 11.452v0c3.834 5.336 5.942 13.002 6.667 23.045v0l .175 2.207h-54.13zm49.664-4.106c-.797-8.494-2.827-14.76-5.732-18.741v0c-4.811-6.641-10.45-9.684-17.63-9.72v0c-6.446.023-11.806 2.578-16.505 8.091v0c-4.271 5.034-6.836 11.75-7.551 20.37v0z" fill="#fff"/>
      <path d="m583.976 261.879v0c-9.155-11.285-13.364-26.996-13.364-46.562v0c0-20.267 4.21-36.441 13.462-48.026v0c8.934-11.311 21.136-17.399 35.117-17.361v0c0 0 .036 0 .056 0v0c .021 0 .067 0 .139 0v0c .031 0 .056 0 .056 0v0c13.478-.038 25.315 5.999 34.069 17.086v0c9.021 11.45 13.164 27.294 13.164 47.237v0l-.211 10.185h-68.867c1.049 9.283 3.629 16.009 7.263 20.406v0c4.616 5.536 9.139 7.751 15.205 7.803v0c4.749-.052 8.317-1.377 11.529-4.384v0c3.176-3.033 6.035-7.955 8.24-15.21v0l1.254-4.282 26.127 3.948-.725 3.241-.488 2.182c-2.857 12.814-8.178 23.084-16.315 30.139v0c-7.916 6.929-17.918 10.445-29.211 10.509v0 0h-.344c-.015 0-.067 0-.113 0v0h-.026-.01c-.041 0-.093 0-.139.013v0c-.031 0-.103 0-.149 0v0c-14.388-.001-26.791-5.863-35.719-16.924zm-3.069-47.112v.55c0 18.178 3.963 31.329 11.072 40.033v0c7.366 8.898 16.083 13.041 27.983 13.131v0c9.499-.052 16.813-2.681 22.95-7.98v0c5.048-4.372 8.969-10.674 11.601-19.255v0l-6.209-.948c-5.119 14.017-14.937 22.748-28.054 22.67v0c-.083 0-.083 0-.083 0v0h-.103c-.026 0-.072 0-.072 0v0c-9.067.036-17.188-4.194-23.13-11.599v0c-6.235-7.741-9.355-18.476-10.013-31.843v0l-.288-5.412h69.808c0-18.463-3.922-31.843-10.938-40.648v0c-7.401-9.108-15.518-13.141-26.091-13.215v0c-11.19.074-19.682 4.233-27.222 13.49v0 0c-7.114 8.882-11.113 22.398-11.211 41v0zm5.489 45.145l.797-.627v0 0zm3.331-88.098l-.807-.666v0 0 0 0zm3.218 36.816v-3.007 3.007h-5.428l.154-3.257.123-2.156c.55-10.774 3.547-19.918 9.448-26.831v0c5.71-6.826 13.364-10.686 21.897-10.647v0h .036c.015 0 .015 0 .015 0v0c .056 0 .097-.023.149-.023v0c9.432-.028 17.749 4.633 23.423 12.75v0c4.312 6.063 6.466 14.308 7.242 24.626v0l .416 5.539h-57.475zm49.664-7.214l1.033-.126-1.033.126v-3.108zm-3.501-3.108c-.931-6.389-2.658-11.002-4.739-13.832v0c-4.457-6.011-8.852-8.317-15.122-8.443v0c-5.618.103-9.828 2.053-14.135 6.99v0c-3.233 3.832-5.454 8.805-6.466 15.284v0h40.462z" fill="#fff"/>
      <path d="m686.952 274.443v-161.141h24.354l29.026 114.089 5.824 23.879c1.434-5.937 3.608-14.544 6.513-25.857l29.365-112.11h21.779v161.142h-15.539v-134.76l-35.729 134.76h-14.505l-35.528-137.079v137.079h-15.56z" fill="#fff"/>
      <path d="m785.153 277.535v-114.089l-30.198 114.089h-19.347l-29.987-115.871v115.871h-18.669v-3.092h3.1-3.1v3.092h-3.1v-167.325h29.859l29.653 116.456 2.832 11.624c1.012-4.007 2.143-8.553 3.49-13.626v0l29.966-114.455h27.278v167.326zm6.194-137.852v131.676h9.391v-154.95h-16.299l-28.759 109.784c-2.92 11.295-5.063 19.902-6.528 25.778v0l-6.014.025-5.803-23.827-28.482-111.761h-18.802v154.95h9.406v-133.993l6.091-.789 34.86 134.783h9.756l35.117-132.478z" fill="#fff"/>
      <path d="m786.279 276.548v-121.709l-32.254 121.709h-17.538l-31.997-123.688v123.688h-17.538v-2.105h1.979-1.979v2.105h-1.948v-165.377h27.808l29.463 115.695 3.896 16.073c1.239-4.986 2.765-10.997 4.595-18.103v0l29.787-113.665h25.228v165.377zm3.973-136.865v132.655h11.601v-156.893h-18.329l-28.949 110.571c-2.935 11.249-5.099 19.88-6.512 25.767v0l-1.876 7.903-7.72-31.714-28.672-112.527h-20.863v156.893h11.657v-134.973l3.855-.575 35.076 135.549h11.571l35.287-133.257z" fill="#fff"/>
      <path d="m786.279 279.678v-3.13h3.1-3.1v3.13h-3.094v-101.061l-26.734 101.062h-22.323l-26.528-102.517v102.516h-23.748v0h-1.932v-171.586h33.271l30.065 118.022.966 4.009c.483-1.927 1.038-3.958 1.573-6.063v0l30.352-115.968h30.763v171.586zm-44.354-10.446h6.759l35.4-133.606 6.595.974-.426 3.084.426-3.084 2.627.427v132.206h5.474v-150.709h-12.865l-28.348 108.245c-2.899 11.285-5.083 19.864-6.502 25.751v0l-1.886 7.883h-6.04l-7.7-31.671-28.039-110.209h-15.385v150.708h5.454v-134.534l9.257-1.377zm4.231-22.697c.2-.915.467-1.881.714-2.842v0h-1.419zm40.976-91.995v-6.237l-1.588 6.011zm-83.49-1.968l1.655-.213-1.655-6.186z" fill="#fff"/>
      <path d="m162.72 19.618c-84.981 0-153.859 68.88-153.859 153.871 0 83.19 66.025 150.959 148.554 153.766v.1h159.209v-153.866c0-84.991-68.923-153.871-153.904-153.871z" fill="#fff"/>
      <path d="m313.365 191.367v-7.44h-9.782l2.092-2.115h-141.485v-7.091h149.026c0-82.314-66.713-149.055-149.026-149.055-82.365 0-149.068 66.742-149.068 149.055 0 81.822 65.875 148.215 147.474 149.05v.041h150.769v-7.43h-142.246l2.097-2.118h-9.026v-7.327h149.176v-7.44h-125.362l2.092-2.105h-25.906v-6.589h149.176v-7.44h-109.207l2.082-2.115h-42.051v-6.952h149.176v-7.469h-92.712l2.097-2.079h-58.561v-7.34h149.176v-7.43h-75.837l2.107-2.112h-75.446v-6.618h149.176v-7.44h-59.692l2.092-2.09h-91.576v-7.353h149.176v-7.43h-42.812l2.097-2.092h-108.461v-7.327h149.176v-7.456h-25.953l2.128-2.103h-125.351v-6.589h149.175z" fill="#24428d"/>
      <path d="m289.315 172.829c-.277-68.995-56.793-125.205-126.466-125.205-69.849 0-126.493 56.485-126.493 126.107 0 69.545 56.495 125.991 126.24 126.089v22.249c-82.061-.123-148.569-66.492-148.569-148.338 0-81.925 66.646-148.363 148.821-148.363 82 0 148.528 66.176 148.806 147.461z" fill="#d1d2d3"/>
      <path d="m162.596 324.135c-83.212-.136-150.62-67.415-150.62-150.404v0c0-83.051 67.546-150.419 150.872-150.419v0c83.126 0 150.579 67.068 150.841 149.517v0 2.077h-24.375v-2.077h2.056-2.056v2.077h-2.051v-2.077c-.262-67.857-55.873-123.138-124.416-123.126v0c-34.357 0-65.464 13.856-87.962 36.315v0c-22.534 22.449-36.448 53.451-36.448 87.713v0c0 68.392 55.564 123.91 124.158 124.023v0l2.056.026v26.368zm-103.547-253.838c-26.528 26.495-42.94 63.046-42.94 103.434v0c0 80.018 64.441 145.033 144.436 146.259v0-18.114c-69.952-1.239-126.23-58.122-126.23-128.145v0c0-70.789 57.543-128.148 128.533-128.148v0c70.121 0 127.12 55.942 128.507 125.166v0h18.201c-1.352-79.181-66.538-143.306-146.708-143.306v0c-40.535.001-77.214 16.385-103.799 42.854z" fill="#d1d2d3"/>
      <path d="m144.328 317.859l-3.249-.576 1.501-8.717c.262-1.403.355-2.282.355-2.719-.031-.663-.278-1.267-.735-1.768-.447-.488-1.121-.799-2.051-.974-.915-.136-1.655-.077-2.195.226-.545.298-.91.725-1.1 1.238-.164.54-.401 1.442-.601 2.719l-1.527 8.916-3.269-.576 1.455-8.466c.324-1.927.632-3.284.951-4.058.324-.763.761-1.38 1.352-1.84.56-.465 1.254-.792 2.128-.966.827-.226 1.907-.177 3.197.023 1.552.277 2.663.653 3.392 1.151.766.504 1.306 1.07 1.681 1.707.359.653.575 1.316.575 1.93.072.976-.066 2.354-.365 4.158z" fill="#231f20"/>
      <path d="m128.584 298.118l-5.068 15.508-3.094-.979-2.965-12.462-3.408 10.36-2.935-.954 5.099-15.531 3.156 1.051 2.982 12.2 3.331-10.144z" fill="#231f20"/>
      <path d="m110.99 291.765l-6.713 14.896-3.038-1.38 6.754-14.868z" fill="#231f20"/>
      <path d="m99.388 285.967l-3.13 17.099-3.11-1.802 2.467-12.568-9.545 8.471-3.038-1.755 13.272-11.226z" fill="#231f20"/>
      <path d="m87.962 278.938l-10.018 12.892-9.622-7.489 1.691-2.17 7.027 5.439 2.22-2.858-6.502-5.073 1.675-2.156 6.492 5.05 2.755-3.495-7.263-5.636 1.675-2.18z" fill="#231f20"/>
      <path d="m74.284 267.828l-11.724 11.362-4.858-5.011c-1.229-1.264-2.015-2.29-2.349-3.066-.334-.753-.437-1.578-.205-2.457.205-.851.632-1.653 1.346-2.303.895-.841 1.856-1.283 2.935-1.329 1.08-.038 2.174.398 3.347 1.301-.206-.812-.288-1.565-.242-2.241.026-.676.242-1.765.576-3.194l.9-3.657 2.76 2.855-.905 4.161c-.314 1.514-.488 2.48-.498 2.93 0 .453.036.879.226 1.213.139.339.463.766 1.003 1.328l.478.478 4.883-4.76zm-9.066 4.171l-1.727-1.753c-1.105-1.138-1.83-1.817-2.22-2.017-.334-.172-.751-.249-1.141-.172-.401.075-.745.273-1.1.599-.416.391-.627.827-.663 1.254-.041.449.087.902.411 1.328.154.224.699.812 1.64 1.802l1.794 1.83z" fill="#231f20"/>
      <path d="m57.702 257.807l-2.154-2.405c.771-.799 1.177-1.578 1.224-2.354.077-.802-.185-1.58-.812-2.405-.591-.827-1.275-1.377-1.943-1.552-.678-.149-1.275-.075-1.758.275-.308.226-.519.502-.575.853-.108.35-.072.8.103 1.375.128.403.452 1.267.976 2.583.694 1.704.982 3.03.89 3.955-.123 1.328-.699 2.405-1.737 3.171-.694.488-1.455.74-2.328.802-.853.036-1.706-.211-2.529-.688-.833-.501-1.609-1.277-2.36-2.28-1.197-1.655-1.783-3.182-1.624-4.562.093-1.375.725-2.516 1.902-3.431l2.082 2.606c-.607.576-.91 1.177-.931 1.779 0 .602.236 1.252.802 2.005.55.8 1.152 1.29 1.804 1.501.422.126.786.077 1.111-.162.344-.224.493-.563.54-.99.026-.55-.277-1.575-.925-3.107-.627-1.514-1.043-2.716-1.125-3.58-.124-.866-.052-1.679.236-2.457.329-.763.915-1.452 1.742-2.053.751-.527 1.604-.841 2.581-.915.976-.074 1.876.191 2.775.738.884.501 1.732 1.393 2.585 2.531 1.203 1.704 1.779 3.246 1.65 4.711-.14 1.463-.855 2.83-2.202 4.056z" fill="#231f20"/>
      <path d="m51.612 239.555l-14.094 8.219-1.691-2.881 14.13-8.204z" fill="#231f20"/>
      <path d="m45.767 228.571l-12.372 5.638 2.045 4.459-2.518 1.152-5.397-11.9 2.488-1.128 2.035 4.408 12.352-5.662z" fill="#231f20"/>
      <path d="m40.966 217.034l-15.43 5.299-1.08-3.12 15.431-5.299z" fill="#231f20"/>
      <path d="m34.305 188.036l-13.523 1.301.483 4.886-2.76.252-1.254-12.979 2.749-.276.473 4.837 13.498-1.305z" fill="#231f20"/>
      <path d="m33.395 175.458l-16.305-.552.401-12.149 2.75.101-.272 8.844 3.608.126.278-8.245 2.729.09-.277 8.216 4.461.162.304-9.167 2.729.087z" fill="#231f20"/>
      <path d="m34.362 157.845l-16.109-2.845.586-3.243 7.145 1.254-5.963-7.844.761-4.408 5.202 7.191 10.948-4.66-.75 4.207-8.358 3.118 2.246 3.12 4.858.879z" fill="#231f20"/>
      <path d="m38.057 139.357l-15.482-5.186 1.028-3.069 12.475-2.894-10.336-3.482.992-2.933 15.457 5.212-1.049 3.159-12.213 2.878 10.105 3.408z" fill="#231f20"/>
      <path d="m44.534 121.793l-14.819-6.813 1.378-3.004 14.834 6.836z" fill="#231f20"/>
      <path d="m48.281 113.79l-14.022-8.404 1.696-2.83 6.235 3.729-2.791-9.483 2.308-3.817 2.266 8.579 11.91-.488-2.221 3.683-8.861-.075.966 3.732 4.215 2.532z" fill="#231f20"/>
      <path d="m67.669 86.396l-2.292 2.804-3.793-1.252-4.132 5.086 2.004 3.395-2.205 2.742-8.594-15.318 2.205-2.722zm-8.892.64l-6.091-2.094 3.274 5.577z" fill="#231f20"/>
      <path d="m70.64 83.538l-11.035-11.889 2.426-2.239 9.175 9.846 6.039-5.639 1.851 2.03z" fill="#231f20"/>
      <path d="m96.623 63.058l-7.423-14.518 4.4-2.267 7.741 8.545-2.461-11.262 4.42-2.256 7.438 14.543-2.73 1.391-5.859-11.45 2.955 12.94-2.832 1.452-8.759-9.956 5.875 11.447z" fill="#231f20"/>
      <path d="m130.034 49.143l-3.449 1.113-2.493-3.081-6.235 2.043-.138 3.955-3.336 1.105.992-17.513 3.305-1.102zm-7.823-4.235l-4.03-5.05-.232 6.454z" fill="#231f20"/>
      <path d="m134.074 48.29l-2.935-15.937 3.269-.576 2.436 13.218 8.106-1.477.483 2.68z" fill="#231f20"/>
      <path d="m164.878 44.957l-3.619.201-1.593-3.655-6.569.298-1.172 3.783-3.5.177 5.628-16.636 3.511-.162zm-6.414-6.148l-2.534-5.952-1.922 6.176z" fill="#231f20"/>
      <path d="m171.154 45.46l.509-6.841-5.258-9.907 3.86.311 3.341 6.741 4.302-6.15 3.778.26-6.734 9.01-.504 6.826z" fill="#231f20"/>
      <path d="m184.657 41.474l3.233.377c-.036 1.077.185 1.928.632 2.555.483.627 1.208 1.025 2.195 1.252 1.038.213 1.866.164 2.498-.175.632-.326 1.002-.753 1.126-1.38.072-.349.052-.702-.124-1.025-.164-.298-.504-.625-1.033-.925-.324-.226-1.152-.627-2.452-1.254-1.629-.789-2.709-1.578-3.305-2.367-.781-1.09-1.059-2.267-.781-3.544.19-.804.575-1.506 1.208-2.13.596-.602 1.357-1.003 2.339-1.177.915-.201 2.046-.126 3.243.111 2.046.429 3.429 1.19 4.282 2.295.827 1.1 1.126 2.392.853 3.855l-3.284-.524c.067-.864-.113-1.514-.494-1.979-.38-.475-1.033-.766-1.933-.977-.941-.2-1.753-.175-2.359.113-.381.162-.622.463-.725.876-.072.378 0 .741.298 1.093.309.398 1.244.961 2.75 1.675 1.485.702 2.565 1.352 3.269 1.904.647.576 1.126 1.203 1.413 2.002.267.776.314 1.668.072 2.67-.195.915-.622 1.714-1.311 2.416-.678.692-1.532 1.128-2.534 1.329-1.023.177-2.252.138-3.64-.173-1.989-.455-3.474-1.231-4.359-2.421-.917-1.152-1.241-2.642-1.077-4.472z" fill="#231f20"/>
      <path d="m201.353 50.996l5.012-15.546 3.145 1.028-5.001 15.521z" fill="#231f20"/>
      <path d="m223.198 59.726l-3.29-1.467.216-3.981-6.019-2.658-2.73 2.83-3.208-1.426 12.45-12.3 3.233 1.429zm-2.956-8.378l.411-6.453-4.477 4.633z" fill="#231f20"/>
      <path d="m240.551 70.675l10.557-12.452 3.783 3.194-4.883 10.422 9.416-6.612 3.799 3.218-10.563 12.488-2.329-2.002 8.291-9.823-10.784 7.715-2.441-2.053 5.834-11.925-8.343 9.846z" fill="#231f20"/>
      <path d="m256.557 84.967l12.315-10.774 8.014 9.159-2.076 1.825-5.839-6.661-2.73 2.38 5.438 6.199-2.102 1.83-5.418-6.212-3.331 2.93 6.04 6.89-2.076 1.804z" fill="#231f20"/>
      <path d="m267.906 98.544l13.493-8.969 1.84 2.758-11.21 7.466 4.584 6.865-2.292 1.504z" fill="#231f20"/>
      <path d="m283.075 125.55l-1.573-3.228 2.75-2.935-2.853-5.911-3.948.426-1.542-3.205 17.492-1.328 1.552 3.153zm3.156-8.314l4.487-4.662-6.409.64z" fill="#231f20"/>
      <path d="m284.504 129.436l15.605-4.86.956 3.131-6.914 2.182 8.918 4.246 1.331 4.245-7.895-4.009-7.607 9.196-1.249-4.097 5.958-6.6-3.419-1.732-4.708 1.455z" fill="#231f20"/>
      <path d="m291.983 162.13l-.561-3.544 3.454-1.979-1.028-6.502-3.865-.766-.555-3.469 17.127 3.809.52 3.47zm5.422-7.014l5.639-3.159-6.317-1.252z" fill="#231f20"/>
      <path d="m155.066 177.136c0-4.308 3.557-7.818 7.983-7.818 4.41 0 8.013 3.511 8.013 7.818 0 4.3-3.603 7.793-8.013 7.793-4.426 0-7.983-3.493-7.983-7.793z" fill="#fff"/>
      <rect fill="#24428d" height="7.9180002" width="40.210999" x="632.34399" y="224.58701"/>
      <path d="m8.26 463.118h5.721v15.381c0 2.444.103 4.033.252 4.757.226 1.203.817 2.107 1.727 2.832.93.678 2.21 1.064 3.809 1.064 1.614 0 2.858-.36 3.67-1.038.817-.653 1.326-1.454 1.521-2.431.149-.987.242-2.578.242-4.844v-15.721h5.716v14.932c0 3.418-.134 5.834-.447 7.237-.329 1.403-.884 2.606-1.701 3.588-.828.951-1.959 1.727-3.362 2.288-1.377.576-3.217.879-5.49.879-2.704 0-4.786-.314-6.158-.941-1.403-.627-2.529-1.429-3.336-2.457-.827-1.002-1.326-2.051-1.614-3.156-.365-1.614-.55-4.02-.55-7.201z" fill="#24428d"/>
      <path d="m37.044 491.553v-28.435h5.572l11.653 18.987v-18.987h5.336v28.435h-5.762l-11.447-18.527v18.527z" fill="#24428d"/>
      <path d="m65.505 491.553v-28.435h5.731v28.435z" fill="#24428d"/>
      <path d="m83.979 491.553l-10.198-28.435h6.271l7.186 21.043 6.97-21.043h6.086l-10.214 28.435z" fill="#24428d"/>
      <path d="m103.198 491.553v-28.435h21.095v4.821h-15.333v6.276h14.264v4.811h-14.264v7.741h15.883v4.786z" fill="#24428d"/>
      <path d="m129.725 491.553v-28.435h12.079c3.069 0 5.248.262 6.621.776 1.393.478 2.472 1.403 3.3 2.717.853 1.316 1.223 2.796 1.223 4.472 0 2.117-.622 3.896-1.866 5.287-1.238 1.403-3.115 2.266-5.623 2.632 1.254.727 2.277 1.529 3.094 2.38.802.864 1.896 2.431 3.269 4.637l3.459 5.536h-6.857l-4.153-6.189c-1.491-2.205-2.498-3.608-3.017-4.184-.529-.576-1.131-.976-1.732-1.203-.601-.175-1.593-.301-2.904-.301h-1.177v11.876h-5.716zm5.716-16.41h4.261c2.75 0 4.498-.113 5.171-.326.663-.249 1.213-.65 1.604-1.226.412-.565.576-1.28.576-2.156 0-.941-.236-1.704-.74-2.28-.524-.602-1.249-.98-2.169-1.152-.473-.052-1.886-.064-4.189-.064h-4.513v7.204z" fill="#24428d"/>
      <path d="m156.932 482.295l5.592-.539c.324 1.881 1.012 3.243 2.051 4.132 1.018.879 2.405 1.316 4.163 1.316 1.825 0 3.243-.401 4.153-1.162.982-.776 1.429-1.706 1.429-2.755 0-.678-.201-1.244-.602-1.732-.401-.45-1.1-.864-2.066-1.226-.663-.203-2.2-.653-4.595-1.216-3.059-.789-5.222-1.714-6.466-2.819-1.753-1.565-2.626-3.493-2.626-5.723 0-1.452.411-2.794 1.223-4.071.827-1.254 2.02-2.221 3.557-2.881 1.552-.663 3.408-.979 5.613-.979 3.547 0 6.24.776 8.07 2.331 1.779 1.578 2.729 3.658 2.827 6.266l-5.762.272c-.246-1.475-.75-2.529-1.588-3.182-.786-.612-1.994-.964-3.619-.964-1.681 0-2.966.363-3.922 1.041-.612.45-.92 1.025-.92 1.75 0 .691.277 1.28.874 1.742.709.617 2.488 1.239 5.269 1.917 2.755.65 4.862 1.328 6.184 2.03 1.346.715 2.405 1.691 3.151 2.879.761 1.231 1.151 2.786 1.151 4.533 0 1.655-.462 3.161-1.367 4.611-.925 1.393-2.18 2.431-3.855 3.156-1.635.678-3.706 1.018-6.194 1.018-3.603 0-6.364-.812-8.265-2.468-1.944-1.679-3.095-4.084-3.46-7.277z" fill="#24428d"/>
      <path d="m184.719 491.553v-28.435h5.726v28.435z" fill="#24428d"/>
      <path d="m202.329 491.553v-23.613h-8.445v-4.821h22.58v4.821h-8.399v23.613z" fill="#24428d"/>
      <path d="m220.021 491.553v-28.435h5.731v28.435z" fill="#24428d"/>
      <path d="m248.651 491.553v-23.613h-8.44v-4.821h22.622v4.821h-8.425v23.613z" fill="#24428d"/>
      <path d="m266.519 491.553v-28.435h21.08v4.821h-15.318v6.276h14.294v4.811h-14.294v7.741h15.883v4.786z" fill="#24428d"/>
      <path d="m293.098 491.553v-28.435h5.762v12.601l11.575-12.601h7.731l-10.702 11.072 11.287 17.363h-7.412l-7.844-13.341-4.637 4.747v8.594z" fill="#24428d"/>
      <path d="m321.785 491.553v-28.435h5.577l11.637 18.987v-18.987h5.33v28.435h-5.757l-11.477-18.527v18.527z" fill="#24428d"/>
      <path d="m350.22 491.553v-28.435h5.741v28.435z" fill="#24428d"/>
      <path d="m361.497 491.553v-28.435h5.757v12.601l11.586-12.601h7.731l-10.697 11.072 11.288 17.363h-7.443l-7.803-13.341-4.662 4.747v8.594z" fill="#24428d"/>
      <path d="m415.761 491.553h-6.24l-2.483-6.466h-11.37l-2.349 6.466h-6.07l11.072-28.435h6.06zm-10.553-11.249l-3.958-10.547-3.793 10.547z" fill="#24428d"/>
      <path d="m418.963 491.553v-28.186h5.736v23.4h14.294v4.786z" fill="#24428d"/>
      <path d="m453.314 491.553v-28.435h8.605l5.135 19.414 5.125-19.414h8.62v28.435h-5.34v-22.388l-5.639 22.388h-5.536l-5.618-22.388v22.388z" fill="#24428d"/>
      <path d="m512.138 491.553h-6.266l-2.477-6.466h-11.339l-2.364 6.466h-6.086l11.072-28.435h6.086zm-10.599-11.249l-3.881-10.547-3.834 10.547z" fill="#24428d"/>
      <path d="m515.345 491.553v-28.186h5.721v23.4h14.269v4.786z" fill="#24428d"/>
      <path d="m565.096 491.553h-6.26l-2.483-6.466h-11.37l-2.359 6.466h-6.081l11.098-28.435h6.06zm-10.574-11.249l-3.942-10.547-3.819 10.547z" fill="#24428d"/>
      <path d="m571.979 491.553v-11.951l-10.46-16.484h6.764l6.677 11.249 6.548-11.249h6.605l-10.44 16.51v11.925z" fill="#24428d"/>
      <path d="m589.496 482.295l5.602-.539c.34 1.881 1.013 3.243 2.041 4.132 1.054.879 2.431 1.316 4.153 1.316 1.861 0 3.269-.401 4.204-1.162.915-.776 1.388-1.706 1.388-2.755 0-.678-.185-1.244-.576-1.732-.375-.45-1.09-.864-2.051-1.226-.699-.203-2.231-.653-4.601-1.216-3.104-.789-5.273-1.714-6.502-2.819-1.712-1.565-2.601-3.493-2.601-5.723 0-1.452.401-2.794 1.239-4.071.812-1.254 1.994-2.221 3.526-2.881 1.542-.663 3.413-.979 5.618-.979 3.567 0 6.25.776 8.029 2.331 1.83 1.578 2.781 3.658 2.858 6.266l-5.726.272c-.236-1.475-.792-2.529-1.594-3.182-.822-.612-2.015-.964-3.639-.964-1.67 0-2.971.363-3.901 1.041-.622.45-.951 1.025-.951 1.75 0 .691.329 1.28.894 1.742.725.617 2.436 1.239 5.258 1.917 2.817.65 4.858 1.328 6.199 2.03 1.326.715 2.38 1.691 3.135 2.879.771 1.231 1.152 2.786 1.152 4.533 0 1.655-.452 3.161-1.383 4.611-.899 1.393-2.174 2.431-3.829 3.156-1.63.678-3.711 1.018-6.179 1.018-3.619 0-6.379-.812-8.28-2.468-1.926-1.679-3.103-4.084-3.483-7.277z" fill="#24428d"/>
      <path d="m617.309 491.553v-28.435h5.71v28.435z" fill="#24428d"/>
      <path d="m654.153 491.553h-6.23l-2.509-6.466h-11.37l-2.333 6.466h-6.086l11.046-28.435h6.091zm-10.589-11.249l-3.922-10.547-3.834 10.547z" fill="#24428d"/>
      <path d="m666.674 491.553v-28.435h8.609l5.13 19.414 5.125-19.414h8.604v28.435h-5.32v-22.388l-5.659 22.388h-5.526l-5.637-22.388v22.388z" fill="#24428d"/>
      <path d="m699.833 491.553v-28.435h21.095v4.821h-15.333v6.276h14.259v4.811h-14.259v7.741h15.883v4.786z" fill="#24428d"/>
      <path d="m726.495 491.553v-28.186h5.747v23.4h14.289v4.786z" fill="#24428d"/>
      <path d="m776.245 491.553h-6.235l-2.498-6.466h-11.35l-2.339 6.466h-6.107l11.082-28.435h6.055zm-10.572-11.249l-3.881-10.547-3.876 10.547z" fill="#24428d"/>
      <path d="m779.402 491.553v-28.435h5.741v12.601l11.544-12.601h7.757l-10.727 11.072 11.313 17.363h-7.438l-7.818-13.341-4.631 4.747v8.594z" fill="#24428d"/>
      <path d="m833.63 491.553h-6.25l-2.452-6.466h-11.401l-2.36 6.466h-6.07l11.082-28.435h6.065zm-10.563-11.249l-3.943-10.547-3.85 10.547z" fill="#24428d"/>
      <rect fill="#24428d" height="2.9200001" width="824.146" x="8.8719997" y="443.64999"/>
   </g>
</svg>
