<?xml version="1.0" encoding="utf-8"?>
<!-- Generator: Adobe Illustrator 25.0.1, SVG Export Plug-In . SVG Version: 6.00 Build 0)  -->
<svg version="1.0" id="Capa_1" xmlns="http://www.w3.org/2000/svg" xmlns:xlink="http://www.w3.org/1999/xlink" x="0px" y="0px"
	 viewBox="0 0 124 124" style="enable-background:new 0 0 124 124;" xml:space="preserve">
<style type="text/css">
	.st0{fill:#FFFFFF;}
	.st1{fill:#63392D;}
	.st2{fill:#002349;}
	.st3{fill:#00944F;}
	.st4{fill:#D7162F;}
	.st5{fill:#F6C20B;}
</style>
<text transform="matrix(1 0 0 1 -282.881897 319.1750183)" style="font-family:'HelveticaLTStd-Cond'; font-size:14px;"> </text>
<text transform="matrix(1 0 0 1 250.9921265 440.5099792)" style="font-family:'HelveticaLTStd-Cond'; font-size:15px;">, </text>
<g>
	<g>
		<path class="st0" d="M62.0010071,123.1974945c-33.7260132,0-61.0690002-27.3979797-61.0690002-61.197998
			c0-33.7989807,27.3429871-61.196991,61.0690002-61.196991s61.0669861,27.3980103,61.0669861,61.196991
			C123.0679932,95.7995148,95.7269897,123.1974945,62.0010071,123.1974945"/>
		<path class="st1" d="M62.0010071,2.1825104c-32.9660034,0-59.6910095,26.7810059-59.6910095,59.8170166
			c0,33.0379944,26.7250061,59.8179932,59.6910095,59.8179932c32.9649963,0,59.6889954-26.7799988,59.6889954-59.8179932
			C121.6900024,28.9635162,94.9660034,2.1825104,62.0010071,2.1825104"/>
		<path class="st0" d="M62.0010071,119.5175018c-31.6980286,0-57.3950195-25.7509766-57.3950195-57.5169983
			S30.3029785,4.4835358,62.0010071,4.4835358c31.696991,0,57.3929749,25.7509766,57.3929749,57.5169678
			S93.697998,119.5175018,62.0010071,119.5175018"/>
		<path class="st1" d="M62,6.7845001c-30.4300232,0-55.0980225,24.7210083-55.0980225,55.2160034
			c0,30.4960022,24.6679993,55.2160034,55.0980225,55.2160034c30.4299927,0,55.0979919-24.7200012,55.0979919-55.2160034
			C117.0979919,31.5055084,92.4299927,6.7845001,62,6.7845001"/>
		<path class="st0" d="M61.9990234,105.7125092c-24.0900269,0-43.6190186-19.5699768-43.6190186-43.7129822
			c0-24.1409912,19.5289917-43.7119751,43.6190186-43.7119751c24.0909729,0,43.6209717,19.5709839,43.6209717,43.7119751
			C105.6199951,86.1425323,86.0899963,105.7125092,61.9990234,105.7125092"/>
		<path class="st2" d="M62,45.8954926c15.1679993,0,29.0119934,1.5280151,39.5419922,4.0420227
			C96.3869934,32.9505157,80.6349792,20.5885162,62,20.5885162c-18.6350098,0-34.3860168,12.3619995-39.5400085,29.348999
			c0.026001-0.006012,0.052002-0.0130005,0.0780029-0.0190125C33.0579834,47.414505,46.8699951,45.8954926,62,45.8954926"/>
		<path class="st3" d="M99.6090088,79.1825104C89.5359802,77.078537,76.3890076,75.8045197,62,75.8045197
			s-27.5350037,1.2740173-37.6080017,3.3779907C30.9049988,93.4775238,45.2940063,103.4125214,62,103.4125214
			C78.7049866,103.4125214,93.0950012,93.4775238,99.6090088,79.1825104"/>
		<path class="st4" d="M100.4179993,77.283493c1.875-4.7289734,2.9069824-9.8849792,2.9069824-15.2839966
			c0-3.3989868-0.4110107-6.7030029-1.1829834-9.8639832c-0.678009-0.1600037-1.3710022-0.3160095-2.0810242-0.4670105
			C89.9309692,49.5084991,76.6039734,48.1965179,62,48.1965179c-14.5480042,0-27.8280029,1.302002-37.9440002,3.446991
			c-0.75,0.1600037-1.4820251,0.322998-2.1970215,0.4920044c-0.7709961,3.1609802-1.1819763,6.4649963-1.1819763,9.8639832
			c0,5.3990173,1.0309753,10.5550232,2.9059753,15.28302C33.9649963,74.9245148,47.3659973,73.5025177,62,73.5025177
			C76.6349792,73.5025177,90.0359802,74.9245148,100.4179993,77.283493"/>
		<path class="st5" d="M86.2799988,86.1555023c-1.2019958,2.0870056-8.0569763,5.257019-15.9449768,7.3739929
			c-7.8980103,2.1220093-15.4240112,2.8120117-17.5080261,1.6070251c-0.2349854-0.1370239-0.3769836-0.2870178-0.4199829-0.4460144
			l-0.0150146-0.1220093c0-1.4799805,5.6020203-5.0350037,16.1190186-7.8599854
			c9.0820007-2.4380188,15.6759949-2.6480103,17.493988-1.5960083c0.2340088,0.1360168,0.3730164,0.2839966,0.4160156,0.4429932
			l0.0149841,0.1220093C86.4360046,85.8144989,86.3840027,85.9755096,86.2799988,86.1555023 M89.1370239,84.8264923
			c-0.0810242-0.3049927-0.3040161-0.5649719-0.6650085-0.7729797c-2.3439941-1.3569946-10.8130188-0.5230103-20.1409912,1.9819946
			c-9.6990051,2.605011-19.3230286,6.8250122-18.6400146,9.3819885c0.6830139,2.5490112,11.1220093,1.3789978,20.8210144-1.2249756
			C80.2030029,91.5894928,89.8190002,87.3755035,89.1370239,84.8264923"/>
		<path class="st5" d="M71.5979919,94.6775055c-0.381012,1.4249878-7.3869934,1.6719971-17.9309998-1.1589966
			c-7.8910217-2.1180115-14.7449951-5.2850037-15.9450073-7.3680115c-0.1040039-0.1809998-0.1570129-0.3429871-0.1570129-0.4819946
			l0.0160217-0.1239929c0.0429993-0.1610107,0.1839905-0.3120117,0.4199829-0.447998
			c2.0830078-1.2059937,9.6020203-0.5169983,17.4900208,1.6019897c7.8989868,2.1199951,14.7630005,5.2940063,15.9659729,7.382019
			c0.1040039,0.1779785,0.1560059,0.3389893,0.1560059,0.4769897L71.5979919,94.6775055z M74.125,94.408493
			c-1.3490295-2.3429871-9.11203-5.8629761-18.4580078-8.3719788c-9.4830017-2.5469971-17.7640076-3.3659973-20.1380005-1.9930115
			c-0.3600159,0.2080078-0.5830078,0.4680176-0.6650085,0.7720032c-0.0220032,0.0849915-0.0339966,0.1730042-0.0339966,0.2630005
			c0,0.2319946,0.0750122,0.4790039,0.2250061,0.7399902c1.3529968,2.3480225,9.1040039,5.8700256,18.4309998,8.3740234
			c9.3389893,2.5079956,17.8190002,3.3429871,20.164978,1.9859924c0.3590088-0.2080078,0.5830078-0.4670105,0.6640015-0.7709961
			c0.0220032-0.085022,0.0340271-0.1730042,0.0340271-0.2630005C74.348999,94.9134979,74.2739868,94.6674957,74.125,94.408493"/>
		<path class="st5" d="M62.0010071,94.2525177c1.2639771,0,2.2949829-1.0359802,2.2949829-2.3049927
			c0-1.269989-1.0310059-2.29599-2.2949829-2.29599c-1.2640076,0-2.2960205,1.026001-2.2960205,2.29599
			C59.7049866,93.2165375,60.7369995,94.2525177,62.0010071,94.2525177"/>
		<path class="st5" d="M62.0010071,99.4545135c-1.4190063,0-2.9390259-3.9559937-2.9390259-9.8459778
			c0-5.8900146,1.5200195-9.8470154,2.9390259-9.8470154c0.7179871,0,1.4509888,1.0110168,2.0099792,2.7730103
			c0.598999,1.8849792,0.928009,4.3979797,0.928009,7.0740051c0,2.6759949-0.32901,5.1889954-0.928009,7.0739746
			C63.4519958,98.4435272,62.7189941,99.4545135,62.0010071,99.4545135 M62.0010071,78.1045074
			c-2.0290222,0-3.6730042,5.151001-3.6730042,11.5040283c0,6.3529968,1.6439819,11.5029907,3.6730042,11.5029907
			c2.0279846,0,3.6719971-5.1499939,3.6719971-11.5029907C65.6730042,83.2555084,64.0289917,78.1045074,62.0010071,78.1045074"/>
		<path class="st5" d="M68.7369995,51.900528h-0.1749878c-0.1030273,0-0.1860046,0.0829773-0.1860046,0.1849976
			c0,0.1040039,0.0829773,0.1860046,0.1860046,0.1860046h0.1569824l-0.3729858,7.8269958
			c-0.1100159,0.0329895-0.1930237,0.1329956-0.1930237,0.2539978c0,0.0639954,0.0250244,0.1199951,0.0620117,0.1659851H68.17099
			c-0.1619873,0-0.2829895,0.1549988-0.2829895,0.3600159c0,0.2109985,0.1210022,0.3719788,0.2829895,0.3719788h0.0570068
			c-0.04599,0.0480042-0.0750122,0.11203-0.0750122,0.1830139c0,0.1220093,0.0820007,0.2210083,0.1900024,0.256012
			l0.3760071,7.8939819h-0.1569824c-0.1030273,0-0.1860046,0.0830078-0.1860046,0.1849976
			c0,0.1029968,0.0829773,0.1860046,0.1860046,0.1860046h0.1749878h-0.269989c-0.1450195,0-0.2669983,0.1300049-0.2669983,0.28302
			v0.1419983c0,0.072998,0.0289917,0.1399841,0.0739746,0.1899719h-0.4299927
			c0.1920166-3.4379883-1.5409851-6.5589905-4.3509827-8.2549744c-0.8870239-0.5480042-0.8870239-2.2120056,0-2.757019
			c2.8199768-1.7049866,4.5579834-4.8049927,4.3499756-8.2579956h0.4260254
			c-0.0410156,0.0500183-0.0690002,0.1130066-0.0690002,0.1820068v0.1430054c0,0.151001,0.1199951,0.2739868,0.2669983,0.2739868
			h0.269989V51.900528z M55.8389893,70.5695038c0.0450134-0.0499878,0.0740051-0.1169739,0.0740051-0.1899719v-0.1419983
			c0-0.1530151-0.1220093-0.28302-0.2659912-0.28302h-0.2700195h0.1750183c0.1029968,0,0.1849976-0.0830078,0.1849976-0.1860046
			c0-0.1019897-0.0820007-0.1849976-0.1849976-0.1849976h-0.1560059l0.381012-7.8919983
			c0.1170044-0.0310059,0.2030029-0.1319885,0.2030029-0.2579956c0-0.0709839-0.0280151-0.1350098-0.0740051-0.1830139h0.04599
			c0.1560059,0,0.2740173-0.1609802,0.2740173-0.3719788c0-0.2019958-0.1210022-0.3600159-0.2740173-0.3600159h-0.0329895
			c0.0359802-0.04599,0.0610046-0.1019897,0.0610046-0.1659851c0-0.1270142-0.0890198-0.2279968-0.2050171-0.257019
			l-0.3809814-7.8239746h0.1579895c0.1029968,0,0.1849976-0.0820007,0.1849976-0.1860046
			c0-0.1020203-0.0820007-0.1849976-0.1849976-0.1849976h-0.1759949v-0.0020142h0.2709961
			c0.1459961,0,0.2659912-0.1229858,0.2659912-0.2739868v-0.1430054c0-0.0690002-0.0279846-0.1319885-0.0690002-0.1820068h0.4259949
			c-0.2079773,3.4530029,1.5299988,6.553009,4.3520203,8.2579956c0.8929749,0.5450134,0.8929749,2.2090149,0,2.757019
			c-2.8099976,1.6959839-4.5450134,4.8169861-4.3520203,8.2549744H55.8389893z M64.7579956,67.868515
			c-0.9490051-0.3959961-1.9299927-0.8059998-2.2949829-1.4400024c-0.1720276-0.2969971-0.3180237-4.1600037-0.3480225-5.2460022
			c0.0710144,0.3139954,0.2470093,0.631012,0.3890076,0.9100037c0.1600037,0.3160095,0.553009,0.5930176,0.8580017,0.7839966
			c1.9259949,1.1640015,3.2420044,3.0110168,3.7139893,5.1809998c0.0950012,0.4200134,0.1530151,0.8560181,0.1809998,1.3000183
			c0.007019,0.1210022,0.0110168,0.2420044,0.0150146,0.3629761C67.0639954,68.8305206,65.8940125,68.342514,64.7579956,67.868515
			 M61.6180115,62.092514c0.1409912-0.2799988,0.3190002-0.5889893,0.3880005-0.9039917
			c-0.0280151,1.1319885-0.1800232,4.9490051-0.3470154,5.2399902c-0.3680115,0.6340027-1.348999,1.0429993-2.2990112,1.4389954
			c-1.1259766,0.4690247-2.2829895,0.9519958-2.5089722,1.8269958c0.0499878-1.9699707,0.7359924-3.76297,1.9389954-5.1629944
			c0.2689819-0.315979,0.5740051-0.6170044,0.901001-0.894989c0.3269958-0.276001,0.6829834-0.5320129,1.0609741-0.7600098
			v-0.0090027C61.0639954,62.6855316,61.4490051,62.4085236,61.6180115,62.092514 M67.2720032,51.2995148v0.427002
			c0.0379944,1.598999-0.3439941,3.0920105-1.0750122,4.3720093c-0.0050049-0.0039978-0.0090027-0.0090027-0.0149841-0.0090027
			h-8.25c-0.006012,0-0.0110168,0.0059814-0.0160217,0.0100098c-0.4039917-0.7060242-0.7009888-1.4750061-0.8779907-2.2880249
			c-0.0939941-0.4189758-0.1529846-0.8559875-0.1820068-1.2989807c-0.0139771-0.2620239-0.0220032-0.5240173-0.0139771-0.7860107
			l-0.0169983-0.427002H67.2720032z M69.9890137,70.5695038H69.54599c0.0440063-0.0499878,0.072998-0.1169739,0.072998-0.1899719
			v-0.1419983c0-0.1530151-0.1219788-0.28302-0.2659912-0.28302h-0.2690125h0.1750183
			c0.1019897,0,0.1839905-0.0830078,0.1839905-0.1860046c0-0.1019897-0.0820007-0.1849976-0.1839905-0.1849976h-0.1579895
			l0.3829956-7.8930054c0.1139832-0.0319824,0.1989746-0.1329956,0.1989746-0.2569885
			c0-0.0709839-0.0289917-0.1350098-0.0749817-0.1830139h0.0499878c0.1570129,0,0.2740173-0.1609802,0.2740173-0.3719788
			c0-0.2019958-0.1199951-0.3600159-0.2740173-0.3600159h-0.0369873c0.0360107-0.04599,0.0619812-0.1019897,0.0619812-0.1659851
			c0-0.1239929-0.0859985-0.2260132-0.2019958-0.257019l-0.3799744-7.8239746h0.1579895
			c0.1019897,0,0.1839905-0.0820007,0.1839905-0.1860046c0-0.1020203-0.0820007-0.1849976-0.1839905-0.1849976h-0.1759949
			v-0.0020142h0.269989c0.1470032,0,0.2659912-0.1229858,0.2659912-0.2739868v-0.1430054
			c0-0.0690002-0.0269775-0.1319885-0.0679932-0.1820068h0.4380188c0.2209778,0,0.3989868-0.1829834,0.3989868-0.3970032
			c0-0.2210083-0.178009-0.4039917-0.3989868-0.4039917H54.1180115c-0.2160034,0-0.3919983,0.1829834-0.3919983,0.4039917
			c0,0.2140198,0.1759949,0.3970032,0.3919983,0.3970032h0.4449768c-0.0409851,0.0500183-0.0690002,0.1130066-0.0690002,0.1820068
			v0.1430054c0,0.151001,0.1200256,0.2739868,0.2660217,0.2739868h0.2709961v0.0020142H54.855011
			c-0.1020203,0-0.1849976,0.0829773-0.1849976,0.1849976c0,0.1040039,0.0829773,0.1860046,0.1849976,0.1860046h0.1579895
			l-0.3730164,7.8269958c-0.1089783,0.0350037-0.1889954,0.1340027-0.1889954,0.2539978
			c0,0.0639954,0.0250244,0.1199951,0.0620117,0.1659851h-0.0480042c-0.1619873,0-0.2839966,0.1549988-0.2839966,0.3600159
			c0,0.2109985,0.1220093,0.3719788,0.2839966,0.3719788h0.0610046c-0.04599,0.0480042-0.0750122,0.11203-0.0750122,0.1830139
			c0,0.1199951,0.0780029,0.2179871,0.1860046,0.2539978l0.3760071,7.8959961H54.855011
			c-0.1020203,0-0.1849976,0.0830078-0.1849976,0.1849976c0,0.1029968,0.0829773,0.1860046,0.1849976,0.1860046h0.1749878h-0.269989
			c-0.1440125,0-0.2660217,0.1300049-0.2660217,0.28302v0.1419983c0,0.072998,0.0290222,0.1399841,0.0740051,0.1899719h-0.4499817
			c-0.2160034,0-0.3919983,0.1830139-0.3919983,0.3960266c0,0.2229919,0.1759949,0.4039917,0.3919983,0.4039917h15.8710022
			c0.2209778,0,0.3989868-0.1809998,0.3989868-0.4039917C70.3880005,70.7525177,70.2099915,70.5695038,69.9890137,70.5695038"/>
		<path class="st5" d="M25.2539978,65.4635162c1.90802,0.2529907,3.7929993,0.5639954,5.6540222,0.9289856
			c-3.2579956,1.1210022-6.4049988,2.4140015-9.4349976,3.8569946c0.2249756,1.1180115,0.493988,2.2200012,0.8059998,3.3050232
			c4.2160034-2.6540222,8.7769775-5.0010071,13.6469727-6.9680176c-1.4659729-0.5759888-2.9579773-1.1170044-4.4749756-1.6229858
			c6.2869873-2.3009949,13-3.9790039,20.0379944-4.9160156C42.2680054,60.6475067,33.4450073,62.5245209,25.2539978,65.4635162
			 M93.0550232,66.3654938c1.8599854-0.3659973,3.7459717-0.6769714,5.6529846-0.9299927
			c-8.1900024-2.9379883-17.0130005-4.8150024-26.2359924-5.414978c7.0379944,0.9359741,13.7519836,2.6149902,20.0390015,4.914978
			c-1.5169983,0.506012-3.0090027,1.0469971-4.473999,1.6230164c4.8729858,1.9679871,9.4349976,4.3169861,13.6529846,6.9719849
			c0.3120117-1.0839844,0.5800171-2.1869812,0.8040161-3.3059998C99.4630127,68.7805023,96.3130188,67.486496,93.0550232,66.3654938
			"/>
		<path class="st0" d="M41.8529968,109.9944916l0.5769958-1.6079712l0.1439819,0.0559998
			c-0.0859985,0.4259949-0.0440063,0.8119812,0.1280212,1.1579895c0.1729736,0.3469849,0.4129944,0.5799866,0.7229919,0.7000122
			c0.2389832,0.0929871,0.4539795,0.1029968,0.6419983,0.0289917c0.1900024-0.0750122,0.3160095-0.1950073,0.3809814-0.3619995
			c0.0410156-0.1040039,0.052002-0.2090149,0.0350037-0.3110046c-0.026001-0.1360168-0.09198-0.2870178-0.2009888-0.45401
			c-0.0799866-0.1210022-0.2810059-0.3559875-0.6040039-0.7080078c-0.4519958-0.4919739-0.7279968-0.8979797-0.8280029-1.2179871
			c-0.0969849-0.3190002-0.0859985-0.6350098,0.0360107-0.9500122c0.1539917-0.3999939,0.4429932-0.6829834,0.8639832-0.8499756
			c0.4230042-0.1670227,0.8730164-0.15802,1.3510132,0.0279846c0.1499939,0.0570068,0.2860107,0.1270142,0.4079895,0.2099915
			c0.1220093,0.0830078,0.2669983,0.2050171,0.4360046,0.3680115c0.0950012,0.0910034,0.178009,0.1499939,0.25,0.178009
			c0.0620117,0.0239868,0.1350098,0.026001,0.2210083,0.0050049c0.0870056-0.0200195,0.1690063-0.0710144,0.2489929-0.151001
			l0.1300049,0.0509949l-0.696991,1.8039856l-0.131012-0.0499878c0.0929871-0.5480042,0.0440063-1.0119934-0.1470032-1.3930054
			s-0.4570007-0.6369934-0.7969971-0.7690125c-0.2630005-0.1019897-0.4989929-0.1119995-0.7109985-0.0289917
			c-0.2109985,0.0830078-0.3540039,0.2189941-0.427002,0.4100037c-0.0440063,0.1119995-0.0559998,0.2330017-0.0369873,0.3619995
			c0.0189819,0.1289978,0.0709839,0.2650146,0.1559753,0.4079895c0.085022,0.1420288,0.2530212,0.3500061,0.5030212,0.6230164
			c0.3519897,0.3819885,0.5929871,0.6849976,0.7250061,0.9089966c0.1309814,0.223999,0.2129822,0.4490051,0.242981,0.6740112
			c0.0310059,0.2249756,0.0030212,0.4499817-0.0839844,0.6730042c-0.1470032,0.3799744-0.4120178,0.6499939-0.7940063,0.8099976
			c-0.3829956,0.1589966-0.7860107,0.1559753-1.2109985-0.0080261c-0.1549988-0.0599976-0.2969971-0.1369934-0.428009-0.2309875
			c-0.1000061-0.0709839-0.2139893-0.1749878-0.3420105-0.3120117c-0.1289978-0.1389771-0.2249756-0.2200012-0.2889709-0.2449951
			c-0.0600281-0.0229797-0.1160278-0.0229797-0.1650085,0.0010071c-0.0500183,0.0239868-0.1180115,0.1010132-0.2030029,0.2330017
			L41.8529968,109.9944916z"/>
		<path class="st0" d="M36.1199951,107.1894989l0.8119812-1.5799866l0.131012,0.0679932
			c-0.1140137,0.4630127-0.0920105,0.8730164,0.0629883,1.2310181c0.1549988,0.3589783,0.4030151,0.625,0.7430115,0.8009949
			c0.2839966,0.1459961,0.5859985,0.1990051,0.9069824,0.1579895c0.3220215-0.0409851,0.6040039-0.1659851,0.8500061-0.3739929
			c0.3150024-0.2659912,0.57901-0.6059875,0.7919922-1.019989c0.210022-0.40802,0.348999-0.8059998,0.4179993-1.1940002
			c0.0700073-0.3880005,0.0390015-0.7250061-0.09198-1.0090027c-0.131012-0.2839966-0.3710022-0.5169983-0.7200012-0.6970215
			c-0.2870178-0.1479797-0.5800171-0.2200012-0.8829956-0.21698c-0.302002,0.0019836-0.6650085,0.0889893-1.0870056,0.2599792
			l0.2019958-0.3939819c0.3930054-0.1350098,0.7569885-0.1910095,1.0950012-0.1679993
			c0.3379822,0.0220032,0.6910095,0.1289978,1.0610046,0.3190002c0.4839783,0.2510071,0.8649902,0.5709839,1.1419983,0.9599915
			c0.2770081,0.3900146,0.4230042,0.8200073,0.4400024,1.2910156c0.0169983,0.4700012-0.0809937,0.9119873-0.2920227,1.3239746
			c-0.223999,0.434021-0.5499878,0.7880249-0.9769897,1.0620117c-0.427002,0.2720032-0.8890076,0.4160156-1.3850098,0.4330139
			c-0.4959717,0.0149841-0.9609985-0.0880127-1.394989-0.3120117c-0.3200073-0.1660156-0.6220093-0.4089966-0.9060059-0.7309875
			c-0.1640015-0.1880188-0.2739868-0.2950134-0.3299866-0.3240051c-0.071991-0.0370178-0.1480103-0.0429993-0.2269897-0.0169983
			c-0.0800171,0.026001-0.1560059,0.0910034-0.2310181,0.196991L36.1199951,107.1894989z"/>
		<path class="st0" d="M35.70401,100.8715057l0.0749817-0.117981l2.256012,1.4419861l-0.0760193,0.1180115l-0.1429749-0.0929871
			c-0.125-0.07901-0.2400208-0.1210022-0.3450012-0.125c-0.0740051-0.0050049-0.1490173,0.0189819-0.223999,0.071991
			c-0.0559998,0.0359802-0.1530151,0.1619873-0.2910156,0.3789978l-1.8089905,2.8429871
			c-0.1410217,0.2210083-0.2170105,0.3670044-0.2290039,0.4370117c-0.0119934,0.0709839,0.0050049,0.1480103,0.0489807,0.2349854
			c0.0450134,0.0870056,0.1280212,0.1690063,0.2480164,0.2470093l0.1440125,0.0910034l-0.0750122,0.1180115l-2.2550049-1.4410095
			l0.0740051-0.1180115l0.1440125,0.0910034c0.125,0.0800171,0.2399902,0.1230164,0.3439941,0.1270142
			c0.0749817,0.0050049,0.1499939-0.0180054,0.2279968-0.0700073c0.0559998-0.0369873,0.1529846-0.1629944,0.2909851-0.3800049
			l1.809021-2.8420105c0.1409912-0.2219849,0.21698-0.367981,0.2269897-0.4389954
			c0.0109863-0.0699768-0.006012-0.1499939-0.0499878-0.2359924c-0.0450134-0.0870056-0.1280212-0.1690063-0.2490234-0.2460022
			L35.70401,100.8715057z"/>
		<path class="st0" d="M30.9970093,103.2454987l1.2679749-1.6559753l-0.0809937-0.0630188
			c-0.2569885-0.196991-0.5059814-0.2590027-0.7460022-0.1869812c-0.2389832,0.0740051-0.4960022,0.2550049-0.769989,0.5469971
			l-0.1140137-0.0880127l1.631012-2.1289978l0.1139832,0.0870056c-0.1539917,0.2510071-0.2489929,0.4790039-0.2859802,0.6870117
			c-0.0360107,0.2059937-0.0230103,0.375,0.0400085,0.5039978c0.0619812,0.1289978,0.190979,0.2679749,0.3839722,0.4169922
			l0.8780212-1.144989c0.1719971-0.2250061,0.2669983-0.3690186,0.2859802-0.434021
			c0.0200195-0.0639954,0.0150146-0.1319885-0.0119934-0.2039795c-0.0270081-0.0720215-0.098999-0.1530151-0.2139893-0.2420044
			l-0.2430115-0.1860046c-0.3789978-0.2919922-0.75-0.4370117-1.1139832-0.4370117
			c-0.3630066,0-0.7320251,0.1419983-1.1080017,0.4250183l-0.1110229-0.085022l1.1730042-1.1519775l3.5090027,2.696991
			l-0.0859985,0.1119995l-0.1340027-0.1040039c-0.117981-0.0899963-0.2290039-0.1419983-0.3329773-0.1560059
			c-0.0740051-0.0109863-0.1500244,0.006012-0.230011,0.052002c-0.0589905,0.0310059-0.1660156,0.1490173-0.321991,0.3529968
			l-2.0500183,2.6759949c-0.1409912,0.1830139-0.2219849,0.3000183-0.2449951,0.3500061
			c-0.0329895,0.085022-0.0369873,0.1679993-0.0130005,0.2470093c0.0329895,0.1149902,0.1149902,0.2219849,0.2470093,0.322998
			l0.1349792,0.105011l-0.0849915,0.1099854l-3.3980103-2.6130066l0.9220276-1.2030029l0.1139832,0.0880127
			c-0.1679993,0.3380127-0.2479858,0.6119995-0.2409973,0.8200073c0.0069885,0.2089844,0.0830078,0.4169922,0.2290039,0.6239929
			c0.0839844,0.1220093,0.2799988,0.3009949,0.5870056,0.5369873L30.9970093,103.2454987z"/>
		<path class="st0" d="M26.5639954,99.9015045l0.3919983-4.0439758l-1.5299988,1.5839844
			c-0.2130127,0.2210083-0.3250122,0.401001-0.3370056,0.5410156c-0.0150146,0.1889954,0.0809937,0.3809814,0.2890015,0.5749817
			l-0.0970154,0.1010132l-1.2139893-1.178009l0.0969849-0.1009827c0.1740112,0.1309814,0.3040161,0.2059937,0.3880005,0.2269897
			c0.0830078,0.0190125,0.1750183,0.0090027,0.2730103-0.0339966c0.1000061-0.0429993,0.2330017-0.151001,0.401001-0.3250122
			l2.9609985-3.0679932l0.0929871,0.0899963l-0.4759827,5.4769897l2.2619934-2.3409729
			c0.20401-0.2130127,0.2940063-0.4020081,0.2690125-0.5710144c-0.0250244-0.1669922-0.1000061-0.3120117-0.2250061-0.4330139
			l-0.0870056-0.0839844l0.0979919-0.1000061l1.303009,1.2640076l-0.0970154,0.1000061
			c-0.2039795-0.1940002-0.3849792-0.2890015-0.5429993-0.2850037c-0.1579895,0.0050049-0.3320007,0.1049805-0.5209961,0.2999878
			l-2.5099792,2.6010132l-0.0160217,0.1739807c-0.0169983,0.1730042-0.0099792,0.3040161,0.0200195,0.3920288
			c0.0299988,0.0889893,0.098999,0.1899719,0.2079773,0.3009949l-0.0969849,0.1009827L26.5639954,99.9015045z"/>
		<path class="st0" d="M20.4490051,93.1324921l1.0699768-0.8809814l0.0859985,0.1059875
			c-0.1959839,0.2650146-0.315979,0.480011-0.3619995,0.6450195c-0.04599,0.1640015-0.04599,0.3389893-0.0009766,0.5239868
			c0.0249939,0.1029968,0.1139832,0.2470093,0.2649841,0.4320068l0.2420044,0.2949829l3.0480042-2.5089722
			c0.2019958-0.1670227,0.3190002-0.2810059,0.3509827-0.3450012c0.03302-0.0640259,0.0410156-0.1450195,0.0250244-0.2410278
			c-0.0150146-0.0969849-0.0700073-0.2009888-0.1620178-0.3139954l-0.1080017-0.1319885l0.1080017-0.0880127l1.7000122,2.072998
			l-0.1080017,0.0890198l-0.1080017-0.132019c-0.0939941-0.1149902-0.1900024-0.1900024-0.2879944-0.2269897
			c-0.0690002-0.0279846-0.1490173-0.0299988-0.2380066-0.0050049c-0.0650024,0.0180054-0.1960144,0.1080017-0.3940125,0.2709961
			l-3.0480042,2.5090027l0.2340088,0.2860107c0.2189941,0.2669983,0.4339905,0.4140015,0.6459961,0.4419861
			c0.2960205,0.0400085,0.6080017-0.0369873,0.9360046-0.2330017l0.0920105,0.1119995l-1.0700073,0.8800049L20.4490051,93.1324921z"
			/>
		<path class="st0" d="M22.5469971,87.3775177l0.1149902-0.0789795l1.5119934,2.2109985l-0.1149902,0.07901l-0.0960083-0.1410217
			c-0.0840149-0.1219788-0.1730042-0.2059937-0.2680054-0.2510071c-0.0660095-0.0339966-0.1439819-0.0409851-0.2340088-0.0219727
			c-0.065979,0.0119934-0.2039795,0.0899963-0.4159851,0.2349854l-2.7749939,1.9070129
			c-0.2160034,0.1489868-0.3430176,0.2519836-0.382019,0.3119812c-0.0379944,0.0599976-0.0539856,0.1390076-0.04599,0.2360229
			c0.0069885,0.0969849,0.0509949,0.2049866,0.1319885,0.3239746l0.0960083,0.1400146l-0.1149902,0.07901l-1.5119934-2.2110291
			l0.1149902-0.0779724l0.0960083,0.1389771c0.0839844,0.1230164,0.1719971,0.2080078,0.2680054,0.2520142
			c0.0649719,0.0339966,0.144989,0.0419922,0.2369995,0.0249939c0.0649719-0.0109863,0.2029724-0.0889893,0.414978-0.2349854
			l2.776001-1.9060059c0.2149963-0.1480103,0.3420105-0.2530212,0.3800049-0.3139954
			c0.0369873-0.0610046,0.052002-0.1400146,0.0450134-0.2369995c-0.007019-0.0980225-0.0510254-0.2060242-0.132019-0.3250122
			L22.5469971,87.3775177z"/>
		<path class="st0" d="M19.4879761,85.3235321l-1.1669922,1.5269775l1.9210205-0.1739807L19.4879761,85.3235321z
			 M19.6690063,85.0745087l0.8809814,1.5820007l0.5390015-0.0559998C21.2680054,86.5815277,21.4060059,86.545517,21.5,86.4925385
			c0.125-0.0690002,0.1889954-0.1720276,0.1919861-0.3059998c0.0020142-0.07901-0.053009-0.2400208-0.1650085-0.4840088
			l0.1220093-0.0670166l0.82901,1.4880066l-0.1220093,0.0690002c-0.1139832-0.1480103-0.2539978-0.2430115-0.4199829-0.2860107
			c-0.1660156-0.0419922-0.4620056-0.0439758-0.8870239-0.0059814l-4.4559937,0.3919983l-0.0350037-0.0620117l2.7640076-3.6640015
			c0.2609863-0.3479919,0.4089966-0.5959778,0.4440002-0.7460022c0.0270081-0.1129761,0.0069885-0.2399902-0.0580139-0.3819885
			l0.1220093-0.0690002l1.2070007,2.1660156l-0.1220093,0.0679932l-0.0499878-0.0890198
			c-0.0969849-0.1739807-0.1889954-0.2829895-0.2770081-0.3259888c-0.0619812-0.0289917-0.1259766-0.0249939-0.1919861,0.0119934
			c-0.0400085,0.0220032-0.0760193,0.0509949-0.1109924,0.0880127c-0.0169983,0.0149841-0.0810242,0.0950012-0.1920166,0.2369995
			L19.6690063,85.0745087z"/>
		<path class="st0" d="M13.9110107,80.6504974l1.947998-0.7379761l-0.0360107-0.0950012
			c-0.1140137-0.3049927-0.2929993-0.4890137-0.5350037-0.5540161c-0.2420044-0.0639954-0.5559998-0.0449829-0.9419861,0.0580139
			l-0.0510254-0.1340027l2.506012-0.9490051l0.0499878,0.1340027c-0.2619934,0.1319885-0.4629822,0.2770081-0.6029968,0.4330139
			c-0.1399841,0.1569824-0.21698,0.3059998-0.2319946,0.4489746c-0.0140076,0.1440125,0.0220032,0.3300171,0.1080017,0.5580139
			l1.3479919-0.5110168c0.2640076-0.0999756,0.4210205-0.1719971,0.4710083-0.21698
			c0.0499878-0.0440063,0.0830078-0.1040039,0.0970154-0.1799927c0.0149841-0.0750122-0.0039978-0.1809998-0.0550232-0.3180237
			l-0.1080017-0.2869873c-0.1689758-0.447998-0.4079895-0.7680054-0.71698-0.9599915
			c-0.309021-0.1910095-0.6970215-0.2650146-1.1660156-0.2220154l-0.0489807-0.1319885l1.6029968-0.3600159l1.5629883,4.1450195
			l-0.131012,0.0499878l-0.0599976-0.1600037c-0.052002-0.1390076-0.118988-0.2409973-0.1999817-0.3070068
			c-0.0559998-0.0489807-0.131012-0.0749817-0.2229919-0.0769958c-0.0660095-0.0059814-0.2190247,0.0379944-0.4590149,0.1289978
			l-3.1489868,1.1930237c-0.2160034,0.0809937-0.3470154,0.1380005-0.3919983,0.1679993
			c-0.0730286,0.0549927-0.1210022,0.1219788-0.1410217,0.2029724c-0.0319824,0.1150208-0.0180054,0.2490234,0.0400085,0.4050293
			l0.0599976,0.1589966l-0.131012,0.0499878l-1.5139771-4.0140076l1.4159851-0.5369873l0.0500183,0.1350098
			c-0.3200073,0.1989746-0.5320129,0.3889771-0.6360168,0.5699768s-0.1480103,0.3990173-0.1329956,0.651001
			c0.0069885,0.1480103,0.07901,0.4040222,0.2160034,0.7669983L13.9110107,80.6504974z"/>
		<path class="st0" d="M11.177002,72.6154938l1.34198-0.3439941l0.0339966,0.132019
			c-0.289978,0.1579895-0.4899902,0.3009949-0.6009827,0.4309998c-0.1119995,0.1300049-0.1860046,0.2879944-0.223999,0.4749756
			c-0.0200195,0.1040039,0,0.2720032,0.0579834,0.5040283l0.0950012,0.3699951l3.8240051-0.9790039
			c0.2529907-0.0660095,0.4079895-0.1199951,0.4639893-0.1650085c0.0559998-0.0440063,0.0970154-0.1130066,0.1240234-0.2070007
			c0.0269775-0.0939941,0.0219727-0.2120056-0.0140076-0.3529968l-0.0419922-0.1650085l0.1349792-0.0350037l0.6640015,2.6010132
			l-0.1359863,0.0350037l-0.0419922-0.1650085c-0.0360107-0.1439819-0.0910034-0.2529907-0.1650085-0.3280029
			c-0.0500183-0.0549927-0.1220093-0.0899963-0.2140198-0.1049805c-0.0649719-0.0130005-0.2219849,0.0130005-0.4709778,0.0769958
			l-3.822998,0.9799805l0.0910034,0.3580017c0.0859985,0.335022,0.2179871,0.5599976,0.3979797,0.6750183
			c0.2520142,0.1619873,0.5670166,0.2250061,0.947998,0.1869812l0.0350037,0.1390076l-1.3410034,0.3439941L11.177002,72.6154938z"/>
		<path class="st0" d="M10.1790161,65.111496l1.3769836-0.1439819l0.0140076,0.1350098
			c-0.309021,0.1139832-0.5280151,0.2269897-0.6570129,0.3379822c-0.1279907,0.1130066-0.2250061,0.2590027-0.2900085,0.4380188
			c-0.0349731,0.0999756-0.039978,0.2689819-0.0149841,0.5069885l0.0400085,0.3789978l3.9239807-0.4100037
			c0.2610168-0.0270081,0.4210205-0.0589905,0.4840088-0.0950012c0.0620117-0.0350037,0.1119995-0.0969849,0.1520081-0.1869812
			c0.039978-0.0880127,0.0529785-0.2060242,0.0379944-0.3520203l-0.0180054-0.1690063l0.1380005-0.0139771l0.2789917,2.6689758
			l-0.1380005,0.0150146l-0.0179749-0.1690063c-0.0150146-0.1479797-0.0540161-0.2649841-0.1160278-0.348999
			c-0.0419922-0.0610046-0.1069946-0.1069946-0.1959839-0.1350098c-0.0629883-0.0219727-0.2220154-0.0189819-0.4769897,0.007019
			l-3.9250183,0.4109802l0.0390015,0.3700256c0.0360107,0.34198,0.1340027,0.5849915,0.2950134,0.7249756
			c0.2259827,0.1970215,0.5289917,0.3040161,0.9100037,0.3220215l0.0149841,0.1430054l-1.3769836,0.1439819L10.1790161,65.111496z"
			/>
		<path class="st0" d="M10.4230042,62.1064911l2.0819702,0.0340271l0.0010071-0.1020203
			c0.006012-0.3249817-0.0929871-0.5619812-0.2929993-0.7120056c-0.2019958-0.1499939-0.5010071-0.2469788-0.8979797-0.2939758
			l0.0029907-0.1440125l2.678009,0.0440063l-0.0030212,0.1430054c-0.2919922,0.026001-0.5319824,0.0849915-0.7189941,0.1789856
			c-0.1879883,0.0950012-0.3150024,0.2050171-0.381012,0.3320007c-0.065979,0.1279907-0.1009827,0.3139954-0.1049805,0.5580139
			l1.4400024,0.0239868c0.2819824,0.0039978,0.4539795-0.0050049,0.5169983-0.0270081
			c0.0639954-0.0239868,0.1159973-0.0669861,0.1569824-0.1319885c0.0420227-0.0650024,0.0640259-0.17099,0.0660095-0.3169861
			l0.0050049-0.3059998c0.0069885-0.4780273-0.0970154-0.8640137-0.3139954-1.1560059
			c-0.2160034-0.2929993-0.5490112-0.5050049-1-0.6380005l0.0019836-0.1410217l1.6220093,0.257019l-0.071991,4.4309998
			l-0.1390076-0.0029907l0.0019836-0.1700134c0.0030212-0.1489868-0.0219727-0.2690125-0.072998-0.3600159
			c-0.0339966-0.0669861-0.0939941-0.117981-0.1789856-0.1539917c-0.0589905-0.0289917-0.2179871-0.04599-0.473999-0.0489807
			l-3.3640137-0.0550232c-0.2309875-0.0039978-0.3739929,0-0.427002,0.0120239
			c-0.0879822,0.0239868-0.1569824,0.0690002-0.2059937,0.1359863c-0.0709839,0.0950012-0.1090088,0.2250061-0.1119995,0.3909912
			l-0.0029907,0.1710205l-0.1390076-0.0020142l0.0690002-4.2900085l1.5119934,0.0240173L11.677002,59.934494
			c-0.3710022,0.0670166-0.6390076,0.1650085-0.8010254,0.2950134c-0.1629944,0.1289978-0.2849731,0.3139954-0.3639832,0.5549927
			c-0.0480042,0.1409912-0.0740051,0.4049988-0.0809937,0.7929993L10.4230042,62.1064911z"/>
		<path class="st0" d="M10.6809998,53.3725128l1.7539978,0.210022l-0.0169983,0.1470032
			c-0.4710083,0.0549927-0.8460083,0.2179871-1.1260071,0.4899902c-0.2790222,0.2709961-0.4410095,0.5969849-0.4859924,0.9769897
			c-0.0380249,0.3180237,0.0189819,0.6210022,0.1689758,0.90802c0.1499939,0.2869873,0.3650208,0.5090027,0.6440125,0.6669922
			c0.3569946,0.2030029,0.7659912,0.3309937,1.2269897,0.3869934c0.4519958,0.0540161,0.8720093,0.0450134,1.257019-0.0249939
			c0.3859863-0.0700073,0.6889954-0.2170105,0.9079895-0.4400024c0.2189941-0.2219849,0.3519897-0.5289917,0.3989868-0.9190063
			c0.0370178-0.3209839,0.0020142-0.6229858-0.1059875-0.9060059c-0.1069946-0.2829895-0.3139954-0.5929871-0.6210022-0.9289856
			l0.4370117,0.052002c0.2630005,0.3209839,0.4419861,0.6439819,0.5390015,0.9689941
			c0.0959778,0.3250122,0.1199951,0.6940002,0.0709839,1.1069946c-0.0639954,0.5429993-0.2290039,1.0130005-0.4960022,1.4089966
			c-0.2659912,0.3950195-0.6149902,0.684021-1.0480042,0.8640137c-0.4329834,0.1809998-0.8779907,0.243988-1.3359985,0.1889954
			c-0.4830017-0.0570068-0.9259949-0.2399902-1.3289795-0.5449829c-0.4030151-0.3059998-0.6990051-0.6890259-0.8860168-1.1500244
			c-0.1879883-0.4599915-0.2529907-0.9329834-0.1959839-1.4189758c0.0429993-0.3580017,0.1640015-0.7270203,0.3659973-1.1060181
			c0.1170044-0.2200012,0.1789856-0.3599854,0.1860046-0.4240112c0.0099792-0.0789795-0.0110168-0.1519775-0.0630188-0.2179871
			c-0.0509949-0.0669861-0.1390076-0.1149902-0.2640076-0.1480103L10.6809998,53.3725128z"/>
		<path class="st0" d="M14.0150146,50.9195099l1.5379944,0.382019c0.2539978,0.0629883,0.4159851,0.0879822,0.4869995,0.0749817
			c0.0699768-0.0119934,0.1389771-0.0529785,0.2070007-0.1229858c0.0679932-0.0700073,0.118988-0.1749878,0.1539917-0.3150024
			l0.0400085-0.1650085l0.1359863,0.0339966l-0.6430054,2.6020203l-0.1349792-0.03302l0.039978-0.164978
			c0.0360107-0.1450195,0.0390015-0.2680054,0.0100098-0.3680115c-0.0190125-0.072998-0.0650024-0.1359863-0.1400146-0.1910095
			c-0.0519714-0.0409851-0.2019958-0.0929871-0.4519958-0.1549988l-3.2669983-0.8099976
			c-0.2539978-0.0629883-0.4159851-0.0889893-0.4859924-0.0780029c-0.0700073,0.0110168-0.1390076,0.052002-0.2070007,0.1220093
			s-0.118988,0.1750183-0.1529846,0.3139954l-0.0410156,0.1660156l-0.1359863-0.0339966l0.6429749-2.6020203l0.1360168,0.03302
			l-0.0410156,0.164978c-0.0359802,0.1450195-0.0390015,0.2669983-0.0089722,0.3680115
			c0.0179749,0.071991,0.0639954,0.1369934,0.13797,0.1940002c0.052002,0.0419922,0.2030029,0.0939941,0.4520264,0.1549988
			l1.4069824,0.348999l0.434021-1.7590027l-1.4070129-0.3479919c-0.2539978-0.0630188-0.4160156-0.0889893-0.4859924-0.0780029
			c-0.0700073,0.0109863-0.1390076,0.053009-0.2070007,0.1239929c-0.0680237,0.0710144-0.1199951,0.177002-0.1540222,0.3160095
			l-0.039978,0.1619873l-0.1360168-0.0339966l0.6419983-2.598999l0.1360168,0.0339966l-0.0400085,0.1610107
			c-0.0360107,0.1470032-0.0400085,0.269989-0.0090027,0.3680115c0.0180054,0.071991,0.0639954,0.1369934,0.1380005,0.1940002
			c0.052002,0.0419922,0.2030029,0.0929871,0.4519958,0.1559753l3.2669983,0.8099976
			c0.2539978,0.0630188,0.4160156,0.0890198,0.4860229,0.0770264c0.0699768-0.0100098,0.1399841-0.052002,0.2079773-0.1230164
			c0.0680237-0.0709839,0.1190186-0.177002,0.1530151-0.3169861l0.0400085-0.1610107l0.1359863,0.0329895l-0.6419983,2.598999
			l-0.1350098-0.0329895l0.0390015-0.1619873c0.0370178-0.1470032,0.0400085-0.2690125,0.0100098-0.3680115
			c-0.0190125-0.071991-0.0650024-0.1359863-0.1390076-0.1940002c-0.052002-0.0409851-0.2019958-0.0929871-0.4509888-0.1549988
			l-1.5390015-0.381012L14.0150146,50.9195099z"/>
		<path class="st0" d="M13.2730103,44.0805206l3.8669739-1.2179871l-2.052002-0.7909851
			c-0.2859802-0.1110229-0.4960022-0.1440125-0.6279907-0.1010132c-0.1799927,0.0610046-0.3190002,0.2250061-0.4159851,0.4909973
			l-0.1300049-0.0490112l0.6069946-1.5799866l0.1300049,0.0499878c-0.0509949,0.2120056-0.0700073,0.3610229-0.0559998,0.4460144
			s0.0610046,0.1650085,0.1380005,0.2399902c0.0780029,0.0740051,0.2299805,0.1549988,0.4549866,0.2409973l3.973999,1.5339966
			l-0.04599,0.1200256l-5.2160034,1.7009888l3.0329895,1.1700134c0.2750244,0.1069946,0.4840088,0.1149902,0.6289978,0.026001
			c0.1440125-0.0880127,0.2480164-0.2130127,0.3100281-0.3760071l0.0429993-0.1130066L18.04599,45.921524l-0.6520081,1.6970215
			l-0.1309814-0.0509949c0.098999-0.2640076,0.1159973-0.4680176,0.0499878-0.61203
			c-0.065979-0.1439819-0.2250061-0.2649841-0.4790039-0.3629761l-3.367981-1.2990112l-0.1660156,0.053009
			c-0.1659851,0.052002-0.2839966,0.1099854-0.3529968,0.1719971c-0.0700073,0.0619812-0.1350098,0.1650085-0.1950073,0.3089905
			l-0.1309814-0.0499878L13.2730103,44.0805206z"/>
		<path class="st0" d="M20.5500183,39.9134979l0.125,0.0620117l-1.1880188,2.4030151l-0.125-0.0630188l0.0750122-0.1520081
			c0.065979-0.1329956,0.0959778-0.2529907,0.0879822-0.3569946c-0.0019836-0.0740051-0.0339966-0.1459961-0.0950012-0.2160034
			c-0.0409851-0.052002-0.1779785-0.1349792-0.4069824-0.2489929l-3.0169983-1.4979858
			c-0.2340088-0.1159973-0.3860168-0.1759949-0.4570007-0.1809998c-0.0710144-0.0039978-0.1470032,0.0209961-0.2290039,0.0749817
			c-0.0809937,0.0540161-0.1539917,0.1450195-0.2180176,0.2740173l-0.0749817,0.1519775l-0.125-0.0619812l1.1879883-2.4030151
			l0.125,0.0630188l-0.0749817,0.1519775c-0.0660095,0.1340027-0.0960083,0.2520142-0.0880127,0.3570251
			c0.0020142,0.0749817,0.0329895,0.1479797,0.0929871,0.2200012c0.0420227,0.052002,0.178009,0.1349792,0.40802,0.2489929
			l3.0149841,1.4970093c0.2350159,0.1169739,0.3880005,0.1769714,0.4590149,0.1799927
			c0.071991,0.0029907,0.1489868-0.0230103,0.2299805-0.0760193c0.0810242-0.0549927,0.1540222-0.144989,0.2180176-0.2749939
			L20.5500183,39.9134979z"/>
		<path class="st0" d="M18.9500122,32.6345062l1.5109863,0.9320068l-0.0780029,0.125
			c-0.4519958-0.1479797-0.8619995-0.1589966-1.230011-0.0310059c-0.367981,0.1280212-0.6529846,0.355011-0.8539734,0.6809998
			c-0.1670227,0.2730103-0.2420044,0.5720215-0.2260132,0.8960266c0.0169983,0.3239746,0.118988,0.6159973,0.3070068,0.8779907
			c0.2399902,0.3339844,0.5589905,0.6239929,0.9549866,0.868988c0.3900146,0.2409973,0.7749939,0.4100037,1.1560059,0.5090027
			s0.7179871,0.0939941,1.0109863-0.0159912c0.2929993-0.1090088,0.5429993-0.3300171,0.7490234-0.6660156
			c0.1689758-0.2739868,0.2630005-0.5629883,0.2839966-0.8659973c0.019989-0.302002-0.0379944-0.67099-0.1759949-1.1049805
			l0.3759766,0.2319946c0.105011,0.4020081,0.132019,0.7709961,0.0840149,1.1059875
			c-0.0480042,0.3359985-0.1820068,0.6820068-0.3990173,1.0360107c-0.2869873,0.4649963-0.6339722,0.821991-1.0419922,1.0679932
			c-0.4089966,0.2470093-0.8479919,0.3609924-1.3179932,0.3420105c-0.4700012-0.0190125-0.9020081-0.1499939-1.29599-0.3940125
			c-0.4160156-0.2569885-0.7430115-0.6080017-0.9820251-1.0570068c-0.2389832-0.446991-0.3469849-0.9199829-0.3249817-1.4169922
			s0.1610107-0.9539795,0.4159851-1.3710022c0.1890259-0.3059998,0.4550171-0.5889893,0.7980042-0.848999
			c0.197998-0.1499939,0.3139954-0.2510071,0.3470154-0.3059998c0.0419922-0.0679932,0.0529785-0.1430054,0.0339966-0.2250061
			c-0.0190125-0.0809937-0.07901-0.1629944-0.1790161-0.2460022L18.9500122,32.6345062z"/>
		<path class="st0" d="M24.1860046,31.5254974l-1.8529968-0.5l0.8919983,1.7130127L24.1860046,31.5254974z M24.4850159,31.5984955
			l-1.1230164,1.4180298l0.256012,0.4789734c0.0859985,0.15802,0.1719971,0.2710266,0.2559814,0.3390198
			c0.1119995,0.0889893,0.2310181,0.1089783,0.3560181,0.0610046c0.0739746-0.0280151,0.2019958-0.1410217,0.3829956-0.3370056
			l0.1090088,0.0870056l-1.0570068,1.3339844l-0.1090088-0.0870056c0.0920105-0.1609802,0.1260071-0.3259888,0.1019897-0.4969788
			c-0.0239868-0.1700134-0.1349792-0.4450073-0.3320007-0.8240051l-2.0589905-3.9770203l0.0450134-0.0559998l4.4299927,1.1640015
			c0.42099,0.1100159,0.7070007,0.1520081,0.8580017,0.1280212c0.1139832-0.0180054,0.223999-0.0859985,0.3309937-0.2000122
			l0.1100159,0.0870056l-1.5380249,1.9419861l-0.1089783-0.0869751l0.0629883-0.0800171
			c0.1229858-0.1560059,0.1889954-0.2829895,0.1950073-0.3800049c0.0029907-0.0690002-0.0249939-0.1260071-0.0840149-0.1730042
			c-0.0350037-0.0289917-0.0769958-0.052002-0.1229858-0.0699768c-0.0220032-0.0100098-0.1190186-0.0390015-0.2919922-0.0870056
			L24.4850159,31.5984955z"/>
		<path class="st0" d="M26.3450012,24.6005096l1.519989,1.6090088c0.0640259-0.0539856,0.1110229-0.0950012,0.1419983-0.125
			c0.2230225-0.2109985,0.3320007-0.4410095,0.3270264-0.6869812c-0.0050049-0.2470093-0.1380005-0.5100098-0.4020081-0.7880249
			c-0.2610168-0.276001-0.5119934-0.42099-0.7529907-0.4349976c-0.2420044-0.0130005-0.4820251,0.0930176-0.7220154,0.3200073
			L26.3450012,24.6005096z M28.0670166,26.4235077l0.9759827,1.0310059c0.1900024,0.2019958,0.321991,0.3170166,0.3959961,0.3460083
			s0.1570129,0.0289917,0.2489929,0c0.0930176-0.0289917,0.2230225-0.1229858,0.3910217-0.2820129l0.0959778,0.1010132
			l-1.8869934,1.7910156l-0.0959778-0.1020203c0.17099-0.1619873,0.2729797-0.2890015,0.3039856-0.3789978
			c0.0299988-0.0899963,0.0339966-0.1719971,0.0109863-0.2470093c-0.0239868-0.0749817-0.1319885-0.2119751-0.3209839-0.4140015
			l-2.2829895-2.414978c-0.1900024-0.2010193-0.3220215-0.3160095-0.3960266-0.3450012
			c-0.0739746-0.0289917-0.1569824-0.0289917-0.2479858-0.0010071c-0.0920105,0.0280151-0.2220154,0.1220093-0.3919983,0.2829895
			l-0.0960083-0.1009827l1.6180115-1.5370178c0.5329895-0.5049744,1.0059814-0.7729797,1.4179993-0.802948
			c0.4109802-0.0300293,0.7519836,0.0979614,1.0220032,0.3829956c0.2279968,0.2429504,0.3479919,0.5199585,0.3609924,0.8339539
			s-0.0820007,0.6270142-0.2860107,0.9389954C28.7680054,25.717514,28.4890137,26.0235138,28.0670166,26.4235077"/>
		<path class="st0" d="M30.2709961,21.1665192l1.3529968,1.7890015l0.1719971-0.1300049
			c0.2780151-0.2119751,0.4680176-0.3959961,0.5670166-0.552002c0.098999-0.1559448,0.1380005-0.3319702,0.1159973-0.5249634
			c-0.0220032-0.1940308-0.1140137-0.3970337-0.276001-0.6119995c-0.2359924-0.3120117-0.4830017-0.4869995-0.7400208-0.5250244
			c-0.2579956-0.0379639-0.5479736,0.0650024-0.8699951,0.3110352L30.2709961,21.1665192z M31.7860107,23.1695099
			l0.8659973,1.1440125c0.1669922,0.2210083,0.2859802,0.3500061,0.3559875,0.3869934
			c0.0700073,0.0360107,0.1530151,0.0460205,0.2470093,0.0280151s0.2339783-0.0970154,0.4199829-0.2380066l0.085022,0.1109924
			l-2.0870056,1.585022l-0.0830078-0.1119995c0.1879883-0.1430054,0.303009-0.2580261,0.3429871-0.3440247
			c0.0400085-0.0859985,0.052002-0.1669922,0.0370178-0.243988c-0.0150146-0.0769958-0.1069946-0.2260132-0.2740173-0.446991
			l-2.0049744-2.6499939c-0.1670227-0.2210083-0.2860107-0.3499756-0.3560181-0.3859863
			c-0.0700073-0.0369873-0.1520081-0.0469971-0.2460022-0.0289917s-0.2340088,0.0979614-0.42099,0.2389526l-0.0840149-0.1119995
			l1.8940125-1.4379883c0.4920044-0.3739624,0.8789978-0.6140137,1.1589966-0.7199707
			c0.2799988-0.1050415,0.5620117-0.1210327,0.8450012-0.0460205C32.7649841,19.9715118,33,20.131546,33.1869812,20.3785553
			c0.2280273,0.3009644,0.3080139,0.6329956,0.2400208,0.9939575c-0.0440063,0.2290039-0.1660156,0.4700317-0.3680115,0.7200317
			l2.026001,0.6389771c0.2640076,0.0809937,0.4389954,0.1230469,0.526001,0.1260376
			c0.1300049,0,0.2510071-0.0380249,0.3630066-0.1140137l0.0849915,0.1110229l-1.2839966,0.9749451l-2.7210083-0.8629456
			L31.7860107,23.1695099z"/>
		<path class="st0" d="M36.1489868,17.1025543c-0.4049988,0.2329712-0.5929871,0.6159668-0.5650024,1.1489868
			c0.0250244,0.4370117,0.2220154,0.9719849,0.5900269,1.6040039c0.4369812,0.7509766,0.8929749,1.2310181,1.367981,1.4370117
			c0.3309937,0.1450195,0.6629944,0.1209717,0.9960022-0.0700073c0.223999-0.1300049,0.3800049-0.2919922,0.4670105-0.4860229
			c0.1109924-0.2489624,0.1309814-0.5570068,0.0610046-0.9229736c-0.0710144-0.3649902-0.2480164-0.7930298-0.53302-1.28302
			c-0.3389893-0.5819702-0.6479797-0.9869995-0.9239807-1.2130127c-0.2770081-0.2269897-0.5350037-0.3509521-0.7730103-0.3719482
			C36.5979919,16.9225616,36.368988,16.9755402,36.1489868,17.1025543 M35.9890137,16.9165192
			c0.6899719-0.4319458,1.3819885-0.5569458,2.0759888-0.3759766c0.6940002,0.1810303,1.2319946,0.598999,1.6119995,1.2529907
			c0.3259888,0.5580444,0.447998,1.1450195,0.3659973,1.7590332c-0.1080017,0.8139648-0.5589905,1.4500122-1.3529968,1.9069824
			c-0.7969971,0.4589844-1.5690002,0.5460205-2.3170166,0.2589722c-0.5909729-0.2259521-1.0559998-0.6299438-1.394989-1.2129517
			c-0.3800049-0.6539917-0.473999-1.3280029-0.2810059-2.0220337C34.8899841,17.789566,35.3209839,17.2665558,35.9890137,16.9165192
			"/>
		<path class="st0" d="M44.0910034,15.9865265l0.5499878,1.4890137c0.0899963,0.2449951,0.1600037,0.394043,0.2099915,0.4450073
			c0.0500183,0.052002,0.1230164,0.0859985,0.2189941,0.1030273c0.0960083,0.0169678,0.2109985,0,0.3460083-0.0499878
			l0.1589966-0.059021l0.0490112,0.1309814l-2.5090027,0.9299927l-0.0480042-0.1309814l0.1589966-0.059021
			c0.1390076-0.052002,0.2420044-0.117981,0.3089905-0.1999512c0.0490112-0.0550537,0.0750122-0.1290283,0.0780029-0.2220459
			c0.0050049-0.065979-0.0369873-0.2199707-0.1259766-0.4609985l-1.1660156-3.1619873
			c-0.0910034-0.2449951-0.1610107-0.3939819-0.2089844-0.4459839c-0.0490112-0.052002-0.1210022-0.0859985-0.2170105-0.1030273
			c-0.0960083-0.0169678-0.2120056,0-0.3460083,0.0499878l-0.1589966,0.059021l-0.0489807-0.1309814l2.5079956-0.9299927
			l0.0489807,0.1309814l-0.1600037,0.059021c-0.1389771,0.0509644-0.2419739,0.117981-0.3079834,0.1989746
			c-0.0490112,0.0560303-0.0769958,0.1309814-0.0830078,0.223999c-0.0050049,0.065979,0.0379944,0.2200317,0.1270142,0.4609985
			l0.5019836,1.3610229l1.6940002-0.6279907l-0.5019836-1.3610229c-0.0910034-0.2449951-0.1610107-0.3939819-0.2090149-0.4459839
			c-0.0490112-0.052002-0.1220093-0.0859985-0.2189941-0.1020508c-0.0970154-0.0169678-0.2130127,0-0.3479919,0.0500488
			l-0.1549988,0.0570068l-0.0480042-0.1310425l2.5039978-0.9279785l0.0480042,0.1309814l-0.1549988,0.0579834
			c-0.1419983,0.052002-0.2449951,0.118042-0.309021,0.1990356c-0.0489807,0.0559692-0.0769958,0.1300049-0.0820007,0.223999
			c-0.0049744,0.065979,0.0370178,0.2199707,0.1260071,0.460022l1.1660156,3.1619873
			c0.09198,0.2459717,0.1609802,0.3949585,0.2099915,0.4469604c0.0480042,0.0510254,0.1210022,0.0859985,0.2179871,0.1020508
			c0.0980225,0.0159912,0.2130127,0,0.3480225-0.0500488l0.1549988-0.0579834l0.0480042,0.1309814l-2.5030212,0.9280396
			l-0.0489807-0.1310425l0.1559753-0.0569458c0.1410217-0.0530396,0.2440186-0.1200562,0.3080139-0.1990356
			c0.0490112-0.0559692,0.0769958-0.1309814,0.0830078-0.223999c0.0050049-0.0670166-0.0380249-0.2199707-0.1260071-0.4619751
			l-0.5500183-1.4880371L44.0910034,15.9865265z"/>
		<path class="st0" d="M52.8009949,10.7105255l0.0319824,0.1360474c-0.1749878,0.0719604-0.3139954,0.2069702-0.4169922,0.4039917
			c-0.0750122,0.1469727-0.1600037,0.4710083-0.2579956,0.9719849l-0.8269958,4.2150269l-0.1210022,0.0279541l-2.632019-3.5669556
			c-0.3179932-0.4310303-0.519989-0.6790161-0.6099854-0.7470093c-0.0890198-0.06604-0.2330017-0.0889893-0.4320068-0.06604
			l-0.0310059-0.1359863l2.3869934-0.55896l0.0320129,0.1369629l-0.0809937,0.019043
			c-0.2160034,0.0499878-0.3560181,0.1119995-0.4219971,0.18396c-0.0480042,0.0499878-0.0630188,0.1099854-0.0469971,0.1820068
			c0.0109863,0.0440063,0.0329895,0.0939941,0.065979,0.1489868c0.0339966,0.0560303,0.1369934,0.2009888,0.3110046,0.4379883
			l1.6409912,2.2360229l0.4690247-2.4429932c0.0549927-0.2949829,0.0859985-0.4910278,0.0909729-0.5880127
			c0.006012-0.0969849,0.0020142-0.177002-0.0139771-0.2409668c-0.0169983-0.0740356-0.0509949-0.1340332-0.1040039-0.1810303
			s-0.1199951-0.0769653-0.2019958-0.0889893c-0.1159973-0.0170288-0.2590027-0.0050049-0.434021,0.0349731l-0.0319824-0.1359863
			L52.8009949,10.7105255z"/>
		<path class="st0" d="M57.5460205,13.5475006l1.0749817-3.492981l2.072998-0.190979l0.0130005,0.1400146l-0.1650085,0.0149536
			c-0.1499939,0.0140381-0.2679749,0.0510254-0.3539734,0.1119995c-0.059021,0.0410156-0.1040039,0.1040039-0.1330261,0.19104
			c-0.0229797,0.0620117-0.0219727,0.2210083,0.0010071,0.4749756l0.3080139,3.3649902
			c0.0239868,0.2609863,0.0529785,0.4230347,0.0870056,0.4860229c0.0329895,0.0620117,0.0950012,0.1149902,0.1839905,0.1549683
			c0.0899963,0.0420532,0.2059937,0.0560303,0.348999,0.0420532l0.1650085-0.0150146l0.0130005,0.1389771l-2.6600037,0.2449951
			l-0.0130005-0.1389771l0.1659851-0.0159912c0.1499939-0.0130005,0.2680054-0.0499878,0.3529968-0.1110229
			c0.059021-0.0410156,0.1040039-0.1060181,0.1329956-0.1950073c0.0230103-0.0629883,0.0220032-0.2219849-0.0009766-0.4779663
			l-0.3470154-3.7839966l-1.5270081,4.8369751l-0.0899963,0.0079956l-2.4069824-4.4400024l0.3289795,3.5950317
			c0.0230103,0.2509766,0.0440063,0.4039917,0.0610046,0.4609985c0.0450134,0.1229858,0.125,0.2189941,0.2409973,0.2879639
			c0.1159973,0.0679932,0.2910156,0.092041,0.5230103,0.0709839l0.0130005,0.1390381l-1.7430115,0.1599731l-0.0130005-0.1389771
			l0.053009-0.0050049c0.1130066-0.007019,0.2160034-0.0349731,0.3099976-0.0830078
			c0.0939941-0.0479736,0.1640015-0.1069946,0.2080078-0.177002c0.0440063-0.0689697,0.0740051-0.164978,0.0910034-0.2849731
			c0.0019836-0.0289917-0.007019-0.1560059-0.0280151-0.3850098l-0.2949829-3.2299805
			c-0.0240173-0.2590332-0.053009-0.4180298-0.0859985-0.4800415c-0.0339966-0.0620117-0.0950012-0.1129761-0.1849976-0.1539917
			c-0.0890198-0.0410156-0.2050171-0.0549927-0.3480225-0.0419922l-0.1619873,0.0150146l-0.0130005-0.1400146l2.0809937-0.190979
			L57.5460205,13.5475006z"/>
		<path class="st0" d="M64.4769897,13.414505l-0.6829834-1.7979736l-0.8630066,1.7299805L64.4769897,13.414505z
			 M64.5930176,13.6994781l-1.8060303-0.0799561l-0.2359924,0.4890137c-0.0789795,0.1629639-0.118988,0.2989502-0.125,0.4069824
			c-0.0059814,0.1430054,0.0469971,0.2520142,0.1600037,0.3250122c0.0660095,0.0429688,0.2310181,0.0809937,0.4970093,0.1129761
			l-0.006012,0.1400146l-1.6999817-0.0750122l0.0059814-0.1409912c0.1849976-0.0189819,0.3390198-0.0889893,0.4620056-0.2080078
			c0.1239929-0.1190186,0.2810059-0.3709717,0.4720154-0.7529907l2.0089722-4.0059814l0.0710144,0.0039673l1.6579895,4.2810059
			c0.15802,0.4060059,0.2920227,0.6630249,0.4000244,0.7709961c0.0819702,0.0820313,0.2009888,0.1329956,0.3559875,0.1530151
			l-0.006012,0.1389771l-2.4729919-0.1099854l0.0069885-0.1389771l0.1010132,0.0039673
			c0.1990051,0.0090332,0.3399963-0.0120239,0.4219971-0.0640259c0.0570068-0.0379639,0.0870056-0.0939941,0.0910034-0.1709595
			c0.0020142-0.0449829-0.0039978-0.09198-0.0159912-0.1400146c-0.0050049-0.0230103-0.0379944-0.1190186-0.1010132-0.2890015
			L64.5930176,13.6994781z"/>
		<path class="st0" d="M69.6280212,10.5175323l1.9749756,3.5480347l0.3569946-2.1749878
			C72.0100098,11.5875397,72,11.3755646,71.9309998,11.2535553c-0.0950012-0.1640015-0.2839966-0.2659912-0.5650024-0.3079834
			l0.0220032-0.1380005l1.6679993,0.276001L73.03302,11.2205353c-0.2170105-0.006958-0.3670044,0.0050049-0.4470215,0.0360107
			c-0.0799866,0.0320435-0.1499939,0.0930176-0.2059937,0.184021c-0.0570068,0.09198-0.1059875,0.257019-0.144989,0.4959717
			l-0.6920166,4.2109985l-0.1260071-0.0209961l-2.7219849-4.7739868l-0.5280151,3.2150269
			c-0.0479736,0.2909546-0.0139771,0.4979858,0.1020203,0.6220093c0.1170044,0.1239624,0.2599792,0.1999512,0.4309998,0.2289429
			l0.118988,0.019043l-0.0229797,0.1380005l-1.7900085-0.2950439l0.0229797-0.1380005
			c0.2780151,0.0430298,0.4810181,0.0180054,0.6080017-0.0759888c0.1280212-0.0939941,0.2140198-0.2749634,0.2580261-0.5440063
			l0.5869751-3.5699463l-0.0859985-0.1520386c-0.0849915-0.1519775-0.164978-0.2559814-0.2389832-0.3109741
			c-0.0750122-0.0560303-0.1889954-0.098999-0.3430176-0.1300049l0.0230103-0.1380005L69.6280212,10.5175323z"/>
		<path class="st0" d="M75.1650085,16.8114777l-0.0350037,0.1350098l-2.5890198-0.677002l0.0360107-0.1359863l0.1640015,0.0430298
			c0.1439819,0.0379639,0.2659912,0.0429688,0.3659973,0.0139771c0.072998-0.0169678,0.1369934-0.0629883,0.1929932-0.1370239
			c0.0419922-0.052002,0.0950012-0.2019653,0.1600037-0.4499512l0.8500061-3.2640381
			c0.0669861-0.2529907,0.0950012-0.414978,0.0839844-0.4859619c-0.0090027-0.0700073-0.0499878-0.1400146-0.117981-0.2090454
			c-0.0690002-0.0689697-0.1740112-0.1209717-0.3130188-0.157959l-0.1640015-0.0430298l0.0350037-0.1350098l2.5890198,0.6780396
			l-0.0360107,0.1350098l-0.1640015-0.0430298c-0.1440125-0.0380249-0.2659912-0.0419922-0.3659973-0.0139771
			c-0.071991,0.0180054-0.1380005,0.0629883-0.1960144,0.1359863C75.618988,12.2525177,75.565979,12.4024811,75.5,12.6515045
			l-0.8500061,3.2630005c-0.0660095,0.2540283-0.0929871,0.4160156-0.0820007,0.4869995
			c0.0109863,0.0700073,0.052002,0.1400146,0.1210022,0.2089844c0.0690002,0.0690308,0.1730042,0.1220093,0.3120117,0.15802
			L75.1650085,16.8114777z"/>
		<path class="st0" d="M81.6280212,13.7655182l-0.4660034,1.3060303l-0.1280212-0.0460205
			c0.0320129-0.3280029,0.0250244-0.5749512-0.019989-0.7399902c-0.0450134-0.1640015-0.1350098-0.3150024-0.2680054-0.4509888
			c-0.0749817-0.0750122-0.223999-0.1530151-0.4490051-0.2329712l-0.3589783-0.1290283l-1.3280029,3.7230225
			c-0.0890198,0.2469482-0.1300049,0.4049683-0.125,0.4769897c0.0059814,0.0719604,0.0390015,0.1449585,0.1019897,0.2199707
			S78.75,18.0285187,78.8869934,18.0785675l0.1610107,0.0570068L79,18.2675323l-2.5220032-0.9039917l0.0469971-0.132019
			l0.1600037,0.0570068c0.1390076,0.0500488,0.2610168,0.06604,0.3640137,0.0460205
			c0.0740051-0.0109863,0.1430054-0.0510254,0.2070007-0.117981c0.0469971-0.0480347,0.1119995-0.1929932,0.1990051-0.4349976
			l1.3289795-3.7230225l-0.348999-0.1240234c-0.322998-0.1170044-0.5839844-0.131958-0.7799988-0.0469971
			c-0.2739868,0.118042-0.5029907,0.3460083-0.6839905,0.6820068l-0.1350098-0.0490112l0.4670105-1.3049927L81.6280212,13.7655182z"
			/>
		<path class="st0" d="M83.1839905,18.2255402l0.0740051-1.9209595l-1.4679871,1.2519531L83.1839905,18.2255402z
			 M83.1790161,18.5335236l-1.6290283-0.7819824l-0.4089966,0.3560181
			c-0.1340027,0.1199951-0.2249756,0.2290039-0.2720032,0.3259888c-0.0629883,0.1290283-0.0559998,0.25,0.0190125,0.3610229
			c0.0440063,0.065979,0.1820068,0.1659546,0.4129944,0.2999878l-0.0599976,0.1259766l-1.5339966-0.7369995l0.0610046-0.1259766
			c0.177002,0.0549927,0.3460083,0.0509644,0.5059814-0.0100098c0.1600037-0.0609741,0.4030151-0.2310181,0.7280273-0.507019
			l3.4119873-2.8959961l0.0650024,0.0310059l-0.1490173,4.5880127c-0.0119934,0.4349976,0.0100098,0.7230225,0.0670166,0.8660278
			c0.0429993,0.1069946,0.1329956,0.1999512,0.2680054,0.2789917L84.605011,20.834549l-2.2310181-1.0709839l0.0599976-0.1260376
			l0.0920105,0.0440063c0.1789856,0.0859985,0.3169861,0.1210327,0.4129944,0.1060181
			c0.0679932-0.0120239,0.1170044-0.052002,0.1499939-0.1199951c0.0190125-0.0410156,0.03302-0.0869751,0.0400085-0.1359863
			c0.0050049-0.0230103,0.0119934-0.1240234,0.019989-0.3049927L83.1790161,18.5335236z"/>
		<path class="st0" d="M91.0050049,18.7874908l-0.7220154,1.1830444l-0.1159973-0.0709839
			c0.0969849-0.3150024,0.1409912-0.5580444,0.1300049-0.7280273c-0.0100098-0.1710205-0.0670166-0.3369751-0.1700134-0.4970093
			c-0.0570068-0.0889893-0.1879883-0.1959839-0.3919983-0.3209839l-0.3249817-0.1990356l-2.0610046,3.3730469
			c-0.1370239,0.223999-0.210022,0.3709717-0.2189941,0.4419556c-0.0100098,0.0710449,0.0079956,0.1500244,0.0549927,0.2350464
			c0.04599,0.0869751,0.1309814,0.1679688,0.2559814,0.2449951l0.1450195,0.0879517l-0.072998,0.1190186l-2.2850037-1.4019775
			l0.072998-0.1190186l0.144989,0.0889893c0.1260071,0.0780029,0.2420044,0.118042,0.3470154,0.1199951
			c0.0740051,0.0040283,0.1499939-0.0209961,0.2269897-0.0739746c0.0539856-0.0380249,0.1489868-0.164978,0.2829895-0.3850098
			l2.0610046-3.3729858l-0.3150024-0.1929932c-0.2939758-0.1810303-0.5449829-0.2490234-0.7550049-0.2059937
			c-0.2929993,0.0599976-0.5619812,0.2349854-0.8089905,0.5279541l-0.1220093-0.0749512l0.7230225-1.184021L91.0050049,18.7874908z"
			/>
		<path class="st0" d="M93.1889954,20.782486l-1.2750244,1.6490479l0.0800171,0.0620117
			c0.2559814,0.1989746,0.5039978,0.2630005,0.7449951,0.190979c0.2399902-0.0709839,0.4970093-0.2520142,0.7730103-0.5419922
			l0.1129761,0.0880127l-1.6399841,2.1209412l-0.1140137-0.0879822c0.1549988-0.25,0.2510071-0.4779663,0.2879944-0.6849976
			c0.0390015-0.2069702,0.0250244-0.375-0.0359802-0.5039673c-0.0620117-0.1300049-0.1900024-0.2700195-0.3829956-0.4190063
			l-0.882019,1.1409912c-0.1730042,0.2229919-0.2680054,0.3669739-0.2879944,0.4309692
			c-0.019989,0.0650024-0.0159912,0.1329956,0.0100098,0.2050171c0.0279846,0.071991,0.098999,0.1529846,0.2139893,0.2420044
			l0.2420044,0.1879883c0.3770142,0.2929993,0.7479858,0.4400024,1.1109924,0.4419861
			c0.3630066,0.0010071,0.7319946-0.1389771,1.1090088-0.4199829l0.1099854,0.0859985l-1.1769714,1.1459961l-3.4940186-2.7139587
			l0.0849915-0.1100464l0.1350098,0.1050415c0.1170044,0.0910034,0.2269897,0.1430054,0.3320007,0.1560059
			c0.072998,0.0130005,0.1499939-0.0050049,0.2290039-0.0510254c0.0589905-0.0300293,0.1679993-0.1469727,0.3240051-0.3499756
			l2.0610046-2.6650391c0.1419983-0.1829834,0.223999-0.2999878,0.2460022-0.348999
			c0.0339966-0.0849609,0.039978-0.1669922,0.0149841-0.2470093c-0.0320129-0.1139526-0.1140137-0.2229614-0.2449951-0.3239746
			l-0.1350098-0.1049805l0.0859985-0.1100464l3.3829956,2.6280518l-0.9259949,1.197998L94.17099,23.0894928
			c0.1689758-0.3369751,0.2509766-0.6099854,0.2460022-0.8189697c-0.007019-0.2080078-0.0820007-0.4160156-0.2270203-0.6240234
			c-0.0829773-0.1220093-0.2779846-0.302002-0.5839844-0.539978L93.1889954,20.782486z"/>
		<path class="st0" d="M100.3580017,26.7555084l-1.1950073,1.2190247l-0.1080017-0.1110229
			c0.2559814-0.3509827,0.3779907-0.7189941,0.3670044-1.1059875c-0.0130005-0.3869934-0.1340027-0.7000122-0.3650208-0.9389954
			c-0.1779785-0.1849976-0.368988-0.2829895-0.5709839-0.2950134c-0.2030029-0.0119934-0.3690186,0.0440063-0.4970093,0.1690063
			c-0.0809937,0.07901-0.1350098,0.1679993-0.1610107,0.2669983c-0.0339966,0.1350098-0.0369873,0.3009949-0.0079956,0.4970093
			c0.0230103,0.1430054,0.1069946,0.4419861,0.2530212,0.8970032c0.2049866,0.6359863,0.2859802,1.1199951,0.243988,1.4530029
			c-0.0440063,0.3309937-0.1879883,0.6139832-0.4299927,0.848999c-0.3059998,0.2980042-0.6870117,0.4349976-1.1400146,0.4100037
			c-0.4530029-0.0250244-0.8580017-0.2220154-1.2149963-0.5910034c-0.1119995-0.1170044-0.2059937-0.2380066-0.2819824-0.3630066
			c-0.0770264-0.1260071-0.1570129-0.2990112-0.2430115-0.5169983c-0.0480042-0.1230164-0.098999-0.2109985-0.1530151-0.2680054
			c-0.04599-0.0469971-0.1119995-0.07901-0.1989746-0.0960083c-0.0870056-0.0180054-0.1830139-0.0069885-0.2890015,0.0320129
			l-0.0970154-0.098999l1.3869934-1.3479919l0.0970154,0.1009827c-0.3130188,0.4580078-0.4620056,0.8999939-0.446991,1.3260193
			c0.0139771,0.4269714,0.1489868,0.7709961,0.4029846,1.0339966c0.1950073,0.2019958,0.4060059,0.3099976,0.6329956,0.3239746
			c0.2270203,0.0130005,0.4129944-0.0509949,0.5599976-0.1940002c0.0859985-0.0839844,0.1480103-0.1879883,0.1849976-0.3129883
			c0.0360107-0.125,0.0460205-0.269989,0.0280151-0.4349976c-0.0180054-0.1659851-0.0840149-0.4249878-0.197998-0.7780151
			c-0.1589966-0.493988-0.2510071-0.8709717-0.2780151-1.1299744c-0.026001-0.2579956-0.0059814-0.4960022,0.0599976-0.7140198
			c0.0670166-0.21698,0.1860046-0.4089966,0.3570251-0.5759888c0.2929993-0.2829895,0.6469727-0.4179993,1.0609741-0.4030151
			c0.4140015,0.0160217,0.7790222,0.1870117,1.0970154,0.5150146c0.1149902,0.118988,0.2120056,0.2489929,0.2919922,0.3890076
			c0.0610046,0.1059875,0.1210022,0.2489929,0.1799927,0.4279785c0.0599976,0.1790161,0.1130066,0.2929993,0.1600037,0.3420105
			c0.0460205,0.0469971,0.0960083,0.0700073,0.151001,0.0690002c0.0559998-0.0010071,0.1490173-0.0429993,0.2820129-0.1260071
			L100.3580017,26.7555084z"/>
		<path class="st0" d="M104.5090027,32.0405121l-0.1100159,0.0860291c-0.1380005-0.1280212-0.3190002-0.1970215-0.5419922-0.2080078
			c-0.1629944-0.0050049-0.4930115,0.053009-0.9880066,0.1759949l-4.1610107,1.0270081l-0.0769958-0.098999l2.1180115-3.8959961
			c0.2550049-0.4700012,0.394989-0.7590027,0.4179993-0.8690186c0.0230103-0.1090088-0.0180054-0.2489929-0.1230164-0.4199829
			l0.1100159-0.0859985l1.5130005,1.9329834l-0.1109924,0.0859985l-0.0510254-0.0650024
			c-0.1359863-0.1739807-0.2509766-0.276001-0.3439941-0.3059998c-0.065979-0.0220032-0.1269836-0.0099792-0.1839905,0.0350037
			c-0.0360107,0.0280151-0.0710144,0.0690002-0.1069946,0.1230164c-0.0370178,0.0529785-0.125,0.2089844-0.2660217,0.46698
			l-1.3299866,2.4330139l2.4070129-0.6040039c0.289978-0.0740051,0.4799805-0.1279907,0.5699768-0.1650085
			c0.0910034-0.0359802,0.1620178-0.072998,0.2130127-0.1139832c0.0599976-0.0460205,0.098999-0.1029968,0.1199951-0.1710205
			c0.0209961-0.0669861,0.0190125-0.1409912-0.0050049-0.2209778c-0.0329895-0.1119995-0.1049805-0.2380066-0.2149963-0.3790283
			l0.1100159-0.0859985L104.5090027,32.0405121z"/>
		<path class="st0" d="M104.0029907,35.5615082c0.1870117,0.3049927,0.3590088,0.5090027,0.5169983,0.6109924
			c0.1560059,0.1029968,0.3209839,0.1549988,0.4930115,0.1560059c0.1719971,0.0010071,0.3539734-0.0580139,0.5469971-0.177002
			c0.1929932-0.1180115,0.3269958-0.2539978,0.4039917-0.4049988c0.0759888-0.1529846,0.1040039-0.3190002,0.0809937-0.5010071
			c-0.0220032-0.1809998-0.1309814-0.4279785-0.3249817-0.7399902L104.0029907,35.5615082z M103.7519836,35.7154999
			l-1.3980103,0.8600159l-0.1639709,0.0950012c-0.1160278,0.071991-0.1850281,0.1549988-0.2080078,0.25
			c-0.0220032,0.0950012,0.0019836,0.2009888,0.072998,0.3169861c0.1059875,0.1719971,0.2399902,0.3070068,0.4060059,0.4049988
			c0.1640015,0.098999,0.3429871,0.1419983,0.5350037,0.1300049c0.190979-0.0109863,0.3769836-0.071991,0.5549927-0.1809998
			c0.2030029-0.1260071,0.3580017-0.2850037,0.4609985-0.4790039c0.1040039-0.1940002,0.1369934-0.3939819,0.1009827-0.5979919
			C104.0759888,36.3085175,103.9559937,36.0424957,103.7519836,35.7154999 M104.6340027,36.7874908
			c0.1579895,0.4740295,0.2189941,0.8370056,0.1849976,1.0890198c-0.0480042,0.3599854-0.2270203,0.6359863-0.5380249,0.8269958
			c-0.3280029,0.2019958-0.6799927,0.2359924-1.0569763,0.105011c-0.4580078-0.1660156-0.8760071-0.5570068-1.2550049-1.1760254
			l-1.3590088-2.2200012l0.1180115-0.072998c0.1239929,0.2010193,0.2269897,0.3260193,0.3089905,0.3760071
			c0.0809937,0.0490112,0.1600037,0.0690002,0.2390137,0.0610046c0.0769958-0.0079956,0.2339783-0.0839844,0.4700012-0.2290039
			l2.8299866-1.7399902c0.2359924-0.1450195,0.375-0.2510071,0.4179993-0.3179932
			c0.0429993-0.0660095,0.0610046-0.1470032,0.053009-0.2420044c-0.0079956-0.0960083-0.0740051-0.2430115-0.1960144-0.4429932
			l0.1190186-0.0730286l1.2829895,2.0940247c0.3059998,0.5009766,0.4790039,0.8819885,0.5169983,1.1459961
			c0.0390015,0.2630005,0.006012,0.5090027-0.0970154,0.7369995c-0.1029968,0.2299805-0.2539978,0.4060059-0.4529724,0.5279846
			c-0.2109985,0.1289978-0.4450073,0.1679993-0.7020264,0.1170044
			C105.2609863,37.3014984,104.9659729,37.1125031,104.6340027,36.7874908"/>
		<path class="st0" d="M107.6540222,45.2154999l-1.7290039,0.5200195l-1.7620239-4.1960144l0.1280212-0.0539856l0.065979,0.1569824
			c0.0580139,0.1370239,0.1280212,0.2369995,0.2120056,0.3000183c0.0580139,0.0469971,0.1329956,0.0700073,0.2260132,0.0690002
			c0.065979,0.0019836,0.2179871-0.0460205,0.4530029-0.1459961l3.1029968-1.3080139
			c0.2409973-0.1019897,0.3859863-0.178009,0.4349976-0.2290039c0.0499878-0.0509949,0.0809937-0.125,0.0939941-0.2219849
			c0.0130005-0.0970154-0.0090027-0.2109985-0.0650024-0.3439941L108.75,39.6055145l0.1280212-0.0539856l1.0579834,2.519989
			l-0.1289978,0.0539856l-0.0859985-0.2059937c-0.0580139-0.1369934-0.1279907-0.2369995-0.2120056-0.2999878
			c-0.0579834-0.0469971-0.1340027-0.0710144-0.2269897-0.072998c-0.0660095-0.0010071-0.2180176,0.0469971-0.45401,0.1470032
			l-3.0050049,1.2669983c-0.2409973,0.1009827-0.3889771,0.1799927-0.4429932,0.2359924
			c-0.0539856,0.0549927-0.0809937,0.131012-0.07901,0.2259827c0.0030212,0.0660095,0.052002,0.2120056,0.1450195,0.434021
			l0.164978,0.394989c0.1060181,0.25,0.2380066,0.4410095,0.3960266,0.5710144
			c0.1589966,0.1300049,0.3589783,0.2160034,0.5999756,0.2579956s0.5700073,0.0390015,0.9869995-0.0079956L107.6540222,45.2154999z"
			/>
		<path class="st0" d="M107.0580139,48.8365021l-0.1330261,0.0430298l-0.8169861-2.552002l0.1329956-0.0429993l0.0509949,0.1619873
			c0.0460205,0.1419983,0.1080017,0.2479858,0.1860046,0.3179932c0.053009,0.0509949,0.1260071,0.0800171,0.2189941,0.0880127
			c0.0650024,0.0079956,0.2200012-0.0270081,0.4640198-0.105011l3.2039795-1.0310059
			c0.2480164-0.0799866,0.3999939-0.1429749,0.45401-0.1889954c0.0539856-0.0469971,0.0910034-0.1170044,0.1119995-0.2129822
			c0.0209961-0.0960083,0.0090027-0.2109985-0.0339966-0.3480225l-0.052002-0.1619873l0.1329956-0.0429993l0.8170166,2.5509949
			l-0.1340027,0.0429993l-0.0510254-0.1619873c-0.04599-0.1410217-0.1069946-0.2470093-0.1849976-0.3170166
			c-0.0529785-0.052002-0.1269836-0.0820007-0.2189941-0.09198c-0.0669861-0.0080261-0.2219849,0.0269775-0.4660034,0.1059875
			l-3.2030029,1.0299988c-0.2489929,0.0799866-0.3999939,0.1430054-0.4539795,0.1910095
			c-0.0540161,0.0480042-0.0899963,0.118988-0.1110229,0.2149963c-0.0219727,0.0950012-0.0099792,0.2109985,0.0340271,0.3479919
			L107.0580139,48.8365021z"/>
		<path class="st0" d="M110.2279968,50.440506c0.0789795,0.348999,0.1759949,0.5979919,0.2919922,0.7460022
			s0.2550049,0.25,0.4169922,0.3059998c0.1620178,0.0570068,0.3540039,0.0589905,0.5750122,0.0100098
			c0.2209778-0.0500183,0.3919983-0.1350098,0.5130005-0.2539978c0.1210022-0.1190186,0.2009888-0.2690125,0.2379761-0.447998
			c0.0370178-0.178009,0.0140076-0.447998-0.0699768-0.8059998L110.2279968,50.440506z M109.940979,50.5055084l-1.6009827,0.3630066
			l-0.1849976,0.0379944c-0.132019,0.0289917-0.2250061,0.0859985-0.2770081,0.1690063s-0.0630188,0.1910095-0.03302,0.322998
			c0.0440063,0.196991,0.1280212,0.3680115,0.2530212,0.5149841c0.1239929,0.1460266,0.2799988,0.2450256,0.4649963,0.2950134
			c0.1860046,0.0509949,0.3809814,0.0539856,0.5849915,0.0079956c0.2319946-0.053009,0.4290161-0.1539917,0.5899963-0.3049927
			c0.1610107-0.1499939,0.257019-0.3280029,0.2879944-0.5339966
			C110.0569763,51.1725006,110.0279846,50.8805084,109.940979,50.5055084 M110.4309998,51.8054962
			c-0.0030212,0.4990234-0.0610046,0.8630066-0.1750183,1.0900269c-0.1610107,0.3259888-0.4190063,0.5289917-0.7749939,0.6099854
			c-0.3760071,0.0849915-0.7200012,0.0039978-1.0339966-0.2430115c-0.3800049-0.3039856-0.651001-0.8099976-0.8110046-1.5179749
			l-0.572998-2.5410156l0.1369934-0.0310059c0.052002,0.2310181,0.1080017,0.3829956,0.1700134,0.4560242
			c0.0610046,0.072998,0.1299744,0.1169739,0.2070007,0.1349792c0.0749817,0.0180054,0.2489929-0.0039978,0.5179749-0.0650024
			l3.2390137-0.7339783c0.269989-0.0610046,0.4360046-0.1159973,0.4989929-0.1650085
			c0.0620117-0.0490112,0.1040039-0.1199951,0.1270142-0.2130127c0.0229797-0.0939941,0.0090027-0.2539978-0.0419922-0.4830017
			l0.1359863-0.0309753l0.5409851,2.3969727c0.1290283,0.5740051,0.1690063,0.9910278,0.1210022,1.2520142
			c-0.0479736,0.2619934-0.1579895,0.4840088-0.3289795,0.6669922c-0.1710205,0.184021-0.3710022,0.302002-0.598999,0.3540039
			c-0.2409973,0.0540161-0.473999,0.0159912-0.7010193-0.1159973
			C110.8589783,52.4945221,110.6409912,52.2205048,110.4309998,51.8054962"/>
		<path class="st0" d="M113.1900024,55.6435089l-2.0700073,0.2330017l0.0119934,0.1020203
			c0.0360107,0.322998,0.1629944,0.54599,0.3829956,0.6679993c0.2180176,0.1229858,0.5270081,0.1820068,0.927002,0.177002
			l0.0159912,0.1430054l-2.6629944,0.2999878l-0.0159912-0.1430054c0.2869873-0.0629883,0.5169983-0.1529846,0.6910095-0.269989
			c0.1749878-0.1170044,0.2859802-0.2430115,0.3359985-0.3780212c0.0489807-0.1349792,0.0599976-0.3239746,0.0329895-0.5669861
			l-1.4320068,0.1610107c-0.2799988,0.0319824-0.4499817,0.0629883-0.5100098,0.0939941
			c-0.0599976,0.0299988-0.1059875,0.0809937-0.1389771,0.151001c-0.0320129,0.0690002-0.0400085,0.177002-0.0240173,0.321991
			l0.03302,0.3040161c0.0539856,0.4759827,0.2070007,0.8450012,0.4589844,1.1069946
			c0.2520142,0.2619934,0.6109924,0.4299927,1.0740051,0.5050049l0.0159912,0.1389771l-1.6419983-0.0480042l-0.493988-4.4029846
			l0.1390076-0.0159912l0.0189819,0.1689758c0.0169983,0.1480103,0.0559998,0.2650146,0.1190186,0.3490295
			c0.0429993,0.0609741,0.1080017,0.1039734,0.196991,0.1299744c0.0629883,0.0209961,0.2219849,0.0169983,0.4769897-0.0119934
			l3.3450012-0.3769836c0.2290039-0.026001,0.3699951-0.0480042,0.42099-0.0670166
			c0.085022-0.0339966,0.1470032-0.0879822,0.1870117-0.1609802c0.0589905-0.1030273,0.07901-0.23703,0.0610046-0.4030151
			l-0.0190125-0.1679993l0.1390076-0.0159912l0.4779968,4.2649841l-1.5039978,0.1679993l-0.0159912-0.1419983
			c0.3599854-0.1139832,0.6119995-0.2460022,0.7569885-0.3959961c0.1459961-0.1489868,0.2420044-0.3479919,0.2900085-0.5969849
			c0.0289917-0.1460266,0.0220032-0.4110107-0.0209961-0.7970276L113.1900024,55.6435089z"/>
		<path class="st0" d="M113.5970154,61.3545074l-2.2400208-0.0359802l-0.0039978,0.2159729
			c-0.0059814,0.3500061,0.0220032,0.6119995,0.0830078,0.7880249c0.0620117,0.1749878,0.1749878,0.3129883,0.3399963,0.414978
			c0.1669922,0.1020203,0.3840027,0.1560059,0.6539917,0.1600037c0.3880005,0.007019,0.678009-0.0799866,0.8670044-0.2590027
			c0.1889954-0.1809998,0.2870178-0.4729919,0.2929993-0.8789978L113.5970154,61.3545074z M111.0890198,61.3144989
			l-1.434021-0.0229797c-0.276001-0.0050049-0.4499817,0.0090027-0.5229797,0.0419922
			c-0.0720215,0.0329895-0.131012,0.0920105-0.1740112,0.177002c-0.0440063,0.0849915-0.0679932,0.2449951-0.071991,0.4790039
			l-0.1390076-0.0029907l0.0419922-2.6230164l0.1390076,0.0029907c-0.0039978,0.2369995,0.0159912,0.3980103,0.0589905,0.4820251
			c0.0429993,0.0859985,0.0979919,0.1459961,0.1679993,0.1809998c0.0700073,0.0349731,0.2440186,0.0549927,0.5190125,0.0599976
			l3.3200073,0.0529785c0.2769775,0.0050049,0.4509888-0.0090027,0.5229797-0.0419922
			c0.072998-0.0329895,0.131012-0.0920105,0.1750183-0.1759949c0.0439758-0.0859985,0.0679932-0.2449951,0.0709839-0.480011
			l0.1400146,0.0030212l-0.0380249,2.3809814c-0.0099792,0.6199951-0.0609741,1.0720215-0.1509705,1.3580017
			c-0.0900269,0.2870178-0.2520142,0.5180054-0.4850159,0.6960144c-0.2319946,0.1779785-0.5039978,0.2639771-0.8120117,0.2590027
			c-0.3779907-0.007019-0.6879883-0.1480103-0.9289856-0.4240112c-0.1539917-0.1759949-0.2669983-0.42099-0.3389893-0.7349854
			l-1.7520142,1.2039795c-0.2260132,0.1570129-0.3670044,0.2700195-0.4240112,0.3380127
			c-0.0789795,0.1009827-0.1239929,0.2200012-0.1339722,0.3569946l-0.1390076-0.0029907l0.026001-1.6140137l2.3569946-1.6139832
			L111.0890198,61.3144989z"/>
		<path class="st0" d="M113.2969971,69.9644928l-1.3760071-0.1509705l0.0149841-0.1360168
			c0.3260193-0.0449829,0.5639954-0.1090088,0.7130127-0.1910095c0.1499939-0.0829773,0.2749939-0.2039795,0.3769836-0.3659973
			c0.0550232-0.0899963,0.0960083-0.2539978,0.1220093-0.4920044l0.0410156-0.3789978l-3.9220276-0.4319763
			c-0.2599792-0.0290222-0.4239807-0.03302-0.4919739-0.0110168c-0.0670166,0.0209961-0.131012,0.0710144-0.1890259,0.1499939
			c-0.0579834,0.07901-0.0950012,0.1900024-0.1109924,0.3359985l-0.0180054,0.1690063l-0.1389771-0.0149841l0.2919922-2.6679993
			l0.1399841,0.0159912l-0.0189819,0.1679993c-0.0159912,0.1480103-0.0029907,0.269989,0.0390015,0.3659973
			c0.0289917,0.0690002,0.0830078,0.1260071,0.1629944,0.1740112c0.0570068,0.0339966,0.2130127,0.0650024,0.4679871,0.0929871
			l3.9219971,0.4330139l0.0410156-0.3690186c0.0369873-0.3429871-0.0079956-0.6009827-0.1359863-0.7720032
			c-0.178009-0.2399902-0.4520264-0.4089966-0.8210144-0.5079956l0.0159912-0.1430054l1.3760071,0.151001L113.2969971,69.9644928z"
			/>
		<path class="st0" d="M109.3309937,72.5095062l1.8819885-0.3739929l-1.5569763-1.1409912L109.3309937,72.5095062z
			 M109.0310059,72.5764923l0.3799744-1.769989l-0.440979-0.3160095c-0.1480103-0.1039734-0.2740173-0.1679993-0.3800049-0.1899719
			c-0.1400146-0.0300293-0.256012,0.0039978-0.3460083,0.1029968c-0.0539856,0.0579834-0.1180115,0.2160034-0.1940002,0.4719849
			l-0.1369934-0.0299988l0.3590088-1.6659851l0.1359863,0.0289917c-0.0119934,0.1860046,0.0310059,0.3509827,0.1279907,0.4920044
			c0.0960083,0.1419983,0.3170166,0.3399963,0.6620178,0.59198l3.6040039,2.6540222l-0.0140076,0.0699768l-4.4899902,0.9210205
			c-0.4250183,0.0889893-0.7000122,0.177002-0.8250122,0.2669983c-0.0939941,0.0669861-0.1640015,0.1759949-0.2099915,0.3259888
			l-0.1350098-0.0299988l0.5209961-2.4240112l0.1369934,0.0300293l-0.0220032,0.0999756
			c-0.0419922,0.1940002-0.0449829,0.3370056-0.0069885,0.427002c0.0280151,0.0630188,0.0780029,0.1020203,0.1520081,0.1190186
			c0.0440063,0.0090027,0.0910034,0.0109863,0.1409912,0.0069885c0.0230103,0,0.1230164-0.0180054,0.2999878-0.052002
			L109.0310059,72.5764923z"/>
		<path class="st0" d="M110.5980225,80.2675018l-1.3160095-0.4299927l0.0409851-0.1300049
			c0.32901,0.0230103,0.5750122,0.0090027,0.7380066-0.0409851c0.1640015-0.0499878,0.3110046-0.1440125,0.4429932-0.2810059
			c0.072998-0.0759888,0.1459961-0.2290039,0.2200012-0.4559937l0.1190186-0.3640137l-3.7520142-1.2269897
			c-0.2489929-0.0809937-0.4089966-0.1180115-0.4790039-0.1109924c-0.071991,0.0069885-0.1430054,0.0429993-0.2160034,0.1089783
			c-0.072998,0.0650024-0.1319885,0.1660156-0.177002,0.3050232l-0.0529785,0.1619873l-0.1329956-0.0429993l0.8309937-2.5509949
			l0.1329956,0.0419922l-0.052002,0.1620178c-0.0469971,0.1409912-0.0589905,0.2639771-0.0360107,0.3659973
			c0.0130005,0.0740051,0.0540161,0.1419983,0.1230164,0.2049866c0.0489807,0.0440063,0.1959839,0.1060181,0.4400024,0.1870117
			l3.7510071,1.2259827l0.1149902-0.3519897c0.1069946-0.3280029,0.1149902-0.5889893,0.0239868-0.7829895
			c-0.125-0.2720032-0.3589783-0.4940186-0.6990051-0.6660156l0.0440063-0.1369934l1.3160095,0.4309998L110.5980225,80.2675018z"/>
		<path class="st0" d="M104.6210022,81.591507l-0.1290283-0.0549927l1.0510254-2.4649963l0.1279907,0.0549927l-0.0670166,0.1560059
			c-0.0579834,0.1369934-0.0799866,0.257019-0.0669861,0.3619995c0.006012,0.0740051,0.0419922,0.1440125,0.1069946,0.2099915
			c0.0440063,0.0490112,0.1849976,0.1240234,0.42099,0.2260132l3.0950012,1.322998
			c0.2410278,0.1029968,0.3970032,0.1549988,0.4670105,0.1549988c0.071991,0,0.1459961-0.0289917,0.2250061-0.0870056
			c0.0780029-0.0589905,0.1440125-0.1539917,0.2009888-0.2859802l0.0670166-0.1560059l0.1279907,0.0549927l-1.0499878,2.4649963
			l-0.1289978-0.0549927l0.0669861-0.1560059c0.0580139-0.1369934,0.0809937-0.2579956,0.0679932-0.3619995
			c-0.0059814-0.0740051-0.0419922-0.144989-0.1059875-0.2129822c-0.0440063-0.0500183-0.1839905-0.125-0.42099-0.2260132
			l-3.0950012-1.3240051c-0.2400208-0.1029968-0.3960266-0.1539917-0.4680176-0.1529846
			c-0.071991,0.0009766-0.1459961,0.0299988-0.2250061,0.0889893c-0.0780029,0.0589905-0.144989,0.1539917-0.2019958,0.2860107
			L104.6210022,81.591507z"/>
		<path class="st0" d="M107.3970032,87.3645172l-1.5290222-0.7549744l0.0710144-0.1380005
			c0.4129944,0.1340027,0.7999878,0.1340027,1.1629944,0.0029907c0.3630066-0.1340027,0.6210022-0.3470154,0.776001-0.6419983
			c0.1180115-0.2279968,0.151001-0.4400024,0.098999-0.6360168c-0.0509949-0.1959839-0.1570129-0.3359985-0.3150024-0.4189758
			c-0.1000061-0.052002-0.2009888-0.0760193-0.3039856-0.0700073c-0.1380005,0.0100098-0.2960205,0.0589905-0.4730225,0.1489868
			c-0.1289978,0.0660095-0.3849792,0.2400208-0.769989,0.5220032c-0.5390015,0.3940125-0.9710083,0.6230164-1.2999878,0.6870117
			c-0.3280029,0.0610046-0.6400146,0.0149841-0.9390259-0.1419983c-0.3779907-0.197998-0.6269836-0.5169983-0.7460022-0.9559937
			c-0.117981-0.4390259-0.0579834-0.8860168,0.1790161-1.3410034c0.0750122-0.1440125,0.1600037-0.2709961,0.256012-0.382019
			c0.0949707-0.1129761,0.2329712-0.243988,0.4129944-0.3939819c0.1009827-0.0840149,0.1690063-0.1600037,0.2049866-0.2290039
			c0.0310059-0.0589905,0.0400085-0.132019,0.0289917-0.2200012c-0.0099792-0.0880127-0.052002-0.1759949-0.1210022-0.2640076
			l0.0640259-0.1229858l1.7109985,0.8959961l-0.0639954,0.1239929c-0.53302-0.1539917-0.9990234-0.1570129-1.3980103-0.0090027
			c-0.3990173,0.1470032-0.6830139,0.3829956-0.8519897,0.7070007c-0.131012,0.2489929-0.1670227,0.4840088-0.1080017,0.70401
			c0.0579834,0.2200012,0.1779785,0.3769836,0.3580017,0.4710083c0.1079712,0.0569763,0.2249756,0.0819702,0.3549805,0.0779724
			c0.131012-0.0049744,0.2709961-0.0409851,0.4210205-0.1099854c0.1509705-0.0679932,0.3759766-0.2120056,0.6749878-0.4309998
			c0.4179993-0.3070068,0.7460022-0.5130005,0.9830017-0.6199951c0.2359924-0.1060181,0.4679871-0.1610107,0.6950073-0.1660156
			c0.2269897-0.0050049,0.4459839,0.0480042,0.6569824,0.1589966c0.3609924,0.1890259,0.598999,0.4830017,0.7149963,0.882019
			c0.1150208,0.3989868,0.0680237,0.8009949-0.1439819,1.2039795c-0.0760193,0.1480103-0.1679993,0.2810059-0.2770081,0.401001
			c-0.0809937,0.0910034-0.196991,0.1930237-0.348999,0.3059998c-0.151001,0.1119995-0.2420044,0.1990051-0.2739868,0.2590027
			c-0.0290222,0.0580139-0.0350037,0.1130066-0.0170288,0.1660156c0.0170288,0.0509949,0.0870056,0.1269836,0.2080078,0.2279968
			L107.3970032,87.3645172z"/>
		<path class="st0" d="M102.8610229,94.0285187l-1.125-0.8079834l0.0789795-0.1100159
			c0.3059998,0.1210022,0.5450134,0.1820068,0.7149963,0.184021c0.1710205,0.0010071,0.3390198-0.0440063,0.506012-0.1350098
			c0.0929871-0.0509949,0.2080078-0.1740112,0.3479919-0.368988l0.2210083-0.3099976l-3.2080078-2.3010254
			c-0.2120056-0.1529846-0.3540039-0.2359924-0.4230042-0.2509766c-0.0709839-0.0150146-0.1499939-0.0020142-0.2389832,0.0379944
			c-0.0890198,0.0400085-0.1759949,0.118988-0.2610168,0.2380066L99.375,90.3435211l-0.1130066-0.0809937l1.5580139-2.1829834
			l0.1130066,0.0809937l-0.0979919,0.1380005c-0.0860291,0.1220093-0.1340027,0.2349854-0.1440125,0.3389893
			c-0.0100098,0.072998,0.0100098,0.151001,0.0570068,0.2319946c0.0329895,0.0570068,0.1539917,0.1610107,0.3630066,0.3099976
			l3.2079773,2.302002l0.2149963-0.302002c0.2000122-0.2799988,0.2870178-0.5269775,0.2590027-0.7389832
			c-0.0379944-0.2969971-0.1940002-0.57901-0.46698-0.8460083l0.0829773-0.1170044l1.1260071,0.8070068L102.8610229,94.0285187z"/>
		<path class="st0" d="M98.6459961,98.8165131l-0.1030273-0.0939941c0.1020203-0.1579895,0.1400146-0.348999,0.1130066-0.5709839
			c-0.0229797-0.1629944-0.1369934-0.4779968-0.3410034-0.9460144l-1.71698-3.9379883l0.0839844-0.0920105l4.1929932,1.4299927
			c0.506012,0.1730042,0.8150024,0.2620239,0.9260254,0.2660217c0.1109924,0.0039978,0.2419739-0.0599976,0.3919983-0.1920166
			l0.1039734,0.0939941l-1.6459961,1.8220215l-0.1029968-0.0930176l0.0559998-0.0629883
			c0.1480103-0.1640015,0.2290039-0.2950134,0.2409973-0.3919983c0.0110168-0.0679932-0.0099792-0.1270142-0.0650024-0.1759949
			c-0.0329895-0.0299988-0.0799866-0.059021-0.1389771-0.0859985c-0.059021-0.0250244-0.2270203-0.0859985-0.5039978-0.1809998
			l-2.6200256-0.9030151l1.0030212,2.276001c0.1219788,0.2740173,0.2089844,0.45401,0.2590027,0.5370178
			c0.0509949,0.0829773,0.0999756,0.1459961,0.1489868,0.190979c0.0549927,0.0500183,0.118988,0.0800171,0.1879883,0.0890198
			c0.0700073,0.0090027,0.1420288-0.006012,0.2170105-0.0429993c0.105011-0.0510254,0.2170105-0.1440125,0.3359985-0.2770081
			l0.1040039,0.0939941L98.6459961,98.8165131z"/>
		<path class="st0" d="M94.507019,102.5005035l-0.9140015-1.0409851l0.1019897-0.0899963
			c0.2709961,0.1870117,0.4899902,0.3009949,0.6549988,0.3399963c0.1659851,0.0400085,0.3410034,0.0350037,0.5249939-0.0159912
			c0.1010132-0.0280151,0.2409973-0.1230164,0.42099-0.2799988l0.2860107-0.2520142l-2.6059875-2.9689941
			c-0.1719971-0.196991-0.2910156-0.3099976-0.3560181-0.3410034c-0.0650024-0.0289917-0.144989-0.0350037-0.2399902-0.0159912
			c-0.0970154,0.0189819-0.1990051,0.0759888-0.3089905,0.1730042l-0.1270142,0.1119995l-0.0920105-0.105011l2.0110168-1.7730103
			l0.0920105,0.1060181l-0.1270142,0.1119995c-0.1119995,0.0979919-0.1839905,0.196991-0.2170105,0.2969971
			c-0.026001,0.0690002-0.0249939,0.1489868,0.0030212,0.2380066c0.019989,0.0639954,0.1139832,0.1919861,0.2829895,0.3849792
			l2.6059875,2.9690247l0.2770081-0.2450256c0.2579956-0.2269897,0.3980103-0.447998,0.4190063-0.6600037
			c0.0299988-0.2989807-0.0580139-0.6089783-0.2640076-0.9309998l0.1080017-0.0949707l0.9140015,1.0419922L94.507019,102.5005035z"
			/>
		<path class="st0" d="M91.9620056,104.0065155l-1.1960144-1.7079773l-0.0830078,0.0579834
			c-0.2659912,0.1870117-0.3999939,0.4060059-0.4020081,0.6570129c-0.0029907,0.2510071,0.0930176,0.5509949,0.2890015,0.8999939
			l-0.117981,0.0830078l-1.5379944-2.197998l0.1169739-0.0830078c0.1920166,0.2220154,0.3830261,0.3819885,0.5690002,0.4790039
			c0.1850281,0.0969849,0.3500061,0.1350098,0.4910278,0.1139832c0.1419983-0.0219727,0.3129883-0.1019897,0.5130005-0.2419739
			l-0.8280029-1.184021c-0.1620178-0.2299805-0.2700195-0.3649902-0.3260193-0.4029846
			c-0.0549927-0.0379944-0.1219788-0.0549927-0.1990051-0.0500183c-0.0759888,0.0050049-0.1749878,0.0490112-0.2939758,0.1330261
			l-0.25,0.1759949c-0.3910217,0.2749939-0.6410217,0.5859985-0.75,0.9339905
			c-0.1090088,0.3469849-0.0840149,0.7420044,0.072998,1.1860046l-0.1150208,0.0799866l-0.7449951-1.4660034l3.6199951-2.5439758
			l0.0800171,0.1129761l-0.1380005,0.0980225c-0.1220093,0.0859985-0.2050171,0.1759949-0.2480164,0.2709961
			c-0.0339966,0.0669861-0.039978,0.1459961-0.019989,0.2369995c0.0119934,0.0650024,0.0920105,0.2019958,0.2390137,0.4129944
			l1.9329834,2.7619934c0.1329956,0.1889954,0.2189941,0.303009,0.2600098,0.3390198
			c0.0709839,0.0579834,0.1479797,0.0869751,0.2309875,0.0869751c0.1190186,0.0030212,0.2460022-0.0439758,0.382019-0.1389771
			l0.1389771-0.0980225l0.0800171,0.1150208l-3.506012,2.4639893l-0.868988-1.2420044l0.1170044-0.0820007
			c0.2720032,0.2610168,0.5090027,0.4210205,0.7099915,0.4760132c0.2000122,0.0559998,0.42099,0.04599,0.6619873-0.0310059
			c0.1410217-0.0440063,0.3700256-0.178009,0.6880188-0.3999939L91.9620056,104.0065155z"/>
		<path class="st0" d="M83.2810059,105.7324982l-0.6940002-1.6699829l3.9819946-2.1870117l0.0669861,0.1230164l-0.1489868,0.0809937
			c-0.1300049,0.071991-0.2220154,0.1520081-0.276001,0.2420044c-0.0400085,0.0629883-0.0549927,0.1409912-0.0450134,0.2330017
			c0.0050049,0.065979,0.0690002,0.2109985,0.1920166,0.4369812l1.6159973,2.9560242
			c0.1269836,0.2299805,0.21698,0.3669739,0.2729797,0.4109802c0.0550232,0.0440063,0.132019,0.0670166,0.2290039,0.0700073
			c0.0980225,0.0020142,0.2090149-0.0310059,0.335022-0.1000061l0.1489868-0.0820007l0.0669861,0.1230164l-2.3909912,1.3139954
			l-0.0669861-0.1230164l0.1949768-0.1069946c0.1300049-0.071991,0.2230225-0.1529846,0.276001-0.242981
			c0.0410156-0.0620117,0.0570068-0.1400146,0.0490112-0.2330017c-0.0050049-0.0670166-0.0690002-0.2130127-0.1929932-0.4380188
			l-1.5660095-2.8630066c-0.125-0.2299805-0.2179871-0.368988-0.2789917-0.4179993
			c-0.0620117-0.0479736-0.1390076-0.0669861-0.2330017-0.0549927c-0.0660095,0.0100098-0.2050171,0.0740051-0.4169922,0.1900024
			l-0.3730164,0.2059937c-0.2380066,0.1300049-0.4140015,0.2810059-0.5270081,0.4519958
			c-0.1119995,0.1720276-0.1769714,0.3800049-0.1940002,0.6240234c-0.0159912,0.2449951,0.0200195,0.572998,0.1100159,0.9830017
			L83.2810059,105.7324982z"/>
		<path class="st0" d="M79.9640198,107.0815277l1.368988,1.3479919l0.0639954-1.9309998L79.9640198,107.0815277z
			 M79.7400208,106.8704987l1.6739807-0.6819763l0.0119934-0.5429993c0.0030212-0.1809998-0.0159912-0.3210144-0.0579834-0.4219971
			c-0.053009-0.132019-0.1459961-0.2090149-0.2789917-0.2280273c-0.0780029-0.0119934-0.2440186,0.0230103-0.4990234,0.105011
			l-0.0529785-0.1300049l1.5759888-0.6419983l0.053009,0.1300049c-0.1600037,0.0950012-0.2709961,0.2220154-0.3330078,0.3829956
			c-0.0629883,0.1600037-0.1010132,0.45401-0.1149902,0.881012l-0.1590271,4.4799805l-0.0669861,0.026001l-3.2869873-3.197998
			c-0.3130188-0.3029785-0.5410156-0.4799805-0.6849976-0.5329895c-0.1090088-0.0409851-0.2369995-0.0369873-0.3870239,0.0100098
			l-0.052002-0.1300049l2.2920227-0.9330139l0.0529785,0.1289978l-0.0950012,0.0390015
			c-0.1839905,0.0750122-0.3029785,0.1530151-0.3559875,0.2350159c-0.0369873,0.0579834-0.0400085,0.1220093-0.0109863,0.1929932
			c0.0159912,0.0410156,0.0409851,0.0820007,0.072998,0.1210022c0.0130005,0.0190125,0.0829773,0.0920105,0.2109985,0.2200012
			L79.7400208,106.8704987z"/>
		<path class="st0" d="M67.0529785,109.177536l0.0040283,2.2149963c0.0829773,0.006012,0.1459961,0.0079956,0.1889954,0.0069885
			c0.3059998,0,0.5429993-0.09198,0.7079773-0.2749939c0.1660156-0.1829834,0.2490234-0.4660034,0.2470093-0.848999
			c0-0.3800049-0.0839844-0.6589966-0.25-0.8339844c-0.1669922-0.177002-0.4140015-0.2650146-0.7430115-0.2640076H67.0529785z
			 M67.0570068,111.6875153l0.0029907,1.4220276c0.0010071,0.2769775,0.0180054,0.4509888,0.052002,0.5229797
			c0.0339966,0.0720215,0.0950012,0.1300049,0.1809998,0.1719971c0.0870056,0.0420227,0.2469788,0.0630188,0.4779968,0.0630188
			v0.1399841l-2.598999,0.0039978v-0.1389771c0.2359924,0,0.3970032-0.0230103,0.4809875-0.0670166
			c0.085022-0.0440063,0.1430054-0.1019897,0.177002-0.1719971c0.0339966-0.0710144,0.0500183-0.2449951,0.0500183-0.5220032
			l-0.007019-3.3259888c0-0.2780151-0.0169983-0.4519958-0.052002-0.5240173
			c-0.0339966-0.0709839-0.0929871-0.1289978-0.1789856-0.1719971c-0.0859985-0.0419922-0.2460022-0.0629883-0.4790039-0.0629883
			l-0.0010071-0.1400146l2.2290039-0.0039978c0.7349854-0.0010071,1.2619934,0.1289978,1.5809937,0.3900146
			c0.3210144,0.2609863,0.4810181,0.5889893,0.4810181,0.9819946c0.0009766,0.3330078-0.1020203,0.6170044-0.3070068,0.855011
			c-0.2050171,0.2369995-0.4899902,0.3989868-0.8519897,0.4849854
			C68.0509949,111.6555328,67.6380005,111.6865387,67.0570068,111.6875153"/>
		<path class="st0" d="M54.4290161,108.8914948h2.6419983v0.1420288h-0.132019
			c-0.1990051,0-0.3359985,0.0209961-0.4109802,0.0619812c-0.0740051,0.0419922-0.1270142,0.098999-0.15802,0.1719971
			c-0.0319824,0.072998-0.0480042,0.2550049-0.0480042,0.5469971v2.5080261c0,0.4589844,0.0350037,0.7619934,0.1040039,0.9109802
			c0.0690002,0.1480103,0.1830139,0.2720032,0.3410034,0.3699951c0.1589966,0.0980225,0.3580017,0.1470032,0.598999,0.1470032
			c0.2770081,0,0.5119934-0.0619812,0.7070007-0.1869812s0.3410034-0.2970276,0.4370117-0.5150146
			c0.0969849-0.2200012,0.144989-0.6009827,0.144989-1.144989v-2.0890198c0-0.2290039-0.0239868-0.3929749-0.0709839-0.4909973
			c-0.0480042-0.0979919-0.1080017-0.1659851-0.1820068-0.2030029c-0.1140137-0.0589905-0.2730103-0.0869751-0.480011-0.0869751
			v-0.1420288h1.7709961v0.1420288h-0.1049805c-0.1430054,0-0.2620239,0.0279846-0.3580017,0.0869751
			c-0.0950012,0.0570068-0.1640015,0.1440125-0.2070007,0.2600098c-0.0320129,0.0799866-0.0480042,0.2250061-0.0480042,0.4339905
			v1.9450073c0,0.6019897-0.0400085,1.0370178-0.1190186,1.3040161c-0.0789795,0.2669983-0.2729797,0.5119934-0.5789795,0.7369995
			c-0.3070068,0.2229919-0.7260132,0.3359985-1.257019,0.3359985c-0.4419861,0-0.7839966-0.0599976-1.026001-0.178009
			c-0.3299866-0.1610107-0.5619812-0.3670044-0.6989746-0.618988c-0.1350098-0.2530212-0.2030029-0.5910034-0.2030029-1.0169983
			v-2.5080261c0-0.2939758-0.0160217-0.4769897-0.0490112-0.5489807c-0.0329895-0.0710144-0.0889893-0.1289978-0.1700134-0.1719971
			c-0.0799866-0.0420227-0.2279968-0.0630188-0.4439697-0.0599976V108.8914948z"/>
		<path class="st0" d="M64.7060242,108.8914948v1.3840027h-0.1410217c-0.0809937-0.3190002-0.1699829-0.5489807-0.2680054-0.6879883
			c-0.0979919-0.1399841-0.2319946-0.2510071-0.4019775-0.3339844c-0.0950012-0.0450134-0.2620239-0.0680237-0.5-0.0680237
			h-0.3789978v3.9570007c0,0.2610168,0.0139771,0.4250183,0.0429993,0.4900208
			c0.0279846,0.0650024,0.0859985,0.1229858,0.1699829,0.17099c0.0840149,0.0490112,0.1990051,0.0740051,0.3450012,0.0740051
			h0.1700134v0.1419983h-2.677002v-0.1419983h0.1679993c0.1479797,0,0.2649841-0.0270081,0.3559875-0.07901
			c0.0650024-0.0360107,0.1150208-0.0960083,0.1539917-0.1820068c0.026001-0.0599976,0.0410156-0.2179871,0.0410156-0.473999
			v-3.9570007h-0.3699951c-0.3450012,0-0.5970154,0.072998-0.7530212,0.2189941
			c-0.2189941,0.2030029-0.3589783,0.4940186-0.4159851,0.8710022H60.105011v-1.3840027H64.7060242z"/>
	</g>
	<rect x="50.1650085" y="110.5175018" class="st0" width="2.1960144" height="0.7810059"/>
	<rect x="71.5220032" y="110.5175018" class="st0" width="2.196991" height="0.7810059"/>
	<polygon class="st5" points="63.1419983,26.493515 65.0309753,25.118515 62.696991,25.118515 61.9739685,22.8905182 
		61.2539978,25.118515 58.9189758,25.118515 60.8089905,26.4945221 60.0899963,28.7155304 61.9749756,27.3435211 
		63.8629761,28.7175446 	"/>
	<g>
		<path class="st5" d="M52.0559998,29.9644928c0,1.8440247-1.4900208,3.3380127-3.3300171,3.3380127
			c-1.8389893,0-3.3299866-1.493988-3.3299866-3.3380127c0-1.8439941,1.4909973-3.3369751,3.3299866-3.3369751
			C50.565979,26.6275177,52.0559998,28.1204987,52.0559998,29.9644928"/>
	</g>
	<polygon class="st5" points="82.7070007,36.1925201 81.947998,36.2525482 82.5569763,35.7955475 82.2659912,35.0915375 
		82.8889771,35.5295258 83.46698,35.0345306 83.242981,35.7635345 83.8909912,36.1615448 83.1309814,36.1725311 
		82.9529724,36.9135284 	"/>
	<polygon class="st5" points="41.8130188,38.2095184 41.5350037,38.9195404 41.3909912,38.1705475 40.631012,38.124527 
		41.2980042,37.7555389 41.1069946,37.0175323 41.6620178,37.5385284 42.3040161,37.1285248 41.9810181,37.8195343 
		42.5679932,38.3045197 	"/>
	<g>
		<path class="st5" d="M74.7490234,27.7245026c-0.2940063,0-0.5760193,0.053009-0.8380127,0.1460266
			c0.072998-0.007019,0.1440125-0.0220032,0.2189941-0.0220032c1.2080078,0,2.1879883,0.9819946,2.1879883,2.1940002
			c0,1.2099915-0.9799805,2.1929932-2.1879883,2.1929932c-0.5690002,0-1.0839844-0.223999-1.4729919-0.5809937
			c0.4519958,0.6739807,1.2210083,1.118988,2.0920105,1.118988c1.3909912,0,2.5189819-1.1300049,2.5189819-2.5249939
			C77.2680054,28.8545074,76.1400146,27.7245026,74.7490234,27.7245026"/>
	</g>
	<polygon class="st5" points="32.3800049,44.9505157 34.3519897,44.6165314 32.5610046,43.7245331 32.8519897,41.7405243 
		31.4530029,43.1735382 29.6579895,42.2805328 30.5869751,44.0585175 29.1869812,45.4915314 31.1619873,45.1575165 
		32.0879822,46.9315338 	"/>
	<polygon class="st5" points="71.2149963,40.0755157 72.696991,40.1015167 71.5139771,39.2065277 71.9959717,37.8015289 
		70.7809753,38.6545258 69.5939941,37.7585297 70.0299683,39.1805267 68.8149719,40.0335236 70.2989807,40.0595245 
		70.7329712,41.4775238 	"/>
	<polygon class="st5" points="55.5030212,42.2335052 57.0890198,41.717514 55.5039978,41.1995087 55.506012,39.5275116 
		54.5249939,40.8805084 52.9380188,40.3625336 53.9179993,41.716507 52.9400024,43.065506 54.5230103,42.5515289 
		55.5010071,43.9035187 	"/>
	<polygon class="st5" points="92.8529968,45.236496 94.9119873,45.5015106 93.4019775,44.0735016 94.289978,42.1915131 
		92.4679871,43.190506 90.9549866,41.7595062 91.34198,43.8075104 89.5189819,44.8065033 91.5809937,45.0735016 
		91.9659729,47.1155243 	"/>
</g>
</svg>
