<svg xmlns="http://www.w3.org/2000/svg" version="1.1" id="Capa_1" x="0" y="0" width="99.6" height="100" viewBox="0 0 99.6 100" xml:space="preserve"><g style="fill:#000" id="g2672" transform="translate(-6.59 -14.74) scale(.94108)"><path style="fill:#000" id="path2520" d="M83.37 96.15c-.54 0-.84.25-1.07.44-.23.19-.7.54-.73.31-.02-.23-.04-.19.21-.35.25-.17 1.2-.68.8-1.18-.4-.5-.9-.63-.86-1.05.04-.42.02-.3.02-.3s-.15.13-.27.11c-.13-.02-.44-.27-.44-.27s0 .19-.17.27c-.17.09-.48.04-.48.04s.15.25.06.48c-.08.24-.44.34-.58.8-.15.46-.02.8.69 1.45-1.05-.38-.99-.34-1.3-.34-.31 0-.7.08-.93.27.23.5.28.53.53.72.25.19.21.34 1.05.34.83 0 1.17-.66 1.34.37.08.44-.25.76-.03.84.23.09.78-.04.78-.67s-.17-.77.19-.77c.35 0 .48-.22.73-.49s.37-.35.6-.37c.23-.02.38.08.38.08s.02-.73-.52-.73z"/><rect style="fill:#000" id="rect2522" height="1.06" width=".23" y="93.71" x="87.82"/><rect style="fill:#000" id="rect2524" height="1.46" width=".32" y="91.83" x="89.05"/><path style="fill:#000" id="path2526" d="M80.02 92.34c.04.23.1.67.16.67s.02-.42.04-.53c.02-.12-.14-.8-.14-.8l.14-.03s.02-.04-.04-.31c-.2-.89-.02-.77.04-.8.06-.05.08-.1.27.46.14-1.31-.04-1.64-.14-1.74-.1-.1-.04-.41.06-.55.1-.15.08-.7.02-.65-.06.06-.41.26-.63.35-.21.1-.05.22.08.4.14.17.08.39.08.39s-.18.04-.41.04c-.23 0-.2 1.59-.2 1.59s.06-.12.24-.34c.17-.21.04.32.02.69-.02.37.06.47.2.47.13 0 .17.45.21.69z"/><path style="fill:#000" id="path2528" d="M77.26 89.24c-.23 0-.4-.04-.4-.04s-.07-.22.07-.4c.13-.18.3-.3.08-.4a3.29 3.29 0 0 1-.63-.35c-.06-.05-.08.51.02.65s.16.46.06.55c-.1.1-.27.43-.14 1.75.2-.57.22-.51.27-.47.06.04.24-.08.04.8-.05.28-.04.32-.04.32l.14.02s-.16.68-.14.8c.02.12-.02.53.04.53.07 0 .13-.43.16-.67.04-.23.08-.68.22-.68s.21-.1.2-.48c-.03-.37-.16-.9.01-.68.18.21.24.33.24.33s.04-1.58-.2-1.58z"/><path style="fill:#000" id="path2530" d="M91.22 85.02s-.63 0-.8 1.27c-.17 1.27-.59.88-.5.18.1-.7.58-1.83.34-2.08-.23-.25-.66.18-.87-.12-.02.46-.18.48-.3.55-.13.07-.49.15-.47.34.02.2.1.06.1.22s-.17.14-.17.29c0 .14.2.33.2.51s-.23.19-.47-.2c-.23-.4-.67-1.09-.83-.92-.16.16.07.46.12.59.05.12.36.87-.16 1.04-.21.05-.37.4.07.46.45.08.92.1 1.17.4.24.3.14.2-.03.28-.16.1-.53.24-.53.36 0 .13.07.8-.13 1.07s-.23.4-.35.5c.12.15.2.26.5.24.1-.41.5-.9.72-.86 0 0 .18-.1.18-.36 0-.27.15-.62.36-.62s.41.6.6.6c.2 0 .37.27.19.43-.18.16-.6.36-.38.56.22.2.39.22.78-.07.4-.29.1-.55.1-1.16 0-.62.2-1.87.3-2.18.18.04.3-.18.3-.32s-.1-.3-.1-.64c0-.35.07-.36.07-.36z"/><path style="fill:#000" id="path2532" d="M91.42 74.83c.1-.14.08-.74.02-.67-.06.06-.43.26-.66.36-.22.1-.06.23.08.42.15.18.09.41.09.41s-.19.04-.44.04c-.24 0-.2 1.68-.2 1.68s.06-.12.25-.35c.18-.23.04.33.02.72-.02.4.06.5.2.5.15 0 .19.47.23.72.04.25.1.7.16.7.07 0 .03-.43.05-.56.02-.12-.15-.84-.15-.84l.15-.02s.02-.04-.05-.34c-.2-.93-.02-.8.05-.84.06-.04.08-.1.28.5.15-1.4-.04-1.74-.14-1.85-.1-.1-.04-.43.06-.57z"/><path style="fill:#000" id="path2534" d="M88.16 75.4c-.25 0-.43-.04-.43-.04s-.07-.23.08-.42c.14-.19.3-.3.08-.41-.23-.1-.6-.31-.66-.37-.06-.07-.08.53.02.68.1.14.16.48.06.58-.1.1-.29.45-.14 1.84.2-.6.22-.54.28-.5.07.04.25-.08.05.85-.07.3-.05.33-.05.33l.15.02s-.16.73-.14.85c.02.12-.03.56.04.56.06 0 .12-.46.16-.7.05-.25.09-.73.23-.73.15 0 .23-.1.2-.5-.01-.39-.16-.94.03-.71.18.22.24.34.24.34s.04-1.67-.2-1.67z"/><path style="fill:#000" id="path2536" d="M75.02 78.01s-.63 0-.8 1.27c-.18 1.28-.6.9-.5.2.09-.71.57-1.84.34-2.09-.24-.25-.67.18-.88-.13-.02.47-.18.49-.3.56-.13.07-.48.14-.46.34.01.2.08.06.08.22s-.16.14-.16.28c0 .15.2.34.2.52s-.23.19-.47-.2c-.23-.4-.67-1.09-.83-.92-.17.16.07.46.12.59.05.13.36.88-.16 1.04-.21.05-.37.4.07.47.45.07.92.08 1.17.39.25.3.14.2-.02.28-.17.1-.54.24-.54.36 0 .13.07.8-.13 1.08-.2.27-.22.4-.35.5.12.14.2.25.5.23.1-.41.5-.9.73-.86 0 0 .17-.1.17-.36s.15-.63.36-.63c.22 0 .41.61.61.61s.36.27.18.44c-.18.16-.6.35-.38.55.22.2.4.22.79-.07.4-.29.09-.55.09-1.16 0-.61.21-1.87.3-2.17.18.03.3-.19.3-.33s-.1-.3-.1-.64c0-.35.07-.37.07-.37z"/><path style="fill:#000" id="path2538" d="M80.44 71.24s-.63 0-.8 1.28c-.18 1.27-.6.88-.5.18.09-.7.57-1.83.34-2.08-.23-.25-.67.18-.88-.13-.02.47-.18.49-.3.56-.13.07-.48.14-.46.34.01.2.09.06.09.22s-.17.14-.17.28c0 .15.2.34.2.52s-.23.19-.46-.2c-.24-.4-.68-1.09-.84-.93-.16.17.08.47.12.6.05.12.36.88-.16 1.04-.21.05-.37.4.08.46.44.08.91.09 1.16.4.24.3.14.2-.02.28-.16.1-.54.24-.54.36 0 .13.07.8-.13 1.07-.2.28-.22.4-.35.5.12.15.2.26.5.24.1-.41.5-.9.72-.86 0 0 .18-.1.18-.36 0-.27.15-.63.36-.63.22 0 .41.61.61.61s.36.27.18.43c-.18.17-.6.36-.38.56.22.2.4.22.79-.07.39-.29.09-.55.09-1.16 0-.61.2-1.87.3-2.17.18.03.3-.2.3-.33 0-.14-.1-.3-.1-.64 0-.35.07-.37.07-.37z"/><circle style="fill:#000" id="circle2540" r=".96" cy="20.72" cx="60.02"/><path style="fill:#000" id="path2542" d="M47.26 25.07c.12-.03.23-.03.36-.05a32.96 32.96 0 0 1-.48-3.52c.85 1.06 1.71 2.1 2.44 3.03.1-.05.18-.06.29-.07.26-1.3.56-2.59.87-3.88.38 1.14.8 2.27 1.13 3.46l.6-.18c.22-.05.43-.07.64-.1-.6-1.46-1.15-3.07-1.86-5.05-.1.04-.2.09-.31.11-.1.03-.22.03-.33.04-.27 1.43-.64 2.76-.94 3.96-.87-1.05-1.73-2.09-2.55-3.15-.1.04-.2.08-.3.1-.12.03-.22.03-.33.04.19 1.98.35 3.8.43 5.38.11-.05.21-.1.33-.12z"/><path style="fill:#000" id="path2544" d="M44.3 26.08c.1-.04.21-.05.32-.07.02-1.94.18-3.84.31-5.75a3.05 3.05 0 0 1-.67.23c.02 1.36-.04 2.74-.12 4.11-.86-1.06-1.77-2.1-2.55-3.19-.2.1-.42.19-.63.26-.21.08-.44.13-.66.19 1.27 1.43 2.5 2.87 3.7 4.36l.3-.14z"/><path style="fill:#000" id="path2546" d="M37.45 29.22l.3-.11-1.65-3.38 1.15.42c1.19.45 2.36.94 3.6 1.45l.6-.29-2.33-4.8a1.9 1.9 0 0 1-.56.28l1.59 3.27c-1.53-.64-3.08-1.2-4.6-1.8l-.69.34 2.32 4.78.27-.16z"/><path style="fill:#000" id="path2548" d="M29.64 35.22a7.8 7.8 0 0 0 1.3-1.65l-1.43-1.6c-.13.14-.26.29-.4.42l-.46.36 1.21 1.35c-.06.2-.2.47-.49.74-.87.79-1.92.64-2.82-.36-.87-.97-1.18-2.27-.22-3.14A1.8 1.8 0 0 1 28 30.9l.08-.07a2.78 2.78 0 0 1-.36-.73c-.65.14-1.2.45-1.7.9-1.33 1.2-1.72 2.88-.43 4.32 1.22 1.36 2.85 1 4.06-.1z"/><path style="fill:#000" id="path2550" d="M15.75 58.71l.07-.38c.03-.13.07-.24.12-.37a12 12 0 0 1-.7-.67l-.92-.97 2.17-.52c.04-.22.07-.44.12-.65.05-.22.13-.44.2-.65-1.08.23-2.08.52-3.09.8l-.2.05-1.02-1.18-.84-1a3.25 3.25 0 0 1-.18.75c.5.56 1.03 1.06 1.53 1.6-.68.16-1.36.35-2.05.48-.04.23-.07.46-.13.68-.05.23-.13.44-.2.66l3.15-.85c.66.7 1.3 1.44 1.97 2.22z"/><path style="fill:#000" id="path2552" d="M15.55 59.33l-.34-.01c-.1-.02-.22-.06-.32-.1-.01.48-.06 1.01-.17 1.8l-1.94-.31.12-.8c.06-.34.14-.65.22-.93l-.34-.01c-.1-.02-.21-.06-.32-.1 0 .3-.02.62-.08.96l-.13.8-1.64-.26c.1-.79.25-1.3.39-1.76-.11 0-.23 0-.34-.02-.1-.01-.22-.06-.32-.09l-.46 2.93 5.2.83z"/><path style="fill:#000" id="path2554" d="M16.8 82.55a7.81 7.81 0 0 0-1.01-1.85l-2.03.7c.08.18.16.35.23.54.06.18.1.37.15.56l1.71-.6c.16.15.36.38.48.74.39 1.12-.15 2.03-1.43 2.47-1.23.43-2.54.21-2.96-1.02-.2-.58-.12-1.2.25-1.7l-.04-.1c-.25.05-.54.06-.8.04-.13.66-.06 1.3.15 1.93.59 1.7 1.98 2.71 3.8 2.08 1.72-.59 2.02-2.24 1.5-3.8z"/><path style="fill:#000" id="path2556" d="M19.38 89.16l-.22-.54-4.78 2.34.3.5c.08.18.14.37.21.55l4.78-2.34-.3-.5z"/><path style="fill:#000" id="path2558" d="M20.14 90.72c-.09.07-.18.15-.27.2-.1.06-.2.1-.31.13.29.38.59.82.99 1.5l-1.7 1-.4-.7a6.8 6.8 0 0 1-.42-.87c-.1.07-.18.15-.27.2-.1.05-.21.1-.31.13.17.23.36.5.53.8l.4.7-1.43.83c-.41-.68-.62-1.16-.8-1.6l-.27.2-.31.13 1.47 2.56 4.57-2.64z"/><path style="fill:#000" id="path2560" d="M27.43 105.79c1.24-1.4-.77-2.61.06-3.53.36-.4.86-.32 1.21 0 .4.36.5.88.22 1.36l.12.1c.25-.22.53-.4.82-.59-.12-.42-.39-.8-.7-1.08-.9-.81-2-.85-2.67-.11-1.19 1.32.7 2.76 0 3.54-.3.33-.7.4-1.15 0-.33-.3-.37-.7-.21-1.1l-.09-.09c-.23.15-.46.29-.7.4.03.24.25.73.67 1.1.87.8 1.82.66 2.42 0z"/><path style="fill:#000" id="path2562" d="M32.17 104.7c-1.62 1.07-3.27 2-4.92 2.95a3.59 3.59 0 0 1 .57.43c1.1-.77 2.27-1.5 3.46-2.2-.4 1.32-.74 2.65-1.21 3.9.18.13.38.25.56.39.18.13.35.3.52.44.48-1.85.98-3.67 1.54-5.52-.1-.05-.2-.1-.29-.17a1.58 1.58 0 0 1-.23-.22z"/><path style="fill:#000" id="path2564" d="M44.35 111.56l-1.4 3.48-.46-1.14c-.46-1.18-.88-2.39-1.34-3.65l-.6-.26-2 4.95a2.12 2.12 0 0 1 .58.23l1.36-3.37c.54 1.57 1.17 3.1 1.74 4.63l.71.3 1.99-4.94-.3-.1c-.1-.03-.19-.09-.28-.13z"/><path style="fill:#000" id="path2566" d="M55.6 114.13l-.6 3.72-.69-1.01c-.72-1.05-1.4-2.13-2.13-3.26l-.64-.11-.84 5.27a2.43 2.43 0 0 1 .61.1l.57-3.6c.89 1.4 1.84 2.76 2.74 4.12l.76.12.82-5.26c-.1 0-.2 0-.3-.02l-.3-.07z"/><path style="fill:#000" id="path2568" d="M58.29 114.25l-.58-.07-.28 5.32c.2 0 .4-.02.58 0 .2 0 .4.04.58.06l.28-5.33c-.2.01-.39.02-.58.01z"/><path style="fill:#000" id="path2570" d="M71.07 112.95c.04.1.1.2.13.31.03.1.04.23.05.34.44-.2.93-.38 1.69-.6l.54 1.9-.77.22c-.34.1-.65.15-.94.2.05.1.1.2.13.3.03.1.04.23.06.34.26-.12.56-.24.9-.33l.77-.23.45 1.6c-.75.24-1.27.33-1.75.4.05.1.1.2.13.31.03.1.04.23.06.33l2.83-.81-1.45-5.1z"/><path style="fill:#000" id="path2572" d="M77.14 110.93c-.18.07-.37.13-.55.18l.96 2.39-.76.3c-.28.12-.59.2-.9.3.06.1.12.2.16.3l.1.32c.28-.16.56-.3.83-.42l.77-.3.62 1.54c-.75.3-1.24.45-1.7.57.06.1.12.2.16.3.04.1.06.22.09.32l2.74-1.1-2-4.95-.52.25z"/><path style="fill:#000" id="path2574" d="M82.02 109.85c-.27-.47-.03-.92.38-1.16.46-.27.98-.2 1.35.2l.13-.07a7.06 7.06 0 0 1-.3-.97c-.43-.02-.87.13-1.24.34-1.04.6-1.43 1.65-.93 2.51.89 1.55 2.83.2 3.35 1.1.22.39.17.78-.36 1.1-.38.21-.76.13-1.1-.15l-.1.06c.06.27.12.53.16.8.23.05.77-.02 1.25-.3 1.02-.59 1.18-1.54.74-2.31-.94-1.63-2.71-.08-3.33-1.15z"/><path style="fill:#000" id="path2576" d="M86.06 105.93c-.08.07-.19.1-.29.16.52 1.87.89 3.73 1.28 5.61a3.06 3.06 0 0 1 .58-.4c-.39-1.3-.71-2.65-1-4 1.1.8 2.27 1.53 3.31 2.37.18-.15.36-.3.54-.43.18-.13.39-.24.58-.36-1.6-1.03-3.18-2.06-4.75-3.17-.08.08-.15.15-.25.22z"/><path style="fill:#000" id="path2578" d="M92.02 100.9l-.25.2 2.51 2.8-1.22-.1c-1.27-.1-2.52-.25-3.86-.39l-.5.44 3.56 3.96a2 2 0 0 1 .46-.41l-2.43-2.7c1.65.2 3.3.3 4.92.45l.56-.52-3.54-3.95-.21.23z"/><path style="fill:#000" id="path2580" d="M93.65 99.12c-.13.15-.28.28-.42.4l3.95 3.58c.11-.16.23-.32.35-.46.13-.15.28-.27.42-.4l-3.94-3.58c-.12.16-.23.32-.36.46z"/><path style="fill:#000" id="path2582" d="M100.79 97.51c-.2.36-.45.78-.78 1.22l-3.8-2.87c-.11.16-.2.33-.33.48-.11.16-.25.3-.38.44l3.8 2.88c-.28.38-.6.72-.91 1.05.1.05.2.1.29.17l.23.23 2.4-3.2c-.1-.05-.2-.1-.28-.16-.1-.08-.17-.16-.24-.24z"/><path style="fill:#000" id="path2584" d="M99.96 90.12c-.05.09-.12.18-.18.26l3.21 1.94-1.19.27c-1.24.27-2.49.5-3.8.76l-.35.56 4.55 2.75a2.47 2.47 0 0 1 .32-.53l-3.1-1.88c1.62-.3 3.23-.68 4.82-1l.4-.66-4.54-2.74-.14.27z"/><path style="fill:#000" id="path2586" d="M100.6 88.83l.33.1c.1.04.2.11.29.17.13-.46.31-.95.63-1.69l1.8.8-.34.75c-.14.32-.3.6-.45.84l.33.1.28.17c.09-.27.19-.58.33-.9l.32-.74 1.53.69c-.31.73-.58 1.18-.83 1.6.1.02.22.05.32.1.1.04.2.1.29.17l1.2-2.7-4.82-2.16z"/><path style="fill:#000" id="path2588" d="M102.22 85.12c.1.02.22.04.32.08.1.03.2.09.3.14.13-.52.26-1.08.48-1.72l4.46 1.54c.05-.19.09-.38.15-.56.07-.19.15-.36.23-.54l-4.99-1.73z"/><path style="fill:#000" id="path2590" d="M104.82 74.34a1.7 1.7 0 0 1-.1.32c1.7.93 3.3 1.96 4.92 2.98a3 3 0 0 1 .11-.7 50.4 50.4 0 0 1-3.56-2.04c1.34-.27 2.67-.59 4-.76l.07-.69c.03-.22.1-.45.15-.67-1.86.45-3.7.87-5.58 1.23l-.01.33z"/><path style="fill:#000" id="path2592" d="M105.1 67.6c.03.2.06.4.07.59v.58l5.3-.28a5.4 5.4 0 0 1-.07-.58v-.58z"/><path style="fill:#000" id="path2594" d="M104.92 63.85c.02.11.05.22.05.33 0 .11 0 .22-.02.33 1.85.56 3.62 1.23 5.42 1.89a3.04 3.04 0 0 1-.04-.72c-1.3-.35-2.6-.79-3.9-1.25 1.26-.53 2.5-1.12 3.75-1.57-.02-.23-.06-.46-.07-.68v-.69a121.5 121.5 0 0 1-5.2 2.36z"/><path style="fill:#000" id="path2596" d="M98.22 44.52c.08-.07.16-.16.25-.22l.3-.16a14.5 14.5 0 0 1-1.12-1.4l1.61-1.14.46.66c.2.29.36.57.5.82l.24-.22.3-.16a7.2 7.2 0 0 1-.6-.74l-.47-.67 1.37-.95c.46.64.71 1.1.93 1.53.09-.07.17-.16.26-.22.09-.07.2-.11.29-.16l-1.7-2.43-4.31 3.04z"/><path style="fill:#000" id="path2598" d="M88.34 33.38c.08.06.15.15.22.22l2.5-2.8.04 1.23c.03 1.27.02 2.55.02 3.9l.48.44 3.56-3.96a2.13 2.13 0 0 1-.46-.41l-2.43 2.7c.03-1.67-.04-3.32-.06-4.95l-.57-.52-3.54 3.95.24.2z"/><path style="fill:#000" id="path2600" d="M79.05 27.6l.36.15.33.2c.2-.14.53-.37.81-.53l1.14-.68c.01.74.03 1.48.02 2.24a5.46 5.46 0 0 1 1.2.61c0-1.11-.05-2.15-.09-3.2v-.2c.46-.25.9-.5 1.37-.74l1.15-.6a3.38 3.38 0 0 1-.68-.35c-.65.37-1.26.77-1.9 1.14 0-.7-.03-1.4 0-2.11-.22-.1-.43-.17-.63-.28-.21-.1-.4-.23-.6-.35l.12 3.27c-.84.49-1.69.95-2.6 1.43z"/><path style="fill:#000" id="path2602" d="M78.6 27.01c.04-.1.1-.2.16-.3a14.6 14.6 0 0 1-1.7-.57l.74-1.83.75.3c.32.14.6.28.85.43.03-.1.05-.23.09-.33.04-.1.1-.2.16-.3a7.08 7.08 0 0 1-.9-.29l-.75-.3.62-1.55c.74.28 1.2.54 1.62.77.02-.1.05-.22.09-.32.04-.1.1-.2.16-.3l-2.74-1.1-1.97 4.9 2.73 1.11c.03-.1.05-.22.09-.32z"/><path style="fill:#000" id="path2604" d="M74.84 25.39l.12-.32c-.53-.07-1.1-.16-1.75-.32l1.14-4.6c-.2-.03-.38-.05-.57-.1-.19-.05-.37-.12-.56-.18l-1.27 5.14 2.85.7c0-.1.01-.22.04-.32z"/><path style="fill:#000" id="path2606" d="M59.91 15.67C30.7 15.67 7 39.45 7 68.8c0 29.34 23.69 53.13 52.91 53.13 29.23 0 52.92-23.79 52.92-53.13 0-29.35-23.7-53.13-52.92-53.13zm0 105.16C31.3 120.83 8.1 97.53 8.1 68.8c0-28.74 23.2-52.04 51.82-52.04 28.63 0 51.83 23.3 51.83 52.04s-23.2 52.03-51.83 52.03z"/><path style="fill:#000" id="path2608" d="M66.96 23.96c.23-.5.5-.95.79-1.5l1.78.28c.13.55.2 1.1.3 1.7.22.01.43.02.66.06.22.03.43.1.65.14l-1.3-5.68a1.93 1.93 0 0 1-.58-.09l-3.02 4.98c.12 0 .25.01.37.03l.35.08zm2.07-3.61l.4 1.9-1.4-.23z"/><path style="fill:#000" id="path2610" d="M83.68 29.97c.1.07.18.16.28.24.44-.34.88-.6 1.4-.96l1.43 1.09c-.14.54-.33 1.06-.53 1.63l.55.37c.18.14.34.29.51.44l1.52-5.63a1.75 1.75 0 0 1-.47-.35l-5 2.97.3.2zm3.8-1.98l-.54 1.86L85.8 29z"/><path style="fill:#000" id="path2612" d="M94.05 39.03c1.06 1.19 2.66 1.41 3.96.24.94-.86 1.34-2.14.28-3.42l-1.77-1.98-3.92 3.55zm2.91-3.99l.51.57c.73.81.77 1.71-.31 2.7-1.35 1.2-2.3.96-3 .16l-.45-.49z"/><path style="fill:#000" id="path2614" d="M99.02 45.9c.1.18.17.36.26.53l2.15-1.24.03.04c-.17.3-.37.67-.5.87l-.94 1.62.38.58c.12.21.22.43.32.64l.26-.5c.4-.77.77-1.55 1.2-2.3.5.56 1.16.74 1.81.36.46-.27.65-.64.63-1.14-.02-.37-.32-.86-.5-1.17l-.82-1.43-4.6 2.66.32.49zm4.5-1.92c.23.4.58.88.08 1.31-.13.1-.22.18-.32.23-.69.4-1.22.24-1.56-.5z"/><path style="fill:#000" id="path2616" d="M102.14 52.27l.15.57 2.2-.77c.46 1.33 1.07 2.19 2.37 1.74.83-.3 1.05-.98.7-2l-.63-1.81-5.02 1.74c.08.17.17.35.23.53zm4.78-1.03l.16.45c.13.38-.16.82-.74 1.02-.45.16-.93.13-1.22-.3-.1-.15-.16-.32-.22-.48z"/><path style="fill:#000" id="path2618" d="M103.53 56.48c.05.19.07.38.1.58l2.27-.53c.31 1.36.83 2.28 2.17 1.97.85-.2 1.14-.86.9-1.92l-.43-1.86-5.17 1.2c.06.19.12.37.16.56zm4.87-.53l.1.47c.1.4-.23.8-.84.94-.46.1-.93.02-1.18-.44a2.75 2.75 0 0 1-.17-.49z"/><path style="fill:#000" id="path2620" d="M104.53 77.01l-.11.35c.48.27.9.58 1.42.92l-.43 1.76c-.56.07-1.1.1-1.7.14l-.13.66c-.05.22-.13.42-.2.64l5.75-.8a1.72 1.72 0 0 1 .14-.57l-4.67-3.47-.07.37zm1.72 1.59l1.58 1.14-1.92.23z"/><path style="fill:#000" id="path2622" d="M69.46 113.33l-.58.06.43 2.46h-.05l-.65-.75-1.19-1.45c-.22.06-.45.12-.68.16-.23.04-.47.06-.7.08l.38.42c.59.64 1.18 1.26 1.73 1.92-.68.27-1.08.84-.95 1.59.1.52.38.82.86.97.35.12.9 0 1.26-.06l1.63-.29-.93-5.25-.56.14zm-1 4.53a1.97 1.97 0 0 1-.1-.37c-.14-.8.2-1.25 1-1.3l.37 2.04c-.47.08-1.03.24-1.26-.37z"/><path style="fill:#000" id="path2624" d="M62.96 114.2c-1.58.07-2.76 1.18-2.67 2.93.07 1.28.81 2.4 2.47 2.37l2.64-.14-.27-5.29zm.5 4.82c-1.09.06-1.8-.48-1.88-1.94-.1-1.82.69-2.4 1.75-2.45l.66-.04.23 4.39z"/><path style="fill:#000" id="path2626" d="M49.93 113.18c-.27.49-.58.9-.92 1.43l-1.75-.44c-.07-.55-.1-1.1-.14-1.7-.22-.04-.44-.07-.66-.13-.21-.05-.42-.13-.63-.2l.8 5.77c.1.01.19.02.28.05.1.02.19.06.28.1l3.45-4.7c-.12-.02-.25-.03-.36-.06l-.35-.12zm-2.38 3.42l-.23-1.92 1.38.34z"/><path style="fill:#000" id="path2628" d="M37.3 108.26c-1.35-.82-2.94-.57-3.84.94-.66 1.1-.67 2.44.72 3.35l2.27 1.37 2.72-4.54zm-1.61 4.67l-.65-.4c-.94-.56-1.23-1.4-.48-2.66.93-1.56 1.9-1.6 2.82-1.05l.56.34z"/><path style="fill:#000" id="path2630" d="M23.97 96.55c-.98-1.25-2.55-1.59-3.93-.5-1 .78-1.5 2.03-.52 3.38l1.63 2.1 4.16-3.26zm-3.18 3.78l-.47-.6c-.67-.86-.64-1.76.5-2.66 1.43-1.12 2.35-.81 3.01.04l.4.52z"/><path style="fill:#000" id="path2632" d="M15.61 78.73l-.06-.58-2.45.43v-.05l.75-.65 1.44-1.2c-.05-.22-.12-.44-.16-.68-.04-.23-.06-.47-.08-.7l-.42.38c-.63.59-1.25 1.19-1.9 1.74-.28-.69-.84-1.09-1.59-.96-.52.1-.82.39-.97.87-.11.35 0 .9.06 1.26l.29 1.64 5.23-.93-.14-.57zm-4.88.27c-.08-.47-.24-1.03.37-1.27.15-.06.27-.08.37-.1.79-.14 1.24.19 1.3 1z"/><path style="fill:#000" id="path2634" d="M14.88 74.94l-.04-.37v-.37c-.54-.12-1.03-.29-1.62-.46l-.1-1.8c.5-.25 1.02-.43 1.59-.65-.03-.22-.07-.44-.08-.66v-.67l-5.26 2.45a1.7 1.7 0 0 1 .04.6zm-2.22-2.8l.07 1.42-1.84-.64z"/><path style="fill:#000" id="path2636" d="M14.6 66.57l.08-.57-2.48-.18.01-.05.9-.45 1.68-.8v-.7l.1-.71-.5.27c-.76.41-1.5.84-2.27 1.22-.1-.73-.55-1.26-1.3-1.3-.53-.05-.9.16-1.16.59-.2.31-.22.88-.24 1.24L9.3 66.8l5.3.37v-.59zm-2.73-.77l-2.07-.15c.04-.47.01-1.06.66-1.14.17-.02.29-.02.4 0 .79.05 1.15.48 1.01 1.29z"/><path style="fill:#000" id="path2638" d="M18.84 49.48c.05-.11.12-.21.18-.32-.4-.38-.74-.77-1.18-1.21l.82-1.62c.56.05 1.1.15 1.7.25.08-.21.16-.41.26-.62.1-.2.22-.38.34-.58l-5.78-.52a1.76 1.76 0 0 1-.26.53l3.77 4.43.15-.34zm-2.6-3.41l1.92.2-.65 1.27z"/><path style="fill:#000" id="path2640" d="M21.77 44.13l.38-.44-1.98-1.5.03-.04.99.11 1.85.25c.13-.2.25-.4.4-.59.13-.2.3-.36.44-.54l-.56-.05c-.85-.06-1.71-.1-2.56-.21.3-.67.22-1.35-.39-1.81a1.15 1.15 0 0 0-1.29-.13c-.33.16-.66.62-.88.91l-.99 1.32 4.24 3.21c.1-.16.2-.33.32-.48zm-3.53-3.4c.29-.37.59-.88 1.17-.59.15.07.25.14.34.2.63.49.7 1.04.15 1.65z"/><path style="fill:#000" id="path2642" d="M23.99 40.89c.08-.1.17-.17.26-.26-.3-.47-.53-.93-.83-1.48l1.2-1.34c.53.19 1.03.42 1.58.67.14-.17.26-.35.41-.52.15-.17.32-.31.48-.47l-5.45-2a1.64 1.64 0 0 1-.4.44l2.52 5.25.23-.3zm-1.64-3.97l1.8.7-.94 1.06z"/><path style="fill:#000" id="path2644" d="M34.02 31.68c1.55-1.1 1.76-2.82.9-4.06-.7-.98-2.13-1.89-3.94-.62-1.58 1.12-1.78 2.79-.9 4.05 1.01 1.45 2.53 1.61 3.94.63zm-2.8-4.27c.94-.67 1.98 0 2.56.83.73 1.06.98 2.35 0 3.03-.95.67-1.94.06-2.52-.77-.99-1.43-.93-2.47-.05-3.09z"/><path style="fill:#000" id="path2646" d="M103.96 68.8c0-24.43-19.72-44.23-44.05-44.23-24.32 0-44.04 19.8-44.04 44.23 0 24.42 19.72 44.22 44.04 44.22 24.33 0 44.05-19.8 44.05-44.22zM59.9 111.93c-23.72 0-42.95-19.31-42.95-43.13 0-23.82 19.23-43.13 42.95-43.13a43.04 43.04 0 0 1 42.96 43.13c0 23.82-19.23 43.13-42.96 43.13z"/><path style="fill:#000" id="path2648" d="M64.3 39.52c1.86-.47 3.32-1.28 4.03-2.29.03-.05.04-.1.04-.14l.36-.25a.49.49 0 0 0 .12-.67l-.2-.3a.3.3 0 0 0 .02-.08l.09-.77c1.14-1.52 2.77-2.6 4.3-3.7l-.22-.41s-.77.3-1.32.43c-.3.08-.6.12-.91.12-.06-.37-.21-.8-.55-1-.94-.56-2.4-.2-2.13 1.07l.06.24s.3-.05.45-.04c.08 0 .18.01.26.04.27.21-.34 1.3-1.04 1.26-.86-.05-1.52-.72-1.77-1.52a1.42 1.42 0 0 0-.78-2.6 1.42 1.42 0 0 0-.96 2.46l-.07.16c-.25.47-.67.99-1.25 1-1.54.05-1.46-2.27 0-2.2.23 0 .6.2.6.2l-.1-.48s-.01-.11-.06-.27c-.25-.78-.82-1.37-1.7-1.4 0 0-.36-1.38-1-2.15-.46.53-1.03 2.16-1.03 2.16-.88.02-1.45.6-1.7 1.39l-.06.27-.09.47s.36-.19.6-.2c1.45-.06 1.53 2.25 0 2.21-.6-.01-1.01-.53-1.26-1l-.07-.16A1.42 1.42 0 0 0 56 28.9a1.42 1.42 0 0 0-.78 2.61c-.25.8-.91 1.46-1.77 1.52-.7.04-1.31-1.05-1.04-1.26.07-.03.18-.03.26-.04.14-.01.44.06.44.06l.07-.26c.28-1.27-1.2-1.63-2.13-1.07-.34.2-.49.63-.55 1-.3 0-.62-.04-.92-.12a15 15 0 0 1-1.3-.43l-.23.41c1.52 1.1 3.16 2.18 4.3 3.7l.08.7a.41.41 0 0 0-.09.13l-.23.44a.48.48 0 0 0 .2.65l.46.25c0 .04.02.08.05.12.73.98 2.16 1.76 3.98 2.22L44.06 52.3l16.5 16.57 16.49-16.56zM48.48 55.74l-3.41-3.42 3.4-3.43zm6.78 6.82l-3.28-3.3V45.37l3.28-3.3zM67.5 35.9a.5.5 0 0 0-.12.68 16 16 0 0 0-2.86-.9l.37-.22c.23-.14.3-.43.18-.65l-.1-.17c1.09.25 2.08.59 2.92 1zm-14.67-1l-.05-.1c-.86-1.21-2.26-2.19-3.43-3.06.33.07.61.15 1.02.2.39.04.44.01.59.01v-.24c0-.04.05-.67.35-.84.42-.26 1.43-.35 1.43.38h-.1l-.25.04c-1.1.22-.2 2.3 1.1 2.21 1-.06 1.66-.66 2.06-1.53.13-.26.2-.74.2-.74a.95.95 0 0 1 .26-1.85.94.94 0 0 1 .5 1.75l-.12.08s.1.22.12.3c.28.72.95 1.48 1.77 1.5 2.14.05 2.06-3.1.05-3.18.14-.39.5-1.02 1.36-.97l.16.02s.39-1.43.75-1.85c.4.66.68 1.85.68 1.85l.16-.02c.86-.05 1.21.58 1.35.97-2 .09-2.08 3.23.06 3.18.81-.02 1.49-.78 1.76-1.5l.13-.3-.12-.08a.95.95 0 0 1 .5-1.75c.52 0 .94.42.94.95 0 .43-.29.79-.68.9 0 0 .07.48.2.74.4.88 1.06 1.47 2.06 1.53 1.3.08 2.19-1.99 1.1-2.2a1.74 1.74 0 0 0-.26-.04h-.1c0-.74 1.01-.65 1.44-.4.3.19.34.8.35.85l.02.2.16.02h.4c.22 0 .52-.03.84-.11-1.17.88-2.38 1.77-3.25 2.97l-.04.12-.05.37a17.68 17.68 0 0 0-7.69-1.59c-3 0-5.72.6-7.7 1.6zm8.3-.64l-.11-.09c.97.02 1.9.1 2.78.25l-.07.04a.48.48 0 0 0-.17.65l.24.42c-.91-.16-1.88-.26-2.89-.27l.27-.33c.17-.2.14-.5-.06-.67zm-3.63.23l-.14-.08c.81-.12 1.67-.2 2.55-.23l-.16.2c-.17.2-.15.5.05.66l.26.22c-.9.03-1.77.12-2.6.27l.21-.39a.48.48 0 0 0-.17-.65zm-4.4 1.21a14 14 0 0 1 3.2-1.09l-.14.23a.48.48 0 0 0 .18.65l.33.2c-1.13.24-2.18.59-3.09 1l.08-.15a.48.48 0 0 0-.2-.65zm4.1 3.43c-1.69-.39-3.03-1.05-3.77-1.85l.45-.2c.96.68 2.32 1.2 3.9 1.48zm5.15 26.95l-1.79 1.79-1.78-1.79V38.56l1.78-1.8 1.79 1.8zm-1.79-30.32l-2.37 2.38a10.4 10.4 0 0 1-3.78-1.28 17.34 17.34 0 0 1 6.2-1.13c2.32 0 4.46.46 6.2 1.13-.97.6-2.3 1.05-3.87 1.29zm2.8 2.81c1.6-.28 3-.8 3.98-1.49l.37.17c-.74.8-2.09 1.48-3.8 1.87zm5.78 20.7l-3.28 3.29V42.08l3.28 3.3zm3.5-10.38l3.41 3.43-3.4 3.42z"/><rect style="fill:#000" id="rect2650" height="1.05" width=".23" y="79.97" x="79.79"/><rect style="fill:#000" id="rect2652" height="1.05" width=".23" y="79.97" x="77.2"/><rect style="fill:#000" id="rect2654" height="1.46" width=".32" y="78.09" x="78.43"/><rect style="fill:#000" id="rect2656" height="1.06" width=".23" y="73.03" x="74.1"/><rect style="fill:#000" id="rect2658" height="1.06" width=".23" y="73.03" x="71.51"/><path style="fill:#000" id="path2660" d="M94.6 62.86l-.5-.04c-1.48-.13-4.02-.51-3.98 1.76 1.15-.33 1.55.8.24.8-.6 0-.68-.9-.69-1.31.51-.48.65-1.47-.33-1.47-.25 0-.5.19-.78.35-.08-.39-.29-.62-.69-.8.03-.57-.06-1.16-.55-1.54-.54.25-.92.75-1 1.35-.57.04-1.06.3-1.06 1.05v.19h.19c1.94 0 .06 2.81-.58-.07 1.18-.57-.26-2.3-.97-1.32-.36.51-.2.98.23 1.29-.08 1.7-2.3 1.27-2.3.22 0-1.53.83-.19 1.08.31l.17-.3c.47-.85.67-3.06-.94-2.41 0-.51-.3-1.59-.86-1.83-.6.37-.76 1.1-.82 1.74-.76-.33-1.31.33-1.19 1.03l.04.3c.1.67.23 1.2.4 1.84l.2-.63c.2-.65.82-1.19.9.02.02.44-1.6 1.95-2.25-.29 1.08-.61-.4-2.37-1.16-1.13a.73.73 0 0 0-.08.64 1.18 1.18 0 0 0-1.02-.67c-.1-.5-.46-1.16-1.01-1.3-.53.27-.55 1.05-.55 1.57l-.49.27c-.11.25-.19.44-.24.63a.74.74 0 0 0-.72-.52c-.96 0-1.1 1.3-.28 1.56a2.9 2.9 0 0 1-.26 1.02c-.45.86-2.11-.9-.78-.77.13 0 .18.1.25.18.17.2.63.28.43-.16a3.61 3.61 0 0 1-.1-.2l-.05-.16-.08-.19c-.6-1.53-2.61-1.2-3.9-1h-.03l.01.04-.17.27c1.33.85 2.48 2.06 2.37 3.76l-.1.03c-.33.1-.26.52 0 .6a.44.44 0 0 0-.09.07l-.37.37c-.2.2-.2.53 0 .73l.37.38c.07.07.15.11.24.14l-.4.12h-.44l-.02 18.93c0 3.32.35 4.48 2.19 6.6 1.98 2.3 5.1 4.01 5.9 4.38.74.34 2.4 1.08 3.26 1.08 1.97 0 6.09-2.82 7.5-4.07a15.03 15.03 0 0 0 3.1-3.82l.03-.05c.16-.35.27-.67.42-1.1.08-.23.13-.48.16-.72h.01l-.02-21.23h-.32l-.28-.13a.45.45 0 0 0 .25-.14l.38-.37c.2-.2.2-.53 0-.73l-.38-.38a.53.53 0 0 0-.12-.09c.24-.08.31-.48.01-.59-.49-1.63 1.59-3.34 2.63-4.09zm-6.28.77c.23.06.43.24.46.45.05.27-.47.7-.85.7-.4 0-1.38-1.13.08-1.24v.02l.12.03zm-4.11-1.6c.3-.4 1.28.5.27.85-.32-.21-.55-.45-.27-.84zm-6.5.13c.41-.66 1.33.33.42.68-.26-.1-.63-.33-.41-.68zm-.48 1.05h.21l-.02-.2a1.2 1.2 0 0 0-.07-.33c.08.17.22.3.4.4-.04 1.62-.8 1.46-1.2 1.15-.46-.37-.62-1.03.68-1.02zm-3.27.63c.47-.26 1.33-.64 1.34.3 0 .91-1.28.77-1.45-.14l.11-.15zM70.8 91.13c-.22-.89-.27-1.83-.27-2.92v-4.55h.27zm1.22 2.6c-.22-.3-.4-.6-.57-.9v-9.16h.58zm1.23 1.42l-.57-.6V83.64h.57zm1.25 1.11l-.6-.5v-12.1h.6zm1.16.89l-.5-.37V83.65h.47l.03.09zm.09-13.77h-5.22v-6.79h5.22V70h5.46v6.61h-5.46zm4.51-16.14l.38.38.05.04a33.9 33.9 0 0 0-4.09.32l.35-.35c.2-.2.2-.53 0-.73l-.38-.38a.52.52 0 0 0-.28-.14c1.53-.22 3.09-.35 4.59-.38a.52.52 0 0 0-.24.14l-.38.37c-.2.2-.2.53 0 .73zm.77 1.04c1.76 0 3.97.02 5.47.27 1.2.2 2.58.46 3.85.84h-17.7c2.72-.7 5.6-1.1 8.38-1.1zm4.97-.69l.3.3a39.7 39.7 0 0 0-4.98-.22l.05-.05.37-.37c.2-.2.2-.53 0-.73l-.37-.38a.5.5 0 0 0-.26-.14h.5c1.88 0 3.56.12 5.09.34a.52.52 0 0 0-.32.15l-.38.38a.5.5 0 0 0 0 .72zm3.47 9.03l2.37-5.94.01 11.9zm2.38 6.42v.34h-.3v-1.1zm-.9-2.26v2.6h-.63V79.2zm-4.2 2.17l.02-12.65 2.52 6.32zm1.8-4.03v4.46h-.64V80.5zM87.31 82v1.38h-.55zm-.49-12h.5v1.23zm1.1 2.74V70h.63v4.32zm1.24 3.11V70h.55v5.57l-.34.82zm0 1.54l.22-.54.33.83v5.7h-.55zm1.16-3.35V70h.63v2.46zm1.23-3.09V70h.3v.24zm-.17-3.31L91 68c-.2.2-.2.52 0 .73l.3.3c-1.34-.48-2.88-.8-4.26-1.03a.52.52 0 0 0 .05-.05l.38-.38c.2-.2.2-.53 0-.73l-.38-.38a.53.53 0 0 0-.17-.11c1.76.26 3.32.65 4.72 1.13-.1.02-.2.06-.27.14zM83.93 87.2c-.23 0-.43.2-.43.2v2.49h-1.7v-.66h.44v-4.01h.66v.98h.32v-2.06h1.3v2.06h.36v-.98h.64v4h.43v.67h-1.7V87.4s-.09-.2-.32-.2zm-1.5-3.83V70h.6v13.38zm1.26 0V70h.59v13.38zm1.26 0V70h.58v13.38zM81.77 70v13.38h-.41V69.99zm-6.3-2.37l.37.38.08.07c-1.6.24-3.18.6-4.66 1.03l.36-.36a.5.5 0 0 0 0-.72l-.38-.38a.5.5 0 0 0-.26-.14c1.51-.46 3.23-.83 5-1.09a.58.58 0 0 0-.14.1l-.38.38c-.2.2-.2.53 0 .73zm-4.19 7.79V71.4h.67v.98h.32v-2.06h1.3v2.06h.35v-.98h.65v4.01H75v.66h-1.7v-2.49s-.09-.2-.32-.2-.43.2-.43.2v2.49h-1.71v-.66zm7.3 15.22l2.55-6.39v6.39a6.07 6.07 0 0 1-1.28 3.15zm1.14 3.31l-.3.4v-1.17zm-3.2-10.93v-.66h.45v-4.01h.66v.98h.32v-2.06h1.3v2.06h.36v-.98h.64v4.01h.43v.66h-1.7v-2.49s-.08-.2-.32-.2c-.23 0-.43.2-.43.2v2.49zm1.07.64v4.5l-.62-1.57v-2.93h.62zm3.44 0v.45l-.38.96.01-1.4h.38zm-1 0v2.94l-.6 1.5v-4.43h.6zm-1.83 0h.61v5.97l-.31.78-.3-.74zm.57 7.9v3.53c-.18.2-.37.38-.56.57v-4.08l.28-.71zm-2.41-7.9v1.4l-.54-1.34v-.06zm-.54.5l2.58 6.48-2.58 6.41zm1.76 8.98v3.08l-.59.47v-2.1zm-1.69 4.18l.48-1.17v.98c-.14.1-.26.17-.39.24zm5.36 2.44c-.7 0-2.2-.65-3.01-1.02-.34-.16-1.15-.61-2.1-1.26 2.06-1.24 4.58-3.84 5.08-6.23.37 1.7 1.88 3.68 3.44 5.1a11.7 11.7 0 0 0 1.46 1.15c-1.67 1.11-3.74 2.26-4.87 2.26zm5.3-2.55l-.28.19a12.2 12.2 0 0 1-1.11-.85l.22-.15c.4-.28.09-.55.09-1.16 0-.6.2-1.86.3-2.17.18.04.3-.18.3-.32s-.1-.3-.1-.64c0-.35.07-.36.07-.36s-.63 0-.8 1.27c-.18 1.27-.6.88-.5.18.09-.7.57-1.83.34-2.08-.24-.25-.67.18-.88-.12-.02.46-.18.48-.3.55-.13.07-.48.14-.46.34.01.2.08.06.08.22s-.16.14-.16.29c0 .14.2.33.2.51s-.23.19-.47-.2c-.23-.4-.67-1.09-.83-.93-.16.17.07.48.12.6.05.12.32.77-.05.99a5.76 5.76 0 0 1-1.03-2.73h5.25zm.03-13.83h-.38V70h.38zm4.3 9.52c-.35.54-.78 1.1-1.27 1.66v-.33s-.09-.2-.32-.2-.43.2-.43.2v1.12a13.11 13.11 0 0 1-1.63 1.37h-.08v-.66h.44v-4.01h.67v.98h.32v-2.05h1.3v2.06h.35v-.99h.65zm.97-2.28h-5.26v-.5.2-6.69h5.25zm-.29-23.8a31.57 31.57 0 0 0-9.97-1.5c-3.5 0-7.39.6-10.5 1.51.03-1.53-.88-2.79-2.08-3.65 1.08-.16 2.6-.3 3.07.86h-.09c-2.1-.2.14 3.16 1.1 1.31.24-.48.3-.99.31-1.52-.67-.07-.75-.85-.11-.85.54 0 .4.68.16.87.16 1.68 2.23 1.67 2.22.29 0-.93-.71-1.1-1.31-.91.05-.16.11-.31.18-.47l.58-.33c0-.34-.01-1.1.22-1.37.41.23.6.87.6 1.3.44-.06.88 0 1.06.48-1.52.1-1.31 1.19-.68 1.7.71.57 1.8.4 1.81-1.54.86 3.08 3.1 1.18 3.05.37-.06-1.03-.8-1.56-1.37-.68l-.1-.62-.08-.5c.05-.28.37-.7.87-.26l.3.26c.02-.58.05-1.6.5-2.02.34.42.49 1.38.46 1.91l.27-.1c1.33-.74 1.11.77.86 1.47-.63-.89-1.45-.82-1.45.5 0 1.52 2.89 1.98 3.06-.13.93 3.82 3.65-.16 1.15-.37.07-.36.36-.49.84-.48h.19v-.2c0-.39.25-.85.58-1.07.27.33.24.94.2 1.33.41.15.7.25.74.73l-.07.03c-1.63.14-1.69 1.99-.2 1.99.95 0 1.79-1.24.71-1.8.16-.09.54-.37.7-.37.69 0 .21.7-.05.91v.1c0 .66.17 1.77 1.07 1.77 1.7 0 1.33-1.77.15-1.66.18-1.2 2.2-1.03 3.07-.95-.92.79-2.27 2.2-2.02 3.66z"/><rect style="fill:#000" id="rect2662" height="1.47" width=".32" y="71.15" x="72.75"/><rect style="fill:#000" id="rect2664" height="1.05" width=".23" y="86.85" x="85.06"/><rect style="fill:#000" id="rect2666" height="1.05" width=".23" y="86.85" x="82.47"/><rect style="fill:#000" id="rect2668" height="1.47" width=".32" y="84.97" x="83.7"/><path style="fill:#000" id="path2670" d="M46.14 68.97c.26-.5.7-.82 1.19-1.04-.2-.39-.37-.7-.84-.8a.95.95 0 0 0-.24-.03c.27-.68.17-1.35.13-2.04.24.09.37-.27.13-.36l-.17-.05v-.68c0-.15.29-.58.36-.67.23-.25.9-.69 1.2-.84l-.25-.2s-.05-.01-.22-.1c-.57-.28-1.09-.48-1.63.02l-.02-.03a.89.89 0 0 0-.3-.3l.05-.01a4.73 4.73 0 0 0-1.18-2.06 9.83 9.83 0 0 1-.07-1.2c.16-.3.57-.58.89-.72l.4-.13c-.1-.45-.32-.79-.87-.79-.31 0-.55.12-.71.24-.4-1-.8-.74-1.38-.46a.65.65 0 0 0-.43-.62c0-.03 0-.07-.02-.1a2.78 2.78 0 0 0-2-1.6.73.73 0 0 0-.4-1.09v-.4h.6c.3 0 .3-.42 0-.42h-.6v-.7c0-.3-.42-.3-.42 0v.7h-.6c-.29 0-.29.43 0 .43h.6v.4a.73.73 0 0 0-.39 1.09 2.8 2.8 0 0 0-2 1.68.66.66 0 0 0-.47.65c-.57-.3-.97-.56-1.37.44-.15-.12-.4-.23-.7-.23a.84.84 0 0 0-.8.5c-.03.06-.08.28-.08.28.46.13 1.07.4 1.3.86.02.06-.05.92-.08 1.19a4.54 4.54 0 0 0-1.16 2.07.93.93 0 0 0-.24.25l-.02.03c-.54-.5-1.05-.3-1.62-.02-.18.09-.23.1-.23.1l-.25.2c.3.16.98.6 1.2.85.08.09.37.52.37.67l-.01.62v.07l-.15.05c-.24.08-.11.44.12.36-.05.7-.15 1.39.14 2.08a.8.8 0 0 0-.27.02c-.47.1-.65.42-.84.8.5.22.93.54 1.19 1.04.11.23.36.86.44 1.07h-5.64v19.2c0 .92.05 1.94.3 2.82 1.1 3.83 4.89 6.48 8.33 8.03 1.36.61 2.35.91 2.35.91l.4.08.37-.08a20.15 20.15 0 0 0 6.9-3.73c2.3-2 3.74-4.02 3.94-7 .04-.57.04-1.02.04-1.02V70.04h-4.7c.07-.21.32-.84.43-1.07zM30.03 91.44h-1.4l-.05-.34.32-.35s-.27-.28-.32-.36a.62.62 0 0 1-.09-.33c0-.1-.02-.38.7-.37.71 0 .74.24.74.4-.01.32-.38.66-.38.66l.48.58v.1zm0-8.1H28.4v-.12c.01-.05.49-.58.49-.58s-.27-.27-.32-.36a.63.63 0 0 1-.09-.32c0-.1-.01-.38.7-.37.71 0 .74.24.74.4 0 .32-.38.66-.38.66l.48.58zm.06-10.78h-1.61v-.1c0-.07.48-.59.48-.59s-.27-.27-.32-.36a.65.65 0 0 1-.08-.33c0-.1-.02-.37.7-.37.7 0 .74.24.74.4-.01.33-.39.67-.39.67l.48.58zm12.25-15.3h.42c.26 0 .36.2.37.48.01.48-.71.3-.9-.43a.66.66 0 0 0 .1-.06zm-.38-.81a.27.27 0 0 1 0 .54.27.27 0 0 1 0-.54zm-2.41-2.74a.3.3 0 1 1 0 .59.3.3 0 0 1 0-.6zm.03 1.05c.96 0 1.79.56 2.16 1.34a.65.65 0 0 0-.42.5c-.2-.4-.48-.62-1.05-.66-.03-.4-.2-.77-.54-.98a.99.99 0 0 0-.18-.09c-.45.16-.69.6-.72 1.07-.57.04-.86.26-1.05.66a.65.65 0 0 0-.38-.48c.37-.8 1.2-1.36 2.18-1.36zm1.89 2.38c-.14.32-.32.64-.73.64-.54 0-.56-.28-.56-.39 0-.07.07-.27.24-.36.26-.11.72 0 1.02.07zm-2.55.25c0 .1-.02.39-.56.39-.41 0-.6-.32-.73-.64l.03-.04.24-.06c.32-.07 1.02-.15 1.02.35zm-1.79-.94c.15 0 .28.12.28.27 0 .15-.13.27-.28.27a.27.27 0 0 1 0-.54zm-.8.81h.43l.1.05c-.19.73-.9.91-.9.43.01-.28.11-.48.37-.48zm-2.3.22a.45.45 0 0 1 .37-.16c.23 0 .45.1.6.27.03.02.28.38.28.38.05-.2.29-1.38.71-1.07l.05.03c-.35.15-.45.54-.45.8-.03.94 1.33.85 1.63-.25l.13-.01c.2.39.54.69 1.01.69.8 0 .94-.52.94-.77 0-.63-.6-.82-1.1-.78.16-.2.42-.28.67-.3l.33.02c0-.38 0-.81.34-1.04.35.23.36.66.35 1.04.36-.03.75-.03 1.01.28-.5-.04-1.1.15-1.1.78 0 .25.13.77.93.77.47 0 .81-.3 1-.7l.03-.03.1.04c.11.37.34.73.73.84 1.18.35 1.1-1.13.46-1.38l.05-.03c.28-.2.48.27.55.47.04.11.16.6.16.6.25-.34.4-.65.88-.65.2 0 .32.08.38.16-.21.09-.44.21-.62.36-.63.49-.59.67-.54 1.33a15.6 15.6 0 0 0-4.36-.6c-2.15 0-3.77.43-4.36.6.01-.2.02-.4 0-.59-.03-.47-.77-.94-1.17-1.1zm.81 2.75l.27-.27.04-.37a15.9 15.9 0 0 1 8.8 0l.03.37c.52.44.91 1.14 1.12 1.8-.54.03-1 .69-.5 1.12.1.1.15.23.17.37v.03c-.1.42-.69.4-.7-.04v-.21l-.4-.06-.02.04c-.06.14-.15.23-.32.2-.32-.05-.39-.26-.35-.49.06-.32.49-.37.68-.22.13.1.27.31.27.31.06-.63.07-1.05-.53-1.37l-.08-.05c.03-.33-.05-.84-.34-1.07l-.08-.07-.1.03c-.36.12-.6.58-.69.9l-.09.01c-.68.1-.81.52-.98 1.14 0 0 .21-.19.37-.23.23-.08.62.13.56.44-.04.23-.18.4-.49.35-.17-.03-.23-.15-.23-.3v-.05l-.26-.06h-.2l-.01.05c-.03.15-.12.26-.29.26-.32 0-.42-.2-.42-.43 0-.32.42-.45.63-.34.15.08.32.26.32.26-.05-.63-.11-1.04-.77-1.26l-.08-.02c-.03-.34-.2-.83-.52-1l-.1-.05-.1.04c-.32.18-.49.67-.51 1l-.09.03c-.65.22-.71.63-.77 1.26 0 0 .18-.18.33-.25.21-.12.63.01.63.33 0 .23-.1.43-.43.43-.17 0-.25-.1-.28-.26v-.04h-.45v.05c0 .15-.06.27-.23.3-.32.06-.45-.12-.5-.34-.05-.32.34-.52.57-.45.16.05.37.23.37.23-.17-.6-.3-1.04-.98-1.13l-.09-.01c-.08-.32-.33-.79-.68-.9l-.11-.03-.08.06c-.3.23-.37.75-.34 1.08l-.08.04c-.6.33-.6.74-.53 1.38 0 0 .14-.21.27-.31.19-.15.62-.1.68.22.04.23-.03.44-.35.5-.17.02-.26-.07-.32-.21l-.02-.04-.4.06v.21c-.02.44-.6.46-.7.04v-.03a.64.64 0 0 1 .18-.37c.5-.43.02-1.1-.53-1.12.18-.53.47-1.1.83-1.5zM32.71 63c-.18-.2-.47-.4-.69-.54l-.07-.04c.46-.24.89-.37 1.26.14l.32-.02c.01-.02.13-.24.17-.28.41-.42.82.08.58.29a.94.94 0 0 0-.25.4c-.05.13-.06.23-.06.23v.03c.05.8 1.17.98 1.43.23.12.1.29.13.46.1.59-.1.72-.57.66-.93-.1-.51-.5-.66-.93-.56.14-.28.37-.34.65-.43l-.04-.18c-.04-.26-.03-.56.11-.78.21.16.32.44.37.7l.02.18c.3-.01.53-.03.76.18-.43.05-.77.33-.68.84.06.37.35.76.93.66.19-.04.34-.1.43-.25.12.13.28.2.47.2.6 0 .8-.43.8-.8 0-.53-.38-.74-.81-.72.19-.25.42-.27.72-.31l-.01-.19c0-.25.06-.55.24-.75.18.2.24.5.24.75v.19c.29.04.52.06.71.31-.44-.02-.82.2-.82.71 0 .38.22.81.8.81.2 0 .36-.07.47-.2.09.17.27.26.46.3.58.1.87-.3.93-.66.09-.51-.25-.79-.68-.84.23-.21.46-.2.76-.19l.02-.18c.05-.25.16-.53.37-.7.14.23.15.53.1.78l-.03.18c.28.1.5.16.65.44-.43-.1-.84.05-.93.56-.06.37.07.83.65.93.18.04.35 0 .47-.1.26.75 1.38.57 1.43-.23v-.03s-.01-.1-.06-.22a.96.96 0 0 0-.26-.41c-.23-.2.17-.7.59-.3l.17.29.32.03c.37-.51.8-.39 1.26-.15l-.07.04c-.22.14-.5.33-.69.54-.35.4-.46.83-.46.93v.55a23.5 23.5 0 0 0-6.4-.92c-2.93 0-5.35.6-6.38.9v-.58c0-.1-.11-.53-.46-.93zm11.54 4.96c-.03.3-.07.48-.38.45-.43-.05-.89-.56-.93-1.01a.77.77 0 0 0-.28-1.5.77.77 0 0 0-.53 1.33c0 .03-.02.1-.06.19-.16.34-.58.72-.97.73-.35.01-.78-.26-.77-.55.01-.62.86-.66 1.29-.53l.3.1c-.19-.99-.53-1.3-1.46-1.4a1.43 1.43 0 0 0-.74-1.31s-.11-.05-.17-.06a1.2 1.2 0 0 0-.17.07c-.26.13-.45.37-.6.63-.1.21-.13.45-.14.68-.92.1-1.27.4-1.45 1.38l.3-.09c.42-.13 1.27-.09 1.29.53 0 .3-.43.56-.77.55-.4-.01-.82-.39-.97-.73l-.07-.19a.77.77 0 1 0-1.3-.56c0 .33.2.61.5.73-.05.45-.5.96-.94 1-.3.03-.34-.15-.38-.44-.06-.6.62-.61.99-.63l-.22-.3c-.76-1-1.39-.7-1.79.42-.14-.1-.32-.2-.5-.26a3.4 3.4 0 0 1-.25-1.72c.04-.19.06-.38.08-.58a22.81 22.81 0 0 1 12.8.03c0 .2.03.4.07.6.1.4-.04 1.22-.23 1.65-.2.07-.38.16-.54.28-.4-1.11-1.03-1.42-1.78-.41l-.22.29c.38.01 1.05.04.99.63zm-1.59-.9a.39.39 0 1 1 0-.77.39.39 0 0 1 0 .78zm-5.82-.38a.39.39 0 1 1-.78 0 .39.39 0 0 1 .78 0zm-4.53 1.08a.71.71 0 0 1 .4-.27c.55-.13 1.01.36 1.3.74.1-.4.19-.76.4-1.1.23-.38.4-.44.73-.1-.32.12-.72.4-.66.97.06.5.25.83.8.79.65-.07 1.16-.71 1.26-1.35l.1-.01c.17.55.79 1.09 1.36 1.1 1.4.04 1.75-1.97-.2-1.9h-.08c.18-.32.5-.4.83-.46l.45-.04c.03-.27 0-.6.13-.85s.37-.46.42-.5c.06.04.3.25.43.5s.1.58.13.85l.45.04c.34.05.65.14.83.47h-.07c-1.96-.08-1.6 1.93-.21 1.9.57-.02 1.2-.56 1.36-1.11l.1.01c.1.64.61 1.29 1.27 1.35.54.04.73-.3.79-.8.06-.56-.33-.84-.63-.99.31-.3.47-.25.7.12.21.35.3.72.4 1.1.29-.37.75-.86 1.3-.73.2.05.32.16.4.27-.86.52-1.09 1.18-1.42 2.05a25.6 25.6 0 0 0-5.64-.73h-.37a24.9 24.9 0 0 0-5.63.73c-.34-.87-.57-1.53-1.43-2.05zm.64 4.7c.01-.07.49-.59.49-.59s-.27-.27-.32-.36a.62.62 0 0 1-.09-.33c.01-.1-.01-.37.7-.37s.75.24.74.4c0 .33-.38.66-.38.66l.48.59v.1h-1.62v-.1zm-.29 23.1h-1.61v-.1c0-.07.48-.59.48-.59s-.27-.27-.32-.36a.65.65 0 0 1-.08-.33c0-.1-.02-.38.7-.37.7 0 .74.24.74.4-.01.33-.39.66-.39.66l.48.59zm.65-1.89c-.95-.96-1.7-1.8-2.02-2.66l4.2 4.2a9.26 9.26 0 0 1-2.18-1.54zm3.1 1.63L31.13 90v-.75l5.26 5.3zm0-1.59l-5.28-5.29v-.74l5.27 5.28zm0-1.58l-5.28-5.3v-.74l5.27 5.3zm0-3.17l-2.88-2.89h-.1s-.03-.24.01-.38c.04-.15.14-.36.2-.42.08-.06.25-.23.53-.23.27 0 .29.37.29.52 0 .16-.08.5-.06.51h-.13l2.13 2.13zm0-2.89h-.56l.55.55v.75l-1.3-1.3h.3l-.01-.35a1.5 1.5 0 0 1 .2-.75c.13-.24.29-.16.29-.16-.02-.44-.11-.55-.25-.73-.11-.16-.35-.54-1.45-.46-1.1.08-1.01 0-1.3-.15a.75.75 0 0 1-.4-.53c-.02-.14-.05-.12-.05-.12s-.14.1-.22.26c-.08.16-.04.2-.04.2s-.05-.04-.16-.2c-.12-.17-.2-.16-.2-.16s-.08.07-.13.23c-.05.15-.09.37-.02.62.06.29 0 .48-.05.54-.05.05-.04.07.02.12.07.05.16.04.48.08.32.04.35.37.38.66.03.3-.15.9-.15.9h.34l3.72 3.73v.74l-4.46-4.47h-.81V73.04h5.27v13.02zm2.34 13.1h-1.62v-.12c0-.06.49-.58.49-.58s-.28-.27-.33-.36a.66.66 0 0 1-.08-.32c0-.1-.02-.38.7-.38.71 0 .74.24.74.4 0 .33-.38.67-.38.67l.48.58zm0-15.84h-1.62v-.1c0-.06.49-.59.49-.59s-.28-.27-.33-.36a.66.66 0 0 1-.08-.32c0-.1-.02-.38.7-.37.71 0 .74.24.74.4 0 .32-.38.66-.38.66l.48.58zm0-10.77h-1.62v-.1c0-.07.49-.59.49-.59s-.28-.27-.33-.36a.65.65 0 0 1-.08-.33c0-.1-.02-.37.7-.37.71 0 .74.24.74.4 0 .33-.38.67-.38.67l.48.58zm.46-2.52h-4.67a29.8 29.8 0 0 1 5.01-.58 27.75 27.75 0 0 1 5.07.58h-5.07zm10.26 21.84a9.16 9.16 0 0 1-2.02 3.49h-7.9V90.3H49.7c-.03.54-.1 1.08-.24 1.58zm.27-6.58h-10.2v-5.16h10.2zm0-14.6v5.21h-10.2v-5.2z"/></g></svg>
