<svg width="186" height="186" viewBox="0 0 186 186" fill="none" xmlns="http://www.w3.org/2000/svg">
<path fill-rule="evenodd" clip-rule="evenodd" d="M92.972 162.522C131.384 162.522 162.523 131.385 162.523 92.9716C162.523 74.1129 155.016 57.0063 142.828 44.4769C130.192 31.4889 112.524 23.4209 92.972 23.4209C73.424 23.4209 55.7587 31.4863 43.1227 44.4703C30.9307 56.9996 23.4213 74.1089 23.4213 92.9716C23.4213 131.385 54.56 162.522 92.972 162.522ZM92.972 185.146C143.797 185.146 185.147 143.797 185.147 92.9716C185.147 42.1476 143.797 0.798264 92.972 0.798264C42.1467 0.798264 0.797333 42.1476 0.797333 92.9716C0.797333 143.797 42.1467 185.146 92.972 185.146Z" fill="white"/>
<path fill-rule="evenodd" clip-rule="evenodd" d="M92.972 162.523C131.384 162.523 162.523 131.384 162.523 92.972C162.523 74.112 155.016 57.0053 142.828 44.4773C130.192 31.4893 112.524 23.4213 92.972 23.4213C73.424 23.4213 55.7587 31.4867 43.124 44.4707C30.9307 57 23.4213 74.1093 23.4213 92.972C23.4213 131.384 54.56 162.523 92.972 162.523ZM168.808 126.305C168.808 125.463 168.125 124.781 167.283 124.781C166.441 124.781 165.759 125.463 165.759 126.305C165.759 127.148 166.441 127.831 167.283 127.831C168.125 127.831 168.808 127.148 168.808 126.305ZM16.936 126.545C18.5213 127.653 20.2547 125.919 19.1493 124.335C19.112 124.281 19.0613 124.232 19.008 124.195C17.4253 123.095 15.696 124.821 16.796 126.405C16.8333 126.459 16.8827 126.508 16.936 126.545ZM92.972 185.147C143.797 185.147 185.147 143.797 185.147 92.972C185.147 42.148 143.797 0.798671 92.972 0.798671C42.148 0.798671 0.798665 42.148 0.798665 92.972C0.798665 143.797 42.148 185.147 92.972 185.147ZM92.972 5.99686e-06C144.237 5.99686e-06 185.944 41.708 185.944 92.972C185.944 144.237 144.237 185.944 92.972 185.944C41.7067 185.944 0 144.237 0 92.972C0 41.708 41.7067 5.99686e-06 92.972 5.99686e-06Z" fill="black"/>
<path d="M7.15292 105.162L15.3063 103.567C17.6796 103.103 19.6649 104.466 20.2329 107.371C20.8009 110.277 19.4943 112.283 17.1023 112.751L8.94892 114.346L8.63826 112.753L17.0716 111.103C18.3903 110.845 19.0809 109.439 18.7343 107.665C18.3876 105.89 17.1649 104.858 15.8983 105.106L7.46492 106.755L7.15292 105.162Z" fill="black"/>
<path d="M18.934 87.1248L18.9033 89.0341L8.95399 95.4635L18.798 95.6208L18.7713 97.2448L6.50199 97.0475L6.35799 97.1408L6.38865 95.2315L16.338 88.8021L6.49532 88.6435L6.52065 87.0208L18.79 87.2181L18.934 87.1248Z" fill="black"/>
<path d="M19.7533 81.3861L7.51199 79.3168L7.78133 77.7168L20.024 79.7848L19.7533 81.3861Z" fill="black"/>
<path d="M12.4485 60.7772L22.7632 69.1732L22.2579 70.7159L8.97652 71.3959L9.54052 69.6719L20.4219 69.2612L11.8845 62.5012L12.4485 60.7772Z" fill="black"/>
<path d="M28.9403 52.4561L30.2763 53.1961L26.1883 60.5735L15.3309 54.5575L19.3269 47.3468L20.6629 48.0881L17.4549 53.8775L20.8776 55.7761L23.9016 50.3188L25.2376 51.0601L22.2136 56.5161L25.6376 58.4135L28.9403 52.4561Z" fill="black"/>
<path d="M29.3663 43.848L31.8956 40.8053L31.8996 40.8093C31.9169 40.7826 31.9356 40.7573 31.9569 40.732C32.4769 40.1066 32.6156 38.596 31.4396 37.6186C30.2636 36.6413 28.8996 37.0906 28.3623 37.7373L25.7676 40.8573L29.3663 43.848ZM32.6783 42.2546L30.5409 44.8253L34.1383 47.816L33.1009 49.064L23.5556 41.1293L26.9996 36.9853C28.0143 35.7653 30.2889 34.5506 32.4783 36.3706C34.1556 37.7653 34.1329 39.5706 33.5743 40.8866L39.2263 41.696L38.0663 43.092L32.6783 42.2546Z" fill="black"/>
<path d="M47.6424 29.7365C49.0691 31.4805 48.6211 33.5005 46.0904 35.5712C43.2717 37.8779 40.8397 37.0112 39.7637 35.6952L41.1664 34.5472C41.7211 35.2245 43.0451 35.9659 45.1357 34.2552C47.0317 32.7032 46.8597 31.4939 46.3917 30.9219C45.7064 30.0845 44.7611 30.4245 41.8704 31.5032C39.6784 32.3205 38.0544 32.9325 36.7424 31.3299C35.4211 29.7152 36.2171 27.6139 38.2264 25.9699C41.1957 23.5392 43.3211 24.9272 44.1251 25.9085L42.8691 26.9352C42.4904 26.4739 41.1624 25.5405 39.2451 27.1085C37.4797 28.5539 37.4304 29.6085 37.9744 30.2725C38.7451 31.2139 39.9771 30.5885 42.2091 29.6565C44.2037 28.8245 46.2784 28.0699 47.6424 29.7365Z" fill="black"/>
<path d="M54.4113 29.658L48.0553 18.9967L49.45 18.1647L55.806 28.8273L54.4113 29.658Z" fill="black"/>
<path d="M64.3924 11.1023L64.9817 12.5116L61.0244 14.1649L65.2217 24.2103L63.7231 24.8356L59.5271 14.7903L55.5711 16.4436L54.9817 15.0329L64.3924 11.1023Z" fill="black"/>
<path d="M76.8916 14.6128L78.0316 19.8981L76.4449 20.2408L75.3049 14.9555L68.9729 9.59147L71.0249 9.1488L75.7662 13.2435L78.3982 7.55813L80.4502 7.11547L76.8916 14.6128Z" fill="black"/>
<path d="M92.9813 15.5233C92.9386 13.9286 92.0906 13.2273 90.8906 13.2593C89.6893 13.2913 88.88 14.038 88.924 15.6326C88.9666 17.2286 89.8146 17.93 91.0146 17.8966C92.216 17.8646 93.0253 17.118 92.9813 15.5233ZM94.1413 15.4926C94.1906 17.3326 93.0013 18.8593 91.1146 18.91C88.8906 18.97 87.8133 17.5046 87.764 15.6646C87.7146 13.8233 88.792 12.3006 90.9346 12.2433C92.8213 12.1913 94.092 13.6513 94.1413 15.4926Z" fill="black"/>
<path d="M92.9813 15.5233C92.9386 13.9286 92.0906 13.2273 90.8906 13.2593C89.6893 13.2913 88.88 14.038 88.924 15.6326C88.9666 17.2286 89.8146 17.93 91.0146 17.8966C92.216 17.8646 93.0253 17.118 92.9813 15.5233ZM94.1413 15.4926C94.1906 17.3326 93.0013 18.8593 91.1146 18.91C88.8906 18.97 87.8133 17.5046 87.764 15.6646C87.7146 13.8233 88.792 12.3006 90.9346 12.2433C92.8213 12.1913 94.092 13.6513 94.1413 15.4926Z" stroke="black" stroke-width="0.262667" stroke-miterlimit="10"/>
<path d="M99.348 12.0179L99.312 12.5192L101.047 12.6459L100.973 13.6579L99.2373 13.5312L98.8347 19.0272L97.6787 18.9432L98.08 13.4472L96.996 13.3672L97.0693 12.3552L98.1547 12.4339L98.1707 12.2179C98.3133 10.2565 99.4693 9.62319 100.793 9.71919C100.94 9.72986 101.464 9.81919 101.599 9.85386L101.44 10.9645C101.327 10.9219 101.095 10.8592 100.852 10.8419C99.9867 10.7792 99.4307 10.8992 99.348 12.0179Z" fill="black" stroke="black" stroke-width="0.262667" stroke-miterlimit="10"/>
<path d="M127.168 12.8917L119.651 23.5531L118.01 23.0424L118.042 12.8144L112.264 21.2544L110.623 20.7437L110.483 7.69974L112.215 8.2384L112.182 18.5957L117.959 10.0264L119.692 10.5651L119.586 20.8997L125.436 12.3531L127.168 12.8917Z" fill="black"/>
<path d="M127.385 27.1983L133.252 16.2569L134.683 17.0249L128.816 27.9649L127.385 27.1983Z" fill="black"/>
<path d="M142.147 28.2619C143.438 29.9939 144.674 31.8245 143.387 33.5512C142.042 35.3579 139.972 35.4125 137.35 33.4605C134.43 31.2859 134.68 28.7165 135.696 27.3525L137.151 28.4365C136.628 29.1379 136.228 30.6019 138.396 32.2165C140.36 33.6792 141.492 33.2179 141.934 32.6259C142.58 31.7579 142.022 30.9232 140.274 28.3805C138.95 26.4512 137.962 25.0259 139.199 23.3632C140.446 21.6899 142.676 21.9539 144.759 23.5032C147.835 25.7952 147.006 28.1939 146.248 29.2112L144.947 28.2419C145.303 27.7632 145.887 26.2485 143.899 24.7685C142.071 23.4072 141.036 23.6139 140.523 24.3032C139.796 25.2779 140.702 26.3219 142.147 28.2619Z" fill="black"/>
<path d="M153.596 45.6363C151.799 45.8749 149.956 45.2776 148.552 43.7269C146.168 41.0936 146.638 37.4723 149.179 35.1709C151.719 32.8696 155.374 32.7643 157.754 35.3923C159.156 36.9403 159.57 38.8349 159.155 40.6003L157.571 39.9869C157.89 38.6589 157.487 37.3736 156.622 36.4176C155.183 34.8296 152.711 34.4203 150.396 36.5163C148.083 38.6109 148.243 41.1096 149.684 42.7016C150.552 43.6576 151.79 44.1856 153.143 43.9989L153.596 45.6363Z" fill="black"/>
<path d="M164.601 55.9883C167.293 54.4083 167.619 51.8869 166.509 49.9949C165.398 48.1029 163.038 47.1603 160.346 48.7416C157.654 50.3216 157.326 52.8389 158.438 54.7336C159.55 56.6283 161.909 57.5683 164.601 55.9883ZM165.471 57.4709C162.515 59.2069 158.918 58.5709 157.121 55.5069C155.322 52.4443 156.519 48.9936 159.475 47.2589C162.433 45.5229 166.031 46.1629 167.827 49.2216C169.622 52.2803 168.427 55.7349 165.471 57.4709Z" fill="black"/>
<path d="M165.236 74.8761L164.645 73.0601L171.965 63.7481L162.605 66.7948L162.103 65.2521L173.771 61.4535L173.876 61.3175L174.468 63.1335L167.147 72.4468L176.508 69.3988L177.011 70.9428L165.341 74.7415L165.236 74.8761Z" fill="black"/>
<path d="M170.884 89.1535C168.644 89.4041 167.191 87.9295 166.828 84.6801C166.423 81.0588 168.472 79.4881 170.162 79.2988L170.363 81.1015C169.494 81.2001 168.151 81.9081 168.451 84.5935C168.724 87.0281 169.835 87.5415 170.567 87.4588C171.643 87.3388 171.872 86.3615 172.538 83.3468C173.043 81.0615 173.411 79.3655 175.47 79.1361C177.544 78.9028 178.875 80.7135 179.164 83.2935C179.591 87.1081 177.271 88.1388 176.01 88.2801L175.83 86.6668C176.422 86.6015 177.928 85.9921 177.652 83.5308C177.399 81.2641 176.54 80.6495 175.687 80.7441C174.479 80.8801 174.335 82.2535 173.903 84.6348C173.518 86.7615 173.024 88.9135 170.884 89.1535Z" fill="black"/>
<path d="M167.275 94.8793L179.681 95.318L179.624 96.9407L167.217 96.502L167.275 94.8793Z" fill="black"/>
<path d="M164.962 112.265L165.325 110.39L176.245 105.795L166.579 103.921L166.889 102.327L178.935 104.663L179.094 104.597L178.73 106.471L167.81 111.066L177.477 112.939L177.167 114.534L165.121 112.198L164.962 112.265Z" fill="black"/>
<path d="M19.1672 140.933L30.9472 134.22L34.0845 138.109L30.8019 142.765C30.3805 143.364 29.9152 143.841 29.7872 143.971L29.8632 144.065C30.3285 143.715 30.6912 143.525 31.2299 143.297L36.4765 141.077L39.5872 144.936L30.5405 155.04L27.6059 151.4L31.8992 147.165C32.2325 146.844 32.4419 146.624 32.8792 146.272L32.8299 146.209C32.5259 146.376 32.0445 146.611 31.7912 146.712L25.7165 149.056L23.9285 146.839L27.3685 141.771C27.6552 141.359 27.9205 141.016 28.3459 140.647L28.2579 140.539C28.0539 140.703 27.6485 141.029 27.4325 141.177L22.1272 144.604L19.1672 140.933Z" fill="black"/>
<path d="M36.9991 160.386L45.2857 149.877L49.0991 152.882L40.8124 163.393L36.9991 160.386Z" fill="black"/>
<path d="M47.8793 168.202L54.2647 156.44L58.5313 158.758L54.2047 166.727L57.802 168.68L55.7447 172.471L47.8793 168.202Z" fill="black"/>
<path d="M64.3061 162.294L69.1835 163.55L69.0208 170.055C69.0035 170.527 69.0195 170.946 68.8248 171.703L68.9408 171.734C69.1901 170.927 69.4821 170.278 69.8315 169.642L72.6808 164.45L76.2955 165.38L76.2715 171.674C76.2675 172.17 76.1635 173.055 76.0728 173.57L76.1701 173.595C76.4048 172.764 76.6661 172.231 76.9968 171.591L79.7928 166.282L84.6901 167.542L76.7861 179.327L72.6861 178.271L72.8221 172.671C72.8421 172.116 72.8995 171.488 73.0248 170.838L72.8701 170.798C72.7408 171.22 72.4235 172.132 72.2208 172.515L69.5181 177.456L65.5168 176.424L64.3061 162.294Z" fill="black"/>
<path d="M94.5125 171.722L94.3325 171.725C94.3205 172.287 94.2485 172.75 94.1365 173.234L93.5165 175.813L95.4632 175.781L94.7992 173.223C94.6698 172.703 94.5805 172.203 94.5125 171.722ZM92.6672 178.999L92.3338 180.67L87.1978 180.757L91.6085 167.295L96.9858 167.205L101.986 180.509L96.8285 180.595L96.3592 178.937L92.6672 178.999Z" fill="black"/>
<path d="M105.789 166.444L110.45 165.233L112.404 172.75C112.504 173.138 112.684 173.673 113.154 173.965C113.477 174.17 113.808 174.168 114.177 174.072C114.662 173.946 114.918 173.734 115.049 173.514C115.308 173.074 115.13 172.394 115.045 172.064L113.092 164.546L117.773 163.33L119.837 171.276C120.1 172.285 120.288 173.812 119.436 175.318C118.468 177.021 116.669 177.758 115.232 178.132C114.048 178.44 111.861 178.882 109.97 177.673C108.678 176.849 108.186 175.67 107.938 174.718L105.789 166.444Z" fill="black"/>
<path d="M129.702 172.879L123.281 161.136L127.365 158.903L129.358 162.547C129.646 163.075 129.861 163.507 130.078 164.073L130.166 164.025C130.047 163.221 130.062 162.871 130.061 162.368L130.005 157.459L134.618 154.936L134.105 162.696L141.427 166.467L136.498 169.163L132.289 166.569C131.886 166.332 131.461 166.016 131.11 165.751L131.022 165.799C131.314 166.165 131.505 166.472 131.717 166.86L133.786 170.645L129.702 172.879Z" fill="black"/>
<path d="M147.49 161.834L138.681 151.755L145.481 145.813L147.898 148.578L144.754 151.325L145.574 152.261L148.43 149.765L150.741 152.41L147.885 154.906L148.73 155.873L151.964 153.047L154.381 155.813L147.49 161.834Z" fill="black"/>
<path d="M160.129 149.584L149.494 141.457L154.977 134.281L157.894 136.511L155.36 139.828L156.349 140.584L158.652 137.569L161.442 139.701L159.14 142.716L160.16 143.496L162.768 140.083L165.685 142.313L160.129 149.584Z" fill="black"/>
<path d="M50.8073 121.143L41.9433 126.683L41.2193 125.523L47.9686 121.305L47.1113 119.93L47.9286 119.419C47.9286 119.419 48.634 120.701 50.254 120.257L50.8073 121.143Z" fill="white"/>
<path d="M50.6435 125.433C49.9208 126.023 50.1861 126.971 50.7861 127.704C51.3848 128.437 52.2595 128.888 52.9835 128.297C53.7048 127.708 53.4381 126.759 52.8408 126.025C52.2435 125.295 51.3661 124.843 50.6435 125.433ZM49.9341 131.565C51.0941 130.617 50.8261 129.289 50.0341 128.319C49.2408 127.348 47.9928 126.819 46.8328 127.767C45.6715 128.715 45.9381 130.041 46.7328 131.013C47.5275 131.987 48.7741 132.513 49.9341 131.565ZM50.8235 132.707C49.3755 133.891 47.4581 133.939 45.7341 131.829C44.0115 129.719 44.4435 127.849 45.8915 126.667C46.8248 125.904 47.9381 125.765 49.0288 126.275C48.9088 125.479 49.1568 124.779 49.7635 124.284C50.8581 123.389 52.5395 123.637 53.8301 125.219C55.1208 126.799 55.0275 128.496 53.9328 129.389C53.3261 129.885 52.5915 129.988 51.8355 129.712C52.1168 130.883 51.7581 131.945 50.8235 132.707Z" fill="white"/>
<path d="M56.6677 137.176L59.7837 133.609L53.6357 134.528L56.6677 137.176ZM57.5784 139.679L56.7304 138.939L54.9317 140.997L54.0237 140.204L55.8211 138.145L51.5824 134.443L52.4291 133.473L60.7784 132.225L61.8077 133.124L57.5757 137.969L58.4237 138.709L57.5784 139.679Z" fill="white"/>
<path d="M65.8712 139.966C66.6805 138.672 66.0672 137.529 65.3499 137.081C64.6325 136.633 63.3379 136.584 62.5285 137.878C61.7192 139.174 62.3339 140.318 63.0499 140.765C63.7645 141.21 65.0619 141.262 65.8712 139.966ZM66.4432 142.41C64.6712 145.248 62.0779 145.848 60.3619 144.776C59.0819 143.977 58.4125 142.632 59.0019 141.069L60.2579 141.79C59.9765 142.541 60.1752 143.237 61.0005 143.753C62.1885 144.494 63.7565 143.844 65.0779 141.846C64.2352 142.35 63.2432 142.402 62.1912 141.745C60.4552 140.662 60.2512 138.709 61.2632 137.089C62.2752 135.469 64.3925 134.965 66.0259 135.985C66.0285 135.99 66.0312 135.994 66.0325 135.998L66.0365 135.992C68.0032 137.221 68.2152 139.574 66.4432 142.41Z" fill="white"/>
<path d="M81.5056 142.472L78.8536 152.581L77.5309 152.233L79.5509 144.535L77.9842 144.124L78.2282 143.191C78.2282 143.191 79.6202 143.64 80.4949 142.207L81.5056 142.472Z" fill="white"/>
<path d="M84.3297 145.705C84.2084 146.631 85.051 147.139 85.9897 147.261C86.9297 147.385 87.875 147.113 87.9964 146.188C88.119 145.263 87.2737 144.755 86.3364 144.632C85.399 144.508 84.451 144.781 84.3297 145.705ZM88.0177 150.657C88.2124 149.172 87.107 148.388 85.863 148.225C84.6204 148.061 83.3497 148.532 83.1537 150.017C82.959 151.503 84.063 152.287 85.3084 152.449C86.5524 152.613 87.8217 152.143 88.0177 150.657ZM89.4484 150.879C89.2044 152.733 87.8404 154.083 85.1404 153.728C82.439 153.372 81.471 151.716 81.715 149.861C81.8724 148.667 82.587 147.803 83.7297 147.425C83.0977 146.928 82.799 146.248 82.9004 145.472C83.0844 144.071 84.4804 143.099 86.503 143.364C88.5257 143.631 89.6217 144.929 89.4377 146.332C89.335 147.108 88.871 147.687 88.131 148.004C89.1377 148.664 89.6044 149.683 89.4484 150.879Z" fill="white"/>
<path d="M93.2147 146.434C93.2493 147.366 94.1653 147.727 95.1107 147.693C96.0573 147.658 96.9453 147.231 96.9107 146.299C96.8773 145.367 95.9587 145.006 95.0147 145.041C94.0707 145.075 93.18 145.502 93.2147 146.434ZM97.6747 150.703C97.62 149.206 96.4 148.618 95.1467 148.663C93.8933 148.709 92.7187 149.385 92.7733 150.882C92.828 152.379 94.0467 152.967 95.3013 152.922C96.5573 152.875 97.7293 152.201 97.6747 150.703ZM99.1227 150.683C99.1907 152.553 98.0707 154.111 95.3493 154.21C92.6267 154.31 91.396 152.837 91.328 150.967C91.284 149.763 91.8453 148.793 92.9093 148.229C92.204 147.845 91.7947 147.225 91.7667 146.441C91.7147 145.029 92.928 143.838 94.968 143.763C97.008 143.69 98.3053 144.789 98.356 146.201C98.3853 146.985 98.0227 147.633 97.3467 148.069C98.448 148.551 99.0787 149.478 99.1227 150.683Z" fill="white"/>
<path d="M108.205 148.472C108.661 150.703 107.567 152.557 105.135 153.053C102.919 153.505 101.525 152.383 100.927 150.672L102.317 150.388C102.646 151.332 103.369 152.101 104.878 151.793C106.497 151.463 107.097 150.277 106.787 148.761C106.477 147.247 105.267 146.579 103.821 146.875C102.814 147.081 102.395 147.748 102.245 148.348C102.245 148.348 102.242 148.348 102.235 148.349L100.965 148.479L100.418 143.351L106.246 142.16L106.503 143.421L101.817 144.377L102.057 146.599C102.506 146.096 103.143 145.713 104.025 145.533C105.99 145.133 107.737 146.179 108.205 148.472Z" fill="white"/>
<path d="M118.901 136.745L123.908 145.922L122.708 146.575L118.895 139.589L117.472 140.363L117.011 139.517C117.011 139.517 118.331 138.889 117.984 137.245L118.901 136.745Z" fill="white"/>
<path d="M126.409 135.815C125.513 134.579 124.223 134.718 123.539 135.214C122.855 135.71 122.323 136.892 123.218 138.128C124.115 139.363 125.405 139.224 126.089 138.728C126.771 138.234 127.305 137.051 126.409 135.815ZM128.889 136.202C130.851 138.908 130.433 141.538 128.795 142.726C127.574 143.611 126.077 143.726 124.851 142.594L125.991 141.702C126.581 142.243 127.299 142.32 128.087 141.75C129.221 140.927 129.207 139.23 127.853 137.255C128.002 138.227 127.678 139.166 126.675 139.892C125.019 141.094 123.133 140.55 122.013 139.004C120.891 137.458 121.219 135.307 122.778 134.176C122.783 134.175 122.789 134.175 122.793 134.175L122.789 134.17C124.665 132.808 126.925 133.495 128.889 136.202Z" fill="white"/>
<path d="M136.344 130.824C137.957 132.431 138.073 134.58 136.321 136.34C134.725 137.943 132.941 137.778 131.497 136.683L132.498 135.678C133.294 136.282 134.322 136.523 135.409 135.432C136.574 134.262 136.42 132.943 135.324 131.85C134.226 130.758 132.85 130.871 131.808 131.918C131.082 132.646 131.104 133.435 131.309 134.016C131.309 134.016 131.306 134.019 131.302 134.023L130.314 134.834L127.022 130.864L131.221 126.647L132.133 127.556L128.756 130.946L130.185 132.664C130.281 131.996 130.601 131.326 131.236 130.688C132.65 129.267 134.685 129.172 136.344 130.824Z" fill="white"/>
<path d="M141.142 125.084C139.902 124.194 138.721 124.731 138.229 125.416C137.735 126.102 137.602 127.392 138.842 128.284C140.081 129.175 141.262 128.638 141.755 127.951C142.249 127.266 142.382 125.975 141.142 125.084ZM142.013 123.872C143.563 124.988 143.929 127.132 142.803 128.696C142.799 128.699 142.795 128.702 142.791 128.703L142.797 128.707C141.443 130.59 139.081 130.648 136.366 128.696C133.65 126.744 133.219 124.116 134.401 122.474C135.282 121.248 136.666 120.668 138.187 121.358L137.386 122.563C136.655 122.235 135.949 122.387 135.381 123.178C134.563 124.314 135.11 125.923 137.017 127.371C136.57 126.495 136.581 125.503 137.306 124.496C138.499 122.835 140.462 122.758 142.013 123.872Z" fill="white"/>
<path fill-rule="evenodd" clip-rule="evenodd" d="M92.8973 133.23C115.059 133.23 133.025 115.264 133.025 93.1016C133.025 70.9389 115.059 52.9736 92.8973 52.9736C70.7346 52.9736 52.7693 70.9389 52.7693 93.1016C52.7693 115.264 70.7346 133.23 92.8973 133.23ZM135.052 98.1683C135.444 94.9816 160.187 93.0269 162.459 92.9856C160.193 92.8416 135.609 89.3869 135.219 86.2003C134.952 84.0283 139.417 81.0709 145.967 78.3976L145.704 77.3483C138.611 78.6603 133.349 78.0523 132.519 75.9963C131.695 73.9549 134.868 69.7936 140.516 65.1963L140.056 64.3429C133.488 66.9696 128.496 68.0509 127.18 66.3043C125.273 63.7749 140.865 46.5336 142.805 44.5803C140.621 46.3349 120.803 60.1389 118.304 58.1883C116.581 56.8403 117.648 51.5923 120.388 45.0709L119.46 44.5136C115.373 50.4576 111.221 53.7483 109.18 52.8816C107.155 52.0216 106.456 46.8363 107.199 39.5909L106.271 39.3123C103.484 45.8136 100.719 50.1083 98.552 49.8043C95.404 49.3603 93.056 26.1443 92.9533 23.5576C92.852 26.1443 90.4973 49.3603 87.3493 49.8043C85.1826 50.1083 82.4173 45.8136 79.6306 39.3123L78.7013 39.5909C79.4453 46.8363 78.7466 52.0216 76.7213 52.8816C74.6786 53.7483 70.528 50.4576 66.4413 44.5136L65.512 45.0709C68.2533 51.5923 69.32 56.8403 67.596 58.1883C65.0986 60.1389 45.2813 46.3256 43.1013 44.5736C45.0386 46.5229 60.6266 63.7749 58.7213 66.3043C57.404 68.0509 52.4133 66.9696 45.8453 64.3429L45.3853 65.1963C51.0346 69.7936 54.2066 73.9549 53.3826 75.9963C52.552 78.0523 47.2893 78.6603 40.1973 77.3483L39.9333 78.3976C46.484 81.0709 50.9493 84.0283 50.6826 86.2003C50.2906 89.3909 25.66 92.8496 23.4626 92.9816C25.6653 93.0336 50.4066 95.2416 50.7986 98.4336C53.716 119.074 71.4533 134.95 92.8986 134.95C114.435 134.95 132.249 118.938 135.052 98.1683Z" fill="#FFBD00"/>
<path d="M92.8973 133.23C115.059 133.23 133.025 115.264 133.025 93.1016C133.025 70.9389 115.059 52.9736 92.8973 52.9736C70.7346 52.9736 52.7693 70.9389 52.7693 93.1016C52.7693 115.264 70.7346 133.23 92.8973 133.23ZM135.052 98.1683C135.444 94.9816 160.187 93.0269 162.459 92.9856C160.193 92.8416 135.609 89.3869 135.219 86.2003C134.952 84.0283 139.417 81.0709 145.967 78.3976L145.704 77.3483C138.611 78.6603 133.349 78.0523 132.519 75.9963C131.695 73.9549 134.868 69.7936 140.516 65.1963L140.056 64.3429C133.488 66.9696 128.496 68.0509 127.18 66.3043C125.273 63.7749 140.865 46.5336 142.805 44.5803C140.621 46.3349 120.803 60.1389 118.304 58.1883C116.581 56.8403 117.648 51.5923 120.388 45.0709L119.46 44.5136C115.373 50.4576 111.221 53.7483 109.18 52.8816C107.155 52.0216 106.456 46.8363 107.199 39.5909L106.271 39.3123C103.484 45.8136 100.719 50.1083 98.552 49.8043C95.404 49.3603 93.056 26.1443 92.9533 23.5576C92.852 26.1443 90.4973 49.3603 87.3493 49.8043C85.1826 50.1083 82.4173 45.8136 79.6306 39.3123L78.7013 39.5909C79.4453 46.8363 78.7466 52.0216 76.7213 52.8816C74.6786 53.7483 70.528 50.4576 66.4413 44.5136L65.512 45.0709C68.2533 51.5923 69.32 56.8403 67.596 58.1883C65.0986 60.1389 45.2813 46.3256 43.1013 44.5736C45.0386 46.5229 60.6266 63.7749 58.7213 66.3043C57.404 68.0509 52.4133 66.9696 45.8453 64.3429L45.3853 65.1963C51.0346 69.7936 54.2066 73.9549 53.3826 75.9963C52.552 78.0523 47.2893 78.6603 40.1973 77.3483L39.9333 78.3976C46.484 81.0709 50.9493 84.0283 50.6826 86.2003C50.2906 89.3909 25.66 92.8496 23.4626 92.9816C25.6653 93.0336 50.4066 95.2416 50.7986 98.4336C53.716 119.074 71.4533 134.95 92.8986 134.95C114.435 134.95 132.249 118.938 135.052 98.1683Z" stroke="white" stroke-width="0.0466667"/>
<path d="M91.3984 74.0572H88.5771L83.9584 89.4519L79.2211 74.0572H78.0571H76.3997H75.5317V87.4225C75.5317 89.4305 73.5917 90.9865 70.7811 90.9865C67.9691 90.9865 66.0277 89.5119 66.0277 87.4225V74.0572H63.5037V86.9772C63.5037 90.7679 66.1771 93.3625 70.7811 93.3625C75.3837 93.3625 78.0571 90.7385 78.0571 86.9772V79.1852L82.6371 93.3625H85.3104L89.9877 78.1599L94.3157 92.2239L95.2037 86.7412L91.3984 74.0572Z" fill="white"/>
<path d="M96.8653 93.4603L100.005 74.0629H107.247L109.516 82.0029C109.807 83.0203 109.923 83.9803 109.952 84.2416H110.127C110.156 83.3989 110.272 82.8163 110.504 82.0029L112.772 74.0629H119.956L123.125 93.4603H116.349L115.477 84.7643C115.419 84.0963 115.361 83.6603 115.361 82.8456H115.244C115.157 83.3403 114.983 84.0963 114.867 84.4749L111.988 93.4603H107.857L105.269 84.9683C105.067 84.2709 104.921 83.6603 104.892 82.8456H104.688C104.688 83.2243 104.688 83.9803 104.659 84.3576L103.699 93.4603H96.8653Z" fill="white"/>
<path d="M94.6837 101.625L94.7437 101.446C95.5611 99.0464 94.8784 98.2477 92.4691 98.2477H63.5117V102.566L92.8277 101.498C93.9531 101.446 94.6317 101.776 94.1851 102.997C94.1851 102.997 94.0051 103.52 93.8851 103.856C93.8717 103.893 93.8651 103.932 93.8584 103.97C93.8451 104.001 93.6624 104.512 94.2077 104.968C94.9251 105.568 101.674 105.686 105.453 105.321C107.72 105.154 110.045 104.872 112.401 104.526C115.94 104.009 119.569 103.461 123.137 103.009V98.9811C113.526 100.52 103.656 102.572 94.6837 101.625Z" fill="#FFBD00"/>
<path d="M110.726 108.15C110.726 108.15 110.682 108.155 110.622 108.16C110.077 108.216 107.348 108.498 106.782 108.555C106.718 108.562 106.672 108.567 106.672 108.567C102.789 108.982 93.9024 109.122 93.0144 108.278C92.729 108.007 92.6904 107.62 92.713 107.318C92.705 107.126 92.7371 106.918 92.8277 106.704L93.2744 105.646C93.4237 105.228 93.1037 104.81 92.6637 104.832L63.5117 106.166V110.4L92.133 108.046C92.089 108.172 92.0597 108.262 92.0437 108.315C91.9304 108.632 91.853 108.919 91.805 109.18C91.805 109.18 91.2731 110.651 91.9557 111.42C93.4291 113.083 104.616 112.347 107.949 112.178C108.164 112.168 108.38 112.16 108.593 112.15C108.616 112.148 108.642 112.148 108.662 112.147C108.673 112.147 108.673 112.146 108.681 112.146C113.604 111.903 118.43 111.352 123.137 110.951V106.446C119.033 106.99 114.846 107.659 110.686 108.154C110.697 108.152 110.716 108.151 110.726 108.15Z" fill="#FFBD00"/>
</svg>
