<svg height="316.227766" viewBox="0 0 60 60" width="316.227766" xmlns="http://www.w3.org/2000/svg"><g fill="none" fill-rule="evenodd"><path d="m30.001 0 29.998 30.017-29.998 29.983-30.001-29.983z" fill="#881c28" fill-rule="nonzero"/><g transform="translate(14 29)"><g transform="translate(17 4)"><path d="m10.016 4.16s1.963 2.023-2.097 6.085" stroke="#fff" stroke-width=".2168"/><g stroke="#881c28" stroke-linecap="round" stroke-width=".0955" transform="translate(3 4)"><path d="m.355 9.023s2.933-1.237 4.823-4.915c1.426-2.775 2.687-3.586 4.049-3.371 0 0-1.641-.469-3.106 4.31-1.407 4.555-5.442 4.728-5.442 4.728z" fill="#fff" fill-rule="nonzero"/><path d="m9.227.736s-1.583-.581-3.428 3.435c-1.854 4.02-4.179 4.985-4.179 4.985"/></g><g stroke="#881c28" stroke-linecap="round" stroke-width=".0955" transform="translate(0 4)"><path d="m2.061 9.997s4.005-1.05 6.15-3.718c1.497-1.868 3.429-6.287 5.822-5.864 0 0-1.713.457-3.066 3.435-1.501 3.276-2.724 4.646-4.555 5.81-1.531.961-3.397 1.412-5.459 1.711z" fill="#fff" fill-rule="nonzero"/><path d="m1.222 10.809s4.972-.533 7.576-4.213c2.06-2.918 2.717-5.846 5.234-6.18"/></g><g transform="translate(1 5)"><path d="m5.46.936s-1.752-.422-2.934 4.38c0 0 3.081-4.931 4.367-3.471.001 0 .061-.304-1.433-.909z" fill="#fff" fill-rule="nonzero"/><g stroke="#881c28" stroke-width=".0955"><path d="m2.527 5.316s2.3-5.372 3.918-3.847"/><path d="m1.013 8.162s1.387-.674 2.995-2.248c1.469-1.446 2.657-3.942 1.744-4.867 0 0 .519.086 1.233.732 0 0 1.137 3.322-6.022 7.833z" fill="#fff" fill-rule="nonzero" stroke-linecap="round"/><path d="m6.476 1.385s1.408 3.274-5.585 7.58" stroke-linecap="round"/></g></g><g fill="#fff" fill-rule="nonzero" stroke="#881c28" stroke-linecap="round" stroke-width=".0955" transform="translate(3)"><path d="m1.945 3.615c.364.251.225 1.018-.767 1.245-.306.08-.493.42-.493.42s.205-.247.214-.585c.021-1.146.7-1.331 1.046-1.08z"/><path d="m2.17 2.529c.37.314.211 1.094-.845 1.205-.334.032-.537.362-.537.362s.22-.231.234-.579c.047-1.189.778-1.295 1.148-.988z"/><path d="m2.987 2.922c.405.261.351 1.05-.695 1.299-.319.076-.478.424-.478.424s.188-.249.159-.597c-.1-1.187.603-1.38 1.014-1.126z"/><path d="m2.728.993c.083.477-.527.977-1.425.378-.274-.183-.631-.066-.631-.066s.309-.034.549-.294c.796-.877 1.427-.491 1.507-.018z"/><path d="m2.754 1.854c.156.456-.373 1.044-1.342.601-.301-.145-.641.036-.641.036s.304-.09.498-.382c.656-.991 1.332-.698 1.485-.255z"/><path d="m3.776 1.598c-.01.481-.714.849-1.466.101-.234-.237-.618-.195-.618-.195s.315.03.601-.181c.953-.708 1.496-.205 1.483.275z"/><path d="m3.972 2.471c.092.481-.521.985-1.416.4-.276-.185-.643-.064-.643-.064s.316-.032.549-.289c.796-.888 1.42-.507 1.51-.047z"/><path d="m4.432 3.263c.205.438-.264 1.08-1.276.73-.315-.107-.637.107-.637.107s.295-.117.456-.428c.548-1.052 1.257-.849 1.457-.409z"/><path d="m4.67 2.115c-.29.394-1.071.286-1.256-.766-.055-.328-.395-.507-.395-.507s.242.203.597.195c1.176-.026 1.335.692 1.054 1.078z"/><path d="m5.166 2.922c-.212.442-.998.479-1.371-.521-.12-.302-.497-.424-.497-.424s.289.153.627.078c1.157-.246 1.447.434 1.241.867z"/><path d="m5.939 2.413c-.339.346-1.095.139-1.15-.925-.007-.332-.322-.555-.322-.555s.217.229.559.27c1.187.132 1.243.866.913 1.21z"/><path d="m6.812 2.986c-.46.161-1.045-.376-.588-1.341.138-.298-.036-.642-.036-.642s.081.302.377.499c.987.653.705 1.331.247 1.484z"/><path d="m5.752 5.2c.149.461-.393 1.03-1.358.569-.295-.147-.643.018-.643.018s.312-.076.512-.362c.67-.979 1.343-.685 1.489-.225z"/><path d="m5.3 4.359c.148.463-.398 1.026-1.354.565-.295-.141-.649.02-.649.02s.311-.074.511-.368c.673-.975 1.349-.677 1.492-.217z"/><path d="m5.915 3.77c-.065.483-.803.77-1.47-.06-.204-.261-.597-.253-.597-.253s.317.06.616-.117c1.031-.597 1.509-.042 1.451.43z"/><path d="m6.466 4.484c.15.469-.397 1.038-1.354.565-.294-.145-.648.028-.648.028s.309-.074.513-.372c.67-.971 1.342-.667 1.489-.221z"/><path d="m6.525 3.302c-.216.44-1.003.483-1.379-.509-.12-.312-.481-.428-.481-.428s.279.153.624.089c1.154-.26 1.436.421 1.236.848z"/><path d="m7.395 4.15c-.458.165-1.043-.372-.591-1.343.133-.298-.038-.639-.038-.639s.082.296.373.499c.997.653.712 1.336.256 1.483z"/><path d="m7.103 4.343c-.203.442-.997.487-1.373-.515-.114-.31-.487-.424-.487-.424s.278.155.624.08c1.164-.253 1.442.425 1.236.859z"/></g></g><g transform="translate(0 4)"><path d="m4.996 4.16s-1.962 2.023 2.099 6.085" stroke="#fff" stroke-width=".2168"/><g stroke="#881c28" stroke-linecap="round" stroke-width=".0955" transform="translate(2 4)"><path d="m9.653 9.023s-2.926-1.237-4.814-4.915c-1.432-2.775-2.694-3.586-4.051-3.371 0 0 1.641-.469 3.107 4.31 1.406 4.555 5.435 4.728 5.435 4.728z" fill="#fff" fill-rule="nonzero"/><path d="m.789.736s1.578-.581 3.425 3.435c1.852 4.02 4.179 4.985 4.179 4.985"/></g><g stroke="#881c28" stroke-linecap="round" stroke-width=".0955" transform="translate(0 4)"><path d="m12.954 9.997s-4.006-1.05-6.154-3.718c-1.494-1.868-3.425-6.287-5.821-5.864 0 0 1.717.457 3.075 3.435 1.5 3.276 2.711 4.646 4.551 5.81 1.524.961 3.398 1.412 5.449 1.711z" fill="#fff" fill-rule="nonzero"/><path d="m13.788 10.809s-4.965-.533-7.574-4.213c-2.062-2.918-2.72-5.846-5.235-6.18"/></g><g transform="translate(6 5)"><path d="m2.56.936s1.738-.422 2.935 4.38c0 0-3.093-4.931-4.376-3.471-.001 0-.054-.304 1.441-.909z" fill="#fff" fill-rule="nonzero"/><g stroke="#881c28" stroke-width=".0955"><path d="m5.495 5.316s-2.305-5.372-3.93-3.847"/><path d="m7 8.162s-1.385-.674-2.995-2.248c-1.472-1.446-2.659-3.942-1.745-4.867 0 0-.514.086-1.233.732 0 0-1.14 3.322 6.02 7.833z" fill="#fff" fill-rule="nonzero" stroke-linecap="round"/><path d="m1.538 1.385s-1.409 3.274 5.587 7.58" stroke-linecap="round"/></g></g><g fill="#fff" fill-rule="nonzero" stroke="#881c28" stroke-linecap="round" stroke-width=".0955" transform="translate(4)"><path d="m6.068 3.615c-.354.251-.222 1.018.765 1.245.309.08.493.42.493.42s-.202-.247-.206-.585c-.029-1.146-.7-1.331-1.052-1.08z"/><path d="m5.845 2.529c-.366.314-.21 1.094.847 1.205.329.032.538.362.538.362s-.226-.231-.24-.579c-.048-1.189-.778-1.295-1.145-.988z"/><path d="m5.028 2.922c-.412.261-.345 1.05.689 1.299.322.076.477.424.477.424s-.179-.249-.151-.597c.103-1.187-.608-1.38-1.015-1.126z"/><path d="m5.287.993c-.085.477.529.977 1.42.378.274-.183.636-.066.636-.066s-.31-.034-.55-.294c-.797-.877-1.426-.491-1.506-.018z"/><path d="m5.255 1.854c-.152.456.38 1.044 1.343.601.3-.145.649.036.649.036s-.309-.09-.504-.382c-.652-.991-1.328-.698-1.488-.255z"/><path d="m4.242 1.598c.007.481.706.849 1.465.101.233-.237.612-.195.612-.195s-.31.03-.598-.181c-.948-.708-1.489-.205-1.479.275z"/><path d="m4.042 2.471c-.093.481.528.985 1.41.4.285-.185.646-.064.646-.064s-.314-.032-.55-.289c-.789-.888-1.414-.507-1.506-.047z"/><path d="m3.585 3.263c-.204.438.262 1.08 1.278.73.305-.107.628.107.628.107s-.289-.117-.457-.428c-.543-1.052-1.249-.849-1.449-.409z"/><path d="m3.341 2.115c.289.394 1.072.286 1.257-.766.059-.328.394-.507.394-.507s-.24.203-.594.195c-1.188-.026-1.333.692-1.057 1.078z"/><path d="m2.844 2.922c.211.442 1.003.479 1.379-.521.12-.302.484-.424.484-.424s-.279.153-.616.078c-1.167-.246-1.443.434-1.247.867z"/><path d="m2.074 2.413c.338.346 1.1.139 1.143-.925.01-.332.331-.555.331-.555s-.219.229-.564.27c-1.182.132-1.241.866-.91 1.21z"/><path d="m1.203 2.986c.456.161 1.04-.376.589-1.341-.139-.298.036-.642.036-.642s-.08.302-.378.499c-.987.653-.704 1.331-.247 1.484z"/><path d="m2.258 5.2c-.151.461.395 1.03 1.355.569.298-.147.646.018.646.018s-.311-.076-.51-.362c-.668-.979-1.344-.685-1.491-.225z"/><path d="m2.714 4.359c-.148.463.404 1.026 1.346.565.305-.141.647.02.647.02s-.305-.074-.504-.368c-.669-.975-1.346-.677-1.489-.217z"/><path d="m2.103 3.77c.054.483.792.77 1.46-.06.211-.261.6-.253.6-.253s-.309.06-.613-.117c-1.03-.597-1.513-.042-1.447.43z"/><path d="m1.553 4.484c-.156.469.392 1.038 1.35.565.298-.145.647.028.647.028s-.315-.074-.518-.372c-.667-.971-1.338-.667-1.479-.221z"/><path d="m1.488 3.302c.211.44 1.003.483 1.374-.509.12-.312.483-.428.483-.428s-.273.153-.612.089c-1.163-.26-1.449.421-1.245.848z"/><path d="m.617 4.15c.462.165 1.043-.372.597-1.343-.137-.298.036-.639.036-.639s-.085.296-.378.499c-.992.653-.704 1.336-.255 1.483z"/><path d="m.905 4.343c.207.442.998.487 1.38-.515.112-.31.479-.424.479-.424s-.272.155-.617.08c-1.162-.253-1.445.425-1.242.859z"/></g></g><path d="m14.334 18.487s-1.487.967-3.173.448c0 0 1.483.778 1.033 2.14 0 0 2.588-.712 3.24-1.945.643-1.228-1.1-.643-1.1-.643z" fill="#fff" fill-rule="nonzero" stroke="#881c28" stroke-width=".1419"/><path d="m15.219 17.421s-2.591-1.633-2.591-.75v1.941s1.321.645 2.809.066z" fill="#fff" fill-rule="nonzero" stroke="#881c28" stroke-width=".1419"/><path d="m12.628 16.617s-.175 1.028 2.624 1.028" stroke="#881c28" stroke-width=".1419"/><g fill="#fff" fill-rule="nonzero" transform="translate(11)"><path d="m8.693 10.554h-7.456c-.199 0-.36.163-.36.366v3.433c0 .199.161.358.36.358.198 0 .36-.159.36-.358 0 0 0-2.496 0-3.079h6.732v3.079c0 .199.166.358.364.358.201 0 .361-.159.361-.358v-3.433c0-.202-.16-.366-.361-.366z"/><path d="m1.061 6.049c-.215.105-.299.364-.193.579.11.213.369.3.585.187 0 0 3.163-1.607 3.516-1.784.35.177 3.502 1.784 3.502 1.784.216.113.475.026.583-.187.107-.215.022-.473-.189-.579l-3.469-1.772v-1.77h2.777v2.168c0 .239.197.434.436.434.24 0 .433-.195.433-.434v-2.596c0-.243-.192-.434-.433-.434h-3.212v-.4c0-.241-.196-.434-.432-.434-.24 0-.433.193-.433.434v.4h-3.226c-.241 0-.433.191-.433.434v2.596c0 .239.192.434.433.434.242 0 .436-.195.436-.434 0 0 0-1.559 0-2.168h2.79v1.774z"/><path d="m8.711 7.052c-.192 0-.346.153-.355.35h-1.629c-.2 0-.362.157-.362.358 0 .197.161.36.362.36h1.624v.38h-1.624c-.2 0-.362.161-.362.358 0 .203.161.36.362.36h1.624v.376c-.482 0-1.624 0-1.624 0-.2 0-.362.169-.362.366s.161.358.362.358h1.984c.198 0 .361-.161.361-.358v-2.544c0-.197-.163-.364-.361-.364z"/><path d="m1.213 10.318h1.981c.202 0 .362-.161.362-.358s-.161-.366-.362-.366c0 0-1.136 0-1.619 0 0-.092 0-.223 0-.376h1.619c.202 0 .362-.157.362-.36 0-.197-.161-.358-.362-.358h-1.619c0-.131 0-.263 0-.38h1.619c.202 0 .362-.163.362-.36 0-.201-.161-.358-.362-.358h-1.625c-.009-.197-.165-.35-.356-.35-.197 0-.362.167-.362.364v2.544c0 .197.164.358.362.358z"/><path d="m6.129 7.402c-.072-.145-.249-.201-.391-.133l-.758.398-.762-.398c-.146-.068-.321-.012-.388.133-.076.131-.02.312.122.384l.393.207-.393.195c-.142.072-.197.245-.122.388.067.143.242.199.388.127l.762-.394.758.394c.143.072.32.016.391-.127.074-.143.018-.316-.124-.388l-.392-.195.392-.207c.142-.072.198-.253.124-.384z"/><path d="m6.129 8.967c-.072-.143-.249-.195-.391-.127l-.758.396-.765-.396c-.143-.068-.318-.016-.385.127-.076.139-.02.318.122.392l.392.197-.392.201c-.143.07-.198.251-.122.388.067.139.242.201.385.125l.765-.39.758.39c.143.076.32.014.391-.125.074-.137.018-.318-.127-.388l-.39-.201.39-.197c.145-.074.201-.253.127-.392z"/><path d="m7.572 11.571c-.197 0-.358.161-.358.368v2.055c-.254 0-1.034 0-1.878 0v-.284h1.11c.197 0 .362-.157.362-.358v-1.412c0-.207-.165-.368-.362-.368h-2.975c-.202 0-.362.161-.362.368v1.412c0 .201.16.358.362.358h1.144v.284c-.844 0-1.625 0-1.883 0 0-.525 0-2.055 0-2.055 0-.207-.161-.368-.358-.368-.202 0-.363.161-.363.368v2.415c0 .199.161.358.363.358h2.241v.523c-.552 0-2.512 0-2.512 0-.201 0-.362.159-.362.362 0 .199.161.36.362.36h2.871c.202 0 .362-.161.362-.36v-.885h2.236c.201 0 .363-.159.363-.358v-2.415c.001-.207-.161-.368-.363-.368zm-3.741.724h2.253v.692c-.483 0-1.774 0-2.253 0 0-.265 0-.428 0-.692z"/></g><g stroke="#881c28" stroke-width=".1419"><path d="m17.617 18.487s1.487.967 3.171.448c0 0-1.493.778-1.04 2.14 0 0-2.586-.712-3.235-1.945-.655-1.228 1.104-.643 1.104-.643z" fill="#fff" fill-rule="nonzero"/><path d="m16.728 17.421s2.591-1.633 2.591-.75v1.941s-1.328.645-2.818.066z" fill="#fff" fill-rule="nonzero"/><path d="m19.319 16.617s.175 1.028-2.623 1.028"/><path d="m15.178 17.383h1.592v2.2h-1.592z" fill="#fff" fill-rule="nonzero"/></g></g></g></svg>