<?xml version="1.0" encoding="UTF-8" standalone="no"?>
<!DOCTYPE svg PUBLIC "-//W3C//DTD SVG 1.1//EN" "http://www.w3.org/Graphics/SVG/1.1/DTD/svg11.dtd">
<svg width="100%" height="100%" viewBox="0 0 1090 131" version="1.1" xmlns="http://www.w3.org/2000/svg" xmlns:xlink="http://www.w3.org/1999/xlink" xml:space="preserve" xmlns:serif="http://www.serif.com/" style="fill-rule:evenodd;clip-rule:evenodd;stroke-linejoin:round;stroke-miterlimit:2;">
    <g id="アートボード1" transform="matrix(0.860366,0,0,0.387037,-601.026,-1100.01)">
        <rect x="698.571" y="2842.12" width="1265.86" height="336.696" style="fill:none;"/>
        <clipPath id="_clip1">
            <rect x="698.571" y="2842.12" width="1265.86" height="336.696"/>
        </clipPath>
        <g clip-path="url(#_clip1)">
            <g transform="matrix(1.1623,0,0,2.58373,-325.043,-5034.07)">
                <g transform="matrix(4.16667,0,0,4.16667,0,2719.73)">
                    <path d="M244.133,81.147C243.982,80.835 243.66,80.626 243.306,80.626L237.11,80.626C236.832,80.626 236.574,80.748 236.401,80.962L228.221,92.387L220.012,80.962C219.838,80.748 219.579,80.626 219.304,80.626L213.145,80.626C212.789,80.626 212.467,80.835 212.318,81.147C212.165,81.475 212.212,81.847 212.435,82.125L224.797,98.695L224.797,107.619C224.797,107.862 224.893,108.094 225.061,108.268C225.232,108.438 225.468,108.53 225.71,108.53L230.741,108.53C230.982,108.53 231.213,108.438 231.389,108.268C231.563,108.094 231.654,107.862 231.654,107.619L231.654,98.695L244.018,82.125C244.24,81.847 244.284,81.475 244.133,81.147" style="fill:rgb(0,102,179);fill-rule:nonzero;"/>
                </g>
                <g transform="matrix(4.16667,0,0,4.16667,0,2719.73)">
                    <path d="M256.842,80.626C257.006,80.626 257.232,80.724 257.347,80.849L272.336,97.419C272.448,97.544 272.536,97.503 272.536,97.339L272.536,80.933C272.536,80.762 272.674,80.626 272.84,80.626L278.838,80.626C279.008,80.626 279.142,80.762 279.142,80.933L279.142,108.23C279.142,108.397 279.008,108.529 278.838,108.529L273.854,108.529C273.687,108.529 273.459,108.433 273.35,108.31L256.994,90.074C256.887,89.949 256.797,89.983 256.797,90.147L256.797,108.23C256.797,108.397 256.662,108.529 256.494,108.529L250.632,108.529C250.465,108.529 250.328,108.397 250.328,108.23L250.328,80.933C250.328,80.762 250.465,80.626 250.632,80.626L256.842,80.626Z" style="fill:rgb(35,31,32);fill-rule:nonzero;"/>
                </g>
                <g transform="matrix(4.16667,0,0,4.16667,0,2720.12)">
                    <path d="M313.631,80.532L307.692,80.532C307.527,80.532 307.392,80.668 307.392,80.839L307.392,96.345C307.362,98.7 306.704,100.002 305.592,100.934C304.462,101.864 302.565,102.449 299.885,102.445C297.203,102.449 295.303,101.864 294.176,100.934C293.06,100.002 292.399,98.7 292.377,96.345L292.377,80.839C292.377,80.668 292.241,80.532 292.076,80.532L286.134,80.532C285.973,80.532 285.839,80.668 285.839,80.839L285.839,96.345C285.788,101.106 287.847,104.498 290.715,106.283C293.564,108.091 296.934,108.519 299.885,108.529C302.831,108.519 306.203,108.091 309.051,106.283C311.918,104.498 313.981,101.106 313.929,96.345L313.929,80.839C313.929,80.668 313.795,80.532 313.631,80.532" style="fill:rgb(35,31,32);fill-rule:nonzero;"/>
                </g>
                <g transform="matrix(4.16667,0,0,4.16667,0,2675.65)">
                    <path d="M342.335,102.765L340.465,102.765L340.465,103.822L342.335,103.822L342.335,102.765ZM340.465,101.213L342.335,101.213L342.335,100.175L340.465,100.175L340.465,101.213ZM340.137,93.945L338.212,93.945L338.212,95.453L340.137,95.453L340.137,93.945ZM338.13,102.765L336.305,102.765L336.305,103.822L338.13,103.822L338.13,102.765ZM336.305,101.213L338.13,101.213L338.13,100.175L336.305,100.175L336.305,101.213ZM335.872,95.453L335.872,93.945L333.759,93.945L333.759,92.162L335.872,92.162L335.872,90.423L338.19,90.528C338.401,90.528 338.628,90.651 338.628,90.799C338.628,90.939 338.505,91.022 338.212,91.166L338.212,92.162L340.137,92.162L340.137,90.382L342.5,90.502C342.624,90.502 342.911,90.567 342.911,90.771C342.911,90.918 342.791,90.976 342.5,91.11L342.5,92.162L345.379,92.162L345.379,93.945L342.5,93.945L342.5,95.453L345.71,95.453L345.71,97.297L340.465,97.297L340.465,98.415L344.692,98.415L344.692,105.623L342.269,105.623C344.302,107.006 345.339,107.341 345.853,107.484C345.15,108.251 345.108,108.333 344.527,109.348C343.534,108.952 341.899,108.251 340.117,106.637L341.151,105.623L337.821,105.623L338.689,106.386C338.811,106.488 338.958,106.655 338.958,106.802C338.958,106.988 338.751,107.025 338.148,106.988C336.269,108.46 335.145,109.035 334.215,109.456C333.676,108.705 333.488,108.52 332.642,107.694C333.388,107.421 334.755,106.906 336.413,105.623L334.01,105.623L334.01,98.415L338.13,98.415L338.13,97.297L332.89,97.297L332.89,95.947L331.254,95.947L331.254,96.448C332.313,98.687 333.467,99.846 333.902,100.277C333.635,100.487 333.155,100.878 332.578,102.085C332.333,101.771 331.918,101.213 331.254,99.968L331.254,109.429L329.04,109.429L329.04,101.437C328.644,102.535 328.252,103.45 327.674,104.4C327.091,103.717 326.632,103.388 325.87,102.886C328.105,100.135 328.851,96.783 329.04,95.947L326.49,95.947L326.49,93.839L329.04,93.839L329.04,90.278L331.214,90.403C331.484,90.423 331.728,90.502 331.728,90.735C331.728,90.878 331.418,91.047 331.254,91.129L331.254,93.839L333.264,93.839L333.264,95.453L335.872,95.453Z" style="fill:rgb(35,31,32);fill-rule:nonzero;"/>
                </g>
                <g transform="matrix(4.16667,0,0,4.16667,0,2676.25)">
                    <path d="M365.613,97.692L361.781,97.692L361.781,101.233L365.613,101.233L365.613,97.692ZM368.039,101.233L371.06,101.233L371.06,103.488L366.835,103.488C367.804,104.691 369.94,106.595 371.638,107.465C370.87,108.108 370.807,108.167 369.772,109.352C367.954,108.167 365.843,106.2 364.701,104.709L366.355,103.488L361.533,103.488L363.312,104.691C363.416,104.753 363.501,104.835 363.501,104.942C363.501,105.147 363.208,105.272 362.836,105.208C361.887,106.494 359.835,108.439 358.263,109.352C358.03,109.104 357.145,108.19 356.106,107.57C358.365,106.473 360.293,104.445 361.116,103.488L357.395,103.488L357.395,101.233L359.274,101.233L359.274,91.563L360.436,91.817C363.395,91.872 367.064,90.862 368.282,90.239L369.754,92.248C369.855,92.39 369.961,92.515 369.961,92.659C369.961,92.825 369.772,92.866 369.648,92.866C369.403,92.866 369.192,92.763 369.01,92.682C366.895,93.384 363.728,93.759 361.781,93.821L361.781,95.39L370.501,95.39L370.501,97.692L368.039,97.692L368.039,101.233ZM354.367,90.735C355.776,91.358 357.207,92.248 358.012,92.993C357.493,93.653 356.835,94.607 356.541,95.022C355.776,94.382 353.933,93.223 352.961,92.721L354.367,90.735ZM352.879,95.681C353.91,96.158 355.839,97.177 356.769,97.904C356.251,98.564 356.024,98.933 355.426,99.967C353.995,98.914 352.027,98.043 351.636,97.86L352.879,95.681ZM351.531,107.711C353.52,104.901 354.556,102.743 355.342,100.859C355.92,101.547 356.602,102.084 357.25,102.456C356.068,105.084 355.63,105.875 354.183,108.377C354.244,108.52 354.326,108.665 354.326,108.834C354.326,108.977 354.2,109.042 354.076,109.042C353.952,109.042 353.789,108.977 353.643,108.892L351.531,107.711Z" style="fill:rgb(35,31,32);fill-rule:nonzero;"/>
                </g>
                <g transform="matrix(4.16667,0,0,4.16667,0,2678.29)">
                    <path d="M389.843,99.581L388.148,99.581L388.148,102.232L389.947,102.232C389.866,102.087 389.304,101.222 388.627,100.459L389.843,99.581ZM388.148,97.657L391.708,97.657L391.708,99.581L390.653,99.581C391.276,100.292 391.708,100.888 392.081,101.513C391.919,101.608 391.377,101.986 391.026,102.232L392.743,102.232L392.743,104.242L381.418,104.242L381.418,102.232L385.662,102.232L385.662,99.581L382.349,99.581L382.349,97.657L385.662,97.657L385.662,95.769L381.645,95.769L381.645,93.789L392.515,93.789L392.515,95.769L388.148,95.769L388.148,97.657ZM393.341,92.583L380.714,92.583L380.714,105.427L393.341,105.427L393.341,92.583ZM380.714,107.699L380.714,108.671L378.185,108.671L378.185,90.43L395.848,90.43L395.848,108.652L393.341,108.652L393.341,107.699L380.714,107.699Z" style="fill:rgb(35,31,32);fill-rule:nonzero;"/>
                </g>
                <g transform="matrix(4.16667,0,0,4.16667,0,2672.95)">
                    <path d="M408.011,98.342C408.219,98.753 409.746,101.756 410.457,105.583C409.953,105.707 408.301,106.185 407.949,106.29C407.639,104.489 407.202,102.147 405.651,99.126L408.011,98.342ZM410.493,90.964L413.165,91.03C413.272,91.03 413.556,91.05 413.556,91.277C413.556,91.446 413.415,91.544 413.207,91.652L413.207,94.882L420.289,94.882L420.289,97.302L403.329,97.302L403.329,94.882L410.493,94.882L410.493,90.964ZM421.326,106.975L421.326,109.417L402.418,109.417L402.418,106.975L412.235,106.975C413.434,103.66 414.22,100.368 414.658,97.967L417.246,98.669C417.37,98.715 417.601,98.772 417.601,98.979C417.601,99.126 417.433,99.21 417.141,99.309C416.935,100.101 416.001,103.327 415.795,103.99C415.293,105.608 415.032,106.333 414.803,106.975L421.326,106.975Z" style="fill:rgb(35,31,32);fill-rule:nonzero;"/>
                </g>
                <g transform="matrix(4.16667,0,0,4.16667,0,2676.3)">
                    <path d="M427.294,97.911L427.294,95.376L435.413,95.376L435.413,90.076L438.121,90.225C438.438,90.246 438.578,90.33 438.578,90.494C438.578,90.682 438.352,90.761 438.121,90.819L438.121,95.376L446.113,95.376L446.113,97.911L438.182,97.911C439.113,100.952 441.023,104.695 446.407,107.412C445.186,108.346 444.833,108.733 444.398,109.462C442.181,108.471 438.638,105.423 436.799,101.301C434.418,106.419 430.939,108.346 428.535,109.501C428.33,109.028 427.997,108.384 426.694,107.205C428.434,106.521 433.798,104.37 435.122,97.911L427.294,97.911Z" style="fill:rgb(35,31,32);fill-rule:nonzero;"/>
                </g>
                <g transform="matrix(4.16667,0,0,4.16667,0,2675.21)">
                    <path d="M461.318,94.256C460.967,93.446 460.139,92.161 459.27,91.215L461.48,90.198C462.105,90.86 463.161,92.369 463.553,93.221C463.325,93.343 461.692,94.192 461.607,94.256L464.673,94.256C465.753,92.884 466.324,92.079 467.093,90.633L469.565,91.441C469.684,91.48 469.893,91.56 469.893,91.751C469.893,91.997 469.565,92.04 469.186,92.079C468.462,93.221 467.965,93.88 467.698,94.256L471.258,94.256L471.258,99.514L468.792,99.514L468.792,96.241L455.539,96.241L455.539,99.514L453.119,99.514L453.119,94.256L456.265,94.256C455.914,93.652 455.089,92.351 454.505,91.727L456.598,90.652C457.383,91.418 458.234,92.742 458.627,93.53C457.881,93.88 457.45,94.135 457.28,94.256L461.318,94.256ZM471.464,102.434L471.464,104.567L463.575,104.567L463.575,107.383C463.575,109.561 462.041,109.641 458.69,109.6C458.568,108.995 458.293,107.841 457.881,107.13C458.234,107.156 459.828,107.217 460.139,107.217C461.027,107.217 461.027,107.093 461.027,106.019L461.027,104.567L452.913,104.567L452.913,102.434L461.027,102.434L461.027,100.922L462.105,101.066C462.792,100.55 463.596,99.909 463.949,99.613L456.64,99.613L456.64,97.529L466.949,97.529L467.698,98.998C466.933,99.826 465.192,101.273 463.575,102.434L471.464,102.434Z" style="fill:rgb(35,31,32);fill-rule:nonzero;"/>
                </g>
                <g transform="matrix(4.16667,0,0,4.16667,0,2812.85)">
                    <path d="M329.032,83.991L326.302,80.462L327.638,80.462L329.578,82.953L331.509,80.462L332.857,80.462L330.126,83.991L330.126,86.344L329.032,86.344L329.032,83.991Z" style="fill:rgb(35,31,32);fill-rule:nonzero;"/>
                </g>
                <g transform="matrix(4.16667,0,0,4.16667,0,2812.85)">
                    <path d="M338.592,83.389C338.592,81.969 337.628,81.304 336.353,81.304C335.075,81.304 334.114,81.969 334.114,83.389C334.114,85.053 335.305,85.506 336.353,85.506C337.398,85.506 338.592,85.053 338.592,83.389M336.353,80.318C338.817,80.318 339.681,81.841 339.681,83.448C339.681,84.67 338.996,86.489 336.353,86.489C333.709,86.489 333.027,84.67 333.027,83.448C333.027,81.841 333.895,80.318 336.353,80.318" style="fill:rgb(35,31,32);fill-rule:nonzero;"/>
                </g>
                <g transform="matrix(4.16667,0,0,4.16667,0,2812.84)">
                    <path d="M340.722,80.463L341.814,80.463L341.814,83.211L344.911,80.463L346.463,80.463L343.794,82.799L346.734,86.345L345.3,86.345L342.999,83.481L341.814,84.525L341.814,86.345L340.722,86.345L340.722,80.463Z" style="fill:rgb(35,31,32);fill-rule:nonzero;"/>
                </g>
                <g transform="matrix(4.16667,0,0,4.16667,0,2812.85)">
                    <path d="M352.529,83.389C352.529,81.969 351.572,81.304 350.298,81.304C349.016,81.304 348.053,81.969 348.053,83.389C348.053,85.053 349.248,85.506 350.298,85.506C351.34,85.506 352.529,85.053 352.529,83.389M350.298,80.318C352.751,80.318 353.622,81.841 353.622,83.448C353.622,84.67 352.934,86.489 350.298,86.489C347.643,86.489 346.965,84.67 346.965,83.448C346.965,81.841 347.829,80.318 350.298,80.318" style="fill:rgb(35,31,32);fill-rule:nonzero;"/>
                </g>
                <g transform="matrix(4.16667,0,0,4.16667,0,2812.84)">
                    <path d="M354.66,80.463L355.75,80.463L355.75,82.799L359.498,82.799L359.498,80.463L360.595,80.463L360.595,86.345L359.498,86.345L359.498,83.816L355.75,83.816L355.75,86.345L354.66,86.345L354.66,80.463Z" style="fill:rgb(35,31,32);fill-rule:nonzero;"/>
                </g>
                <g transform="matrix(4.16667,0,0,4.16667,0,2812.84)">
                    <path d="M366.052,84.011L364.886,81.392L363.716,84.011L366.052,84.011ZM364.26,80.463L365.509,80.463L368.224,86.345L367.068,86.345L366.487,84.999L363.264,84.999L362.672,86.345L361.513,86.345L364.26,80.463Z" style="fill:rgb(35,31,32);fill-rule:nonzero;"/>
                </g>
                <g transform="matrix(4.16667,0,0,4.16667,0,2812.84)">
                    <path d="M370.13,81.887L370.114,81.887L370.114,86.345L369.144,86.345L369.144,80.463L370.611,80.463L372.357,84.832L374.135,80.463L375.576,80.463L375.576,86.345L374.605,86.345L374.605,81.887L374.589,81.887L372.797,86.345L371.932,86.345L370.13,81.887Z" style="fill:rgb(35,31,32);fill-rule:nonzero;"/>
                </g>
                <g transform="matrix(4.16667,0,0,4.16667,0,2812.84)">
                    <path d="M381.036,84.011L379.867,81.392L378.701,84.011L381.036,84.011ZM379.246,80.463L380.493,80.463L383.208,86.345L382.056,86.345L381.469,84.999L378.248,84.999L377.658,86.345L376.497,86.345L379.246,80.463Z" style="fill:rgb(35,31,32);fill-rule:nonzero;"/>
                </g>
                <g transform="matrix(4.16667,0,0,4.16667,0,2812.84)">
                    <path d="M387.402,80.463L388.559,80.463L392.296,84.71L392.296,80.463L393.34,80.463L393.34,86.345L392.342,86.345L388.448,81.948L388.448,86.345L387.402,86.345L387.402,80.463Z" style="fill:rgb(35,31,32);fill-rule:nonzero;"/>
                </g>
                <g transform="matrix(4.16667,0,0,4.16667,0,2819.26)">
                    <path d="M397.81,82.613C397.255,82.642 396.77,82.719 396.325,82.839C395.731,82.984 395.456,83.189 395.446,83.57C395.438,83.942 395.676,84.179 396.14,84.179C396.865,84.179 397.437,83.842 397.81,83.609L397.81,82.613ZM398.76,84.099C398.76,84.393 398.78,84.683 398.837,84.804L397.861,84.804C397.83,84.659 397.81,84.512 397.81,84.37C397.407,84.61 396.818,84.949 396.003,84.949C395.456,84.949 394.403,84.711 394.403,83.642C394.403,82.174 396.476,81.964 397.81,81.884L397.81,81.691C397.81,81.362 397.525,81.127 396.741,81.127C395.864,81.127 395.679,81.464 395.626,81.703L394.635,81.703C394.861,80.518 395.966,80.318 396.728,80.318C398.724,80.318 398.76,81.335 398.76,81.94L398.76,84.099Z" style="fill:rgb(35,31,32);fill-rule:nonzero;"/>
                </g>
                <g transform="matrix(4.16667,0,0,4.16667,0,2814.57)">
                    <path d="M399.66,81.734L400.401,81.734L400.401,80.318L401.349,80.318L401.349,81.734L402.795,81.734L402.795,82.589L401.349,82.589L401.349,84.585C401.349,84.887 401.47,85.217 402.023,85.217C402.205,85.217 402.592,85.172 402.836,85.099L402.836,85.984C402.365,86.045 402.148,86.075 401.81,86.075C400.899,86.075 400.401,85.767 400.401,84.822L400.401,82.589L399.66,82.589L399.66,81.734Z" style="fill:rgb(35,31,32);fill-rule:nonzero;"/>
                </g>
                <g transform="matrix(4.16667,0,0,4.16667,0,2812.24)">
                    <path d="M403.983,82.142L404.938,82.142L404.938,86.489L403.983,86.489L403.983,82.142ZM403.983,80.463L404.938,80.463L404.938,81.351L403.983,81.351L403.983,80.463Z" style="fill:rgb(35,31,32);fill-rule:nonzero;"/>
                </g>
                <g transform="matrix(4.16667,0,0,4.16667,0,2819.26)">
                    <path d="M409.515,82.613C409.515,81.598 408.892,81.172 408.167,81.172C407.44,81.172 406.823,81.598 406.823,82.613C406.823,83.534 407.317,84.092 408.167,84.092C409.02,84.092 409.515,83.534 409.515,82.613M405.855,82.631C405.855,81.464 406.523,80.318 408.167,80.318C409.815,80.318 410.482,81.464 410.482,82.631C410.482,84.363 409.295,84.949 408.167,84.949C407.039,84.949 405.855,84.363 405.855,82.631" style="fill:rgb(35,31,32);fill-rule:nonzero;"/>
                </g>
                <g transform="matrix(4.16667,0,0,4.16667,0,2818.66)">
                    <path d="M411.128,80.603L412.063,80.603L412.063,81.15C412.364,80.843 412.772,80.463 413.607,80.463C414.471,80.463 415.224,80.843 415.224,82.166L415.224,84.95L414.269,84.95L414.269,82.541C414.269,81.681 414.024,81.317 413.391,81.317C412.628,81.317 412.317,81.655 412.079,81.96L412.079,84.95L411.128,84.95L411.128,80.603Z" style="fill:rgb(35,31,32);fill-rule:nonzero;"/>
                </g>
                <g transform="matrix(4.16667,0,0,4.16667,0,2819.26)">
                    <path d="M419.392,82.613C418.838,82.642 418.355,82.719 417.911,82.839C417.318,82.984 417.042,83.189 417.034,83.57C417.026,83.942 417.253,84.179 417.73,84.179C418.45,84.179 419.027,83.842 419.392,83.609L419.392,82.613ZM420.349,84.099C420.349,84.393 420.364,84.683 420.421,84.804L419.451,84.804C419.417,84.659 419.392,84.512 419.392,84.37C418.993,84.61 418.405,84.949 417.587,84.949C417.042,84.949 415.989,84.711 415.989,83.642C415.989,82.174 418.067,81.964 419.392,81.884L419.392,81.691C419.392,81.362 419.104,81.127 418.326,81.127C417.45,81.127 417.265,81.464 417.21,81.703L416.218,81.703C416.449,80.518 417.548,80.318 418.312,80.318C420.307,80.318 420.349,81.335 420.349,81.94L420.349,84.099Z" style="fill:rgb(35,31,32);fill-rule:nonzero;"/>
                </g>
                <g transform="matrix(4.16667,0,0,4.16667,0,2812.84)">
                    <rect x="421.537" y="80.463" width="0.956" height="5.882" style="fill:rgb(35,31,32);"/>
                </g>
                <g transform="matrix(4.16667,0,0,4.16667,0,2813.45)">
                    <path d="M433.154,83.678C433.154,85.574 432.008,86.344 430.189,86.344C428.367,86.344 427.219,85.574 427.219,83.678L427.219,80.318L428.314,80.318L428.314,83.601C428.314,84.565 428.642,85.362 430.189,85.362C431.733,85.362 432.062,84.565 432.062,83.601L432.062,80.318L433.154,80.318L433.154,83.678Z" style="fill:rgb(35,31,32);fill-rule:nonzero;"/>
                </g>
                <g transform="matrix(4.16667,0,0,4.16667,0,2818.66)">
                    <path d="M434.257,80.603L435.191,80.603L435.191,81.15C435.49,80.843 435.902,80.463 436.74,80.463C437.599,80.463 438.352,80.843 438.352,82.166L438.352,84.95L437.397,84.95L437.397,82.541C437.397,81.681 437.153,81.317 436.518,81.317C435.752,81.317 435.448,81.655 435.211,81.96L435.211,84.95L434.257,84.95L434.257,80.603Z" style="fill:rgb(35,31,32);fill-rule:nonzero;"/>
                </g>
                <g transform="matrix(4.16667,0,0,4.16667,0,2812.24)">
                    <path d="M439.383,82.142L440.335,82.142L440.335,86.489L439.383,86.489L439.383,82.142ZM439.383,80.463L440.335,80.463L440.335,81.351L439.383,81.351L439.383,80.463Z" style="fill:rgb(35,31,32);fill-rule:nonzero;"/>
                </g>
                <g transform="matrix(4.16667,0,0,4.16667,0,2819.24)">
                    <path d="M442.337,80.463L443.724,83.689L445.112,80.463L446.16,80.463L444.191,84.81L443.233,84.81L441.292,80.463L442.337,80.463Z" style="fill:rgb(35,31,32);fill-rule:nonzero;"/>
                </g>
                <g transform="matrix(4.16667,0,0,4.16667,0,2819.26)">
                    <path d="M450.208,82.14C450.067,81.398 449.588,81.126 448.905,81.126C448.403,81.126 447.828,81.305 447.634,82.14L450.208,82.14ZM451.147,83.502C451.08,83.86 450.527,84.949 448.992,84.949C447.52,84.949 446.634,83.981 446.634,82.622C446.634,81.39 447.407,80.318 448.926,80.318C450.479,80.328 451.224,81.345 451.224,82.913L447.604,82.913C447.644,83.189 447.786,84.091 448.964,84.144C449.565,84.144 449.963,83.841 450.101,83.502L451.147,83.502Z" style="fill:rgb(35,31,32);fill-rule:nonzero;"/>
                </g>
                <g transform="matrix(4.16667,0,0,4.16667,0,2818.66)">
                    <path d="M452.125,80.603L453.077,80.603L453.077,81.254L453.104,81.254C453.311,80.902 453.727,80.463 454.547,80.463C454.679,80.463 454.786,80.463 454.888,80.474L454.888,81.559C454.794,81.536 454.619,81.48 454.3,81.48C453.081,81.491 453.081,82.337 453.077,82.644L453.077,84.95L452.125,84.95L452.125,80.603Z" style="fill:rgb(35,31,32);fill-rule:nonzero;"/>
                </g>
                <g transform="matrix(4.16667,0,0,4.16667,0,2819.23)">
                    <path d="M458.92,81.805C458.773,81.607 458.447,81.123 457.576,81.123C456.882,81.123 456.652,81.407 456.652,81.653C456.652,81.992 457.052,82.046 457.621,82.133C458.747,82.284 459.781,82.46 459.781,83.533C459.781,84.813 458.395,84.957 457.718,84.957C456.299,84.957 455.851,84.364 455.497,83.899L456.307,83.409C456.637,83.975 457.216,84.153 457.813,84.153C458.323,84.153 458.781,83.99 458.781,83.61C458.781,83.273 458.552,83.247 457.538,83.102C455.977,82.89 455.65,82.363 455.65,81.7C455.65,81.246 455.99,80.319 457.595,80.319C458.065,80.319 459.091,80.43 459.719,81.343L458.92,81.805Z" style="fill:rgb(35,31,32);fill-rule:nonzero;"/>
                </g>
                <g transform="matrix(4.16667,0,0,4.16667,0,2812.24)">
                    <path d="M460.546,82.142L461.5,82.142L461.5,86.489L460.546,86.489L460.546,82.142ZM460.546,80.463L461.5,80.463L461.5,81.351L460.546,81.351L460.546,80.463Z" style="fill:rgb(35,31,32);fill-rule:nonzero;"/>
                </g>
                <g transform="matrix(4.16667,0,0,4.16667,0,2814.57)">
                    <path d="M462.39,81.734L463.124,81.734L463.124,80.318L464.077,80.318L464.077,81.734L465.52,81.734L465.52,82.589L464.077,82.589L464.077,84.585C464.077,84.887 464.196,85.217 464.752,85.217C464.933,85.217 465.318,85.172 465.563,85.099L465.563,85.984C465.097,86.045 464.874,86.075 464.531,86.075C463.629,86.075 463.124,85.767 463.124,84.822L463.124,82.589L462.39,82.589L462.39,81.734Z" style="fill:rgb(35,31,32);fill-rule:nonzero;"/>
                </g>
                <g transform="matrix(4.16667,0,0,4.16667,0,2825.45)">
                    <path d="M466.57,83.825C466.694,83.859 466.899,83.926 467.156,83.926C467.943,83.926 468.2,83.575 468.2,83.241C468.2,83.039 468.162,82.843 468.027,82.561L466.38,78.973L467.424,78.973L468.824,82.148L470.219,78.973L471.266,78.973L469.118,83.673C468.758,84.487 468.152,84.81 467.399,84.81C467.03,84.81 466.741,84.749 466.57,84.68L466.57,83.825Z" style="fill:rgb(35,31,32);fill-rule:nonzero;"/>
                </g>
            </g>
        </g>
    </g>
</svg>
