<?xml version="1.0" encoding="UTF-8" standalone="no"?>
<svg
   width="1080"
   height="234"
   viewBox="0 0 1080 234"
   fill="none"
   version="1.1"
   id="svg33"
   xmlns="http://www.w3.org/2000/svg"
   xmlns:svg="http://www.w3.org/2000/svg">
  <g
     clip-path="url(#clip0_1516_2281)"
     id="g33"
     transform="scale(6)">
    <path
       d="m 24.4211,17.802 -0.0199,-0.0682 c -0.7951,-2.822 -2.3022,-5.4341 -7.2049,-5.4341 -3.2491,0 -5.4592,1.2935 -6.5688,3.8428 l -0.0524,0.1202 -1.53604,-1.3814 0.07771,-0.07 c 2.21013,-1.9859 5.18453,-3.0803 8.37233,-3.0803 1.6155,0 2.754,0.375 3.6684,0.6764 0.6216,0.2045 1.1583,0.3821 1.6752,0.3821 0.8385,0 1.2017,-0.2745 1.4637,-0.5382 l 0.0271,-0.0287 h 0.2892 v 5.5794 h -0.1934 z"
       fill="#00b4e6"
       id="path1" />
    <path
       d="M 9.93725,28.9212 V 28.4046 H 12.9678 V 16.7507 L 3.70275,0.520263 H 0 V 0 H 12.6425 V 0.520263 H 8.67409 L 16.7771,14.6822 24.4302,0.520263 H 20.4166 V 0 h 8.8422 V 0.520263 H 25.3067 L 17.2849,15.4303 v 12.9743 h 4.5901 v 0.5166 z"
       fill="#8fc231"
       id="path2" />
    <path
       d="m 45.1776,19.5188 c 0,1.4209 -1.1637,2.5762 -2.5968,2.5762 -1.433,0 -2.595,-1.1553 -2.595,-2.5762 0,-1.4208 1.1602,-2.578 2.595,-2.578 1.4349,0 2.5968,1.1536 2.5968,2.578 z"
       fill="#ff140a"
       id="path3" />
    <path
       d="m 30.8402,19.2551 v 0.5221 h 3.2203 V 32.224 c 0,2.5457 -0.4663,3.2956 -1.2343,4.2267 -1.1168,1.3545 -2.7359,1.986 -5.0942,1.986 -3.3865,0 -4.8304,-1.7133 -4.8304,-5.7301 V 19.7754 h 3.2221 v -0.5221 h -8.8385 v 0.5221 h 2.4377 v 12.6567 c 0,4.2967 2.5824,6.5679 7.4706,6.5679 2.8859,0 4.8828,-0.7158 6.1098,-2.1887 1.1584,-1.3832 1.3951,-2.6192 1.3951,-4.0509 v -12.985 h 3.2221 v -0.5221 h -7.0803 z"
       fill="#ffdc00"
       id="path4" />
    <path
       d="m 17.265,32.0069 c -2.9582,0 -5.555,-0.8952 -7.71989,-2.6587 -2.52091,-2.0864 -3.79853,-4.5675 -3.79853,-7.377 0,-2.6389 1.22883,-5.2492 3.37025,-7.1616 l 0.06325,-0.0574 1.47462,1.3257 -0.0271,0.061 c -0.82227,1.8819 -0.92889,4.1047 -0.92889,5.8306 0,6.6396 2.24259,9.4723 7.49769,9.4723 5.7538,0 6.8128,-3.0319 7.6639,-5.7067 l 0.0217,-0.0664 h 0.1861 v 5.9328 h -0.2873 l -0.0271,-0.0251 c -0.2873,-0.2655 -0.6795,-0.54 -1.4602,-0.54 -0.4897,0 -1.0481,0.1453 -1.7547,0.3301 -1.0896,0.2834 -2.4468,0.6369 -4.2738,0.6369 z"
       fill="#00b4e6"
       id="path5" />
    <path
       d="m 74.8341,9.5298 2.0095,1.4227 c -0.1735,0.2888 -0.4319,0.3713 -1.0156,0.3713 h -4.4744 c -0.0867,0.1023 -0.2602,0.1651 -0.5837,0.2063 v 1.9196 h 2.1397 l 0.8854,-1.1141 2.2264,1.568 c -0.1518,0.1651 -0.3669,0.2888 -0.8204,0.3714 v 5.7964 c 0,0.1041 -0.6922,0.4952 -1.7511,0.4952 H 73.083 v -0.8253 h -6.5923 v 0.3911 c 0,0.1238 -0.627,0.5777 -1.686,0.5777 h -0.3452 v -4.6627 c -0.1301,0.4539 -0.5186,0.7625 -0.9288,0.7625 -0.2801,0 -0.562,-0.1238 -0.7987,-0.3911 -0.1302,-0.888 -0.6705,-2.1044 -1.2542,-2.9296 v 9.9854 c 0,0.0413 -0.3018,0.6387 -2.248,0.6387 v -8.2937 c -0.7572,1.2791 -1.686,2.4345 -2.81,3.4858 l -0.2802,-0.2691 c 1.5343,-2.4148 2.4414,-5.6117 2.8968,-8.7476 H 56.3782 L 56.2698,9.87605 h 2.9618 V 4.77927 l 3.1118,0.28883 c -0.0217,0.28884 -0.2168,0.45389 -0.8638,0.51668 v 4.29127 h 0.3452 l 1.0156,-1.44418 1.8812,1.48544 C 64.5481,10.1864 64.268,10.2887 63.7277,10.2887 h -2.2481 v 2.8058 c 1.9878,0.7015 2.8101,1.5877 2.9818,2.3304 v -2.8471 l 2.2697,0.8665 h 2.0095 v -2.1241 h -5.4249 l -0.1302,-0.4126 h 3.3504 V 7.87573 H 63.8777 L 63.7692,7.46311 h 2.7667 V 4.82232 l 2.7884,0.24758 c -0.0217,0.22604 -0.2169,0.35162 -0.7789,0.45388 v 1.93933 h 2.4631 V 4.82232 L 73.7752,5.0699 C 73.7535,5.31747 73.58,5.44125 73.018,5.52378 v 1.93933 h 0.2602 l 1.059,-1.40292 1.9661,1.44418 C 76.1298,7.7932 75.8714,7.87573 75.2877,7.87573 H 73.018 v 3.03187 h 0.7572 l 1.0589,-1.38138 z m -5.1882,11.8423 c -0.1084,0.1847 -0.3451,0.2888 -0.7355,0.2888 -0.1301,0 -0.2602,0 -0.4102,-0.0197 -1.3192,1.01 -3.6955,2.0003 -6.0953,2.517 l -0.1301,-0.2476 c 1.8595,-0.949 3.6738,-2.6408 4.5177,-3.8787 l 2.8534,1.342 z m -0.9071,-7.5098 h -2.2481 v 2.4758 h 2.2481 z m -2.2481,2.8884 v 2.5798 h 2.2481 v -2.5798 z m 2.0529,-5.8395 h 2.4631 V 7.87932 h -2.4631 z m 1.9462,9.449 c 4.4744,0.0198 5.9436,1.5877 5.9436,2.7018 0,0.619 -0.4536,1.0926 -1.0806,1.0926 -0.1952,0 -0.4103,-0.0413 -0.6271,-0.1435 -0.9505,-1.1967 -2.7884,-2.6606 -4.3226,-3.4248 z m 2.5932,-6.4979 h -2.3131 v 2.4758 h 2.3131 z m -2.3131,5.4664 h 2.3131 v -2.5798 h -2.3131 z"
       fill="#000000"
       id="path6" />
    <path
       d="m 78.0757,10.3963 c 2.8534,0.2063 3.7606,1.2181 3.7606,2.0434 0,0.6386 -0.5403,1.1751 -1.1891,1.1751 -0.2801,0 -0.6054,-0.1041 -0.8855,-0.3714 -0.2168,-0.949 -0.9722,-2.0631 -1.7944,-2.6821 z m 1.274,7.6532 c 0.3235,0 0.4102,0 0.6271,-0.4341 0.3235,-0.5167 0.4752,-0.784 4.5611,-9.6141 l 0.3669,0.10226 c -0.9072,2.66054 -2.5499,7.63354 -2.8751,8.76734 -0.1735,0.6602 -0.3235,1.3616 -0.3235,1.8765 v 0.1041 c 0.0217,1.01 0.7788,1.7742 0.7788,3.4247 0,1.5052 -1.0155,1.8568 -1.686,1.8568 -0.4753,0 -0.9288,-0.3085 -1.0806,-1.0728 0.1518,-0.8665 0.2385,-1.6917 0.2385,-2.3717 0,-1.898 -0.4102,-2.1241 -1.5776,-2.2281 v -0.4126 c 0.7355,0 0.9722,-0.0216 0.9722,-0.0216 v 0.0216 z M 79.0479,5.09321 c 3.0468,0.14352 4.0407,1.21634 4.0407,2.10437 0,0.6602 -0.5403,1.21813 -1.2107,1.21813 -0.2603,0 -0.5621,-0.10405 -0.8422,-0.33009 C 80.6906,7.07379 79.825,5.89872 78.9395,5.26005 L 79.0479,5.095 Z M 89.9845,20.3602 c -0.0867,0.1436 -0.2385,0.2476 -0.5186,0.2476 -0.0868,0 -0.1735,0 -0.2801,-0.0215 -1.4475,1.3616 -3.869,2.8058 -6.4622,3.5898 l -0.1518,-0.2888 c 1.9444,-1.3007 3.7822,-3.4248 4.6244,-5.034 z m 6.3104,-4.5173 2.1396,1.7115 c -0.1735,0.2691 -0.4536,0.3714 -1.0589,0.3714 H 83.0037 l -0.1085,-0.4127 h 2.8535 V 6.82622 l 2.4414,0.72299 C 90.5032,6.7437 93.0096,5.60988 94.3722,4.78464 l 2.4413,2.00211 C 96.6834,6.8908 96.5118,6.9518 96.2732,6.9518 96.0564,6.9518 95.798,6.91054 95.4944,6.80828 93.5933,7.34469 90.6531,7.8811 87.9082,8.16993 v 3.15567 h 6.182 l 1.2325,-1.60923 2.2914,1.65053 c -0.1735,0.2691 -0.4536,0.3713 -1.0373,0.3713 H 94.589 v 5.7767 h 0.5403 l 1.1674,-1.6702 z m -8.3867,-4.1065 v 5.7767 h 4.496 v -5.7767 z m 3.7388,7.3447 c 4.6895,0.8037 6.1605,2.6193 6.1605,3.8374 0,0.7014 -0.4753,1.2181 -1.1241,1.2181 -0.2602,0 -0.562,-0.0825 -0.8421,-0.2691 -0.8421,-1.5679 -2.6799,-3.4857 -4.3226,-4.5998 l 0.1302,-0.1848 z"
       fill="#000000"
       id="path7" />
    <path
       d="m 115.983,6.68268 2.615,1.77427 c -0.173,0.24758 -0.432,0.35163 -1.059,0.35163 h -7.888 l 0.736,0.06099 c -0.044,0.26911 -0.174,0.41263 -0.757,0.47542 v 2.90811 h 3.977 l 0.929,-1.1751 2.506,1.733 c -0.13,0.1435 -0.453,0.3301 -0.885,0.4126 v 5.7965 c 0,1.3419 -0.28,2.2891 -3.025,2.5798 0,-1.6505 -0.779,-1.9394 -2.161,-2.0847 v -0.2673 h 2.484 c 0.261,0 0.367,-0.0628 0.367,-0.2888 v -6.2916 h -4.192 v 10.7066 c 0,0.2476 -1.081,0.784 -1.945,0.784 H 107.21 V 12.6675 h -4.193 v 8.1287 c 0,0.0627 -0.323,0.8252 -2.313,0.8252 V 11.3058 l 2.463,0.9491 h 4.041 V 8.80858 H 98.4112 L 98.3027,8.39595 h 8.9033 V 4.78641 l 3.329,0.28883 c -0.022,0.30857 -0.26,0.45389 -0.907,0.53641 v 2.7843 h 4.971 l 1.383,-1.71148 z"
       fill="#000000"
       id="path8" />
    <path
       d="m 135.565,20.8554 2.68,1.794 c -0.174,0.2673 -0.454,0.3713 -1.059,0.3713 h -19.105 l -0.13,-0.4126 h 11.52 c 0.886,-3.4032 1.73,-8.0874 2.14,-11.3884 l 3.587,0.6602 c -0.065,0.2691 -0.28,0.3911 -0.885,0.4127 -0.907,2.8471 -2.594,7.0755 -4.453,10.3155 h 4.257 z m -16.468,-10.8305 -0.13,-0.41259 h 7.888 V 4.76489 l 3.285,0.28884 c -0.043,0.28883 -0.26,0.45388 -0.907,0.53641 v 4.02217 h 4.084 l 1.404,-1.73302 2.615,1.77428 c -0.174,0.2691 -0.432,0.37133 -1.037,0.37133 h -17.204 z m 3.242,1.5052 c 2.745,2.5995 3.695,5.2403 3.695,7.1168 0,1.6093 -0.692,2.6408 -1.534,2.6408 -0.345,0 -0.735,-0.1866 -1.102,-0.5776 0.065,-0.5365 0.108,-1.1141 0.108,-1.7115 0,-2.517 -0.605,-5.4269 -1.469,-7.386 z"
       fill="#000000"
       id="path9" />
    <path
       d="m 158.994,11.1587 c -0.173,0.2476 -0.432,0.3499 -1.059,0.3499 H 149.7 c 0.757,3.9002 3.221,7.8183 9.424,10.2743 l -0.043,0.2476 c -1.211,0.2063 -1.944,0.8449 -2.161,2.1456 -5.36,-3.0534 -6.981,-8.2112 -7.565,-12.4199 h -0.022 c -0.627,4.9514 -2.723,9.345 -10.461,12.4396 l -0.217,-0.3085 c 6.009,-3.5486 7.738,-7.7161 8.235,-12.3787 h -8.105 l -0.13,-0.4126 h 8.257 c 0.173,-1.77432 0.173,-3.23823 0.173,-6.25037 l 3.481,0.28883 c -0.043,0.28884 -0.195,0.47542 -0.886,0.53641 -0.043,1.8568 -0.065,3.67234 -0.26,5.42513 h 5.36 l 1.469,-1.79405 z"
       fill="#000000"
       id="path10" />
    <path
       d="m 176.068,17.5544 1.382,-1.7115 2.507,1.7743 c -0.174,0.2476 -0.432,0.3516 -1.059,0.3516 h -7.823 v 3.3207 c 0,1.5052 -0.41,2.578 -3.416,2.8256 0,-1.6092 -0.929,-1.9393 -3.046,-2.1456 v -0.2691 h 3.652 c 0.345,0 0.453,-0.1238 0.453,-0.4127 V 17.967 h -8.71 l -0.13,-0.4126 h 8.84 v -2.0416 l 1.838,0.1041 c 0.757,-0.68 1.708,-1.6918 2.313,-2.4758 h -8.968 l -0.131,-0.4126 h 9.143 l 1.36,-1.2181 1.319,1.2181 c 0.281,-0.6799 0.628,-1.6702 0.843,-2.4345 h -13.292 c 0.044,0.2261 0.044,0.4342 0.044,0.6387 0,1.5895 -0.972,2.4542 -2.097,2.4542 -0.67,0 -1.21,-0.3516 -1.21,-0.9275 0,-0.5167 0.432,-0.949 0.95,-1.1553 0.821,-0.3301 1.665,-1.2792 1.578,-2.45424 l 0.302,-0.02152 c 0.151,0.37136 0.282,0.72119 0.345,1.05308 h 9.509 c 0.907,-1.46571 1.923,-3.48756 2.485,-4.9712 l 3.133,1.1966 c -0.087,0.16505 -0.238,0.2691 -0.519,0.2691 -0.108,0 -0.216,-0.02152 -0.345,-0.04126 -0.994,1.09255 -2.615,2.47574 -4.192,3.54855 h 3.177 L 177.644,8.58256 180,10.7067 c -0.152,0.1865 -0.389,0.226 -0.842,0.2691 -0.821,0.6386 -2.183,1.5051 -3.264,2.0218 l 0.606,0.5562 c -0.174,0.165 -0.432,0.2063 -0.908,0.2475 -1.015,0.5777 -2.679,1.3204 -4.127,1.8766 l 0.432,0.0215 c -0.022,0.2691 -0.152,0.4126 -0.82,0.4754 v 1.3814 h 4.993 z M 162.863,5.21699 c 2.702,0.67993 3.587,1.83707 3.587,2.72331 0,0.72299 -0.562,1.27913 -1.21,1.27913 -0.324,0 -0.649,-0.14352 -0.951,-0.45388 -0.087,-1.13561 -0.757,-2.57979 -1.578,-3.40324 z m 5.057,-0.49514 c 2.549,0.82524 3.372,1.98058 3.372,2.88835 0,0.80551 -0.649,1.42265 -1.341,1.42265 -0.367,0 -0.736,-0.16505 -1.038,-0.53641 0.065,-1.21813 -0.453,-2.74304 -1.167,-3.65081 z"
       fill="#000000"
       id="path11" />
    <path
       d="m 57.9121,32.6259 v -0.2745 h 0.5693 v -1.7922 l -1.3987,-2.6928 h -0.5241 v -0.2745 h 2.1775 v 0.2745 h -0.43 l 1.1077,2.09 0.9975,-2.09 H 59.927 v -0.2745 h 1.3608 v 0.2745 h -0.5711 l -1.1583,2.4326 v 2.0524 h 0.5746 v 0.2745 z"
       fill="#000000"
       id="path12" />
    <path
       d="m 64.3254,32.7281 c -1.3048,0 -2.4089,-1.193 -2.4089,-2.6049 0,-1.5554 1.2686,-2.639 2.4089,-2.639 1.3463,0 2.4016,1.15 2.4016,2.6193 0,1.4693 -1.1222,2.6264 -2.4016,2.6264 z m -0.0073,-4.9712 c -0.3415,0 -0.5963,0.0951 -0.7806,0.2924 -0.3072,0.3266 -0.4337,0.9258 -0.4337,2.0721 0,1.7635 0.2963,2.3305 1.2198,2.3305 0.3234,0 0.5692,-0.0754 0.73,-0.2225 0.3705,-0.3301 0.4843,-0.836 0.4843,-2.1708 0,-0.7014 -0.0379,-1.175 -0.1138,-1.4477 -0.159,-0.592 -0.5006,-0.854 -1.106,-0.854 z"
       fill="#000000"
       id="path13" />
    <path
       d="m 70.4084,32.6259 v -0.2745 h 0.4752 l -1.4312,-2.0793 v 2.0793 h 0.5675 v 0.2745 h -2.2137 v -0.2745 h 0.5692 v -4.485 h -0.5692 v -0.2745 h 2.2137 v 0.2745 h -0.5675 v 1.907 l 1.6535,-1.907 h -0.5186 v -0.2745 h 1.4168 v 0.2745 h -0.5422 l -1.3065,1.5123 2.0727,2.9727 h 0.4265 v 0.2745 z"
       fill="#000000"
       id="path14" />
    <path
       d="m 75.6725,32.7281 c -1.3047,0 -2.4088,-1.193 -2.4088,-2.6049 0,-1.5554 1.2686,-2.639 2.4088,-2.639 1.3463,0 2.4017,1.15 2.4017,2.6193 0,1.4693 -1.1222,2.6264 -2.4017,2.6264 z m -0.0072,-4.9712 c -0.3415,0 -0.5963,0.0951 -0.7807,0.2924 -0.3072,0.3266 -0.4337,0.9258 -0.4337,2.0721 0,1.7635 0.2964,2.3305 1.2198,2.3305 0.3235,0 0.5693,-0.0754 0.7301,-0.2225 0.3705,-0.3301 0.4843,-0.836 0.4843,-2.1708 0,-0.7014 -0.0379,-1.175 -0.1138,-1.4477 -0.1591,-0.592 -0.5006,-0.854 -1.106,-0.854 z"
       fill="#000000"
       id="path15" />
    <path
       d="m 81.7622,32.6259 v -0.2745 h 0.5674 v -2.1528 h -1.6047 v 2.1528 h 0.5692 v 0.2745 h -2.2155 v -0.2745 h 0.5692 v -4.485 h -0.5692 v -0.2745 h 2.2155 v 0.2745 h -0.5692 v 2.0577 h 1.6047 v -2.0577 h -0.5674 v -0.2745 h 2.2137 v 0.2745 h -0.5693 v 4.485 h 0.5693 v 0.2745 z"
       fill="#000000"
       id="path16" />
    <path
       d="m 87.6211,32.6259 v -0.2745 h 0.5331 l -0.6469,-1.6469 h -1.359 l -0.618,1.6469 h 0.5096 v 0.2745 h -1.3553 v -0.2745 h 0.5529 l 1.8415,-4.9497 h 0.2909 l 1.9463,4.9497 h 0.5602 v 0.2745 h -2.2571 z m -0.215,-2.1977 -0.5946,-1.5177 -0.5638,1.5177 h 1.1602 z"
       fill="#000000"
       id="path17" />
    <path
       d="m 93.9496,32.6259 v -0.2745 h 0.562 v -4.033 l -1.377,4.3075 h -0.2295 l -1.3824,-4.3092 v 4.0347 h 0.5674 v 0.2745 h -1.4168 v -0.2745 h 0.5693 v -4.485 h -0.5693 v -0.2745 h 1.7457 l 1.0102,3.2059 1.0264,-3.2059 h 1.7023 v 0.2745 h -0.5692 v 4.485 h 0.5692 v 0.2745 z"
       fill="#000000"
       id="path18" />
    <path
       d="m 99.9507,32.6259 v -0.2745 h 0.5333 l -0.6471,-1.6469 h -1.359 l -0.618,1.6469 h 0.5096 v 0.2745 h -1.3553 v -0.2745 h 0.5529 l 1.8415,-4.9497 h 0.2909 l 1.9465,4.9497 h 0.56 v 0.2745 h -2.2571 z m -0.215,-2.1977 -0.5946,-1.5177 -0.5638,1.5177 h 1.1602 z"
       fill="#000000"
       id="path19" />
    <path
       d="m 108.773,32.7281 c -1.303,0 -2.401,-1.193 -2.401,-2.6049 0,-1.5554 1.265,-2.639 2.401,-2.639 0.309,0 0.595,0.0933 0.824,0.1687 0.136,0.0448 0.251,0.0825 0.32,0.0825 0.089,0 0.089,-0.0036 0.103,-0.0718 l 0.015,-0.0717 h 0.262 v 1.5697 h -0.241 l -0.018,-0.0663 c -0.26,-0.9383 -0.638,-1.3384 -1.259,-1.3384 -0.436,0 -0.721,0.1382 -0.926,0.4503 -0.209,0.3283 -0.294,0.8881 -0.294,1.9286 0,1.7545 0.294,2.3178 1.214,2.3178 0.606,0 1.097,-0.5292 1.283,-1.3813 l 0.017,-0.07 h 0.262 v 1.6254 h -0.252 l -0.021,-0.0574 c -0.031,-0.0772 -0.044,-0.0862 -0.12,-0.0862 -0.052,0 -0.164,0.0359 -0.281,0.0718 -0.232,0.0736 -0.55,0.174 -0.886,0.174 z"
       fill="#000000"
       id="path20" />
    <path
       d="m 111.934,32.6259 v -0.2745 h 0.567 v -4.485 h -0.567 v -0.2745 h 2.213 v 0.2745 h -0.569 v 4.485 h 0.569 v 0.2745 z"
       fill="#000000"
       id="path21" />
    <path
       d="m 116.359,32.6259 v -0.2745 h 0.57 v -4.4832 h -0.15 c -0.604,0 -0.848,0.2439 -1.081,1.0871 l -0.018,0.0664 h -0.241 v -1.428 h 4.056 v 1.428 h -0.241 l -0.018,-0.0664 C 119.021,28.1444 118.754,27.87 118.181,27.87 h -0.175 v 4.4832 h 0.569 v 0.2745 h -2.214 z"
       fill="#000000"
       id="path22" />
    <path
       d="m 121.921,32.6259 v -0.2745 h 0.568 v -1.7922 l -1.399,-2.6928 h -0.522 v -0.2745 h 2.176 v 0.2745 h -0.429 l 1.106,2.09 1,-2.09 h -0.485 v -0.2745 h 1.361 v 0.2745 h -0.571 l -1.16,2.4326 v 2.0524 h 0.575 v 0.2745 z"
       fill="#000000"
       id="path23" />
    <path
       d="m 131.906,32.7281 c -1.314,0 -1.927,-0.5507 -1.927,-1.733 v -3.1287 h -0.574 v -0.2745 h 2.221 v 0.2745 h -0.57 v 3.0605 c 0,1.342 0.438,1.5267 0.911,1.5267 0.833,0 1.238,-0.47 1.238,-1.437 v -3.1485 h -0.562 v -0.2744 h 1.417 v 0.2744 h -0.575 v 3.1557 c 0,1.132 -0.531,1.7061 -1.579,1.7061 z"
       fill="#000000"
       id="path24" />
    <path
       d="m 138.717,32.6259 -2.655,-4.1693 v 3.8948 h 0.569 v 0.2745 h -1.417 v -0.2745 h 0.57 v -4.485 h -0.57 v -0.2745 h 1.6 l 1.93,3.0444 v -2.7699 h -0.57 v -0.2745 h 1.417 v 0.2745 h -0.567 v 4.7595 z"
       fill="#000000"
       id="path25" />
    <path
       d="m 140.721,32.6259 v -0.2745 h 0.569 v -4.485 h -0.569 v -0.2745 h 2.213 v 0.2745 h -0.567 v 4.485 h 0.567 v 0.2745 z"
       fill="#000000"
       id="path26" />
    <path
       d="m 146.316,32.816 -1.706,-4.9496 h -0.551 v -0.2745 h 2.251 v 0.2745 h -0.558 l 1.155,3.3314 1.174,-3.3314 h -0.518 v -0.2745 h 1.36 v 0.2745 h -0.556 l -1.744,4.9496 z"
       fill="#000000"
       id="path27" />
    <path
       d="m 149.912,32.6259 v -0.2745 h 0.569 v -4.4832 h -0.569 v -0.2745 h 3.876 v 1.3455 h -0.24 l -0.018,-0.0664 c -0.179,-0.6387 -0.564,-1.0046 -1.057,-1.0046 h -0.917 v 1.9267 h 0.188 c 0.427,0 0.741,-0.0681 0.913,-0.9436 l 0.014,-0.0718 h 0.246 v 2.2999 h -0.246 l -0.014,-0.0735 c -0.159,-0.8306 -0.495,-0.9365 -0.77,-0.9365 h -0.331 v 2.282 h 0.949 c 0.624,0 1.101,-0.4952 1.278,-1.3258 l 0.014,-0.0717 h 0.244 v 1.672 h -4.131 z"
       fill="#000000"
       id="path28" />
    <path
       d="m 159.038,32.7281 c -0.344,0 -0.599,-0.0968 -0.777,-0.296 -0.181,-0.1973 -0.271,-0.5525 -0.277,-1.0818 -0.005,-0.4951 -0.076,-0.8521 -0.201,-1.0351 -0.133,-0.2045 -0.348,-0.2476 -0.505,-0.2476 h -0.342 v 2.282 h 0.569 v 0.2745 h -2.213 v -0.2745 h 0.569 v -4.4832 h -0.569 v -0.2745 h 1.091 c 0.101,0 0.248,-0.0036 0.403,-0.009 0.184,-0.0054 0.376,-0.0107 0.537,-0.0107 1.001,0 1.622,0.4808 1.622,1.2558 0,0.5382 -0.334,0.9203 -0.93,1.08 0.258,0.0627 0.432,0.1237 0.537,0.1883 0.157,0.0915 0.285,0.2225 0.377,0.3875 0.098,0.1758 0.147,0.4503 0.172,0.9527 0.023,0.4377 0.065,0.7247 0.096,0.8485 0.027,0.0808 0.065,0.1095 0.159,0.1095 0.106,0 0.171,-0.0736 0.245,-0.1579 l 0.033,-0.0359 0.063,-0.07 0.188,0.1866 -0.052,0.0628 c -0.253,0.3014 -0.448,0.3534 -0.794,0.3534 z m -1.997,-2.9332 c 0.372,0 0.508,-0.0879 0.585,-0.165 0.13,-0.131 0.185,-0.3445 0.185,-0.7338 0,-0.8862 -0.237,-1.0495 -0.702,-1.0495 -0.039,0 -0.084,0.0036 -0.135,0.009 -0.013,0 -0.025,0.0018 -0.04,0.0036 v 1.9339 h 0.107 z"
       fill="#000000"
       id="path29" />
    <path
       d="m 162.319,32.7281 c -0.34,0 -0.688,-0.1094 -0.943,-0.1883 -0.118,-0.0359 -0.228,-0.0718 -0.268,-0.0718 -0.049,0 -0.085,0.0317 -0.106,0.0951 l -0.02,0.061 h -0.255 v -1.6936 h 0.258 L 161,31.0041 c 0.07,0.3731 0.233,0.8826 0.613,1.1948 0.207,0.174 0.366,0.2512 0.757,0.2512 0.685,0 0.997,-0.5006 0.997,-0.967 0,-0.3588 -0.195,-0.5831 -0.652,-0.7553 -0.114,-0.0413 -0.233,-0.0807 -0.351,-0.1184 -0.724,-0.2368 -1.543,-0.5041 -1.543,-1.6361 0,-0.8235 0.708,-1.4944 1.579,-1.4944 0.356,0 0.6,0.104 0.779,0.1794 0.091,0.0394 0.17,0.0717 0.223,0.0717 0.041,0 0.05,-0.0036 0.052,-0.0054 0.004,-0.0018 0.014,-0.0161 0.036,-0.0789 l 0.022,-0.0592 h 0.253 v 1.4747 h -0.241 l -0.018,-0.0664 c -0.254,-0.9185 -0.545,-1.2433 -1.111,-1.2433 -0.566,0 -0.929,0.3929 -0.929,0.7553 0,0.4216 0.264,0.6279 1.173,0.9168 1.05,0.3336 1.478,0.7821 1.478,1.5518 0,0.9795 -0.79,1.7455 -1.796,1.7455 z"
       fill="#000000"
       id="path30" />
    <path
       d="m 165.263,32.6259 v -0.2745 h 0.568 v -4.485 h -0.568 v -0.2745 h 2.214 v 0.2745 h -0.569 v 4.485 h 0.569 v 0.2745 z"
       fill="#000000"
       id="path31" />
    <path
       d="m 169.656,32.6259 v -0.2745 h 0.569 v -4.4832 h -0.15 c -0.603,0 -0.847,0.2439 -1.08,1.0871 l -0.018,0.0664 h -0.241 v -1.428 h 4.055 v 1.428 h -0.24 l -0.018,-0.0664 C 172.318,28.1444 172.051,27.87 171.478,27.87 h -0.176 v 4.4832 h 0.57 v 0.2745 h -2.214 z"
       fill="#000000"
       id="path32" />
    <path
       d="m 175.282,32.6259 v -0.2745 h 0.567 v -1.7922 l -1.399,-2.6928 h -0.524 v -0.2745 h 2.178 v 0.2745 h -0.428 l 1.105,2.09 1,-2.09 h -0.484 v -0.2745 h 1.36 v 0.2745 h -0.571 l -1.16,2.4326 v 2.0524 h 0.575 v 0.2745 z"
       fill="#000000"
       id="path33" />
  </g>
  <defs
     id="defs33">
    <clipPath
       id="clip0_1516_2281">
      <rect
         width="180"
         height="39"
         fill="#ffffff"
         id="rect33"
         x="0"
         y="0" />
    </clipPath>
  </defs>
</svg>
